o GNATVCloth
v -4.98411 -4.98508 0.437539
v 5.04194 -4.99226 0.453967
v -5.01298 5.02105 0.004229
v 4.98702 5.02105 0.004229
v -3.87896 -5.01159 0.407798
v -2.76686 -5.03852 0.376352
v -1.65055 -5.04401 0.278523
v -0.533107 -5.04465 0.275028
v 0.588056 -5.05779 0.282567
v 1.707 -5.05809 0.324584
v 2.82166 -5.04377 0.280493
v 3.93576 -5.02317 0.324833
v 3.86862 4.95343 0.14338
v 2.75528 4.92374 0.266133
v 1.64695 4.87083 0.412393
v 0.543018 4.86404 0.379513
v -0.564539 4.86174 0.315116
v -1.66428 4.8805 0.205245
v -2.77556 4.89391 0.21342
v -3.88558 4.94232 0.0793263
v -4.9931 3.90704 0.0736756
v -4.98143 2.79158 0.0923565
v -4.97474 1.67671 0.112151
v -4.97327 0.562414 0.138476
v -4.97 -0.549205 0.203369
v -4.96896 -1.65965 0.27009
v -4.96724 -2.76674 0.392199
v -4.96385 -3.87248 0.492954
v 5.02819 -3.88243 0.387152
v 5.02343 -2.77135 0.336153
v 5.02111 -1.66261 0.243219
v 5.01438 -0.552202 0.166417
v 5.00839 0.560549 0.119447
v 5.00107 1.67525 0.0917778
v 4.99269 2.79037 0.0696617
v 4.98475 3.90562 0.0401479
v -3.80307 -3.85745 0.377793
v -3.76222 -3.20994 0.350873
v -3.62986 -1.93349 0.168879
v -4.08501 -0.278007 0.127873
v -4.11608 0.736278 0.16085
v -4.11232 1.52285 0.149656
v -4.06022 2.81619 0.149697
v -3.92856 3.8794 -0.0884469
v -2.68372 -4.01881 0.290644
v -2.75979 -2.75388 0.20546
v -2.64497 -2.16171 0.244394
v -2.72918 -0.618297 0.324763
v -2.76653 0.511859 0.330443
v -2.6905 1.55802 0.231944
v -2.83501 2.8775 -0.0198983
v -2.76214 3.55506 0.154941
v -1.62722 -4.24331 0.299582
v -1.4744 -2.9339 0.281984
v -1.86632 -1.64905 0.370143
v -1.85238 -0.852302 0.349711
v -1.50977 0.629933 0.173886
v -1.96892 1.67778 0.039751
v -1.72336 2.71117 0.269777
v -1.562 3.73201 0.242417
v -0.20623 -4.32576 0.294812
v -0.566008 -2.89711 0.304444
v -0.525638 -1.76354 0.316565
v -0.82026 -0.783685 0.267684
v -0.590044 0.429179 0.240634
v -0.362464 1.45732 0.284704
v -0.564913 2.64461 0.364669
v -0.74874 3.53403 0.284501
v 0.761091 -3.90364 0.308441
v 0.828046 -2.6159 0.240033
v 0.542963 -1.83512 0.278126
v 0.627608 -0.498543 0.280947
v 0.598073 0.407503 0.281127
v 0.309672 1.51273 0.287455
v 0.531968 2.48263 0.303799
v 0.544375 3.7672 0.292686
v 1.97104 -3.66168 0.270903
v 1.69153 -2.85137 0.255589
v 1.83965 -1.93456 0.307679
v 2.00121 -0.408694 0.269748
v 1.98587 0.277799 0.268112
v 1.8352 1.53851 0.227881
v 1.42106 2.81261 0.307936
v 1.47533 3.66057 0.265958
v 2.81091 -3.93085 0.290969
v 3.118 -2.84912 0.329321
v 2.97276 -1.97713 0.286004
v 2.73944 -0.516258 0.318731
v 2.98467 0.275455 0.289997
v 3.08311 1.57207 0.203352
v 2.78729 3.14326 0.240128
v 2.74335 3.5031 0.19514
v 3.93451 -3.97834 0.333374
v 3.68082 -2.72417 0.361913
v 3.89625 -1.68729 0.306498
v 3.83244 -0.733754 0.251497
v 3.89535 0.279001 0.231074
v 4.18739 1.79655 0.152121
v 4.14589 2.75866 0.0654384
v 4.02821 3.88058 -0.0110114
vt 0.0001 0.0001
vt 0.9999 0.0001
vt 0.0001 0.9999
vt 0.9999 0.9999
vt 0.111189 0.0001
vt 0.222278 0.0001
vt 0.333367 0.0001
vt 0.444455 0.0001
vt 0.555544 0.0001
vt 0.666633 0.0001
vt 0.777722 0.0001
vt 0.888811 0.0001
vt 0.888811 0.9999
vt 0.777722 0.9999
vt 0.666633 0.9999
vt 0.555544 0.9999
vt 0.444455 0.9999
vt 0.333367 0.9999
vt 0.222278 0.9999
vt 0.111189 0.9999
vt 0.0001 0.888811
vt 0.0001 0.777722
vt 0.0001 0.666633
vt 0.0001 0.555544
vt 0.0001 0.444456
vt 0.0001 0.333367
vt 0.0001 0.222278
vt 0.0001 0.111189
vt 0.9999 0.111189
vt 0.9999 0.222278
vt 0.9999 0.333367
vt 0.9999 0.444456
vt 0.9999 0.555544
vt 0.9999 0.666633
vt 0.9999 0.777722
vt 0.9999 0.888811
vt 0.11727 0.115399
vt 0.120778 0.180369
vt 0.134636 0.309595
vt 0.088728 0.473895
vt 0.085886 0.575352
vt 0.086211 0.65375
vt 0.092207 0.78313
vt 0.106956 0.892282
vt 0.22987 0.102869
vt 0.221803 0.229552
vt 0.233521 0.288953
vt 0.225541 0.443179
vt 0.221596 0.556167
vt 0.227801 0.661237
vt 0.214896 0.795203
vt 0.22542 0.865181
vt 0.335524 0.082127
vt 0.351143 0.213907
vt 0.311934 0.342467
vt 0.313159 0.422214
vt 0.347791 0.572605
vt 0.301482 0.677733
vt 0.329031 0.783086
vt 0.344903 0.885466
vt 0.476837 0.074882
vt 0.441952 0.218774
vt 0.445749 0.333088
vt 0.416414 0.43099
vt 0.439746 0.552976
vt 0.463203 0.656843
vt 0.444252 0.77653
vt 0.426137 0.866051
vt 0.573419 0.117409
vt 0.581125 0.246686
vt 0.552512 0.326
vt 0.561075 0.459693
vt 0.558356 0.550596
vt 0.530299 0.662189
vt 0.553275 0.760113
vt 0.555478 0.888821
vt 0.694433 0.13996
vt 0.667048 0.221666
vt 0.681985 0.314267
vt 0.698218 0.467249
vt 0.696819 0.535952
vt 0.68253 0.662758
vt 0.642062 0.791726
vt 0.648523 0.877957
vt 0.778029 0.111667
vt 0.809426 0.219523
vt 0.794923 0.307783
vt 0.772028 0.454562
vt 0.796846 0.533374
vt 0.807262 0.663157
vt 0.778581 0.821037
vt 0.775122 0.858219
vt 0.890224 0.104741
vt 0.865679 0.23076
vt 0.887326 0.334104
vt 0.881307 0.429754
vt 0.887973 0.53063
vt 0.918106 0.681428
vt 0.915043 0.778027
vt 0.904815 0.89094
vn 0.0256639 -0.0501948 0.99841
vn -0.0850565 0.0255654 0.996048
vn 0.0382736 -0.0446817 0.998268
vn 0.0380758 -0.045351 0.998245
vn 0.0510454 -0.00224201 0.998694
vn 0.0534608 0.0387227 0.997819
vn 0.0451583 -0.0275797 0.998599
vn -0.000727321 -0.026332 0.999653
vn -0.0163811 -0.0209423 0.999646
vn 0.00386508 0.0121347 0.999919
vn -0.0127086 -0.00901067 0.999879
vn -0.0777238 -0.00824373 0.996941
vn 0.120928 -0.12375 0.984917
vn 0.11778 -0.0911857 0.988844
vn 0.0537846 -0.127459 0.990385
vn -0.022341 -0.0913157 0.995571
vn -0.0536457 -0.023417 0.998285
vn -0.0456848 0.0282509 0.998556
vn -0.100399 -0.0517081 0.993603
vn -0.100678 -0.151147 0.983371
vn 0.0813102 0.0935105 0.992293
vn -0.0625599 0.0167 0.997901
vn -0.044369 0.0142585 0.998913
vn 0.00562805 0.0163029 0.999851
vn 0.0668483 0.059124 0.99601
vn 0.0829563 0.0724323 0.993917
vn 0.0823809 0.110786 0.990424
vn 0.0725702 0.023813 0.997079
vn -0.0536319 0.0524499 0.997182
vn 0.0101376 0.0398337 0.999155
vn 0.0566383 0.0713053 0.995845
vn 0.0731786 0.0425228 0.996412
vn 0.0859649 0.033992 0.995718
vn 0.0773176 0.0227991 0.996746
vn 0.0209164 0.0454358 0.998748
vn -0.0383888 0.040284 0.998451
vn 0.0793599 0.0382376 0.996112
vn 0.0874892 0.0833985 0.992668
vn 0.00335196 0.0432815 0.999057
vn -0.0323191 0.0102145 0.999425
vn -0.0646673 0.0140439 0.997808
vn -0.0499985 0.00822601 0.998715
vn 0.0252912 0.0917961 0.995457
vn -0.0359478 -0.014402 0.99925
vn 0.0392199 0.0579523 0.997549
vn -0.00221989 0.0339362 0.999422
vn -0.0922705 -0.0626518 0.993761
vn -0.0928885 -0.0201687 0.995472
vn 0.00747656 0.0556331 0.998423
vn 0.061866 0.100711 0.99299
vn -0.0581902 0.00558457 0.99829
vn -0.180317 -0.0964392 0.978869
vn 0.0104879 0.00344628 0.999939
vn -0.0333876 -0.0175914 0.999288
vn -0.0136173 -0.0166942 0.999768
vn 0.0426883 0.0473306 0.997967
vn 0.00137462 0.0733406 0.997306
vn -0.0139332 0.0114955 0.999837
vn -0.141087 -0.0690179 0.987588
vn -0.0558286 0.0116125 0.998373
vn -0.00338679 -0.0179187 0.999834
vn 0.00948124 0.000123281 0.999955
vn 0.0181495 0.00398119 0.999827
vn 0.016392 0.0488396 0.998672
vn -0.0376575 -0.00411156 0.999282
vn -0.0567495 -0.028984 0.997968
vn -0.041929 -0.0305275 0.998654
vn -0.0400536 0.0309448 0.998718
vn 0.00426705 0.0168863 0.999848
vn 0.00503909 -0.00710423 0.999962
vn 0.014578 -0.0210715 0.999672
vn -0.00366371 0.0112408 0.99993
vn -0.0015177 0.0043914 0.999989
vn 0.0081523 -0.019015 0.999786
vn 0.0247858 -0.0236497 0.999413
vn 0.00297003 -0.00445473 0.999986
vn -0.00902835 0.0153674 0.999841
vn -0.0160973 0.00199698 0.999868
vn -0.0145749 -0.0191971 0.999709
vn -0.0283075 0.0147464 0.99949
vn -0.00871533 0.0260719 0.999622
vn 0.0294995 -0.0105804 0.999509
vn 0.0282198 0.000489781 0.999602
vn 0.0459815 -0.0224945 0.998689
vn -0.0160929 -0.00580555 0.999854
vn -0.0485345 -0.000513702 0.998821
vn -0.0149978 0.014948 0.999776
vn -0.00128115 0.00985038 0.999951
vn 0.0299985 0.0411067 0.998704
vn 0.0392185 0.040208 0.998421
vn 0.0838919 0.0483835 0.9953
vn 0.103382 0.0424264 0.993736
vn -0.0464792 0.000287491 0.998919
vn -0.0238225 0.0195315 0.999525
vn 0.00977059 0.0621691 0.998018
vn 0.0477181 0.031527 0.998363
vn 0.0692693 0.035861 0.996953
vn 0.0504506 0.0508637 0.997431
vn 0.0395333 0.0589554 0.997477
vn 0.0825597 0.00237528 0.996583
f 100/100/100 4/4/4 13/13/13
f 44/44/44 3/3/3 21/21/21
f 44/44/44 19/19/19 20/20/20
f 60/60/60 19/19/19 52/52/52
f 60/60/60 17/17/17 18/18/18
f 76/76/76 17/17/17 68/68/68
f 84/84/84 16/16/16 76/76/76
f 84/84/84 14/14/14 15/15/15
f 100/100/100 14/14/14 92/92/92
f 11/11/11 93/93/93 85/85/85
f 93/93/93 86/86/86 85/85/85
f 94/94/94 87/87/87 86/86/86
f 87/87/87 96/96/96 88/88/88
f 96/96/96 89/89/89 88/88/88
f 97/97/97 90/90/90 89/89/89
f 90/90/90 99/99/99 91/91/91
f 91/91/91 100/100/100 92/92/92
f 10/10/10 85/85/85 77/77/77
f 77/77/77 86/86/86 78/78/78
f 78/78/78 87/87/87 79/79/79
f 79/79/79 88/88/88 80/80/80
f 88/88/88 81/81/81 80/80/80
f 81/81/81 90/90/90 82/82/82
f 82/82/82 91/91/91 83/83/83
f 91/91/91 84/84/84 83/83/83
f 10/10/10 69/69/69 9/9/9
f 69/69/69 78/78/78 70/70/70
f 70/70/70 79/79/79 71/71/71
f 79/79/79 72/72/72 71/71/71
f 72/72/72 81/81/81 73/73/73
f 73/73/73 82/82/82 74/74/74
f 82/82/82 75/75/75 74/74/74
f 83/83/83 76/76/76 75/75/75
f 9/9/9 61/61/61 8/8/8
f 69/69/69 62/62/62 61/61/61
f 62/62/62 71/71/71 63/63/63
f 63/63/63 72/72/72 64/64/64
f 72/72/72 65/65/65 64/64/64
f 65/65/65 74/74/74 66/66/66
f 66/66/66 75/75/75 67/67/67
f 67/67/67 76/76/76 68/68/68
f 8/8/8 53/53/53 7/7/7
f 53/53/53 62/62/62 54/54/54
f 54/54/54 63/63/63 55/55/55
f 55/55/55 64/64/64 56/56/56
f 64/64/64 57/57/57 56/56/56
f 57/57/57 66/66/66 58/58/58
f 58/58/58 67/67/67 59/59/59
f 59/59/59 68/68/68 60/60/60
f 6/6/6 53/53/53 45/45/45
f 45/45/45 54/54/54 46/46/46
f 54/54/54 47/47/47 46/46/46
f 55/55/55 48/48/48 47/47/47
f 56/56/56 49/49/49 48/48/48
f 49/49/49 58/58/58 50/50/50
f 58/58/58 51/51/51 50/50/50
f 59/59/59 52/52/52 51/51/51
f 6/6/6 37/37/37 5/5/5
f 45/45/45 38/38/38 37/37/37
f 46/46/46 39/39/39 38/38/38
f 39/39/39 48/48/48 40/40/40
f 40/40/40 49/49/49 41/41/41
f 41/41/41 50/50/50 42/42/42
f 50/50/50 43/43/43 42/42/42
f 51/51/51 44/44/44 43/43/43
f 5/5/5 28/28/28 1/1/1
f 28/28/28 38/38/38 27/27/27
f 27/27/27 39/39/39 26/26/26
f 26/26/26 40/40/40 25/25/25
f 40/40/40 24/24/24 25/25/25
f 41/41/41 23/23/23 24/24/24
f 23/23/23 43/43/43 22/22/22
f 43/43/43 21/21/21 22/22/22
f 2/2/2 93/93/93 12/12/12
f 93/93/93 30/30/30 94/94/94
f 30/30/30 95/95/95 94/94/94
f 31/31/31 96/96/96 95/95/95
f 32/32/32 97/97/97 96/96/96
f 33/33/33 98/98/98 97/97/97
f 98/98/98 35/35/35 99/99/99
f 99/99/99 36/36/36 100/100/100
f 100/100/100 36/36/36 4/4/4
f 44/44/44 20/20/20 3/3/3
f 44/44/44 52/52/52 19/19/19
f 60/60/60 18/18/18 19/19/19
f 60/60/60 68/68/68 17/17/17
f 76/76/76 16/16/16 17/17/17
f 84/84/84 15/15/15 16/16/16
f 84/84/84 92/92/92 14/14/14
f 100/100/100 13/13/13 14/14/14
f 11/11/11 12/12/12 93/93/93
f 93/93/93 94/94/94 86/86/86
f 94/94/94 95/95/95 87/87/87
f 87/87/87 95/95/95 96/96/96
f 96/96/96 97/97/97 89/89/89
f 97/97/97 98/98/98 90/90/90
f 90/90/90 98/98/98 99/99/99
f 91/91/91 99/99/99 100/100/100
f 10/10/10 11/11/11 85/85/85
f 77/77/77 85/85/85 86/86/86
f 78/78/78 86/86/86 87/87/87
f 79/79/79 87/87/87 88/88/88
f 88/88/88 89/89/89 81/81/81
f 81/81/81 89/89/89 90/90/90
f 82/82/82 90/90/90 91/91/91
f 91/91/91 92/92/92 84/84/84
f 10/10/10 77/77/77 69/69/69
f 69/69/69 77/77/77 78/78/78
f 70/70/70 78/78/78 79/79/79
f 79/79/79 80/80/80 72/72/72
f 72/72/72 80/80/80 81/81/81
f 73/73/73 81/81/81 82/82/82
f 82/82/82 83/83/83 75/75/75
f 83/83/83 84/84/84 76/76/76
f 9/9/9 69/69/69 61/61/61
f 69/69/69 70/70/70 62/62/62
f 62/62/62 70/70/70 71/71/71
f 63/63/63 71/71/71 72/72/72
f 72/72/72 73/73/73 65/65/65
f 65/65/65 73/73/73 74/74/74
f 66/66/66 74/74/74 75/75/75
f 67/67/67 75/75/75 76/76/76
f 8/8/8 61/61/61 53/53/53
f 53/53/53 61/61/61 62/62/62
f 54/54/54 62/62/62 63/63/63
f 55/55/55 63/63/63 64/64/64
f 64/64/64 65/65/65 57/57/57
f 57/57/57 65/65/65 66/66/66
f 58/58/58 66/66/66 67/67/67
f 59/59/59 67/67/67 68/68/68
f 6/6/6 7/7/7 53/53/53
f 45/45/45 53/53/53 54/54/54
f 54/54/54 55/55/55 47/47/47
f 55/55/55 56/56/56 48/48/48
f 56/56/56 57/57/57 49/49/49
f 49/49/49 57/57/57 58/58/58
f 58/58/58 59/59/59 51/51/51
f 59/59/59 60/60/60 52/52/52
f 6/6/6 45/45/45 37/37/37
f 45/45/45 46/46/46 38/38/38
f 46/46/46 47/47/47 39/39/39
f 39/39/39 47/47/47 48/48/48
f 40/40/40 48/48/48 49/49/49
f 41/41/41 49/49/49 50/50/50
f 50/50/50 51/51/51 43/43/43
f 51/51/51 52/52/52 44/44/44
f 5/5/5 37/37/37 28/28/28
f 28/28/28 37/37/37 38/38/38
f 27/27/27 38/38/38 39/39/39
f 26/26/26 39/39/39 40/40/40
f 40/40/40 41/41/41 24/24/24
f 41/41/41 42/42/42 23/23/23
f 23/23/23 42/42/42 43/43/43
f 43/43/43 44/44/44 21/21/21
f 2/2/2 29/29/29 93/93/93
f 93/93/93 29/29/29 30/30/30
f 30/30/30 31/31/31 95/95/95
f 31/31/31 32/32/32 96/96/96
f 32/32/32 33/33/33 97/97/97
f 33/33/33 34/34/34 98/98/98
f 98/98/98 34/34/34 35/35/35
f 99/99/99 35/35/35 36/36/36
