o GNATVCloth
v -5.0014 -4.9606 0.619027
v 5.04853 -4.99046 0.387906
v -5.01298 5.02105 0.004229
v 4.98702 5.02105 0.004229
v -3.90216 -5.00823 0.449747
v -2.78861 -5.03652 0.460095
v -1.67046 -5.07058 0.431547
v -0.547694 -5.09392 0.425714
v 0.576466 -5.09928 0.387834
v 1.69829 -5.07967 0.382341
v 2.81832 -5.0513 0.393414
v 3.93541 -5.02625 0.326051
v 3.87565 4.87873 0.217263
v 2.77441 4.76996 0.434724
v 1.65271 4.74342 0.391787
v 0.533056 4.70627 0.421863
v -0.572435 4.66483 0.598273
v -1.68879 4.70688 0.499456
v -2.81274 4.73913 0.487013
v -3.90864 4.86275 0.247904
v -4.97478 3.90957 0.0975428
v -4.96298 2.79459 0.122018
v -4.96399 1.6802 0.15323
v -4.96619 0.566239 0.181879
v -4.96875 -0.546218 0.226024
v -4.97488 -1.65797 0.278164
v -4.98512 -2.76794 0.337835
v -4.99307 -3.87598 0.426497
v 5.0281 -3.8823 0.311219
v 5.00858 -2.77493 0.204959
v 4.99293 -1.66368 0.172636
v 4.98261 -0.551064 0.166236
v 4.97996 0.561981 0.157193
v 4.97572 1.67655 0.13716
v 4.97429 2.79191 0.126772
v 4.9648 3.9066 0.0714675
v -3.82074 -3.86497 0.419896
v -3.77924 -3.21811 0.359835
v -3.62983 -1.93044 0.273738
v -4.08008 -0.274501 0.198543
v -4.10748 0.742189 0.212727
v -4.10089 1.52539 0.159075
v -4.03614 2.81795 0.0966341
v -3.93378 3.87613 -0.181879
v -2.69725 -4.02345 0.347586
v -2.76265 -2.75344 0.272941
v -2.641 -2.16086 0.282792
v -2.71052 -0.618154 0.261518
v -2.74405 0.512609 0.214445
v -2.68577 1.54143 -0.00152729
v -2.85856 2.84956 -0.294907
v -2.76933 3.48789 -0.0139875
v -1.6401 -4.25581 0.383758
v -1.47428 -2.94097 0.409486
v -1.8583 -1.64356 0.387913
v -1.83331 -0.849802 0.306825
v -1.53855 0.568527 -0.209172
v -1.99986 1.63003 -0.306161
v -1.7285 2.65506 -0.0991916
v -1.57523 3.62013 0.21326
v -0.218371 -4.35254 0.383192
v -0.569075 -2.91462 0.347098
v -0.525372 -1.77838 0.233719
v -0.829875 -0.828548 0.0385959
v -0.608644 0.369588 -0.172334
v -0.375553 1.37652 -0.196596
v -0.573281 2.55666 0.00967101
v -0.754854 3.4185 0.208264
v 0.751094 -3.92574 0.325947
v 0.825206 -2.64888 0.297772
v 0.539064 -1.8746 0.138392
v 0.622408 -0.559665 -0.111335
v 0.588712 0.343885 -0.132921
v 0.297433 1.42889 -0.126555
v 0.524706 2.39458 -0.0163499
v 0.551084 3.61064 0.329811
v 1.96424 -3.6754 0.307798
v 1.68313 -2.87429 0.409027
v 1.82404 -1.94727 0.344729
v 1.98958 -0.442615 0.068465
v 1.98621 0.22168 -0.0933305
v 1.83035 1.47617 -0.195933
v 1.40815 2.74106 -0.0767325
v 1.48938 3.52831 0.245334
v 2.8063 -3.93958 0.294443
v 3.10657 -2.85441 0.293792
v 2.95598 -1.98109 0.408972
v 2.71442 -0.527597 0.242227
v 2.95853 0.265424 0.168661
v 3.07989 1.54204 -0.0845952
v 2.76835 3.10346 -0.211859
v 2.74598 3.43244 -0.0395245
v 3.93163 -3.98033 0.331639
v 3.66857 -2.72654 0.294248
v 3.87303 -1.68641 0.301942
v 3.80869 -0.732096 0.343478
v 3.86629 0.278984 0.293711
v 4.15691 1.79604 0.170808
v 4.1338 2.74833 0.00573519
v 4.03399 3.86392 -0.156811
vt 0.0001 0.0001
vt 0.9999 0.0001
vt 0.0001 0.9999
vt 0.9999 0.9999
vt 0.111189 0.0001
vt 0.222278 0.0001
vt 0.333367 0.0001
vt 0.444455 0.0001
vt 0.555544 0.0001
vt 0.666633 0.0001
vt 0.777722 0.0001
vt 0.888811 0.0001
vt 0.888811 0.9999
vt 0.777722 0.9999
vt 0.666633 0.9999
vt 0.555544 0.9999
vt 0.444455 0.9999
vt 0.333367 0.9999
vt 0.222278 0.9999
vt 0.111189 0.9999
vt 0.0001 0.888811
vt 0.0001 0.777722
vt 0.0001 0.666633
vt 0.0001 0.555544
vt 0.0001 0.444456
vt 0.0001 0.333367
vt 0.0001 0.222278
vt 0.0001 0.111189
vt 0.9999 0.111189
vt 0.9999 0.222278
vt 0.9999 0.333367
vt 0.9999 0.444456
vt 0.9999 0.555544
vt 0.9999 0.666633
vt 0.9999 0.777722
vt 0.9999 0.888811
vt 0.11727 0.115399
vt 0.120778 0.180369
vt 0.134636 0.309595
vt 0.088728 0.473895
vt 0.085886 0.575352
vt 0.086211 0.65375
vt 0.092207 0.78313
vt 0.106956 0.892282
vt 0.22987 0.102869
vt 0.221803 0.229552
vt 0.233521 0.288953
vt 0.225541 0.443179
vt 0.221596 0.556167
vt 0.227801 0.661237
vt 0.214896 0.795203
vt 0.22542 0.865181
vt 0.335524 0.082127
vt 0.351143 0.213907
vt 0.311934 0.342467
vt 0.313159 0.422214
vt 0.347791 0.572605
vt 0.301482 0.677733
vt 0.329031 0.783086
vt 0.344903 0.885466
vt 0.476837 0.074882
vt 0.441952 0.218774
vt 0.445749 0.333088
vt 0.416414 0.43099
vt 0.439746 0.552976
vt 0.463203 0.656843
vt 0.444252 0.77653
vt 0.426137 0.866051
vt 0.573419 0.117409
vt 0.581125 0.246686
vt 0.552512 0.326
vt 0.561075 0.459693
vt 0.558356 0.550596
vt 0.530299 0.662189
vt 0.553275 0.760113
vt 0.555478 0.888821
vt 0.694433 0.13996
vt 0.667048 0.221666
vt 0.681985 0.314267
vt 0.698218 0.467249
vt 0.696819 0.535952
vt 0.68253 0.662758
vt 0.642062 0.791726
vt 0.648523 0.877957
vt 0.778029 0.111667
vt 0.809426 0.219523
vt 0.794923 0.307783
vt 0.772028 0.454562
vt 0.796846 0.533374
vt 0.807262 0.663157
vt 0.778581 0.821037
vt 0.775122 0.858219
vt 0.890224 0.104741
vt 0.865679 0.23076
vt 0.887326 0.334104
vt 0.881307 0.429754
vt 0.887973 0.53063
vt 0.918106 0.681428
vt 0.915043 0.778027
vt 0.904815 0.89094
vn 0.157202 0.171435 0.972573
vn -0.0214876 0.0319026 0.99926
vn 0.00528957 -0.155584 0.987808
vn -0.0122804 -0.127904 0.991711
vn 0.0515972 0.0750159 0.995847
vn 0.0218828 0.0747204 0.996964
vn 0.0168161 0.057919 0.99818
vn 0.0148064 0.0519932 0.998538
vn 0.0253701 0.047089 0.998568
vn 0.00667554 0.060022 0.998175
vn 0.00617951 0.0573454 0.998335
vn 0.00250474 -0.00533387 0.999983
vn 0.215246 -0.308015 0.926712
vn 0.140801 -0.274348 0.951267
vn -0.00226946 -0.11936 0.992849
vn 0.091137 -0.0954222 0.991256
vn -0.0116279 -0.233183 0.972363
vn -0.0565158 -0.25978 0.964013
vn -0.161274 -0.346851 0.923951
vn -0.244464 -0.382004 0.891241
vn 0.184183 0.112495 0.976433
vn 0.0267368 0.0250923 0.999328
vn -0.00178367 0.0425657 0.999092
vn -0.0184237 0.0168581 0.999688
vn 0.0176881 0.0431758 0.998911
vn 0.0146416 0.0497454 0.998655
vn 0.0107058 0.0664009 0.997736
vn 0.0448804 0.0925714 0.994694
vn 0.0111843 0.0824806 0.99653
vn 0.0645396 0.0375247 0.997209
vn 0.125928 0.000707563 0.992039
vn 0.136979 0.0186501 0.990398
vn 0.089967 0.0288541 0.995527
vn 0.0430566 0.0137396 0.998978
vn -0.0843116 0.0746472 0.99364
vn -0.209286 0.0766991 0.974842
vn 0.0312647 0.0670807 0.997258
vn 0.0356542 0.0744639 0.996586
vn 0.00515169 0.0376129 0.999279
vn -0.00868138 0.026044 0.999623
vn 0.0121577 0.0561803 0.998347
vn 0.0579196 0.05653 0.996719
vn 0.149075 0.119341 0.981598
vn -0.0257768 -0.148884 0.988519
vn 0.0112183 0.0671487 0.99768
vn -0.0200239 0.033242 0.999247
vn -0.076459 -0.0014722 0.997072
vn -0.0470653 0.0399616 0.998092
vn 0.139687 0.135509 0.98088
vn 0.220411 0.165192 0.961317
vn 0.0553702 -0.0292393 0.998038
vn -0.201118 -0.350778 0.914607
vn 0.00893929 0.0379088 0.999241
vn -0.0151001 0.0207638 0.99967
vn 0.0385417 0.0800837 0.996043
vn 0.150582 0.160308 0.975513
vn 0.131224 0.177901 0.97526
vn 0.0912929 0.0306013 0.995354
vn -0.141889 -0.252419 0.957159
vn -0.0881746 -0.294126 0.951691
vn 0.024346 0.0411734 0.998855
vn 0.0438304 0.0637943 0.997
vn 0.0973136 0.147599 0.984248
vn 0.127979 0.196509 0.972114
vn -0.0226562 0.0706141 0.997246
vn -0.0654311 -0.0508388 0.996561
vn -0.064931 -0.214213 0.974626
vn -0.0692206 -0.27214 0.959765
vn 0.00546059 0.0177461 0.999828
vn -0.0699533 0.0966135 0.992861
vn -0.019341 0.164038 0.986264
vn -0.0325647 0.154342 0.987481
vn -0.0136615 0.0231948 0.999638
vn -0.0286747 -0.0351252 0.998971
vn 0.0331131 -0.167357 0.98534
vn 0.0496648 -0.233452 0.971099
vn 0.0339385 -0.0226427 0.999167
vn -0.0134404 -0.0225364 0.999656
vn -0.122876 0.143189 0.982038
vn -0.174649 0.214351 0.961016
vn -0.146038 0.146426 0.978383
vn 0.0135406 -0.00365098 0.999902
vn 0.125683 -0.235586 0.963692
vn 0.0970521 -0.271476 0.957539
vn -0.00582183 0.0460897 0.99892
vn 0.0277657 -0.0509282 0.998316
vn 0.0262356 -0.00360543 0.999649
vn -0.145284 0.153921 0.977344
vn -0.175008 0.152004 0.972763
vn -0.179155 0.127295 0.975551
vn 0.0506547 -0.162015 0.985487
vn 0.19312 -0.388869 0.900825
vn 0.00322105 0.0406306 0.999169
vn 0.0562361 -0.0212812 0.998191
vn 0.109657 -0.0184004 0.993799
vn 0.0364536 0.0359197 0.99869
vn -0.0273449 0.0841285 0.99608
vn -0.0805257 0.0909507 0.992594
vn -0.17794 0.112742 0.977562
vn 0.0372286 -0.161292 0.986204
f 100/100/100 4/4/4 13/13/13
f 44/44/44 3/3/3 21/21/21
f 44/44/44 19/19/19 20/20/20
f 60/60/60 19/19/19 52/52/52
f 60/60/60 17/17/17 18/18/18
f 76/76/76 17/17/17 68/68/68
f 84/84/84 16/16/16 76/76/76
f 84/84/84 14/14/14 15/15/15
f 100/100/100 14/14/14 92/92/92
f 11/11/11 93/93/93 85/85/85
f 93/93/93 86/86/86 85/85/85
f 94/94/94 87/87/87 86/86/86
f 87/87/87 96/96/96 88/88/88
f 96/96/96 89/89/89 88/88/88
f 97/97/97 90/90/90 89/89/89
f 90/90/90 99/99/99 91/91/91
f 91/91/91 100/100/100 92/92/92
f 10/10/10 85/85/85 77/77/77
f 77/77/77 86/86/86 78/78/78
f 78/78/78 87/87/87 79/79/79
f 79/79/79 88/88/88 80/80/80
f 88/88/88 81/81/81 80/80/80
f 81/81/81 90/90/90 82/82/82
f 82/82/82 91/91/91 83/83/83
f 91/91/91 84/84/84 83/83/83
f 10/10/10 69/69/69 9/9/9
f 69/69/69 78/78/78 70/70/70
f 70/70/70 79/79/79 71/71/71
f 79/79/79 72/72/72 71/71/71
f 72/72/72 81/81/81 73/73/73
f 73/73/73 82/82/82 74/74/74
f 82/82/82 75/75/75 74/74/74
f 83/83/83 76/76/76 75/75/75
f 9/9/9 61/61/61 8/8/8
f 69/69/69 62/62/62 61/61/61
f 62/62/62 71/71/71 63/63/63
f 63/63/63 72/72/72 64/64/64
f 72/72/72 65/65/65 64/64/64
f 65/65/65 74/74/74 66/66/66
f 66/66/66 75/75/75 67/67/67
f 67/67/67 76/76/76 68/68/68
f 8/8/8 53/53/53 7/7/7
f 53/53/53 62/62/62 54/54/54
f 54/54/54 63/63/63 55/55/55
f 55/55/55 64/64/64 56/56/56
f 64/64/64 57/57/57 56/56/56
f 57/57/57 66/66/66 58/58/58
f 58/58/58 67/67/67 59/59/59
f 59/59/59 68/68/68 60/60/60
f 6/6/6 53/53/53 45/45/45
f 45/45/45 54/54/54 46/46/46
f 54/54/54 47/47/47 46/46/46
f 55/55/55 48/48/48 47/47/47
f 56/56/56 49/49/49 48/48/48
f 49/49/49 58/58/58 50/50/50
f 58/58/58 51/51/51 50/50/50
f 59/59/59 52/52/52 51/51/51
f 6/6/6 37/37/37 5/5/5
f 45/45/45 38/38/38 37/37/37
f 46/46/46 39/39/39 38/38/38
f 39/39/39 48/48/48 40/40/40
f 40/40/40 49/49/49 41/41/41
f 41/41/41 50/50/50 42/42/42
f 50/50/50 43/43/43 42/42/42
f 51/51/51 44/44/44 43/43/43
f 5/5/5 28/28/28 1/1/1
f 28/28/28 38/38/38 27/27/27
f 27/27/27 39/39/39 26/26/26
f 26/26/26 40/40/40 25/25/25
f 40/40/40 24/24/24 25/25/25
f 41/41/41 23/23/23 24/24/24
f 23/23/23 43/43/43 22/22/22
f 43/43/43 21/21/21 22/22/22
f 2/2/2 93/93/93 12/12/12
f 93/93/93 30/30/30 94/94/94
f 30/30/30 95/95/95 94/94/94
f 31/31/31 96/96/96 95/95/95
f 32/32/32 97/97/97 96/96/96
f 33/33/33 98/98/98 97/97/97
f 98/98/98 35/35/35 99/99/99
f 99/99/99 36/36/36 100/100/100
f 100/100/100 36/36/36 4/4/4
f 44/44/44 20/20/20 3/3/3
f 44/44/44 52/52/52 19/19/19
f 60/60/60 18/18/18 19/19/19
f 60/60/60 68/68/68 17/17/17
f 76/76/76 16/16/16 17/17/17
f 84/84/84 15/15/15 16/16/16
f 84/84/84 92/92/92 14/14/14
f 100/100/100 13/13/13 14/14/14
f 11/11/11 12/12/12 93/93/93
f 93/93/93 94/94/94 86/86/86
f 94/94/94 95/95/95 87/87/87
f 87/87/87 95/95/95 96/96/96
f 96/96/96 97/97/97 89/89/89
f 97/97/97 98/98/98 90/90/90
f 90/90/90 98/98/98 99/99/99
f 91/91/91 99/99/99 100/100/100
f 10/10/10 11/11/11 85/85/85
f 77/77/77 85/85/85 86/86/86
f 78/78/78 86/86/86 87/87/87
f 79/79/79 87/87/87 88/88/88
f 88/88/88 89/89/89 81/81/81
f 81/81/81 89/89/89 90/90/90
f 82/82/82 90/90/90 91/91/91
f 91/91/91 92/92/92 84/84/84
f 10/10/10 77/77/77 69/69/69
f 69/69/69 77/77/77 78/78/78
f 70/70/70 78/78/78 79/79/79
f 79/79/79 80/80/80 72/72/72
f 72/72/72 80/80/80 81/81/81
f 73/73/73 81/81/81 82/82/82
f 82/82/82 83/83/83 75/75/75
f 83/83/83 84/84/84 76/76/76
f 9/9/9 69/69/69 61/61/61
f 69/69/69 70/70/70 62/62/62
f 62/62/62 70/70/70 71/71/71
f 63/63/63 71/71/71 72/72/72
f 72/72/72 73/73/73 65/65/65
f 65/65/65 73/73/73 74/74/74
f 66/66/66 74/74/74 75/75/75
f 67/67/67 75/75/75 76/76/76
f 8/8/8 61/61/61 53/53/53
f 53/53/53 61/61/61 62/62/62
f 54/54/54 62/62/62 63/63/63
f 55/55/55 63/63/63 64/64/64
f 64/64/64 65/65/65 57/57/57
f 57/57/57 65/65/65 66/66/66
f 58/58/58 66/66/66 67/67/67
f 59/59/59 67/67/67 68/68/68
f 6/6/6 7/7/7 53/53/53
f 45/45/45 53/53/53 54/54/54
f 54/54/54 55/55/55 47/47/47
f 55/55/55 56/56/56 48/48/48
f 56/56/56 57/57/57 49/49/49
f 49/49/49 57/57/57 58/58/58
f 58/58/58 59/59/59 51/51/51
f 59/59/59 60/60/60 52/52/52
f 6/6/6 45/45/45 37/37/37
f 45/45/45 46/46/46 38/38/38
f 46/46/46 47/47/47 39/39/39
f 39/39/39 47/47/47 48/48/48
f 40/40/40 48/48/48 49/49/49
f 41/41/41 49/49/49 50/50/50
f 50/50/50 51/51/51 43/43/43
f 51/51/51 52/52/52 44/44/44
f 5/5/5 37/37/37 28/28/28
f 28/28/28 37/37/37 38/38/38
f 27/27/27 38/38/38 39/39/39
f 26/26/26 39/39/39 40/40/40
f 40/40/40 41/41/41 24/24/24
f 41/41/41 42/42/42 23/23/23
f 23/23/23 42/42/42 43/43/43
f 43/43/43 44/44/44 21/21/21
f 2/2/2 29/29/29 93/93/93
f 93/93/93 29/29/29 30/30/30
f 30/30/30 31/31/31 95/95/95
f 31/31/31 32/32/32 96/96/96
f 32/32/32 33/33/33 97/97/97
f 33/33/33 34/34/34 98/98/98
f 98/98/98 34/34/34 35/35/35
f 99/99/99 35/35/35 36/36/36
