o GNATVCloth
v -5.00339 -4.95848 0.619552
v 5.04876 -4.99088 0.385911
v -5.01298 5.02105 0.004229
v 4.98702 5.02105 0.004229
v -3.90448 -5.00937 0.446887
v -2.79044 -5.03917 0.458202
v -1.67247 -5.07331 0.431125
v -0.549516 -5.09659 0.423417
v 0.575603 -5.09942 0.38367
v 1.69804 -5.07993 0.377994
v 2.81837 -5.05395 0.389897
v 3.93573 -5.02571 0.32537
v 3.8759 4.87779 0.21888
v 2.77472 4.76727 0.434893
v 1.65304 4.74399 0.397171
v 0.53299 4.7091 0.429418
v -0.572833 4.66105 0.60123
v -1.68816 4.70816 0.498566
v -2.81168 4.73946 0.484331
v -3.90823 4.85931 0.244827
v -4.97466 3.90946 0.0986873
v -4.96265 2.79437 0.122318
v -4.96373 1.68006 0.151839
v -4.96551 0.56669 0.179671
v -4.96869 -0.545367 0.224279
v -4.97514 -1.65689 0.277276
v -4.98495 -2.76771 0.335869
v -4.99438 -3.87542 0.4242
v 5.02803 -3.88266 0.308775
v 5.00863 -2.77479 0.205119
v 4.99282 -1.66297 0.172842
v 4.98268 -0.55014 0.164548
v 4.97952 0.562895 0.155012
v 4.97499 1.67717 0.136688
v 4.97319 2.79232 0.126268
v 4.96492 3.90672 0.0711269
v -3.82226 -3.86608 0.419717
v -3.77981 -3.21796 0.361994
v -3.63042 -1.93067 0.27297
v -4.07997 -0.274711 0.198171
v -4.10726 0.742635 0.216001
v -4.10091 1.52618 0.161982
v -4.03654 2.81646 0.0954448
v -3.93411 3.87239 -0.181346
v -2.69837 -4.02194 0.348848
v -2.76339 -2.75639 0.271328
v -2.64136 -2.16517 0.282488
v -2.71086 -0.618769 0.260178
v -2.74423 0.511553 0.210863
v -2.68572 1.53981 0.00103989
v -2.85874 2.84578 -0.297196
v -2.76862 3.48972 -0.0186242
v -1.64104 -4.25754 0.384768
v -1.47454 -2.94274 0.40918
v -1.85833 -1.64742 0.388137
v -1.83359 -0.854552 0.304408
v -1.53843 0.566151 -0.210436
v -2.00177 1.62822 -0.308368
v -1.72951 2.65072 -0.0980591
v -1.57506 3.61779 0.208135
v -0.219641 -4.35598 0.381498
v -0.568662 -2.91655 0.342428
v -0.525534 -1.78335 0.227812
v -0.83049 -0.834204 0.0285419
v -0.608694 0.364338 -0.184961
v -0.376031 1.37439 -0.205068
v -0.573548 2.55394 0.000321629
v -0.754806 3.41887 0.202282
v 0.750669 -3.93012 0.32477
v 0.824788 -2.64957 0.293328
v 0.538976 -1.87594 0.128734
v 0.622308 -0.561902 -0.115219
v 0.58858 0.340367 -0.140444
v 0.296651 1.42339 -0.133214
v 0.523709 2.39366 -0.0243576
v 0.550584 3.60967 0.327815
v 1.96375 -3.67719 0.308448
v 1.68197 -2.87637 0.407918
v 1.82372 -1.94843 0.339979
v 1.99042 -0.44428 0.0621988
v 1.98609 0.219772 -0.0956754
v 1.82924 1.47379 -0.205775
v 1.40718 2.74167 -0.0811215
v 1.48807 3.52851 0.237085
v 2.80566 -3.94267 0.294362
v 3.10646 -2.85411 0.294951
v 2.95584 -1.98123 0.409324
v 2.71571 -0.529641 0.238488
v 2.95809 0.263734 0.167299
v 3.07806 1.53997 -0.0835875
v 2.76787 3.10282 -0.212407
v 2.74507 3.4337 -0.0429182
v 3.93161 -3.98064 0.330354
v 3.66862 -2.72859 0.292177
v 3.87293 -1.68863 0.3013
v 3.80962 -0.732299 0.34622
v 3.86601 0.279591 0.295738
v 4.15597 1.79624 0.172474
v 4.13254 2.74907 0.00685422
v 4.03405 3.86313 -0.15754
vt 0.0001 0.0001
vt 0.9999 0.0001
vt 0.0001 0.9999
vt 0.9999 0.9999
vt 0.111189 0.0001
vt 0.222278 0.0001
vt 0.333367 0.0001
vt 0.444455 0.0001
vt 0.555544 0.0001
vt 0.666633 0.0001
vt 0.777722 0.0001
vt 0.888811 0.0001
vt 0.888811 0.9999
vt 0.777722 0.9999
vt 0.666633 0.9999
vt 0.555544 0.9999
vt 0.444455 0.9999
vt 0.333367 0.9999
vt 0.222278 0.9999
vt 0.111189 0.9999
vt 0.0001 0.888811
vt 0.0001 0.777722
vt 0.0001 0.666633
vt 0.0001 0.555544
vt 0.0001 0.444456
vt 0.0001 0.333367
vt 0.0001 0.222278
vt 0.0001 0.111189
vt 0.9999 0.111189
vt 0.9999 0.222278
vt 0.9999 0.333367
vt 0.9999 0.444456
vt 0.9999 0.555544
vt 0.9999 0.666633
vt 0.9999 0.777722
vt 0.9999 0.888811
vt 0.11727 0.115399
vt 0.120778 0.180369
vt 0.134636 0.309595
vt 0.088728 0.473895
vt 0.085886 0.575352
vt 0.086211 0.65375
vt 0.092207 0.78313
vt 0.106956 0.892282
vt 0.22987 0.102869
vt 0.221803 0.229552
vt 0.233521 0.288953
vt 0.225541 0.443179
vt 0.221596 0.556167
vt 0.227801 0.661237
vt 0.214896 0.795203
vt 0.22542 0.865181
vt 0.335524 0.082127
vt 0.351143 0.213907
vt 0.311934 0.342467
vt 0.313159 0.422214
vt 0.347791 0.572605
vt 0.301482 0.677733
vt 0.329031 0.783086
vt 0.344903 0.885466
vt 0.476837 0.074882
vt 0.441952 0.218774
vt 0.445749 0.333088
vt 0.416414 0.43099
vt 0.439746 0.552976
vt 0.463203 0.656843
vt 0.444252 0.77653
vt 0.426137 0.866051
vt 0.573419 0.117409
vt 0.581125 0.246686
vt 0.552512 0.326
vt 0.561075 0.459693
vt 0.558356 0.550596
vt 0.530299 0.662189
vt 0.553275 0.760113
vt 0.555478 0.888821
vt 0.694433 0.13996
vt 0.667048 0.221666
vt 0.681985 0.314267
vt 0.698218 0.467249
vt 0.696819 0.535952
vt 0.68253 0.662758
vt 0.642062 0.791726
vt 0.648523 0.877957
vt 0.778029 0.111667
vt 0.809426 0.219523
vt 0.794923 0.307783
vt 0.772028 0.454562
vt 0.796846 0.533374
vt 0.807262 0.663157
vt 0.778581 0.821037
vt 0.775122 0.858219
vt 0.890224 0.104741
vt 0.865679 0.23076
vt 0.887326 0.334104
vt 0.881307 0.429754
vt 0.887973 0.53063
vt 0.918106 0.681428
vt 0.915043 0.778027
vt 0.904815 0.89094
vn 0.160707 0.173903 0.971561
vn -0.0204015 0.0323922 0.999267
vn 0.00655484 -0.153484 0.988129
vn -0.0116197 -0.128968 0.991581
vn 0.0519047 0.0743621 0.99588
vn 0.0207756 0.0719993 0.997188
vn 0.0169499 0.0560753 0.998283
vn 0.0164771 0.0503452 0.998596
vn 0.0261405 0.0449758 0.998646
vn 0.00634156 0.0569697 0.998356
vn 0.00542202 0.0555078 0.998444
vn 0.00180816 -0.00476194 0.999987
vn 0.215781 -0.309886 0.925964
vn 0.140379 -0.279296 0.949888
vn 0.000997294 -0.130711 0.99142
vn 0.0926685 -0.104671 0.99018
vn -0.0140884 -0.239558 0.97078
vn -0.0595218 -0.262692 0.963042
vn -0.16015 -0.347607 0.923862
vn -0.243182 -0.379157 0.892806
vn 0.185511 0.112166 0.976219
vn 0.0284255 0.0239653 0.999309
vn -0.00526071 0.0429937 0.999062
vn -0.0229276 0.015518 0.999617
vn 0.0160122 0.0437801 0.998913
vn 0.0139558 0.049584 0.998672
vn 0.00864615 0.0668369 0.997726
vn 0.0440447 0.0916797 0.994814
vn 0.0123295 0.081518 0.996596
vn 0.0638062 0.0367452 0.997286
vn 0.126635 5.38627e-05 0.991949
vn 0.140543 0.0195815 0.989881
vn 0.0932257 0.0283641 0.995241
vn 0.0455356 0.0130098 0.998878
vn -0.0821593 0.0748517 0.993804
vn -0.208971 0.0772689 0.974865
vn 0.0296151 0.0640453 0.997507
vn 0.0350081 0.0743764 0.996616
vn 0.005101 0.0378682 0.99927
vn -0.00907256 0.0254409 0.999635
vn 0.010839 0.0540524 0.998479
vn 0.0557297 0.0584513 0.996733
vn 0.149467 0.120179 0.981436
vn -0.0229545 -0.147737 0.98876
vn 0.0109326 0.0663898 0.997734
vn -0.0194649 0.033857 0.999237
vn -0.0772147 -0.00210631 0.997012
vn -0.0461942 0.0413988 0.998074
vn 0.142066 0.133818 0.98077
vn 0.223569 0.165093 0.960604
vn 0.0569139 -0.0266079 0.998025
vn -0.199631 -0.348004 0.915992
vn 0.0102487 0.0372132 0.999255
vn -0.0133368 0.0212835 0.999685
vn 0.0415726 0.0823243 0.995738
vn 0.154091 0.161181 0.974821
vn 0.136587 0.176507 0.974777
vn 0.0950637 0.0297102 0.995028
vn -0.139584 -0.250812 0.957919
vn -0.0889832 -0.294504 0.951499
vn 0.0253056 0.040909 0.998842
vn 0.0454559 0.0660154 0.996783
vn 0.099801 0.148863 0.983809
vn 0.131543 0.198339 0.971266
vn -0.0214008 0.0696374 0.997343
vn -0.0632947 -0.0514357 0.996669
vn -0.0621253 -0.21633 0.974342
vn -0.0676426 -0.274664 0.959158
vn 0.00448651 0.0177774 0.999832
vn -0.0722159 0.100777 0.992285
vn -0.0199641 0.164968 0.986097
vn -0.0345585 0.154423 0.9874
vn -0.0162831 0.0254303 0.999544
vn -0.0297736 -0.035519 0.998925
vn 0.0319233 -0.168915 0.985114
vn 0.0499224 -0.23803 0.969974
vn 0.0331988 -0.0236027 0.99917
vn -0.015901 -0.0199883 0.999674
vn -0.1257 0.145275 0.981374
vn -0.175418 0.212151 0.961364
vn -0.148778 0.146068 0.978023
vn 0.0106589 -0.00348414 0.999937
vn 0.125163 -0.236837 0.963453
vn 0.0984585 -0.273896 0.956706
vn -0.00549971 0.0436404 0.999032
vn 0.0292352 -0.0504164 0.9983
vn 0.0251484 -0.00275862 0.99968
vn -0.149273 0.153108 0.97687
vn -0.178214 0.15053 0.97241
vn -0.182684 0.127532 0.974865
vn 0.0473067 -0.159416 0.986077
vn 0.190172 -0.386508 0.902467
vn 0.0040231 0.0402386 0.999182
vn 0.057909 -0.021053 0.9981
vn 0.109756 -0.0203516 0.99375
vn 0.0354466 0.0354568 0.998742
vn -0.0269207 0.0841666 0.996088
vn -0.0789703 0.0908311 0.99273
vn -0.177836 0.113657 0.977475
vn 0.0361725 -0.160686 0.986342
f 100/100/100 4/4/4 13/13/13
f 44/44/44 3/3/3 21/21/21
f 44/44/44 19/19/19 20/20/20
f 60/60/60 19/19/19 52/52/52
f 60/60/60 17/17/17 18/18/18
f 76/76/76 17/17/17 68/68/68
f 84/84/84 16/16/16 76/76/76
f 84/84/84 14/14/14 15/15/15
f 100/100/100 14/14/14 92/92/92
f 11/11/11 93/93/93 85/85/85
f 93/93/93 86/86/86 85/85/85
f 94/94/94 87/87/87 86/86/86
f 87/87/87 96/96/96 88/88/88
f 96/96/96 89/89/89 88/88/88
f 97/97/97 90/90/90 89/89/89
f 90/90/90 99/99/99 91/91/91
f 91/91/91 100/100/100 92/92/92
f 10/10/10 85/85/85 77/77/77
f 77/77/77 86/86/86 78/78/78
f 78/78/78 87/87/87 79/79/79
f 79/79/79 88/88/88 80/80/80
f 88/88/88 81/81/81 80/80/80
f 81/81/81 90/90/90 82/82/82
f 82/82/82 91/91/91 83/83/83
f 91/91/91 84/84/84 83/83/83
f 10/10/10 69/69/69 9/9/9
f 69/69/69 78/78/78 70/70/70
f 70/70/70 79/79/79 71/71/71
f 79/79/79 72/72/72 71/71/71
f 72/72/72 81/81/81 73/73/73
f 73/73/73 82/82/82 74/74/74
f 82/82/82 75/75/75 74/74/74
f 83/83/83 76/76/76 75/75/75
f 9/9/9 61/61/61 8/8/8
f 69/69/69 62/62/62 61/61/61
f 62/62/62 71/71/71 63/63/63
f 63/63/63 72/72/72 64/64/64
f 72/72/72 65/65/65 64/64/64
f 65/65/65 74/74/74 66/66/66
f 66/66/66 75/75/75 67/67/67
f 67/67/67 76/76/76 68/68/68
f 8/8/8 53/53/53 7/7/7
f 53/53/53 62/62/62 54/54/54
f 54/54/54 63/63/63 55/55/55
f 55/55/55 64/64/64 56/56/56
f 64/64/64 57/57/57 56/56/56
f 57/57/57 66/66/66 58/58/58
f 58/58/58 67/67/67 59/59/59
f 59/59/59 68/68/68 60/60/60
f 6/6/6 53/53/53 45/45/45
f 45/45/45 54/54/54 46/46/46
f 54/54/54 47/47/47 46/46/46
f 55/55/55 48/48/48 47/47/47
f 56/56/56 49/49/49 48/48/48
f 49/49/49 58/58/58 50/50/50
f 58/58/58 51/51/51 50/50/50
f 59/59/59 52/52/52 51/51/51
f 6/6/6 37/37/37 5/5/5
f 45/45/45 38/38/38 37/37/37
f 46/46/46 39/39/39 38/38/38
f 39/39/39 48/48/48 40/40/40
f 40/40/40 49/49/49 41/41/41
f 41/41/41 50/50/50 42/42/42
f 50/50/50 43/43/43 42/42/42
f 51/51/51 44/44/44 43/43/43
f 5/5/5 28/28/28 1/1/1
f 28/28/28 38/38/38 27/27/27
f 27/27/27 39/39/39 26/26/26
f 26/26/26 40/40/40 25/25/25
f 40/40/40 24/24/24 25/25/25
f 41/41/41 23/23/23 24/24/24
f 23/23/23 43/43/43 22/22/22
f 43/43/43 21/21/21 22/22/22
f 2/2/2 93/93/93 12/12/12
f 93/93/93 30/30/30 94/94/94
f 30/30/30 95/95/95 94/94/94
f 31/31/31 96/96/96 95/95/95
f 32/32/32 97/97/97 96/96/96
f 33/33/33 98/98/98 97/97/97
f 98/98/98 35/35/35 99/99/99
f 99/99/99 36/36/36 100/100/100
f 100/100/100 36/36/36 4/4/4
f 44/44/44 20/20/20 3/3/3
f 44/44/44 52/52/52 19/19/19
f 60/60/60 18/18/18 19/19/19
f 60/60/60 68/68/68 17/17/17
f 76/76/76 16/16/16 17/17/17
f 84/84/84 15/15/15 16/16/16
f 84/84/84 92/92/92 14/14/14
f 100/100/100 13/13/13 14/14/14
f 11/11/11 12/12/12 93/93/93
f 93/93/93 94/94/94 86/86/86
f 94/94/94 95/95/95 87/87/87
f 87/87/87 95/95/95 96/96/96
f 96/96/96 97/97/97 89/89/89
f 97/97/97 98/98/98 90/90/90
f 90/90/90 98/98/98 99/99/99
f 91/91/91 99/99/99 100/100/100
f 10/10/10 11/11/11 85/85/85
f 77/77/77 85/85/85 86/86/86
f 78/78/78 86/86/86 87/87/87
f 79/79/79 87/87/87 88/88/88
f 88/88/88 89/89/89 81/81/81
f 81/81/81 89/89/89 90/90/90
f 82/82/82 90/90/90 91/91/91
f 91/91/91 92/92/92 84/84/84
f 10/10/10 77/77/77 69/69/69
f 69/69/69 77/77/77 78/78/78
f 70/70/70 78/78/78 79/79/79
f 79/79/79 80/80/80 72/72/72
f 72/72/72 80/80/80 81/81/81
f 73/73/73 81/81/81 82/82/82
f 82/82/82 83/83/83 75/75/75
f 83/83/83 84/84/84 76/76/76
f 9/9/9 69/69/69 61/61/61
f 69/69/69 70/70/70 62/62/62
f 62/62/62 70/70/70 71/71/71
f 63/63/63 71/71/71 72/72/72
f 72/72/72 73/73/73 65/65/65
f 65/65/65 73/73/73 74/74/74
f 66/66/66 74/74/74 75/75/75
f 67/67/67 75/75/75 76/76/76
f 8/8/8 61/61/61 53/53/53
f 53/53/53 61/61/61 62/62/62
f 54/54/54 62/62/62 63/63/63
f 55/55/55 63/63/63 64/64/64
f 64/64/64 65/65/65 57/57/57
f 57/57/57 65/65/65 66/66/66
f 58/58/58 66/66/66 67/67/67
f 59/59/59 67/67/67 68/68/68
f 6/6/6 7/7/7 53/53/53
f 45/45/45 53/53/53 54/54/54
f 54/54/54 55/55/55 47/47/47
f 55/55/55 56/56/56 48/48/48
f 56/56/56 57/57/57 49/49/49
f 49/49/49 57/57/57 58/58/58
f 58/58/58 59/59/59 51/51/51
f 59/59/59 60/60/60 52/52/52
f 6/6/6 45/45/45 37/37/37
f 45/45/45 46/46/46 38/38/38
f 46/46/46 47/47/47 39/39/39
f 39/39/39 47/47/47 48/48/48
f 40/40/40 48/48/48 49/49/49
f 41/41/41 49/49/49 50/50/50
f 50/50/50 51/51/51 43/43/43
f 51/51/51 52/52/52 44/44/44
f 5/5/5 37/37/37 28/28/28
f 28/28/28 37/37/37 38/38/38
f 27/27/27 38/38/38 39/39/39
f 26/26/26 39/39/39 40/40/40
f 40/40/40 41/41/41 24/24/24
f 41/41/41 42/42/42 23/23/23
f 23/23/23 42/42/42 43/43/43
f 43/43/43 44/44/44 21/21/21
f 2/2/2 29/29/29 93/93/93
f 93/93/93 29/29/29 30/30/30
f 30/30/30 31/31/31 95/95/95
f 31/31/31 32/32/32 96/96/96
f 32/32/32 33/33/33 97/97/97
f 33/33/33 34/34/34 98/98/98
f 98/98/98 34/34/34 35/35/35
f 99/99/99 35/35/35 36/36/36
