o GNATVCloth
v -5.01552 -4.96234 0.624181
v 5.05274 -4.9913 0.373488
v -5.01298 5.02105 0.004229
v 4.98702 5.02105 0.004229
v -3.92026 -5.0134 0.43255
v -2.80152 -5.05709 0.448243
v -1.67896 -5.08262 0.428977
v -0.554079 -5.10093 0.409429
v 0.572513 -5.10103 0.36543
v 1.69764 -5.09426 0.356924
v 2.81985 -5.06118 0.370305
v 3.93876 -5.02572 0.324646
v 3.8768 4.87452 0.227913
v 2.77243 4.76532 0.436327
v 1.64967 4.73185 0.425363
v 0.530239 4.69989 0.469007
v -0.577184 4.65438 0.615953
v -1.68858 4.70515 0.49925
v -2.80947 4.7351 0.463524
v -3.90678 4.8585 0.237803
v -4.97297 3.90979 0.100718
v -4.96308 2.79479 0.125137
v -4.96155 1.68047 0.149511
v -4.96321 0.566814 0.168639
v -4.96939 -0.545608 0.216903
v -4.97697 -1.65724 0.272591
v -4.98892 -2.76924 0.327544
v -5.00686 -3.87773 0.411288
v 5.02861 -3.88192 0.294888
v 5.00993 -2.7752 0.206671
v 4.99504 -1.66306 0.173478
v 4.9813 -0.548084 0.158264
v 4.97208 0.564303 0.147287
v 4.96846 1.67766 0.136267
v 4.96982 2.79251 0.12498
v 4.96226 3.90679 0.0705557
v -3.8325 -3.86839 0.417158
v -3.78606 -3.22141 0.371616
v -3.63238 -1.93669 0.267051
v -4.08051 -0.279869 0.20087
v -4.10563 0.739821 0.230125
v -4.09863 1.52365 0.174908
v -4.03883 2.81458 0.089511
v -3.93544 3.87066 -0.192147
v -2.7085 -4.03564 0.354566
v -2.7678 -2.76814 0.265272
v -2.64321 -2.17629 0.281334
v -2.71031 -0.632689 0.254225
v -2.74485 0.49865 0.200721
v -2.6813 1.53071 0.0106593
v -2.86021 2.83674 -0.292546
v -2.76608 3.48736 -0.0434503
v -1.64917 -4.27014 0.389866
v -1.47824 -2.95694 0.406311
v -1.8567 -1.66096 0.38485
v -1.8313 -0.87043 0.278714
v -1.5374 0.556561 -0.211199
v -2.00795 1.61468 -0.324536
v -1.7336 2.63518 -0.0936496
v -1.57438 3.6047 0.184241
v -0.225073 -4.36217 0.371424
v -0.569683 -2.93391 0.320755
v -0.527668 -1.80612 0.198038
v -0.832152 -0.852917 -0.019555
v -0.609497 0.344462 -0.245477
v -0.377903 1.36865 -0.243119
v -0.57658 2.53963 -0.0425954
v -0.755577 3.40569 0.172636
v 0.746579 -3.94653 0.320872
v 0.824492 -2.65971 0.271382
v 0.538461 -1.89219 0.0854951
v 0.623196 -0.580277 -0.132004
v 0.586699 0.323341 -0.179834
v 0.29518 1.42841 -0.169718
v 0.51934 2.38722 -0.0648626
v 0.54661 3.60281 0.314234
v 1.96034 -3.6911 0.311587
v 1.67845 -2.88856 0.400512
v 1.8239 -1.96487 0.315619
v 1.99273 -0.457904 0.0327516
v 1.98335 0.216611 -0.107387
v 1.82893 1.47101 -0.255939
v 1.40415 2.73701 -0.103366
v 1.48121 3.53114 0.199362
v 2.80479 -3.94795 0.295797
v 3.10411 -2.85842 0.303118
v 2.95626 -1.98554 0.409142
v 2.71582 -0.535946 0.21967
v 2.95636 0.260953 0.153906
v 3.07228 1.53913 -0.0772388
v 2.76626 3.10104 -0.220319
v 2.74111 3.43668 -0.0595723
v 3.93157 -3.97789 0.321601
v 3.66606 -2.72746 0.281075
v 3.87409 -1.68759 0.298282
v 3.81049 -0.733283 0.357478
v 3.86128 0.279345 0.30548
v 4.15007 1.79573 0.179742
v 4.12809 2.74765 0.0133616
v 4.03229 3.86196 -0.161919
vt 0.0001 0.0001
vt 0.9999 0.0001
vt 0.0001 0.9999
vt 0.9999 0.9999
vt 0.111189 0.0001
vt 0.222278 0.0001
vt 0.333367 0.0001
vt 0.444455 0.0001
vt 0.555544 0.0001
vt 0.666633 0.0001
vt 0.777722 0.0001
vt 0.888811 0.0001
vt 0.888811 0.9999
vt 0.777722 0.9999
vt 0.666633 0.9999
vt 0.555544 0.9999
vt 0.444455 0.9999
vt 0.333367 0.9999
vt 0.222278 0.9999
vt 0.111189 0.9999
vt 0.0001 0.888811
vt 0.0001 0.777722
vt 0.0001 0.666633
vt 0.0001 0.555544
vt 0.0001 0.444456
vt 0.0001 0.333367
vt 0.0001 0.222278
vt 0.0001 0.111189
vt 0.9999 0.111189
vt 0.9999 0.222278
vt 0.9999 0.333367
vt 0.9999 0.444456
vt 0.9999 0.555544
vt 0.9999 0.666633
vt 0.9999 0.777722
vt 0.9999 0.888811
vt 0.11727 0.115399
vt 0.120778 0.180369
vt 0.134636 0.309595
vt 0.088728 0.473895
vt 0.085886 0.575352
vt 0.086211 0.65375
vt 0.092207 0.78313
vt 0.106956 0.892282
vt 0.22987 0.102869
vt 0.221803 0.229552
vt 0.233521 0.288953
vt 0.225541 0.443179
vt 0.221596 0.556167
vt 0.227801 0.661237
vt 0.214896 0.795203
vt 0.22542 0.865181
vt 0.335524 0.082127
vt 0.351143 0.213907
vt 0.311934 0.342467
vt 0.313159 0.422214
vt 0.347791 0.572605
vt 0.301482 0.677733
vt 0.329031 0.783086
vt 0.344903 0.885466
vt 0.476837 0.074882
vt 0.441952 0.218774
vt 0.445749 0.333088
vt 0.416414 0.43099
vt 0.439746 0.552976
vt 0.463203 0.656843
vt 0.444252 0.77653
vt 0.426137 0.866051
vt 0.573419 0.117409
vt 0.581125 0.246686
vt 0.552512 0.326
vt 0.561075 0.459693
vt 0.558356 0.550596
vt 0.530299 0.662189
vt 0.553275 0.760113
vt 0.555478 0.888821
vt 0.694433 0.13996
vt 0.667048 0.221666
vt 0.681985 0.314267
vt 0.698218 0.467249
vt 0.696819 0.535952
vt 0.68253 0.662758
vt 0.642062 0.791726
vt 0.648523 0.877957
vt 0.778029 0.111667
vt 0.809426 0.219523
vt 0.794923 0.307783
vt 0.772028 0.454562
vt 0.796846 0.533374
vt 0.807262 0.663157
vt 0.778581 0.821037
vt 0.775122 0.858219
vt 0.890224 0.104741
vt 0.865679 0.23076
vt 0.887326 0.334104
vt 0.881307 0.429754
vt 0.887973 0.53063
vt 0.918106 0.681428
vt 0.915043 0.778027
vt 0.904815 0.89094
vn 0.177773 0.188176 0.965912
vn -0.0129213 0.0368662 0.999237
vn 0.0157373 -0.153908 0.98796
vn -0.00913925 -0.134508 0.99087
vn 0.0534652 0.0726992 0.99592
vn 0.0150281 0.0598921 0.998092
vn 0.0181724 0.0474097 0.99871
vn 0.0243134 0.0419252 0.998825
vn 0.0280876 0.0347688 0.999001
vn 0.00533207 0.0408628 0.999151
vn 0.0019132 0.0454547 0.998965
vn -0.00160686 0.00289494 0.999995
vn 0.216892 -0.321551 0.921717
vn 0.139107 -0.302855 0.94283
vn 0.0197957 -0.187619 0.982042
vn 0.0967586 -0.15495 0.983173
vn -0.0241648 -0.270464 0.962427
vn -0.075549 -0.281655 0.956537
vn -0.160588 -0.354462 0.921178
vn -0.235773 -0.38207 0.893551
vn 0.196752 0.113845 0.973821
vn 0.0380358 0.0220607 0.999033
vn -0.0176952 0.0441339 0.998869
vn -0.0451506 0.0101199 0.998929
vn 0.00406695 0.0466647 0.998902
vn 0.0101844 0.0475577 0.998817
vn 0.000136585 0.0688332 0.997628
vn 0.0399491 0.0874834 0.995365
vn 0.0176805 0.0753952 0.996997
vn 0.0596546 0.0320084 0.997706
vn 0.129108 -0.00250049 0.991627
vn 0.154899 0.0229926 0.987663
vn 0.106387 0.0263826 0.993975
vn 0.0544911 0.0100514 0.998464
vn -0.0730191 0.0754462 0.994473
vn -0.208787 0.0802926 0.97466
vn 0.0218382 0.049916 0.998515
vn 0.0314539 0.073237 0.996818
vn 0.00462589 0.0389879 0.999229
vn -0.0121896 0.0223467 0.999676
vn 0.00450326 0.0461637 0.998924
vn 0.04894 0.0667143 0.996571
vn 0.150143 0.125527 0.980663
vn -0.0133145 -0.14207 0.989767
vn 0.00962309 0.0624336 0.998003
vn -0.0171548 0.0369942 0.999168
vn -0.0793447 -0.00332567 0.996842
vn -0.0355172 0.0477713 0.998227
vn 0.154649 0.126695 0.979812
vn 0.238254 0.162189 0.957565
vn 0.0636779 -0.0133466 0.997881
vn -0.195308 -0.328471 0.9241
vn 0.0163349 0.0340626 0.999286
vn -0.00458719 0.0249607 0.999678
vn 0.057943 0.0969676 0.993599
vn 0.172135 0.165081 0.971143
vn 0.160953 0.169433 0.97231
vn 0.114638 0.0257317 0.993074
vn -0.125993 -0.244071 0.961538
vn -0.0942194 -0.29739 0.950096
vn 0.0283119 0.0387688 0.998847
vn 0.0521326 0.0765529 0.995702
vn 0.110258 0.154315 0.98185
vn 0.145438 0.206489 0.967579
vn -0.0111693 0.0650819 0.997817
vn -0.049006 -0.0556858 0.997245
vn -0.0487048 -0.226812 0.97272
vn -0.0600717 -0.285552 0.956479
vn -0.000125293 0.0184573 0.99983
vn -0.0812522 0.120315 0.989405
vn -0.0222954 0.168593 0.985434
vn -0.0433437 0.155378 0.986904
vn -0.0288231 0.0392163 0.998815
vn -0.0303439 -0.0406656 0.998712
vn 0.0287847 -0.178627 0.983496
vn 0.0503089 -0.260684 0.964112
vn 0.0283735 -0.0275188 0.999219
vn -0.0283359 -0.00583622 0.999581
vn -0.13834 0.154096 0.978323
vn -0.179952 0.199282 0.963278
vn -0.161352 0.14495 0.976194
vn -0.00472881 -0.00287924 0.999985
vn 0.122777 -0.242478 0.962357
vn 0.104952 -0.288841 0.951607
vn -0.00310349 0.0298103 0.999551
vn 0.037884 -0.0461688 0.998215
vn 0.0202836 0.00263297 0.999791
vn -0.167376 0.150208 0.974383
vn -0.192953 0.143376 0.970676
vn -0.200329 0.128133 0.971314
vn 0.0314838 -0.150414 0.988122
vn 0.177437 -0.381181 0.907313
vn 0.00939785 0.038262 0.999224
vn 0.0680029 -0.0194221 0.997496
vn 0.109287 -0.0291754 0.993582
vn 0.0289177 0.0340068 0.999003
vn -0.0280571 0.0829288 0.99616
vn -0.0722316 0.0904012 0.993282
vn -0.17852 0.118347 0.976793
vn 0.0306938 -0.160127 0.986619
f 100/100/100 4/4/4 13/13/13
f 44/44/44 3/3/3 21/21/21
f 44/44/44 19/19/19 20/20/20
f 60/60/60 19/19/19 52/52/52
f 60/60/60 17/17/17 18/18/18
f 76/76/76 17/17/17 68/68/68
f 84/84/84 16/16/16 76/76/76
f 84/84/84 14/14/14 15/15/15
f 100/100/100 14/14/14 92/92/92
f 11/11/11 93/93/93 85/85/85
f 93/93/93 86/86/86 85/85/85
f 94/94/94 87/87/87 86/86/86
f 87/87/87 96/96/96 88/88/88
f 96/96/96 89/89/89 88/88/88
f 97/97/97 90/90/90 89/89/89
f 90/90/90 99/99/99 91/91/91
f 91/91/91 100/100/100 92/92/92
f 10/10/10 85/85/85 77/77/77
f 77/77/77 86/86/86 78/78/78
f 78/78/78 87/87/87 79/79/79
f 79/79/79 88/88/88 80/80/80
f 88/88/88 81/81/81 80/80/80
f 81/81/81 90/90/90 82/82/82
f 82/82/82 91/91/91 83/83/83
f 91/91/91 84/84/84 83/83/83
f 10/10/10 69/69/69 9/9/9
f 69/69/69 78/78/78 70/70/70
f 70/70/70 79/79/79 71/71/71
f 79/79/79 72/72/72 71/71/71
f 72/72/72 81/81/81 73/73/73
f 73/73/73 82/82/82 74/74/74
f 82/82/82 75/75/75 74/74/74
f 83/83/83 76/76/76 75/75/75
f 9/9/9 61/61/61 8/8/8
f 69/69/69 62/62/62 61/61/61
f 62/62/62 71/71/71 63/63/63
f 63/63/63 72/72/72 64/64/64
f 72/72/72 65/65/65 64/64/64
f 65/65/65 74/74/74 66/66/66
f 66/66/66 75/75/75 67/67/67
f 67/67/67 76/76/76 68/68/68
f 8/8/8 53/53/53 7/7/7
f 53/53/53 62/62/62 54/54/54
f 54/54/54 63/63/63 55/55/55
f 55/55/55 64/64/64 56/56/56
f 64/64/64 57/57/57 56/56/56
f 57/57/57 66/66/66 58/58/58
f 58/58/58 67/67/67 59/59/59
f 59/59/59 68/68/68 60/60/60
f 6/6/6 53/53/53 45/45/45
f 45/45/45 54/54/54 46/46/46
f 54/54/54 47/47/47 46/46/46
f 55/55/55 48/48/48 47/47/47
f 56/56/56 49/49/49 48/48/48
f 49/49/49 58/58/58 50/50/50
f 58/58/58 51/51/51 50/50/50
f 59/59/59 52/52/52 51/51/51
f 6/6/6 37/37/37 5/5/5
f 45/45/45 38/38/38 37/37/37
f 46/46/46 39/39/39 38/38/38
f 39/39/39 48/48/48 40/40/40
f 40/40/40 49/49/49 41/41/41
f 41/41/41 50/50/50 42/42/42
f 50/50/50 43/43/43 42/42/42
f 51/51/51 44/44/44 43/43/43
f 5/5/5 28/28/28 1/1/1
f 28/28/28 38/38/38 27/27/27
f 27/27/27 39/39/39 26/26/26
f 26/26/26 40/40/40 25/25/25
f 40/40/40 24/24/24 25/25/25
f 41/41/41 23/23/23 24/24/24
f 23/23/23 43/43/43 22/22/22
f 43/43/43 21/21/21 22/22/22
f 2/2/2 93/93/93 12/12/12
f 93/93/93 30/30/30 94/94/94
f 30/30/30 95/95/95 94/94/94
f 31/31/31 96/96/96 95/95/95
f 32/32/32 97/97/97 96/96/96
f 33/33/33 98/98/98 97/97/97
f 98/98/98 35/35/35 99/99/99
f 99/99/99 36/36/36 100/100/100
f 100/100/100 36/36/36 4/4/4
f 44/44/44 20/20/20 3/3/3
f 44/44/44 52/52/52 19/19/19
f 60/60/60 18/18/18 19/19/19
f 60/60/60 68/68/68 17/17/17
f 76/76/76 16/16/16 17/17/17
f 84/84/84 15/15/15 16/16/16
f 84/84/84 92/92/92 14/14/14
f 100/100/100 13/13/13 14/14/14
f 11/11/11 12/12/12 93/93/93
f 93/93/93 94/94/94 86/86/86
f 94/94/94 95/95/95 87/87/87
f 87/87/87 95/95/95 96/96/96
f 96/96/96 97/97/97 89/89/89
f 97/97/97 98/98/98 90/90/90
f 90/90/90 98/98/98 99/99/99
f 91/91/91 99/99/99 100/100/100
f 10/10/10 11/11/11 85/85/85
f 77/77/77 85/85/85 86/86/86
f 78/78/78 86/86/86 87/87/87
f 79/79/79 87/87/87 88/88/88
f 88/88/88 89/89/89 81/81/81
f 81/81/81 89/89/89 90/90/90
f 82/82/82 90/90/90 91/91/91
f 91/91/91 92/92/92 84/84/84
f 10/10/10 77/77/77 69/69/69
f 69/69/69 77/77/77 78/78/78
f 70/70/70 78/78/78 79/79/79
f 79/79/79 80/80/80 72/72/72
f 72/72/72 80/80/80 81/81/81
f 73/73/73 81/81/81 82/82/82
f 82/82/82 83/83/83 75/75/75
f 83/83/83 84/84/84 76/76/76
f 9/9/9 69/69/69 61/61/61
f 69/69/69 70/70/70 62/62/62
f 62/62/62 70/70/70 71/71/71
f 63/63/63 71/71/71 72/72/72
f 72/72/72 73/73/73 65/65/65
f 65/65/65 73/73/73 74/74/74
f 66/66/66 74/74/74 75/75/75
f 67/67/67 75/75/75 76/76/76
f 8/8/8 61/61/61 53/53/53
f 53/53/53 61/61/61 62/62/62
f 54/54/54 62/62/62 63/63/63
f 55/55/55 63/63/63 64/64/64
f 64/64/64 65/65/65 57/57/57
f 57/57/57 65/65/65 66/66/66
f 58/58/58 66/66/66 67/67/67
f 59/59/59 67/67/67 68/68/68
f 6/6/6 7/7/7 53/53/53
f 45/45/45 53/53/53 54/54/54
f 54/54/54 55/55/55 47/47/47
f 55/55/55 56/56/56 48/48/48
f 56/56/56 57/57/57 49/49/49
f 49/49/49 57/57/57 58/58/58
f 58/58/58 59/59/59 51/51/51
f 59/59/59 60/60/60 52/52/52
f 6/6/6 45/45/45 37/37/37
f 45/45/45 46/46/46 38/38/38
f 46/46/46 47/47/47 39/39/39
f 39/39/39 47/47/47 48/48/48
f 40/40/40 48/48/48 49/49/49
f 41/41/41 49/49/49 50/50/50
f 50/50/50 51/51/51 43/43/43
f 51/51/51 52/52/52 44/44/44
f 5/5/5 37/37/37 28/28/28
f 28/28/28 37/37/37 38/38/38
f 27/27/27 38/38/38 39/39/39
f 26/26/26 39/39/39 40/40/40
f 40/40/40 41/41/41 24/24/24
f 41/41/41 42/42/42 23/23/23
f 23/23/23 42/42/42 43/43/43
f 43/43/43 44/44/44 21/21/21
f 2/2/2 29/29/29 93/93/93
f 93/93/93 29/29/29 30/30/30
f 30/30/30 31/31/31 95/95/95
f 31/31/31 32/32/32 96/96/96
f 32/32/32 33/33/33 97/97/97
f 33/33/33 34/34/34 98/98/98
f 98/98/98 34/34/34 35/35/35
f 99/99/99 35/35/35 36/36/36
