o GNATVCloth
v -5.05168 -4.98779 0.573443
v 5.01226 -4.99114 0.402191
v -5.01298 5.02105 0.004229
v 4.98702 5.02105 0.004229
v -3.94474 -5.01317 0.549854
v -2.82905 -5.05015 0.478977
v -1.70653 -5.06914 0.492661
v -0.582235 -5.07765 0.502751
v 0.543681 -5.08845 0.468725
v 1.66736 -5.07131 0.492892
v 2.78819 -5.04492 0.458146
v 3.90296 -5.00221 0.504237
v 3.85939 4.93322 0.139693
v 2.74561 4.87029 0.294027
v 1.62744 4.81659 0.343827
v 0.515276 4.78079 0.350541
v -0.595826 4.7705 0.446948
v -1.70424 4.77858 0.544248
v -2.82575 4.80646 0.547537
v -3.92491 4.88639 0.312099
v -4.99629 3.9067 0.0723386
v -5.00113 2.79247 0.138054
v -5.00899 1.67917 0.207827
v -5.01636 0.565454 0.263743
v -5.02023 -0.547366 0.320464
v -5.02344 -1.65965 0.373548
v -5.03013 -2.7717 0.421806
v -5.03691 -3.88039 0.524995
v 4.99575 -3.88362 0.286005
v 4.98654 -2.77252 0.311998
v 4.9796 -1.66113 0.262873
v 4.9761 -0.548635 0.228106
v 4.97386 0.564636 0.212405
v 4.97159 1.67819 0.170629
v 4.97309 2.79261 0.131314
v 4.97009 3.90617 0.061975
v -3.87804 -3.88913 0.316158
v -3.83532 -3.2389 0.275448
v -3.68431 -1.95076 0.24271
v -4.1372 -0.290462 0.209555
v -4.15786 0.728211 0.20763
v -4.14974 1.51027 0.146677
v -4.08257 2.80015 0.046227
v -3.92841 3.88088 -0.0706276
v -2.74408 -4.04945 0.287556
v -2.81632 -2.78044 0.331644
v -2.69393 -2.19084 0.287785
v -2.7692 -0.644709 0.304837
v -2.7989 0.483035 0.205145
v -2.73243 1.52147 0.0548596
v -2.85075 2.8614 -0.0503286
v -2.74689 3.54929 0.0709577
v -1.67921 -4.27852 0.324371
v -1.5163 -2.96561 0.397167
v -1.91021 -1.67658 0.397403
v -1.89225 -0.877577 0.354933
v -1.5348 0.59684 0.113119
v -1.99501 1.64945 -0.0412305
v -1.7174 2.68839 0.0794566
v -1.58868 3.63938 0.44347
v -0.253667 -4.35656 0.387004
v -0.602645 -2.9276 0.453748
v -0.564438 -1.78651 0.483943
v -0.854217 -0.818465 0.329558
v -0.613602 0.386023 0.154069
v -0.375981 1.42178 0.135934
v -0.570738 2.60134 0.169975
v -0.76443 3.45412 0.43146
v 0.719041 -3.92496 0.413021
v 0.798635 -2.63763 0.53308
v 0.511881 -1.84972 0.483995
v 0.602508 -0.535823 0.279493
v 0.577577 0.356184 0.234296
v 0.294304 1.46918 0.201775
v 0.522503 2.4386 0.214184
v 0.536641 3.69343 0.396763
v 1.932 -3.66835 0.412886
v 1.64592 -2.86091 0.335274
v 1.81518 -1.9457 0.473284
v 1.97551 -0.447864 0.137116
v 1.95647 0.228433 0.0173991
v 1.82347 1.48981 0.127725
v 1.40926 2.76527 0.198942
v 1.47743 3.59123 0.361182
v 2.77601 -3.93089 0.401322
v 3.07703 -2.84831 0.319108
v 2.92757 -1.97263 0.247511
v 2.69496 -0.512168 0.344257
v 2.94185 0.274663 0.223744
v 3.06512 1.54345 -0.066796
v 2.7593 3.10911 -0.0138409
v 2.72918 3.46989 0.077353
v 3.89784 -3.97752 0.289045
v 3.641 -2.72456 0.322455
v 3.85279 -1.68551 0.287935
v 3.79148 -0.729412 0.289424
v 3.85509 0.282233 0.292769
v 4.15209 1.7976 0.157518
v 4.13717 2.74635 -0.0250813
v 4.02093 3.87094 -0.069447
vt 0.0001 0.0001
vt 0.9999 0.0001
vt 0.0001 0.9999
vt 0.9999 0.9999
vt 0.111189 0.0001
vt 0.222278 0.0001
vt 0.333367 0.0001
vt 0.444455 0.0001
vt 0.555544 0.0001
vt 0.666633 0.0001
vt 0.777722 0.0001
vt 0.888811 0.0001
vt 0.888811 0.9999
vt 0.777722 0.9999
vt 0.666633 0.9999
vt 0.555544 0.9999
vt 0.444455 0.9999
vt 0.333367 0.9999
vt 0.222278 0.9999
vt 0.111189 0.9999
vt 0.0001 0.888811
vt 0.0001 0.777722
vt 0.0001 0.666633
vt 0.0001 0.555544
vt 0.0001 0.444456
vt 0.0001 0.333367
vt 0.0001 0.222278
vt 0.0001 0.111189
vt 0.9999 0.111189
vt 0.9999 0.222278
vt 0.9999 0.333367
vt 0.9999 0.444456
vt 0.9999 0.555544
vt 0.9999 0.666633
vt 0.9999 0.777722
vt 0.9999 0.888811
vt 0.11727 0.115399
vt 0.120778 0.180369
vt 0.134636 0.309595
vt 0.088728 0.473895
vt 0.085886 0.575352
vt 0.086211 0.65375
vt 0.092207 0.78313
vt 0.106956 0.892282
vt 0.22987 0.102869
vt 0.221803 0.229552
vt 0.233521 0.288953
vt 0.225541 0.443179
vt 0.221596 0.556167
vt 0.227801 0.661237
vt 0.214896 0.795203
vt 0.22542 0.865181
vt 0.335524 0.082127
vt 0.351143 0.213907
vt 0.311934 0.342467
vt 0.313159 0.422214
vt 0.347791 0.572605
vt 0.301482 0.677733
vt 0.329031 0.783086
vt 0.344903 0.885466
vt 0.476837 0.074882
vt 0.441952 0.218774
vt 0.445749 0.333088
vt 0.416414 0.43099
vt 0.439746 0.552976
vt 0.463203 0.656843
vt 0.444252 0.77653
vt 0.426137 0.866051
vt 0.573419 0.117409
vt 0.581125 0.246686
vt 0.552512 0.326
vt 0.561075 0.459693
vt 0.558356 0.550596
vt 0.530299 0.662189
vt 0.553275 0.760113
vt 0.555478 0.888821
vt 0.694433 0.13996
vt 0.667048 0.221666
vt 0.681985 0.314267
vt 0.698218 0.467249
vt 0.696819 0.535952
vt 0.68253 0.662758
vt 0.642062 0.791726
vt 0.648523 0.877957
vt 0.778029 0.111667
vt 0.809426 0.219523
vt 0.794923 0.307783
vt 0.772028 0.454562
vt 0.796846 0.533374
vt 0.807262 0.663157
vt 0.778581 0.821037
vt 0.775122 0.858219
vt 0.890224 0.104741
vt 0.865679 0.23076
vt 0.887326 0.334104
vt 0.881307 0.429754
vt 0.887973 0.53063
vt 0.918106 0.681428
vt 0.915043 0.778027
vt 0.904815 0.89094
vn 0.0222802 0.0434006 0.998809
vn 0.0408306 0.155073 0.987059
vn -0.0842291 -0.144847 0.985862
vn -0.00415994 -0.060448 0.998163
vn 0.0892474 0.145006 0.985397
vn 0.0293544 0.194723 0.980419
vn -0.00779771 0.208444 0.978003
vn -0.00322841 0.175557 0.984464
vn -0.0141083 0.0838363 0.99638
vn 0.00617736 0.0532653 0.998561
vn 0.0278098 0.103162 0.994276
vn 0.0197215 0.205578 0.978442
vn 0.137695 -0.171131 0.975579
vn 0.138506 -0.117009 0.983425
vn 0.0248418 0.0111167 0.99963
vn 0.0446977 0.0336013 0.998435
vn 0.0534953 -0.0159889 0.99844
vn 0.0437076 -0.0836356 0.995537
vn -0.174741 -0.290905 0.940659
vn -0.257814 -0.342921 0.903293
vn 0.122363 0.0694127 0.990055
vn 0.0987986 0.0598551 0.993306
vn 0.0813475 0.0651954 0.994551
vn 0.0768555 0.0343869 0.996449
vn 0.110532 0.0486356 0.992682
vn 0.108335 0.0462468 0.993038
vn 0.129373 0.0478863 0.990439
vn 0.133312 0.0939314 0.986613
vn -0.000699636 0.0405303 0.999178
vn 0.01045 0.00677303 0.999922
vn 0.0301379 0.0251727 0.999229
vn 0.0558979 0.0129821 0.998352
vn 0.0364289 0.0435099 0.998389
vn -0.0106881 0.0363675 0.999281
vn -0.130148 0.0933522 0.98709
vn -0.154632 0.0462436 0.986889
vn 0.101647 0.137217 0.985312
vn 0.0643723 0.0348326 0.997318
vn 0.0180091 0.0291033 0.999414
vn 0.0400519 0.0343028 0.998609
vn 0.0499894 0.0583748 0.997042
vn 0.0746387 0.0751417 0.994376
vn 0.0896696 0.0765745 0.993024
vn -0.0803383 -0.139977 0.98689
vn -0.00815167 0.05142 0.998644
vn -0.0458309 0.0241269 0.998658
vn -0.0714125 0.0191601 0.997263
vn -0.0615279 0.0331093 0.997556
vn 0.0241657 0.110265 0.993608
vn 0.074606 0.100187 0.992168
vn -0.0268672 -0.0189907 0.999459
vn -0.207981 -0.26723 0.940921
vn -0.0280683 0.089555 0.995586
vn -0.0631124 -0.0190934 0.997824
vn -0.0638697 0.029381 0.997526
vn 0.0037492 0.100108 0.994969
vn -0.00208254 0.12561 0.992078
vn -0.0209243 0.0397462 0.998991
vn -0.130855 -0.218506 0.967022
vn -0.0843091 -0.203892 0.975357
vn -0.0213433 0.0537331 0.998327
vn -0.0395564 -0.0366778 0.998544
vn -0.0281235 0.0640528 0.99755
vn -0.00274566 0.13355 0.991038
vn -0.0460859 0.0696005 0.99651
vn -0.0821616 0.0162606 0.996486
vn -0.0553624 -0.152546 0.986744
vn -0.00925067 -0.195894 0.980581
vn 0.00754598 0.00190641 0.99997
vn 0.0586188 -0.0539833 0.99682
vn -0.00493945 0.0771889 0.997004
vn 0.0388767 0.137409 0.989751
vn 0.0450015 0.0172859 0.998837
vn -0.0339762 0.0160651 0.999294
vn -0.00886532 -0.0639751 0.997912
vn 0.0373261 -0.0987849 0.994409
vn 0.00862393 0.0730699 0.99729
vn 0.0966357 -0.0323056 0.994795
vn 0.0642904 0.0399437 0.997131
vn -0.084016 0.199048 0.976382
vn -0.0179966 0.102661 0.994554
vn 0.107057 -0.0251004 0.993936
vn 0.0965105 -0.119168 0.988172
vn 0.102508 -0.102509 0.989436
vn 0.0593658 0.0535999 0.996796
vn 0.0222937 0.0579202 0.998072
vn 0.0454234 -0.0104949 0.998913
vn -0.0695782 0.110085 0.991484
vn -0.100057 0.163308 0.981488
vn -0.0644869 0.0979092 0.993104
vn 0.130784 -0.0947288 0.986875
vn 0.184345 -0.189382 0.964444
vn 0.0311431 0.0676574 0.997222
vn -0.0129659 0.0204044 0.999708
vn -0.00949496 0.023244 0.999685
vn 0.0167496 0.0128557 0.999777
vn -0.0349726 0.0754307 0.996538
vn -0.105779 0.108493 0.988453
vn -0.123693 0.0765071 0.989367
vn 0.0514793 -0.0873578 0.994846
f 100/100/100 4/4/4 13/13/13
f 44/44/44 3/3/3 21/21/21
f 44/44/44 19/19/19 20/20/20
f 60/60/60 19/19/19 52/52/52
f 60/60/60 17/17/17 18/18/18
f 76/76/76 17/17/17 68/68/68
f 84/84/84 16/16/16 76/76/76
f 84/84/84 14/14/14 15/15/15
f 100/100/100 14/14/14 92/92/92
f 11/11/11 93/93/93 85/85/85
f 93/93/93 86/86/86 85/85/85
f 94/94/94 87/87/87 86/86/86
f 87/87/87 96/96/96 88/88/88
f 96/96/96 89/89/89 88/88/88
f 97/97/97 90/90/90 89/89/89
f 90/90/90 99/99/99 91/91/91
f 91/91/91 100/100/100 92/92/92
f 10/10/10 85/85/85 77/77/77
f 77/77/77 86/86/86 78/78/78
f 78/78/78 87/87/87 79/79/79
f 79/79/79 88/88/88 80/80/80
f 88/88/88 81/81/81 80/80/80
f 81/81/81 90/90/90 82/82/82
f 82/82/82 91/91/91 83/83/83
f 91/91/91 84/84/84 83/83/83
f 10/10/10 69/69/69 9/9/9
f 69/69/69 78/78/78 70/70/70
f 70/70/70 79/79/79 71/71/71
f 79/79/79 72/72/72 71/71/71
f 72/72/72 81/81/81 73/73/73
f 73/73/73 82/82/82 74/74/74
f 82/82/82 75/75/75 74/74/74
f 83/83/83 76/76/76 75/75/75
f 9/9/9 61/61/61 8/8/8
f 69/69/69 62/62/62 61/61/61
f 62/62/62 71/71/71 63/63/63
f 63/63/63 72/72/72 64/64/64
f 72/72/72 65/65/65 64/64/64
f 65/65/65 74/74/74 66/66/66
f 66/66/66 75/75/75 67/67/67
f 67/67/67 76/76/76 68/68/68
f 8/8/8 53/53/53 7/7/7
f 53/53/53 62/62/62 54/54/54
f 54/54/54 63/63/63 55/55/55
f 55/55/55 64/64/64 56/56/56
f 64/64/64 57/57/57 56/56/56
f 57/57/57 66/66/66 58/58/58
f 58/58/58 67/67/67 59/59/59
f 59/59/59 68/68/68 60/60/60
f 6/6/6 53/53/53 45/45/45
f 45/45/45 54/54/54 46/46/46
f 54/54/54 47/47/47 46/46/46
f 55/55/55 48/48/48 47/47/47
f 56/56/56 49/49/49 48/48/48
f 49/49/49 58/58/58 50/50/50
f 58/58/58 51/51/51 50/50/50
f 59/59/59 52/52/52 51/51/51
f 6/6/6 37/37/37 5/5/5
f 45/45/45 38/38/38 37/37/37
f 46/46/46 39/39/39 38/38/38
f 39/39/39 48/48/48 40/40/40
f 40/40/40 49/49/49 41/41/41
f 41/41/41 50/50/50 42/42/42
f 50/50/50 43/43/43 42/42/42
f 51/51/51 44/44/44 43/43/43
f 5/5/5 28/28/28 1/1/1
f 28/28/28 38/38/38 27/27/27
f 27/27/27 39/39/39 26/26/26
f 26/26/26 40/40/40 25/25/25
f 40/40/40 24/24/24 25/25/25
f 41/41/41 23/23/23 24/24/24
f 23/23/23 43/43/43 22/22/22
f 43/43/43 21/21/21 22/22/22
f 2/2/2 93/93/93 12/12/12
f 93/93/93 30/30/30 94/94/94
f 30/30/30 95/95/95 94/94/94
f 31/31/31 96/96/96 95/95/95
f 32/32/32 97/97/97 96/96/96
f 33/33/33 98/98/98 97/97/97
f 98/98/98 35/35/35 99/99/99
f 99/99/99 36/36/36 100/100/100
f 100/100/100 36/36/36 4/4/4
f 44/44/44 20/20/20 3/3/3
f 44/44/44 52/52/52 19/19/19
f 60/60/60 18/18/18 19/19/19
f 60/60/60 68/68/68 17/17/17
f 76/76/76 16/16/16 17/17/17
f 84/84/84 15/15/15 16/16/16
f 84/84/84 92/92/92 14/14/14
f 100/100/100 13/13/13 14/14/14
f 11/11/11 12/12/12 93/93/93
f 93/93/93 94/94/94 86/86/86
f 94/94/94 95/95/95 87/87/87
f 87/87/87 95/95/95 96/96/96
f 96/96/96 97/97/97 89/89/89
f 97/97/97 98/98/98 90/90/90
f 90/90/90 98/98/98 99/99/99
f 91/91/91 99/99/99 100/100/100
f 10/10/10 11/11/11 85/85/85
f 77/77/77 85/85/85 86/86/86
f 78/78/78 86/86/86 87/87/87
f 79/79/79 87/87/87 88/88/88
f 88/88/88 89/89/89 81/81/81
f 81/81/81 89/89/89 90/90/90
f 82/82/82 90/90/90 91/91/91
f 91/91/91 92/92/92 84/84/84
f 10/10/10 77/77/77 69/69/69
f 69/69/69 77/77/77 78/78/78
f 70/70/70 78/78/78 79/79/79
f 79/79/79 80/80/80 72/72/72
f 72/72/72 80/80/80 81/81/81
f 73/73/73 81/81/81 82/82/82
f 82/82/82 83/83/83 75/75/75
f 83/83/83 84/84/84 76/76/76
f 9/9/9 69/69/69 61/61/61
f 69/69/69 70/70/70 62/62/62
f 62/62/62 70/70/70 71/71/71
f 63/63/63 71/71/71 72/72/72
f 72/72/72 73/73/73 65/65/65
f 65/65/65 73/73/73 74/74/74
f 66/66/66 74/74/74 75/75/75
f 67/67/67 75/75/75 76/76/76
f 8/8/8 61/61/61 53/53/53
f 53/53/53 61/61/61 62/62/62
f 54/54/54 62/62/62 63/63/63
f 55/55/55 63/63/63 64/64/64
f 64/64/64 65/65/65 57/57/57
f 57/57/57 65/65/65 66/66/66
f 58/58/58 66/66/66 67/67/67
f 59/59/59 67/67/67 68/68/68
f 6/6/6 7/7/7 53/53/53
f 45/45/45 53/53/53 54/54/54
f 54/54/54 55/55/55 47/47/47
f 55/55/55 56/56/56 48/48/48
f 56/56/56 57/57/57 49/49/49
f 49/49/49 57/57/57 58/58/58
f 58/58/58 59/59/59 51/51/51
f 59/59/59 60/60/60 52/52/52
f 6/6/6 45/45/45 37/37/37
f 45/45/45 46/46/46 38/38/38
f 46/46/46 47/47/47 39/39/39
f 39/39/39 47/47/47 48/48/48
f 40/40/40 48/48/48 49/49/49
f 41/41/41 49/49/49 50/50/50
f 50/50/50 51/51/51 43/43/43
f 51/51/51 52/52/52 44/44/44
f 5/5/5 37/37/37 28/28/28
f 28/28/28 37/37/37 38/38/38
f 27/27/27 38/38/38 39/39/39
f 26/26/26 39/39/39 40/40/40
f 40/40/40 41/41/41 24/24/24
f 41/41/41 42/42/42 23/23/23
f 23/23/23 42/42/42 43/43/43
f 43/43/43 44/44/44 21/21/21
f 2/2/2 29/29/29 93/93/93
f 93/93/93 29/29/29 30/30/30
f 30/30/30 31/31/31 95/95/95
f 31/31/31 32/32/32 96/96/96
f 32/32/32 33/33/33 97/97/97
f 33/33/33 34/34/34 98/98/98
f 98/98/98 34/34/34 35/35/35
f 99/99/99 35/35/35 36/36/36
