o GNATVCloth
v -5.05689 -4.97437 0.555946
v 4.9701 -4.98606 0.420704
v -5.01298 5.02105 0.004229
v 4.98702 5.02105 0.004229
v -3.94455 -5.00357 0.549509
v -2.83416 -5.03069 0.473816
v -1.71637 -5.03285 0.475923
v -0.599 -5.04001 0.483489
v 0.518978 -5.04605 0.439229
v 1.638 -5.03771 0.450832
v 2.75142 -5.01971 0.457162
v 3.86173 -4.99138 0.499853
v 3.85887 4.94971 0.126438
v 2.74511 4.89471 0.2729
v 1.62824 4.85305 0.361119
v 0.510845 4.82495 0.401865
v -0.608667 4.82025 0.452031
v -1.72763 4.80724 0.403329
v -2.83627 4.80957 0.577462
v -3.93027 4.89862 0.321885
v -4.99943 3.90802 0.0717106
v -5.00048 2.79533 0.138034
v -5.00944 1.68314 0.196852
v -5.02328 0.570492 0.232689
v -5.02726 -0.542381 0.299918
v -5.02989 -1.65466 0.370488
v -5.03208 -2.76427 0.446439
v -5.03814 -3.87269 0.536293
v 4.96002 -3.88086 0.298671
v 4.95623 -2.76822 0.316776
v 4.95441 -1.6568 0.275545
v 4.95289 -0.545448 0.227787
v 4.95193 0.567206 0.206395
v 4.95447 1.68071 0.182145
v 4.95888 2.79495 0.150919
v 4.96524 3.90726 0.0698206
v -3.88041 -3.86887 0.337032
v -3.84184 -3.22217 0.280438
v -3.69225 -1.93398 0.234992
v -4.1431 -0.278577 0.195514
v -4.16266 0.737621 0.215105
v -4.15007 1.52326 0.154845
v -4.07936 2.81325 0.0657336
v -3.93157 3.8943 -0.065866
v -2.75353 -4.0227 0.276897
v -2.8247 -2.75387 0.295604
v -2.70272 -2.16343 0.286852
v -2.77983 -0.618438 0.320061
v -2.80658 0.510286 0.251821
v -2.73144 1.54869 0.097378
v -2.85262 2.87932 -0.0900142
v -2.76346 3.54445 0.122297
v -1.69433 -4.23752 0.336186
v -1.53139 -2.93207 0.394133
v -1.92291 -1.64261 0.416602
v -1.90506 -0.852411 0.372224
v -1.55006 0.622652 0.124405
v -2.00105 1.66963 -0.0503699
v -1.72976 2.69807 0.122449
v -1.59059 3.66255 0.431318
v -0.275587 -4.30877 0.384052
v -0.62 -2.89238 0.426933
v -0.579027 -1.74918 0.488601
v -0.869246 -0.781988 0.332868
v -0.630298 0.423678 0.1753
v -0.387877 1.44572 0.177853
v -0.575427 2.61699 0.212894
v -0.768297 3.4789 0.39288
v 0.694358 -3.89247 0.40286
v 0.776472 -2.6039 0.509228
v 0.492438 -1.81582 0.463029
v 0.582437 -0.485907 0.327712
v 0.560463 0.407088 0.272359
v 0.279775 1.49449 0.286965
v 0.51528 2.46156 0.268961
v 0.531662 3.73187 0.418711
v 1.90322 -3.63921 0.444423
v 1.62248 -2.83576 0.326997
v 1.79127 -1.91739 0.455392
v 1.95106 -0.397249 0.2431
v 1.93699 0.261833 0.0470697
v 1.81118 1.52155 0.181128
v 1.40122 2.79593 0.246874
v 1.47198 3.63617 0.384253
v 2.74307 -3.90539 0.418522
v 3.04912 -2.82812 0.324715
v 2.90311 -1.95275 0.236399
v 2.68227 -0.491237 0.344729
v 2.9211 0.301042 0.258764
v 3.04627 1.56573 -0.0438505
v 2.74873 3.13456 0.0111681
v 2.73257 3.48121 0.147456
v 3.86198 -3.96147 0.302745
v 3.61221 -2.70853 0.333678
v 3.82722 -1.66916 0.288966
v 3.76741 -0.714435 0.279552
v 3.83387 0.296235 0.307317
v 4.13636 1.8066 0.160435
v 4.1252 2.75776 -0.0198176
v 4.01618 3.88208 -0.0625963
vt 0.0001 0.0001
vt 0.9999 0.0001
vt 0.0001 0.9999
vt 0.9999 0.9999
vt 0.111189 0.0001
vt 0.222278 0.0001
vt 0.333367 0.0001
vt 0.444455 0.0001
vt 0.555544 0.0001
vt 0.666633 0.0001
vt 0.777722 0.0001
vt 0.888811 0.0001
vt 0.888811 0.9999
vt 0.777722 0.9999
vt 0.666633 0.9999
vt 0.555544 0.9999
vt 0.444455 0.9999
vt 0.333367 0.9999
vt 0.222278 0.9999
vt 0.111189 0.9999
vt 0.0001 0.888811
vt 0.0001 0.777722
vt 0.0001 0.666633
vt 0.0001 0.555544
vt 0.0001 0.444456
vt 0.0001 0.333367
vt 0.0001 0.222278
vt 0.0001 0.111189
vt 0.9999 0.111189
vt 0.9999 0.222278
vt 0.9999 0.333367
vt 0.9999 0.444456
vt 0.9999 0.555544
vt 0.9999 0.666633
vt 0.9999 0.777722
vt 0.9999 0.888811
vt 0.11727 0.115399
vt 0.120778 0.180369
vt 0.134636 0.309595
vt 0.088728 0.473895
vt 0.085886 0.575352
vt 0.086211 0.65375
vt 0.092207 0.78313
vt 0.106956 0.892282
vt 0.22987 0.102869
vt 0.221803 0.229552
vt 0.233521 0.288953
vt 0.225541 0.443179
vt 0.221596 0.556167
vt 0.227801 0.661237
vt 0.214896 0.795203
vt 0.22542 0.865181
vt 0.335524 0.082127
vt 0.351143 0.213907
vt 0.311934 0.342467
vt 0.313159 0.422214
vt 0.347791 0.572605
vt 0.301482 0.677733
vt 0.329031 0.783086
vt 0.344903 0.885466
vt 0.476837 0.074882
vt 0.441952 0.218774
vt 0.445749 0.333088
vt 0.416414 0.43099
vt 0.439746 0.552976
vt 0.463203 0.656843
vt 0.444252 0.77653
vt 0.426137 0.866051
vt 0.573419 0.117409
vt 0.581125 0.246686
vt 0.552512 0.326
vt 0.561075 0.459693
vt 0.558356 0.550596
vt 0.530299 0.662189
vt 0.553275 0.760113
vt 0.555478 0.888821
vt 0.694433 0.13996
vt 0.667048 0.221666
vt 0.681985 0.314267
vt 0.698218 0.467249
vt 0.696819 0.535952
vt 0.68253 0.662758
vt 0.642062 0.791726
vt 0.648523 0.877957
vt 0.778029 0.111667
vt 0.809426 0.219523
vt 0.794923 0.307783
vt 0.772028 0.454562
vt 0.796846 0.533374
vt 0.807262 0.663157
vt 0.778581 0.821037
vt 0.775122 0.858219
vt 0.890224 0.104741
vt 0.865679 0.23076
vt 0.887326 0.334104
vt 0.881307 0.429754
vt 0.887973 0.53063
vt 0.918106 0.681428
vt 0.915043 0.778027
vt 0.904815 0.89094
vn 0.0062504 0.0177295 0.999823
vn 0.032399 0.148825 0.988333
vn -0.0899284 -0.147584 0.984953
vn -0.011851 -0.0484972 0.998753
vn 0.081762 0.123894 0.988921
vn 0.0329093 0.182887 0.982583
vn -0.00354049 0.173141 0.984891
vn 0.00277701 0.145584 0.989342
vn -0.00195763 0.0624904 0.998044
vn -0.00579714 0.0195299 0.999793
vn 0.0187006 0.0862852 0.996095
vn 0.0132943 0.187952 0.982088
vn 0.126218 -0.154893 0.979835
vn 0.144315 -0.0805601 0.986247
vn 0.0572565 0.0116265 0.998292
vn 0.0396746 0.015579 0.999091
vn 0.00633818 -0.0138987 0.999883
vn 0.05599 0.0311034 0.997947
vn -0.139084 -0.254666 0.956975
vn -0.27012 -0.346481 0.898324
vn 0.111283 0.0744873 0.990993
vn 0.0770536 0.055643 0.995473
vn 0.0537386 0.0562333 0.99697
vn 0.0459803 0.0243151 0.998646
vn 0.099017 0.0612127 0.993201
vn 0.108294 0.0615051 0.992214
vn 0.14235 0.0548446 0.988296
vn 0.127771 0.0865465 0.98802
vn 0.000268806 0.0468223 0.998903
vn 0.0105828 0.00962307 0.999898
vn 0.0202543 0.0302187 0.999338
vn 0.0569345 0.0105401 0.998322
vn 0.0439975 0.0413214 0.998177
vn -0.0226807 0.0249572 0.999431
vn -0.144329 0.0940038 0.985055
vn -0.160608 0.0525363 0.985619
vn 0.109992 0.139602 0.98408
vn 0.0844768 0.0468221 0.995325
vn 0.0204531 0.025525 0.999465
vn 0.0194895 0.0279869 0.999418
vn 0.0179493 0.0487292 0.998651
vn 0.0504333 0.070834 0.996212
vn 0.0885151 0.0856202 0.992388
vn -0.0957026 -0.153873 0.983445
vn -0.00394138 0.0655185 0.997844
vn -0.0476083 0.0117738 0.998797
vn -0.0899983 -0.0109612 0.995882
vn -0.0765952 0.0201401 0.996859
vn 0.027487 0.103489 0.994251
vn 0.0902347 0.120998 0.988543
vn -0.0423631 -0.0417476 0.99823
vn -0.225574 -0.29786 0.927575
vn -0.0261412 0.0818754 0.9963
vn -0.0664904 -0.029872 0.99734
vn -0.063685 0.023452 0.997694
vn 0.0120254 0.0953412 0.995372
vn -0.00131175 0.126899 0.991915
vn -0.0192305 0.0419947 0.998933
vn -0.14158 -0.220598 0.965035
vn -0.0515858 -0.153118 0.986861
vn -0.0125857 0.046059 0.998859
vn -0.0281705 -0.0375563 0.998897
vn -0.0180964 0.0427306 0.998923
vn -0.0095642 0.130311 0.991427
vn -0.071607 0.0569173 0.995808
vn -0.118656 0.0207453 0.992719
vn -0.0720761 -0.129474 0.98896
vn -0.0142438 -0.164291 0.986309
vn -0.000754023 0.000223671 1
vn 0.0508351 -0.0486647 0.997521
vn 0.00177253 0.048501 0.998821
vn 0.0217702 0.12907 0.991396
vn 0.0456364 0.00102985 0.998958
vn -0.0548995 0.0134099 0.998402
vn -0.0187577 -0.0420737 0.998938
vn 0.0160794 -0.0870701 0.996072
vn -0.00242977 0.0703042 0.997523
vn 0.0805731 -0.00994096 0.996699
vn 0.0725288 0.00950789 0.997321
vn -0.030275 0.213623 0.976447
vn 0.00269549 0.127943 0.991778
vn 0.123296 -0.0293 0.991937
vn 0.102884 -0.0985722 0.989797
vn 0.0993162 -0.10757 0.989224
vn 0.0576255 0.0393857 0.997561
vn 0.0191642 0.0737072 0.997096
vn 0.0367914 -0.00297805 0.999319
vn -0.0190752 0.0973286 0.99507
vn -0.0917422 0.144441 0.985251
vn -0.0467429 0.0994599 0.993943
vn 0.144528 -0.12543 0.981519
vn 0.188428 -0.221782 0.956717
vn 0.0299705 0.0642381 0.997484
vn -0.018971 0.0287572 0.999406
vn -0.0191298 0.0304498 0.999353
vn 0.0155312 0.00327367 0.999874
vn -0.0188871 0.0708723 0.997307
vn -0.102839 0.105636 0.989073
vn -0.120886 0.0780934 0.98959
vn 0.0657013 -0.089677 0.993801
f 100/100/100 4/4/4 13/13/13
f 44/44/44 3/3/3 21/21/21
f 44/44/44 19/19/19 20/20/20
f 60/60/60 19/19/19 52/52/52
f 60/60/60 17/17/17 18/18/18
f 76/76/76 17/17/17 68/68/68
f 84/84/84 16/16/16 76/76/76
f 84/84/84 14/14/14 15/15/15
f 100/100/100 14/14/14 92/92/92
f 11/11/11 93/93/93 85/85/85
f 93/93/93 86/86/86 85/85/85
f 94/94/94 87/87/87 86/86/86
f 87/87/87 96/96/96 88/88/88
f 96/96/96 89/89/89 88/88/88
f 97/97/97 90/90/90 89/89/89
f 90/90/90 99/99/99 91/91/91
f 91/91/91 100/100/100 92/92/92
f 10/10/10 85/85/85 77/77/77
f 77/77/77 86/86/86 78/78/78
f 78/78/78 87/87/87 79/79/79
f 79/79/79 88/88/88 80/80/80
f 88/88/88 81/81/81 80/80/80
f 81/81/81 90/90/90 82/82/82
f 82/82/82 91/91/91 83/83/83
f 91/91/91 84/84/84 83/83/83
f 10/10/10 69/69/69 9/9/9
f 69/69/69 78/78/78 70/70/70
f 70/70/70 79/79/79 71/71/71
f 79/79/79 72/72/72 71/71/71
f 72/72/72 81/81/81 73/73/73
f 73/73/73 82/82/82 74/74/74
f 82/82/82 75/75/75 74/74/74
f 83/83/83 76/76/76 75/75/75
f 9/9/9 61/61/61 8/8/8
f 69/69/69 62/62/62 61/61/61
f 62/62/62 71/71/71 63/63/63
f 63/63/63 72/72/72 64/64/64
f 72/72/72 65/65/65 64/64/64
f 65/65/65 74/74/74 66/66/66
f 66/66/66 75/75/75 67/67/67
f 67/67/67 76/76/76 68/68/68
f 8/8/8 53/53/53 7/7/7
f 53/53/53 62/62/62 54/54/54
f 54/54/54 63/63/63 55/55/55
f 55/55/55 64/64/64 56/56/56
f 64/64/64 57/57/57 56/56/56
f 57/57/57 66/66/66 58/58/58
f 58/58/58 67/67/67 59/59/59
f 59/59/59 68/68/68 60/60/60
f 6/6/6 53/53/53 45/45/45
f 45/45/45 54/54/54 46/46/46
f 54/54/54 47/47/47 46/46/46
f 55/55/55 48/48/48 47/47/47
f 56/56/56 49/49/49 48/48/48
f 49/49/49 58/58/58 50/50/50
f 58/58/58 51/51/51 50/50/50
f 59/59/59 52/52/52 51/51/51
f 6/6/6 37/37/37 5/5/5
f 45/45/45 38/38/38 37/37/37
f 46/46/46 39/39/39 38/38/38
f 39/39/39 48/48/48 40/40/40
f 40/40/40 49/49/49 41/41/41
f 41/41/41 50/50/50 42/42/42
f 50/50/50 43/43/43 42/42/42
f 51/51/51 44/44/44 43/43/43
f 5/5/5 28/28/28 1/1/1
f 28/28/28 38/38/38 27/27/27
f 27/27/27 39/39/39 26/26/26
f 26/26/26 40/40/40 25/25/25
f 40/40/40 24/24/24 25/25/25
f 41/41/41 23/23/23 24/24/24
f 23/23/23 43/43/43 22/22/22
f 43/43/43 21/21/21 22/22/22
f 2/2/2 93/93/93 12/12/12
f 93/93/93 30/30/30 94/94/94
f 30/30/30 95/95/95 94/94/94
f 31/31/31 96/96/96 95/95/95
f 32/32/32 97/97/97 96/96/96
f 33/33/33 98/98/98 97/97/97
f 98/98/98 35/35/35 99/99/99
f 99/99/99 36/36/36 100/100/100
f 100/100/100 36/36/36 4/4/4
f 44/44/44 20/20/20 3/3/3
f 44/44/44 52/52/52 19/19/19
f 60/60/60 18/18/18 19/19/19
f 60/60/60 68/68/68 17/17/17
f 76/76/76 16/16/16 17/17/17
f 84/84/84 15/15/15 16/16/16
f 84/84/84 92/92/92 14/14/14
f 100/100/100 13/13/13 14/14/14
f 11/11/11 12/12/12 93/93/93
f 93/93/93 94/94/94 86/86/86
f 94/94/94 95/95/95 87/87/87
f 87/87/87 95/95/95 96/96/96
f 96/96/96 97/97/97 89/89/89
f 97/97/97 98/98/98 90/90/90
f 90/90/90 98/98/98 99/99/99
f 91/91/91 99/99/99 100/100/100
f 10/10/10 11/11/11 85/85/85
f 77/77/77 85/85/85 86/86/86
f 78/78/78 86/86/86 87/87/87
f 79/79/79 87/87/87 88/88/88
f 88/88/88 89/89/89 81/81/81
f 81/81/81 89/89/89 90/90/90
f 82/82/82 90/90/90 91/91/91
f 91/91/91 92/92/92 84/84/84
f 10/10/10 77/77/77 69/69/69
f 69/69/69 77/77/77 78/78/78
f 70/70/70 78/78/78 79/79/79
f 79/79/79 80/80/80 72/72/72
f 72/72/72 80/80/80 81/81/81
f 73/73/73 81/81/81 82/82/82
f 82/82/82 83/83/83 75/75/75
f 83/83/83 84/84/84 76/76/76
f 9/9/9 69/69/69 61/61/61
f 69/69/69 70/70/70 62/62/62
f 62/62/62 70/70/70 71/71/71
f 63/63/63 71/71/71 72/72/72
f 72/72/72 73/73/73 65/65/65
f 65/65/65 73/73/73 74/74/74
f 66/66/66 74/74/74 75/75/75
f 67/67/67 75/75/75 76/76/76
f 8/8/8 61/61/61 53/53/53
f 53/53/53 61/61/61 62/62/62
f 54/54/54 62/62/62 63/63/63
f 55/55/55 63/63/63 64/64/64
f 64/64/64 65/65/65 57/57/57
f 57/57/57 65/65/65 66/66/66
f 58/58/58 66/66/66 67/67/67
f 59/59/59 67/67/67 68/68/68
f 6/6/6 7/7/7 53/53/53
f 45/45/45 53/53/53 54/54/54
f 54/54/54 55/55/55 47/47/47
f 55/55/55 56/56/56 48/48/48
f 56/56/56 57/57/57 49/49/49
f 49/49/49 57/57/57 58/58/58
f 58/58/58 59/59/59 51/51/51
f 59/59/59 60/60/60 52/52/52
f 6/6/6 45/45/45 37/37/37
f 45/45/45 46/46/46 38/38/38
f 46/46/46 47/47/47 39/39/39
f 39/39/39 47/47/47 48/48/48
f 40/40/40 48/48/48 49/49/49
f 41/41/41 49/49/49 50/50/50
f 50/50/50 51/51/51 43/43/43
f 51/51/51 52/52/52 44/44/44
f 5/5/5 37/37/37 28/28/28
f 28/28/28 37/37/37 38/38/38
f 27/27/27 38/38/38 39/39/39
f 26/26/26 39/39/39 40/40/40
f 40/40/40 41/41/41 24/24/24
f 41/41/41 42/42/42 23/23/23
f 23/23/23 42/42/42 43/43/43
f 43/43/43 44/44/44 21/21/21
f 2/2/2 29/29/29 93/93/93
f 93/93/93 29/29/29 30/30/30
f 30/30/30 31/31/31 95/95/95
f 31/31/31 32/32/32 96/96/96
f 32/32/32 33/33/33 97/97/97
f 33/33/33 34/34/34 98/98/98
f 98/98/98 34/34/34 35/35/35
f 99/99/99 35/35/35 36/36/36
