o GNATVCloth
v -5.05139 -4.9838 0.587834
v 5.04841 -4.9953 0.391834
v -5.01298 5.02105 0.004229
v 4.98702 5.02105 0.004229
v -3.93797 -5.02272 0.538661
v -2.81931 -5.06456 0.481145
v -1.69529 -5.09057 0.492176
v -0.567437 -5.1115 0.493711
v 0.562986 -5.11339 0.501943
v 1.69171 -5.10387 0.509947
v 2.81559 -5.07322 0.453682
v 3.93603 -5.02241 0.479962
v 3.86286 4.91272 0.174289
v 2.74914 4.83473 0.339713
v 1.62735 4.7734 0.325898
v 0.508069 4.73583 0.309696
v -0.581473 4.71598 0.452227
v -1.68963 4.70815 0.618776
v -2.81078 4.77375 0.522649
v -3.90434 4.8863 0.256335
v -4.9855 3.90697 0.0757451
v -4.98851 2.79247 0.140372
v -4.99553 1.67886 0.205496
v -5.00342 0.565394 0.266079
v -5.00863 -0.547281 0.324008
v -5.01374 -1.66016 0.366584
v -5.02151 -2.77338 0.39617
v -5.02926 -3.8804 0.503081
v 5.02588 -3.88914 0.296991
v 5.01473 -2.77812 0.278031
v 5.00667 -1.66555 0.250174
v 4.99894 -0.552349 0.235072
v 4.99066 0.561426 0.202477
v 4.98159 1.67598 0.164319
v 4.97633 2.7912 0.12846
v 4.97093 3.90529 0.0539777
v -3.86406 -3.89027 0.339307
v -3.82379 -3.24246 0.27343
v -3.67365 -1.95472 0.241606
v -4.1246 -0.290791 0.229214
v -4.14627 0.725009 0.19059
v -4.13775 1.50687 0.13386
v -4.07099 2.79814 0.0344613
v -3.92298 3.87424 -0.110124
v -2.73054 -4.05392 0.3062
v -2.80582 -2.78606 0.346911
v -2.68255 -2.19871 0.293039
v -2.75701 -0.654033 0.28887
v -2.78967 0.476286 0.179591
v -2.72218 1.51335 0.030055
v -2.84122 2.85302 -0.104297
v -2.74187 3.53511 0.0456695
v -1.66485 -4.29266 0.321218
v -1.50394 -2.98039 0.396449
v -1.89689 -1.6857 0.383788
v -1.87966 -0.891117 0.32885
v -1.52656 0.582085 0.0732934
v -1.98503 1.63973 -0.0287398
v -1.70704 2.68163 0.032912
v -1.58425 3.60075 0.425128
v -0.237421 -4.38292 0.392355
v -0.591346 -2.9478 0.477271
v -0.55004 -1.80601 0.44309
v -0.841255 -0.830649 0.314802
v -0.60343 0.368722 0.129696
v -0.369982 1.38708 0.0899273
v -0.566619 2.57052 0.162471
v -0.761781 3.4 0.439575
v 0.735996 -3.95219 0.407304
v 0.813823 -2.66435 0.500838
v 0.526057 -1.87666 0.47624
v 0.612085 -0.571366 0.192501
v 0.590321 0.333944 0.171711
v 0.302748 1.43237 0.109775
v 0.527488 2.39776 0.164462
v 0.539577 3.63465 0.399113
v 1.95449 -3.70486 0.370309
v 1.67261 -2.89563 0.369021
v 1.83088 -1.9717 0.454618
v 1.99202 -0.467609 0.144298
v 1.97627 0.205432 0.00220229
v 1.83213 1.46774 0.0701379
v 1.41213 2.7398 0.150014
v 1.47638 3.56427 0.3188
v 2.8004 -3.96121 0.372752
v 3.10513 -2.87175 0.323424
v 2.95369 -1.99528 0.269233
v 2.71907 -0.534297 0.313203
v 2.96152 0.257893 0.208889
v 3.07743 1.5275 -0.0791325
v 2.76303 3.09171 -0.0424462
v 2.72859 3.45459 0.0349458
v 3.92784 -3.9916 0.29436
v 3.66937 -2.73894 0.307362
v 3.87976 -1.69746 0.287025
v 3.81484 -0.742356 0.302448
v 3.87322 0.270478 0.286535
v 4.16145 1.78847 0.151151
v 4.14249 2.73718 -0.0357769
v 4.02303 3.86071 -0.0852527
vt 0.0001 0.0001
vt 0.9999 0.0001
vt 0.0001 0.9999
vt 0.9999 0.9999
vt 0.111189 0.0001
vt 0.222278 0.0001
vt 0.333367 0.0001
vt 0.444455 0.0001
vt 0.555544 0.0001
vt 0.666633 0.0001
vt 0.777722 0.0001
vt 0.888811 0.0001
vt 0.888811 0.9999
vt 0.777722 0.9999
vt 0.666633 0.9999
vt 0.555544 0.9999
vt 0.444455 0.9999
vt 0.333367 0.9999
vt 0.222278 0.9999
vt 0.111189 0.9999
vt 0.0001 0.888811
vt 0.0001 0.777722
vt 0.0001 0.666633
vt 0.0001 0.555544
vt 0.0001 0.444456
vt 0.0001 0.333367
vt 0.0001 0.222278
vt 0.0001 0.111189
vt 0.9999 0.111189
vt 0.9999 0.222278
vt 0.9999 0.333367
vt 0.9999 0.444456
vt 0.9999 0.555544
vt 0.9999 0.666633
vt 0.9999 0.777722
vt 0.9999 0.888811
vt 0.11727 0.115399
vt 0.120778 0.180369
vt 0.134636 0.309595
vt 0.088728 0.473895
vt 0.085886 0.575352
vt 0.086211 0.65375
vt 0.092207 0.78313
vt 0.106956 0.892282
vt 0.22987 0.102869
vt 0.221803 0.229552
vt 0.233521 0.288953
vt 0.225541 0.443179
vt 0.221596 0.556167
vt 0.227801 0.661237
vt 0.214896 0.795203
vt 0.22542 0.865181
vt 0.335524 0.082127
vt 0.351143 0.213907
vt 0.311934 0.342467
vt 0.313159 0.422214
vt 0.347791 0.572605
vt 0.301482 0.677733
vt 0.329031 0.783086
vt 0.344903 0.885466
vt 0.476837 0.074882
vt 0.441952 0.218774
vt 0.445749 0.333088
vt 0.416414 0.43099
vt 0.439746 0.552976
vt 0.463203 0.656843
vt 0.444252 0.77653
vt 0.426137 0.866051
vt 0.573419 0.117409
vt 0.581125 0.246686
vt 0.552512 0.326
vt 0.561075 0.459693
vt 0.558356 0.550596
vt 0.530299 0.662189
vt 0.553275 0.760113
vt 0.555478 0.888821
vt 0.694433 0.13996
vt 0.667048 0.221666
vt 0.681985 0.314267
vt 0.698218 0.467249
vt 0.696819 0.535952
vt 0.68253 0.662758
vt 0.642062 0.791726
vt 0.648523 0.877957
vt 0.778029 0.111667
vt 0.809426 0.219523
vt 0.794923 0.307783
vt 0.772028 0.454562
vt 0.796846 0.533374
vt 0.807262 0.663157
vt 0.778581 0.821037
vt 0.775122 0.858219
vt 0.890224 0.104741
vt 0.865679 0.23076
vt 0.887326 0.334104
vt 0.881307 0.429754
vt 0.887973 0.53063
vt 0.918106 0.681428
vt 0.915043 0.778027
vt 0.904815 0.89094
vn 0.046631 0.0755719 0.996049
vn 0.0316092 0.131511 0.990811
vn -0.0382375 -0.13507 0.990098
vn 0.0096218 -0.0848291 0.996349
vn 0.0808912 0.136235 0.987369
vn 0.0322013 0.178454 0.983421
vn -0.00109432 0.209541 0.977799
vn -0.0146097 0.168586 0.985579
vn -0.0231746 0.104219 0.994284
vn 0.0190868 0.0868708 0.996037
vn 0.029372 0.108035 0.993713
vn 0.0211976 0.177328 0.983923
vn 0.162145 -0.213019 0.9635
vn 0.126248 -0.163103 0.978498
vn -0.0132061 -0.00422034 0.999904
vn 0.0684301 0.0544849 0.996167
vn 0.0729432 -0.023638 0.997056
vn 0.0268905 -0.169707 0.985128
vn -0.2125 -0.308087 0.927322
vn -0.25117 -0.325452 0.911589
vn 0.154301 0.0774054 0.984987
vn 0.114133 0.0572434 0.991815
vn 0.0965559 0.0633218 0.993311
vn 0.0832609 0.0481832 0.995362
vn 0.0937442 0.0444815 0.994602
vn 0.0981755 0.0326562 0.994633
vn 0.114434 0.0440822 0.992452
vn 0.115817 0.106232 0.987574
vn -0.00716558 0.0511481 0.998665
vn 0.0179604 0.0128485 0.999756
vn 0.0398772 0.00842955 0.999169
vn 0.0588915 0.0187131 0.998089
vn 0.0368246 0.0474552 0.998194
vn -0.0115061 0.0331013 0.999386
vn -0.137512 0.0945922 0.985973
vn -0.163636 0.0462141 0.985438
vn 0.086319 0.137866 0.986682
vn 0.0475163 0.0495716 0.99764
vn 0.0134214 0.0286528 0.999499
vn 0.0458708 0.0418602 0.99807
vn 0.062847 0.0691291 0.995626
vn 0.0849033 0.0716468 0.99381
vn 0.112284 0.0847533 0.990055
vn -0.0672135 -0.134693 0.988605
vn -0.000953016 0.0517389 0.99866
vn -0.0477011 0.0316795 0.998359
vn -0.063561 0.0340145 0.997398
vn -0.0456915 0.0423348 0.998058
vn 0.0299095 0.113042 0.99314
vn 0.0670235 0.106276 0.992075
vn -0.0300216 -0.0122116 0.999475
vn -0.220559 -0.290357 0.931153
vn -0.0265812 0.0820885 0.99627
vn -0.0592628 -0.00436679 0.998233
vn -0.0515367 0.0386758 0.997922
vn 0.00736818 0.111819 0.993701
vn 0.00173391 0.121574 0.992581
vn -0.0284235 0.0447693 0.998593
vn -0.153311 -0.221739 0.962979
vn -0.105709 -0.242885 0.964278
vn -0.0292613 0.0515193 0.998243
vn -0.0390155 -0.0229495 0.998975
vn -0.0258491 0.0905609 0.995555
vn 0.0118326 0.134258 0.990876
vn -0.0194027 0.077562 0.996799
vn -0.0445679 -0.00381846 0.998999
vn -0.050331 -0.167264 0.984627
vn -0.0304681 -0.211755 0.976848
vn 0.0163286 0.0102841 0.999814
vn 0.0496215 -0.0406474 0.997941
vn -0.00310355 0.103708 0.994603
vn 0.03229 0.146385 0.988701
vn 0.0396205 0.0236732 0.998934
vn -0.00814978 0.00865553 0.999929
vn 0.0137619 -0.100244 0.994868
vn 0.0666425 -0.104447 0.992295
vn 0.0211828 0.0516917 0.998438
vn 0.0838433 -0.0366417 0.995805
vn 0.0452689 0.0629635 0.996989
vn -0.0927208 0.207104 0.973915
vn -0.0359036 0.113004 0.992946
vn 0.0844206 -0.0206556 0.996216
vn 0.106261 -0.134292 0.985228
vn 0.104651 -0.107135 0.988722
vn 0.0449839 0.0618416 0.997072
vn 0.0308562 0.0345625 0.998926
vn 0.0472724 -0.0017442 0.998881
vn -0.0707541 0.117636 0.990533
vn -0.113065 0.160123 0.9806
vn -0.0801444 0.103394 0.991406
vn 0.115614 -0.0841825 0.989721
vn 0.176871 -0.202029 0.963276
vn 0.027623 0.0683609 0.997278
vn 0.0118895 0.0187773 0.999753
vn 0.00926498 0.0068694 0.999933
vn 0.0115223 0.0153602 0.999816
vn -0.0387425 0.0840557 0.995708
vn -0.109766 0.108291 0.988041
vn -0.133703 0.0805525 0.987742
vn 0.0500654 -0.103877 0.993329
f 100/100/100 4/4/4 13/13/13
f 44/44/44 3/3/3 21/21/21
f 44/44/44 19/19/19 20/20/20
f 60/60/60 19/19/19 52/52/52
f 60/60/60 17/17/17 18/18/18
f 76/76/76 17/17/17 68/68/68
f 84/84/84 16/16/16 76/76/76
f 84/84/84 14/14/14 15/15/15
f 100/100/100 14/14/14 92/92/92
f 11/11/11 93/93/93 85/85/85
f 93/93/93 86/86/86 85/85/85
f 94/94/94 87/87/87 86/86/86
f 87/87/87 96/96/96 88/88/88
f 96/96/96 89/89/89 88/88/88
f 97/97/97 90/90/90 89/89/89
f 90/90/90 99/99/99 91/91/91
f 91/91/91 100/100/100 92/92/92
f 10/10/10 85/85/85 77/77/77
f 77/77/77 86/86/86 78/78/78
f 78/78/78 87/87/87 79/79/79
f 79/79/79 88/88/88 80/80/80
f 88/88/88 81/81/81 80/80/80
f 81/81/81 90/90/90 82/82/82
f 82/82/82 91/91/91 83/83/83
f 91/91/91 84/84/84 83/83/83
f 10/10/10 69/69/69 9/9/9
f 69/69/69 78/78/78 70/70/70
f 70/70/70 79/79/79 71/71/71
f 79/79/79 72/72/72 71/71/71
f 72/72/72 81/81/81 73/73/73
f 73/73/73 82/82/82 74/74/74
f 82/82/82 75/75/75 74/74/74
f 83/83/83 76/76/76 75/75/75
f 9/9/9 61/61/61 8/8/8
f 69/69/69 62/62/62 61/61/61
f 62/62/62 71/71/71 63/63/63
f 63/63/63 72/72/72 64/64/64
f 72/72/72 65/65/65 64/64/64
f 65/65/65 74/74/74 66/66/66
f 66/66/66 75/75/75 67/67/67
f 67/67/67 76/76/76 68/68/68
f 8/8/8 53/53/53 7/7/7
f 53/53/53 62/62/62 54/54/54
f 54/54/54 63/63/63 55/55/55
f 55/55/55 64/64/64 56/56/56
f 64/64/64 57/57/57 56/56/56
f 57/57/57 66/66/66 58/58/58
f 58/58/58 67/67/67 59/59/59
f 59/59/59 68/68/68 60/60/60
f 6/6/6 53/53/53 45/45/45
f 45/45/45 54/54/54 46/46/46
f 54/54/54 47/47/47 46/46/46
f 55/55/55 48/48/48 47/47/47
f 56/56/56 49/49/49 48/48/48
f 49/49/49 58/58/58 50/50/50
f 58/58/58 51/51/51 50/50/50
f 59/59/59 52/52/52 51/51/51
f 6/6/6 37/37/37 5/5/5
f 45/45/45 38/38/38 37/37/37
f 46/46/46 39/39/39 38/38/38
f 39/39/39 48/48/48 40/40/40
f 40/40/40 49/49/49 41/41/41
f 41/41/41 50/50/50 42/42/42
f 50/50/50 43/43/43 42/42/42
f 51/51/51 44/44/44 43/43/43
f 5/5/5 28/28/28 1/1/1
f 28/28/28 38/38/38 27/27/27
f 27/27/27 39/39/39 26/26/26
f 26/26/26 40/40/40 25/25/25
f 40/40/40 24/24/24 25/25/25
f 41/41/41 23/23/23 24/24/24
f 23/23/23 43/43/43 22/22/22
f 43/43/43 21/21/21 22/22/22
f 2/2/2 93/93/93 12/12/12
f 93/93/93 30/30/30 94/94/94
f 30/30/30 95/95/95 94/94/94
f 31/31/31 96/96/96 95/95/95
f 32/32/32 97/97/97 96/96/96
f 33/33/33 98/98/98 97/97/97
f 98/98/98 35/35/35 99/99/99
f 99/99/99 36/36/36 100/100/100
f 100/100/100 36/36/36 4/4/4
f 44/44/44 20/20/20 3/3/3
f 44/44/44 52/52/52 19/19/19
f 60/60/60 18/18/18 19/19/19
f 60/60/60 68/68/68 17/17/17
f 76/76/76 16/16/16 17/17/17
f 84/84/84 15/15/15 16/16/16
f 84/84/84 92/92/92 14/14/14
f 100/100/100 13/13/13 14/14/14
f 11/11/11 12/12/12 93/93/93
f 93/93/93 94/94/94 86/86/86
f 94/94/94 95/95/95 87/87/87
f 87/87/87 95/95/95 96/96/96
f 96/96/96 97/97/97 89/89/89
f 97/97/97 98/98/98 90/90/90
f 90/90/90 98/98/98 99/99/99
f 91/91/91 99/99/99 100/100/100
f 10/10/10 11/11/11 85/85/85
f 77/77/77 85/85/85 86/86/86
f 78/78/78 86/86/86 87/87/87
f 79/79/79 87/87/87 88/88/88
f 88/88/88 89/89/89 81/81/81
f 81/81/81 89/89/89 90/90/90
f 82/82/82 90/90/90 91/91/91
f 91/91/91 92/92/92 84/84/84
f 10/10/10 77/77/77 69/69/69
f 69/69/69 77/77/77 78/78/78
f 70/70/70 78/78/78 79/79/79
f 79/79/79 80/80/80 72/72/72
f 72/72/72 80/80/80 81/81/81
f 73/73/73 81/81/81 82/82/82
f 82/82/82 83/83/83 75/75/75
f 83/83/83 84/84/84 76/76/76
f 9/9/9 69/69/69 61/61/61
f 69/69/69 70/70/70 62/62/62
f 62/62/62 70/70/70 71/71/71
f 63/63/63 71/71/71 72/72/72
f 72/72/72 73/73/73 65/65/65
f 65/65/65 73/73/73 74/74/74
f 66/66/66 74/74/74 75/75/75
f 67/67/67 75/75/75 76/76/76
f 8/8/8 61/61/61 53/53/53
f 53/53/53 61/61/61 62/62/62
f 54/54/54 62/62/62 63/63/63
f 55/55/55 63/63/63 64/64/64
f 64/64/64 65/65/65 57/57/57
f 57/57/57 65/65/65 66/66/66
f 58/58/58 66/66/66 67/67/67
f 59/59/59 67/67/67 68/68/68
f 6/6/6 7/7/7 53/53/53
f 45/45/45 53/53/53 54/54/54
f 54/54/54 55/55/55 47/47/47
f 55/55/55 56/56/56 48/48/48
f 56/56/56 57/57/57 49/49/49
f 49/49/49 57/57/57 58/58/58
f 58/58/58 59/59/59 51/51/51
f 59/59/59 60/60/60 52/52/52
f 6/6/6 45/45/45 37/37/37
f 45/45/45 46/46/46 38/38/38
f 46/46/46 47/47/47 39/39/39
f 39/39/39 47/47/47 48/48/48
f 40/40/40 48/48/48 49/49/49
f 41/41/41 49/49/49 50/50/50
f 50/50/50 51/51/51 43/43/43
f 51/51/51 52/52/52 44/44/44
f 5/5/5 37/37/37 28/28/28
f 28/28/28 37/37/37 38/38/38
f 27/27/27 38/38/38 39/39/39
f 26/26/26 39/39/39 40/40/40
f 40/40/40 41/41/41 24/24/24
f 41/41/41 42/42/42 23/23/23
f 23/23/23 42/42/42 43/43/43
f 43/43/43 44/44/44 21/21/21
f 2/2/2 29/29/29 93/93/93
f 93/93/93 29/29/29 30/30/30
f 30/30/30 31/31/31 95/95/95
f 31/31/31 32/32/32 96/96/96
f 32/32/32 33/33/33 97/97/97
f 33/33/33 34/34/34 98/98/98
f 98/98/98 34/34/34 35/35/35
f 99/99/99 35/35/35 36/36/36
