o GNATVCloth
v -4.93424 -4.98323 0.38882
v 5.08913 -4.98148 0.418472
v -5.01298 5.02105 0.004229
v 4.98702 5.02105 0.004229
v -3.823 -4.99291 0.347634
v -2.71075 -4.99237 0.32575
v -1.59997 -4.99294 0.240917
v -0.484717 -4.9992 0.232379
v 0.633084 -5.00457 0.254831
v 1.75059 -5.0036 0.27387
v 2.86677 -5.00663 0.237846
v 3.98218 -4.9957 0.29322
v 3.86988 4.96451 0.0952187
v 2.78931 4.89151 0.231803
v 1.68388 4.85764 0.365861
v 0.562024 4.87079 0.323053
v -0.5481 4.87093 0.281869
v -1.64742 4.90898 0.181136
v -2.76649 4.94575 0.161526
v -3.88408 4.98091 0.0599379
v -4.99176 3.90718 0.0522259
v -4.97323 2.79281 0.0727397
v -4.95917 1.67946 0.0979385
v -4.95 0.5672 0.137577
v -4.94137 -0.543449 0.19922
v -4.93399 -1.65665 0.256897
v -4.9251 -2.76299 0.36473
v -4.9242 -3.87313 0.416902
v 5.08601 -3.87272 0.3329
v 5.08298 -2.76264 0.320139
v 5.07838 -1.652 0.248562
v 5.06715 -0.542411 0.160077
v 5.05576 0.569085 0.107524
v 5.04412 1.68181 0.0786344
v 5.03263 2.79455 0.0577288
v 5.01337 3.90765 0.0317061
v -3.75568 -3.84612 0.308989
v -3.71851 -3.19503 0.301307
v -3.58751 -1.90766 0.175363
v -4.05694 -0.259683 0.148638
v -4.09317 0.756524 0.162194
v -4.09585 1.53973 0.132971
v -4.05096 2.83303 0.10511
v -3.92137 3.91177 -0.0513231
v -2.63082 -3.97171 0.245602
v -2.71002 -2.71197 0.182537
v -2.59291 -2.11869 0.174884
v -2.6905 -0.579658 0.287582
v -2.7373 0.549942 0.283248
v -2.67906 1.59706 0.214906
v -2.81997 2.92132 -0.0137998
v -2.75441 3.59617 0.184189
v -1.57279 -4.18997 0.253545
v -1.41395 -2.87562 0.237287
v -1.8174 -1.59257 0.31756
v -1.80988 -0.796323 0.287173
v -1.47573 0.691096 0.173037
v -1.94765 1.74015 0.113037
v -1.70529 2.77239 0.274937
v -1.55158 3.76637 0.228574
v -0.155414 -4.26439 0.235311
v -0.503648 -2.83249 0.244629
v -0.471151 -1.69046 0.267291
v -0.775236 -0.724615 0.226277
v -0.55308 0.495368 0.210765
v -0.330684 1.52852 0.251015
v -0.540698 2.71846 0.290727
v -0.733107 3.56995 0.244053
v 0.813627 -3.84156 0.258873
v 0.89094 -2.55338 0.206431
v 0.59959 -1.76065 0.231117
v 0.672825 -0.434682 0.227593
v 0.635825 0.470287 0.237839
v 0.342341 1.58662 0.245102
v 0.56015 2.56544 0.249592
v 0.568434 3.7961 0.239958
v 2.02702 -3.61692 0.234253
v 1.75217 -2.80294 0.214913
v 1.89978 -1.8813 0.259988
v 2.04741 -0.356584 0.22782
v 2.02592 0.328934 0.217714
v 1.86807 1.59049 0.179571
v 1.45183 2.87052 0.27936
v 1.50434 3.70821 0.226689
v 2.86617 -3.89444 0.239363
v 3.17604 -2.81347 0.288894
v 3.03144 -1.93477 0.213036
v 2.78673 -0.47335 0.289343
v 3.02793 0.318221 0.260708
v 3.12007 1.61341 0.181398
v 2.81761 3.1721 0.20459
v 2.78061 3.53925 0.237233
v 3.99 -3.95042 0.266082
v 3.73844 -2.69512 0.324387
v 3.95131 -1.66064 0.280256
v 3.88226 -0.706422 0.216726
v 3.94006 0.303066 0.204527
v 4.23017 1.81178 0.143228
v 4.18437 2.76954 0.0799241
v 4.06274 3.89031 0.0175632
vt 0.0001 0.0001
vt 0.9999 0.0001
vt 0.0001 0.9999
vt 0.9999 0.9999
vt 0.111189 0.0001
vt 0.222278 0.0001
vt 0.333367 0.0001
vt 0.444455 0.0001
vt 0.555544 0.0001
vt 0.666633 0.0001
vt 0.777722 0.0001
vt 0.888811 0.0001
vt 0.888811 0.9999
vt 0.777722 0.9999
vt 0.666633 0.9999
vt 0.555544 0.9999
vt 0.444455 0.9999
vt 0.333367 0.9999
vt 0.222278 0.9999
vt 0.111189 0.9999
vt 0.0001 0.888811
vt 0.0001 0.777722
vt 0.0001 0.666633
vt 0.0001 0.555544
vt 0.0001 0.444456
vt 0.0001 0.333367
vt 0.0001 0.222278
vt 0.0001 0.111189
vt 0.9999 0.111189
vt 0.9999 0.222278
vt 0.9999 0.333367
vt 0.9999 0.444456
vt 0.9999 0.555544
vt 0.9999 0.666633
vt 0.9999 0.777722
vt 0.9999 0.888811
vt 0.11727 0.115399
vt 0.120778 0.180369
vt 0.134636 0.309595
vt 0.088728 0.473895
vt 0.085886 0.575352
vt 0.086211 0.65375
vt 0.092207 0.78313
vt 0.106956 0.892282
vt 0.22987 0.102869
vt 0.221803 0.229552
vt 0.233521 0.288953
vt 0.225541 0.443179
vt 0.221596 0.556167
vt 0.227801 0.661237
vt 0.214896 0.795203
vt 0.22542 0.865181
vt 0.335524 0.082127
vt 0.351143 0.213907
vt 0.311934 0.342467
vt 0.313159 0.422214
vt 0.347791 0.572605
vt 0.301482 0.677733
vt 0.329031 0.783086
vt 0.344903 0.885466
vt 0.476837 0.074882
vt 0.441952 0.218774
vt 0.445749 0.333088
vt 0.416414 0.43099
vt 0.439746 0.552976
vt 0.463203 0.656843
vt 0.444252 0.77653
vt 0.426137 0.866051
vt 0.573419 0.117409
vt 0.581125 0.246686
vt 0.552512 0.326
vt 0.561075 0.459693
vt 0.558356 0.550596
vt 0.530299 0.662189
vt 0.553275 0.760113
vt 0.555478 0.888821
vt 0.694433 0.13996
vt 0.667048 0.221666
vt 0.681985 0.314267
vt 0.698218 0.467249
vt 0.696819 0.535952
vt 0.68253 0.662758
vt 0.642062 0.791726
vt 0.648523 0.877957
vt 0.778029 0.111667
vt 0.809426 0.219523
vt 0.794923 0.307783
vt 0.772028 0.454562
vt 0.796846 0.533374
vt 0.807262 0.663157
vt 0.778581 0.821037
vt 0.775122 0.858219
vt 0.890224 0.104741
vt 0.865679 0.23076
vt 0.887326 0.334104
vt 0.881307 0.429754
vt 0.887973 0.53063
vt 0.918106 0.681428
vt 0.915043 0.778027
vt 0.904815 0.89094
vn 0.036803 -0.0256043 0.998994
vn -0.0894594 0.051644 0.994651
vn 0.0218037 -0.0285908 0.999353
vn 0.034367 -0.0163081 0.999276
vn 0.0492822 0.0117105 0.998716
vn 0.042186 0.0412987 0.998256
vn 0.0418715 -0.0171288 0.998976
vn -4.34014e-05 -0.00683832 0.999977
vn -0.0205129 0.00149662 0.999789
vn 0.00848704 0.0128048 0.999882
vn -0.0138113 0.00786266 0.999874
vn -0.0813177 0.0264762 0.996337
vn 0.106222 -0.0527109 0.992944
vn 0.103471 -0.0451402 0.993608
vn 0.0422393 -0.126594 0.991055
vn -0.0231046 -0.0894915 0.99572
vn -0.0359575 -0.0248407 0.999045
vn -0.0531502 0.036972 0.997902
vn -0.0859685 -0.00716677 0.996272
vn -0.0729268 -0.100714 0.992239
vn 0.0518449 0.0649242 0.996543
vn -0.0359397 0.0199778 0.999154
vn -0.0359733 0.0293499 0.998922
vn -0.00763013 0.0255997 0.999643
vn 0.0397948 0.0538226 0.997757
vn 0.0618852 0.0615433 0.996184
vn 0.0771124 0.0776158 0.993997
vn 0.072309 0.0140028 0.997284
vn -0.0638997 0.0439743 0.996987
vn -0.00701279 0.0177803 0.999817
vn 0.0305533 0.0708684 0.997018
vn 0.0527676 0.045719 0.99756
vn 0.0797337 0.0331919 0.996263
vn 0.0827614 0.0231526 0.9963
vn 0.0439493 0.0368405 0.998354
vn -0.00190127 0.0339915 0.99942
vn 0.0648788 0.0297888 0.997448
vn 0.0778227 0.0492938 0.995748
vn 0.0267695 0.0337722 0.999071
vn -0.0252141 0.0140598 0.999583
vn -0.0542782 0.0246737 0.998221
vn -0.0473098 0.0301285 0.998426
vn 0.0136702 0.0758778 0.997023
vn -0.0463849 -0.018409 0.998754
vn 0.0299624 0.045957 0.998494
vn 0.0184202 0.045243 0.998806
vn -0.0590192 -0.0440286 0.997285
vn -0.056275 -0.0211307 0.998192
vn 0.00202537 0.0377903 0.999284
vn 0.0190471 0.0913965 0.995632
vn -0.0900047 -0.0162455 0.995809
vn -0.163878 -0.0834063 0.982948
vn 0.0148309 0.00812108 0.999857
vn -0.0255095 -0.010718 0.999617
vn -0.0170612 -0.0166681 0.999716
vn 0.0404205 0.0404399 0.998364
vn 0.00752719 0.0374918 0.999269
vn -0.0218325 0.00860497 0.999725
vn -0.104451 -0.0562149 0.99294
vn -0.0370655 0.0276798 0.998929
vn -0.00777475 -0.00377225 0.999963
vn 0.00865977 -0.00310544 0.999958
vn 0.0208531 0.000582201 0.999782
vn 0.0170831 0.0382964 0.99912
vn -0.0201668 -0.0104105 0.999742
vn -0.0276118 -0.0223449 0.999369
vn -0.009536 -0.019039 0.999773
vn -0.00826637 0.0195305 0.999775
vn -0.00128679 0.0175167 0.999846
vn 0.000758909 -0.00507813 0.999987
vn 0.00994924 -0.0152792 0.999834
vn -0.00155924 0.00882299 0.99996
vn 0.00560093 0.000325229 0.999984
vn 0.0169154 -0.0140405 0.999758
vn 0.0136902 -0.0187276 0.999731
vn -0.000802545 -0.00773824 0.99997
vn -0.00751656 0.00964271 0.999925
vn -0.011731 0.00883744 0.999892
vn -0.0103612 -0.0189758 0.999766
vn -0.0404808 0.0191908 0.998996
vn -0.0196262 0.0273842 0.999432
vn 0.0230651 -0.0139636 0.999636
vn 0.0172382 -0.00118233 0.999851
vn 0.0178466 -0.042214 0.998949
vn -0.00669954 -0.0106916 0.99992
vn -0.0462733 0.00360132 0.998922
vn -0.025148 0.0183778 0.999515
vn -0.00602974 0.0027821 0.999978
vn 0.0218038 0.0386864 0.999014
vn 0.0227602 0.0344243 0.999148
vn 0.0681668 -0.0142929 0.997572
vn 0.0821527 -0.0381986 0.995887
vn -0.0488158 -0.000217014 0.998808
vn -0.0428786 0.0146044 0.998974
vn -0.0242263 0.0591065 0.997958
vn 0.0297935 0.0283771 0.999153
vn 0.0590703 0.0304356 0.99779
vn 0.0534838 0.0401157 0.997763
vn 0.043053 0.0470324 0.997965
vn 0.0926982 -0.0036674 0.995687
f 100/100/100 4/4/4 13/13/13
f 44/44/44 3/3/3 21/21/21
f 44/44/44 19/19/19 20/20/20
f 60/60/60 19/19/19 52/52/52
f 60/60/60 17/17/17 18/18/18
f 76/76/76 17/17/17 68/68/68
f 84/84/84 16/16/16 76/76/76
f 84/84/84 14/14/14 15/15/15
f 100/100/100 14/14/14 92/92/92
f 11/11/11 93/93/93 85/85/85
f 93/93/93 86/86/86 85/85/85
f 94/94/94 87/87/87 86/86/86
f 87/87/87 96/96/96 88/88/88
f 96/96/96 89/89/89 88/88/88
f 97/97/97 90/90/90 89/89/89
f 90/90/90 99/99/99 91/91/91
f 91/91/91 100/100/100 92/92/92
f 10/10/10 85/85/85 77/77/77
f 77/77/77 86/86/86 78/78/78
f 78/78/78 87/87/87 79/79/79
f 79/79/79 88/88/88 80/80/80
f 88/88/88 81/81/81 80/80/80
f 81/81/81 90/90/90 82/82/82
f 82/82/82 91/91/91 83/83/83
f 91/91/91 84/84/84 83/83/83
f 10/10/10 69/69/69 9/9/9
f 69/69/69 78/78/78 70/70/70
f 70/70/70 79/79/79 71/71/71
f 79/79/79 72/72/72 71/71/71
f 72/72/72 81/81/81 73/73/73
f 73/73/73 82/82/82 74/74/74
f 82/82/82 75/75/75 74/74/74
f 83/83/83 76/76/76 75/75/75
f 9/9/9 61/61/61 8/8/8
f 69/69/69 62/62/62 61/61/61
f 62/62/62 71/71/71 63/63/63
f 63/63/63 72/72/72 64/64/64
f 72/72/72 65/65/65 64/64/64
f 65/65/65 74/74/74 66/66/66
f 66/66/66 75/75/75 67/67/67
f 67/67/67 76/76/76 68/68/68
f 8/8/8 53/53/53 7/7/7
f 53/53/53 62/62/62 54/54/54
f 54/54/54 63/63/63 55/55/55
f 55/55/55 64/64/64 56/56/56
f 64/64/64 57/57/57 56/56/56
f 57/57/57 66/66/66 58/58/58
f 58/58/58 67/67/67 59/59/59
f 59/59/59 68/68/68 60/60/60
f 6/6/6 53/53/53 45/45/45
f 45/45/45 54/54/54 46/46/46
f 54/54/54 47/47/47 46/46/46
f 55/55/55 48/48/48 47/47/47
f 56/56/56 49/49/49 48/48/48
f 49/49/49 58/58/58 50/50/50
f 58/58/58 51/51/51 50/50/50
f 59/59/59 52/52/52 51/51/51
f 6/6/6 37/37/37 5/5/5
f 45/45/45 38/38/38 37/37/37
f 46/46/46 39/39/39 38/38/38
f 39/39/39 48/48/48 40/40/40
f 40/40/40 49/49/49 41/41/41
f 41/41/41 50/50/50 42/42/42
f 50/50/50 43/43/43 42/42/42
f 51/51/51 44/44/44 43/43/43
f 5/5/5 28/28/28 1/1/1
f 28/28/28 38/38/38 27/27/27
f 27/27/27 39/39/39 26/26/26
f 26/26/26 40/40/40 25/25/25
f 40/40/40 24/24/24 25/25/25
f 41/41/41 23/23/23 24/24/24
f 23/23/23 43/43/43 22/22/22
f 43/43/43 21/21/21 22/22/22
f 2/2/2 93/93/93 12/12/12
f 93/93/93 30/30/30 94/94/94
f 30/30/30 95/95/95 94/94/94
f 31/31/31 96/96/96 95/95/95
f 32/32/32 97/97/97 96/96/96
f 33/33/33 98/98/98 97/97/97
f 98/98/98 35/35/35 99/99/99
f 99/99/99 36/36/36 100/100/100
f 100/100/100 36/36/36 4/4/4
f 44/44/44 20/20/20 3/3/3
f 44/44/44 52/52/52 19/19/19
f 60/60/60 18/18/18 19/19/19
f 60/60/60 68/68/68 17/17/17
f 76/76/76 16/16/16 17/17/17
f 84/84/84 15/15/15 16/16/16
f 84/84/84 92/92/92 14/14/14
f 100/100/100 13/13/13 14/14/14
f 11/11/11 12/12/12 93/93/93
f 93/93/93 94/94/94 86/86/86
f 94/94/94 95/95/95 87/87/87
f 87/87/87 95/95/95 96/96/96
f 96/96/96 97/97/97 89/89/89
f 97/97/97 98/98/98 90/90/90
f 90/90/90 98/98/98 99/99/99
f 91/91/91 99/99/99 100/100/100
f 10/10/10 11/11/11 85/85/85
f 77/77/77 85/85/85 86/86/86
f 78/78/78 86/86/86 87/87/87
f 79/79/79 87/87/87 88/88/88
f 88/88/88 89/89/89 81/81/81
f 81/81/81 89/89/89 90/90/90
f 82/82/82 90/90/90 91/91/91
f 91/91/91 92/92/92 84/84/84
f 10/10/10 77/77/77 69/69/69
f 69/69/69 77/77/77 78/78/78
f 70/70/70 78/78/78 79/79/79
f 79/79/79 80/80/80 72/72/72
f 72/72/72 80/80/80 81/81/81
f 73/73/73 81/81/81 82/82/82
f 82/82/82 83/83/83 75/75/75
f 83/83/83 84/84/84 76/76/76
f 9/9/9 69/69/69 61/61/61
f 69/69/69 70/70/70 62/62/62
f 62/62/62 70/70/70 71/71/71
f 63/63/63 71/71/71 72/72/72
f 72/72/72 73/73/73 65/65/65
f 65/65/65 73/73/73 74/74/74
f 66/66/66 74/74/74 75/75/75
f 67/67/67 75/75/75 76/76/76
f 8/8/8 61/61/61 53/53/53
f 53/53/53 61/61/61 62/62/62
f 54/54/54 62/62/62 63/63/63
f 55/55/55 63/63/63 64/64/64
f 64/64/64 65/65/65 57/57/57
f 57/57/57 65/65/65 66/66/66
f 58/58/58 66/66/66 67/67/67
f 59/59/59 67/67/67 68/68/68
f 6/6/6 7/7/7 53/53/53
f 45/45/45 53/53/53 54/54/54
f 54/54/54 55/55/55 47/47/47
f 55/55/55 56/56/56 48/48/48
f 56/56/56 57/57/57 49/49/49
f 49/49/49 57/57/57 58/58/58
f 58/58/58 59/59/59 51/51/51
f 59/59/59 60/60/60 52/52/52
f 6/6/6 45/45/45 37/37/37
f 45/45/45 46/46/46 38/38/38
f 46/46/46 47/47/47 39/39/39
f 39/39/39 47/47/47 48/48/48
f 40/40/40 48/48/48 49/49/49
f 41/41/41 49/49/49 50/50/50
f 50/50/50 51/51/51 43/43/43
f 51/51/51 52/52/52 44/44/44
f 5/5/5 37/37/37 28/28/28
f 28/28/28 37/37/37 38/38/38
f 27/27/27 38/38/38 39/39/39
f 26/26/26 39/39/39 40/40/40
f 40/40/40 41/41/41 24/24/24
f 41/41/41 42/42/42 23/23/23
f 23/23/23 42/42/42 43/43/43
f 43/43/43 44/44/44 21/21/21
f 2/2/2 29/29/29 93/93/93
f 93/93/93 29/29/29 30/30/30
f 30/30/30 31/31/31 95/95/95
f 31/31/31 32/32/32 96/96/96
f 32/32/32 33/33/33 97/97/97
f 33/33/33 34/34/34 98/98/98
f 98/98/98 34/34/34 35/35/35
f 99/99/99 35/35/35 36/36/36
