o GNATVCloth
v -5.03589 -4.98535 0.595629
v 5.06306 -4.99836 0.393007
v -5.01298 5.02105 0.004229
v 4.98702 5.02105 0.004229
v -3.92564 -5.02039 0.525355
v -2.80665 -5.06383 0.483326
v -1.68355 -5.09437 0.481673
v -0.556733 -5.11409 0.477751
v 0.572496 -5.11376 0.514101
v 1.69985 -5.09631 0.499671
v 2.82351 -5.06511 0.449526
v 3.94536 -5.03132 0.44664
v 3.8679 4.90153 0.195009
v 2.75554 4.81975 0.373382
v 1.63293 4.75838 0.315634
v 0.511667 4.71552 0.293328
v -0.594288 4.69691 0.469213
v -1.69501 4.7026 0.631514
v -2.81051 4.76785 0.510317
v -3.90112 4.87907 0.234978
v -4.97812 3.90702 0.0756472
v -4.97934 2.79235 0.139682
v -4.98858 1.67855 0.204977
v -4.99547 0.564418 0.256211
v -5.00098 -0.548917 0.307474
v -5.00764 -1.66083 0.352609
v -5.01338 -2.775 0.386807
v -5.01814 -3.88204 0.486678
v 5.03708 -3.88777 0.311991
v 5.02317 -2.77859 0.248262
v 5.01378 -1.66591 0.241834
v 5.00527 -0.552995 0.224547
v 4.99848 0.560502 0.198651
v 4.9905 1.67538 0.164768
v 4.98334 2.7911 0.132197
v 4.97227 3.90585 0.0671527
v -3.849 -3.88563 0.365033
v -3.81268 -3.2424 0.280373
v -3.66621 -1.95472 0.245926
v -4.11903 -0.293539 0.236755
v -4.14075 0.723492 0.184656
v -4.13151 1.50848 0.124083
v -4.06078 2.79763 0.0335813
v -3.9206 3.87136 -0.138086
v -2.71774 -4.05388 0.313655
v -2.79613 -2.78393 0.345485
v -2.67408 -2.19527 0.292919
v -2.75053 -0.650153 0.28337
v -2.78445 0.477582 0.174251
v -2.71513 1.51592 0.0326717
v -2.8405 2.84361 -0.186816
v -2.74643 3.50797 0.0287576
v -1.65276 -4.2889 0.330701
v -1.49502 -2.97704 0.397929
v -1.88846 -1.6811 0.379109
v -1.87258 -0.885873 0.313759
v -1.52269 0.582532 0.0376475
v -1.98383 1.64002 -0.0610236
v -1.70455 2.67443 -0.0108119
v -1.58782 3.57604 0.409975
v -0.226877 -4.37512 0.396578
v -0.583108 -2.94334 0.479044
v -0.541825 -1.8014 0.408335
v -0.834678 -0.825061 0.294248
v -0.599283 0.369424 0.103872
v -0.363431 1.39744 0.0581171
v -0.561889 2.56613 0.174928
v -0.761321 3.3878 0.419622
v 0.745534 -3.95057 0.395583
v 0.820295 -2.65757 0.460205
v 0.532815 -1.86935 0.442005
v 0.616061 -0.571866 0.123722
v 0.594145 0.335411 0.120749
v 0.309481 1.44567 0.0548748
v 0.534454 2.40841 0.141012
v 0.544684 3.62672 0.412422
v 1.96344 -3.69916 0.341982
v 1.6839 -2.89491 0.391029
v 1.83629 -1.96412 0.434182
v 1.99332 -0.453451 0.16624
v 1.98369 0.209272 -0.0144893
v 1.83897 1.4736 0.0322688
v 1.41954 2.74062 0.112588
v 1.48184 3.5449 0.300765
v 2.80869 -3.95948 0.352145
v 3.1155 -2.87218 0.326471
v 2.96348 -1.99448 0.292243
v 2.72447 -0.535349 0.304258
v 2.9669 0.258027 0.204154
v 3.08826 1.52553 -0.0887254
v 2.77037 3.08918 -0.0803209
v 2.73847 3.4438 0.0289623
v 3.93866 -3.99271 0.307194
v 3.67883 -2.74058 0.301509
v 3.88793 -1.69889 0.289793
v 3.8216 -0.743725 0.308381
v 3.88056 0.266741 0.280336
v 4.17108 1.78613 0.143651
v 4.14995 2.7376 -0.0325483
v 4.02858 3.86141 -0.0993586
vt 0.0001 0.0001
vt 0.9999 0.0001
vt 0.0001 0.9999
vt 0.9999 0.9999
vt 0.111189 0.0001
vt 0.222278 0.0001
vt 0.333367 0.0001
vt 0.444455 0.0001
vt 0.555544 0.0001
vt 0.666633 0.0001
vt 0.777722 0.0001
vt 0.888811 0.0001
vt 0.888811 0.9999
vt 0.777722 0.9999
vt 0.666633 0.9999
vt 0.555544 0.9999
vt 0.444455 0.9999
vt 0.333367 0.9999
vt 0.222278 0.9999
vt 0.111189 0.9999
vt 0.0001 0.888811
vt 0.0001 0.777722
vt 0.0001 0.666633
vt 0.0001 0.555544
vt 0.0001 0.444456
vt 0.0001 0.333367
vt 0.0001 0.222278
vt 0.0001 0.111189
vt 0.9999 0.111189
vt 0.9999 0.222278
vt 0.9999 0.333367
vt 0.9999 0.444456
vt 0.9999 0.555544
vt 0.9999 0.666633
vt 0.9999 0.777722
vt 0.9999 0.888811
vt 0.11727 0.115399
vt 0.120778 0.180369
vt 0.134636 0.309595
vt 0.088728 0.473895
vt 0.085886 0.575352
vt 0.086211 0.65375
vt 0.092207 0.78313
vt 0.106956 0.892282
vt 0.22987 0.102869
vt 0.221803 0.229552
vt 0.233521 0.288953
vt 0.225541 0.443179
vt 0.221596 0.556167
vt 0.227801 0.661237
vt 0.214896 0.795203
vt 0.22542 0.865181
vt 0.335524 0.082127
vt 0.351143 0.213907
vt 0.311934 0.342467
vt 0.313159 0.422214
vt 0.347791 0.572605
vt 0.301482 0.677733
vt 0.329031 0.783086
vt 0.344903 0.885466
vt 0.476837 0.074882
vt 0.441952 0.218774
vt 0.445749 0.333088
vt 0.416414 0.43099
vt 0.439746 0.552976
vt 0.463203 0.656843
vt 0.444252 0.77653
vt 0.426137 0.866051
vt 0.573419 0.117409
vt 0.581125 0.246686
vt 0.552512 0.326
vt 0.561075 0.459693
vt 0.558356 0.550596
vt 0.530299 0.662189
vt 0.553275 0.760113
vt 0.555478 0.888821
vt 0.694433 0.13996
vt 0.667048 0.221666
vt 0.681985 0.314267
vt 0.698218 0.467249
vt 0.696819 0.535952
vt 0.68253 0.662758
vt 0.642062 0.791726
vt 0.648523 0.877957
vt 0.778029 0.111667
vt 0.809426 0.219523
vt 0.794923 0.307783
vt 0.772028 0.454562
vt 0.796846 0.533374
vt 0.807262 0.663157
vt 0.778581 0.821037
vt 0.775122 0.858219
vt 0.890224 0.104741
vt 0.865679 0.23076
vt 0.887326 0.334104
vt 0.881307 0.429754
vt 0.887973 0.53063
vt 0.918106 0.681428
vt 0.915043 0.778027
vt 0.904815 0.89094
vn 0.0659193 0.0970066 0.993098
vn 0.0161652 0.102939 0.994556
vn -0.016946 -0.138673 0.990193
vn 0.00612756 -0.093995 0.995554
vn 0.0704958 0.122154 0.990004
vn 0.0344546 0.161132 0.986331
vn 0.00654514 0.183979 0.982908
vn -0.0211822 0.144463 0.989283
vn -0.0223173 0.110366 0.99364
vn 0.023985 0.101063 0.994591
vn 0.0275749 0.103211 0.994277
vn 0.0210683 0.133172 0.990869
vn 0.179518 -0.242122 0.953494
vn 0.121167 -0.184802 0.975278
vn -0.035287 -0.00785184 0.999346
vn 0.0877009 0.0716264 0.993568
vn 0.073082 -0.0354583 0.996695
vn 0.0126978 -0.191777 0.981356
vn -0.224032 -0.312829 0.92301
vn -0.24743 -0.332179 0.910184
vn 0.171808 0.0850616 0.981451
vn 0.114234 0.0570247 0.991816
vn 0.101016 0.0604058 0.993049
vn 0.0717584 0.0478331 0.996274
vn 0.067532 0.0428096 0.996798
vn 0.0798873 0.0329976 0.996258
vn 0.10085 0.0449173 0.993887
vn 0.0985629 0.110558 0.98897
vn -0.0105544 0.064864 0.997838
vn 0.0280528 0.0198757 0.999409
vn 0.05117 0.00189785 0.998688
vn 0.0671903 0.0211359 0.997516
vn 0.0323087 0.0445364 0.998485
vn -0.0217499 0.0296246 0.999324
vn -0.140984 0.0865547 0.986221
vn -0.182876 0.0508266 0.981821
vn 0.0761814 0.135942 0.987783
vn 0.0422448 0.0607644 0.997258
vn 0.0114571 0.0292705 0.999506
vn 0.0382216 0.0444196 0.998282
vn 0.0616474 0.0723391 0.995473
vn 0.085657 0.0703848 0.993835
vn 0.134429 0.0978089 0.986084
vn -0.0569536 -0.144486 0.987866
vn 0.0051029 0.058004 0.998303
vn -0.0452803 0.0336577 0.998407
vn -0.0611792 0.03551 0.997495
vn -0.0368911 0.0458747 0.998266
vn 0.0464179 0.114532 0.992334
vn 0.0883748 0.125287 0.988177
vn -0.0212032 -0.0133732 0.999686
vn -0.237697 -0.329285 0.913822
vn -0.024243 0.0718175 0.997123
vn -0.0565036 0.00506276 0.99839
vn -0.0399971 0.0450521 0.998184
vn 0.0187178 0.121285 0.992441
vn 0.0069717 0.128091 0.991738
vn -0.0247222 0.0538155 0.998245
vn -0.178996 -0.236902 0.954902
vn -0.109013 -0.265265 0.957993
vn -0.0287218 0.0473391 0.998466
vn -0.0286209 -0.00855387 0.999554
vn -0.0125286 0.105437 0.994347
vn 0.0266922 0.137313 0.990168
vn -0.00407818 0.0774539 0.996988
vn -0.0303759 -0.0226661 0.999282
vn -0.0608299 -0.172813 0.983074
vn -0.0482054 -0.219078 0.974516
vn 0.0217406 0.0167567 0.999623
vn 0.03387 -0.0219333 0.999186
vn -0.000711343 0.11875 0.992924
vn 0.0220976 0.151851 0.988156
vn 0.0358448 0.020294 0.999151
vn 0.00612046 -0.00438062 0.999972
vn 0.0343981 -0.127457 0.991247
vn 0.0804825 -0.109578 0.990715
vn 0.0274316 0.0308018 0.999149
vn 0.0658876 -0.0362422 0.997169
vn 0.0196285 0.07513 0.996981
vn -0.102971 0.222434 0.969495
vn -0.0521325 0.131259 0.989976
vn 0.073352 -0.0184976 0.997135
vn 0.120612 -0.15094 0.981157
vn 0.104054 -0.129212 0.986143
vn 0.0282729 0.0643983 0.997524
vn 0.0334713 0.0161104 0.99931
vn 0.0470053 0.00302744 0.99889
vn -0.0668744 0.127886 0.989532
vn -0.11921 0.163647 0.97929
vn -0.0920151 0.10889 0.989786
vn 0.107943 -0.1077 0.988306
vn 0.181176 -0.257791 0.949062
vn 0.0230899 0.0653942 0.997592
vn 0.0307241 0.0170888 0.999382
vn 0.0265567 -0.00289115 0.999643
vn 0.0167083 0.0210919 0.999638
vn -0.0368975 0.0880685 0.995431
vn -0.113979 0.103654 0.988061
vn -0.147257 0.0811739 0.985762
vn 0.0502514 -0.123749 0.99104
f 100/100/100 4/4/4 13/13/13
f 44/44/44 3/3/3 21/21/21
f 44/44/44 19/19/19 20/20/20
f 60/60/60 19/19/19 52/52/52
f 60/60/60 17/17/17 18/18/18
f 76/76/76 17/17/17 68/68/68
f 84/84/84 16/16/16 76/76/76
f 84/84/84 14/14/14 15/15/15
f 100/100/100 14/14/14 92/92/92
f 11/11/11 93/93/93 85/85/85
f 93/93/93 86/86/86 85/85/85
f 94/94/94 87/87/87 86/86/86
f 87/87/87 96/96/96 88/88/88
f 96/96/96 89/89/89 88/88/88
f 97/97/97 90/90/90 89/89/89
f 90/90/90 99/99/99 91/91/91
f 91/91/91 100/100/100 92/92/92
f 10/10/10 85/85/85 77/77/77
f 77/77/77 86/86/86 78/78/78
f 78/78/78 87/87/87 79/79/79
f 79/79/79 88/88/88 80/80/80
f 88/88/88 81/81/81 80/80/80
f 81/81/81 90/90/90 82/82/82
f 82/82/82 91/91/91 83/83/83
f 91/91/91 84/84/84 83/83/83
f 10/10/10 69/69/69 9/9/9
f 69/69/69 78/78/78 70/70/70
f 70/70/70 79/79/79 71/71/71
f 79/79/79 72/72/72 71/71/71
f 72/72/72 81/81/81 73/73/73
f 73/73/73 82/82/82 74/74/74
f 82/82/82 75/75/75 74/74/74
f 83/83/83 76/76/76 75/75/75
f 9/9/9 61/61/61 8/8/8
f 69/69/69 62/62/62 61/61/61
f 62/62/62 71/71/71 63/63/63
f 63/63/63 72/72/72 64/64/64
f 72/72/72 65/65/65 64/64/64
f 65/65/65 74/74/74 66/66/66
f 66/66/66 75/75/75 67/67/67
f 67/67/67 76/76/76 68/68/68
f 8/8/8 53/53/53 7/7/7
f 53/53/53 62/62/62 54/54/54
f 54/54/54 63/63/63 55/55/55
f 55/55/55 64/64/64 56/56/56
f 64/64/64 57/57/57 56/56/56
f 57/57/57 66/66/66 58/58/58
f 58/58/58 67/67/67 59/59/59
f 59/59/59 68/68/68 60/60/60
f 6/6/6 53/53/53 45/45/45
f 45/45/45 54/54/54 46/46/46
f 54/54/54 47/47/47 46/46/46
f 55/55/55 48/48/48 47/47/47
f 56/56/56 49/49/49 48/48/48
f 49/49/49 58/58/58 50/50/50
f 58/58/58 51/51/51 50/50/50
f 59/59/59 52/52/52 51/51/51
f 6/6/6 37/37/37 5/5/5
f 45/45/45 38/38/38 37/37/37
f 46/46/46 39/39/39 38/38/38
f 39/39/39 48/48/48 40/40/40
f 40/40/40 49/49/49 41/41/41
f 41/41/41 50/50/50 42/42/42
f 50/50/50 43/43/43 42/42/42
f 51/51/51 44/44/44 43/43/43
f 5/5/5 28/28/28 1/1/1
f 28/28/28 38/38/38 27/27/27
f 27/27/27 39/39/39 26/26/26
f 26/26/26 40/40/40 25/25/25
f 40/40/40 24/24/24 25/25/25
f 41/41/41 23/23/23 24/24/24
f 23/23/23 43/43/43 22/22/22
f 43/43/43 21/21/21 22/22/22
f 2/2/2 93/93/93 12/12/12
f 93/93/93 30/30/30 94/94/94
f 30/30/30 95/95/95 94/94/94
f 31/31/31 96/96/96 95/95/95
f 32/32/32 97/97/97 96/96/96
f 33/33/33 98/98/98 97/97/97
f 98/98/98 35/35/35 99/99/99
f 99/99/99 36/36/36 100/100/100
f 100/100/100 36/36/36 4/4/4
f 44/44/44 20/20/20 3/3/3
f 44/44/44 52/52/52 19/19/19
f 60/60/60 18/18/18 19/19/19
f 60/60/60 68/68/68 17/17/17
f 76/76/76 16/16/16 17/17/17
f 84/84/84 15/15/15 16/16/16
f 84/84/84 92/92/92 14/14/14
f 100/100/100 13/13/13 14/14/14
f 11/11/11 12/12/12 93/93/93
f 93/93/93 94/94/94 86/86/86
f 94/94/94 95/95/95 87/87/87
f 87/87/87 95/95/95 96/96/96
f 96/96/96 97/97/97 89/89/89
f 97/97/97 98/98/98 90/90/90
f 90/90/90 98/98/98 99/99/99
f 91/91/91 99/99/99 100/100/100
f 10/10/10 11/11/11 85/85/85
f 77/77/77 85/85/85 86/86/86
f 78/78/78 86/86/86 87/87/87
f 79/79/79 87/87/87 88/88/88
f 88/88/88 89/89/89 81/81/81
f 81/81/81 89/89/89 90/90/90
f 82/82/82 90/90/90 91/91/91
f 91/91/91 92/92/92 84/84/84
f 10/10/10 77/77/77 69/69/69
f 69/69/69 77/77/77 78/78/78
f 70/70/70 78/78/78 79/79/79
f 79/79/79 80/80/80 72/72/72
f 72/72/72 80/80/80 81/81/81
f 73/73/73 81/81/81 82/82/82
f 82/82/82 83/83/83 75/75/75
f 83/83/83 84/84/84 76/76/76
f 9/9/9 69/69/69 61/61/61
f 69/69/69 70/70/70 62/62/62
f 62/62/62 70/70/70 71/71/71
f 63/63/63 71/71/71 72/72/72
f 72/72/72 73/73/73 65/65/65
f 65/65/65 73/73/73 74/74/74
f 66/66/66 74/74/74 75/75/75
f 67/67/67 75/75/75 76/76/76
f 8/8/8 61/61/61 53/53/53
f 53/53/53 61/61/61 62/62/62
f 54/54/54 62/62/62 63/63/63
f 55/55/55 63/63/63 64/64/64
f 64/64/64 65/65/65 57/57/57
f 57/57/57 65/65/65 66/66/66
f 58/58/58 66/66/66 67/67/67
f 59/59/59 67/67/67 68/68/68
f 6/6/6 7/7/7 53/53/53
f 45/45/45 53/53/53 54/54/54
f 54/54/54 55/55/55 47/47/47
f 55/55/55 56/56/56 48/48/48
f 56/56/56 57/57/57 49/49/49
f 49/49/49 57/57/57 58/58/58
f 58/58/58 59/59/59 51/51/51
f 59/59/59 60/60/60 52/52/52
f 6/6/6 45/45/45 37/37/37
f 45/45/45 46/46/46 38/38/38
f 46/46/46 47/47/47 39/39/39
f 39/39/39 47/47/47 48/48/48
f 40/40/40 48/48/48 49/49/49
f 41/41/41 49/49/49 50/50/50
f 50/50/50 51/51/51 43/43/43
f 51/51/51 52/52/52 44/44/44
f 5/5/5 37/37/37 28/28/28
f 28/28/28 37/37/37 38/38/38
f 27/27/27 38/38/38 39/39/39
f 26/26/26 39/39/39 40/40/40
f 40/40/40 41/41/41 24/24/24
f 41/41/41 42/42/42 23/23/23
f 23/23/23 42/42/42 43/43/43
f 43/43/43 44/44/44 21/21/21
f 2/2/2 29/29/29 93/93/93
f 93/93/93 29/29/29 30/30/30
f 30/30/30 31/31/31 95/95/95
f 31/31/31 32/32/32 96/96/96
f 32/32/32 33/33/33 97/97/97
f 33/33/33 34/34/34 98/98/98
f 98/98/98 34/34/34 35/35/35
f 99/99/99 35/35/35 36/36/36
