o GNATVCloth
v -5.097 -4.98521 0.486354
v 5.03145 -4.99764 0.46479
v -5.01298 5.02105 0.004229
v 4.98702 5.02105 0.004229
v -3.98268 -5.03089 0.476421
v -2.86367 -5.08917 0.413556
v -1.736 -5.12831 0.3648
v -0.604811 -5.15438 0.329062
v 0.530214 -5.15428 0.339501
v 1.66223 -5.13432 0.344162
v 2.79155 -5.09272 0.366503
v 3.91517 -5.04982 0.392321
v 3.8458 4.93916 0.161538
v 2.7179 4.87568 0.320166
v 1.59383 4.80589 0.435147
v 0.472268 4.7436 0.448643
v -0.597941 4.70572 0.35608
v -1.66212 4.75127 0.228777
v -2.77722 4.82007 0.32335
v -3.88965 4.90179 0.165074
v -5.00832 3.90725 0.0881406
v -5.00816 2.79082 0.105079
v -5.01965 1.67532 0.121757
v -5.03205 0.56067 0.154082
v -5.03655 -0.550448 0.23197
v -5.04318 -1.65991 0.316863
v -5.0515 -2.76981 0.423043
v -5.06263 -3.87525 0.546094
v 5.0075 -3.88876 0.425936
v 4.99564 -2.78432 0.279356
v 4.98963 -1.67181 0.251003
v 4.98518 -0.558307 0.216104
v 4.97792 0.556466 0.185416
v 4.96839 1.67236 0.149862
v 4.96215 2.78856 0.10931
v 4.96132 3.9044 0.0498872
v -3.89316 -3.88191 0.440038
v -3.85257 -3.23819 0.348089
v -3.70608 -1.9639 0.154875
v -4.15033 -0.29842 0.127266
v -4.17123 0.718222 0.162876
v -4.15788 1.50302 0.172855
v -4.08551 2.79577 0.186314
v -3.9446 3.85233 -0.0689554
v -2.76942 -4.06944 0.318724
v -2.83461 -2.80227 0.209578
v -2.72098 -2.21556 0.289791
v -2.79315 -0.669709 0.344667
v -2.81973 0.463554 0.335049
v -2.73167 1.50525 0.218097
v -2.87266 2.81776 -0.0694047
v -2.78755 3.48277 0.144182
v -1.70457 -4.31302 0.333947
v -1.5388 -3.00219 0.34276
v -1.93757 -1.71027 0.438368
v -1.91674 -0.913331 0.438374
v -1.56618 0.54269 0.095741
v -2.01714 1.60643 -0.00921331
v -1.76467 2.63178 0.222674
v -1.58959 3.61623 0.262682
v -0.273297 -4.41074 0.356021
v -0.622471 -2.97627 0.360956
v -0.587525 -1.83914 0.379045
v -0.883701 -0.869324 0.29919
v -0.651291 0.342772 0.260376
v -0.417725 1.35947 0.291911
v -0.615927 2.54379 0.397188
v -0.783637 3.41966 0.332054
v 0.705441 -3.9858 0.349824
v 0.780865 -2.69284 0.310794
v 0.489425 -1.90644 0.335655
v 0.573743 -0.572242 0.33339
v 0.544301 0.329469 0.319137
v 0.257204 1.43073 0.335902
v 0.484933 2.41425 0.381527
v 0.497826 3.64814 0.362596
v 1.92885 -3.72911 0.34094
v 1.64857 -2.92277 0.306433
v 1.79579 -1.99325 0.358207
v 1.95643 -0.45932 0.32158
v 1.94052 0.224009 0.289082
v 1.78911 1.48472 0.2723
v 1.37806 2.75412 0.332908
v 1.43313 3.59251 0.30927
v 2.77617 -3.97963 0.36657
v 3.08281 -2.88756 0.372236
v 2.93355 -2.01275 0.313133
v 2.70051 -0.555302 0.343803
v 2.94621 0.24401 0.307329
v 3.03895 1.53813 0.160879
v 2.74469 3.10416 0.198949
v 2.70044 3.46762 0.14412
v 3.90887 -4.00356 0.379934
v 3.64912 -2.75345 0.356681
v 3.86212 -1.7107 0.307249
v 3.79828 -0.75699 0.264514
v 3.8604 0.257211 0.249004
v 4.14933 1.77941 0.163542
v 4.11273 2.73849 0.0476754
v 4.00281 3.86357 0.0372545
vt 0.0001 0.0001
vt 0.9999 0.0001
vt 0.0001 0.9999
vt 0.9999 0.9999
vt 0.111189 0.0001
vt 0.222278 0.0001
vt 0.333367 0.0001
vt 0.444455 0.0001
vt 0.555544 0.0001
vt 0.666633 0.0001
vt 0.777722 0.0001
vt 0.888811 0.0001
vt 0.888811 0.9999
vt 0.777722 0.9999
vt 0.666633 0.9999
vt 0.555544 0.9999
vt 0.444455 0.9999
vt 0.333367 0.9999
vt 0.222278 0.9999
vt 0.111189 0.9999
vt 0.0001 0.888811
vt 0.0001 0.777722
vt 0.0001 0.666633
vt 0.0001 0.555544
vt 0.0001 0.444456
vt 0.0001 0.333367
vt 0.0001 0.222278
vt 0.0001 0.111189
vt 0.9999 0.111189
vt 0.9999 0.222278
vt 0.9999 0.333367
vt 0.9999 0.444456
vt 0.9999 0.555544
vt 0.9999 0.666633
vt 0.9999 0.777722
vt 0.9999 0.888811
vt 0.11727 0.115399
vt 0.120778 0.180369
vt 0.134636 0.309595
vt 0.088728 0.473895
vt 0.085886 0.575352
vt 0.086211 0.65375
vt 0.092207 0.78313
vt 0.106956 0.892282
vt 0.22987 0.102869
vt 0.221803 0.229552
vt 0.233521 0.288953
vt 0.225541 0.443179
vt 0.221596 0.556167
vt 0.227801 0.661237
vt 0.214896 0.795203
vt 0.22542 0.865181
vt 0.335524 0.082127
vt 0.351143 0.213907
vt 0.311934 0.342467
vt 0.313159 0.422214
vt 0.347791 0.572605
vt 0.301482 0.677733
vt 0.329031 0.783086
vt 0.344903 0.885466
vt 0.476837 0.074882
vt 0.441952 0.218774
vt 0.445749 0.333088
vt 0.416414 0.43099
vt 0.439746 0.552976
vt 0.463203 0.656843
vt 0.444252 0.77653
vt 0.426137 0.866051
vt 0.573419 0.117409
vt 0.581125 0.246686
vt 0.552512 0.326
vt 0.561075 0.459693
vt 0.558356 0.550596
vt 0.530299 0.662189
vt 0.553275 0.760113
vt 0.555478 0.888821
vt 0.694433 0.13996
vt 0.667048 0.221666
vt 0.681985 0.314267
vt 0.698218 0.467249
vt 0.696819 0.535952
vt 0.68253 0.662758
vt 0.642062 0.791726
vt 0.648523 0.877957
vt 0.778029 0.111667
vt 0.809426 0.219523
vt 0.794923 0.307783
vt 0.772028 0.454562
vt 0.796846 0.533374
vt 0.807262 0.663157
vt 0.778581 0.821037
vt 0.775122 0.858219
vt 0.890224 0.104741
vt 0.865679 0.23076
vt 0.887326 0.334104
vt 0.881307 0.429754
vt 0.887973 0.53063
vt 0.918106 0.681428
vt 0.915043 0.778027
vt 0.904815 0.89094
vn 0.00668946 -0.0539492 0.998521
vn -0.0553408 0.0227141 0.998209
vn -0.00546413 -0.0674709 0.997706
vn 0.0641395 -0.026074 0.9976
vn 0.0515985 -0.000783456 0.998668
vn 0.057324 0.0590869 0.996606
vn 0.0384084 0.0363091 0.998602
vn 0.00195109 -0.00803314 0.999966
vn -0.00076239 -0.0169484 0.999856
vn -0.0111674 -4.35812e-06 0.999938
vn -0.018329 0.00371249 0.999825
vn -0.0443734 0.0115597 0.998948
vn 0.14315 -0.0929569 0.985326
vn 0.121739 -0.114739 0.985908
vn 0.0630952 -0.111245 0.991788
vn -0.00436517 -0.0876388 0.996143
vn -0.0773894 -0.0198992 0.996802
vn -0.015682 0.0288535 0.999461
vn -0.0930245 -0.109101 0.989668
vn -0.15644 -0.207163 0.965717
vn 0.0724492 0.101902 0.992153
vn -0.0877772 0.0154472 0.99602
vn -0.0563808 0.00658033 0.998388
vn 0.0261526 0.0211382 0.999434
vn 0.0967257 0.0722873 0.992683
vn 0.122738 0.0734051 0.989721
vn 0.119916 0.112783 0.986357
vn 0.0731948 0.0538822 0.995861
vn -0.050296 0.0824913 0.995322
vn 0.0275369 0.0557505 0.998065
vn 0.0441743 0.0350309 0.998409
vn 0.0411457 0.0240579 0.998863
vn 0.0380886 0.0358351 0.998632
vn 0.0211609 0.0342175 0.99919
vn -0.0442879 0.0687803 0.996648
vn -0.034625 0.0340553 0.99882
vn 0.0974776 0.0801315 0.992007
vn 0.101289 0.124057 0.987092
vn -0.00167614 0.0360797 0.999348
vn -0.0193569 0.0144771 0.999708
vn -0.058318 0.00875965 0.99826
vn -0.0463714 -0.00986203 0.998876
vn 0.0406743 0.0960277 0.994547
vn -0.0424634 -0.0467015 0.998006
vn 0.0412626 0.0789256 0.996026
vn -0.0402318 0.0197104 0.998996
vn -0.140501 -0.0817498 0.9867
vn -0.13981 -0.016466 0.990041
vn 0.0204911 0.0772452 0.996802
vn 0.0994908 0.109359 0.989011
vn -0.0279813 -0.000698752 0.999608
vn -0.189669 -0.162972 0.968228
vn 0.00217631 0.0171284 0.999851
vn -0.048987 -0.0324784 0.998271
vn -0.0264502 -0.0195563 0.999459
vn 0.0443051 0.0790554 0.995885
vn -0.00858796 0.109761 0.993921
vn -0.0132647 0.00864018 0.999875
vn -0.177779 -0.0989855 0.979079
vn -0.0650593 -0.0213961 0.997652
vn -0.00490422 -0.0160278 0.99986
vn 0.0086216 -0.00490506 0.999951
vn 0.0188933 0.0122263 0.999747
vn 0.0128985 0.078105 0.996862
vn -0.0887383 0.0133977 0.995965
vn -0.113779 -0.0379883 0.992779
vn -0.0882524 -0.0436692 0.99514
vn -0.0765743 0.0133988 0.996974
vn 0.00889346 0.0115125 0.999894
vn 0.0105678 -0.0104703 0.999889
vn 0.0163362 -0.0142416 0.999765
vn -0.00759095 0.0265123 0.99962
vn -0.0022371 0.00287063 0.999993
vn -0.0178838 -0.0274698 0.999463
vn 0.0191633 -0.0288768 0.999399
vn 0.00506748 -0.00730415 0.99996
vn -0.0196714 0.0160827 0.999677
vn -0.00890124 0.00696727 0.999936
vn 0.00168447 -0.0167108 0.999859
vn -0.00972461 0.036095 0.999301
vn 0.0106846 0.0452287 0.99892
vn 0.0643853 -0.00997287 0.997875
vn 0.0729846 0.00394103 0.997325
vn 0.08449 -0.0305867 0.995955
vn -0.0201463 0.00164635 0.999796
vn -0.0169917 0.0299389 0.999407
vn 0.013459 0.0194614 0.99972
vn 0.0194123 0.0204642 0.999602
vn 0.0324365 0.061442 0.997583
vn 0.0406677 0.0590409 0.997427
vn 0.0980721 0.0479275 0.994025
vn 0.104324 0.0173329 0.994392
vn -0.0166339 0.0299941 0.999412
vn 0.0278847 0.0415798 0.998746
vn 0.0274875 0.0405437 0.9988
vn 0.0463025 0.0229031 0.998665
vn 0.0403734 0.0444653 0.998195
vn -0.00597117 0.0685116 0.997632
vn 0.00475587 0.0524155 0.998614
vn 0.0756679 -0.0126189 0.997053
f 100/100/100 4/4/4 13/13/13
f 44/44/44 3/3/3 21/21/21
f 44/44/44 19/19/19 20/20/20
f 60/60/60 19/19/19 52/52/52
f 60/60/60 17/17/17 18/18/18
f 76/76/76 17/17/17 68/68/68
f 84/84/84 16/16/16 76/76/76
f 84/84/84 14/14/14 15/15/15
f 100/100/100 14/14/14 92/92/92
f 11/11/11 93/93/93 85/85/85
f 93/93/93 86/86/86 85/85/85
f 94/94/94 87/87/87 86/86/86
f 87/87/87 96/96/96 88/88/88
f 96/96/96 89/89/89 88/88/88
f 97/97/97 90/90/90 89/89/89
f 90/90/90 99/99/99 91/91/91
f 91/91/91 100/100/100 92/92/92
f 10/10/10 85/85/85 77/77/77
f 77/77/77 86/86/86 78/78/78
f 78/78/78 87/87/87 79/79/79
f 79/79/79 88/88/88 80/80/80
f 88/88/88 81/81/81 80/80/80
f 81/81/81 90/90/90 82/82/82
f 82/82/82 91/91/91 83/83/83
f 91/91/91 84/84/84 83/83/83
f 10/10/10 69/69/69 9/9/9
f 69/69/69 78/78/78 70/70/70
f 70/70/70 79/79/79 71/71/71
f 79/79/79 72/72/72 71/71/71
f 72/72/72 81/81/81 73/73/73
f 73/73/73 82/82/82 74/74/74
f 82/82/82 75/75/75 74/74/74
f 83/83/83 76/76/76 75/75/75
f 9/9/9 61/61/61 8/8/8
f 69/69/69 62/62/62 61/61/61
f 62/62/62 71/71/71 63/63/63
f 63/63/63 72/72/72 64/64/64
f 72/72/72 65/65/65 64/64/64
f 65/65/65 74/74/74 66/66/66
f 66/66/66 75/75/75 67/67/67
f 67/67/67 76/76/76 68/68/68
f 8/8/8 53/53/53 7/7/7
f 53/53/53 62/62/62 54/54/54
f 54/54/54 63/63/63 55/55/55
f 55/55/55 64/64/64 56/56/56
f 64/64/64 57/57/57 56/56/56
f 57/57/57 66/66/66 58/58/58
f 58/58/58 67/67/67 59/59/59
f 59/59/59 68/68/68 60/60/60
f 6/6/6 53/53/53 45/45/45
f 45/45/45 54/54/54 46/46/46
f 54/54/54 47/47/47 46/46/46
f 55/55/55 48/48/48 47/47/47
f 56/56/56 49/49/49 48/48/48
f 49/49/49 58/58/58 50/50/50
f 58/58/58 51/51/51 50/50/50
f 59/59/59 52/52/52 51/51/51
f 6/6/6 37/37/37 5/5/5
f 45/45/45 38/38/38 37/37/37
f 46/46/46 39/39/39 38/38/38
f 39/39/39 48/48/48 40/40/40
f 40/40/40 49/49/49 41/41/41
f 41/41/41 50/50/50 42/42/42
f 50/50/50 43/43/43 42/42/42
f 51/51/51 44/44/44 43/43/43
f 5/5/5 28/28/28 1/1/1
f 28/28/28 38/38/38 27/27/27
f 27/27/27 39/39/39 26/26/26
f 26/26/26 40/40/40 25/25/25
f 40/40/40 24/24/24 25/25/25
f 41/41/41 23/23/23 24/24/24
f 23/23/23 43/43/43 22/22/22
f 43/43/43 21/21/21 22/22/22
f 2/2/2 93/93/93 12/12/12
f 93/93/93 30/30/30 94/94/94
f 30/30/30 95/95/95 94/94/94
f 31/31/31 96/96/96 95/95/95
f 32/32/32 97/97/97 96/96/96
f 33/33/33 98/98/98 97/97/97
f 98/98/98 35/35/35 99/99/99
f 99/99/99 36/36/36 100/100/100
f 100/100/100 36/36/36 4/4/4
f 44/44/44 20/20/20 3/3/3
f 44/44/44 52/52/52 19/19/19
f 60/60/60 18/18/18 19/19/19
f 60/60/60 68/68/68 17/17/17
f 76/76/76 16/16/16 17/17/17
f 84/84/84 15/15/15 16/16/16
f 84/84/84 92/92/92 14/14/14
f 100/100/100 13/13/13 14/14/14
f 11/11/11 12/12/12 93/93/93
f 93/93/93 94/94/94 86/86/86
f 94/94/94 95/95/95 87/87/87
f 87/87/87 95/95/95 96/96/96
f 96/96/96 97/97/97 89/89/89
f 97/97/97 98/98/98 90/90/90
f 90/90/90 98/98/98 99/99/99
f 91/91/91 99/99/99 100/100/100
f 10/10/10 11/11/11 85/85/85
f 77/77/77 85/85/85 86/86/86
f 78/78/78 86/86/86 87/87/87
f 79/79/79 87/87/87 88/88/88
f 88/88/88 89/89/89 81/81/81
f 81/81/81 89/89/89 90/90/90
f 82/82/82 90/90/90 91/91/91
f 91/91/91 92/92/92 84/84/84
f 10/10/10 77/77/77 69/69/69
f 69/69/69 77/77/77 78/78/78
f 70/70/70 78/78/78 79/79/79
f 79/79/79 80/80/80 72/72/72
f 72/72/72 80/80/80 81/81/81
f 73/73/73 81/81/81 82/82/82
f 82/82/82 83/83/83 75/75/75
f 83/83/83 84/84/84 76/76/76
f 9/9/9 69/69/69 61/61/61
f 69/69/69 70/70/70 62/62/62
f 62/62/62 70/70/70 71/71/71
f 63/63/63 71/71/71 72/72/72
f 72/72/72 73/73/73 65/65/65
f 65/65/65 73/73/73 74/74/74
f 66/66/66 74/74/74 75/75/75
f 67/67/67 75/75/75 76/76/76
f 8/8/8 61/61/61 53/53/53
f 53/53/53 61/61/61 62/62/62
f 54/54/54 62/62/62 63/63/63
f 55/55/55 63/63/63 64/64/64
f 64/64/64 65/65/65 57/57/57
f 57/57/57 65/65/65 66/66/66
f 58/58/58 66/66/66 67/67/67
f 59/59/59 67/67/67 68/68/68
f 6/6/6 7/7/7 53/53/53
f 45/45/45 53/53/53 54/54/54
f 54/54/54 55/55/55 47/47/47
f 55/55/55 56/56/56 48/48/48
f 56/56/56 57/57/57 49/49/49
f 49/49/49 57/57/57 58/58/58
f 58/58/58 59/59/59 51/51/51
f 59/59/59 60/60/60 52/52/52
f 6/6/6 45/45/45 37/37/37
f 45/45/45 46/46/46 38/38/38
f 46/46/46 47/47/47 39/39/39
f 39/39/39 47/47/47 48/48/48
f 40/40/40 48/48/48 49/49/49
f 41/41/41 49/49/49 50/50/50
f 50/50/50 51/51/51 43/43/43
f 51/51/51 52/52/52 44/44/44
f 5/5/5 37/37/37 28/28/28
f 28/28/28 37/37/37 38/38/38
f 27/27/27 38/38/38 39/39/39
f 26/26/26 39/39/39 40/40/40
f 40/40/40 41/41/41 24/24/24
f 41/41/41 42/42/42 23/23/23
f 23/23/23 42/42/42 43/43/43
f 43/43/43 44/44/44 21/21/21
f 2/2/2 29/29/29 93/93/93
f 93/93/93 29/29/29 30/30/30
f 30/30/30 31/31/31 95/95/95
f 31/31/31 32/32/32 96/96/96
f 32/32/32 33/33/33 97/97/97
f 33/33/33 34/34/34 98/98/98
f 98/98/98 34/34/34 35/35/35
f 99/99/99 35/35/35 36/36/36
