o GNATVCloth
v -5.0523 -4.97626 0.561356
v 4.97739 -4.98352 0.415068
v -5.01298 5.02105 0.004229
v 4.98702 5.02105 0.004229
v -3.93835 -5.00893 0.550552
v -2.82705 -5.0371 0.476389
v -1.71001 -5.03889 0.48128
v -0.592064 -5.04569 0.490875
v 0.527547 -5.05145 0.447393
v 1.64753 -5.04801 0.464444
v 2.7608 -5.02718 0.458652
v 3.87227 -4.99153 0.502181
v 3.86016 4.94693 0.127088
v 2.74815 4.88709 0.275745
v 1.63185 4.85795 0.35592
v 0.518188 4.81993 0.384956
v -0.599273 4.81468 0.450477
v -1.71916 4.80372 0.451577
v -2.83502 4.81099 0.568751
v -3.93136 4.89064 0.325019
v -5.00174 3.90713 0.0707798
v -5.00423 2.79359 0.138543
v -5.01054 1.68041 0.204021
v -5.02053 0.566269 0.241784
v -5.02523 -0.545832 0.306791
v -5.02862 -1.6571 0.37221
v -5.03259 -2.76652 0.440504
v -5.03422 -3.87667 0.532844
v 4.96702 -3.88392 0.293107
v 4.96255 -2.77039 0.317948
v 4.9599 -1.6598 0.273081
v 4.95805 -0.547554 0.226051
v 4.95921 0.566212 0.207813
v 4.96034 1.67984 0.180175
v 4.96384 2.79421 0.145702
v 4.96682 3.90713 0.0711199
v -3.87901 -3.87665 0.3271
v -3.83979 -3.22715 0.279097
v -3.68988 -1.93972 0.239209
v -4.1422 -0.282173 0.199242
v -4.16277 0.73321 0.214388
v -4.15156 1.51642 0.152657
v -4.08455 2.80598 0.0591346
v -3.93273 3.88682 -0.0589322
v -2.74964 -4.03015 0.278632
v -2.82301 -2.75941 0.307609
v -2.70067 -2.17046 0.286945
v -2.77741 -0.629217 0.315669
v -2.80666 0.499884 0.236296
v -2.73235 1.53842 0.0840888
v -2.85442 2.87451 -0.0737341
v -2.75621 3.54896 0.101157
v -1.6886 -4.24812 0.333209
v -1.52888 -2.94034 0.395391
v -1.92009 -1.65307 0.410263
v -1.90143 -0.856139 0.367261
v -1.54516 0.615159 0.124517
v -1.99888 1.66294 -0.0511768
v -1.72487 2.69908 0.109069
v -1.59013 3.66151 0.44475
v -0.26716 -4.3248 0.385451
v -0.616667 -2.89671 0.434651
v -0.576081 -1.75883 0.48984
v -0.864167 -0.79224 0.332549
v -0.622708 0.413912 0.16863
v -0.38256 1.43313 0.166065
v -0.574254 2.60753 0.195882
v -0.767551 3.47605 0.40279
v 0.702095 -3.90234 0.406919
v 0.781965 -2.61225 0.52107
v 0.497922 -1.82678 0.471051
v 0.589016 -0.500628 0.317206
v 0.568278 0.394988 0.263495
v 0.286939 1.48925 0.264968
v 0.519216 2.44445 0.250987
v 0.533857 3.72353 0.411328
v 1.91107 -3.64308 0.437123
v 1.62731 -2.83869 0.326851
v 1.7978 -1.92253 0.461823
v 1.95797 -0.411889 0.209901
v 1.94343 0.253139 0.0353036
v 1.81912 1.51048 0.164606
v 1.40508 2.78587 0.23185
v 1.47366 3.63465 0.383586
v 2.7516 -3.9124 0.414443
v 3.05539 -2.82993 0.321772
v 2.90882 -1.95557 0.239223
v 2.68767 -0.493492 0.342839
v 2.92666 0.297348 0.254218
v 3.05382 1.55998 -0.0563539
v 2.75072 3.12908 -0.00158706
v 2.73203 3.47778 0.13009
v 3.86967 -3.9663 0.297452
v 3.61821 -2.71165 0.331241
v 3.83325 -1.67591 0.288437
v 3.77256 -0.719492 0.283608
v 3.84049 0.292212 0.301976
v 4.14181 1.80406 0.157382
v 4.12876 2.75649 -0.0196771
v 4.01817 3.88022 -0.0629417
vt 0.0001 0.0001
vt 0.9999 0.0001
vt 0.0001 0.9999
vt 0.9999 0.9999
vt 0.111189 0.0001
vt 0.222278 0.0001
vt 0.333367 0.0001
vt 0.444455 0.0001
vt 0.555544 0.0001
vt 0.666633 0.0001
vt 0.777722 0.0001
vt 0.888811 0.0001
vt 0.888811 0.9999
vt 0.777722 0.9999
vt 0.666633 0.9999
vt 0.555544 0.9999
vt 0.444455 0.9999
vt 0.333367 0.9999
vt 0.222278 0.9999
vt 0.111189 0.9999
vt 0.0001 0.888811
vt 0.0001 0.777722
vt 0.0001 0.666633
vt 0.0001 0.555544
vt 0.0001 0.444456
vt 0.0001 0.333367
vt 0.0001 0.222278
vt 0.0001 0.111189
vt 0.9999 0.111189
vt 0.9999 0.222278
vt 0.9999 0.333367
vt 0.9999 0.444456
vt 0.9999 0.555544
vt 0.9999 0.666633
vt 0.9999 0.777722
vt 0.9999 0.888811
vt 0.11727 0.115399
vt 0.120778 0.180369
vt 0.134636 0.309595
vt 0.088728 0.473895
vt 0.085886 0.575352
vt 0.086211 0.65375
vt 0.092207 0.78313
vt 0.106956 0.892282
vt 0.22987 0.102869
vt 0.221803 0.229552
vt 0.233521 0.288953
vt 0.225541 0.443179
vt 0.221596 0.556167
vt 0.227801 0.661237
vt 0.214896 0.795203
vt 0.22542 0.865181
vt 0.335524 0.082127
vt 0.351143 0.213907
vt 0.311934 0.342467
vt 0.313159 0.422214
vt 0.347791 0.572605
vt 0.301482 0.677733
vt 0.329031 0.783086
vt 0.344903 0.885466
vt 0.476837 0.074882
vt 0.441952 0.218774
vt 0.445749 0.333088
vt 0.416414 0.43099
vt 0.439746 0.552976
vt 0.463203 0.656843
vt 0.444252 0.77653
vt 0.426137 0.866051
vt 0.573419 0.117409
vt 0.581125 0.246686
vt 0.552512 0.326
vt 0.561075 0.459693
vt 0.558356 0.550596
vt 0.530299 0.662189
vt 0.553275 0.760113
vt 0.555478 0.888821
vt 0.694433 0.13996
vt 0.667048 0.221666
vt 0.681985 0.314267
vt 0.698218 0.467249
vt 0.696819 0.535952
vt 0.68253 0.662758
vt 0.642062 0.791726
vt 0.648523 0.877957
vt 0.778029 0.111667
vt 0.809426 0.219523
vt 0.794923 0.307783
vt 0.772028 0.454562
vt 0.796846 0.533374
vt 0.807262 0.663157
vt 0.778581 0.821037
vt 0.775122 0.858219
vt 0.890224 0.104741
vt 0.865679 0.23076
vt 0.887326 0.334104
vt 0.881307 0.429754
vt 0.887973 0.53063
vt 0.918106 0.681428
vt 0.915043 0.778027
vt 0.904815 0.89094
vn 0.0104504 0.0257474 0.999614
vn 0.0357228 0.153089 0.987567
vn -0.0960665 -0.146321 0.984561
vn -0.0122404 -0.0484102 0.998753
vn 0.0847807 0.13314 0.987464
vn 0.0307608 0.188766 0.98154
vn -0.00566219 0.184194 0.982874
vn 0.00133805 0.156251 0.987716
vn -0.00543214 0.0687874 0.997617
vn -0.00247845 0.0289766 0.999577
vn 0.0220115 0.0922521 0.995492
vn 0.0155383 0.195839 0.980513
vn 0.128161 -0.155506 0.979486
vn 0.143802 -0.0869156 0.985782
vn 0.0483552 0.0163333 0.998697
vn 0.0385405 0.0228849 0.998995
vn 0.0253619 -0.0143738 0.999575
vn 0.0528263 -1.59986e-06 0.998604
vn -0.148668 -0.267005 0.952159
vn -0.266377 -0.344026 0.900383
vn 0.109389 0.0705617 0.991491
vn 0.0850816 0.0591783 0.994615
vn 0.0643333 0.0593622 0.996161
vn 0.0546522 0.0257063 0.998174
vn 0.103657 0.0578692 0.992928
vn 0.108307 0.0575815 0.992449
vn 0.138556 0.0522375 0.988976
vn 0.131137 0.0882007 0.987433
vn 0.000648147 0.0440558 0.999029
vn 0.00976421 0.00796452 0.999921
vn 0.0229779 0.0295338 0.9993
vn 0.0579782 0.0123135 0.998242
vn 0.0398478 0.0412366 0.998354
vn -0.0235929 0.0279064 0.999332
vn -0.140335 0.0916815 0.98585
vn -0.159638 0.0507775 0.985869
vn 0.107834 0.138731 0.984442
vn 0.0786314 0.0403166 0.996088
vn 0.0201166 0.026938 0.999435
vn 0.0259315 0.030009 0.999213
vn 0.0285976 0.0507103 0.998304
vn 0.0601889 0.0733401 0.995489
vn 0.0875848 0.0810456 0.992855
vn -0.0898232 -0.150331 0.984547
vn -0.00652516 0.0604529 0.99815
vn -0.0464775 0.0152288 0.998803
vn -0.0832957 -0.00103869 0.996524
vn -0.0718325 0.0244254 0.997118
vn 0.0262531 0.105821 0.994039
vn 0.0866617 0.113554 0.989745
vn -0.0337072 -0.0334619 0.998871
vn -0.217496 -0.286715 0.933
vn -0.0272294 0.0851403 0.995997
vn -0.0656259 -0.026897 0.997482
vn -0.0646444 0.0251109 0.997592
vn 0.00847964 0.0960178 0.995344
vn -0.00198311 0.127527 0.991833
vn -0.01891 0.0418016 0.998947
vn -0.136105 -0.221516 0.965612
vn -0.0607277 -0.171439 0.983321
vn -0.0149103 0.049289 0.998673
vn -0.0323605 -0.037933 0.998756
vn -0.021897 0.0483629 0.99859
vn -0.00809992 0.131439 0.991291
vn -0.0646175 0.0606421 0.996066
vn -0.109527 0.0224665 0.99373
vn -0.0677837 -0.135663 0.988433
vn -0.0080253 -0.176796 0.984215
vn 0.00160749 0.00032816 0.999999
vn 0.0549338 -0.0511303 0.99718
vn -0.000585553 0.0571464 0.998366
vn 0.0275778 0.132177 0.990842
vn 0.0465889 0.00572212 0.998898
vn -0.0499461 0.0162534 0.99862
vn -0.017046 -0.045819 0.998804
vn 0.0201253 -0.0912268 0.995627
vn 0.000649634 0.073144 0.997321
vn 0.087465 -0.0172164 0.996019
vn 0.0721677 0.0182 0.997226
vn -0.0446729 0.211107 0.976442
vn -0.00397904 0.120934 0.992652
vn 0.121335 -0.0275829 0.992228
vn 0.101311 -0.106185 0.989172
vn 0.0987781 -0.109017 0.98912
vn 0.0596505 0.0440289 0.997248
vn 0.0193714 0.0696089 0.997386
vn 0.0387384 -0.00603868 0.999231
vn -0.0366837 0.0994863 0.994362
vn -0.0953672 0.151026 0.983919
vn -0.0524995 0.100949 0.993505
vn 0.141317 -0.123861 0.982185
vn 0.188519 -0.221922 0.956667
vn 0.0305172 0.0653519 0.997396
vn -0.0191227 0.0257197 0.999486
vn -0.0170869 0.0285249 0.999447
vn 0.0165216 0.0055052 0.999848
vn -0.0213457 0.0744054 0.997
vn -0.105974 0.105252 0.988783
vn -0.123603 0.0753682 0.989466
vn 0.0609153 -0.0901029 0.994068
f 100/100/100 4/4/4 13/13/13
f 44/44/44 3/3/3 21/21/21
f 44/44/44 19/19/19 20/20/20
f 60/60/60 19/19/19 52/52/52
f 60/60/60 17/17/17 18/18/18
f 76/76/76 17/17/17 68/68/68
f 84/84/84 16/16/16 76/76/76
f 84/84/84 14/14/14 15/15/15
f 100/100/100 14/14/14 92/92/92
f 11/11/11 93/93/93 85/85/85
f 93/93/93 86/86/86 85/85/85
f 94/94/94 87/87/87 86/86/86
f 87/87/87 96/96/96 88/88/88
f 96/96/96 89/89/89 88/88/88
f 97/97/97 90/90/90 89/89/89
f 90/90/90 99/99/99 91/91/91
f 91/91/91 100/100/100 92/92/92
f 10/10/10 85/85/85 77/77/77
f 77/77/77 86/86/86 78/78/78
f 78/78/78 87/87/87 79/79/79
f 79/79/79 88/88/88 80/80/80
f 88/88/88 81/81/81 80/80/80
f 81/81/81 90/90/90 82/82/82
f 82/82/82 91/91/91 83/83/83
f 91/91/91 84/84/84 83/83/83
f 10/10/10 69/69/69 9/9/9
f 69/69/69 78/78/78 70/70/70
f 70/70/70 79/79/79 71/71/71
f 79/79/79 72/72/72 71/71/71
f 72/72/72 81/81/81 73/73/73
f 73/73/73 82/82/82 74/74/74
f 82/82/82 75/75/75 74/74/74
f 83/83/83 76/76/76 75/75/75
f 9/9/9 61/61/61 8/8/8
f 69/69/69 62/62/62 61/61/61
f 62/62/62 71/71/71 63/63/63
f 63/63/63 72/72/72 64/64/64
f 72/72/72 65/65/65 64/64/64
f 65/65/65 74/74/74 66/66/66
f 66/66/66 75/75/75 67/67/67
f 67/67/67 76/76/76 68/68/68
f 8/8/8 53/53/53 7/7/7
f 53/53/53 62/62/62 54/54/54
f 54/54/54 63/63/63 55/55/55
f 55/55/55 64/64/64 56/56/56
f 64/64/64 57/57/57 56/56/56
f 57/57/57 66/66/66 58/58/58
f 58/58/58 67/67/67 59/59/59
f 59/59/59 68/68/68 60/60/60
f 6/6/6 53/53/53 45/45/45
f 45/45/45 54/54/54 46/46/46
f 54/54/54 47/47/47 46/46/46
f 55/55/55 48/48/48 47/47/47
f 56/56/56 49/49/49 48/48/48
f 49/49/49 58/58/58 50/50/50
f 58/58/58 51/51/51 50/50/50
f 59/59/59 52/52/52 51/51/51
f 6/6/6 37/37/37 5/5/5
f 45/45/45 38/38/38 37/37/37
f 46/46/46 39/39/39 38/38/38
f 39/39/39 48/48/48 40/40/40
f 40/40/40 49/49/49 41/41/41
f 41/41/41 50/50/50 42/42/42
f 50/50/50 43/43/43 42/42/42
f 51/51/51 44/44/44 43/43/43
f 5/5/5 28/28/28 1/1/1
f 28/28/28 38/38/38 27/27/27
f 27/27/27 39/39/39 26/26/26
f 26/26/26 40/40/40 25/25/25
f 40/40/40 24/24/24 25/25/25
f 41/41/41 23/23/23 24/24/24
f 23/23/23 43/43/43 22/22/22
f 43/43/43 21/21/21 22/22/22
f 2/2/2 93/93/93 12/12/12
f 93/93/93 30/30/30 94/94/94
f 30/30/30 95/95/95 94/94/94
f 31/31/31 96/96/96 95/95/95
f 32/32/32 97/97/97 96/96/96
f 33/33/33 98/98/98 97/97/97
f 98/98/98 35/35/35 99/99/99
f 99/99/99 36/36/36 100/100/100
f 100/100/100 36/36/36 4/4/4
f 44/44/44 20/20/20 3/3/3
f 44/44/44 52/52/52 19/19/19
f 60/60/60 18/18/18 19/19/19
f 60/60/60 68/68/68 17/17/17
f 76/76/76 16/16/16 17/17/17
f 84/84/84 15/15/15 16/16/16
f 84/84/84 92/92/92 14/14/14
f 100/100/100 13/13/13 14/14/14
f 11/11/11 12/12/12 93/93/93
f 93/93/93 94/94/94 86/86/86
f 94/94/94 95/95/95 87/87/87
f 87/87/87 95/95/95 96/96/96
f 96/96/96 97/97/97 89/89/89
f 97/97/97 98/98/98 90/90/90
f 90/90/90 98/98/98 99/99/99
f 91/91/91 99/99/99 100/100/100
f 10/10/10 11/11/11 85/85/85
f 77/77/77 85/85/85 86/86/86
f 78/78/78 86/86/86 87/87/87
f 79/79/79 87/87/87 88/88/88
f 88/88/88 89/89/89 81/81/81
f 81/81/81 89/89/89 90/90/90
f 82/82/82 90/90/90 91/91/91
f 91/91/91 92/92/92 84/84/84
f 10/10/10 77/77/77 69/69/69
f 69/69/69 77/77/77 78/78/78
f 70/70/70 78/78/78 79/79/79
f 79/79/79 80/80/80 72/72/72
f 72/72/72 80/80/80 81/81/81
f 73/73/73 81/81/81 82/82/82
f 82/82/82 83/83/83 75/75/75
f 83/83/83 84/84/84 76/76/76
f 9/9/9 69/69/69 61/61/61
f 69/69/69 70/70/70 62/62/62
f 62/62/62 70/70/70 71/71/71
f 63/63/63 71/71/71 72/72/72
f 72/72/72 73/73/73 65/65/65
f 65/65/65 73/73/73 74/74/74
f 66/66/66 74/74/74 75/75/75
f 67/67/67 75/75/75 76/76/76
f 8/8/8 61/61/61 53/53/53
f 53/53/53 61/61/61 62/62/62
f 54/54/54 62/62/62 63/63/63
f 55/55/55 63/63/63 64/64/64
f 64/64/64 65/65/65 57/57/57
f 57/57/57 65/65/65 66/66/66
f 58/58/58 66/66/66 67/67/67
f 59/59/59 67/67/67 68/68/68
f 6/6/6 7/7/7 53/53/53
f 45/45/45 53/53/53 54/54/54
f 54/54/54 55/55/55 47/47/47
f 55/55/55 56/56/56 48/48/48
f 56/56/56 57/57/57 49/49/49
f 49/49/49 57/57/57 58/58/58
f 58/58/58 59/59/59 51/51/51
f 59/59/59 60/60/60 52/52/52
f 6/6/6 45/45/45 37/37/37
f 45/45/45 46/46/46 38/38/38
f 46/46/46 47/47/47 39/39/39
f 39/39/39 47/47/47 48/48/48
f 40/40/40 48/48/48 49/49/49
f 41/41/41 49/49/49 50/50/50
f 50/50/50 51/51/51 43/43/43
f 51/51/51 52/52/52 44/44/44
f 5/5/5 37/37/37 28/28/28
f 28/28/28 37/37/37 38/38/38
f 27/27/27 38/38/38 39/39/39
f 26/26/26 39/39/39 40/40/40
f 40/40/40 41/41/41 24/24/24
f 41/41/41 42/42/42 23/23/23
f 23/23/23 42/42/42 43/43/43
f 43/43/43 44/44/44 21/21/21
f 2/2/2 29/29/29 93/93/93
f 93/93/93 29/29/29 30/30/30
f 30/30/30 31/31/31 95/95/95
f 31/31/31 32/32/32 96/96/96
f 32/32/32 33/33/33 97/97/97
f 33/33/33 34/34/34 98/98/98
f 98/98/98 34/34/34 35/35/35
f 99/99/99 35/35/35 36/36/36
