o GNATVCloth
v -5.02129 -4.97943 0.607505
v 5.06281 -4.98579 0.399788
v -5.01298 5.02105 0.004229
v 4.98702 5.02105 0.004229
v -3.91198 -5.01428 0.499985
v -2.79225 -5.04654 0.484934
v -1.66993 -5.07134 0.453962
v -0.545622 -5.0832 0.455738
v 0.580708 -5.07955 0.486157
v 1.70405 -5.0623 0.461183
v 2.82616 -5.04333 0.440204
v 3.94566 -5.01514 0.381484
v 3.87114 4.89988 0.214527
v 2.76125 4.80058 0.407429
v 1.64107 4.74641 0.318734
v 0.520269 4.70651 0.310334
v -0.580508 4.68053 0.509347
v -1.69513 4.69763 0.598207
v -2.81322 4.75459 0.498701
v -3.9106 4.86088 0.256048
v -4.97157 3.90829 0.083374
v -4.96715 2.79392 0.135194
v -4.96973 1.68008 0.187614
v -4.97689 0.566427 0.234003
v -4.98264 -0.546327 0.270975
v -4.98923 -1.65816 0.312476
v -4.9991 -2.77004 0.377392
v -5.00862 -3.87894 0.463524
v 5.04222 -3.87883 0.330576
v 5.02718 -2.7729 0.214834
v 5.01624 -1.65925 0.203801
v 5.00473 -0.547018 0.200532
v 4.99479 0.565854 0.19641
v 4.98434 1.67938 0.168309
v 4.97774 2.79361 0.132868
v 4.96908 3.9068 0.0642243
v -3.83461 -3.8701 0.403149
v -3.79713 -3.22919 0.305881
v -3.64519 -1.93845 0.262738
v -4.09756 -0.279585 0.229819
v -4.11909 0.736338 0.181198
v -4.11052 1.51872 0.122627
v -4.04786 2.80979 0.0441636
v -3.92464 3.87714 -0.179295
v -2.70668 -4.0343 0.316475
v -2.77862 -2.76415 0.326628
v -2.65538 -2.17428 0.286723
v -2.72875 -0.628775 0.281091
v -2.76133 0.501031 0.188544
v -2.68669 1.5406 0.0449232
v -2.84402 2.85063 -0.24783
v -2.76679 3.48723 0.0377359
v -1.64315 -4.26324 0.356968
v -1.48219 -2.9496 0.405285
v -1.87109 -1.65611 0.375105
v -1.85258 -0.863999 0.296908
v -1.51419 0.595329 -0.036348
v -1.98188 1.64236 -0.210306
v -1.70566 2.6842 -0.0883982
v -1.586 3.58093 0.335065
v -0.21816 -4.34264 0.40214
v -0.569154 -2.91206 0.445996
v -0.527612 -1.77704 0.348635
v -0.818364 -0.805371 0.22669
v -0.59193 0.39652 0.0323244
v -0.36358 1.41647 -0.00936162
v -0.574793 2.57468 0.17149
v -0.762342 3.38737 0.351278
v 0.754065 -3.9148 0.368302
v 0.831224 -2.6288 0.388377
v 0.542292 -1.8453 0.337985
v 0.625727 -0.548387 0.00887464
v 0.597722 0.360359 0.0241203
v 0.308671 1.4689 -0.0226699
v 0.526271 2.43144 0.105663
v 0.548293 3.60656 0.387574
v 1.97087 -3.66988 0.310068
v 1.69612 -2.86272 0.413868
v 1.83945 -1.93748 0.406681
v 1.99435 -0.42156 0.159804
v 1.99005 0.234587 -0.0409601
v 1.83658 1.49863 -0.0392221
v 1.41145 2.76371 0.0393272
v 1.49033 3.52129 0.314292
v 2.81519 -3.93469 0.320715
v 3.12184 -2.84975 0.316516
v 2.97069 -1.97112 0.342031
v 2.72567 -0.508386 0.304085
v 2.97071 0.276078 0.176013
v 3.08684 1.54663 -0.0947372
v 2.76579 3.11293 -0.153818
v 2.7482 3.43302 0.0310861
v 3.94426 -3.97735 0.32901
v 3.6849 -2.72281 0.303245
v 3.8931 -1.6828 0.299534
v 3.82372 -0.727615 0.310571
v 3.87851 0.282676 0.27904
v 4.16457 1.79838 0.14745
v 4.14164 2.74924 -0.0232071
v 4.03017 3.8713 -0.130224
vt 0.0001 0.0001
vt 0.9999 0.0001
vt 0.0001 0.9999
vt 0.9999 0.9999
vt 0.111189 0.0001
vt 0.222278 0.0001
vt 0.333367 0.0001
vt 0.444455 0.0001
vt 0.555544 0.0001
vt 0.666633 0.0001
vt 0.777722 0.0001
vt 0.888811 0.0001
vt 0.888811 0.9999
vt 0.777722 0.9999
vt 0.666633 0.9999
vt 0.555544 0.9999
vt 0.444455 0.9999
vt 0.333367 0.9999
vt 0.222278 0.9999
vt 0.111189 0.9999
vt 0.0001 0.888811
vt 0.0001 0.777722
vt 0.0001 0.666633
vt 0.0001 0.555544
vt 0.0001 0.444456
vt 0.0001 0.333367
vt 0.0001 0.222278
vt 0.0001 0.111189
vt 0.9999 0.111189
vt 0.9999 0.222278
vt 0.9999 0.333367
vt 0.9999 0.444456
vt 0.9999 0.555544
vt 0.9999 0.666633
vt 0.9999 0.777722
vt 0.9999 0.888811
vt 0.11727 0.115399
vt 0.120778 0.180369
vt 0.134636 0.309595
vt 0.088728 0.473895
vt 0.085886 0.575352
vt 0.086211 0.65375
vt 0.092207 0.78313
vt 0.106956 0.892282
vt 0.22987 0.102869
vt 0.221803 0.229552
vt 0.233521 0.288953
vt 0.225541 0.443179
vt 0.221596 0.556167
vt 0.227801 0.661237
vt 0.214896 0.795203
vt 0.22542 0.865181
vt 0.335524 0.082127
vt 0.351143 0.213907
vt 0.311934 0.342467
vt 0.313159 0.422214
vt 0.347791 0.572605
vt 0.301482 0.677733
vt 0.329031 0.783086
vt 0.344903 0.885466
vt 0.476837 0.074882
vt 0.441952 0.218774
vt 0.445749 0.333088
vt 0.416414 0.43099
vt 0.439746 0.552976
vt 0.463203 0.656843
vt 0.444252 0.77653
vt 0.426137 0.866051
vt 0.573419 0.117409
vt 0.581125 0.246686
vt 0.552512 0.326
vt 0.561075 0.459693
vt 0.558356 0.550596
vt 0.530299 0.662189
vt 0.553275 0.760113
vt 0.555478 0.888821
vt 0.694433 0.13996
vt 0.667048 0.221666
vt 0.681985 0.314267
vt 0.698218 0.467249
vt 0.696819 0.535952
vt 0.68253 0.662758
vt 0.642062 0.791726
vt 0.648523 0.877957
vt 0.778029 0.111667
vt 0.809426 0.219523
vt 0.794923 0.307783
vt 0.772028 0.454562
vt 0.796846 0.533374
vt 0.807262 0.663157
vt 0.778581 0.821037
vt 0.775122 0.858219
vt 0.890224 0.104741
vt 0.865679 0.23076
vt 0.887326 0.334104
vt 0.881307 0.429754
vt 0.887973 0.53063
vt 0.918106 0.681428
vt 0.915043 0.778027
vt 0.904815 0.89094
vn 0.0996614 0.127953 0.98676
vn -0.0123493 0.0563712 0.998334
vn -0.00727978 -0.165155 0.986241
vn 0.00137908 -0.117282 0.993098
vn 0.055392 0.0974288 0.9937
vn 0.0354838 0.130422 0.990823
vn 0.0148472 0.118672 0.992822
vn -0.0181316 0.0957784 0.995238
vn -0.00563501 0.0946573 0.995494
vn 0.0210992 0.102936 0.994464
vn 0.021533 0.0883654 0.995855
vn 0.0166886 0.0505144 0.998584
vn 0.198018 -0.283843 0.938202
vn 0.129924 -0.203739 0.970366
vn -0.0433402 0.0017099 0.999059
vn 0.0843513 0.0477068 0.995293
vn 0.0494612 -0.0967868 0.994075
vn -0.0120429 -0.230459 0.973008
vn -0.205535 -0.327947 0.922066
vn -0.246578 -0.389243 0.887518
vn 0.196435 0.0990691 0.975499
vn 0.0976372 0.046588 0.994131
vn 0.0814206 0.0543758 0.995195
vn 0.0471625 0.0410181 0.998045
vn 0.0358824 0.035033 0.998742
vn 0.0425964 0.042185 0.998201
vn 0.0687521 0.0531469 0.996217
vn 0.0721035 0.108124 0.991519
vn -0.00887946 0.0831224 0.9965
vn 0.0516531 0.0349148 0.998055
vn 0.0873102 0.00308271 0.996176
vn 0.0845627 0.0114969 0.996352
vn 0.0351449 0.0352241 0.998761
vn -0.0213149 0.0283395 0.999371
vn -0.132846 0.087003 0.987311
vn -0.19855 0.0625638 0.978092
vn 0.0622318 0.122172 0.990556
vn 0.0417356 0.0704367 0.996643
vn 0.0082585 0.0335306 0.999404
vn 0.0169439 0.0414502 0.998997
vn 0.0447285 0.0702006 0.99653
vn 0.0703735 0.0654202 0.995373
vn 0.147551 0.113708 0.982496
vn -0.0531707 -0.161353 0.985463
vn 0.0116255 0.0690329 0.997547
vn -0.0346533 0.03286 0.998859
vn -0.0596584 0.027822 0.997831
vn -0.0289885 0.0454383 0.998546
vn 0.0937067 0.124853 0.98774
vn 0.163516 0.14393 0.975985
vn 0.022609 -0.0298964 0.999297
vn -0.23056 -0.364947 0.902029
vn -0.0173737 0.0550595 0.998332
vn -0.0474078 0.016012 0.998747
vn -0.0155421 0.0582315 0.998182
vn 0.0580896 0.134577 0.989199
vn 0.0276926 0.161403 0.9865
vn 0.0222488 0.0572968 0.998109
vn -0.187325 -0.267456 0.945186
vn -0.0982681 -0.290519 0.95181
vn -0.0109652 0.0423774 0.999041
vn 0.000681771 0.0196415 0.999807
vn 0.0277886 0.123597 0.991943
vn 0.0591395 0.15056 0.98683
vn 0.00932492 0.0705053 0.997468
vn -0.0382269 -0.0430821 0.99834
vn -0.0905489 -0.183207 0.978895
vn -0.0808361 -0.227035 0.970526
vn 0.0230555 0.02099 0.999514
vn -0.00762501 0.0199398 0.999772
vn -0.00332718 0.13998 0.990149
vn 0.00402913 0.153523 0.988137
vn 0.0234052 0.0123022 0.99965
vn 0.0158345 -0.0296832 0.999434
vn 0.0598389 -0.153972 0.986262
vn 0.0709403 -0.144913 0.986898
vn 0.0349085 0.00103562 0.99939
vn 0.0339184 -0.038179 0.998695
vn -0.0415305 0.0989044 0.99423
vn -0.144738 0.231609 0.961981
vn -0.085076 0.147538 0.985391
vn 0.0556333 -0.0116276 0.998384
vn 0.132391 -0.19791 0.971239
vn 0.0900522 -0.201427 0.975355
vn 0.00320831 0.066327 0.997793
vn 0.0277776 -0.0181064 0.99945
vn 0.0440211 0.000720095 0.99903
vn -0.0775159 0.151959 0.985343
vn -0.128663 0.171895 0.976677
vn -0.120293 0.116092 0.985927
vn 0.100113 -0.174171 0.979613
vn 0.208727 -0.373339 0.903909
vn 0.0112951 0.0549019 0.998428
vn 0.045477 0.00380238 0.998958
vn 0.0663167 -0.00364082 0.997792
vn 0.0323477 0.0334407 0.998917
vn -0.0429314 0.0826265 0.995655
vn -0.113847 0.100388 0.988413
vn -0.166279 0.0958072 0.981413
vn 0.0581936 -0.161596 0.98514
f 100/100/100 4/4/4 13/13/13
f 44/44/44 3/3/3 21/21/21
f 44/44/44 19/19/19 20/20/20
f 60/60/60 19/19/19 52/52/52
f 60/60/60 17/17/17 18/18/18
f 76/76/76 17/17/17 68/68/68
f 84/84/84 16/16/16 76/76/76
f 84/84/84 14/14/14 15/15/15
f 100/100/100 14/14/14 92/92/92
f 11/11/11 93/93/93 85/85/85
f 93/93/93 86/86/86 85/85/85
f 94/94/94 87/87/87 86/86/86
f 87/87/87 96/96/96 88/88/88
f 96/96/96 89/89/89 88/88/88
f 97/97/97 90/90/90 89/89/89
f 90/90/90 99/99/99 91/91/91
f 91/91/91 100/100/100 92/92/92
f 10/10/10 85/85/85 77/77/77
f 77/77/77 86/86/86 78/78/78
f 78/78/78 87/87/87 79/79/79
f 79/79/79 88/88/88 80/80/80
f 88/88/88 81/81/81 80/80/80
f 81/81/81 90/90/90 82/82/82
f 82/82/82 91/91/91 83/83/83
f 91/91/91 84/84/84 83/83/83
f 10/10/10 69/69/69 9/9/9
f 69/69/69 78/78/78 70/70/70
f 70/70/70 79/79/79 71/71/71
f 79/79/79 72/72/72 71/71/71
f 72/72/72 81/81/81 73/73/73
f 73/73/73 82/82/82 74/74/74
f 82/82/82 75/75/75 74/74/74
f 83/83/83 76/76/76 75/75/75
f 9/9/9 61/61/61 8/8/8
f 69/69/69 62/62/62 61/61/61
f 62/62/62 71/71/71 63/63/63
f 63/63/63 72/72/72 64/64/64
f 72/72/72 65/65/65 64/64/64
f 65/65/65 74/74/74 66/66/66
f 66/66/66 75/75/75 67/67/67
f 67/67/67 76/76/76 68/68/68
f 8/8/8 53/53/53 7/7/7
f 53/53/53 62/62/62 54/54/54
f 54/54/54 63/63/63 55/55/55
f 55/55/55 64/64/64 56/56/56
f 64/64/64 57/57/57 56/56/56
f 57/57/57 66/66/66 58/58/58
f 58/58/58 67/67/67 59/59/59
f 59/59/59 68/68/68 60/60/60
f 6/6/6 53/53/53 45/45/45
f 45/45/45 54/54/54 46/46/46
f 54/54/54 47/47/47 46/46/46
f 55/55/55 48/48/48 47/47/47
f 56/56/56 49/49/49 48/48/48
f 49/49/49 58/58/58 50/50/50
f 58/58/58 51/51/51 50/50/50
f 59/59/59 52/52/52 51/51/51
f 6/6/6 37/37/37 5/5/5
f 45/45/45 38/38/38 37/37/37
f 46/46/46 39/39/39 38/38/38
f 39/39/39 48/48/48 40/40/40
f 40/40/40 49/49/49 41/41/41
f 41/41/41 50/50/50 42/42/42
f 50/50/50 43/43/43 42/42/42
f 51/51/51 44/44/44 43/43/43
f 5/5/5 28/28/28 1/1/1
f 28/28/28 38/38/38 27/27/27
f 27/27/27 39/39/39 26/26/26
f 26/26/26 40/40/40 25/25/25
f 40/40/40 24/24/24 25/25/25
f 41/41/41 23/23/23 24/24/24
f 23/23/23 43/43/43 22/22/22
f 43/43/43 21/21/21 22/22/22
f 2/2/2 93/93/93 12/12/12
f 93/93/93 30/30/30 94/94/94
f 30/30/30 95/95/95 94/94/94
f 31/31/31 96/96/96 95/95/95
f 32/32/32 97/97/97 96/96/96
f 33/33/33 98/98/98 97/97/97
f 98/98/98 35/35/35 99/99/99
f 99/99/99 36/36/36 100/100/100
f 100/100/100 36/36/36 4/4/4
f 44/44/44 20/20/20 3/3/3
f 44/44/44 52/52/52 19/19/19
f 60/60/60 18/18/18 19/19/19
f 60/60/60 68/68/68 17/17/17
f 76/76/76 16/16/16 17/17/17
f 84/84/84 15/15/15 16/16/16
f 84/84/84 92/92/92 14/14/14
f 100/100/100 13/13/13 14/14/14
f 11/11/11 12/12/12 93/93/93
f 93/93/93 94/94/94 86/86/86
f 94/94/94 95/95/95 87/87/87
f 87/87/87 95/95/95 96/96/96
f 96/96/96 97/97/97 89/89/89
f 97/97/97 98/98/98 90/90/90
f 90/90/90 98/98/98 99/99/99
f 91/91/91 99/99/99 100/100/100
f 10/10/10 11/11/11 85/85/85
f 77/77/77 85/85/85 86/86/86
f 78/78/78 86/86/86 87/87/87
f 79/79/79 87/87/87 88/88/88
f 88/88/88 89/89/89 81/81/81
f 81/81/81 89/89/89 90/90/90
f 82/82/82 90/90/90 91/91/91
f 91/91/91 92/92/92 84/84/84
f 10/10/10 77/77/77 69/69/69
f 69/69/69 77/77/77 78/78/78
f 70/70/70 78/78/78 79/79/79
f 79/79/79 80/80/80 72/72/72
f 72/72/72 80/80/80 81/81/81
f 73/73/73 81/81/81 82/82/82
f 82/82/82 83/83/83 75/75/75
f 83/83/83 84/84/84 76/76/76
f 9/9/9 69/69/69 61/61/61
f 69/69/69 70/70/70 62/62/62
f 62/62/62 70/70/70 71/71/71
f 63/63/63 71/71/71 72/72/72
f 72/72/72 73/73/73 65/65/65
f 65/65/65 73/73/73 74/74/74
f 66/66/66 74/74/74 75/75/75
f 67/67/67 75/75/75 76/76/76
f 8/8/8 61/61/61 53/53/53
f 53/53/53 61/61/61 62/62/62
f 54/54/54 62/62/62 63/63/63
f 55/55/55 63/63/63 64/64/64
f 64/64/64 65/65/65 57/57/57
f 57/57/57 65/65/65 66/66/66
f 58/58/58 66/66/66 67/67/67
f 59/59/59 67/67/67 68/68/68
f 6/6/6 7/7/7 53/53/53
f 45/45/45 53/53/53 54/54/54
f 54/54/54 55/55/55 47/47/47
f 55/55/55 56/56/56 48/48/48
f 56/56/56 57/57/57 49/49/49
f 49/49/49 57/57/57 58/58/58
f 58/58/58 59/59/59 51/51/51
f 59/59/59 60/60/60 52/52/52
f 6/6/6 45/45/45 37/37/37
f 45/45/45 46/46/46 38/38/38
f 46/46/46 47/47/47 39/39/39
f 39/39/39 47/47/47 48/48/48
f 40/40/40 48/48/48 49/49/49
f 41/41/41 49/49/49 50/50/50
f 50/50/50 51/51/51 43/43/43
f 51/51/51 52/52/52 44/44/44
f 5/5/5 37/37/37 28/28/28
f 28/28/28 37/37/37 38/38/38
f 27/27/27 38/38/38 39/39/39
f 26/26/26 39/39/39 40/40/40
f 40/40/40 41/41/41 24/24/24
f 41/41/41 42/42/42 23/23/23
f 23/23/23 42/42/42 43/43/43
f 43/43/43 44/44/44 21/21/21
f 2/2/2 29/29/29 93/93/93
f 93/93/93 29/29/29 30/30/30
f 30/30/30 31/31/31 95/95/95
f 31/31/31 32/32/32 96/96/96
f 32/32/32 33/33/33 97/97/97
f 33/33/33 34/34/34 98/98/98
f 98/98/98 34/34/34 35/35/35
f 99/99/99 35/35/35 36/36/36
