o GNATVCloth
v -5.03454 -4.97911 0.598804
v 5.064 -4.99503 0.394699
v -5.01298 5.02105 0.004229
v 4.98702 5.02105 0.004229
v -3.92266 -5.02252 0.519271
v -2.80309 -5.06041 0.484323
v -1.6787 -5.08868 0.474261
v -0.551194 -5.10874 0.470612
v 0.577527 -5.10695 0.512866
v 1.70386 -5.09157 0.491472
v 2.82701 -5.06895 0.448585
v 3.94814 -5.02738 0.428497
v 3.86897 4.90083 0.203289
v 2.75688 4.81245 0.386232
v 1.63453 4.7516 0.312832
v 0.514506 4.70374 0.29235
v -0.584864 4.69981 0.478533
v -1.6956 4.68808 0.626797
v -2.80976 4.75178 0.500739
v -3.90101 4.87885 0.237555
v -4.97725 3.9073 0.0771221
v -4.97529 2.79275 0.139273
v -4.98297 1.67891 0.201691
v -4.99265 0.564641 0.25181
v -4.99954 -0.549474 0.297115
v -5.00364 -1.66301 0.34294
v -5.00921 -2.7755 0.384308
v -5.0156 -3.88529 0.480312
v 5.04113 -3.88689 0.318833
v 5.02593 -2.77742 0.236473
v 5.0165 -1.66482 0.234364
v 5.0078 -0.551954 0.216983
v 5.00109 0.56172 0.199735
v 4.99116 1.67634 0.165315
v 4.98299 2.79165 0.133704
v 4.97263 3.9062 0.0691451
v -3.8444 -3.88033 0.376568
v -3.80802 -3.23823 0.285839
v -3.66091 -1.94944 0.249806
v -4.11371 -0.287585 0.236852
v -4.13606 0.728257 0.183186
v -4.12691 1.51179 0.120953
v -4.05633 2.80249 0.0347633
v -3.92282 3.87505 -0.153222
v -2.71418 -4.05148 0.314527
v -2.79164 -2.77946 0.342348
v -2.66972 -2.19224 0.291705
v -2.7453 -0.647629 0.282316
v -2.77836 0.4802 0.174242
v -2.71083 1.52077 0.0372306
v -2.84175 2.84281 -0.215221
v -2.7525 3.49753 0.0271114
v -1.64961 -4.28461 0.337207
v -1.49101 -2.97145 0.399476
v -1.88562 -1.67873 0.377516
v -1.86825 -0.884584 0.308096
v -1.5198 0.584266 0.0209234
v -1.98311 1.63987 -0.0907728
v -1.70566 2.67343 -0.0334235
v -1.58846 3.57452 0.400364
v -0.223354 -4.37212 0.398667
v -0.578985 -2.93451 0.474585
v -0.539402 -1.79423 0.392556
v -0.830854 -0.822128 0.280808
v -0.596693 0.37852 0.0876787
v -0.363378 1.4033 0.0425552
v -0.566385 2.56889 0.1799
v -0.762694 3.38778 0.404599
v 0.748881 -3.93982 0.388946
v 0.823213 -2.64907 0.440729
v 0.534533 -1.86012 0.418559
v 0.61876 -0.562858 0.0910523
v 0.596963 0.343961 0.0957974
v 0.310277 1.45222 0.0320829
v 0.533484 2.41502 0.131701
v 0.545972 3.61909 0.413927
v 1.9669 -3.69454 0.330033
v 1.68936 -2.88649 0.399065
v 1.83712 -1.95766 0.426124
v 1.99456 -0.446472 0.169814
v 1.98851 0.212936 -0.0215137
v 1.84008 1.47726 0.0144061
v 1.41872 2.75137 0.09509
v 1.48319 3.54687 0.299274
v 2.81281 -3.95558 0.342789
v 3.11861 -2.86881 0.326134
v 2.96564 -1.99053 0.304364
v 2.72677 -0.528401 0.305457
v 2.97142 0.264348 0.197042
v 3.09017 1.53144 -0.0930609
v 2.77007 3.09666 -0.102365
v 2.74206 3.44071 0.0311181
v 3.94257 -3.98915 0.313663
v 3.68161 -2.73622 0.300759
v 3.89023 -1.69559 0.292226
v 3.82454 -0.740045 0.309197
v 3.88346 0.272574 0.279417
v 4.17163 1.78865 0.143657
v 4.14951 2.73938 -0.0312599
v 4.0304 3.8645 -0.106219
vt 0.0001 0.0001
vt 0.9999 0.0001
vt 0.0001 0.9999
vt 0.9999 0.9999
vt 0.111189 0.0001
vt 0.222278 0.0001
vt 0.333367 0.0001
vt 0.444455 0.0001
vt 0.555544 0.0001
vt 0.666633 0.0001
vt 0.777722 0.0001
vt 0.888811 0.0001
vt 0.888811 0.9999
vt 0.777722 0.9999
vt 0.666633 0.9999
vt 0.555544 0.9999
vt 0.444455 0.9999
vt 0.333367 0.9999
vt 0.222278 0.9999
vt 0.111189 0.9999
vt 0.0001 0.888811
vt 0.0001 0.777722
vt 0.0001 0.666633
vt 0.0001 0.555544
vt 0.0001 0.444456
vt 0.0001 0.333367
vt 0.0001 0.222278
vt 0.0001 0.111189
vt 0.9999 0.111189
vt 0.9999 0.222278
vt 0.9999 0.333367
vt 0.9999 0.444456
vt 0.9999 0.555544
vt 0.9999 0.666633
vt 0.9999 0.777722
vt 0.9999 0.888811
vt 0.11727 0.115399
vt 0.120778 0.180369
vt 0.134636 0.309595
vt 0.088728 0.473895
vt 0.085886 0.575352
vt 0.086211 0.65375
vt 0.092207 0.78313
vt 0.106956 0.892282
vt 0.22987 0.102869
vt 0.221803 0.229552
vt 0.233521 0.288953
vt 0.225541 0.443179
vt 0.221596 0.556167
vt 0.227801 0.661237
vt 0.214896 0.795203
vt 0.22542 0.865181
vt 0.335524 0.082127
vt 0.351143 0.213907
vt 0.311934 0.342467
vt 0.313159 0.422214
vt 0.347791 0.572605
vt 0.301482 0.677733
vt 0.329031 0.783086
vt 0.344903 0.885466
vt 0.476837 0.074882
vt 0.441952 0.218774
vt 0.445749 0.333088
vt 0.416414 0.43099
vt 0.439746 0.552976
vt 0.463203 0.656843
vt 0.444252 0.77653
vt 0.426137 0.866051
vt 0.573419 0.117409
vt 0.581125 0.246686
vt 0.552512 0.326
vt 0.561075 0.459693
vt 0.558356 0.550596
vt 0.530299 0.662189
vt 0.553275 0.760113
vt 0.555478 0.888821
vt 0.694433 0.13996
vt 0.667048 0.221666
vt 0.681985 0.314267
vt 0.698218 0.467249
vt 0.696819 0.535952
vt 0.68253 0.662758
vt 0.642062 0.791726
vt 0.648523 0.877957
vt 0.778029 0.111667
vt 0.809426 0.219523
vt 0.794923 0.307783
vt 0.772028 0.454562
vt 0.796846 0.533374
vt 0.807262 0.663157
vt 0.778581 0.821037
vt 0.775122 0.858219
vt 0.890224 0.104741
vt 0.865679 0.23076
vt 0.887326 0.334104
vt 0.881307 0.429754
vt 0.887973 0.53063
vt 0.918106 0.681428
vt 0.915043 0.778027
vt 0.904815 0.89094
vn 0.0750667 0.10611 0.991517
vn 0.00793977 0.0890904 0.995992
vn -0.010515 -0.145917 0.989241
vn 0.0055017 -0.099573 0.995015
vn 0.0657751 0.115119 0.991172
vn 0.0353244 0.153204 0.987563
vn 0.00960497 0.167682 0.985794
vn -0.022355 0.131517 0.991062
vn -0.019805 0.109323 0.993809
vn 0.0247019 0.104789 0.994188
vn 0.0260938 0.0999762 0.994648
vn 0.0203169 0.11002 0.993722
vn 0.186287 -0.254405 0.948986
vn 0.120511 -0.191203 0.974124
vn -0.0415084 -0.00602987 0.99912
vn 0.0927451 0.0736105 0.992965
vn 0.0713868 -0.0457288 0.9964
vn 0.00514561 -0.198786 0.980029
vn -0.2251 -0.315732 0.921761
vn -0.246415 -0.346938 0.904938
vn 0.181219 0.0897347 0.97934
vn 0.112248 0.0551729 0.992147
vn 0.099435 0.05926 0.993278
vn 0.06561 0.0461934 0.996776
vn 0.0558834 0.0405353 0.997614
vn 0.069299 0.0352564 0.996973
vn 0.0931444 0.0464859 0.994567
vn 0.090759 0.110845 0.989685
vn -0.0113 0.0709693 0.997415
vn 0.0339713 0.0238137 0.999139
vn 0.0593628 0.00143553 0.998235
vn 0.0719587 0.0190151 0.997226
vn 0.0317725 0.0420757 0.998609
vn -0.0223787 0.0294099 0.999317
vn -0.141244 0.0857143 0.986257
vn -0.189042 0.053408 0.980515
vn 0.0723955 0.133606 0.988387
vn 0.0414836 0.0643041 0.997068
vn 0.0106017 0.0302771 0.999485
vn 0.0330471 0.0443891 0.998468
vn 0.0590628 0.0727016 0.995603
vn 0.0827424 0.0699381 0.994114
vn 0.14181 0.103861 0.98443
vn -0.0545019 -0.150093 0.987168
vn 0.00755316 0.0613286 0.998089
vn -0.0428258 0.0338293 0.99851
vn -0.0602277 0.034714 0.997581
vn -0.033611 0.0469212 0.998333
vn 0.0573747 0.115848 0.991608
vn 0.105172 0.132226 0.985624
vn -0.0126731 -0.0155968 0.999798
vn -0.242479 -0.344202 0.907044
vn -0.0229659 0.0671827 0.997476
vn -0.0549186 0.00872548 0.998453
vn -0.0342944 0.0482284 0.998247
vn 0.0264235 0.125078 0.991795
vn 0.0104687 0.134343 0.99088
vn -0.0170516 0.0569378 0.998232
vn -0.186282 -0.245777 0.951258
vn -0.106874 -0.273931 0.955793
vn -0.0260017 0.0458223 0.998611
vn -0.0217783 -0.00111452 0.999762
vn -0.00354963 0.111119 0.993801
vn 0.0345628 0.139661 0.989596
vn 0.00182586 0.0756536 0.997132
vn -0.0280368 -0.0304191 0.999144
vn -0.0691227 -0.174961 0.982146
vn -0.056463 -0.221567 0.973509
vn 0.0235378 0.0187374 0.999547
vn 0.0241853 -0.0116584 0.99964
vn -0.000433659 0.125191 0.992132
vn 0.0175141 0.152906 0.988086
vn 0.0329215 0.017809 0.999299
vn 0.0109259 -0.0114089 0.999875
vn 0.0433831 -0.138154 0.98946
vn 0.0827859 -0.115157 0.989892
vn 0.0298003 0.0216015 0.999322
vn 0.0573788 -0.0368762 0.997671
vn 0.00438064 0.0810524 0.9967
vn -0.113756 0.227167 0.967189
vn -0.0605868 0.137905 0.988591
vn 0.0691501 -0.0167611 0.997465
vn 0.127825 -0.16097 0.978647
vn 0.101527 -0.146155 0.984038
vn 0.0200939 0.0654886 0.997651
vn 0.0328491 0.00704439 0.999436
vn 0.0468686 0.00343988 0.998895
vn -0.0677961 0.13483 0.988547
vn -0.121623 0.167299 0.978375
vn -0.0992852 0.111564 0.988785
vn 0.105779 -0.127532 0.986178
vn 0.185677 -0.295408 0.937154
vn 0.020208 0.0630625 0.997805
vn 0.0371226 0.0150012 0.999198
vn 0.0360608 -0.00475541 0.999338
vn 0.0209847 0.0247247 0.999474
vn -0.0387852 0.0870419 0.995449
vn -0.115545 0.103074 0.98794
vn -0.154269 0.0839483 0.984456
vn 0.0529081 -0.136447 0.989234
f 100/100/100 4/4/4 13/13/13
f 44/44/44 3/3/3 21/21/21
f 44/44/44 19/19/19 20/20/20
f 60/60/60 19/19/19 52/52/52
f 60/60/60 17/17/17 18/18/18
f 76/76/76 17/17/17 68/68/68
f 84/84/84 16/16/16 76/76/76
f 84/84/84 14/14/14 15/15/15
f 100/100/100 14/14/14 92/92/92
f 11/11/11 93/93/93 85/85/85
f 93/93/93 86/86/86 85/85/85
f 94/94/94 87/87/87 86/86/86
f 87/87/87 96/96/96 88/88/88
f 96/96/96 89/89/89 88/88/88
f 97/97/97 90/90/90 89/89/89
f 90/90/90 99/99/99 91/91/91
f 91/91/91 100/100/100 92/92/92
f 10/10/10 85/85/85 77/77/77
f 77/77/77 86/86/86 78/78/78
f 78/78/78 87/87/87 79/79/79
f 79/79/79 88/88/88 80/80/80
f 88/88/88 81/81/81 80/80/80
f 81/81/81 90/90/90 82/82/82
f 82/82/82 91/91/91 83/83/83
f 91/91/91 84/84/84 83/83/83
f 10/10/10 69/69/69 9/9/9
f 69/69/69 78/78/78 70/70/70
f 70/70/70 79/79/79 71/71/71
f 79/79/79 72/72/72 71/71/71
f 72/72/72 81/81/81 73/73/73
f 73/73/73 82/82/82 74/74/74
f 82/82/82 75/75/75 74/74/74
f 83/83/83 76/76/76 75/75/75
f 9/9/9 61/61/61 8/8/8
f 69/69/69 62/62/62 61/61/61
f 62/62/62 71/71/71 63/63/63
f 63/63/63 72/72/72 64/64/64
f 72/72/72 65/65/65 64/64/64
f 65/65/65 74/74/74 66/66/66
f 66/66/66 75/75/75 67/67/67
f 67/67/67 76/76/76 68/68/68
f 8/8/8 53/53/53 7/7/7
f 53/53/53 62/62/62 54/54/54
f 54/54/54 63/63/63 55/55/55
f 55/55/55 64/64/64 56/56/56
f 64/64/64 57/57/57 56/56/56
f 57/57/57 66/66/66 58/58/58
f 58/58/58 67/67/67 59/59/59
f 59/59/59 68/68/68 60/60/60
f 6/6/6 53/53/53 45/45/45
f 45/45/45 54/54/54 46/46/46
f 54/54/54 47/47/47 46/46/46
f 55/55/55 48/48/48 47/47/47
f 56/56/56 49/49/49 48/48/48
f 49/49/49 58/58/58 50/50/50
f 58/58/58 51/51/51 50/50/50
f 59/59/59 52/52/52 51/51/51
f 6/6/6 37/37/37 5/5/5
f 45/45/45 38/38/38 37/37/37
f 46/46/46 39/39/39 38/38/38
f 39/39/39 48/48/48 40/40/40
f 40/40/40 49/49/49 41/41/41
f 41/41/41 50/50/50 42/42/42
f 50/50/50 43/43/43 42/42/42
f 51/51/51 44/44/44 43/43/43
f 5/5/5 28/28/28 1/1/1
f 28/28/28 38/38/38 27/27/27
f 27/27/27 39/39/39 26/26/26
f 26/26/26 40/40/40 25/25/25
f 40/40/40 24/24/24 25/25/25
f 41/41/41 23/23/23 24/24/24
f 23/23/23 43/43/43 22/22/22
f 43/43/43 21/21/21 22/22/22
f 2/2/2 93/93/93 12/12/12
f 93/93/93 30/30/30 94/94/94
f 30/30/30 95/95/95 94/94/94
f 31/31/31 96/96/96 95/95/95
f 32/32/32 97/97/97 96/96/96
f 33/33/33 98/98/98 97/97/97
f 98/98/98 35/35/35 99/99/99
f 99/99/99 36/36/36 100/100/100
f 100/100/100 36/36/36 4/4/4
f 44/44/44 20/20/20 3/3/3
f 44/44/44 52/52/52 19/19/19
f 60/60/60 18/18/18 19/19/19
f 60/60/60 68/68/68 17/17/17
f 76/76/76 16/16/16 17/17/17
f 84/84/84 15/15/15 16/16/16
f 84/84/84 92/92/92 14/14/14
f 100/100/100 13/13/13 14/14/14
f 11/11/11 12/12/12 93/93/93
f 93/93/93 94/94/94 86/86/86
f 94/94/94 95/95/95 87/87/87
f 87/87/87 95/95/95 96/96/96
f 96/96/96 97/97/97 89/89/89
f 97/97/97 98/98/98 90/90/90
f 90/90/90 98/98/98 99/99/99
f 91/91/91 99/99/99 100/100/100
f 10/10/10 11/11/11 85/85/85
f 77/77/77 85/85/85 86/86/86
f 78/78/78 86/86/86 87/87/87
f 79/79/79 87/87/87 88/88/88
f 88/88/88 89/89/89 81/81/81
f 81/81/81 89/89/89 90/90/90
f 82/82/82 90/90/90 91/91/91
f 91/91/91 92/92/92 84/84/84
f 10/10/10 77/77/77 69/69/69
f 69/69/69 77/77/77 78/78/78
f 70/70/70 78/78/78 79/79/79
f 79/79/79 80/80/80 72/72/72
f 72/72/72 80/80/80 81/81/81
f 73/73/73 81/81/81 82/82/82
f 82/82/82 83/83/83 75/75/75
f 83/83/83 84/84/84 76/76/76
f 9/9/9 69/69/69 61/61/61
f 69/69/69 70/70/70 62/62/62
f 62/62/62 70/70/70 71/71/71
f 63/63/63 71/71/71 72/72/72
f 72/72/72 73/73/73 65/65/65
f 65/65/65 73/73/73 74/74/74
f 66/66/66 74/74/74 75/75/75
f 67/67/67 75/75/75 76/76/76
f 8/8/8 61/61/61 53/53/53
f 53/53/53 61/61/61 62/62/62
f 54/54/54 62/62/62 63/63/63
f 55/55/55 63/63/63 64/64/64
f 64/64/64 65/65/65 57/57/57
f 57/57/57 65/65/65 66/66/66
f 58/58/58 66/66/66 67/67/67
f 59/59/59 67/67/67 68/68/68
f 6/6/6 7/7/7 53/53/53
f 45/45/45 53/53/53 54/54/54
f 54/54/54 55/55/55 47/47/47
f 55/55/55 56/56/56 48/48/48
f 56/56/56 57/57/57 49/49/49
f 49/49/49 57/57/57 58/58/58
f 58/58/58 59/59/59 51/51/51
f 59/59/59 60/60/60 52/52/52
f 6/6/6 45/45/45 37/37/37
f 45/45/45 46/46/46 38/38/38
f 46/46/46 47/47/47 39/39/39
f 39/39/39 47/47/47 48/48/48
f 40/40/40 48/48/48 49/49/49
f 41/41/41 49/49/49 50/50/50
f 50/50/50 51/51/51 43/43/43
f 51/51/51 52/52/52 44/44/44
f 5/5/5 37/37/37 28/28/28
f 28/28/28 37/37/37 38/38/38
f 27/27/27 38/38/38 39/39/39
f 26/26/26 39/39/39 40/40/40
f 40/40/40 41/41/41 24/24/24
f 41/41/41 42/42/42 23/23/23
f 23/23/23 42/42/42 43/43/43
f 43/43/43 44/44/44 21/21/21
f 2/2/2 29/29/29 93/93/93
f 93/93/93 29/29/29 30/30/30
f 30/30/30 31/31/31 95/95/95
f 31/31/31 32/32/32 96/96/96
f 32/32/32 33/33/33 97/97/97
f 33/33/33 34/34/34 98/98/98
f 98/98/98 34/34/34 35/35/35
f 99/99/99 35/35/35 36/36/36
