o GNATVCloth
v -4.99695 -5.00387 0.078547
v 5.05684 -5.00727 0.07461
v -5.01298 5.02105 0.004229
v 4.98702 5.02105 0.004229
v -3.88394 -5.03613 0.0631466
v -2.76513 -5.06591 0.042397
v -1.64459 -5.05495 0.0526204
v -0.53231 -5.05194 0.054529
v 0.583098 -5.06692 0.0126447
v 1.70013 -5.07464 0.0359033
v 2.82161 -5.06625 0.0562301
v 3.94118 -5.03508 0.0808458
v 3.86709 4.95558 0.0670055
v 2.77637 4.88773 0.045073
v 1.69271 4.88651 0.0671204
v 0.580552 4.88863 0.0544
v -0.528061 4.88309 0.0345581
v -1.63928 4.89442 0.0788976
v -2.75509 4.92302 0.0431831
v -3.87796 4.967 0.0617799
v -4.99688 3.90533 0.0453277
v -4.9872 2.78909 0.0593774
v -4.98066 1.67358 0.0544514
v -4.9693 0.558521 0.0600219
v -4.96628 -0.555642 0.068936
v -4.96898 -1.66903 0.0598474
v -4.97202 -2.78178 0.0530679
v -4.97913 -3.89272 0.0494736
v 5.0356 -3.89474 0.0770887
v 5.03004 -2.78289 0.0382362
v 5.02972 -1.67 0.0422236
v 5.02912 -0.55666 0.0560924
v 5.02784 0.557389 0.0673417
v 5.02384 1.67288 0.0654601
v 5.01789 2.78884 0.0555635
v 5.00425 3.90509 0.0364666
v -3.8097 -3.88271 0.0496517
v -3.77161 -3.23325 0.0389025
v -3.63494 -1.94552 0.0249515
v -4.0969 -0.287821 0.0320769
v -4.12744 0.729098 0.0331775
v -4.12385 1.51476 0.0487957
v -4.07068 2.80768 0.0356506
v -3.92401 3.8927 0.0303132
v -2.68174 -4.03828 0.0430953
v -2.76136 -2.77074 0.0433236
v -2.64461 -2.17936 0.0367479
v -2.72816 -0.637249 0.040156
v -2.76899 0.493579 0.0344163
v -2.70713 1.54486 0.0369448
v -2.83759 2.8852 0.0384577
v -2.73205 3.58152 0.0402135
v -1.62449 -4.26048 0.0294596
v -1.47116 -2.94635 0.0231507
v -1.8626 -1.66158 0.0509005
v -1.85063 -0.866432 0.0516523
v -1.50483 0.633483 0.0377039
v -1.96838 1.68769 0.0345729
v -1.69252 2.734 0.0359103
v -1.5312 3.75281 0.0341771
v -0.20678 -4.33192 0.0396004
v -0.562315 -2.89611 0.0314314
v -0.52535 -1.76031 0.0374404
v -0.817079 -0.78468 0.0360548
v -0.583372 0.433597 0.037794
v -0.348496 1.46481 0.039649
v -0.536584 2.66129 0.0359203
v -0.717101 3.55559 0.0426636
v 0.759792 -3.90335 0.0292078
v 0.832733 -2.61453 0.0475577
v 0.544624 -1.83656 0.0504388
v 0.631039 -0.499033 0.0259876
v 0.605354 0.404008 0.040116
v 0.325161 1.51773 0.0434893
v 0.556388 2.49769 0.0439314
v 0.579307 3.78195 0.0398828
v 1.97265 -3.6796 0.046577
v 1.69501 -2.86559 0.0386425
v 1.84309 -1.94258 0.0337339
v 2.00691 -0.413559 0.0493683
v 1.9934 0.268534 0.0345312
v 1.85128 1.53155 0.0262007
v 1.44574 2.81206 0.0448989
v 1.50624 3.67124 0.0331956
v 2.81264 -3.94925 0.042247
v 3.12219 -2.867 0.0432275
v 2.97581 -1.98869 0.0319274
v 2.74769 -0.526882 0.0359797
v 2.99569 0.26908 0.0407885
v 3.10183 1.56297 0.030432
v 2.80941 3.12989 0.0362131
v 2.77244 3.49985 0.0543954
v 3.93932 -3.99089 0.0274828
v 3.68526 -2.74066 0.0517941
v 3.9017 -1.69907 0.0460081
v 3.84187 -0.743496 0.0254512
v 3.90894 0.267301 0.0401862
v 4.21163 1.78842 0.037321
v 4.17424 2.75333 0.0378207
v 4.05454 3.87703 0.0331147
vt 0.0001 0.0001
vt 0.9999 0.0001
vt 0.0001 0.9999
vt 0.9999 0.9999
vt 0.111189 0.0001
vt 0.222278 0.0001
vt 0.333367 0.0001
vt 0.444455 0.0001
vt 0.555544 0.0001
vt 0.666633 0.0001
vt 0.777722 0.0001
vt 0.888811 0.0001
vt 0.888811 0.9999
vt 0.777722 0.9999
vt 0.666633 0.9999
vt 0.555544 0.9999
vt 0.444455 0.9999
vt 0.333367 0.9999
vt 0.222278 0.9999
vt 0.111189 0.9999
vt 0.0001 0.888811
vt 0.0001 0.777722
vt 0.0001 0.666633
vt 0.0001 0.555544
vt 0.0001 0.444456
vt 0.0001 0.333367
vt 0.0001 0.222278
vt 0.0001 0.111189
vt 0.9999 0.111189
vt 0.9999 0.222278
vt 0.9999 0.333367
vt 0.9999 0.444456
vt 0.9999 0.555544
vt 0.9999 0.666633
vt 0.9999 0.777722
vt 0.9999 0.888811
vt 0.11727 0.115399
vt 0.120778 0.180369
vt 0.134636 0.309595
vt 0.088728 0.473895
vt 0.085886 0.575352
vt 0.086211 0.65375
vt 0.092207 0.78313
vt 0.106956 0.892282
vt 0.22987 0.102869
vt 0.221803 0.229552
vt 0.233521 0.288953
vt 0.225541 0.443179
vt 0.221596 0.556167
vt 0.227801 0.661237
vt 0.214896 0.795203
vt 0.22542 0.865181
vt 0.335524 0.082127
vt 0.351143 0.213907
vt 0.311934 0.342467
vt 0.313159 0.422214
vt 0.347791 0.572605
vt 0.301482 0.677733
vt 0.329031 0.783086
vt 0.344903 0.885466
vt 0.476837 0.074882
vt 0.441952 0.218774
vt 0.445749 0.333088
vt 0.416414 0.43099
vt 0.439746 0.552976
vt 0.463203 0.656843
vt 0.444252 0.77653
vt 0.426137 0.866051
vt 0.573419 0.117409
vt 0.581125 0.246686
vt 0.552512 0.326
vt 0.561075 0.459693
vt 0.558356 0.550596
vt 0.530299 0.662189
vt 0.553275 0.760113
vt 0.555478 0.888821
vt 0.694433 0.13996
vt 0.667048 0.221666
vt 0.681985 0.314267
vt 0.698218 0.467249
vt 0.696819 0.535952
vt 0.68253 0.662758
vt 0.642062 0.791726
vt 0.648523 0.877957
vt 0.778029 0.111667
vt 0.809426 0.219523
vt 0.794923 0.307783
vt 0.772028 0.454562
vt 0.796846 0.533374
vt 0.807262 0.663157
vt 0.778581 0.821037
vt 0.775122 0.858219
vt 0.890224 0.104741
vt 0.865679 0.23076
vt 0.887326 0.334104
vt 0.881307 0.429754
vt 0.887973 0.53063
vt 0.918106 0.681428
vt 0.915043 0.778027
vt 0.904815 0.89094
vn 0.0145818 0.0259195 0.999558
vn -0.0203252 0.023997 0.999505
vn -0.0187626 0.00500494 0.999811
vn 0.0264322 0.00369577 0.999644
vn 0.0110508 0.0160412 0.99981
vn 0.00690327 0.00925801 0.999933
vn -0.00560043 0.0292814 0.999556
vn 0.009939 0.0187858 0.999774
vn 0.011661 -0.00811428 0.999899
vn -0.0124902 -0.0029679 0.999918
vn -0.0093415 0.0253332 0.999635
vn -0.00953189 0.0510188 0.998652
vn 0.0196422 -0.0279904 0.999415
vn 0.000307018 -0.0130304 0.999915
vn 0.00444229 -0.0285855 0.999581
vn -0.00788872 -0.0174544 0.999816
vn 0.00353053 -0.00880083 0.999955
vn 0.00322233 -0.0388383 0.99924
vn -0.00531631 -0.0191729 0.999802
vn -0.0182727 -0.0284906 0.999427
vn 0.018024 0.0176156 0.999682
vn 0.0257925 0.00427086 0.999658
vn 0.017026 -0.0022562 0.999853
vn 0.0341865 0.00442842 0.999406
vn 0.0423837 -8.07137e-05 0.999101
vn 0.0321942 -0.00374965 0.999475
vn 0.0168986 -8.30227e-05 0.999857
vn 0.00614871 0.0127255 0.9999
vn -0.0465786 0.0157817 0.99879
vn -0.00626322 0.00424994 0.999971
vn -0.00586607 0.00187882 0.999981
vn -0.023077 -0.0118604 0.999663
vn -0.0273801 -0.000493784 0.999625
vn -0.0338958 0.0051237 0.999412
vn -0.0253649 0.00806389 0.999646
vn -0.00991833 0.0164828 0.999815
vn 0.00639211 0.0107417 0.999922
vn 0.00326193 0.00833129 0.99996
vn 0.00401922 0.00309761 0.999987
vn 0.0186008 4.02975e-05 0.999827
vn 0.0119968 -0.00634479 0.999908
vn 0.0070696 -0.00503866 0.999962
vn 0.0110563 0.00502092 0.999926
vn -0.00403477 -0.00217548 0.99999
vn 0.00856137 0.00280431 0.999959
vn 0.00191698 0.00658663 0.999976
vn -0.00479715 -0.0015677 0.999987
vn -0.0110028 -0.000593594 0.999939
vn -0.00310817 0.002198 0.999993
vn 0.00341975 -0.00286323 0.99999
vn -0.00103595 -0.000448446 0.999999
vn -0.00109353 -0.00151603 0.999998
vn -0.00106428 0.0133413 0.99991
vn 0.00475021 -0.00410979 0.99998
vn 0.000289447 -0.00699746 0.999975
vn 0.000179547 0.00376273 0.999993
vn 0.000724358 0.00274609 0.999996
vn 7.48907e-05 -5.20001e-05 1
vn -0.00024712 -0.00155746 0.999999
vn -0.000270764 -0.011381 0.999935
vn 0.0100733 0.00432954 0.99994
vn -0.00702156 -0.00195135 0.999973
vn -0.00112672 -0.000338931 0.999999
vn 0.00893831 0.00139419 0.999959
vn -0.000564103 -0.00427962 0.999991
vn -0.00409851 0.000849348 0.999991
vn -0.00231093 -0.00129859 0.999996
vn -0.00286555 0.000401718 0.999996
vn -0.00377679 -0.00704664 0.999968
vn 0.00231174 -0.0062321 0.999978
vn -0.00122331 0.00502265 0.999987
vn -0.00216505 0.00230055 0.999995
vn 0.00283328 -0.00557559 0.99998
vn 0.00184233 -0.0012901 0.999997
vn -0.00113951 -0.00119714 0.999999
vn -0.00114595 -0.00109516 0.999999
vn -0.00495291 -0.000426618 0.999988
vn -0.0003865 0.00325095 0.999995
vn 0.00595125 0.000573075 0.999982
vn 0.000729339 0.00578309 0.999983
vn -0.000809205 0.00653217 0.999978
vn 0.00476491 -0.00277801 0.999985
vn 0.00451255 0.00088539 0.999989
vn -0.00185206 -0.0126569 0.999918
vn 0.00305683 0.00201262 0.999993
vn -0.00280635 0.0004347 0.999996
vn -0.00680313 0.00756379 0.999948
vn 0.00837511 -0.00104298 0.999964
vn -0.000649183 -0.0021529 0.999997
vn -0.00394631 0.00239115 0.999989
vn 0.00188359 -0.0142995 0.999896
vn 0.00131407 -0.021028 0.999778
vn -0.0108254 0.0128276 0.999859
vn -0.00524489 -0.0032688 0.999981
vn -0.00463937 0.0102041 0.999937
vn -0.00691189 -0.00115237 0.999975
vn -0.0128431 -0.00324359 0.999912
vn -0.0212981 0.00308198 0.999768
vn -0.00912335 0.00310309 0.999954
vn 0.010859 -0.0083668 0.999906
f 100/100/100 4/4/4 13/13/13
f 44/44/44 3/3/3 21/21/21
f 44/44/44 19/19/19 20/20/20
f 60/60/60 19/19/19 52/52/52
f 60/60/60 17/17/17 18/18/18
f 76/76/76 17/17/17 68/68/68
f 84/84/84 16/16/16 76/76/76
f 84/84/84 14/14/14 15/15/15
f 100/100/100 14/14/14 92/92/92
f 11/11/11 93/93/93 85/85/85
f 93/93/93 86/86/86 85/85/85
f 94/94/94 87/87/87 86/86/86
f 87/87/87 96/96/96 88/88/88
f 96/96/96 89/89/89 88/88/88
f 97/97/97 90/90/90 89/89/89
f 90/90/90 99/99/99 91/91/91
f 91/91/91 100/100/100 92/92/92
f 10/10/10 85/85/85 77/77/77
f 77/77/77 86/86/86 78/78/78
f 78/78/78 87/87/87 79/79/79
f 79/79/79 88/88/88 80/80/80
f 88/88/88 81/81/81 80/80/80
f 81/81/81 90/90/90 82/82/82
f 82/82/82 91/91/91 83/83/83
f 91/91/91 84/84/84 83/83/83
f 10/10/10 69/69/69 9/9/9
f 69/69/69 78/78/78 70/70/70
f 70/70/70 79/79/79 71/71/71
f 79/79/79 72/72/72 71/71/71
f 72/72/72 81/81/81 73/73/73
f 73/73/73 82/82/82 74/74/74
f 82/82/82 75/75/75 74/74/74
f 83/83/83 76/76/76 75/75/75
f 9/9/9 61/61/61 8/8/8
f 69/69/69 62/62/62 61/61/61
f 62/62/62 71/71/71 63/63/63
f 63/63/63 72/72/72 64/64/64
f 72/72/72 65/65/65 64/64/64
f 65/65/65 74/74/74 66/66/66
f 66/66/66 75/75/75 67/67/67
f 67/67/67 76/76/76 68/68/68
f 8/8/8 53/53/53 7/7/7
f 53/53/53 62/62/62 54/54/54
f 54/54/54 63/63/63 55/55/55
f 55/55/55 64/64/64 56/56/56
f 64/64/64 57/57/57 56/56/56
f 57/57/57 66/66/66 58/58/58
f 58/58/58 67/67/67 59/59/59
f 59/59/59 68/68/68 60/60/60
f 6/6/6 53/53/53 45/45/45
f 45/45/45 54/54/54 46/46/46
f 54/54/54 47/47/47 46/46/46
f 55/55/55 48/48/48 47/47/47
f 56/56/56 49/49/49 48/48/48
f 49/49/49 58/58/58 50/50/50
f 58/58/58 51/51/51 50/50/50
f 59/59/59 52/52/52 51/51/51
f 6/6/6 37/37/37 5/5/5
f 45/45/45 38/38/38 37/37/37
f 46/46/46 39/39/39 38/38/38
f 39/39/39 48/48/48 40/40/40
f 40/40/40 49/49/49 41/41/41
f 41/41/41 50/50/50 42/42/42
f 50/50/50 43/43/43 42/42/42
f 51/51/51 44/44/44 43/43/43
f 5/5/5 28/28/28 1/1/1
f 28/28/28 38/38/38 27/27/27
f 27/27/27 39/39/39 26/26/26
f 26/26/26 40/40/40 25/25/25
f 40/40/40 24/24/24 25/25/25
f 41/41/41 23/23/23 24/24/24
f 23/23/23 43/43/43 22/22/22
f 43/43/43 21/21/21 22/22/22
f 2/2/2 93/93/93 12/12/12
f 93/93/93 30/30/30 94/94/94
f 30/30/30 95/95/95 94/94/94
f 31/31/31 96/96/96 95/95/95
f 32/32/32 97/97/97 96/96/96
f 33/33/33 98/98/98 97/97/97
f 98/98/98 35/35/35 99/99/99
f 99/99/99 36/36/36 100/100/100
f 100/100/100 36/36/36 4/4/4
f 44/44/44 20/20/20 3/3/3
f 44/44/44 52/52/52 19/19/19
f 60/60/60 18/18/18 19/19/19
f 60/60/60 68/68/68 17/17/17
f 76/76/76 16/16/16 17/17/17
f 84/84/84 15/15/15 16/16/16
f 84/84/84 92/92/92 14/14/14
f 100/100/100 13/13/13 14/14/14
f 11/11/11 12/12/12 93/93/93
f 93/93/93 94/94/94 86/86/86
f 94/94/94 95/95/95 87/87/87
f 87/87/87 95/95/95 96/96/96
f 96/96/96 97/97/97 89/89/89
f 97/97/97 98/98/98 90/90/90
f 90/90/90 98/98/98 99/99/99
f 91/91/91 99/99/99 100/100/100
f 10/10/10 11/11/11 85/85/85
f 77/77/77 85/85/85 86/86/86
f 78/78/78 86/86/86 87/87/87
f 79/79/79 87/87/87 88/88/88
f 88/88/88 89/89/89 81/81/81
f 81/81/81 89/89/89 90/90/90
f 82/82/82 90/90/90 91/91/91
f 91/91/91 92/92/92 84/84/84
f 10/10/10 77/77/77 69/69/69
f 69/69/69 77/77/77 78/78/78
f 70/70/70 78/78/78 79/79/79
f 79/79/79 80/80/80 72/72/72
f 72/72/72 80/80/80 81/81/81
f 73/73/73 81/81/81 82/82/82
f 82/82/82 83/83/83 75/75/75
f 83/83/83 84/84/84 76/76/76
f 9/9/9 69/69/69 61/61/61
f 69/69/69 70/70/70 62/62/62
f 62/62/62 70/70/70 71/71/71
f 63/63/63 71/71/71 72/72/72
f 72/72/72 73/73/73 65/65/65
f 65/65/65 73/73/73 74/74/74
f 66/66/66 74/74/74 75/75/75
f 67/67/67 75/75/75 76/76/76
f 8/8/8 61/61/61 53/53/53
f 53/53/53 61/61/61 62/62/62
f 54/54/54 62/62/62 63/63/63
f 55/55/55 63/63/63 64/64/64
f 64/64/64 65/65/65 57/57/57
f 57/57/57 65/65/65 66/66/66
f 58/58/58 66/66/66 67/67/67
f 59/59/59 67/67/67 68/68/68
f 6/6/6 7/7/7 53/53/53
f 45/45/45 53/53/53 54/54/54
f 54/54/54 55/55/55 47/47/47
f 55/55/55 56/56/56 48/48/48
f 56/56/56 57/57/57 49/49/49
f 49/49/49 57/57/57 58/58/58
f 58/58/58 59/59/59 51/51/51
f 59/59/59 60/60/60 52/52/52
f 6/6/6 45/45/45 37/37/37
f 45/45/45 46/46/46 38/38/38
f 46/46/46 47/47/47 39/39/39
f 39/39/39 47/47/47 48/48/48
f 40/40/40 48/48/48 49/49/49
f 41/41/41 49/49/49 50/50/50
f 50/50/50 51/51/51 43/43/43
f 51/51/51 52/52/52 44/44/44
f 5/5/5 37/37/37 28/28/28
f 28/28/28 37/37/37 38/38/38
f 27/27/27 38/38/38 39/39/39
f 26/26/26 39/39/39 40/40/40
f 40/40/40 41/41/41 24/24/24
f 41/41/41 42/42/42 23/23/23
f 23/23/23 42/42/42 43/43/43
f 43/43/43 44/44/44 21/21/21
f 2/2/2 29/29/29 93/93/93
f 93/93/93 29/29/29 30/30/30
f 30/30/30 31/31/31 95/95/95
f 31/31/31 32/32/32 96/96/96
f 32/32/32 33/33/33 97/97/97
f 33/33/33 34/34/34 98/98/98
f 98/98/98 34/34/34 35/35/35
f 99/99/99 35/35/35 36/36/36
