o GNATVCloth
v -4.90074 -5.00291 0.318059
v 5.17185 -4.99036 0.342575
v -5.01298 5.02105 0.004229
v 4.98702 5.02105 0.004229
v -3.78978 -5.01809 0.266625
v -2.67305 -5.03904 0.251424
v -1.55342 -5.06475 0.192751
v -0.429191 -5.08012 0.175125
v 0.696593 -5.08534 0.211087
v 1.81999 -5.07833 0.194979
v 2.94218 -5.05598 0.192315
v 4.06065 -5.02696 0.253328
v 3.8617 4.94188 0.0553884
v 2.75366 4.86325 0.208717
v 1.64194 4.76226 0.280039
v 0.628891 4.72646 0.241378
v -0.487965 4.79395 0.225478
v -1.60527 4.8626 0.167436
v -2.73445 4.93518 0.139135
v -3.86883 4.9769 0.090412
v -4.97657 3.90531 0.0364815
v -4.96041 2.78933 0.0688134
v -4.94961 1.67413 0.104799
v -4.9402 0.559224 0.138982
v -4.927 -0.554385 0.192547
v -4.91136 -1.66648 0.253816
v -4.89675 -2.77831 0.294018
v -4.89149 -3.8901 0.299614
v 5.15286 -3.88417 0.259576
v 5.13413 -2.77213 0.250767
v 5.11676 -1.65918 0.232594
v 5.10267 -0.548185 0.178721
v 5.08738 0.563433 0.126138
v 5.06893 1.6771 0.0862748
v 5.04524 2.79144 0.0525264
v 5.01615 3.9062 0.0284932
v -3.72049 -3.87246 0.22117
v -3.68686 -3.22258 0.216799
v -3.56427 -1.93307 0.157355
v -4.0443 -0.277827 0.157903
v -4.08284 0.738845 0.147941
v -4.08558 1.52487 0.123016
v -4.03789 2.81765 0.0813619
v -3.89979 3.90304 0.0129735
v -2.59126 -4.01985 0.18402
v -2.67862 -2.75033 0.155122
v -2.56738 -2.16012 0.121164
v -2.66957 -0.618841 0.219552
v -2.7204 0.512589 0.211016
v -2.66729 1.55912 0.166591
v -2.80721 2.90023 0.0642396
v -2.71705 3.58647 0.178755
v -1.5282 -4.24728 0.188246
v -1.37704 -2.93312 0.17413
v -1.78949 -1.64258 0.234403
v -1.7863 -0.8459 0.218284
v -1.45409 0.652014 0.14789
v -1.93126 1.70379 0.147963
v -1.67153 2.74928 0.199279
v -1.51635 3.75554 0.193203
v -0.103598 -4.33643 0.160851
v -0.463993 -2.89582 0.16724
v -0.441388 -1.75544 0.202222
v -0.749683 -0.774327 0.170066
v -0.529498 0.442405 0.167606
v -0.306827 1.47812 0.189603
v -0.511635 2.67629 0.197663
v -0.701505 3.53203 0.184745
v 0.866234 -3.91297 0.189268
v 0.933098 -2.62096 0.167755
v 0.633241 -1.83039 0.176512
v 0.698633 -0.494002 0.15734
v 0.660661 0.414608 0.181648
v 0.367396 1.52835 0.192209
v 0.588341 2.50573 0.189608
v 0.602385 3.71339 0.174593
v 2.08326 -3.67765 0.186989
v 1.79851 -2.86958 0.165062
v 1.9375 -1.94292 0.190732
v 2.07587 -0.411332 0.182793
v 2.05172 0.269629 0.157836
v 1.89527 1.53458 0.127072
v 1.4775 2.81346 0.21987
v 1.5358 3.59752 0.171886
v 2.92862 -3.94384 0.175752
v 3.22582 -2.85912 0.232963
v 3.07148 -1.98384 0.132703
v 2.81892 -0.524473 0.224404
v 3.05658 0.26849 0.207268
v 3.14717 1.56335 0.143164
v 2.84366 3.12618 0.155562
v 2.79578 3.47737 0.218497
v 4.05802 -3.98297 0.176128
v 3.78826 -2.73346 0.245046
v 3.98944 -1.69321 0.223314
v 3.91757 -0.739123 0.167486
v 3.97036 0.26834 0.16554
v 4.25168 1.78972 0.133133
v 4.20135 2.75294 0.096396
v 4.06862 3.87652 0.0579982
vt 0.0001 0.0001
vt 0.9999 0.0001
vt 0.0001 0.9999
vt 0.9999 0.9999
vt 0.111189 0.0001
vt 0.222278 0.0001
vt 0.333367 0.0001
vt 0.444455 0.0001
vt 0.555544 0.0001
vt 0.666633 0.0001
vt 0.777722 0.0001
vt 0.888811 0.0001
vt 0.888811 0.9999
vt 0.777722 0.9999
vt 0.666633 0.9999
vt 0.555544 0.9999
vt 0.444455 0.9999
vt 0.333367 0.9999
vt 0.222278 0.9999
vt 0.111189 0.9999
vt 0.0001 0.888811
vt 0.0001 0.777722
vt 0.0001 0.666633
vt 0.0001 0.555544
vt 0.0001 0.444456
vt 0.0001 0.333367
vt 0.0001 0.222278
vt 0.0001 0.111189
vt 0.9999 0.111189
vt 0.9999 0.222278
vt 0.9999 0.333367
vt 0.9999 0.444456
vt 0.9999 0.555544
vt 0.9999 0.666633
vt 0.9999 0.777722
vt 0.9999 0.888811
vt 0.11727 0.115399
vt 0.120778 0.180369
vt 0.134636 0.309595
vt 0.088728 0.473895
vt 0.085886 0.575352
vt 0.086211 0.65375
vt 0.092207 0.78313
vt 0.106956 0.892282
vt 0.22987 0.102869
vt 0.221803 0.229552
vt 0.233521 0.288953
vt 0.225541 0.443179
vt 0.221596 0.556167
vt 0.227801 0.661237
vt 0.214896 0.795203
vt 0.22542 0.865181
vt 0.335524 0.082127
vt 0.351143 0.213907
vt 0.311934 0.342467
vt 0.313159 0.422214
vt 0.347791 0.572605
vt 0.301482 0.677733
vt 0.329031 0.783086
vt 0.344903 0.885466
vt 0.476837 0.074882
vt 0.441952 0.218774
vt 0.445749 0.333088
vt 0.416414 0.43099
vt 0.439746 0.552976
vt 0.463203 0.656843
vt 0.444252 0.77653
vt 0.426137 0.866051
vt 0.573419 0.117409
vt 0.581125 0.246686
vt 0.552512 0.326
vt 0.561075 0.459693
vt 0.558356 0.550596
vt 0.530299 0.662189
vt 0.553275 0.760113
vt 0.555478 0.888821
vt 0.694433 0.13996
vt 0.667048 0.221666
vt 0.681985 0.314267
vt 0.698218 0.467249
vt 0.696819 0.535952
vt 0.68253 0.662758
vt 0.642062 0.791726
vt 0.648523 0.877957
vt 0.778029 0.111667
vt 0.809426 0.219523
vt 0.794923 0.307783
vt 0.772028 0.454562
vt 0.796846 0.533374
vt 0.807262 0.663157
vt 0.778581 0.821037
vt 0.775122 0.858219
vt 0.890224 0.104741
vt 0.865679 0.23076
vt 0.887326 0.334104
vt 0.881307 0.429754
vt 0.887973 0.53063
vt 0.918106 0.681428
vt 0.915043 0.778027
vt 0.904815 0.89094
vn 0.0464615 0.0161687 0.998789
vn -0.0822996 0.0732254 0.993914
vn -0.0279277 -0.0199906 0.99941
vn 0.0375227 0.0168304 0.999154
vn 0.0423627 0.0301758 0.998646
vn 0.029442 0.0426481 0.998656
vn 0.0340889 0.00445677 0.999409
vn 0.00129022 0.016201 0.999868
vn -0.0191503 0.0246706 0.999512
vn 0.00783819 0.0100112 0.999919
vn -0.0180013 0.0344583 0.999244
vn -0.0692383 0.0733957 0.994897
vn 0.0899225 0.0199045 0.99575
vn 0.0735239 -0.0134157 0.997203
vn 0.0189328 -0.0941517 0.995378
vn -0.019415 -0.0734079 0.997113
vn -0.0137158 -0.0282758 0.999506
vn -0.0371892 0.020267 0.999103
vn -0.0542958 0.00184706 0.998523
vn -0.0615035 -0.0700259 0.995647
vn 0.009774 0.0394897 0.999172
vn -0.0145288 0.0304271 0.999431
vn -0.0156073 0.0317525 0.999374
vn -0.00172896 0.0293891 0.999567
vn 0.022951 0.0518096 0.998393
vn 0.0587525 0.0380069 0.997549
vn 0.0740247 0.026978 0.996891
vn 0.0612967 0.0150799 0.998006
vn -0.0795189 0.0399066 0.996034
vn -0.0237232 -0.00298961 0.999714
vn -0.0119728 0.0406943 0.9991
vn -0.00148207 0.0327481 0.999463
vn 0.038697 0.0332774 0.998697
vn 0.061897 0.034127 0.997499
vn 0.0541444 0.0316843 0.99803
vn 0.0370675 0.0276908 0.998929
vn 0.0443993 0.02906 0.998591
vn 0.0556654 0.0200525 0.998248
vn 0.0421217 0.0159107 0.998986
vn -0.00393432 0.0191486 0.999809
vn -0.0266798 0.0259151 0.999308
vn -0.0234925 0.0323315 0.999201
vn -0.00508679 0.0465435 0.998903
vn -0.0538647 -0.014517 0.998443
vn 0.0200445 0.031987 0.999287
vn 0.0239349 0.0394715 0.998934
vn -0.0258504 -0.0203326 0.999459
vn -0.0263212 -0.0188559 0.999476
vn -0.00193033 0.0236595 0.999718
vn -0.0109902 0.050846 0.998646
vn -0.067511 -0.0148601 0.997608
vn -0.094684 -0.0444144 0.994516
vn 0.0175462 0.0151218 0.999732
vn -0.0109869 -0.00655481 0.999918
vn -0.0154196 -0.0175073 0.999728
vn 0.0289485 0.0243842 0.999283
vn 0.0107922 0.0121271 0.999868
vn -0.0146196 0.00699637 0.999869
vn -0.0430336 -0.0309593 0.998594
vn -0.0151172 0.0082532 0.999852
vn -0.0114442 0.0115462 0.999868
vn 0.00432574 -0.00797608 0.999959
vn 0.0175873 -0.00235259 0.999843
vn 0.0178753 0.0230262 0.999575
vn -0.0105173 -0.0117413 0.999876
vn -0.0132474 -0.0104162 0.999858
vn -0.000882482 -0.00355911 0.999993
vn 0.00669364 -0.00614085 0.999959
vn -0.00694431 0.0135688 0.999884
vn -0.00222435 -0.00401489 0.99999
vn 0.00527637 -0.00586257 0.999969
vn -0.0014187 0.00640773 0.999978
vn 0.0104742 -0.00751486 0.999917
vn 0.0133369 -0.00701029 0.999886
vn 0.00128736 -0.00980323 0.999951
vn -0.00345698 -0.00908133 0.999953
vn -0.00775538 -0.00138317 0.999969
vn -0.00765084 0.0159897 0.999843
vn -0.000129026 -0.0143302 0.999897
vn -0.0361297 0.0219178 0.999107
vn -0.0212093 0.0261658 0.999433
vn 0.018618 -0.0134703 0.999736
vn 0.0113343 0.000750145 0.999936
vn -0.00196461 -0.0447794 0.998995
vn 0.00226515 -0.0142246 0.999896
vn -0.025824 0.0101315 0.999615
vn -0.0255878 0.0226764 0.999415
vn -0.00188415 -0.00382568 0.999991
vn 0.00920924 0.0281531 0.999561
vn 0.00292046 0.0243635 0.999699
vn 0.0423563 -0.0428611 0.998183
vn 0.0509017 -0.0801693 0.995481
vn -0.0393308 0.00953012 0.999181
vn -0.0350171 0.0113203 0.999323
vn -0.0495366 0.0375012 0.998068
vn -0.00163181 0.0153871 0.99988
vn 0.0233481 0.0219534 0.999486
vn 0.0351984 0.0305149 0.998914
vn 0.0384058 0.0300887 0.998809
vn 0.0840907 -7.6913e-06 0.996458
f 100/100/100 4/4/4 13/13/13
f 44/44/44 3/3/3 21/21/21
f 44/44/44 19/19/19 20/20/20
f 60/60/60 19/19/19 52/52/52
f 60/60/60 17/17/17 18/18/18
f 76/76/76 17/17/17 68/68/68
f 84/84/84 16/16/16 76/76/76
f 84/84/84 14/14/14 15/15/15
f 100/100/100 14/14/14 92/92/92
f 11/11/11 93/93/93 85/85/85
f 93/93/93 86/86/86 85/85/85
f 94/94/94 87/87/87 86/86/86
f 87/87/87 96/96/96 88/88/88
f 96/96/96 89/89/89 88/88/88
f 97/97/97 90/90/90 89/89/89
f 90/90/90 99/99/99 91/91/91
f 91/91/91 100/100/100 92/92/92
f 10/10/10 85/85/85 77/77/77
f 77/77/77 86/86/86 78/78/78
f 78/78/78 87/87/87 79/79/79
f 79/79/79 88/88/88 80/80/80
f 88/88/88 81/81/81 80/80/80
f 81/81/81 90/90/90 82/82/82
f 82/82/82 91/91/91 83/83/83
f 91/91/91 84/84/84 83/83/83
f 10/10/10 69/69/69 9/9/9
f 69/69/69 78/78/78 70/70/70
f 70/70/70 79/79/79 71/71/71
f 79/79/79 72/72/72 71/71/71
f 72/72/72 81/81/81 73/73/73
f 73/73/73 82/82/82 74/74/74
f 82/82/82 75/75/75 74/74/74
f 83/83/83 76/76/76 75/75/75
f 9/9/9 61/61/61 8/8/8
f 69/69/69 62/62/62 61/61/61
f 62/62/62 71/71/71 63/63/63
f 63/63/63 72/72/72 64/64/64
f 72/72/72 65/65/65 64/64/64
f 65/65/65 74/74/74 66/66/66
f 66/66/66 75/75/75 67/67/67
f 67/67/67 76/76/76 68/68/68
f 8/8/8 53/53/53 7/7/7
f 53/53/53 62/62/62 54/54/54
f 54/54/54 63/63/63 55/55/55
f 55/55/55 64/64/64 56/56/56
f 64/64/64 57/57/57 56/56/56
f 57/57/57 66/66/66 58/58/58
f 58/58/58 67/67/67 59/59/59
f 59/59/59 68/68/68 60/60/60
f 6/6/6 53/53/53 45/45/45
f 45/45/45 54/54/54 46/46/46
f 54/54/54 47/47/47 46/46/46
f 55/55/55 48/48/48 47/47/47
f 56/56/56 49/49/49 48/48/48
f 49/49/49 58/58/58 50/50/50
f 58/58/58 51/51/51 50/50/50
f 59/59/59 52/52/52 51/51/51
f 6/6/6 37/37/37 5/5/5
f 45/45/45 38/38/38 37/37/37
f 46/46/46 39/39/39 38/38/38
f 39/39/39 48/48/48 40/40/40
f 40/40/40 49/49/49 41/41/41
f 41/41/41 50/50/50 42/42/42
f 50/50/50 43/43/43 42/42/42
f 51/51/51 44/44/44 43/43/43
f 5/5/5 28/28/28 1/1/1
f 28/28/28 38/38/38 27/27/27
f 27/27/27 39/39/39 26/26/26
f 26/26/26 40/40/40 25/25/25
f 40/40/40 24/24/24 25/25/25
f 41/41/41 23/23/23 24/24/24
f 23/23/23 43/43/43 22/22/22
f 43/43/43 21/21/21 22/22/22
f 2/2/2 93/93/93 12/12/12
f 93/93/93 30/30/30 94/94/94
f 30/30/30 95/95/95 94/94/94
f 31/31/31 96/96/96 95/95/95
f 32/32/32 97/97/97 96/96/96
f 33/33/33 98/98/98 97/97/97
f 98/98/98 35/35/35 99/99/99
f 99/99/99 36/36/36 100/100/100
f 100/100/100 36/36/36 4/4/4
f 44/44/44 20/20/20 3/3/3
f 44/44/44 52/52/52 19/19/19
f 60/60/60 18/18/18 19/19/19
f 60/60/60 68/68/68 17/17/17
f 76/76/76 16/16/16 17/17/17
f 84/84/84 15/15/15 16/16/16
f 84/84/84 92/92/92 14/14/14
f 100/100/100 13/13/13 14/14/14
f 11/11/11 12/12/12 93/93/93
f 93/93/93 94/94/94 86/86/86
f 94/94/94 95/95/95 87/87/87
f 87/87/87 95/95/95 96/96/96
f 96/96/96 97/97/97 89/89/89
f 97/97/97 98/98/98 90/90/90
f 90/90/90 98/98/98 99/99/99
f 91/91/91 99/99/99 100/100/100
f 10/10/10 11/11/11 85/85/85
f 77/77/77 85/85/85 86/86/86
f 78/78/78 86/86/86 87/87/87
f 79/79/79 87/87/87 88/88/88
f 88/88/88 89/89/89 81/81/81
f 81/81/81 89/89/89 90/90/90
f 82/82/82 90/90/90 91/91/91
f 91/91/91 92/92/92 84/84/84
f 10/10/10 77/77/77 69/69/69
f 69/69/69 77/77/77 78/78/78
f 70/70/70 78/78/78 79/79/79
f 79/79/79 80/80/80 72/72/72
f 72/72/72 80/80/80 81/81/81
f 73/73/73 81/81/81 82/82/82
f 82/82/82 83/83/83 75/75/75
f 83/83/83 84/84/84 76/76/76
f 9/9/9 69/69/69 61/61/61
f 69/69/69 70/70/70 62/62/62
f 62/62/62 70/70/70 71/71/71
f 63/63/63 71/71/71 72/72/72
f 72/72/72 73/73/73 65/65/65
f 65/65/65 73/73/73 74/74/74
f 66/66/66 74/74/74 75/75/75
f 67/67/67 75/75/75 76/76/76
f 8/8/8 61/61/61 53/53/53
f 53/53/53 61/61/61 62/62/62
f 54/54/54 62/62/62 63/63/63
f 55/55/55 63/63/63 64/64/64
f 64/64/64 65/65/65 57/57/57
f 57/57/57 65/65/65 66/66/66
f 58/58/58 66/66/66 67/67/67
f 59/59/59 67/67/67 68/68/68
f 6/6/6 7/7/7 53/53/53
f 45/45/45 53/53/53 54/54/54
f 54/54/54 55/55/55 47/47/47
f 55/55/55 56/56/56 48/48/48
f 56/56/56 57/57/57 49/49/49
f 49/49/49 57/57/57 58/58/58
f 58/58/58 59/59/59 51/51/51
f 59/59/59 60/60/60 52/52/52
f 6/6/6 45/45/45 37/37/37
f 45/45/45 46/46/46 38/38/38
f 46/46/46 47/47/47 39/39/39
f 39/39/39 47/47/47 48/48/48
f 40/40/40 48/48/48 49/49/49
f 41/41/41 49/49/49 50/50/50
f 50/50/50 51/51/51 43/43/43
f 51/51/51 52/52/52 44/44/44
f 5/5/5 37/37/37 28/28/28
f 28/28/28 37/37/37 38/38/38
f 27/27/27 38/38/38 39/39/39
f 26/26/26 39/39/39 40/40/40
f 40/40/40 41/41/41 24/24/24
f 41/41/41 42/42/42 23/23/23
f 23/23/23 42/42/42 43/43/43
f 43/43/43 44/44/44 21/21/21
f 2/2/2 29/29/29 93/93/93
f 93/93/93 29/29/29 30/30/30
f 30/30/30 31/31/31 95/95/95
f 31/31/31 32/32/32 96/96/96
f 32/32/32 33/33/33 97/97/97
f 33/33/33 34/34/34 98/98/98
f 98/98/98 34/34/34 35/35/35
f 99/99/99 35/35/35 36/36/36
