o GNATVCloth
v -5.01853 -4.97643 0.607967
v 5.06071 -4.9857 0.400206
v -5.01298 5.02105 0.004229
v 4.98702 5.02105 0.004229
v -3.91087 -5.01281 0.497676
v -2.79111 -5.04423 0.484472
v -1.66871 -5.06858 0.451861
v -0.544333 -5.08158 0.454552
v 0.580843 -5.07856 0.48159
v 1.70351 -5.059 0.457308
v 2.82536 -5.04248 0.43903
v 3.94454 -5.01539 0.3768
v 3.87139 4.89952 0.214755
v 2.76216 4.79892 0.408089
v 1.64243 4.74593 0.321001
v 0.521633 4.70709 0.314586
v -0.57839 4.68022 0.513454
v -1.69382 4.69732 0.592355
v -2.8126 4.75483 0.499275
v -3.91108 4.85968 0.258829
v -4.97212 3.90851 0.0836523
v -4.96674 2.7943 0.134573
v -4.9679 1.68075 0.185796
v -4.9753 0.567523 0.231263
v -4.98127 -0.545309 0.26845
v -4.98757 -1.65754 0.309428
v -4.99722 -2.76794 0.376067
v -5.00729 -3.87727 0.461718
v 5.04145 -3.87766 0.331151
v 5.02702 -2.77202 0.213199
v 5.01555 -1.65996 0.200158
v 5.00329 -0.547136 0.199117
v 4.99326 0.565867 0.195246
v 4.98328 1.67958 0.168143
v 4.97702 2.79379 0.132085
v 4.96863 3.90695 0.0640756
v -3.83282 -3.86756 0.405162
v -3.79533 -3.22498 0.308555
v -3.64319 -1.93707 0.264196
v -4.0954 -0.280256 0.228472
v -4.11634 0.73752 0.180989
v -4.1079 1.52064 0.123583
v -4.0473 2.81045 0.0457669
v -3.92498 3.87709 -0.176487
v -2.70559 -4.03117 0.317426
v -2.77717 -2.7631 0.324137
v -2.65368 -2.17294 0.28645
v -2.7271 -0.626665 0.280697
v -2.75928 0.503189 0.19182
v -2.68344 1.54272 0.0433261
v -2.84457 2.85134 -0.251509
v -2.76737 3.48789 0.0391986
v -1.6427 -4.26157 0.359003
v -1.48161 -2.94788 0.405987
v -1.86984 -1.65377 0.375113
v -1.85123 -0.861266 0.296638
v -1.51434 0.596941 -0.0451566
v -1.98227 1.64384 -0.223106
v -1.70622 2.68194 -0.0933064
v -1.58512 3.58337 0.326754
v -0.218056 -4.33818 0.401992
v -0.568148 -2.90996 0.441545
v -0.527524 -1.7768 0.343624
v -0.817484 -0.803135 0.21896
v -0.591717 0.398392 0.0246893
v -0.364601 1.4177 -0.0168039
v -0.575172 2.57418 0.167484
v -0.762294 3.38846 0.3442
v 0.754084 -3.91147 0.365764
v 0.832179 -2.62565 0.382851
v 0.542421 -1.84532 0.328089
v 0.625756 -0.547506 0.00012594
v 0.597911 0.362605 0.0158411
v 0.308324 1.47179 -0.0281367
v 0.526179 2.43198 0.102133
v 0.548211 3.60381 0.382173
v 1.97131 -3.667 0.309009
v 1.69686 -2.86216 0.414807
v 1.83928 -1.93601 0.404401
v 1.99359 -0.424454 0.158152
v 1.98975 0.235694 -0.0435006
v 1.83583 1.50057 -0.0459057
v 1.41095 2.76636 0.0323339
v 1.49077 3.51955 0.317057
v 2.81539 -3.93407 0.31836
v 3.12201 -2.84908 0.314725
v 2.97079 -1.9694 0.346589
v 2.72445 -0.506458 0.303115
v 2.96958 0.277911 0.173987
v 3.08522 1.54877 -0.0945451
v 2.76543 3.11247 -0.158626
v 2.74847 3.43265 0.0297765
v 3.94353 -3.97565 0.330351
v 3.68493 -2.72283 0.303682
v 3.89257 -1.68316 0.300243
v 3.82259 -0.72772 0.311178
v 3.87715 0.283721 0.279364
v 4.16307 1.80029 0.148033
v 4.14094 2.75301 -0.0220987
v 4.02995 3.87373 -0.132598
vt 0.0001 0.0001
vt 0.9999 0.0001
vt 0.0001 0.9999
vt 0.9999 0.9999
vt 0.111189 0.0001
vt 0.222278 0.0001
vt 0.333367 0.0001
vt 0.444455 0.0001
vt 0.555544 0.0001
vt 0.666633 0.0001
vt 0.777722 0.0001
vt 0.888811 0.0001
vt 0.888811 0.9999
vt 0.777722 0.9999
vt 0.666633 0.9999
vt 0.555544 0.9999
vt 0.444455 0.9999
vt 0.333367 0.9999
vt 0.222278 0.9999
vt 0.111189 0.9999
vt 0.0001 0.888811
vt 0.0001 0.777722
vt 0.0001 0.666633
vt 0.0001 0.555544
vt 0.0001 0.444456
vt 0.0001 0.333367
vt 0.0001 0.222278
vt 0.0001 0.111189
vt 0.9999 0.111189
vt 0.9999 0.222278
vt 0.9999 0.333367
vt 0.9999 0.444456
vt 0.9999 0.555544
vt 0.9999 0.666633
vt 0.9999 0.777722
vt 0.9999 0.888811
vt 0.11727 0.115399
vt 0.120778 0.180369
vt 0.134636 0.309595
vt 0.088728 0.473895
vt 0.085886 0.575352
vt 0.086211 0.65375
vt 0.092207 0.78313
vt 0.106956 0.892282
vt 0.22987 0.102869
vt 0.221803 0.229552
vt 0.233521 0.288953
vt 0.225541 0.443179
vt 0.221596 0.556167
vt 0.227801 0.661237
vt 0.214896 0.795203
vt 0.22542 0.865181
vt 0.335524 0.082127
vt 0.351143 0.213907
vt 0.311934 0.342467
vt 0.313159 0.422214
vt 0.347791 0.572605
vt 0.301482 0.677733
vt 0.329031 0.783086
vt 0.344903 0.885466
vt 0.476837 0.074882
vt 0.441952 0.218774
vt 0.445749 0.333088
vt 0.416414 0.43099
vt 0.439746 0.552976
vt 0.463203 0.656843
vt 0.444252 0.77653
vt 0.426137 0.866051
vt 0.573419 0.117409
vt 0.581125 0.246686
vt 0.552512 0.326
vt 0.561075 0.459693
vt 0.558356 0.550596
vt 0.530299 0.662189
vt 0.553275 0.760113
vt 0.555478 0.888821
vt 0.694433 0.13996
vt 0.667048 0.221666
vt 0.681985 0.314267
vt 0.698218 0.467249
vt 0.696819 0.535952
vt 0.68253 0.662758
vt 0.642062 0.791726
vt 0.648523 0.877957
vt 0.778029 0.111667
vt 0.809426 0.219523
vt 0.794923 0.307783
vt 0.772028 0.454562
vt 0.796846 0.533374
vt 0.807262 0.663157
vt 0.778581 0.821037
vt 0.775122 0.858219
vt 0.890224 0.104741
vt 0.865679 0.23076
vt 0.887326 0.334104
vt 0.881307 0.429754
vt 0.887973 0.53063
vt 0.918106 0.681428
vt 0.915043 0.778027
vt 0.904815 0.89094
vn 0.102471 0.130169 0.986182
vn -0.0142009 0.0533478 0.998475
vn -0.00984877 -0.165164 0.986217
vn 0.000508146 -0.118837 0.992914
vn 0.0546448 0.0957456 0.993905
vn 0.0352634 0.127557 0.991204
vn 0.0151296 0.113815 0.993387
vn -0.0169657 0.0923858 0.995579
vn -0.00366977 0.0922229 0.995732
vn 0.0204434 0.101746 0.9946
vn 0.0208178 0.0871103 0.995981
vn 0.0161391 0.0446387 0.998873
vn 0.198688 -0.286644 0.937208
vn 0.13176 -0.205146 0.969822
vn -0.0417665 0.00195189 0.999125
vn 0.0818479 0.0416884 0.995773
vn 0.0463449 -0.104108 0.993486
vn -0.0137502 -0.233177 0.972337
vn -0.201294 -0.328436 0.922828
vn -0.246684 -0.389622 0.887323
vn 0.194164 0.0987366 0.975987
vn 0.095243 0.0457745 0.994401
vn 0.0783588 0.053549 0.995486
vn 0.0448458 0.0403894 0.998177
vn 0.0346328 0.0348964 0.998791
vn 0.0401358 0.0428701 0.998274
vn 0.0655944 0.0539943 0.996384
vn 0.0702691 0.107383 0.991731
vn -0.0082265 0.084038 0.996429
vn 0.0535234 0.0360205 0.997917
vn 0.0905244 0.00322361 0.995889
vn 0.0862571 0.010848 0.996214
vn 0.0364016 0.0346938 0.998735
vn -0.020356 0.028182 0.999396
vn -0.130728 0.0868543 0.987607
vn -0.199184 0.0633771 0.97791
vn 0.0608406 0.119901 0.99092
vn 0.041669 0.0707015 0.996627
vn 0.0079931 0.0338339 0.999395
vn 0.0150451 0.0409333 0.999049
vn 0.0427144 0.0699239 0.996637
vn 0.0695025 0.0645176 0.995493
vn 0.147515 0.113515 0.982524
vn -0.0530808 -0.162566 0.985269
vn 0.0118043 0.0694125 0.997518
vn -0.0337739 0.0326361 0.998897
vn -0.0599574 0.0265282 0.997848
vn -0.0293021 0.0447046 0.99857
vn 0.0973678 0.126351 0.987195
vn 0.169409 0.145837 0.974696
vn 0.0264278 -0.0327325 0.999115
vn -0.227478 -0.366529 0.90217
vn -0.0163272 0.0538249 0.998417
vn -0.0461826 0.0164988 0.998797
vn -0.0131717 0.0592763 0.998155
vn 0.0625163 0.135536 0.988798
vn 0.0309297 0.16437 0.985914
vn 0.0266237 0.0568846 0.998026
vn -0.186515 -0.268769 0.944974
vn -0.0969744 -0.291069 0.951774
vn -0.00882025 0.0421331 0.999073
vn 0.00332737 0.0218985 0.999755
vn 0.0316682 0.124813 0.991675
vn 0.0622156 0.152269 0.986379
vn 0.00871043 0.0701241 0.9975
vn -0.0406038 -0.0440373 0.998204
vn -0.0919204 -0.184152 0.97859
vn -0.0822844 -0.227767 0.970233
vn 0.0224806 0.0208723 0.999529
vn -0.0113875 0.0236924 0.999654
vn -0.00395581 0.141551 0.989923
vn 0.00243238 0.153434 0.988156
vn 0.0221746 0.0116927 0.999686
vn 0.0151397 -0.0313773 0.999393
vn 0.0606692 -0.154703 0.986097
vn 0.0684631 -0.149712 0.986356
vn 0.035479 -0.000965102 0.99937
vn 0.0313104 -0.0382387 0.998778
vn -0.0467642 0.101061 0.993781
vn -0.148155 0.231492 0.961489
vn -0.0882653 0.148017 0.985038
vn 0.0540051 -0.0110744 0.998479
vn 0.131916 -0.202575 0.970341
vn 0.0885959 -0.207605 0.974193
vn 0.00193125 0.066211 0.997804
vn 0.0270657 -0.020947 0.999414
vn 0.04342 0.000123225 0.999057
vn -0.0797173 0.153486 0.98493
vn -0.130132 0.17192 0.976478
vn -0.12289 0.116499 0.985559
vn 0.0989445 -0.177255 0.979179
vn 0.211389 -0.377624 0.901507
vn 0.0102017 0.0539675 0.998491
vn 0.0457678 0.00214969 0.99895
vn 0.0698658 -0.00342166 0.997551
vn 0.0334367 0.0341206 0.998858
vn -0.0430234 0.0823033 0.995678
vn -0.112862 0.100024 0.988563
vn -0.167009 0.0969001 0.981182
vn 0.0580524 -0.162975 0.984921
f 100/100/100 4/4/4 13/13/13
f 44/44/44 3/3/3 21/21/21
f 44/44/44 19/19/19 20/20/20
f 60/60/60 19/19/19 52/52/52
f 60/60/60 17/17/17 18/18/18
f 76/76/76 17/17/17 68/68/68
f 84/84/84 16/16/16 76/76/76
f 84/84/84 14/14/14 15/15/15
f 100/100/100 14/14/14 92/92/92
f 11/11/11 93/93/93 85/85/85
f 93/93/93 86/86/86 85/85/85
f 94/94/94 87/87/87 86/86/86
f 87/87/87 96/96/96 88/88/88
f 96/96/96 89/89/89 88/88/88
f 97/97/97 90/90/90 89/89/89
f 90/90/90 99/99/99 91/91/91
f 91/91/91 100/100/100 92/92/92
f 10/10/10 85/85/85 77/77/77
f 77/77/77 86/86/86 78/78/78
f 78/78/78 87/87/87 79/79/79
f 79/79/79 88/88/88 80/80/80
f 88/88/88 81/81/81 80/80/80
f 81/81/81 90/90/90 82/82/82
f 82/82/82 91/91/91 83/83/83
f 91/91/91 84/84/84 83/83/83
f 10/10/10 69/69/69 9/9/9
f 69/69/69 78/78/78 70/70/70
f 70/70/70 79/79/79 71/71/71
f 79/79/79 72/72/72 71/71/71
f 72/72/72 81/81/81 73/73/73
f 73/73/73 82/82/82 74/74/74
f 82/82/82 75/75/75 74/74/74
f 83/83/83 76/76/76 75/75/75
f 9/9/9 61/61/61 8/8/8
f 69/69/69 62/62/62 61/61/61
f 62/62/62 71/71/71 63/63/63
f 63/63/63 72/72/72 64/64/64
f 72/72/72 65/65/65 64/64/64
f 65/65/65 74/74/74 66/66/66
f 66/66/66 75/75/75 67/67/67
f 67/67/67 76/76/76 68/68/68
f 8/8/8 53/53/53 7/7/7
f 53/53/53 62/62/62 54/54/54
f 54/54/54 63/63/63 55/55/55
f 55/55/55 64/64/64 56/56/56
f 64/64/64 57/57/57 56/56/56
f 57/57/57 66/66/66 58/58/58
f 58/58/58 67/67/67 59/59/59
f 59/59/59 68/68/68 60/60/60
f 6/6/6 53/53/53 45/45/45
f 45/45/45 54/54/54 46/46/46
f 54/54/54 47/47/47 46/46/46
f 55/55/55 48/48/48 47/47/47
f 56/56/56 49/49/49 48/48/48
f 49/49/49 58/58/58 50/50/50
f 58/58/58 51/51/51 50/50/50
f 59/59/59 52/52/52 51/51/51
f 6/6/6 37/37/37 5/5/5
f 45/45/45 38/38/38 37/37/37
f 46/46/46 39/39/39 38/38/38
f 39/39/39 48/48/48 40/40/40
f 40/40/40 49/49/49 41/41/41
f 41/41/41 50/50/50 42/42/42
f 50/50/50 43/43/43 42/42/42
f 51/51/51 44/44/44 43/43/43
f 5/5/5 28/28/28 1/1/1
f 28/28/28 38/38/38 27/27/27
f 27/27/27 39/39/39 26/26/26
f 26/26/26 40/40/40 25/25/25
f 40/40/40 24/24/24 25/25/25
f 41/41/41 23/23/23 24/24/24
f 23/23/23 43/43/43 22/22/22
f 43/43/43 21/21/21 22/22/22
f 2/2/2 93/93/93 12/12/12
f 93/93/93 30/30/30 94/94/94
f 30/30/30 95/95/95 94/94/94
f 31/31/31 96/96/96 95/95/95
f 32/32/32 97/97/97 96/96/96
f 33/33/33 98/98/98 97/97/97
f 98/98/98 35/35/35 99/99/99
f 99/99/99 36/36/36 100/100/100
f 100/100/100 36/36/36 4/4/4
f 44/44/44 20/20/20 3/3/3
f 44/44/44 52/52/52 19/19/19
f 60/60/60 18/18/18 19/19/19
f 60/60/60 68/68/68 17/17/17
f 76/76/76 16/16/16 17/17/17
f 84/84/84 15/15/15 16/16/16
f 84/84/84 92/92/92 14/14/14
f 100/100/100 13/13/13 14/14/14
f 11/11/11 12/12/12 93/93/93
f 93/93/93 94/94/94 86/86/86
f 94/94/94 95/95/95 87/87/87
f 87/87/87 95/95/95 96/96/96
f 96/96/96 97/97/97 89/89/89
f 97/97/97 98/98/98 90/90/90
f 90/90/90 98/98/98 99/99/99
f 91/91/91 99/99/99 100/100/100
f 10/10/10 11/11/11 85/85/85
f 77/77/77 85/85/85 86/86/86
f 78/78/78 86/86/86 87/87/87
f 79/79/79 87/87/87 88/88/88
f 88/88/88 89/89/89 81/81/81
f 81/81/81 89/89/89 90/90/90
f 82/82/82 90/90/90 91/91/91
f 91/91/91 92/92/92 84/84/84
f 10/10/10 77/77/77 69/69/69
f 69/69/69 77/77/77 78/78/78
f 70/70/70 78/78/78 79/79/79
f 79/79/79 80/80/80 72/72/72
f 72/72/72 80/80/80 81/81/81
f 73/73/73 81/81/81 82/82/82
f 82/82/82 83/83/83 75/75/75
f 83/83/83 84/84/84 76/76/76
f 9/9/9 69/69/69 61/61/61
f 69/69/69 70/70/70 62/62/62
f 62/62/62 70/70/70 71/71/71
f 63/63/63 71/71/71 72/72/72
f 72/72/72 73/73/73 65/65/65
f 65/65/65 73/73/73 74/74/74
f 66/66/66 74/74/74 75/75/75
f 67/67/67 75/75/75 76/76/76
f 8/8/8 61/61/61 53/53/53
f 53/53/53 61/61/61 62/62/62
f 54/54/54 62/62/62 63/63/63
f 55/55/55 63/63/63 64/64/64
f 64/64/64 65/65/65 57/57/57
f 57/57/57 65/65/65 66/66/66
f 58/58/58 66/66/66 67/67/67
f 59/59/59 67/67/67 68/68/68
f 6/6/6 7/7/7 53/53/53
f 45/45/45 53/53/53 54/54/54
f 54/54/54 55/55/55 47/47/47
f 55/55/55 56/56/56 48/48/48
f 56/56/56 57/57/57 49/49/49
f 49/49/49 57/57/57 58/58/58
f 58/58/58 59/59/59 51/51/51
f 59/59/59 60/60/60 52/52/52
f 6/6/6 45/45/45 37/37/37
f 45/45/45 46/46/46 38/38/38
f 46/46/46 47/47/47 39/39/39
f 39/39/39 47/47/47 48/48/48
f 40/40/40 48/48/48 49/49/49
f 41/41/41 49/49/49 50/50/50
f 50/50/50 51/51/51 43/43/43
f 51/51/51 52/52/52 44/44/44
f 5/5/5 37/37/37 28/28/28
f 28/28/28 37/37/37 38/38/38
f 27/27/27 38/38/38 39/39/39
f 26/26/26 39/39/39 40/40/40
f 40/40/40 41/41/41 24/24/24
f 41/41/41 42/42/42 23/23/23
f 23/23/23 42/42/42 43/43/43
f 43/43/43 44/44/44 21/21/21
f 2/2/2 29/29/29 93/93/93
f 93/93/93 29/29/29 30/30/30
f 30/30/30 31/31/31 95/95/95
f 31/31/31 32/32/32 96/96/96
f 32/32/32 33/33/33 97/97/97
f 33/33/33 34/34/34 98/98/98
f 98/98/98 34/34/34 35/35/35
f 99/99/99 35/35/35 36/36/36
