o GNATVCloth
v -4.94464 -4.98237 0.406072
v 5.05711 -4.97944 0.431463
v -5.01298 5.02105 0.004229
v 4.98702 5.02105 0.004229
v -3.83456 -4.98849 0.368279
v -2.72396 -5.00222 0.343348
v -1.61321 -4.99414 0.254347
v -0.499881 -5.00693 0.247375
v 0.611917 -5.01178 0.264412
v 1.7248 -5.01493 0.292287
v 2.83951 -5.01019 0.252077
v 3.95262 -4.99734 0.303029
v 3.87106 4.95695 0.110422
v 2.77755 4.89653 0.241871
v 1.67003 4.87762 0.386543
v 0.551444 4.88397 0.342354
v -0.561512 4.87993 0.293044
v -1.64748 4.89665 0.190066
v -2.76655 4.93601 0.177473
v -3.88336 4.97215 0.0604828
v -4.98956 3.90749 0.058652
v -4.97289 2.79302 0.0782282
v -4.9618 1.67941 0.10225
v -4.95629 0.566319 0.136246
v -4.94832 -0.544748 0.202484
v -4.94315 -1.65622 0.258124
v -4.93604 -2.76131 0.376274
v -4.93241 -3.87087 0.444636
v 5.06091 -3.87201 0.351509
v 5.06245 -2.75966 0.331178
v 5.05798 -1.65154 0.247364
v 5.05114 -0.542457 0.15896
v 5.04325 0.568325 0.107076
v 5.03506 1.68091 0.081666
v 5.02174 2.79701 0.0615324
v 5.00391 3.90886 0.0342662
v -3.76704 -3.84227 0.332254
v -3.72958 -3.19311 0.320092
v -3.59864 -1.91139 0.176093
v -4.06381 -0.260126 0.141657
v -4.09984 0.754129 0.16327
v -4.09963 1.53976 0.136973
v -4.0513 2.83201 0.119877
v -3.92137 3.9056 -0.0760783
v -2.64414 -3.9806 0.262358
v -2.72287 -2.71559 0.190872
v -2.60734 -2.12539 0.199473
v -2.70085 -0.587901 0.301556
v -2.74574 0.542222 0.300049
v -2.68383 1.59067 0.223465
v -2.82395 2.9127 -0.0118344
v -2.75648 3.58916 0.173368
v -1.58978 -4.20004 0.26968
v -1.42824 -2.89122 0.252912
v -1.83127 -1.60854 0.335134
v -1.82232 -0.810401 0.307281
v -1.486 0.68544 0.176571
v -1.95693 1.7275 0.0902504
v -1.71148 2.76176 0.278677
v -1.55355 3.75804 0.234106
v -0.173796 -4.27097 0.25603
v -0.518945 -2.8467 0.265537
v -0.487955 -1.70328 0.284272
v -0.790439 -0.734118 0.241236
v -0.564264 0.481259 0.221598
v -0.338543 1.51576 0.264874
v -0.548512 2.69581 0.3171
v -0.738752 3.56071 0.258258
v 0.795262 -3.84847 0.276276
v 0.873819 -2.56239 0.217847
v 0.582586 -1.77684 0.24709
v 0.65969 -0.453834 0.246466
v 0.624814 0.45657 0.252997
v 0.332899 1.56712 0.259403
v 0.551687 2.54115 0.266641
v 0.559802 3.79025 0.257665
v 2.00739 -3.62378 0.246385
v 1.73406 -2.81359 0.229153
v 1.88136 -1.89122 0.27625
v 2.0341 -0.365831 0.241862
v 2.01461 0.320811 0.235571
v 1.85778 1.58065 0.196047
v 1.4423 2.86213 0.290721
v 1.49208 3.71357 0.240445
v 2.84392 -3.89453 0.256652
v 3.15806 -2.8174 0.302221
v 3.01178 -1.94124 0.240206
v 2.77283 -0.479178 0.300159
v 3.01662 0.312575 0.271557
v 3.10826 1.60399 0.190236
v 2.80762 3.17431 0.220681
v 2.76944 3.54066 0.223901
v 3.966 -3.95041 0.290378
v 3.71848 -2.69699 0.338584
v 3.93172 -1.66023 0.290552
v 3.8668 -0.70763 0.230231
v 3.92869 0.299392 0.21381
v 4.21668 1.81363 0.146065
v 4.17292 2.76904 0.0753975
v 4.05338 3.89298 0.00495921
vt 0.0001 0.0001
vt 0.9999 0.0001
vt 0.0001 0.9999
vt 0.9999 0.9999
vt 0.111189 0.0001
vt 0.222278 0.0001
vt 0.333367 0.0001
vt 0.444455 0.0001
vt 0.555544 0.0001
vt 0.666633 0.0001
vt 0.777722 0.0001
vt 0.888811 0.0001
vt 0.888811 0.9999
vt 0.777722 0.9999
vt 0.666633 0.9999
vt 0.555544 0.9999
vt 0.444455 0.9999
vt 0.333367 0.9999
vt 0.222278 0.9999
vt 0.111189 0.9999
vt 0.0001 0.888811
vt 0.0001 0.777722
vt 0.0001 0.666633
vt 0.0001 0.555544
vt 0.0001 0.444456
vt 0.0001 0.333367
vt 0.0001 0.222278
vt 0.0001 0.111189
vt 0.9999 0.111189
vt 0.9999 0.222278
vt 0.9999 0.333367
vt 0.9999 0.444456
vt 0.9999 0.555544
vt 0.9999 0.666633
vt 0.9999 0.777722
vt 0.9999 0.888811
vt 0.11727 0.115399
vt 0.120778 0.180369
vt 0.134636 0.309595
vt 0.088728 0.473895
vt 0.085886 0.575352
vt 0.086211 0.65375
vt 0.092207 0.78313
vt 0.106956 0.892282
vt 0.22987 0.102869
vt 0.221803 0.229552
vt 0.233521 0.288953
vt 0.225541 0.443179
vt 0.221596 0.556167
vt 0.227801 0.661237
vt 0.214896 0.795203
vt 0.22542 0.865181
vt 0.335524 0.082127
vt 0.351143 0.213907
vt 0.311934 0.342467
vt 0.313159 0.422214
vt 0.347791 0.572605
vt 0.301482 0.677733
vt 0.329031 0.783086
vt 0.344903 0.885466
vt 0.476837 0.074882
vt 0.441952 0.218774
vt 0.445749 0.333088
vt 0.416414 0.43099
vt 0.439746 0.552976
vt 0.463203 0.656843
vt 0.444252 0.77653
vt 0.426137 0.866051
vt 0.573419 0.117409
vt 0.581125 0.246686
vt 0.552512 0.326
vt 0.561075 0.459693
vt 0.558356 0.550596
vt 0.530299 0.662189
vt 0.553275 0.760113
vt 0.555478 0.888821
vt 0.694433 0.13996
vt 0.667048 0.221666
vt 0.681985 0.314267
vt 0.698218 0.467249
vt 0.696819 0.535952
vt 0.68253 0.662758
vt 0.642062 0.791726
vt 0.648523 0.877957
vt 0.778029 0.111667
vt 0.809426 0.219523
vt 0.794923 0.307783
vt 0.772028 0.454562
vt 0.796846 0.533374
vt 0.807262 0.663157
vt 0.778581 0.821037
vt 0.775122 0.858219
vt 0.890224 0.104741
vt 0.865679 0.23076
vt 0.887326 0.334104
vt 0.881307 0.429754
vt 0.887973 0.53063
vt 0.918106 0.681428
vt 0.915043 0.778027
vt 0.904815 0.89094
vn 0.033812 -0.0350257 0.998814
vn -0.0882984 0.0428171 0.995173
vn 0.0354432 -0.0372146 0.998679
vn 0.0340202 -0.02751 0.999042
vn 0.0506981 0.00690582 0.99869
vn 0.045843 0.0400692 0.998145
vn 0.0430522 -0.0205569 0.998861
vn -0.000151179 -0.0133758 0.999911
vn -0.0193523 -0.00620743 0.999793
vn 0.00719595 0.0129698 0.99989
vn -0.0133569 0.00147991 0.99991
vn -0.080839 0.0130763 0.996641
vn 0.111124 -0.0791531 0.990649
vn 0.109545 -0.0620652 0.992042
vn 0.0455339 -0.131252 0.990303
vn -0.0238926 -0.0910448 0.99556
vn -0.0418969 -0.0238927 0.998836
vn -0.0519479 0.0343182 0.99806
vn -0.0948836 -0.0232704 0.995216
vn -0.0810579 -0.123743 0.988998
vn 0.068005 0.077599 0.994663
vn -0.0459391 0.0189718 0.998764
vn -0.0392194 0.0248706 0.998921
vn -0.00517336 0.0226517 0.99973
vn 0.0508827 0.054982 0.99719
vn 0.0672129 0.0656031 0.99558
vn 0.0773723 0.0903322 0.992902
vn 0.073371 0.0163493 0.997171
vn -0.058915 0.0452203 0.997238
vn -0.00202229 0.0252545 0.999679
vn 0.0413883 0.0736329 0.996426
vn 0.0637183 0.0465041 0.996884
vn 0.0849445 0.0327121 0.995849
vn 0.0818396 0.021154 0.996421
vn 0.0369752 0.0393972 0.998539
vn -0.0158353 0.0368217 0.999196
vn 0.069784 0.0314539 0.997066
vn 0.0812624 0.0597492 0.9949
vn 0.0181988 0.0375792 0.999128
vn -0.0283467 0.0124134 0.999521
vn -0.0591022 0.0213179 0.998024
vn -0.0490927 0.0242496 0.9985
vn 0.0171949 0.0838446 0.99633
vn -0.0427351 -0.0145677 0.99898
vn 0.0329808 0.049413 0.998234
vn 0.0123373 0.0410981 0.999079
vn -0.0690559 -0.0508264 0.996317
vn -0.0673713 -0.0204061 0.997519
vn 0.00371184 0.0429654 0.99907
vn 0.0323266 0.0941906 0.995029
vn -0.0819078 -0.00524154 0.996626
vn -0.173494 -0.0836108 0.981279
vn 0.0135732 0.00644495 0.999887
vn -0.0279069 -0.0128738 0.999528
vn -0.0155374 -0.016341 0.999746
vn 0.0411385 0.0421622 0.998263
vn 0.00504491 0.0486401 0.998804
vn -0.0190013 0.00876908 0.999781
vn -0.116166 -0.0585328 0.991504
vn -0.0441313 0.0241544 0.998734
vn -0.00619832 -0.00861316 0.999944
vn 0.00901729 -0.00180878 0.999958
vn 0.0199165 0.00166637 0.9998
vn 0.0165999 0.0413428 0.999007
vn -0.0245846 -0.00888342 0.999658
vn -0.0354581 -0.0248517 0.999062
vn -0.0185443 -0.0229513 0.999565
vn -0.0176774 0.0251539 0.999527
vn 0.000734717 0.0174118 0.999848
vn 0.00218351 -0.00546744 0.999983
vn 0.0116332 -0.0173816 0.999781
vn -0.00202031 0.0093951 0.999954
vn 0.00318271 0.00215528 0.999993
vn 0.0153788 -0.015636 0.999759
vn 0.0179891 -0.0204688 0.999629
vn 0.000375067 -0.00634877 0.99998
vn -0.00754304 0.0117637 0.999902
vn -0.013355 0.00615053 0.999892
vn -0.0126082 -0.0187907 0.999744
vn -0.0367834 0.0171155 0.999177
vn -0.0162816 0.0267224 0.99951
vn 0.0244302 -0.0131278 0.999615
vn 0.0189601 -0.00105796 0.99982
vn 0.0268584 -0.0351722 0.99902
vn -0.0102155 -0.00866934 0.99991
vn -0.0481751 0.00102944 0.998838
vn -0.0224252 0.0165748 0.999611
vn -0.00546548 0.00528332 0.999971
vn 0.0247404 0.0397119 0.998905
vn 0.02888 0.0359605 0.998936
vn 0.0741786 0.00899234 0.997204
vn 0.0904621 -0.00660461 0.995878
vn -0.0490206 -0.000901733 0.998797
vn -0.038663 0.0153778 0.999134
vn -0.0125095 0.0611294 0.998051
vn 0.037224 0.0303961 0.998845
vn 0.0651414 0.0327669 0.997338
vn 0.0540839 0.0429947 0.99761
vn 0.0429075 0.0517352 0.997739
vn 0.0896502 -0.000365721 0.995973
f 100/100/100 4/4/4 13/13/13
f 44/44/44 3/3/3 21/21/21
f 44/44/44 19/19/19 20/20/20
f 60/60/60 19/19/19 52/52/52
f 60/60/60 17/17/17 18/18/18
f 76/76/76 17/17/17 68/68/68
f 84/84/84 16/16/16 76/76/76
f 84/84/84 14/14/14 15/15/15
f 100/100/100 14/14/14 92/92/92
f 11/11/11 93/93/93 85/85/85
f 93/93/93 86/86/86 85/85/85
f 94/94/94 87/87/87 86/86/86
f 87/87/87 96/96/96 88/88/88
f 96/96/96 89/89/89 88/88/88
f 97/97/97 90/90/90 89/89/89
f 90/90/90 99/99/99 91/91/91
f 91/91/91 100/100/100 92/92/92
f 10/10/10 85/85/85 77/77/77
f 77/77/77 86/86/86 78/78/78
f 78/78/78 87/87/87 79/79/79
f 79/79/79 88/88/88 80/80/80
f 88/88/88 81/81/81 80/80/80
f 81/81/81 90/90/90 82/82/82
f 82/82/82 91/91/91 83/83/83
f 91/91/91 84/84/84 83/83/83
f 10/10/10 69/69/69 9/9/9
f 69/69/69 78/78/78 70/70/70
f 70/70/70 79/79/79 71/71/71
f 79/79/79 72/72/72 71/71/71
f 72/72/72 81/81/81 73/73/73
f 73/73/73 82/82/82 74/74/74
f 82/82/82 75/75/75 74/74/74
f 83/83/83 76/76/76 75/75/75
f 9/9/9 61/61/61 8/8/8
f 69/69/69 62/62/62 61/61/61
f 62/62/62 71/71/71 63/63/63
f 63/63/63 72/72/72 64/64/64
f 72/72/72 65/65/65 64/64/64
f 65/65/65 74/74/74 66/66/66
f 66/66/66 75/75/75 67/67/67
f 67/67/67 76/76/76 68/68/68
f 8/8/8 53/53/53 7/7/7
f 53/53/53 62/62/62 54/54/54
f 54/54/54 63/63/63 55/55/55
f 55/55/55 64/64/64 56/56/56
f 64/64/64 57/57/57 56/56/56
f 57/57/57 66/66/66 58/58/58
f 58/58/58 67/67/67 59/59/59
f 59/59/59 68/68/68 60/60/60
f 6/6/6 53/53/53 45/45/45
f 45/45/45 54/54/54 46/46/46
f 54/54/54 47/47/47 46/46/46
f 55/55/55 48/48/48 47/47/47
f 56/56/56 49/49/49 48/48/48
f 49/49/49 58/58/58 50/50/50
f 58/58/58 51/51/51 50/50/50
f 59/59/59 52/52/52 51/51/51
f 6/6/6 37/37/37 5/5/5
f 45/45/45 38/38/38 37/37/37
f 46/46/46 39/39/39 38/38/38
f 39/39/39 48/48/48 40/40/40
f 40/40/40 49/49/49 41/41/41
f 41/41/41 50/50/50 42/42/42
f 50/50/50 43/43/43 42/42/42
f 51/51/51 44/44/44 43/43/43
f 5/5/5 28/28/28 1/1/1
f 28/28/28 38/38/38 27/27/27
f 27/27/27 39/39/39 26/26/26
f 26/26/26 40/40/40 25/25/25
f 40/40/40 24/24/24 25/25/25
f 41/41/41 23/23/23 24/24/24
f 23/23/23 43/43/43 22/22/22
f 43/43/43 21/21/21 22/22/22
f 2/2/2 93/93/93 12/12/12
f 93/93/93 30/30/30 94/94/94
f 30/30/30 95/95/95 94/94/94
f 31/31/31 96/96/96 95/95/95
f 32/32/32 97/97/97 96/96/96
f 33/33/33 98/98/98 97/97/97
f 98/98/98 35/35/35 99/99/99
f 99/99/99 36/36/36 100/100/100
f 100/100/100 36/36/36 4/4/4
f 44/44/44 20/20/20 3/3/3
f 44/44/44 52/52/52 19/19/19
f 60/60/60 18/18/18 19/19/19
f 60/60/60 68/68/68 17/17/17
f 76/76/76 16/16/16 17/17/17
f 84/84/84 15/15/15 16/16/16
f 84/84/84 92/92/92 14/14/14
f 100/100/100 13/13/13 14/14/14
f 11/11/11 12/12/12 93/93/93
f 93/93/93 94/94/94 86/86/86
f 94/94/94 95/95/95 87/87/87
f 87/87/87 95/95/95 96/96/96
f 96/96/96 97/97/97 89/89/89
f 97/97/97 98/98/98 90/90/90
f 90/90/90 98/98/98 99/99/99
f 91/91/91 99/99/99 100/100/100
f 10/10/10 11/11/11 85/85/85
f 77/77/77 85/85/85 86/86/86
f 78/78/78 86/86/86 87/87/87
f 79/79/79 87/87/87 88/88/88
f 88/88/88 89/89/89 81/81/81
f 81/81/81 89/89/89 90/90/90
f 82/82/82 90/90/90 91/91/91
f 91/91/91 92/92/92 84/84/84
f 10/10/10 77/77/77 69/69/69
f 69/69/69 77/77/77 78/78/78
f 70/70/70 78/78/78 79/79/79
f 79/79/79 80/80/80 72/72/72
f 72/72/72 80/80/80 81/81/81
f 73/73/73 81/81/81 82/82/82
f 82/82/82 83/83/83 75/75/75
f 83/83/83 84/84/84 76/76/76
f 9/9/9 69/69/69 61/61/61
f 69/69/69 70/70/70 62/62/62
f 62/62/62 70/70/70 71/71/71
f 63/63/63 71/71/71 72/72/72
f 72/72/72 73/73/73 65/65/65
f 65/65/65 73/73/73 74/74/74
f 66/66/66 74/74/74 75/75/75
f 67/67/67 75/75/75 76/76/76
f 8/8/8 61/61/61 53/53/53
f 53/53/53 61/61/61 62/62/62
f 54/54/54 62/62/62 63/63/63
f 55/55/55 63/63/63 64/64/64
f 64/64/64 65/65/65 57/57/57
f 57/57/57 65/65/65 66/66/66
f 58/58/58 66/66/66 67/67/67
f 59/59/59 67/67/67 68/68/68
f 6/6/6 7/7/7 53/53/53
f 45/45/45 53/53/53 54/54/54
f 54/54/54 55/55/55 47/47/47
f 55/55/55 56/56/56 48/48/48
f 56/56/56 57/57/57 49/49/49
f 49/49/49 57/57/57 58/58/58
f 58/58/58 59/59/59 51/51/51
f 59/59/59 60/60/60 52/52/52
f 6/6/6 45/45/45 37/37/37
f 45/45/45 46/46/46 38/38/38
f 46/46/46 47/47/47 39/39/39
f 39/39/39 47/47/47 48/48/48
f 40/40/40 48/48/48 49/49/49
f 41/41/41 49/49/49 50/50/50
f 50/50/50 51/51/51 43/43/43
f 51/51/51 52/52/52 44/44/44
f 5/5/5 37/37/37 28/28/28
f 28/28/28 37/37/37 38/38/38
f 27/27/27 38/38/38 39/39/39
f 26/26/26 39/39/39 40/40/40
f 40/40/40 41/41/41 24/24/24
f 41/41/41 42/42/42 23/23/23
f 23/23/23 42/42/42 43/43/43
f 43/43/43 44/44/44 21/21/21
f 2/2/2 29/29/29 93/93/93
f 93/93/93 29/29/29 30/30/30
f 30/30/30 31/31/31 95/95/95
f 31/31/31 32/32/32 96/96/96
f 32/32/32 33/33/33 97/97/97
f 33/33/33 34/34/34 98/98/98
f 98/98/98 34/34/34 35/35/35
f 99/99/99 35/35/35 36/36/36
