o GNATVCloth
v -5.07881 -4.98072 0.470529
v 5.04732 -4.99756 0.467684
v -5.01298 5.02105 0.004229
v 4.98702 5.02105 0.004229
v -3.9638 -5.01935 0.453318
v -2.84407 -5.06396 0.404685
v -1.71836 -5.10989 0.322735
v -0.586788 -5.15042 0.304644
v 0.549994 -5.15118 0.311494
v 1.6815 -5.13349 0.346402
v 2.81062 -5.09205 0.327309
v 3.93371 -5.04931 0.361915
v 3.85691 4.93429 0.167705
v 2.73501 4.87543 0.296769
v 1.6195 4.80629 0.434408
v 0.497973 4.79016 0.422264
v -0.573834 4.76873 0.341145
v -1.65848 4.80147 0.220604
v -2.7717 4.84667 0.277859
v -3.88436 4.91949 0.1297
v -5.00296 3.90739 0.0859575
v -4.99899 2.79142 0.106071
v -5.00502 1.67623 0.120434
v -5.01107 0.56175 0.150255
v -5.01408 -0.549801 0.212029
v -5.01761 -1.6588 0.301631
v -5.02965 -2.76667 0.409627
v -5.04581 -3.87139 0.534187
v 5.02156 -3.88651 0.423313
v 5.00849 -2.7806 0.302161
v 4.99746 -1.66907 0.24438
v 4.98878 -0.556776 0.195354
v 4.98126 0.55716 0.159143
v 4.97594 1.6723 0.1225
v 4.97362 2.78847 0.0916622
v 4.9704 3.90448 0.0446725
v -3.87013 -3.87103 0.425431
v -3.82608 -3.22772 0.358821
v -3.68141 -1.956 0.155356
v -4.12901 -0.294396 0.11963
v -4.15357 0.722728 0.155318
v -4.14432 1.50797 0.167403
v -4.07644 2.80212 0.182553
v -3.93743 3.86096 -0.0605088
v -2.74429 -4.05714 0.31083
v -2.81148 -2.7897 0.210108
v -2.69562 -2.20228 0.281268
v -2.77375 -0.655787 0.34255
v -2.80574 0.476096 0.341071
v -2.72224 1.51748 0.217793
v -2.86001 2.8348 -0.0579419
v -2.77335 3.50487 0.142806
v -1.67956 -4.30009 0.326262
v -1.51587 -2.99287 0.318813
v -1.91202 -1.69793 0.418532
v -1.89532 -0.899938 0.414562
v -1.54921 0.567604 0.131155
v -2.00415 1.62173 0.00955456
v -1.75168 2.64382 0.237581
v -1.57389 3.65714 0.253155
v -0.250684 -4.40985 0.33713
v -0.599826 -2.96952 0.344365
v -0.563625 -1.82891 0.355096
v -0.861242 -0.848369 0.289401
v -0.632934 0.360097 0.25762
v -0.40253 1.39312 0.295385
v -0.599831 2.56564 0.395878
v -0.766808 3.45034 0.316331
v 0.727228 -3.98466 0.340089
v 0.800447 -2.69291 0.274934
v 0.509948 -1.9076 0.314037
v 0.588953 -0.570834 0.317663
v 0.556537 0.338951 0.308859
v 0.270288 1.44844 0.318968
v 0.499625 2.4304 0.354508
v 0.515035 3.68225 0.335264
v 1.94779 -3.72839 0.30682
v 1.66656 -2.92075 0.286876
v 1.81252 -1.99081 0.342661
v 1.96426 -0.456067 0.302068
v 1.94537 0.232546 0.291676
v 1.79858 1.49541 0.260814
v 1.39106 2.76938 0.325127
v 1.44796 3.6109 0.295986
v 2.79375 -3.97812 0.335765
v 3.09884 -2.8861 0.361925
v 2.94734 -2.01089 0.315439
v 2.70608 -0.551153 0.337795
v 2.95057 0.247308 0.306232
v 3.04854 1.54485 0.1937
v 2.76052 3.11295 0.222313
v 2.7175 3.47241 0.167577
v 3.92457 -4.00075 0.37257
v 3.66399 -2.74928 0.368281
v 3.87121 -1.70669 0.310915
v 3.80269 -0.753363 0.262381
v 3.86418 0.260116 0.244589
v 4.15767 1.78152 0.15849
v 4.12345 2.74115 0.0495438
v 4.01332 3.86619 0.0173776
vt 0.0001 0.0001
vt 0.9999 0.0001
vt 0.0001 0.9999
vt 0.9999 0.9999
vt 0.111189 0.0001
vt 0.222278 0.0001
vt 0.333367 0.0001
vt 0.444455 0.0001
vt 0.555544 0.0001
vt 0.666633 0.0001
vt 0.777722 0.0001
vt 0.888811 0.0001
vt 0.888811 0.9999
vt 0.777722 0.9999
vt 0.666633 0.9999
vt 0.555544 0.9999
vt 0.444455 0.9999
vt 0.333367 0.9999
vt 0.222278 0.9999
vt 0.111189 0.9999
vt 0.0001 0.888811
vt 0.0001 0.777722
vt 0.0001 0.666633
vt 0.0001 0.555544
vt 0.0001 0.444456
vt 0.0001 0.333367
vt 0.0001 0.222278
vt 0.0001 0.111189
vt 0.9999 0.111189
vt 0.9999 0.222278
vt 0.9999 0.333367
vt 0.9999 0.444456
vt 0.9999 0.555544
vt 0.9999 0.666633
vt 0.9999 0.777722
vt 0.9999 0.888811
vt 0.11727 0.115399
vt 0.120778 0.180369
vt 0.134636 0.309595
vt 0.088728 0.473895
vt 0.085886 0.575352
vt 0.086211 0.65375
vt 0.092207 0.78313
vt 0.106956 0.892282
vt 0.22987 0.102869
vt 0.221803 0.229552
vt 0.233521 0.288953
vt 0.225541 0.443179
vt 0.221596 0.556167
vt 0.227801 0.661237
vt 0.214896 0.795203
vt 0.22542 0.865181
vt 0.335524 0.082127
vt 0.351143 0.213907
vt 0.311934 0.342467
vt 0.313159 0.422214
vt 0.347791 0.572605
vt 0.301482 0.677733
vt 0.329031 0.783086
vt 0.344903 0.885466
vt 0.476837 0.074882
vt 0.441952 0.218774
vt 0.445749 0.333088
vt 0.416414 0.43099
vt 0.439746 0.552976
vt 0.463203 0.656843
vt 0.444252 0.77653
vt 0.426137 0.866051
vt 0.573419 0.117409
vt 0.581125 0.246686
vt 0.552512 0.326
vt 0.561075 0.459693
vt 0.558356 0.550596
vt 0.530299 0.662189
vt 0.553275 0.760113
vt 0.555478 0.888821
vt 0.694433 0.13996
vt 0.667048 0.221666
vt 0.681985 0.314267
vt 0.698218 0.467249
vt 0.696819 0.535952
vt 0.68253 0.662758
vt 0.642062 0.791726
vt 0.648523 0.877957
vt 0.778029 0.111667
vt 0.809426 0.219523
vt 0.794923 0.307783
vt 0.772028 0.454562
vt 0.796846 0.533374
vt 0.807262 0.663157
vt 0.778581 0.821037
vt 0.775122 0.858219
vt 0.890224 0.104741
vt 0.865679 0.23076
vt 0.887326 0.334104
vt 0.881307 0.429754
vt 0.887973 0.53063
vt 0.918106 0.681428
vt 0.915043 0.778027
vt 0.904815 0.89094
vn 0.0134104 -0.0576816 0.998245
vn -0.0721577 0.0138863 0.997297
vn 0.00763114 -0.0486616 0.998786
vn 0.0609137 -0.0400032 0.997341
vn 0.0499613 -0.00679632 0.998728
vn 0.0594142 0.0465752 0.997146
vn 0.0440621 -0.00646133 0.999008
vn -0.00028093 -0.0284107 0.999596
vn -0.00946778 -0.0289012 0.999537
vn -0.00391114 0.00739036 0.999965
vn -0.0153093 -0.0086133 0.999846
vn -0.062254 -0.0106835 0.998003
vn 0.135335 -0.118626 0.983673
vn 0.120475 -0.109658 0.986641
vn 0.0603171 -0.123356 0.990528
vn -0.0156087 -0.0903095 0.995791
vn -0.0688389 -0.0208359 0.99741
vn -0.0286883 0.0263027 0.999242
vn -0.0924258 -0.0839913 0.992171
vn -0.132438 -0.168866 0.976701
vn 0.0666383 0.0992297 0.992831
vn -0.0827873 0.0154728 0.996447
vn -0.0518334 0.00416697 0.998647
vn 0.0259425 0.0156237 0.999541
vn 0.0842987 0.0675317 0.99415
vn 0.110125 0.076228 0.99099
vn 0.103671 0.117262 0.987675
vn 0.0705157 0.0415581 0.996645
vn -0.0537101 0.0734169 0.995854
vn 0.0249256 0.0548684 0.998182
vn 0.0544147 0.0505371 0.997239
vn 0.0568826 0.0304976 0.997915
vn 0.0601418 0.0366243 0.997518
vn 0.0479647 0.0303596 0.998388
vn -0.0198587 0.0601858 0.99799
vn -0.037082 0.0347253 0.998709
vn 0.0917656 0.0618731 0.993856
vn 0.0964861 0.113481 0.988844
vn -0.00392646 0.0409454 0.999154
vn -0.0266819 0.0126854 0.999563
vn -0.0600153 0.00830336 0.998163
vn -0.0460501 -0.0120593 0.998866
vn 0.0366674 0.0914891 0.995131
vn -0.0352278 -0.0311165 0.998895
vn 0.043681 0.0726597 0.9964
vn -0.0262114 0.0237998 0.999373
vn -0.126486 -0.0782377 0.988878
vn -0.129241 -0.0191011 0.991429
vn 0.00948792 0.0733591 0.997261
vn 0.0858037 0.107742 0.990469
vn -0.0346026 0.00103373 0.999401
vn -0.181381 -0.138581 0.9736
vn 0.00500669 0.00711554 0.999962
vn -0.0433004 -0.0271449 0.998693
vn -0.0186756 -0.0211789 0.999601
vn 0.0445114 0.0653478 0.996869
vn -0.00358301 0.0974605 0.995233
vn -0.0189712 0.0136904 0.999726
vn -0.17074 -0.084379 0.981696
vn -0.064445 -0.00921443 0.997879
vn -0.0034765 -0.0236142 0.999715
vn 0.00972283 -0.000469139 0.999953
vn 0.0188202 0.00877028 0.999784
vn 0.0174355 0.0649076 0.997739
vn -0.0680528 0.00567466 0.997666
vn -0.0897637 -0.0367277 0.995286
vn -0.0724534 -0.0360478 0.99672
vn -0.0664033 0.0244987 0.997492
vn 0.0084534 0.014787 0.999855
vn 0.00815306 -0.00909562 0.999925
vn 0.0165711 -0.0210962 0.99964
vn -0.00632586 0.0176978 0.999823
vn -0.0041553 0.00496042 0.999979
vn -0.00626399 -0.0245587 0.999679
vn 0.0245778 -0.0267334 0.99934
vn 0.00456655 -0.00409577 0.999981
vn -0.0144748 0.0163436 0.999762
vn -0.0152402 0.00225778 0.999881
vn -0.00921864 -0.0192391 0.999772
vn -0.0178126 0.021377 0.999613
vn 0.00182988 0.0325344 0.999469
vn 0.0465147 -0.00804948 0.998885
vn 0.0533071 0.00332666 0.998573
vn 0.0682979 -0.0275222 0.997285
vn -0.0221987 -0.00213676 0.999751
vn -0.0352392 0.0120309 0.999306
vn 0.00176239 0.0174072 0.999847
vn 0.00965342 0.0151349 0.999839
vn 0.0348587 0.0488314 0.998199
vn 0.0446012 0.0517908 0.997661
vn 0.0930439 0.0523476 0.994285
vn 0.104798 0.0343273 0.993901
vn -0.0324708 0.0146826 0.999365
vn 0.010173 0.0333168 0.999393
vn 0.02774 0.0520144 0.998261
vn 0.0507948 0.0271996 0.998339
vn 0.0566453 0.0397409 0.997603
vn 0.0222095 0.0635856 0.997729
vn 0.0225598 0.0566036 0.998142
vn 0.080097 -0.00975796 0.996739
f 100/100/100 4/4/4 13/13/13
f 44/44/44 3/3/3 21/21/21
f 44/44/44 19/19/19 20/20/20
f 60/60/60 19/19/19 52/52/52
f 60/60/60 17/17/17 18/18/18
f 76/76/76 17/17/17 68/68/68
f 84/84/84 16/16/16 76/76/76
f 84/84/84 14/14/14 15/15/15
f 100/100/100 14/14/14 92/92/92
f 11/11/11 93/93/93 85/85/85
f 93/93/93 86/86/86 85/85/85
f 94/94/94 87/87/87 86/86/86
f 87/87/87 96/96/96 88/88/88
f 96/96/96 89/89/89 88/88/88
f 97/97/97 90/90/90 89/89/89
f 90/90/90 99/99/99 91/91/91
f 91/91/91 100/100/100 92/92/92
f 10/10/10 85/85/85 77/77/77
f 77/77/77 86/86/86 78/78/78
f 78/78/78 87/87/87 79/79/79
f 79/79/79 88/88/88 80/80/80
f 88/88/88 81/81/81 80/80/80
f 81/81/81 90/90/90 82/82/82
f 82/82/82 91/91/91 83/83/83
f 91/91/91 84/84/84 83/83/83
f 10/10/10 69/69/69 9/9/9
f 69/69/69 78/78/78 70/70/70
f 70/70/70 79/79/79 71/71/71
f 79/79/79 72/72/72 71/71/71
f 72/72/72 81/81/81 73/73/73
f 73/73/73 82/82/82 74/74/74
f 82/82/82 75/75/75 74/74/74
f 83/83/83 76/76/76 75/75/75
f 9/9/9 61/61/61 8/8/8
f 69/69/69 62/62/62 61/61/61
f 62/62/62 71/71/71 63/63/63
f 63/63/63 72/72/72 64/64/64
f 72/72/72 65/65/65 64/64/64
f 65/65/65 74/74/74 66/66/66
f 66/66/66 75/75/75 67/67/67
f 67/67/67 76/76/76 68/68/68
f 8/8/8 53/53/53 7/7/7
f 53/53/53 62/62/62 54/54/54
f 54/54/54 63/63/63 55/55/55
f 55/55/55 64/64/64 56/56/56
f 64/64/64 57/57/57 56/56/56
f 57/57/57 66/66/66 58/58/58
f 58/58/58 67/67/67 59/59/59
f 59/59/59 68/68/68 60/60/60
f 6/6/6 53/53/53 45/45/45
f 45/45/45 54/54/54 46/46/46
f 54/54/54 47/47/47 46/46/46
f 55/55/55 48/48/48 47/47/47
f 56/56/56 49/49/49 48/48/48
f 49/49/49 58/58/58 50/50/50
f 58/58/58 51/51/51 50/50/50
f 59/59/59 52/52/52 51/51/51
f 6/6/6 37/37/37 5/5/5
f 45/45/45 38/38/38 37/37/37
f 46/46/46 39/39/39 38/38/38
f 39/39/39 48/48/48 40/40/40
f 40/40/40 49/49/49 41/41/41
f 41/41/41 50/50/50 42/42/42
f 50/50/50 43/43/43 42/42/42
f 51/51/51 44/44/44 43/43/43
f 5/5/5 28/28/28 1/1/1
f 28/28/28 38/38/38 27/27/27
f 27/27/27 39/39/39 26/26/26
f 26/26/26 40/40/40 25/25/25
f 40/40/40 24/24/24 25/25/25
f 41/41/41 23/23/23 24/24/24
f 23/23/23 43/43/43 22/22/22
f 43/43/43 21/21/21 22/22/22
f 2/2/2 93/93/93 12/12/12
f 93/93/93 30/30/30 94/94/94
f 30/30/30 95/95/95 94/94/94
f 31/31/31 96/96/96 95/95/95
f 32/32/32 97/97/97 96/96/96
f 33/33/33 98/98/98 97/97/97
f 98/98/98 35/35/35 99/99/99
f 99/99/99 36/36/36 100/100/100
f 100/100/100 36/36/36 4/4/4
f 44/44/44 20/20/20 3/3/3
f 44/44/44 52/52/52 19/19/19
f 60/60/60 18/18/18 19/19/19
f 60/60/60 68/68/68 17/17/17
f 76/76/76 16/16/16 17/17/17
f 84/84/84 15/15/15 16/16/16
f 84/84/84 92/92/92 14/14/14
f 100/100/100 13/13/13 14/14/14
f 11/11/11 12/12/12 93/93/93
f 93/93/93 94/94/94 86/86/86
f 94/94/94 95/95/95 87/87/87
f 87/87/87 95/95/95 96/96/96
f 96/96/96 97/97/97 89/89/89
f 97/97/97 98/98/98 90/90/90
f 90/90/90 98/98/98 99/99/99
f 91/91/91 99/99/99 100/100/100
f 10/10/10 11/11/11 85/85/85
f 77/77/77 85/85/85 86/86/86
f 78/78/78 86/86/86 87/87/87
f 79/79/79 87/87/87 88/88/88
f 88/88/88 89/89/89 81/81/81
f 81/81/81 89/89/89 90/90/90
f 82/82/82 90/90/90 91/91/91
f 91/91/91 92/92/92 84/84/84
f 10/10/10 77/77/77 69/69/69
f 69/69/69 77/77/77 78/78/78
f 70/70/70 78/78/78 79/79/79
f 79/79/79 80/80/80 72/72/72
f 72/72/72 80/80/80 81/81/81
f 73/73/73 81/81/81 82/82/82
f 82/82/82 83/83/83 75/75/75
f 83/83/83 84/84/84 76/76/76
f 9/9/9 69/69/69 61/61/61
f 69/69/69 70/70/70 62/62/62
f 62/62/62 70/70/70 71/71/71
f 63/63/63 71/71/71 72/72/72
f 72/72/72 73/73/73 65/65/65
f 65/65/65 73/73/73 74/74/74
f 66/66/66 74/74/74 75/75/75
f 67/67/67 75/75/75 76/76/76
f 8/8/8 61/61/61 53/53/53
f 53/53/53 61/61/61 62/62/62
f 54/54/54 62/62/62 63/63/63
f 55/55/55 63/63/63 64/64/64
f 64/64/64 65/65/65 57/57/57
f 57/57/57 65/65/65 66/66/66
f 58/58/58 66/66/66 67/67/67
f 59/59/59 67/67/67 68/68/68
f 6/6/6 7/7/7 53/53/53
f 45/45/45 53/53/53 54/54/54
f 54/54/54 55/55/55 47/47/47
f 55/55/55 56/56/56 48/48/48
f 56/56/56 57/57/57 49/49/49
f 49/49/49 57/57/57 58/58/58
f 58/58/58 59/59/59 51/51/51
f 59/59/59 60/60/60 52/52/52
f 6/6/6 45/45/45 37/37/37
f 45/45/45 46/46/46 38/38/38
f 46/46/46 47/47/47 39/39/39
f 39/39/39 47/47/47 48/48/48
f 40/40/40 48/48/48 49/49/49
f 41/41/41 49/49/49 50/50/50
f 50/50/50 51/51/51 43/43/43
f 51/51/51 52/52/52 44/44/44
f 5/5/5 37/37/37 28/28/28
f 28/28/28 37/37/37 38/38/38
f 27/27/27 38/38/38 39/39/39
f 26/26/26 39/39/39 40/40/40
f 40/40/40 41/41/41 24/24/24
f 41/41/41 42/42/42 23/23/23
f 23/23/23 42/42/42 43/43/43
f 43/43/43 44/44/44 21/21/21
f 2/2/2 29/29/29 93/93/93
f 93/93/93 29/29/29 30/30/30
f 30/30/30 31/31/31 95/95/95
f 31/31/31 32/32/32 96/96/96
f 32/32/32 33/33/33 97/97/97
f 33/33/33 34/34/34 98/98/98
f 98/98/98 34/34/34 35/35/35
f 99/99/99 35/35/35 36/36/36
