o GNATVCloth
v -5.02938 -4.9791 0.603157
v 5.06525 -4.98927 0.397248
v -5.01298 5.02105 0.004229
v 4.98702 5.02105 0.004229
v -3.91848 -5.02215 0.510543
v -2.79798 -5.05244 0.485062
v -1.67462 -5.08181 0.464347
v -0.548192 -5.0974 0.4626
v 0.579971 -5.08867 0.503435
v 1.70591 -5.07657 0.477819
v 2.82864 -5.05401 0.444947
v 3.94943 -5.02664 0.405514
v 3.8705 4.90105 0.210711
v 2.76058 4.80615 0.399138
v 1.63918 4.75 0.312711
v 0.519087 4.69795 0.296501
v -0.582945 4.69305 0.492559
v -1.69611 4.68718 0.616656
v -2.81126 4.74905 0.496753
v -3.90509 4.8647 0.242796
v -4.97192 3.90795 0.0801331
v -4.97246 2.79376 0.137899
v -4.97989 1.68015 0.195674
v -4.98552 0.566517 0.244545
v -4.99166 -0.546368 0.283607
v -4.99825 -1.65855 0.328286
v -5.00384 -2.7698 0.381584
v -5.01309 -3.87856 0.471641
v 5.04311 -3.88305 0.325896
v 5.02663 -2.77491 0.224317
v 5.0168 -1.6628 0.220976
v 5.00891 -0.549947 0.207972
v 5.00107 0.563493 0.200107
v 4.99014 1.67784 0.16703
v 4.98135 2.79269 0.135147
v 4.97021 3.90638 0.0667235
v -3.84015 -3.87653 0.390875
v -3.80347 -3.23534 0.294634
v -3.65411 -1.94671 0.255902
v -4.10482 -0.285478 0.234729
v -4.12835 0.729334 0.182084
v -4.12102 1.51501 0.119965
v -4.05309 2.80555 0.0384172
v -3.92259 3.87405 -0.173064
v -2.71084 -4.04155 0.314726
v -2.78609 -2.77384 0.335938
v -2.66312 -2.18309 0.289089
v -2.73748 -0.638899 0.281896
v -2.77141 0.4879 0.178237
v -2.70085 1.52876 0.0440408
v -2.8438 2.84304 -0.237153
v -2.7595 3.48907 0.0311841
v -1.64628 -4.27276 0.346755
v -1.48706 -2.96215 0.402042
v -1.87764 -1.66943 0.375961
v -1.86072 -0.875496 0.301098
v -1.51684 0.590265 -0.0033048
v -1.98001 1.64219 -0.144346
v -1.70592 2.68056 -0.061982
v -1.58733 3.57749 0.375081
v -0.220199 -4.36035 0.401267
v -0.573867 -2.92341 0.463602
v -0.533634 -1.78455 0.371852
v -0.824396 -0.81124 0.25755
v -0.593423 0.385258 0.0639825
v -0.362868 1.40913 0.0200142
v -0.571369 2.57187 0.180999
v -0.762447 3.38518 0.380696
v 0.752794 -3.93353 0.37968
v 0.827087 -2.63962 0.415332
v 0.538282 -1.8491 0.382405
v 0.623127 -0.554175 0.050245
v 0.598749 0.351413 0.062044
v 0.30976 1.46211 0.00438326
v 0.528762 2.42448 0.119918
v 0.547373 3.61283 0.406934
v 1.9704 -3.6815 0.318365
v 1.69275 -2.87558 0.40741
v 1.83836 -1.94655 0.416642
v 1.99697 -0.430853 0.168181
v 1.99126 0.226304 -0.0314276
v 1.83847 1.48896 -0.0101283
v 1.4146 2.75764 0.0700527
v 1.48616 3.53877 0.30336
v 2.81591 -3.94502 0.331926
v 3.12086 -2.85867 0.322906
v 2.96806 -1.97945 0.321774
v 2.72954 -0.517434 0.305672
v 2.97364 0.268854 0.186876
v 3.08954 1.53802 -0.0949151
v 2.76731 3.10309 -0.129519
v 2.74501 3.43576 0.03345
v 3.94537 -3.98351 0.321574
v 3.68374 -2.7309 0.3014
v 3.89216 -1.69098 0.295818
v 3.82721 -0.734329 0.309463
v 3.88372 0.278939 0.278986
v 4.16988 1.79555 0.14546
v 4.14663 2.74584 -0.0289323
v 4.02932 3.86801 -0.11701
vt 0.0001 0.0001
vt 0.9999 0.0001
vt 0.0001 0.9999
vt 0.9999 0.9999
vt 0.111189 0.0001
vt 0.222278 0.0001
vt 0.333367 0.0001
vt 0.444455 0.0001
vt 0.555544 0.0001
vt 0.666633 0.0001
vt 0.777722 0.0001
vt 0.888811 0.0001
vt 0.888811 0.9999
vt 0.777722 0.9999
vt 0.666633 0.9999
vt 0.555544 0.9999
vt 0.444455 0.9999
vt 0.333367 0.9999
vt 0.222278 0.9999
vt 0.111189 0.9999
vt 0.0001 0.888811
vt 0.0001 0.777722
vt 0.0001 0.666633
vt 0.0001 0.555544
vt 0.0001 0.444456
vt 0.0001 0.333367
vt 0.0001 0.222278
vt 0.0001 0.111189
vt 0.9999 0.111189
vt 0.9999 0.222278
vt 0.9999 0.333367
vt 0.9999 0.444456
vt 0.9999 0.555544
vt 0.9999 0.666633
vt 0.9999 0.777722
vt 0.9999 0.888811
vt 0.11727 0.115399
vt 0.120778 0.180369
vt 0.134636 0.309595
vt 0.088728 0.473895
vt 0.085886 0.575352
vt 0.086211 0.65375
vt 0.092207 0.78313
vt 0.106956 0.892282
vt 0.22987 0.102869
vt 0.221803 0.229552
vt 0.233521 0.288953
vt 0.225541 0.443179
vt 0.221596 0.556167
vt 0.227801 0.661237
vt 0.214896 0.795203
vt 0.22542 0.865181
vt 0.335524 0.082127
vt 0.351143 0.213907
vt 0.311934 0.342467
vt 0.313159 0.422214
vt 0.347791 0.572605
vt 0.301482 0.677733
vt 0.329031 0.783086
vt 0.344903 0.885466
vt 0.476837 0.074882
vt 0.441952 0.218774
vt 0.445749 0.333088
vt 0.416414 0.43099
vt 0.439746 0.552976
vt 0.463203 0.656843
vt 0.444252 0.77653
vt 0.426137 0.866051
vt 0.573419 0.117409
vt 0.581125 0.246686
vt 0.552512 0.326
vt 0.561075 0.459693
vt 0.558356 0.550596
vt 0.530299 0.662189
vt 0.553275 0.760113
vt 0.555478 0.888821
vt 0.694433 0.13996
vt 0.667048 0.221666
vt 0.681985 0.314267
vt 0.698218 0.467249
vt 0.696819 0.535952
vt 0.68253 0.662758
vt 0.642062 0.791726
vt 0.648523 0.877957
vt 0.778029 0.111667
vt 0.809426 0.219523
vt 0.794923 0.307783
vt 0.772028 0.454562
vt 0.796846 0.533374
vt 0.807262 0.663157
vt 0.778581 0.821037
vt 0.775122 0.858219
vt 0.890224 0.104741
vt 0.865679 0.23076
vt 0.887326 0.334104
vt 0.881307 0.429754
vt 0.887973 0.53063
vt 0.918106 0.681428
vt 0.915043 0.778027
vt 0.904815 0.89094
vn 0.0870093 0.116938 0.98932
vn -0.00255195 0.0722021 0.997387
vn -0.00480238 -0.157214 0.987553
vn 0.00483557 -0.108541 0.99408
vn 0.0602123 0.106078 0.992533
vn 0.0357945 0.142318 0.989174
vn 0.0127555 0.143384 0.989585
vn -0.0217758 0.113333 0.993318
vn -0.0138804 0.104306 0.994448
vn 0.0236448 0.105857 0.9941
vn 0.0242485 0.0945003 0.995229
vn 0.018895 0.0802684 0.996594
vn 0.193286 -0.269562 0.943386
vn 0.123154 -0.197588 0.972518
vn -0.0455919 -0.00195234 0.998958
vn 0.0926484 0.0675811 0.993403
vn 0.06366 -0.0664149 0.995759
vn -0.00343946 -0.213034 0.977039
vn -0.219658 -0.321765 0.920987
vn -0.246156 -0.371456 0.895225
vn 0.193726 0.0959603 0.976351
vn 0.106789 0.0511161 0.992967
vn 0.0930589 0.0573302 0.994009
vn 0.057243 0.0437942 0.997399
vn 0.0440442 0.0373215 0.998332
vn 0.0557053 0.0387751 0.997694
vn 0.0822959 0.0492949 0.995388
vn 0.081443 0.110032 0.990586
vn -0.0110296 0.0776392 0.99692
vn 0.0423932 0.0292413 0.998673
vn 0.0722121 0.00203812 0.997387
vn 0.0779319 0.0150615 0.996845
vn 0.0323197 0.0384228 0.998739
vn -0.0221273 0.0289257 0.999337
vn -0.139824 0.0867238 0.986371
vn -0.19429 0.0575524 0.979254
vn 0.067649 0.129364 0.989287
vn 0.0416232 0.0678579 0.996826
vn 0.00955776 0.0318201 0.999448
vn 0.025504 0.043436 0.998731
vn 0.0532199 0.0718057 0.995998
vn 0.0765582 0.0683917 0.994717
vn 0.147166 0.110731 0.982894
vn -0.0528711 -0.156051 0.986333
vn 0.00990401 0.0654843 0.997804
vn -0.0390104 0.0334134 0.99868
vn -0.0594927 0.0320983 0.997713
vn -0.0300687 0.0472261 0.998432
vn 0.07433 0.118952 0.990114
vn 0.132217 0.138543 0.981491
vn 0.00311189 -0.0200421 0.999794
vn -0.24088 -0.357095 0.902475
vn -0.0209014 0.0609059 0.997925
vn -0.0521073 0.012686 0.998561
vn -0.0258276 0.0530648 0.998257
vn 0.0398219 0.12993 0.990723
vn 0.0167226 0.14621 0.989112
vn -0.000596669 0.058438 0.998291
vn -0.189856 -0.257573 0.947423
vn -0.102882 -0.28377 0.953357
vn -0.019955 0.0439093 0.998836
vn -0.0115848 0.00886538 0.999894
vn 0.0104279 0.117612 0.993005
vn 0.0457946 0.144056 0.988509
vn 0.00771933 0.0731074 0.997294
vn -0.0300263 -0.0378253 0.998833
vn -0.0806869 -0.178594 0.980609
vn -0.0692478 -0.22423 0.972073
vn 0.0243554 0.0206385 0.99949
vn 0.0097257 0.00299129 0.999948
vn -0.00122045 0.13281 0.991141
vn 0.0112864 0.153654 0.98806
vn 0.0290383 0.0147476 0.99947
vn 0.0153378 -0.0207261 0.999668
vn 0.0531433 -0.14844 0.987492
vn 0.0802435 -0.126402 0.988728
vn 0.0324295 0.0109652 0.999414
vn 0.0463122 -0.0376374 0.998218
vn -0.0170163 0.0893188 0.995858
vn -0.128365 0.230901 0.964472
vn -0.0716033 0.143705 0.987027
vn 0.0630618 -0.0145284 0.997904
vn 0.132778 -0.176869 0.975237
vn 0.0964936 -0.171211 0.980498
vn 0.0110165 0.0662255 0.997744
vn 0.0309024 -0.00494558 0.99951
vn 0.0459443 0.00277289 0.99894
vn -0.0705343 0.143669 0.987109
vn -0.124551 0.170155 0.977514
vn -0.109267 0.114186 0.987432
vn 0.103343 -0.152218 0.982929
vn 0.195266 -0.339021 0.920291
vn 0.0161168 0.0593217 0.998109
vn 0.0425848 0.0104944 0.999038
vn 0.0500213 -0.00491709 0.998736
vn 0.0266556 0.0292382 0.999217
vn -0.0414198 0.0844799 0.995564
vn -0.116133 0.102227 0.987959
vn -0.161651 0.0896977 0.982763
vn 0.0568952 -0.151113 0.986878
f 100/100/100 4/4/4 13/13/13
f 44/44/44 3/3/3 21/21/21
f 44/44/44 19/19/19 20/20/20
f 60/60/60 19/19/19 52/52/52
f 60/60/60 17/17/17 18/18/18
f 76/76/76 17/17/17 68/68/68
f 84/84/84 16/16/16 76/76/76
f 84/84/84 14/14/14 15/15/15
f 100/100/100 14/14/14 92/92/92
f 11/11/11 93/93/93 85/85/85
f 93/93/93 86/86/86 85/85/85
f 94/94/94 87/87/87 86/86/86
f 87/87/87 96/96/96 88/88/88
f 96/96/96 89/89/89 88/88/88
f 97/97/97 90/90/90 89/89/89
f 90/90/90 99/99/99 91/91/91
f 91/91/91 100/100/100 92/92/92
f 10/10/10 85/85/85 77/77/77
f 77/77/77 86/86/86 78/78/78
f 78/78/78 87/87/87 79/79/79
f 79/79/79 88/88/88 80/80/80
f 88/88/88 81/81/81 80/80/80
f 81/81/81 90/90/90 82/82/82
f 82/82/82 91/91/91 83/83/83
f 91/91/91 84/84/84 83/83/83
f 10/10/10 69/69/69 9/9/9
f 69/69/69 78/78/78 70/70/70
f 70/70/70 79/79/79 71/71/71
f 79/79/79 72/72/72 71/71/71
f 72/72/72 81/81/81 73/73/73
f 73/73/73 82/82/82 74/74/74
f 82/82/82 75/75/75 74/74/74
f 83/83/83 76/76/76 75/75/75
f 9/9/9 61/61/61 8/8/8
f 69/69/69 62/62/62 61/61/61
f 62/62/62 71/71/71 63/63/63
f 63/63/63 72/72/72 64/64/64
f 72/72/72 65/65/65 64/64/64
f 65/65/65 74/74/74 66/66/66
f 66/66/66 75/75/75 67/67/67
f 67/67/67 76/76/76 68/68/68
f 8/8/8 53/53/53 7/7/7
f 53/53/53 62/62/62 54/54/54
f 54/54/54 63/63/63 55/55/55
f 55/55/55 64/64/64 56/56/56
f 64/64/64 57/57/57 56/56/56
f 57/57/57 66/66/66 58/58/58
f 58/58/58 67/67/67 59/59/59
f 59/59/59 68/68/68 60/60/60
f 6/6/6 53/53/53 45/45/45
f 45/45/45 54/54/54 46/46/46
f 54/54/54 47/47/47 46/46/46
f 55/55/55 48/48/48 47/47/47
f 56/56/56 49/49/49 48/48/48
f 49/49/49 58/58/58 50/50/50
f 58/58/58 51/51/51 50/50/50
f 59/59/59 52/52/52 51/51/51
f 6/6/6 37/37/37 5/5/5
f 45/45/45 38/38/38 37/37/37
f 46/46/46 39/39/39 38/38/38
f 39/39/39 48/48/48 40/40/40
f 40/40/40 49/49/49 41/41/41
f 41/41/41 50/50/50 42/42/42
f 50/50/50 43/43/43 42/42/42
f 51/51/51 44/44/44 43/43/43
f 5/5/5 28/28/28 1/1/1
f 28/28/28 38/38/38 27/27/27
f 27/27/27 39/39/39 26/26/26
f 26/26/26 40/40/40 25/25/25
f 40/40/40 24/24/24 25/25/25
f 41/41/41 23/23/23 24/24/24
f 23/23/23 43/43/43 22/22/22
f 43/43/43 21/21/21 22/22/22
f 2/2/2 93/93/93 12/12/12
f 93/93/93 30/30/30 94/94/94
f 30/30/30 95/95/95 94/94/94
f 31/31/31 96/96/96 95/95/95
f 32/32/32 97/97/97 96/96/96
f 33/33/33 98/98/98 97/97/97
f 98/98/98 35/35/35 99/99/99
f 99/99/99 36/36/36 100/100/100
f 100/100/100 36/36/36 4/4/4
f 44/44/44 20/20/20 3/3/3
f 44/44/44 52/52/52 19/19/19
f 60/60/60 18/18/18 19/19/19
f 60/60/60 68/68/68 17/17/17
f 76/76/76 16/16/16 17/17/17
f 84/84/84 15/15/15 16/16/16
f 84/84/84 92/92/92 14/14/14
f 100/100/100 13/13/13 14/14/14
f 11/11/11 12/12/12 93/93/93
f 93/93/93 94/94/94 86/86/86
f 94/94/94 95/95/95 87/87/87
f 87/87/87 95/95/95 96/96/96
f 96/96/96 97/97/97 89/89/89
f 97/97/97 98/98/98 90/90/90
f 90/90/90 98/98/98 99/99/99
f 91/91/91 99/99/99 100/100/100
f 10/10/10 11/11/11 85/85/85
f 77/77/77 85/85/85 86/86/86
f 78/78/78 86/86/86 87/87/87
f 79/79/79 87/87/87 88/88/88
f 88/88/88 89/89/89 81/81/81
f 81/81/81 89/89/89 90/90/90
f 82/82/82 90/90/90 91/91/91
f 91/91/91 92/92/92 84/84/84
f 10/10/10 77/77/77 69/69/69
f 69/69/69 77/77/77 78/78/78
f 70/70/70 78/78/78 79/79/79
f 79/79/79 80/80/80 72/72/72
f 72/72/72 80/80/80 81/81/81
f 73/73/73 81/81/81 82/82/82
f 82/82/82 83/83/83 75/75/75
f 83/83/83 84/84/84 76/76/76
f 9/9/9 69/69/69 61/61/61
f 69/69/69 70/70/70 62/62/62
f 62/62/62 70/70/70 71/71/71
f 63/63/63 71/71/71 72/72/72
f 72/72/72 73/73/73 65/65/65
f 65/65/65 73/73/73 74/74/74
f 66/66/66 74/74/74 75/75/75
f 67/67/67 75/75/75 76/76/76
f 8/8/8 61/61/61 53/53/53
f 53/53/53 61/61/61 62/62/62
f 54/54/54 62/62/62 63/63/63
f 55/55/55 63/63/63 64/64/64
f 64/64/64 65/65/65 57/57/57
f 57/57/57 65/65/65 66/66/66
f 58/58/58 66/66/66 67/67/67
f 59/59/59 67/67/67 68/68/68
f 6/6/6 7/7/7 53/53/53
f 45/45/45 53/53/53 54/54/54
f 54/54/54 55/55/55 47/47/47
f 55/55/55 56/56/56 48/48/48
f 56/56/56 57/57/57 49/49/49
f 49/49/49 57/57/57 58/58/58
f 58/58/58 59/59/59 51/51/51
f 59/59/59 60/60/60 52/52/52
f 6/6/6 45/45/45 37/37/37
f 45/45/45 46/46/46 38/38/38
f 46/46/46 47/47/47 39/39/39
f 39/39/39 47/47/47 48/48/48
f 40/40/40 48/48/48 49/49/49
f 41/41/41 49/49/49 50/50/50
f 50/50/50 51/51/51 43/43/43
f 51/51/51 52/52/52 44/44/44
f 5/5/5 37/37/37 28/28/28
f 28/28/28 37/37/37 38/38/38
f 27/27/27 38/38/38 39/39/39
f 26/26/26 39/39/39 40/40/40
f 40/40/40 41/41/41 24/24/24
f 41/41/41 42/42/42 23/23/23
f 23/23/23 42/42/42 43/43/43
f 43/43/43 44/44/44 21/21/21
f 2/2/2 29/29/29 93/93/93
f 93/93/93 29/29/29 30/30/30
f 30/30/30 31/31/31 95/95/95
f 31/31/31 32/32/32 96/96/96
f 32/32/32 33/33/33 97/97/97
f 33/33/33 34/34/34 98/98/98
f 98/98/98 34/34/34 35/35/35
f 99/99/99 35/35/35 36/36/36
