o GNATVCloth
v -4.98823 -4.98436 0.439381
v 5.04305 -4.99291 0.455194
v -5.01298 5.02105 0.004229
v 4.98702 5.02105 0.004229
v -3.88303 -5.01185 0.41019
v -2.77096 -5.04129 0.378314
v -1.65423 -5.04807 0.280063
v -0.535189 -5.0485 0.276628
v 0.586479 -5.0617 0.283687
v 1.70607 -5.06158 0.326376
v 2.82117 -5.04713 0.28227
v 3.93614 -5.02528 0.326309
v 3.8687 4.9534 0.145244
v 2.75532 4.92177 0.267354
v 1.64654 4.86771 0.413566
v 0.54331 4.86123 0.38171
v -0.564677 4.85894 0.316462
v -1.66547 4.87557 0.206235
v -2.77641 4.89202 0.215926
v -3.88579 4.94046 0.0811515
v -4.99363 3.90707 0.0746382
v -4.98235 2.79154 0.0933329
v -4.97594 1.67664 0.112699
v -4.9748 0.562469 0.139058
v -4.97149 -0.548855 0.203218
v -4.97089 -1.65986 0.271466
v -4.96966 -2.76533 0.39278
v -4.9664 -3.87391 0.495568
v 5.02787 -3.88171 0.389277
v 5.02178 -2.7715 0.335292
v 5.01864 -1.66262 0.243014
v 5.01201 -0.552122 0.167527
v 5.00584 0.560518 0.121068
v 4.99932 1.67521 0.0926197
v 4.9915 2.79034 0.0701978
v 4.98358 3.90559 0.040425
v -3.80686 -3.86029 0.380737
v -3.76493 -3.21119 0.352239
v -3.63189 -1.9351 0.168076
v -4.08667 -0.279627 0.127116
v -4.11737 0.735829 0.160455
v -4.11373 1.52092 0.15065
v -4.06123 2.81659 0.151314
v -3.92908 3.87923 -0.0871069
v -2.68658 -4.02111 0.2921
v -2.76202 -2.75495 0.205993
v -2.64768 -2.16386 0.246866
v -2.73123 -0.621349 0.325991
v -2.76781 0.510552 0.332154
v -2.69138 1.55513 0.231907
v -2.83624 2.87335 -0.0218137
v -2.76292 3.55314 0.154204
v -1.6303 -4.2471 0.301275
v -1.47716 -2.93808 0.283758
v -1.86864 -1.65208 0.372336
v -1.8546 -0.855432 0.352568
v -1.51137 0.626205 0.173041
v -1.96994 1.67601 0.0371092
v -1.72496 2.70856 0.268384
v -1.56282 3.72902 0.242882
v -0.208627 -4.3304 0.297099
v -0.568033 -2.90052 0.306712
v -0.528057 -1.76672 0.318499
v -0.822685 -0.788643 0.269201
v -0.591976 0.424805 0.241689
v -0.36399 1.45278 0.285607
v -0.56657 2.64195 0.36707
v -0.749901 3.53 0.286197
v 0.758816 -3.90798 0.310325
v 0.826336 -2.61918 0.241431
v 0.540732 -1.83858 0.280021
v 0.625261 -0.501397 0.28296
v 0.596252 0.403522 0.282766
v 0.308245 1.50823 0.289123
v 0.530304 2.47952 0.306261
v 0.543327 3.76266 0.294796
v 1.96933 -3.66594 0.272422
v 1.68952 -2.85649 0.257163
v 1.83763 -1.93805 0.309597
v 1.99898 -0.411609 0.271406
v 1.98361 0.274679 0.26988
v 1.83372 1.53578 0.229747
v 1.41955 2.80955 0.308864
v 1.47403 3.65878 0.267561
v 2.81012 -3.93355 0.293112
v 3.11647 -2.85261 0.331038
v 2.97045 -1.98043 0.288326
v 2.73716 -0.518524 0.319816
v 2.98256 0.272636 0.291026
v 3.08113 1.57043 0.203839
v 2.78576 3.13826 0.240811
v 2.74227 3.50374 0.193314
v 3.9335 -3.97935 0.335801
v 3.67916 -2.72619 0.363065
v 3.89397 -1.68955 0.307193
v 3.82999 -0.734733 0.252434
v 3.89321 0.2774 0.232039
v 4.1855 1.79603 0.152397
v 4.1442 2.75585 0.0648043
v 4.0273 3.88051 -0.0110639
vt 0.0001 0.0001
vt 0.9999 0.0001
vt 0.0001 0.9999
vt 0.9999 0.9999
vt 0.111189 0.0001
vt 0.222278 0.0001
vt 0.333367 0.0001
vt 0.444455 0.0001
vt 0.555544 0.0001
vt 0.666633 0.0001
vt 0.777722 0.0001
vt 0.888811 0.0001
vt 0.888811 0.9999
vt 0.777722 0.9999
vt 0.666633 0.9999
vt 0.555544 0.9999
vt 0.444455 0.9999
vt 0.333367 0.9999
vt 0.222278 0.9999
vt 0.111189 0.9999
vt 0.0001 0.888811
vt 0.0001 0.777722
vt 0.0001 0.666633
vt 0.0001 0.555544
vt 0.0001 0.444456
vt 0.0001 0.333367
vt 0.0001 0.222278
vt 0.0001 0.111189
vt 0.9999 0.111189
vt 0.9999 0.222278
vt 0.9999 0.333367
vt 0.9999 0.444456
vt 0.9999 0.555544
vt 0.9999 0.666633
vt 0.9999 0.777722
vt 0.9999 0.888811
vt 0.11727 0.115399
vt 0.120778 0.180369
vt 0.134636 0.309595
vt 0.088728 0.473895
vt 0.085886 0.575352
vt 0.086211 0.65375
vt 0.092207 0.78313
vt 0.106956 0.892282
vt 0.22987 0.102869
vt 0.221803 0.229552
vt 0.233521 0.288953
vt 0.225541 0.443179
vt 0.221596 0.556167
vt 0.227801 0.661237
vt 0.214896 0.795203
vt 0.22542 0.865181
vt 0.335524 0.082127
vt 0.351143 0.213907
vt 0.311934 0.342467
vt 0.313159 0.422214
vt 0.347791 0.572605
vt 0.301482 0.677733
vt 0.329031 0.783086
vt 0.344903 0.885466
vt 0.476837 0.074882
vt 0.441952 0.218774
vt 0.445749 0.333088
vt 0.416414 0.43099
vt 0.439746 0.552976
vt 0.463203 0.656843
vt 0.444252 0.77653
vt 0.426137 0.866051
vt 0.573419 0.117409
vt 0.581125 0.246686
vt 0.552512 0.326
vt 0.561075 0.459693
vt 0.558356 0.550596
vt 0.530299 0.662189
vt 0.553275 0.760113
vt 0.555478 0.888821
vt 0.694433 0.13996
vt 0.667048 0.221666
vt 0.681985 0.314267
vt 0.698218 0.467249
vt 0.696819 0.535952
vt 0.68253 0.662758
vt 0.642062 0.791726
vt 0.648523 0.877957
vt 0.778029 0.111667
vt 0.809426 0.219523
vt 0.794923 0.307783
vt 0.772028 0.454562
vt 0.796846 0.533374
vt 0.807262 0.663157
vt 0.778581 0.821037
vt 0.775122 0.858219
vt 0.890224 0.104741
vt 0.865679 0.23076
vt 0.887326 0.334104
vt 0.881307 0.429754
vt 0.887973 0.53063
vt 0.918106 0.681428
vt 0.915043 0.778027
vt 0.904815 0.89094
vn 0.0251014 -0.0510094 0.998383
vn -0.0847401 0.0245711 0.9961
vn 0.0371633 -0.0445784 0.998314
vn 0.0387506 -0.0459912 0.99819
vn 0.0509525 -0.00281721 0.998697
vn 0.0539525 0.0387151 0.997793
vn 0.0452851 -0.0277983 0.998587
vn -0.000766631 -0.0270408 0.999634
vn -0.016177 -0.0217989 0.999632
vn 0.00361205 0.012036 0.999921
vn -0.0126844 -0.00954324 0.999874
vn -0.0773904 -0.00924288 0.996958
vn 0.121615 -0.125469 0.984615
vn 0.118142 -0.092783 0.988652
vn 0.0542392 -0.127349 0.990374
vn -0.0220374 -0.0912301 0.995586
vn -0.0543541 -0.0232902 0.99825
vn -0.0450987 0.0278806 0.998593
vn -0.10014 -0.0531286 0.993554
vn -0.10196 -0.151721 0.98315
vn 0.0808657 0.09389 0.992293
vn -0.0632614 0.0165264 0.99786
vn -0.0446085 0.0136292 0.998912
vn 0.00674511 0.0160126 0.999849
vn 0.0675664 0.0594584 0.995942
vn 0.0842132 0.0728091 0.993784
vn 0.0830483 0.111646 0.990272
vn 0.072391 0.0244365 0.997077
vn -0.0534812 0.0533035 0.997145
vn 0.0110537 0.0407319 0.999109
vn 0.0570778 0.0706316 0.995868
vn 0.0729513 0.0419718 0.996452
vn 0.0853448 0.0342436 0.995763
vn 0.0766648 0.0232334 0.996786
vn 0.0196284 0.0459472 0.998751
vn -0.0391166 0.0402375 0.998424
vn 0.0799345 0.0389567 0.996039
vn 0.0878544 0.0850169 0.992499
vn 0.00260472 0.0433883 0.999055
vn -0.0323759 0.0101768 0.999424
vn -0.0647386 0.0136896 0.997808
vn -0.0499639 0.00711678 0.998726
vn 0.0260654 0.0919014 0.995427
vn -0.0356125 -0.0149224 0.999254
vn 0.0395992 0.0586215 0.997495
vn -0.00338783 0.0333769 0.999437
vn -0.0939829 -0.0635244 0.993545
vn -0.094656 -0.0202674 0.995304
vn 0.0075921 0.0565477 0.998371
vn 0.0634703 0.101506 0.992808
vn -0.0565078 0.00567836 0.998386
vn -0.180239 -0.0980352 0.978725
vn 0.0102854 0.00332187 0.999942
vn -0.0338228 -0.0179502 0.999267
vn -0.0136309 -0.0167902 0.999766
vn 0.0428251 0.0477353 0.997942
vn 0.00130364 0.0747564 0.997201
vn -0.0140053 0.0118922 0.999831
vn -0.142714 -0.0699041 0.987292
vn -0.0564136 0.0106545 0.998351
vn -0.00325819 -0.0184598 0.999824
vn 0.00950347 0.000207199 0.999955
vn 0.0180643 0.00419328 0.999828
vn 0.0164167 0.0494219 0.998643
vn -0.0387334 -0.00369602 0.999243
vn -0.0582505 -0.0292332 0.997874
vn -0.0435546 -0.0308478 0.998575
vn -0.0415194 0.0310407 0.998655
vn 0.00450223 0.0168278 0.999848
vn 0.00519616 -0.00723276 0.99996
vn 0.0147117 -0.0212536 0.999666
vn -0.00378339 0.0114228 0.999928
vn -0.00177163 0.0044901 0.999988
vn 0.00756002 -0.0192382 0.999786
vn 0.0250315 -0.0237876 0.999404
vn 0.00313395 -0.00431788 0.999986
vn -0.00917876 0.0155606 0.999837
vn -0.0162088 0.00184428 0.999867
vn -0.0145948 -0.0192244 0.999709
vn -0.0278042 0.0147231 0.999505
vn -0.00823362 0.0261012 0.999625
vn 0.0299451 -0.0104398 0.999497
vn 0.0289499 0.000554772 0.999581
vn 0.0471235 -0.0223458 0.998639
vn -0.016425 -0.00568591 0.999849
vn -0.0483816 -0.000420904 0.998829
vn -0.0144285 0.0149513 0.999784
vn -0.000885206 0.0101081 0.999949
vn 0.0303224 0.0412106 0.99869
vn 0.039763 0.0405363 0.998387
vn 0.0844045 0.0495577 0.995198
vn 0.103951 0.043549 0.993629
vn -0.0461183 0.000567899 0.998936
vn -0.0225224 0.0199565 0.999547
vn 0.0110109 0.062009 0.998015
vn 0.0481154 0.0314097 0.998348
vn 0.0690532 0.0359952 0.996963
vn 0.0498118 0.0515388 0.997428
vn 0.0391885 0.0591341 0.997481
vn 0.0822844 0.00198151 0.996607
f 100/100/100 4/4/4 13/13/13
f 44/44/44 3/3/3 21/21/21
f 44/44/44 19/19/19 20/20/20
f 60/60/60 19/19/19 52/52/52
f 60/60/60 17/17/17 18/18/18
f 76/76/76 17/17/17 68/68/68
f 84/84/84 16/16/16 76/76/76
f 84/84/84 14/14/14 15/15/15
f 100/100/100 14/14/14 92/92/92
f 11/11/11 93/93/93 85/85/85
f 93/93/93 86/86/86 85/85/85
f 94/94/94 87/87/87 86/86/86
f 87/87/87 96/96/96 88/88/88
f 96/96/96 89/89/89 88/88/88
f 97/97/97 90/90/90 89/89/89
f 90/90/90 99/99/99 91/91/91
f 91/91/91 100/100/100 92/92/92
f 10/10/10 85/85/85 77/77/77
f 77/77/77 86/86/86 78/78/78
f 78/78/78 87/87/87 79/79/79
f 79/79/79 88/88/88 80/80/80
f 88/88/88 81/81/81 80/80/80
f 81/81/81 90/90/90 82/82/82
f 82/82/82 91/91/91 83/83/83
f 91/91/91 84/84/84 83/83/83
f 10/10/10 69/69/69 9/9/9
f 69/69/69 78/78/78 70/70/70
f 70/70/70 79/79/79 71/71/71
f 79/79/79 72/72/72 71/71/71
f 72/72/72 81/81/81 73/73/73
f 73/73/73 82/82/82 74/74/74
f 82/82/82 75/75/75 74/74/74
f 83/83/83 76/76/76 75/75/75
f 9/9/9 61/61/61 8/8/8
f 69/69/69 62/62/62 61/61/61
f 62/62/62 71/71/71 63/63/63
f 63/63/63 72/72/72 64/64/64
f 72/72/72 65/65/65 64/64/64
f 65/65/65 74/74/74 66/66/66
f 66/66/66 75/75/75 67/67/67
f 67/67/67 76/76/76 68/68/68
f 8/8/8 53/53/53 7/7/7
f 53/53/53 62/62/62 54/54/54
f 54/54/54 63/63/63 55/55/55
f 55/55/55 64/64/64 56/56/56
f 64/64/64 57/57/57 56/56/56
f 57/57/57 66/66/66 58/58/58
f 58/58/58 67/67/67 59/59/59
f 59/59/59 68/68/68 60/60/60
f 6/6/6 53/53/53 45/45/45
f 45/45/45 54/54/54 46/46/46
f 54/54/54 47/47/47 46/46/46
f 55/55/55 48/48/48 47/47/47
f 56/56/56 49/49/49 48/48/48
f 49/49/49 58/58/58 50/50/50
f 58/58/58 51/51/51 50/50/50
f 59/59/59 52/52/52 51/51/51
f 6/6/6 37/37/37 5/5/5
f 45/45/45 38/38/38 37/37/37
f 46/46/46 39/39/39 38/38/38
f 39/39/39 48/48/48 40/40/40
f 40/40/40 49/49/49 41/41/41
f 41/41/41 50/50/50 42/42/42
f 50/50/50 43/43/43 42/42/42
f 51/51/51 44/44/44 43/43/43
f 5/5/5 28/28/28 1/1/1
f 28/28/28 38/38/38 27/27/27
f 27/27/27 39/39/39 26/26/26
f 26/26/26 40/40/40 25/25/25
f 40/40/40 24/24/24 25/25/25
f 41/41/41 23/23/23 24/24/24
f 23/23/23 43/43/43 22/22/22
f 43/43/43 21/21/21 22/22/22
f 2/2/2 93/93/93 12/12/12
f 93/93/93 30/30/30 94/94/94
f 30/30/30 95/95/95 94/94/94
f 31/31/31 96/96/96 95/95/95
f 32/32/32 97/97/97 96/96/96
f 33/33/33 98/98/98 97/97/97
f 98/98/98 35/35/35 99/99/99
f 99/99/99 36/36/36 100/100/100
f 100/100/100 36/36/36 4/4/4
f 44/44/44 20/20/20 3/3/3
f 44/44/44 52/52/52 19/19/19
f 60/60/60 18/18/18 19/19/19
f 60/60/60 68/68/68 17/17/17
f 76/76/76 16/16/16 17/17/17
f 84/84/84 15/15/15 16/16/16
f 84/84/84 92/92/92 14/14/14
f 100/100/100 13/13/13 14/14/14
f 11/11/11 12/12/12 93/93/93
f 93/93/93 94/94/94 86/86/86
f 94/94/94 95/95/95 87/87/87
f 87/87/87 95/95/95 96/96/96
f 96/96/96 97/97/97 89/89/89
f 97/97/97 98/98/98 90/90/90
f 90/90/90 98/98/98 99/99/99
f 91/91/91 99/99/99 100/100/100
f 10/10/10 11/11/11 85/85/85
f 77/77/77 85/85/85 86/86/86
f 78/78/78 86/86/86 87/87/87
f 79/79/79 87/87/87 88/88/88
f 88/88/88 89/89/89 81/81/81
f 81/81/81 89/89/89 90/90/90
f 82/82/82 90/90/90 91/91/91
f 91/91/91 92/92/92 84/84/84
f 10/10/10 77/77/77 69/69/69
f 69/69/69 77/77/77 78/78/78
f 70/70/70 78/78/78 79/79/79
f 79/79/79 80/80/80 72/72/72
f 72/72/72 80/80/80 81/81/81
f 73/73/73 81/81/81 82/82/82
f 82/82/82 83/83/83 75/75/75
f 83/83/83 84/84/84 76/76/76
f 9/9/9 69/69/69 61/61/61
f 69/69/69 70/70/70 62/62/62
f 62/62/62 70/70/70 71/71/71
f 63/63/63 71/71/71 72/72/72
f 72/72/72 73/73/73 65/65/65
f 65/65/65 73/73/73 74/74/74
f 66/66/66 74/74/74 75/75/75
f 67/67/67 75/75/75 76/76/76
f 8/8/8 61/61/61 53/53/53
f 53/53/53 61/61/61 62/62/62
f 54/54/54 62/62/62 63/63/63
f 55/55/55 63/63/63 64/64/64
f 64/64/64 65/65/65 57/57/57
f 57/57/57 65/65/65 66/66/66
f 58/58/58 66/66/66 67/67/67
f 59/59/59 67/67/67 68/68/68
f 6/6/6 7/7/7 53/53/53
f 45/45/45 53/53/53 54/54/54
f 54/54/54 55/55/55 47/47/47
f 55/55/55 56/56/56 48/48/48
f 56/56/56 57/57/57 49/49/49
f 49/49/49 57/57/57 58/58/58
f 58/58/58 59/59/59 51/51/51
f 59/59/59 60/60/60 52/52/52
f 6/6/6 45/45/45 37/37/37
f 45/45/45 46/46/46 38/38/38
f 46/46/46 47/47/47 39/39/39
f 39/39/39 47/47/47 48/48/48
f 40/40/40 48/48/48 49/49/49
f 41/41/41 49/49/49 50/50/50
f 50/50/50 51/51/51 43/43/43
f 51/51/51 52/52/52 44/44/44
f 5/5/5 37/37/37 28/28/28
f 28/28/28 37/37/37 38/38/38
f 27/27/27 38/38/38 39/39/39
f 26/26/26 39/39/39 40/40/40
f 40/40/40 41/41/41 24/24/24
f 41/41/41 42/42/42 23/23/23
f 23/23/23 42/42/42 43/43/43
f 43/43/43 44/44/44 21/21/21
f 2/2/2 29/29/29 93/93/93
f 93/93/93 29/29/29 30/30/30
f 30/30/30 31/31/31 95/95/95
f 31/31/31 32/32/32 96/96/96
f 32/32/32 33/33/33 97/97/97
f 33/33/33 34/34/34 98/98/98
f 98/98/98 34/34/34 35/35/35
f 99/99/99 35/35/35 36/36/36
