o GNATVCloth
v -5.04577 -4.98834 0.590527
v 5.05145 -4.99379 0.391513
v -5.01298 5.02105 0.004229
v 4.98702 5.02105 0.004229
v -3.93229 -5.02366 0.534774
v -2.81337 -5.06634 0.481891
v -1.69019 -5.09138 0.489405
v -0.564044 -5.11534 0.489259
v 0.565625 -5.11123 0.506967
v 1.69415 -5.09997 0.507942
v 2.81862 -5.07427 0.452617
v 3.94019 -5.02242 0.470143
v 3.8638 4.90558 0.180623
v 2.74927 4.82809 0.350489
v 1.62732 4.7734 0.322416
v 0.508216 4.73153 0.303072
v -0.586884 4.70677 0.456623
v -1.69304 4.70384 0.625028
v -2.81062 4.76942 0.517643
v -3.90209 4.88861 0.247971
v -4.98288 3.90696 0.0757651
v -4.98511 2.79228 0.139979
v -4.99376 1.67841 0.206085
v -5.0013 0.564324 0.26315
v -5.00627 -0.549241 0.320599
v -5.01174 -1.66225 0.363363
v -5.01981 -2.77426 0.392523
v -5.02645 -3.8801 0.497878
v 5.03085 -3.88966 0.301453
v 5.01724 -2.77847 0.268758
v 5.0092 -1.66577 0.248325
v 5.00255 -0.552581 0.23325
v 4.99484 0.561066 0.199987
v 4.9851 1.67575 0.164477
v 4.97861 2.79109 0.12955
v 4.97204 3.9054 0.0580601
v -3.85935 -3.88699 0.346779
v -3.821 -3.2426 0.274784
v -3.67074 -1.95622 0.242346
v -4.12222 -0.293647 0.23245
v -4.14558 0.723822 0.188192
v -4.13683 1.50954 0.130553
v -4.0674 2.79832 0.0335503
v -3.92186 3.87733 -0.118837
v -2.72662 -4.05586 0.309261
v -2.80323 -2.78641 0.347432
v -2.68016 -2.19599 0.293265
v -2.75426 -0.651571 0.286432
v -2.78809 0.474968 0.177185
v -2.72142 1.51157 0.029547
v -2.84051 2.85041 -0.127259
v -2.74223 3.52574 0.0394504
v -1.66128 -4.29012 0.323472
v -1.50107 -2.97896 0.396525
v -1.89464 -1.68549 0.38194
v -1.8771 -0.891428 0.323924
v -1.52507 0.580127 0.0627036
v -1.98487 1.63993 -0.0342531
v -1.70472 2.68075 0.0208703
v -1.58513 3.59274 0.421146
v -0.235001 -4.38161 0.393719
v -0.588609 -2.9474 0.479338
v -0.547352 -1.8048 0.431898
v -0.83992 -0.833255 0.310195
v -0.603373 0.367906 0.122834
v -0.366533 1.38998 0.0803635
v -0.562614 2.56721 0.165752
v -0.761623 3.39275 0.435086
v 0.738545 -3.95781 0.404298
v 0.816323 -2.6662 0.48919
v 0.528332 -1.87604 0.468621
v 0.613137 -0.574859 0.17213
v 0.591183 0.329263 0.156802
v 0.306076 1.43419 0.0921375
v 0.531169 2.39787 0.156357
v 0.540402 3.63219 0.403431
v 1.95758 -3.70593 0.361673
v 1.67702 -2.89646 0.376263
v 1.83243 -1.97011 0.44782
v 1.99187 -0.462473 0.152263
v 1.9791 0.205732 -0.00211267
v 1.83367 1.46589 0.0584816
v 1.41406 2.73691 0.138871
v 1.47737 3.55344 0.311559
v 2.80363 -3.96264 0.366351
v 3.10928 -2.87376 0.324731
v 2.95631 -1.99692 0.275775
v 2.72043 -0.536168 0.307608
v 2.96365 0.25621 0.209041
v 3.08112 1.52587 -0.0823102
v 2.76567 3.08971 -0.0521804
v 2.73108 3.4506 0.0312496
v 3.93167 -3.99396 0.298075
v 3.67234 -2.73913 0.30487
v 3.88227 -1.69793 0.287511
v 3.81757 -0.741877 0.304917
v 3.87715 0.269643 0.2842
v 4.1651 1.78709 0.147907
v 4.14507 2.7358 -0.0344849
v 4.02518 3.85883 -0.0890667
vt 0.0001 0.0001
vt 0.9999 0.0001
vt 0.0001 0.9999
vt 0.9999 0.9999
vt 0.111189 0.0001
vt 0.222278 0.0001
vt 0.333367 0.0001
vt 0.444455 0.0001
vt 0.555544 0.0001
vt 0.666633 0.0001
vt 0.777722 0.0001
vt 0.888811 0.0001
vt 0.888811 0.9999
vt 0.777722 0.9999
vt 0.666633 0.9999
vt 0.555544 0.9999
vt 0.444455 0.9999
vt 0.333367 0.9999
vt 0.222278 0.9999
vt 0.111189 0.9999
vt 0.0001 0.888811
vt 0.0001 0.777722
vt 0.0001 0.666633
vt 0.0001 0.555544
vt 0.0001 0.444456
vt 0.0001 0.333367
vt 0.0001 0.222278
vt 0.0001 0.111189
vt 0.9999 0.111189
vt 0.9999 0.222278
vt 0.9999 0.333367
vt 0.9999 0.444456
vt 0.9999 0.555544
vt 0.9999 0.666633
vt 0.9999 0.777722
vt 0.9999 0.888811
vt 0.11727 0.115399
vt 0.120778 0.180369
vt 0.134636 0.309595
vt 0.088728 0.473895
vt 0.085886 0.575352
vt 0.086211 0.65375
vt 0.092207 0.78313
vt 0.106956 0.892282
vt 0.22987 0.102869
vt 0.221803 0.229552
vt 0.233521 0.288953
vt 0.225541 0.443179
vt 0.221596 0.556167
vt 0.227801 0.661237
vt 0.214896 0.795203
vt 0.22542 0.865181
vt 0.335524 0.082127
vt 0.351143 0.213907
vt 0.311934 0.342467
vt 0.313159 0.422214
vt 0.347791 0.572605
vt 0.301482 0.677733
vt 0.329031 0.783086
vt 0.344903 0.885466
vt 0.476837 0.074882
vt 0.441952 0.218774
vt 0.445749 0.333088
vt 0.416414 0.43099
vt 0.439746 0.552976
vt 0.463203 0.656843
vt 0.444252 0.77653
vt 0.426137 0.866051
vt 0.573419 0.117409
vt 0.581125 0.246686
vt 0.552512 0.326
vt 0.561075 0.459693
vt 0.558356 0.550596
vt 0.530299 0.662189
vt 0.553275 0.760113
vt 0.555478 0.888821
vt 0.694433 0.13996
vt 0.667048 0.221666
vt 0.681985 0.314267
vt 0.698218 0.467249
vt 0.696819 0.535952
vt 0.68253 0.662758
vt 0.642062 0.791726
vt 0.648523 0.877957
vt 0.778029 0.111667
vt 0.809426 0.219523
vt 0.794923 0.307783
vt 0.772028 0.454562
vt 0.796846 0.533374
vt 0.807262 0.663157
vt 0.778581 0.821037
vt 0.775122 0.858219
vt 0.890224 0.104741
vt 0.865679 0.23076
vt 0.887326 0.334104
vt 0.881307 0.429754
vt 0.887973 0.53063
vt 0.918106 0.681428
vt 0.915043 0.778027
vt 0.904815 0.89094
vn 0.0524427 0.0822871 0.995228
vn 0.0273542 0.123341 0.991987
vn -0.030171 -0.135346 0.990339
vn 0.00904458 -0.0874487 0.996128
vn 0.0777256 0.132099 0.988184
vn 0.0327813 0.173147 0.98435
vn 0.00120474 0.202746 0.979231
vn -0.0169701 0.161808 0.986676
vn -0.0235201 0.107206 0.993959
vn 0.0209967 0.0920943 0.995529
vn 0.0289043 0.107084 0.99383
vn 0.0211959 0.165147 0.986041
vn 0.167708 -0.221639 0.960599
vn 0.124216 -0.170758 0.977452
vn -0.0208783 -0.00633114 0.999762
vn 0.0749375 0.0604244 0.995356
vn 0.0737032 -0.0262404 0.996935
vn 0.0221645 -0.178355 0.983716
vn -0.218012 -0.309776 0.925478
vn -0.249858 -0.325843 0.91181
vn 0.159719 0.07945 0.98396
vn 0.114637 0.0574352 0.991746
vn 0.098799 0.0623452 0.993152
vn 0.0803754 0.0488549 0.995567
vn 0.0864066 0.0443869 0.995271
vn 0.0935104 0.0318106 0.99511
vn 0.110578 0.0439264 0.992896
vn 0.110563 0.108081 0.987975
vn -0.00830941 0.055234 0.998439
vn 0.0205966 0.0148169 0.999678
vn 0.0425309 0.00555169 0.99908
vn 0.0610204 0.0203891 0.997928
vn 0.035279 0.0470551 0.998269
vn -0.0159246 0.0314507 0.999378
vn -0.138843 0.0917606 0.986054
vn -0.169169 0.0475991 0.984437
vn 0.0830304 0.137637 0.986996
vn 0.0452843 0.053398 0.997546
vn 0.0127366 0.0286455 0.999508
vn 0.0443197 0.0430615 0.998089
vn 0.0631792 0.0704155 0.995515
vn 0.0861341 0.0710507 0.993747
vn 0.11884 0.0882485 0.988984
vn -0.064328 -0.13678 0.988511
vn 0.000973323 0.0534982 0.998567
vn -0.0474001 0.0325537 0.998345
vn -0.0627668 0.035078 0.997412
vn -0.0427625 0.0436304 0.998132
vn 0.0338236 0.113439 0.992969
vn 0.0709346 0.111241 0.991259
vn -0.0286728 -0.0120049 0.999517
vn -0.225993 -0.30097 0.926469
vn -0.0260302 0.0789444 0.996539
vn -0.0584073 -0.00116879 0.998292
vn -0.0481724 0.0404667 0.998019
vn 0.00997118 0.114702 0.99335
vn 0.00298024 0.122558 0.992457
vn -0.0284738 0.0470759 0.998485
vn -0.161006 -0.225371 0.960877
vn -0.107859 -0.250113 0.96219
vn -0.0297765 0.0502342 0.998294
vn -0.0368061 -0.0186655 0.999148
vn -0.0229221 0.0955545 0.99516
vn 0.0158931 0.134704 0.990758
vn -0.0144749 0.0780982 0.996841
vn -0.0389889 -0.00958206 0.999194
vn -0.0522751 -0.169227 0.98419
vn -0.0358981 -0.214314 0.976105
vn 0.01807 0.0125558 0.999758
vn 0.045862 -0.0355504 0.998315
vn -0.00229453 0.108615 0.994081
vn 0.0290891 0.148357 0.988506
vn 0.0385233 0.023294 0.998986
vn -0.00329134 0.00524801 0.999981
vn 0.0199221 -0.108716 0.993873
vn 0.0717803 -0.105446 0.991831
vn 0.0232712 0.0454681 0.998695
vn 0.0786817 -0.0360938 0.996246
vn 0.0389399 0.0668352 0.997004
vn -0.0934069 0.211726 0.972855
vn -0.0403544 0.118683 0.992112
vn 0.0806301 -0.0199973 0.996543
vn 0.110023 -0.138889 0.984177
vn 0.104934 -0.112072 0.988144
vn 0.0402122 0.0627057 0.997222
vn 0.0322413 0.0291951 0.999054
vn 0.0470067 0.000439164 0.998895
vn -0.0688694 0.11968 0.990421
vn -0.11522 0.160031 0.980364
vn -0.083262 0.105013 0.990979
vn 0.112759 -0.0886173 0.989663
vn 0.177221 -0.215005 0.960398
vn 0.0264156 0.0678495 0.997346
vn 0.0181144 0.018618 0.999663
vn 0.0141303 0.00317719 0.999895
vn 0.0120996 0.0165669 0.99979
vn -0.0373949 0.0862962 0.995568
vn -0.111104 0.106359 0.988101
vn -0.137258 0.0801568 0.987287
vn 0.0495085 -0.108708 0.99284
f 100/100/100 4/4/4 13/13/13
f 44/44/44 3/3/3 21/21/21
f 44/44/44 19/19/19 20/20/20
f 60/60/60 19/19/19 52/52/52
f 60/60/60 17/17/17 18/18/18
f 76/76/76 17/17/17 68/68/68
f 84/84/84 16/16/16 76/76/76
f 84/84/84 14/14/14 15/15/15
f 100/100/100 14/14/14 92/92/92
f 11/11/11 93/93/93 85/85/85
f 93/93/93 86/86/86 85/85/85
f 94/94/94 87/87/87 86/86/86
f 87/87/87 96/96/96 88/88/88
f 96/96/96 89/89/89 88/88/88
f 97/97/97 90/90/90 89/89/89
f 90/90/90 99/99/99 91/91/91
f 91/91/91 100/100/100 92/92/92
f 10/10/10 85/85/85 77/77/77
f 77/77/77 86/86/86 78/78/78
f 78/78/78 87/87/87 79/79/79
f 79/79/79 88/88/88 80/80/80
f 88/88/88 81/81/81 80/80/80
f 81/81/81 90/90/90 82/82/82
f 82/82/82 91/91/91 83/83/83
f 91/91/91 84/84/84 83/83/83
f 10/10/10 69/69/69 9/9/9
f 69/69/69 78/78/78 70/70/70
f 70/70/70 79/79/79 71/71/71
f 79/79/79 72/72/72 71/71/71
f 72/72/72 81/81/81 73/73/73
f 73/73/73 82/82/82 74/74/74
f 82/82/82 75/75/75 74/74/74
f 83/83/83 76/76/76 75/75/75
f 9/9/9 61/61/61 8/8/8
f 69/69/69 62/62/62 61/61/61
f 62/62/62 71/71/71 63/63/63
f 63/63/63 72/72/72 64/64/64
f 72/72/72 65/65/65 64/64/64
f 65/65/65 74/74/74 66/66/66
f 66/66/66 75/75/75 67/67/67
f 67/67/67 76/76/76 68/68/68
f 8/8/8 53/53/53 7/7/7
f 53/53/53 62/62/62 54/54/54
f 54/54/54 63/63/63 55/55/55
f 55/55/55 64/64/64 56/56/56
f 64/64/64 57/57/57 56/56/56
f 57/57/57 66/66/66 58/58/58
f 58/58/58 67/67/67 59/59/59
f 59/59/59 68/68/68 60/60/60
f 6/6/6 53/53/53 45/45/45
f 45/45/45 54/54/54 46/46/46
f 54/54/54 47/47/47 46/46/46
f 55/55/55 48/48/48 47/47/47
f 56/56/56 49/49/49 48/48/48
f 49/49/49 58/58/58 50/50/50
f 58/58/58 51/51/51 50/50/50
f 59/59/59 52/52/52 51/51/51
f 6/6/6 37/37/37 5/5/5
f 45/45/45 38/38/38 37/37/37
f 46/46/46 39/39/39 38/38/38
f 39/39/39 48/48/48 40/40/40
f 40/40/40 49/49/49 41/41/41
f 41/41/41 50/50/50 42/42/42
f 50/50/50 43/43/43 42/42/42
f 51/51/51 44/44/44 43/43/43
f 5/5/5 28/28/28 1/1/1
f 28/28/28 38/38/38 27/27/27
f 27/27/27 39/39/39 26/26/26
f 26/26/26 40/40/40 25/25/25
f 40/40/40 24/24/24 25/25/25
f 41/41/41 23/23/23 24/24/24
f 23/23/23 43/43/43 22/22/22
f 43/43/43 21/21/21 22/22/22
f 2/2/2 93/93/93 12/12/12
f 93/93/93 30/30/30 94/94/94
f 30/30/30 95/95/95 94/94/94
f 31/31/31 96/96/96 95/95/95
f 32/32/32 97/97/97 96/96/96
f 33/33/33 98/98/98 97/97/97
f 98/98/98 35/35/35 99/99/99
f 99/99/99 36/36/36 100/100/100
f 100/100/100 36/36/36 4/4/4
f 44/44/44 20/20/20 3/3/3
f 44/44/44 52/52/52 19/19/19
f 60/60/60 18/18/18 19/19/19
f 60/60/60 68/68/68 17/17/17
f 76/76/76 16/16/16 17/17/17
f 84/84/84 15/15/15 16/16/16
f 84/84/84 92/92/92 14/14/14
f 100/100/100 13/13/13 14/14/14
f 11/11/11 12/12/12 93/93/93
f 93/93/93 94/94/94 86/86/86
f 94/94/94 95/95/95 87/87/87
f 87/87/87 95/95/95 96/96/96
f 96/96/96 97/97/97 89/89/89
f 97/97/97 98/98/98 90/90/90
f 90/90/90 98/98/98 99/99/99
f 91/91/91 99/99/99 100/100/100
f 10/10/10 11/11/11 85/85/85
f 77/77/77 85/85/85 86/86/86
f 78/78/78 86/86/86 87/87/87
f 79/79/79 87/87/87 88/88/88
f 88/88/88 89/89/89 81/81/81
f 81/81/81 89/89/89 90/90/90
f 82/82/82 90/90/90 91/91/91
f 91/91/91 92/92/92 84/84/84
f 10/10/10 77/77/77 69/69/69
f 69/69/69 77/77/77 78/78/78
f 70/70/70 78/78/78 79/79/79
f 79/79/79 80/80/80 72/72/72
f 72/72/72 80/80/80 81/81/81
f 73/73/73 81/81/81 82/82/82
f 82/82/82 83/83/83 75/75/75
f 83/83/83 84/84/84 76/76/76
f 9/9/9 69/69/69 61/61/61
f 69/69/69 70/70/70 62/62/62
f 62/62/62 70/70/70 71/71/71
f 63/63/63 71/71/71 72/72/72
f 72/72/72 73/73/73 65/65/65
f 65/65/65 73/73/73 74/74/74
f 66/66/66 74/74/74 75/75/75
f 67/67/67 75/75/75 76/76/76
f 8/8/8 61/61/61 53/53/53
f 53/53/53 61/61/61 62/62/62
f 54/54/54 62/62/62 63/63/63
f 55/55/55 63/63/63 64/64/64
f 64/64/64 65/65/65 57/57/57
f 57/57/57 65/65/65 66/66/66
f 58/58/58 66/66/66 67/67/67
f 59/59/59 67/67/67 68/68/68
f 6/6/6 7/7/7 53/53/53
f 45/45/45 53/53/53 54/54/54
f 54/54/54 55/55/55 47/47/47
f 55/55/55 56/56/56 48/48/48
f 56/56/56 57/57/57 49/49/49
f 49/49/49 57/57/57 58/58/58
f 58/58/58 59/59/59 51/51/51
f 59/59/59 60/60/60 52/52/52
f 6/6/6 45/45/45 37/37/37
f 45/45/45 46/46/46 38/38/38
f 46/46/46 47/47/47 39/39/39
f 39/39/39 47/47/47 48/48/48
f 40/40/40 48/48/48 49/49/49
f 41/41/41 49/49/49 50/50/50
f 50/50/50 51/51/51 43/43/43
f 51/51/51 52/52/52 44/44/44
f 5/5/5 37/37/37 28/28/28
f 28/28/28 37/37/37 38/38/38
f 27/27/27 38/38/38 39/39/39
f 26/26/26 39/39/39 40/40/40
f 40/40/40 41/41/41 24/24/24
f 41/41/41 42/42/42 23/23/23
f 23/23/23 42/42/42 43/43/43
f 43/43/43 44/44/44 21/21/21
f 2/2/2 29/29/29 93/93/93
f 93/93/93 29/29/29 30/30/30
f 30/30/30 31/31/31 95/95/95
f 31/31/31 32/32/32 96/96/96
f 32/32/32 33/33/33 97/97/97
f 33/33/33 34/34/34 98/98/98
f 98/98/98 34/34/34 35/35/35
f 99/99/99 35/35/35 36/36/36
