o GNATVCloth
v -4.95047 -5.01034 0.25833
v 5.19655 -5.01038 0.261157
v -5.01298 5.02105 0.004229
v 4.98702 5.02105 0.004229
v -3.83311 -5.05539 0.205464
v -2.7098 -5.10081 0.181006
v -1.57985 -5.13589 0.165602
v -0.448075 -5.15854 0.141125
v 0.689479 -5.16514 0.143858
v 1.8217 -5.15667 0.13161
v 2.95202 -5.11868 0.164054
v 4.07744 -5.06285 0.218095
v 3.85376 4.92731 0.0853969
v 2.73115 4.84072 0.171411
v 1.61356 4.73841 0.215769
v 0.658637 4.67382 0.177014
v -0.462599 4.74158 0.154642
v -1.58567 4.80502 0.178333
v -2.71863 4.8897 0.149126
v -3.85786 4.94992 0.0636634
v -4.97447 3.90453 0.0472751
v -4.95726 2.78748 0.0827394
v -4.9446 1.67086 0.113112
v -4.93113 0.555095 0.155057
v -4.92134 -0.559772 0.193312
v -4.91706 -1.67423 0.210517
v -4.9193 -2.78721 0.217067
v -4.92717 -3.89988 0.208005
v 5.16277 -3.90076 0.207462
v 5.14675 -2.78863 0.177333
v 5.12831 -1.67469 0.191539
v 5.11109 -0.559887 0.176343
v 5.09246 0.555198 0.145636
v 5.06829 1.67121 0.109965
v 5.04143 2.78751 0.0730964
v 5.01125 3.90405 0.0360324
v -3.75094 -3.90532 0.16244
v -3.71213 -3.25566 0.150592
v -3.57166 -1.9679 0.11521
v -4.03845 -0.303637 0.127097
v -4.07524 0.713655 0.12629
v -4.08038 1.49857 0.116451
v -4.03587 2.79097 0.0845641
v -3.89683 3.87525 0.0454593
v -2.61614 -4.07655 0.140429
v -2.69415 -2.80568 0.129821
v -2.57741 -2.21728 0.112166
v -2.6651 -0.671313 0.154454
v -2.71388 0.461024 0.144634
v -2.66089 1.51025 0.127294
v -2.80385 2.85289 0.105983
v -2.70351 3.54191 0.138336
v -1.54896 -4.31834 0.127798
v -1.3898 -3.004 0.115711
v -1.79126 -1.70904 0.172522
v -1.7831 -0.911578 0.16796
v -1.44549 0.582364 0.119775
v -1.92165 1.64513 0.124633
v -1.65833 2.68847 0.136876
v -1.49713 3.68449 0.140041
v -0.1163 -4.41917 0.116554
v -0.473433 -2.97774 0.114549
v -0.442041 -1.83457 0.144001
v -0.745151 -0.851397 0.126016
v -0.520965 0.363685 0.128812
v -0.294353 1.39574 0.13753
v -0.495615 2.59831 0.135278
v -0.680314 3.46017 0.139492
v 0.860193 -3.9995 0.129581
v 0.929407 -2.70574 0.137844
v 0.634689 -1.91687 0.139961
v 0.708627 -0.583574 0.105641
v 0.673495 0.324048 0.136358
v 0.378238 1.43856 0.145992
v 0.600648 2.4076 0.141043
v 0.625546 3.64004 0.126885
v 2.08238 -3.75252 0.149107
v 1.79842 -2.9449 0.127644
v 1.94078 -2.01626 0.130458
v 2.08755 -0.484007 0.150179
v 2.06733 0.197434 0.117513
v 1.90238 1.45831 0.0943686
v 1.46773 2.729 0.158628
v 1.50946 3.52468 0.125174
v 2.93167 -4.00462 0.133861
v 3.23336 -2.91407 0.17152
v 3.07905 -2.04049 0.100003
v 2.83114 -0.583107 0.151848
v 3.06743 0.217427 0.15493
v 3.15156 1.5195 0.107555
v 2.82723 3.07702 0.122687
v 2.7788 3.42377 0.167983
v 4.06554 -4.0211 0.113184
v 3.79837 -2.77437 0.17387
v 4.00097 -1.72686 0.163963
v 3.92886 -0.773583 0.122346
v 3.97815 0.240678 0.131631
v 4.25003 1.76708 0.118064
v 4.19438 2.73184 0.0979024
v 4.05837 3.85415 0.0735131
vt 0.0001 0.0001
vt 0.9999 0.0001
vt 0.0001 0.9999
vt 0.9999 0.9999
vt 0.111189 0.0001
vt 0.222278 0.0001
vt 0.333367 0.0001
vt 0.444455 0.0001
vt 0.555544 0.0001
vt 0.666633 0.0001
vt 0.777722 0.0001
vt 0.888811 0.0001
vt 0.888811 0.9999
vt 0.777722 0.9999
vt 0.666633 0.9999
vt 0.555544 0.9999
vt 0.444455 0.9999
vt 0.333367 0.9999
vt 0.222278 0.9999
vt 0.111189 0.9999
vt 0.0001 0.888811
vt 0.0001 0.777722
vt 0.0001 0.666633
vt 0.0001 0.555544
vt 0.0001 0.444456
vt 0.0001 0.333367
vt 0.0001 0.222278
vt 0.0001 0.111189
vt 0.9999 0.111189
vt 0.9999 0.222278
vt 0.9999 0.333367
vt 0.9999 0.444456
vt 0.9999 0.555544
vt 0.9999 0.666633
vt 0.9999 0.777722
vt 0.9999 0.888811
vt 0.11727 0.115399
vt 0.120778 0.180369
vt 0.134636 0.309595
vt 0.088728 0.473895
vt 0.085886 0.575352
vt 0.086211 0.65375
vt 0.092207 0.78313
vt 0.106956 0.892282
vt 0.22987 0.102869
vt 0.221803 0.229552
vt 0.233521 0.288953
vt 0.225541 0.443179
vt 0.221596 0.556167
vt 0.227801 0.661237
vt 0.214896 0.795203
vt 0.22542 0.865181
vt 0.335524 0.082127
vt 0.351143 0.213907
vt 0.311934 0.342467
vt 0.313159 0.422214
vt 0.347791 0.572605
vt 0.301482 0.677733
vt 0.329031 0.783086
vt 0.344903 0.885466
vt 0.476837 0.074882
vt 0.441952 0.218774
vt 0.445749 0.333088
vt 0.416414 0.43099
vt 0.439746 0.552976
vt 0.463203 0.656843
vt 0.444252 0.77653
vt 0.426137 0.866051
vt 0.573419 0.117409
vt 0.581125 0.246686
vt 0.552512 0.326
vt 0.561075 0.459693
vt 0.558356 0.550596
vt 0.530299 0.662189
vt 0.553275 0.760113
vt 0.555478 0.888821
vt 0.694433 0.13996
vt 0.667048 0.221666
vt 0.681985 0.314267
vt 0.698218 0.467249
vt 0.696819 0.535952
vt 0.68253 0.662758
vt 0.642062 0.791726
vt 0.648523 0.877957
vt 0.778029 0.111667
vt 0.809426 0.219523
vt 0.794923 0.307783
vt 0.772028 0.454562
vt 0.796846 0.533374
vt 0.807262 0.663157
vt 0.778581 0.821037
vt 0.775122 0.858219
vt 0.890224 0.104741
vt 0.865679 0.23076
vt 0.887326 0.334104
vt 0.881307 0.429754
vt 0.887973 0.53063
vt 0.918106 0.681428
vt 0.915043 0.778027
vt 0.904815 0.89094
vn 0.048991 0.044192 0.997821
vn -0.0667347 0.072552 0.99513
vn -0.0248027 0.0118094 0.999623
vn 0.054507 0.0159007 0.998387
vn 0.0370139 0.0381677 0.998586
vn 0.0209016 0.0390871 0.999017
vn 0.0187704 0.0454756 0.998789
vn 0.0100591 0.0361092 0.999297
vn -0.00377227 0.0200113 0.999793
vn -0.00482938 0.00309705 0.999984
vn -0.0212206 0.0511965 0.998463
vn -0.0477859 0.0995443 0.993885
vn 0.0736802 0.00300417 0.997277
vn 0.0406752 -0.0196209 0.99898
vn 0.00553901 -0.0749056 0.997175
vn -0.0209386 -0.0557865 0.998223
vn 0.00138037 -0.0263833 0.999651
vn -0.00461843 -0.0345165 0.999393
vn -0.0461634 -0.0168664 0.998791
vn -0.0639269 -0.0145848 0.997848
vn 0.0010957 0.0353404 0.999375
vn -0.00209108 0.0294334 0.999565
vn 0.00603996 0.0255515 0.999655
vn 0.0415063 0.0248925 0.998828
vn 0.0674832 0.0252294 0.997401
vn 0.0719187 0.0116371 0.997343
vn 0.0621798 0.00592659 0.998047
vn 0.0445868 0.0215504 0.998773
vn -0.089423 0.0355476 0.995359
vn -0.0294723 -0.00670268 0.999543
vn -0.032725 0.0137843 0.999369
vn -0.0375203 0.0110251 0.999235
vn -0.00748061 0.0237156 0.999691
vn 0.0137322 0.0327886 0.999368
vn 0.0228726 0.0299079 0.999291
vn 0.0342346 0.0298195 0.998969
vn 0.0295556 0.0280859 0.999169
vn 0.033388 0.0134602 0.999352
vn 0.0285572 0.00757611 0.999563
vn 0.0267341 0.00864 0.999605
vn 0.00449283 0.0137082 0.999896
vn -0.00397518 0.0186432 0.999818
vn -0.00653016 0.0280849 0.999584
vn -0.0441656 0.005821 0.999007
vn 0.0182237 0.0196554 0.999641
vn 0.0124299 0.019997 0.999723
vn -0.0152074 -0.0118716 0.999814
vn -0.0214974 -0.00833107 0.999734
vn -0.00256629 0.0117613 0.999928
vn -0.00711558 0.0168074 0.999833
vn -0.0307434 -0.00208938 0.999525
vn -0.0403458 -0.0192278 0.999001
vn 0.0129198 0.0253584 0.999595
vn 0.00300163 -0.00967515 0.999949
vn -0.00495698 -0.0147587 0.999879
vn 0.0138309 0.0142248 0.999803
vn 0.0074605 0.00678158 0.999949
vn -0.00340012 0.00167338 0.999993
vn -0.0100677 -0.0115882 0.999882
vn -0.00223561 -0.0157666 0.999873
vn -0.00333852 0.0159634 0.999867
vn -0.00432028 -0.00781781 0.99996
vn 0.0101039 -0.00294636 0.999945
vn 0.019623 0.0116851 0.999739
vn -0.00540936 -0.0103026 0.999932
vn -0.00978018 -0.00179671 0.999951
vn -0.000778441 -0.00102097 0.999999
vn 0.00398863 -0.00714934 0.999967
vn -0.00875906 0.00304685 0.999957
vn -0.000589834 -0.00507086 0.999987
vn 0.00178987 0.00331721 0.999993
vn -0.00303428 0.00455279 0.999985
vn 0.00911906 -0.0114534 0.999893
vn 0.00715428 -0.00208199 0.999972
vn -0.00227016 -0.0034972 0.999991
vn -0.00374399 -0.00676876 0.99997
vn -0.00883955 -0.00521129 0.999947
vn -0.00600981 0.0154311 0.999863
vn 0.00630429 -0.00570564 0.999964
vn -0.0167465 0.0181271 0.999695
vn -0.0132463 0.0206741 0.999699
vn 0.0137985 -0.00943556 0.99986
vn 0.00667117 0.0011356 0.999977
vn -0.00690221 -0.0364011 0.999313
vn 0.00546636 -0.0073757 0.999958
vn -0.00902694 0.00771554 0.999929
vn -0.0201318 0.0207474 0.999582
vn 0.0058411 -0.00525262 0.999969
vn -4.61897e-05 0.0118428 0.99993
vn -0.00634738 0.0147859 0.999871
vn 0.0214699 -0.0342828 0.999182
vn 0.0267431 -0.0633718 0.997632
vn -0.0292938 0.0202923 0.999365
vn -0.019798 0.00310993 0.999799
vn -0.042409 0.0200339 0.998899
vn -0.0183588 0.00447007 0.999821
vn -0.00700482 0.0112207 0.999912
vn 0.00220694 0.021819 0.99976
vn 0.0199265 0.0201983 0.999597
vn 0.0618106 -0.00388587 0.99808
f 100/100/100 4/4/4 13/13/13
f 44/44/44 3/3/3 21/21/21
f 44/44/44 19/19/19 20/20/20
f 60/60/60 19/19/19 52/52/52
f 60/60/60 17/17/17 18/18/18
f 76/76/76 17/17/17 68/68/68
f 84/84/84 16/16/16 76/76/76
f 84/84/84 14/14/14 15/15/15
f 100/100/100 14/14/14 92/92/92
f 11/11/11 93/93/93 85/85/85
f 93/93/93 86/86/86 85/85/85
f 94/94/94 87/87/87 86/86/86
f 87/87/87 96/96/96 88/88/88
f 96/96/96 89/89/89 88/88/88
f 97/97/97 90/90/90 89/89/89
f 90/90/90 99/99/99 91/91/91
f 91/91/91 100/100/100 92/92/92
f 10/10/10 85/85/85 77/77/77
f 77/77/77 86/86/86 78/78/78
f 78/78/78 87/87/87 79/79/79
f 79/79/79 88/88/88 80/80/80
f 88/88/88 81/81/81 80/80/80
f 81/81/81 90/90/90 82/82/82
f 82/82/82 91/91/91 83/83/83
f 91/91/91 84/84/84 83/83/83
f 10/10/10 69/69/69 9/9/9
f 69/69/69 78/78/78 70/70/70
f 70/70/70 79/79/79 71/71/71
f 79/79/79 72/72/72 71/71/71
f 72/72/72 81/81/81 73/73/73
f 73/73/73 82/82/82 74/74/74
f 82/82/82 75/75/75 74/74/74
f 83/83/83 76/76/76 75/75/75
f 9/9/9 61/61/61 8/8/8
f 69/69/69 62/62/62 61/61/61
f 62/62/62 71/71/71 63/63/63
f 63/63/63 72/72/72 64/64/64
f 72/72/72 65/65/65 64/64/64
f 65/65/65 74/74/74 66/66/66
f 66/66/66 75/75/75 67/67/67
f 67/67/67 76/76/76 68/68/68
f 8/8/8 53/53/53 7/7/7
f 53/53/53 62/62/62 54/54/54
f 54/54/54 63/63/63 55/55/55
f 55/55/55 64/64/64 56/56/56
f 64/64/64 57/57/57 56/56/56
f 57/57/57 66/66/66 58/58/58
f 58/58/58 67/67/67 59/59/59
f 59/59/59 68/68/68 60/60/60
f 6/6/6 53/53/53 45/45/45
f 45/45/45 54/54/54 46/46/46
f 54/54/54 47/47/47 46/46/46
f 55/55/55 48/48/48 47/47/47
f 56/56/56 49/49/49 48/48/48
f 49/49/49 58/58/58 50/50/50
f 58/58/58 51/51/51 50/50/50
f 59/59/59 52/52/52 51/51/51
f 6/6/6 37/37/37 5/5/5
f 45/45/45 38/38/38 37/37/37
f 46/46/46 39/39/39 38/38/38
f 39/39/39 48/48/48 40/40/40
f 40/40/40 49/49/49 41/41/41
f 41/41/41 50/50/50 42/42/42
f 50/50/50 43/43/43 42/42/42
f 51/51/51 44/44/44 43/43/43
f 5/5/5 28/28/28 1/1/1
f 28/28/28 38/38/38 27/27/27
f 27/27/27 39/39/39 26/26/26
f 26/26/26 40/40/40 25/25/25
f 40/40/40 24/24/24 25/25/25
f 41/41/41 23/23/23 24/24/24
f 23/23/23 43/43/43 22/22/22
f 43/43/43 21/21/21 22/22/22
f 2/2/2 93/93/93 12/12/12
f 93/93/93 30/30/30 94/94/94
f 30/30/30 95/95/95 94/94/94
f 31/31/31 96/96/96 95/95/95
f 32/32/32 97/97/97 96/96/96
f 33/33/33 98/98/98 97/97/97
f 98/98/98 35/35/35 99/99/99
f 99/99/99 36/36/36 100/100/100
f 100/100/100 36/36/36 4/4/4
f 44/44/44 20/20/20 3/3/3
f 44/44/44 52/52/52 19/19/19
f 60/60/60 18/18/18 19/19/19
f 60/60/60 68/68/68 17/17/17
f 76/76/76 16/16/16 17/17/17
f 84/84/84 15/15/15 16/16/16
f 84/84/84 92/92/92 14/14/14
f 100/100/100 13/13/13 14/14/14
f 11/11/11 12/12/12 93/93/93
f 93/93/93 94/94/94 86/86/86
f 94/94/94 95/95/95 87/87/87
f 87/87/87 95/95/95 96/96/96
f 96/96/96 97/97/97 89/89/89
f 97/97/97 98/98/98 90/90/90
f 90/90/90 98/98/98 99/99/99
f 91/91/91 99/99/99 100/100/100
f 10/10/10 11/11/11 85/85/85
f 77/77/77 85/85/85 86/86/86
f 78/78/78 86/86/86 87/87/87
f 79/79/79 87/87/87 88/88/88
f 88/88/88 89/89/89 81/81/81
f 81/81/81 89/89/89 90/90/90
f 82/82/82 90/90/90 91/91/91
f 91/91/91 92/92/92 84/84/84
f 10/10/10 77/77/77 69/69/69
f 69/69/69 77/77/77 78/78/78
f 70/70/70 78/78/78 79/79/79
f 79/79/79 80/80/80 72/72/72
f 72/72/72 80/80/80 81/81/81
f 73/73/73 81/81/81 82/82/82
f 82/82/82 83/83/83 75/75/75
f 83/83/83 84/84/84 76/76/76
f 9/9/9 69/69/69 61/61/61
f 69/69/69 70/70/70 62/62/62
f 62/62/62 70/70/70 71/71/71
f 63/63/63 71/71/71 72/72/72
f 72/72/72 73/73/73 65/65/65
f 65/65/65 73/73/73 74/74/74
f 66/66/66 74/74/74 75/75/75
f 67/67/67 75/75/75 76/76/76
f 8/8/8 61/61/61 53/53/53
f 53/53/53 61/61/61 62/62/62
f 54/54/54 62/62/62 63/63/63
f 55/55/55 63/63/63 64/64/64
f 64/64/64 65/65/65 57/57/57
f 57/57/57 65/65/65 66/66/66
f 58/58/58 66/66/66 67/67/67
f 59/59/59 67/67/67 68/68/68
f 6/6/6 7/7/7 53/53/53
f 45/45/45 53/53/53 54/54/54
f 54/54/54 55/55/55 47/47/47
f 55/55/55 56/56/56 48/48/48
f 56/56/56 57/57/57 49/49/49
f 49/49/49 57/57/57 58/58/58
f 58/58/58 59/59/59 51/51/51
f 59/59/59 60/60/60 52/52/52
f 6/6/6 45/45/45 37/37/37
f 45/45/45 46/46/46 38/38/38
f 46/46/46 47/47/47 39/39/39
f 39/39/39 47/47/47 48/48/48
f 40/40/40 48/48/48 49/49/49
f 41/41/41 49/49/49 50/50/50
f 50/50/50 51/51/51 43/43/43
f 51/51/51 52/52/52 44/44/44
f 5/5/5 37/37/37 28/28/28
f 28/28/28 37/37/37 38/38/38
f 27/27/27 38/38/38 39/39/39
f 26/26/26 39/39/39 40/40/40
f 40/40/40 41/41/41 24/24/24
f 41/41/41 42/42/42 23/23/23
f 23/23/23 42/42/42 43/43/43
f 43/43/43 44/44/44 21/21/21
f 2/2/2 29/29/29 93/93/93
f 93/93/93 29/29/29 30/30/30
f 30/30/30 31/31/31 95/95/95
f 31/31/31 32/32/32 96/96/96
f 32/32/32 33/33/33 97/97/97
f 33/33/33 34/34/34 98/98/98
f 98/98/98 34/34/34 35/35/35
f 99/99/99 35/35/35 36/36/36
