o GNATVCloth
v -5.05576 -4.98548 0.57664
v 5.02403 -4.99057 0.398522
v -5.01298 5.02105 0.004229
v 4.98702 5.02105 0.004229
v -3.94476 -5.01723 0.549199
v -2.82856 -5.05902 0.480315
v -1.70588 -5.07759 0.494744
v -0.581086 -5.09256 0.504518
v 0.546952 -5.10131 0.475654
v 1.67193 -5.08007 0.499346
v 2.79333 -5.05153 0.457228
v 3.91318 -5.00791 0.50328
v 3.85963 4.92857 0.145578
v 2.74454 4.86511 0.302212
v 1.62497 4.81048 0.34039
v 0.515229 4.76226 0.341895
v -0.59669 4.75439 0.446322
v -1.70106 4.77159 0.566208
v -2.82284 4.80519 0.543749
v -3.92157 4.88776 0.302969
v -4.99294 3.9067 0.0729179
v -4.99727 2.79232 0.138827
v -5.005 1.67877 0.206614
v -5.01161 0.565256 0.267359
v -5.01798 -0.5476 0.323313
v -5.0224 -1.65908 0.373215
v -5.02938 -2.77385 0.416285
v -5.03615 -3.88023 0.521457
v 5.00594 -3.88551 0.286367
v 4.99407 -2.77427 0.30765
v 4.98663 -1.66265 0.259628
v 4.98189 -0.550068 0.230097
v 4.97792 0.563097 0.212343
v 4.97365 1.67707 0.167973
v 4.97349 2.79182 0.128861
v 4.96976 3.9057 0.0573635
v -3.87621 -3.88885 0.31678
v -3.83376 -3.24069 0.274295
v -3.68244 -1.95229 0.242495
v -4.13576 -0.291243 0.213303
v -4.15589 0.726159 0.204852
v -4.14698 1.50933 0.144614
v -4.07914 2.7998 0.0431818
v -3.92586 3.87978 -0.0789354
v -2.74272 -4.05047 0.290669
v -2.81431 -2.78057 0.336561
v -2.68999 -2.19366 0.288907
v -2.76728 -0.648929 0.30127
v -2.79999 0.478731 0.19838
v -2.7309 1.51668 0.0478005
v -2.84839 2.85968 -0.0518553
v -2.74423 3.54638 0.0655803
v -1.67845 -4.28419 0.321845
v -1.51331 -2.97104 0.397216
v -1.90592 -1.67782 0.394016
v -1.88874 -0.881314 0.349554
v -1.53507 0.591069 0.107464
v -1.99348 1.64685 -0.036121
v -1.71401 2.68369 0.0712681
v -1.58732 3.6326 0.437893
v -0.252158 -4.36473 0.386882
v -0.59958 -2.93348 0.459459
v -0.559709 -1.79042 0.478536
v -0.850141 -0.822404 0.327609
v -0.613278 0.378782 0.150254
v -0.375857 1.41204 0.126951
v -0.569985 2.59577 0.165269
v -0.763325 3.44271 0.437621
v 0.721171 -3.93412 0.413497
v 0.803051 -2.64465 0.531247
v 0.516438 -1.85774 0.485943
v 0.606672 -0.543869 0.264581
v 0.579116 0.351794 0.223979
v 0.29444 1.45967 0.18301
v 0.523498 2.43294 0.203781
v 0.537104 3.68277 0.394716
v 1.93775 -3.67678 0.404919
v 1.65133 -2.8691 0.339542
v 1.81997 -1.95287 0.474619
v 1.98286 -0.456947 0.125853
v 1.9598 0.222994 0.013163
v 1.82374 1.48546 0.11694
v 1.41019 2.76033 0.189332
v 1.47763 3.58227 0.352238
v 2.7826 -3.94055 0.396787
v 3.08461 -2.85454 0.319314
v 2.93359 -1.97745 0.250439
v 2.70022 -0.517101 0.342246
v 2.94602 0.270186 0.216115
v 3.06624 1.53945 -0.0682256
v 2.76041 3.10616 -0.0171736
v 2.7284 3.46819 0.0654379
v 3.90711 -3.98212 0.287987
v 3.64804 -2.7287 0.31964
v 3.85912 -1.69005 0.287639
v 3.79624 -0.734602 0.291343
v 3.85836 0.277613 0.292143
v 4.15348 1.79427 0.158459
v 4.13829 2.74288 -0.0290194
v 4.02087 3.86709 -0.0726381
vt 0.0001 0.0001
vt 0.9999 0.0001
vt 0.0001 0.9999
vt 0.9999 0.9999
vt 0.111189 0.0001
vt 0.222278 0.0001
vt 0.333367 0.0001
vt 0.444455 0.0001
vt 0.555544 0.0001
vt 0.666633 0.0001
vt 0.777722 0.0001
vt 0.888811 0.0001
vt 0.888811 0.9999
vt 0.777722 0.9999
vt 0.666633 0.9999
vt 0.555544 0.9999
vt 0.444455 0.9999
vt 0.333367 0.9999
vt 0.222278 0.9999
vt 0.111189 0.9999
vt 0.0001 0.888811
vt 0.0001 0.777722
vt 0.0001 0.666633
vt 0.0001 0.555544
vt 0.0001 0.444456
vt 0.0001 0.333367
vt 0.0001 0.222278
vt 0.0001 0.111189
vt 0.9999 0.111189
vt 0.9999 0.222278
vt 0.9999 0.333367
vt 0.9999 0.444456
vt 0.9999 0.555544
vt 0.9999 0.666633
vt 0.9999 0.777722
vt 0.9999 0.888811
vt 0.11727 0.115399
vt 0.120778 0.180369
vt 0.134636 0.309595
vt 0.088728 0.473895
vt 0.085886 0.575352
vt 0.086211 0.65375
vt 0.092207 0.78313
vt 0.106956 0.892282
vt 0.22987 0.102869
vt 0.221803 0.229552
vt 0.233521 0.288953
vt 0.225541 0.443179
vt 0.221596 0.556167
vt 0.227801 0.661237
vt 0.214896 0.795203
vt 0.22542 0.865181
vt 0.335524 0.082127
vt 0.351143 0.213907
vt 0.311934 0.342467
vt 0.313159 0.422214
vt 0.347791 0.572605
vt 0.301482 0.677733
vt 0.329031 0.783086
vt 0.344903 0.885466
vt 0.476837 0.074882
vt 0.441952 0.218774
vt 0.445749 0.333088
vt 0.416414 0.43099
vt 0.439746 0.552976
vt 0.463203 0.656843
vt 0.444252 0.77653
vt 0.426137 0.866051
vt 0.573419 0.117409
vt 0.581125 0.246686
vt 0.552512 0.326
vt 0.561075 0.459693
vt 0.558356 0.550596
vt 0.530299 0.662189
vt 0.553275 0.760113
vt 0.555478 0.888821
vt 0.694433 0.13996
vt 0.667048 0.221666
vt 0.681985 0.314267
vt 0.698218 0.467249
vt 0.696819 0.535952
vt 0.68253 0.662758
vt 0.642062 0.791726
vt 0.648523 0.877957
vt 0.778029 0.111667
vt 0.809426 0.219523
vt 0.794923 0.307783
vt 0.772028 0.454562
vt 0.796846 0.533374
vt 0.807262 0.663157
vt 0.778581 0.821037
vt 0.775122 0.858219
vt 0.890224 0.104741
vt 0.865679 0.23076
vt 0.887326 0.334104
vt 0.881307 0.429754
vt 0.887973 0.53063
vt 0.918106 0.681428
vt 0.915043 0.778027
vt 0.904815 0.89094
vn 0.0260725 0.0493873 0.998439
vn 0.0407633 0.153369 0.987328
vn -0.0756646 -0.143975 0.986684
vn -0.000341387 -0.06618 0.997808
vn 0.0889885 0.145762 0.985309
vn 0.0296842 0.19385 0.980582
vn -0.00734083 0.213161 0.97699
vn -0.00473767 0.178722 0.983888
vn -0.0166785 0.0886201 0.995926
vn 0.00885084 0.0603434 0.998138
vn 0.0288177 0.105303 0.994023
vn 0.0203153 0.205478 0.978451
vn 0.141834 -0.178615 0.973642
vn 0.136209 -0.126839 0.982527
vn 0.0173773 0.00756071 0.99982
vn 0.0481589 0.0366677 0.998166
vn 0.0583165 -0.0170164 0.998153
vn 0.0413436 -0.107775 0.993315
vn -0.18271 -0.296619 0.937355
vn -0.256251 -0.341521 0.904267
vn 0.129267 0.0710146 0.989064
vn 0.102957 0.0590282 0.992933
vn 0.0846589 0.0656839 0.994243
vn 0.0810836 0.0376734 0.995995
vn 0.110227 0.0467119 0.992808
vn 0.107762 0.0428514 0.993253
vn 0.126782 0.0468745 0.990822
vn 0.131711 0.0962739 0.986602
vn -0.00212667 0.0409423 0.999159
vn 0.0112304 0.00735561 0.99991
vn 0.0320321 0.0225969 0.999231
vn 0.0555462 0.0129553 0.998372
vn 0.0374335 0.0446158 0.998303
vn -0.00624457 0.0374194 0.99928
vn -0.130304 0.095448 0.986869
vn -0.154434 0.0452463 0.986966
vn 0.0992076 0.137148 0.98557
vn 0.0605301 0.0358835 0.997521
vn 0.0170916 0.0292562 0.999426
vn 0.0430108 0.0355132 0.998443
vn 0.0542152 0.0608854 0.996671
vn 0.0770656 0.0748463 0.994213
vn 0.0924578 0.0771216 0.992725
vn -0.0782878 -0.137515 0.987401
vn -0.00746724 0.0499687 0.998723
vn -0.0462696 0.0260864 0.998588
vn -0.0690364 0.0236512 0.997334
vn -0.0581605 0.0353111 0.997683
vn 0.0240481 0.110802 0.993551
vn 0.070891 0.0986502 0.992594
vn -0.0277849 -0.0163869 0.99948
vn -0.208011 -0.266268 0.941187
vn -0.027891 0.0895175 0.995595
vn -0.0623789 -0.0164589 0.997917
vn -0.0622597 0.0314564 0.997564
vn 0.00335482 0.102112 0.994767
vn -0.00172087 0.124304 0.992243
vn -0.0224943 0.0397954 0.998955
vn -0.132508 -0.21692 0.967154
vn -0.0901747 -0.21157 0.973194
vn -0.0233802 0.0542321 0.998255
vn -0.0408592 -0.0352481 0.998543
vn -0.029064 0.0694561 0.997162
vn -0.000736407 0.133955 0.990987
vn -0.04067 0.0717547 0.996593
vn -0.0738948 0.0135069 0.997175
vn -0.0522632 -0.156594 0.986279
vn -0.0130299 -0.199069 0.979899
vn 0.00910887 0.00310501 0.999954
vn 0.0582776 -0.0538299 0.996848
vn -0.00582102 0.0827729 0.996552
vn 0.0400949 0.138942 0.989489
vn 0.0443036 0.0193488 0.998831
vn -0.029006 0.0156236 0.999457
vn -0.00542922 -0.0702016 0.997518
vn 0.0433889 -0.100283 0.994012
vn 0.0109069 0.0712009 0.997402
vn 0.096775 -0.0354457 0.994675
vn 0.0611089 0.0451711 0.997108
vn -0.0921263 0.197701 0.975924
vn -0.0218534 0.0999256 0.994755
vn 0.10223 -0.0243699 0.994462
vn 0.0966839 -0.121956 0.987815
vn 0.103195 -0.101608 0.989458
vn 0.0580743 0.0556426 0.99676
vn 0.0235277 0.0540172 0.998263
vn 0.0470691 -0.0106247 0.998835
vn -0.0746852 0.112655 0.990823
vn -0.102235 0.164537 0.981058
vn -0.0678187 0.0978277 0.99289
vn 0.127781 -0.0884996 0.987846
vn 0.182432 -0.184822 0.965691
vn 0.0308196 0.0682005 0.997195
vn -0.00952266 0.0195758 0.999763
vn -0.00653331 0.0210123 0.999758
vn 0.0159108 0.0138742 0.999777
vn -0.0381807 0.0756326 0.996404
vn -0.105612 0.110089 0.988295
vn -0.124567 0.0783775 0.989111
vn 0.0508273 -0.0891591 0.99472
f 100/100/100 4/4/4 13/13/13
f 44/44/44 3/3/3 21/21/21
f 44/44/44 19/19/19 20/20/20
f 60/60/60 19/19/19 52/52/52
f 60/60/60 17/17/17 18/18/18
f 76/76/76 17/17/17 68/68/68
f 84/84/84 16/16/16 76/76/76
f 84/84/84 14/14/14 15/15/15
f 100/100/100 14/14/14 92/92/92
f 11/11/11 93/93/93 85/85/85
f 93/93/93 86/86/86 85/85/85
f 94/94/94 87/87/87 86/86/86
f 87/87/87 96/96/96 88/88/88
f 96/96/96 89/89/89 88/88/88
f 97/97/97 90/90/90 89/89/89
f 90/90/90 99/99/99 91/91/91
f 91/91/91 100/100/100 92/92/92
f 10/10/10 85/85/85 77/77/77
f 77/77/77 86/86/86 78/78/78
f 78/78/78 87/87/87 79/79/79
f 79/79/79 88/88/88 80/80/80
f 88/88/88 81/81/81 80/80/80
f 81/81/81 90/90/90 82/82/82
f 82/82/82 91/91/91 83/83/83
f 91/91/91 84/84/84 83/83/83
f 10/10/10 69/69/69 9/9/9
f 69/69/69 78/78/78 70/70/70
f 70/70/70 79/79/79 71/71/71
f 79/79/79 72/72/72 71/71/71
f 72/72/72 81/81/81 73/73/73
f 73/73/73 82/82/82 74/74/74
f 82/82/82 75/75/75 74/74/74
f 83/83/83 76/76/76 75/75/75
f 9/9/9 61/61/61 8/8/8
f 69/69/69 62/62/62 61/61/61
f 62/62/62 71/71/71 63/63/63
f 63/63/63 72/72/72 64/64/64
f 72/72/72 65/65/65 64/64/64
f 65/65/65 74/74/74 66/66/66
f 66/66/66 75/75/75 67/67/67
f 67/67/67 76/76/76 68/68/68
f 8/8/8 53/53/53 7/7/7
f 53/53/53 62/62/62 54/54/54
f 54/54/54 63/63/63 55/55/55
f 55/55/55 64/64/64 56/56/56
f 64/64/64 57/57/57 56/56/56
f 57/57/57 66/66/66 58/58/58
f 58/58/58 67/67/67 59/59/59
f 59/59/59 68/68/68 60/60/60
f 6/6/6 53/53/53 45/45/45
f 45/45/45 54/54/54 46/46/46
f 54/54/54 47/47/47 46/46/46
f 55/55/55 48/48/48 47/47/47
f 56/56/56 49/49/49 48/48/48
f 49/49/49 58/58/58 50/50/50
f 58/58/58 51/51/51 50/50/50
f 59/59/59 52/52/52 51/51/51
f 6/6/6 37/37/37 5/5/5
f 45/45/45 38/38/38 37/37/37
f 46/46/46 39/39/39 38/38/38
f 39/39/39 48/48/48 40/40/40
f 40/40/40 49/49/49 41/41/41
f 41/41/41 50/50/50 42/42/42
f 50/50/50 43/43/43 42/42/42
f 51/51/51 44/44/44 43/43/43
f 5/5/5 28/28/28 1/1/1
f 28/28/28 38/38/38 27/27/27
f 27/27/27 39/39/39 26/26/26
f 26/26/26 40/40/40 25/25/25
f 40/40/40 24/24/24 25/25/25
f 41/41/41 23/23/23 24/24/24
f 23/23/23 43/43/43 22/22/22
f 43/43/43 21/21/21 22/22/22
f 2/2/2 93/93/93 12/12/12
f 93/93/93 30/30/30 94/94/94
f 30/30/30 95/95/95 94/94/94
f 31/31/31 96/96/96 95/95/95
f 32/32/32 97/97/97 96/96/96
f 33/33/33 98/98/98 97/97/97
f 98/98/98 35/35/35 99/99/99
f 99/99/99 36/36/36 100/100/100
f 100/100/100 36/36/36 4/4/4
f 44/44/44 20/20/20 3/3/3
f 44/44/44 52/52/52 19/19/19
f 60/60/60 18/18/18 19/19/19
f 60/60/60 68/68/68 17/17/17
f 76/76/76 16/16/16 17/17/17
f 84/84/84 15/15/15 16/16/16
f 84/84/84 92/92/92 14/14/14
f 100/100/100 13/13/13 14/14/14
f 11/11/11 12/12/12 93/93/93
f 93/93/93 94/94/94 86/86/86
f 94/94/94 95/95/95 87/87/87
f 87/87/87 95/95/95 96/96/96
f 96/96/96 97/97/97 89/89/89
f 97/97/97 98/98/98 90/90/90
f 90/90/90 98/98/98 99/99/99
f 91/91/91 99/99/99 100/100/100
f 10/10/10 11/11/11 85/85/85
f 77/77/77 85/85/85 86/86/86
f 78/78/78 86/86/86 87/87/87
f 79/79/79 87/87/87 88/88/88
f 88/88/88 89/89/89 81/81/81
f 81/81/81 89/89/89 90/90/90
f 82/82/82 90/90/90 91/91/91
f 91/91/91 92/92/92 84/84/84
f 10/10/10 77/77/77 69/69/69
f 69/69/69 77/77/77 78/78/78
f 70/70/70 78/78/78 79/79/79
f 79/79/79 80/80/80 72/72/72
f 72/72/72 80/80/80 81/81/81
f 73/73/73 81/81/81 82/82/82
f 82/82/82 83/83/83 75/75/75
f 83/83/83 84/84/84 76/76/76
f 9/9/9 69/69/69 61/61/61
f 69/69/69 70/70/70 62/62/62
f 62/62/62 70/70/70 71/71/71
f 63/63/63 71/71/71 72/72/72
f 72/72/72 73/73/73 65/65/65
f 65/65/65 73/73/73 74/74/74
f 66/66/66 74/74/74 75/75/75
f 67/67/67 75/75/75 76/76/76
f 8/8/8 61/61/61 53/53/53
f 53/53/53 61/61/61 62/62/62
f 54/54/54 62/62/62 63/63/63
f 55/55/55 63/63/63 64/64/64
f 64/64/64 65/65/65 57/57/57
f 57/57/57 65/65/65 66/66/66
f 58/58/58 66/66/66 67/67/67
f 59/59/59 67/67/67 68/68/68
f 6/6/6 7/7/7 53/53/53
f 45/45/45 53/53/53 54/54/54
f 54/54/54 55/55/55 47/47/47
f 55/55/55 56/56/56 48/48/48
f 56/56/56 57/57/57 49/49/49
f 49/49/49 57/57/57 58/58/58
f 58/58/58 59/59/59 51/51/51
f 59/59/59 60/60/60 52/52/52
f 6/6/6 45/45/45 37/37/37
f 45/45/45 46/46/46 38/38/38
f 46/46/46 47/47/47 39/39/39
f 39/39/39 47/47/47 48/48/48
f 40/40/40 48/48/48 49/49/49
f 41/41/41 49/49/49 50/50/50
f 50/50/50 51/51/51 43/43/43
f 51/51/51 52/52/52 44/44/44
f 5/5/5 37/37/37 28/28/28
f 28/28/28 37/37/37 38/38/38
f 27/27/27 38/38/38 39/39/39
f 26/26/26 39/39/39 40/40/40
f 40/40/40 41/41/41 24/24/24
f 41/41/41 42/42/42 23/23/23
f 23/23/23 42/42/42 43/43/43
f 43/43/43 44/44/44 21/21/21
f 2/2/2 29/29/29 93/93/93
f 93/93/93 29/29/29 30/30/30
f 30/30/30 31/31/31 95/95/95
f 31/31/31 32/32/32 96/96/96
f 32/32/32 33/33/33 97/97/97
f 33/33/33 34/34/34 98/98/98
f 98/98/98 34/34/34 35/35/35
f 99/99/99 35/35/35 36/36/36
