o GNATVCloth
v -4.96031 -5.01162 0.250826
v 5.19832 -5.0149 0.251417
v -5.01298 5.02105 0.004229
v 4.98702 5.02105 0.004229
v -3.84235 -5.05714 0.198371
v -2.71735 -5.10597 0.172425
v -1.58618 -5.14057 0.162392
v -0.451691 -5.16393 0.138297
v 0.687238 -5.17035 0.13384
v 1.82102 -5.15956 0.125315
v 2.95208 -5.12564 0.160461
v 4.07836 -5.06556 0.213441
v 3.85199 4.92702 0.0923615
v 2.72601 4.84258 0.165173
v 1.60811 4.73764 0.208607
v 0.659138 4.67686 0.170334
v -0.464899 4.73818 0.146309
v -1.58556 4.80444 0.178608
v -2.71724 4.89072 0.148548
v -3.85694 4.94822 0.0607511
v -4.97238 3.90455 0.04782
v -4.95537 2.78739 0.083448
v -4.94377 1.67062 0.113518
v -4.9334 0.554754 0.157356
v -4.92448 -0.560563 0.189634
v -4.92037 -1.67538 0.2035
v -4.92568 -2.78838 0.208065
v -4.935 -3.89982 0.198176
v 5.1628 -3.90324 0.202037
v 5.14631 -2.78847 0.168384
v 5.12874 -1.67509 0.184934
v 5.11175 -0.560335 0.173025
v 5.09373 0.554822 0.147059
v 5.06797 1.6709 0.112146
v 5.04076 2.78735 0.0761136
v 5.01045 3.90397 0.0382913
v -3.75745 -3.90834 0.15633
v -3.7183 -3.25982 0.143499
v -3.57607 -1.97199 0.109563
v -4.04203 -0.306154 0.121422
v -4.07697 0.711636 0.122809
v -4.08027 1.49689 0.115416
v -4.03347 2.78975 0.0846646
v -3.89465 3.87401 0.0479196
v -2.62231 -4.08178 0.135674
v -2.69939 -2.8114 0.126713
v -2.58155 -2.22195 0.110206
v -2.66828 -0.676017 0.147264
v -2.71495 0.456015 0.137183
v -2.65927 1.50456 0.122891
v -2.80055 2.84962 0.105654
v -2.70094 3.53995 0.13373
v -1.55451 -4.32328 0.120691
v -1.39469 -3.00978 0.109016
v -1.79475 -1.71329 0.16642
v -1.78607 -0.915345 0.162334
v -1.44672 0.574887 0.115751
v -1.9202 1.64 0.119991
v -1.65505 2.68425 0.130579
v -1.49595 3.68125 0.13323
v -0.120111 -4.42449 0.112741
v -0.477566 -2.98181 0.109246
v -0.445135 -1.84038 0.136963
v -0.747823 -0.858663 0.121046
v -0.521828 0.355364 0.123938
v -0.294089 1.39077 0.13184
v -0.492763 2.59318 0.128976
v -0.679315 3.45659 0.134475
v 0.857207 -4.00459 0.122615
v 0.926342 -2.71175 0.134391
v 0.632268 -1.9218 0.13599
v 0.70671 -0.587715 0.100141
v 0.673385 0.319294 0.131195
v 0.378435 1.4329 0.140523
v 0.600332 2.40643 0.135514
v 0.626228 3.63614 0.121875
v 2.08108 -3.75782 0.14507
v 1.79604 -2.94785 0.122908
v 1.93893 -2.02075 0.124054
v 2.08633 -0.489592 0.145989
v 2.06599 0.191616 0.112841
v 1.90285 1.45434 0.0906065
v 1.46714 2.7222 0.151624
v 1.50669 3.52096 0.11983
v 2.93138 -4.0103 0.129283
v 3.23221 -2.91867 0.164108
v 3.07806 -2.04456 0.0963671
v 2.83064 -0.588116 0.143993
v 3.0673 0.212981 0.148957
v 3.15169 1.51682 0.103226
v 2.82801 3.07291 0.117825
v 2.77739 3.4258 0.163062
v 4.06553 -4.02435 0.106738
v 3.79742 -2.77726 0.166469
v 4.00141 -1.7303 0.157256
v 3.93007 -0.777478 0.11651
v 3.97975 0.236606 0.127374
v 4.25184 1.76455 0.115243
v 4.19271 2.72941 0.0968903
v 4.05616 3.85209 0.0736521
vt 0.0001 0.0001
vt 0.9999 0.0001
vt 0.0001 0.9999
vt 0.9999 0.9999
vt 0.111189 0.0001
vt 0.222278 0.0001
vt 0.333367 0.0001
vt 0.444455 0.0001
vt 0.555544 0.0001
vt 0.666633 0.0001
vt 0.777722 0.0001
vt 0.888811 0.0001
vt 0.888811 0.9999
vt 0.777722 0.9999
vt 0.666633 0.9999
vt 0.555544 0.9999
vt 0.444455 0.9999
vt 0.333367 0.9999
vt 0.222278 0.9999
vt 0.111189 0.9999
vt 0.0001 0.888811
vt 0.0001 0.777722
vt 0.0001 0.666633
vt 0.0001 0.555544
vt 0.0001 0.444456
vt 0.0001 0.333367
vt 0.0001 0.222278
vt 0.0001 0.111189
vt 0.9999 0.111189
vt 0.9999 0.222278
vt 0.9999 0.333367
vt 0.9999 0.444456
vt 0.9999 0.555544
vt 0.9999 0.666633
vt 0.9999 0.777722
vt 0.9999 0.888811
vt 0.11727 0.115399
vt 0.120778 0.180369
vt 0.134636 0.309595
vt 0.088728 0.473895
vt 0.085886 0.575352
vt 0.086211 0.65375
vt 0.092207 0.78313
vt 0.106956 0.892282
vt 0.22987 0.102869
vt 0.221803 0.229552
vt 0.233521 0.288953
vt 0.225541 0.443179
vt 0.221596 0.556167
vt 0.227801 0.661237
vt 0.214896 0.795203
vt 0.22542 0.865181
vt 0.335524 0.082127
vt 0.351143 0.213907
vt 0.311934 0.342467
vt 0.313159 0.422214
vt 0.347791 0.572605
vt 0.301482 0.677733
vt 0.329031 0.783086
vt 0.344903 0.885466
vt 0.476837 0.074882
vt 0.441952 0.218774
vt 0.445749 0.333088
vt 0.416414 0.43099
vt 0.439746 0.552976
vt 0.463203 0.656843
vt 0.444252 0.77653
vt 0.426137 0.866051
vt 0.573419 0.117409
vt 0.581125 0.246686
vt 0.552512 0.326
vt 0.561075 0.459693
vt 0.558356 0.550596
vt 0.530299 0.662189
vt 0.553275 0.760113
vt 0.555478 0.888821
vt 0.694433 0.13996
vt 0.667048 0.221666
vt 0.681985 0.314267
vt 0.698218 0.467249
vt 0.696819 0.535952
vt 0.68253 0.662758
vt 0.642062 0.791726
vt 0.648523 0.877957
vt 0.778029 0.111667
vt 0.809426 0.219523
vt 0.794923 0.307783
vt 0.772028 0.454562
vt 0.796846 0.533374
vt 0.807262 0.663157
vt 0.778581 0.821037
vt 0.775122 0.858219
vt 0.890224 0.104741
vt 0.865679 0.23076
vt 0.887326 0.334104
vt 0.881307 0.429754
vt 0.887973 0.53063
vt 0.918106 0.681428
vt 0.915043 0.778027
vt 0.904815 0.89094
vn 0.0486935 0.0461405 0.997747
vn -0.0646864 0.071405 0.995348
vn -0.0242443 0.0144373 0.999602
vn 0.0564941 0.0143008 0.998301
vn 0.0363297 0.0382684 0.998607
vn 0.0199902 0.0382095 0.99907
vn 0.0163214 0.0503205 0.9986
vn 0.011356 0.0379584 0.999215
vn -0.00121881 0.0176989 0.999843
vn -0.00672887 0.0020409 0.999975
vn -0.0212826 0.0523294 0.998403
vn -0.0452145 0.101291 0.993829
vn 0.0712689 -0.00382441 0.99745
vn 0.0365472 -0.020839 0.999115
vn 0.00507486 -0.0731933 0.997305
vn -0.021113 -0.0539764 0.998319
vn 0.00249569 -0.0259267 0.999661
vn -0.00162782 -0.040498 0.999178
vn -0.0451147 -0.0186901 0.998807
vn -0.0633755 -0.00969553 0.997943
vn 0.000159271 0.034888 0.999391
vn -0.0013944 0.0293781 0.999567
vn 0.00848133 0.0248894 0.999654
vn 0.0473288 0.0229965 0.998615
vn 0.0710205 0.0210422 0.997253
vn 0.072189 0.0098792 0.997342
vn 0.0604436 0.00467064 0.998161
vn 0.0424709 0.0220966 0.998853
vn -0.0903073 0.0350104 0.995298
vn -0.0291801 -0.00642587 0.999554
vn -0.0333106 0.0118062 0.999375
vn -0.040008 0.00811997 0.999166
vn -0.0126012 0.0220009 0.999678
vn 0.00745749 0.0319381 0.999462
vn 0.0175785 0.029105 0.999422
vn 0.031035 0.0302207 0.999061
vn 0.0280556 0.0276961 0.999223
vn 0.0309378 0.0133374 0.999432
vn 0.0266189 0.00734172 0.999619
vn 0.0293212 0.00692248 0.999546
vn 0.00815851 0.0117838 0.999897
vn -0.00210849 0.0166165 0.99986
vn -0.00586711 0.0267742 0.999624
vn -0.0426633 0.0069812 0.999065
vn 0.0182386 0.0181381 0.999669
vn 0.0112581 0.0185769 0.999764
vn -0.0145943 -0.0110407 0.999833
vn -0.0216941 -0.00714773 0.999739
vn -0.00256235 0.0105386 0.999941
vn -0.00553078 0.0141525 0.999885
vn -0.0273437 -0.0016649 0.999625
vn -0.035893 -0.0182759 0.999189
vn 0.0118523 0.0264854 0.999579
vn 0.00431379 -0.00995805 0.999941
vn -0.00391617 -0.0145404 0.999887
vn 0.0123589 0.0137496 0.999829
vn 0.00695546 0.0066666 0.999954
vn -0.00254802 0.00123541 0.999996
vn -0.00823218 -0.010456 0.999911
vn -0.00114394 -0.0176029 0.999844
vn -0.0015238 0.0158849 0.999873
vn -0.00541363 -0.00744954 0.999958
vn 0.00924009 -0.00289016 0.999953
vn 0.0198505 0.0107258 0.999745
vn -0.00498289 -0.0101255 0.999936
vn -0.00957865 -0.00119385 0.999953
vn -0.000869652 -0.00113314 0.999999
vn 0.00324978 -0.00646751 0.999974
vn -0.00885105 0.00154518 0.99996
vn -0.000100622 -0.00554879 0.999985
vn 0.00120111 0.00440012 0.99999
vn -0.00323803 0.00440001 0.999985
vn 0.00885753 -0.0117151 0.999892
vn 0.00661762 -0.00175015 0.999977
vn -0.00236732 -0.00305669 0.999993
vn -0.0036563 -0.00646884 0.999972
vn -0.00907736 -0.00505604 0.999946
vn -0.00570945 0.0151474 0.999869
vn 0.00699523 -0.00495811 0.999963
vn -0.0147705 0.0177015 0.999734
vn -0.0123272 0.0200311 0.999723
vn 0.0133251 -0.00891514 0.999871
vn 0.0065389 0.00105922 0.999978
vn -0.00705107 -0.0358136 0.999334
vn 0.00595964 -0.00648078 0.999961
vn -0.0077422 0.00746511 0.999942
vn -0.0195415 0.0203498 0.999602
vn 0.00669918 -0.00532104 0.999963
vn -0.000695754 0.0101392 0.999948
vn -0.00700822 0.0139577 0.999878
vn 0.019602 -0.0338829 0.999234
vn 0.0245399 -0.0618238 0.997785
vn -0.0283028 0.0212051 0.999374
vn -0.0184038 0.00220181 0.999828
vn -0.0407221 0.0188964 0.998992
vn -0.0191453 0.00355458 0.99981
vn -0.00966165 0.00968871 0.999906
vn -0.00187206 0.0207323 0.999783
vn 0.0167975 0.0191235 0.999676
vn 0.058702 -0.00551607 0.99826
f 100/100/100 4/4/4 13/13/13
f 44/44/44 3/3/3 21/21/21
f 44/44/44 19/19/19 20/20/20
f 60/60/60 19/19/19 52/52/52
f 60/60/60 17/17/17 18/18/18
f 76/76/76 17/17/17 68/68/68
f 84/84/84 16/16/16 76/76/76
f 84/84/84 14/14/14 15/15/15
f 100/100/100 14/14/14 92/92/92
f 11/11/11 93/93/93 85/85/85
f 93/93/93 86/86/86 85/85/85
f 94/94/94 87/87/87 86/86/86
f 87/87/87 96/96/96 88/88/88
f 96/96/96 89/89/89 88/88/88
f 97/97/97 90/90/90 89/89/89
f 90/90/90 99/99/99 91/91/91
f 91/91/91 100/100/100 92/92/92
f 10/10/10 85/85/85 77/77/77
f 77/77/77 86/86/86 78/78/78
f 78/78/78 87/87/87 79/79/79
f 79/79/79 88/88/88 80/80/80
f 88/88/88 81/81/81 80/80/80
f 81/81/81 90/90/90 82/82/82
f 82/82/82 91/91/91 83/83/83
f 91/91/91 84/84/84 83/83/83
f 10/10/10 69/69/69 9/9/9
f 69/69/69 78/78/78 70/70/70
f 70/70/70 79/79/79 71/71/71
f 79/79/79 72/72/72 71/71/71
f 72/72/72 81/81/81 73/73/73
f 73/73/73 82/82/82 74/74/74
f 82/82/82 75/75/75 74/74/74
f 83/83/83 76/76/76 75/75/75
f 9/9/9 61/61/61 8/8/8
f 69/69/69 62/62/62 61/61/61
f 62/62/62 71/71/71 63/63/63
f 63/63/63 72/72/72 64/64/64
f 72/72/72 65/65/65 64/64/64
f 65/65/65 74/74/74 66/66/66
f 66/66/66 75/75/75 67/67/67
f 67/67/67 76/76/76 68/68/68
f 8/8/8 53/53/53 7/7/7
f 53/53/53 62/62/62 54/54/54
f 54/54/54 63/63/63 55/55/55
f 55/55/55 64/64/64 56/56/56
f 64/64/64 57/57/57 56/56/56
f 57/57/57 66/66/66 58/58/58
f 58/58/58 67/67/67 59/59/59
f 59/59/59 68/68/68 60/60/60
f 6/6/6 53/53/53 45/45/45
f 45/45/45 54/54/54 46/46/46
f 54/54/54 47/47/47 46/46/46
f 55/55/55 48/48/48 47/47/47
f 56/56/56 49/49/49 48/48/48
f 49/49/49 58/58/58 50/50/50
f 58/58/58 51/51/51 50/50/50
f 59/59/59 52/52/52 51/51/51
f 6/6/6 37/37/37 5/5/5
f 45/45/45 38/38/38 37/37/37
f 46/46/46 39/39/39 38/38/38
f 39/39/39 48/48/48 40/40/40
f 40/40/40 49/49/49 41/41/41
f 41/41/41 50/50/50 42/42/42
f 50/50/50 43/43/43 42/42/42
f 51/51/51 44/44/44 43/43/43
f 5/5/5 28/28/28 1/1/1
f 28/28/28 38/38/38 27/27/27
f 27/27/27 39/39/39 26/26/26
f 26/26/26 40/40/40 25/25/25
f 40/40/40 24/24/24 25/25/25
f 41/41/41 23/23/23 24/24/24
f 23/23/23 43/43/43 22/22/22
f 43/43/43 21/21/21 22/22/22
f 2/2/2 93/93/93 12/12/12
f 93/93/93 30/30/30 94/94/94
f 30/30/30 95/95/95 94/94/94
f 31/31/31 96/96/96 95/95/95
f 32/32/32 97/97/97 96/96/96
f 33/33/33 98/98/98 97/97/97
f 98/98/98 35/35/35 99/99/99
f 99/99/99 36/36/36 100/100/100
f 100/100/100 36/36/36 4/4/4
f 44/44/44 20/20/20 3/3/3
f 44/44/44 52/52/52 19/19/19
f 60/60/60 18/18/18 19/19/19
f 60/60/60 68/68/68 17/17/17
f 76/76/76 16/16/16 17/17/17
f 84/84/84 15/15/15 16/16/16
f 84/84/84 92/92/92 14/14/14
f 100/100/100 13/13/13 14/14/14
f 11/11/11 12/12/12 93/93/93
f 93/93/93 94/94/94 86/86/86
f 94/94/94 95/95/95 87/87/87
f 87/87/87 95/95/95 96/96/96
f 96/96/96 97/97/97 89/89/89
f 97/97/97 98/98/98 90/90/90
f 90/90/90 98/98/98 99/99/99
f 91/91/91 99/99/99 100/100/100
f 10/10/10 11/11/11 85/85/85
f 77/77/77 85/85/85 86/86/86
f 78/78/78 86/86/86 87/87/87
f 79/79/79 87/87/87 88/88/88
f 88/88/88 89/89/89 81/81/81
f 81/81/81 89/89/89 90/90/90
f 82/82/82 90/90/90 91/91/91
f 91/91/91 92/92/92 84/84/84
f 10/10/10 77/77/77 69/69/69
f 69/69/69 77/77/77 78/78/78
f 70/70/70 78/78/78 79/79/79
f 79/79/79 80/80/80 72/72/72
f 72/72/72 80/80/80 81/81/81
f 73/73/73 81/81/81 82/82/82
f 82/82/82 83/83/83 75/75/75
f 83/83/83 84/84/84 76/76/76
f 9/9/9 69/69/69 61/61/61
f 69/69/69 70/70/70 62/62/62
f 62/62/62 70/70/70 71/71/71
f 63/63/63 71/71/71 72/72/72
f 72/72/72 73/73/73 65/65/65
f 65/65/65 73/73/73 74/74/74
f 66/66/66 74/74/74 75/75/75
f 67/67/67 75/75/75 76/76/76
f 8/8/8 61/61/61 53/53/53
f 53/53/53 61/61/61 62/62/62
f 54/54/54 62/62/62 63/63/63
f 55/55/55 63/63/63 64/64/64
f 64/64/64 65/65/65 57/57/57
f 57/57/57 65/65/65 66/66/66
f 58/58/58 66/66/66 67/67/67
f 59/59/59 67/67/67 68/68/68
f 6/6/6 7/7/7 53/53/53
f 45/45/45 53/53/53 54/54/54
f 54/54/54 55/55/55 47/47/47
f 55/55/55 56/56/56 48/48/48
f 56/56/56 57/57/57 49/49/49
f 49/49/49 57/57/57 58/58/58
f 58/58/58 59/59/59 51/51/51
f 59/59/59 60/60/60 52/52/52
f 6/6/6 45/45/45 37/37/37
f 45/45/45 46/46/46 38/38/38
f 46/46/46 47/47/47 39/39/39
f 39/39/39 47/47/47 48/48/48
f 40/40/40 48/48/48 49/49/49
f 41/41/41 49/49/49 50/50/50
f 50/50/50 51/51/51 43/43/43
f 51/51/51 52/52/52 44/44/44
f 5/5/5 37/37/37 28/28/28
f 28/28/28 37/37/37 38/38/38
f 27/27/27 38/38/38 39/39/39
f 26/26/26 39/39/39 40/40/40
f 40/40/40 41/41/41 24/24/24
f 41/41/41 42/42/42 23/23/23
f 23/23/23 42/42/42 43/43/43
f 43/43/43 44/44/44 21/21/21
f 2/2/2 29/29/29 93/93/93
f 93/93/93 29/29/29 30/30/30
f 30/30/30 31/31/31 95/95/95
f 31/31/31 32/32/32 96/96/96
f 32/32/32 33/33/33 97/97/97
f 33/33/33 34/34/34 98/98/98
f 98/98/98 34/34/34 35/35/35
f 99/99/99 35/35/35 36/36/36
