o GNATVCloth
v -4.99562 -4.97091 0.616512
v 5.04925 -4.98613 0.395245
v -5.01298 5.02105 0.004229
v 4.98702 5.02105 0.004229
v -3.8956 -5.01119 0.463746
v -2.78182 -5.03507 0.469403
v -1.66444 -5.0555 0.434246
v -0.543421 -5.0759 0.435297
v 0.579558 -5.08101 0.409875
v 1.70196 -5.07545 0.403516
v 2.82248 -5.04706 0.409982
v 3.93804 -5.0198 0.332672
v 3.87325 4.88799 0.21341
v 2.77073 4.77572 0.426657
v 1.65035 4.73046 0.367558
v 0.531371 4.69392 0.388426
v -0.572622 4.67882 0.578779
v -1.69115 4.71375 0.515263
v -2.81517 4.7461 0.499828
v -3.91128 4.86424 0.25798
v -4.97359 3.9094 0.0890889
v -4.96153 2.7952 0.123114
v -4.96155 1.68223 0.16188
v -4.96377 0.569587 0.193284
v -4.96872 -0.542926 0.235785
v -4.97486 -1.6547 0.282453
v -4.98182 -2.76795 0.348566
v -4.99362 -3.87657 0.436944
v 5.0282 -3.87998 0.321428
v 5.01085 -2.77271 0.205041
v 4.9953 -1.66093 0.173005
v 4.98656 -0.546079 0.175272
v 4.98151 0.566268 0.168612
v 4.97784 1.67922 0.143811
v 4.97522 2.79359 0.12653
v 4.96611 3.90744 0.0720493
v -3.81949 -3.85888 0.419844
v -3.77823 -3.21388 0.347361
v -3.62972 -1.92703 0.275228
v -4.07944 -0.27161 0.204565
v -4.10637 0.744934 0.194735
v -4.10018 1.5281 0.145777
v -4.03585 2.82077 0.092165
v -3.92965 3.87982 -0.180899
v -2.69491 -4.01917 0.338761
v -2.76281 -2.75066 0.284904
v -2.64064 -2.15709 0.28394
v -2.7107 -0.611957 0.267851
v -2.74124 0.519567 0.226641
v -2.68773 1.54386 -0.00612164
v -2.85326 2.85552 -0.279083
v -2.76968 3.49102 0.0127394
v -1.63616 -4.24618 0.378798
v -1.47475 -2.93289 0.410044
v -1.85723 -1.63807 0.385118
v -1.83547 -0.843825 0.312842
v -1.53312 0.581026 -0.193829
v -1.99625 1.63899 -0.296274
v -1.72086 2.66785 -0.10705
v -1.5759 3.6167 0.236057
v -0.216634 -4.33653 0.390642
v -0.564843 -2.90016 0.371085
v -0.524227 -1.76868 0.26417
v -0.822899 -0.803175 0.0897881
v -0.604664 0.391454 -0.109982
v -0.372656 1.40308 -0.149928
v -0.573537 2.5628 0.0567738
v -0.755754 3.41219 0.240679
v 0.752207 -3.91991 0.333879
v 0.827854 -2.63785 0.319879
v 0.538693 -1.86035 0.187386
v 0.62224 -0.55248 -0.0895537
v 0.590856 0.354999 -0.0956178
v 0.3018 1.46174 -0.09676
v 0.52617 2.40472 0.0226098
v 0.551212 3.61373 0.337314
v 1.96424 -3.67391 0.304439
v 1.68575 -2.86906 0.415025
v 1.82598 -1.9418 0.366209
v 1.98737 -0.4336 0.0985197
v 1.98587 0.2297 -0.0812916
v 1.83366 1.49343 -0.150808
v 1.40807 2.75266 -0.0519673
v 1.49321 3.51766 0.283321
v 2.80687 -3.93541 0.296157
v 3.10773 -2.84916 0.291767
v 2.95831 -1.97531 0.402157
v 2.71435 -0.518774 0.263266
v 2.95936 0.272065 0.170583
v 3.08247 1.54737 -0.0892123
v 2.76709 3.11204 -0.204224
v 2.74796 3.43493 -0.0191128
v 3.93206 -3.97639 0.335865
v 3.6703 -2.72344 0.302482
v 3.87601 -1.68271 0.304049
v 3.81085 -0.727732 0.33075
v 3.86647 0.283442 0.28596
v 4.15871 1.79955 0.162435
v 4.13503 2.75207 -0.00117589
v 4.03412 3.86911 -0.152588
vt 0.0001 0.0001
vt 0.9999 0.0001
vt 0.0001 0.9999
vt 0.9999 0.9999
vt 0.111189 0.0001
vt 0.222278 0.0001
vt 0.333367 0.0001
vt 0.444455 0.0001
vt 0.555544 0.0001
vt 0.666633 0.0001
vt 0.777722 0.0001
vt 0.888811 0.0001
vt 0.888811 0.9999
vt 0.777722 0.9999
vt 0.666633 0.9999
vt 0.555544 0.9999
vt 0.444455 0.9999
vt 0.333367 0.9999
vt 0.222278 0.9999
vt 0.111189 0.9999
vt 0.0001 0.888811
vt 0.0001 0.777722
vt 0.0001 0.666633
vt 0.0001 0.555544
vt 0.0001 0.444456
vt 0.0001 0.333367
vt 0.0001 0.222278
vt 0.0001 0.111189
vt 0.9999 0.111189
vt 0.9999 0.222278
vt 0.9999 0.333367
vt 0.9999 0.444456
vt 0.9999 0.555544
vt 0.9999 0.666633
vt 0.9999 0.777722
vt 0.9999 0.888811
vt 0.11727 0.115399
vt 0.120778 0.180369
vt 0.134636 0.309595
vt 0.088728 0.473895
vt 0.085886 0.575352
vt 0.086211 0.65375
vt 0.092207 0.78313
vt 0.106956 0.892282
vt 0.22987 0.102869
vt 0.221803 0.229552
vt 0.233521 0.288953
vt 0.225541 0.443179
vt 0.221596 0.556167
vt 0.227801 0.661237
vt 0.214896 0.795203
vt 0.22542 0.865181
vt 0.335524 0.082127
vt 0.351143 0.213907
vt 0.311934 0.342467
vt 0.313159 0.422214
vt 0.347791 0.572605
vt 0.301482 0.677733
vt 0.329031 0.783086
vt 0.344903 0.885466
vt 0.476837 0.074882
vt 0.441952 0.218774
vt 0.445749 0.333088
vt 0.416414 0.43099
vt 0.439746 0.552976
vt 0.463203 0.656843
vt 0.444252 0.77653
vt 0.426137 0.866051
vt 0.573419 0.117409
vt 0.581125 0.246686
vt 0.552512 0.326
vt 0.561075 0.459693
vt 0.558356 0.550596
vt 0.530299 0.662189
vt 0.553275 0.760113
vt 0.555478 0.888821
vt 0.694433 0.13996
vt 0.667048 0.221666
vt 0.681985 0.314267
vt 0.698218 0.467249
vt 0.696819 0.535952
vt 0.68253 0.662758
vt 0.642062 0.791726
vt 0.648523 0.877957
vt 0.778029 0.111667
vt 0.809426 0.219523
vt 0.794923 0.307783
vt 0.772028 0.454562
vt 0.796846 0.533374
vt 0.807262 0.663157
vt 0.778581 0.821037
vt 0.775122 0.858219
vt 0.890224 0.104741
vt 0.865679 0.23076
vt 0.887326 0.334104
vt 0.881307 0.429754
vt 0.887973 0.53063
vt 0.918106 0.681428
vt 0.915043 0.778027
vt 0.904815 0.89094
vn 0.14153 0.16004 0.976912
vn -0.0244502 0.0317077 0.999198
vn -0.0038875 -0.163718 0.9865
vn -0.0134136 -0.123975 0.992195
vn 0.0506172 0.078814 0.995603
vn 0.0267201 0.0885103 0.995717
vn 0.0164581 0.0677691 0.997565
vn 0.00625836 0.0602603 0.998163
vn 0.0202055 0.0584068 0.998088
vn 0.00932018 0.0749562 0.997143
vn 0.00984858 0.0669625 0.997707
vn 0.00655367 -0.00302275 0.999974
vn 0.210586 -0.300867 0.930125
vn 0.14309 -0.250002 0.957614
vn -0.0145581 -0.0674048 0.997619
vn 0.0814236 -0.0540055 0.995215
vn 0.00198464 -0.201146 0.979559
vn -0.0415924 -0.250531 0.967215
vn -0.166634 -0.342318 0.92469
vn -0.248668 -0.390526 0.886371
vn 0.179706 0.111482 0.977383
vn 0.0324918 0.032825 0.998933
vn 0.0201524 0.0413306 0.998942
vn 0.00411573 0.0252912 0.999672
vn 0.0228866 0.0399333 0.99894
vn 0.0181554 0.0492114 0.998623
vn 0.0228316 0.0639487 0.997692
vn 0.049782 0.0970284 0.994036
vn 0.00558747 0.0856739 0.996308
vn 0.0664721 0.0403461 0.996972
vn 0.121209 0.00314589 0.992622
vn 0.119921 0.0141544 0.992683
vn 0.0725449 0.0309362 0.996885
vn 0.0255108 0.018958 0.999495
vn -0.0950399 0.0757756 0.992585
vn -0.208865 0.0734019 0.975186
vn 0.039537 0.0824714 0.995809
vn 0.0382531 0.0742899 0.996503
vn 0.00545933 0.036677 0.999312
vn -0.00578345 0.0304146 0.999521
vn 0.0194884 0.0654201 0.997667
vn 0.06709 0.0498886 0.996499
vn 0.147353 0.115818 0.98228
vn -0.0386038 -0.153869 0.987337
vn 0.0121722 0.0697642 0.997489
vn -0.0228974 0.0316002 0.999238
vn -0.0715136 0.00460766 0.997429
vn -0.0470397 0.0348226 0.998286
vn 0.129214 0.142354 0.981345
vn 0.20568 0.163737 0.964824
vn 0.0499706 -0.0392534 0.997979
vn -0.204216 -0.359904 0.910365
vn 0.00186181 0.0415144 0.999136
vn -0.0239233 0.0192958 0.999528
vn 0.0234102 0.0706087 0.997229
vn 0.13049 0.154803 0.97929
vn 0.101693 0.182025 0.978021
vn 0.0742428 0.0360695 0.996588
vn -0.152747 -0.259036 0.953713
vn -0.085786 -0.293318 0.952158
vn 0.0182083 0.0419827 0.998952
vn 0.0346669 0.0529414 0.997996
vn 0.0828726 0.140937 0.986544
vn 0.107934 0.185689 0.976663
vn -0.0237914 0.0737878 0.99699
vn -0.0707709 -0.0504913 0.996214
vn -0.0779231 -0.203931 0.975879
vn -0.0768682 -0.258307 0.963
vn 0.0105377 0.017934 0.999784
vn -0.0577871 0.0765967 0.995386
vn -0.0158281 0.15973 0.987034
vn -0.0222493 0.154284 0.987776
vn -0.000786339 0.0149977 0.999887
vn -0.0183721 -0.0355465 0.999199
vn 0.0418072 -0.161811 0.985936
vn 0.0486704 -0.21201 0.976055
vn 0.0373683 -0.0182047 0.999136
vn -0.000827643 -0.0327292 0.999464
vn -0.107126 0.132768 0.985341
vn -0.171237 0.223903 0.95945
vn -0.131673 0.148755 0.980069
vn 0.0267471 -0.00561323 0.999626
vn 0.126446 -0.233237 0.964164
vn 0.0907468 -0.261288 0.960986
vn -0.00687528 0.0566495 0.99837
vn 0.0225794 -0.0507176 0.998458
vn 0.0314696 -0.00624702 0.999485
vn -0.124818 0.158167 0.979492
vn -0.160174 0.159771 0.974073
vn -0.162604 0.124725 0.978777
vn 0.0674999 -0.175267 0.982204
vn 0.20764 -0.395973 0.894478
vn 0.00102457 0.0430757 0.999071
vn 0.0490644 -0.0200407 0.998595
vn 0.106167 -0.00987966 0.994299
vn 0.039957 0.0376528 0.998492
vn -0.0320342 0.083572 0.995987
vn -0.0894578 0.092708 0.991667
vn -0.17615 0.107952 0.978426
vn 0.0424518 -0.163634 0.985607
f 100/100/100 4/4/4 13/13/13
f 44/44/44 3/3/3 21/21/21
f 44/44/44 19/19/19 20/20/20
f 60/60/60 19/19/19 52/52/52
f 60/60/60 17/17/17 18/18/18
f 76/76/76 17/17/17 68/68/68
f 84/84/84 16/16/16 76/76/76
f 84/84/84 14/14/14 15/15/15
f 100/100/100 14/14/14 92/92/92
f 11/11/11 93/93/93 85/85/85
f 93/93/93 86/86/86 85/85/85
f 94/94/94 87/87/87 86/86/86
f 87/87/87 96/96/96 88/88/88
f 96/96/96 89/89/89 88/88/88
f 97/97/97 90/90/90 89/89/89
f 90/90/90 99/99/99 91/91/91
f 91/91/91 100/100/100 92/92/92
f 10/10/10 85/85/85 77/77/77
f 77/77/77 86/86/86 78/78/78
f 78/78/78 87/87/87 79/79/79
f 79/79/79 88/88/88 80/80/80
f 88/88/88 81/81/81 80/80/80
f 81/81/81 90/90/90 82/82/82
f 82/82/82 91/91/91 83/83/83
f 91/91/91 84/84/84 83/83/83
f 10/10/10 69/69/69 9/9/9
f 69/69/69 78/78/78 70/70/70
f 70/70/70 79/79/79 71/71/71
f 79/79/79 72/72/72 71/71/71
f 72/72/72 81/81/81 73/73/73
f 73/73/73 82/82/82 74/74/74
f 82/82/82 75/75/75 74/74/74
f 83/83/83 76/76/76 75/75/75
f 9/9/9 61/61/61 8/8/8
f 69/69/69 62/62/62 61/61/61
f 62/62/62 71/71/71 63/63/63
f 63/63/63 72/72/72 64/64/64
f 72/72/72 65/65/65 64/64/64
f 65/65/65 74/74/74 66/66/66
f 66/66/66 75/75/75 67/67/67
f 67/67/67 76/76/76 68/68/68
f 8/8/8 53/53/53 7/7/7
f 53/53/53 62/62/62 54/54/54
f 54/54/54 63/63/63 55/55/55
f 55/55/55 64/64/64 56/56/56
f 64/64/64 57/57/57 56/56/56
f 57/57/57 66/66/66 58/58/58
f 58/58/58 67/67/67 59/59/59
f 59/59/59 68/68/68 60/60/60
f 6/6/6 53/53/53 45/45/45
f 45/45/45 54/54/54 46/46/46
f 54/54/54 47/47/47 46/46/46
f 55/55/55 48/48/48 47/47/47
f 56/56/56 49/49/49 48/48/48
f 49/49/49 58/58/58 50/50/50
f 58/58/58 51/51/51 50/50/50
f 59/59/59 52/52/52 51/51/51
f 6/6/6 37/37/37 5/5/5
f 45/45/45 38/38/38 37/37/37
f 46/46/46 39/39/39 38/38/38
f 39/39/39 48/48/48 40/40/40
f 40/40/40 49/49/49 41/41/41
f 41/41/41 50/50/50 42/42/42
f 50/50/50 43/43/43 42/42/42
f 51/51/51 44/44/44 43/43/43
f 5/5/5 28/28/28 1/1/1
f 28/28/28 38/38/38 27/27/27
f 27/27/27 39/39/39 26/26/26
f 26/26/26 40/40/40 25/25/25
f 40/40/40 24/24/24 25/25/25
f 41/41/41 23/23/23 24/24/24
f 23/23/23 43/43/43 22/22/22
f 43/43/43 21/21/21 22/22/22
f 2/2/2 93/93/93 12/12/12
f 93/93/93 30/30/30 94/94/94
f 30/30/30 95/95/95 94/94/94
f 31/31/31 96/96/96 95/95/95
f 32/32/32 97/97/97 96/96/96
f 33/33/33 98/98/98 97/97/97
f 98/98/98 35/35/35 99/99/99
f 99/99/99 36/36/36 100/100/100
f 100/100/100 36/36/36 4/4/4
f 44/44/44 20/20/20 3/3/3
f 44/44/44 52/52/52 19/19/19
f 60/60/60 18/18/18 19/19/19
f 60/60/60 68/68/68 17/17/17
f 76/76/76 16/16/16 17/17/17
f 84/84/84 15/15/15 16/16/16
f 84/84/84 92/92/92 14/14/14
f 100/100/100 13/13/13 14/14/14
f 11/11/11 12/12/12 93/93/93
f 93/93/93 94/94/94 86/86/86
f 94/94/94 95/95/95 87/87/87
f 87/87/87 95/95/95 96/96/96
f 96/96/96 97/97/97 89/89/89
f 97/97/97 98/98/98 90/90/90
f 90/90/90 98/98/98 99/99/99
f 91/91/91 99/99/99 100/100/100
f 10/10/10 11/11/11 85/85/85
f 77/77/77 85/85/85 86/86/86
f 78/78/78 86/86/86 87/87/87
f 79/79/79 87/87/87 88/88/88
f 88/88/88 89/89/89 81/81/81
f 81/81/81 89/89/89 90/90/90
f 82/82/82 90/90/90 91/91/91
f 91/91/91 92/92/92 84/84/84
f 10/10/10 77/77/77 69/69/69
f 69/69/69 77/77/77 78/78/78
f 70/70/70 78/78/78 79/79/79
f 79/79/79 80/80/80 72/72/72
f 72/72/72 80/80/80 81/81/81
f 73/73/73 81/81/81 82/82/82
f 82/82/82 83/83/83 75/75/75
f 83/83/83 84/84/84 76/76/76
f 9/9/9 69/69/69 61/61/61
f 69/69/69 70/70/70 62/62/62
f 62/62/62 70/70/70 71/71/71
f 63/63/63 71/71/71 72/72/72
f 72/72/72 73/73/73 65/65/65
f 65/65/65 73/73/73 74/74/74
f 66/66/66 74/74/74 75/75/75
f 67/67/67 75/75/75 76/76/76
f 8/8/8 61/61/61 53/53/53
f 53/53/53 61/61/61 62/62/62
f 54/54/54 62/62/62 63/63/63
f 55/55/55 63/63/63 64/64/64
f 64/64/64 65/65/65 57/57/57
f 57/57/57 65/65/65 66/66/66
f 58/58/58 66/66/66 67/67/67
f 59/59/59 67/67/67 68/68/68
f 6/6/6 7/7/7 53/53/53
f 45/45/45 53/53/53 54/54/54
f 54/54/54 55/55/55 47/47/47
f 55/55/55 56/56/56 48/48/48
f 56/56/56 57/57/57 49/49/49
f 49/49/49 57/57/57 58/58/58
f 58/58/58 59/59/59 51/51/51
f 59/59/59 60/60/60 52/52/52
f 6/6/6 45/45/45 37/37/37
f 45/45/45 46/46/46 38/38/38
f 46/46/46 47/47/47 39/39/39
f 39/39/39 47/47/47 48/48/48
f 40/40/40 48/48/48 49/49/49
f 41/41/41 49/49/49 50/50/50
f 50/50/50 51/51/51 43/43/43
f 51/51/51 52/52/52 44/44/44
f 5/5/5 37/37/37 28/28/28
f 28/28/28 37/37/37 38/38/38
f 27/27/27 38/38/38 39/39/39
f 26/26/26 39/39/39 40/40/40
f 40/40/40 41/41/41 24/24/24
f 41/41/41 42/42/42 23/23/23
f 23/23/23 42/42/42 43/43/43
f 43/43/43 44/44/44 21/21/21
f 2/2/2 29/29/29 93/93/93
f 93/93/93 29/29/29 30/30/30
f 30/30/30 31/31/31 95/95/95
f 31/31/31 32/32/32 96/96/96
f 32/32/32 33/33/33 97/97/97
f 33/33/33 34/34/34 98/98/98
f 98/98/98 34/34/34 35/35/35
f 99/99/99 35/35/35 36/36/36
