o GNATVCloth
v -5.10529 -4.98009 0.505697
v 4.99872 -4.99664 0.455239
v -5.01298 5.02105 0.004229
v 4.98702 5.02105 0.004229
v -3.99001 -5.02604 0.504186
v -2.87266 -5.07847 0.426628
v -1.74638 -5.10571 0.412166
v -0.618127 -5.12162 0.375461
v 0.511804 -5.12054 0.372396
v 1.63871 -5.09965 0.350883
v 2.76063 -5.06939 0.409457
v 3.88177 -5.03461 0.433747
v 3.84804 4.94876 0.161567
v 2.72182 4.8795 0.320502
v 1.59391 4.80041 0.404022
v 0.475409 4.72034 0.481891
v -0.64217 4.67595 0.379119
v -1.68851 4.71093 0.244818
v -2.79731 4.78754 0.38415
v -3.90094 4.88239 0.204179
v -5.00758 3.90705 0.0806673
v -5.00821 2.79123 0.103558
v -5.02109 1.67622 0.125227
v -5.03385 0.562216 0.169792
v -5.03958 -0.548535 0.255084
v -5.04648 -1.65896 0.332903
v -5.05538 -2.76603 0.442745
v -5.07235 -3.87285 0.550669
v 4.97489 -3.88647 0.398405
v 4.96465 -2.78102 0.273332
v 4.96106 -1.66822 0.26004
v 4.95995 -0.555109 0.238566
v 4.95828 0.559224 0.212967
v 4.95607 1.67421 0.168817
v 4.96046 2.78989 0.122302
v 4.96382 3.90514 0.0585888
v -3.90212 -3.87812 0.434315
v -3.86182 -3.23641 0.322919
v -3.71151 -1.9564 0.173434
v -4.15437 -0.29217 0.149917
v -4.17361 0.724247 0.180297
v -4.15948 1.50898 0.173718
v -4.08379 2.80134 0.163083
v -3.94898 3.85381 -0.110199
v -2.7793 -4.05702 0.315007
v -2.84245 -2.79061 0.206988
v -2.72742 -2.20389 0.293075
v -2.79787 -0.657655 0.341542
v -2.82358 0.474513 0.334015
v -2.73401 1.51577 0.21179
v -2.87538 2.82007 -0.116365
v -2.81742 3.45443 0.181109
v -1.71622 -4.29625 0.340046
v -1.55144 -2.98469 0.367135
v -1.94662 -1.69597 0.450947
v -1.92441 -0.898104 0.425163
v -1.573 0.557541 0.0791383
v -2.02241 1.61337 -0.0244
v -1.77488 2.64159 0.209723
v -1.61603 3.59728 0.28861
v -0.289319 -4.38236 0.369975
v -0.637731 -2.94758 0.376394
v -0.598716 -1.80681 0.413362
v -0.89259 -0.845385 0.314651
v -0.659776 0.364896 0.243921
v -0.422394 1.38348 0.273097
v -0.621016 2.56743 0.376082
v -0.801181 3.4181 0.350777
v 0.684934 -3.94984 0.360655
v 0.762409 -2.65601 0.365676
v 0.475621 -1.86663 0.370887
v 0.563045 -0.543748 0.345977
v 0.533018 0.357409 0.317385
v 0.249903 1.44785 0.349265
v 0.481317 2.43188 0.394401
v 0.499156 3.67303 0.402927
v 1.90367 -3.69433 0.392926
v 1.6259 -2.89313 0.328239
v 1.77942 -1.96405 0.376228
v 1.93941 -0.430678 0.344882
v 1.92467 0.248511 0.256286
v 1.78242 1.49895 0.272516
v 1.37627 2.76944 0.333679
v 1.43803 3.59844 0.328403
v 2.74851 -3.95581 0.400747
v 3.0573 -2.86817 0.367078
v 2.90995 -1.99381 0.287482
v 2.6809 -0.535341 0.351894
v 2.92671 0.262017 0.299244
v 3.02678 1.54759 0.0876795
v 2.74302 3.1123 0.15931
v 2.70257 3.47407 0.137417
v 3.8776 -3.99217 0.368511
v 3.62134 -2.74208 0.342733
v 3.83474 -1.70147 0.301522
v 3.77339 -0.745674 0.264277
v 3.83998 0.266478 0.265166
v 4.13728 1.78816 0.167373
v 4.11255 2.74713 0.0538935
v 4.00554 3.87271 0.0311141
vt 0.0001 0.0001
vt 0.9999 0.0001
vt 0.0001 0.9999
vt 0.9999 0.9999
vt 0.111189 0.0001
vt 0.222278 0.0001
vt 0.333367 0.0001
vt 0.444455 0.0001
vt 0.555544 0.0001
vt 0.666633 0.0001
vt 0.777722 0.0001
vt 0.888811 0.0001
vt 0.888811 0.9999
vt 0.777722 0.9999
vt 0.666633 0.9999
vt 0.555544 0.9999
vt 0.444455 0.9999
vt 0.333367 0.9999
vt 0.222278 0.9999
vt 0.111189 0.9999
vt 0.0001 0.888811
vt 0.0001 0.777722
vt 0.0001 0.666633
vt 0.0001 0.555544
vt 0.0001 0.444456
vt 0.0001 0.333367
vt 0.0001 0.222278
vt 0.0001 0.111189
vt 0.9999 0.111189
vt 0.9999 0.222278
vt 0.9999 0.333367
vt 0.9999 0.444456
vt 0.9999 0.555544
vt 0.9999 0.666633
vt 0.9999 0.777722
vt 0.9999 0.888811
vt 0.11727 0.115399
vt 0.120778 0.180369
vt 0.134636 0.309595
vt 0.088728 0.473895
vt 0.085886 0.575352
vt 0.086211 0.65375
vt 0.092207 0.78313
vt 0.106956 0.892282
vt 0.22987 0.102869
vt 0.221803 0.229552
vt 0.233521 0.288953
vt 0.225541 0.443179
vt 0.221596 0.556167
vt 0.227801 0.661237
vt 0.214896 0.795203
vt 0.22542 0.865181
vt 0.335524 0.082127
vt 0.351143 0.213907
vt 0.311934 0.342467
vt 0.313159 0.422214
vt 0.347791 0.572605
vt 0.301482 0.677733
vt 0.329031 0.783086
vt 0.344903 0.885466
vt 0.476837 0.074882
vt 0.441952 0.218774
vt 0.445749 0.333088
vt 0.416414 0.43099
vt 0.439746 0.552976
vt 0.463203 0.656843
vt 0.444252 0.77653
vt 0.426137 0.866051
vt 0.573419 0.117409
vt 0.581125 0.246686
vt 0.552512 0.326
vt 0.561075 0.459693
vt 0.558356 0.550596
vt 0.530299 0.662189
vt 0.553275 0.760113
vt 0.555478 0.888821
vt 0.694433 0.13996
vt 0.667048 0.221666
vt 0.681985 0.314267
vt 0.698218 0.467249
vt 0.696819 0.535952
vt 0.68253 0.662758
vt 0.642062 0.791726
vt 0.648523 0.877957
vt 0.778029 0.111667
vt 0.809426 0.219523
vt 0.794923 0.307783
vt 0.772028 0.454562
vt 0.796846 0.533374
vt 0.807262 0.663157
vt 0.778581 0.821037
vt 0.775122 0.858219
vt 0.890224 0.104741
vt 0.865679 0.23076
vt 0.887326 0.334104
vt 0.881307 0.429754
vt 0.887973 0.53063
vt 0.918106 0.681428
vt 0.915043 0.778027
vt 0.904815 0.89094
vn -0.000317992 -0.0405737 0.999177
vn -0.0266862 0.0563884 0.998052
vn -0.0119483 -0.108341 0.994042
vn 0.0563762 -0.0248165 0.998101
vn 0.0569186 0.0225267 0.998125
vn 0.0520882 0.0873181 0.994818
vn 0.0242732 0.0878225 0.99584
vn 0.00545337 0.036692 0.999312
vn 0.00904409 0.00755388 0.999931
vn -0.0179812 -0.00952342 0.999793
vn -0.0157084 0.0259296 0.99954
vn -0.0224356 0.0623523 0.997802
vn 0.143644 -0.0983557 0.98473
vn 0.119902 -0.10771 0.986926
vn 0.0765691 -0.072493 0.994425
vn 0.0198129 -0.0743635 0.997034
vn -0.0825709 -0.0191478 0.996401
vn 0.000765476 0.0393421 0.999225
vn -0.105394 -0.132946 0.985504
vn -0.190681 -0.278778 0.941235
vn 0.100993 0.105678 0.989259
vn -0.0644658 0.0203191 0.997713
vn -0.0481601 0.0202678 0.998634
vn 0.0232735 0.0287023 0.999317
vn 0.0969805 0.0723424 0.992654
vn 0.122152 0.0713507 0.989943
vn 0.137755 0.0965461 0.98575
vn 0.0836239 0.0679288 0.994179
vn -0.0349623 0.0812452 0.996081
vn 0.02591 0.0461107 0.9986
vn 0.0301919 0.024186 0.999251
vn 0.0270694 0.0133291 0.999545
vn 0.0252531 0.0402006 0.998872
vn 0.00388868 0.0406066 0.999168
vn -0.0549936 0.071309 0.995937
vn -0.0475824 0.0412845 0.998014
vn 0.103992 0.106325 0.988878
vn 0.107076 0.119353 0.987061
vn 0.00682973 0.0253062 0.999656
vn -0.0126375 0.0157671 0.999796
vn -0.0527803 0.0200784 0.998404
vn -0.040466 0.00984685 0.999132
vn 0.0586402 0.111058 0.992082
vn -0.0673371 -0.0839832 0.994189
vn 0.0313294 0.0866723 0.995744
vn -0.0523605 0.00881103 0.998589
vn -0.144678 -0.0824834 0.986035
vn -0.128236 -0.00971558 0.991696
vn 0.033716 0.0791138 0.996295
vn 0.109594 0.127405 0.985777
vn -0.0493908 -0.0271508 0.99841
vn -0.226976 -0.225252 0.947493
vn -0.00411139 0.0363573 0.99933
vn -0.0580027 -0.0385679 0.997571
vn -0.0379382 -0.00402769 0.999272
vn 0.0410395 0.0933343 0.994789
vn -0.0085208 0.116656 0.993136
vn -0.0106941 0.0144666 0.999838
vn -0.18357 -0.142039 0.972691
vn -0.0534954 -0.0367472 0.997892
vn -0.00458708 0.00401964 0.999981
vn 0.00361285 -0.0149761 0.999881
vn 0.0149054 0.0159994 0.999761
vn 0.000287236 0.0996041 0.995027
vn -0.100921 0.0246881 0.994588
vn -0.134366 -0.0331864 0.990376
vn -0.0974631 -0.0637759 0.993194
vn -0.0786297 -0.0155718 0.996782
vn 0.00337665 0.00633469 0.999974
vn 0.0163382 -0.0157611 0.999742
vn 0.0158079 -0.00207542 0.999873
vn -0.00786085 0.0503908 0.998699
vn 0.0034575 -0.00129277 0.999993
vn -0.0365785 -0.0282797 0.998931
vn 0.00720487 -0.0345475 0.999377
vn 0.00524391 -0.0231686 0.999718
vn -0.0213905 0.0231266 0.999504
vn 0.00813814 0.0161316 0.999837
vn 0.0238715 -0.0142597 0.999613
vn -0.00207261 0.0751905 0.997167
vn 0.0211254 0.0763751 0.996855
vn 0.0922114 -0.0181592 0.995574
vn 0.0964094 -0.00817823 0.995308
vn 0.103784 -0.0392118 0.993827
vn -0.00229375 0.008456 0.999962
vn 0.00524606 0.0554552 0.998447
vn 0.0235465 0.0192875 0.999537
vn 0.0329379 0.0341669 0.998873
vn 0.0145338 0.0882865 0.995989
vn 0.0243603 0.0680692 0.997383
vn 0.110479 0.0158122 0.993753
vn 0.118846 -0.0290525 0.992488
vn 0.00407867 0.0472192 0.998876
vn 0.0268222 0.0456704 0.998596
vn 0.0135909 0.0329902 0.999363
vn 0.035395 0.0140704 0.999274
vn 0.0131263 0.0528151 0.998518
vn -0.0385829 0.075108 0.996429
vn -0.0237254 0.0500067 0.998467
vn 0.0707608 -0.023646 0.997213
f 100/100/100 4/4/4 13/13/13
f 44/44/44 3/3/3 21/21/21
f 44/44/44 19/19/19 20/20/20
f 60/60/60 19/19/19 52/52/52
f 60/60/60 17/17/17 18/18/18
f 76/76/76 17/17/17 68/68/68
f 84/84/84 16/16/16 76/76/76
f 84/84/84 14/14/14 15/15/15
f 100/100/100 14/14/14 92/92/92
f 11/11/11 93/93/93 85/85/85
f 93/93/93 86/86/86 85/85/85
f 94/94/94 87/87/87 86/86/86
f 87/87/87 96/96/96 88/88/88
f 96/96/96 89/89/89 88/88/88
f 97/97/97 90/90/90 89/89/89
f 90/90/90 99/99/99 91/91/91
f 91/91/91 100/100/100 92/92/92
f 10/10/10 85/85/85 77/77/77
f 77/77/77 86/86/86 78/78/78
f 78/78/78 87/87/87 79/79/79
f 79/79/79 88/88/88 80/80/80
f 88/88/88 81/81/81 80/80/80
f 81/81/81 90/90/90 82/82/82
f 82/82/82 91/91/91 83/83/83
f 91/91/91 84/84/84 83/83/83
f 10/10/10 69/69/69 9/9/9
f 69/69/69 78/78/78 70/70/70
f 70/70/70 79/79/79 71/71/71
f 79/79/79 72/72/72 71/71/71
f 72/72/72 81/81/81 73/73/73
f 73/73/73 82/82/82 74/74/74
f 82/82/82 75/75/75 74/74/74
f 83/83/83 76/76/76 75/75/75
f 9/9/9 61/61/61 8/8/8
f 69/69/69 62/62/62 61/61/61
f 62/62/62 71/71/71 63/63/63
f 63/63/63 72/72/72 64/64/64
f 72/72/72 65/65/65 64/64/64
f 65/65/65 74/74/74 66/66/66
f 66/66/66 75/75/75 67/67/67
f 67/67/67 76/76/76 68/68/68
f 8/8/8 53/53/53 7/7/7
f 53/53/53 62/62/62 54/54/54
f 54/54/54 63/63/63 55/55/55
f 55/55/55 64/64/64 56/56/56
f 64/64/64 57/57/57 56/56/56
f 57/57/57 66/66/66 58/58/58
f 58/58/58 67/67/67 59/59/59
f 59/59/59 68/68/68 60/60/60
f 6/6/6 53/53/53 45/45/45
f 45/45/45 54/54/54 46/46/46
f 54/54/54 47/47/47 46/46/46
f 55/55/55 48/48/48 47/47/47
f 56/56/56 49/49/49 48/48/48
f 49/49/49 58/58/58 50/50/50
f 58/58/58 51/51/51 50/50/50
f 59/59/59 52/52/52 51/51/51
f 6/6/6 37/37/37 5/5/5
f 45/45/45 38/38/38 37/37/37
f 46/46/46 39/39/39 38/38/38
f 39/39/39 48/48/48 40/40/40
f 40/40/40 49/49/49 41/41/41
f 41/41/41 50/50/50 42/42/42
f 50/50/50 43/43/43 42/42/42
f 51/51/51 44/44/44 43/43/43
f 5/5/5 28/28/28 1/1/1
f 28/28/28 38/38/38 27/27/27
f 27/27/27 39/39/39 26/26/26
f 26/26/26 40/40/40 25/25/25
f 40/40/40 24/24/24 25/25/25
f 41/41/41 23/23/23 24/24/24
f 23/23/23 43/43/43 22/22/22
f 43/43/43 21/21/21 22/22/22
f 2/2/2 93/93/93 12/12/12
f 93/93/93 30/30/30 94/94/94
f 30/30/30 95/95/95 94/94/94
f 31/31/31 96/96/96 95/95/95
f 32/32/32 97/97/97 96/96/96
f 33/33/33 98/98/98 97/97/97
f 98/98/98 35/35/35 99/99/99
f 99/99/99 36/36/36 100/100/100
f 100/100/100 36/36/36 4/4/4
f 44/44/44 20/20/20 3/3/3
f 44/44/44 52/52/52 19/19/19
f 60/60/60 18/18/18 19/19/19
f 60/60/60 68/68/68 17/17/17
f 76/76/76 16/16/16 17/17/17
f 84/84/84 15/15/15 16/16/16
f 84/84/84 92/92/92 14/14/14
f 100/100/100 13/13/13 14/14/14
f 11/11/11 12/12/12 93/93/93
f 93/93/93 94/94/94 86/86/86
f 94/94/94 95/95/95 87/87/87
f 87/87/87 95/95/95 96/96/96
f 96/96/96 97/97/97 89/89/89
f 97/97/97 98/98/98 90/90/90
f 90/90/90 98/98/98 99/99/99
f 91/91/91 99/99/99 100/100/100
f 10/10/10 11/11/11 85/85/85
f 77/77/77 85/85/85 86/86/86
f 78/78/78 86/86/86 87/87/87
f 79/79/79 87/87/87 88/88/88
f 88/88/88 89/89/89 81/81/81
f 81/81/81 89/89/89 90/90/90
f 82/82/82 90/90/90 91/91/91
f 91/91/91 92/92/92 84/84/84
f 10/10/10 77/77/77 69/69/69
f 69/69/69 77/77/77 78/78/78
f 70/70/70 78/78/78 79/79/79
f 79/79/79 80/80/80 72/72/72
f 72/72/72 80/80/80 81/81/81
f 73/73/73 81/81/81 82/82/82
f 82/82/82 83/83/83 75/75/75
f 83/83/83 84/84/84 76/76/76
f 9/9/9 69/69/69 61/61/61
f 69/69/69 70/70/70 62/62/62
f 62/62/62 70/70/70 71/71/71
f 63/63/63 71/71/71 72/72/72
f 72/72/72 73/73/73 65/65/65
f 65/65/65 73/73/73 74/74/74
f 66/66/66 74/74/74 75/75/75
f 67/67/67 75/75/75 76/76/76
f 8/8/8 61/61/61 53/53/53
f 53/53/53 61/61/61 62/62/62
f 54/54/54 62/62/62 63/63/63
f 55/55/55 63/63/63 64/64/64
f 64/64/64 65/65/65 57/57/57
f 57/57/57 65/65/65 66/66/66
f 58/58/58 66/66/66 67/67/67
f 59/59/59 67/67/67 68/68/68
f 6/6/6 7/7/7 53/53/53
f 45/45/45 53/53/53 54/54/54
f 54/54/54 55/55/55 47/47/47
f 55/55/55 56/56/56 48/48/48
f 56/56/56 57/57/57 49/49/49
f 49/49/49 57/57/57 58/58/58
f 58/58/58 59/59/59 51/51/51
f 59/59/59 60/60/60 52/52/52
f 6/6/6 45/45/45 37/37/37
f 45/45/45 46/46/46 38/38/38
f 46/46/46 47/47/47 39/39/39
f 39/39/39 47/47/47 48/48/48
f 40/40/40 48/48/48 49/49/49
f 41/41/41 49/49/49 50/50/50
f 50/50/50 51/51/51 43/43/43
f 51/51/51 52/52/52 44/44/44
f 5/5/5 37/37/37 28/28/28
f 28/28/28 37/37/37 38/38/38
f 27/27/27 38/38/38 39/39/39
f 26/26/26 39/39/39 40/40/40
f 40/40/40 41/41/41 24/24/24
f 41/41/41 42/42/42 23/23/23
f 23/23/23 42/42/42 43/43/43
f 43/43/43 44/44/44 21/21/21
f 2/2/2 29/29/29 93/93/93
f 93/93/93 29/29/29 30/30/30
f 30/30/30 31/31/31 95/95/95
f 31/31/31 32/32/32 96/96/96
f 32/32/32 33/33/33 97/97/97
f 33/33/33 34/34/34 98/98/98
f 98/98/98 34/34/34 35/35/35
f 99/99/99 35/35/35 36/36/36
