o GNATVCloth
v -4.91711 -4.98984 0.363234
v 5.1309 -4.98464 0.395144
v -5.01298 5.02105 0.004229
v 4.98702 5.02105 0.004229
v -3.80523 -5.00152 0.316997
v -2.68723 -5.00276 0.299868
v -1.57113 -5.00937 0.221195
v -0.452142 -5.00853 0.210657
v 0.667354 -5.01403 0.240481
v 1.78753 -5.01663 0.245735
v 2.90603 -5.01406 0.218837
v 4.02276 -5.00842 0.279059
v 3.87057 4.94589 0.0753781
v 2.77575 4.88512 0.22198
v 1.66989 4.83411 0.334592
v 0.599819 4.81793 0.293871
v -0.518961 4.85885 0.264813
v -1.63329 4.88777 0.172221
v -2.75398 4.93605 0.146176
v -3.87775 4.97567 0.068846
v -4.98967 3.90641 0.0442596
v -4.9714 2.79154 0.0678253
v -4.95912 1.67717 0.0954475
v -4.94528 0.563931 0.139684
v -4.93062 -0.548141 0.19304
v -4.92103 -1.65939 0.257732
v -4.91415 -2.76806 0.343623
v -4.91354 -3.87892 0.37473
v 5.12322 -3.87787 0.305623
v 5.11058 -2.76441 0.298316
v 5.09718 -1.65354 0.246804
v 5.08616 -0.544574 0.165686
v 5.07051 0.566466 0.112234
v 5.05309 1.67896 0.0772464
v 5.03839 2.79263 0.0532851
v 5.01712 3.90686 0.0294032
v -3.7431 -3.84953 0.275233
v -3.70719 -3.20205 0.271341
v -3.57608 -1.91259 0.172154
v -4.04757 -0.265266 0.156655
v -4.08844 0.749106 0.158532
v -4.09432 1.53442 0.128471
v -4.04848 2.82635 0.0905099
v -3.91625 3.90888 -0.0210568
v -2.61355 -3.98707 0.222004
v -2.69872 -2.7189 0.172489
v -2.58235 -2.12581 0.143549
v -2.67815 -0.587749 0.265437
v -2.72827 0.542573 0.258515
v -2.67606 1.59195 0.199153
v -2.81453 2.91933 0.000475985
v -2.74345 3.59501 0.194563
v -1.55199 -4.19594 0.230228
v -1.40192 -2.87996 0.214257
v -1.8061 -1.60023 0.290907
v -1.79796 -0.801317 0.2606
v -1.46582 0.695688 0.164134
v -1.94163 1.74632 0.133055
v -1.69194 2.78512 0.257515
v -1.53722 3.77708 0.217932
v -0.130138 -4.27526 0.206006
v -0.490613 -2.83556 0.214757
v -0.460293 -1.69492 0.243668
v -0.763357 -0.715985 0.204308
v -0.541122 0.497593 0.194934
v -0.319832 1.53298 0.229396
v -0.527864 2.72681 0.253914
v -0.718449 3.58213 0.222319
v 0.839116 -3.85595 0.233381
v 0.90606 -2.56422 0.191097
v 0.612486 -1.76966 0.209212
v 0.688988 -0.434102 0.200669
v 0.651227 0.469808 0.216497
v 0.3535 1.58659 0.225185
v 0.571785 2.5621 0.226617
v 0.585016 3.78942 0.215164
v 2.05513 -3.62061 0.217217
v 1.77103 -2.80904 0.194532
v 1.91411 -1.88589 0.236192
v 2.06497 -0.356418 0.209255
v 2.0411 0.326882 0.192971
v 1.88015 1.59494 0.157543
v 1.46352 2.8687 0.260149
v 1.52113 3.67379 0.206612
v 2.89915 -3.90119 0.214882
v 3.20094 -2.82383 0.270375
v 3.0485 -1.94728 0.175385
v 2.80537 -0.482991 0.270712
v 3.04362 0.304783 0.24327
v 3.13241 1.59737 0.167915
v 2.83181 3.162 0.184271
v 2.79368 3.5117 0.239209
v 4.0277 -3.96367 0.231297
v 3.76392 -2.7097 0.299445
v 3.9688 -1.67395 0.263289
v 3.90085 -0.721069 0.197907
v 3.95633 0.289581 0.190796
v 4.24118 1.80438 0.139615
v 4.19914 2.76787 0.0865312
v 4.07101 3.88343 0.0343681
vt 0.0001 0.0001
vt 0.9999 0.0001
vt 0.0001 0.9999
vt 0.9999 0.9999
vt 0.111189 0.0001
vt 0.222278 0.0001
vt 0.333367 0.0001
vt 0.444455 0.0001
vt 0.555544 0.0001
vt 0.666633 0.0001
vt 0.777722 0.0001
vt 0.888811 0.0001
vt 0.888811 0.9999
vt 0.777722 0.9999
vt 0.666633 0.9999
vt 0.555544 0.9999
vt 0.444455 0.9999
vt 0.333367 0.9999
vt 0.222278 0.9999
vt 0.111189 0.9999
vt 0.0001 0.888811
vt 0.0001 0.777722
vt 0.0001 0.666633
vt 0.0001 0.555544
vt 0.0001 0.444456
vt 0.0001 0.333367
vt 0.0001 0.222278
vt 0.0001 0.111189
vt 0.9999 0.111189
vt 0.9999 0.222278
vt 0.9999 0.333367
vt 0.9999 0.444456
vt 0.9999 0.555544
vt 0.9999 0.666633
vt 0.9999 0.777722
vt 0.9999 0.888811
vt 0.11727 0.115399
vt 0.120778 0.180369
vt 0.134636 0.309595
vt 0.088728 0.473895
vt 0.085886 0.575352
vt 0.086211 0.65375
vt 0.092207 0.78313
vt 0.106956 0.892282
vt 0.22987 0.102869
vt 0.221803 0.229552
vt 0.233521 0.288953
vt 0.225541 0.443179
vt 0.221596 0.556167
vt 0.227801 0.661237
vt 0.214896 0.795203
vt 0.22542 0.865181
vt 0.335524 0.082127
vt 0.351143 0.213907
vt 0.311934 0.342467
vt 0.313159 0.422214
vt 0.347791 0.572605
vt 0.301482 0.677733
vt 0.329031 0.783086
vt 0.344903 0.885466
vt 0.476837 0.074882
vt 0.441952 0.218774
vt 0.445749 0.333088
vt 0.416414 0.43099
vt 0.439746 0.552976
vt 0.463203 0.656843
vt 0.444252 0.77653
vt 0.426137 0.866051
vt 0.573419 0.117409
vt 0.581125 0.246686
vt 0.552512 0.326
vt 0.561075 0.459693
vt 0.558356 0.550596
vt 0.530299 0.662189
vt 0.553275 0.760113
vt 0.555478 0.888821
vt 0.694433 0.13996
vt 0.667048 0.221666
vt 0.681985 0.314267
vt 0.698218 0.467249
vt 0.696819 0.535952
vt 0.68253 0.662758
vt 0.642062 0.791726
vt 0.648523 0.877957
vt 0.778029 0.111667
vt 0.809426 0.219523
vt 0.794923 0.307783
vt 0.772028 0.454562
vt 0.796846 0.533374
vt 0.807262 0.663157
vt 0.778581 0.821037
vt 0.775122 0.858219
vt 0.890224 0.104741
vt 0.865679 0.23076
vt 0.887326 0.334104
vt 0.881307 0.429754
vt 0.887973 0.53063
vt 0.918106 0.681428
vt 0.915043 0.778027
vt 0.904815 0.89094
vn 0.0414363 -0.0104725 0.999086
vn -0.0894001 0.0629189 0.994006
vn 0.000360162 -0.0223748 0.99975
vn 0.0350345 -0.00173277 0.999385
vn 0.0469154 0.018849 0.998721
vn 0.0371682 0.0427627 0.998394
vn 0.0398478 -0.0120332 0.999133
vn -4.7666e-05 0.00185277 0.999998
vn -0.0214042 0.0119469 0.999699
vn 0.00951027 0.0119489 0.999883
vn -0.0147909 0.0176862 0.999734
vn -0.0795633 0.0458978 0.995773
vn 0.0994376 -0.0196401 0.99485
vn 0.0928074 -0.0273326 0.995309
vn 0.0350418 -0.114002 0.992862
vn -0.0217414 -0.0857279 0.996081
vn -0.0281126 -0.0270873 0.999238
vn -0.0517296 0.0365991 0.99799
vn -0.0725864 0.00703992 0.997337
vn -0.065584 -0.0814456 0.994518
vn 0.0318777 0.0510174 0.998189
vn -0.0254174 0.022601 0.999421
vn -0.030233 0.0330811 0.998995
vn -0.00873328 0.0282964 0.999561
vn 0.0240677 0.0532717 0.99829
vn 0.0564316 0.0549916 0.996891
vn 0.0772085 0.0578085 0.995338
vn 0.0699603 0.0125956 0.99747
vn -0.0709686 0.0428637 0.996557
vn -0.0133995 0.00804674 0.999878
vn 0.0144308 0.0629969 0.997909
vn 0.0336003 0.042517 0.998531
vn 0.0682564 0.0342974 0.997078
vn 0.0807926 0.0275519 0.99635
vn 0.0522832 0.0337681 0.998061
vn 0.0158957 0.0306877 0.999403
vn 0.0574592 0.0288079 0.997932
vn 0.0711068 0.0357926 0.996826
vn 0.037498 0.0277126 0.998912
vn -0.0199616 0.0166739 0.999662
vn -0.0455597 0.0278669 0.998573
vn -0.0418164 0.0343717 0.998534
vn 0.00730533 0.0644652 0.997893
vn -0.0514041 -0.0212881 0.998451
vn 0.025721 0.0409593 0.99883
vn 0.0250507 0.0493109 0.998469
vn -0.0455134 -0.0335664 0.9984
vn -0.0428717 -0.0220602 0.998837
vn 0.000657235 0.032237 0.99948
vn 0.00484764 0.0816593 0.996649
vn -0.0907023 -0.0253541 0.995555
vn -0.143123 -0.0761068 0.986774
vn 0.0163518 0.0105654 0.99981
vn -0.0212881 -0.00814081 0.99974
vn -0.0191694 -0.0178354 0.999657
vn 0.0382871 0.0367613 0.99859
vn 0.00962284 0.0255885 0.999626
vn -0.0219904 0.00831655 0.999724
vn -0.0832653 -0.0509743 0.995223
vn -0.0271791 0.0268363 0.99927
vn -0.00974973 0.00284162 0.999948
vn 0.0077531 -0.00517098 0.999957
vn 0.0214522 -0.00100922 0.999769
vn 0.0175775 0.0337044 0.999277
vn -0.0159803 -0.0117227 0.999804
vn -0.0205306 -0.0180859 0.999626
vn -0.00219444 -0.0137848 0.999903
vn 0.0013741 0.00957697 0.999953
vn -0.00397214 0.0171011 0.999846
vn -0.00074396 -0.00498076 0.999987
vn 0.0078133 -0.0121951 0.999895
vn -0.00121806 0.00812495 0.999966
vn 0.00852344 -0.00266902 0.99996
vn 0.0171517 -0.0116352 0.999785
vn 0.00825682 -0.0158984 0.99984
vn -0.00227483 -0.00949805 0.999952
vn -0.00799032 0.00588833 0.999951
vn -0.009583 0.0126296 0.999874
vn -0.00633471 -0.0189281 0.999801
vn -0.0431232 0.0220534 0.998826
vn -0.0225083 0.0280278 0.999354
vn 0.0215736 -0.0147795 0.999658
vn 0.0153927 -0.000614014 0.999881
vn 0.00844013 -0.046359 0.998889
vn -0.00231406 -0.0137179 0.999903
vn -0.0408055 0.0077928 0.999137
vn -0.0274698 0.0208795 0.999405
vn -0.00546807 -0.000475912 0.999985
vn 0.0174988 0.0366227 0.999176
vn 0.0143357 0.0313986 0.999404
vn 0.0588255 -0.0342328 0.997681
vn 0.0703095 -0.0667934 0.995287
vn -0.0466587 0.00216889 0.998909
vn -0.0441663 0.0139514 0.998927
vn -0.039046 0.0535114 0.997804
vn 0.0177845 0.0243264 0.999546
vn 0.0475335 0.0273209 0.998496
vn 0.0499289 0.0364992 0.998086
vn 0.0426306 0.0402952 0.998278
vn 0.0922776 -0.00429752 0.995724
f 100/100/100 4/4/4 13/13/13
f 44/44/44 3/3/3 21/21/21
f 44/44/44 19/19/19 20/20/20
f 60/60/60 19/19/19 52/52/52
f 60/60/60 17/17/17 18/18/18
f 76/76/76 17/17/17 68/68/68
f 84/84/84 16/16/16 76/76/76
f 84/84/84 14/14/14 15/15/15
f 100/100/100 14/14/14 92/92/92
f 11/11/11 93/93/93 85/85/85
f 93/93/93 86/86/86 85/85/85
f 94/94/94 87/87/87 86/86/86
f 87/87/87 96/96/96 88/88/88
f 96/96/96 89/89/89 88/88/88
f 97/97/97 90/90/90 89/89/89
f 90/90/90 99/99/99 91/91/91
f 91/91/91 100/100/100 92/92/92
f 10/10/10 85/85/85 77/77/77
f 77/77/77 86/86/86 78/78/78
f 78/78/78 87/87/87 79/79/79
f 79/79/79 88/88/88 80/80/80
f 88/88/88 81/81/81 80/80/80
f 81/81/81 90/90/90 82/82/82
f 82/82/82 91/91/91 83/83/83
f 91/91/91 84/84/84 83/83/83
f 10/10/10 69/69/69 9/9/9
f 69/69/69 78/78/78 70/70/70
f 70/70/70 79/79/79 71/71/71
f 79/79/79 72/72/72 71/71/71
f 72/72/72 81/81/81 73/73/73
f 73/73/73 82/82/82 74/74/74
f 82/82/82 75/75/75 74/74/74
f 83/83/83 76/76/76 75/75/75
f 9/9/9 61/61/61 8/8/8
f 69/69/69 62/62/62 61/61/61
f 62/62/62 71/71/71 63/63/63
f 63/63/63 72/72/72 64/64/64
f 72/72/72 65/65/65 64/64/64
f 65/65/65 74/74/74 66/66/66
f 66/66/66 75/75/75 67/67/67
f 67/67/67 76/76/76 68/68/68
f 8/8/8 53/53/53 7/7/7
f 53/53/53 62/62/62 54/54/54
f 54/54/54 63/63/63 55/55/55
f 55/55/55 64/64/64 56/56/56
f 64/64/64 57/57/57 56/56/56
f 57/57/57 66/66/66 58/58/58
f 58/58/58 67/67/67 59/59/59
f 59/59/59 68/68/68 60/60/60
f 6/6/6 53/53/53 45/45/45
f 45/45/45 54/54/54 46/46/46
f 54/54/54 47/47/47 46/46/46
f 55/55/55 48/48/48 47/47/47
f 56/56/56 49/49/49 48/48/48
f 49/49/49 58/58/58 50/50/50
f 58/58/58 51/51/51 50/50/50
f 59/59/59 52/52/52 51/51/51
f 6/6/6 37/37/37 5/5/5
f 45/45/45 38/38/38 37/37/37
f 46/46/46 39/39/39 38/38/38
f 39/39/39 48/48/48 40/40/40
f 40/40/40 49/49/49 41/41/41
f 41/41/41 50/50/50 42/42/42
f 50/50/50 43/43/43 42/42/42
f 51/51/51 44/44/44 43/43/43
f 5/5/5 28/28/28 1/1/1
f 28/28/28 38/38/38 27/27/27
f 27/27/27 39/39/39 26/26/26
f 26/26/26 40/40/40 25/25/25
f 40/40/40 24/24/24 25/25/25
f 41/41/41 23/23/23 24/24/24
f 23/23/23 43/43/43 22/22/22
f 43/43/43 21/21/21 22/22/22
f 2/2/2 93/93/93 12/12/12
f 93/93/93 30/30/30 94/94/94
f 30/30/30 95/95/95 94/94/94
f 31/31/31 96/96/96 95/95/95
f 32/32/32 97/97/97 96/96/96
f 33/33/33 98/98/98 97/97/97
f 98/98/98 35/35/35 99/99/99
f 99/99/99 36/36/36 100/100/100
f 100/100/100 36/36/36 4/4/4
f 44/44/44 20/20/20 3/3/3
f 44/44/44 52/52/52 19/19/19
f 60/60/60 18/18/18 19/19/19
f 60/60/60 68/68/68 17/17/17
f 76/76/76 16/16/16 17/17/17
f 84/84/84 15/15/15 16/16/16
f 84/84/84 92/92/92 14/14/14
f 100/100/100 13/13/13 14/14/14
f 11/11/11 12/12/12 93/93/93
f 93/93/93 94/94/94 86/86/86
f 94/94/94 95/95/95 87/87/87
f 87/87/87 95/95/95 96/96/96
f 96/96/96 97/97/97 89/89/89
f 97/97/97 98/98/98 90/90/90
f 90/90/90 98/98/98 99/99/99
f 91/91/91 99/99/99 100/100/100
f 10/10/10 11/11/11 85/85/85
f 77/77/77 85/85/85 86/86/86
f 78/78/78 86/86/86 87/87/87
f 79/79/79 87/87/87 88/88/88
f 88/88/88 89/89/89 81/81/81
f 81/81/81 89/89/89 90/90/90
f 82/82/82 90/90/90 91/91/91
f 91/91/91 92/92/92 84/84/84
f 10/10/10 77/77/77 69/69/69
f 69/69/69 77/77/77 78/78/78
f 70/70/70 78/78/78 79/79/79
f 79/79/79 80/80/80 72/72/72
f 72/72/72 80/80/80 81/81/81
f 73/73/73 81/81/81 82/82/82
f 82/82/82 83/83/83 75/75/75
f 83/83/83 84/84/84 76/76/76
f 9/9/9 69/69/69 61/61/61
f 69/69/69 70/70/70 62/62/62
f 62/62/62 70/70/70 71/71/71
f 63/63/63 71/71/71 72/72/72
f 72/72/72 73/73/73 65/65/65
f 65/65/65 73/73/73 74/74/74
f 66/66/66 74/74/74 75/75/75
f 67/67/67 75/75/75 76/76/76
f 8/8/8 61/61/61 53/53/53
f 53/53/53 61/61/61 62/62/62
f 54/54/54 62/62/62 63/63/63
f 55/55/55 63/63/63 64/64/64
f 64/64/64 65/65/65 57/57/57
f 57/57/57 65/65/65 66/66/66
f 58/58/58 66/66/66 67/67/67
f 59/59/59 67/67/67 68/68/68
f 6/6/6 7/7/7 53/53/53
f 45/45/45 53/53/53 54/54/54
f 54/54/54 55/55/55 47/47/47
f 55/55/55 56/56/56 48/48/48
f 56/56/56 57/57/57 49/49/49
f 49/49/49 57/57/57 58/58/58
f 58/58/58 59/59/59 51/51/51
f 59/59/59 60/60/60 52/52/52
f 6/6/6 45/45/45 37/37/37
f 45/45/45 46/46/46 38/38/38
f 46/46/46 47/47/47 39/39/39
f 39/39/39 47/47/47 48/48/48
f 40/40/40 48/48/48 49/49/49
f 41/41/41 49/49/49 50/50/50
f 50/50/50 51/51/51 43/43/43
f 51/51/51 52/52/52 44/44/44
f 5/5/5 37/37/37 28/28/28
f 28/28/28 37/37/37 38/38/38
f 27/27/27 38/38/38 39/39/39
f 26/26/26 39/39/39 40/40/40
f 40/40/40 41/41/41 24/24/24
f 41/41/41 42/42/42 23/23/23
f 23/23/23 42/42/42 43/43/43
f 43/43/43 44/44/44 21/21/21
f 2/2/2 29/29/29 93/93/93
f 93/93/93 29/29/29 30/30/30
f 30/30/30 31/31/31 95/95/95
f 31/31/31 32/32/32 96/96/96
f 32/32/32 33/33/33 97/97/97
f 33/33/33 34/34/34 98/98/98
f 98/98/98 34/34/34 35/35/35
f 99/99/99 35/35/35 36/36/36
