o GNATVCloth
v -5.09793 -4.98435 0.488877
v 5.02837 -4.99856 0.463853
v -5.01298 5.02105 0.004229
v 4.98702 5.02105 0.004229
v -3.98522 -5.03208 0.480165
v -2.86661 -5.0903 0.414878
v -1.73891 -5.12964 0.371883
v -0.607866 -5.1501 0.334116
v 0.527033 -5.15118 0.344231
v 1.65862 -5.12993 0.343928
v 2.78768 -5.09327 0.372838
v 3.91185 -5.05179 0.397737
v 3.84505 4.93918 0.159942
v 2.71759 4.87408 0.322309
v 1.59276 4.79664 0.431372
v 0.469434 4.74227 0.453684
v -0.603217 4.69733 0.358658
v -1.66354 4.74605 0.230261
v -2.77876 4.81554 0.330958
v -3.89116 4.8978 0.170323
v -5.00955 3.9072 0.0880817
v -5.01007 2.79069 0.104744
v -5.02049 1.67504 0.121804
v -5.03217 0.560208 0.155044
v -5.03767 -0.551578 0.235628
v -5.04432 -1.662 0.318986
v -5.05231 -2.76919 0.425372
v -5.06392 -3.87661 0.547191
v 5.00406 -3.88636 0.424048
v 4.99296 -2.78387 0.276834
v 4.9862 -1.67105 0.252246
v 4.98255 -0.557362 0.219528
v 4.97684 0.557387 0.189601
v 4.96743 1.67304 0.153367
v 4.96189 2.78904 0.111652
v 4.96064 3.90462 0.0511131
v -3.89463 -3.88199 0.440713
v -3.85436 -3.24026 0.345486
v -3.7084 -1.96538 0.156198
v -4.15226 -0.299172 0.129842
v -4.17204 0.717821 0.165006
v -4.15871 1.50274 0.173342
v -4.0873 2.79555 0.184611
v -3.94628 3.85198 -0.0720864
v -2.77096 -4.06876 0.319268
v -2.83731 -2.803 0.209686
v -2.72344 -2.21682 0.290289
v -2.79503 -0.671276 0.344422
v -2.8208 0.46119 0.33452
v -2.73256 1.50472 0.218834
v -2.87505 2.81673 -0.0738712
v -2.79123 3.48036 0.146525
v -1.70619 -4.31254 0.334795
v -1.54237 -3.00105 0.346467
v -1.9403 -1.70993 0.440713
v -1.91886 -0.911496 0.438051
v -1.56722 0.542378 0.0915556
v -2.01866 1.60394 -0.0114498
v -1.76757 2.62851 0.220115
v -1.59412 3.6116 0.264987
v -0.275565 -4.40932 0.358418
v -0.626475 -2.97437 0.363141
v -0.590586 -1.83701 0.383294
v -0.885594 -0.867421 0.300946
v -0.652582 0.340985 0.259747
v -0.419011 1.35727 0.290504
v -0.6181 2.54397 0.396489
v -0.78696 3.41716 0.334498
v 0.702603 -3.98167 0.351104
v 0.77705 -2.68764 0.317617
v 0.486093 -1.903 0.339723
v 0.571931 -0.571055 0.335461
v 0.542751 0.331605 0.31997
v 0.255696 1.42752 0.338267
v 0.483584 2.41404 0.385047
v 0.498742 3.64598 0.367303
v 1.92587 -3.72524 0.347461
v 1.64501 -2.92017 0.309554
v 1.79237 -1.99191 0.360508
v 1.95378 -0.454358 0.324704
v 1.9384 0.225309 0.287111
v 1.78845 1.48389 0.273381
v 1.3776 2.75193 0.333726
v 1.43223 3.59305 0.311556
v 2.77289 -3.97788 0.371548
v 3.0799 -2.88669 0.372755
v 2.92989 -2.01332 0.311011
v 2.69771 -0.554426 0.344687
v 2.94411 0.243947 0.306943
v 3.03792 1.53956 0.153303
v 2.74369 3.10483 0.194172
v 2.69948 3.46661 0.141837
v 3.90545 -4.0041 0.379723
v 3.64603 -2.75267 0.354506
v 3.85855 -1.70997 0.306466
v 3.79549 -0.755674 0.264709
v 3.85869 0.258588 0.250006
v 4.14823 1.78125 0.163876
v 4.11215 2.74054 0.0485735
v 4.00212 3.86553 0.0393283
vt 0.0001 0.0001
vt 0.9999 0.0001
vt 0.0001 0.9999
vt 0.9999 0.9999
vt 0.111189 0.0001
vt 0.222278 0.0001
vt 0.333367 0.0001
vt 0.444455 0.0001
vt 0.555544 0.0001
vt 0.666633 0.0001
vt 0.777722 0.0001
vt 0.888811 0.0001
vt 0.888811 0.9999
vt 0.777722 0.9999
vt 0.666633 0.9999
vt 0.555544 0.9999
vt 0.444455 0.9999
vt 0.333367 0.9999
vt 0.222278 0.9999
vt 0.111189 0.9999
vt 0.0001 0.888811
vt 0.0001 0.777722
vt 0.0001 0.666633
vt 0.0001 0.555544
vt 0.0001 0.444456
vt 0.0001 0.333367
vt 0.0001 0.222278
vt 0.0001 0.111189
vt 0.9999 0.111189
vt 0.9999 0.222278
vt 0.9999 0.333367
vt 0.9999 0.444456
vt 0.9999 0.555544
vt 0.9999 0.666633
vt 0.9999 0.777722
vt 0.9999 0.888811
vt 0.11727 0.115399
vt 0.120778 0.180369
vt 0.134636 0.309595
vt 0.088728 0.473895
vt 0.085886 0.575352
vt 0.086211 0.65375
vt 0.092207 0.78313
vt 0.106956 0.892282
vt 0.22987 0.102869
vt 0.221803 0.229552
vt 0.233521 0.288953
vt 0.225541 0.443179
vt 0.221596 0.556167
vt 0.227801 0.661237
vt 0.214896 0.795203
vt 0.22542 0.865181
vt 0.335524 0.082127
vt 0.351143 0.213907
vt 0.311934 0.342467
vt 0.313159 0.422214
vt 0.347791 0.572605
vt 0.301482 0.677733
vt 0.329031 0.783086
vt 0.344903 0.885466
vt 0.476837 0.074882
vt 0.441952 0.218774
vt 0.445749 0.333088
vt 0.416414 0.43099
vt 0.439746 0.552976
vt 0.463203 0.656843
vt 0.444252 0.77653
vt 0.426137 0.866051
vt 0.573419 0.117409
vt 0.581125 0.246686
vt 0.552512 0.326
vt 0.561075 0.459693
vt 0.558356 0.550596
vt 0.530299 0.662189
vt 0.553275 0.760113
vt 0.555478 0.888821
vt 0.694433 0.13996
vt 0.667048 0.221666
vt 0.681985 0.314267
vt 0.698218 0.467249
vt 0.696819 0.535952
vt 0.68253 0.662758
vt 0.642062 0.791726
vt 0.648523 0.877957
vt 0.778029 0.111667
vt 0.809426 0.219523
vt 0.794923 0.307783
vt 0.772028 0.454562
vt 0.796846 0.533374
vt 0.807262 0.663157
vt 0.778581 0.821037
vt 0.775122 0.858219
vt 0.890224 0.104741
vt 0.865679 0.23076
vt 0.887326 0.334104
vt 0.881307 0.429754
vt 0.887973 0.53063
vt 0.918106 0.681428
vt 0.915043 0.778027
vt 0.904815 0.89094
vn 0.00555603 -0.0527389 0.998593
vn -0.0519596 0.0257853 0.998316
vn -0.00702993 -0.0715247 0.997414
vn 0.063778 -0.0240561 0.997674
vn 0.0521048 0.00126117 0.998641
vn 0.0566876 0.0618575 0.996474
vn 0.0368604 0.0438392 0.998358
vn 0.00234436 -0.00315927 0.999992
vn 0.00073173 -0.01407 0.999901
vn -0.012302 -0.0013973 0.999923
vn -0.0185298 0.00630893 0.999808
vn -0.0413428 0.0169248 0.999002
vn 0.143956 -0.0896526 0.985515
vn 0.121611 -0.114261 0.985979
vn 0.0641761 -0.107328 0.99215
vn -0.00160991 -0.0867539 0.996229
vn -0.0785478 -0.0198504 0.996713
vn -0.013595 0.029762 0.999465
vn -0.0937712 -0.112794 0.989184
vn -0.160606 -0.214832 0.963355
vn 0.0748798 0.10203 0.991959
vn -0.0863001 0.0154724 0.996149
vn -0.0564572 0.00778311 0.998375
vn 0.0253676 0.0223112 0.999429
vn 0.0978633 0.0726901 0.992542
vn 0.123724 0.0728463 0.989639
vn 0.12248 0.111322 0.986208
vn 0.074011 0.0558193 0.995694
vn -0.0490844 0.0832983 0.995315
vn 0.0275105 0.055178 0.998097
vn 0.0422407 0.0328477 0.998567
vn 0.0386044 0.0229168 0.998992
vn 0.0349209 0.0361109 0.998737
vn 0.0174446 0.0350176 0.999234
vn -0.0465185 0.0692306 0.996515
vn -0.0345452 0.0344261 0.99881
vn 0.0982399 0.0833491 0.991666
vn 0.101905 0.124639 0.986955
vn -0.000743872 0.0350842 0.999384
vn -0.0182917 0.0146841 0.999725
vn -0.0582308 0.00951997 0.998258
vn -0.0465296 -0.00798127 0.998885
vn 0.042097 0.0973483 0.99436
vn -0.044522 -0.0505662 0.997728
vn 0.0403249 0.0797426 0.996
vn -0.0420871 0.0190616 0.998932
vn -0.141683 -0.0816713 0.986537
vn -0.139211 -0.0156441 0.990139
vn 0.0226801 0.0772097 0.996757
vn 0.101452 0.110835 0.988647
vn -0.0287502 -0.0021206 0.999584
vn -0.19282 -0.169038 0.966564
vn 0.00157939 0.0192521 0.999813
vn -0.0499113 -0.0332538 0.9982
vn -0.0278902 -0.0178582 0.999451
vn 0.0441031 0.0815197 0.995695
vn -0.00938869 0.110991 0.993777
vn -0.0123366 0.00859737 0.999887
vn -0.179175 -0.102791 0.978433
vn -0.0644648 -0.0234875 0.997644
vn -0.00506364 -0.013939 0.99989
vn 0.00822187 -0.00603584 0.999948
vn 0.0186974 0.0127013 0.999744
vn 0.0112228 0.0807931 0.996668
vn -0.0913029 0.0147627 0.995714
vn -0.117141 -0.0379687 0.992389
vn -0.0902916 -0.0453328 0.994883
vn -0.0777434 0.0108501 0.996914
vn 0.00855117 0.0108701 0.999904
vn 0.0110945 -0.0109447 0.999879
vn 0.0162709 -0.0128208 0.999785
vn -0.00772117 0.0286912 0.999559
vn -0.00174846 0.00237388 0.999996
vn -0.0200525 -0.027849 0.999411
vn 0.0180441 -0.0293871 0.999405
vn 0.00515899 -0.00845821 0.999951
vn -0.0203299 0.0164255 0.999658
vn -0.00725984 0.00808334 0.999941
vn 0.00411712 -0.0162934 0.999859
vn -0.00846656 0.0396243 0.999179
vn 0.0122077 0.0481877 0.998764
vn 0.0677783 -0.010595 0.997644
vn 0.076331 0.00340078 0.997077
vn 0.0871078 -0.0312808 0.995708
vn -0.0188316 0.00237895 0.99982
vn -0.0138106 0.0333572 0.999348
vn 0.0150716 0.0196976 0.999692
vn 0.0212053 0.0216087 0.999542
vn 0.0313271 0.0641507 0.997448
vn 0.0394205 0.0600589 0.997416
vn 0.0991216 0.0454884 0.994035
vn 0.10493 0.0127847 0.994397
vn -0.0138542 0.0325451 0.999374
vn 0.0293648 0.0426431 0.998659
vn 0.0263878 0.0389185 0.998894
vn 0.0451152 0.0219724 0.99874
vn 0.0371668 0.0454809 0.998274
vn -0.0103771 0.0690027 0.997562
vn 0.00168946 0.0514686 0.998673
vn 0.0749603 -0.0131965 0.997099
f 100/100/100 4/4/4 13/13/13
f 44/44/44 3/3/3 21/21/21
f 44/44/44 19/19/19 20/20/20
f 60/60/60 19/19/19 52/52/52
f 60/60/60 17/17/17 18/18/18
f 76/76/76 17/17/17 68/68/68
f 84/84/84 16/16/16 76/76/76
f 84/84/84 14/14/14 15/15/15
f 100/100/100 14/14/14 92/92/92
f 11/11/11 93/93/93 85/85/85
f 93/93/93 86/86/86 85/85/85
f 94/94/94 87/87/87 86/86/86
f 87/87/87 96/96/96 88/88/88
f 96/96/96 89/89/89 88/88/88
f 97/97/97 90/90/90 89/89/89
f 90/90/90 99/99/99 91/91/91
f 91/91/91 100/100/100 92/92/92
f 10/10/10 85/85/85 77/77/77
f 77/77/77 86/86/86 78/78/78
f 78/78/78 87/87/87 79/79/79
f 79/79/79 88/88/88 80/80/80
f 88/88/88 81/81/81 80/80/80
f 81/81/81 90/90/90 82/82/82
f 82/82/82 91/91/91 83/83/83
f 91/91/91 84/84/84 83/83/83
f 10/10/10 69/69/69 9/9/9
f 69/69/69 78/78/78 70/70/70
f 70/70/70 79/79/79 71/71/71
f 79/79/79 72/72/72 71/71/71
f 72/72/72 81/81/81 73/73/73
f 73/73/73 82/82/82 74/74/74
f 82/82/82 75/75/75 74/74/74
f 83/83/83 76/76/76 75/75/75
f 9/9/9 61/61/61 8/8/8
f 69/69/69 62/62/62 61/61/61
f 62/62/62 71/71/71 63/63/63
f 63/63/63 72/72/72 64/64/64
f 72/72/72 65/65/65 64/64/64
f 65/65/65 74/74/74 66/66/66
f 66/66/66 75/75/75 67/67/67
f 67/67/67 76/76/76 68/68/68
f 8/8/8 53/53/53 7/7/7
f 53/53/53 62/62/62 54/54/54
f 54/54/54 63/63/63 55/55/55
f 55/55/55 64/64/64 56/56/56
f 64/64/64 57/57/57 56/56/56
f 57/57/57 66/66/66 58/58/58
f 58/58/58 67/67/67 59/59/59
f 59/59/59 68/68/68 60/60/60
f 6/6/6 53/53/53 45/45/45
f 45/45/45 54/54/54 46/46/46
f 54/54/54 47/47/47 46/46/46
f 55/55/55 48/48/48 47/47/47
f 56/56/56 49/49/49 48/48/48
f 49/49/49 58/58/58 50/50/50
f 58/58/58 51/51/51 50/50/50
f 59/59/59 52/52/52 51/51/51
f 6/6/6 37/37/37 5/5/5
f 45/45/45 38/38/38 37/37/37
f 46/46/46 39/39/39 38/38/38
f 39/39/39 48/48/48 40/40/40
f 40/40/40 49/49/49 41/41/41
f 41/41/41 50/50/50 42/42/42
f 50/50/50 43/43/43 42/42/42
f 51/51/51 44/44/44 43/43/43
f 5/5/5 28/28/28 1/1/1
f 28/28/28 38/38/38 27/27/27
f 27/27/27 39/39/39 26/26/26
f 26/26/26 40/40/40 25/25/25
f 40/40/40 24/24/24 25/25/25
f 41/41/41 23/23/23 24/24/24
f 23/23/23 43/43/43 22/22/22
f 43/43/43 21/21/21 22/22/22
f 2/2/2 93/93/93 12/12/12
f 93/93/93 30/30/30 94/94/94
f 30/30/30 95/95/95 94/94/94
f 31/31/31 96/96/96 95/95/95
f 32/32/32 97/97/97 96/96/96
f 33/33/33 98/98/98 97/97/97
f 98/98/98 35/35/35 99/99/99
f 99/99/99 36/36/36 100/100/100
f 100/100/100 36/36/36 4/4/4
f 44/44/44 20/20/20 3/3/3
f 44/44/44 52/52/52 19/19/19
f 60/60/60 18/18/18 19/19/19
f 60/60/60 68/68/68 17/17/17
f 76/76/76 16/16/16 17/17/17
f 84/84/84 15/15/15 16/16/16
f 84/84/84 92/92/92 14/14/14
f 100/100/100 13/13/13 14/14/14
f 11/11/11 12/12/12 93/93/93
f 93/93/93 94/94/94 86/86/86
f 94/94/94 95/95/95 87/87/87
f 87/87/87 95/95/95 96/96/96
f 96/96/96 97/97/97 89/89/89
f 97/97/97 98/98/98 90/90/90
f 90/90/90 98/98/98 99/99/99
f 91/91/91 99/99/99 100/100/100
f 10/10/10 11/11/11 85/85/85
f 77/77/77 85/85/85 86/86/86
f 78/78/78 86/86/86 87/87/87
f 79/79/79 87/87/87 88/88/88
f 88/88/88 89/89/89 81/81/81
f 81/81/81 89/89/89 90/90/90
f 82/82/82 90/90/90 91/91/91
f 91/91/91 92/92/92 84/84/84
f 10/10/10 77/77/77 69/69/69
f 69/69/69 77/77/77 78/78/78
f 70/70/70 78/78/78 79/79/79
f 79/79/79 80/80/80 72/72/72
f 72/72/72 80/80/80 81/81/81
f 73/73/73 81/81/81 82/82/82
f 82/82/82 83/83/83 75/75/75
f 83/83/83 84/84/84 76/76/76
f 9/9/9 69/69/69 61/61/61
f 69/69/69 70/70/70 62/62/62
f 62/62/62 70/70/70 71/71/71
f 63/63/63 71/71/71 72/72/72
f 72/72/72 73/73/73 65/65/65
f 65/65/65 73/73/73 74/74/74
f 66/66/66 74/74/74 75/75/75
f 67/67/67 75/75/75 76/76/76
f 8/8/8 61/61/61 53/53/53
f 53/53/53 61/61/61 62/62/62
f 54/54/54 62/62/62 63/63/63
f 55/55/55 63/63/63 64/64/64
f 64/64/64 65/65/65 57/57/57
f 57/57/57 65/65/65 66/66/66
f 58/58/58 66/66/66 67/67/67
f 59/59/59 67/67/67 68/68/68
f 6/6/6 7/7/7 53/53/53
f 45/45/45 53/53/53 54/54/54
f 54/54/54 55/55/55 47/47/47
f 55/55/55 56/56/56 48/48/48
f 56/56/56 57/57/57 49/49/49
f 49/49/49 57/57/57 58/58/58
f 58/58/58 59/59/59 51/51/51
f 59/59/59 60/60/60 52/52/52
f 6/6/6 45/45/45 37/37/37
f 45/45/45 46/46/46 38/38/38
f 46/46/46 47/47/47 39/39/39
f 39/39/39 47/47/47 48/48/48
f 40/40/40 48/48/48 49/49/49
f 41/41/41 49/49/49 50/50/50
f 50/50/50 51/51/51 43/43/43
f 51/51/51 52/52/52 44/44/44
f 5/5/5 37/37/37 28/28/28
f 28/28/28 37/37/37 38/38/38
f 27/27/27 38/38/38 39/39/39
f 26/26/26 39/39/39 40/40/40
f 40/40/40 41/41/41 24/24/24
f 41/41/41 42/42/42 23/23/23
f 23/23/23 42/42/42 43/43/43
f 43/43/43 44/44/44 21/21/21
f 2/2/2 29/29/29 93/93/93
f 93/93/93 29/29/29 30/30/30
f 30/30/30 31/31/31 95/95/95
f 31/31/31 32/32/32 96/96/96
f 32/32/32 33/33/33 97/97/97
f 33/33/33 34/34/34 98/98/98
f 98/98/98 34/34/34 35/35/35
f 99/99/99 35/35/35 36/36/36
