o GNATVCloth
v -4.90309 -5.00239 0.309426
v 5.17375 -4.99244 0.331041
v -5.01298 5.02105 0.004229
v 4.98702 5.02105 0.004229
v -3.79115 -5.02358 0.257507
v -2.67389 -5.04866 0.241623
v -1.55402 -5.0771 0.188309
v -0.430205 -5.09577 0.169035
v 0.696382 -5.10289 0.203821
v 1.82201 -5.09135 0.185138
v 2.94493 -5.06281 0.188091
v 4.06315 -5.03068 0.248171
v 3.86054 4.93635 0.0553316
v 2.75045 4.85991 0.205482
v 1.63807 4.7495 0.269394
v 0.62865 4.71216 0.231336
v -0.484568 4.78504 0.216003
v -1.60302 4.84766 0.169084
v -2.73245 4.92668 0.140249
v -3.86804 4.96841 0.0897216
v -4.9768 3.90508 0.0366329
v -4.96039 2.78892 0.0703423
v -4.95048 1.67324 0.107201
v -4.93866 0.558099 0.139402
v -4.92453 -0.555351 0.194477
v -4.909 -1.66689 0.250312
v -4.89582 -2.78103 0.283057
v -4.89112 -3.89261 0.28546
v 5.15446 -3.88539 0.251094
v 5.13646 -2.77351 0.240701
v 5.11955 -1.66091 0.228313
v 5.1044 -0.549096 0.180406
v 5.08762 0.562859 0.129118
v 5.06811 1.67686 0.0897404
v 5.0458 2.79135 0.0540082
v 5.01737 3.90618 0.0286312
v -3.72026 -3.87574 0.211722
v -3.68662 -3.22695 0.206476
v -3.56092 -1.93876 0.152448
v -4.04178 -0.282766 0.156083
v -4.08156 0.731821 0.145323
v -4.08561 1.51832 0.122191
v -4.03767 2.81443 0.0813518
v -3.8995 3.89997 0.0185285
v -2.59053 -4.02717 0.177177
v -2.67662 -2.75868 0.151571
v -2.56489 -2.16556 0.119929
v -2.66666 -0.625349 0.209866
v -2.71926 0.504578 0.201319
v -2.66584 1.55369 0.160156
v -2.80481 2.89289 0.076922
v -2.71354 3.58362 0.171943
v -1.5274 -4.25892 0.179719
v -1.37509 -2.94355 0.165853
v -1.78589 -1.65207 0.223886
v -1.78395 -0.85371 0.21044
v -1.45384 0.64109 0.144667
v -1.92858 1.69769 0.1472
v -1.66862 2.74051 0.188629
v -1.51042 3.74274 0.18679
v -0.102621 -4.35167 0.153113
v -0.462127 -2.91047 0.158712
v -0.437366 -1.76734 0.194171
v -0.746415 -0.785379 0.163543
v -0.527955 0.430965 0.162338
v -0.306284 1.46312 0.18175
v -0.510379 2.65622 0.187648
v -0.695882 3.51954 0.177713
v 0.868467 -3.93263 0.180736
v 0.935498 -2.63898 0.163195
v 0.638068 -1.8489 0.170834
v 0.703802 -0.513154 0.149422
v 0.662145 0.395895 0.175021
v 0.368311 1.51343 0.185645
v 0.590544 2.48793 0.182345
v 0.601818 3.69582 0.167161
v 2.08513 -3.69104 0.18097
v 1.80124 -2.8819 0.159911
v 1.94079 -1.955 0.181554
v 2.07905 -0.421697 0.178246
v 2.05416 0.257064 0.15177
v 1.89407 1.52221 0.122198
v 1.48067 2.79634 0.211148
v 1.53852 3.58358 0.164939
v 2.93058 -3.95054 0.169235
v 3.2287 -2.86657 0.224248
v 3.07461 -1.99203 0.127465
v 2.8213 -0.533319 0.213707
v 3.05741 0.259967 0.199728
v 3.14612 1.55722 0.138242
v 2.84221 3.11746 0.150674
v 2.79419 3.47164 0.212595
v 4.06001 -3.98889 0.166345
v 3.79135 -2.73775 0.234032
v 3.99242 -1.69766 0.214672
v 3.92035 -0.745299 0.161485
v 3.97065 0.266213 0.160677
v 4.25298 1.78619 0.131663
v 4.20011 2.7524 0.0975706
v 4.0681 3.8761 0.0613534
vt 0.0001 0.0001
vt 0.9999 0.0001
vt 0.0001 0.9999
vt 0.9999 0.9999
vt 0.111189 0.0001
vt 0.222278 0.0001
vt 0.333367 0.0001
vt 0.444455 0.0001
vt 0.555544 0.0001
vt 0.666633 0.0001
vt 0.777722 0.0001
vt 0.888811 0.0001
vt 0.888811 0.9999
vt 0.777722 0.9999
vt 0.666633 0.9999
vt 0.555544 0.9999
vt 0.444455 0.9999
vt 0.333367 0.9999
vt 0.222278 0.9999
vt 0.111189 0.9999
vt 0.0001 0.888811
vt 0.0001 0.777722
vt 0.0001 0.666633
vt 0.0001 0.555544
vt 0.0001 0.444456
vt 0.0001 0.333367
vt 0.0001 0.222278
vt 0.0001 0.111189
vt 0.9999 0.111189
vt 0.9999 0.222278
vt 0.9999 0.333367
vt 0.9999 0.444456
vt 0.9999 0.555544
vt 0.9999 0.666633
vt 0.9999 0.777722
vt 0.9999 0.888811
vt 0.11727 0.115399
vt 0.120778 0.180369
vt 0.134636 0.309595
vt 0.088728 0.473895
vt 0.085886 0.575352
vt 0.086211 0.65375
vt 0.092207 0.78313
vt 0.106956 0.892282
vt 0.22987 0.102869
vt 0.221803 0.229552
vt 0.233521 0.288953
vt 0.225541 0.443179
vt 0.221596 0.556167
vt 0.227801 0.661237
vt 0.214896 0.795203
vt 0.22542 0.865181
vt 0.335524 0.082127
vt 0.351143 0.213907
vt 0.311934 0.342467
vt 0.313159 0.422214
vt 0.347791 0.572605
vt 0.301482 0.677733
vt 0.329031 0.783086
vt 0.344903 0.885466
vt 0.476837 0.074882
vt 0.441952 0.218774
vt 0.445749 0.333088
vt 0.416414 0.43099
vt 0.439746 0.552976
vt 0.463203 0.656843
vt 0.444252 0.77653
vt 0.426137 0.866051
vt 0.573419 0.117409
vt 0.581125 0.246686
vt 0.552512 0.326
vt 0.561075 0.459693
vt 0.558356 0.550596
vt 0.530299 0.662189
vt 0.553275 0.760113
vt 0.555478 0.888821
vt 0.694433 0.13996
vt 0.667048 0.221666
vt 0.681985 0.314267
vt 0.698218 0.467249
vt 0.696819 0.535952
vt 0.68253 0.662758
vt 0.642062 0.791726
vt 0.648523 0.877957
vt 0.778029 0.111667
vt 0.809426 0.219523
vt 0.794923 0.307783
vt 0.772028 0.454562
vt 0.796846 0.533374
vt 0.807262 0.663157
vt 0.778581 0.821037
vt 0.775122 0.858219
vt 0.890224 0.104741
vt 0.865679 0.23076
vt 0.887326 0.334104
vt 0.881307 0.429754
vt 0.887973 0.53063
vt 0.918106 0.681428
vt 0.915043 0.778027
vt 0.904815 0.89094
vn 0.0470316 0.0210592 0.998671
vn -0.0802379 0.0740846 0.994019
vn -0.0302168 -0.0172645 0.999394
vn 0.0389799 0.0185612 0.999068
vn 0.0414782 0.0319801 0.998627
vn 0.0281374 0.0424393 0.998703
vn 0.0325486 0.00943415 0.999426
vn 0.00206433 0.0192051 0.999813
vn -0.0178809 0.0258969 0.999505
vn 0.00663231 0.00942482 0.999934
vn -0.0185625 0.0373336 0.99913
vn -0.0662898 0.0779317 0.994752
vn 0.0881307 0.0229087 0.995845
vn 0.0692073 -0.0126857 0.997522
vn 0.016079 -0.0905832 0.995759
vn -0.0191207 -0.0705725 0.997323
vn -0.0109565 -0.0282685 0.99954
vn -0.0328769 0.0132593 0.999372
vn -0.0524023 -0.00150758 0.998625
vn -0.0619966 -0.0645392 0.995988
vn 0.00707546 0.0383975 0.999238
vn -0.0127941 0.0314501 0.999423
vn -0.0123084 0.0307212 0.999452
vn 0.00211781 0.0295811 0.99956
vn 0.0279402 0.0501379 0.998351
vn 0.0609046 0.0335946 0.997578
vn 0.0727842 0.02235 0.997097
vn 0.0590593 0.0160617 0.998125
vn -0.0808313 0.039211 0.995956
vn -0.0253433 -0.00423558 0.99967
vn -0.016458 0.036132 0.999211
vn -0.00779035 0.0302238 0.999513
vn 0.0321668 0.0323794 0.998958
vn 0.05597 0.0346814 0.99783
vn 0.0519178 0.0316854 0.998149
vn 0.0391118 0.027635 0.998853
vn 0.0420363 0.029194 0.998689
vn 0.052379 0.0182596 0.99846
vn 0.0410464 0.013807 0.999062
vn 0.000484779 0.018704 0.999825
vn -0.0225045 0.0245913 0.999444
vn -0.0196618 0.0307511 0.999334
vn -0.00687638 0.0432514 0.999041
vn -0.0530751 -0.0112696 0.998527
vn 0.0194059 0.0302788 0.999353
vn 0.0223039 0.0360381 0.999102
vn -0.0233823 -0.0188025 0.99955
vn -0.0243862 -0.0175764 0.999548
vn -0.00232363 0.0219964 0.999755
vn -0.0123755 0.0443343 0.99894
vn -0.0612273 -0.0112526 0.99806
vn -0.0846019 -0.0373366 0.995715
vn 0.0174098 0.0163963 0.999714
vn -0.00883569 -0.00689268 0.999937
vn -0.0140228 -0.017051 0.999756
vn 0.0265823 0.0221128 0.999402
vn 0.010538 0.0106205 0.999888
vn -0.0127711 0.0061105 0.9999
vn -0.0359025 -0.0265208 0.999003
vn -0.0133604 0.00385566 0.999903
vn -0.0112002 0.0128139 0.999855
vn 0.00330724 -0.00833509 0.99996
vn 0.0164721 -0.00253419 0.999861
vn 0.0179562 0.0210256 0.999618
vn -0.00957685 -0.0115826 0.999887
vn -0.0123954 -0.00881883 0.999884
vn -0.000929959 -0.00249545 0.999996
vn 0.00690174 -0.00764207 0.999947
vn -0.00734386 0.0124773 0.999895
vn -0.00231953 -0.00384358 0.99999
vn 0.00493952 -0.00469127 0.999977
vn -0.00159645 0.00610303 0.99998
vn 0.0104526 -0.00827569 0.999911
vn 0.0123098 -0.00603078 0.999906
vn 0.000370327 -0.00869566 0.999962
vn -0.00355718 -0.00880122 0.999955
vn -0.00771094 -0.0024721 0.999967
vn -0.00743447 0.0160569 0.999843
vn 0.000820192 -0.0129592 0.999916
vn -0.033391 0.0214915 0.999211
vn -0.0202113 0.0254222 0.999472
vn 0.0179477 -0.0130023 0.999754
vn 0.0105434 0.000760338 0.999944
vn -0.00337234 -0.0436975 0.999039
vn 0.00266644 -0.0133907 0.999907
vn -0.0229481 0.00979914 0.999689
vn -0.024853 0.0225411 0.999437
vn -0.000892849 -0.00411474 0.999991
vn 0.00751999 0.0257817 0.999639
vn 0.00118932 0.0228354 0.999739
vn 0.0391886 -0.0424106 0.998331
vn 0.047204 -0.079335 0.99573
vn -0.0377569 0.0112604 0.999224
vn -0.032765 0.0102266 0.999411
vn -0.0495024 0.0343357 0.998184
vn -0.00493889 0.0136889 0.999894
vn 0.0185469 0.0207169 0.999613
vn 0.0311298 0.0292995 0.999086
vn 0.0367006 0.0284769 0.998921
vn 0.0817469 0.000415207 0.996653
f 100/100/100 4/4/4 13/13/13
f 44/44/44 3/3/3 21/21/21
f 44/44/44 19/19/19 20/20/20
f 60/60/60 19/19/19 52/52/52
f 60/60/60 17/17/17 18/18/18
f 76/76/76 17/17/17 68/68/68
f 84/84/84 16/16/16 76/76/76
f 84/84/84 14/14/14 15/15/15
f 100/100/100 14/14/14 92/92/92
f 11/11/11 93/93/93 85/85/85
f 93/93/93 86/86/86 85/85/85
f 94/94/94 87/87/87 86/86/86
f 87/87/87 96/96/96 88/88/88
f 96/96/96 89/89/89 88/88/88
f 97/97/97 90/90/90 89/89/89
f 90/90/90 99/99/99 91/91/91
f 91/91/91 100/100/100 92/92/92
f 10/10/10 85/85/85 77/77/77
f 77/77/77 86/86/86 78/78/78
f 78/78/78 87/87/87 79/79/79
f 79/79/79 88/88/88 80/80/80
f 88/88/88 81/81/81 80/80/80
f 81/81/81 90/90/90 82/82/82
f 82/82/82 91/91/91 83/83/83
f 91/91/91 84/84/84 83/83/83
f 10/10/10 69/69/69 9/9/9
f 69/69/69 78/78/78 70/70/70
f 70/70/70 79/79/79 71/71/71
f 79/79/79 72/72/72 71/71/71
f 72/72/72 81/81/81 73/73/73
f 73/73/73 82/82/82 74/74/74
f 82/82/82 75/75/75 74/74/74
f 83/83/83 76/76/76 75/75/75
f 9/9/9 61/61/61 8/8/8
f 69/69/69 62/62/62 61/61/61
f 62/62/62 71/71/71 63/63/63
f 63/63/63 72/72/72 64/64/64
f 72/72/72 65/65/65 64/64/64
f 65/65/65 74/74/74 66/66/66
f 66/66/66 75/75/75 67/67/67
f 67/67/67 76/76/76 68/68/68
f 8/8/8 53/53/53 7/7/7
f 53/53/53 62/62/62 54/54/54
f 54/54/54 63/63/63 55/55/55
f 55/55/55 64/64/64 56/56/56
f 64/64/64 57/57/57 56/56/56
f 57/57/57 66/66/66 58/58/58
f 58/58/58 67/67/67 59/59/59
f 59/59/59 68/68/68 60/60/60
f 6/6/6 53/53/53 45/45/45
f 45/45/45 54/54/54 46/46/46
f 54/54/54 47/47/47 46/46/46
f 55/55/55 48/48/48 47/47/47
f 56/56/56 49/49/49 48/48/48
f 49/49/49 58/58/58 50/50/50
f 58/58/58 51/51/51 50/50/50
f 59/59/59 52/52/52 51/51/51
f 6/6/6 37/37/37 5/5/5
f 45/45/45 38/38/38 37/37/37
f 46/46/46 39/39/39 38/38/38
f 39/39/39 48/48/48 40/40/40
f 40/40/40 49/49/49 41/41/41
f 41/41/41 50/50/50 42/42/42
f 50/50/50 43/43/43 42/42/42
f 51/51/51 44/44/44 43/43/43
f 5/5/5 28/28/28 1/1/1
f 28/28/28 38/38/38 27/27/27
f 27/27/27 39/39/39 26/26/26
f 26/26/26 40/40/40 25/25/25
f 40/40/40 24/24/24 25/25/25
f 41/41/41 23/23/23 24/24/24
f 23/23/23 43/43/43 22/22/22
f 43/43/43 21/21/21 22/22/22
f 2/2/2 93/93/93 12/12/12
f 93/93/93 30/30/30 94/94/94
f 30/30/30 95/95/95 94/94/94
f 31/31/31 96/96/96 95/95/95
f 32/32/32 97/97/97 96/96/96
f 33/33/33 98/98/98 97/97/97
f 98/98/98 35/35/35 99/99/99
f 99/99/99 36/36/36 100/100/100
f 100/100/100 36/36/36 4/4/4
f 44/44/44 20/20/20 3/3/3
f 44/44/44 52/52/52 19/19/19
f 60/60/60 18/18/18 19/19/19
f 60/60/60 68/68/68 17/17/17
f 76/76/76 16/16/16 17/17/17
f 84/84/84 15/15/15 16/16/16
f 84/84/84 92/92/92 14/14/14
f 100/100/100 13/13/13 14/14/14
f 11/11/11 12/12/12 93/93/93
f 93/93/93 94/94/94 86/86/86
f 94/94/94 95/95/95 87/87/87
f 87/87/87 95/95/95 96/96/96
f 96/96/96 97/97/97 89/89/89
f 97/97/97 98/98/98 90/90/90
f 90/90/90 98/98/98 99/99/99
f 91/91/91 99/99/99 100/100/100
f 10/10/10 11/11/11 85/85/85
f 77/77/77 85/85/85 86/86/86
f 78/78/78 86/86/86 87/87/87
f 79/79/79 87/87/87 88/88/88
f 88/88/88 89/89/89 81/81/81
f 81/81/81 89/89/89 90/90/90
f 82/82/82 90/90/90 91/91/91
f 91/91/91 92/92/92 84/84/84
f 10/10/10 77/77/77 69/69/69
f 69/69/69 77/77/77 78/78/78
f 70/70/70 78/78/78 79/79/79
f 79/79/79 80/80/80 72/72/72
f 72/72/72 80/80/80 81/81/81
f 73/73/73 81/81/81 82/82/82
f 82/82/82 83/83/83 75/75/75
f 83/83/83 84/84/84 76/76/76
f 9/9/9 69/69/69 61/61/61
f 69/69/69 70/70/70 62/62/62
f 62/62/62 70/70/70 71/71/71
f 63/63/63 71/71/71 72/72/72
f 72/72/72 73/73/73 65/65/65
f 65/65/65 73/73/73 74/74/74
f 66/66/66 74/74/74 75/75/75
f 67/67/67 75/75/75 76/76/76
f 8/8/8 61/61/61 53/53/53
f 53/53/53 61/61/61 62/62/62
f 54/54/54 62/62/62 63/63/63
f 55/55/55 63/63/63 64/64/64
f 64/64/64 65/65/65 57/57/57
f 57/57/57 65/65/65 66/66/66
f 58/58/58 66/66/66 67/67/67
f 59/59/59 67/67/67 68/68/68
f 6/6/6 7/7/7 53/53/53
f 45/45/45 53/53/53 54/54/54
f 54/54/54 55/55/55 47/47/47
f 55/55/55 56/56/56 48/48/48
f 56/56/56 57/57/57 49/49/49
f 49/49/49 57/57/57 58/58/58
f 58/58/58 59/59/59 51/51/51
f 59/59/59 60/60/60 52/52/52
f 6/6/6 45/45/45 37/37/37
f 45/45/45 46/46/46 38/38/38
f 46/46/46 47/47/47 39/39/39
f 39/39/39 47/47/47 48/48/48
f 40/40/40 48/48/48 49/49/49
f 41/41/41 49/49/49 50/50/50
f 50/50/50 51/51/51 43/43/43
f 51/51/51 52/52/52 44/44/44
f 5/5/5 37/37/37 28/28/28
f 28/28/28 37/37/37 38/38/38
f 27/27/27 38/38/38 39/39/39
f 26/26/26 39/39/39 40/40/40
f 40/40/40 41/41/41 24/24/24
f 41/41/41 42/42/42 23/23/23
f 23/23/23 42/42/42 43/43/43
f 43/43/43 44/44/44 21/21/21
f 2/2/2 29/29/29 93/93/93
f 93/93/93 29/29/29 30/30/30
f 30/30/30 31/31/31 95/95/95
f 31/31/31 32/32/32 96/96/96
f 32/32/32 33/33/33 97/97/97
f 33/33/33 34/34/34 98/98/98
f 98/98/98 34/34/34 35/35/35
f 99/99/99 35/35/35 36/36/36
