o GNATVCloth
v -4.99797 -5.00343 0.0924447
v 5.07048 -5.00772 0.0873578
v -5.01298 5.02105 0.004229
v 4.98702 5.02105 0.004229
v -3.8858 -5.03526 0.0729787
v -2.76631 -5.07156 0.0500067
v -1.64379 -5.06972 0.0636308
v -0.526258 -5.0679 0.0643718
v 0.591275 -5.08299 0.0153053
v 1.71265 -5.09033 0.0424832
v 2.83412 -5.07075 0.0656972
v 3.95406 -5.04115 0.0934541
v 3.86369 4.9448 0.0777652
v 2.76906 4.87443 0.0526528
v 1.69699 4.86787 0.0777397
v 0.586197 4.86571 0.062997
v -0.521954 4.85905 0.0406931
v -1.63048 4.87534 0.0912788
v -2.74998 4.92027 0.0515643
v -3.87577 4.95898 0.0688755
v -4.99408 3.90498 0.0420293
v -4.98326 2.78862 0.0650866
v -4.98002 1.67276 0.0663171
v -4.96867 0.557548 0.0699405
v -4.96125 -0.556309 0.0788501
v -4.9617 -1.66913 0.0708897
v -4.96598 -2.78276 0.0632519
v -4.97653 -3.89379 0.058909
v 5.04832 -3.89675 0.0891135
v 5.03955 -2.78511 0.0465379
v 5.03725 -1.67227 0.051295
v 5.03697 -0.559051 0.0657091
v 5.03591 0.555695 0.077452
v 5.02994 1.67175 0.0767343
v 5.01981 2.78827 0.0643067
v 5.0079 3.9048 0.0386687
v -3.80754 -3.88878 0.0574608
v -3.76735 -3.24005 0.0455131
v -3.6317 -1.95323 0.0295928
v -4.09194 -0.293888 0.0373963
v -4.1229 0.72448 0.0395415
v -4.12156 1.50866 0.0561794
v -4.06661 2.80348 0.0421389
v -3.91931 3.89107 0.0339636
v -2.68 -4.04912 0.0502886
v -2.75674 -2.77924 0.0506695
v -2.64152 -2.19024 0.0438285
v -2.72183 -0.643295 0.0468779
v -2.76418 0.488899 0.0401525
v -2.70277 1.53552 0.0432379
v -2.83399 2.88308 0.044628
v -2.72622 3.57392 0.0475108
v -1.61928 -4.27343 0.0342661
v -1.46487 -2.96373 0.0282991
v -1.85783 -1.6748 0.0596919
v -1.84508 -0.876842 0.060181
v -1.50005 0.617201 0.043829
v -1.96438 1.67714 0.0401938
v -1.68819 2.71978 0.0421711
v -1.52616 3.73651 0.0402082
v -0.199535 -4.35072 0.0463605
v -0.554277 -2.91684 0.0365783
v -0.517042 -1.7802 0.0433059
v -0.811871 -0.805653 0.0422784
v -0.578542 0.408075 0.0441397
v -0.341863 1.44645 0.0462275
v -0.530818 2.63742 0.0418267
v -0.711816 3.53138 0.049502
v 0.768472 -3.9229 0.0344685
v 0.842158 -2.63365 0.0551367
v 0.552399 -1.85732 0.0583527
v 0.638755 -0.521081 0.0303726
v 0.611603 0.38251 0.0467881
v 0.331637 1.49559 0.0507823
v 0.562507 2.47372 0.0505372
v 0.586864 3.75882 0.0460818
v 1.98261 -3.69392 0.0546758
v 1.70488 -2.88379 0.0452645
v 1.85208 -1.96045 0.0392859
v 2.01457 -0.425108 0.0574404
v 2.00133 0.253934 0.0402107
v 1.85901 1.51532 0.030611
v 1.45252 2.7951 0.0519388
v 1.51169 3.64735 0.0388756
v 2.82413 -3.96042 0.0494462
v 3.13173 -2.87404 0.050437
v 2.98532 -1.99685 0.03703
v 2.75492 -0.536203 0.0423958
v 3.00484 0.259118 0.0480342
v 3.11027 1.55882 0.0353227
v 2.81273 3.11899 0.0419075
v 2.77396 3.48871 0.0629069
v 3.95141 -3.99802 0.0321179
v 3.69531 -2.74358 0.059908
v 3.91038 -1.7057 0.0539269
v 3.85035 -0.749036 0.0304643
v 3.91881 0.26269 0.0467711
v 4.21807 1.78266 0.043547
v 4.17571 2.74866 0.0439614
v 4.05606 3.87163 0.0379774
vt 0.0001 0.0001
vt 0.9999 0.0001
vt 0.0001 0.9999
vt 0.9999 0.9999
vt 0.111189 0.0001
vt 0.222278 0.0001
vt 0.333367 0.0001
vt 0.444455 0.0001
vt 0.555544 0.0001
vt 0.666633 0.0001
vt 0.777722 0.0001
vt 0.888811 0.0001
vt 0.888811 0.9999
vt 0.777722 0.9999
vt 0.666633 0.9999
vt 0.555544 0.9999
vt 0.444455 0.9999
vt 0.333367 0.9999
vt 0.222278 0.9999
vt 0.111189 0.9999
vt 0.0001 0.888811
vt 0.0001 0.777722
vt 0.0001 0.666633
vt 0.0001 0.555544
vt 0.0001 0.444456
vt 0.0001 0.333367
vt 0.0001 0.222278
vt 0.0001 0.111189
vt 0.9999 0.111189
vt 0.9999 0.222278
vt 0.9999 0.333367
vt 0.9999 0.444456
vt 0.9999 0.555544
vt 0.9999 0.666633
vt 0.9999 0.777722
vt 0.9999 0.888811
vt 0.11727 0.115399
vt 0.120778 0.180369
vt 0.134636 0.309595
vt 0.088728 0.473895
vt 0.085886 0.575352
vt 0.086211 0.65375
vt 0.092207 0.78313
vt 0.106956 0.892282
vt 0.22987 0.102869
vt 0.221803 0.229552
vt 0.233521 0.288953
vt 0.225541 0.443179
vt 0.221596 0.556167
vt 0.227801 0.661237
vt 0.214896 0.795203
vt 0.22542 0.865181
vt 0.335524 0.082127
vt 0.351143 0.213907
vt 0.311934 0.342467
vt 0.313159 0.422214
vt 0.347791 0.572605
vt 0.301482 0.677733
vt 0.329031 0.783086
vt 0.344903 0.885466
vt 0.476837 0.074882
vt 0.441952 0.218774
vt 0.445749 0.333088
vt 0.416414 0.43099
vt 0.439746 0.552976
vt 0.463203 0.656843
vt 0.444252 0.77653
vt 0.426137 0.866051
vt 0.573419 0.117409
vt 0.581125 0.246686
vt 0.552512 0.326
vt 0.561075 0.459693
vt 0.558356 0.550596
vt 0.530299 0.662189
vt 0.553275 0.760113
vt 0.555478 0.888821
vt 0.694433 0.13996
vt 0.667048 0.221666
vt 0.681985 0.314267
vt 0.698218 0.467249
vt 0.696819 0.535952
vt 0.68253 0.662758
vt 0.642062 0.791726
vt 0.648523 0.877957
vt 0.778029 0.111667
vt 0.809426 0.219523
vt 0.794923 0.307783
vt 0.772028 0.454562
vt 0.796846 0.533374
vt 0.807262 0.663157
vt 0.778581 0.821037
vt 0.775122 0.858219
vt 0.890224 0.104741
vt 0.865679 0.23076
vt 0.887326 0.334104
vt 0.881307 0.429754
vt 0.887973 0.53063
vt 0.918106 0.681428
vt 0.915043 0.778027
vt 0.904815 0.89094
vn 0.0183464 0.0298491 0.999386
vn -0.0239988 0.0280735 0.999318
vn -0.025244 0.00187294 0.99968
vn 0.0326276 0.00291917 0.999463
vn 0.013479 0.0184702 0.999739
vn 0.007438 0.0117527 0.999903
vn -0.00645583 0.0370494 0.999293
vn 0.012082 0.0234184 0.999653
vn 0.0135447 -0.0091516 0.999866
vn -0.0143936 -0.00335968 0.999891
vn -0.0104596 0.0292884 0.999516
vn -0.0112959 0.0586667 0.998214
vn 0.023367 -0.0328564 0.999187
vn 0.000598657 -0.0153265 0.999882
vn 0.00519525 -0.0326136 0.999454
vn -0.00909626 -0.0201302 0.999756
vn 0.00425985 -0.0103892 0.999937
vn 0.00380787 -0.0444515 0.999004
vn -0.00721619 -0.0218973 0.999734
vn -0.0220898 -0.0317666 0.999251
vn 0.0134048 0.0204533 0.999701
vn 0.0248462 0.0110293 0.99963
vn 0.0204358 -0.00154683 0.99979
vn 0.0388204 0.00362993 0.99924
vn 0.0474622 0.000563299 0.998873
vn 0.0370877 -0.00332679 0.999306
vn 0.0205231 -0.000204002 0.999789
vn 0.0084874 0.014404 0.99986
vn -0.0535017 0.0175879 0.998413
vn -0.00837794 0.00423758 0.999956
vn -0.0078511 0.00246725 0.999966
vn -0.026569 -0.0125863 0.999568
vn -0.0316703 -0.000731583 0.999498
vn -0.0400802 0.00559436 0.999181
vn -0.0295198 0.0106549 0.999507
vn -0.00928821 0.0195748 0.999765
vn 0.00767921 0.0121924 0.999896
vn 0.00432744 0.00925562 0.999948
vn 0.00487211 0.00357762 0.999982
vn 0.0211414 0.000107414 0.999776
vn 0.0144735 -0.00748079 0.999867
vn 0.00999145 -0.00543331 0.999935
vn 0.0107867 0.0079872 0.99991
vn -0.00790779 -0.0029575 0.999964
vn 0.00969926 0.00306747 0.999948
vn 0.00173691 0.00710113 0.999973
vn -0.00589865 -0.00186261 0.999981
vn -0.0127571 -0.00033434 0.999919
vn -0.00334949 0.0024101 0.999991
vn 0.00408926 -0.00312032 0.999987
vn -0.00147858 -0.000511695 0.999999
vn -0.00204664 -0.00237119 0.999995
vn -0.00101031 0.0162892 0.999867
vn 0.0057734 -0.00500876 0.999971
vn 0.000573786 -0.00764533 0.999971
vn 0.00022253 0.00462357 0.999989
vn 0.000791415 0.00328125 0.999994
vn 0.000159617 -0.000142485 1
vn -0.000231444 -0.00213108 0.999998
vn 2.21701e-05 -0.0132004 0.999913
vn 0.0116133 0.00546285 0.999918
vn -0.00775405 -0.00223652 0.999967
vn -0.000841555 -0.000376501 1
vn 0.0104275 0.00162157 0.999944
vn -0.000704886 -0.00489503 0.999988
vn -0.0047815 0.00119178 0.999988
vn -0.00240847 -0.0015151 0.999996
vn -0.00294393 0.000315142 0.999996
vn -0.00452672 -0.00795251 0.999958
vn 0.00249313 -0.00690107 0.999973
vn -0.00150225 0.00581921 0.999982
vn -0.00247629 0.00256868 0.999994
vn 0.00336653 -0.00650468 0.999973
vn 0.00210183 -0.00118192 0.999997
vn -0.00125653 -0.00112914 0.999999
vn -0.00132716 -0.00144765 0.999998
vn -0.00565179 -0.000326411 0.999984
vn -0.000584503 0.00412067 0.999991
vn 0.00672775 0.000697978 0.999977
vn 0.000512098 0.00680425 0.999977
vn -0.00118601 0.00769519 0.99997
vn 0.00555254 -0.00305316 0.99998
vn 0.00500613 0.000907039 0.999987
vn -0.00212946 -0.0147051 0.99989
vn 0.00376055 0.00243893 0.99999
vn -0.00291932 0.000822619 0.999995
vn -0.00795492 0.00864804 0.999931
vn 0.00933664 -0.00131202 0.999956
vn -0.00077313 -0.00213613 0.999997
vn -0.00462343 0.00293823 0.999985
vn 0.00237802 -0.0164412 0.999862
vn 0.0019669 -0.0244322 0.9997
vn -0.0125534 0.0146855 0.999813
vn -0.0065661 -0.00375385 0.999971
vn -0.00656403 0.0114321 0.999913
vn -0.00828376 -0.00111603 0.999965
vn -0.0145043 -0.00328151 0.999889
vn -0.024864 0.00343771 0.999685
vn -0.0100377 0.00437544 0.99994
vn 0.0137765 -0.00998161 0.999855
f 100/100/100 4/4/4 13/13/13
f 44/44/44 3/3/3 21/21/21
f 44/44/44 19/19/19 20/20/20
f 60/60/60 19/19/19 52/52/52
f 60/60/60 17/17/17 18/18/18
f 76/76/76 17/17/17 68/68/68
f 84/84/84 16/16/16 76/76/76
f 84/84/84 14/14/14 15/15/15
f 100/100/100 14/14/14 92/92/92
f 11/11/11 93/93/93 85/85/85
f 93/93/93 86/86/86 85/85/85
f 94/94/94 87/87/87 86/86/86
f 87/87/87 96/96/96 88/88/88
f 96/96/96 89/89/89 88/88/88
f 97/97/97 90/90/90 89/89/89
f 90/90/90 99/99/99 91/91/91
f 91/91/91 100/100/100 92/92/92
f 10/10/10 85/85/85 77/77/77
f 77/77/77 86/86/86 78/78/78
f 78/78/78 87/87/87 79/79/79
f 79/79/79 88/88/88 80/80/80
f 88/88/88 81/81/81 80/80/80
f 81/81/81 90/90/90 82/82/82
f 82/82/82 91/91/91 83/83/83
f 91/91/91 84/84/84 83/83/83
f 10/10/10 69/69/69 9/9/9
f 69/69/69 78/78/78 70/70/70
f 70/70/70 79/79/79 71/71/71
f 79/79/79 72/72/72 71/71/71
f 72/72/72 81/81/81 73/73/73
f 73/73/73 82/82/82 74/74/74
f 82/82/82 75/75/75 74/74/74
f 83/83/83 76/76/76 75/75/75
f 9/9/9 61/61/61 8/8/8
f 69/69/69 62/62/62 61/61/61
f 62/62/62 71/71/71 63/63/63
f 63/63/63 72/72/72 64/64/64
f 72/72/72 65/65/65 64/64/64
f 65/65/65 74/74/74 66/66/66
f 66/66/66 75/75/75 67/67/67
f 67/67/67 76/76/76 68/68/68
f 8/8/8 53/53/53 7/7/7
f 53/53/53 62/62/62 54/54/54
f 54/54/54 63/63/63 55/55/55
f 55/55/55 64/64/64 56/56/56
f 64/64/64 57/57/57 56/56/56
f 57/57/57 66/66/66 58/58/58
f 58/58/58 67/67/67 59/59/59
f 59/59/59 68/68/68 60/60/60
f 6/6/6 53/53/53 45/45/45
f 45/45/45 54/54/54 46/46/46
f 54/54/54 47/47/47 46/46/46
f 55/55/55 48/48/48 47/47/47
f 56/56/56 49/49/49 48/48/48
f 49/49/49 58/58/58 50/50/50
f 58/58/58 51/51/51 50/50/50
f 59/59/59 52/52/52 51/51/51
f 6/6/6 37/37/37 5/5/5
f 45/45/45 38/38/38 37/37/37
f 46/46/46 39/39/39 38/38/38
f 39/39/39 48/48/48 40/40/40
f 40/40/40 49/49/49 41/41/41
f 41/41/41 50/50/50 42/42/42
f 50/50/50 43/43/43 42/42/42
f 51/51/51 44/44/44 43/43/43
f 5/5/5 28/28/28 1/1/1
f 28/28/28 38/38/38 27/27/27
f 27/27/27 39/39/39 26/26/26
f 26/26/26 40/40/40 25/25/25
f 40/40/40 24/24/24 25/25/25
f 41/41/41 23/23/23 24/24/24
f 23/23/23 43/43/43 22/22/22
f 43/43/43 21/21/21 22/22/22
f 2/2/2 93/93/93 12/12/12
f 93/93/93 30/30/30 94/94/94
f 30/30/30 95/95/95 94/94/94
f 31/31/31 96/96/96 95/95/95
f 32/32/32 97/97/97 96/96/96
f 33/33/33 98/98/98 97/97/97
f 98/98/98 35/35/35 99/99/99
f 99/99/99 36/36/36 100/100/100
f 100/100/100 36/36/36 4/4/4
f 44/44/44 20/20/20 3/3/3
f 44/44/44 52/52/52 19/19/19
f 60/60/60 18/18/18 19/19/19
f 60/60/60 68/68/68 17/17/17
f 76/76/76 16/16/16 17/17/17
f 84/84/84 15/15/15 16/16/16
f 84/84/84 92/92/92 14/14/14
f 100/100/100 13/13/13 14/14/14
f 11/11/11 12/12/12 93/93/93
f 93/93/93 94/94/94 86/86/86
f 94/94/94 95/95/95 87/87/87
f 87/87/87 95/95/95 96/96/96
f 96/96/96 97/97/97 89/89/89
f 97/97/97 98/98/98 90/90/90
f 90/90/90 98/98/98 99/99/99
f 91/91/91 99/99/99 100/100/100
f 10/10/10 11/11/11 85/85/85
f 77/77/77 85/85/85 86/86/86
f 78/78/78 86/86/86 87/87/87
f 79/79/79 87/87/87 88/88/88
f 88/88/88 89/89/89 81/81/81
f 81/81/81 89/89/89 90/90/90
f 82/82/82 90/90/90 91/91/91
f 91/91/91 92/92/92 84/84/84
f 10/10/10 77/77/77 69/69/69
f 69/69/69 77/77/77 78/78/78
f 70/70/70 78/78/78 79/79/79
f 79/79/79 80/80/80 72/72/72
f 72/72/72 80/80/80 81/81/81
f 73/73/73 81/81/81 82/82/82
f 82/82/82 83/83/83 75/75/75
f 83/83/83 84/84/84 76/76/76
f 9/9/9 69/69/69 61/61/61
f 69/69/69 70/70/70 62/62/62
f 62/62/62 70/70/70 71/71/71
f 63/63/63 71/71/71 72/72/72
f 72/72/72 73/73/73 65/65/65
f 65/65/65 73/73/73 74/74/74
f 66/66/66 74/74/74 75/75/75
f 67/67/67 75/75/75 76/76/76
f 8/8/8 61/61/61 53/53/53
f 53/53/53 61/61/61 62/62/62
f 54/54/54 62/62/62 63/63/63
f 55/55/55 63/63/63 64/64/64
f 64/64/64 65/65/65 57/57/57
f 57/57/57 65/65/65 66/66/66
f 58/58/58 66/66/66 67/67/67
f 59/59/59 67/67/67 68/68/68
f 6/6/6 7/7/7 53/53/53
f 45/45/45 53/53/53 54/54/54
f 54/54/54 55/55/55 47/47/47
f 55/55/55 56/56/56 48/48/48
f 56/56/56 57/57/57 49/49/49
f 49/49/49 57/57/57 58/58/58
f 58/58/58 59/59/59 51/51/51
f 59/59/59 60/60/60 52/52/52
f 6/6/6 45/45/45 37/37/37
f 45/45/45 46/46/46 38/38/38
f 46/46/46 47/47/47 39/39/39
f 39/39/39 47/47/47 48/48/48
f 40/40/40 48/48/48 49/49/49
f 41/41/41 49/49/49 50/50/50
f 50/50/50 51/51/51 43/43/43
f 51/51/51 52/52/52 44/44/44
f 5/5/5 37/37/37 28/28/28
f 28/28/28 37/37/37 38/38/38
f 27/27/27 38/38/38 39/39/39
f 26/26/26 39/39/39 40/40/40
f 40/40/40 41/41/41 24/24/24
f 41/41/41 42/42/42 23/23/23
f 23/23/23 42/42/42 43/43/43
f 43/43/43 44/44/44 21/21/21
f 2/2/2 29/29/29 93/93/93
f 93/93/93 29/29/29 30/30/30
f 30/30/30 31/31/31 95/95/95
f 31/31/31 32/32/32 96/96/96
f 32/32/32 33/33/33 97/97/97
f 33/33/33 34/34/34 98/98/98
f 98/98/98 34/34/34 35/35/35
f 99/99/99 35/35/35 36/36/36
