o GNATVCloth
v -5.01279 -4.98137 0.0065034
v 4.99069 -4.98259 0.00780849
v -5.01298 5.02105 0.004229
v 4.98702 5.02105 0.004229
v -3.89961 -4.98329 0.00821932
v -2.78896 -4.98311 0.0056996
v -1.67573 -4.98195 0.00467984
v -0.568 -4.9822 0.00625066
v 0.544935 -4.98264 0.0043003
v 1.65539 -4.98369 0.00469647
v 2.76701 -4.98313 0.00668857
v 3.87927 -4.98255 0.00975179
v 3.87957 5.01551 0.00683176
v 2.76574 5.01588 0.00634382
v 1.65664 5.01701 0.00771633
v 0.546183 5.01686 0.00693241
v -0.567095 5.01639 0.00456272
v -1.67582 5.0171 0.00735949
v -2.7887 5.01608 0.00625481
v -3.89689 5.01592 0.00694808
v -5.01088 3.91004 0.00875265
v -5.00904 2.79547 0.00791671
v -5.01067 1.6841 0.00477823
v -5.01018 0.573237 0.00799411
v -5.01034 -0.539112 0.00763791
v -5.01044 -1.64971 0.00687395
v -5.01115 -2.76158 0.00597966
v -5.01145 -3.87213 0.00543398
v 4.99056 -3.87163 0.0093009
v 4.98995 -2.76157 0.00465015
v 4.99051 -1.64979 0.00592452
v 4.98884 -0.538708 0.00644071
v 4.99114 0.572316 0.0071305
v 4.98952 1.68467 0.00541379
v 4.99113 2.7956 0.00493046
v 4.98869 3.91005 0.0064426
v -3.8396 -3.83037 0.00722176
v -3.80473 -3.18096 0.00591013
v -3.6653 -1.8895 0.00445765
v -4.12515 -0.245828 0.00565851
v -4.153 0.770012 0.00496208
v -4.15148 1.5538 0.00656087
v -4.08993 2.84748 0.00560456
v -3.9426 3.9401 0.00573953
v -2.71195 -3.95627 0.00649149
v -2.79403 -2.68886 0.00584728
v -2.67687 -2.09458 0.00560169
v -2.75651 -0.552826 0.00619999
v -2.79645 0.577248 0.00590821
v -2.73441 1.62831 0.00559031
v -2.86333 2.96869 0.00593709
v -2.75788 3.66842 0.00544092
v -1.65722 -4.16379 0.00546248
v -1.50034 -2.84582 0.00438752
v -1.89269 -1.55956 0.00610846
v -1.87876 -0.762041 0.00651669
v -1.53408 0.741463 0.00641147
v -1.99721 1.79324 0.00591998
v -1.72206 2.84781 0.00533339
v -1.56254 3.87126 0.0049675
v -0.244019 -4.23646 0.00557257
v -0.593565 -2.79761 0.00536501
v -0.555377 -1.65408 0.00584966
v -0.846536 -0.674736 0.00542026
v -0.614487 0.545921 0.00563148
v -0.378766 1.58477 0.00600044
v -0.569762 2.78132 0.00569997
v -0.750098 3.67722 0.00588208
v 0.722915 -3.81125 0.00492649
v 0.800271 -2.5177 0.00667742
v 0.514001 -1.7248 0.00734312
v 0.598897 -0.388064 0.00482797
v 0.573713 0.521319 0.00577965
v 0.291092 1.63811 0.00593106
v 0.520915 2.61756 0.00603431
v 0.543369 3.9049 0.00652847
v 1.93275 -3.58535 0.00558582
v 1.65927 -2.76759 0.0059094
v 1.80784 -1.84229 0.00569237
v 1.97193 -0.311549 0.00691928
v 1.95673 0.375613 0.00572943
v 1.81374 1.64254 0.00502083
v 1.40813 2.9336 0.00702218
v 1.47383 3.7964 0.00492894
v 2.77079 -3.86811 0.0058646
v 3.08282 -2.78866 0.0066026
v 2.9373 -1.90637 0.00503179
v 2.70826 -0.438213 0.00550254
v 2.95734 0.350289 0.0051868
v 3.06171 1.64682 0.00552326
v 2.77452 3.22667 0.00556602
v 2.74117 3.59855 0.00803136
v 3.8915 -3.93751 0.00504382
v 3.64627 -2.67652 0.00719571
v 3.8625 -1.64305 0.00682338
v 3.80233 -0.686473 0.0051642
v 3.86919 0.322022 0.0060642
v 4.17065 1.83072 0.00590149
v 4.14102 2.79662 0.00586952
v 4.03739 3.9268 0.00587308
vt 0.0001 0.0001
vt 0.9999 0.0001
vt 0.0001 0.9999
vt 0.9999 0.9999
vt 0.111189 0.0001
vt 0.222278 0.0001
vt 0.333367 0.0001
vt 0.444455 0.0001
vt 0.555544 0.0001
vt 0.666633 0.0001
vt 0.777722 0.0001
vt 0.888811 0.0001
vt 0.888811 0.9999
vt 0.777722 0.9999
vt 0.666633 0.9999
vt 0.555544 0.9999
vt 0.444455 0.9999
vt 0.333367 0.9999
vt 0.222278 0.9999
vt 0.111189 0.9999
vt 0.0001 0.888811
vt 0.0001 0.777722
vt 0.0001 0.666633
vt 0.0001 0.555544
vt 0.0001 0.444456
vt 0.0001 0.333367
vt 0.0001 0.222278
vt 0.0001 0.111189
vt 0.9999 0.111189
vt 0.9999 0.222278
vt 0.9999 0.333367
vt 0.9999 0.444456
vt 0.9999 0.555544
vt 0.9999 0.666633
vt 0.9999 0.777722
vt 0.9999 0.888811
vt 0.11727 0.115399
vt 0.120778 0.180369
vt 0.134636 0.309595
vt 0.088728 0.473895
vt 0.085886 0.575352
vt 0.086211 0.65375
vt 0.092207 0.78313
vt 0.106956 0.892282
vt 0.22987 0.102869
vt 0.221803 0.229552
vt 0.233521 0.288953
vt 0.225541 0.443179
vt 0.221596 0.556167
vt 0.227801 0.661237
vt 0.214896 0.795203
vt 0.22542 0.865181
vt 0.335524 0.082127
vt 0.351143 0.213907
vt 0.311934 0.342467
vt 0.313159 0.422214
vt 0.347791 0.572605
vt 0.301482 0.677733
vt 0.329031 0.783086
vt 0.344903 0.885466
vt 0.476837 0.074882
vt 0.441952 0.218774
vt 0.445749 0.333088
vt 0.416414 0.43099
vt 0.439746 0.552976
vt 0.463203 0.656843
vt 0.444252 0.77653
vt 0.426137 0.866051
vt 0.573419 0.117409
vt 0.581125 0.246686
vt 0.552512 0.326
vt 0.561075 0.459693
vt 0.558356 0.550596
vt 0.530299 0.662189
vt 0.553275 0.760113
vt 0.555478 0.888821
vt 0.694433 0.13996
vt 0.667048 0.221666
vt 0.681985 0.314267
vt 0.698218 0.467249
vt 0.696819 0.535952
vt 0.68253 0.662758
vt 0.642062 0.791726
vt 0.648523 0.877957
vt 0.778029 0.111667
vt 0.809426 0.219523
vt 0.794923 0.307783
vt 0.772028 0.454562
vt 0.796846 0.533374
vt 0.807262 0.663157
vt 0.778581 0.821037
vt 0.775122 0.858219
vt 0.890224 0.104741
vt 0.865679 0.23076
vt 0.887326 0.334104
vt 0.881307 0.429754
vt 0.887973 0.53063
vt 0.918106 0.681428
vt 0.915043 0.778027
vt 0.904815 0.89094
vn -0.0015398 0.000965957 0.999998
vn -0.00102208 0.0015704 0.999998
vn 0.000132425 0.00152854 0.999999
vn 0.00089466 0.000726058 0.999999
vn -0.000276858 0.000886511 1
vn 0.00113859 -0.000468801 0.999999
vn -0.000250601 -0.000950921 1
vn 0.000101262 4.86507e-05 1
vn 0.000787737 -0.000338006 1
vn -0.000776298 -0.00020443 1
vn -0.00125695 0.00200622 0.999997
vn -0.00050386 0.00451091 0.99999
vn 0.000957267 -0.000741801 0.999999
vn -2.24636e-05 -0.000254003 1
vn 0.000264672 -0.00232323 0.999997
vn -0.000385948 -0.000967769 0.999999
vn -0.00028978 -3.40778e-06 1
vn 0.000765351 -0.00201186 0.999998
vn 6.14771e-05 -0.00113233 0.999999
vn -0.000907585 -0.00108481 0.999999
vn 0.00269946 0.000941726 0.999996
vn 0.00261675 -0.00178684 0.999995
vn 0.000303987 -0.000283745 1
vn 0.00285779 0.00111776 0.999995
vn 0.00240321 -0.000504331 0.999997
vn 0.00195679 -0.000577826 0.999998
vn 0.000657314 -7.28988e-05 1
vn -0.00120324 0.000881673 0.999999
vn -0.00395858 0.00142177 0.999991
vn 9.16545e-05 0.000412571 1
vn 0.000193247 5.75148e-05 1
vn -0.000934268 -0.000637738 0.999999
vn -0.000320381 0.000412347 1
vn 0.000772018 0.00098933 0.999999
vn 0.000960242 -0.000284454 1
vn -2.00977e-05 0.00019301 1
vn 0.000106668 0.000991881 1
vn -0.00018425 0.00105702 0.999999
vn 6.4058e-05 6.83632e-05 1
vn 0.00119698 -6.47703e-05 0.999999
vn 0.000564739 0.000101184 1
vn -0.000723039 -0.000634061 1
vn 0.000894522 -0.000415626 1
vn 0.000568276 0.000194364 1
vn 0.000727761 0.000349036 1
vn 0.000125783 0.000613041 1
vn -0.000255554 -0.000265571 1
vn -0.000556643 -0.000294535 1
vn -0.000467177 0.000325581 1
vn -5.91997e-05 -0.000206076 1
vn 0.000113459 0.00016825 1
vn 0.000390133 7.56173e-05 1
vn 2.72066e-05 -7.29146e-06 1
vn 0.000228072 -8.00683e-05 1
vn 0.000134824 -0.000585481 1
vn 0.000196275 -0.000159556 1
vn 0.000291729 -1.76975e-05 1
vn -0.000150535 0.000295858 1
vn -1.78923e-05 0.000367237 1
vn 8.44231e-05 -0.000449266 1
vn 0.000632993 0.000158542 1
vn -0.00064727 -0.000260548 1
vn -0.000518381 0.000154297 1
vn 0.000659969 -4.2419e-05 1
vn 0.00030635 -0.000451448 1
vn 0.000117234 -1.87697e-05 1
vn -0.000286667 2.39577e-05 1
vn -0.000667364 0.00042649 1
vn 1.21347e-05 -0.000667596 1
vn 0.00025056 -0.000820132 1
vn -0.00014606 0.000376859 1
vn -0.00029846 0.000371883 1
vn 6.90682e-05 -0.000336256 1
vn 0.000263291 -0.000183198 1
vn -0.00023561 -0.000437312 1
vn -0.000135961 0.000227336 1
vn -0.000481494 -0.000544614 1
vn 0.000100588 -9.29635e-05 1
vn 0.000718433 -3.4044e-05 1
vn 0.00021981 0.000461259 1
vn 0.000187618 0.000490952 1
vn 0.000184451 -0.000299121 1
vn 0.00047221 0.000288959 1
vn -0.000149141 -0.00086735 1
vn -0.000272555 -9.35611e-05 1
vn -0.000473516 -9.27302e-05 1
vn -0.000709972 0.000754809 0.999999
vn 0.000953753 0.000131222 1
vn -9.99321e-05 -0.000160256 1
vn -0.000314355 8.90704e-06 1
vn 0.000103567 -0.00174755 0.999999
vn -0.0002873 -0.00272139 0.999996
vn -0.000793345 0.00106591 0.999999
vn -0.000103178 -0.000172166 1
vn -0.000213141 0.000600252 1
vn -0.000562817 0.000178398 1
vn -0.000855314 -0.000326991 1
vn 0.00015213 0.000426973 1
vn 0.000131483 -0.000236469 1
vn 0.000737231 -0.000677641 1
f 100/100/100 4/4/4 13/13/13
f 44/44/44 3/3/3 21/21/21
f 44/44/44 19/19/19 20/20/20
f 60/60/60 19/19/19 52/52/52
f 60/60/60 17/17/17 18/18/18
f 76/76/76 17/17/17 68/68/68
f 84/84/84 16/16/16 76/76/76
f 84/84/84 14/14/14 15/15/15
f 100/100/100 14/14/14 92/92/92
f 11/11/11 93/93/93 85/85/85
f 93/93/93 86/86/86 85/85/85
f 94/94/94 87/87/87 86/86/86
f 87/87/87 96/96/96 88/88/88
f 96/96/96 89/89/89 88/88/88
f 97/97/97 90/90/90 89/89/89
f 90/90/90 99/99/99 91/91/91
f 91/91/91 100/100/100 92/92/92
f 10/10/10 85/85/85 77/77/77
f 77/77/77 86/86/86 78/78/78
f 78/78/78 87/87/87 79/79/79
f 79/79/79 88/88/88 80/80/80
f 88/88/88 81/81/81 80/80/80
f 81/81/81 90/90/90 82/82/82
f 82/82/82 91/91/91 83/83/83
f 91/91/91 84/84/84 83/83/83
f 10/10/10 69/69/69 9/9/9
f 69/69/69 78/78/78 70/70/70
f 70/70/70 79/79/79 71/71/71
f 79/79/79 72/72/72 71/71/71
f 72/72/72 81/81/81 73/73/73
f 73/73/73 82/82/82 74/74/74
f 82/82/82 75/75/75 74/74/74
f 83/83/83 76/76/76 75/75/75
f 9/9/9 61/61/61 8/8/8
f 69/69/69 62/62/62 61/61/61
f 62/62/62 71/71/71 63/63/63
f 63/63/63 72/72/72 64/64/64
f 72/72/72 65/65/65 64/64/64
f 65/65/65 74/74/74 66/66/66
f 66/66/66 75/75/75 67/67/67
f 67/67/67 76/76/76 68/68/68
f 8/8/8 53/53/53 7/7/7
f 53/53/53 62/62/62 54/54/54
f 54/54/54 63/63/63 55/55/55
f 55/55/55 64/64/64 56/56/56
f 64/64/64 57/57/57 56/56/56
f 57/57/57 66/66/66 58/58/58
f 58/58/58 67/67/67 59/59/59
f 59/59/59 68/68/68 60/60/60
f 6/6/6 53/53/53 45/45/45
f 45/45/45 54/54/54 46/46/46
f 54/54/54 47/47/47 46/46/46
f 55/55/55 48/48/48 47/47/47
f 56/56/56 49/49/49 48/48/48
f 49/49/49 58/58/58 50/50/50
f 58/58/58 51/51/51 50/50/50
f 59/59/59 52/52/52 51/51/51
f 6/6/6 37/37/37 5/5/5
f 45/45/45 38/38/38 37/37/37
f 46/46/46 39/39/39 38/38/38
f 39/39/39 48/48/48 40/40/40
f 40/40/40 49/49/49 41/41/41
f 41/41/41 50/50/50 42/42/42
f 50/50/50 43/43/43 42/42/42
f 51/51/51 44/44/44 43/43/43
f 5/5/5 28/28/28 1/1/1
f 28/28/28 38/38/38 27/27/27
f 27/27/27 39/39/39 26/26/26
f 26/26/26 40/40/40 25/25/25
f 40/40/40 24/24/24 25/25/25
f 41/41/41 23/23/23 24/24/24
f 23/23/23 43/43/43 22/22/22
f 43/43/43 21/21/21 22/22/22
f 2/2/2 93/93/93 12/12/12
f 93/93/93 30/30/30 94/94/94
f 30/30/30 95/95/95 94/94/94
f 31/31/31 96/96/96 95/95/95
f 32/32/32 97/97/97 96/96/96
f 33/33/33 98/98/98 97/97/97
f 98/98/98 35/35/35 99/99/99
f 99/99/99 36/36/36 100/100/100
f 100/100/100 36/36/36 4/4/4
f 44/44/44 20/20/20 3/3/3
f 44/44/44 52/52/52 19/19/19
f 60/60/60 18/18/18 19/19/19
f 60/60/60 68/68/68 17/17/17
f 76/76/76 16/16/16 17/17/17
f 84/84/84 15/15/15 16/16/16
f 84/84/84 92/92/92 14/14/14
f 100/100/100 13/13/13 14/14/14
f 11/11/11 12/12/12 93/93/93
f 93/93/93 94/94/94 86/86/86
f 94/94/94 95/95/95 87/87/87
f 87/87/87 95/95/95 96/96/96
f 96/96/96 97/97/97 89/89/89
f 97/97/97 98/98/98 90/90/90
f 90/90/90 98/98/98 99/99/99
f 91/91/91 99/99/99 100/100/100
f 10/10/10 11/11/11 85/85/85
f 77/77/77 85/85/85 86/86/86
f 78/78/78 86/86/86 87/87/87
f 79/79/79 87/87/87 88/88/88
f 88/88/88 89/89/89 81/81/81
f 81/81/81 89/89/89 90/90/90
f 82/82/82 90/90/90 91/91/91
f 91/91/91 92/92/92 84/84/84
f 10/10/10 77/77/77 69/69/69
f 69/69/69 77/77/77 78/78/78
f 70/70/70 78/78/78 79/79/79
f 79/79/79 80/80/80 72/72/72
f 72/72/72 80/80/80 81/81/81
f 73/73/73 81/81/81 82/82/82
f 82/82/82 83/83/83 75/75/75
f 83/83/83 84/84/84 76/76/76
f 9/9/9 69/69/69 61/61/61
f 69/69/69 70/70/70 62/62/62
f 62/62/62 70/70/70 71/71/71
f 63/63/63 71/71/71 72/72/72
f 72/72/72 73/73/73 65/65/65
f 65/65/65 73/73/73 74/74/74
f 66/66/66 74/74/74 75/75/75
f 67/67/67 75/75/75 76/76/76
f 8/8/8 61/61/61 53/53/53
f 53/53/53 61/61/61 62/62/62
f 54/54/54 62/62/62 63/63/63
f 55/55/55 63/63/63 64/64/64
f 64/64/64 65/65/65 57/57/57
f 57/57/57 65/65/65 66/66/66
f 58/58/58 66/66/66 67/67/67
f 59/59/59 67/67/67 68/68/68
f 6/6/6 7/7/7 53/53/53
f 45/45/45 53/53/53 54/54/54
f 54/54/54 55/55/55 47/47/47
f 55/55/55 56/56/56 48/48/48
f 56/56/56 57/57/57 49/49/49
f 49/49/49 57/57/57 58/58/58
f 58/58/58 59/59/59 51/51/51
f 59/59/59 60/60/60 52/52/52
f 6/6/6 45/45/45 37/37/37
f 45/45/45 46/46/46 38/38/38
f 46/46/46 47/47/47 39/39/39
f 39/39/39 47/47/47 48/48/48
f 40/40/40 48/48/48 49/49/49
f 41/41/41 49/49/49 50/50/50
f 50/50/50 51/51/51 43/43/43
f 51/51/51 52/52/52 44/44/44
f 5/5/5 37/37/37 28/28/28
f 28/28/28 37/37/37 38/38/38
f 27/27/27 38/38/38 39/39/39
f 26/26/26 39/39/39 40/40/40
f 40/40/40 41/41/41 24/24/24
f 41/41/41 42/42/42 23/23/23
f 23/23/23 42/42/42 43/43/43
f 43/43/43 44/44/44 21/21/21
f 2/2/2 29/29/29 93/93/93
f 93/93/93 29/29/29 30/30/30
f 30/30/30 31/31/31 95/95/95
f 31/31/31 32/32/32 96/96/96
f 32/32/32 33/33/33 97/97/97
f 33/33/33 34/34/34 98/98/98
f 98/98/98 34/34/34 35/35/35
f 99/99/99 35/35/35 36/36/36
