o GNATVCloth
v -5.00082 -4.97161 0.614437
v 5.05459 -4.98426 0.39884
v -5.01298 5.02105 0.004229
v 4.98702 5.02105 0.004229
v -3.89646 -5.00893 0.473651
v -2.7823 -5.03031 0.475156
v -1.66349 -5.05206 0.437549
v -0.542297 -5.06764 0.441541
v 0.580592 -5.07214 0.429749
v 1.70271 -5.06601 0.419398
v 2.82257 -5.04186 0.420676
v 3.93896 -5.01261 0.341406
v 3.87221 4.89188 0.21253
v 2.76684 4.78773 0.420253
v 1.64788 4.73117 0.352245
v 0.534732 4.69313 0.365445
v -0.568534 4.68231 0.559471
v -1.68858 4.71967 0.536398
v -2.81276 4.75097 0.504793
v -3.91178 4.86382 0.266935
v -4.97262 3.90889 0.0851642
v -4.96161 2.79455 0.126238
v -4.96003 1.68108 0.169177
v -4.96167 0.567892 0.203283
v -4.96534 -0.544435 0.244749
v -4.97535 -1.65626 0.287267
v -4.98565 -2.76706 0.357683
v -4.99379 -3.87581 0.444337
v 5.03233 -3.8783 0.327091
v 5.01403 -2.77365 0.206031
v 5.00101 -1.66165 0.175852
v 4.99306 -0.5462 0.18281
v 4.98442 0.566345 0.177479
v 4.97537 1.67936 0.153018
v 4.97179 2.79363 0.125647
v 4.96375 3.90737 0.0694207
v -3.82062 -3.86115 0.418408
v -3.78184 -3.21593 0.336806
v -3.63107 -1.92749 0.274079
v -4.0789 -0.272961 0.211529
v -4.10368 0.742336 0.185764
v -4.09845 1.52594 0.137721
v -4.03765 2.82007 0.0797468
v -3.9257 3.88176 -0.173413
v -2.69666 -4.01661 0.331293
v -2.76514 -2.74707 0.296207
v -2.64276 -2.15692 0.284774
v -2.71227 -0.612414 0.272479
v -2.74272 0.518997 0.225085
v -2.68332 1.54547 0.00305891
v -2.84944 2.85915 -0.273156
v -2.76844 3.49018 0.0291001
v -1.63715 -4.24326 0.374382
v -1.47435 -2.9277 0.410105
v -1.86106 -1.6387 0.380298
v -1.83983 -0.844534 0.306512
v -1.52627 0.589319 -0.156744
v -1.99224 1.6431 -0.289109
v -1.71443 2.67396 -0.110949
v -1.57558 3.60825 0.25688
v -0.215208 -4.33194 0.395556
v -0.563858 -2.89677 0.391698
v -0.523848 -1.75958 0.28661
v -0.820555 -0.802119 0.132394
v -0.600674 0.394372 -0.0647355
v -0.371888 1.41972 -0.109442
v -0.573719 2.55845 0.0928556
v -0.755782 3.40465 0.269107
v 0.755206 -3.91996 0.341726
v 0.82957 -2.6272 0.33714
v 0.541046 -1.84508 0.226625
v 0.624762 -0.546129 -0.0691505
v 0.591943 0.362276 -0.0651546
v 0.301674 1.47489 -0.0768024
v 0.526516 2.42385 0.0519252
v 0.551726 3.60833 0.343303
v 1.96631 -3.66577 0.303322
v 1.68833 -2.8618 0.418205
v 1.82953 -1.9329 0.379344
v 1.98905 -0.423442 0.118843
v 1.98737 0.235886 -0.0703873
v 1.82921 1.49923 -0.11813
v 1.40777 2.76493 -0.0309546
v 1.4943 3.50915 0.306563
v 2.80896 -3.93216 0.30008
v 3.11088 -2.84476 0.296217
v 2.96188 -1.96994 0.38885
v 2.71693 -0.512776 0.279081
v 2.96243 0.274225 0.16959
v 3.07938 1.54864 -0.091536
v 2.76436 3.11302 -0.192471
v 2.74675 3.43285 -0.00360229
v 3.93495 -3.97347 0.336759
v 3.67315 -2.72028 0.305392
v 3.88146 -1.68349 0.304365
v 3.8145 -0.726539 0.322638
v 3.86954 0.284213 0.284065
v 4.15541 1.79929 0.156677
v 4.13304 2.75297 -0.00713034
v 4.03002 3.87333 -0.149554
vt 0.0001 0.0001
vt 0.9999 0.0001
vt 0.0001 0.9999
vt 0.9999 0.9999
vt 0.111189 0.0001
vt 0.222278 0.0001
vt 0.333367 0.0001
vt 0.444455 0.0001
vt 0.555544 0.0001
vt 0.666633 0.0001
vt 0.777722 0.0001
vt 0.888811 0.0001
vt 0.888811 0.9999
vt 0.777722 0.9999
vt 0.666633 0.9999
vt 0.555544 0.9999
vt 0.444455 0.9999
vt 0.333367 0.9999
vt 0.222278 0.9999
vt 0.111189 0.9999
vt 0.0001 0.888811
vt 0.0001 0.777722
vt 0.0001 0.666633
vt 0.0001 0.555544
vt 0.0001 0.444456
vt 0.0001 0.333367
vt 0.0001 0.222278
vt 0.0001 0.111189
vt 0.9999 0.111189
vt 0.9999 0.222278
vt 0.9999 0.333367
vt 0.9999 0.444456
vt 0.9999 0.555544
vt 0.9999 0.666633
vt 0.9999 0.777722
vt 0.9999 0.888811
vt 0.11727 0.115399
vt 0.120778 0.180369
vt 0.134636 0.309595
vt 0.088728 0.473895
vt 0.085886 0.575352
vt 0.086211 0.65375
vt 0.092207 0.78313
vt 0.106956 0.892282
vt 0.22987 0.102869
vt 0.221803 0.229552
vt 0.233521 0.288953
vt 0.225541 0.443179
vt 0.221596 0.556167
vt 0.227801 0.661237
vt 0.214896 0.795203
vt 0.22542 0.865181
vt 0.335524 0.082127
vt 0.351143 0.213907
vt 0.311934 0.342467
vt 0.313159 0.422214
vt 0.347791 0.572605
vt 0.301482 0.677733
vt 0.329031 0.783086
vt 0.344903 0.885466
vt 0.476837 0.074882
vt 0.441952 0.218774
vt 0.445749 0.333088
vt 0.416414 0.43099
vt 0.439746 0.552976
vt 0.463203 0.656843
vt 0.444252 0.77653
vt 0.426137 0.866051
vt 0.573419 0.117409
vt 0.581125 0.246686
vt 0.552512 0.326
vt 0.561075 0.459693
vt 0.558356 0.550596
vt 0.530299 0.662189
vt 0.553275 0.760113
vt 0.555478 0.888821
vt 0.694433 0.13996
vt 0.667048 0.221666
vt 0.681985 0.314267
vt 0.698218 0.467249
vt 0.696819 0.535952
vt 0.68253 0.662758
vt 0.642062 0.791726
vt 0.648523 0.877957
vt 0.778029 0.111667
vt 0.809426 0.219523
vt 0.794923 0.307783
vt 0.772028 0.454562
vt 0.796846 0.533374
vt 0.807262 0.663157
vt 0.778581 0.821037
vt 0.775122 0.858219
vt 0.890224 0.104741
vt 0.865679 0.23076
vt 0.887326 0.334104
vt 0.881307 0.429754
vt 0.887973 0.53063
vt 0.918106 0.681428
vt 0.915043 0.778027
vt 0.904815 0.89094
vn 0.130031 0.151274 0.979902
vn -0.0241944 0.0345634 0.99911
vn -0.0133755 -0.166498 0.985951
vn -0.0111611 -0.123647 0.992263
vn 0.0505098 0.0822444 0.995331
vn 0.0298664 0.099697 0.99457
vn 0.0162621 0.0773255 0.996873
vn -0.00080788 0.0675655 0.997715
vn 0.0146848 0.0683153 0.997556
vn 0.0121133 0.0850049 0.996307
vn 0.0129659 0.0736122 0.997203
vn 0.00960919 0.00450866 0.999944
vn 0.20601 -0.299278 0.931661
vn 0.143067 -0.233021 0.96189
vn -0.022992 -0.0344611 0.999142
vn 0.0746533 -0.0254675 0.996884
vn 0.0143053 -0.175056 0.984455
vn -0.0311411 -0.24676 0.968576
vn -0.171851 -0.338078 0.925295
vn -0.2495 -0.39326 0.884927
vn 0.17784 0.10658 0.978271
vn 0.0491731 0.0379167 0.99807
vn 0.0387087 0.0431593 0.998318
vn 0.0184738 0.0311641 0.999344
vn 0.0259329 0.0375619 0.998958
vn 0.0222491 0.0479236 0.998603
vn 0.0342168 0.0617327 0.997506
vn 0.0546168 0.1001 0.993477
vn 0.0012419 0.0868864 0.996217
vn 0.0655099 0.0411151 0.997005
vn 0.115458 0.00398679 0.993304
vn 0.108478 0.0106346 0.994042
vn 0.0597641 0.0322043 0.997693
vn 0.00786947 0.023308 0.999697
vn -0.104659 0.0792603 0.991345
vn -0.206558 0.0707638 0.975872
vn 0.0459327 0.0942334 0.99449
vn 0.0398063 0.0736249 0.996491
vn 0.00579426 0.0361035 0.999331
vn -0.00163244 0.0338459 0.999426
vn 0.0254108 0.0690736 0.997288
vn 0.0698511 0.0509911 0.996253
vn 0.147016 0.11336 0.982617
vn -0.0466914 -0.160522 0.985927
vn 0.0124603 0.0708427 0.99741
vn -0.0257378 0.0311486 0.999183
vn -0.0670303 0.0111731 0.997688
vn -0.0410728 0.035432 0.998528
vn 0.121864 0.141805 0.982365
vn 0.198718 0.161179 0.966712
vn 0.0460848 -0.0455039 0.997901
vn -0.207822 -0.367582 0.906473
vn -0.00388379 0.0444941 0.999002
vn -0.0307334 0.0191309 0.999345
vn 0.0121673 0.0672344 0.997663
vn 0.111481 0.148586 0.982596
vn 0.0782495 0.181485 0.980276
vn 0.0612834 0.0436419 0.997166
vn -0.16433 -0.265779 0.949925
vn -0.0861344 -0.293313 0.952128
vn 0.0117743 0.0422067 0.99904
vn 0.0265468 0.0443946 0.998661
vn 0.0692141 0.136412 0.988231
vn 0.0927235 0.175553 0.980094
vn -0.0145257 0.0734163 0.997196
vn -0.0662564 -0.0496625 0.996566
vn -0.0863835 -0.19671 0.976649
vn -0.0816615 -0.24695 0.965581
vn 0.014569 0.0186294 0.99972
vn -0.0464652 0.0615292 0.997023
vn -0.0127534 0.156042 0.987668
vn -0.0144472 0.15426 0.987925
vn 0.00765052 0.0116184 0.999903
vn -0.00686198 -0.0368007 0.999299
vn 0.0506028 -0.159085 0.985967
vn 0.0501683 -0.195808 0.979358
vn 0.0383505 -0.0148899 0.999153
vn 0.00863449 -0.0366252 0.999292
vn -0.0920911 0.124353 0.987955
vn -0.167719 0.228574 0.95897
vn -0.119314 0.149769 0.981495
vn 0.0355548 -0.00719808 0.999342
vn 0.126211 -0.23135 0.964649
vn 0.0865969 -0.251241 0.964043
vn -0.00623735 0.0616173 0.99808
vn 0.0218628 -0.0452562 0.998736
vn 0.0353775 -0.00539794 0.999359
vn -0.109044 0.159706 0.981124
vn -0.14987 0.164878 0.974861
vn -0.150264 0.121683 0.981129
vn 0.0792535 -0.181261 0.980236
vn 0.21655 -0.392988 0.893682
vn 0.00196718 0.0456075 0.998957
vn 0.0464926 -0.0150511 0.998805
vn 0.0987326 -0.00546615 0.995099
vn 0.0399277 0.0373255 0.998505
vn -0.0366102 0.0825069 0.995918
vn -0.0971242 0.0951544 0.990713
vn -0.172981 0.104729 0.979341
vn 0.0473911 -0.164328 0.985267
f 100/100/100 4/4/4 13/13/13
f 44/44/44 3/3/3 21/21/21
f 44/44/44 19/19/19 20/20/20
f 60/60/60 19/19/19 52/52/52
f 60/60/60 17/17/17 18/18/18
f 76/76/76 17/17/17 68/68/68
f 84/84/84 16/16/16 76/76/76
f 84/84/84 14/14/14 15/15/15
f 100/100/100 14/14/14 92/92/92
f 11/11/11 93/93/93 85/85/85
f 93/93/93 86/86/86 85/85/85
f 94/94/94 87/87/87 86/86/86
f 87/87/87 96/96/96 88/88/88
f 96/96/96 89/89/89 88/88/88
f 97/97/97 90/90/90 89/89/89
f 90/90/90 99/99/99 91/91/91
f 91/91/91 100/100/100 92/92/92
f 10/10/10 85/85/85 77/77/77
f 77/77/77 86/86/86 78/78/78
f 78/78/78 87/87/87 79/79/79
f 79/79/79 88/88/88 80/80/80
f 88/88/88 81/81/81 80/80/80
f 81/81/81 90/90/90 82/82/82
f 82/82/82 91/91/91 83/83/83
f 91/91/91 84/84/84 83/83/83
f 10/10/10 69/69/69 9/9/9
f 69/69/69 78/78/78 70/70/70
f 70/70/70 79/79/79 71/71/71
f 79/79/79 72/72/72 71/71/71
f 72/72/72 81/81/81 73/73/73
f 73/73/73 82/82/82 74/74/74
f 82/82/82 75/75/75 74/74/74
f 83/83/83 76/76/76 75/75/75
f 9/9/9 61/61/61 8/8/8
f 69/69/69 62/62/62 61/61/61
f 62/62/62 71/71/71 63/63/63
f 63/63/63 72/72/72 64/64/64
f 72/72/72 65/65/65 64/64/64
f 65/65/65 74/74/74 66/66/66
f 66/66/66 75/75/75 67/67/67
f 67/67/67 76/76/76 68/68/68
f 8/8/8 53/53/53 7/7/7
f 53/53/53 62/62/62 54/54/54
f 54/54/54 63/63/63 55/55/55
f 55/55/55 64/64/64 56/56/56
f 64/64/64 57/57/57 56/56/56
f 57/57/57 66/66/66 58/58/58
f 58/58/58 67/67/67 59/59/59
f 59/59/59 68/68/68 60/60/60
f 6/6/6 53/53/53 45/45/45
f 45/45/45 54/54/54 46/46/46
f 54/54/54 47/47/47 46/46/46
f 55/55/55 48/48/48 47/47/47
f 56/56/56 49/49/49 48/48/48
f 49/49/49 58/58/58 50/50/50
f 58/58/58 51/51/51 50/50/50
f 59/59/59 52/52/52 51/51/51
f 6/6/6 37/37/37 5/5/5
f 45/45/45 38/38/38 37/37/37
f 46/46/46 39/39/39 38/38/38
f 39/39/39 48/48/48 40/40/40
f 40/40/40 49/49/49 41/41/41
f 41/41/41 50/50/50 42/42/42
f 50/50/50 43/43/43 42/42/42
f 51/51/51 44/44/44 43/43/43
f 5/5/5 28/28/28 1/1/1
f 28/28/28 38/38/38 27/27/27
f 27/27/27 39/39/39 26/26/26
f 26/26/26 40/40/40 25/25/25
f 40/40/40 24/24/24 25/25/25
f 41/41/41 23/23/23 24/24/24
f 23/23/23 43/43/43 22/22/22
f 43/43/43 21/21/21 22/22/22
f 2/2/2 93/93/93 12/12/12
f 93/93/93 30/30/30 94/94/94
f 30/30/30 95/95/95 94/94/94
f 31/31/31 96/96/96 95/95/95
f 32/32/32 97/97/97 96/96/96
f 33/33/33 98/98/98 97/97/97
f 98/98/98 35/35/35 99/99/99
f 99/99/99 36/36/36 100/100/100
f 100/100/100 36/36/36 4/4/4
f 44/44/44 20/20/20 3/3/3
f 44/44/44 52/52/52 19/19/19
f 60/60/60 18/18/18 19/19/19
f 60/60/60 68/68/68 17/17/17
f 76/76/76 16/16/16 17/17/17
f 84/84/84 15/15/15 16/16/16
f 84/84/84 92/92/92 14/14/14
f 100/100/100 13/13/13 14/14/14
f 11/11/11 12/12/12 93/93/93
f 93/93/93 94/94/94 86/86/86
f 94/94/94 95/95/95 87/87/87
f 87/87/87 95/95/95 96/96/96
f 96/96/96 97/97/97 89/89/89
f 97/97/97 98/98/98 90/90/90
f 90/90/90 98/98/98 99/99/99
f 91/91/91 99/99/99 100/100/100
f 10/10/10 11/11/11 85/85/85
f 77/77/77 85/85/85 86/86/86
f 78/78/78 86/86/86 87/87/87
f 79/79/79 87/87/87 88/88/88
f 88/88/88 89/89/89 81/81/81
f 81/81/81 89/89/89 90/90/90
f 82/82/82 90/90/90 91/91/91
f 91/91/91 92/92/92 84/84/84
f 10/10/10 77/77/77 69/69/69
f 69/69/69 77/77/77 78/78/78
f 70/70/70 78/78/78 79/79/79
f 79/79/79 80/80/80 72/72/72
f 72/72/72 80/80/80 81/81/81
f 73/73/73 81/81/81 82/82/82
f 82/82/82 83/83/83 75/75/75
f 83/83/83 84/84/84 76/76/76
f 9/9/9 69/69/69 61/61/61
f 69/69/69 70/70/70 62/62/62
f 62/62/62 70/70/70 71/71/71
f 63/63/63 71/71/71 72/72/72
f 72/72/72 73/73/73 65/65/65
f 65/65/65 73/73/73 74/74/74
f 66/66/66 74/74/74 75/75/75
f 67/67/67 75/75/75 76/76/76
f 8/8/8 61/61/61 53/53/53
f 53/53/53 61/61/61 62/62/62
f 54/54/54 62/62/62 63/63/63
f 55/55/55 63/63/63 64/64/64
f 64/64/64 65/65/65 57/57/57
f 57/57/57 65/65/65 66/66/66
f 58/58/58 66/66/66 67/67/67
f 59/59/59 67/67/67 68/68/68
f 6/6/6 7/7/7 53/53/53
f 45/45/45 53/53/53 54/54/54
f 54/54/54 55/55/55 47/47/47
f 55/55/55 56/56/56 48/48/48
f 56/56/56 57/57/57 49/49/49
f 49/49/49 57/57/57 58/58/58
f 58/58/58 59/59/59 51/51/51
f 59/59/59 60/60/60 52/52/52
f 6/6/6 45/45/45 37/37/37
f 45/45/45 46/46/46 38/38/38
f 46/46/46 47/47/47 39/39/39
f 39/39/39 47/47/47 48/48/48
f 40/40/40 48/48/48 49/49/49
f 41/41/41 49/49/49 50/50/50
f 50/50/50 51/51/51 43/43/43
f 51/51/51 52/52/52 44/44/44
f 5/5/5 37/37/37 28/28/28
f 28/28/28 37/37/37 38/38/38
f 27/27/27 38/38/38 39/39/39
f 26/26/26 39/39/39 40/40/40
f 40/40/40 41/41/41 24/24/24
f 41/41/41 42/42/42 23/23/23
f 23/23/23 42/42/42 43/43/43
f 43/43/43 44/44/44 21/21/21
f 2/2/2 29/29/29 93/93/93
f 93/93/93 29/29/29 30/30/30
f 30/30/30 31/31/31 95/95/95
f 31/31/31 32/32/32 96/96/96
f 32/32/32 33/33/33 97/97/97
f 33/33/33 34/34/34 98/98/98
f 98/98/98 34/34/34 35/35/35
f 99/99/99 35/35/35 36/36/36
