o GNATVCloth
v -4.99915 -5.01012 0.185168
v 5.16431 -5.01005 0.176194
v -5.01298 5.02105 0.004229
v 4.98702 5.02105 0.004229
v -3.88033 -5.05715 0.142481
v -2.75692 -5.1048 0.109861
v -1.62614 -5.13913 0.126384
v -0.49065 -5.17863 0.11664
v 0.649036 -5.18081 0.0590883
v 1.78521 -5.15769 0.0861946
v 2.91605 -5.11693 0.124721
v 4.04349 -5.05452 0.166571
v 3.8598 4.92461 0.120752
v 2.74213 4.83254 0.110424
v 1.6512 4.76656 0.151355
v 0.613348 4.72566 0.120494
v -0.458243 4.7655 0.0913549
v -1.58174 4.81645 0.162079
v -2.71487 4.89454 0.115944
v -3.85739 4.94889 0.0706502
v -4.97135 3.90445 0.0347476
v -4.96015 2.78781 0.0751263
v -4.9553 1.67173 0.116742
v -4.95304 0.555452 0.139452
v -4.95586 -0.560094 0.142953
v -4.96448 -1.67507 0.147044
v -4.97298 -2.78821 0.140794
v -4.97893 -3.9002 0.129263
v 5.13599 -3.89794 0.158535
v 5.12633 -2.78747 0.106315
v 5.11175 -1.67435 0.125781
v 5.09512 -0.559935 0.129256
v 5.07917 0.555257 0.133708
v 5.06022 1.67169 0.119326
v 5.03871 2.78814 0.0874633
v 5.01244 3.90465 0.0495679
v -3.79672 -3.90774 0.111013
v -3.75825 -3.25766 0.0937523
v -3.61156 -1.97123 0.0687899
v -4.06894 -0.304916 0.0776654
v -4.09658 0.712855 0.0869332
v -4.09283 1.49796 0.0975416
v -4.0375 2.79073 0.0760404
v -3.89346 3.87528 0.0512856
v -2.66074 -4.08354 0.098532
v -2.73576 -2.81292 0.0979082
v -2.61506 -2.22655 0.0877203
v -2.69216 -0.679945 0.0972608
v -2.73313 0.451506 0.0866554
v -2.67162 1.50237 0.0871591
v -2.80227 2.84886 0.0849811
v -2.69694 3.54418 0.097389
v -1.59324 -4.3319 0.0728596
v -1.42832 -3.01908 0.0647003
v -1.82284 -1.7201 0.1202
v -1.81005 -0.925705 0.117842
v -1.464 0.56693 0.0838007
v -1.93132 1.63271 0.0825011
v -1.65636 2.67734 0.087212
v -1.49018 3.69493 0.0858957
v -0.156536 -4.44017 0.087017
v -0.509139 -2.99858 0.0730812
v -0.471147 -1.85636 0.0881624
v -0.770252 -0.871217 0.0843868
v -0.541076 0.341478 0.0870353
v -0.309776 1.37229 0.0906796
v -0.501479 2.57434 0.0854908
v -0.675969 3.46728 0.095913
v 0.825152 -4.01935 0.0746072
v 0.899902 -2.72526 0.103817
v 0.607786 -1.93965 0.104279
v 0.686544 -0.604401 0.0633158
v 0.653222 0.304461 0.0928225
v 0.362395 1.41637 0.0993052
v 0.590185 2.38645 0.0940581
v 0.611501 3.63123 0.0874248
v 2.05257 -3.75645 0.109255
v 1.77011 -2.9507 0.0880112
v 1.91519 -2.02134 0.0801135
v 2.06703 -0.485671 0.109826
v 2.04846 0.199066 0.0784706
v 1.88791 1.45227 0.0627149
v 1.47749 2.71965 0.102919
v 1.51677 3.54684 0.0806606
v 2.90265 -4.00458 0.0963413
v 3.20848 -2.90907 0.106401
v 3.05491 -2.03678 0.0700301
v 2.81048 -0.579329 0.0914486
v 3.04921 0.220682 0.102561
v 3.13524 1.52498 0.0711371
v 2.81217 3.07737 0.0827345
v 2.76744 3.43845 0.121
v 4.03661 -4.01974 0.0673038
v 3.77486 -2.7711 0.115921
v 3.98196 -1.72531 0.108955
v 3.91093 -0.771199 0.0732838
v 3.96302 0.243118 0.0917216
v 4.24089 1.76859 0.0857233
v 4.18936 2.73313 0.0794358
v 4.05825 3.85566 0.064735
vt 0.0001 0.0001
vt 0.9999 0.0001
vt 0.0001 0.9999
vt 0.9999 0.9999
vt 0.111189 0.0001
vt 0.222278 0.0001
vt 0.333367 0.0001
vt 0.444455 0.0001
vt 0.555544 0.0001
vt 0.666633 0.0001
vt 0.777722 0.0001
vt 0.888811 0.0001
vt 0.888811 0.9999
vt 0.777722 0.9999
vt 0.666633 0.9999
vt 0.555544 0.9999
vt 0.444455 0.9999
vt 0.333367 0.9999
vt 0.222278 0.9999
vt 0.111189 0.9999
vt 0.0001 0.888811
vt 0.0001 0.777722
vt 0.0001 0.666633
vt 0.0001 0.555544
vt 0.0001 0.444456
vt 0.0001 0.333367
vt 0.0001 0.222278
vt 0.0001 0.111189
vt 0.9999 0.111189
vt 0.9999 0.222278
vt 0.9999 0.333367
vt 0.9999 0.444456
vt 0.9999 0.555544
vt 0.9999 0.666633
vt 0.9999 0.777722
vt 0.9999 0.888811
vt 0.11727 0.115399
vt 0.120778 0.180369
vt 0.134636 0.309595
vt 0.088728 0.473895
vt 0.085886 0.575352
vt 0.086211 0.65375
vt 0.092207 0.78313
vt 0.106956 0.892282
vt 0.22987 0.102869
vt 0.221803 0.229552
vt 0.233521 0.288953
vt 0.225541 0.443179
vt 0.221596 0.556167
vt 0.227801 0.661237
vt 0.214896 0.795203
vt 0.22542 0.865181
vt 0.335524 0.082127
vt 0.351143 0.213907
vt 0.311934 0.342467
vt 0.313159 0.422214
vt 0.347791 0.572605
vt 0.301482 0.677733
vt 0.329031 0.783086
vt 0.344903 0.885466
vt 0.476837 0.074882
vt 0.441952 0.218774
vt 0.445749 0.333088
vt 0.416414 0.43099
vt 0.439746 0.552976
vt 0.463203 0.656843
vt 0.444252 0.77653
vt 0.426137 0.866051
vt 0.573419 0.117409
vt 0.581125 0.246686
vt 0.552512 0.326
vt 0.561075 0.459693
vt 0.558356 0.550596
vt 0.530299 0.662189
vt 0.553275 0.760113
vt 0.555478 0.888821
vt 0.694433 0.13996
vt 0.667048 0.221666
vt 0.681985 0.314267
vt 0.698218 0.467249
vt 0.696819 0.535952
vt 0.68253 0.662758
vt 0.642062 0.791726
vt 0.648523 0.877957
vt 0.778029 0.111667
vt 0.809426 0.219523
vt 0.794923 0.307783
vt 0.772028 0.454562
vt 0.796846 0.533374
vt 0.807262 0.663157
vt 0.778581 0.821037
vt 0.775122 0.858219
vt 0.890224 0.104741
vt 0.865679 0.23076
vt 0.887326 0.334104
vt 0.881307 0.429754
vt 0.887973 0.53063
vt 0.918106 0.681428
vt 0.915043 0.778027
vt 0.904815 0.89094
vn 0.0401588 0.0495355 0.997965
vn -0.0483362 0.0546214 0.997337
vn -0.03651 0.00536816 0.999319
vn 0.0597537 0.00420446 0.998204
vn 0.0286158 0.0336486 0.999024
vn 0.0140298 0.0276072 0.99952
vn -0.000853294 0.0661959 0.997806
vn 0.0182448 0.0420231 0.99895
vn 0.0154915 -0.00296101 0.999876
vn -0.0186304 -0.00364368 0.99982
vn -0.0170805 0.0487181 0.998667
vn -0.0272607 0.0952769 0.995077
vn 0.050418 -0.0429283 0.997805
vn 0.0114051 -0.0250844 0.99962
vn 0.00683661 -0.0586123 0.998257
vn -0.0170554 -0.0383966 0.999117
vn 0.00676687 -0.021306 0.99975
vn 0.00719839 -0.0671857 0.997715
vn -0.0292954 -0.0290021 0.99915
vn -0.0493885 -0.0163535 0.998646
vn -0.0101277 0.0292222 0.999522
vn -0.00110629 0.0366914 0.999326
vn 0.0253208 0.0149098 0.999568
vn 0.0641989 0.00532713 0.997923
vn 0.0725477 0.00302286 0.99736
vn 0.0630489 0.00275532 0.998007
vn 0.0450965 -0.000748359 0.998982
vn 0.026501 0.0227153 0.999391
vn -0.085948 0.0298581 0.995852
vn -0.0220146 -0.000978995 0.999757
vn -0.0257226 0.00488552 0.999657
vn -0.0424168 -0.00806541 0.999067
vn -0.0388759 0.00634805 0.999224
vn -0.0386099 0.0199915 0.999054
vn -0.0197184 0.0224771 0.999553
vn 0.00576246 0.0298021 0.999539
vn 0.0177495 0.0225176 0.999589
vn 0.0153497 0.0127049 0.999802
vn 0.013736 0.00620919 0.999886
vn 0.0339616 -4.5699e-05 0.999423
vn 0.0242489 -0.00395945 0.999698
vn 0.0148767 0.00117771 0.999889
vn 1.64318e-05 0.0221235 0.999755
vn -0.0315168 0.00242314 0.9995
vn 0.0166384 0.0082607 0.999827
vn 0.00436354 0.0110269 0.99993
vn -0.0109536 -0.00587113 0.999923
vn -0.0214666 -0.000708497 0.999769
vn -0.00364055 0.00456445 0.999983
vn 0.00329666 0.000755506 0.999994
vn -0.00974438 -0.000914774 0.999952
vn -0.0135773 -0.0113673 0.999843
vn 0.00342003 0.0288649 0.999577
vn 0.00973868 -0.0102078 0.9999
vn 0.00118861 -0.0122691 0.999924
vn 0.00404645 0.0105387 0.999936
vn 0.00339392 0.00588054 0.999977
vn 0.000466667 -0.000377503 1
vn -0.00122984 -0.0057475 0.999983
vn 0.0021557 -0.0232832 0.999727
vn 0.0123839 0.0125844 0.999844
vn -0.0104996 -0.0041313 0.999936
vn 0.00343762 -0.00193994 0.999992
vn 0.0187989 0.00509916 0.99981
vn -0.00271975 -0.00827362 0.999962
vn -0.0078844 0.00182835 0.999967
vn -0.00154624 -0.00238318 0.999996
vn -0.00152276 -0.00215443 0.999996
vn -0.00843841 -0.00794473 0.999933
vn 0.00254483 -0.00821136 0.999963
vn -0.00189218 0.00930478 0.999955
vn -0.00394293 0.00341295 0.999986
vn 0.00644973 -0.0115053 0.999913
vn 0.00334165 0.000189638 0.999994
vn -0.00232886 -0.00144846 0.999996
vn -0.00264588 -0.00437478 0.999987
vn -0.00985085 -0.00106296 0.999951
vn -0.00302843 0.0109129 0.999936
vn 0.00944421 -0.000351821 0.999955
vn -0.00430833 0.0134106 0.999901
vn -0.00624621 0.0148204 0.999871
vn 0.00986922 -0.00553412 0.999936
vn 0.00586642 0.000531821 0.999983
vn -0.00528891 -0.0282999 0.999586
vn 0.00755839 0.000775016 0.999971
vn -0.00386321 0.00482549 0.999981
vn -0.0154658 0.0153336 0.999763
vn 0.0108439 -0.00418829 0.999932
vn -0.00230911 0.00112156 0.999997
vn -0.0079356 0.00812707 0.999936
vn 0.00895649 -0.0296051 0.999521
vn 0.0105104 -0.0478932 0.998797
vn -0.0219712 0.0227878 0.999499
vn -0.0132675 -0.00390413 0.999904
vn -0.0247843 0.0146233 0.999586
vn -0.0172219 0.000118561 0.999852
vn -0.0187589 0.000350098 0.999824
vn -0.0261557 0.0116134 0.99959
vn -0.00239972 0.0111125 0.999935
vn 0.0358574 -0.0148626 0.999246
f 100/100/100 4/4/4 13/13/13
f 44/44/44 3/3/3 21/21/21
f 44/44/44 19/19/19 20/20/20
f 60/60/60 19/19/19 52/52/52
f 60/60/60 17/17/17 18/18/18
f 76/76/76 17/17/17 68/68/68
f 84/84/84 16/16/16 76/76/76
f 84/84/84 14/14/14 15/15/15
f 100/100/100 14/14/14 92/92/92
f 11/11/11 93/93/93 85/85/85
f 93/93/93 86/86/86 85/85/85
f 94/94/94 87/87/87 86/86/86
f 87/87/87 96/96/96 88/88/88
f 96/96/96 89/89/89 88/88/88
f 97/97/97 90/90/90 89/89/89
f 90/90/90 99/99/99 91/91/91
f 91/91/91 100/100/100 92/92/92
f 10/10/10 85/85/85 77/77/77
f 77/77/77 86/86/86 78/78/78
f 78/78/78 87/87/87 79/79/79
f 79/79/79 88/88/88 80/80/80
f 88/88/88 81/81/81 80/80/80
f 81/81/81 90/90/90 82/82/82
f 82/82/82 91/91/91 83/83/83
f 91/91/91 84/84/84 83/83/83
f 10/10/10 69/69/69 9/9/9
f 69/69/69 78/78/78 70/70/70
f 70/70/70 79/79/79 71/71/71
f 79/79/79 72/72/72 71/71/71
f 72/72/72 81/81/81 73/73/73
f 73/73/73 82/82/82 74/74/74
f 82/82/82 75/75/75 74/74/74
f 83/83/83 76/76/76 75/75/75
f 9/9/9 61/61/61 8/8/8
f 69/69/69 62/62/62 61/61/61
f 62/62/62 71/71/71 63/63/63
f 63/63/63 72/72/72 64/64/64
f 72/72/72 65/65/65 64/64/64
f 65/65/65 74/74/74 66/66/66
f 66/66/66 75/75/75 67/67/67
f 67/67/67 76/76/76 68/68/68
f 8/8/8 53/53/53 7/7/7
f 53/53/53 62/62/62 54/54/54
f 54/54/54 63/63/63 55/55/55
f 55/55/55 64/64/64 56/56/56
f 64/64/64 57/57/57 56/56/56
f 57/57/57 66/66/66 58/58/58
f 58/58/58 67/67/67 59/59/59
f 59/59/59 68/68/68 60/60/60
f 6/6/6 53/53/53 45/45/45
f 45/45/45 54/54/54 46/46/46
f 54/54/54 47/47/47 46/46/46
f 55/55/55 48/48/48 47/47/47
f 56/56/56 49/49/49 48/48/48
f 49/49/49 58/58/58 50/50/50
f 58/58/58 51/51/51 50/50/50
f 59/59/59 52/52/52 51/51/51
f 6/6/6 37/37/37 5/5/5
f 45/45/45 38/38/38 37/37/37
f 46/46/46 39/39/39 38/38/38
f 39/39/39 48/48/48 40/40/40
f 40/40/40 49/49/49 41/41/41
f 41/41/41 50/50/50 42/42/42
f 50/50/50 43/43/43 42/42/42
f 51/51/51 44/44/44 43/43/43
f 5/5/5 28/28/28 1/1/1
f 28/28/28 38/38/38 27/27/27
f 27/27/27 39/39/39 26/26/26
f 26/26/26 40/40/40 25/25/25
f 40/40/40 24/24/24 25/25/25
f 41/41/41 23/23/23 24/24/24
f 23/23/23 43/43/43 22/22/22
f 43/43/43 21/21/21 22/22/22
f 2/2/2 93/93/93 12/12/12
f 93/93/93 30/30/30 94/94/94
f 30/30/30 95/95/95 94/94/94
f 31/31/31 96/96/96 95/95/95
f 32/32/32 97/97/97 96/96/96
f 33/33/33 98/98/98 97/97/97
f 98/98/98 35/35/35 99/99/99
f 99/99/99 36/36/36 100/100/100
f 100/100/100 36/36/36 4/4/4
f 44/44/44 20/20/20 3/3/3
f 44/44/44 52/52/52 19/19/19
f 60/60/60 18/18/18 19/19/19
f 60/60/60 68/68/68 17/17/17
f 76/76/76 16/16/16 17/17/17
f 84/84/84 15/15/15 16/16/16
f 84/84/84 92/92/92 14/14/14
f 100/100/100 13/13/13 14/14/14
f 11/11/11 12/12/12 93/93/93
f 93/93/93 94/94/94 86/86/86
f 94/94/94 95/95/95 87/87/87
f 87/87/87 95/95/95 96/96/96
f 96/96/96 97/97/97 89/89/89
f 97/97/97 98/98/98 90/90/90
f 90/90/90 98/98/98 99/99/99
f 91/91/91 99/99/99 100/100/100
f 10/10/10 11/11/11 85/85/85
f 77/77/77 85/85/85 86/86/86
f 78/78/78 86/86/86 87/87/87
f 79/79/79 87/87/87 88/88/88
f 88/88/88 89/89/89 81/81/81
f 81/81/81 89/89/89 90/90/90
f 82/82/82 90/90/90 91/91/91
f 91/91/91 92/92/92 84/84/84
f 10/10/10 77/77/77 69/69/69
f 69/69/69 77/77/77 78/78/78
f 70/70/70 78/78/78 79/79/79
f 79/79/79 80/80/80 72/72/72
f 72/72/72 80/80/80 81/81/81
f 73/73/73 81/81/81 82/82/82
f 82/82/82 83/83/83 75/75/75
f 83/83/83 84/84/84 76/76/76
f 9/9/9 69/69/69 61/61/61
f 69/69/69 70/70/70 62/62/62
f 62/62/62 70/70/70 71/71/71
f 63/63/63 71/71/71 72/72/72
f 72/72/72 73/73/73 65/65/65
f 65/65/65 73/73/73 74/74/74
f 66/66/66 74/74/74 75/75/75
f 67/67/67 75/75/75 76/76/76
f 8/8/8 61/61/61 53/53/53
f 53/53/53 61/61/61 62/62/62
f 54/54/54 62/62/62 63/63/63
f 55/55/55 63/63/63 64/64/64
f 64/64/64 65/65/65 57/57/57
f 57/57/57 65/65/65 66/66/66
f 58/58/58 66/66/66 67/67/67
f 59/59/59 67/67/67 68/68/68
f 6/6/6 7/7/7 53/53/53
f 45/45/45 53/53/53 54/54/54
f 54/54/54 55/55/55 47/47/47
f 55/55/55 56/56/56 48/48/48
f 56/56/56 57/57/57 49/49/49
f 49/49/49 57/57/57 58/58/58
f 58/58/58 59/59/59 51/51/51
f 59/59/59 60/60/60 52/52/52
f 6/6/6 45/45/45 37/37/37
f 45/45/45 46/46/46 38/38/38
f 46/46/46 47/47/47 39/39/39
f 39/39/39 47/47/47 48/48/48
f 40/40/40 48/48/48 49/49/49
f 41/41/41 49/49/49 50/50/50
f 50/50/50 51/51/51 43/43/43
f 51/51/51 52/52/52 44/44/44
f 5/5/5 37/37/37 28/28/28
f 28/28/28 37/37/37 38/38/38
f 27/27/27 38/38/38 39/39/39
f 26/26/26 39/39/39 40/40/40
f 40/40/40 41/41/41 24/24/24
f 41/41/41 42/42/42 23/23/23
f 23/23/23 42/42/42 43/43/43
f 43/43/43 44/44/44 21/21/21
f 2/2/2 29/29/29 93/93/93
f 93/93/93 29/29/29 30/30/30
f 30/30/30 31/31/31 95/95/95
f 31/31/31 32/32/32 96/96/96
f 32/32/32 33/33/33 97/97/97
f 33/33/33 34/34/34 98/98/98
f 98/98/98 34/34/34 35/35/35
f 99/99/99 35/35/35 36/36/36
