o GNATVCloth
v -5.04874 -4.98549 0.589162
v 5.0496 -4.99339 0.391518
v -5.01298 5.02105 0.004229
v 4.98702 5.02105 0.004229
v -3.93498 -5.0241 0.536873
v -2.81604 -5.0659 0.481555
v -1.69258 -5.09087 0.490839
v -0.565631 -5.1133 0.491497
v 0.564404 -5.11199 0.504561
v 1.693 -5.10182 0.5091
v 2.81718 -5.07648 0.453386
v 3.93815 -5.02344 0.475338
v 3.8632 4.90806 0.17728
v 2.74903 4.8313 0.345124
v 1.62713 4.77264 0.324134
v 0.507674 4.73401 0.30627
v -0.583683 4.71148 0.454316
v -1.69092 4.70457 0.621959
v -2.81052 4.77146 0.520135
v -3.90308 4.88665 0.251529
v -4.9844 3.90704 0.0758097
v -4.98702 2.79268 0.140174
v -4.99475 1.67916 0.205789
v -5.00249 0.565553 0.264633
v -5.00781 -0.547254 0.322488
v -5.01264 -1.65914 0.365004
v -5.02029 -2.77306 0.394082
v -5.02798 -3.88176 0.50063
v 5.02872 -3.89215 0.299314
v 5.01599 -2.77803 0.273397
v 5.00811 -1.66584 0.24927
v 5.00091 -0.55286 0.234374
v 4.99285 0.56069 0.201133
v 4.98326 1.67542 0.164401
v 4.9773 2.79092 0.129036
v 4.97151 3.90521 0.0558476
v -3.86182 -3.8871 0.342802
v -3.82251 -3.24179 0.274069
v -3.67212 -1.95462 0.241913
v -4.12315 -0.293905 0.230922
v -4.146 0.72396 0.189326
v -4.13733 1.50625 0.132351
v -4.06937 2.79866 0.0338801
v -3.92264 3.87566 -0.114282
v -2.7287 -4.0546 0.307773
v -2.80461 -2.78548 0.347174
v -2.68126 -2.1994 0.293301
v -2.75567 -0.651747 0.287523
v -2.78898 0.474749 0.178401
v -2.72138 1.51367 0.0294275
v -2.84057 2.8512 -0.115336
v -2.74214 3.53104 0.0426505
v -1.66318 -4.29131 0.322276
v -1.50252 -2.98014 0.396434
v -1.89581 -1.68643 0.382884
v -1.87845 -0.889796 0.326196
v -1.52568 0.581251 0.0680595
v -1.98474 1.6391 -0.030944
v -1.70587 2.68107 0.0270236
v -1.58466 3.59661 0.423229
v -0.236243 -4.38232 0.393099
v -0.589999 -2.94813 0.478469
v -0.548882 -1.80537 0.4375
v -0.840595 -0.831977 0.312598
v -0.603454 0.368115 0.126395
v -0.36811 1.38834 0.0851722
v -0.564628 2.5688 0.16399
v -0.761767 3.39616 0.437548
v 0.737249 -3.9553 0.405874
v 0.815167 -2.66414 0.495176
v 0.527049 -1.87704 0.472704
v 0.612607 -0.573277 0.182426
v 0.590772 0.331066 0.16435
v 0.304359 1.43251 0.100902
v 0.529354 2.39703 0.160277
v 0.539889 3.63304 0.401175
v 1.95617 -3.70623 0.366013
v 1.67506 -2.898 0.372515
v 1.83156 -1.97137 0.451506
v 1.99205 -0.465108 0.148455
v 1.97789 0.20663 4.35708e-06
v 1.8329 1.466 0.0642846
v 1.41299 2.73833 0.144536
v 1.4768 3.55902 0.315066
v 2.80209 -3.96122 0.36944
v 3.10737 -2.87239 0.324082
v 2.9549 -1.99587 0.272456
v 2.71971 -0.535947 0.310041
v 2.96293 0.25722 0.209057
v 3.07925 1.52652 -0.0807708
v 2.76428 3.09105 -0.0470528
v 2.7297 3.45195 0.0327559
v 3.92986 -3.99136 0.296088
v 3.6708 -2.73901 0.306028
v 3.88109 -1.69755 0.287266
v 3.81638 -0.742128 0.303714
v 3.87526 0.270413 0.285286
v 4.16322 1.78719 0.149535
v 4.14371 2.73609 -0.0350982
v 4.02412 3.8598 -0.0870156
vt 0.0001 0.0001
vt 0.9999 0.0001
vt 0.0001 0.9999
vt 0.9999 0.9999
vt 0.111189 0.0001
vt 0.222278 0.0001
vt 0.333367 0.0001
vt 0.444455 0.0001
vt 0.555544 0.0001
vt 0.666633 0.0001
vt 0.777722 0.0001
vt 0.888811 0.0001
vt 0.888811 0.9999
vt 0.777722 0.9999
vt 0.666633 0.9999
vt 0.555544 0.9999
vt 0.444455 0.9999
vt 0.333367 0.9999
vt 0.222278 0.9999
vt 0.111189 0.9999
vt 0.0001 0.888811
vt 0.0001 0.777722
vt 0.0001 0.666633
vt 0.0001 0.555544
vt 0.0001 0.444456
vt 0.0001 0.333367
vt 0.0001 0.222278
vt 0.0001 0.111189
vt 0.9999 0.111189
vt 0.9999 0.222278
vt 0.9999 0.333367
vt 0.9999 0.444456
vt 0.9999 0.555544
vt 0.9999 0.666633
vt 0.9999 0.777722
vt 0.9999 0.888811
vt 0.11727 0.115399
vt 0.120778 0.180369
vt 0.134636 0.309595
vt 0.088728 0.473895
vt 0.085886 0.575352
vt 0.086211 0.65375
vt 0.092207 0.78313
vt 0.106956 0.892282
vt 0.22987 0.102869
vt 0.221803 0.229552
vt 0.233521 0.288953
vt 0.225541 0.443179
vt 0.221596 0.556167
vt 0.227801 0.661237
vt 0.214896 0.795203
vt 0.22542 0.865181
vt 0.335524 0.082127
vt 0.351143 0.213907
vt 0.311934 0.342467
vt 0.313159 0.422214
vt 0.347791 0.572605
vt 0.301482 0.677733
vt 0.329031 0.783086
vt 0.344903 0.885466
vt 0.476837 0.074882
vt 0.441952 0.218774
vt 0.445749 0.333088
vt 0.416414 0.43099
vt 0.439746 0.552976
vt 0.463203 0.656843
vt 0.444252 0.77653
vt 0.426137 0.866051
vt 0.573419 0.117409
vt 0.581125 0.246686
vt 0.552512 0.326
vt 0.561075 0.459693
vt 0.558356 0.550596
vt 0.530299 0.662189
vt 0.553275 0.760113
vt 0.555478 0.888821
vt 0.694433 0.13996
vt 0.667048 0.221666
vt 0.681985 0.314267
vt 0.698218 0.467249
vt 0.696819 0.535952
vt 0.68253 0.662758
vt 0.642062 0.791726
vt 0.648523 0.877957
vt 0.778029 0.111667
vt 0.809426 0.219523
vt 0.794923 0.307783
vt 0.772028 0.454562
vt 0.796846 0.533374
vt 0.807262 0.663157
vt 0.778581 0.821037
vt 0.775122 0.858219
vt 0.890224 0.104741
vt 0.865679 0.23076
vt 0.887326 0.334104
vt 0.881307 0.429754
vt 0.887973 0.53063
vt 0.918106 0.681428
vt 0.915043 0.778027
vt 0.904815 0.89094
vn 0.0494805 0.0789326 0.995651
vn 0.0295758 0.127467 0.991402
vn -0.0341002 -0.134923 0.990269
vn 0.00951815 -0.0861715 0.996235
vn 0.0792703 0.134179 0.987781
vn 0.032479 0.175782 0.983893
vn 1.72416e-05 0.206285 0.978492
vn -0.0158397 0.165241 0.986126
vn -0.0234018 0.10576 0.994116
vn 0.0200843 0.0895933 0.995776
vn 0.0290605 0.107612 0.993768
vn 0.0210824 0.171242 0.985003
vn 0.164929 -0.21725 0.962081
vn 0.125166 -0.16701 0.977978
vn -0.0170999 -0.00535199 0.999839
vn 0.0716825 0.0574278 0.995773
vn 0.0734716 -0.0248555 0.996988
vn 0.0245781 -0.174211 0.984402
vn -0.215356 -0.308869 0.926403
vn -0.250495 -0.325112 0.911896
vn 0.156977 0.0783499 0.98449
vn 0.114505 0.0573298 0.991767
vn 0.0977578 0.0628334 0.993225
vn 0.0819651 0.0486182 0.995449
vn 0.0902435 0.0444729 0.994926
vn 0.0959455 0.0321126 0.994868
vn 0.112444 0.0439601 0.992685
vn 0.113152 0.107147 0.987783
vn -0.00773841 0.0532405 0.998552
vn 0.0192115 0.0138044 0.99972
vn 0.04115 0.00691558 0.999129
vn 0.0598489 0.0196314 0.998014
vn 0.0360622 0.0473121 0.998229
vn -0.013727 0.0322118 0.999387
vn -0.138213 0.0932106 0.986006
vn -0.166196 0.0469029 0.984977
vn 0.0846299 0.137663 0.986857
vn 0.0463296 0.051457 0.9976
vn 0.0130846 0.0286584 0.999504
vn 0.0451882 0.0425001 0.998074
vn 0.0630868 0.0697839 0.995565
vn 0.0856195 0.0713224 0.993772
vn 0.115502 0.0864033 0.989542
vn -0.0657414 -0.135538 0.988589
vn -5.067e-06 0.0525587 0.998618
vn -0.047512 0.0322179 0.998351
vn -0.0630988 0.0346885 0.997404
vn -0.0442162 0.0430513 0.998094
vn 0.0316964 0.113236 0.993062
vn 0.0686922 0.108621 0.991707
vn -0.0294347 -0.0120283 0.999494
vn -0.223147 -0.295433 0.928937
vn -0.0263491 0.0805146 0.996405
vn -0.0588393 -0.00273363 0.998264
vn -0.0498547 0.0395912 0.997971
vn 0.00860873 0.113291 0.993525
vn 0.00233661 0.121968 0.992531
vn -0.0285452 0.0458805 0.998539
vn -0.15705 -0.223379 0.961996
vn -0.106881 -0.246503 0.96323
vn -0.0295799 0.0508469 0.998268
vn -0.0380128 -0.0208148 0.99906
vn -0.0244866 0.093063 0.995359
vn 0.0138164 0.134457 0.990823
vn -0.0169065 0.0778957 0.996818
vn -0.0416487 -0.00664784 0.99911
vn -0.0511493 -0.168255 0.984416
vn -0.0331088 -0.213073 0.976475
vn 0.0172191 0.0114744 0.999786
vn 0.0477421 -0.0381713 0.99813
vn -0.00277605 0.106168 0.994344
vn 0.0306754 0.147369 0.988606
vn 0.0391214 0.0235505 0.998957
vn -0.00567605 0.00706121 0.999959
vn 0.0167873 -0.10444 0.994389
vn 0.0692872 -0.104916 0.992065
vn 0.022233 0.0486836 0.998567
vn 0.0812606 -0.0363829 0.996029
vn 0.0422793 0.0648686 0.996998
vn -0.0926798 0.2094 0.973428
vn -0.0379637 0.115746 0.992553
vn 0.0825107 -0.0203635 0.996382
vn 0.108083 -0.136512 0.984725
vn 0.1048 -0.109406 0.988457
vn 0.0426294 0.0622916 0.997147
vn 0.0315679 0.0318936 0.998993
vn 0.0471759 -0.000626958 0.998886
vn -0.0696193 0.118522 0.990508
vn -0.114158 0.159894 0.980511
vn -0.0816421 0.104171 0.991203
vn 0.114136 -0.0861369 0.989724
vn 0.1769 -0.208088 0.96198
vn 0.0269992 0.0681099 0.997312
vn 0.0150403 0.0186804 0.999712
vn 0.0116633 0.00497412 0.99992
vn 0.0116609 0.0159009 0.999806
vn -0.0380425 0.085278 0.995631
vn -0.11043 0.107279 0.988077
vn -0.135392 0.0803125 0.987532
vn 0.0497933 -0.10619 0.993098
f 100/100/100 4/4/4 13/13/13
f 44/44/44 3/3/3 21/21/21
f 44/44/44 19/19/19 20/20/20
f 60/60/60 19/19/19 52/52/52
f 60/60/60 17/17/17 18/18/18
f 76/76/76 17/17/17 68/68/68
f 84/84/84 16/16/16 76/76/76
f 84/84/84 14/14/14 15/15/15
f 100/100/100 14/14/14 92/92/92
f 11/11/11 93/93/93 85/85/85
f 93/93/93 86/86/86 85/85/85
f 94/94/94 87/87/87 86/86/86
f 87/87/87 96/96/96 88/88/88
f 96/96/96 89/89/89 88/88/88
f 97/97/97 90/90/90 89/89/89
f 90/90/90 99/99/99 91/91/91
f 91/91/91 100/100/100 92/92/92
f 10/10/10 85/85/85 77/77/77
f 77/77/77 86/86/86 78/78/78
f 78/78/78 87/87/87 79/79/79
f 79/79/79 88/88/88 80/80/80
f 88/88/88 81/81/81 80/80/80
f 81/81/81 90/90/90 82/82/82
f 82/82/82 91/91/91 83/83/83
f 91/91/91 84/84/84 83/83/83
f 10/10/10 69/69/69 9/9/9
f 69/69/69 78/78/78 70/70/70
f 70/70/70 79/79/79 71/71/71
f 79/79/79 72/72/72 71/71/71
f 72/72/72 81/81/81 73/73/73
f 73/73/73 82/82/82 74/74/74
f 82/82/82 75/75/75 74/74/74
f 83/83/83 76/76/76 75/75/75
f 9/9/9 61/61/61 8/8/8
f 69/69/69 62/62/62 61/61/61
f 62/62/62 71/71/71 63/63/63
f 63/63/63 72/72/72 64/64/64
f 72/72/72 65/65/65 64/64/64
f 65/65/65 74/74/74 66/66/66
f 66/66/66 75/75/75 67/67/67
f 67/67/67 76/76/76 68/68/68
f 8/8/8 53/53/53 7/7/7
f 53/53/53 62/62/62 54/54/54
f 54/54/54 63/63/63 55/55/55
f 55/55/55 64/64/64 56/56/56
f 64/64/64 57/57/57 56/56/56
f 57/57/57 66/66/66 58/58/58
f 58/58/58 67/67/67 59/59/59
f 59/59/59 68/68/68 60/60/60
f 6/6/6 53/53/53 45/45/45
f 45/45/45 54/54/54 46/46/46
f 54/54/54 47/47/47 46/46/46
f 55/55/55 48/48/48 47/47/47
f 56/56/56 49/49/49 48/48/48
f 49/49/49 58/58/58 50/50/50
f 58/58/58 51/51/51 50/50/50
f 59/59/59 52/52/52 51/51/51
f 6/6/6 37/37/37 5/5/5
f 45/45/45 38/38/38 37/37/37
f 46/46/46 39/39/39 38/38/38
f 39/39/39 48/48/48 40/40/40
f 40/40/40 49/49/49 41/41/41
f 41/41/41 50/50/50 42/42/42
f 50/50/50 43/43/43 42/42/42
f 51/51/51 44/44/44 43/43/43
f 5/5/5 28/28/28 1/1/1
f 28/28/28 38/38/38 27/27/27
f 27/27/27 39/39/39 26/26/26
f 26/26/26 40/40/40 25/25/25
f 40/40/40 24/24/24 25/25/25
f 41/41/41 23/23/23 24/24/24
f 23/23/23 43/43/43 22/22/22
f 43/43/43 21/21/21 22/22/22
f 2/2/2 93/93/93 12/12/12
f 93/93/93 30/30/30 94/94/94
f 30/30/30 95/95/95 94/94/94
f 31/31/31 96/96/96 95/95/95
f 32/32/32 97/97/97 96/96/96
f 33/33/33 98/98/98 97/97/97
f 98/98/98 35/35/35 99/99/99
f 99/99/99 36/36/36 100/100/100
f 100/100/100 36/36/36 4/4/4
f 44/44/44 20/20/20 3/3/3
f 44/44/44 52/52/52 19/19/19
f 60/60/60 18/18/18 19/19/19
f 60/60/60 68/68/68 17/17/17
f 76/76/76 16/16/16 17/17/17
f 84/84/84 15/15/15 16/16/16
f 84/84/84 92/92/92 14/14/14
f 100/100/100 13/13/13 14/14/14
f 11/11/11 12/12/12 93/93/93
f 93/93/93 94/94/94 86/86/86
f 94/94/94 95/95/95 87/87/87
f 87/87/87 95/95/95 96/96/96
f 96/96/96 97/97/97 89/89/89
f 97/97/97 98/98/98 90/90/90
f 90/90/90 98/98/98 99/99/99
f 91/91/91 99/99/99 100/100/100
f 10/10/10 11/11/11 85/85/85
f 77/77/77 85/85/85 86/86/86
f 78/78/78 86/86/86 87/87/87
f 79/79/79 87/87/87 88/88/88
f 88/88/88 89/89/89 81/81/81
f 81/81/81 89/89/89 90/90/90
f 82/82/82 90/90/90 91/91/91
f 91/91/91 92/92/92 84/84/84
f 10/10/10 77/77/77 69/69/69
f 69/69/69 77/77/77 78/78/78
f 70/70/70 78/78/78 79/79/79
f 79/79/79 80/80/80 72/72/72
f 72/72/72 80/80/80 81/81/81
f 73/73/73 81/81/81 82/82/82
f 82/82/82 83/83/83 75/75/75
f 83/83/83 84/84/84 76/76/76
f 9/9/9 69/69/69 61/61/61
f 69/69/69 70/70/70 62/62/62
f 62/62/62 70/70/70 71/71/71
f 63/63/63 71/71/71 72/72/72
f 72/72/72 73/73/73 65/65/65
f 65/65/65 73/73/73 74/74/74
f 66/66/66 74/74/74 75/75/75
f 67/67/67 75/75/75 76/76/76
f 8/8/8 61/61/61 53/53/53
f 53/53/53 61/61/61 62/62/62
f 54/54/54 62/62/62 63/63/63
f 55/55/55 63/63/63 64/64/64
f 64/64/64 65/65/65 57/57/57
f 57/57/57 65/65/65 66/66/66
f 58/58/58 66/66/66 67/67/67
f 59/59/59 67/67/67 68/68/68
f 6/6/6 7/7/7 53/53/53
f 45/45/45 53/53/53 54/54/54
f 54/54/54 55/55/55 47/47/47
f 55/55/55 56/56/56 48/48/48
f 56/56/56 57/57/57 49/49/49
f 49/49/49 57/57/57 58/58/58
f 58/58/58 59/59/59 51/51/51
f 59/59/59 60/60/60 52/52/52
f 6/6/6 45/45/45 37/37/37
f 45/45/45 46/46/46 38/38/38
f 46/46/46 47/47/47 39/39/39
f 39/39/39 47/47/47 48/48/48
f 40/40/40 48/48/48 49/49/49
f 41/41/41 49/49/49 50/50/50
f 50/50/50 51/51/51 43/43/43
f 51/51/51 52/52/52 44/44/44
f 5/5/5 37/37/37 28/28/28
f 28/28/28 37/37/37 38/38/38
f 27/27/27 38/38/38 39/39/39
f 26/26/26 39/39/39 40/40/40
f 40/40/40 41/41/41 24/24/24
f 41/41/41 42/42/42 23/23/23
f 23/23/23 42/42/42 43/43/43
f 43/43/43 44/44/44 21/21/21
f 2/2/2 29/29/29 93/93/93
f 93/93/93 29/29/29 30/30/30
f 30/30/30 31/31/31 95/95/95
f 31/31/31 32/32/32 96/96/96
f 32/32/32 33/33/33 97/97/97
f 33/33/33 34/34/34 98/98/98
f 98/98/98 34/34/34 35/35/35
f 99/99/99 35/35/35 36/36/36
