o GNATVCloth
v -5.0249 -4.96401 0.62672
v 5.05309 -4.9893 0.358168
v -5.01298 5.02105 0.004229
v 4.98702 5.02105 0.004229
v -3.92995 -5.02705 0.419453
v -2.8106 -5.06323 0.436459
v -1.68616 -5.08831 0.425742
v -0.558946 -5.1064 0.393031
v 0.57046 -5.11502 0.352165
v 1.69753 -5.0992 0.336611
v 2.82029 -5.06542 0.349085
v 3.93978 -5.02321 0.326719
v 3.87756 4.86819 0.231197
v 2.77091 4.7599 0.429928
v 1.64817 4.71884 0.457179
v 0.52964 4.67656 0.510985
v -0.579696 4.63987 0.626921
v -1.69027 4.69219 0.506878
v -2.80884 4.73085 0.441242
v -3.90666 4.85014 0.2282
v -4.97394 3.9089 0.0958388
v -4.96139 2.79356 0.127008
v -4.9622 1.67878 0.156922
v -4.96396 0.564256 0.161625
v -4.97057 -0.547975 0.211293
v -4.98117 -1.65998 0.266304
v -4.99754 -2.7712 0.322371
v -5.01891 -3.87955 0.396851
v 5.02902 -3.88208 0.280127
v 5.00935 -2.77346 0.20833
v 4.98777 -1.66247 0.173396
v 4.97096 -0.547925 0.156919
v 4.9651 0.564164 0.146579
v 4.96281 1.67753 0.136161
v 4.96606 2.7925 0.128128
v 4.96145 3.90694 0.0745021
v -3.84405 -3.87818 0.413326
v -3.79606 -3.23043 0.377321
v -3.63634 -1.94666 0.258772
v -4.08115 -0.283716 0.212543
v -4.10644 0.733263 0.235575
v -4.09899 1.51597 0.181095
v -4.0368 2.8094 0.0890088
v -3.93851 3.86572 -0.204199
v -2.71507 -4.04113 0.35707
v -2.77429 -2.77368 0.267139
v -2.64698 -2.18434 0.280825
v -2.71187 -0.639515 0.249317
v -2.74142 0.492716 0.203678
v -2.68224 1.52362 0.00544435
v -2.86145 2.82849 -0.304667
v -2.76661 3.48129 -0.0624739
v -1.65428 -4.28306 0.394185
v -1.48469 -2.96966 0.400356
v -1.85696 -1.67284 0.365525
v -1.83504 -0.883491 0.240782
v -1.53512 0.553226 -0.214492
v -2.01067 1.60732 -0.334268
v -1.73682 2.62205 -0.091627
v -1.57507 3.59817 0.166954
v -0.228371 -4.38005 0.359905
v -0.578319 -2.95018 0.301479
v -0.528667 -1.81404 0.163509
v -0.836078 -0.861906 -0.058227
v -0.611784 0.334831 -0.292237
v -0.377385 1.36985 -0.276363
v -0.575543 2.53481 -0.0756427
v -0.756611 3.39399 0.152638
v 0.744712 -3.95207 0.320352
v 0.821241 -2.67682 0.249784
v 0.538235 -1.9099 0.0522978
v 0.61889 -0.587411 -0.14851
v 0.584164 0.319252 -0.221883
v 0.297047 1.41897 -0.214523
v 0.52338 2.37784 -0.106429
v 0.545205 3.58887 0.294806
v 1.96112 -3.69658 0.314324
v 1.67767 -2.8935 0.393082
v 1.82193 -1.97011 0.285414
v 1.99015 -0.463961 0.00421749
v 1.97781 0.214 -0.115245
v 1.83174 1.46648 -0.301184
v 1.40784 2.72772 -0.126093
v 1.47852 3.53293 0.171798
v 2.80624 -3.95047 0.299101
v 3.1051 -2.85939 0.310166
v 2.95164 -1.98624 0.408159
v 2.71082 -0.539237 0.201365
v 2.95374 0.25582 0.13345
v 3.06612 1.539 -0.0686832
v 2.76687 3.09943 -0.239904
v 2.74058 3.43394 -0.0777659
v 3.93243 -3.97997 0.309598
v 3.66556 -2.72918 0.271318
v 3.86735 -1.68812 0.297417
v 3.80177 -0.735509 0.360772
v 3.85419 0.276903 0.307819
v 4.14453 1.79464 0.187664
v 4.12392 2.74737 0.0199229
v 4.0333 3.86088 -0.164803
vt 0.0001 0.0001
vt 0.9999 0.0001
vt 0.0001 0.9999
vt 0.9999 0.9999
vt 0.111189 0.0001
vt 0.222278 0.0001
vt 0.333367 0.0001
vt 0.444455 0.0001
vt 0.555544 0.0001
vt 0.666633 0.0001
vt 0.777722 0.0001
vt 0.888811 0.0001
vt 0.888811 0.9999
vt 0.777722 0.9999
vt 0.666633 0.9999
vt 0.555544 0.9999
vt 0.444455 0.9999
vt 0.333367 0.9999
vt 0.222278 0.9999
vt 0.111189 0.9999
vt 0.0001 0.888811
vt 0.0001 0.777722
vt 0.0001 0.666633
vt 0.0001 0.555544
vt 0.0001 0.444456
vt 0.0001 0.333367
vt 0.0001 0.222278
vt 0.0001 0.111189
vt 0.9999 0.111189
vt 0.9999 0.222278
vt 0.9999 0.333367
vt 0.9999 0.444456
vt 0.9999 0.555544
vt 0.9999 0.666633
vt 0.9999 0.777722
vt 0.9999 0.888811
vt 0.11727 0.115399
vt 0.120778 0.180369
vt 0.134636 0.309595
vt 0.088728 0.473895
vt 0.085886 0.575352
vt 0.086211 0.65375
vt 0.092207 0.78313
vt 0.106956 0.892282
vt 0.22987 0.102869
vt 0.221803 0.229552
vt 0.233521 0.288953
vt 0.225541 0.443179
vt 0.221596 0.556167
vt 0.227801 0.661237
vt 0.214896 0.795203
vt 0.22542 0.865181
vt 0.335524 0.082127
vt 0.351143 0.213907
vt 0.311934 0.342467
vt 0.313159 0.422214
vt 0.347791 0.572605
vt 0.301482 0.677733
vt 0.329031 0.783086
vt 0.344903 0.885466
vt 0.476837 0.074882
vt 0.441952 0.218774
vt 0.445749 0.333088
vt 0.416414 0.43099
vt 0.439746 0.552976
vt 0.463203 0.656843
vt 0.444252 0.77653
vt 0.426137 0.866051
vt 0.573419 0.117409
vt 0.581125 0.246686
vt 0.552512 0.326
vt 0.561075 0.459693
vt 0.558356 0.550596
vt 0.530299 0.662189
vt 0.553275 0.760113
vt 0.555478 0.888821
vt 0.694433 0.13996
vt 0.667048 0.221666
vt 0.681985 0.314267
vt 0.698218 0.467249
vt 0.696819 0.535952
vt 0.68253 0.662758
vt 0.642062 0.791726
vt 0.648523 0.877957
vt 0.778029 0.111667
vt 0.809426 0.219523
vt 0.794923 0.307783
vt 0.772028 0.454562
vt 0.796846 0.533374
vt 0.807262 0.663157
vt 0.778581 0.821037
vt 0.775122 0.858219
vt 0.890224 0.104741
vt 0.865679 0.23076
vt 0.887326 0.334104
vt 0.881307 0.429754
vt 0.887973 0.53063
vt 0.918106 0.681428
vt 0.915043 0.778027
vt 0.904815 0.89094
vn 0.193379 0.202425 0.960015
vn -0.00412135 0.0434982 0.999045
vn 0.0218072 -0.15782 0.987227
vn -0.0104859 -0.13572 0.990692
vn 0.055303 0.072426 0.995839
vn 0.00963634 0.0490244 0.998751
vn 0.0199924 0.0383604 0.999064
vn 0.0307554 0.0335235 0.998965
vn 0.0268072 0.0256958 0.99931
vn 0.00606229 0.0243439 0.999685
vn -0.000411212 0.0352897 0.999377
vn -0.00469016 0.0163759 0.999855
vn 0.215229 -0.328291 0.919729
vn 0.14144 -0.321596 0.936253
vn 0.0439998 -0.239683 0.969854
vn 0.093703 -0.208606 0.973501
vn -0.0322304 -0.3001 0.953363
vn -0.0914274 -0.304244 0.948196
vn -0.163584 -0.359554 0.918674
vn -0.227931 -0.385379 0.894165
vn 0.202396 0.117731 0.972201
vn 0.0405761 0.0275705 0.998796
vn -0.018875 0.0431571 0.99889
vn -0.0609012 0.00815877 0.998111
vn -0.0154055 0.0471256 0.99877
vn 0.00412482 0.0435906 0.999041
vn -0.00449911 0.0702637 0.997518
vn 0.0366105 0.0837671 0.995813
vn 0.0207504 0.067861 0.997479
vn 0.056073 0.0263497 0.998079
vn 0.129964 -0.00261984 0.991515
vn 0.158392 0.0233597 0.9871
vn 0.1118 0.0243387 0.993433
vn 0.0639887 0.00823673 0.997917
vn -0.067278 0.0748761 0.994921
vn -0.21244 0.0842074 0.973539
vn 0.0148065 0.038496 0.999149
vn 0.0262643 0.0709718 0.997132
vn 0.00336141 0.0402965 0.999182
vn -0.0168418 0.0200965 0.999656
vn 0.0024798 0.0469861 0.998892
vn 0.0540323 0.0685728 0.996182
vn 0.156088 0.132047 0.978877
vn -0.00529975 -0.139356 0.990228
vn 0.00780805 0.0571153 0.998337
vn -0.0156057 0.0411386 0.999032
vn -0.0736414 0.00267613 0.997281
vn -0.016356 0.0488356 0.998673
vn 0.164284 0.125568 0.978388
vn 0.244503 0.167167 0.95513
vn 0.0647163 -0.00753283 0.997875
vn -0.196156 -0.319358 0.92711
vn 0.0215261 0.0311663 0.999282
vn 0.0052569 0.0330957 0.999438
vn 0.0750338 0.111127 0.990969
vn 0.18945 0.162495 0.968351
vn 0.180336 0.160322 0.970451
vn 0.123724 0.027148 0.991945
vn -0.119936 -0.241967 0.962844
vn -0.100287 -0.301536 0.948166
vn 0.0281941 0.0357272 0.998964
vn 0.0558477 0.0865977 0.994677
vn 0.113927 0.159304 0.980634
vn 0.149743 0.208731 0.966441
vn 0.00264809 0.0645817 0.997909
vn -0.029763 -0.0610504 0.997691
vn -0.0340175 -0.237018 0.97091
vn -0.0526194 -0.295584 0.953867
vn -0.00469521 0.0196826 0.999795
vn -0.0868892 0.137776 0.986645
vn -0.0241898 0.171146 0.984949
vn -0.0489654 0.155971 0.986547
vn -0.0392533 0.0563819 0.997637
vn -0.0238976 -0.0454355 0.998681
vn 0.0290513 -0.189602 0.981431
vn 0.0486462 -0.284872 0.95733
vn 0.0241088 -0.0305088 0.999244
vn -0.0405544 0.0106103 0.999121
vn -0.149013 0.16238 0.975412
vn -0.183574 0.183726 0.965684
vn -0.171311 0.143842 0.97466
vn -0.0218132 -2.29463e-05 0.999762
vn 0.120555 -0.249295 0.960895
vn 0.111728 -0.309751 0.94423
vn 0.00105822 0.0159425 0.999872
vn 0.0457565 -0.0419251 0.998072
vn 0.0133247 0.0103463 0.999858
vn -0.180944 0.148939 0.972151
vn -0.201373 0.136619 0.96994
vn -0.216188 0.128337 0.96788
vn 0.0178214 -0.148519 0.988749
vn 0.168665 -0.387626 0.906255
vn 0.0152224 0.0362197 0.999228
vn 0.0761726 -0.0193296 0.996907
vn 0.108179 -0.0333087 0.993573
vn 0.0213579 0.0359806 0.999124
vn -0.034603 0.0783765 0.996323
vn -0.0674371 0.0889935 0.993747
vn -0.183677 0.123928 0.975143
vn 0.0229538 -0.161583 0.986592
f 100/100/100 4/4/4 13/13/13
f 44/44/44 3/3/3 21/21/21
f 44/44/44 19/19/19 20/20/20
f 60/60/60 19/19/19 52/52/52
f 60/60/60 17/17/17 18/18/18
f 76/76/76 17/17/17 68/68/68
f 84/84/84 16/16/16 76/76/76
f 84/84/84 14/14/14 15/15/15
f 100/100/100 14/14/14 92/92/92
f 11/11/11 93/93/93 85/85/85
f 93/93/93 86/86/86 85/85/85
f 94/94/94 87/87/87 86/86/86
f 87/87/87 96/96/96 88/88/88
f 96/96/96 89/89/89 88/88/88
f 97/97/97 90/90/90 89/89/89
f 90/90/90 99/99/99 91/91/91
f 91/91/91 100/100/100 92/92/92
f 10/10/10 85/85/85 77/77/77
f 77/77/77 86/86/86 78/78/78
f 78/78/78 87/87/87 79/79/79
f 79/79/79 88/88/88 80/80/80
f 88/88/88 81/81/81 80/80/80
f 81/81/81 90/90/90 82/82/82
f 82/82/82 91/91/91 83/83/83
f 91/91/91 84/84/84 83/83/83
f 10/10/10 69/69/69 9/9/9
f 69/69/69 78/78/78 70/70/70
f 70/70/70 79/79/79 71/71/71
f 79/79/79 72/72/72 71/71/71
f 72/72/72 81/81/81 73/73/73
f 73/73/73 82/82/82 74/74/74
f 82/82/82 75/75/75 74/74/74
f 83/83/83 76/76/76 75/75/75
f 9/9/9 61/61/61 8/8/8
f 69/69/69 62/62/62 61/61/61
f 62/62/62 71/71/71 63/63/63
f 63/63/63 72/72/72 64/64/64
f 72/72/72 65/65/65 64/64/64
f 65/65/65 74/74/74 66/66/66
f 66/66/66 75/75/75 67/67/67
f 67/67/67 76/76/76 68/68/68
f 8/8/8 53/53/53 7/7/7
f 53/53/53 62/62/62 54/54/54
f 54/54/54 63/63/63 55/55/55
f 55/55/55 64/64/64 56/56/56
f 64/64/64 57/57/57 56/56/56
f 57/57/57 66/66/66 58/58/58
f 58/58/58 67/67/67 59/59/59
f 59/59/59 68/68/68 60/60/60
f 6/6/6 53/53/53 45/45/45
f 45/45/45 54/54/54 46/46/46
f 54/54/54 47/47/47 46/46/46
f 55/55/55 48/48/48 47/47/47
f 56/56/56 49/49/49 48/48/48
f 49/49/49 58/58/58 50/50/50
f 58/58/58 51/51/51 50/50/50
f 59/59/59 52/52/52 51/51/51
f 6/6/6 37/37/37 5/5/5
f 45/45/45 38/38/38 37/37/37
f 46/46/46 39/39/39 38/38/38
f 39/39/39 48/48/48 40/40/40
f 40/40/40 49/49/49 41/41/41
f 41/41/41 50/50/50 42/42/42
f 50/50/50 43/43/43 42/42/42
f 51/51/51 44/44/44 43/43/43
f 5/5/5 28/28/28 1/1/1
f 28/28/28 38/38/38 27/27/27
f 27/27/27 39/39/39 26/26/26
f 26/26/26 40/40/40 25/25/25
f 40/40/40 24/24/24 25/25/25
f 41/41/41 23/23/23 24/24/24
f 23/23/23 43/43/43 22/22/22
f 43/43/43 21/21/21 22/22/22
f 2/2/2 93/93/93 12/12/12
f 93/93/93 30/30/30 94/94/94
f 30/30/30 95/95/95 94/94/94
f 31/31/31 96/96/96 95/95/95
f 32/32/32 97/97/97 96/96/96
f 33/33/33 98/98/98 97/97/97
f 98/98/98 35/35/35 99/99/99
f 99/99/99 36/36/36 100/100/100
f 100/100/100 36/36/36 4/4/4
f 44/44/44 20/20/20 3/3/3
f 44/44/44 52/52/52 19/19/19
f 60/60/60 18/18/18 19/19/19
f 60/60/60 68/68/68 17/17/17
f 76/76/76 16/16/16 17/17/17
f 84/84/84 15/15/15 16/16/16
f 84/84/84 92/92/92 14/14/14
f 100/100/100 13/13/13 14/14/14
f 11/11/11 12/12/12 93/93/93
f 93/93/93 94/94/94 86/86/86
f 94/94/94 95/95/95 87/87/87
f 87/87/87 95/95/95 96/96/96
f 96/96/96 97/97/97 89/89/89
f 97/97/97 98/98/98 90/90/90
f 90/90/90 98/98/98 99/99/99
f 91/91/91 99/99/99 100/100/100
f 10/10/10 11/11/11 85/85/85
f 77/77/77 85/85/85 86/86/86
f 78/78/78 86/86/86 87/87/87
f 79/79/79 87/87/87 88/88/88
f 88/88/88 89/89/89 81/81/81
f 81/81/81 89/89/89 90/90/90
f 82/82/82 90/90/90 91/91/91
f 91/91/91 92/92/92 84/84/84
f 10/10/10 77/77/77 69/69/69
f 69/69/69 77/77/77 78/78/78
f 70/70/70 78/78/78 79/79/79
f 79/79/79 80/80/80 72/72/72
f 72/72/72 80/80/80 81/81/81
f 73/73/73 81/81/81 82/82/82
f 82/82/82 83/83/83 75/75/75
f 83/83/83 84/84/84 76/76/76
f 9/9/9 69/69/69 61/61/61
f 69/69/69 70/70/70 62/62/62
f 62/62/62 70/70/70 71/71/71
f 63/63/63 71/71/71 72/72/72
f 72/72/72 73/73/73 65/65/65
f 65/65/65 73/73/73 74/74/74
f 66/66/66 74/74/74 75/75/75
f 67/67/67 75/75/75 76/76/76
f 8/8/8 61/61/61 53/53/53
f 53/53/53 61/61/61 62/62/62
f 54/54/54 62/62/62 63/63/63
f 55/55/55 63/63/63 64/64/64
f 64/64/64 65/65/65 57/57/57
f 57/57/57 65/65/65 66/66/66
f 58/58/58 66/66/66 67/67/67
f 59/59/59 67/67/67 68/68/68
f 6/6/6 7/7/7 53/53/53
f 45/45/45 53/53/53 54/54/54
f 54/54/54 55/55/55 47/47/47
f 55/55/55 56/56/56 48/48/48
f 56/56/56 57/57/57 49/49/49
f 49/49/49 57/57/57 58/58/58
f 58/58/58 59/59/59 51/51/51
f 59/59/59 60/60/60 52/52/52
f 6/6/6 45/45/45 37/37/37
f 45/45/45 46/46/46 38/38/38
f 46/46/46 47/47/47 39/39/39
f 39/39/39 47/47/47 48/48/48
f 40/40/40 48/48/48 49/49/49
f 41/41/41 49/49/49 50/50/50
f 50/50/50 51/51/51 43/43/43
f 51/51/51 52/52/52 44/44/44
f 5/5/5 37/37/37 28/28/28
f 28/28/28 37/37/37 38/38/38
f 27/27/27 38/38/38 39/39/39
f 26/26/26 39/39/39 40/40/40
f 40/40/40 41/41/41 24/24/24
f 41/41/41 42/42/42 23/23/23
f 23/23/23 42/42/42 43/43/43
f 43/43/43 44/44/44 21/21/21
f 2/2/2 29/29/29 93/93/93
f 93/93/93 29/29/29 30/30/30
f 30/30/30 31/31/31 95/95/95
f 31/31/31 32/32/32 96/96/96
f 32/32/32 33/33/33 97/97/97
f 33/33/33 34/34/34 98/98/98
f 98/98/98 34/34/34 35/35/35
f 99/99/99 35/35/35 36/36/36
