o GNATVCloth
v -5.08911 -4.97223 0.530813
v 4.96668 -4.98733 0.440233
v -5.01298 5.02105 0.004229
v 4.98702 5.02105 0.004229
v -3.97716 -5.00095 0.53374
v -2.86535 -5.03279 0.453487
v -1.74505 -5.05181 0.44948
v -0.623017 -5.06549 0.439673
v 0.500968 -5.06983 0.404642
v 1.62279 -5.05211 0.390437
v 2.74044 -5.03319 0.442202
v 3.85524 -5.00638 0.476165
v 3.85334 4.95146 0.154058
v 2.72604 4.90702 0.290091
v 1.59978 4.83674 0.376542
v 0.481037 4.78334 0.476843
v -0.638136 4.73253 0.42744
v -1.74221 4.72 0.265295
v -2.83643 4.77116 0.501389
v -3.91792 4.88351 0.254876
v -4.9978 3.90895 0.0843298
v -4.99859 2.79499 0.114626
v -5.00392 1.68225 0.152738
v -5.01712 0.570296 0.201923
v -5.02821 -0.540226 0.272199
v -5.03927 -1.64909 0.355615
v -5.04844 -2.7573 0.456525
v -5.06365 -3.86351 0.548034
v 4.95473 -3.88025 0.342862
v 4.94875 -2.76914 0.295801
v 4.94528 -1.65836 0.272061
v 4.94433 -0.545961 0.2415
v 4.94349 0.566826 0.217263
v 4.9443 1.67995 0.1787
v 4.95099 2.79399 0.139718
v 4.95708 3.90657 0.0605484
v -3.90015 -3.8576 0.392399
v -3.86138 -3.21516 0.295252
v -3.7055 -1.93028 0.203127
v -4.14143 -0.274159 0.176906
v -4.15765 0.744764 0.201436
v -4.14364 1.52769 0.167122
v -4.07524 2.81833 0.108407
v -3.9428 3.88103 -0.134735
v -2.77863 -4.01787 0.287107
v -2.8424 -2.75144 0.237027
v -2.72156 -2.15895 0.288606
v -2.78522 -0.614925 0.336025
v -2.80542 0.51774 0.320325
v -2.7247 1.5547 0.157405
v -2.86221 2.86467 -0.138613
v -2.82907 3.47348 0.214696
v -1.71886 -4.24346 0.343682
v -1.55537 -2.93183 0.383834
v -1.94164 -1.64215 0.445441
v -1.91393 -0.846355 0.398788
v -1.55479 0.621057 0.0985372
v -2.00535 1.67083 -0.0389523
v -1.76313 2.70186 0.178075
v -1.62409 3.63621 0.355281
v -0.296649 -4.32762 0.377929
v -0.642068 -2.89175 0.398187
v -0.598785 -1.75824 0.457824
v -0.882872 -0.785452 0.329598
v -0.641077 0.424649 0.208905
v -0.404535 1.46367 0.22967
v -0.607118 2.64399 0.302673
v -0.798913 3.46818 0.366458
v 0.673839 -3.90162 0.379528
v 0.756397 -2.61073 0.440548
v 0.473224 -1.82057 0.419784
v 0.564487 -0.497486 0.35074
v 0.539098 0.409635 0.294266
v 0.260439 1.51911 0.340692
v 0.491596 2.49214 0.351528
v 0.506137 3.72012 0.438141
v 1.88928 -3.64779 0.446038
v 1.61217 -2.84668 0.336505
v 1.77243 -1.92276 0.410412
v 1.93291 -0.388375 0.345179
v 1.91781 0.268981 0.149148
v 1.79049 1.53205 0.241318
v 1.38383 2.81397 0.303586
v 1.4469 3.64359 0.364937
v 2.7331 -3.91584 0.423228
v 3.04055 -2.83275 0.345918
v 2.89361 -1.95987 0.244775
v 2.67257 -0.498586 0.361901
v 2.91397 0.29286 0.263502
v 3.02587 1.5697 0.0112751
v 2.74177 3.13874 0.0957269
v 2.71133 3.49938 0.153962
v 3.85619 -3.96876 0.334997
v 3.60445 -2.71171 0.336928
v 3.81859 -1.67366 0.295008
v 3.7609 -0.718292 0.262815
v 3.82531 0.292058 0.307335
v 4.12476 1.80622 0.184113
v 4.11183 2.75566 0.000645556
v 4.0031 3.88327 -0.0348318
vt 0.0001 0.0001
vt 0.9999 0.0001
vt 0.0001 0.9999
vt 0.9999 0.9999
vt 0.111189 0.0001
vt 0.222278 0.0001
vt 0.333367 0.0001
vt 0.444455 0.0001
vt 0.555544 0.0001
vt 0.666633 0.0001
vt 0.777722 0.0001
vt 0.888811 0.0001
vt 0.888811 0.9999
vt 0.777722 0.9999
vt 0.666633 0.9999
vt 0.555544 0.9999
vt 0.444455 0.9999
vt 0.333367 0.9999
vt 0.222278 0.9999
vt 0.111189 0.9999
vt 0.0001 0.888811
vt 0.0001 0.777722
vt 0.0001 0.666633
vt 0.0001 0.555544
vt 0.0001 0.444456
vt 0.0001 0.333367
vt 0.0001 0.222278
vt 0.0001 0.111189
vt 0.9999 0.111189
vt 0.9999 0.222278
vt 0.9999 0.333367
vt 0.9999 0.444456
vt 0.9999 0.555544
vt 0.9999 0.666633
vt 0.9999 0.777722
vt 0.9999 0.888811
vt 0.11727 0.115399
vt 0.120778 0.180369
vt 0.134636 0.309595
vt 0.088728 0.473895
vt 0.085886 0.575352
vt 0.086211 0.65375
vt 0.092207 0.78313
vt 0.106956 0.892282
vt 0.22987 0.102869
vt 0.221803 0.229552
vt 0.233521 0.288953
vt 0.225541 0.443179
vt 0.221596 0.556167
vt 0.227801 0.661237
vt 0.214896 0.795203
vt 0.22542 0.865181
vt 0.335524 0.082127
vt 0.351143 0.213907
vt 0.311934 0.342467
vt 0.313159 0.422214
vt 0.347791 0.572605
vt 0.301482 0.677733
vt 0.329031 0.783086
vt 0.344903 0.885466
vt 0.476837 0.074882
vt 0.441952 0.218774
vt 0.445749 0.333088
vt 0.416414 0.43099
vt 0.439746 0.552976
vt 0.463203 0.656843
vt 0.444252 0.77653
vt 0.426137 0.866051
vt 0.573419 0.117409
vt 0.581125 0.246686
vt 0.552512 0.326
vt 0.561075 0.459693
vt 0.558356 0.550596
vt 0.530299 0.662189
vt 0.553275 0.760113
vt 0.555478 0.888821
vt 0.694433 0.13996
vt 0.667048 0.221666
vt 0.681985 0.314267
vt 0.698218 0.467249
vt 0.696819 0.535952
vt 0.68253 0.662758
vt 0.642062 0.791726
vt 0.648523 0.877957
vt 0.778029 0.111667
vt 0.809426 0.219523
vt 0.794923 0.307783
vt 0.772028 0.454562
vt 0.796846 0.533374
vt 0.807262 0.663157
vt 0.778581 0.821037
vt 0.775122 0.858219
vt 0.890224 0.104741
vt 0.865679 0.23076
vt 0.887326 0.334104
vt 0.881307 0.429754
vt 0.887973 0.53063
vt 0.918106 0.681428
vt 0.915043 0.778027
vt 0.904815 0.89094
vn -0.00303152 -0.0154609 0.999876
vn 0.00777063 0.111146 0.993774
vn -0.024083 -0.143212 0.989399
vn 0.0192938 -0.0509647 0.998514
vn 0.0678935 0.0718578 0.995102
vn 0.0441882 0.140582 0.989082
vn 0.00799533 0.129517 0.991545
vn 0.00768044 0.0968955 0.995265
vn 0.0106189 0.0375089 0.99924
vn -0.0172306 -0.00905362 0.999811
vn -0.000276596 0.0564647 0.998405
vn -0.00185131 0.134809 0.99087
vn 0.131563 -0.154702 0.979162
vn 0.132037 -0.0923705 0.986932
vn 0.0840124 -0.0204542 0.996255
vn 0.0409558 -0.0310911 0.998677
vn -0.0645234 -0.0147192 0.997808
vn 0.0349247 0.0864734 0.995642
vn -0.122824 -0.171746 0.977455
vn -0.246467 -0.345755 0.905377
vn 0.13932 0.0988052 0.985306
vn 0.00595641 0.0306919 0.999511
vn -0.00495642 0.0420819 0.999102
vn 0.0284561 0.0274905 0.999217
vn 0.0864154 0.0679706 0.993938
vn 0.11327 0.07033 0.991072
vn 0.149971 0.0733298 0.985967
vn 0.106105 0.0795722 0.991166
vn -0.0123704 0.064873 0.997817
vn 0.0180767 0.0255185 0.999511
vn 0.0179826 0.027923 0.999448
vn 0.037895 0.00122383 0.999281
vn 0.0501156 0.0416488 0.997875
vn 0.0119553 0.0347537 0.999324
vn -0.108338 0.0974164 0.98933
vn -0.122369 0.0485221 0.991298
vn 0.112635 0.132841 0.984716
vn 0.104482 0.0874237 0.990677
vn 0.0170851 0.0203404 0.999647
vn -0.0034661 0.0187424 0.999818
vn -0.026308 0.0404335 0.998836
vn -0.00131894 0.0446611 0.999001
vn 0.0846429 0.112107 0.990085
vn -0.102472 -0.133868 0.985687
vn 0.0133945 0.0852341 0.996271
vn -0.0537425 0.00330206 0.998549
vn -0.126107 -0.0576024 0.990343
vn -0.104461 -0.000516343 0.994529
vn 0.0322147 0.0932997 0.995117
vn 0.100818 0.143594 0.984488
vn -0.0764901 -0.0672481 0.9948
vn -0.256245 -0.305531 0.917055
vn -0.0169729 0.063282 0.997851
vn -0.0671914 -0.0389921 0.996978
vn -0.0530473 0.0117153 0.998523
vn 0.0308878 0.0959064 0.994911
vn 3.83865e-06 0.12254 0.992464
vn -0.0182176 0.0330804 0.999287
vn -0.16347 -0.207614 0.964455
vn -0.030335 -0.0747582 0.99674
vn -0.00404789 0.030244 0.999534
vn -0.0101347 -0.0284915 0.999543
vn 0.00123951 0.0238832 0.999714
vn -0.00795174 0.119947 0.992748
vn -0.0933158 0.0416023 0.994767
vn -0.140206 -0.00774014 0.990092
vn -0.0915507 -0.0999574 0.990771
vn -0.0538792 -0.0911223 0.994381
vn -0.00512572 0.00125128 0.999986
vn 0.0311618 -0.0303048 0.999055
vn 0.0116537 0.0182389 0.999766
vn -0.000355948 0.09782 0.995204
vn 0.0261562 -0.00464203 0.999647
vn -0.055492 -0.0130997 0.998373
vn -0.0112318 -0.0397959 0.999145
vn 0.00625473 -0.0600598 0.998175
vn -0.0148517 0.0456508 0.998847
vn 0.041947 0.0172817 0.99897
vn 0.055324 -0.0127396 0.998387
vn -0.0033259 0.165786 0.986156
vn 0.0236194 0.127708 0.99153
vn 0.116072 -0.03083 0.992762
vn 0.107333 -0.0528428 0.992818
vn 0.112216 -0.0690114 0.991285
vn 0.0344921 0.0197252 0.99921
vn 0.019617 0.0781918 0.996745
vn 0.0305264 0.0119815 0.999462
vn 0.0367207 0.0762469 0.996413
vn -0.0442262 0.122196 0.99152
vn -0.0156865 0.0846377 0.996288
vn 0.139548 -0.0568517 0.988582
vn 0.164042 -0.120158 0.979108
vn 0.0222403 0.0590062 0.99801
vn -0.000251071 0.0417682 0.999127
vn -0.0125162 0.0349778 0.99931
vn 0.0189427 0.00395194 0.999813
vn -0.0185431 0.0530848 0.998418
vn -0.0757898 0.104359 0.991648
vn -0.0823249 0.0768715 0.993636
vn 0.0719993 -0.0626363 0.995436
f 100/100/100 4/4/4 13/13/13
f 44/44/44 3/3/3 21/21/21
f 44/44/44 19/19/19 20/20/20
f 60/60/60 19/19/19 52/52/52
f 60/60/60 17/17/17 18/18/18
f 76/76/76 17/17/17 68/68/68
f 84/84/84 16/16/16 76/76/76
f 84/84/84 14/14/14 15/15/15
f 100/100/100 14/14/14 92/92/92
f 11/11/11 93/93/93 85/85/85
f 93/93/93 86/86/86 85/85/85
f 94/94/94 87/87/87 86/86/86
f 87/87/87 96/96/96 88/88/88
f 96/96/96 89/89/89 88/88/88
f 97/97/97 90/90/90 89/89/89
f 90/90/90 99/99/99 91/91/91
f 91/91/91 100/100/100 92/92/92
f 10/10/10 85/85/85 77/77/77
f 77/77/77 86/86/86 78/78/78
f 78/78/78 87/87/87 79/79/79
f 79/79/79 88/88/88 80/80/80
f 88/88/88 81/81/81 80/80/80
f 81/81/81 90/90/90 82/82/82
f 82/82/82 91/91/91 83/83/83
f 91/91/91 84/84/84 83/83/83
f 10/10/10 69/69/69 9/9/9
f 69/69/69 78/78/78 70/70/70
f 70/70/70 79/79/79 71/71/71
f 79/79/79 72/72/72 71/71/71
f 72/72/72 81/81/81 73/73/73
f 73/73/73 82/82/82 74/74/74
f 82/82/82 75/75/75 74/74/74
f 83/83/83 76/76/76 75/75/75
f 9/9/9 61/61/61 8/8/8
f 69/69/69 62/62/62 61/61/61
f 62/62/62 71/71/71 63/63/63
f 63/63/63 72/72/72 64/64/64
f 72/72/72 65/65/65 64/64/64
f 65/65/65 74/74/74 66/66/66
f 66/66/66 75/75/75 67/67/67
f 67/67/67 76/76/76 68/68/68
f 8/8/8 53/53/53 7/7/7
f 53/53/53 62/62/62 54/54/54
f 54/54/54 63/63/63 55/55/55
f 55/55/55 64/64/64 56/56/56
f 64/64/64 57/57/57 56/56/56
f 57/57/57 66/66/66 58/58/58
f 58/58/58 67/67/67 59/59/59
f 59/59/59 68/68/68 60/60/60
f 6/6/6 53/53/53 45/45/45
f 45/45/45 54/54/54 46/46/46
f 54/54/54 47/47/47 46/46/46
f 55/55/55 48/48/48 47/47/47
f 56/56/56 49/49/49 48/48/48
f 49/49/49 58/58/58 50/50/50
f 58/58/58 51/51/51 50/50/50
f 59/59/59 52/52/52 51/51/51
f 6/6/6 37/37/37 5/5/5
f 45/45/45 38/38/38 37/37/37
f 46/46/46 39/39/39 38/38/38
f 39/39/39 48/48/48 40/40/40
f 40/40/40 49/49/49 41/41/41
f 41/41/41 50/50/50 42/42/42
f 50/50/50 43/43/43 42/42/42
f 51/51/51 44/44/44 43/43/43
f 5/5/5 28/28/28 1/1/1
f 28/28/28 38/38/38 27/27/27
f 27/27/27 39/39/39 26/26/26
f 26/26/26 40/40/40 25/25/25
f 40/40/40 24/24/24 25/25/25
f 41/41/41 23/23/23 24/24/24
f 23/23/23 43/43/43 22/22/22
f 43/43/43 21/21/21 22/22/22
f 2/2/2 93/93/93 12/12/12
f 93/93/93 30/30/30 94/94/94
f 30/30/30 95/95/95 94/94/94
f 31/31/31 96/96/96 95/95/95
f 32/32/32 97/97/97 96/96/96
f 33/33/33 98/98/98 97/97/97
f 98/98/98 35/35/35 99/99/99
f 99/99/99 36/36/36 100/100/100
f 100/100/100 36/36/36 4/4/4
f 44/44/44 20/20/20 3/3/3
f 44/44/44 52/52/52 19/19/19
f 60/60/60 18/18/18 19/19/19
f 60/60/60 68/68/68 17/17/17
f 76/76/76 16/16/16 17/17/17
f 84/84/84 15/15/15 16/16/16
f 84/84/84 92/92/92 14/14/14
f 100/100/100 13/13/13 14/14/14
f 11/11/11 12/12/12 93/93/93
f 93/93/93 94/94/94 86/86/86
f 94/94/94 95/95/95 87/87/87
f 87/87/87 95/95/95 96/96/96
f 96/96/96 97/97/97 89/89/89
f 97/97/97 98/98/98 90/90/90
f 90/90/90 98/98/98 99/99/99
f 91/91/91 99/99/99 100/100/100
f 10/10/10 11/11/11 85/85/85
f 77/77/77 85/85/85 86/86/86
f 78/78/78 86/86/86 87/87/87
f 79/79/79 87/87/87 88/88/88
f 88/88/88 89/89/89 81/81/81
f 81/81/81 89/89/89 90/90/90
f 82/82/82 90/90/90 91/91/91
f 91/91/91 92/92/92 84/84/84
f 10/10/10 77/77/77 69/69/69
f 69/69/69 77/77/77 78/78/78
f 70/70/70 78/78/78 79/79/79
f 79/79/79 80/80/80 72/72/72
f 72/72/72 80/80/80 81/81/81
f 73/73/73 81/81/81 82/82/82
f 82/82/82 83/83/83 75/75/75
f 83/83/83 84/84/84 76/76/76
f 9/9/9 69/69/69 61/61/61
f 69/69/69 70/70/70 62/62/62
f 62/62/62 70/70/70 71/71/71
f 63/63/63 71/71/71 72/72/72
f 72/72/72 73/73/73 65/65/65
f 65/65/65 73/73/73 74/74/74
f 66/66/66 74/74/74 75/75/75
f 67/67/67 75/75/75 76/76/76
f 8/8/8 61/61/61 53/53/53
f 53/53/53 61/61/61 62/62/62
f 54/54/54 62/62/62 63/63/63
f 55/55/55 63/63/63 64/64/64
f 64/64/64 65/65/65 57/57/57
f 57/57/57 65/65/65 66/66/66
f 58/58/58 66/66/66 67/67/67
f 59/59/59 67/67/67 68/68/68
f 6/6/6 7/7/7 53/53/53
f 45/45/45 53/53/53 54/54/54
f 54/54/54 55/55/55 47/47/47
f 55/55/55 56/56/56 48/48/48
f 56/56/56 57/57/57 49/49/49
f 49/49/49 57/57/57 58/58/58
f 58/58/58 59/59/59 51/51/51
f 59/59/59 60/60/60 52/52/52
f 6/6/6 45/45/45 37/37/37
f 45/45/45 46/46/46 38/38/38
f 46/46/46 47/47/47 39/39/39
f 39/39/39 47/47/47 48/48/48
f 40/40/40 48/48/48 49/49/49
f 41/41/41 49/49/49 50/50/50
f 50/50/50 51/51/51 43/43/43
f 51/51/51 52/52/52 44/44/44
f 5/5/5 37/37/37 28/28/28
f 28/28/28 37/37/37 38/38/38
f 27/27/27 38/38/38 39/39/39
f 26/26/26 39/39/39 40/40/40
f 40/40/40 41/41/41 24/24/24
f 41/41/41 42/42/42 23/23/23
f 23/23/23 42/42/42 43/43/43
f 43/43/43 44/44/44 21/21/21
f 2/2/2 29/29/29 93/93/93
f 93/93/93 29/29/29 30/30/30
f 30/30/30 31/31/31 95/95/95
f 31/31/31 32/32/32 96/96/96
f 32/32/32 33/33/33 97/97/97
f 33/33/33 34/34/34 98/98/98
f 98/98/98 34/34/34 35/35/35
f 99/99/99 35/35/35 36/36/36
