o GNATVCloth
v -4.94888 -4.97464 0.414531
v 5.04605 -4.98368 0.437518
v -5.01298 5.02105 0.004229
v 4.98702 5.02105 0.004229
v -3.84106 -4.98898 0.378109
v -2.73074 -5.01038 0.351811
v -1.62057 -5.00125 0.260698
v -0.50691 -5.01335 0.254604
v 0.603951 -5.01968 0.269053
v 1.71732 -5.02457 0.300935
v 2.83056 -5.01482 0.259212
v 3.9442 -5.00051 0.30827
v 3.87035 4.95093 0.118434
v 2.76357 4.90157 0.248454
v 1.66213 4.88453 0.394814
v 0.545652 4.88288 0.351759
v -0.563867 4.8812 0.298614
v -1.65014 4.88804 0.194363
v -2.76921 4.92915 0.185807
v -3.88383 4.96544 0.0631226
v -4.98736 3.90786 0.0616976
v -4.9736 2.79399 0.0814358
v -4.96549 1.68108 0.104662
v -4.96007 0.568198 0.135954
v -4.95212 -0.543923 0.203289
v -4.94986 -1.6572 0.260027
v -4.9416 -2.76061 0.38066
v -4.93921 -3.869 0.457452
v 5.0506 -3.87693 0.36068
v 5.05202 -2.76483 0.335328
v 5.04678 -1.65508 0.246587
v 5.04377 -0.546028 0.159061
v 5.03541 0.565686 0.107932
v 5.02551 1.67891 0.0838257
v 5.01541 2.79258 0.063678
v 4.99928 3.90663 0.0359322
v -3.77372 -3.84725 0.343667
v -3.73595 -3.19808 0.329306
v -3.6066 -1.91458 0.175009
v -4.06764 -0.265123 0.138227
v -4.1033 0.750455 0.163341
v -4.10318 1.5343 0.139428
v -4.05224 2.82832 0.128331
v -3.92041 3.89979 -0.0858141
v -2.65328 -3.98999 0.2703
v -2.73163 -2.72556 0.195158
v -2.61495 -2.13398 0.211181
v -2.707 -0.593458 0.308061
v -2.74963 0.536124 0.308179
v -2.6872 1.58357 0.227187
v -2.82541 2.90316 -0.0116823
v -2.75619 3.58073 0.168961
v -1.59763 -4.20815 0.277514
v -1.43887 -2.90069 0.260217
v -1.83856 -1.61388 0.344172
v -1.82899 -0.8182 0.317453
v -1.49117 0.67508 0.177483
v -1.96114 1.71903 0.0770739
v -1.71366 2.7533 0.278418
v -1.5533 3.75531 0.236453
v -0.182168 -4.27972 0.266099
v -0.529579 -2.85743 0.275677
v -0.498147 -1.71518 0.292572
v -0.797269 -0.741776 0.248268
v -0.569583 0.471845 0.226724
v -0.344676 1.50547 0.270861
v -0.552162 2.68421 0.329985
v -0.738601 3.55493 0.265013
v 0.785705 -3.85878 0.284674
v 0.863075 -2.57367 0.22349
v 0.571603 -1.79034 0.254993
v 0.652404 -0.464604 0.255542
v 0.619299 0.443227 0.260334
v 0.327421 1.55552 0.266494
v 0.546889 2.52466 0.27549
v 0.556486 3.79026 0.266611
v 1.99705 -3.62769 0.252467
v 1.72352 -2.81715 0.236029
v 1.87034 -1.90168 0.284171
v 2.02725 -0.372122 0.24889
v 2.00741 0.311782 0.244278
v 1.85282 1.57243 0.204232
v 1.43679 2.8533 0.295675
v 1.48857 3.70282 0.246916
v 2.83454 -3.89972 0.265288
v 3.14668 -2.82146 0.308938
v 3.001 -1.94827 0.252888
v 2.76628 -0.482341 0.305035
v 3.00995 0.307914 0.276503
v 3.10191 1.59506 0.194281
v 2.80413 3.16996 0.228056
v 2.76377 3.54289 0.214868
v 3.95578 -3.95532 0.301856
v 3.70812 -2.70213 0.344945
v 3.92123 -1.66742 0.295398
v 3.8594 -0.713467 0.236458
v 3.9225 0.294251 0.218327
v 4.20924 1.80671 0.1479
v 4.16642 2.76968 0.0731577
v 4.04609 3.89437 -0.00116983
vt 0.0001 0.0001
vt 0.9999 0.0001
vt 0.0001 0.9999
vt 0.9999 0.9999
vt 0.111189 0.0001
vt 0.222278 0.0001
vt 0.333367 0.0001
vt 0.444455 0.0001
vt 0.555544 0.0001
vt 0.666633 0.0001
vt 0.777722 0.0001
vt 0.888811 0.0001
vt 0.888811 0.9999
vt 0.777722 0.9999
vt 0.666633 0.9999
vt 0.555544 0.9999
vt 0.444455 0.9999
vt 0.333367 0.9999
vt 0.222278 0.9999
vt 0.111189 0.9999
vt 0.0001 0.888811
vt 0.0001 0.777722
vt 0.0001 0.666633
vt 0.0001 0.555544
vt 0.0001 0.444456
vt 0.0001 0.333367
vt 0.0001 0.222278
vt 0.0001 0.111189
vt 0.9999 0.111189
vt 0.9999 0.222278
vt 0.9999 0.333367
vt 0.9999 0.444456
vt 0.9999 0.555544
vt 0.9999 0.666633
vt 0.9999 0.777722
vt 0.9999 0.888811
vt 0.11727 0.115399
vt 0.120778 0.180369
vt 0.134636 0.309595
vt 0.088728 0.473895
vt 0.085886 0.575352
vt 0.086211 0.65375
vt 0.092207 0.78313
vt 0.106956 0.892282
vt 0.22987 0.102869
vt 0.221803 0.229552
vt 0.233521 0.288953
vt 0.225541 0.443179
vt 0.221596 0.556167
vt 0.227801 0.661237
vt 0.214896 0.795203
vt 0.22542 0.865181
vt 0.335524 0.082127
vt 0.351143 0.213907
vt 0.311934 0.342467
vt 0.313159 0.422214
vt 0.347791 0.572605
vt 0.301482 0.677733
vt 0.329031 0.783086
vt 0.344903 0.885466
vt 0.476837 0.074882
vt 0.441952 0.218774
vt 0.445749 0.333088
vt 0.416414 0.43099
vt 0.439746 0.552976
vt 0.463203 0.656843
vt 0.444252 0.77653
vt 0.426137 0.866051
vt 0.573419 0.117409
vt 0.581125 0.246686
vt 0.552512 0.326
vt 0.561075 0.459693
vt 0.558356 0.550596
vt 0.530299 0.662189
vt 0.553275 0.760113
vt 0.555478 0.888821
vt 0.694433 0.13996
vt 0.667048 0.221666
vt 0.681985 0.314267
vt 0.698218 0.467249
vt 0.696819 0.535952
vt 0.68253 0.662758
vt 0.642062 0.791726
vt 0.648523 0.877957
vt 0.778029 0.111667
vt 0.809426 0.219523
vt 0.794923 0.307783
vt 0.772028 0.454562
vt 0.796846 0.533374
vt 0.807262 0.663157
vt 0.778581 0.821037
vt 0.775122 0.858219
vt 0.890224 0.104741
vt 0.865679 0.23076
vt 0.887326 0.334104
vt 0.881307 0.429754
vt 0.887973 0.53063
vt 0.918106 0.681428
vt 0.915043 0.778027
vt 0.904815 0.89094
vn 0.0323294 -0.0390522 0.998714
vn -0.0876224 0.038418 0.995413
vn 0.0398045 -0.041387 0.99835
vn 0.0341078 -0.033271 0.998864
vn 0.0511317 0.00466438 0.998681
vn 0.0476141 0.0395312 0.998083
vn 0.0436338 -0.0224393 0.998796
vn -0.000237071 -0.0166831 0.999861
vn -0.0186787 -0.01002 0.999775
vn 0.00645258 0.0128597 0.999897
vn -0.0131595 -0.00143086 0.999912
vn -0.0804053 0.00700669 0.996738
vn 0.113685 -0.0930632 0.989149
vn 0.11215 -0.0709866 0.991153
vn 0.0474056 -0.1309 0.990261
vn -0.0239722 -0.091455 0.995521
vn -0.044908 -0.0238011 0.998708
vn -0.0508554 0.0327424 0.998169
vn -0.0981664 -0.0312687 0.994679
vn -0.0855401 -0.135028 0.987142
vn 0.0744012 0.0836365 0.993715
vn -0.05152 0.0187603 0.998496
vn -0.0407772 0.0222338 0.998921
vn -0.00339958 0.0210287 0.999773
vn 0.0557307 0.0558324 0.996884
vn 0.0707006 0.0673528 0.995221
vn 0.0778198 0.0962829 0.992307
vn 0.0734147 0.0177058 0.997144
vn -0.056887 0.0461162 0.997315
vn 0.00048475 0.028874 0.999583
vn 0.0462582 0.0743032 0.996162
vn 0.0682115 0.0463953 0.996592
vn 0.0869258 0.0325673 0.995682
vn 0.0814341 0.020534 0.996467
vn 0.033591 0.0405678 0.998612
vn -0.022798 0.0382501 0.999008
vn 0.0720238 0.0322842 0.99688
vn 0.0827805 0.06517 0.994435
vn 0.0141632 0.0394546 0.999121
vn -0.0296552 0.0116867 0.999492
vn -0.0611184 0.0195241 0.99794
vn -0.0497005 0.0205072 0.998554
vn 0.0190994 0.087333 0.995996
vn -0.0411269 -0.0134176 0.999064
vn 0.0345529 0.0511631 0.998092
vn 0.00928495 0.039587 0.999173
vn -0.0743836 -0.0536723 0.995784
vn -0.0732881 -0.0201182 0.997108
vn 0.00484217 0.045906 0.998934
vn 0.0397863 0.0955272 0.994631
vn -0.0765549 -0.000695558 0.997065
vn -0.177175 -0.0849452 0.980507
vn 0.0128559 0.00565124 0.999901
vn -0.0290998 -0.013853 0.99948
vn -0.0147319 -0.0161126 0.999762
vn 0.04157 0.0434183 0.998192
vn 0.00389998 0.0547524 0.998492
vn -0.0173768 0.00915013 0.999807
vn -0.121899 -0.0606211 0.990689
vn -0.0471933 0.0216676 0.998651
vn -0.00542816 -0.0110121 0.999925
vn 0.00908377 -0.00119563 0.999958
vn 0.019484 0.00216784 0.999808
vn 0.0165117 0.0430937 0.998935
vn -0.0272142 -0.00795603 0.999598
vn -0.0402097 -0.0259674 0.998854
vn -0.0239813 -0.0249952 0.9994
vn -0.0229914 0.0274156 0.99936
vn 0.00162982 0.0172889 0.999849
vn 0.00291151 -0.00581046 0.999979
vn 0.0124523 -0.0183713 0.999754
vn -0.00234328 0.00971431 0.99995
vn 0.00191817 0.00289887 0.999994
vn 0.0140615 -0.0164406 0.999766
vn 0.0200233 -0.0213912 0.999571
vn 0.000990568 -0.00579957 0.999983
vn -0.00777645 0.012707 0.999889
vn -0.0141317 0.00484961 0.999888
vn -0.0133736 -0.0188749 0.999732
vn -0.0346826 0.0161235 0.999268
vn -0.0144697 0.0263937 0.999547
vn 0.0252498 -0.0126549 0.999601
vn 0.0204435 -0.00070455 0.999791
vn 0.0320062 -0.0306692 0.999017
vn -0.0118547 -0.00779823 0.999899
vn -0.0486049 0.000235447 0.998818
vn -0.0207972 0.0159196 0.999657
vn -0.00483012 0.00647085 0.999967
vn 0.0261166 0.0401665 0.998852
vn 0.0317874 0.0366848 0.998821
vn 0.0768877 0.0220012 0.996797
vn 0.0944638 0.0102588 0.995475
vn -0.0488295 -0.000999925 0.998807
vn -0.035848 0.0160404 0.999229
vn -0.0068182 0.0617875 0.998066
vn 0.0404762 0.0311588 0.998695
vn 0.0674685 0.033744 0.997151
vn 0.054124 0.044432 0.997545
vn 0.0426612 0.053941 0.997632
vn 0.087497 0.00149012 0.996164
f 100/100/100 4/4/4 13/13/13
f 44/44/44 3/3/3 21/21/21
f 44/44/44 19/19/19 20/20/20
f 60/60/60 19/19/19 52/52/52
f 60/60/60 17/17/17 18/18/18
f 76/76/76 17/17/17 68/68/68
f 84/84/84 16/16/16 76/76/76
f 84/84/84 14/14/14 15/15/15
f 100/100/100 14/14/14 92/92/92
f 11/11/11 93/93/93 85/85/85
f 93/93/93 86/86/86 85/85/85
f 94/94/94 87/87/87 86/86/86
f 87/87/87 96/96/96 88/88/88
f 96/96/96 89/89/89 88/88/88
f 97/97/97 90/90/90 89/89/89
f 90/90/90 99/99/99 91/91/91
f 91/91/91 100/100/100 92/92/92
f 10/10/10 85/85/85 77/77/77
f 77/77/77 86/86/86 78/78/78
f 78/78/78 87/87/87 79/79/79
f 79/79/79 88/88/88 80/80/80
f 88/88/88 81/81/81 80/80/80
f 81/81/81 90/90/90 82/82/82
f 82/82/82 91/91/91 83/83/83
f 91/91/91 84/84/84 83/83/83
f 10/10/10 69/69/69 9/9/9
f 69/69/69 78/78/78 70/70/70
f 70/70/70 79/79/79 71/71/71
f 79/79/79 72/72/72 71/71/71
f 72/72/72 81/81/81 73/73/73
f 73/73/73 82/82/82 74/74/74
f 82/82/82 75/75/75 74/74/74
f 83/83/83 76/76/76 75/75/75
f 9/9/9 61/61/61 8/8/8
f 69/69/69 62/62/62 61/61/61
f 62/62/62 71/71/71 63/63/63
f 63/63/63 72/72/72 64/64/64
f 72/72/72 65/65/65 64/64/64
f 65/65/65 74/74/74 66/66/66
f 66/66/66 75/75/75 67/67/67
f 67/67/67 76/76/76 68/68/68
f 8/8/8 53/53/53 7/7/7
f 53/53/53 62/62/62 54/54/54
f 54/54/54 63/63/63 55/55/55
f 55/55/55 64/64/64 56/56/56
f 64/64/64 57/57/57 56/56/56
f 57/57/57 66/66/66 58/58/58
f 58/58/58 67/67/67 59/59/59
f 59/59/59 68/68/68 60/60/60
f 6/6/6 53/53/53 45/45/45
f 45/45/45 54/54/54 46/46/46
f 54/54/54 47/47/47 46/46/46
f 55/55/55 48/48/48 47/47/47
f 56/56/56 49/49/49 48/48/48
f 49/49/49 58/58/58 50/50/50
f 58/58/58 51/51/51 50/50/50
f 59/59/59 52/52/52 51/51/51
f 6/6/6 37/37/37 5/5/5
f 45/45/45 38/38/38 37/37/37
f 46/46/46 39/39/39 38/38/38
f 39/39/39 48/48/48 40/40/40
f 40/40/40 49/49/49 41/41/41
f 41/41/41 50/50/50 42/42/42
f 50/50/50 43/43/43 42/42/42
f 51/51/51 44/44/44 43/43/43
f 5/5/5 28/28/28 1/1/1
f 28/28/28 38/38/38 27/27/27
f 27/27/27 39/39/39 26/26/26
f 26/26/26 40/40/40 25/25/25
f 40/40/40 24/24/24 25/25/25
f 41/41/41 23/23/23 24/24/24
f 23/23/23 43/43/43 22/22/22
f 43/43/43 21/21/21 22/22/22
f 2/2/2 93/93/93 12/12/12
f 93/93/93 30/30/30 94/94/94
f 30/30/30 95/95/95 94/94/94
f 31/31/31 96/96/96 95/95/95
f 32/32/32 97/97/97 96/96/96
f 33/33/33 98/98/98 97/97/97
f 98/98/98 35/35/35 99/99/99
f 99/99/99 36/36/36 100/100/100
f 100/100/100 36/36/36 4/4/4
f 44/44/44 20/20/20 3/3/3
f 44/44/44 52/52/52 19/19/19
f 60/60/60 18/18/18 19/19/19
f 60/60/60 68/68/68 17/17/17
f 76/76/76 16/16/16 17/17/17
f 84/84/84 15/15/15 16/16/16
f 84/84/84 92/92/92 14/14/14
f 100/100/100 13/13/13 14/14/14
f 11/11/11 12/12/12 93/93/93
f 93/93/93 94/94/94 86/86/86
f 94/94/94 95/95/95 87/87/87
f 87/87/87 95/95/95 96/96/96
f 96/96/96 97/97/97 89/89/89
f 97/97/97 98/98/98 90/90/90
f 90/90/90 98/98/98 99/99/99
f 91/91/91 99/99/99 100/100/100
f 10/10/10 11/11/11 85/85/85
f 77/77/77 85/85/85 86/86/86
f 78/78/78 86/86/86 87/87/87
f 79/79/79 87/87/87 88/88/88
f 88/88/88 89/89/89 81/81/81
f 81/81/81 89/89/89 90/90/90
f 82/82/82 90/90/90 91/91/91
f 91/91/91 92/92/92 84/84/84
f 10/10/10 77/77/77 69/69/69
f 69/69/69 77/77/77 78/78/78
f 70/70/70 78/78/78 79/79/79
f 79/79/79 80/80/80 72/72/72
f 72/72/72 80/80/80 81/81/81
f 73/73/73 81/81/81 82/82/82
f 82/82/82 83/83/83 75/75/75
f 83/83/83 84/84/84 76/76/76
f 9/9/9 69/69/69 61/61/61
f 69/69/69 70/70/70 62/62/62
f 62/62/62 70/70/70 71/71/71
f 63/63/63 71/71/71 72/72/72
f 72/72/72 73/73/73 65/65/65
f 65/65/65 73/73/73 74/74/74
f 66/66/66 74/74/74 75/75/75
f 67/67/67 75/75/75 76/76/76
f 8/8/8 61/61/61 53/53/53
f 53/53/53 61/61/61 62/62/62
f 54/54/54 62/62/62 63/63/63
f 55/55/55 63/63/63 64/64/64
f 64/64/64 65/65/65 57/57/57
f 57/57/57 65/65/65 66/66/66
f 58/58/58 66/66/66 67/67/67
f 59/59/59 67/67/67 68/68/68
f 6/6/6 7/7/7 53/53/53
f 45/45/45 53/53/53 54/54/54
f 54/54/54 55/55/55 47/47/47
f 55/55/55 56/56/56 48/48/48
f 56/56/56 57/57/57 49/49/49
f 49/49/49 57/57/57 58/58/58
f 58/58/58 59/59/59 51/51/51
f 59/59/59 60/60/60 52/52/52
f 6/6/6 45/45/45 37/37/37
f 45/45/45 46/46/46 38/38/38
f 46/46/46 47/47/47 39/39/39
f 39/39/39 47/47/47 48/48/48
f 40/40/40 48/48/48 49/49/49
f 41/41/41 49/49/49 50/50/50
f 50/50/50 51/51/51 43/43/43
f 51/51/51 52/52/52 44/44/44
f 5/5/5 37/37/37 28/28/28
f 28/28/28 37/37/37 38/38/38
f 27/27/27 38/38/38 39/39/39
f 26/26/26 39/39/39 40/40/40
f 40/40/40 41/41/41 24/24/24
f 41/41/41 42/42/42 23/23/23
f 23/23/23 42/42/42 43/43/43
f 43/43/43 44/44/44 21/21/21
f 2/2/2 29/29/29 93/93/93
f 93/93/93 29/29/29 30/30/30
f 30/30/30 31/31/31 95/95/95
f 31/31/31 32/32/32 96/96/96
f 32/32/32 33/33/33 97/97/97
f 33/33/33 34/34/34 98/98/98
f 98/98/98 34/34/34 35/35/35
f 99/99/99 35/35/35 36/36/36
