o GNATVCloth
v -4.99727 -4.96937 0.618156
v 5.04867 -4.99149 0.392261
v -5.01298 5.02105 0.004229
v 4.98702 5.02105 0.004229
v -3.898 -5.00917 0.456903
v -2.78484 -5.03598 0.465038
v -1.66578 -5.06245 0.432716
v -0.544545 -5.08411 0.430776
v 0.578074 -5.09012 0.398468
v 1.6997 -5.07629 0.392965
v 2.81997 -5.04893 0.40209
v 3.93656 -5.02619 0.328697
v 3.87465 4.88541 0.215329
v 2.77329 4.77431 0.431926
v 1.65192 4.73765 0.379014
v 0.532501 4.69895 0.404235
v -0.572407 4.67342 0.589569
v -1.69052 4.7072 0.504971
v -2.8149 4.74153 0.493769
v -3.91008 4.86196 0.251927
v -4.97404 3.90921 0.0934761
v -4.9624 2.79433 0.122059
v -4.96361 1.68024 0.157377
v -4.96659 0.566926 0.187506
v -4.9687 -0.54511 0.23067
v -4.97522 -1.65598 0.280214
v -4.98288 -2.76832 0.343076
v -4.99262 -3.87555 0.431706
v 5.02796 -3.88131 0.316834
v 5.00928 -2.77544 0.204757
v 4.99334 -1.66359 0.172423
v 4.98367 -0.548632 0.170661
v 4.98038 0.563994 0.162997
v 4.97722 1.67762 0.139572
v 4.97604 2.7926 0.127181
v 4.96636 3.9069 0.0724375
v -3.81884 -3.85822 0.419775
v -3.77809 -3.21316 0.353688
v -3.62916 -1.92836 0.274991
v -4.08025 -0.273098 0.201001
v -4.10708 0.743307 0.20329
v -4.10099 1.52769 0.152213
v -4.03627 2.81988 0.0958784
v -3.93159 3.87672 -0.180903
v -2.69537 -4.01927 0.343305
v -2.76265 -2.75098 0.278575
v -2.63966 -2.15939 0.283434
v -2.71014 -0.616873 0.264826
v -2.7425 0.516855 0.222123
v -2.68666 1.54215 -0.00563172
v -2.85648 2.85286 -0.288085
v -2.76944 3.48897 -0.000223482
v -1.6373 -4.25136 0.3813
v -1.47522 -2.93652 0.409923
v -1.85722 -1.64097 0.387068
v -1.83361 -0.845273 0.312237
v -1.5371 0.573818 -0.204446
v -1.99783 1.63787 -0.302059
v -1.72502 2.66502 -0.102574
v -1.57543 3.62195 0.225289
v -0.216654 -4.34499 0.387164
v -0.567746 -2.90768 0.358883
v -0.525583 -1.77122 0.248994
v -0.826033 -0.813462 0.0637567
v -0.607403 0.38235 -0.140718
v -0.374219 1.38822 -0.174044
v -0.572867 2.56096 0.0332696
v -0.755537 3.4153 0.2237
v 0.751408 -3.9208 0.329606
v 0.826525 -2.64386 0.308792
v 0.539272 -1.86666 0.162397
v 0.621871 -0.558085 -0.100616
v 0.589362 0.35196 -0.114307
v 0.299843 1.44602 -0.110845
v 0.525966 2.3981 0.00340031
v 0.55079 3.61278 0.333963
v 1.96439 -3.67805 0.306003
v 1.68554 -2.87386 0.412323
v 1.8246 -1.9459 0.356429
v 1.98767 -0.437154 0.0837713
v 1.98673 0.229002 -0.0878591
v 1.83362 1.48356 -0.172565
v 1.40862 2.74418 -0.064858
v 1.49116 3.52474 0.265421
v 2.80696 -3.93747 0.294921
v 3.10695 -2.8502 0.291918
v 2.95702 -1.97703 0.406801
v 2.71293 -0.522336 0.25229
v 2.95882 0.268813 0.170408
v 3.08288 1.54411 -0.0866667
v 2.76832 3.10662 -0.209502
v 2.74736 3.4322 -0.0298389
v 3.93139 -3.97786 0.334169
v 3.66875 -2.72474 0.298833
v 3.87413 -1.68586 0.303111
v 3.80844 -0.729915 0.337012
v 3.86592 0.281447 0.288857
v 4.15853 1.79793 0.166711
v 4.13572 2.75096 0.00231355
v 4.03486 3.86692 -0.155317
vt 0.0001 0.0001
vt 0.9999 0.0001
vt 0.0001 0.9999
vt 0.9999 0.9999
vt 0.111189 0.0001
vt 0.222278 0.0001
vt 0.333367 0.0001
vt 0.444455 0.0001
vt 0.555544 0.0001
vt 0.666633 0.0001
vt 0.777722 0.0001
vt 0.888811 0.0001
vt 0.888811 0.9999
vt 0.777722 0.9999
vt 0.666633 0.9999
vt 0.555544 0.9999
vt 0.444455 0.9999
vt 0.333367 0.9999
vt 0.222278 0.9999
vt 0.111189 0.9999
vt 0.0001 0.888811
vt 0.0001 0.777722
vt 0.0001 0.666633
vt 0.0001 0.555544
vt 0.0001 0.444456
vt 0.0001 0.333367
vt 0.0001 0.222278
vt 0.0001 0.111189
vt 0.9999 0.111189
vt 0.9999 0.222278
vt 0.9999 0.333367
vt 0.9999 0.444456
vt 0.9999 0.555544
vt 0.9999 0.666633
vt 0.9999 0.777722
vt 0.9999 0.888811
vt 0.11727 0.115399
vt 0.120778 0.180369
vt 0.134636 0.309595
vt 0.088728 0.473895
vt 0.085886 0.575352
vt 0.086211 0.65375
vt 0.092207 0.78313
vt 0.106956 0.892282
vt 0.22987 0.102869
vt 0.221803 0.229552
vt 0.233521 0.288953
vt 0.225541 0.443179
vt 0.221596 0.556167
vt 0.227801 0.661237
vt 0.214896 0.795203
vt 0.22542 0.865181
vt 0.335524 0.082127
vt 0.351143 0.213907
vt 0.311934 0.342467
vt 0.313159 0.422214
vt 0.347791 0.572605
vt 0.301482 0.677733
vt 0.329031 0.783086
vt 0.344903 0.885466
vt 0.476837 0.074882
vt 0.441952 0.218774
vt 0.445749 0.333088
vt 0.416414 0.43099
vt 0.439746 0.552976
vt 0.463203 0.656843
vt 0.444252 0.77653
vt 0.426137 0.866051
vt 0.573419 0.117409
vt 0.581125 0.246686
vt 0.552512 0.326
vt 0.561075 0.459693
vt 0.558356 0.550596
vt 0.530299 0.662189
vt 0.553275 0.760113
vt 0.555478 0.888821
vt 0.694433 0.13996
vt 0.667048 0.221666
vt 0.681985 0.314267
vt 0.698218 0.467249
vt 0.696819 0.535952
vt 0.68253 0.662758
vt 0.642062 0.791726
vt 0.648523 0.877957
vt 0.778029 0.111667
vt 0.809426 0.219523
vt 0.794923 0.307783
vt 0.772028 0.454562
vt 0.796846 0.533374
vt 0.807262 0.663157
vt 0.778581 0.821037
vt 0.775122 0.858219
vt 0.890224 0.104741
vt 0.865679 0.23076
vt 0.887326 0.334104
vt 0.881307 0.429754
vt 0.887973 0.53063
vt 0.918106 0.681428
vt 0.915043 0.778027
vt 0.904815 0.89094
vn 0.148999 0.165541 0.974882
vn -0.0235814 0.0312743 0.999233
vn 0.000734043 -0.15903 0.987274
vn -0.0137583 -0.125778 0.991963
vn 0.0509542 0.076947 0.995732
vn 0.0244638 0.0815579 0.996368
vn 0.0166174 0.0626734 0.997896
vn 0.0105675 0.0560814 0.99837
vn 0.0230285 0.0525638 0.998352
vn 0.00786864 0.0677715 0.99767
vn 0.00799716 0.0623016 0.998025
vn 0.00440567 -0.00519766 0.999977
vn 0.213284 -0.304308 0.928389
vn 0.142131 -0.262035 0.954535
vn -0.00917852 -0.0920355 0.995713
vn 0.0864628 -0.0737299 0.993523
vn -0.00504781 -0.217237 0.976106
vn -0.0489944 -0.254128 0.965929
vn -0.163432 -0.344164 0.924576
vn -0.246967 -0.385229 0.88916
vn 0.181144 0.112217 0.977033
vn 0.0274526 0.0287752 0.999209
vn 0.00861606 0.0416272 0.999096
vn -0.00674129 0.021049 0.999756
vn 0.0206261 0.0415839 0.998922
vn 0.0162279 0.0497039 0.998632
vn 0.0163664 0.0651747 0.99774
vn 0.0471189 0.0948017 0.99438
vn 0.00831379 0.0844648 0.996392
vn 0.0658716 0.0392535 0.997056
vn 0.123885 0.00203314 0.992295
vn 0.128099 0.0164958 0.991624
vn 0.0811562 0.0299111 0.996252
vn 0.0354942 0.0161312 0.99924
vn -0.0896383 0.0747195 0.993168
vn -0.210053 0.0752318 0.974791
vn 0.0353484 0.0747763 0.996574
vn 0.0369754 0.0743804 0.996544
vn 0.00529127 0.0371233 0.999297
vn -0.00748763 0.0281626 0.999575
vn 0.0157008 0.0612301 0.998
vn 0.0629508 0.0523644 0.996642
vn 0.148282 0.117382 0.981954
vn -0.0320869 -0.151124 0.987994
vn 0.0117517 0.0685231 0.99758
vn -0.0213708 0.0323034 0.99925
vn -0.074159 0.00124434 0.997246
vn -0.0483689 0.036582 0.998159
vn 0.134241 0.139756 0.981044
vn 0.212764 0.165183 0.96304
vn 0.0526798 -0.0351773 0.997992
vn -0.202362 -0.356263 0.91221
vn 0.00546479 0.0396871 0.999197
vn -0.0195288 0.0198497 0.999612
vn 0.0307412 0.0744386 0.996752
vn 0.140939 0.157652 0.977385
vn 0.116832 0.180897 0.976538
vn 0.0823393 0.0328153 0.996064
vn -0.147345 -0.256415 0.95527
vn -0.0865646 -0.293595 0.952002
vn 0.0215344 0.0416775 0.998899
vn 0.0394386 0.0583481 0.997517
vn 0.0905274 0.14423 0.985395
vn 0.118281 0.191321 0.974375
vn -0.0246739 0.0726843 0.99705
vn -0.0697005 -0.0502654 0.996301
vn -0.0718981 -0.209236 0.975218
vn -0.0732253 -0.265444 0.961342
vn 0.00794232 0.0177612 0.999811
vn -0.0642141 0.0864274 0.994187
vn -0.017725 0.161922 0.986644
vn -0.0274315 0.154385 0.98763
vn -0.00694749 0.018573 0.999803
vn -0.0244319 -0.0349489 0.99909
vn 0.0369528 -0.164138 0.985745
vn 0.0489681 -0.222438 0.973716
vn 0.0358957 -0.0203774 0.999148
vn -0.0069976 -0.0284082 0.999572
vn -0.115425 0.137953 0.98369
vn -0.17293 0.21952 0.960159
vn -0.138945 0.147587 0.979241
vn 0.0203799 -0.00441606 0.999783
vn 0.126456 -0.23368 0.964055
vn 0.0936592 -0.266188 0.95936
vn -0.00657118 0.0518953 0.998631
vn 0.0248116 -0.051591 0.99836
vn 0.0289229 -0.00536712 0.999567
vn -0.135067 0.156236 0.978441
vn -0.167294 0.155997 0.973487
vn -0.170792 0.126342 0.977173
vn 0.0591643 -0.168745 0.983882
vn 0.200762 -0.393802 0.897003
vn 0.00168821 0.0418132 0.999124
vn 0.052255 -0.0212522 0.998408
vn 0.108636 -0.0138883 0.993985
vn 0.038587 0.0370946 0.998567
vn -0.029405 0.083994 0.996032
vn -0.0848387 0.0916003 0.992175
vn -0.177743 0.110599 0.977842
vn 0.0397307 -0.162688 0.985877
f 100/100/100 4/4/4 13/13/13
f 44/44/44 3/3/3 21/21/21
f 44/44/44 19/19/19 20/20/20
f 60/60/60 19/19/19 52/52/52
f 60/60/60 17/17/17 18/18/18
f 76/76/76 17/17/17 68/68/68
f 84/84/84 16/16/16 76/76/76
f 84/84/84 14/14/14 15/15/15
f 100/100/100 14/14/14 92/92/92
f 11/11/11 93/93/93 85/85/85
f 93/93/93 86/86/86 85/85/85
f 94/94/94 87/87/87 86/86/86
f 87/87/87 96/96/96 88/88/88
f 96/96/96 89/89/89 88/88/88
f 97/97/97 90/90/90 89/89/89
f 90/90/90 99/99/99 91/91/91
f 91/91/91 100/100/100 92/92/92
f 10/10/10 85/85/85 77/77/77
f 77/77/77 86/86/86 78/78/78
f 78/78/78 87/87/87 79/79/79
f 79/79/79 88/88/88 80/80/80
f 88/88/88 81/81/81 80/80/80
f 81/81/81 90/90/90 82/82/82
f 82/82/82 91/91/91 83/83/83
f 91/91/91 84/84/84 83/83/83
f 10/10/10 69/69/69 9/9/9
f 69/69/69 78/78/78 70/70/70
f 70/70/70 79/79/79 71/71/71
f 79/79/79 72/72/72 71/71/71
f 72/72/72 81/81/81 73/73/73
f 73/73/73 82/82/82 74/74/74
f 82/82/82 75/75/75 74/74/74
f 83/83/83 76/76/76 75/75/75
f 9/9/9 61/61/61 8/8/8
f 69/69/69 62/62/62 61/61/61
f 62/62/62 71/71/71 63/63/63
f 63/63/63 72/72/72 64/64/64
f 72/72/72 65/65/65 64/64/64
f 65/65/65 74/74/74 66/66/66
f 66/66/66 75/75/75 67/67/67
f 67/67/67 76/76/76 68/68/68
f 8/8/8 53/53/53 7/7/7
f 53/53/53 62/62/62 54/54/54
f 54/54/54 63/63/63 55/55/55
f 55/55/55 64/64/64 56/56/56
f 64/64/64 57/57/57 56/56/56
f 57/57/57 66/66/66 58/58/58
f 58/58/58 67/67/67 59/59/59
f 59/59/59 68/68/68 60/60/60
f 6/6/6 53/53/53 45/45/45
f 45/45/45 54/54/54 46/46/46
f 54/54/54 47/47/47 46/46/46
f 55/55/55 48/48/48 47/47/47
f 56/56/56 49/49/49 48/48/48
f 49/49/49 58/58/58 50/50/50
f 58/58/58 51/51/51 50/50/50
f 59/59/59 52/52/52 51/51/51
f 6/6/6 37/37/37 5/5/5
f 45/45/45 38/38/38 37/37/37
f 46/46/46 39/39/39 38/38/38
f 39/39/39 48/48/48 40/40/40
f 40/40/40 49/49/49 41/41/41
f 41/41/41 50/50/50 42/42/42
f 50/50/50 43/43/43 42/42/42
f 51/51/51 44/44/44 43/43/43
f 5/5/5 28/28/28 1/1/1
f 28/28/28 38/38/38 27/27/27
f 27/27/27 39/39/39 26/26/26
f 26/26/26 40/40/40 25/25/25
f 40/40/40 24/24/24 25/25/25
f 41/41/41 23/23/23 24/24/24
f 23/23/23 43/43/43 22/22/22
f 43/43/43 21/21/21 22/22/22
f 2/2/2 93/93/93 12/12/12
f 93/93/93 30/30/30 94/94/94
f 30/30/30 95/95/95 94/94/94
f 31/31/31 96/96/96 95/95/95
f 32/32/32 97/97/97 96/96/96
f 33/33/33 98/98/98 97/97/97
f 98/98/98 35/35/35 99/99/99
f 99/99/99 36/36/36 100/100/100
f 100/100/100 36/36/36 4/4/4
f 44/44/44 20/20/20 3/3/3
f 44/44/44 52/52/52 19/19/19
f 60/60/60 18/18/18 19/19/19
f 60/60/60 68/68/68 17/17/17
f 76/76/76 16/16/16 17/17/17
f 84/84/84 15/15/15 16/16/16
f 84/84/84 92/92/92 14/14/14
f 100/100/100 13/13/13 14/14/14
f 11/11/11 12/12/12 93/93/93
f 93/93/93 94/94/94 86/86/86
f 94/94/94 95/95/95 87/87/87
f 87/87/87 95/95/95 96/96/96
f 96/96/96 97/97/97 89/89/89
f 97/97/97 98/98/98 90/90/90
f 90/90/90 98/98/98 99/99/99
f 91/91/91 99/99/99 100/100/100
f 10/10/10 11/11/11 85/85/85
f 77/77/77 85/85/85 86/86/86
f 78/78/78 86/86/86 87/87/87
f 79/79/79 87/87/87 88/88/88
f 88/88/88 89/89/89 81/81/81
f 81/81/81 89/89/89 90/90/90
f 82/82/82 90/90/90 91/91/91
f 91/91/91 92/92/92 84/84/84
f 10/10/10 77/77/77 69/69/69
f 69/69/69 77/77/77 78/78/78
f 70/70/70 78/78/78 79/79/79
f 79/79/79 80/80/80 72/72/72
f 72/72/72 80/80/80 81/81/81
f 73/73/73 81/81/81 82/82/82
f 82/82/82 83/83/83 75/75/75
f 83/83/83 84/84/84 76/76/76
f 9/9/9 69/69/69 61/61/61
f 69/69/69 70/70/70 62/62/62
f 62/62/62 70/70/70 71/71/71
f 63/63/63 71/71/71 72/72/72
f 72/72/72 73/73/73 65/65/65
f 65/65/65 73/73/73 74/74/74
f 66/66/66 74/74/74 75/75/75
f 67/67/67 75/75/75 76/76/76
f 8/8/8 61/61/61 53/53/53
f 53/53/53 61/61/61 62/62/62
f 54/54/54 62/62/62 63/63/63
f 55/55/55 63/63/63 64/64/64
f 64/64/64 65/65/65 57/57/57
f 57/57/57 65/65/65 66/66/66
f 58/58/58 66/66/66 67/67/67
f 59/59/59 67/67/67 68/68/68
f 6/6/6 7/7/7 53/53/53
f 45/45/45 53/53/53 54/54/54
f 54/54/54 55/55/55 47/47/47
f 55/55/55 56/56/56 48/48/48
f 56/56/56 57/57/57 49/49/49
f 49/49/49 57/57/57 58/58/58
f 58/58/58 59/59/59 51/51/51
f 59/59/59 60/60/60 52/52/52
f 6/6/6 45/45/45 37/37/37
f 45/45/45 46/46/46 38/38/38
f 46/46/46 47/47/47 39/39/39
f 39/39/39 47/47/47 48/48/48
f 40/40/40 48/48/48 49/49/49
f 41/41/41 49/49/49 50/50/50
f 50/50/50 51/51/51 43/43/43
f 51/51/51 52/52/52 44/44/44
f 5/5/5 37/37/37 28/28/28
f 28/28/28 37/37/37 38/38/38
f 27/27/27 38/38/38 39/39/39
f 26/26/26 39/39/39 40/40/40
f 40/40/40 41/41/41 24/24/24
f 41/41/41 42/42/42 23/23/23
f 23/23/23 42/42/42 43/43/43
f 43/43/43 44/44/44 21/21/21
f 2/2/2 29/29/29 93/93/93
f 93/93/93 29/29/29 30/30/30
f 30/30/30 31/31/31 95/95/95
f 31/31/31 32/32/32 96/96/96
f 32/32/32 33/33/33 97/97/97
f 33/33/33 34/34/34 98/98/98
f 98/98/98 34/34/34 35/35/35
f 99/99/99 35/35/35 36/36/36
