o GNATVCloth
v -4.99733 -5.0128 0.190693
v 5.16895 -5.01116 0.181795
v -5.01298 5.02105 0.004229
v 4.98702 5.02105 0.004229
v -3.87876 -5.05925 0.146925
v -2.75513 -5.10789 0.114331
v -1.62435 -5.14263 0.130081
v -0.48784 -5.18422 0.119008
v 0.651901 -5.18569 0.0638924
v 1.78908 -5.16076 0.0888804
v 2.92066 -5.11765 0.128013
v 4.04794 -5.05597 0.170826
v 3.85973 4.92412 0.120789
v 2.74185 4.83378 0.114483
v 1.64374 4.76207 0.156065
v 0.615417 4.72034 0.124181
v -0.456492 4.76193 0.0950269
v -1.57976 4.81434 0.16484
v -2.71384 4.89204 0.11974
v -3.85695 4.94708 0.0689011
v -4.97037 3.90443 0.0359786
v -4.95832 2.78767 0.0760249
v -4.95386 1.6715 0.117387
v -4.95138 0.555262 0.143043
v -4.95472 -0.560249 0.147117
v -4.96341 -1.675 0.151714
v -4.97152 -2.78778 0.145919
v -4.97765 -3.90047 0.13408
v 5.14052 -3.90045 0.162447
v 5.13028 -2.78672 0.110565
v 5.11507 -1.67398 0.13063
v 5.09855 -0.55968 0.133253
v 5.08194 0.55548 0.136276
v 5.06137 1.67184 0.119936
v 5.03853 2.7882 0.0873969
v 5.01177 3.90466 0.0497839
v -3.79576 -3.90764 0.114446
v -3.7568 -3.25922 0.0972338
v -3.61005 -1.97162 0.0715489
v -4.06758 -0.306098 0.0807252
v -4.09457 0.711544 0.0900345
v -4.09127 1.49664 0.0995963
v -4.03551 2.78931 0.0774159
v -3.8923 3.87376 0.0519159
v -2.65896 -4.08632 0.101532
v -2.73374 -2.81404 0.100556
v -2.61315 -2.2272 0.0898429
v -2.69029 -0.681453 0.100788
v -2.73093 0.450809 0.0900757
v -2.66968 1.49966 0.0899774
v -2.80041 2.84848 0.0872458
v -2.6954 3.54331 0.100433
v -1.59006 -4.33247 0.0758911
v -1.42593 -3.01926 0.0675698
v -1.82068 -1.72133 0.1239
v -1.80776 -0.925862 0.121422
v -1.46169 0.566056 0.0863156
v -1.92933 1.63268 0.0853363
v -1.65515 2.67586 0.0903163
v -1.48882 3.69466 0.0892007
v -0.153458 -4.44049 0.0890561
v -0.506352 -2.99909 0.0755873
v -0.468876 -1.85672 0.0915115
v -0.767779 -0.872243 0.0870965
v -0.538733 0.340153 0.0898425
v -0.307875 1.37224 0.0936898
v -0.500588 2.57348 0.0885457
v -0.674714 3.46544 0.0989143
v 0.828449 -4.01929 0.0777881
v 0.902785 -2.72661 0.106534
v 0.610067 -1.94007 0.106919
v 0.688566 -0.604351 0.065791
v 0.654743 0.303912 0.0957168
v 0.364652 1.41628 0.102434
v 0.591439 2.3869 0.0971264
v 0.612657 3.62803 0.0898991
v 2.05614 -3.75785 0.112372
v 1.77338 -2.95355 0.0906539
v 1.91764 -2.0246 0.0831051
v 2.06967 -0.485678 0.112955
v 2.05052 0.196591 0.0810053
v 1.88937 1.45012 0.0648362
v 1.47739 2.71769 0.106366
v 1.51519 3.54265 0.0835318
v 2.90662 -4.00551 0.0990852
v 3.2118 -2.91128 0.110523
v 3.0574 -2.03909 0.072099
v 2.81322 -0.581762 0.095017
v 3.05164 0.218812 0.106123
v 3.13703 1.52212 0.0735587
v 2.81239 3.07463 0.0854286
v 2.76769 3.4346 0.124522
v 4.04122 -4.02025 0.0698683
v 3.7782 -2.7722 0.119485
v 3.98444 -1.72695 0.11243
v 3.9141 -0.773357 0.0764779
v 3.96576 0.240222 0.094529
v 4.24178 1.76855 0.0883104
v 4.19002 2.73358 0.0812526
v 4.05846 3.85499 0.0660272
vt 0.0001 0.0001
vt 0.9999 0.0001
vt 0.0001 0.9999
vt 0.9999 0.9999
vt 0.111189 0.0001
vt 0.222278 0.0001
vt 0.333367 0.0001
vt 0.444455 0.0001
vt 0.555544 0.0001
vt 0.666633 0.0001
vt 0.777722 0.0001
vt 0.888811 0.0001
vt 0.888811 0.9999
vt 0.777722 0.9999
vt 0.666633 0.9999
vt 0.555544 0.9999
vt 0.444455 0.9999
vt 0.333367 0.9999
vt 0.222278 0.9999
vt 0.111189 0.9999
vt 0.0001 0.888811
vt 0.0001 0.777722
vt 0.0001 0.666633
vt 0.0001 0.555544
vt 0.0001 0.444456
vt 0.0001 0.333367
vt 0.0001 0.222278
vt 0.0001 0.111189
vt 0.9999 0.111189
vt 0.9999 0.222278
vt 0.9999 0.333367
vt 0.9999 0.444456
vt 0.9999 0.555544
vt 0.9999 0.666633
vt 0.9999 0.777722
vt 0.9999 0.888811
vt 0.11727 0.115399
vt 0.120778 0.180369
vt 0.134636 0.309595
vt 0.088728 0.473895
vt 0.085886 0.575352
vt 0.086211 0.65375
vt 0.092207 0.78313
vt 0.106956 0.892282
vt 0.22987 0.102869
vt 0.221803 0.229552
vt 0.233521 0.288953
vt 0.225541 0.443179
vt 0.221596 0.556167
vt 0.227801 0.661237
vt 0.214896 0.795203
vt 0.22542 0.865181
vt 0.335524 0.082127
vt 0.351143 0.213907
vt 0.311934 0.342467
vt 0.313159 0.422214
vt 0.347791 0.572605
vt 0.301482 0.677733
vt 0.329031 0.783086
vt 0.344903 0.885466
vt 0.476837 0.074882
vt 0.441952 0.218774
vt 0.445749 0.333088
vt 0.416414 0.43099
vt 0.439746 0.552976
vt 0.463203 0.656843
vt 0.444252 0.77653
vt 0.426137 0.866051
vt 0.573419 0.117409
vt 0.581125 0.246686
vt 0.552512 0.326
vt 0.561075 0.459693
vt 0.558356 0.550596
vt 0.530299 0.662189
vt 0.553275 0.760113
vt 0.555478 0.888821
vt 0.694433 0.13996
vt 0.667048 0.221666
vt 0.681985 0.314267
vt 0.698218 0.467249
vt 0.696819 0.535952
vt 0.68253 0.662758
vt 0.642062 0.791726
vt 0.648523 0.877957
vt 0.778029 0.111667
vt 0.809426 0.219523
vt 0.794923 0.307783
vt 0.772028 0.454562
vt 0.796846 0.533374
vt 0.807262 0.663157
vt 0.778581 0.821037
vt 0.775122 0.858219
vt 0.890224 0.104741
vt 0.865679 0.23076
vt 0.887326 0.334104
vt 0.881307 0.429754
vt 0.887973 0.53063
vt 0.918106 0.681428
vt 0.915043 0.778027
vt 0.904815 0.89094
vn 0.041125 0.050062 0.997899
vn -0.049655 0.0561253 0.997188
vn -0.0353768 0.00698171 0.99935
vn 0.060273 0.00490385 0.99817
vn 0.0293376 0.0343549 0.998979
vn 0.0144324 0.0286571 0.999485
vn 0.000156827 0.0667327 0.997771
vn 0.0181855 0.0425586 0.998928
vn 0.0147648 -0.00157161 0.99989
vn -0.0181938 -0.00340442 0.999829
vn -0.0175184 0.0495545 0.998618
vn -0.0283362 0.0967952 0.994901
vn 0.0520697 -0.0414277 0.997784
vn 0.0127591 -0.0251816 0.999601
vn 0.00663453 -0.0600732 0.998172
vn -0.0176577 -0.0396766 0.999057
vn 0.00670605 -0.0218095 0.99974
vn 0.00726837 -0.0668115 0.997739
vn -0.0307993 -0.0285973 0.999116
vn -0.0509272 -0.0141254 0.998603
vn -0.00986977 0.0296895 0.99951
vn -0.00157134 0.0364225 0.999335
vn 0.0245065 0.0159967 0.999572
vn 0.0647721 0.00634512 0.99788
vn 0.0736373 0.00348051 0.997279
vn 0.0643849 0.00311582 0.99792
vn 0.0465019 -0.000580043 0.998918
vn 0.0276328 0.0229415 0.999355
vn -0.0871645 0.0303531 0.995731
vn -0.0228192 -0.00142337 0.999739
vn -0.026795 0.00502524 0.999628
vn -0.0429586 -0.00726572 0.99905
vn -0.0379866 0.00736316 0.999251
vn -0.0360551 0.021172 0.999126
vn -0.0174263 0.0229176 0.999586
vn 0.00724076 0.0300099 0.999523
vn 0.0184306 0.0230841 0.999564
vn 0.0162866 0.0128291 0.999785
vn 0.0145747 0.00635187 0.999874
vn 0.0344192 6.95837e-05 0.999407
vn 0.0239718 -0.0029926 0.999708
vn 0.013887 0.00213215 0.999901
vn -0.000534782 0.0224535 0.999748
vn -0.0325165 0.00321189 0.999466
vn 0.016937 0.00883818 0.999817
vn 0.00475036 0.0115583 0.999922
vn -0.0112505 -0.00614129 0.999918
vn -0.0217528 -0.00101681 0.999763
vn -0.00356295 0.00483151 0.999982
vn 0.00293548 0.00138569 0.999995
vn -0.0106589 -0.00097495 0.999943
vn -0.0146994 -0.0120012 0.99982
vn 0.00398822 0.0292037 0.999566
vn 0.00966567 -0.0103599 0.9999
vn 0.000967965 -0.0125407 0.999921
vn 0.00449793 0.0108339 0.999931
vn 0.00361975 0.0059803 0.999976
vn 0.000391313 -0.000346216 1
vn -0.00147343 -0.00603005 0.999981
vn 0.00221347 -0.0234144 0.999723
vn 0.0116561 0.0130117 0.999847
vn -0.0103903 -0.00438618 0.999936
vn 0.00381385 -0.00204492 0.999991
vn 0.0191108 0.0054222 0.999803
vn -0.00285072 -0.00846249 0.99996
vn -0.00804875 0.00171562 0.999966
vn -0.00148141 -0.0023332 0.999996
vn -0.00123028 -0.00239725 0.999996
vn -0.0085819 -0.00747461 0.999935
vn 0.00243998 -0.00813939 0.999964
vn -0.00176292 0.00920058 0.999956
vn -0.00396788 0.00350856 0.999986
vn 0.00664973 -0.0116784 0.99991
vn 0.00352909 0.000104031 0.999994
vn -0.00235905 -0.00146612 0.999996
vn -0.00273912 -0.00451695 0.999986
vn -0.00996522 -0.00128487 0.99995
vn -0.00324202 0.0113254 0.999931
vn 0.00944766 -0.000578706 0.999955
vn -0.00479979 0.0139233 0.999892
vn -0.00663063 0.0153185 0.999861
vn 0.010128 -0.00575295 0.999932
vn 0.00588449 0.000577634 0.999983
vn -0.00558424 -0.0291052 0.999561
vn 0.00757871 0.000384733 0.999971
vn -0.00393331 0.00509729 0.999979
vn -0.0157911 0.0157268 0.999752
vn 0.010729 -0.00428707 0.999933
vn -0.00233413 0.00159411 0.999996
vn -0.00802445 0.00851852 0.999932
vn 0.00957099 -0.0302624 0.999496
vn 0.0113441 -0.0493208 0.998719
vn -0.022421 0.0230102 0.999484
vn -0.0134889 -0.00360797 0.999902
vn -0.026025 0.0147169 0.999553
vn -0.017666 0.000241092 0.999844
vn -0.0186346 0.0008527 0.999826
vn -0.0250099 0.0123196 0.999611
vn -0.00131156 0.0115506 0.999932
vn 0.0373925 -0.0146035 0.999194
f 100/100/100 4/4/4 13/13/13
f 44/44/44 3/3/3 21/21/21
f 44/44/44 19/19/19 20/20/20
f 60/60/60 19/19/19 52/52/52
f 60/60/60 17/17/17 18/18/18
f 76/76/76 17/17/17 68/68/68
f 84/84/84 16/16/16 76/76/76
f 84/84/84 14/14/14 15/15/15
f 100/100/100 14/14/14 92/92/92
f 11/11/11 93/93/93 85/85/85
f 93/93/93 86/86/86 85/85/85
f 94/94/94 87/87/87 86/86/86
f 87/87/87 96/96/96 88/88/88
f 96/96/96 89/89/89 88/88/88
f 97/97/97 90/90/90 89/89/89
f 90/90/90 99/99/99 91/91/91
f 91/91/91 100/100/100 92/92/92
f 10/10/10 85/85/85 77/77/77
f 77/77/77 86/86/86 78/78/78
f 78/78/78 87/87/87 79/79/79
f 79/79/79 88/88/88 80/80/80
f 88/88/88 81/81/81 80/80/80
f 81/81/81 90/90/90 82/82/82
f 82/82/82 91/91/91 83/83/83
f 91/91/91 84/84/84 83/83/83
f 10/10/10 69/69/69 9/9/9
f 69/69/69 78/78/78 70/70/70
f 70/70/70 79/79/79 71/71/71
f 79/79/79 72/72/72 71/71/71
f 72/72/72 81/81/81 73/73/73
f 73/73/73 82/82/82 74/74/74
f 82/82/82 75/75/75 74/74/74
f 83/83/83 76/76/76 75/75/75
f 9/9/9 61/61/61 8/8/8
f 69/69/69 62/62/62 61/61/61
f 62/62/62 71/71/71 63/63/63
f 63/63/63 72/72/72 64/64/64
f 72/72/72 65/65/65 64/64/64
f 65/65/65 74/74/74 66/66/66
f 66/66/66 75/75/75 67/67/67
f 67/67/67 76/76/76 68/68/68
f 8/8/8 53/53/53 7/7/7
f 53/53/53 62/62/62 54/54/54
f 54/54/54 63/63/63 55/55/55
f 55/55/55 64/64/64 56/56/56
f 64/64/64 57/57/57 56/56/56
f 57/57/57 66/66/66 58/58/58
f 58/58/58 67/67/67 59/59/59
f 59/59/59 68/68/68 60/60/60
f 6/6/6 53/53/53 45/45/45
f 45/45/45 54/54/54 46/46/46
f 54/54/54 47/47/47 46/46/46
f 55/55/55 48/48/48 47/47/47
f 56/56/56 49/49/49 48/48/48
f 49/49/49 58/58/58 50/50/50
f 58/58/58 51/51/51 50/50/50
f 59/59/59 52/52/52 51/51/51
f 6/6/6 37/37/37 5/5/5
f 45/45/45 38/38/38 37/37/37
f 46/46/46 39/39/39 38/38/38
f 39/39/39 48/48/48 40/40/40
f 40/40/40 49/49/49 41/41/41
f 41/41/41 50/50/50 42/42/42
f 50/50/50 43/43/43 42/42/42
f 51/51/51 44/44/44 43/43/43
f 5/5/5 28/28/28 1/1/1
f 28/28/28 38/38/38 27/27/27
f 27/27/27 39/39/39 26/26/26
f 26/26/26 40/40/40 25/25/25
f 40/40/40 24/24/24 25/25/25
f 41/41/41 23/23/23 24/24/24
f 23/23/23 43/43/43 22/22/22
f 43/43/43 21/21/21 22/22/22
f 2/2/2 93/93/93 12/12/12
f 93/93/93 30/30/30 94/94/94
f 30/30/30 95/95/95 94/94/94
f 31/31/31 96/96/96 95/95/95
f 32/32/32 97/97/97 96/96/96
f 33/33/33 98/98/98 97/97/97
f 98/98/98 35/35/35 99/99/99
f 99/99/99 36/36/36 100/100/100
f 100/100/100 36/36/36 4/4/4
f 44/44/44 20/20/20 3/3/3
f 44/44/44 52/52/52 19/19/19
f 60/60/60 18/18/18 19/19/19
f 60/60/60 68/68/68 17/17/17
f 76/76/76 16/16/16 17/17/17
f 84/84/84 15/15/15 16/16/16
f 84/84/84 92/92/92 14/14/14
f 100/100/100 13/13/13 14/14/14
f 11/11/11 12/12/12 93/93/93
f 93/93/93 94/94/94 86/86/86
f 94/94/94 95/95/95 87/87/87
f 87/87/87 95/95/95 96/96/96
f 96/96/96 97/97/97 89/89/89
f 97/97/97 98/98/98 90/90/90
f 90/90/90 98/98/98 99/99/99
f 91/91/91 99/99/99 100/100/100
f 10/10/10 11/11/11 85/85/85
f 77/77/77 85/85/85 86/86/86
f 78/78/78 86/86/86 87/87/87
f 79/79/79 87/87/87 88/88/88
f 88/88/88 89/89/89 81/81/81
f 81/81/81 89/89/89 90/90/90
f 82/82/82 90/90/90 91/91/91
f 91/91/91 92/92/92 84/84/84
f 10/10/10 77/77/77 69/69/69
f 69/69/69 77/77/77 78/78/78
f 70/70/70 78/78/78 79/79/79
f 79/79/79 80/80/80 72/72/72
f 72/72/72 80/80/80 81/81/81
f 73/73/73 81/81/81 82/82/82
f 82/82/82 83/83/83 75/75/75
f 83/83/83 84/84/84 76/76/76
f 9/9/9 69/69/69 61/61/61
f 69/69/69 70/70/70 62/62/62
f 62/62/62 70/70/70 71/71/71
f 63/63/63 71/71/71 72/72/72
f 72/72/72 73/73/73 65/65/65
f 65/65/65 73/73/73 74/74/74
f 66/66/66 74/74/74 75/75/75
f 67/67/67 75/75/75 76/76/76
f 8/8/8 61/61/61 53/53/53
f 53/53/53 61/61/61 62/62/62
f 54/54/54 62/62/62 63/63/63
f 55/55/55 63/63/63 64/64/64
f 64/64/64 65/65/65 57/57/57
f 57/57/57 65/65/65 66/66/66
f 58/58/58 66/66/66 67/67/67
f 59/59/59 67/67/67 68/68/68
f 6/6/6 7/7/7 53/53/53
f 45/45/45 53/53/53 54/54/54
f 54/54/54 55/55/55 47/47/47
f 55/55/55 56/56/56 48/48/48
f 56/56/56 57/57/57 49/49/49
f 49/49/49 57/57/57 58/58/58
f 58/58/58 59/59/59 51/51/51
f 59/59/59 60/60/60 52/52/52
f 6/6/6 45/45/45 37/37/37
f 45/45/45 46/46/46 38/38/38
f 46/46/46 47/47/47 39/39/39
f 39/39/39 47/47/47 48/48/48
f 40/40/40 48/48/48 49/49/49
f 41/41/41 49/49/49 50/50/50
f 50/50/50 51/51/51 43/43/43
f 51/51/51 52/52/52 44/44/44
f 5/5/5 37/37/37 28/28/28
f 28/28/28 37/37/37 38/38/38
f 27/27/27 38/38/38 39/39/39
f 26/26/26 39/39/39 40/40/40
f 40/40/40 41/41/41 24/24/24
f 41/41/41 42/42/42 23/23/23
f 23/23/23 42/42/42 43/43/43
f 43/43/43 44/44/44 21/21/21
f 2/2/2 29/29/29 93/93/93
f 93/93/93 29/29/29 30/30/30
f 30/30/30 31/31/31 95/95/95
f 31/31/31 32/32/32 96/96/96
f 32/32/32 33/33/33 97/97/97
f 33/33/33 34/34/34 98/98/98
f 98/98/98 34/34/34 35/35/35
f 99/99/99 35/35/35 36/36/36
