o GNATVCloth
v -5.03537 -4.98366 0.596101
v 5.06346 -4.99801 0.393266
v -5.01298 5.02105 0.004229
v 4.98702 5.02105 0.004229
v -3.92526 -5.0196 0.524226
v -2.80612 -5.06361 0.483542
v -1.6827 -5.09355 0.480494
v -0.555579 -5.11379 0.476553
v 0.573383 -5.11428 0.514393
v 1.70053 -5.09637 0.498505
v 2.82412 -5.06524 0.449325
v 3.94585 -5.0301 0.443572
v 3.86815 4.90344 0.197057
v 2.75608 4.81883 0.375728
v 1.63292 4.7562 0.315029
v 0.511781 4.71356 0.292921
v -0.592842 4.69737 0.470699
v -1.69497 4.69998 0.631003
v -2.8103 4.76466 0.508468
v -3.90122 4.87903 0.234894
v -4.97812 3.90709 0.0758451
v -4.97856 2.79247 0.139628
v -4.9876 1.67869 0.204558
v -4.99497 0.564466 0.255488
v -5.00079 -0.549227 0.305791
v -5.00732 -1.66191 0.351176
v -5.01246 -2.77467 0.386318
v -5.01764 -3.88287 0.485607
v 5.03805 -3.88962 0.313311
v 5.02375 -2.7782 0.246096
v 5.01442 -1.66573 0.240784
v 5.00563 -0.552869 0.223316
v 4.99869 0.560788 0.198816
v 4.99068 1.67556 0.164812
v 4.98333 2.79117 0.132454
v 4.97236 3.90591 0.0677786
v -3.84805 -3.88592 0.367135
v -3.81189 -3.24354 0.281192
v -3.66537 -1.95402 0.246478
v -4.11827 -0.292058 0.236911
v -4.14031 0.722841 0.184479
v -4.13081 1.50616 0.123626
v -4.0598 2.79891 0.033733
v -3.92096 3.87298 -0.140636
v -2.71704 -4.053 0.313856
v -2.7952 -2.78277 0.345018
v -2.6734 -2.19503 0.292811
v -2.74983 -0.649377 0.283159
v -2.78363 0.477222 0.174231
v -2.71426 1.51766 0.033225
v -2.84069 2.8441 -0.192348
v -2.74729 3.5067 0.0284385
v -1.65217 -4.28887 0.331705
v -1.49437 -2.97648 0.39817
v -1.88794 -1.68156 0.378904
v -1.87198 -0.884695 0.312704
v -1.52215 0.581701 0.0349461
v -1.98371 1.64059 -0.0653238
v -1.70487 2.67364 -0.0145948
v -1.5881 3.57525 0.408665
v -0.226203 -4.37347 0.396898
v -0.582442 -2.9426 0.478531
v -0.541526 -1.80107 0.405842
v -0.834115 -0.82417 0.292139
v -0.598749 0.371114 0.101282
v -0.363303 1.39877 0.0555589
v -0.562514 2.56657 0.175892
v -0.761625 3.38794 0.417386
v 0.746186 -3.94879 0.39443
v 0.820834 -2.657 0.457014
v 0.533126 -1.86602 0.438157
v 0.616478 -0.570274 0.118291
v 0.594661 0.335826 0.11664
v 0.309566 1.44691 0.050947
v 0.534276 2.40958 0.139437
v 0.54501 3.62556 0.413013
v 1.96411 -3.69904 0.339774
v 1.6847 -2.89297 0.392537
v 1.83658 -1.96341 0.432751
v 1.9935 -0.452405 0.16711
v 1.98451 0.209901 -0.015632
v 1.83934 1.47404 0.0293145
v 1.41977 2.74216 0.109677
v 1.48225 3.54527 0.30019
v 2.80937 -3.95918 0.350569
v 3.11628 -2.87107 0.326511
v 2.96383 -1.99247 0.294216
v 2.72473 -0.534207 0.304146
v 2.96759 0.257117 0.203365
v 3.08888 1.52563 -0.089423
v 2.77056 3.09004 -0.0839943
v 2.73924 3.44366 0.0293472
v 3.93934 -3.99307 0.308313
v 3.67933 -2.73984 0.301311
v 3.88847 -1.69933 0.290146
v 3.82202 -0.743807 0.308586
v 3.881 0.268838 0.279981
v 4.17131 1.78686 0.143403
v 4.15004 2.7376 -0.0322515
v 4.029 3.86049 -0.100746
vt 0.0001 0.0001
vt 0.9999 0.0001
vt 0.0001 0.9999
vt 0.9999 0.9999
vt 0.111189 0.0001
vt 0.222278 0.0001
vt 0.333367 0.0001
vt 0.444455 0.0001
vt 0.555544 0.0001
vt 0.666633 0.0001
vt 0.777722 0.0001
vt 0.888811 0.0001
vt 0.888811 0.9999
vt 0.777722 0.9999
vt 0.666633 0.9999
vt 0.555544 0.9999
vt 0.444455 0.9999
vt 0.333367 0.9999
vt 0.222278 0.9999
vt 0.111189 0.9999
vt 0.0001 0.888811
vt 0.0001 0.777722
vt 0.0001 0.666633
vt 0.0001 0.555544
vt 0.0001 0.444456
vt 0.0001 0.333367
vt 0.0001 0.222278
vt 0.0001 0.111189
vt 0.9999 0.111189
vt 0.9999 0.222278
vt 0.9999 0.333367
vt 0.9999 0.444456
vt 0.9999 0.555544
vt 0.9999 0.666633
vt 0.9999 0.777722
vt 0.9999 0.888811
vt 0.11727 0.115399
vt 0.120778 0.180369
vt 0.134636 0.309595
vt 0.088728 0.473895
vt 0.085886 0.575352
vt 0.086211 0.65375
vt 0.092207 0.78313
vt 0.106956 0.892282
vt 0.22987 0.102869
vt 0.221803 0.229552
vt 0.233521 0.288953
vt 0.225541 0.443179
vt 0.221596 0.556167
vt 0.227801 0.661237
vt 0.214896 0.795203
vt 0.22542 0.865181
vt 0.335524 0.082127
vt 0.351143 0.213907
vt 0.311934 0.342467
vt 0.313159 0.422214
vt 0.347791 0.572605
vt 0.301482 0.677733
vt 0.329031 0.783086
vt 0.344903 0.885466
vt 0.476837 0.074882
vt 0.441952 0.218774
vt 0.445749 0.333088
vt 0.416414 0.43099
vt 0.439746 0.552976
vt 0.463203 0.656843
vt 0.444252 0.77653
vt 0.426137 0.866051
vt 0.573419 0.117409
vt 0.581125 0.246686
vt 0.552512 0.326
vt 0.561075 0.459693
vt 0.558356 0.550596
vt 0.530299 0.662189
vt 0.553275 0.760113
vt 0.555478 0.888821
vt 0.694433 0.13996
vt 0.667048 0.221666
vt 0.681985 0.314267
vt 0.698218 0.467249
vt 0.696819 0.535952
vt 0.68253 0.662758
vt 0.642062 0.791726
vt 0.648523 0.877957
vt 0.778029 0.111667
vt 0.809426 0.219523
vt 0.794923 0.307783
vt 0.772028 0.454562
vt 0.796846 0.533374
vt 0.807262 0.663157
vt 0.778581 0.821037
vt 0.775122 0.858219
vt 0.890224 0.104741
vt 0.865679 0.23076
vt 0.887326 0.334104
vt 0.881307 0.429754
vt 0.887973 0.53063
vt 0.918106 0.681428
vt 0.915043 0.778027
vt 0.904815 0.89094
vn 0.0674728 0.0985715 0.99284
vn 0.0148065 0.10066 0.994811
vn -0.0157347 -0.139891 0.990042
vn 0.00575838 -0.094797 0.99548
vn 0.0696995 0.120989 0.990204
vn 0.034628 0.15981 0.98654
vn 0.00710221 0.181556 0.983355
vn -0.0215133 0.142312 0.989588
vn -0.0219436 0.110357 0.99365
vn 0.0241673 0.101911 0.9945
vn 0.0273469 0.102746 0.994332
vn 0.0209596 0.129436 0.991366
vn 0.180725 -0.244173 0.952743
vn 0.12092 -0.185986 0.975083
vn -0.0365024 -0.00770339 0.999304
vn 0.0888107 0.0723083 0.99342
vn 0.0729283 -0.0368796 0.996655
vn 0.0114098 -0.192872 0.981158
vn -0.224557 -0.313325 0.922714
vn -0.247211 -0.334587 0.909362
vn 0.173297 0.085839 0.981122
vn 0.113923 0.0568057 0.991864
vn 0.100933 0.060205 0.99307
vn 0.0707086 0.0475897 0.996361
vn 0.0654311 0.0424845 0.996952
vn 0.0781646 0.0333184 0.996384
vn 0.0996955 0.0451141 0.993995
vn 0.0972796 0.110749 0.989076
vn -0.0107502 0.0659608 0.997764
vn 0.0290086 0.0205122 0.999369
vn 0.0523969 0.00171421 0.998625
vn 0.0679316 0.0209273 0.99747
vn 0.0320593 0.044183 0.998509
vn -0.022093 0.0295814 0.999318
vn -0.141086 0.0862404 0.986234
vn -0.184315 0.0513382 0.981526
vn 0.0754975 0.135746 0.987863
vn 0.0421028 0.0615323 0.997217
vn 0.0113008 0.0293982 0.999504
vn 0.0373833 0.0444616 0.998311
vn 0.0612955 0.0724684 0.995485
vn 0.0853269 0.0703096 0.993869
vn 0.13585 0.0988637 0.985784
vn -0.0565467 -0.145597 0.987727
vn 0.00553783 0.0585948 0.998267
vn -0.0449307 0.0336974 0.998422
vn -0.0610517 0.035414 0.997506
vn -0.0363175 0.0460869 0.998277
vn 0.048121 0.114702 0.992234
vn 0.0909023 0.126594 0.987781
vn -0.0201167 -0.0137759 0.999703
vn -0.239021 -0.332178 0.912429
vn -0.0240334 0.0710362 0.997184
vn -0.056284 0.00566277 0.998399
vn -0.0390826 0.0455575 0.998197
vn 0.0199378 0.121999 0.99233
vn 0.00752346 0.128999 0.991616
vn -0.0237452 0.0544067 0.998236
vn -0.180538 -0.238386 0.954242
vn -0.108799 -0.266746 0.957606
vn -0.0283536 0.0469955 0.998493
vn -0.0275126 -0.00738436 0.999594
vn -0.0111676 0.106412 0.994259
vn 0.02794 0.137706 0.990079
vn -0.00305898 0.0772011 0.997011
vn -0.0297828 -0.0240843 0.999266
vn -0.0621102 -0.173181 0.98293
vn -0.049507 -0.219512 0.974353
vn 0.0221383 0.017094 0.999609
vn 0.0323337 -0.0202428 0.999272
vn -0.000617637 0.119957 0.992779
vn 0.0213353 0.152088 0.988137
vn 0.0353807 0.0199042 0.999176
vn 0.0070005 -0.00556551 0.99996
vn 0.0359392 -0.129393 0.990942
vn 0.0810851 -0.110332 0.990582
vn 0.0278192 0.0292255 0.999186
vn 0.0645243 -0.0364036 0.997252
vn 0.0172685 0.0761525 0.996947
vn -0.104496 0.223229 0.969149
vn -0.0534398 0.132412 0.989753
vn 0.0726179 -0.0182136 0.997194
vn 0.121907 -0.152472 0.98076
vn 0.103738 -0.131792 0.985834
vn 0.0268337 0.0646321 0.997548
vn 0.0334338 0.0145868 0.999334
vn 0.0469973 0.00319195 0.99889
vn -0.0669098 0.128954 0.989391
vn -0.119582 0.164171 0.979157
vn -0.0932312 0.10936 0.98962
vn 0.107509 -0.110715 0.98802
vn 0.18176 -0.263879 0.947276
vn 0.0226382 0.0650787 0.997623
vn 0.0319565 0.0168143 0.999348
vn 0.0280834 -0.00333402 0.9996
vn 0.0173655 0.0216937 0.999614
vn -0.0371836 0.0880273 0.995424
vn -0.114319 0.103519 0.988036
vn -0.148518 0.081624 0.985535
vn 0.0504726 -0.125694 0.990784
f 100/100/100 4/4/4 13/13/13
f 44/44/44 3/3/3 21/21/21
f 44/44/44 19/19/19 20/20/20
f 60/60/60 19/19/19 52/52/52
f 60/60/60 17/17/17 18/18/18
f 76/76/76 17/17/17 68/68/68
f 84/84/84 16/16/16 76/76/76
f 84/84/84 14/14/14 15/15/15
f 100/100/100 14/14/14 92/92/92
f 11/11/11 93/93/93 85/85/85
f 93/93/93 86/86/86 85/85/85
f 94/94/94 87/87/87 86/86/86
f 87/87/87 96/96/96 88/88/88
f 96/96/96 89/89/89 88/88/88
f 97/97/97 90/90/90 89/89/89
f 90/90/90 99/99/99 91/91/91
f 91/91/91 100/100/100 92/92/92
f 10/10/10 85/85/85 77/77/77
f 77/77/77 86/86/86 78/78/78
f 78/78/78 87/87/87 79/79/79
f 79/79/79 88/88/88 80/80/80
f 88/88/88 81/81/81 80/80/80
f 81/81/81 90/90/90 82/82/82
f 82/82/82 91/91/91 83/83/83
f 91/91/91 84/84/84 83/83/83
f 10/10/10 69/69/69 9/9/9
f 69/69/69 78/78/78 70/70/70
f 70/70/70 79/79/79 71/71/71
f 79/79/79 72/72/72 71/71/71
f 72/72/72 81/81/81 73/73/73
f 73/73/73 82/82/82 74/74/74
f 82/82/82 75/75/75 74/74/74
f 83/83/83 76/76/76 75/75/75
f 9/9/9 61/61/61 8/8/8
f 69/69/69 62/62/62 61/61/61
f 62/62/62 71/71/71 63/63/63
f 63/63/63 72/72/72 64/64/64
f 72/72/72 65/65/65 64/64/64
f 65/65/65 74/74/74 66/66/66
f 66/66/66 75/75/75 67/67/67
f 67/67/67 76/76/76 68/68/68
f 8/8/8 53/53/53 7/7/7
f 53/53/53 62/62/62 54/54/54
f 54/54/54 63/63/63 55/55/55
f 55/55/55 64/64/64 56/56/56
f 64/64/64 57/57/57 56/56/56
f 57/57/57 66/66/66 58/58/58
f 58/58/58 67/67/67 59/59/59
f 59/59/59 68/68/68 60/60/60
f 6/6/6 53/53/53 45/45/45
f 45/45/45 54/54/54 46/46/46
f 54/54/54 47/47/47 46/46/46
f 55/55/55 48/48/48 47/47/47
f 56/56/56 49/49/49 48/48/48
f 49/49/49 58/58/58 50/50/50
f 58/58/58 51/51/51 50/50/50
f 59/59/59 52/52/52 51/51/51
f 6/6/6 37/37/37 5/5/5
f 45/45/45 38/38/38 37/37/37
f 46/46/46 39/39/39 38/38/38
f 39/39/39 48/48/48 40/40/40
f 40/40/40 49/49/49 41/41/41
f 41/41/41 50/50/50 42/42/42
f 50/50/50 43/43/43 42/42/42
f 51/51/51 44/44/44 43/43/43
f 5/5/5 28/28/28 1/1/1
f 28/28/28 38/38/38 27/27/27
f 27/27/27 39/39/39 26/26/26
f 26/26/26 40/40/40 25/25/25
f 40/40/40 24/24/24 25/25/25
f 41/41/41 23/23/23 24/24/24
f 23/23/23 43/43/43 22/22/22
f 43/43/43 21/21/21 22/22/22
f 2/2/2 93/93/93 12/12/12
f 93/93/93 30/30/30 94/94/94
f 30/30/30 95/95/95 94/94/94
f 31/31/31 96/96/96 95/95/95
f 32/32/32 97/97/97 96/96/96
f 33/33/33 98/98/98 97/97/97
f 98/98/98 35/35/35 99/99/99
f 99/99/99 36/36/36 100/100/100
f 100/100/100 36/36/36 4/4/4
f 44/44/44 20/20/20 3/3/3
f 44/44/44 52/52/52 19/19/19
f 60/60/60 18/18/18 19/19/19
f 60/60/60 68/68/68 17/17/17
f 76/76/76 16/16/16 17/17/17
f 84/84/84 15/15/15 16/16/16
f 84/84/84 92/92/92 14/14/14
f 100/100/100 13/13/13 14/14/14
f 11/11/11 12/12/12 93/93/93
f 93/93/93 94/94/94 86/86/86
f 94/94/94 95/95/95 87/87/87
f 87/87/87 95/95/95 96/96/96
f 96/96/96 97/97/97 89/89/89
f 97/97/97 98/98/98 90/90/90
f 90/90/90 98/98/98 99/99/99
f 91/91/91 99/99/99 100/100/100
f 10/10/10 11/11/11 85/85/85
f 77/77/77 85/85/85 86/86/86
f 78/78/78 86/86/86 87/87/87
f 79/79/79 87/87/87 88/88/88
f 88/88/88 89/89/89 81/81/81
f 81/81/81 89/89/89 90/90/90
f 82/82/82 90/90/90 91/91/91
f 91/91/91 92/92/92 84/84/84
f 10/10/10 77/77/77 69/69/69
f 69/69/69 77/77/77 78/78/78
f 70/70/70 78/78/78 79/79/79
f 79/79/79 80/80/80 72/72/72
f 72/72/72 80/80/80 81/81/81
f 73/73/73 81/81/81 82/82/82
f 82/82/82 83/83/83 75/75/75
f 83/83/83 84/84/84 76/76/76
f 9/9/9 69/69/69 61/61/61
f 69/69/69 70/70/70 62/62/62
f 62/62/62 70/70/70 71/71/71
f 63/63/63 71/71/71 72/72/72
f 72/72/72 73/73/73 65/65/65
f 65/65/65 73/73/73 74/74/74
f 66/66/66 74/74/74 75/75/75
f 67/67/67 75/75/75 76/76/76
f 8/8/8 61/61/61 53/53/53
f 53/53/53 61/61/61 62/62/62
f 54/54/54 62/62/62 63/63/63
f 55/55/55 63/63/63 64/64/64
f 64/64/64 65/65/65 57/57/57
f 57/57/57 65/65/65 66/66/66
f 58/58/58 66/66/66 67/67/67
f 59/59/59 67/67/67 68/68/68
f 6/6/6 7/7/7 53/53/53
f 45/45/45 53/53/53 54/54/54
f 54/54/54 55/55/55 47/47/47
f 55/55/55 56/56/56 48/48/48
f 56/56/56 57/57/57 49/49/49
f 49/49/49 57/57/57 58/58/58
f 58/58/58 59/59/59 51/51/51
f 59/59/59 60/60/60 52/52/52
f 6/6/6 45/45/45 37/37/37
f 45/45/45 46/46/46 38/38/38
f 46/46/46 47/47/47 39/39/39
f 39/39/39 47/47/47 48/48/48
f 40/40/40 48/48/48 49/49/49
f 41/41/41 49/49/49 50/50/50
f 50/50/50 51/51/51 43/43/43
f 51/51/51 52/52/52 44/44/44
f 5/5/5 37/37/37 28/28/28
f 28/28/28 37/37/37 38/38/38
f 27/27/27 38/38/38 39/39/39
f 26/26/26 39/39/39 40/40/40
f 40/40/40 41/41/41 24/24/24
f 41/41/41 42/42/42 23/23/23
f 23/23/23 42/42/42 43/43/43
f 43/43/43 44/44/44 21/21/21
f 2/2/2 29/29/29 93/93/93
f 93/93/93 29/29/29 30/30/30
f 30/30/30 31/31/31 95/95/95
f 31/31/31 32/32/32 96/96/96
f 32/32/32 33/33/33 97/97/97
f 33/33/33 34/34/34 98/98/98
f 98/98/98 34/34/34 35/35/35
f 99/99/99 35/35/35 36/36/36
