o GNATVCloth
v -4.99634 -4.97273 0.617846
v 5.04882 -4.98973 0.393589
v -5.01298 5.02105 0.004229
v 4.98702 5.02105 0.004229
v -3.89667 -5.00994 0.459675
v -2.78344 -5.03791 0.467097
v -1.66513 -5.0592 0.433277
v -0.544149 -5.08059 0.432645
v 0.578681 -5.08618 0.402931
v 1.70068 -5.07604 0.397215
v 2.82105 -5.04867 0.405395
v 3.93708 -5.0237 0.330132
v 3.87423 4.88643 0.214354
v 2.77247 4.77421 0.429729
v 1.65134 4.7346 0.374248
v 0.531982 4.69655 0.397713
v -0.572632 4.67602 0.585482
v -1.69105 4.70917 0.508547
v -2.81511 4.74329 0.496376
v -3.91055 4.86047 0.253221
v -4.97374 3.9094 0.0916469
v -4.96202 2.79476 0.122359
v -4.96257 1.68109 0.159152
v -4.96548 0.567528 0.189796
v -4.96867 -0.544925 0.232692
v -4.97535 -1.65684 0.281153
v -4.98203 -2.76663 0.34516
v -4.993 -3.87503 0.433673
v 5.02779 -3.87968 0.318672
v 5.00983 -2.77378 0.204837
v 4.99393 -1.66225 0.172609
v 4.98464 -0.549598 0.172501
v 4.98065 0.563385 0.165317
v 4.97775 1.67774 0.141047
v 4.9759 2.7929 0.127078
v 4.96673 3.90711 0.0725392
v -3.81899 -3.85895 0.419911
v -3.77793 -3.21311 0.351152
v -3.62926 -1.92493 0.275076
v -4.08009 -0.272024 0.202378
v -4.10706 0.74491 0.199467
v -4.10087 1.52721 0.149704
v -4.03611 2.81855 0.0947933
v -3.93076 3.878 -0.180602
v -2.69513 -4.01861 0.341396
v -2.76261 -2.75005 0.280973
v -2.63979 -2.15804 0.283646
v -2.71017 -0.613485 0.266007
v -2.74163 0.517236 0.224216
v -2.68742 1.54194 -0.00610293
v -2.85524 2.85368 -0.284745
v -2.76938 3.49039 0.00539086
v -1.63631 -4.25049 0.380299
v -1.47538 -2.93421 0.410023
v -1.85685 -1.63932 0.386403
v -1.83458 -0.844645 0.313157
v -1.53576 0.578405 -0.201436
v -1.9974 1.63768 -0.299486
v -1.72331 2.66627 -0.104405
v -1.57561 3.62056 0.22966
v -0.216499 -4.34146 0.388601
v -0.56654 -2.90455 0.363687
v -0.525133 -1.77036 0.255197
v -0.82437 -0.808115 0.0739374
v -0.606433 0.386616 -0.128243
v -0.373611 1.3938 -0.164554
v -0.573074 2.56218 0.042741
v -0.755785 3.41397 0.230298
v 0.751583 -3.91999 0.33125
v 0.827105 -2.64148 0.313229
v 0.538914 -1.86378 0.172283
v 0.621772 -0.555836 -0.0962349
v 0.589952 0.352586 -0.106835
v 0.300738 1.45279 -0.105009
v 0.526113 2.40027 0.0111522
v 0.550712 3.6134 0.335359
v 1.96423 -3.67779 0.305205
v 1.68579 -2.87237 0.413584
v 1.82494 -1.94429 0.360529
v 1.98727 -0.435939 0.08981
v 1.98649 0.230017 -0.0853205
v 1.83436 1.48727 -0.163683
v 1.40838 2.74723 -0.0597753
v 1.49189 3.5221 0.272887
v 2.80691 -3.9393 0.295305
v 3.10732 -2.84874 0.291408
v 2.95754 -1.97547 0.405577
v 2.71336 -0.520539 0.256648
v 2.95886 0.272413 0.170235
v 3.08294 1.54608 -0.0876569
v 2.76775 3.10818 -0.207521
v 2.74768 3.43333 -0.0255921
v 3.93152 -3.97716 0.334933
v 3.66924 -2.7254 0.300433
v 3.87482 -1.68532 0.303496
v 3.80925 -0.727948 0.334473
v 3.86597 0.28228 0.287497
v 4.15888 1.79827 0.165115
v 4.1356 2.75082 0.000964527
v 4.03501 3.86938 -0.154361
vt 0.0001 0.0001
vt 0.9999 0.0001
vt 0.0001 0.9999
vt 0.9999 0.9999
vt 0.111189 0.0001
vt 0.222278 0.0001
vt 0.333367 0.0001
vt 0.444455 0.0001
vt 0.555544 0.0001
vt 0.666633 0.0001
vt 0.777722 0.0001
vt 0.888811 0.0001
vt 0.888811 0.9999
vt 0.777722 0.9999
vt 0.666633 0.9999
vt 0.555544 0.9999
vt 0.444455 0.9999
vt 0.333367 0.9999
vt 0.222278 0.9999
vt 0.111189 0.9999
vt 0.0001 0.888811
vt 0.0001 0.777722
vt 0.0001 0.666633
vt 0.0001 0.555544
vt 0.0001 0.444456
vt 0.0001 0.333367
vt 0.0001 0.222278
vt 0.0001 0.111189
vt 0.9999 0.111189
vt 0.9999 0.222278
vt 0.9999 0.333367
vt 0.9999 0.444456
vt 0.9999 0.555544
vt 0.9999 0.666633
vt 0.9999 0.777722
vt 0.9999 0.888811
vt 0.11727 0.115399
vt 0.120778 0.180369
vt 0.134636 0.309595
vt 0.088728 0.473895
vt 0.085886 0.575352
vt 0.086211 0.65375
vt 0.092207 0.78313
vt 0.106956 0.892282
vt 0.22987 0.102869
vt 0.221803 0.229552
vt 0.233521 0.288953
vt 0.225541 0.443179
vt 0.221596 0.556167
vt 0.227801 0.661237
vt 0.214896 0.795203
vt 0.22542 0.865181
vt 0.335524 0.082127
vt 0.351143 0.213907
vt 0.311934 0.342467
vt 0.313159 0.422214
vt 0.347791 0.572605
vt 0.301482 0.677733
vt 0.329031 0.783086
vt 0.344903 0.885466
vt 0.476837 0.074882
vt 0.441952 0.218774
vt 0.445749 0.333088
vt 0.416414 0.43099
vt 0.439746 0.552976
vt 0.463203 0.656843
vt 0.444252 0.77653
vt 0.426137 0.866051
vt 0.573419 0.117409
vt 0.581125 0.246686
vt 0.552512 0.326
vt 0.561075 0.459693
vt 0.558356 0.550596
vt 0.530299 0.662189
vt 0.553275 0.760113
vt 0.555478 0.888821
vt 0.694433 0.13996
vt 0.667048 0.221666
vt 0.681985 0.314267
vt 0.698218 0.467249
vt 0.696819 0.535952
vt 0.68253 0.662758
vt 0.642062 0.791726
vt 0.648523 0.877957
vt 0.778029 0.111667
vt 0.809426 0.219523
vt 0.794923 0.307783
vt 0.772028 0.454562
vt 0.796846 0.533374
vt 0.807262 0.663157
vt 0.778581 0.821037
vt 0.775122 0.858219
vt 0.890224 0.104741
vt 0.865679 0.23076
vt 0.887326 0.334104
vt 0.881307 0.429754
vt 0.887973 0.53063
vt 0.918106 0.681428
vt 0.915043 0.778027
vt 0.904815 0.89094
vn 0.145869 0.163266 0.975739
vn -0.0240487 0.031347 0.999219
vn -0.00124155 -0.160772 0.986991
vn -0.0138296 -0.125176 0.992038
vn 0.0506591 0.0776441 0.995693
vn 0.025424 0.0843648 0.996111
vn 0.0165997 0.0647696 0.997762
vn 0.00883419 0.0577853 0.99829
vn 0.0219509 0.0548568 0.998253
vn 0.00845886 0.0708367 0.997452
vn 0.00867276 0.0643697 0.997888
vn 0.00528119 -0.00455884 0.999976
vn 0.21229 -0.303224 0.928971
vn 0.142724 -0.257271 0.955741
vn -0.0113793 -0.0818149 0.996583
vn 0.0844396 -0.0656198 0.994266
vn -0.00228765 -0.21083 0.97752
vn -0.0459906 -0.252482 0.966508
vn -0.164562 -0.343323 0.924689
vn -0.247737 -0.387077 0.888143
vn 0.180201 0.111819 0.977253
vn 0.0289637 0.0304142 0.999118
vn 0.0131427 0.0413577 0.999058
vn -0.00215888 0.0228582 0.999736
vn 0.0215062 0.0409334 0.99893
vn 0.0169057 0.0495461 0.998629
vn 0.0188717 0.0646365 0.99773
vn 0.0480816 0.0956613 0.994252
vn 0.00722091 0.0850043 0.996354
vn 0.066172 0.0397465 0.997016
vn 0.12285 0.00251223 0.992422
vn 0.12477 0.0155929 0.992063
vn 0.0777545 0.0303091 0.996512
vn 0.0319056 0.0172093 0.999343
vn -0.0918019 0.0750406 0.992946
vn -0.209785 0.0745147 0.974904
vn 0.0369766 0.0778705 0.996278
vn 0.0375153 0.0743157 0.996529
vn 0.00532631 0.0369059 0.999305
vn -0.00685323 0.0291534 0.999551
vn 0.0172654 0.0629597 0.997867
vn 0.0646796 0.0510206 0.996601
vn 0.147823 0.116593 0.982117
vn -0.0347553 -0.152279 0.987726
vn 0.0119416 0.0690458 0.997542
vn -0.0220198 0.0319328 0.999247
vn -0.0731956 0.00251588 0.997314
vn -0.0481486 0.0357128 0.998201
vn 0.132104 0.141027 0.981152
vn 0.209766 0.164657 0.963788
vn 0.0515415 -0.0369746 0.997986
vn -0.202981 -0.35787 0.911443
vn 0.00403641 0.0404595 0.999173
vn -0.0213244 0.0195733 0.999581
vn 0.0277689 0.0727067 0.996967
vn 0.136749 0.156548 0.978158
vn 0.11066 0.181443 0.977155
vn 0.079022 0.0340841 0.99629
vn -0.149483 -0.257346 0.954687
vn -0.08614 -0.293432 0.952091
vn 0.0202461 0.0418293 0.99892
vn 0.0375875 0.0561713 0.997713
vn 0.0875949 0.142859 0.985859
vn 0.114137 0.189092 0.975304
vn -0.0247937 0.0732663 0.997004
vn -0.0704866 -0.0503403 0.996242
vn -0.0743462 -0.207007 0.975511
vn -0.074732 -0.26261 0.962004
vn 0.00897841 0.0178027 0.999801
vn -0.0617735 0.0824762 0.994677
vn -0.0169845 0.161023 0.986805
vn -0.0253404 0.154332 0.987694
vn -0.00441267 0.0170363 0.999845
vn -0.0221963 -0.0351081 0.999137
vn 0.0387956 -0.163096 0.985847
vn 0.0487667 -0.218213 0.974682
vn 0.0366374 -0.0194639 0.999139
vn -0.00448134 -0.030411 0.999527
vn -0.112307 0.135944 0.98433
vn -0.172256 0.221327 0.959866
vn -0.136093 0.148027 0.979575
vn 0.0229377 -0.0048654 0.999725
vn 0.126436 -0.233404 0.964125
vn 0.0924583 -0.264076 0.96006
vn -0.00681168 0.0541284 0.998511
vn 0.023719 -0.051628 0.998385
vn 0.0299041 -0.0059358 0.999535
vn -0.131051 0.157147 0.978841
vn -0.164442 0.157563 0.973721
vn -0.167466 0.12574 0.977827
vn 0.0625627 -0.171149 0.983257
vn 0.203817 -0.394477 0.896017
vn 0.0012449 0.0423421 0.999102
vn 0.0507244 -0.0210772 0.99849
vn 0.107947 -0.0122077 0.994082
vn 0.0392428 0.037477 0.998527
vn -0.0303965 0.083842 0.996015
vn -0.0865839 0.0920038 0.991987
vn -0.177221 0.10956 0.978054
vn 0.040883 -0.163102 0.985762
f 100/100/100 4/4/4 13/13/13
f 44/44/44 3/3/3 21/21/21
f 44/44/44 19/19/19 20/20/20
f 60/60/60 19/19/19 52/52/52
f 60/60/60 17/17/17 18/18/18
f 76/76/76 17/17/17 68/68/68
f 84/84/84 16/16/16 76/76/76
f 84/84/84 14/14/14 15/15/15
f 100/100/100 14/14/14 92/92/92
f 11/11/11 93/93/93 85/85/85
f 93/93/93 86/86/86 85/85/85
f 94/94/94 87/87/87 86/86/86
f 87/87/87 96/96/96 88/88/88
f 96/96/96 89/89/89 88/88/88
f 97/97/97 90/90/90 89/89/89
f 90/90/90 99/99/99 91/91/91
f 91/91/91 100/100/100 92/92/92
f 10/10/10 85/85/85 77/77/77
f 77/77/77 86/86/86 78/78/78
f 78/78/78 87/87/87 79/79/79
f 79/79/79 88/88/88 80/80/80
f 88/88/88 81/81/81 80/80/80
f 81/81/81 90/90/90 82/82/82
f 82/82/82 91/91/91 83/83/83
f 91/91/91 84/84/84 83/83/83
f 10/10/10 69/69/69 9/9/9
f 69/69/69 78/78/78 70/70/70
f 70/70/70 79/79/79 71/71/71
f 79/79/79 72/72/72 71/71/71
f 72/72/72 81/81/81 73/73/73
f 73/73/73 82/82/82 74/74/74
f 82/82/82 75/75/75 74/74/74
f 83/83/83 76/76/76 75/75/75
f 9/9/9 61/61/61 8/8/8
f 69/69/69 62/62/62 61/61/61
f 62/62/62 71/71/71 63/63/63
f 63/63/63 72/72/72 64/64/64
f 72/72/72 65/65/65 64/64/64
f 65/65/65 74/74/74 66/66/66
f 66/66/66 75/75/75 67/67/67
f 67/67/67 76/76/76 68/68/68
f 8/8/8 53/53/53 7/7/7
f 53/53/53 62/62/62 54/54/54
f 54/54/54 63/63/63 55/55/55
f 55/55/55 64/64/64 56/56/56
f 64/64/64 57/57/57 56/56/56
f 57/57/57 66/66/66 58/58/58
f 58/58/58 67/67/67 59/59/59
f 59/59/59 68/68/68 60/60/60
f 6/6/6 53/53/53 45/45/45
f 45/45/45 54/54/54 46/46/46
f 54/54/54 47/47/47 46/46/46
f 55/55/55 48/48/48 47/47/47
f 56/56/56 49/49/49 48/48/48
f 49/49/49 58/58/58 50/50/50
f 58/58/58 51/51/51 50/50/50
f 59/59/59 52/52/52 51/51/51
f 6/6/6 37/37/37 5/5/5
f 45/45/45 38/38/38 37/37/37
f 46/46/46 39/39/39 38/38/38
f 39/39/39 48/48/48 40/40/40
f 40/40/40 49/49/49 41/41/41
f 41/41/41 50/50/50 42/42/42
f 50/50/50 43/43/43 42/42/42
f 51/51/51 44/44/44 43/43/43
f 5/5/5 28/28/28 1/1/1
f 28/28/28 38/38/38 27/27/27
f 27/27/27 39/39/39 26/26/26
f 26/26/26 40/40/40 25/25/25
f 40/40/40 24/24/24 25/25/25
f 41/41/41 23/23/23 24/24/24
f 23/23/23 43/43/43 22/22/22
f 43/43/43 21/21/21 22/22/22
f 2/2/2 93/93/93 12/12/12
f 93/93/93 30/30/30 94/94/94
f 30/30/30 95/95/95 94/94/94
f 31/31/31 96/96/96 95/95/95
f 32/32/32 97/97/97 96/96/96
f 33/33/33 98/98/98 97/97/97
f 98/98/98 35/35/35 99/99/99
f 99/99/99 36/36/36 100/100/100
f 100/100/100 36/36/36 4/4/4
f 44/44/44 20/20/20 3/3/3
f 44/44/44 52/52/52 19/19/19
f 60/60/60 18/18/18 19/19/19
f 60/60/60 68/68/68 17/17/17
f 76/76/76 16/16/16 17/17/17
f 84/84/84 15/15/15 16/16/16
f 84/84/84 92/92/92 14/14/14
f 100/100/100 13/13/13 14/14/14
f 11/11/11 12/12/12 93/93/93
f 93/93/93 94/94/94 86/86/86
f 94/94/94 95/95/95 87/87/87
f 87/87/87 95/95/95 96/96/96
f 96/96/96 97/97/97 89/89/89
f 97/97/97 98/98/98 90/90/90
f 90/90/90 98/98/98 99/99/99
f 91/91/91 99/99/99 100/100/100
f 10/10/10 11/11/11 85/85/85
f 77/77/77 85/85/85 86/86/86
f 78/78/78 86/86/86 87/87/87
f 79/79/79 87/87/87 88/88/88
f 88/88/88 89/89/89 81/81/81
f 81/81/81 89/89/89 90/90/90
f 82/82/82 90/90/90 91/91/91
f 91/91/91 92/92/92 84/84/84
f 10/10/10 77/77/77 69/69/69
f 69/69/69 77/77/77 78/78/78
f 70/70/70 78/78/78 79/79/79
f 79/79/79 80/80/80 72/72/72
f 72/72/72 80/80/80 81/81/81
f 73/73/73 81/81/81 82/82/82
f 82/82/82 83/83/83 75/75/75
f 83/83/83 84/84/84 76/76/76
f 9/9/9 69/69/69 61/61/61
f 69/69/69 70/70/70 62/62/62
f 62/62/62 70/70/70 71/71/71
f 63/63/63 71/71/71 72/72/72
f 72/72/72 73/73/73 65/65/65
f 65/65/65 73/73/73 74/74/74
f 66/66/66 74/74/74 75/75/75
f 67/67/67 75/75/75 76/76/76
f 8/8/8 61/61/61 53/53/53
f 53/53/53 61/61/61 62/62/62
f 54/54/54 62/62/62 63/63/63
f 55/55/55 63/63/63 64/64/64
f 64/64/64 65/65/65 57/57/57
f 57/57/57 65/65/65 66/66/66
f 58/58/58 66/66/66 67/67/67
f 59/59/59 67/67/67 68/68/68
f 6/6/6 7/7/7 53/53/53
f 45/45/45 53/53/53 54/54/54
f 54/54/54 55/55/55 47/47/47
f 55/55/55 56/56/56 48/48/48
f 56/56/56 57/57/57 49/49/49
f 49/49/49 57/57/57 58/58/58
f 58/58/58 59/59/59 51/51/51
f 59/59/59 60/60/60 52/52/52
f 6/6/6 45/45/45 37/37/37
f 45/45/45 46/46/46 38/38/38
f 46/46/46 47/47/47 39/39/39
f 39/39/39 47/47/47 48/48/48
f 40/40/40 48/48/48 49/49/49
f 41/41/41 49/49/49 50/50/50
f 50/50/50 51/51/51 43/43/43
f 51/51/51 52/52/52 44/44/44
f 5/5/5 37/37/37 28/28/28
f 28/28/28 37/37/37 38/38/38
f 27/27/27 38/38/38 39/39/39
f 26/26/26 39/39/39 40/40/40
f 40/40/40 41/41/41 24/24/24
f 41/41/41 42/42/42 23/23/23
f 23/23/23 42/42/42 43/43/43
f 43/43/43 44/44/44 21/21/21
f 2/2/2 29/29/29 93/93/93
f 93/93/93 29/29/29 30/30/30
f 30/30/30 31/31/31 95/95/95
f 31/31/31 32/32/32 96/96/96
f 32/32/32 33/33/33 97/97/97
f 33/33/33 34/34/34 98/98/98
f 98/98/98 34/34/34 35/35/35
f 99/99/99 35/35/35 36/36/36
