o GNATVCloth
v -5.05652 -4.98389 0.585315
v 5.04577 -4.99722 0.392772
v -5.01298 5.02105 0.004229
v 4.98702 5.02105 0.004229
v -3.94343 -5.02345 0.542675
v -2.82533 -5.06122 0.480372
v -1.7004 -5.08996 0.494379
v -0.57161 -5.10934 0.498092
v 0.559358 -5.11791 0.49626
v 1.68801 -5.09971 0.509793
v 2.81216 -5.06767 0.454328
v 3.93274 -5.01754 0.487885
v 3.86245 4.91377 0.166151
v 2.74893 4.84228 0.329308
v 1.62742 4.78074 0.329501
v 0.510399 4.73782 0.317182
v -0.581294 4.72363 0.448807
v -1.69099 4.72359 0.611411
v -2.81258 4.77885 0.527399
v -3.90752 4.88945 0.268881
v -4.98612 3.90691 0.0751648
v -4.98967 2.79243 0.140459
v -4.99816 1.67865 0.2051
v -5.00453 0.565059 0.26844
v -5.00943 -0.54846 0.325889
v -5.01587 -1.66176 0.369221
v -5.02481 -2.77409 0.40052
v -5.03105 -3.88148 0.508258
v 5.02181 -3.88762 0.293056
v 5.01186 -2.77559 0.286823
v 5.00266 -1.66168 0.252009
v 4.99463 -0.549248 0.23518
v 4.98615 0.563367 0.205472
v 4.97825 1.67707 0.164354
v 4.97451 2.79175 0.12718
v 4.97039 3.90538 0.0518252
v -3.86671 -3.88903 0.331478
v -3.82659 -3.24132 0.273003
v -3.6769 -1.95439 0.241394
v -4.12743 -0.292489 0.225621
v -4.1481 0.722607 0.193946
v -4.13975 1.50634 0.137029
v -4.07248 2.7992 0.036052
v -3.92244 3.87759 -0.102659
v -2.73333 -4.05523 0.302875
v -2.80879 -2.78556 0.345713
v -2.68505 -2.19768 0.292193
v -2.75928 -0.65191 0.291321
v -2.79124 0.474743 0.183038
v -2.72502 1.51255 0.032603
v -2.84337 2.85362 -0.0842049
v -2.74144 3.53779 0.0505671
v -1.66802 -4.29163 0.319814
v -1.50663 -2.97969 0.396556
v -1.89879 -1.68641 0.385936
v -1.88187 -0.888243 0.333593
v -1.52876 0.578992 0.0838383
v -1.9878 1.64342 -0.027407
v -1.70883 2.68501 0.0440233
v -1.58365 3.61044 0.428463
v -0.240953 -4.38128 0.390554
v -0.593616 -2.9463 0.474042
v -0.551389 -1.80325 0.453549
v -0.842792 -0.830621 0.319086
v -0.604609 0.371352 0.135519
v -0.373194 1.38704 0.099346
v -0.569252 2.57428 0.160426
v -0.76153 3.4082 0.442116
v 0.732485 -3.94974 0.409663
v 0.811284 -2.66253 0.511343
v 0.524991 -1.87413 0.481801
v 0.61147 -0.566864 0.211959
v 0.589128 0.341871 0.185913
v 0.299978 1.43629 0.127759
v 0.524335 2.40436 0.1736
v 0.538959 3.64189 0.395934
v 1.95058 -3.70023 0.379164
v 1.66704 -2.89113 0.361829
v 1.82986 -1.96786 0.460809
v 1.99126 -0.467435 0.135069
v 1.97266 0.207982 0.00611717
v 1.82982 1.4696 0.0818772
v 1.41091 2.74197 0.160338
v 1.47619 3.57192 0.326666
v 2.79613 -3.95518 0.379165
v 3.10097 -2.86966 0.322033
v 2.95063 -1.99379 0.263446
v 2.71555 -0.534087 0.321386
v 2.95805 0.258962 0.208578
v 3.07421 1.52989 -0.0758236
v 2.76141 3.09403 -0.0340711
v 2.72715 3.45761 0.0400656
v 3.92307 -3.99129 0.291532
v 3.66566 -2.73967 0.310282
v 3.8762 -1.69521 0.286869
v 3.81133 -0.740082 0.299501
v 3.86925 0.272134 0.288034
v 4.15822 1.78985 0.153877
v 4.14046 2.73802 -0.0354849
v 4.02177 3.86172 -0.0813307
vt 0.0001 0.0001
vt 0.9999 0.0001
vt 0.0001 0.9999
vt 0.9999 0.9999
vt 0.111189 0.0001
vt 0.222278 0.0001
vt 0.333367 0.0001
vt 0.444455 0.0001
vt 0.555544 0.0001
vt 0.666633 0.0001
vt 0.777722 0.0001
vt 0.888811 0.0001
vt 0.888811 0.9999
vt 0.777722 0.9999
vt 0.666633 0.9999
vt 0.555544 0.9999
vt 0.444455 0.9999
vt 0.333367 0.9999
vt 0.222278 0.9999
vt 0.111189 0.9999
vt 0.0001 0.888811
vt 0.0001 0.777722
vt 0.0001 0.666633
vt 0.0001 0.555544
vt 0.0001 0.444456
vt 0.0001 0.333367
vt 0.0001 0.222278
vt 0.0001 0.111189
vt 0.9999 0.111189
vt 0.9999 0.222278
vt 0.9999 0.333367
vt 0.9999 0.444456
vt 0.9999 0.555544
vt 0.9999 0.666633
vt 0.9999 0.777722
vt 0.9999 0.888811
vt 0.11727 0.115399
vt 0.120778 0.180369
vt 0.134636 0.309595
vt 0.088728 0.473895
vt 0.085886 0.575352
vt 0.086211 0.65375
vt 0.092207 0.78313
vt 0.106956 0.892282
vt 0.22987 0.102869
vt 0.221803 0.229552
vt 0.233521 0.288953
vt 0.225541 0.443179
vt 0.221596 0.556167
vt 0.227801 0.661237
vt 0.214896 0.795203
vt 0.22542 0.865181
vt 0.335524 0.082127
vt 0.351143 0.213907
vt 0.311934 0.342467
vt 0.313159 0.422214
vt 0.347791 0.572605
vt 0.301482 0.677733
vt 0.329031 0.783086
vt 0.344903 0.885466
vt 0.476837 0.074882
vt 0.441952 0.218774
vt 0.445749 0.333088
vt 0.416414 0.43099
vt 0.439746 0.552976
vt 0.463203 0.656843
vt 0.444252 0.77653
vt 0.426137 0.866051
vt 0.573419 0.117409
vt 0.581125 0.246686
vt 0.552512 0.326
vt 0.561075 0.459693
vt 0.558356 0.550596
vt 0.530299 0.662189
vt 0.553275 0.760113
vt 0.555478 0.888821
vt 0.694433 0.13996
vt 0.667048 0.221666
vt 0.681985 0.314267
vt 0.698218 0.467249
vt 0.696819 0.535952
vt 0.68253 0.662758
vt 0.642062 0.791726
vt 0.648523 0.877957
vt 0.778029 0.111667
vt 0.809426 0.219523
vt 0.794923 0.307783
vt 0.772028 0.454562
vt 0.796846 0.533374
vt 0.807262 0.663157
vt 0.778581 0.821037
vt 0.775122 0.858219
vt 0.890224 0.104741
vt 0.865679 0.23076
vt 0.887326 0.334104
vt 0.881307 0.429754
vt 0.887973 0.53063
vt 0.918106 0.681428
vt 0.915043 0.778027
vt 0.904815 0.89094
vn 0.0406284 0.0687374 0.996807
vn 0.0352838 0.138984 0.989666
vn -0.0472857 -0.13758 0.989361
vn 0.00899446 -0.0810438 0.99667
vn 0.0836562 0.139902 0.986625
vn 0.031553 0.183454 0.982522
vn -0.00312254 0.213734 0.976887
vn -0.0118283 0.173996 0.984675
vn -0.0221461 0.101024 0.994637
vn 0.0166815 0.0809344 0.99658
vn 0.0297434 0.108237 0.99368
vn 0.0212553 0.188072 0.981925
vn 0.156624 -0.203624 0.96644
vn 0.128486 -0.154564 0.979592
vn -0.00534392 -0.00167696 0.999984
vn 0.0622615 0.0490247 0.996855
vn 0.0708429 -0.0215371 0.997255
vn 0.0309498 -0.159191 0.986763
vn -0.206536 -0.306867 0.929072
vn -0.252561 -0.330224 0.909486
vn 0.148604 0.0758191 0.985986
vn 0.112501 0.0572377 0.992002
vn 0.0937926 0.0641909 0.99352
vn 0.0850461 0.0465905 0.995287
vn 0.100091 0.0444732 0.993984
vn 0.101964 0.0342162 0.994199
vn 0.117793 0.0446422 0.992034
vn 0.120646 0.103874 0.987246
vn -0.00586581 0.0474823 0.998855
vn 0.0157791 0.011102 0.999814
vn 0.0376815 0.0119541 0.999218
vn 0.057129 0.0169684 0.998223
vn 0.0374433 0.047314 0.998178
vn -0.00794413 0.0350708 0.999353
vn -0.13517 0.0963126 0.98613
vn -0.158761 0.045146 0.986284
vn 0.0896932 0.137561 0.986424
vn 0.0501011 0.0454878 0.997708
vn 0.0143002 0.0288613 0.999481
vn 0.0466519 0.0403332 0.998097
vn 0.0618284 0.0674462 0.995805
vn 0.0831463 0.0722968 0.993911
vn 0.106166 0.0819043 0.990969
vn -0.0706414 -0.134166 0.988438
vn -0.00287637 0.0503144 0.998729
vn -0.0476238 0.0307389 0.998392
vn -0.064573 0.0324691 0.997385
vn -0.0486131 0.040961 0.997977
vn 0.027143 0.112577 0.993272
vn 0.0655253 0.102245 0.992599
vn -0.0300801 -0.012284 0.999472
vn -0.2159 -0.280598 0.935228
vn -0.0269457 0.084733 0.996039
vn -0.0599897 -0.00757199 0.99817
vn -0.054831 0.03697 0.997811
vn 0.00543552 0.109218 0.994003
vn 0.000699216 0.12152 0.992589
vn -0.0274029 0.0427609 0.998709
vn -0.146194 -0.21919 0.964667
vn -0.102792 -0.235602 0.966398
vn -0.028173 0.0527213 0.998212
vn -0.0405987 -0.0269376 0.998812
vn -0.0278977 0.0855276 0.995945
vn 0.00803987 0.134159 0.990927
vn -0.0245194 0.0765041 0.996768
vn -0.0509985 0.00143944 0.998698
vn -0.0495584 -0.165208 0.985013
vn -0.0258111 -0.208961 0.977583
vn 0.0143549 0.00805478 0.999865
vn 0.0528127 -0.0450618 0.997587
vn -0.00395592 0.0988374 0.995096
vn 0.0352969 0.144336 0.988899
vn 0.040595 0.0233976 0.998902
vn -0.0132646 0.0112257 0.999849
vn 0.00806175 -0.0921164 0.995716
vn 0.0610258 -0.10352 0.992754
vn 0.0187647 0.0574935 0.99817
vn 0.0884662 -0.036945 0.995394
vn 0.050281 0.0592745 0.996975
vn -0.0938623 0.202478 0.974778
vn -0.031952 0.107429 0.993699
vn 0.0883969 -0.0213303 0.995857
vn 0.102822 -0.130338 0.986124
vn 0.104375 -0.103656 0.989121
vn 0.0492967 0.0606713 0.99694
vn 0.029234 0.0397776 0.998781
vn 0.0475943 -0.00424785 0.998858
vn -0.0729423 0.116135 0.990551
vn -0.109972 0.161299 0.980759
vn -0.0769736 0.101523 0.991851
vn 0.118398 -0.0818846 0.989584
vn 0.177163 -0.192294 0.965213
vn 0.028733 0.0686979 0.997224
vn 0.00572793 0.018843 0.999806
vn 0.00476589 0.0107969 0.99993
vn 0.0121672 0.0149335 0.999815
vn -0.0399173 0.0815127 0.995873
vn -0.108321 0.109675 0.988048
vn -0.130286 0.0804801 0.988205
vn 0.0503706 -0.0992233 0.993789
f 100/100/100 4/4/4 13/13/13
f 44/44/44 3/3/3 21/21/21
f 44/44/44 19/19/19 20/20/20
f 60/60/60 19/19/19 52/52/52
f 60/60/60 17/17/17 18/18/18
f 76/76/76 17/17/17 68/68/68
f 84/84/84 16/16/16 76/76/76
f 84/84/84 14/14/14 15/15/15
f 100/100/100 14/14/14 92/92/92
f 11/11/11 93/93/93 85/85/85
f 93/93/93 86/86/86 85/85/85
f 94/94/94 87/87/87 86/86/86
f 87/87/87 96/96/96 88/88/88
f 96/96/96 89/89/89 88/88/88
f 97/97/97 90/90/90 89/89/89
f 90/90/90 99/99/99 91/91/91
f 91/91/91 100/100/100 92/92/92
f 10/10/10 85/85/85 77/77/77
f 77/77/77 86/86/86 78/78/78
f 78/78/78 87/87/87 79/79/79
f 79/79/79 88/88/88 80/80/80
f 88/88/88 81/81/81 80/80/80
f 81/81/81 90/90/90 82/82/82
f 82/82/82 91/91/91 83/83/83
f 91/91/91 84/84/84 83/83/83
f 10/10/10 69/69/69 9/9/9
f 69/69/69 78/78/78 70/70/70
f 70/70/70 79/79/79 71/71/71
f 79/79/79 72/72/72 71/71/71
f 72/72/72 81/81/81 73/73/73
f 73/73/73 82/82/82 74/74/74
f 82/82/82 75/75/75 74/74/74
f 83/83/83 76/76/76 75/75/75
f 9/9/9 61/61/61 8/8/8
f 69/69/69 62/62/62 61/61/61
f 62/62/62 71/71/71 63/63/63
f 63/63/63 72/72/72 64/64/64
f 72/72/72 65/65/65 64/64/64
f 65/65/65 74/74/74 66/66/66
f 66/66/66 75/75/75 67/67/67
f 67/67/67 76/76/76 68/68/68
f 8/8/8 53/53/53 7/7/7
f 53/53/53 62/62/62 54/54/54
f 54/54/54 63/63/63 55/55/55
f 55/55/55 64/64/64 56/56/56
f 64/64/64 57/57/57 56/56/56
f 57/57/57 66/66/66 58/58/58
f 58/58/58 67/67/67 59/59/59
f 59/59/59 68/68/68 60/60/60
f 6/6/6 53/53/53 45/45/45
f 45/45/45 54/54/54 46/46/46
f 54/54/54 47/47/47 46/46/46
f 55/55/55 48/48/48 47/47/47
f 56/56/56 49/49/49 48/48/48
f 49/49/49 58/58/58 50/50/50
f 58/58/58 51/51/51 50/50/50
f 59/59/59 52/52/52 51/51/51
f 6/6/6 37/37/37 5/5/5
f 45/45/45 38/38/38 37/37/37
f 46/46/46 39/39/39 38/38/38
f 39/39/39 48/48/48 40/40/40
f 40/40/40 49/49/49 41/41/41
f 41/41/41 50/50/50 42/42/42
f 50/50/50 43/43/43 42/42/42
f 51/51/51 44/44/44 43/43/43
f 5/5/5 28/28/28 1/1/1
f 28/28/28 38/38/38 27/27/27
f 27/27/27 39/39/39 26/26/26
f 26/26/26 40/40/40 25/25/25
f 40/40/40 24/24/24 25/25/25
f 41/41/41 23/23/23 24/24/24
f 23/23/23 43/43/43 22/22/22
f 43/43/43 21/21/21 22/22/22
f 2/2/2 93/93/93 12/12/12
f 93/93/93 30/30/30 94/94/94
f 30/30/30 95/95/95 94/94/94
f 31/31/31 96/96/96 95/95/95
f 32/32/32 97/97/97 96/96/96
f 33/33/33 98/98/98 97/97/97
f 98/98/98 35/35/35 99/99/99
f 99/99/99 36/36/36 100/100/100
f 100/100/100 36/36/36 4/4/4
f 44/44/44 20/20/20 3/3/3
f 44/44/44 52/52/52 19/19/19
f 60/60/60 18/18/18 19/19/19
f 60/60/60 68/68/68 17/17/17
f 76/76/76 16/16/16 17/17/17
f 84/84/84 15/15/15 16/16/16
f 84/84/84 92/92/92 14/14/14
f 100/100/100 13/13/13 14/14/14
f 11/11/11 12/12/12 93/93/93
f 93/93/93 94/94/94 86/86/86
f 94/94/94 95/95/95 87/87/87
f 87/87/87 95/95/95 96/96/96
f 96/96/96 97/97/97 89/89/89
f 97/97/97 98/98/98 90/90/90
f 90/90/90 98/98/98 99/99/99
f 91/91/91 99/99/99 100/100/100
f 10/10/10 11/11/11 85/85/85
f 77/77/77 85/85/85 86/86/86
f 78/78/78 86/86/86 87/87/87
f 79/79/79 87/87/87 88/88/88
f 88/88/88 89/89/89 81/81/81
f 81/81/81 89/89/89 90/90/90
f 82/82/82 90/90/90 91/91/91
f 91/91/91 92/92/92 84/84/84
f 10/10/10 77/77/77 69/69/69
f 69/69/69 77/77/77 78/78/78
f 70/70/70 78/78/78 79/79/79
f 79/79/79 80/80/80 72/72/72
f 72/72/72 80/80/80 81/81/81
f 73/73/73 81/81/81 82/82/82
f 82/82/82 83/83/83 75/75/75
f 83/83/83 84/84/84 76/76/76
f 9/9/9 69/69/69 61/61/61
f 69/69/69 70/70/70 62/62/62
f 62/62/62 70/70/70 71/71/71
f 63/63/63 71/71/71 72/72/72
f 72/72/72 73/73/73 65/65/65
f 65/65/65 73/73/73 74/74/74
f 66/66/66 74/74/74 75/75/75
f 67/67/67 75/75/75 76/76/76
f 8/8/8 61/61/61 53/53/53
f 53/53/53 61/61/61 62/62/62
f 54/54/54 62/62/62 63/63/63
f 55/55/55 63/63/63 64/64/64
f 64/64/64 65/65/65 57/57/57
f 57/57/57 65/65/65 66/66/66
f 58/58/58 66/66/66 67/67/67
f 59/59/59 67/67/67 68/68/68
f 6/6/6 7/7/7 53/53/53
f 45/45/45 53/53/53 54/54/54
f 54/54/54 55/55/55 47/47/47
f 55/55/55 56/56/56 48/48/48
f 56/56/56 57/57/57 49/49/49
f 49/49/49 57/57/57 58/58/58
f 58/58/58 59/59/59 51/51/51
f 59/59/59 60/60/60 52/52/52
f 6/6/6 45/45/45 37/37/37
f 45/45/45 46/46/46 38/38/38
f 46/46/46 47/47/47 39/39/39
f 39/39/39 47/47/47 48/48/48
f 40/40/40 48/48/48 49/49/49
f 41/41/41 49/49/49 50/50/50
f 50/50/50 51/51/51 43/43/43
f 51/51/51 52/52/52 44/44/44
f 5/5/5 37/37/37 28/28/28
f 28/28/28 37/37/37 38/38/38
f 27/27/27 38/38/38 39/39/39
f 26/26/26 39/39/39 40/40/40
f 40/40/40 41/41/41 24/24/24
f 41/41/41 42/42/42 23/23/23
f 23/23/23 42/42/42 43/43/43
f 43/43/43 44/44/44 21/21/21
f 2/2/2 29/29/29 93/93/93
f 93/93/93 29/29/29 30/30/30
f 30/30/30 31/31/31 95/95/95
f 31/31/31 32/32/32 96/96/96
f 32/32/32 33/33/33 97/97/97
f 33/33/33 34/34/34 98/98/98
f 98/98/98 34/34/34 35/35/35
f 99/99/99 35/35/35 36/36/36
