o GNATVCloth
v -5.10168 -4.9794 0.512431
v 4.98325 -4.995 0.45123
v -5.01298 5.02105 0.004229
v 4.98702 5.02105 0.004229
v -3.98961 -5.01753 0.51303
v -2.87294 -5.05993 0.43273
v -1.74875 -5.08712 0.424162
v -0.622186 -5.10623 0.394097
v 0.506441 -5.10605 0.381878
v 1.63036 -5.08872 0.358339
v 2.75073 -5.06042 0.420855
v 3.87025 -5.02921 0.447171
v 3.84729 4.9479 0.165238
v 2.71833 4.88574 0.313528
v 1.58846 4.79542 0.392723
v 0.469503 4.73414 0.488694
v -0.641063 4.68234 0.390752
v -1.69569 4.70763 0.250552
v -2.80256 4.77723 0.411644
v -3.90393 4.87508 0.215752
v -5.00202 3.90754 0.0816391
v -5.00559 2.79223 0.103009
v -5.01742 1.67766 0.130095
v -5.03154 0.564336 0.178302
v -5.03758 -0.546003 0.259943
v -5.04493 -1.65606 0.339325
v -5.05397 -2.7633 0.448522
v -5.07203 -3.8681 0.550635
v 4.96657 -3.88531 0.383987
v 4.95645 -2.77819 0.277337
v 4.95481 -1.66565 0.263138
v 4.95502 -0.552747 0.242505
v 4.95624 0.561099 0.217849
v 4.95358 1.67559 0.17235
v 4.95512 2.79078 0.125168
v 4.95989 3.90563 0.060248
v -3.90364 -3.87308 0.425707
v -3.86366 -3.23292 0.314492
v -3.7105 -1.94959 0.181228
v -4.15251 -0.287248 0.158511
v -4.17145 0.729902 0.186074
v -4.15723 1.51402 0.172753
v -4.08167 2.80698 0.150874
v -3.94655 3.85869 -0.132504
v -2.78066 -4.04429 0.308959
v -2.84306 -2.77695 0.211271
v -2.7269 -2.1919 0.292021
v -2.7966 -0.645765 0.339765
v -2.82033 0.486008 0.334468
v -2.73344 1.52625 0.199557
v -2.87296 2.82959 -0.127439
v -2.82837 3.44937 0.202008
v -1.71856 -4.28256 0.341804
v -1.55382 -2.96808 0.373106
v -1.94672 -1.68089 0.452599
v -1.92355 -0.88469 0.418008
v -1.57085 0.575371 0.0806718
v -2.01921 1.62903 -0.0287434
v -1.77403 2.65727 0.203385
v -1.62139 3.59168 0.302948
v -0.292619 -4.36898 0.372883
v -0.640492 -2.9359 0.381691
v -0.59861 -1.79539 0.426163
v -0.890977 -0.831718 0.320114
v -0.657625 0.385498 0.234128
v -0.417474 1.40627 0.263061
v -0.618996 2.58567 0.359573
v -0.801466 3.43713 0.356439
v 0.680796 -3.93656 0.365325
v 0.759778 -2.6446 0.385677
v 0.472776 -1.8597 0.384524
v 0.560085 -0.526406 0.348399
v 0.533397 0.372893 0.312503
v 0.25331 1.47043 0.350197
v 0.483308 2.45345 0.389376
v 0.500949 3.68192 0.416113
v 1.89801 -3.6836 0.410903
v 1.62127 -2.87667 0.332932
v 1.77349 -1.9517 0.384102
v 1.93651 -0.420312 0.351592
v 1.92164 0.252856 0.23414
v 1.78457 1.51134 0.266965
v 1.37751 2.78854 0.328646
v 1.43862 3.62304 0.338574
v 2.74225 -3.94655 0.410055
v 3.05 -2.85824 0.362329
v 2.90183 -1.98331 0.274481
v 2.67764 -0.52342 0.355063
v 2.92238 0.271551 0.29303
v 3.02482 1.55468 0.0571619
v 2.74049 3.12223 0.144831
v 2.70115 3.48971 0.141373
v 3.86906 -3.98551 0.360563
v 3.61331 -2.73218 0.339668
v 3.82804 -1.69221 0.299856
v 3.76798 -0.73539 0.263452
v 3.83618 0.276765 0.27653
v 4.13375 1.79238 0.172628
v 4.10837 2.74955 0.0465595
v 4.00221 3.8756 0.0171953
vt 0.0001 0.0001
vt 0.9999 0.0001
vt 0.0001 0.9999
vt 0.9999 0.9999
vt 0.111189 0.0001
vt 0.222278 0.0001
vt 0.333367 0.0001
vt 0.444455 0.0001
vt 0.555544 0.0001
vt 0.666633 0.0001
vt 0.777722 0.0001
vt 0.888811 0.0001
vt 0.888811 0.9999
vt 0.777722 0.9999
vt 0.666633 0.9999
vt 0.555544 0.9999
vt 0.444455 0.9999
vt 0.333367 0.9999
vt 0.222278 0.9999
vt 0.111189 0.9999
vt 0.0001 0.888811
vt 0.0001 0.777722
vt 0.0001 0.666633
vt 0.0001 0.555544
vt 0.0001 0.444456
vt 0.0001 0.333367
vt 0.0001 0.222278
vt 0.0001 0.111189
vt 0.9999 0.111189
vt 0.9999 0.222278
vt 0.9999 0.333367
vt 0.9999 0.444456
vt 0.9999 0.555544
vt 0.9999 0.666633
vt 0.9999 0.777722
vt 0.9999 0.888811
vt 0.11727 0.115399
vt 0.120778 0.180369
vt 0.134636 0.309595
vt 0.088728 0.473895
vt 0.085886 0.575352
vt 0.086211 0.65375
vt 0.092207 0.78313
vt 0.106956 0.892282
vt 0.22987 0.102869
vt 0.221803 0.229552
vt 0.233521 0.288953
vt 0.225541 0.443179
vt 0.221596 0.556167
vt 0.227801 0.661237
vt 0.214896 0.795203
vt 0.22542 0.865181
vt 0.335524 0.082127
vt 0.351143 0.213907
vt 0.311934 0.342467
vt 0.313159 0.422214
vt 0.347791 0.572605
vt 0.301482 0.677733
vt 0.329031 0.783086
vt 0.344903 0.885466
vt 0.476837 0.074882
vt 0.441952 0.218774
vt 0.445749 0.333088
vt 0.416414 0.43099
vt 0.439746 0.552976
vt 0.463203 0.656843
vt 0.444252 0.77653
vt 0.426137 0.866051
vt 0.573419 0.117409
vt 0.581125 0.246686
vt 0.552512 0.326
vt 0.561075 0.459693
vt 0.558356 0.550596
vt 0.530299 0.662189
vt 0.553275 0.760113
vt 0.555478 0.888821
vt 0.694433 0.13996
vt 0.667048 0.221666
vt 0.681985 0.314267
vt 0.698218 0.467249
vt 0.696819 0.535952
vt 0.68253 0.662758
vt 0.642062 0.791726
vt 0.648523 0.877957
vt 0.778029 0.111667
vt 0.809426 0.219523
vt 0.794923 0.307783
vt 0.772028 0.454562
vt 0.796846 0.533374
vt 0.807262 0.663157
vt 0.778581 0.821037
vt 0.775122 0.858219
vt 0.890224 0.104741
vt 0.865679 0.23076
vt 0.887326 0.334104
vt 0.881307 0.429754
vt 0.887973 0.53063
vt 0.918106 0.681428
vt 0.915043 0.778027
vt 0.904815 0.89094
vn -0.00171444 -0.0343114 0.99941
vn -0.01648 0.0713845 0.997313
vn -0.00821464 -0.124255 0.992216
vn 0.0502637 -0.0319147 0.998226
vn 0.0597487 0.03465 0.997612
vn 0.0500774 0.100764 0.993649
vn 0.0191432 0.101102 0.994692
vn 0.00652586 0.054087 0.998515
vn 0.0110566 0.0163 0.999806
vn -0.0190326 -0.0116718 0.999751
vn -0.0124989 0.0340225 0.999343
vn -0.0159501 0.0826689 0.996449
vn 0.140903 -0.115395 0.983275
vn 0.120267 -0.104462 0.98723
vn 0.0813278 -0.056355 0.995093
vn 0.0274809 -0.0650701 0.997502
vn -0.0814341 -0.0185465 0.996506
vn 0.00831079 0.0474505 0.998839
vn -0.113001 -0.14095 0.983547
vn -0.205192 -0.309532 0.928486
vn 0.119082 0.107713 0.987024
vn -0.052076 0.0220557 0.9984
vn -0.0403716 0.0264213 0.998835
vn 0.0238519 0.0296713 0.999275
vn 0.0929217 0.0714594 0.993106
vn 0.119708 0.0713675 0.990241
vn 0.142818 0.0899648 0.985652
vn 0.0893994 0.0717602 0.993407
vn -0.0283746 0.0778301 0.996563
vn 0.0242384 0.040821 0.998872
vn 0.0262216 0.0237741 0.999373
vn 0.0271222 0.0087803 0.999594
vn 0.0298763 0.041354 0.998698
vn 0.0062557 0.0415325 0.999118
vn -0.0623062 0.0761232 0.99515
vn -0.0624007 0.043769 0.997091
vn 0.106487 0.114798 0.987665
vn 0.107628 0.112799 0.987772
vn 0.0102551 0.0226914 0.99969
vn -0.0107837 0.0162275 0.99981
vn -0.0475554 0.0263055 0.998522
vn -0.0324765 0.0181852 0.999307
vn 0.0668481 0.115842 0.991016
vn -0.0790448 -0.0978426 0.992058
vn 0.0264766 0.0878159 0.995785
vn -0.054232 0.00610974 0.99851
vn -0.142298 -0.0787477 0.986686
vn -0.122411 -0.00793208 0.992448
vn 0.0346245 0.0824692 0.995992
vn 0.108452 0.133896 0.985043
vn -0.0617571 -0.041552 0.997226
vn -0.242297 -0.250566 0.937288
vn -0.00730595 0.0439753 0.999006
vn -0.0611346 -0.0397962 0.997336
vn -0.0425519 0.00107412 0.999094
vn 0.0388237 0.0955296 0.994669
vn -0.00596184 0.118279 0.992962
vn -0.0124851 0.0190927 0.99974
vn -0.179215 -0.162951 0.970221
vn -0.0453889 -0.0445453 0.997976
vn -0.00402581 0.0119755 0.99992
vn 0.000607512 -0.0189332 0.999821
vn 0.0122015 0.0173568 0.999775
vn -0.00285975 0.106529 0.994306
vn -0.101039 0.0290939 0.994457
vn -0.13815 -0.0283981 0.990004
vn -0.0976278 -0.0734021 0.992512
vn -0.0745785 -0.0329191 0.996672
vn 0.000557232 0.00465753 0.999989
vn 0.0196382 -0.0190774 0.999625
vn 0.015291 0.0026255 0.99988
vn -0.00724362 0.0624411 0.998022
vn 0.00761482 -0.00241257 0.999968
vn -0.0426871 -0.0263967 0.99874
vn 0.00225629 -0.0364559 0.999333
vn 0.00507576 -0.0325572 0.999457
vn -0.0205406 0.0279871 0.999397
vn 0.0163767 0.0185446 0.999694
vn 0.0330841 -0.0145287 0.999347
vn -0.000462638 0.0969958 0.995285
vn 0.023567 0.0918506 0.995494
vn 0.101715 -0.0220283 0.99457
vn 0.101613 -0.01824 0.994657
vn 0.108499 -0.0451437 0.993071
vn 0.00733436 0.0109906 0.999913
vn 0.0111656 0.0638291 0.997898
vn 0.0258033 0.0182539 0.9995
vn 0.0370363 0.0426968 0.998401
vn 0.00130647 0.0995681 0.99503
vn 0.0140885 0.072982 0.997234
vn 0.118389 -0.00256495 0.992964
vn 0.12969 -0.0503422 0.990276
vn 0.0103391 0.0515691 0.998616
vn 0.0208928 0.0456757 0.998738
vn 0.00611645 0.0327675 0.999444
vn 0.030633 0.0101862 0.999479
vn 0.00260722 0.0545685 0.998507
vn -0.0502517 0.0818374 0.995378
vn -0.038169 0.0539617 0.997813
vn 0.0704441 -0.0327892 0.996977
f 100/100/100 4/4/4 13/13/13
f 44/44/44 3/3/3 21/21/21
f 44/44/44 19/19/19 20/20/20
f 60/60/60 19/19/19 52/52/52
f 60/60/60 17/17/17 18/18/18
f 76/76/76 17/17/17 68/68/68
f 84/84/84 16/16/16 76/76/76
f 84/84/84 14/14/14 15/15/15
f 100/100/100 14/14/14 92/92/92
f 11/11/11 93/93/93 85/85/85
f 93/93/93 86/86/86 85/85/85
f 94/94/94 87/87/87 86/86/86
f 87/87/87 96/96/96 88/88/88
f 96/96/96 89/89/89 88/88/88
f 97/97/97 90/90/90 89/89/89
f 90/90/90 99/99/99 91/91/91
f 91/91/91 100/100/100 92/92/92
f 10/10/10 85/85/85 77/77/77
f 77/77/77 86/86/86 78/78/78
f 78/78/78 87/87/87 79/79/79
f 79/79/79 88/88/88 80/80/80
f 88/88/88 81/81/81 80/80/80
f 81/81/81 90/90/90 82/82/82
f 82/82/82 91/91/91 83/83/83
f 91/91/91 84/84/84 83/83/83
f 10/10/10 69/69/69 9/9/9
f 69/69/69 78/78/78 70/70/70
f 70/70/70 79/79/79 71/71/71
f 79/79/79 72/72/72 71/71/71
f 72/72/72 81/81/81 73/73/73
f 73/73/73 82/82/82 74/74/74
f 82/82/82 75/75/75 74/74/74
f 83/83/83 76/76/76 75/75/75
f 9/9/9 61/61/61 8/8/8
f 69/69/69 62/62/62 61/61/61
f 62/62/62 71/71/71 63/63/63
f 63/63/63 72/72/72 64/64/64
f 72/72/72 65/65/65 64/64/64
f 65/65/65 74/74/74 66/66/66
f 66/66/66 75/75/75 67/67/67
f 67/67/67 76/76/76 68/68/68
f 8/8/8 53/53/53 7/7/7
f 53/53/53 62/62/62 54/54/54
f 54/54/54 63/63/63 55/55/55
f 55/55/55 64/64/64 56/56/56
f 64/64/64 57/57/57 56/56/56
f 57/57/57 66/66/66 58/58/58
f 58/58/58 67/67/67 59/59/59
f 59/59/59 68/68/68 60/60/60
f 6/6/6 53/53/53 45/45/45
f 45/45/45 54/54/54 46/46/46
f 54/54/54 47/47/47 46/46/46
f 55/55/55 48/48/48 47/47/47
f 56/56/56 49/49/49 48/48/48
f 49/49/49 58/58/58 50/50/50
f 58/58/58 51/51/51 50/50/50
f 59/59/59 52/52/52 51/51/51
f 6/6/6 37/37/37 5/5/5
f 45/45/45 38/38/38 37/37/37
f 46/46/46 39/39/39 38/38/38
f 39/39/39 48/48/48 40/40/40
f 40/40/40 49/49/49 41/41/41
f 41/41/41 50/50/50 42/42/42
f 50/50/50 43/43/43 42/42/42
f 51/51/51 44/44/44 43/43/43
f 5/5/5 28/28/28 1/1/1
f 28/28/28 38/38/38 27/27/27
f 27/27/27 39/39/39 26/26/26
f 26/26/26 40/40/40 25/25/25
f 40/40/40 24/24/24 25/25/25
f 41/41/41 23/23/23 24/24/24
f 23/23/23 43/43/43 22/22/22
f 43/43/43 21/21/21 22/22/22
f 2/2/2 93/93/93 12/12/12
f 93/93/93 30/30/30 94/94/94
f 30/30/30 95/95/95 94/94/94
f 31/31/31 96/96/96 95/95/95
f 32/32/32 97/97/97 96/96/96
f 33/33/33 98/98/98 97/97/97
f 98/98/98 35/35/35 99/99/99
f 99/99/99 36/36/36 100/100/100
f 100/100/100 36/36/36 4/4/4
f 44/44/44 20/20/20 3/3/3
f 44/44/44 52/52/52 19/19/19
f 60/60/60 18/18/18 19/19/19
f 60/60/60 68/68/68 17/17/17
f 76/76/76 16/16/16 17/17/17
f 84/84/84 15/15/15 16/16/16
f 84/84/84 92/92/92 14/14/14
f 100/100/100 13/13/13 14/14/14
f 11/11/11 12/12/12 93/93/93
f 93/93/93 94/94/94 86/86/86
f 94/94/94 95/95/95 87/87/87
f 87/87/87 95/95/95 96/96/96
f 96/96/96 97/97/97 89/89/89
f 97/97/97 98/98/98 90/90/90
f 90/90/90 98/98/98 99/99/99
f 91/91/91 99/99/99 100/100/100
f 10/10/10 11/11/11 85/85/85
f 77/77/77 85/85/85 86/86/86
f 78/78/78 86/86/86 87/87/87
f 79/79/79 87/87/87 88/88/88
f 88/88/88 89/89/89 81/81/81
f 81/81/81 89/89/89 90/90/90
f 82/82/82 90/90/90 91/91/91
f 91/91/91 92/92/92 84/84/84
f 10/10/10 77/77/77 69/69/69
f 69/69/69 77/77/77 78/78/78
f 70/70/70 78/78/78 79/79/79
f 79/79/79 80/80/80 72/72/72
f 72/72/72 80/80/80 81/81/81
f 73/73/73 81/81/81 82/82/82
f 82/82/82 83/83/83 75/75/75
f 83/83/83 84/84/84 76/76/76
f 9/9/9 69/69/69 61/61/61
f 69/69/69 70/70/70 62/62/62
f 62/62/62 70/70/70 71/71/71
f 63/63/63 71/71/71 72/72/72
f 72/72/72 73/73/73 65/65/65
f 65/65/65 73/73/73 74/74/74
f 66/66/66 74/74/74 75/75/75
f 67/67/67 75/75/75 76/76/76
f 8/8/8 61/61/61 53/53/53
f 53/53/53 61/61/61 62/62/62
f 54/54/54 62/62/62 63/63/63
f 55/55/55 63/63/63 64/64/64
f 64/64/64 65/65/65 57/57/57
f 57/57/57 65/65/65 66/66/66
f 58/58/58 66/66/66 67/67/67
f 59/59/59 67/67/67 68/68/68
f 6/6/6 7/7/7 53/53/53
f 45/45/45 53/53/53 54/54/54
f 54/54/54 55/55/55 47/47/47
f 55/55/55 56/56/56 48/48/48
f 56/56/56 57/57/57 49/49/49
f 49/49/49 57/57/57 58/58/58
f 58/58/58 59/59/59 51/51/51
f 59/59/59 60/60/60 52/52/52
f 6/6/6 45/45/45 37/37/37
f 45/45/45 46/46/46 38/38/38
f 46/46/46 47/47/47 39/39/39
f 39/39/39 47/47/47 48/48/48
f 40/40/40 48/48/48 49/49/49
f 41/41/41 49/49/49 50/50/50
f 50/50/50 51/51/51 43/43/43
f 51/51/51 52/52/52 44/44/44
f 5/5/5 37/37/37 28/28/28
f 28/28/28 37/37/37 38/38/38
f 27/27/27 38/38/38 39/39/39
f 26/26/26 39/39/39 40/40/40
f 40/40/40 41/41/41 24/24/24
f 41/41/41 42/42/42 23/23/23
f 23/23/23 42/42/42 43/43/43
f 43/43/43 44/44/44 21/21/21
f 2/2/2 29/29/29 93/93/93
f 93/93/93 29/29/29 30/30/30
f 30/30/30 31/31/31 95/95/95
f 31/31/31 32/32/32 96/96/96
f 32/32/32 33/33/33 97/97/97
f 33/33/33 34/34/34 98/98/98
f 98/98/98 34/34/34 35/35/35
f 99/99/99 35/35/35 36/36/36
