o GNATVCloth
v -5.01501 -4.97382 0.608862
v 5.05732 -4.98765 0.400806
v -5.01298 5.02105 0.004229
v 4.98702 5.02105 0.004229
v -3.90843 -5.01104 0.494169
v -2.78989 -5.04088 0.483594
v -1.66766 -5.06449 0.448949
v -0.543028 -5.07853 0.452751
v 0.581113 -5.07659 0.474314
v 1.70301 -5.05673 0.451655
v 2.82441 -5.04186 0.437109
v 3.94269 -5.01732 0.370214
v 3.87156 4.89918 0.214943
v 2.76327 4.79679 0.409042
v 1.64433 4.74406 0.324845
v 0.524177 4.70598 0.321611
v -0.574515 4.68149 0.519881
v -1.69194 4.69564 0.582841
v -2.81186 4.75438 0.499844
v -3.91158 4.86376 0.265192
v -4.97274 3.90861 0.0839896
v -4.96612 2.79438 0.133591
v -4.96576 1.68083 0.183211
v -4.97227 0.567887 0.227039
v -4.97936 -0.544523 0.264793
v -4.98551 -1.65653 0.305109
v -4.99417 -2.76642 0.373939
v -5.00499 -3.87465 0.458976
v 5.03984 -3.87819 0.332011
v 5.02634 -2.77073 0.210849
v 5.01365 -1.65918 0.19501
v 5.00086 -0.546383 0.197043
v 4.99097 0.566679 0.193065
v 4.98111 1.68019 0.167421
v 4.97578 2.79414 0.130701
v 4.96746 3.9072 0.0640341
v -3.83081 -3.86154 0.40756
v -3.79236 -3.22297 0.312985
v -3.64072 -1.93655 0.266282
v -4.09158 -0.279677 0.226289
v -4.11272 0.737775 0.180915
v -4.10468 1.52155 0.125279
v -4.04613 2.81304 0.0490771
v -3.9247 3.88089 -0.172453
v -2.70393 -4.02855 0.319034
v -2.77477 -2.75818 0.320196
v -2.65125 -2.16837 0.286189
v -2.72475 -0.622434 0.279727
v -2.75601 0.505574 0.197029
v -2.68007 1.54391 0.0399503
v -2.84558 2.85307 -0.25715
v -2.76769 3.48626 0.0398845
v -1.6417 -4.25894 0.361863
v -1.4808 -2.94608 0.407049
v -1.86778 -1.65179 0.375378
v -1.84915 -0.858025 0.296868
v -1.51477 0.600621 -0.0597852
v -1.98313 1.64231 -0.24015
v -1.70774 2.68035 -0.0994429
v -1.58288 3.58884 0.315425
v -0.217473 -4.33397 0.401641
v -0.567115 -2.90731 0.434623
v -0.527568 -1.77129 0.335264
v -0.817027 -0.801995 0.207344
v -0.591835 0.399774 0.012927
v -0.365741 1.41971 -0.0285966
v -0.576001 2.57237 0.159923
v -0.761423 3.38987 0.333132
v 0.754301 -3.90731 0.361937
v 0.833312 -2.62189 0.37494
v 0.542176 -1.84289 0.312567
v 0.625777 -0.546619 -0.0119776
v 0.597785 0.361588 0.00346798
v 0.307736 1.47618 -0.0360738
v 0.525699 2.43252 0.0965458
v 0.548622 3.59945 0.373809
v 1.97194 -3.6652 0.307385
v 1.6971 -2.86111 0.416201
v 1.83886 -1.93258 0.400984
v 1.99264 -0.418459 0.152298
v 1.98918 0.236795 -0.0463768
v 1.83402 1.49988 -0.056038
v 1.41018 2.77009 0.0218085
v 1.49137 3.51884 0.320701
v 2.81556 -3.9318 0.314884
v 3.12192 -2.84818 0.31195
v 2.97037 -1.96881 0.353341
v 2.7229 -0.508123 0.301746
v 2.96806 0.275015 0.172495
v 3.08347 1.55013 -0.0947684
v 2.76482 3.11552 -0.16541
v 2.74852 3.43359 0.027354
v 3.94251 -3.97381 0.332148
v 3.68459 -2.7214 0.304265
v 3.89136 -1.68224 0.301236
v 3.82125 -0.725434 0.312111
v 3.87503 0.286753 0.27977
v 4.16105 1.80118 0.148665
v 4.13951 2.75279 -0.0195819
v 4.0296 3.87495 -0.136176
vt 0.0001 0.0001
vt 0.9999 0.0001
vt 0.0001 0.9999
vt 0.9999 0.9999
vt 0.111189 0.0001
vt 0.222278 0.0001
vt 0.333367 0.0001
vt 0.444455 0.0001
vt 0.555544 0.0001
vt 0.666633 0.0001
vt 0.777722 0.0001
vt 0.888811 0.0001
vt 0.888811 0.9999
vt 0.777722 0.9999
vt 0.666633 0.9999
vt 0.555544 0.9999
vt 0.444455 0.9999
vt 0.333367 0.9999
vt 0.222278 0.9999
vt 0.111189 0.9999
vt 0.0001 0.888811
vt 0.0001 0.777722
vt 0.0001 0.666633
vt 0.0001 0.555544
vt 0.0001 0.444456
vt 0.0001 0.333367
vt 0.0001 0.222278
vt 0.0001 0.111189
vt 0.9999 0.111189
vt 0.9999 0.222278
vt 0.9999 0.333367
vt 0.9999 0.444456
vt 0.9999 0.555544
vt 0.9999 0.666633
vt 0.9999 0.777722
vt 0.9999 0.888811
vt 0.11727 0.115399
vt 0.120778 0.180369
vt 0.134636 0.309595
vt 0.088728 0.473895
vt 0.085886 0.575352
vt 0.086211 0.65375
vt 0.092207 0.78313
vt 0.106956 0.892282
vt 0.22987 0.102869
vt 0.221803 0.229552
vt 0.233521 0.288953
vt 0.225541 0.443179
vt 0.221596 0.556167
vt 0.227801 0.661237
vt 0.214896 0.795203
vt 0.22542 0.865181
vt 0.335524 0.082127
vt 0.351143 0.213907
vt 0.311934 0.342467
vt 0.313159 0.422214
vt 0.347791 0.572605
vt 0.301482 0.677733
vt 0.329031 0.783086
vt 0.344903 0.885466
vt 0.476837 0.074882
vt 0.441952 0.218774
vt 0.445749 0.333088
vt 0.416414 0.43099
vt 0.439746 0.552976
vt 0.463203 0.656843
vt 0.444252 0.77653
vt 0.426137 0.866051
vt 0.573419 0.117409
vt 0.581125 0.246686
vt 0.552512 0.326
vt 0.561075 0.459693
vt 0.558356 0.550596
vt 0.530299 0.662189
vt 0.553275 0.760113
vt 0.555478 0.888821
vt 0.694433 0.13996
vt 0.667048 0.221666
vt 0.681985 0.314267
vt 0.698218 0.467249
vt 0.696819 0.535952
vt 0.68253 0.662758
vt 0.642062 0.791726
vt 0.648523 0.877957
vt 0.778029 0.111667
vt 0.809426 0.219523
vt 0.794923 0.307783
vt 0.772028 0.454562
vt 0.796846 0.533374
vt 0.807262 0.663157
vt 0.778581 0.821037
vt 0.775122 0.858219
vt 0.890224 0.104741
vt 0.865679 0.23076
vt 0.887326 0.334104
vt 0.881307 0.429754
vt 0.887973 0.53063
vt 0.918106 0.681428
vt 0.915043 0.778027
vt 0.904815 0.89094
vn 0.106612 0.133388 0.985313
vn -0.0168264 0.0491271 0.998651
vn -0.0137184 -0.165895 0.986048
vn -0.00115763 -0.120645 0.992695
vn 0.0536821 0.0934243 0.994178
vn 0.0348282 0.123422 0.991743
vn 0.0154517 0.106976 0.994142
vn -0.0149879 0.0877331 0.996031
vn -0.000739847 0.0885686 0.99607
vn 0.019328 0.0999014 0.99481
vn 0.0197423 0.0851804 0.99617
vn 0.0152599 0.0364525 0.999219
vn 0.199583 -0.290066 0.935964
vn 0.134338 -0.207503 0.968966
vn -0.0390762 0.00149878 0.999235
vn 0.0781738 0.0319638 0.996427
vn 0.0418844 -0.11519 0.99246
vn -0.0162745 -0.236338 0.971535
vn -0.19537 -0.329489 0.923725
vn -0.246915 -0.391422 0.886466
vn 0.190036 0.0984181 0.976832
vn 0.0904899 0.0445944 0.994898
vn 0.0733499 0.0521122 0.995944
vn 0.0412323 0.0393881 0.998373
vn 0.0329221 0.0348604 0.99885
vn 0.0366913 0.0438124 0.998366
vn 0.0607859 0.0553433 0.996615
vn 0.0676183 0.106346 0.992027
vn -0.00730376 0.085246 0.996333
vn 0.056192 0.0375225 0.997715
vn 0.0951438 0.00338388 0.995458
vn 0.0888799 0.0101348 0.995991
vn 0.0385209 0.0341177 0.998675
vn -0.0187498 0.0278511 0.999436
vn -0.127179 0.0862469 0.988123
vn -0.200157 0.0647324 0.977623
vn 0.0588285 0.116521 0.991444
vn 0.0416123 0.0712329 0.996591
vn 0.00758152 0.0343387 0.999381
vn 0.0122668 0.0400934 0.999121
vn 0.0397436 0.0696377 0.99678
vn 0.0685948 0.0628121 0.995665
vn 0.147438 0.112998 0.982595
vn -0.0532801 -0.164647 0.984913
vn 0.0121184 0.0699908 0.997474
vn -0.0324688 0.0323133 0.99895
vn -0.06063 0.0245005 0.99786
vn -0.0301823 0.0434775 0.998598
vn 0.102348 0.128808 0.986374
vn 0.177407 0.148696 0.972839
vn 0.0314641 -0.036989 0.99882
vn -0.223616 -0.368824 0.9022
vn -0.0146903 0.0521159 0.998533
vn -0.0441521 0.0171313 0.998878
vn -0.00956959 0.0607299 0.998108
vn 0.0692519 0.136981 0.98815
vn 0.0361821 0.168574 0.985025
vn 0.0328779 0.0561655 0.99788
vn -0.184905 -0.270357 0.944837
vn -0.0948531 -0.291681 0.951801
vn -0.0055832 0.0419419 0.999104
vn 0.0071999 0.0253888 0.999652
vn 0.0375773 0.126623 0.991239
vn 0.0667089 0.155039 0.985654
vn 0.00704541 0.0699119 0.997528
vn -0.044374 -0.0453215 0.997986
vn -0.0932385 -0.185511 0.978209
vn -0.0837068 -0.229293 0.969751
vn 0.0215243 0.0206318 0.999555
vn -0.0171567 0.0295328 0.999417
vn -0.00506274 0.144002 0.989564
vn 1.85627e-05 0.153378 0.988168
vn 0.020067 0.0112022 0.999736
vn 0.0135572 -0.0336733 0.999341
vn 0.0612589 -0.155548 0.985927
vn 0.0647608 -0.157105 0.985456
vn 0.0362017 -0.00372428 0.999337
vn 0.0275169 -0.0383081 0.998887
vn -0.0544727 0.104609 0.99302
vn -0.152542 0.231179 0.960878
vn -0.0927027 0.148612 0.984541
vn 0.0514972 -0.0101108 0.998622
vn 0.131398 -0.209075 0.969032
vn 0.0867158 -0.21695 0.972324
vn 4.8351e-05 0.0659776 0.997821
vn 0.0260275 -0.0251396 0.999345
vn 0.0425618 -0.000832875 0.999093
vn -0.0830438 0.155244 0.98438
vn -0.132031 0.171754 0.976252
vn -0.126775 0.11728 0.984974
vn 0.0969755 -0.182058 0.978494
vn 0.214632 -0.384676 0.897751
vn 0.00859641 0.0526032 0.998578
vn 0.046159 -0.000396428 0.998934
vn 0.0750506 -0.0031813 0.997175
vn 0.0350528 0.0349633 0.998774
vn -0.0428907 0.0821981 0.995693
vn -0.111366 0.0993801 0.988798
vn -0.168044 0.0983378 0.980862
vn 0.0573629 -0.164815 0.984655
f 100/100/100 4/4/4 13/13/13
f 44/44/44 3/3/3 21/21/21
f 44/44/44 19/19/19 20/20/20
f 60/60/60 19/19/19 52/52/52
f 60/60/60 17/17/17 18/18/18
f 76/76/76 17/17/17 68/68/68
f 84/84/84 16/16/16 76/76/76
f 84/84/84 14/14/14 15/15/15
f 100/100/100 14/14/14 92/92/92
f 11/11/11 93/93/93 85/85/85
f 93/93/93 86/86/86 85/85/85
f 94/94/94 87/87/87 86/86/86
f 87/87/87 96/96/96 88/88/88
f 96/96/96 89/89/89 88/88/88
f 97/97/97 90/90/90 89/89/89
f 90/90/90 99/99/99 91/91/91
f 91/91/91 100/100/100 92/92/92
f 10/10/10 85/85/85 77/77/77
f 77/77/77 86/86/86 78/78/78
f 78/78/78 87/87/87 79/79/79
f 79/79/79 88/88/88 80/80/80
f 88/88/88 81/81/81 80/80/80
f 81/81/81 90/90/90 82/82/82
f 82/82/82 91/91/91 83/83/83
f 91/91/91 84/84/84 83/83/83
f 10/10/10 69/69/69 9/9/9
f 69/69/69 78/78/78 70/70/70
f 70/70/70 79/79/79 71/71/71
f 79/79/79 72/72/72 71/71/71
f 72/72/72 81/81/81 73/73/73
f 73/73/73 82/82/82 74/74/74
f 82/82/82 75/75/75 74/74/74
f 83/83/83 76/76/76 75/75/75
f 9/9/9 61/61/61 8/8/8
f 69/69/69 62/62/62 61/61/61
f 62/62/62 71/71/71 63/63/63
f 63/63/63 72/72/72 64/64/64
f 72/72/72 65/65/65 64/64/64
f 65/65/65 74/74/74 66/66/66
f 66/66/66 75/75/75 67/67/67
f 67/67/67 76/76/76 68/68/68
f 8/8/8 53/53/53 7/7/7
f 53/53/53 62/62/62 54/54/54
f 54/54/54 63/63/63 55/55/55
f 55/55/55 64/64/64 56/56/56
f 64/64/64 57/57/57 56/56/56
f 57/57/57 66/66/66 58/58/58
f 58/58/58 67/67/67 59/59/59
f 59/59/59 68/68/68 60/60/60
f 6/6/6 53/53/53 45/45/45
f 45/45/45 54/54/54 46/46/46
f 54/54/54 47/47/47 46/46/46
f 55/55/55 48/48/48 47/47/47
f 56/56/56 49/49/49 48/48/48
f 49/49/49 58/58/58 50/50/50
f 58/58/58 51/51/51 50/50/50
f 59/59/59 52/52/52 51/51/51
f 6/6/6 37/37/37 5/5/5
f 45/45/45 38/38/38 37/37/37
f 46/46/46 39/39/39 38/38/38
f 39/39/39 48/48/48 40/40/40
f 40/40/40 49/49/49 41/41/41
f 41/41/41 50/50/50 42/42/42
f 50/50/50 43/43/43 42/42/42
f 51/51/51 44/44/44 43/43/43
f 5/5/5 28/28/28 1/1/1
f 28/28/28 38/38/38 27/27/27
f 27/27/27 39/39/39 26/26/26
f 26/26/26 40/40/40 25/25/25
f 40/40/40 24/24/24 25/25/25
f 41/41/41 23/23/23 24/24/24
f 23/23/23 43/43/43 22/22/22
f 43/43/43 21/21/21 22/22/22
f 2/2/2 93/93/93 12/12/12
f 93/93/93 30/30/30 94/94/94
f 30/30/30 95/95/95 94/94/94
f 31/31/31 96/96/96 95/95/95
f 32/32/32 97/97/97 96/96/96
f 33/33/33 98/98/98 97/97/97
f 98/98/98 35/35/35 99/99/99
f 99/99/99 36/36/36 100/100/100
f 100/100/100 36/36/36 4/4/4
f 44/44/44 20/20/20 3/3/3
f 44/44/44 52/52/52 19/19/19
f 60/60/60 18/18/18 19/19/19
f 60/60/60 68/68/68 17/17/17
f 76/76/76 16/16/16 17/17/17
f 84/84/84 15/15/15 16/16/16
f 84/84/84 92/92/92 14/14/14
f 100/100/100 13/13/13 14/14/14
f 11/11/11 12/12/12 93/93/93
f 93/93/93 94/94/94 86/86/86
f 94/94/94 95/95/95 87/87/87
f 87/87/87 95/95/95 96/96/96
f 96/96/96 97/97/97 89/89/89
f 97/97/97 98/98/98 90/90/90
f 90/90/90 98/98/98 99/99/99
f 91/91/91 99/99/99 100/100/100
f 10/10/10 11/11/11 85/85/85
f 77/77/77 85/85/85 86/86/86
f 78/78/78 86/86/86 87/87/87
f 79/79/79 87/87/87 88/88/88
f 88/88/88 89/89/89 81/81/81
f 81/81/81 89/89/89 90/90/90
f 82/82/82 90/90/90 91/91/91
f 91/91/91 92/92/92 84/84/84
f 10/10/10 77/77/77 69/69/69
f 69/69/69 77/77/77 78/78/78
f 70/70/70 78/78/78 79/79/79
f 79/79/79 80/80/80 72/72/72
f 72/72/72 80/80/80 81/81/81
f 73/73/73 81/81/81 82/82/82
f 82/82/82 83/83/83 75/75/75
f 83/83/83 84/84/84 76/76/76
f 9/9/9 69/69/69 61/61/61
f 69/69/69 70/70/70 62/62/62
f 62/62/62 70/70/70 71/71/71
f 63/63/63 71/71/71 72/72/72
f 72/72/72 73/73/73 65/65/65
f 65/65/65 73/73/73 74/74/74
f 66/66/66 74/74/74 75/75/75
f 67/67/67 75/75/75 76/76/76
f 8/8/8 61/61/61 53/53/53
f 53/53/53 61/61/61 62/62/62
f 54/54/54 62/62/62 63/63/63
f 55/55/55 63/63/63 64/64/64
f 64/64/64 65/65/65 57/57/57
f 57/57/57 65/65/65 66/66/66
f 58/58/58 66/66/66 67/67/67
f 59/59/59 67/67/67 68/68/68
f 6/6/6 7/7/7 53/53/53
f 45/45/45 53/53/53 54/54/54
f 54/54/54 55/55/55 47/47/47
f 55/55/55 56/56/56 48/48/48
f 56/56/56 57/57/57 49/49/49
f 49/49/49 57/57/57 58/58/58
f 58/58/58 59/59/59 51/51/51
f 59/59/59 60/60/60 52/52/52
f 6/6/6 45/45/45 37/37/37
f 45/45/45 46/46/46 38/38/38
f 46/46/46 47/47/47 39/39/39
f 39/39/39 47/47/47 48/48/48
f 40/40/40 48/48/48 49/49/49
f 41/41/41 49/49/49 50/50/50
f 50/50/50 51/51/51 43/43/43
f 51/51/51 52/52/52 44/44/44
f 5/5/5 37/37/37 28/28/28
f 28/28/28 37/37/37 38/38/38
f 27/27/27 38/38/38 39/39/39
f 26/26/26 39/39/39 40/40/40
f 40/40/40 41/41/41 24/24/24
f 41/41/41 42/42/42 23/23/23
f 23/23/23 42/42/42 43/43/43
f 43/43/43 44/44/44 21/21/21
f 2/2/2 29/29/29 93/93/93
f 93/93/93 29/29/29 30/30/30
f 30/30/30 31/31/31 95/95/95
f 31/31/31 32/32/32 96/96/96
f 32/32/32 33/33/33 97/97/97
f 33/33/33 34/34/34 98/98/98
f 98/98/98 34/34/34 35/35/35
f 99/99/99 35/35/35 36/36/36
