o GNATVCloth
v -5.0414 -4.98769 0.592238
v 5.0559 -4.99801 0.391975
v -5.01298 5.02105 0.004229
v 4.98702 5.02105 0.004229
v -3.92909 -5.02641 0.532156
v -2.81048 -5.06762 0.482617
v -1.68776 -5.09281 0.487153
v -0.561979 -5.11841 0.485834
v 0.567462 -5.11115 0.510093
v 1.69597 -5.09785 0.505687
v 2.82061 -5.07037 0.451439
v 3.94224 -5.02363 0.462437
v 3.86452 4.90663 0.186524
v 2.75086 4.82405 0.358273
v 1.62906 4.77571 0.319981
v 0.51079 4.72695 0.298709
v -0.592589 4.70054 0.46055
v -1.69545 4.70577 0.6291
v -2.81097 4.76792 0.514571
v -3.90114 4.88694 0.242386
v -4.98043 3.90697 0.0754825
v -4.98266 2.79229 0.139771
v -4.99218 1.67837 0.206175
v -4.99918 0.564193 0.26077
v -5.004 -0.54938 0.316916
v -5.01002 -1.66224 0.360329
v -5.01864 -2.77475 0.389959
v -5.02385 -3.88512 0.494427
v 5.03229 -3.88859 0.304751
v 5.01919 -2.77692 0.261694
v 5.01058 -1.66483 0.246673
v 5.00406 -0.55195 0.230926
v 4.99702 0.561389 0.198942
v 4.98774 1.67598 0.164585
v 4.98079 2.79122 0.130352
v 4.97228 3.90562 0.0615107
v -3.85558 -3.88939 0.353111
v -3.81817 -3.24249 0.275791
v -3.66932 -1.95584 0.24325
v -4.12133 -0.290166 0.234299
v -4.14421 0.726989 0.186494
v -4.1355 1.50992 0.128235
v -4.06511 2.79951 0.0331353
v -3.92035 3.87549 -0.125056
v -2.7233 -4.05413 0.311022
v -2.80072 -2.78568 0.346989
v -2.67827 -2.19834 0.29353
v -2.75304 -0.653599 0.285233
v -2.78677 0.473767 0.176003
v -2.72114 1.51438 0.0296548
v -2.84095 2.8472 -0.146842
v -2.74282 3.51945 0.035259
v -1.65816 -4.28909 0.325508
v -1.49892 -2.97714 0.396816
v -1.89249 -1.68365 0.380781
v -1.87546 -0.890553 0.320356
v -1.52475 0.578811 0.0545859
v -1.98483 1.64076 -0.0409737
v -1.70337 2.67961 0.0110538
v -1.58589 3.58665 0.417617
v -0.2324 -4.38057 0.394464
v -0.586721 -2.94474 0.480003
v -0.544878 -1.80461 0.423742
v -0.838354 -0.83157 0.305609
v -0.602493 0.366372 0.117293
v -0.365062 1.39241 0.0730422
v -0.560497 2.56556 0.168733
v -0.761254 3.38916 0.430733
v 0.740859 -3.95653 0.401811
v 0.817515 -2.6662 0.479469
v 0.530331 -1.87876 0.461654
v 0.61388 -0.575788 0.156159
v 0.59181 0.328781 0.145162
v 0.308236 1.43925 0.0792377
v 0.533406 2.40092 0.150909
v 0.541697 3.63113 0.406885
v 1.95939 -3.70361 0.355111
v 1.67949 -2.89345 0.38171
v 1.83377 -1.96911 0.442578
v 1.99178 -0.462266 0.158417
v 1.98026 0.206045 -0.00635433
v 1.83534 1.46858 0.0497887
v 1.41596 2.7359 0.130169
v 1.47865 3.54588 0.306917
v 2.80529 -3.9628 0.361664
v 3.11135 -2.8745 0.325545
v 2.95896 -1.99767 0.280995
v 2.72192 -0.537408 0.305432
v 2.9645 0.25674 0.208492
v 3.08379 1.52482 -0.0847076
v 2.76782 3.08879 -0.0606334
v 2.7334 3.44864 0.029732
v 3.93435 -3.9955 0.301103
v 3.67471 -2.742 0.303433
v 3.88402 -1.70055 0.288008
v 3.81921 -0.745685 0.306622
v 3.87892 0.268524 0.282912
v 4.16756 1.78736 0.146296
v 4.14728 2.7377 -0.0344107
v 4.02646 3.8612 -0.0928478
vt 0.0001 0.0001
vt 0.9999 0.0001
vt 0.0001 0.9999
vt 0.9999 0.9999
vt 0.111189 0.0001
vt 0.222278 0.0001
vt 0.333367 0.0001
vt 0.444455 0.0001
vt 0.555544 0.0001
vt 0.666633 0.0001
vt 0.777722 0.0001
vt 0.888811 0.0001
vt 0.888811 0.9999
vt 0.777722 0.9999
vt 0.666633 0.9999
vt 0.555544 0.9999
vt 0.444455 0.9999
vt 0.333367 0.9999
vt 0.222278 0.9999
vt 0.111189 0.9999
vt 0.0001 0.888811
vt 0.0001 0.777722
vt 0.0001 0.666633
vt 0.0001 0.555544
vt 0.0001 0.444456
vt 0.0001 0.333367
vt 0.0001 0.222278
vt 0.0001 0.111189
vt 0.9999 0.111189
vt 0.9999 0.222278
vt 0.9999 0.333367
vt 0.9999 0.444456
vt 0.9999 0.555544
vt 0.9999 0.666633
vt 0.9999 0.777722
vt 0.9999 0.888811
vt 0.11727 0.115399
vt 0.120778 0.180369
vt 0.134636 0.309595
vt 0.088728 0.473895
vt 0.085886 0.575352
vt 0.086211 0.65375
vt 0.092207 0.78313
vt 0.106956 0.892282
vt 0.22987 0.102869
vt 0.221803 0.229552
vt 0.233521 0.288953
vt 0.225541 0.443179
vt 0.221596 0.556167
vt 0.227801 0.661237
vt 0.214896 0.795203
vt 0.22542 0.865181
vt 0.335524 0.082127
vt 0.351143 0.213907
vt 0.311934 0.342467
vt 0.313159 0.422214
vt 0.347791 0.572605
vt 0.301482 0.677733
vt 0.329031 0.783086
vt 0.344903 0.885466
vt 0.476837 0.074882
vt 0.441952 0.218774
vt 0.445749 0.333088
vt 0.416414 0.43099
vt 0.439746 0.552976
vt 0.463203 0.656843
vt 0.444252 0.77653
vt 0.426137 0.866051
vt 0.573419 0.117409
vt 0.581125 0.246686
vt 0.552512 0.326
vt 0.561075 0.459693
vt 0.558356 0.550596
vt 0.530299 0.662189
vt 0.553275 0.760113
vt 0.555478 0.888821
vt 0.694433 0.13996
vt 0.667048 0.221666
vt 0.681985 0.314267
vt 0.698218 0.467249
vt 0.696819 0.535952
vt 0.68253 0.662758
vt 0.642062 0.791726
vt 0.648523 0.877957
vt 0.778029 0.111667
vt 0.809426 0.219523
vt 0.794923 0.307783
vt 0.772028 0.454562
vt 0.796846 0.533374
vt 0.807262 0.663157
vt 0.778581 0.821037
vt 0.775122 0.858219
vt 0.890224 0.104741
vt 0.865679 0.23076
vt 0.887326 0.334104
vt 0.881307 0.429754
vt 0.887973 0.53063
vt 0.918106 0.681428
vt 0.915043 0.778027
vt 0.904815 0.89094
vn 0.0567625 0.0873257 0.994561
vn 0.0239831 0.116829 0.992862
vn -0.0251527 -0.135767 0.990421
vn 0.00791023 -0.0899076 0.995919
vn 0.0752036 0.128949 0.988796
vn 0.0332374 0.169065 0.985044
vn 0.0030447 0.197064 0.980386
vn -0.0184726 0.156579 0.987493
vn -0.0236119 0.108863 0.993776
vn 0.0222831 0.0953837 0.995191
vn 0.0285763 0.106002 0.993955
vn 0.0213565 0.155147 0.98766
vn 0.171843 -0.229401 0.958042
vn 0.123282 -0.176245 0.976596
vn -0.0262457 -0.0074085 0.999628
vn 0.0796268 0.0648026 0.994716
vn 0.0736614 -0.0287539 0.996869
vn 0.0187512 -0.183881 0.98277
vn -0.220905 -0.310879 0.924421
vn -0.248951 -0.326516 0.911817
vn 0.163548 0.08114 0.983193
vn 0.114804 0.0575525 0.99172
vn 0.100062 0.0616626 0.993069
vn 0.0777125 0.0489043 0.995776
vn 0.0802441 0.0441344 0.995798
vn 0.0893835 0.0316536 0.995494
vn 0.107522 0.0439219 0.993232
vn 0.10649 0.109452 0.988271
vn -0.00900302 0.0583926 0.998253
vn 0.0228919 0.0163821 0.999604
vn 0.0449468 0.00376924 0.998982
vn 0.0630672 0.0211083 0.997786
vn 0.0344167 0.0463798 0.998331
vn -0.0181291 0.030609 0.999367
vn -0.139882 0.0899619 0.986073
vn -0.174369 0.0485123 0.983485
vn 0.0804935 0.137541 0.98722
vn 0.0439141 0.0562347 0.997451
vn 0.0122196 0.028557 0.999517
vn 0.0426196 0.0437663 0.998132
vn 0.0630591 0.0712677 0.995462
vn 0.0865981 0.0707728 0.993726
vn 0.124192 0.0912764 0.988051
vn -0.0618013 -0.138882 0.988379
vn 0.00226531 0.0549964 0.998484
vn -0.0470426 0.0329044 0.998351
vn -0.0621453 0.0354606 0.997437
vn -0.0406612 0.0444596 0.998183
vn 0.0375052 0.113752 0.992801
vn 0.0755715 0.115774 0.990396
vn -0.0267208 -0.0120876 0.99957
vn -0.2299 -0.31004 0.922508
vn -0.0254321 0.0765821 0.996739
vn -0.0578019 0.00109431 0.998327
vn -0.0453742 0.0419691 0.998088
vn 0.0124353 0.116935 0.993062
vn 0.00413021 0.12393 0.992282
vn -0.0279703 0.0492052 0.998397
vn -0.167181 -0.228759 0.95902
vn -0.108937 -0.255479 0.960658
vn -0.0298798 0.0493615 0.998334
vn -0.0345147 -0.0154201 0.999285
vn -0.0199802 0.0990618 0.994881
vn 0.0193112 0.135335 0.990612
vn -0.0108544 0.0781836 0.99688
vn -0.0354501 -0.0140116 0.999273
vn -0.0544963 -0.170573 0.983837
vn -0.0401728 -0.21605 0.975556
vn 0.0192562 0.0140874 0.999715
vn 0.0424722 -0.0314551 0.998602
vn -0.00150654 0.111754 0.993735
vn 0.0267921 0.149619 0.988381
vn 0.0378548 0.0224254 0.999032
vn 0.000138502 0.00220943 0.999997
vn 0.0247907 -0.115221 0.99303
vn 0.075179 -0.106475 0.991469
vn 0.0248468 0.0405228 0.99887
vn 0.0744799 -0.0357945 0.99658
vn 0.0331443 0.0694482 0.997035
vn -0.095478 0.215494 0.971826
vn -0.0441905 0.123119 0.991408
vn 0.0780804 -0.0196655 0.996753
vn 0.113205 -0.142786 0.983258
vn 0.105051 -0.116897 0.987572
vn 0.036406 0.0632734 0.997332
vn 0.0330345 0.0249942 0.999142
vn 0.0469102 0.00162983 0.998898
vn -0.0679649 0.121773 0.990228
vn -0.116898 0.160796 0.980041
vn -0.0860651 0.106496 0.990581
vn 0.111236 -0.0936003 0.989376
vn 0.178647 -0.227142 0.957336
vn 0.0254857 0.067239 0.997411
vn 0.0226497 0.0183688 0.999575
vn 0.018046 0.000645807 0.999837
vn 0.0132718 0.0176438 0.999756
vn -0.0367616 0.0874008 0.995495
vn -0.112211 0.105476 0.988071
vn -0.140571 0.080334 0.986806
vn 0.0495258 -0.113393 0.992315
f 100/100/100 4/4/4 13/13/13
f 44/44/44 3/3/3 21/21/21
f 44/44/44 19/19/19 20/20/20
f 60/60/60 19/19/19 52/52/52
f 60/60/60 17/17/17 18/18/18
f 76/76/76 17/17/17 68/68/68
f 84/84/84 16/16/16 76/76/76
f 84/84/84 14/14/14 15/15/15
f 100/100/100 14/14/14 92/92/92
f 11/11/11 93/93/93 85/85/85
f 93/93/93 86/86/86 85/85/85
f 94/94/94 87/87/87 86/86/86
f 87/87/87 96/96/96 88/88/88
f 96/96/96 89/89/89 88/88/88
f 97/97/97 90/90/90 89/89/89
f 90/90/90 99/99/99 91/91/91
f 91/91/91 100/100/100 92/92/92
f 10/10/10 85/85/85 77/77/77
f 77/77/77 86/86/86 78/78/78
f 78/78/78 87/87/87 79/79/79
f 79/79/79 88/88/88 80/80/80
f 88/88/88 81/81/81 80/80/80
f 81/81/81 90/90/90 82/82/82
f 82/82/82 91/91/91 83/83/83
f 91/91/91 84/84/84 83/83/83
f 10/10/10 69/69/69 9/9/9
f 69/69/69 78/78/78 70/70/70
f 70/70/70 79/79/79 71/71/71
f 79/79/79 72/72/72 71/71/71
f 72/72/72 81/81/81 73/73/73
f 73/73/73 82/82/82 74/74/74
f 82/82/82 75/75/75 74/74/74
f 83/83/83 76/76/76 75/75/75
f 9/9/9 61/61/61 8/8/8
f 69/69/69 62/62/62 61/61/61
f 62/62/62 71/71/71 63/63/63
f 63/63/63 72/72/72 64/64/64
f 72/72/72 65/65/65 64/64/64
f 65/65/65 74/74/74 66/66/66
f 66/66/66 75/75/75 67/67/67
f 67/67/67 76/76/76 68/68/68
f 8/8/8 53/53/53 7/7/7
f 53/53/53 62/62/62 54/54/54
f 54/54/54 63/63/63 55/55/55
f 55/55/55 64/64/64 56/56/56
f 64/64/64 57/57/57 56/56/56
f 57/57/57 66/66/66 58/58/58
f 58/58/58 67/67/67 59/59/59
f 59/59/59 68/68/68 60/60/60
f 6/6/6 53/53/53 45/45/45
f 45/45/45 54/54/54 46/46/46
f 54/54/54 47/47/47 46/46/46
f 55/55/55 48/48/48 47/47/47
f 56/56/56 49/49/49 48/48/48
f 49/49/49 58/58/58 50/50/50
f 58/58/58 51/51/51 50/50/50
f 59/59/59 52/52/52 51/51/51
f 6/6/6 37/37/37 5/5/5
f 45/45/45 38/38/38 37/37/37
f 46/46/46 39/39/39 38/38/38
f 39/39/39 48/48/48 40/40/40
f 40/40/40 49/49/49 41/41/41
f 41/41/41 50/50/50 42/42/42
f 50/50/50 43/43/43 42/42/42
f 51/51/51 44/44/44 43/43/43
f 5/5/5 28/28/28 1/1/1
f 28/28/28 38/38/38 27/27/27
f 27/27/27 39/39/39 26/26/26
f 26/26/26 40/40/40 25/25/25
f 40/40/40 24/24/24 25/25/25
f 41/41/41 23/23/23 24/24/24
f 23/23/23 43/43/43 22/22/22
f 43/43/43 21/21/21 22/22/22
f 2/2/2 93/93/93 12/12/12
f 93/93/93 30/30/30 94/94/94
f 30/30/30 95/95/95 94/94/94
f 31/31/31 96/96/96 95/95/95
f 32/32/32 97/97/97 96/96/96
f 33/33/33 98/98/98 97/97/97
f 98/98/98 35/35/35 99/99/99
f 99/99/99 36/36/36 100/100/100
f 100/100/100 36/36/36 4/4/4
f 44/44/44 20/20/20 3/3/3
f 44/44/44 52/52/52 19/19/19
f 60/60/60 18/18/18 19/19/19
f 60/60/60 68/68/68 17/17/17
f 76/76/76 16/16/16 17/17/17
f 84/84/84 15/15/15 16/16/16
f 84/84/84 92/92/92 14/14/14
f 100/100/100 13/13/13 14/14/14
f 11/11/11 12/12/12 93/93/93
f 93/93/93 94/94/94 86/86/86
f 94/94/94 95/95/95 87/87/87
f 87/87/87 95/95/95 96/96/96
f 96/96/96 97/97/97 89/89/89
f 97/97/97 98/98/98 90/90/90
f 90/90/90 98/98/98 99/99/99
f 91/91/91 99/99/99 100/100/100
f 10/10/10 11/11/11 85/85/85
f 77/77/77 85/85/85 86/86/86
f 78/78/78 86/86/86 87/87/87
f 79/79/79 87/87/87 88/88/88
f 88/88/88 89/89/89 81/81/81
f 81/81/81 89/89/89 90/90/90
f 82/82/82 90/90/90 91/91/91
f 91/91/91 92/92/92 84/84/84
f 10/10/10 77/77/77 69/69/69
f 69/69/69 77/77/77 78/78/78
f 70/70/70 78/78/78 79/79/79
f 79/79/79 80/80/80 72/72/72
f 72/72/72 80/80/80 81/81/81
f 73/73/73 81/81/81 82/82/82
f 82/82/82 83/83/83 75/75/75
f 83/83/83 84/84/84 76/76/76
f 9/9/9 69/69/69 61/61/61
f 69/69/69 70/70/70 62/62/62
f 62/62/62 70/70/70 71/71/71
f 63/63/63 71/71/71 72/72/72
f 72/72/72 73/73/73 65/65/65
f 65/65/65 73/73/73 74/74/74
f 66/66/66 74/74/74 75/75/75
f 67/67/67 75/75/75 76/76/76
f 8/8/8 61/61/61 53/53/53
f 53/53/53 61/61/61 62/62/62
f 54/54/54 62/62/62 63/63/63
f 55/55/55 63/63/63 64/64/64
f 64/64/64 65/65/65 57/57/57
f 57/57/57 65/65/65 66/66/66
f 58/58/58 66/66/66 67/67/67
f 59/59/59 67/67/67 68/68/68
f 6/6/6 7/7/7 53/53/53
f 45/45/45 53/53/53 54/54/54
f 54/54/54 55/55/55 47/47/47
f 55/55/55 56/56/56 48/48/48
f 56/56/56 57/57/57 49/49/49
f 49/49/49 57/57/57 58/58/58
f 58/58/58 59/59/59 51/51/51
f 59/59/59 60/60/60 52/52/52
f 6/6/6 45/45/45 37/37/37
f 45/45/45 46/46/46 38/38/38
f 46/46/46 47/47/47 39/39/39
f 39/39/39 47/47/47 48/48/48
f 40/40/40 48/48/48 49/49/49
f 41/41/41 49/49/49 50/50/50
f 50/50/50 51/51/51 43/43/43
f 51/51/51 52/52/52 44/44/44
f 5/5/5 37/37/37 28/28/28
f 28/28/28 37/37/37 38/38/38
f 27/27/27 38/38/38 39/39/39
f 26/26/26 39/39/39 40/40/40
f 40/40/40 41/41/41 24/24/24
f 41/41/41 42/42/42 23/23/23
f 23/23/23 42/42/42 43/43/43
f 43/43/43 44/44/44 21/21/21
f 2/2/2 29/29/29 93/93/93
f 93/93/93 29/29/29 30/30/30
f 30/30/30 31/31/31 95/95/95
f 31/31/31 32/32/32 96/96/96
f 32/32/32 33/33/33 97/97/97
f 33/33/33 34/34/34 98/98/98
f 98/98/98 34/34/34 35/35/35
f 99/99/99 35/35/35 36/36/36
