o GNATVCloth
v -5.10074 -4.97081 0.519154
v 4.97638 -4.99264 0.447436
v -5.01298 5.02105 0.004229
v 4.98702 5.02105 0.004229
v -3.98571 -5.01076 0.521287
v -2.87155 -5.04711 0.439915
v -1.74945 -5.07006 0.433983
v -0.625662 -5.09397 0.411986
v 0.500478 -5.09335 0.390393
v 1.62415 -5.07724 0.36799
v 2.7438 -5.04954 0.429997
v 3.86262 -5.01923 0.458609
v 3.84991 4.95127 0.165621
v 2.72261 4.88882 0.303936
v 1.59455 4.82407 0.384705
v 0.477924 4.74667 0.490135
v -0.637095 4.69034 0.403091
v -1.71037 4.71165 0.25629
v -2.8125 4.76661 0.43939
v -3.90832 4.8732 0.228018
v -4.99843 3.90833 0.0842979
v -5.00235 2.79333 0.104643
v -5.01427 1.67924 0.136758
v -5.02699 0.566349 0.187006
v -5.03356 -0.544224 0.264008
v -5.04379 -1.65444 0.345702
v -5.05419 -2.7617 0.45317
v -5.06923 -3.86915 0.550086
v 4.95936 -3.88498 0.369033
v 4.95142 -2.77401 0.283274
v 4.95006 -1.66205 0.266317
v 4.95235 -0.549378 0.243855
v 4.95174 0.563726 0.21976
v 4.94902 1.67769 0.175026
v 4.95225 2.79213 0.129046
v 4.9567 3.90614 0.0606592
v -3.90275 -3.86392 0.414479
v -3.86376 -3.22492 0.306777
v -3.71027 -1.93873 0.188971
v -4.14744 -0.280935 0.166084
v -4.16679 0.735704 0.191364
v -4.15324 1.52029 0.171302
v -4.07827 2.81257 0.13555
v -3.94549 3.86638 -0.144776
v -2.78089 -4.03479 0.301707
v -2.84333 -2.76677 0.217823
v -2.726 -2.17825 0.29084
v -2.79202 -0.632332 0.338504
v -2.8151 0.499075 0.332442
v -2.73152 1.53875 0.184579
v -2.86806 2.84146 -0.133032
v -2.83633 3.45126 0.218317
v -1.71951 -4.26487 0.342998
v -1.55549 -2.95675 0.377418
v -1.94542 -1.66544 0.452715
v -1.92067 -0.868273 0.41126
v -1.56477 0.592 0.0847373
v -2.01524 1.64476 -0.0322678
v -1.77043 2.67603 0.194883
v -1.62669 3.59939 0.320123
v -0.295226 -4.35046 0.374981
v -0.643923 -2.92357 0.387148
v -0.599845 -1.78061 0.438652
v -0.888938 -0.808493 0.323858
v -0.650326 0.398728 0.225137
v -0.4115 1.43344 0.251765
v -0.615059 2.61084 0.340777
v -0.804899 3.44651 0.359966
v 0.678581 -3.92596 0.370166
v 0.75728 -2.63459 0.405451
v 0.470609 -1.84899 0.397691
v 0.558676 -0.511655 0.34991
v 0.536777 0.389562 0.30619
v 0.256491 1.49215 0.349067
v 0.486184 2.46913 0.378856
v 0.497467 3.69688 0.427074
v 1.89451 -3.67311 0.426765
v 1.61761 -2.86785 0.335378
v 1.77067 -1.94021 0.39302
v 1.93416 -0.406979 0.356135
v 1.91956 0.259046 0.205726
v 1.7881 1.52486 0.259219
v 1.37767 2.80263 0.321448
v 1.43482 3.64002 0.349376
v 2.73742 -3.93255 0.416748
v 3.04475 -2.84803 0.356653
v 2.89737 -1.97443 0.26224
v 2.67597 -0.511574 0.358514
v 2.91963 0.282451 0.282644
v 3.02498 1.56143 0.03442
v 2.73624 3.12877 0.129165
v 2.69968 3.49825 0.146625
v 3.86169 -3.97833 0.351782
v 3.60811 -2.72317 0.33786
v 3.82325 -1.68243 0.298148
v 3.76522 -0.727598 0.262701
v 3.83294 0.282907 0.288871
v 4.12918 1.79844 0.178179
v 4.10727 2.75394 0.0324689
v 4.00001 3.87993 -0.000565207
vt 0.0001 0.0001
vt 0.9999 0.0001
vt 0.0001 0.9999
vt 0.9999 0.9999
vt 0.111189 0.0001
vt 0.222278 0.0001
vt 0.333367 0.0001
vt 0.444455 0.0001
vt 0.555544 0.0001
vt 0.666633 0.0001
vt 0.777722 0.0001
vt 0.888811 0.0001
vt 0.888811 0.9999
vt 0.777722 0.9999
vt 0.666633 0.9999
vt 0.555544 0.9999
vt 0.444455 0.9999
vt 0.333367 0.9999
vt 0.222278 0.9999
vt 0.111189 0.9999
vt 0.0001 0.888811
vt 0.0001 0.777722
vt 0.0001 0.666633
vt 0.0001 0.555544
vt 0.0001 0.444456
vt 0.0001 0.333367
vt 0.0001 0.222278
vt 0.0001 0.111189
vt 0.9999 0.111189
vt 0.9999 0.222278
vt 0.9999 0.333367
vt 0.9999 0.444456
vt 0.9999 0.555544
vt 0.9999 0.666633
vt 0.9999 0.777722
vt 0.9999 0.888811
vt 0.11727 0.115399
vt 0.120778 0.180369
vt 0.134636 0.309595
vt 0.088728 0.473895
vt 0.085886 0.575352
vt 0.086211 0.65375
vt 0.092207 0.78313
vt 0.106956 0.892282
vt 0.22987 0.102869
vt 0.221803 0.229552
vt 0.233521 0.288953
vt 0.225541 0.443179
vt 0.221596 0.556167
vt 0.227801 0.661237
vt 0.214896 0.795203
vt 0.22542 0.865181
vt 0.335524 0.082127
vt 0.351143 0.213907
vt 0.311934 0.342467
vt 0.313159 0.422214
vt 0.347791 0.572605
vt 0.301482 0.677733
vt 0.329031 0.783086
vt 0.344903 0.885466
vt 0.476837 0.074882
vt 0.441952 0.218774
vt 0.445749 0.333088
vt 0.416414 0.43099
vt 0.439746 0.552976
vt 0.463203 0.656843
vt 0.444252 0.77653
vt 0.426137 0.866051
vt 0.573419 0.117409
vt 0.581125 0.246686
vt 0.552512 0.326
vt 0.561075 0.459693
vt 0.558356 0.550596
vt 0.530299 0.662189
vt 0.553275 0.760113
vt 0.555478 0.888821
vt 0.694433 0.13996
vt 0.667048 0.221666
vt 0.681985 0.314267
vt 0.698218 0.467249
vt 0.696819 0.535952
vt 0.68253 0.662758
vt 0.642062 0.791726
vt 0.648523 0.877957
vt 0.778029 0.111667
vt 0.809426 0.219523
vt 0.794923 0.307783
vt 0.772028 0.454562
vt 0.796846 0.533374
vt 0.807262 0.663157
vt 0.778581 0.821037
vt 0.775122 0.858219
vt 0.890224 0.104741
vt 0.865679 0.23076
vt 0.887326 0.334104
vt 0.881307 0.429754
vt 0.887973 0.53063
vt 0.918106 0.681428
vt 0.915043 0.778027
vt 0.904815 0.89094
vn -0.00291429 -0.0279831 0.999604
vn -0.00705545 0.0861978 0.996253
vn -0.0078108 -0.13508 0.990804
vn 0.0414133 -0.0400144 0.99834
vn 0.0625555 0.0477808 0.996897
vn 0.0480235 0.11494 0.992211
vn 0.0146812 0.111733 0.99363
vn 0.00734687 0.0702974 0.997499
vn 0.0120228 0.0244294 0.999629
vn -0.0190553 -0.0125159 0.99974
vn -0.00854798 0.0419958 0.999081
vn -0.0103275 0.102079 0.994723
vn 0.137616 -0.132972 0.981519
vn 0.122901 -0.100439 0.987323
vn 0.0852439 -0.041202 0.995508
vn 0.0338324 -0.0542376 0.997955
vn -0.0772449 -0.0175991 0.996857
vn 0.0163804 0.0585165 0.998152
vn -0.119317 -0.148562 0.981678
vn -0.219709 -0.331602 0.917479
vn 0.133691 0.106773 0.985254
vn -0.0339117 0.0237571 0.999142
vn -0.0294643 0.0325572 0.999035
vn 0.0251632 0.0296423 0.999244
vn 0.0889007 0.0703275 0.993555
vn 0.116992 0.0712828 0.990571
vn 0.146443 0.08367 0.985674
vn 0.0950983 0.0748936 0.992647
vn -0.0219228 0.0735233 0.997053
vn 0.0222116 0.035268 0.999131
vn 0.0227749 0.0247307 0.999435
vn 0.0296884 0.00485967 0.999547
vn 0.0371873 0.0419131 0.998429
vn 0.00983244 0.04067 0.999124
vn -0.0752325 0.0834186 0.993671
vn -0.0819552 0.0455721 0.995594
vn 0.108843 0.122282 0.986509
vn 0.107426 0.104613 0.988694
vn 0.0132181 0.0209981 0.999692
vn -0.00881214 0.0169367 0.999818
vn -0.0408936 0.0320748 0.998649
vn -0.0223087 0.0274381 0.999375
vn 0.0742665 0.117226 0.990325
vn -0.0898802 -0.11113 0.989733
vn 0.0217835 0.0880663 0.995876
vn -0.0547438 0.0043184 0.998491
vn -0.138391 -0.0731182 0.987675
vn -0.11649 -0.00566976 0.993176
vn 0.0342388 0.0865978 0.995655
vn 0.105751 0.138721 0.984669
vn -0.0714049 -0.0552624 0.995915
vn -0.252282 -0.273775 0.928117
vn -0.0107453 0.0511861 0.998631
vn -0.0638884 -0.0403708 0.99714
vn -0.0467545 0.00548003 0.998891
vn 0.036451 0.096946 0.994622
vn -0.00344032 0.120008 0.992767
vn -0.014284 0.0242169 0.999605
vn -0.172673 -0.182634 0.967899
vn -0.0374739 -0.0542803 0.997822
vn -0.00361386 0.0192543 0.999808
vn -0.00294213 -0.0227249 0.999737
vn 0.008948 0.0191339 0.999777
vn -0.0051914 0.112746 0.99361
vn -0.0995487 0.0338034 0.994458
vn -0.140472 -0.0219549 0.989841
vn -0.0966148 -0.0829042 0.991863
vn -0.0687695 -0.0528629 0.996231
vn -0.00208617 0.00330841 0.999992
vn 0.0234265 -0.0228846 0.999464
vn 0.0144069 0.00764944 0.999867
vn -0.00593641 0.0756944 0.997113
vn 0.0138726 -0.00361229 0.999897
vn -0.0480655 -0.0226145 0.998588
vn -0.00285655 -0.0380185 0.999273
vn 0.00472755 -0.0427319 0.999075
vn -0.0190663 0.0339936 0.99924
vn 0.024974 0.019865 0.999491
vn 0.0418179 -0.0149869 0.999013
vn 0.000160121 0.122955 0.992412
vn 0.0250628 0.107826 0.993854
vn 0.108861 -0.0258015 0.993722
vn 0.10483 -0.0299488 0.994039
vn 0.111447 -0.052553 0.99238
vn 0.0175136 0.0136892 0.999753
vn 0.0153115 0.0707793 0.997374
vn 0.0275926 0.0164931 0.999483
vn 0.0402674 0.0546714 0.997692
vn -0.0145208 0.109586 0.993871
vn 0.00304203 0.077432 0.996993
vn 0.126552 -0.0216841 0.991723
vn 0.141795 -0.0733826 0.987172
vn 0.0154909 0.054857 0.998374
vn 0.013493 0.0448912 0.998901
vn -0.00130001 0.0333973 0.999441
vn 0.0259073 0.007241 0.999638
vn -0.00697405 0.0544649 0.998491
vn -0.0605705 0.0901915 0.994081
vn -0.0538099 0.0610368 0.996684
vn 0.0709065 -0.0434481 0.996536
f 100/100/100 4/4/4 13/13/13
f 44/44/44 3/3/3 21/21/21
f 44/44/44 19/19/19 20/20/20
f 60/60/60 19/19/19 52/52/52
f 60/60/60 17/17/17 18/18/18
f 76/76/76 17/17/17 68/68/68
f 84/84/84 16/16/16 76/76/76
f 84/84/84 14/14/14 15/15/15
f 100/100/100 14/14/14 92/92/92
f 11/11/11 93/93/93 85/85/85
f 93/93/93 86/86/86 85/85/85
f 94/94/94 87/87/87 86/86/86
f 87/87/87 96/96/96 88/88/88
f 96/96/96 89/89/89 88/88/88
f 97/97/97 90/90/90 89/89/89
f 90/90/90 99/99/99 91/91/91
f 91/91/91 100/100/100 92/92/92
f 10/10/10 85/85/85 77/77/77
f 77/77/77 86/86/86 78/78/78
f 78/78/78 87/87/87 79/79/79
f 79/79/79 88/88/88 80/80/80
f 88/88/88 81/81/81 80/80/80
f 81/81/81 90/90/90 82/82/82
f 82/82/82 91/91/91 83/83/83
f 91/91/91 84/84/84 83/83/83
f 10/10/10 69/69/69 9/9/9
f 69/69/69 78/78/78 70/70/70
f 70/70/70 79/79/79 71/71/71
f 79/79/79 72/72/72 71/71/71
f 72/72/72 81/81/81 73/73/73
f 73/73/73 82/82/82 74/74/74
f 82/82/82 75/75/75 74/74/74
f 83/83/83 76/76/76 75/75/75
f 9/9/9 61/61/61 8/8/8
f 69/69/69 62/62/62 61/61/61
f 62/62/62 71/71/71 63/63/63
f 63/63/63 72/72/72 64/64/64
f 72/72/72 65/65/65 64/64/64
f 65/65/65 74/74/74 66/66/66
f 66/66/66 75/75/75 67/67/67
f 67/67/67 76/76/76 68/68/68
f 8/8/8 53/53/53 7/7/7
f 53/53/53 62/62/62 54/54/54
f 54/54/54 63/63/63 55/55/55
f 55/55/55 64/64/64 56/56/56
f 64/64/64 57/57/57 56/56/56
f 57/57/57 66/66/66 58/58/58
f 58/58/58 67/67/67 59/59/59
f 59/59/59 68/68/68 60/60/60
f 6/6/6 53/53/53 45/45/45
f 45/45/45 54/54/54 46/46/46
f 54/54/54 47/47/47 46/46/46
f 55/55/55 48/48/48 47/47/47
f 56/56/56 49/49/49 48/48/48
f 49/49/49 58/58/58 50/50/50
f 58/58/58 51/51/51 50/50/50
f 59/59/59 52/52/52 51/51/51
f 6/6/6 37/37/37 5/5/5
f 45/45/45 38/38/38 37/37/37
f 46/46/46 39/39/39 38/38/38
f 39/39/39 48/48/48 40/40/40
f 40/40/40 49/49/49 41/41/41
f 41/41/41 50/50/50 42/42/42
f 50/50/50 43/43/43 42/42/42
f 51/51/51 44/44/44 43/43/43
f 5/5/5 28/28/28 1/1/1
f 28/28/28 38/38/38 27/27/27
f 27/27/27 39/39/39 26/26/26
f 26/26/26 40/40/40 25/25/25
f 40/40/40 24/24/24 25/25/25
f 41/41/41 23/23/23 24/24/24
f 23/23/23 43/43/43 22/22/22
f 43/43/43 21/21/21 22/22/22
f 2/2/2 93/93/93 12/12/12
f 93/93/93 30/30/30 94/94/94
f 30/30/30 95/95/95 94/94/94
f 31/31/31 96/96/96 95/95/95
f 32/32/32 97/97/97 96/96/96
f 33/33/33 98/98/98 97/97/97
f 98/98/98 35/35/35 99/99/99
f 99/99/99 36/36/36 100/100/100
f 100/100/100 36/36/36 4/4/4
f 44/44/44 20/20/20 3/3/3
f 44/44/44 52/52/52 19/19/19
f 60/60/60 18/18/18 19/19/19
f 60/60/60 68/68/68 17/17/17
f 76/76/76 16/16/16 17/17/17
f 84/84/84 15/15/15 16/16/16
f 84/84/84 92/92/92 14/14/14
f 100/100/100 13/13/13 14/14/14
f 11/11/11 12/12/12 93/93/93
f 93/93/93 94/94/94 86/86/86
f 94/94/94 95/95/95 87/87/87
f 87/87/87 95/95/95 96/96/96
f 96/96/96 97/97/97 89/89/89
f 97/97/97 98/98/98 90/90/90
f 90/90/90 98/98/98 99/99/99
f 91/91/91 99/99/99 100/100/100
f 10/10/10 11/11/11 85/85/85
f 77/77/77 85/85/85 86/86/86
f 78/78/78 86/86/86 87/87/87
f 79/79/79 87/87/87 88/88/88
f 88/88/88 89/89/89 81/81/81
f 81/81/81 89/89/89 90/90/90
f 82/82/82 90/90/90 91/91/91
f 91/91/91 92/92/92 84/84/84
f 10/10/10 77/77/77 69/69/69
f 69/69/69 77/77/77 78/78/78
f 70/70/70 78/78/78 79/79/79
f 79/79/79 80/80/80 72/72/72
f 72/72/72 80/80/80 81/81/81
f 73/73/73 81/81/81 82/82/82
f 82/82/82 83/83/83 75/75/75
f 83/83/83 84/84/84 76/76/76
f 9/9/9 69/69/69 61/61/61
f 69/69/69 70/70/70 62/62/62
f 62/62/62 70/70/70 71/71/71
f 63/63/63 71/71/71 72/72/72
f 72/72/72 73/73/73 65/65/65
f 65/65/65 73/73/73 74/74/74
f 66/66/66 74/74/74 75/75/75
f 67/67/67 75/75/75 76/76/76
f 8/8/8 61/61/61 53/53/53
f 53/53/53 61/61/61 62/62/62
f 54/54/54 62/62/62 63/63/63
f 55/55/55 63/63/63 64/64/64
f 64/64/64 65/65/65 57/57/57
f 57/57/57 65/65/65 66/66/66
f 58/58/58 66/66/66 67/67/67
f 59/59/59 67/67/67 68/68/68
f 6/6/6 7/7/7 53/53/53
f 45/45/45 53/53/53 54/54/54
f 54/54/54 55/55/55 47/47/47
f 55/55/55 56/56/56 48/48/48
f 56/56/56 57/57/57 49/49/49
f 49/49/49 57/57/57 58/58/58
f 58/58/58 59/59/59 51/51/51
f 59/59/59 60/60/60 52/52/52
f 6/6/6 45/45/45 37/37/37
f 45/45/45 46/46/46 38/38/38
f 46/46/46 47/47/47 39/39/39
f 39/39/39 47/47/47 48/48/48
f 40/40/40 48/48/48 49/49/49
f 41/41/41 49/49/49 50/50/50
f 50/50/50 51/51/51 43/43/43
f 51/51/51 52/52/52 44/44/44
f 5/5/5 37/37/37 28/28/28
f 28/28/28 37/37/37 38/38/38
f 27/27/27 38/38/38 39/39/39
f 26/26/26 39/39/39 40/40/40
f 40/40/40 41/41/41 24/24/24
f 41/41/41 42/42/42 23/23/23
f 23/23/23 42/42/42 43/43/43
f 43/43/43 44/44/44 21/21/21
f 2/2/2 29/29/29 93/93/93
f 93/93/93 29/29/29 30/30/30
f 30/30/30 31/31/31 95/95/95
f 31/31/31 32/32/32 96/96/96
f 32/32/32 33/33/33 97/97/97
f 33/33/33 34/34/34 98/98/98
f 98/98/98 34/34/34 35/35/35
f 99/99/99 35/35/35 36/36/36
