o GNATVCloth
v -4.90622 -4.99557 0.345381
v 5.15399 -4.98666 0.376273
v -5.01298 5.02105 0.004229
v 4.98702 5.02105 0.004229
v -3.79204 -5.01115 0.296547
v -2.67548 -5.02525 0.281914
v -1.5576 -5.02653 0.208935
v -0.43716 -5.03128 0.196259
v 0.682837 -5.0332 0.229873
v 1.80378 -5.03986 0.225997
v 2.92484 -5.03047 0.207399
v 4.04303 -5.01384 0.268898
v 3.86851 4.94581 0.0646296
v 2.76587 4.87549 0.216325
v 1.65793 4.81137 0.313918
v 0.621259 4.77921 0.27325
v -0.497925 4.83463 0.251483
v -1.61675 4.8833 0.167624
v -2.74511 4.94061 0.140828
v -3.87454 4.98164 0.0798296
v -4.98648 3.90592 0.0404523
v -4.96927 2.79075 0.0666231
v -4.95599 1.67615 0.0974846
v -4.94159 0.562309 0.139782
v -4.92838 -0.549917 0.190355
v -4.91784 -1.66062 0.257982
v -4.90788 -2.77273 0.326362
v -4.90263 -3.88319 0.345104
v 5.1403 -3.87946 0.28715
v 5.12462 -2.76891 0.280596
v 5.1065 -1.65759 0.242918
v 5.09369 -0.54655 0.171186
v 5.08129 0.56426 0.117101
v 5.06099 1.67732 0.0788231
v 5.0409 2.79165 0.0516198
v 5.01667 3.90635 0.0285625
v -3.73315 -3.85943 0.252899
v -3.70011 -3.20855 0.250306
v -3.57081 -1.92197 0.16782
v -4.04458 -0.270263 0.159253
v -4.08564 0.745353 0.155337
v -4.09117 1.53161 0.125952
v -4.04614 2.8262 0.0849256
v -3.91054 3.91053 -0.00673453
v -2.60296 -3.99763 0.206273
v -2.69135 -2.72928 0.16624
v -2.57708 -2.13572 0.129161
v -2.67402 -0.597736 0.248788
v -2.72549 0.534147 0.240595
v -2.67311 1.58257 0.187049
v -2.81124 2.91582 0.0204143
v -2.73368 3.59448 0.195022
v -1.53847 -4.21779 0.214156
v -1.3926 -2.89972 0.198563
v -1.80008 -1.61352 0.269828
v -1.79388 -0.816873 0.243596
v -1.4632 0.680266 0.15763
v -1.93697 1.73361 0.141903
v -1.6814 2.78159 0.236958
v -1.52647 3.772 0.209457
v -0.113806 -4.29187 0.187284
v -0.480663 -2.85439 0.195386
v -0.453295 -1.71384 0.227331
v -0.758586 -0.735453 0.190599
v -0.537155 0.48414 0.184228
v -0.31272 1.52099 0.21405
v -0.521132 2.70881 0.230451
v -0.708319 3.57749 0.207341
v 0.855253 -3.86898 0.215877
v 0.91571 -2.57663 0.181906
v 0.619611 -1.78495 0.195601
v 0.692655 -0.448853 0.183006
v 0.65474 0.458897 0.202617
v 0.361922 1.57242 0.212277
v 0.580175 2.55077 0.212097
v 0.591746 3.76586 0.198688
v 2.07116 -3.6431 0.205699
v 1.78322 -2.83012 0.18195
v 1.92144 -1.90501 0.219056
v 2.06977 -0.372927 0.198114
v 2.05063 0.310665 0.178079
v 1.88951 1.57702 0.144395
v 1.47062 2.85397 0.245052
v 1.52486 3.64653 0.19328
v 2.91582 -3.91727 0.198525
v 3.21408 -2.83828 0.2573
v 3.05757 -1.96321 0.154457
v 2.80972 -0.498921 0.254925
v 3.05278 0.289126 0.229875
v 3.14121 1.58626 0.158045
v 2.83748 3.15219 0.173159
v 2.79726 3.485 0.232356
v 4.04505 -3.96902 0.208803
v 3.77683 -2.71619 0.278923
v 3.97783 -1.68116 0.24906
v 3.90817 -0.727877 0.185912
v 3.96453 0.281799 0.180932
v 4.24704 1.79656 0.137237
v 4.19858 2.75749 0.0911838
v 4.076 3.88037 0.0445005
vt 0.0001 0.0001
vt 0.9999 0.0001
vt 0.0001 0.9999
vt 0.9999 0.9999
vt 0.111189 0.0001
vt 0.222278 0.0001
vt 0.333367 0.0001
vt 0.444455 0.0001
vt 0.555544 0.0001
vt 0.666633 0.0001
vt 0.777722 0.0001
vt 0.888811 0.0001
vt 0.888811 0.9999
vt 0.777722 0.9999
vt 0.666633 0.9999
vt 0.555544 0.9999
vt 0.444455 0.9999
vt 0.333367 0.9999
vt 0.222278 0.9999
vt 0.111189 0.9999
vt 0.0001 0.888811
vt 0.0001 0.777722
vt 0.0001 0.666633
vt 0.0001 0.555544
vt 0.0001 0.444456
vt 0.0001 0.333367
vt 0.0001 0.222278
vt 0.0001 0.111189
vt 0.9999 0.111189
vt 0.9999 0.222278
vt 0.9999 0.333367
vt 0.9999 0.444456
vt 0.9999 0.555544
vt 0.9999 0.666633
vt 0.9999 0.777722
vt 0.9999 0.888811
vt 0.11727 0.115399
vt 0.120778 0.180369
vt 0.134636 0.309595
vt 0.088728 0.473895
vt 0.085886 0.575352
vt 0.086211 0.65375
vt 0.092207 0.78313
vt 0.106956 0.892282
vt 0.22987 0.102869
vt 0.221803 0.229552
vt 0.233521 0.288953
vt 0.225541 0.443179
vt 0.221596 0.556167
vt 0.227801 0.661237
vt 0.214896 0.795203
vt 0.22542 0.865181
vt 0.335524 0.082127
vt 0.351143 0.213907
vt 0.311934 0.342467
vt 0.313159 0.422214
vt 0.347791 0.572605
vt 0.301482 0.677733
vt 0.329031 0.783086
vt 0.344903 0.885466
vt 0.476837 0.074882
vt 0.441952 0.218774
vt 0.445749 0.333088
vt 0.416414 0.43099
vt 0.439746 0.552976
vt 0.463203 0.656843
vt 0.444252 0.77653
vt 0.426137 0.866051
vt 0.573419 0.117409
vt 0.581125 0.246686
vt 0.552512 0.326
vt 0.561075 0.459693
vt 0.558356 0.550596
vt 0.530299 0.662189
vt 0.553275 0.760113
vt 0.555478 0.888821
vt 0.694433 0.13996
vt 0.667048 0.221666
vt 0.681985 0.314267
vt 0.698218 0.467249
vt 0.696819 0.535952
vt 0.68253 0.662758
vt 0.642062 0.791726
vt 0.648523 0.877957
vt 0.778029 0.111667
vt 0.809426 0.219523
vt 0.794923 0.307783
vt 0.772028 0.454562
vt 0.796846 0.533374
vt 0.807262 0.663157
vt 0.778581 0.821037
vt 0.775122 0.858219
vt 0.890224 0.104741
vt 0.865679 0.23076
vt 0.887326 0.334104
vt 0.881307 0.429754
vt 0.887973 0.53063
vt 0.918106 0.681428
vt 0.915043 0.778027
vt 0.904815 0.89094
vn 0.0437891 0.000107651 0.999041
vn -0.0875051 0.0681959 0.993827
vn -0.0125911 -0.0223687 0.999671
vn 0.0354089 0.00700216 0.999348
vn 0.0450972 0.0236989 0.998702
vn 0.0340344 0.043009 0.998495
vn 0.0382223 -0.00735442 0.999242
vn 0.000131313 0.00743751 0.999972
vn -0.0211845 0.0180806 0.999612
vn 0.0095902 0.0112897 0.99989
vn -0.015977 0.0244993 0.999572
vn -0.0765722 0.0574013 0.99541
vn 0.0952212 -0.000262903 0.995456
vn 0.0855961 -0.0200663 0.996128
vn 0.0289281 -0.106241 0.99392
vn -0.0208457 -0.0816326 0.996444
vn -0.0224881 -0.0281333 0.999351
vn -0.0476396 0.0337089 0.998296
vn -0.0639815 0.00895956 0.997911
vn -0.0626796 -0.0783034 0.994957
vn 0.0221108 0.0451599 0.998735
vn -0.0207866 0.0252801 0.999464
vn -0.0252933 0.0336959 0.999112
vn -0.00811142 0.028794 0.999552
vn 0.0182727 0.0532892 0.998412
vn 0.0554249 0.0495421 0.997233
vn 0.0767804 0.0448523 0.996039
vn 0.0673299 0.0127603 0.997649
vn -0.0747038 0.0419858 0.996321
vn -0.0176661 0.00277259 0.99984
vn 0.00377044 0.0549432 0.998482
vn 0.0196495 0.0392903 0.999035
vn 0.0578762 0.0346069 0.997724
vn 0.0760186 0.0306793 0.996634
vn 0.0553984 0.0324822 0.997936
vn 0.0260319 0.0290583 0.999239
vn 0.0522586 0.0285476 0.998225
vn 0.0655319 0.0281636 0.997453
vn 0.0418499 0.0234082 0.99885
vn -0.015124 0.0181049 0.999722
vn -0.0387737 0.0283079 0.998847
vn -0.0356676 0.0349867 0.998751
vn 0.00270506 0.0574692 0.998344
vn -0.0537784 -0.0211777 0.998328
vn 0.0231809 0.0372143 0.999038
vn 0.0268751 0.0485595 0.998459
vn -0.0368056 -0.0270485 0.998956
vn -0.0352007 -0.021812 0.999142
vn -7.58583e-05 0.0288104 0.999585
vn -0.00240271 0.0714516 0.997441
vn -0.0849795 -0.0251735 0.996065
vn -0.126286 -0.0671425 0.989719
vn 0.0171578 0.0121505 0.999779
vn -0.0176669 -0.006739 0.999821
vn -0.0190198 -0.0182894 0.999652
vn 0.0356615 0.0327333 0.998828
vn 0.0106146 0.01937 0.999756
vn -0.019927 0.00838943 0.999766
vn -0.0675923 -0.0451558 0.996691
vn -0.0210431 0.0216783 0.999544
vn -0.010709 0.00677469 0.99992
vn 0.0066565 -0.00637356 0.999958
vn 0.0206328 -0.00168778 0.999786
vn 0.0178039 0.0298669 0.999395
vn -0.0136992 -0.0119905 0.999834
vn -0.0171672 -0.0150656 0.999739
vn -0.000660656 -0.00956561 0.999954
vn 0.00508895 0.00209444 0.999985
vn -0.00532884 0.0161094 0.999856
vn -0.00148013 -0.00480647 0.999987
vn 0.0065126 -0.00963084 0.999932
vn -0.00119691 0.00749975 0.999971
vn 0.00976666 -0.00476185 0.999941
vn 0.0161395 -0.00995195 0.99982
vn 0.00506815 -0.0134404 0.999897
vn -0.00293087 -0.00992732 0.999946
vn -0.00797882 0.00284784 0.999964
vn -0.00850614 0.014631 0.999857
vn -0.00365685 -0.017857 0.999834
vn -0.0423437 0.022925 0.99884
vn -0.0229275 0.0279542 0.999346
vn 0.0205011 -0.0147132 0.999682
vn 0.0135792 -0.000134165 0.999908
vn 0.00351662 -0.0472084 0.998879
vn 7.16982e-05 -0.0150377 0.999887
vn -0.0351308 0.00989788 0.999334
vn -0.027541 0.0221495 0.999375
vn -0.00444435 -0.00206994 0.999988
vn 0.0143971 0.0342668 0.999309
vn 0.00942666 0.0286507 0.999545
vn 0.0522923 -0.0410777 0.997787
vn 0.0624346 -0.0770986 0.995067
vn -0.043975 0.00470009 0.999022
vn -0.0416118 0.0136873 0.99904
vn -0.0457687 0.0476154 0.997817
vn 0.00972191 0.0208703 0.999735
vn 0.038349 0.0253666 0.998942
vn 0.0454409 0.0341978 0.998381
vn 0.0418978 0.0358497 0.998478
vn 0.089851 -0.0029682 0.995951
f 100/100/100 4/4/4 13/13/13
f 44/44/44 3/3/3 21/21/21
f 44/44/44 19/19/19 20/20/20
f 60/60/60 19/19/19 52/52/52
f 60/60/60 17/17/17 18/18/18
f 76/76/76 17/17/17 68/68/68
f 84/84/84 16/16/16 76/76/76
f 84/84/84 14/14/14 15/15/15
f 100/100/100 14/14/14 92/92/92
f 11/11/11 93/93/93 85/85/85
f 93/93/93 86/86/86 85/85/85
f 94/94/94 87/87/87 86/86/86
f 87/87/87 96/96/96 88/88/88
f 96/96/96 89/89/89 88/88/88
f 97/97/97 90/90/90 89/89/89
f 90/90/90 99/99/99 91/91/91
f 91/91/91 100/100/100 92/92/92
f 10/10/10 85/85/85 77/77/77
f 77/77/77 86/86/86 78/78/78
f 78/78/78 87/87/87 79/79/79
f 79/79/79 88/88/88 80/80/80
f 88/88/88 81/81/81 80/80/80
f 81/81/81 90/90/90 82/82/82
f 82/82/82 91/91/91 83/83/83
f 91/91/91 84/84/84 83/83/83
f 10/10/10 69/69/69 9/9/9
f 69/69/69 78/78/78 70/70/70
f 70/70/70 79/79/79 71/71/71
f 79/79/79 72/72/72 71/71/71
f 72/72/72 81/81/81 73/73/73
f 73/73/73 82/82/82 74/74/74
f 82/82/82 75/75/75 74/74/74
f 83/83/83 76/76/76 75/75/75
f 9/9/9 61/61/61 8/8/8
f 69/69/69 62/62/62 61/61/61
f 62/62/62 71/71/71 63/63/63
f 63/63/63 72/72/72 64/64/64
f 72/72/72 65/65/65 64/64/64
f 65/65/65 74/74/74 66/66/66
f 66/66/66 75/75/75 67/67/67
f 67/67/67 76/76/76 68/68/68
f 8/8/8 53/53/53 7/7/7
f 53/53/53 62/62/62 54/54/54
f 54/54/54 63/63/63 55/55/55
f 55/55/55 64/64/64 56/56/56
f 64/64/64 57/57/57 56/56/56
f 57/57/57 66/66/66 58/58/58
f 58/58/58 67/67/67 59/59/59
f 59/59/59 68/68/68 60/60/60
f 6/6/6 53/53/53 45/45/45
f 45/45/45 54/54/54 46/46/46
f 54/54/54 47/47/47 46/46/46
f 55/55/55 48/48/48 47/47/47
f 56/56/56 49/49/49 48/48/48
f 49/49/49 58/58/58 50/50/50
f 58/58/58 51/51/51 50/50/50
f 59/59/59 52/52/52 51/51/51
f 6/6/6 37/37/37 5/5/5
f 45/45/45 38/38/38 37/37/37
f 46/46/46 39/39/39 38/38/38
f 39/39/39 48/48/48 40/40/40
f 40/40/40 49/49/49 41/41/41
f 41/41/41 50/50/50 42/42/42
f 50/50/50 43/43/43 42/42/42
f 51/51/51 44/44/44 43/43/43
f 5/5/5 28/28/28 1/1/1
f 28/28/28 38/38/38 27/27/27
f 27/27/27 39/39/39 26/26/26
f 26/26/26 40/40/40 25/25/25
f 40/40/40 24/24/24 25/25/25
f 41/41/41 23/23/23 24/24/24
f 23/23/23 43/43/43 22/22/22
f 43/43/43 21/21/21 22/22/22
f 2/2/2 93/93/93 12/12/12
f 93/93/93 30/30/30 94/94/94
f 30/30/30 95/95/95 94/94/94
f 31/31/31 96/96/96 95/95/95
f 32/32/32 97/97/97 96/96/96
f 33/33/33 98/98/98 97/97/97
f 98/98/98 35/35/35 99/99/99
f 99/99/99 36/36/36 100/100/100
f 100/100/100 36/36/36 4/4/4
f 44/44/44 20/20/20 3/3/3
f 44/44/44 52/52/52 19/19/19
f 60/60/60 18/18/18 19/19/19
f 60/60/60 68/68/68 17/17/17
f 76/76/76 16/16/16 17/17/17
f 84/84/84 15/15/15 16/16/16
f 84/84/84 92/92/92 14/14/14
f 100/100/100 13/13/13 14/14/14
f 11/11/11 12/12/12 93/93/93
f 93/93/93 94/94/94 86/86/86
f 94/94/94 95/95/95 87/87/87
f 87/87/87 95/95/95 96/96/96
f 96/96/96 97/97/97 89/89/89
f 97/97/97 98/98/98 90/90/90
f 90/90/90 98/98/98 99/99/99
f 91/91/91 99/99/99 100/100/100
f 10/10/10 11/11/11 85/85/85
f 77/77/77 85/85/85 86/86/86
f 78/78/78 86/86/86 87/87/87
f 79/79/79 87/87/87 88/88/88
f 88/88/88 89/89/89 81/81/81
f 81/81/81 89/89/89 90/90/90
f 82/82/82 90/90/90 91/91/91
f 91/91/91 92/92/92 84/84/84
f 10/10/10 77/77/77 69/69/69
f 69/69/69 77/77/77 78/78/78
f 70/70/70 78/78/78 79/79/79
f 79/79/79 80/80/80 72/72/72
f 72/72/72 80/80/80 81/81/81
f 73/73/73 81/81/81 82/82/82
f 82/82/82 83/83/83 75/75/75
f 83/83/83 84/84/84 76/76/76
f 9/9/9 69/69/69 61/61/61
f 69/69/69 70/70/70 62/62/62
f 62/62/62 70/70/70 71/71/71
f 63/63/63 71/71/71 72/72/72
f 72/72/72 73/73/73 65/65/65
f 65/65/65 73/73/73 74/74/74
f 66/66/66 74/74/74 75/75/75
f 67/67/67 75/75/75 76/76/76
f 8/8/8 61/61/61 53/53/53
f 53/53/53 61/61/61 62/62/62
f 54/54/54 62/62/62 63/63/63
f 55/55/55 63/63/63 64/64/64
f 64/64/64 65/65/65 57/57/57
f 57/57/57 65/65/65 66/66/66
f 58/58/58 66/66/66 67/67/67
f 59/59/59 67/67/67 68/68/68
f 6/6/6 7/7/7 53/53/53
f 45/45/45 53/53/53 54/54/54
f 54/54/54 55/55/55 47/47/47
f 55/55/55 56/56/56 48/48/48
f 56/56/56 57/57/57 49/49/49
f 49/49/49 57/57/57 58/58/58
f 58/58/58 59/59/59 51/51/51
f 59/59/59 60/60/60 52/52/52
f 6/6/6 45/45/45 37/37/37
f 45/45/45 46/46/46 38/38/38
f 46/46/46 47/47/47 39/39/39
f 39/39/39 47/47/47 48/48/48
f 40/40/40 48/48/48 49/49/49
f 41/41/41 49/49/49 50/50/50
f 50/50/50 51/51/51 43/43/43
f 51/51/51 52/52/52 44/44/44
f 5/5/5 37/37/37 28/28/28
f 28/28/28 37/37/37 38/38/38
f 27/27/27 38/38/38 39/39/39
f 26/26/26 39/39/39 40/40/40
f 40/40/40 41/41/41 24/24/24
f 41/41/41 42/42/42 23/23/23
f 23/23/23 42/42/42 43/43/43
f 43/43/43 44/44/44 21/21/21
f 2/2/2 29/29/29 93/93/93
f 93/93/93 29/29/29 30/30/30
f 30/30/30 31/31/31 95/95/95
f 31/31/31 32/32/32 96/96/96
f 32/32/32 33/33/33 97/97/97
f 33/33/33 34/34/34 98/98/98
f 98/98/98 34/34/34 35/35/35
f 99/99/99 35/35/35 36/36/36
