o GNATVCloth
v -5.00328 -5.00748 0.16804
v 5.14767 -5.00823 0.159168
v -5.01298 5.02105 0.004229
v 4.98702 5.02105 0.004229
v -3.885 -5.052 0.128958
v -2.76174 -5.096 0.096656
v -1.63135 -5.12935 0.114648
v -0.498308 -5.16004 0.108566
v 0.639554 -5.16461 0.0459481
v 1.77301 -5.14827 0.0779864
v 2.90336 -5.1128 0.114174
v 4.02817 -5.05398 0.153386
v 3.8584 4.92509 0.118604
v 2.74015 4.83238 0.0984067
v 1.66988 4.78147 0.136756
v 0.609262 4.74627 0.109451
v -0.46809 4.77455 0.080631
v -1.58952 4.82808 0.15223
v -2.71984 4.89789 0.103694
v -3.86015 4.95353 0.0751787
v -4.97533 3.90443 0.0318773
v -4.96533 2.78802 0.0728434
v -4.96074 1.67207 0.112982
v -4.95875 0.556143 0.127239
v -4.9596 -0.558881 0.130249
v -4.96196 -1.67192 0.132293
v -4.96889 -2.78776 0.125037
v -4.97967 -3.8991 0.114755
v 5.12001 -3.89806 0.146579
v 5.11118 -2.78775 0.0934105
v 5.09878 -1.67469 0.110936
v 5.08424 -0.560293 0.116987
v 5.06973 0.554932 0.1248
v 5.05544 1.67151 0.115668
v 5.03786 2.78812 0.0868919
v 5.01345 3.90463 0.0479028
v -3.80152 -3.90442 0.100559
v -3.76127 -3.25657 0.0836891
v -3.61635 -1.96878 0.0607732
v -4.07308 -0.303151 0.0688846
v -4.10184 0.714607 0.0773917
v -4.09836 1.49982 0.0906626
v -4.04332 2.79357 0.0712121
v -3.89771 3.87982 0.048797
v -2.66721 -4.07576 0.0892334
v -2.74079 -2.80776 0.0893769
v -2.62078 -2.22125 0.0807604
v -2.69894 -0.672982 0.0867867
v -2.73986 0.458702 0.0766362
v -2.67745 1.50619 0.0785576
v -2.8088 2.85408 0.0777915
v -2.70223 3.54922 0.0879909
v -1.60083 -4.32812 0.0641182
v -1.43558 -3.01657 0.0564955
v -1.82972 -1.71856 0.108703
v -1.81751 -0.919873 0.106835
v -1.47188 0.571853 0.0760674
v -1.93817 1.63878 0.0739644
v -1.66067 2.68154 0.0779187
v -1.49544 3.69642 0.0760269
v -0.16527 -4.43721 0.0803721
v -0.517509 -2.99362 0.0655883
v -0.478818 -1.85129 0.0784558
v -0.77822 -0.867448 0.0762414
v -0.547771 0.346452 0.0785224
v -0.315722 1.37609 0.081695
v -0.5061 2.57562 0.0764175
v -0.68006 3.47054 0.0868065
v 0.815104 -4.01246 0.0655403
v 0.889938 -2.72025 0.0950957
v 0.599289 -1.93666 0.0960455
v 0.68032 -0.598121 0.0561451
v 0.64785 0.308884 0.0838235
v 0.356913 1.41473 0.0898395
v 0.585798 2.39013 0.0849787
v 0.607421 3.6455 0.0799042
v 2.04007 -3.74897 0.099289
v 1.75929 -2.94339 0.0799824
v 1.9064 -2.0111 0.071362
v 2.05846 -0.479063 0.0999396
v 2.0406 0.207349 0.070818
v 1.8835 1.46058 0.0562835
v 1.47517 2.72707 0.0926389
v 1.52189 3.56092 0.0720982
v 2.88868 -3.9954 0.0877624
v 3.19685 -2.90592 0.0943727
v 3.04629 -2.02947 0.0636717
v 2.80126 -0.572245 0.0810275
v 3.04222 0.228287 0.0917128
v 3.12992 1.53069 0.0638641
v 2.81332 3.08584 0.074502
v 2.76619 3.44986 0.109976
v 4.02205 -4.01423 0.0599346
v 3.76255 -2.76626 0.104821
v 3.97122 -1.7215 0.0981901
v 3.90066 -0.76848 0.0640444
v 3.95464 0.244658 0.0831653
v 4.23709 1.77009 0.0776627
v 4.18824 2.7367 0.0735021
v 4.05873 3.85837 0.0602712
vt 0.0001 0.0001
vt 0.9999 0.0001
vt 0.0001 0.9999
vt 0.9999 0.9999
vt 0.111189 0.0001
vt 0.222278 0.0001
vt 0.333367 0.0001
vt 0.444455 0.0001
vt 0.555544 0.0001
vt 0.666633 0.0001
vt 0.777722 0.0001
vt 0.888811 0.0001
vt 0.888811 0.9999
vt 0.777722 0.9999
vt 0.666633 0.9999
vt 0.555544 0.9999
vt 0.444455 0.9999
vt 0.333367 0.9999
vt 0.222278 0.9999
vt 0.111189 0.9999
vt 0.0001 0.888811
vt 0.0001 0.777722
vt 0.0001 0.666633
vt 0.0001 0.555544
vt 0.0001 0.444456
vt 0.0001 0.333367
vt 0.0001 0.222278
vt 0.0001 0.111189
vt 0.9999 0.111189
vt 0.9999 0.222278
vt 0.9999 0.333367
vt 0.9999 0.444456
vt 0.9999 0.555544
vt 0.9999 0.666633
vt 0.9999 0.777722
vt 0.9999 0.888811
vt 0.11727 0.115399
vt 0.120778 0.180369
vt 0.134636 0.309595
vt 0.088728 0.473895
vt 0.085886 0.575352
vt 0.086211 0.65375
vt 0.092207 0.78313
vt 0.106956 0.892282
vt 0.22987 0.102869
vt 0.221803 0.229552
vt 0.233521 0.288953
vt 0.225541 0.443179
vt 0.221596 0.556167
vt 0.227801 0.661237
vt 0.214896 0.795203
vt 0.22542 0.865181
vt 0.335524 0.082127
vt 0.351143 0.213907
vt 0.311934 0.342467
vt 0.313159 0.422214
vt 0.347791 0.572605
vt 0.301482 0.677733
vt 0.329031 0.783086
vt 0.344903 0.885466
vt 0.476837 0.074882
vt 0.441952 0.218774
vt 0.445749 0.333088
vt 0.416414 0.43099
vt 0.439746 0.552976
vt 0.463203 0.656843
vt 0.444252 0.77653
vt 0.426137 0.866051
vt 0.573419 0.117409
vt 0.581125 0.246686
vt 0.552512 0.326
vt 0.561075 0.459693
vt 0.558356 0.550596
vt 0.530299 0.662189
vt 0.553275 0.760113
vt 0.555478 0.888821
vt 0.694433 0.13996
vt 0.667048 0.221666
vt 0.681985 0.314267
vt 0.698218 0.467249
vt 0.696819 0.535952
vt 0.68253 0.662758
vt 0.642062 0.791726
vt 0.648523 0.877957
vt 0.778029 0.111667
vt 0.809426 0.219523
vt 0.794923 0.307783
vt 0.772028 0.454562
vt 0.796846 0.533374
vt 0.807262 0.663157
vt 0.778581 0.821037
vt 0.775122 0.858219
vt 0.890224 0.104741
vt 0.865679 0.23076
vt 0.887326 0.334104
vt 0.881307 0.429754
vt 0.887973 0.53063
vt 0.918106 0.681428
vt 0.915043 0.778027
vt 0.904815 0.89094
vn 0.0367648 0.0472049 0.998208
vn -0.0442861 0.0494619 0.997794
vn -0.0389494 0.000959488 0.999241
vn 0.0574693 0.00223748 0.998345
vn 0.0261825 0.0312145 0.99917
vn 0.0128215 0.0243312 0.999622
vn -0.00347844 0.0630715 0.998003
vn 0.0180047 0.0396754 0.99905
vn 0.0170126 -0.00659849 0.999833
vn -0.0193582 -0.00420056 0.999804
vn -0.015728 0.0454936 0.998841
vn -0.024083 0.0893523 0.995709
vn 0.0452808 -0.0460659 0.997912
vn 0.00776482 -0.0244652 0.999671
vn 0.00722101 -0.0537721 0.998527
vn -0.0151461 -0.0345378 0.999289
vn 0.00666614 -0.0195881 0.999786
vn 0.00674703 -0.066625 0.997755
vn -0.0245405 -0.0295798 0.999261
vn -0.0444372 -0.0229853 0.998748
vn -0.00959077 0.0278634 0.999566
vn 0.0015498 0.0363173 0.999339
vn 0.027098 0.0114091 0.999568
vn 0.0611008 0.00294284 0.998127
vn 0.0684331 0.0021643 0.997653
vn 0.0584987 0.00172834 0.998286
vn 0.0404977 -0.00100389 0.999179
vn 0.022904 0.0217032 0.999502
vn -0.0816001 0.028165 0.996267
vn -0.019454 0.000370971 0.999811
vn -0.0223478 0.00433696 0.999741
vn -0.0402111 -0.0100278 0.999141
vn -0.0403695 0.00373714 0.999178
vn -0.0444222 0.0163228 0.998879
vn -0.0257272 0.0210222 0.999448
vn 0.00183833 0.0290272 0.999577
vn 0.0157298 0.0206286 0.999663
vn 0.0127314 0.0122034 0.999844
vn 0.011416 0.00571849 0.999918
vn 0.0320633 -0.000135221 0.999486
vn 0.0242178 -0.00633192 0.999687
vn 0.0170397 -0.00136242 0.999854
vn 0.00189844 0.0207622 0.999783
vn -0.0281513 0.000153014 0.999604
vn 0.01561 0.00668636 0.999856
vn 0.00340902 0.00948352 0.999949
vn -0.0100443 -0.00520893 0.999936
vn -0.020295 -1.57103e-05 0.999794
vn -0.00378764 0.0039122 0.999985
vn 0.0040903 -0.000856099 0.999991
vn -0.00732532 -0.000750315 0.999973
vn -0.0105017 -0.00938567 0.999901
vn 0.00186863 0.0273362 0.999625
vn 0.0096264 -0.00965917 0.999907
vn 0.00160759 -0.0114523 0.999933
vn 0.00284079 0.00954339 0.99995
vn 0.00276153 0.0055357 0.999981
vn 0.000601897 -0.000432408 1
vn -0.000670201 -0.00490768 0.999988
vn 0.00185562 -0.0223339 0.999749
vn 0.0139928 0.0111738 0.99984
vn -0.0105696 -0.00351418 0.999938
vn 0.00237987 -0.00166183 0.999996
vn 0.0176111 0.00422044 0.999836
vn -0.00228301 -0.0076736 0.999968
vn -0.00735227 0.00201381 0.999971
vn -0.00177556 -0.0024581 0.999995
vn -0.00234537 -0.00149479 0.999996
vn -0.00791741 -0.00903665 0.999928
vn 0.00270197 -0.00832872 0.999962
vn -0.00213171 0.00920987 0.999955
vn -0.00376244 0.00318968 0.999988
vn 0.00586735 -0.0108778 0.999924
vn 0.00293119 0.000215299 0.999996
vn -0.00220024 -0.00144429 0.999997
vn -0.00234172 -0.00393737 0.99999
vn -0.00933211 -0.000556131 0.999956
vn -0.00243552 0.00961473 0.999951
vn 0.00922616 0.000219667 0.999957
vn -0.00301662 0.0120306 0.999923
vn -0.00511523 0.0133934 0.999897
vn 0.00906855 -0.00494572 0.999947
vn 0.00583434 0.000407415 0.999983
vn -0.00440513 -0.0257818 0.999658
vn 0.00723281 0.00163226 0.999973
vn -0.0035453 0.00400622 0.999986
vn -0.0142726 0.0140659 0.999799
vn 0.010947 -0.0037235 0.999933
vn -0.00218708 1.14585e-06 0.999998
vn -0.00753792 0.00701358 0.999947
vn 0.00722576 -0.0273573 0.9996
vn 0.0081716 -0.0434564 0.999022
vn -0.0204485 0.021776 0.999554
vn -0.0121799 -0.00444026 0.999916
vn -0.021016 0.0141311 0.999679
vn -0.0157634 -0.000229668 0.999876
vn -0.0187522 -0.000910396 0.999824
vn -0.0287105 0.0095044 0.999543
vn -0.00532917 0.0100067 0.999936
vn 0.0313772 -0.0152286 0.999392
f 100/100/100 4/4/4 13/13/13
f 44/44/44 3/3/3 21/21/21
f 44/44/44 19/19/19 20/20/20
f 60/60/60 19/19/19 52/52/52
f 60/60/60 17/17/17 18/18/18
f 76/76/76 17/17/17 68/68/68
f 84/84/84 16/16/16 76/76/76
f 84/84/84 14/14/14 15/15/15
f 100/100/100 14/14/14 92/92/92
f 11/11/11 93/93/93 85/85/85
f 93/93/93 86/86/86 85/85/85
f 94/94/94 87/87/87 86/86/86
f 87/87/87 96/96/96 88/88/88
f 96/96/96 89/89/89 88/88/88
f 97/97/97 90/90/90 89/89/89
f 90/90/90 99/99/99 91/91/91
f 91/91/91 100/100/100 92/92/92
f 10/10/10 85/85/85 77/77/77
f 77/77/77 86/86/86 78/78/78
f 78/78/78 87/87/87 79/79/79
f 79/79/79 88/88/88 80/80/80
f 88/88/88 81/81/81 80/80/80
f 81/81/81 90/90/90 82/82/82
f 82/82/82 91/91/91 83/83/83
f 91/91/91 84/84/84 83/83/83
f 10/10/10 69/69/69 9/9/9
f 69/69/69 78/78/78 70/70/70
f 70/70/70 79/79/79 71/71/71
f 79/79/79 72/72/72 71/71/71
f 72/72/72 81/81/81 73/73/73
f 73/73/73 82/82/82 74/74/74
f 82/82/82 75/75/75 74/74/74
f 83/83/83 76/76/76 75/75/75
f 9/9/9 61/61/61 8/8/8
f 69/69/69 62/62/62 61/61/61
f 62/62/62 71/71/71 63/63/63
f 63/63/63 72/72/72 64/64/64
f 72/72/72 65/65/65 64/64/64
f 65/65/65 74/74/74 66/66/66
f 66/66/66 75/75/75 67/67/67
f 67/67/67 76/76/76 68/68/68
f 8/8/8 53/53/53 7/7/7
f 53/53/53 62/62/62 54/54/54
f 54/54/54 63/63/63 55/55/55
f 55/55/55 64/64/64 56/56/56
f 64/64/64 57/57/57 56/56/56
f 57/57/57 66/66/66 58/58/58
f 58/58/58 67/67/67 59/59/59
f 59/59/59 68/68/68 60/60/60
f 6/6/6 53/53/53 45/45/45
f 45/45/45 54/54/54 46/46/46
f 54/54/54 47/47/47 46/46/46
f 55/55/55 48/48/48 47/47/47
f 56/56/56 49/49/49 48/48/48
f 49/49/49 58/58/58 50/50/50
f 58/58/58 51/51/51 50/50/50
f 59/59/59 52/52/52 51/51/51
f 6/6/6 37/37/37 5/5/5
f 45/45/45 38/38/38 37/37/37
f 46/46/46 39/39/39 38/38/38
f 39/39/39 48/48/48 40/40/40
f 40/40/40 49/49/49 41/41/41
f 41/41/41 50/50/50 42/42/42
f 50/50/50 43/43/43 42/42/42
f 51/51/51 44/44/44 43/43/43
f 5/5/5 28/28/28 1/1/1
f 28/28/28 38/38/38 27/27/27
f 27/27/27 39/39/39 26/26/26
f 26/26/26 40/40/40 25/25/25
f 40/40/40 24/24/24 25/25/25
f 41/41/41 23/23/23 24/24/24
f 23/23/23 43/43/43 22/22/22
f 43/43/43 21/21/21 22/22/22
f 2/2/2 93/93/93 12/12/12
f 93/93/93 30/30/30 94/94/94
f 30/30/30 95/95/95 94/94/94
f 31/31/31 96/96/96 95/95/95
f 32/32/32 97/97/97 96/96/96
f 33/33/33 98/98/98 97/97/97
f 98/98/98 35/35/35 99/99/99
f 99/99/99 36/36/36 100/100/100
f 100/100/100 36/36/36 4/4/4
f 44/44/44 20/20/20 3/3/3
f 44/44/44 52/52/52 19/19/19
f 60/60/60 18/18/18 19/19/19
f 60/60/60 68/68/68 17/17/17
f 76/76/76 16/16/16 17/17/17
f 84/84/84 15/15/15 16/16/16
f 84/84/84 92/92/92 14/14/14
f 100/100/100 13/13/13 14/14/14
f 11/11/11 12/12/12 93/93/93
f 93/93/93 94/94/94 86/86/86
f 94/94/94 95/95/95 87/87/87
f 87/87/87 95/95/95 96/96/96
f 96/96/96 97/97/97 89/89/89
f 97/97/97 98/98/98 90/90/90
f 90/90/90 98/98/98 99/99/99
f 91/91/91 99/99/99 100/100/100
f 10/10/10 11/11/11 85/85/85
f 77/77/77 85/85/85 86/86/86
f 78/78/78 86/86/86 87/87/87
f 79/79/79 87/87/87 88/88/88
f 88/88/88 89/89/89 81/81/81
f 81/81/81 89/89/89 90/90/90
f 82/82/82 90/90/90 91/91/91
f 91/91/91 92/92/92 84/84/84
f 10/10/10 77/77/77 69/69/69
f 69/69/69 77/77/77 78/78/78
f 70/70/70 78/78/78 79/79/79
f 79/79/79 80/80/80 72/72/72
f 72/72/72 80/80/80 81/81/81
f 73/73/73 81/81/81 82/82/82
f 82/82/82 83/83/83 75/75/75
f 83/83/83 84/84/84 76/76/76
f 9/9/9 69/69/69 61/61/61
f 69/69/69 70/70/70 62/62/62
f 62/62/62 70/70/70 71/71/71
f 63/63/63 71/71/71 72/72/72
f 72/72/72 73/73/73 65/65/65
f 65/65/65 73/73/73 74/74/74
f 66/66/66 74/74/74 75/75/75
f 67/67/67 75/75/75 76/76/76
f 8/8/8 61/61/61 53/53/53
f 53/53/53 61/61/61 62/62/62
f 54/54/54 62/62/62 63/63/63
f 55/55/55 63/63/63 64/64/64
f 64/64/64 65/65/65 57/57/57
f 57/57/57 65/65/65 66/66/66
f 58/58/58 66/66/66 67/67/67
f 59/59/59 67/67/67 68/68/68
f 6/6/6 7/7/7 53/53/53
f 45/45/45 53/53/53 54/54/54
f 54/54/54 55/55/55 47/47/47
f 55/55/55 56/56/56 48/48/48
f 56/56/56 57/57/57 49/49/49
f 49/49/49 57/57/57 58/58/58
f 58/58/58 59/59/59 51/51/51
f 59/59/59 60/60/60 52/52/52
f 6/6/6 45/45/45 37/37/37
f 45/45/45 46/46/46 38/38/38
f 46/46/46 47/47/47 39/39/39
f 39/39/39 47/47/47 48/48/48
f 40/40/40 48/48/48 49/49/49
f 41/41/41 49/49/49 50/50/50
f 50/50/50 51/51/51 43/43/43
f 51/51/51 52/52/52 44/44/44
f 5/5/5 37/37/37 28/28/28
f 28/28/28 37/37/37 38/38/38
f 27/27/27 38/38/38 39/39/39
f 26/26/26 39/39/39 40/40/40
f 40/40/40 41/41/41 24/24/24
f 41/41/41 42/42/42 23/23/23
f 23/23/23 42/42/42 43/43/43
f 43/43/43 44/44/44 21/21/21
f 2/2/2 29/29/29 93/93/93
f 93/93/93 29/29/29 30/30/30
f 30/30/30 31/31/31 95/95/95
f 31/31/31 32/32/32 96/96/96
f 32/32/32 33/33/33 97/97/97
f 33/33/33 34/34/34 98/98/98
f 98/98/98 34/34/34 35/35/35
f 99/99/99 35/35/35 36/36/36
