o GNATVCloth
v -5.09189 -4.979 0.476187
v 5.04308 -4.99636 0.467367
v -5.01298 5.02105 0.004229
v 4.98702 5.02105 0.004229
v -3.97173 -5.02526 0.461315
v -2.85132 -5.07046 0.407791
v -1.72503 -5.11748 0.336067
v -0.592625 -5.15526 0.311734
v 0.545011 -5.16403 0.32021
v 1.67567 -5.13746 0.346091
v 2.80447 -5.09952 0.340171
v 3.92822 -5.04606 0.371529
v 3.85176 4.94078 0.167985
v 2.72735 4.87923 0.305952
v 1.60839 4.80272 0.436909
v 0.488089 4.77332 0.430931
v -0.579691 4.74475 0.346009
v -1.65802 4.78141 0.223247
v -2.77605 4.83673 0.292238
v -3.88667 4.91371 0.141532
v -5.00311 3.90729 0.0867303
v -5.00078 2.79106 0.106396
v -5.01175 1.67571 0.121133
v -5.02058 0.561156 0.151513
v -5.02447 -0.550244 0.217916
v -5.0307 -1.65952 0.307655
v -5.04273 -2.76696 0.414046
v -5.05668 -3.87307 0.539362
v 5.01366 -3.88753 0.426005
v 5.00697 -2.78273 0.293716
v 4.99687 -1.67066 0.246226
v 4.98786 -0.557891 0.20218
v 4.98104 0.556518 0.167896
v 4.97318 1.67208 0.1322
v 4.96876 2.78834 0.0979694
v 4.96704 3.90434 0.0458942
v -3.8804 -3.87744 0.432923
v -3.83791 -3.23314 0.35629
v -3.69146 -1.95972 0.1531
v -4.13794 -0.294974 0.120321
v -4.16195 0.721681 0.1568
v -4.15099 1.50657 0.169687
v -4.07799 2.79953 0.186848
v -3.93799 3.858 -0.0608336
v -2.7538 -4.06234 0.313778
v -2.81952 -2.79362 0.209861
v -2.70515 -2.20711 0.285226
v -2.78064 -0.662463 0.344129
v -2.81203 0.471476 0.338858
v -2.72771 1.51252 0.216921
v -2.86347 2.82919 -0.0615904
v -2.77444 3.49793 0.142449
v -1.6881 -4.31147 0.329487
v -1.5235 -2.99869 0.326646
v -1.92131 -1.70381 0.42677
v -1.90272 -0.903818 0.426801
v -1.55651 0.557451 0.118256
v -2.01084 1.61729 0.00318027
v -1.75629 2.63674 0.231866
v -1.57616 3.64217 0.255723
v -0.257718 -4.41552 0.344174
v -0.608577 -2.97669 0.350631
v -0.571995 -1.83408 0.362753
v -0.870571 -0.861818 0.292875
v -0.640592 0.352702 0.259476
v -0.407755 1.38113 0.295363
v -0.606279 2.5566 0.397433
v -0.770852 3.43512 0.322018
v 0.719231 -3.98965 0.344044
v 0.794967 -2.69705 0.285525
v 0.504093 -1.91291 0.32074
v 0.583595 -0.575919 0.323565
v 0.550689 0.333396 0.313035
v 0.26534 1.44012 0.324913
v 0.494004 2.42106 0.36424
v 0.503089 3.66931 0.344233
v 1.94114 -3.73093 0.316985
v 1.66282 -2.92342 0.293509
v 1.80875 -1.99426 0.348234
v 1.96128 -0.460206 0.308574
v 1.94202 0.227557 0.292398
v 1.79323 1.49016 0.265561
v 1.38622 2.76571 0.328164
v 1.44199 3.60181 0.300856
v 2.78713 -3.98308 0.345905
v 3.0959 -2.89036 0.36698
v 2.94568 -2.01406 0.316411
v 2.705 -0.554723 0.340455
v 2.94849 0.245669 0.30767
v 3.04382 1.54274 0.184972
v 2.75546 3.11022 0.215216
v 2.71155 3.46591 0.15879
v 3.91709 -4.00391 0.376879
v 3.66139 -2.75335 0.365102
v 3.87087 -1.71153 0.310133
v 3.80284 -0.757226 0.263064
v 3.86332 0.25698 0.246291
v 4.15476 1.78106 0.160817
v 4.11875 2.74026 0.0471067
v 4.00907 3.86586 0.0245904
vt 0.0001 0.0001
vt 0.9999 0.0001
vt 0.0001 0.9999
vt 0.9999 0.9999
vt 0.111189 0.0001
vt 0.222278 0.0001
vt 0.333367 0.0001
vt 0.444455 0.0001
vt 0.555544 0.0001
vt 0.666633 0.0001
vt 0.777722 0.0001
vt 0.888811 0.0001
vt 0.888811 0.9999
vt 0.777722 0.9999
vt 0.666633 0.9999
vt 0.555544 0.9999
vt 0.444455 0.9999
vt 0.333367 0.9999
vt 0.222278 0.9999
vt 0.111189 0.9999
vt 0.0001 0.888811
vt 0.0001 0.777722
vt 0.0001 0.666633
vt 0.0001 0.555544
vt 0.0001 0.444456
vt 0.0001 0.333367
vt 0.0001 0.222278
vt 0.0001 0.111189
vt 0.9999 0.111189
vt 0.9999 0.222278
vt 0.9999 0.333367
vt 0.9999 0.444456
vt 0.9999 0.555544
vt 0.9999 0.666633
vt 0.9999 0.777722
vt 0.9999 0.888811
vt 0.11727 0.115399
vt 0.120778 0.180369
vt 0.134636 0.309595
vt 0.088728 0.473895
vt 0.085886 0.575352
vt 0.086211 0.65375
vt 0.092207 0.78313
vt 0.106956 0.892282
vt 0.22987 0.102869
vt 0.221803 0.229552
vt 0.233521 0.288953
vt 0.225541 0.443179
vt 0.221596 0.556167
vt 0.227801 0.661237
vt 0.214896 0.795203
vt 0.22542 0.865181
vt 0.335524 0.082127
vt 0.351143 0.213907
vt 0.311934 0.342467
vt 0.313159 0.422214
vt 0.347791 0.572605
vt 0.301482 0.677733
vt 0.329031 0.783086
vt 0.344903 0.885466
vt 0.476837 0.074882
vt 0.441952 0.218774
vt 0.445749 0.333088
vt 0.416414 0.43099
vt 0.439746 0.552976
vt 0.463203 0.656843
vt 0.444252 0.77653
vt 0.426137 0.866051
vt 0.573419 0.117409
vt 0.581125 0.246686
vt 0.552512 0.326
vt 0.561075 0.459693
vt 0.558356 0.550596
vt 0.530299 0.662189
vt 0.553275 0.760113
vt 0.555478 0.888821
vt 0.694433 0.13996
vt 0.667048 0.221666
vt 0.681985 0.314267
vt 0.698218 0.467249
vt 0.696819 0.535952
vt 0.68253 0.662758
vt 0.642062 0.791726
vt 0.648523 0.877957
vt 0.778029 0.111667
vt 0.809426 0.219523
vt 0.794923 0.307783
vt 0.772028 0.454562
vt 0.796846 0.533374
vt 0.807262 0.663157
vt 0.778581 0.821037
vt 0.775122 0.858219
vt 0.890224 0.104741
vt 0.865679 0.23076
vt 0.887326 0.334104
vt 0.881307 0.429754
vt 0.887973 0.53063
vt 0.918106 0.681428
vt 0.915043 0.778027
vt 0.904815 0.89094
vn 0.0108842 -0.0573735 0.998293
vn -0.0669827 0.0149658 0.997642
vn 0.00218891 -0.0538371 0.998547
vn 0.0632835 -0.035995 0.997346
vn 0.0499254 -0.00636743 0.998733
vn 0.0593727 0.0498601 0.99699
vn 0.0427548 0.00619709 0.999066
vn 0.00031614 -0.0236966 0.999719
vn -0.00688083 -0.0263275 0.99963
vn -0.00627155 0.00522032 0.999967
vn -0.016577 -0.00534724 0.999848
vn -0.0565316 -0.0057293 0.998384
vn 0.138293 -0.111047 0.984146
vn 0.121178 -0.112457 0.98624
vn 0.0609198 -0.120692 0.990819
vn -0.012966 -0.0897912 0.995876
vn -0.0719402 -0.0203044 0.997202
vn -0.0247102 0.0267122 0.999338
vn -0.0920703 -0.0923789 0.991458
vn -0.140208 -0.179821 0.973656
vn 0.0662315 0.10064 0.992716
vn -0.0869865 0.0156918 0.996086
vn -0.0539946 0.00396033 0.998533
vn 0.0272832 0.0168823 0.999485
vn 0.0893774 0.0694624 0.993573
vn 0.115832 0.0755376 0.990392
vn 0.109535 0.116521 0.98713
vn 0.0705712 0.0458541 0.996452
vn -0.0527984 0.0772192 0.995615
vn 0.0263815 0.0560022 0.998082
vn 0.0514333 0.0453506 0.997646
vn 0.0517543 0.0281807 0.998262
vn 0.0529323 0.0360543 0.997947
vn 0.0391166 0.0315077 0.998738
vn -0.029748 0.0641987 0.997494
vn -0.0363274 0.0339692 0.998762
vn 0.0938915 0.0681279 0.993249
vn 0.0981555 0.118726 0.988064
vn -0.00388493 0.0395754 0.999209
vn -0.0240933 0.0132037 0.999622
vn -0.0591277 0.00761798 0.998221
vn -0.0459647 -0.0132158 0.998856
vn 0.0376601 0.0924651 0.995003
vn -0.0369595 -0.035529 0.998685
vn 0.0436529 0.0753016 0.996205
vn -0.0315838 0.0222453 0.999254
vn -0.132664 -0.0803787 0.987897
vn -0.135377 -0.0185959 0.99062
vn 0.0122606 0.0754489 0.997074
vn 0.0906071 0.107459 0.990072
vn -0.0311576 0.000808918 0.999514
vn -0.182935 -0.146114 0.972206
vn 0.00406112 0.00985398 0.999943
vn -0.0453414 -0.029161 0.998546
vn -0.0209988 -0.022049 0.999536
vn 0.0447268 0.0700469 0.99654
vn -0.00500718 0.102301 0.994741
vn -0.0176695 0.0117378 0.999775
vn -0.173815 -0.0882813 0.980813
vn -0.0652844 -0.0132411 0.997779
vn -0.00401496 -0.022221 0.999745
vn 0.00945334 -0.00143534 0.999954
vn 0.0191256 0.00995639 0.999767
vn 0.0172662 0.0689996 0.997467
vn -0.0754515 0.00811385 0.997117
vn -0.0979091 -0.0375858 0.994485
vn -0.0782591 -0.0380347 0.996207
vn -0.0706216 0.0215776 0.99727
vn 0.00896235 0.0138282 0.999864
vn 0.00877374 -0.00934618 0.999918
vn 0.0165633 -0.0193586 0.999675
vn -0.00680699 0.0199812 0.999777
vn -0.00376887 0.00444268 0.999983
vn -0.00977699 -0.0257026 0.999622
vn 0.0230582 -0.0273004 0.999361
vn 0.00454024 -0.00465408 0.999979
vn -0.016284 0.0159049 0.999741
vn -0.0138515 0.003521 0.999898
vn -0.00639695 -0.0185914 0.999807
vn -0.0153442 0.0252098 0.999564
vn 0.00450805 0.0359268 0.999344
vn 0.0519894 -0.0084031 0.998612
vn 0.0596419 0.00391525 0.998212
vn 0.0737018 -0.0280352 0.996886
vn -0.022607 -0.00105606 0.999744
vn -0.029576 0.0175145 0.999409
vn 0.00589741 0.0183362 0.999815
vn 0.0126603 0.0165885 0.999782
vn 0.0347018 0.0523373 0.998026
vn 0.0438421 0.0545468 0.997548
vn 0.0947448 0.0528522 0.994098
vn 0.10426 0.0316051 0.994048
vn -0.0274478 0.0195001 0.999433
vn 0.0173776 0.0365319 0.999181
vn 0.0286652 0.0483308 0.99842
vn 0.0498876 0.0258867 0.998419
vn 0.0518737 0.0409042 0.997816
vn 0.0128236 0.0658573 0.997747
vn 0.0166857 0.0557292 0.998306
vn 0.0786577 -0.0108548 0.996843
f 100/100/100 4/4/4 13/13/13
f 44/44/44 3/3/3 21/21/21
f 44/44/44 19/19/19 20/20/20
f 60/60/60 19/19/19 52/52/52
f 60/60/60 17/17/17 18/18/18
f 76/76/76 17/17/17 68/68/68
f 84/84/84 16/16/16 76/76/76
f 84/84/84 14/14/14 15/15/15
f 100/100/100 14/14/14 92/92/92
f 11/11/11 93/93/93 85/85/85
f 93/93/93 86/86/86 85/85/85
f 94/94/94 87/87/87 86/86/86
f 87/87/87 96/96/96 88/88/88
f 96/96/96 89/89/89 88/88/88
f 97/97/97 90/90/90 89/89/89
f 90/90/90 99/99/99 91/91/91
f 91/91/91 100/100/100 92/92/92
f 10/10/10 85/85/85 77/77/77
f 77/77/77 86/86/86 78/78/78
f 78/78/78 87/87/87 79/79/79
f 79/79/79 88/88/88 80/80/80
f 88/88/88 81/81/81 80/80/80
f 81/81/81 90/90/90 82/82/82
f 82/82/82 91/91/91 83/83/83
f 91/91/91 84/84/84 83/83/83
f 10/10/10 69/69/69 9/9/9
f 69/69/69 78/78/78 70/70/70
f 70/70/70 79/79/79 71/71/71
f 79/79/79 72/72/72 71/71/71
f 72/72/72 81/81/81 73/73/73
f 73/73/73 82/82/82 74/74/74
f 82/82/82 75/75/75 74/74/74
f 83/83/83 76/76/76 75/75/75
f 9/9/9 61/61/61 8/8/8
f 69/69/69 62/62/62 61/61/61
f 62/62/62 71/71/71 63/63/63
f 63/63/63 72/72/72 64/64/64
f 72/72/72 65/65/65 64/64/64
f 65/65/65 74/74/74 66/66/66
f 66/66/66 75/75/75 67/67/67
f 67/67/67 76/76/76 68/68/68
f 8/8/8 53/53/53 7/7/7
f 53/53/53 62/62/62 54/54/54
f 54/54/54 63/63/63 55/55/55
f 55/55/55 64/64/64 56/56/56
f 64/64/64 57/57/57 56/56/56
f 57/57/57 66/66/66 58/58/58
f 58/58/58 67/67/67 59/59/59
f 59/59/59 68/68/68 60/60/60
f 6/6/6 53/53/53 45/45/45
f 45/45/45 54/54/54 46/46/46
f 54/54/54 47/47/47 46/46/46
f 55/55/55 48/48/48 47/47/47
f 56/56/56 49/49/49 48/48/48
f 49/49/49 58/58/58 50/50/50
f 58/58/58 51/51/51 50/50/50
f 59/59/59 52/52/52 51/51/51
f 6/6/6 37/37/37 5/5/5
f 45/45/45 38/38/38 37/37/37
f 46/46/46 39/39/39 38/38/38
f 39/39/39 48/48/48 40/40/40
f 40/40/40 49/49/49 41/41/41
f 41/41/41 50/50/50 42/42/42
f 50/50/50 43/43/43 42/42/42
f 51/51/51 44/44/44 43/43/43
f 5/5/5 28/28/28 1/1/1
f 28/28/28 38/38/38 27/27/27
f 27/27/27 39/39/39 26/26/26
f 26/26/26 40/40/40 25/25/25
f 40/40/40 24/24/24 25/25/25
f 41/41/41 23/23/23 24/24/24
f 23/23/23 43/43/43 22/22/22
f 43/43/43 21/21/21 22/22/22
f 2/2/2 93/93/93 12/12/12
f 93/93/93 30/30/30 94/94/94
f 30/30/30 95/95/95 94/94/94
f 31/31/31 96/96/96 95/95/95
f 32/32/32 97/97/97 96/96/96
f 33/33/33 98/98/98 97/97/97
f 98/98/98 35/35/35 99/99/99
f 99/99/99 36/36/36 100/100/100
f 100/100/100 36/36/36 4/4/4
f 44/44/44 20/20/20 3/3/3
f 44/44/44 52/52/52 19/19/19
f 60/60/60 18/18/18 19/19/19
f 60/60/60 68/68/68 17/17/17
f 76/76/76 16/16/16 17/17/17
f 84/84/84 15/15/15 16/16/16
f 84/84/84 92/92/92 14/14/14
f 100/100/100 13/13/13 14/14/14
f 11/11/11 12/12/12 93/93/93
f 93/93/93 94/94/94 86/86/86
f 94/94/94 95/95/95 87/87/87
f 87/87/87 95/95/95 96/96/96
f 96/96/96 97/97/97 89/89/89
f 97/97/97 98/98/98 90/90/90
f 90/90/90 98/98/98 99/99/99
f 91/91/91 99/99/99 100/100/100
f 10/10/10 11/11/11 85/85/85
f 77/77/77 85/85/85 86/86/86
f 78/78/78 86/86/86 87/87/87
f 79/79/79 87/87/87 88/88/88
f 88/88/88 89/89/89 81/81/81
f 81/81/81 89/89/89 90/90/90
f 82/82/82 90/90/90 91/91/91
f 91/91/91 92/92/92 84/84/84
f 10/10/10 77/77/77 69/69/69
f 69/69/69 77/77/77 78/78/78
f 70/70/70 78/78/78 79/79/79
f 79/79/79 80/80/80 72/72/72
f 72/72/72 80/80/80 81/81/81
f 73/73/73 81/81/81 82/82/82
f 82/82/82 83/83/83 75/75/75
f 83/83/83 84/84/84 76/76/76
f 9/9/9 69/69/69 61/61/61
f 69/69/69 70/70/70 62/62/62
f 62/62/62 70/70/70 71/71/71
f 63/63/63 71/71/71 72/72/72
f 72/72/72 73/73/73 65/65/65
f 65/65/65 73/73/73 74/74/74
f 66/66/66 74/74/74 75/75/75
f 67/67/67 75/75/75 76/76/76
f 8/8/8 61/61/61 53/53/53
f 53/53/53 61/61/61 62/62/62
f 54/54/54 62/62/62 63/63/63
f 55/55/55 63/63/63 64/64/64
f 64/64/64 65/65/65 57/57/57
f 57/57/57 65/65/65 66/66/66
f 58/58/58 66/66/66 67/67/67
f 59/59/59 67/67/67 68/68/68
f 6/6/6 7/7/7 53/53/53
f 45/45/45 53/53/53 54/54/54
f 54/54/54 55/55/55 47/47/47
f 55/55/55 56/56/56 48/48/48
f 56/56/56 57/57/57 49/49/49
f 49/49/49 57/57/57 58/58/58
f 58/58/58 59/59/59 51/51/51
f 59/59/59 60/60/60 52/52/52
f 6/6/6 45/45/45 37/37/37
f 45/45/45 46/46/46 38/38/38
f 46/46/46 47/47/47 39/39/39
f 39/39/39 47/47/47 48/48/48
f 40/40/40 48/48/48 49/49/49
f 41/41/41 49/49/49 50/50/50
f 50/50/50 51/51/51 43/43/43
f 51/51/51 52/52/52 44/44/44
f 5/5/5 37/37/37 28/28/28
f 28/28/28 37/37/37 38/38/38
f 27/27/27 38/38/38 39/39/39
f 26/26/26 39/39/39 40/40/40
f 40/40/40 41/41/41 24/24/24
f 41/41/41 42/42/42 23/23/23
f 23/23/23 42/42/42 43/43/43
f 43/43/43 44/44/44 21/21/21
f 2/2/2 29/29/29 93/93/93
f 93/93/93 29/29/29 30/30/30
f 30/30/30 31/31/31 95/95/95
f 31/31/31 32/32/32 96/96/96
f 32/32/32 33/33/33 97/97/97
f 33/33/33 34/34/34 98/98/98
f 98/98/98 34/34/34 35/35/35
f 99/99/99 35/35/35 36/36/36
