o GNATVCloth
v -5.00526 -5.00699 0.150594
v 5.1291 -5.01145 0.14225
v -5.01298 5.02105 0.004229
v 4.98702 5.02105 0.004229
v -3.88779 -5.04897 0.11646
v -2.76617 -5.08862 0.0846686
v -1.63612 -5.11926 0.103306
v -0.504242 -5.13949 0.0998395
v 0.628744 -5.14725 0.03539
v 1.76096 -5.13834 0.0696582
v 2.88981 -5.10187 0.103476
v 4.01186 -5.05508 0.14069
v 3.85796 4.92429 0.113885
v 2.73781 4.83732 0.0870977
v 1.68384 4.7984 0.122824
v 0.606697 4.77274 0.099028
v -0.483057 4.78442 0.0706726
v -1.59758 4.8423 0.140546
v -2.72522 4.90327 0.0913068
v -3.86393 4.95275 0.0783478
v -4.97981 3.90441 0.030809
v -4.96947 2.7881 0.0717222
v -4.96691 1.67206 0.106764
v -4.96418 0.556122 0.114228
v -4.9608 -0.558988 0.118414
v -4.95708 -1.67265 0.11796
v -4.9611 -2.785 0.109787
v -4.97777 -3.89721 0.101213
v 5.10269 -3.89899 0.13435
v 5.09359 -2.78609 0.081591
v 5.08378 -1.67294 0.0963461
v 5.07397 -0.558893 0.105301
v 5.06173 0.556108 0.115109
v 5.0496 1.67233 0.109485
v 5.03432 2.78875 0.0854063
v 5.01158 3.90489 0.0455482
v -3.8065 -3.90013 0.0907961
v -3.76392 -3.25344 0.0743323
v -3.61966 -1.96363 0.0533052
v -4.07712 -0.301039 0.0611031
v -4.10581 0.715839 0.0680982
v -4.1039 1.50003 0.0828593
v -4.04785 2.79482 0.0656856
v -3.90253 3.87946 0.0460621
v -2.67146 -4.07175 0.0802033
v -2.74462 -2.80165 0.0805902
v -2.62613 -2.21197 0.0732502
v -2.70554 -0.66823 0.0770635
v -2.74601 0.464443 0.0673817
v -2.68382 1.5127 0.0703
v -2.81443 2.85952 0.0706591
v -2.70736 3.5533 0.0786831
v -1.60576 -4.32036 0.0563058
v -1.44175 -3.00858 0.0492936
v -1.8358 -1.71027 0.0973685
v -1.82471 -0.913047 0.096112
v -1.47954 0.578982 0.0687688
v -1.94495 1.64869 0.0657775
v -1.66676 2.69026 0.0691565
v -1.50174 3.69961 0.0666828
v -0.173635 -4.42166 0.0732307
v -0.525144 -2.9879 0.0586067
v -0.48725 -1.84475 0.0695117
v -0.785106 -0.860292 0.0683448
v -0.553547 0.353884 0.0703703
v -0.321408 1.38169 0.0733091
v -0.511521 2.57765 0.0678117
v -0.686409 3.47366 0.0781797
v 0.805001 -4.0024 0.0573842
v 0.879754 -2.70767 0.0864239
v 0.589846 -1.92203 0.0879895
v 0.671844 -0.59101 0.0495672
v 0.640491 0.318082 0.0750964
v 0.353727 1.42586 0.0806479
v 0.581572 2.39915 0.0767198
v 0.603367 3.66505 0.0723282
v 2.0271 -3.738 0.0891657
v 1.7478 -2.93137 0.072101
v 1.89535 -2.00352 0.0633994
v 2.05096 -0.464961 0.0901857
v 2.03192 0.216696 0.0636273
v 1.87888 1.47163 0.0502042
v 1.46977 2.73816 0.0827349
v 1.52554 3.57627 0.0641481
v 2.87436 -3.98995 0.0792397
v 3.18243 -2.89873 0.0832886
v 3.03272 -2.0242 0.0576818
v 2.79274 -0.565774 0.0714547
v 3.0343 0.232496 0.0812276
v 3.12648 1.53268 0.0570552
v 2.81293 3.09281 0.0666091
v 2.76907 3.45922 0.0992023
v 4.00665 -4.01134 0.0530091
v 3.74819 -2.76307 0.094366
v 3.95659 -1.71968 0.0876947
v 3.88958 -0.763791 0.0554181
v 3.94665 0.248836 0.0746274
v 4.23153 1.77433 0.0695513
v 4.18888 2.73986 0.0672842
v 4.06173 3.86391 0.0555863
vt 0.0001 0.0001
vt 0.9999 0.0001
vt 0.0001 0.9999
vt 0.9999 0.9999
vt 0.111189 0.0001
vt 0.222278 0.0001
vt 0.333367 0.0001
vt 0.444455 0.0001
vt 0.555544 0.0001
vt 0.666633 0.0001
vt 0.777722 0.0001
vt 0.888811 0.0001
vt 0.888811 0.9999
vt 0.777722 0.9999
vt 0.666633 0.9999
vt 0.555544 0.9999
vt 0.444455 0.9999
vt 0.333367 0.9999
vt 0.222278 0.9999
vt 0.111189 0.9999
vt 0.0001 0.888811
vt 0.0001 0.777722
vt 0.0001 0.666633
vt 0.0001 0.555544
vt 0.0001 0.444456
vt 0.0001 0.333367
vt 0.0001 0.222278
vt 0.0001 0.111189
vt 0.9999 0.111189
vt 0.9999 0.222278
vt 0.9999 0.333367
vt 0.9999 0.444456
vt 0.9999 0.555544
vt 0.9999 0.666633
vt 0.9999 0.777722
vt 0.9999 0.888811
vt 0.11727 0.115399
vt 0.120778 0.180369
vt 0.134636 0.309595
vt 0.088728 0.473895
vt 0.085886 0.575352
vt 0.086211 0.65375
vt 0.092207 0.78313
vt 0.106956 0.892282
vt 0.22987 0.102869
vt 0.221803 0.229552
vt 0.233521 0.288953
vt 0.225541 0.443179
vt 0.221596 0.556167
vt 0.227801 0.661237
vt 0.214896 0.795203
vt 0.22542 0.865181
vt 0.335524 0.082127
vt 0.351143 0.213907
vt 0.311934 0.342467
vt 0.313159 0.422214
vt 0.347791 0.572605
vt 0.301482 0.677733
vt 0.329031 0.783086
vt 0.344903 0.885466
vt 0.476837 0.074882
vt 0.441952 0.218774
vt 0.445749 0.333088
vt 0.416414 0.43099
vt 0.439746 0.552976
vt 0.463203 0.656843
vt 0.444252 0.77653
vt 0.426137 0.866051
vt 0.573419 0.117409
vt 0.581125 0.246686
vt 0.552512 0.326
vt 0.561075 0.459693
vt 0.558356 0.550596
vt 0.530299 0.662189
vt 0.553275 0.760113
vt 0.555478 0.888821
vt 0.694433 0.13996
vt 0.667048 0.221666
vt 0.681985 0.314267
vt 0.698218 0.467249
vt 0.696819 0.535952
vt 0.68253 0.662758
vt 0.642062 0.791726
vt 0.648523 0.877957
vt 0.778029 0.111667
vt 0.809426 0.219523
vt 0.794923 0.307783
vt 0.772028 0.454562
vt 0.796846 0.533374
vt 0.807262 0.663157
vt 0.778581 0.821037
vt 0.775122 0.858219
vt 0.890224 0.104741
vt 0.865679 0.23076
vt 0.887326 0.334104
vt 0.881307 0.429754
vt 0.887973 0.53063
vt 0.918106 0.681428
vt 0.915043 0.778027
vt 0.904815 0.89094
vn 0.0321401 0.0436342 0.998531
vn -0.03966 0.0445607 0.998219
vn -0.0398232 -0.00212157 0.999204
vn 0.0543808 0.000832673 0.99852
vn 0.0233787 0.0285377 0.999319
vn 0.0117521 0.0213292 0.999703
vn -0.00537523 0.0589327 0.998248
vn 0.0173671 0.0368636 0.999169
vn 0.0176333 -0.00899587 0.999804
vn -0.0193956 -0.00446776 0.999802
vn -0.0145328 0.0423478 0.998997
vn -0.0205872 0.0835918 0.996287
vn 0.0402249 -0.0471433 0.998078
vn 0.00495356 -0.0233964 0.999714
vn 0.00739413 -0.0489097 0.998776
vn -0.0135691 -0.0311244 0.999423
vn 0.006231 -0.0176935 0.999824
vn 0.00609542 -0.0639946 0.997932
vn -0.019696 -0.0292484 0.999378
vn -0.0393352 -0.0286307 0.998816
vn -0.00700955 0.026667 0.99962
vn 0.00629795 0.03404 0.999401
vn 0.0281857 0.007824 0.999572
vn 0.0568768 0.00180679 0.99838
vn 0.064174 0.00187401 0.997937
vn 0.0539029 0.000483321 0.998546
vn 0.0358534 -0.00105776 0.999357
vn 0.0191224 0.0205275 0.999606
vn -0.0766301 0.0259437 0.996722
vn -0.0168361 0.0016195 0.999857
vn -0.018938 0.00380361 0.999813
vn -0.0378563 -0.0114317 0.999218
vn -0.0403884 0.00199797 0.999182
vn -0.0471715 0.012709 0.998806
vn -0.0303738 0.0191719 0.999355
vn -0.00147582 0.0279835 0.999607
vn 0.0139699 0.0189796 0.999722
vn 0.0104993 0.0118381 0.999875
vn 0.00947748 0.00508417 0.999942
vn 0.0298985 5.15708e-05 0.999553
vn 0.0232154 -0.00765519 0.999701
vn 0.0179354 -0.00321933 0.999834
vn 0.0040984 0.0187095 0.999817
vn -0.024311 -0.00170974 0.999703
vn 0.0145305 0.00553914 0.999879
vn 0.00266279 0.00827946 0.999962
vn -0.00916623 -0.0046355 0.999947
vn -0.0188128 0.000325637 0.999823
vn -0.00385953 0.00348593 0.999986
vn 0.00442029 -0.00204289 0.999988
vn -0.00529165 -0.000597994 0.999986
vn -0.00772384 -0.00733408 0.999943
vn 0.000670195 0.0254078 0.999677
vn 0.0091046 -0.00887609 0.999919
vn 0.00175728 -0.010613 0.999942
vn 0.00187291 0.00843903 0.999963
vn 0.00218799 0.00511879 0.999985
vn 0.000658334 -0.000392881 1
vn -0.000285444 -0.00410035 0.999992
vn 0.00137779 -0.0206929 0.999785
vn 0.0147083 0.00980096 0.999844
vn -0.0103178 -0.00306558 0.999942
vn 0.00135719 -0.00126697 0.999998
vn 0.016295 0.00340279 0.999861
vn -0.00174138 -0.00710475 0.999973
vn -0.00675531 0.00202033 0.999975
vn -0.00203402 -0.00241033 0.999995
vn -0.00298969 -0.000933792 0.999995
vn -0.00723855 -0.00965926 0.999927
vn 0.00286243 -0.00833323 0.999961
vn -0.0022361 0.00896784 0.999957
vn -0.00354883 0.00315654 0.999989
vn 0.005265 -0.0100449 0.999936
vn 0.00272819 -5.9533e-05 0.999996
vn -0.00199008 -0.00136129 0.999997
vn -0.00209219 -0.00353169 0.999992
vn -0.00873477 -0.000305828 0.999962
vn -0.00186183 0.0082421 0.999964
vn 0.00891268 0.000687779 0.99996
vn -0.00195319 0.0108885 0.999939
vn -0.00403631 0.0120863 0.999919
vn 0.00827459 -0.00439543 0.999956
vn 0.00581018 0.000383254 0.999983
vn -0.00367313 -0.0233753 0.99972
vn 0.00657566 0.00230286 0.999976
vn -0.00341777 0.0031603 0.999989
vn -0.0128865 0.0128456 0.999834
vn 0.0109514 -0.00309639 0.999935
vn -0.00181172 -0.000841119 0.999998
vn -0.00692971 0.0059576 0.999958
vn 0.00583033 -0.0251347 0.999667
vn 0.00641678 -0.0392536 0.999209
vn -0.0187796 0.0205721 0.999612
vn -0.0110229 -0.00470414 0.999928
vn -0.0172397 0.0137631 0.999757
vn -0.0141174 -0.000533322 0.9999
vn -0.0183729 -0.00181448 0.99983
vn -0.0298896 0.0074947 0.999525
vn -0.00775637 0.00901364 0.999929
vn 0.0273829 -0.0152621 0.999509
f 100/100/100 4/4/4 13/13/13
f 44/44/44 3/3/3 21/21/21
f 44/44/44 19/19/19 20/20/20
f 60/60/60 19/19/19 52/52/52
f 60/60/60 17/17/17 18/18/18
f 76/76/76 17/17/17 68/68/68
f 84/84/84 16/16/16 76/76/76
f 84/84/84 14/14/14 15/15/15
f 100/100/100 14/14/14 92/92/92
f 11/11/11 93/93/93 85/85/85
f 93/93/93 86/86/86 85/85/85
f 94/94/94 87/87/87 86/86/86
f 87/87/87 96/96/96 88/88/88
f 96/96/96 89/89/89 88/88/88
f 97/97/97 90/90/90 89/89/89
f 90/90/90 99/99/99 91/91/91
f 91/91/91 100/100/100 92/92/92
f 10/10/10 85/85/85 77/77/77
f 77/77/77 86/86/86 78/78/78
f 78/78/78 87/87/87 79/79/79
f 79/79/79 88/88/88 80/80/80
f 88/88/88 81/81/81 80/80/80
f 81/81/81 90/90/90 82/82/82
f 82/82/82 91/91/91 83/83/83
f 91/91/91 84/84/84 83/83/83
f 10/10/10 69/69/69 9/9/9
f 69/69/69 78/78/78 70/70/70
f 70/70/70 79/79/79 71/71/71
f 79/79/79 72/72/72 71/71/71
f 72/72/72 81/81/81 73/73/73
f 73/73/73 82/82/82 74/74/74
f 82/82/82 75/75/75 74/74/74
f 83/83/83 76/76/76 75/75/75
f 9/9/9 61/61/61 8/8/8
f 69/69/69 62/62/62 61/61/61
f 62/62/62 71/71/71 63/63/63
f 63/63/63 72/72/72 64/64/64
f 72/72/72 65/65/65 64/64/64
f 65/65/65 74/74/74 66/66/66
f 66/66/66 75/75/75 67/67/67
f 67/67/67 76/76/76 68/68/68
f 8/8/8 53/53/53 7/7/7
f 53/53/53 62/62/62 54/54/54
f 54/54/54 63/63/63 55/55/55
f 55/55/55 64/64/64 56/56/56
f 64/64/64 57/57/57 56/56/56
f 57/57/57 66/66/66 58/58/58
f 58/58/58 67/67/67 59/59/59
f 59/59/59 68/68/68 60/60/60
f 6/6/6 53/53/53 45/45/45
f 45/45/45 54/54/54 46/46/46
f 54/54/54 47/47/47 46/46/46
f 55/55/55 48/48/48 47/47/47
f 56/56/56 49/49/49 48/48/48
f 49/49/49 58/58/58 50/50/50
f 58/58/58 51/51/51 50/50/50
f 59/59/59 52/52/52 51/51/51
f 6/6/6 37/37/37 5/5/5
f 45/45/45 38/38/38 37/37/37
f 46/46/46 39/39/39 38/38/38
f 39/39/39 48/48/48 40/40/40
f 40/40/40 49/49/49 41/41/41
f 41/41/41 50/50/50 42/42/42
f 50/50/50 43/43/43 42/42/42
f 51/51/51 44/44/44 43/43/43
f 5/5/5 28/28/28 1/1/1
f 28/28/28 38/38/38 27/27/27
f 27/27/27 39/39/39 26/26/26
f 26/26/26 40/40/40 25/25/25
f 40/40/40 24/24/24 25/25/25
f 41/41/41 23/23/23 24/24/24
f 23/23/23 43/43/43 22/22/22
f 43/43/43 21/21/21 22/22/22
f 2/2/2 93/93/93 12/12/12
f 93/93/93 30/30/30 94/94/94
f 30/30/30 95/95/95 94/94/94
f 31/31/31 96/96/96 95/95/95
f 32/32/32 97/97/97 96/96/96
f 33/33/33 98/98/98 97/97/97
f 98/98/98 35/35/35 99/99/99
f 99/99/99 36/36/36 100/100/100
f 100/100/100 36/36/36 4/4/4
f 44/44/44 20/20/20 3/3/3
f 44/44/44 52/52/52 19/19/19
f 60/60/60 18/18/18 19/19/19
f 60/60/60 68/68/68 17/17/17
f 76/76/76 16/16/16 17/17/17
f 84/84/84 15/15/15 16/16/16
f 84/84/84 92/92/92 14/14/14
f 100/100/100 13/13/13 14/14/14
f 11/11/11 12/12/12 93/93/93
f 93/93/93 94/94/94 86/86/86
f 94/94/94 95/95/95 87/87/87
f 87/87/87 95/95/95 96/96/96
f 96/96/96 97/97/97 89/89/89
f 97/97/97 98/98/98 90/90/90
f 90/90/90 98/98/98 99/99/99
f 91/91/91 99/99/99 100/100/100
f 10/10/10 11/11/11 85/85/85
f 77/77/77 85/85/85 86/86/86
f 78/78/78 86/86/86 87/87/87
f 79/79/79 87/87/87 88/88/88
f 88/88/88 89/89/89 81/81/81
f 81/81/81 89/89/89 90/90/90
f 82/82/82 90/90/90 91/91/91
f 91/91/91 92/92/92 84/84/84
f 10/10/10 77/77/77 69/69/69
f 69/69/69 77/77/77 78/78/78
f 70/70/70 78/78/78 79/79/79
f 79/79/79 80/80/80 72/72/72
f 72/72/72 80/80/80 81/81/81
f 73/73/73 81/81/81 82/82/82
f 82/82/82 83/83/83 75/75/75
f 83/83/83 84/84/84 76/76/76
f 9/9/9 69/69/69 61/61/61
f 69/69/69 70/70/70 62/62/62
f 62/62/62 70/70/70 71/71/71
f 63/63/63 71/71/71 72/72/72
f 72/72/72 73/73/73 65/65/65
f 65/65/65 73/73/73 74/74/74
f 66/66/66 74/74/74 75/75/75
f 67/67/67 75/75/75 76/76/76
f 8/8/8 61/61/61 53/53/53
f 53/53/53 61/61/61 62/62/62
f 54/54/54 62/62/62 63/63/63
f 55/55/55 63/63/63 64/64/64
f 64/64/64 65/65/65 57/57/57
f 57/57/57 65/65/65 66/66/66
f 58/58/58 66/66/66 67/67/67
f 59/59/59 67/67/67 68/68/68
f 6/6/6 7/7/7 53/53/53
f 45/45/45 53/53/53 54/54/54
f 54/54/54 55/55/55 47/47/47
f 55/55/55 56/56/56 48/48/48
f 56/56/56 57/57/57 49/49/49
f 49/49/49 57/57/57 58/58/58
f 58/58/58 59/59/59 51/51/51
f 59/59/59 60/60/60 52/52/52
f 6/6/6 45/45/45 37/37/37
f 45/45/45 46/46/46 38/38/38
f 46/46/46 47/47/47 39/39/39
f 39/39/39 47/47/47 48/48/48
f 40/40/40 48/48/48 49/49/49
f 41/41/41 49/49/49 50/50/50
f 50/50/50 51/51/51 43/43/43
f 51/51/51 52/52/52 44/44/44
f 5/5/5 37/37/37 28/28/28
f 28/28/28 37/37/37 38/38/38
f 27/27/27 38/38/38 39/39/39
f 26/26/26 39/39/39 40/40/40
f 40/40/40 41/41/41 24/24/24
f 41/41/41 42/42/42 23/23/23
f 23/23/23 42/42/42 43/43/43
f 43/43/43 44/44/44 21/21/21
f 2/2/2 29/29/29 93/93/93
f 93/93/93 29/29/29 30/30/30
f 30/30/30 31/31/31 95/95/95
f 31/31/31 32/32/32 96/96/96
f 32/32/32 33/33/33 97/97/97
f 33/33/33 34/34/34 98/98/98
f 98/98/98 34/34/34 35/35/35
f 99/99/99 35/35/35 36/36/36
