o GNATVCloth
v -5.09316 -4.97836 0.47756
v 5.04198 -4.99795 0.467232
v -5.01298 5.02105 0.004229
v 4.98702 5.02105 0.004229
v -3.9735 -5.02619 0.463241
v -2.85281 -5.073 0.408557
v -1.7262 -5.11918 0.339556
v -0.593811 -5.15531 0.313682
v 0.543316 -5.16332 0.322567
v 1.67412 -5.13901 0.345893
v 2.8029 -5.09809 0.343468
v 3.92683 -5.0455 0.374036
v 3.85094 4.9392 0.167275
v 2.72548 4.87844 0.307998
v 1.60618 4.80489 0.437615
v 0.485483 4.76824 0.433006
v -0.58151 4.73929 0.347247
v -1.65853 4.77678 0.223935
v -2.77648 4.83393 0.295903
v -3.88697 4.9117 0.144427
v -5.00343 3.90732 0.0869187
v -5.00116 2.79113 0.106354
v -5.01322 1.6758 0.121249
v -5.02303 0.561171 0.15179
v -5.02663 -0.550516 0.219561
v -5.03346 -1.66002 0.309058
v -5.04494 -2.76747 0.415177
v -5.0583 -3.87288 0.540349
v 5.01246 -3.88742 0.426511
v 5.00597 -2.78338 0.291634
v 4.9966 -1.67116 0.24677
v 4.98762 -0.557898 0.203906
v 4.98077 0.556665 0.170096
v 4.97271 1.67223 0.134611
v 4.96731 2.78843 0.0994964
v 4.96629 3.90437 0.0462894
v -3.88247 -3.88169 0.434829
v -3.84056 -3.23296 0.355244
v -3.69357 -1.95969 0.152758
v -4.13973 -0.295414 0.120783
v -4.16381 0.721322 0.157323
v -4.15229 1.5063 0.170192
v -4.07858 2.79925 0.187361
v -3.93849 3.85735 -0.0612141
v -2.7561 -4.06247 0.314477
v -2.82209 -2.79506 0.209798
v -2.70753 -2.20784 0.286079
v -2.78219 -0.662524 0.344392
v -2.81326 0.470553 0.338149
v -2.72878 1.51194 0.216711
v -2.86431 2.827 -0.0617008
v -2.77544 3.49535 0.142124
v -1.69072 -4.31436 0.330178
v -1.52536 -2.99937 0.328679
v -1.92365 -1.7051 0.428516
v -1.90464 -0.906202 0.429389
v -1.55813 0.555589 0.115069
v -2.01208 1.61552 0.00146379
v -1.7573 2.63624 0.230692
v -1.57711 3.63855 0.256443
v -0.259886 -4.41642 0.345819
v -0.610231 -2.97716 0.352081
v -0.574065 -1.83576 0.364723
v -0.872983 -0.864301 0.293688
v -0.642381 0.351242 0.259806
v -0.409177 1.37779 0.295163
v -0.607642 2.55439 0.397629
v -0.772253 3.4322 0.323341
v 0.717306 -3.991 0.34489
v 0.793528 -2.69842 0.28835
v 0.502212 -1.91218 0.322523
v 0.58234 -0.575573 0.324928
v 0.549555 0.331707 0.314
v 0.264352 1.4385 0.326379
v 0.492847 2.4191 0.366579
v 0.501503 3.6662 0.346485
v 1.93943 -3.73086 0.319716
v 1.66139 -2.92389 0.295151
v 1.80745 -1.99451 0.349582
v 1.96111 -0.460248 0.310187
v 1.9417 0.22677 0.292316
v 1.79225 1.48892 0.266605
v 1.38463 2.76522 0.328893
v 1.43999 3.59946 0.301968
v 2.78548 -3.98279 0.348487
v 3.09464 -2.89183 0.367967
v 2.94491 -2.01611 0.316429
v 2.70491 -0.554977 0.340999
v 2.9483 0.243227 0.308019
v 3.04293 1.54173 0.182366
v 2.75413 3.11006 0.213374
v 2.71 3.46736 0.156704
v 3.91571 -4.00455 0.37767
v 3.66033 -2.75505 0.364213
v 3.87044 -1.7104 0.309782
v 3.80278 -0.756259 0.263213
v 3.86309 0.256807 0.246614
v 4.15407 1.78075 0.161295
v 4.11761 2.74043 0.0468111
v 4.00824 3.86556 0.0264749
vt 0.0001 0.0001
vt 0.9999 0.0001
vt 0.0001 0.9999
vt 0.9999 0.9999
vt 0.111189 0.0001
vt 0.222278 0.0001
vt 0.333367 0.0001
vt 0.444455 0.0001
vt 0.555544 0.0001
vt 0.666633 0.0001
vt 0.777722 0.0001
vt 0.888811 0.0001
vt 0.888811 0.9999
vt 0.777722 0.9999
vt 0.666633 0.9999
vt 0.555544 0.9999
vt 0.444455 0.9999
vt 0.333367 0.9999
vt 0.222278 0.9999
vt 0.111189 0.9999
vt 0.0001 0.888811
vt 0.0001 0.777722
vt 0.0001 0.666633
vt 0.0001 0.555544
vt 0.0001 0.444456
vt 0.0001 0.333367
vt 0.0001 0.222278
vt 0.0001 0.111189
vt 0.9999 0.111189
vt 0.9999 0.222278
vt 0.9999 0.333367
vt 0.9999 0.444456
vt 0.9999 0.555544
vt 0.9999 0.666633
vt 0.9999 0.777722
vt 0.9999 0.888811
vt 0.11727 0.115399
vt 0.120778 0.180369
vt 0.134636 0.309595
vt 0.088728 0.473895
vt 0.085886 0.575352
vt 0.086211 0.65375
vt 0.092207 0.78313
vt 0.106956 0.892282
vt 0.22987 0.102869
vt 0.221803 0.229552
vt 0.233521 0.288953
vt 0.225541 0.443179
vt 0.221596 0.556167
vt 0.227801 0.661237
vt 0.214896 0.795203
vt 0.22542 0.865181
vt 0.335524 0.082127
vt 0.351143 0.213907
vt 0.311934 0.342467
vt 0.313159 0.422214
vt 0.347791 0.572605
vt 0.301482 0.677733
vt 0.329031 0.783086
vt 0.344903 0.885466
vt 0.476837 0.074882
vt 0.441952 0.218774
vt 0.445749 0.333088
vt 0.416414 0.43099
vt 0.439746 0.552976
vt 0.463203 0.656843
vt 0.444252 0.77653
vt 0.426137 0.866051
vt 0.573419 0.117409
vt 0.581125 0.246686
vt 0.552512 0.326
vt 0.561075 0.459693
vt 0.558356 0.550596
vt 0.530299 0.662189
vt 0.553275 0.760113
vt 0.555478 0.888821
vt 0.694433 0.13996
vt 0.667048 0.221666
vt 0.681985 0.314267
vt 0.698218 0.467249
vt 0.696819 0.535952
vt 0.68253 0.662758
vt 0.642062 0.791726
vt 0.648523 0.877957
vt 0.778029 0.111667
vt 0.809426 0.219523
vt 0.794923 0.307783
vt 0.772028 0.454562
vt 0.796846 0.533374
vt 0.807262 0.663157
vt 0.778581 0.821037
vt 0.775122 0.858219
vt 0.890224 0.104741
vt 0.865679 0.23076
vt 0.887326 0.334104
vt 0.881307 0.429754
vt 0.887973 0.53063
vt 0.918106 0.681428
vt 0.915043 0.778027
vt 0.904815 0.89094
vn 0.0103311 -0.0570279 0.998319
vn -0.0656841 0.0154828 0.99772
vn 0.000950874 -0.0552733 0.998471
vn 0.0637026 -0.0347587 0.997363
vn 0.0498665 -0.00620124 0.998737
vn 0.059306 0.0507138 0.996951
vn 0.0423449 0.00977463 0.999055
vn 0.00050327 -0.0221739 0.999754
vn -0.00616331 -0.0254467 0.999657
vn -0.00689559 0.00462199 0.999966
vn -0.0168704 -0.00438202 0.999848
vn -0.0550755 -0.00407402 0.998474
vn 0.138995 -0.10872 0.984307
vn 0.121318 -0.113063 0.986153
vn 0.0610835 -0.119927 0.990902
vn -0.0121599 -0.0896271 0.995901
vn -0.0726734 -0.0202393 0.99715
vn -0.0236623 0.0268488 0.999359
vn -0.0920633 -0.0945418 0.991255
vn -0.142187 -0.182791 0.972816
vn 0.0664593 0.100869 0.992677
vn -0.087594 0.0157067 0.996032
vn -0.0544366 0.00408854 0.998509
vn 0.0273995 0.0173203 0.999474
vn 0.0905308 0.069923 0.993436
vn 0.117049 0.0753109 0.990266
vn 0.110968 0.116189 0.987009
vn 0.0706217 0.0469199 0.996399
vn -0.0526755 0.0781018 0.995553
vn 0.0266394 0.0561757 0.998065
vn 0.0506178 0.0439973 0.997749
vn 0.0504349 0.027651 0.998345
vn 0.0510277 0.0359308 0.998051
vn 0.0367757 0.0318182 0.998817
vn -0.0319644 0.0650201 0.997372
vn -0.0360147 0.0338444 0.998778
vn 0.0943041 0.0696419 0.993105
vn 0.0985659 0.119871 0.987884
vn -0.00379537 0.0391969 0.999224
vn -0.0234366 0.0133626 0.999636
vn -0.0589099 0.00755267 0.998235
vn -0.0459284 -0.0131785 0.998858
vn 0.0378269 0.0927187 0.994974
vn -0.0374916 -0.0365726 0.998627
vn 0.043549 0.0759197 0.996163
vn -0.0328472 0.0219824 0.999219
vn -0.13401 -0.0806597 0.987692
vn -0.136604 -0.0183956 0.990455
vn 0.0131031 0.0758923 0.99703
vn 0.0918146 0.107328 0.989975
vn -0.0302229 0.0009185 0.999543
vn -0.183254 -0.147591 0.971923
vn 0.0038633 0.0106383 0.999936
vn -0.0458087 -0.0296035 0.998511
vn -0.0216346 -0.0221278 0.999521
vn 0.0446861 0.0711116 0.996467
vn -0.00547811 0.103436 0.994621
vn -0.0171228 0.0111997 0.999791
vn -0.174203 -0.089191 0.980662
vn -0.0654742 -0.0142382 0.997753
vn -0.00413309 -0.0217 0.999756
vn 0.00940545 -0.00176313 0.999954
vn 0.0191478 0.0102494 0.999764
vn 0.0170296 0.0700068 0.997401
vn -0.0772855 0.00875448 0.996971
vn -0.0999931 -0.0377059 0.994273
vn -0.0796238 -0.0386152 0.996077
vn -0.0715078 0.0207416 0.997224
vn 0.00903421 0.0135772 0.999867
vn 0.00895426 -0.00942717 0.999915
vn 0.0165482 -0.018818 0.999686
vn -0.00692082 0.0206489 0.999763
vn -0.00362634 0.00427953 0.999984
vn -0.0107204 -0.0259524 0.999606
vn 0.0226225 -0.0274581 0.999367
vn 0.00457563 -0.0048543 0.999978
vn -0.0167526 0.0158407 0.999734
vn -0.0134237 0.00389083 0.999902
vn -0.00559035 -0.0183713 0.999816
vn -0.0146877 0.0263501 0.999545
vn 0.00523366 0.0369049 0.999305
vn 0.0534604 -0.00853995 0.998533
vn 0.061264 0.00406739 0.998113
vn 0.0750027 -0.0283526 0.99678
vn -0.022561 -0.000753452 0.999745
vn -0.0280986 0.0189567 0.999425
vn 0.00686364 0.0185248 0.999805
vn 0.0134318 0.0169893 0.999766
vn 0.0345988 0.0533146 0.997978
vn 0.0435711 0.0551666 0.997526
vn 0.0951294 0.0524842 0.99408
vn 0.104099 0.0300528 0.994113
vn -0.026183 0.0207752 0.999441
vn 0.018974 0.0372385 0.999126
vn 0.0287333 0.0473235 0.998466
vn 0.0495969 0.0255279 0.998443
vn 0.0505845 0.0412838 0.997866
vn 0.0104096 0.0662851 0.997746
vn 0.0152288 0.0553464 0.998351
vn 0.0783406 -0.0111704 0.996864
f 100/100/100 4/4/4 13/13/13
f 44/44/44 3/3/3 21/21/21
f 44/44/44 19/19/19 20/20/20
f 60/60/60 19/19/19 52/52/52
f 60/60/60 17/17/17 18/18/18
f 76/76/76 17/17/17 68/68/68
f 84/84/84 16/16/16 76/76/76
f 84/84/84 14/14/14 15/15/15
f 100/100/100 14/14/14 92/92/92
f 11/11/11 93/93/93 85/85/85
f 93/93/93 86/86/86 85/85/85
f 94/94/94 87/87/87 86/86/86
f 87/87/87 96/96/96 88/88/88
f 96/96/96 89/89/89 88/88/88
f 97/97/97 90/90/90 89/89/89
f 90/90/90 99/99/99 91/91/91
f 91/91/91 100/100/100 92/92/92
f 10/10/10 85/85/85 77/77/77
f 77/77/77 86/86/86 78/78/78
f 78/78/78 87/87/87 79/79/79
f 79/79/79 88/88/88 80/80/80
f 88/88/88 81/81/81 80/80/80
f 81/81/81 90/90/90 82/82/82
f 82/82/82 91/91/91 83/83/83
f 91/91/91 84/84/84 83/83/83
f 10/10/10 69/69/69 9/9/9
f 69/69/69 78/78/78 70/70/70
f 70/70/70 79/79/79 71/71/71
f 79/79/79 72/72/72 71/71/71
f 72/72/72 81/81/81 73/73/73
f 73/73/73 82/82/82 74/74/74
f 82/82/82 75/75/75 74/74/74
f 83/83/83 76/76/76 75/75/75
f 9/9/9 61/61/61 8/8/8
f 69/69/69 62/62/62 61/61/61
f 62/62/62 71/71/71 63/63/63
f 63/63/63 72/72/72 64/64/64
f 72/72/72 65/65/65 64/64/64
f 65/65/65 74/74/74 66/66/66
f 66/66/66 75/75/75 67/67/67
f 67/67/67 76/76/76 68/68/68
f 8/8/8 53/53/53 7/7/7
f 53/53/53 62/62/62 54/54/54
f 54/54/54 63/63/63 55/55/55
f 55/55/55 64/64/64 56/56/56
f 64/64/64 57/57/57 56/56/56
f 57/57/57 66/66/66 58/58/58
f 58/58/58 67/67/67 59/59/59
f 59/59/59 68/68/68 60/60/60
f 6/6/6 53/53/53 45/45/45
f 45/45/45 54/54/54 46/46/46
f 54/54/54 47/47/47 46/46/46
f 55/55/55 48/48/48 47/47/47
f 56/56/56 49/49/49 48/48/48
f 49/49/49 58/58/58 50/50/50
f 58/58/58 51/51/51 50/50/50
f 59/59/59 52/52/52 51/51/51
f 6/6/6 37/37/37 5/5/5
f 45/45/45 38/38/38 37/37/37
f 46/46/46 39/39/39 38/38/38
f 39/39/39 48/48/48 40/40/40
f 40/40/40 49/49/49 41/41/41
f 41/41/41 50/50/50 42/42/42
f 50/50/50 43/43/43 42/42/42
f 51/51/51 44/44/44 43/43/43
f 5/5/5 28/28/28 1/1/1
f 28/28/28 38/38/38 27/27/27
f 27/27/27 39/39/39 26/26/26
f 26/26/26 40/40/40 25/25/25
f 40/40/40 24/24/24 25/25/25
f 41/41/41 23/23/23 24/24/24
f 23/23/23 43/43/43 22/22/22
f 43/43/43 21/21/21 22/22/22
f 2/2/2 93/93/93 12/12/12
f 93/93/93 30/30/30 94/94/94
f 30/30/30 95/95/95 94/94/94
f 31/31/31 96/96/96 95/95/95
f 32/32/32 97/97/97 96/96/96
f 33/33/33 98/98/98 97/97/97
f 98/98/98 35/35/35 99/99/99
f 99/99/99 36/36/36 100/100/100
f 100/100/100 36/36/36 4/4/4
f 44/44/44 20/20/20 3/3/3
f 44/44/44 52/52/52 19/19/19
f 60/60/60 18/18/18 19/19/19
f 60/60/60 68/68/68 17/17/17
f 76/76/76 16/16/16 17/17/17
f 84/84/84 15/15/15 16/16/16
f 84/84/84 92/92/92 14/14/14
f 100/100/100 13/13/13 14/14/14
f 11/11/11 12/12/12 93/93/93
f 93/93/93 94/94/94 86/86/86
f 94/94/94 95/95/95 87/87/87
f 87/87/87 95/95/95 96/96/96
f 96/96/96 97/97/97 89/89/89
f 97/97/97 98/98/98 90/90/90
f 90/90/90 98/98/98 99/99/99
f 91/91/91 99/99/99 100/100/100
f 10/10/10 11/11/11 85/85/85
f 77/77/77 85/85/85 86/86/86
f 78/78/78 86/86/86 87/87/87
f 79/79/79 87/87/87 88/88/88
f 88/88/88 89/89/89 81/81/81
f 81/81/81 89/89/89 90/90/90
f 82/82/82 90/90/90 91/91/91
f 91/91/91 92/92/92 84/84/84
f 10/10/10 77/77/77 69/69/69
f 69/69/69 77/77/77 78/78/78
f 70/70/70 78/78/78 79/79/79
f 79/79/79 80/80/80 72/72/72
f 72/72/72 80/80/80 81/81/81
f 73/73/73 81/81/81 82/82/82
f 82/82/82 83/83/83 75/75/75
f 83/83/83 84/84/84 76/76/76
f 9/9/9 69/69/69 61/61/61
f 69/69/69 70/70/70 62/62/62
f 62/62/62 70/70/70 71/71/71
f 63/63/63 71/71/71 72/72/72
f 72/72/72 73/73/73 65/65/65
f 65/65/65 73/73/73 74/74/74
f 66/66/66 74/74/74 75/75/75
f 67/67/67 75/75/75 76/76/76
f 8/8/8 61/61/61 53/53/53
f 53/53/53 61/61/61 62/62/62
f 54/54/54 62/62/62 63/63/63
f 55/55/55 63/63/63 64/64/64
f 64/64/64 65/65/65 57/57/57
f 57/57/57 65/65/65 66/66/66
f 58/58/58 66/66/66 67/67/67
f 59/59/59 67/67/67 68/68/68
f 6/6/6 7/7/7 53/53/53
f 45/45/45 53/53/53 54/54/54
f 54/54/54 55/55/55 47/47/47
f 55/55/55 56/56/56 48/48/48
f 56/56/56 57/57/57 49/49/49
f 49/49/49 57/57/57 58/58/58
f 58/58/58 59/59/59 51/51/51
f 59/59/59 60/60/60 52/52/52
f 6/6/6 45/45/45 37/37/37
f 45/45/45 46/46/46 38/38/38
f 46/46/46 47/47/47 39/39/39
f 39/39/39 47/47/47 48/48/48
f 40/40/40 48/48/48 49/49/49
f 41/41/41 49/49/49 50/50/50
f 50/50/50 51/51/51 43/43/43
f 51/51/51 52/52/52 44/44/44
f 5/5/5 37/37/37 28/28/28
f 28/28/28 37/37/37 38/38/38
f 27/27/27 38/38/38 39/39/39
f 26/26/26 39/39/39 40/40/40
f 40/40/40 41/41/41 24/24/24
f 41/41/41 42/42/42 23/23/23
f 23/23/23 42/42/42 43/43/43
f 43/43/43 44/44/44 21/21/21
f 2/2/2 29/29/29 93/93/93
f 93/93/93 29/29/29 30/30/30
f 30/30/30 31/31/31 95/95/95
f 31/31/31 32/32/32 96/96/96
f 32/32/32 33/33/33 97/97/97
f 33/33/33 34/34/34 98/98/98
f 98/98/98 34/34/34 35/35/35
f 99/99/99 35/35/35 36/36/36
