o GNATVCloth
v -5.06054 -4.98655 0.579891
v 5.03515 -4.99503 0.396065
v -5.01298 5.02105 0.004229
v 4.98702 5.02105 0.004229
v -3.94517 -5.01743 0.547404
v -2.82811 -5.06188 0.480577
v -1.70529 -5.08645 0.496346
v -0.579269 -5.10888 0.505342
v 0.550035 -5.11262 0.482785
v 1.67687 -5.08693 0.5044
v 2.80077 -5.05819 0.456239
v 3.92109 -5.00733 0.499191
v 3.86038 4.92156 0.151611
v 2.74539 4.8574 0.310685
v 1.62478 4.80406 0.336826
v 0.514173 4.74798 0.333551
v -0.593554 4.74058 0.446098
v -1.69742 4.76169 0.585498
v -2.81926 4.79789 0.538736
v -3.91709 4.88457 0.290808
v -4.9887 3.90681 0.0734095
v -4.99318 2.79248 0.139598
v -5.0024 1.67889 0.20558
v -5.00869 0.565488 0.269407
v -5.01401 -0.547396 0.325177
v -5.02061 -1.65893 0.372365
v -5.02832 -2.77273 0.410735
v -5.03396 -3.87956 0.517327
v 5.01368 -3.88812 0.287392
v 5.00099 -2.77607 0.302093
v 4.99247 -1.66406 0.256624
v 4.98614 -0.55097 0.232285
v 4.9809 0.562643 0.211232
v 4.97427 1.67673 0.165967
v 4.97282 2.79157 0.127433
v 4.97087 3.90544 0.0537708
v -3.87292 -3.88857 0.319853
v -3.83195 -3.24199 0.27364
v -3.68102 -1.95402 0.242016
v -4.13275 -0.293497 0.217531
v -4.15466 0.726601 0.20115
v -4.14498 1.50878 0.142395
v -4.07589 2.7985 0.0404485
v -3.92277 3.87791 -0.0859556
v -2.73958 -4.05262 0.294698
v -2.81296 -2.78359 0.340568
v -2.68849 -2.19622 0.289895
v -2.76483 -0.649228 0.297746
v -2.7979 0.477346 0.192222
v -2.72998 1.51443 0.0416788
v -2.84582 2.85599 -0.05768
v -2.7423 3.54184 0.0602148
v -1.67505 -4.28451 0.319816
v -1.51147 -2.97228 0.397036
v -1.90237 -1.68283 0.390989
v -1.88579 -0.887297 0.344375
v -1.53468 0.587733 0.100594
v -1.99161 1.6441 -0.0318073
v -1.71213 2.68479 0.0629551
v -1.5856 3.62715 0.433708
v -0.249728 -4.37425 0.386569
v -0.597889 -2.93703 0.465037
v -0.555568 -1.7944 0.47159
v -0.846708 -0.824868 0.32517
v -0.611202 0.374329 0.145929
v -0.3761 1.40005 0.117902
v -0.56958 2.58809 0.161911
v -0.7626 3.4295 0.441258
v 0.722733 -3.94219 0.412992
v 0.807022 -2.65228 0.527054
v 0.520782 -1.86575 0.486749
v 0.610086 -0.550853 0.247945
v 0.582433 0.349468 0.212379
v 0.295962 1.45095 0.164429
v 0.523345 2.42496 0.193506
v 0.537409 3.66905 0.393833
v 1.94111 -3.68467 0.396616
v 1.6579 -2.87516 0.346122
v 1.82465 -1.95666 0.471757
v 1.98662 -0.461004 0.12302
v 1.9643 0.217065 0.0109951
v 1.82521 1.47848 0.105433
v 1.41043 2.75233 0.179668
v 1.47722 3.57773 0.343389
v 2.78727 -3.94603 0.391531
v 3.09155 -2.86114 0.319886
v 2.93978 -1.9839 0.254025
v 2.70469 -0.522965 0.337317
v 2.95037 0.265114 0.211227
v 3.06817 1.53585 -0.0696843
v 2.76054 3.10175 -0.0213042
v 2.72757 3.46341 0.0549674
v 3.91474 -3.987 0.288262
v 3.65548 -2.73388 0.316658
v 3.86532 -1.69278 0.287247
v 3.80179 -0.737436 0.293673
v 3.86192 0.277076 0.290654
v 4.15378 1.79308 0.158105
v 4.13815 2.74079 -0.0323595
v 4.02161 3.86477 -0.0754805
vt 0.0001 0.0001
vt 0.9999 0.0001
vt 0.0001 0.9999
vt 0.9999 0.9999
vt 0.111189 0.0001
vt 0.222278 0.0001
vt 0.333367 0.0001
vt 0.444455 0.0001
vt 0.555544 0.0001
vt 0.666633 0.0001
vt 0.777722 0.0001
vt 0.888811 0.0001
vt 0.888811 0.9999
vt 0.777722 0.9999
vt 0.666633 0.9999
vt 0.555544 0.9999
vt 0.444455 0.9999
vt 0.333367 0.9999
vt 0.222278 0.9999
vt 0.111189 0.9999
vt 0.0001 0.888811
vt 0.0001 0.777722
vt 0.0001 0.666633
vt 0.0001 0.555544
vt 0.0001 0.444456
vt 0.0001 0.333367
vt 0.0001 0.222278
vt 0.0001 0.111189
vt 0.9999 0.111189
vt 0.9999 0.222278
vt 0.9999 0.333367
vt 0.9999 0.444456
vt 0.9999 0.555544
vt 0.9999 0.666633
vt 0.9999 0.777722
vt 0.9999 0.888811
vt 0.11727 0.115399
vt 0.120778 0.180369
vt 0.134636 0.309595
vt 0.088728 0.473895
vt 0.085886 0.575352
vt 0.086211 0.65375
vt 0.092207 0.78313
vt 0.106956 0.892282
vt 0.22987 0.102869
vt 0.221803 0.229552
vt 0.233521 0.288953
vt 0.225541 0.443179
vt 0.221596 0.556167
vt 0.227801 0.661237
vt 0.214896 0.795203
vt 0.22542 0.865181
vt 0.335524 0.082127
vt 0.351143 0.213907
vt 0.311934 0.342467
vt 0.313159 0.422214
vt 0.347791 0.572605
vt 0.301482 0.677733
vt 0.329031 0.783086
vt 0.344903 0.885466
vt 0.476837 0.074882
vt 0.441952 0.218774
vt 0.445749 0.333088
vt 0.416414 0.43099
vt 0.439746 0.552976
vt 0.463203 0.656843
vt 0.444252 0.77653
vt 0.426137 0.866051
vt 0.573419 0.117409
vt 0.581125 0.246686
vt 0.552512 0.326
vt 0.561075 0.459693
vt 0.558356 0.550596
vt 0.530299 0.662189
vt 0.553275 0.760113
vt 0.555478 0.888821
vt 0.694433 0.13996
vt 0.667048 0.221666
vt 0.681985 0.314267
vt 0.698218 0.467249
vt 0.696819 0.535952
vt 0.68253 0.662758
vt 0.642062 0.791726
vt 0.648523 0.877957
vt 0.778029 0.111667
vt 0.809426 0.219523
vt 0.794923 0.307783
vt 0.772028 0.454562
vt 0.796846 0.533374
vt 0.807262 0.663157
vt 0.778581 0.821037
vt 0.775122 0.858219
vt 0.890224 0.104741
vt 0.865679 0.23076
vt 0.887326 0.334104
vt 0.881307 0.429754
vt 0.887973 0.53063
vt 0.918106 0.681428
vt 0.915043 0.778027
vt 0.904815 0.89094
vn 0.0306095 0.0556683 0.99798
vn 0.0401362 0.150254 0.987832
vn -0.0669646 -0.14178 0.98763
vn 0.00352397 -0.0717004 0.99742
vn 0.0880069 0.144997 0.98551
vn 0.0301703 0.191361 0.981056
vn -0.00626102 0.215202 0.976549
vn -0.00612138 0.180327 0.983588
vn -0.0192009 0.0938198 0.995404
vn 0.0114532 0.0674239 0.997659
vn 0.0293666 0.106906 0.993835
vn 0.0207382 0.202526 0.979057
vn 0.146445 -0.186419 0.971495
vn 0.133701 -0.136425 0.981587
vn 0.00998096 0.00415073 0.999942
vn 0.0521702 0.0401677 0.99783
vn 0.0629513 -0.0183499 0.997848
vn 0.0383701 -0.128795 0.990929
vn -0.19065 -0.300939 0.934392
vn -0.25499 -0.337674 0.906067
vn 0.135335 0.0723784 0.988153
vn 0.106904 0.0582255 0.992563
vn 0.0878756 0.0655053 0.993975
vn 0.0841447 0.0412142 0.995601
vn 0.108232 0.0453823 0.993089
vn 0.106573 0.0395302 0.993519
vn 0.124002 0.0460737 0.991212
vn 0.128963 0.0988014 0.986715
vn -0.00301047 0.0422429 0.999103
vn 0.0124746 0.00830048 0.999888
vn 0.0338921 0.019418 0.999237
vn 0.0553288 0.013729 0.998374
vn 0.0377128 0.0456975 0.998243
vn -0.00424956 0.0375555 0.999286
vn -0.131452 0.0969809 0.986567
vn -0.154744 0.0447766 0.986939
vn 0.0963088 0.137193 0.985851
vn 0.0567855 0.0383077 0.997651
vn 0.0162029 0.0292642 0.99944
vn 0.0451727 0.0371163 0.998289
vn 0.0576786 0.0633298 0.996325
vn 0.0791673 0.0740167 0.99411
vn 0.0959853 0.0778773 0.992332
vn -0.076125 -0.135536 0.987844
vn -0.00618091 0.0492533 0.998767
vn -0.0467395 0.0279884 0.998515
vn -0.0671987 0.0273719 0.997364
vn -0.0548162 0.037394 0.997796
vn 0.024477 0.11151 0.993462
vn 0.0679843 0.0983412 0.992828
vn -0.028462 -0.0144629 0.99949
vn -0.208652 -0.268015 0.940549
vn -0.0273924 0.0885055 0.995699
vn -0.0615941 -0.0137103 0.998007
vn -0.0602477 0.0332946 0.997628
vn 0.00349135 0.104177 0.994553
vn -0.00116122 0.123097 0.992394
vn -0.0240935 0.0403723 0.998894
vn -0.135664 -0.216467 0.966818
vn -0.0951015 -0.219589 0.970946
vn -0.0252464 0.0546009 0.998189
vn -0.0416782 -0.0333654 0.998574
vn -0.0295301 0.0749626 0.996749
vn 0.0017165 0.134066 0.990971
vn -0.0351936 0.0735696 0.996669
vn -0.0658582 0.0102157 0.997777
vn -0.0503815 -0.160021 0.985827
vn -0.0173807 -0.202412 0.979146
vn 0.010445 0.00430735 0.999936
vn 0.0574256 -0.0520656 0.996991
vn -0.0056231 0.0883251 0.996076
vn 0.0396513 0.14049 0.989288
vn 0.0430922 0.0210855 0.998849
vn -0.0237466 0.0146859 0.99961
vn -0.0014899 -0.0769997 0.99703
vn 0.0493464 -0.101505 0.993611
vn 0.0134407 0.0676772 0.997617
vn 0.095373 -0.0368179 0.994761
vn 0.0579145 0.0503918 0.997049
vn -0.0955509 0.197543 0.975626
vn -0.0252687 0.100191 0.994647
vn 0.0972504 -0.0232419 0.994989
vn 0.0977744 -0.124438 0.987398
vn 0.103722 -0.101134 0.989451
vn 0.055885 0.0575682 0.996776
vn 0.0252734 0.0496493 0.998447
vn 0.047709 -0.0091676 0.998819
vn -0.0761356 0.114362 0.990517
vn -0.104319 0.164258 0.980886
vn -0.0709671 0.0984465 0.992609
vn 0.124578 -0.0839305 0.988654
vn 0.180301 -0.18343 0.966357
vn 0.03036 0.0686127 0.997181
vn -0.00527041 0.0191486 0.999803
vn -0.00315922 0.0181968 0.999829
vn 0.0147654 0.0145584 0.999785
vn -0.040136 0.0767474 0.996242
vn -0.106047 0.110868 0.988161
vn -0.125844 0.0798573 0.988831
vn 0.0506261 -0.0917378 0.994495
f 100/100/100 4/4/4 13/13/13
f 44/44/44 3/3/3 21/21/21
f 44/44/44 19/19/19 20/20/20
f 60/60/60 19/19/19 52/52/52
f 60/60/60 17/17/17 18/18/18
f 76/76/76 17/17/17 68/68/68
f 84/84/84 16/16/16 76/76/76
f 84/84/84 14/14/14 15/15/15
f 100/100/100 14/14/14 92/92/92
f 11/11/11 93/93/93 85/85/85
f 93/93/93 86/86/86 85/85/85
f 94/94/94 87/87/87 86/86/86
f 87/87/87 96/96/96 88/88/88
f 96/96/96 89/89/89 88/88/88
f 97/97/97 90/90/90 89/89/89
f 90/90/90 99/99/99 91/91/91
f 91/91/91 100/100/100 92/92/92
f 10/10/10 85/85/85 77/77/77
f 77/77/77 86/86/86 78/78/78
f 78/78/78 87/87/87 79/79/79
f 79/79/79 88/88/88 80/80/80
f 88/88/88 81/81/81 80/80/80
f 81/81/81 90/90/90 82/82/82
f 82/82/82 91/91/91 83/83/83
f 91/91/91 84/84/84 83/83/83
f 10/10/10 69/69/69 9/9/9
f 69/69/69 78/78/78 70/70/70
f 70/70/70 79/79/79 71/71/71
f 79/79/79 72/72/72 71/71/71
f 72/72/72 81/81/81 73/73/73
f 73/73/73 82/82/82 74/74/74
f 82/82/82 75/75/75 74/74/74
f 83/83/83 76/76/76 75/75/75
f 9/9/9 61/61/61 8/8/8
f 69/69/69 62/62/62 61/61/61
f 62/62/62 71/71/71 63/63/63
f 63/63/63 72/72/72 64/64/64
f 72/72/72 65/65/65 64/64/64
f 65/65/65 74/74/74 66/66/66
f 66/66/66 75/75/75 67/67/67
f 67/67/67 76/76/76 68/68/68
f 8/8/8 53/53/53 7/7/7
f 53/53/53 62/62/62 54/54/54
f 54/54/54 63/63/63 55/55/55
f 55/55/55 64/64/64 56/56/56
f 64/64/64 57/57/57 56/56/56
f 57/57/57 66/66/66 58/58/58
f 58/58/58 67/67/67 59/59/59
f 59/59/59 68/68/68 60/60/60
f 6/6/6 53/53/53 45/45/45
f 45/45/45 54/54/54 46/46/46
f 54/54/54 47/47/47 46/46/46
f 55/55/55 48/48/48 47/47/47
f 56/56/56 49/49/49 48/48/48
f 49/49/49 58/58/58 50/50/50
f 58/58/58 51/51/51 50/50/50
f 59/59/59 52/52/52 51/51/51
f 6/6/6 37/37/37 5/5/5
f 45/45/45 38/38/38 37/37/37
f 46/46/46 39/39/39 38/38/38
f 39/39/39 48/48/48 40/40/40
f 40/40/40 49/49/49 41/41/41
f 41/41/41 50/50/50 42/42/42
f 50/50/50 43/43/43 42/42/42
f 51/51/51 44/44/44 43/43/43
f 5/5/5 28/28/28 1/1/1
f 28/28/28 38/38/38 27/27/27
f 27/27/27 39/39/39 26/26/26
f 26/26/26 40/40/40 25/25/25
f 40/40/40 24/24/24 25/25/25
f 41/41/41 23/23/23 24/24/24
f 23/23/23 43/43/43 22/22/22
f 43/43/43 21/21/21 22/22/22
f 2/2/2 93/93/93 12/12/12
f 93/93/93 30/30/30 94/94/94
f 30/30/30 95/95/95 94/94/94
f 31/31/31 96/96/96 95/95/95
f 32/32/32 97/97/97 96/96/96
f 33/33/33 98/98/98 97/97/97
f 98/98/98 35/35/35 99/99/99
f 99/99/99 36/36/36 100/100/100
f 100/100/100 36/36/36 4/4/4
f 44/44/44 20/20/20 3/3/3
f 44/44/44 52/52/52 19/19/19
f 60/60/60 18/18/18 19/19/19
f 60/60/60 68/68/68 17/17/17
f 76/76/76 16/16/16 17/17/17
f 84/84/84 15/15/15 16/16/16
f 84/84/84 92/92/92 14/14/14
f 100/100/100 13/13/13 14/14/14
f 11/11/11 12/12/12 93/93/93
f 93/93/93 94/94/94 86/86/86
f 94/94/94 95/95/95 87/87/87
f 87/87/87 95/95/95 96/96/96
f 96/96/96 97/97/97 89/89/89
f 97/97/97 98/98/98 90/90/90
f 90/90/90 98/98/98 99/99/99
f 91/91/91 99/99/99 100/100/100
f 10/10/10 11/11/11 85/85/85
f 77/77/77 85/85/85 86/86/86
f 78/78/78 86/86/86 87/87/87
f 79/79/79 87/87/87 88/88/88
f 88/88/88 89/89/89 81/81/81
f 81/81/81 89/89/89 90/90/90
f 82/82/82 90/90/90 91/91/91
f 91/91/91 92/92/92 84/84/84
f 10/10/10 77/77/77 69/69/69
f 69/69/69 77/77/77 78/78/78
f 70/70/70 78/78/78 79/79/79
f 79/79/79 80/80/80 72/72/72
f 72/72/72 80/80/80 81/81/81
f 73/73/73 81/81/81 82/82/82
f 82/82/82 83/83/83 75/75/75
f 83/83/83 84/84/84 76/76/76
f 9/9/9 69/69/69 61/61/61
f 69/69/69 70/70/70 62/62/62
f 62/62/62 70/70/70 71/71/71
f 63/63/63 71/71/71 72/72/72
f 72/72/72 73/73/73 65/65/65
f 65/65/65 73/73/73 74/74/74
f 66/66/66 74/74/74 75/75/75
f 67/67/67 75/75/75 76/76/76
f 8/8/8 61/61/61 53/53/53
f 53/53/53 61/61/61 62/62/62
f 54/54/54 62/62/62 63/63/63
f 55/55/55 63/63/63 64/64/64
f 64/64/64 65/65/65 57/57/57
f 57/57/57 65/65/65 66/66/66
f 58/58/58 66/66/66 67/67/67
f 59/59/59 67/67/67 68/68/68
f 6/6/6 7/7/7 53/53/53
f 45/45/45 53/53/53 54/54/54
f 54/54/54 55/55/55 47/47/47
f 55/55/55 56/56/56 48/48/48
f 56/56/56 57/57/57 49/49/49
f 49/49/49 57/57/57 58/58/58
f 58/58/58 59/59/59 51/51/51
f 59/59/59 60/60/60 52/52/52
f 6/6/6 45/45/45 37/37/37
f 45/45/45 46/46/46 38/38/38
f 46/46/46 47/47/47 39/39/39
f 39/39/39 47/47/47 48/48/48
f 40/40/40 48/48/48 49/49/49
f 41/41/41 49/49/49 50/50/50
f 50/50/50 51/51/51 43/43/43
f 51/51/51 52/52/52 44/44/44
f 5/5/5 37/37/37 28/28/28
f 28/28/28 37/37/37 38/38/38
f 27/27/27 38/38/38 39/39/39
f 26/26/26 39/39/39 40/40/40
f 40/40/40 41/41/41 24/24/24
f 41/41/41 42/42/42 23/23/23
f 23/23/23 42/42/42 43/43/43
f 43/43/43 44/44/44 21/21/21
f 2/2/2 29/29/29 93/93/93
f 93/93/93 29/29/29 30/30/30
f 30/30/30 31/31/31 95/95/95
f 31/31/31 32/32/32 96/96/96
f 32/32/32 33/33/33 97/97/97
f 33/33/33 34/34/34 98/98/98
f 98/98/98 34/34/34 35/35/35
f 99/99/99 35/35/35 36/36/36
