o GNATVCloth
v -5.01299 -4.97958 0.00456623
v 4.98834 -4.98001 0.00520733
v -5.01298 5.02105 0.004229
v 4.98702 5.02105 0.004229
v -3.90104 -4.9802 0.00543882
v -2.79029 -4.98012 0.00469573
v -1.67813 -4.9798 0.00430542
v -0.568449 -4.97991 0.00486124
v 0.54342 -4.98002 0.00424124
v 1.65415 -4.98031 0.00430891
v 2.76544 -4.98014 0.00507078
v 3.87686 -4.97999 0.00591492
v 3.87741 5.01996 0.0050468
v 2.7649 5.01954 0.00482167
v 1.65455 5.01988 0.00539701
v 0.543763 5.01986 0.00518918
v -0.568222 5.01971 0.00428599
v -1.6784 5.01992 0.00492176
v -2.79018 5.01964 0.00495491
v -3.90006 5.01997 0.00500768
v -5.01258 3.90883 0.00555092
v -5.01172 2.79789 0.00555736
v -5.01233 1.68669 0.00432225
v -5.01218 0.575639 0.0054391
v -5.01237 -0.535416 0.00518511
v -5.01207 -1.64703 0.00493068
v -5.01263 -2.75812 0.00463562
v -5.01254 -3.86906 0.00443434
v 4.98806 -3.86893 0.00583386
v 4.98793 -2.75811 0.00430103
v 4.9882 -1.64681 0.00478911
v 4.9876 -0.535715 0.00471991
v 4.98832 0.575379 0.00498823
v 4.9876 1.68687 0.00442971
v 4.98835 2.79791 0.00435009
v 4.98758 3.9089 0.00484435
v -3.84071 -3.82706 0.00515495
v -3.80558 -3.17734 0.00468335
v -3.66673 -1.88514 0.00426801
v -4.12604 -0.241719 0.00472857
v -4.15426 0.773365 0.00435431
v -4.15167 1.55741 0.00502134
v -4.09113 2.85135 0.0046264
v -3.94372 3.94317 0.00471343
v -2.714 -3.95255 0.0049486
v -2.79522 -2.68537 0.0045928
v -2.67788 -2.0912 0.00467213
v -2.75769 -0.548874 0.00489029
v -2.79725 0.581237 0.00479618
v -2.73526 1.63218 0.0046239
v -2.86421 2.97224 0.00468871
v -2.75899 3.67211 0.00443665
v -1.65794 -4.16002 0.00458444
v -1.50131 -2.84199 0.00425612
v -1.89363 -1.55602 0.00471756
v -1.88081 -0.75842 0.00493977
v -1.53499 0.74559 0.00492137
v -1.99816 1.79716 0.0047998
v -1.72285 2.85114 0.00444222
v -1.56371 3.87499 0.0043551
v -0.244552 -4.23256 0.00454296
v -0.593578 -2.79344 0.00455919
v -0.55557 -1.65002 0.00476071
v -0.848253 -0.670779 0.00445557
v -0.615457 0.54948 0.00454039
v -0.380296 1.58835 0.00472529
v -0.570433 2.78531 0.00473635
v -0.7513 3.68083 0.0046836
v 0.721761 -3.80724 0.00434825
v 0.798951 -2.51406 0.00505239
v 0.512758 -1.72088 0.00515691
v 0.59818 -0.383806 0.00433125
v 0.571634 0.525442 0.00468587
v 0.290241 1.6418 0.00472522
v 0.520128 2.62123 0.00470323
v 0.542294 3.90855 0.00490922
v 1.93188 -3.58157 0.00446148
v 1.65815 -2.76421 0.00471452
v 1.80734 -1.83827 0.0046396
v 1.97029 -0.307967 0.00519092
v 1.95581 0.379205 0.00462919
v 1.81297 1.64712 0.00438241
v 1.40796 2.93737 0.00510646
v 1.4729 3.79995 0.00434877
v 2.76881 -3.86451 0.00470873
v 3.08203 -2.78554 0.00498737
v 2.93692 -1.9029 0.00436642
v 2.70792 -0.434796 0.00459231
v 2.95637 0.353554 0.00439254
v 3.06075 1.65119 0.00458261
v 2.77368 3.23045 0.00459451
v 2.73976 3.60254 0.00538499
v 3.89041 -3.93382 0.00438651
v 3.64519 -2.67322 0.00515155
v 3.86135 -1.63962 0.00508322
v 3.80125 -0.682958 0.00453656
v 3.86796 0.325862 0.00487082
v 4.16952 1.83426 0.00468232
v 4.13905 2.80036 0.0047005
v 4.03635 3.92975 0.00479814
vt 0.0001 0.0001
vt 0.9999 0.0001
vt 0.0001 0.9999
vt 0.9999 0.9999
vt 0.111189 0.0001
vt 0.222278 0.0001
vt 0.333367 0.0001
vt 0.444455 0.0001
vt 0.555544 0.0001
vt 0.666633 0.0001
vt 0.777722 0.0001
vt 0.888811 0.0001
vt 0.888811 0.9999
vt 0.777722 0.9999
vt 0.666633 0.9999
vt 0.555544 0.9999
vt 0.444455 0.9999
vt 0.333367 0.9999
vt 0.222278 0.9999
vt 0.111189 0.9999
vt 0.0001 0.888811
vt 0.0001 0.777722
vt 0.0001 0.666633
vt 0.0001 0.555544
vt 0.0001 0.444456
vt 0.0001 0.333367
vt 0.0001 0.222278
vt 0.0001 0.111189
vt 0.9999 0.111189
vt 0.9999 0.222278
vt 0.9999 0.333367
vt 0.9999 0.444456
vt 0.9999 0.555544
vt 0.9999 0.666633
vt 0.9999 0.777722
vt 0.9999 0.888811
vt 0.11727 0.115399
vt 0.120778 0.180369
vt 0.134636 0.309595
vt 0.088728 0.473895
vt 0.085886 0.575352
vt 0.086211 0.65375
vt 0.092207 0.78313
vt 0.106956 0.892282
vt 0.22987 0.102869
vt 0.221803 0.229552
vt 0.233521 0.288953
vt 0.225541 0.443179
vt 0.221596 0.556167
vt 0.227801 0.661237
vt 0.214896 0.795203
vt 0.22542 0.865181
vt 0.335524 0.082127
vt 0.351143 0.213907
vt 0.311934 0.342467
vt 0.313159 0.422214
vt 0.347791 0.572605
vt 0.301482 0.677733
vt 0.329031 0.783086
vt 0.344903 0.885466
vt 0.476837 0.074882
vt 0.441952 0.218774
vt 0.445749 0.333088
vt 0.416414 0.43099
vt 0.439746 0.552976
vt 0.463203 0.656843
vt 0.444252 0.77653
vt 0.426137 0.866051
vt 0.573419 0.117409
vt 0.581125 0.246686
vt 0.552512 0.326
vt 0.561075 0.459693
vt 0.558356 0.550596
vt 0.530299 0.662189
vt 0.553275 0.760113
vt 0.555478 0.888821
vt 0.694433 0.13996
vt 0.667048 0.221666
vt 0.681985 0.314267
vt 0.698218 0.467249
vt 0.696819 0.535952
vt 0.68253 0.662758
vt 0.642062 0.791726
vt 0.648523 0.877957
vt 0.778029 0.111667
vt 0.809426 0.219523
vt 0.794923 0.307783
vt 0.772028 0.454562
vt 0.796846 0.533374
vt 0.807262 0.663157
vt 0.778581 0.821037
vt 0.775122 0.858219
vt 0.890224 0.104741
vt 0.865679 0.23076
vt 0.887326 0.334104
vt 0.881307 0.429754
vt 0.887973 0.53063
vt 0.918106 0.681428
vt 0.915043 0.778027
vt 0.904815 0.89094
vn -0.000784668 0.000119086 1
vn -0.000324298 0.000444254 1
vn 2.2713e-05 0.000471962 1
vn 0.000350339 0.000216332 1
vn -0.000246878 0.000203039 1
vn 0.000366676 -0.000165794 1
vn -7.4931e-05 -0.000338515 1
vn 3.56045e-05 8.67754e-05 1
vn 0.000251895 -9.46818e-06 1
vn -0.0002835 2.58531e-05 1
vn -0.00037935 0.000707 1
vn -6.15352e-05 0.00146176 0.999999
vn 0.000267432 -0.000189099 1
vn -2.11093e-05 -9.79402e-05 1
vn 0.000165397 -0.000883886 1
vn -0.000142178 -0.000444976 1
vn -0.000198678 -4.64293e-06 1
vn 0.000301269 -0.000464751 1
vn 8.91965e-05 -0.000382466 1
vn -0.000326226 -0.000260037 1
vn 0.000848577 0.00033636 1
vn 0.00104336 -0.000552763 0.999999
vn 0.000101978 -0.000153391 1
vn 0.000931859 0.000392648 0.999999
vn 0.000590876 -0.000228716 1
vn 0.00050081 -0.00021484 1
vn 0.000137515 -4.43375e-05 1
vn -0.000538574 0.000244337 1
vn -0.0013427 0.000407768 0.999999
vn 2.24409e-05 9.63256e-05 1
vn 0.000120223 7.03319e-05 1
vn -0.000109219 -0.00016768 1
vn 6.98434e-05 0.000138003 1
vn 0.000360509 0.0002871 1
vn 0.000381852 -0.000126323 1
vn 0.000108092 5.87654e-06 1
vn -3.62613e-05 0.000340945 1
vn -8.81723e-05 0.000368647 1
vn -2.07057e-05 -4.60239e-05 1
vn 0.000321677 -1.42221e-05 1
vn 0.000169377 4.1641e-05 1
vn -0.000277494 -0.000266458 1
vn 0.000327315 -0.000112109 1
vn 0.000184404 4.87997e-05 1
vn 0.000224116 0.000161224 1
vn -1.32021e-07 0.000135069 1
vn -8.63637e-05 -0.000169363 1
vn -0.000143085 -0.000125503 1
vn -0.000171779 0.000141281 1
vn -4.28028e-05 -5.32635e-05 1
vn 8.14607e-05 0.000119267 1
vn 0.000178065 -9.89618e-06 1
vn 3.67067e-05 -7.26527e-06 1
vn 4.87418e-05 -3.43702e-05 1
vn 8.22401e-05 -0.000180434 1
vn 0.000141444 -0.000108509 1
vn 0.000178809 -4.18771e-05 1
vn -6.95461e-05 0.000142271 1
vn -5.11456e-05 0.000204055 1
vn 1.62774e-05 -0.00012513 1
vn 0.000216482 9.74982e-05 1
vn -0.000199141 -0.00011148 1
vn -0.000180294 9.32715e-05 1
vn 0.000245034 1.80287e-06 1
vn 0.000101116 -0.000188811 1
vn 8.53364e-05 -4.66828e-05 1
vn -9.73091e-05 4.39454e-05 1
vn -0.000271723 0.00016856 1
vn 3.68034e-05 -0.00024021 1
vn 9.52103e-05 -0.000260087 1
vn -3.24224e-05 0.00016686 1
vn -0.000145129 0.000147547 1
vn 6.52333e-06 -0.000125441 1
vn 6.78449e-05 -4.67675e-05 1
vn -6.14893e-05 -0.000159722 1
vn -4.92755e-05 5.15171e-05 1
vn -0.000193389 -0.000198964 1
vn 7.67558e-05 -8.7133e-05 1
vn 0.000265301 -2.73419e-05 1
vn 0.000102628 0.00022674 1
vn 9.41347e-05 0.000234469 1
vn 6.09186e-05 -0.000102281 1
vn 0.000144724 9.76609e-05 1
vn -1.82694e-05 -0.00030718 1
vn -0.000154341 2.20504e-05 1
vn -0.000173836 -3.31175e-05 1
vn -0.000267115 0.000262545 1
vn 0.000380967 8.82338e-05 1
vn -9.73742e-05 -3.32612e-05 1
vn -0.000128923 -3.72122e-06 1
vn 1.4467e-05 -0.000567753 1
vn -0.000149768 -0.000866201 1
vn -0.000224539 0.000324816 1
vn -3.90077e-05 -6.32967e-05 1
vn -0.00012279 0.000167912 1
vn -0.000192752 8.77393e-05 1
vn -0.000246671 -0.000110795 1
vn 0.000132348 0.000141231 1
vn 8.23548e-05 -0.000113706 1
vn 0.000237179 -0.000236755 1
f 100/100/100 4/4/4 13/13/13
f 44/44/44 3/3/3 21/21/21
f 44/44/44 19/19/19 20/20/20
f 60/60/60 19/19/19 52/52/52
f 60/60/60 17/17/17 18/18/18
f 76/76/76 17/17/17 68/68/68
f 84/84/84 16/16/16 76/76/76
f 84/84/84 14/14/14 15/15/15
f 100/100/100 14/14/14 92/92/92
f 11/11/11 93/93/93 85/85/85
f 93/93/93 86/86/86 85/85/85
f 94/94/94 87/87/87 86/86/86
f 87/87/87 96/96/96 88/88/88
f 96/96/96 89/89/89 88/88/88
f 97/97/97 90/90/90 89/89/89
f 90/90/90 99/99/99 91/91/91
f 91/91/91 100/100/100 92/92/92
f 10/10/10 85/85/85 77/77/77
f 77/77/77 86/86/86 78/78/78
f 78/78/78 87/87/87 79/79/79
f 79/79/79 88/88/88 80/80/80
f 88/88/88 81/81/81 80/80/80
f 81/81/81 90/90/90 82/82/82
f 82/82/82 91/91/91 83/83/83
f 91/91/91 84/84/84 83/83/83
f 10/10/10 69/69/69 9/9/9
f 69/69/69 78/78/78 70/70/70
f 70/70/70 79/79/79 71/71/71
f 79/79/79 72/72/72 71/71/71
f 72/72/72 81/81/81 73/73/73
f 73/73/73 82/82/82 74/74/74
f 82/82/82 75/75/75 74/74/74
f 83/83/83 76/76/76 75/75/75
f 9/9/9 61/61/61 8/8/8
f 69/69/69 62/62/62 61/61/61
f 62/62/62 71/71/71 63/63/63
f 63/63/63 72/72/72 64/64/64
f 72/72/72 65/65/65 64/64/64
f 65/65/65 74/74/74 66/66/66
f 66/66/66 75/75/75 67/67/67
f 67/67/67 76/76/76 68/68/68
f 8/8/8 53/53/53 7/7/7
f 53/53/53 62/62/62 54/54/54
f 54/54/54 63/63/63 55/55/55
f 55/55/55 64/64/64 56/56/56
f 64/64/64 57/57/57 56/56/56
f 57/57/57 66/66/66 58/58/58
f 58/58/58 67/67/67 59/59/59
f 59/59/59 68/68/68 60/60/60
f 6/6/6 53/53/53 45/45/45
f 45/45/45 54/54/54 46/46/46
f 54/54/54 47/47/47 46/46/46
f 55/55/55 48/48/48 47/47/47
f 56/56/56 49/49/49 48/48/48
f 49/49/49 58/58/58 50/50/50
f 58/58/58 51/51/51 50/50/50
f 59/59/59 52/52/52 51/51/51
f 6/6/6 37/37/37 5/5/5
f 45/45/45 38/38/38 37/37/37
f 46/46/46 39/39/39 38/38/38
f 39/39/39 48/48/48 40/40/40
f 40/40/40 49/49/49 41/41/41
f 41/41/41 50/50/50 42/42/42
f 50/50/50 43/43/43 42/42/42
f 51/51/51 44/44/44 43/43/43
f 5/5/5 28/28/28 1/1/1
f 28/28/28 38/38/38 27/27/27
f 27/27/27 39/39/39 26/26/26
f 26/26/26 40/40/40 25/25/25
f 40/40/40 24/24/24 25/25/25
f 41/41/41 23/23/23 24/24/24
f 23/23/23 43/43/43 22/22/22
f 43/43/43 21/21/21 22/22/22
f 2/2/2 93/93/93 12/12/12
f 93/93/93 30/30/30 94/94/94
f 30/30/30 95/95/95 94/94/94
f 31/31/31 96/96/96 95/95/95
f 32/32/32 97/97/97 96/96/96
f 33/33/33 98/98/98 97/97/97
f 98/98/98 35/35/35 99/99/99
f 99/99/99 36/36/36 100/100/100
f 100/100/100 36/36/36 4/4/4
f 44/44/44 20/20/20 3/3/3
f 44/44/44 52/52/52 19/19/19
f 60/60/60 18/18/18 19/19/19
f 60/60/60 68/68/68 17/17/17
f 76/76/76 16/16/16 17/17/17
f 84/84/84 15/15/15 16/16/16
f 84/84/84 92/92/92 14/14/14
f 100/100/100 13/13/13 14/14/14
f 11/11/11 12/12/12 93/93/93
f 93/93/93 94/94/94 86/86/86
f 94/94/94 95/95/95 87/87/87
f 87/87/87 95/95/95 96/96/96
f 96/96/96 97/97/97 89/89/89
f 97/97/97 98/98/98 90/90/90
f 90/90/90 98/98/98 99/99/99
f 91/91/91 99/99/99 100/100/100
f 10/10/10 11/11/11 85/85/85
f 77/77/77 85/85/85 86/86/86
f 78/78/78 86/86/86 87/87/87
f 79/79/79 87/87/87 88/88/88
f 88/88/88 89/89/89 81/81/81
f 81/81/81 89/89/89 90/90/90
f 82/82/82 90/90/90 91/91/91
f 91/91/91 92/92/92 84/84/84
f 10/10/10 77/77/77 69/69/69
f 69/69/69 77/77/77 78/78/78
f 70/70/70 78/78/78 79/79/79
f 79/79/79 80/80/80 72/72/72
f 72/72/72 80/80/80 81/81/81
f 73/73/73 81/81/81 82/82/82
f 82/82/82 83/83/83 75/75/75
f 83/83/83 84/84/84 76/76/76
f 9/9/9 69/69/69 61/61/61
f 69/69/69 70/70/70 62/62/62
f 62/62/62 70/70/70 71/71/71
f 63/63/63 71/71/71 72/72/72
f 72/72/72 73/73/73 65/65/65
f 65/65/65 73/73/73 74/74/74
f 66/66/66 74/74/74 75/75/75
f 67/67/67 75/75/75 76/76/76
f 8/8/8 61/61/61 53/53/53
f 53/53/53 61/61/61 62/62/62
f 54/54/54 62/62/62 63/63/63
f 55/55/55 63/63/63 64/64/64
f 64/64/64 65/65/65 57/57/57
f 57/57/57 65/65/65 66/66/66
f 58/58/58 66/66/66 67/67/67
f 59/59/59 67/67/67 68/68/68
f 6/6/6 7/7/7 53/53/53
f 45/45/45 53/53/53 54/54/54
f 54/54/54 55/55/55 47/47/47
f 55/55/55 56/56/56 48/48/48
f 56/56/56 57/57/57 49/49/49
f 49/49/49 57/57/57 58/58/58
f 58/58/58 59/59/59 51/51/51
f 59/59/59 60/60/60 52/52/52
f 6/6/6 45/45/45 37/37/37
f 45/45/45 46/46/46 38/38/38
f 46/46/46 47/47/47 39/39/39
f 39/39/39 47/47/47 48/48/48
f 40/40/40 48/48/48 49/49/49
f 41/41/41 49/49/49 50/50/50
f 50/50/50 51/51/51 43/43/43
f 51/51/51 52/52/52 44/44/44
f 5/5/5 37/37/37 28/28/28
f 28/28/28 37/37/37 38/38/38
f 27/27/27 38/38/38 39/39/39
f 26/26/26 39/39/39 40/40/40
f 40/40/40 41/41/41 24/24/24
f 41/41/41 42/42/42 23/23/23
f 23/23/23 42/42/42 43/43/43
f 43/43/43 44/44/44 21/21/21
f 2/2/2 29/29/29 93/93/93
f 93/93/93 29/29/29 30/30/30
f 30/30/30 31/31/31 95/95/95
f 31/31/31 32/32/32 96/96/96
f 32/32/32 33/33/33 97/97/97
f 33/33/33 34/34/34 98/98/98
f 98/98/98 34/34/34 35/35/35
f 99/99/99 35/35/35 36/36/36
