o GNATVCloth
v -5.00419 -5.008 0.162338
v 5.14146 -5.00903 0.153473
v -5.01298 5.02105 0.004229
v 4.98702 5.02105 0.004229
v -3.88626 -5.05069 0.124634
v -2.76319 -5.09336 0.0925257
v -1.63289 -5.12611 0.110812
v -0.500323 -5.15333 0.105693
v 0.635906 -5.1589 0.0421359
v 1.76888 -5.14502 0.0752326
v 2.89921 -5.10929 0.110657
v 4.02289 -5.05478 0.149107
v 3.85773 4.92485 0.11731
v 2.73918 4.83353 0.0945257
v 1.67508 4.78687 0.131976
v 0.608347 4.75455 0.105897
v -0.472629 4.77748 0.0772313
v -1.59238 4.83302 0.148578
v -2.72168 4.8999 0.0995023
v -3.86141 4.95249 0.0764538
v -4.97684 3.90442 0.0312923
v -4.96674 2.78803 0.0723506
v -4.96284 1.67204 0.111206
v -4.96064 0.555955 0.122916
v -4.96051 -0.559265 0.126267
v -4.96007 -1.67311 0.127405
v -4.96611 -2.78515 0.119796
v -4.97916 -3.89761 0.110091
v 5.11421 -3.89852 0.142578
v 5.10539 -2.78746 0.0893233
v 5.09383 -1.67432 0.106
v 5.08077 -0.559884 0.112943
v 5.06676 0.555278 0.121645
v 5.05364 1.67181 0.11391
v 5.03692 2.78836 0.086531
v 5.01312 3.90473 0.0472052
v -3.80338 -3.90391 0.0972574
v -3.76215 -3.25418 0.0804436
v -3.61776 -1.96825 0.0582408
v -4.07445 -0.302858 0.0662321
v -4.10325 0.714595 0.074173
v -4.10026 1.5 0.0881506
v -4.04501 2.7951 0.0693993
v -3.89928 3.87988 0.0479643
v -2.66905 -4.07396 0.0861623
v -2.7421 -2.80563 0.0864689
v -2.62269 -2.21793 0.0783359
v -2.7013 -0.670772 0.0834235
v -2.74196 0.460056 0.0734422
v -2.67947 1.5092 0.0757827
v -2.81089 2.85606 0.0753762
v -2.70389 3.54995 0.0848863
v -1.60254 -4.32567 0.0613734
v -1.43782 -3.01517 0.0539756
v -1.83184 -1.7161 0.104911
v -1.82004 -0.918394 0.103286
v -1.47459 0.574367 0.0735523
v -1.94036 1.64101 0.0711693
v -1.66249 2.68484 0.074877
v -1.49755 3.69705 0.072827
v -0.168155 -4.43246 0.0779751
v -0.520162 -2.99257 0.0632239
v -0.481536 -1.84883 0.0753872
v -0.780652 -0.865272 0.0736109
v -0.549667 0.348367 0.0757171
v -0.317818 1.37795 0.0788023
v -0.507941 2.57597 0.0735307
v -0.681769 3.47132 0.0839015
v 0.81176 -4.00948 0.0626703
v 0.886454 -2.71675 0.0921498
v 0.596096 -1.93274 0.0933025
v 0.677851 -0.59614 0.0538522
v 0.645602 0.311222 0.0808738
v 0.355815 1.4163 0.0867118
v 0.584269 2.39295 0.0821071
v 0.606022 3.65156 0.0773792
v 2.03565 -3.74579 0.0959555
v 1.75556 -2.93921 0.0773044
v 1.90292 -2.00883 0.0685946
v 2.056 -0.474407 0.096601
v 2.03763 0.210364 0.0683739
v 1.882 1.46408 0.0542327
v 1.47357 2.73028 0.0892799
v 1.52346 3.56594 0.0693873
v 2.88375 -3.99362 0.0849119
v 3.19233 -2.90447 0.090568
v 3.04245 -2.02707 0.0616364
v 2.7983 -0.570068 0.0777695
v 3.03971 0.22977 0.0881894
v 3.12853 1.53154 0.0615373
v 2.81347 3.08843 0.0718258
v 2.76674 3.45324 0.106318
v 4.01702 -4.01263 0.0575711
v 3.75799 -2.76502 0.101225
v 3.96654 -1.72135 0.0946434
v 3.89707 -0.76699 0.0610689
v 3.95192 0.245921 0.0802916
v 4.23533 1.77222 0.074927
v 4.18842 2.73684 0.0714376
v 4.05954 3.86005 0.0586917
vt 0.0001 0.0001
vt 0.9999 0.0001
vt 0.0001 0.9999
vt 0.9999 0.9999
vt 0.111189 0.0001
vt 0.222278 0.0001
vt 0.333367 0.0001
vt 0.444455 0.0001
vt 0.555544 0.0001
vt 0.666633 0.0001
vt 0.777722 0.0001
vt 0.888811 0.0001
vt 0.888811 0.9999
vt 0.777722 0.9999
vt 0.666633 0.9999
vt 0.555544 0.9999
vt 0.444455 0.9999
vt 0.333367 0.9999
vt 0.222278 0.9999
vt 0.111189 0.9999
vt 0.0001 0.888811
vt 0.0001 0.777722
vt 0.0001 0.666633
vt 0.0001 0.555544
vt 0.0001 0.444456
vt 0.0001 0.333367
vt 0.0001 0.222278
vt 0.0001 0.111189
vt 0.9999 0.111189
vt 0.9999 0.222278
vt 0.9999 0.333367
vt 0.9999 0.444456
vt 0.9999 0.555544
vt 0.9999 0.666633
vt 0.9999 0.777722
vt 0.9999 0.888811
vt 0.11727 0.115399
vt 0.120778 0.180369
vt 0.134636 0.309595
vt 0.088728 0.473895
vt 0.085886 0.575352
vt 0.086211 0.65375
vt 0.092207 0.78313
vt 0.106956 0.892282
vt 0.22987 0.102869
vt 0.221803 0.229552
vt 0.233521 0.288953
vt 0.225541 0.443179
vt 0.221596 0.556167
vt 0.227801 0.661237
vt 0.214896 0.795203
vt 0.22542 0.865181
vt 0.335524 0.082127
vt 0.351143 0.213907
vt 0.311934 0.342467
vt 0.313159 0.422214
vt 0.347791 0.572605
vt 0.301482 0.677733
vt 0.329031 0.783086
vt 0.344903 0.885466
vt 0.476837 0.074882
vt 0.441952 0.218774
vt 0.445749 0.333088
vt 0.416414 0.43099
vt 0.439746 0.552976
vt 0.463203 0.656843
vt 0.444252 0.77653
vt 0.426137 0.866051
vt 0.573419 0.117409
vt 0.581125 0.246686
vt 0.552512 0.326
vt 0.561075 0.459693
vt 0.558356 0.550596
vt 0.530299 0.662189
vt 0.553275 0.760113
vt 0.555478 0.888821
vt 0.694433 0.13996
vt 0.667048 0.221666
vt 0.681985 0.314267
vt 0.698218 0.467249
vt 0.696819 0.535952
vt 0.68253 0.662758
vt 0.642062 0.791726
vt 0.648523 0.877957
vt 0.778029 0.111667
vt 0.809426 0.219523
vt 0.794923 0.307783
vt 0.772028 0.454562
vt 0.796846 0.533374
vt 0.807262 0.663157
vt 0.778581 0.821037
vt 0.775122 0.858219
vt 0.890224 0.104741
vt 0.865679 0.23076
vt 0.887326 0.334104
vt 0.881307 0.429754
vt 0.887973 0.53063
vt 0.918106 0.681428
vt 0.915043 0.778027
vt 0.904815 0.89094
vn 0.0354325 0.0461738 0.998305
vn -0.0428214 0.0477261 0.997942
vn -0.0394934 -0.000247514 0.99922
vn 0.0564854 0.00171106 0.998402
vn 0.025291 0.0303279 0.99922
vn 0.0124563 0.0233066 0.999651
vn -0.00417846 0.0618039 0.99808
vn 0.0178369 0.0388021 0.999088
vn 0.0172926 -0.00749284 0.999822
vn -0.0194687 -0.00430374 0.999801
vn -0.0152865 0.04445 0.998895
vn -0.0228819 0.0873459 0.995915
vn 0.0435514 -0.0466848 0.99796
vn 0.00673254 -0.0241596 0.999685
vn 0.00731038 -0.0520995 0.998615
vn -0.0145689 -0.0333318 0.999338
vn 0.00655415 -0.0189692 0.999799
vn 0.00649217 -0.0659951 0.997799
vn -0.0228998 -0.029551 0.999301
vn -0.0427178 -0.0250204 0.998774
vn -0.00899339 0.0274306 0.999583
vn 0.00292546 0.0357924 0.999355
vn 0.0275692 0.0101866 0.999568
vn 0.0598125 0.00247929 0.998207
vn 0.0670161 0.00202569 0.99775
vn 0.0569453 0.00128559 0.998377
vn 0.0389267 -0.00105035 0.999242
vn 0.0216691 0.0213421 0.999537
vn -0.0800564 0.0274707 0.996412
vn -0.0185929 0.000816651 0.999827
vn -0.0211908 0.0041743 0.999767
vn -0.0394148 -0.0105686 0.999167
vn -0.0405655 0.00303088 0.999172
vn -0.0457314 0.0150959 0.99884
vn -0.0275019 0.0204499 0.999413
vn 0.000596056 0.0287184 0.999587
vn 0.0151156 0.0200495 0.999685
vn 0.0119346 0.0120727 0.999856
vn 0.0107164 0.0055026 0.999927
vn 0.0313741 -6.32775e-05 0.999508
vn 0.0239845 -0.0068924 0.999689
vn 0.017486 -0.00209422 0.999845
vn 0.00259345 0.020153 0.999793
vn -0.0269215 -0.000545928 0.999637
vn 0.0152647 0.00626114 0.999864
vn 0.00312185 0.00901279 0.999955
vn -0.00975399 -0.00500891 0.99994
vn -0.0198479 0.000137325 0.999803
vn -0.00383021 0.00376116 0.999986
vn 0.00425154 -0.00131016 0.99999
vn -0.00658548 -0.000715876 0.999978
vn -0.00951006 -0.00871675 0.999917
vn 0.00143092 0.0267306 0.999642
vn 0.0094882 -0.00942719 0.999911
vn 0.00167164 -0.0111871 0.999936
vn 0.00245148 0.00918161 0.999955
vn 0.00257042 0.0054267 0.999982
vn 0.000638004 -0.000424883 1
vn -0.000547237 -0.00464455 0.999989
vn 0.00168705 -0.0218634 0.99976
vn 0.0143221 0.0107085 0.99984
vn -0.0105054 -0.00335292 0.999939
vn 0.00205038 -0.00153484 0.999997
vn 0.0172112 0.00395042 0.999844
vn -0.00211054 -0.0074707 0.99997
vn -0.00714712 0.00200794 0.999972
vn -0.00186887 -0.00246388 0.999995
vn -0.00261305 -0.00129343 0.999996
vn -0.00772855 -0.00928514 0.999927
vn 0.00277136 -0.00834448 0.999961
vn -0.00215694 0.0091529 0.999956
vn -0.00367911 0.00315516 0.999988
vn 0.00564708 -0.0106306 0.999928
vn 0.00282948 0.000153565 0.999996
vn -0.00213064 -0.00143873 0.999997
vn -0.00224045 -0.00380269 0.99999
vn -0.00916164 -0.000429163 0.999958
vn -0.00226403 0.0091777 0.999955
vn 0.00910717 0.000399046 0.999958
vn -0.00268271 0.0116186 0.999929
vn -0.00476103 0.0129252 0.999905
vn 0.00879153 -0.00475333 0.99995
vn 0.00581135 0.000377739 0.999983
vn -0.00413763 -0.0249526 0.99968
vn 0.00705187 0.00189471 0.999973
vn -0.00345482 0.00373171 0.999987
vn -0.0138125 0.0136392 0.999812
vn 0.0109364 -0.00353302 0.999934
vn -0.00206366 -0.000304694 0.999998
vn -0.00734196 0.00665883 0.999951
vn 0.00673184 -0.0265947 0.999624
vn 0.00753839 -0.0419989 0.999089
vn -0.0198937 0.0213901 0.999573
vn -0.0117724 -0.00456082 0.99992
vn -0.0197373 0.0139882 0.999707
vn -0.0151946 -0.00033501 0.999884
vn -0.0186455 -0.00126364 0.999825
vn -0.0292812 0.0088166 0.999532
vn -0.00622411 0.00966644 0.999934
vn 0.0299704 -0.0152742 0.999434
f 100/100/100 4/4/4 13/13/13
f 44/44/44 3/3/3 21/21/21
f 44/44/44 19/19/19 20/20/20
f 60/60/60 19/19/19 52/52/52
f 60/60/60 17/17/17 18/18/18
f 76/76/76 17/17/17 68/68/68
f 84/84/84 16/16/16 76/76/76
f 84/84/84 14/14/14 15/15/15
f 100/100/100 14/14/14 92/92/92
f 11/11/11 93/93/93 85/85/85
f 93/93/93 86/86/86 85/85/85
f 94/94/94 87/87/87 86/86/86
f 87/87/87 96/96/96 88/88/88
f 96/96/96 89/89/89 88/88/88
f 97/97/97 90/90/90 89/89/89
f 90/90/90 99/99/99 91/91/91
f 91/91/91 100/100/100 92/92/92
f 10/10/10 85/85/85 77/77/77
f 77/77/77 86/86/86 78/78/78
f 78/78/78 87/87/87 79/79/79
f 79/79/79 88/88/88 80/80/80
f 88/88/88 81/81/81 80/80/80
f 81/81/81 90/90/90 82/82/82
f 82/82/82 91/91/91 83/83/83
f 91/91/91 84/84/84 83/83/83
f 10/10/10 69/69/69 9/9/9
f 69/69/69 78/78/78 70/70/70
f 70/70/70 79/79/79 71/71/71
f 79/79/79 72/72/72 71/71/71
f 72/72/72 81/81/81 73/73/73
f 73/73/73 82/82/82 74/74/74
f 82/82/82 75/75/75 74/74/74
f 83/83/83 76/76/76 75/75/75
f 9/9/9 61/61/61 8/8/8
f 69/69/69 62/62/62 61/61/61
f 62/62/62 71/71/71 63/63/63
f 63/63/63 72/72/72 64/64/64
f 72/72/72 65/65/65 64/64/64
f 65/65/65 74/74/74 66/66/66
f 66/66/66 75/75/75 67/67/67
f 67/67/67 76/76/76 68/68/68
f 8/8/8 53/53/53 7/7/7
f 53/53/53 62/62/62 54/54/54
f 54/54/54 63/63/63 55/55/55
f 55/55/55 64/64/64 56/56/56
f 64/64/64 57/57/57 56/56/56
f 57/57/57 66/66/66 58/58/58
f 58/58/58 67/67/67 59/59/59
f 59/59/59 68/68/68 60/60/60
f 6/6/6 53/53/53 45/45/45
f 45/45/45 54/54/54 46/46/46
f 54/54/54 47/47/47 46/46/46
f 55/55/55 48/48/48 47/47/47
f 56/56/56 49/49/49 48/48/48
f 49/49/49 58/58/58 50/50/50
f 58/58/58 51/51/51 50/50/50
f 59/59/59 52/52/52 51/51/51
f 6/6/6 37/37/37 5/5/5
f 45/45/45 38/38/38 37/37/37
f 46/46/46 39/39/39 38/38/38
f 39/39/39 48/48/48 40/40/40
f 40/40/40 49/49/49 41/41/41
f 41/41/41 50/50/50 42/42/42
f 50/50/50 43/43/43 42/42/42
f 51/51/51 44/44/44 43/43/43
f 5/5/5 28/28/28 1/1/1
f 28/28/28 38/38/38 27/27/27
f 27/27/27 39/39/39 26/26/26
f 26/26/26 40/40/40 25/25/25
f 40/40/40 24/24/24 25/25/25
f 41/41/41 23/23/23 24/24/24
f 23/23/23 43/43/43 22/22/22
f 43/43/43 21/21/21 22/22/22
f 2/2/2 93/93/93 12/12/12
f 93/93/93 30/30/30 94/94/94
f 30/30/30 95/95/95 94/94/94
f 31/31/31 96/96/96 95/95/95
f 32/32/32 97/97/97 96/96/96
f 33/33/33 98/98/98 97/97/97
f 98/98/98 35/35/35 99/99/99
f 99/99/99 36/36/36 100/100/100
f 100/100/100 36/36/36 4/4/4
f 44/44/44 20/20/20 3/3/3
f 44/44/44 52/52/52 19/19/19
f 60/60/60 18/18/18 19/19/19
f 60/60/60 68/68/68 17/17/17
f 76/76/76 16/16/16 17/17/17
f 84/84/84 15/15/15 16/16/16
f 84/84/84 92/92/92 14/14/14
f 100/100/100 13/13/13 14/14/14
f 11/11/11 12/12/12 93/93/93
f 93/93/93 94/94/94 86/86/86
f 94/94/94 95/95/95 87/87/87
f 87/87/87 95/95/95 96/96/96
f 96/96/96 97/97/97 89/89/89
f 97/97/97 98/98/98 90/90/90
f 90/90/90 98/98/98 99/99/99
f 91/91/91 99/99/99 100/100/100
f 10/10/10 11/11/11 85/85/85
f 77/77/77 85/85/85 86/86/86
f 78/78/78 86/86/86 87/87/87
f 79/79/79 87/87/87 88/88/88
f 88/88/88 89/89/89 81/81/81
f 81/81/81 89/89/89 90/90/90
f 82/82/82 90/90/90 91/91/91
f 91/91/91 92/92/92 84/84/84
f 10/10/10 77/77/77 69/69/69
f 69/69/69 77/77/77 78/78/78
f 70/70/70 78/78/78 79/79/79
f 79/79/79 80/80/80 72/72/72
f 72/72/72 80/80/80 81/81/81
f 73/73/73 81/81/81 82/82/82
f 82/82/82 83/83/83 75/75/75
f 83/83/83 84/84/84 76/76/76
f 9/9/9 69/69/69 61/61/61
f 69/69/69 70/70/70 62/62/62
f 62/62/62 70/70/70 71/71/71
f 63/63/63 71/71/71 72/72/72
f 72/72/72 73/73/73 65/65/65
f 65/65/65 73/73/73 74/74/74
f 66/66/66 74/74/74 75/75/75
f 67/67/67 75/75/75 76/76/76
f 8/8/8 61/61/61 53/53/53
f 53/53/53 61/61/61 62/62/62
f 54/54/54 62/62/62 63/63/63
f 55/55/55 63/63/63 64/64/64
f 64/64/64 65/65/65 57/57/57
f 57/57/57 65/65/65 66/66/66
f 58/58/58 66/66/66 67/67/67
f 59/59/59 67/67/67 68/68/68
f 6/6/6 7/7/7 53/53/53
f 45/45/45 53/53/53 54/54/54
f 54/54/54 55/55/55 47/47/47
f 55/55/55 56/56/56 48/48/48
f 56/56/56 57/57/57 49/49/49
f 49/49/49 57/57/57 58/58/58
f 58/58/58 59/59/59 51/51/51
f 59/59/59 60/60/60 52/52/52
f 6/6/6 45/45/45 37/37/37
f 45/45/45 46/46/46 38/38/38
f 46/46/46 47/47/47 39/39/39
f 39/39/39 47/47/47 48/48/48
f 40/40/40 48/48/48 49/49/49
f 41/41/41 49/49/49 50/50/50
f 50/50/50 51/51/51 43/43/43
f 51/51/51 52/52/52 44/44/44
f 5/5/5 37/37/37 28/28/28
f 28/28/28 37/37/37 38/38/38
f 27/27/27 38/38/38 39/39/39
f 26/26/26 39/39/39 40/40/40
f 40/40/40 41/41/41 24/24/24
f 41/41/41 42/42/42 23/23/23
f 23/23/23 42/42/42 43/43/43
f 43/43/43 44/44/44 21/21/21
f 2/2/2 29/29/29 93/93/93
f 93/93/93 29/29/29 30/30/30
f 30/30/30 31/31/31 95/95/95
f 31/31/31 32/32/32 96/96/96
f 32/32/32 33/33/33 97/97/97
f 33/33/33 34/34/34 98/98/98
f 98/98/98 34/34/34 35/35/35
f 99/99/99 35/35/35 36/36/36
