o GNATVCloth
v -4.96048 -4.97128 0.426612
v 5.03879 -4.99243 0.446234
v -5.01298 5.02105 0.004229
v 4.98702 5.02105 0.004229
v -3.8572 -4.99792 0.392921
v -2.74476 -5.02341 0.36421
v -1.63302 -5.02001 0.269685
v -0.519832 -5.02619 0.265077
v 0.595571 -5.03634 0.275869
v 1.71103 -5.04043 0.313236
v 2.82528 -5.02659 0.269875
v 3.93779 -5.00943 0.316479
v 3.86581 4.96043 0.132939
v 2.75167 4.91108 0.257802
v 1.65087 4.88556 0.40496
v 0.541955 4.87635 0.365847
v -0.564264 4.8755 0.306947
v -1.65569 4.88436 0.199994
v -2.772 4.90985 0.199117
v -3.88429 4.95448 0.0698636
v -4.98889 3.90775 0.0675017
v -4.97624 2.7931 0.086662
v -4.97079 1.67917 0.108446
v -4.96588 0.56537 0.13624
v -4.96013 -0.545824 0.203785
v -4.95955 -1.65771 0.263547
v -4.95267 -2.76683 0.387222
v -4.95164 -3.87303 0.476154
v 5.036 -3.88362 0.374148
v 5.0368 -2.76915 0.338246
v 5.03331 -1.66039 0.244901
v 5.02955 -0.550214 0.161277
v 5.02305 0.562194 0.11177
v 5.01166 1.67664 0.0874696
v 5.00398 2.79143 0.0666348
v 4.99033 3.90619 0.0381209
v -3.78471 -3.85471 0.360618
v -3.74836 -3.20751 0.341946
v -3.61774 -1.9262 0.17222
v -4.07578 -0.272745 0.132539
v -4.10872 0.744192 0.163165
v -4.10748 1.53007 0.143792
v -4.05458 2.82514 0.140146
v -3.92356 3.89038 -0.0925868
v -2.66878 -4.00536 0.281208
v -2.74517 -2.73861 0.201171
v -2.62951 -2.1489 0.228284
v -2.71741 -0.608033 0.316835
v -2.75808 0.524581 0.31987
v -2.68877 1.57022 0.231391
v -2.82839 2.89124 -0.0144245
v -2.75884 3.57221 0.16217
v -1.6106 -4.22364 0.2889
v -1.45698 -2.9134 0.271166
v -1.85208 -1.62981 0.357233
v -1.83973 -0.832978 0.333195
v -1.49985 0.653448 0.177061
v -1.96499 1.70083 0.0577572
v -1.71691 2.73303 0.275252
v -1.55636 3.74563 0.239636
v -0.193749 -4.29958 0.280748
v -0.548718 -2.87699 0.290403
v -0.512039 -1.73824 0.304671
v -0.807219 -0.759909 0.2583
v -0.57886 0.453521 0.233978
v -0.354275 1.48323 0.278482
v -0.556771 2.66367 0.348454
v -0.742754 3.54857 0.274659
v 0.773141 -3.87967 0.296833
v 0.843883 -2.5954 0.231799
v 0.556449 -1.81261 0.266678
v 0.64084 -0.482298 0.268583
v 0.608497 0.425537 0.270952
v 0.318873 1.53766 0.277121
v 0.540388 2.50235 0.289344
v 0.550673 3.78559 0.279841
v 1.9834 -3.63985 0.261703
v 1.70654 -2.82716 0.24593
v 1.85383 -1.91725 0.296025
v 2.0146 -0.386437 0.259426
v 1.99724 0.2956 0.256705
v 1.84379 1.55528 0.21632
v 1.42852 2.83311 0.302177
v 1.4839 3.67874 0.256353
v 2.81946 -3.91342 0.27816
v 3.12995 -2.8321 0.319058
v 2.98614 -1.95945 0.270541
v 2.75355 -0.500273 0.312064
v 2.99881 0.292879 0.283523
v 3.09321 1.59093 0.199278
v 2.79623 3.16065 0.234987
v 2.75525 3.52642 0.205615
v 3.94337 -3.9681 0.318132
v 3.69277 -2.71269 0.35401
v 3.90863 -1.67673 0.301602
v 3.84691 -0.72541 0.244772
v 3.90963 0.285783 0.225003
v 4.19834 1.80026 0.150221
v 4.15538 2.76273 0.0697075
v 4.03747 3.88682 -0.00855386
vt 0.0001 0.0001
vt 0.9999 0.0001
vt 0.0001 0.9999
vt 0.9999 0.9999
vt 0.111189 0.0001
vt 0.222278 0.0001
vt 0.333367 0.0001
vt 0.444455 0.0001
vt 0.555544 0.0001
vt 0.666633 0.0001
vt 0.777722 0.0001
vt 0.888811 0.0001
vt 0.888811 0.9999
vt 0.777722 0.9999
vt 0.666633 0.9999
vt 0.555544 0.9999
vt 0.444455 0.9999
vt 0.333367 0.9999
vt 0.222278 0.9999
vt 0.111189 0.9999
vt 0.0001 0.888811
vt 0.0001 0.777722
vt 0.0001 0.666633
vt 0.0001 0.555544
vt 0.0001 0.444456
vt 0.0001 0.333367
vt 0.0001 0.222278
vt 0.0001 0.111189
vt 0.9999 0.111189
vt 0.9999 0.222278
vt 0.9999 0.333367
vt 0.9999 0.444456
vt 0.9999 0.555544
vt 0.9999 0.666633
vt 0.9999 0.777722
vt 0.9999 0.888811
vt 0.11727 0.115399
vt 0.120778 0.180369
vt 0.134636 0.309595
vt 0.088728 0.473895
vt 0.085886 0.575352
vt 0.086211 0.65375
vt 0.092207 0.78313
vt 0.106956 0.892282
vt 0.22987 0.102869
vt 0.221803 0.229552
vt 0.233521 0.288953
vt 0.225541 0.443179
vt 0.221596 0.556167
vt 0.227801 0.661237
vt 0.214896 0.795203
vt 0.22542 0.865181
vt 0.335524 0.082127
vt 0.351143 0.213907
vt 0.311934 0.342467
vt 0.313159 0.422214
vt 0.347791 0.572605
vt 0.301482 0.677733
vt 0.329031 0.783086
vt 0.344903 0.885466
vt 0.476837 0.074882
vt 0.441952 0.218774
vt 0.445749 0.333088
vt 0.416414 0.43099
vt 0.439746 0.552976
vt 0.463203 0.656843
vt 0.444252 0.77653
vt 0.426137 0.866051
vt 0.573419 0.117409
vt 0.581125 0.246686
vt 0.552512 0.326
vt 0.561075 0.459693
vt 0.558356 0.550596
vt 0.530299 0.662189
vt 0.553275 0.760113
vt 0.555478 0.888821
vt 0.694433 0.13996
vt 0.667048 0.221666
vt 0.681985 0.314267
vt 0.698218 0.467249
vt 0.696819 0.535952
vt 0.68253 0.662758
vt 0.642062 0.791726
vt 0.648523 0.877957
vt 0.778029 0.111667
vt 0.809426 0.219523
vt 0.794923 0.307783
vt 0.772028 0.454562
vt 0.796846 0.533374
vt 0.807262 0.663157
vt 0.778581 0.821037
vt 0.775122 0.858219
vt 0.890224 0.104741
vt 0.865679 0.23076
vt 0.887326 0.334104
vt 0.881307 0.429754
vt 0.887973 0.53063
vt 0.918106 0.681428
vt 0.915043 0.778027
vt 0.904815 0.89094
vn 0.0293993 -0.0452813 0.998542
vn -0.0866389 0.0318734 0.99573
vn 0.0420564 -0.0449428 0.998104
vn 0.0350863 -0.0406273 0.998558
vn 0.0513763 0.00105711 0.998679
vn 0.0504231 0.0389834 0.997967
vn 0.0444229 -0.0253468 0.998691
vn -0.000445901 -0.0216538 0.999765
vn -0.0175825 -0.0156002 0.999724
vn 0.00521768 0.0125922 0.999907
vn -0.0129324 -0.0054109 0.999902
vn -0.0794873 -0.00115744 0.996835
vn 0.11741 -0.111282 0.986829
vn 0.115256 -0.081486 0.989988
vn 0.05036 -0.12892 0.990375
vn -0.0236371 -0.0916844 0.995508
vn -0.0493385 -0.0238032 0.998498
vn -0.0486948 0.0305072 0.998348
vn -0.100891 -0.0422229 0.994001
vn -0.0930734 -0.146903 0.984762
vn 0.0805116 0.0904905 0.992638
vn -0.0585427 0.0178631 0.998125
vn -0.042982 0.018286 0.998909
vn -8.60241e-06 0.0182789 0.999833
vn 0.0625979 0.057236 0.996396
vn 0.0767472 0.0699362 0.994595
vn 0.0794487 0.104552 0.991341
vn 0.0731945 0.0199818 0.997118
vn -0.0548722 0.0484178 0.997319
vn 0.0049154 0.0343893 0.999396
vn 0.0524825 0.0739615 0.995879
vn 0.0724821 0.0451034 0.996349
vn 0.0879381 0.032896 0.995583
vn 0.0800618 0.020863 0.996572
vn 0.0278142 0.0427722 0.998698
vn -0.0323103 0.0399979 0.998677
vn 0.075605 0.0342652 0.996549
vn 0.0849869 0.0737809 0.993647
vn 0.00828361 0.0420664 0.99908
vn -0.0312581 0.010479 0.999456
vn -0.0636429 0.0166835 0.997833
vn -0.0502213 0.0147928 0.998629
vn 0.0222313 0.0909326 0.995609
vn -0.0383902 -0.0128509 0.99918
vn 0.0368978 0.0540198 0.997858
vn 0.00389027 0.0370627 0.999305
vn -0.0829194 -0.0579774 0.994868
vn -0.0829111 -0.0200626 0.996355
vn 0.00644102 0.0502552 0.998716
vn 0.0512149 0.0979102 0.993877
vn -0.0675608 0.00405291 0.997707
vn -0.180271 -0.0894623 0.97954
vn 0.0117144 0.00443978 0.999922
vn -0.0310104 -0.0156166 0.999397
vn -0.013913 -0.0162861 0.999771
vn 0.0420693 0.0451935 0.998092
vn 0.00248634 0.0640452 0.997944
vn -0.0152566 0.0100336 0.999833
vn -0.13141 -0.0646247 0.989219
vn -0.0515288 0.0169364 0.998528
vn -0.00432352 -0.0145402 0.999885
vn 0.00926554 -0.000424304 0.999957
vn 0.0187667 0.00297999 0.999819
vn 0.0164112 0.0457568 0.998818
vn -0.0318976 -0.00627571 0.999471
vn -0.0480608 -0.0275909 0.998463
vn -0.03281 -0.0279614 0.99907
vn -0.0314747 0.029638 0.999065
vn 0.00290382 0.0171236 0.999849
vn 0.00403 -0.00642164 0.999971
vn 0.0135643 -0.0197595 0.999713
vn -0.00296708 0.0103532 0.999942
vn 0.000115481 0.00375867 0.999993
vn 0.0114323 -0.0177201 0.999778
vn 0.0227452 -0.0226731 0.999484
vn 0.00196914 -0.00515319 0.999985
vn -0.00832657 0.0141076 0.999866
vn -0.0152012 0.00312615 0.99988
vn -0.0141302 -0.0191007 0.999718
vn -0.0314261 0.0151396 0.999391
vn -0.0116321 0.0260421 0.999593
vn 0.0271483 -0.0116118 0.999564
vn 0.0240803 -2.01032e-05 0.99971
vn 0.0386782 -0.0263614 0.998904
vn -0.0140605 -0.00666053 0.999879
vn -0.0489196 -0.000529987 0.998803
vn -0.0180499 0.0151515 0.999722
vn -0.00332554 0.00814982 0.999961
vn 0.0280819 0.0404929 0.998785
vn 0.0357838 0.038256 0.998627
vn 0.0808467 0.0355858 0.996091
vn 0.0998846 0.0265902 0.994644
vn -0.0480988 -0.000749294 0.998842
vn -0.0306099 0.0174279 0.999379
vn 0.00176982 0.0624621 0.998046
vn 0.0446585 0.031705 0.998499
vn 0.0694619 0.0348894 0.996974
vn 0.0531867 0.0472788 0.997465
vn 0.0412603 0.0571306 0.997514
vn 0.0852303 0.00195256 0.996359
f 100/100/100 4/4/4 13/13/13
f 44/44/44 3/3/3 21/21/21
f 44/44/44 19/19/19 20/20/20
f 60/60/60 19/19/19 52/52/52
f 60/60/60 17/17/17 18/18/18
f 76/76/76 17/17/17 68/68/68
f 84/84/84 16/16/16 76/76/76
f 84/84/84 14/14/14 15/15/15
f 100/100/100 14/14/14 92/92/92
f 11/11/11 93/93/93 85/85/85
f 93/93/93 86/86/86 85/85/85
f 94/94/94 87/87/87 86/86/86
f 87/87/87 96/96/96 88/88/88
f 96/96/96 89/89/89 88/88/88
f 97/97/97 90/90/90 89/89/89
f 90/90/90 99/99/99 91/91/91
f 91/91/91 100/100/100 92/92/92
f 10/10/10 85/85/85 77/77/77
f 77/77/77 86/86/86 78/78/78
f 78/78/78 87/87/87 79/79/79
f 79/79/79 88/88/88 80/80/80
f 88/88/88 81/81/81 80/80/80
f 81/81/81 90/90/90 82/82/82
f 82/82/82 91/91/91 83/83/83
f 91/91/91 84/84/84 83/83/83
f 10/10/10 69/69/69 9/9/9
f 69/69/69 78/78/78 70/70/70
f 70/70/70 79/79/79 71/71/71
f 79/79/79 72/72/72 71/71/71
f 72/72/72 81/81/81 73/73/73
f 73/73/73 82/82/82 74/74/74
f 82/82/82 75/75/75 74/74/74
f 83/83/83 76/76/76 75/75/75
f 9/9/9 61/61/61 8/8/8
f 69/69/69 62/62/62 61/61/61
f 62/62/62 71/71/71 63/63/63
f 63/63/63 72/72/72 64/64/64
f 72/72/72 65/65/65 64/64/64
f 65/65/65 74/74/74 66/66/66
f 66/66/66 75/75/75 67/67/67
f 67/67/67 76/76/76 68/68/68
f 8/8/8 53/53/53 7/7/7
f 53/53/53 62/62/62 54/54/54
f 54/54/54 63/63/63 55/55/55
f 55/55/55 64/64/64 56/56/56
f 64/64/64 57/57/57 56/56/56
f 57/57/57 66/66/66 58/58/58
f 58/58/58 67/67/67 59/59/59
f 59/59/59 68/68/68 60/60/60
f 6/6/6 53/53/53 45/45/45
f 45/45/45 54/54/54 46/46/46
f 54/54/54 47/47/47 46/46/46
f 55/55/55 48/48/48 47/47/47
f 56/56/56 49/49/49 48/48/48
f 49/49/49 58/58/58 50/50/50
f 58/58/58 51/51/51 50/50/50
f 59/59/59 52/52/52 51/51/51
f 6/6/6 37/37/37 5/5/5
f 45/45/45 38/38/38 37/37/37
f 46/46/46 39/39/39 38/38/38
f 39/39/39 48/48/48 40/40/40
f 40/40/40 49/49/49 41/41/41
f 41/41/41 50/50/50 42/42/42
f 50/50/50 43/43/43 42/42/42
f 51/51/51 44/44/44 43/43/43
f 5/5/5 28/28/28 1/1/1
f 28/28/28 38/38/38 27/27/27
f 27/27/27 39/39/39 26/26/26
f 26/26/26 40/40/40 25/25/25
f 40/40/40 24/24/24 25/25/25
f 41/41/41 23/23/23 24/24/24
f 23/23/23 43/43/43 22/22/22
f 43/43/43 21/21/21 22/22/22
f 2/2/2 93/93/93 12/12/12
f 93/93/93 30/30/30 94/94/94
f 30/30/30 95/95/95 94/94/94
f 31/31/31 96/96/96 95/95/95
f 32/32/32 97/97/97 96/96/96
f 33/33/33 98/98/98 97/97/97
f 98/98/98 35/35/35 99/99/99
f 99/99/99 36/36/36 100/100/100
f 100/100/100 36/36/36 4/4/4
f 44/44/44 20/20/20 3/3/3
f 44/44/44 52/52/52 19/19/19
f 60/60/60 18/18/18 19/19/19
f 60/60/60 68/68/68 17/17/17
f 76/76/76 16/16/16 17/17/17
f 84/84/84 15/15/15 16/16/16
f 84/84/84 92/92/92 14/14/14
f 100/100/100 13/13/13 14/14/14
f 11/11/11 12/12/12 93/93/93
f 93/93/93 94/94/94 86/86/86
f 94/94/94 95/95/95 87/87/87
f 87/87/87 95/95/95 96/96/96
f 96/96/96 97/97/97 89/89/89
f 97/97/97 98/98/98 90/90/90
f 90/90/90 98/98/98 99/99/99
f 91/91/91 99/99/99 100/100/100
f 10/10/10 11/11/11 85/85/85
f 77/77/77 85/85/85 86/86/86
f 78/78/78 86/86/86 87/87/87
f 79/79/79 87/87/87 88/88/88
f 88/88/88 89/89/89 81/81/81
f 81/81/81 89/89/89 90/90/90
f 82/82/82 90/90/90 91/91/91
f 91/91/91 92/92/92 84/84/84
f 10/10/10 77/77/77 69/69/69
f 69/69/69 77/77/77 78/78/78
f 70/70/70 78/78/78 79/79/79
f 79/79/79 80/80/80 72/72/72
f 72/72/72 80/80/80 81/81/81
f 73/73/73 81/81/81 82/82/82
f 82/82/82 83/83/83 75/75/75
f 83/83/83 84/84/84 76/76/76
f 9/9/9 69/69/69 61/61/61
f 69/69/69 70/70/70 62/62/62
f 62/62/62 70/70/70 71/71/71
f 63/63/63 71/71/71 72/72/72
f 72/72/72 73/73/73 65/65/65
f 65/65/65 73/73/73 74/74/74
f 66/66/66 74/74/74 75/75/75
f 67/67/67 75/75/75 76/76/76
f 8/8/8 61/61/61 53/53/53
f 53/53/53 61/61/61 62/62/62
f 54/54/54 62/62/62 63/63/63
f 55/55/55 63/63/63 64/64/64
f 64/64/64 65/65/65 57/57/57
f 57/57/57 65/65/65 66/66/66
f 58/58/58 66/66/66 67/67/67
f 59/59/59 67/67/67 68/68/68
f 6/6/6 7/7/7 53/53/53
f 45/45/45 53/53/53 54/54/54
f 54/54/54 55/55/55 47/47/47
f 55/55/55 56/56/56 48/48/48
f 56/56/56 57/57/57 49/49/49
f 49/49/49 57/57/57 58/58/58
f 58/58/58 59/59/59 51/51/51
f 59/59/59 60/60/60 52/52/52
f 6/6/6 45/45/45 37/37/37
f 45/45/45 46/46/46 38/38/38
f 46/46/46 47/47/47 39/39/39
f 39/39/39 47/47/47 48/48/48
f 40/40/40 48/48/48 49/49/49
f 41/41/41 49/49/49 50/50/50
f 50/50/50 51/51/51 43/43/43
f 51/51/51 52/52/52 44/44/44
f 5/5/5 37/37/37 28/28/28
f 28/28/28 37/37/37 38/38/38
f 27/27/27 38/38/38 39/39/39
f 26/26/26 39/39/39 40/40/40
f 40/40/40 41/41/41 24/24/24
f 41/41/41 42/42/42 23/23/23
f 23/23/23 42/42/42 43/43/43
f 43/43/43 44/44/44 21/21/21
f 2/2/2 29/29/29 93/93/93
f 93/93/93 29/29/29 30/30/30
f 30/30/30 31/31/31 95/95/95
f 31/31/31 32/32/32 96/96/96
f 32/32/32 33/33/33 97/97/97
f 33/33/33 34/34/34 98/98/98
f 98/98/98 34/34/34 35/35/35
f 99/99/99 35/35/35 36/36/36
