o GNATVCloth
v -5.03735 -4.98943 0.59474
v 5.06171 -4.99667 0.392403
v -5.01298 5.02105 0.004229
v 4.98702 5.02105 0.004229
v -3.92647 -5.02348 0.527787
v -2.80776 -5.0646 0.482972
v -1.68512 -5.09571 0.483915
v -0.558866 -5.11511 0.480295
v 0.570724 -5.11266 0.51316
v 1.69852 -5.09646 0.501875
v 2.82242 -5.06588 0.450041
v 3.94411 -5.02993 0.45222
v 3.86695 4.90228 0.192051
v 2.75413 4.82126 0.368493
v 1.63252 4.76373 0.31697
v 0.512055 4.71939 0.294489
v -0.596091 4.69663 0.466295
v -1.69533 4.70754 0.632114
v -2.81087 4.76885 0.512027
v -3.90102 4.88405 0.237562
v -4.97832 3.90701 0.0753617
v -4.98071 2.7924 0.139735
v -4.99007 1.67862 0.205595
v -4.99665 0.564431 0.257688
v -5.00151 -0.549169 0.310797
v -5.00813 -1.66202 0.35541
v -5.01529 -2.77394 0.387764
v -5.01959 -3.88081 0.488932
v 5.03513 -3.88945 0.309675
v 5.02192 -2.77829 0.252617
v 5.0125 -1.66568 0.243722
v 5.00476 -0.552716 0.226895
v 4.99806 0.560973 0.198439
v 4.98996 1.67576 0.164693
v 4.98309 2.79123 0.131649
v 4.97209 3.90583 0.0655598
v -3.85104 -3.88548 0.360862
v -3.81439 -3.24152 0.278756
v -3.66771 -1.95585 0.244898
v -4.12021 -0.291839 0.236122
v -4.1416 0.723572 0.185132
v -4.13299 1.50626 0.125581
v -4.06258 2.79665 0.0335171
v -3.92006 3.87142 -0.134148
v -2.71924 -4.05511 0.313061
v -2.79808 -2.78536 0.346206
v -2.67535 -2.1964 0.293152
v -2.75159 -0.65069 0.283819
v -2.78558 0.476005 0.174677
v -2.71727 1.51473 0.0314418
v -2.84035 2.84448 -0.174035
v -2.74494 3.51147 0.0303991
v -1.65426 -4.28903 0.328749
v -1.49625 -2.97609 0.397508
v -1.88961 -1.68247 0.379635
v -1.8737 -0.887043 0.315822
v -1.52369 0.583025 0.0431509
v -1.98418 1.63938 -0.0532474
v -1.7039 2.67628 -0.00331095
v -1.58706 3.57809 0.412409
v -0.22844 -4.37882 0.395874
v -0.584374 -2.943 0.479718
v -0.542505 -1.80336 0.413401
v -0.835805 -0.827224 0.298309
v -0.600424 0.366915 0.108766
v -0.363882 1.39514 0.063167
v -0.560862 2.56547 0.17291
v -0.760949 3.38763 0.423748
v 0.744117 -3.95237 0.397852
v 0.819122 -2.66138 0.46654
v 0.532202 -1.87532 0.449441
v 0.61521 -0.574798 0.13449
v 0.593207 0.335103 0.128942
v 0.309385 1.44359 0.0628335
v 0.534637 2.40597 0.144208
v 0.543829 3.62868 0.410911
v 1.96199 -3.69986 0.346383
v 1.6825 -2.89424 0.3881
v 1.83549 -1.96838 0.437039
v 1.99276 -0.456282 0.164365
v 1.98215 0.210077 -0.0122871
v 1.83803 1.47148 0.0381153
v 1.41861 2.73807 0.118435
v 1.48081 3.54452 0.302319
v 2.80742 -3.96027 0.355311
v 3.11389 -2.87483 0.326323
v 2.96246 -1.99815 0.288348
v 2.72389 -0.535657 0.304556
v 2.96583 0.257073 0.20616
v 3.08685 1.52566 -0.0876039
v 2.76983 3.08856 -0.0733117
v 2.73687 3.44479 0.0286674
v 3.93736 -3.99424 0.305119
v 3.6776 -2.74156 0.301989
v 3.88668 -1.69969 0.289075
v 3.82093 -0.743003 0.307963
v 3.87991 0.269305 0.280736
v 4.17035 1.7867 0.143978
v 4.14929 2.73645 -0.0326564
v 4.02781 3.85928 -0.0969963
vt 0.0001 0.0001
vt 0.9999 0.0001
vt 0.0001 0.9999
vt 0.9999 0.9999
vt 0.111189 0.0001
vt 0.222278 0.0001
vt 0.333367 0.0001
vt 0.444455 0.0001
vt 0.555544 0.0001
vt 0.666633 0.0001
vt 0.777722 0.0001
vt 0.888811 0.0001
vt 0.888811 0.9999
vt 0.777722 0.9999
vt 0.666633 0.9999
vt 0.555544 0.9999
vt 0.444455 0.9999
vt 0.333367 0.9999
vt 0.222278 0.9999
vt 0.111189 0.9999
vt 0.0001 0.888811
vt 0.0001 0.777722
vt 0.0001 0.666633
vt 0.0001 0.555544
vt 0.0001 0.444456
vt 0.0001 0.333367
vt 0.0001 0.222278
vt 0.0001 0.111189
vt 0.9999 0.111189
vt 0.9999 0.222278
vt 0.9999 0.333367
vt 0.9999 0.444456
vt 0.9999 0.555544
vt 0.9999 0.666633
vt 0.9999 0.777722
vt 0.9999 0.888811
vt 0.11727 0.115399
vt 0.120778 0.180369
vt 0.134636 0.309595
vt 0.088728 0.473895
vt 0.085886 0.575352
vt 0.086211 0.65375
vt 0.092207 0.78313
vt 0.106956 0.892282
vt 0.22987 0.102869
vt 0.221803 0.229552
vt 0.233521 0.288953
vt 0.225541 0.443179
vt 0.221596 0.556167
vt 0.227801 0.661237
vt 0.214896 0.795203
vt 0.22542 0.865181
vt 0.335524 0.082127
vt 0.351143 0.213907
vt 0.311934 0.342467
vt 0.313159 0.422214
vt 0.347791 0.572605
vt 0.301482 0.677733
vt 0.329031 0.783086
vt 0.344903 0.885466
vt 0.476837 0.074882
vt 0.441952 0.218774
vt 0.445749 0.333088
vt 0.416414 0.43099
vt 0.439746 0.552976
vt 0.463203 0.656843
vt 0.444252 0.77653
vt 0.426137 0.866051
vt 0.573419 0.117409
vt 0.581125 0.246686
vt 0.552512 0.326
vt 0.561075 0.459693
vt 0.558356 0.550596
vt 0.530299 0.662189
vt 0.553275 0.760113
vt 0.555478 0.888821
vt 0.694433 0.13996
vt 0.667048 0.221666
vt 0.681985 0.314267
vt 0.698218 0.467249
vt 0.696819 0.535952
vt 0.68253 0.662758
vt 0.642062 0.791726
vt 0.648523 0.877957
vt 0.778029 0.111667
vt 0.809426 0.219523
vt 0.794923 0.307783
vt 0.772028 0.454562
vt 0.796846 0.533374
vt 0.807262 0.663157
vt 0.778581 0.821037
vt 0.775122 0.858219
vt 0.890224 0.104741
vt 0.865679 0.23076
vt 0.887326 0.334104
vt 0.881307 0.429754
vt 0.887973 0.53063
vt 0.918106 0.681428
vt 0.915043 0.778027
vt 0.904815 0.89094
vn 0.0627601 0.0938253 0.993609
vn 0.0187747 0.10761 0.994016
vn -0.0192148 -0.137468 0.99032
vn 0.00663235 -0.092233 0.995715
vn 0.0720601 0.124452 0.989605
vn 0.0340992 0.163801 0.985904
vn 0.00540587 0.188689 0.982022
vn -0.0203843 0.14883 0.988653
vn -0.0230219 0.110146 0.993649
vn 0.0235679 0.0992359 0.994785
vn 0.027994 0.104185 0.994164
vn 0.0211613 0.140726 0.989822
vn 0.177003 -0.237403 0.955149
vn 0.12164 -0.182074 0.975732
vn -0.0326249 -0.00795012 0.999436
vn 0.0852089 0.0698341 0.993913
vn 0.0733014 -0.0329279 0.996766
vn 0.0148296 -0.189553 0.981758
vn -0.223335 -0.312254 0.923374
vn -0.247921 -0.329719 0.910945
vn 0.169266 0.0838355 0.981998
vn 0.114472 0.0573585 0.991769
vn 0.100918 0.0607796 0.993037
vn 0.073827 0.0483056 0.9961
vn 0.071772 0.0433641 0.996478
vn 0.0832473 0.0324151 0.996002
vn 0.103152 0.0445162 0.993669
vn 0.101177 0.110184 0.988748
vn -0.010128 0.0627093 0.99798
vn 0.0262059 0.0186718 0.999482
vn 0.0488681 0.00231584 0.998803
vn 0.0656992 0.0214994 0.997608
vn 0.0326875 0.0452648 0.99844
vn -0.0212256 0.029785 0.999331
vn -0.140541 0.0872757 0.986221
vn -0.180021 0.050127 0.982385
vn 0.077587 0.136432 0.987607
vn 0.0426528 0.0592566 0.997331
vn 0.0117422 0.0290334 0.999509
vn 0.0398253 0.0443117 0.998224
vn 0.0622473 0.0720477 0.995457
vn 0.086197 0.0704398 0.993785
vn 0.131222 0.0957558 0.986718
vn -0.0583548 -0.142452 0.98808
vn 0.0042224 0.0569264 0.998369
vn -0.0459622 0.0335235 0.99838
vn -0.0615127 0.0356281 0.99747
vn -0.0380789 0.0454472 0.998241
vn 0.0431774 0.114258 0.992512
vn 0.0836035 0.122188 0.98898
vn -0.0233898 -0.0127111 0.999646
vn -0.235355 -0.323045 0.916651
vn -0.024623 0.0734614 0.996994
vn -0.056927 0.0038197 0.998371
vn -0.0418279 0.043984 0.998156
vn 0.0164338 0.119837 0.992658
vn 0.00593742 0.126473 0.991952
vn -0.0262018 0.0523679 0.998284
vn -0.175357 -0.23406 0.956277
vn -0.109306 -0.262224 0.958796
vn -0.0293573 0.0481298 0.99841
vn -0.03075 -0.0108725 0.999468
vn -0.0151934 0.103433 0.99452
vn 0.0242591 0.136534 0.990338
vn -0.00620461 0.0778411 0.996946
vn -0.031775 -0.0197978 0.999299
vn -0.0584437 -0.172082 0.983347
vn -0.0456083 -0.21818 0.974842
vn 0.0208954 0.0159533 0.999654
vn 0.0369031 -0.0254211 0.998995
vn -0.00085969 0.116309 0.993213
vn 0.023668 0.15119 0.988221
vn 0.0367404 0.0209788 0.999105
vn 0.0042573 -0.002062 0.999989
vn 0.0312542 -0.12349 0.991854
vn 0.079019 -0.108287 0.990974
vn 0.0266438 0.0339864 0.999067
vn 0.0687261 -0.0360649 0.996984
vn 0.0243244 0.0729267 0.997041
vn -0.100369 0.220245 0.970267
vn -0.0494514 0.128681 0.990452
vn 0.074948 -0.0190666 0.997005
vn 0.118065 -0.148027 0.981911
vn 0.104544 -0.124545 0.986691
vn 0.0310865 0.0639695 0.997468
vn 0.0334764 0.0191609 0.999256
vn 0.0470451 0.00260929 0.998889
vn -0.0670666 0.125686 0.989801
vn -0.118416 0.162757 0.979534
vn -0.0898609 0.107943 0.990088
vn 0.108791 -0.10228 0.988789
vn 0.179911 -0.246576 0.952277
vn 0.0239346 0.0660776 0.997527
vn 0.0281734 0.0176416 0.999447
vn 0.0235945 -0.00190959 0.99972
vn 0.0155619 0.0199459 0.99968
vn -0.0366091 0.0882439 0.995426
vn -0.113414 0.103987 0.988091
vn -0.14484 0.080581 0.986168
vn 0.0496469 -0.119743 0.991563
f 100/100/100 4/4/4 13/13/13
f 44/44/44 3/3/3 21/21/21
f 44/44/44 19/19/19 20/20/20
f 60/60/60 19/19/19 52/52/52
f 60/60/60 17/17/17 18/18/18
f 76/76/76 17/17/17 68/68/68
f 84/84/84 16/16/16 76/76/76
f 84/84/84 14/14/14 15/15/15
f 100/100/100 14/14/14 92/92/92
f 11/11/11 93/93/93 85/85/85
f 93/93/93 86/86/86 85/85/85
f 94/94/94 87/87/87 86/86/86
f 87/87/87 96/96/96 88/88/88
f 96/96/96 89/89/89 88/88/88
f 97/97/97 90/90/90 89/89/89
f 90/90/90 99/99/99 91/91/91
f 91/91/91 100/100/100 92/92/92
f 10/10/10 85/85/85 77/77/77
f 77/77/77 86/86/86 78/78/78
f 78/78/78 87/87/87 79/79/79
f 79/79/79 88/88/88 80/80/80
f 88/88/88 81/81/81 80/80/80
f 81/81/81 90/90/90 82/82/82
f 82/82/82 91/91/91 83/83/83
f 91/91/91 84/84/84 83/83/83
f 10/10/10 69/69/69 9/9/9
f 69/69/69 78/78/78 70/70/70
f 70/70/70 79/79/79 71/71/71
f 79/79/79 72/72/72 71/71/71
f 72/72/72 81/81/81 73/73/73
f 73/73/73 82/82/82 74/74/74
f 82/82/82 75/75/75 74/74/74
f 83/83/83 76/76/76 75/75/75
f 9/9/9 61/61/61 8/8/8
f 69/69/69 62/62/62 61/61/61
f 62/62/62 71/71/71 63/63/63
f 63/63/63 72/72/72 64/64/64
f 72/72/72 65/65/65 64/64/64
f 65/65/65 74/74/74 66/66/66
f 66/66/66 75/75/75 67/67/67
f 67/67/67 76/76/76 68/68/68
f 8/8/8 53/53/53 7/7/7
f 53/53/53 62/62/62 54/54/54
f 54/54/54 63/63/63 55/55/55
f 55/55/55 64/64/64 56/56/56
f 64/64/64 57/57/57 56/56/56
f 57/57/57 66/66/66 58/58/58
f 58/58/58 67/67/67 59/59/59
f 59/59/59 68/68/68 60/60/60
f 6/6/6 53/53/53 45/45/45
f 45/45/45 54/54/54 46/46/46
f 54/54/54 47/47/47 46/46/46
f 55/55/55 48/48/48 47/47/47
f 56/56/56 49/49/49 48/48/48
f 49/49/49 58/58/58 50/50/50
f 58/58/58 51/51/51 50/50/50
f 59/59/59 52/52/52 51/51/51
f 6/6/6 37/37/37 5/5/5
f 45/45/45 38/38/38 37/37/37
f 46/46/46 39/39/39 38/38/38
f 39/39/39 48/48/48 40/40/40
f 40/40/40 49/49/49 41/41/41
f 41/41/41 50/50/50 42/42/42
f 50/50/50 43/43/43 42/42/42
f 51/51/51 44/44/44 43/43/43
f 5/5/5 28/28/28 1/1/1
f 28/28/28 38/38/38 27/27/27
f 27/27/27 39/39/39 26/26/26
f 26/26/26 40/40/40 25/25/25
f 40/40/40 24/24/24 25/25/25
f 41/41/41 23/23/23 24/24/24
f 23/23/23 43/43/43 22/22/22
f 43/43/43 21/21/21 22/22/22
f 2/2/2 93/93/93 12/12/12
f 93/93/93 30/30/30 94/94/94
f 30/30/30 95/95/95 94/94/94
f 31/31/31 96/96/96 95/95/95
f 32/32/32 97/97/97 96/96/96
f 33/33/33 98/98/98 97/97/97
f 98/98/98 35/35/35 99/99/99
f 99/99/99 36/36/36 100/100/100
f 100/100/100 36/36/36 4/4/4
f 44/44/44 20/20/20 3/3/3
f 44/44/44 52/52/52 19/19/19
f 60/60/60 18/18/18 19/19/19
f 60/60/60 68/68/68 17/17/17
f 76/76/76 16/16/16 17/17/17
f 84/84/84 15/15/15 16/16/16
f 84/84/84 92/92/92 14/14/14
f 100/100/100 13/13/13 14/14/14
f 11/11/11 12/12/12 93/93/93
f 93/93/93 94/94/94 86/86/86
f 94/94/94 95/95/95 87/87/87
f 87/87/87 95/95/95 96/96/96
f 96/96/96 97/97/97 89/89/89
f 97/97/97 98/98/98 90/90/90
f 90/90/90 98/98/98 99/99/99
f 91/91/91 99/99/99 100/100/100
f 10/10/10 11/11/11 85/85/85
f 77/77/77 85/85/85 86/86/86
f 78/78/78 86/86/86 87/87/87
f 79/79/79 87/87/87 88/88/88
f 88/88/88 89/89/89 81/81/81
f 81/81/81 89/89/89 90/90/90
f 82/82/82 90/90/90 91/91/91
f 91/91/91 92/92/92 84/84/84
f 10/10/10 77/77/77 69/69/69
f 69/69/69 77/77/77 78/78/78
f 70/70/70 78/78/78 79/79/79
f 79/79/79 80/80/80 72/72/72
f 72/72/72 80/80/80 81/81/81
f 73/73/73 81/81/81 82/82/82
f 82/82/82 83/83/83 75/75/75
f 83/83/83 84/84/84 76/76/76
f 9/9/9 69/69/69 61/61/61
f 69/69/69 70/70/70 62/62/62
f 62/62/62 70/70/70 71/71/71
f 63/63/63 71/71/71 72/72/72
f 72/72/72 73/73/73 65/65/65
f 65/65/65 73/73/73 74/74/74
f 66/66/66 74/74/74 75/75/75
f 67/67/67 75/75/75 76/76/76
f 8/8/8 61/61/61 53/53/53
f 53/53/53 61/61/61 62/62/62
f 54/54/54 62/62/62 63/63/63
f 55/55/55 63/63/63 64/64/64
f 64/64/64 65/65/65 57/57/57
f 57/57/57 65/65/65 66/66/66
f 58/58/58 66/66/66 67/67/67
f 59/59/59 67/67/67 68/68/68
f 6/6/6 7/7/7 53/53/53
f 45/45/45 53/53/53 54/54/54
f 54/54/54 55/55/55 47/47/47
f 55/55/55 56/56/56 48/48/48
f 56/56/56 57/57/57 49/49/49
f 49/49/49 57/57/57 58/58/58
f 58/58/58 59/59/59 51/51/51
f 59/59/59 60/60/60 52/52/52
f 6/6/6 45/45/45 37/37/37
f 45/45/45 46/46/46 38/38/38
f 46/46/46 47/47/47 39/39/39
f 39/39/39 47/47/47 48/48/48
f 40/40/40 48/48/48 49/49/49
f 41/41/41 49/49/49 50/50/50
f 50/50/50 51/51/51 43/43/43
f 51/51/51 52/52/52 44/44/44
f 5/5/5 37/37/37 28/28/28
f 28/28/28 37/37/37 38/38/38
f 27/27/27 38/38/38 39/39/39
f 26/26/26 39/39/39 40/40/40
f 40/40/40 41/41/41 24/24/24
f 41/41/41 42/42/42 23/23/23
f 23/23/23 42/42/42 43/43/43
f 43/43/43 44/44/44 21/21/21
f 2/2/2 29/29/29 93/93/93
f 93/93/93 29/29/29 30/30/30
f 30/30/30 31/31/31 95/95/95
f 31/31/31 32/32/32 96/96/96
f 32/32/32 33/33/33 97/97/97
f 33/33/33 34/34/34 98/98/98
f 98/98/98 34/34/34 35/35/35
f 99/99/99 35/35/35 36/36/36
