o GNATVCloth
v -5.00383 -5.0018 0.128295
v 5.10495 -5.00791 0.120482
v -5.01298 5.02105 0.004229
v 4.98702 5.02105 0.004229
v -3.88942 -5.04349 0.100168
v -2.76913 -5.08125 0.070571
v -1.64122 -5.10318 0.0887109
v -0.512767 -5.11166 0.0874744
v 0.616946 -5.12351 0.0252651
v 1.74427 -5.12372 0.0588352
v 2.86799 -5.08714 0.0893399
v 3.98887 -5.05242 0.124378
v 3.86356 4.92665 0.103193
v 2.74216 4.84879 0.0733129
v 1.69561 4.82064 0.105326
v 0.601043 4.80867 0.0854306
v -0.501628 4.806 0.0581335
v -1.60961 4.85221 0.122644
v -2.73359 4.91091 0.0755543
v -3.86725 4.9588 0.0789456
v -4.98507 3.90433 0.0326782
v -4.97717 2.78785 0.0713087
v -4.97364 1.67134 0.0940909
v -4.9685 0.55494 0.0973116
v -4.95876 -0.560432 0.103393
v -4.9548 -1.67484 0.0999538
v -4.95657 -2.78751 0.0909483
v -4.97637 -3.89922 0.0844809
v 5.08069 -3.89875 0.117436
v 5.07161 -2.78659 0.0678568
v 5.06442 -1.67381 0.0780275
v 5.05987 -0.559966 0.0903828
v 5.05418 0.555163 0.101683
v 5.04131 1.67159 0.0986799
v 5.02864 2.78825 0.0806154
v 5.00976 3.90463 0.0424724
v -3.80492 -3.8966 0.0777952
v -3.76674 -3.24918 0.0631509
v -3.62254 -1.96297 0.0438844
v -4.08197 -0.301319 0.0516636
v -4.11266 0.718886 0.0567383
v -4.1098 1.50608 0.0732872
v -4.05368 2.79931 0.0574899
v -3.90849 3.88508 0.0419089
v -2.67458 -4.06552 0.0687271
v -2.75138 -2.79556 0.0691129
v -2.63145 -2.2068 0.0625471
v -2.7117 -0.659443 0.0649996
v -2.75283 0.47187 0.0563425
v -2.69296 1.51879 0.059869
v -2.82033 2.86604 0.0609899
v -2.71563 3.5612 0.0665091
v -1.61228 -4.3059 0.0473292
v -1.4491 -2.99168 0.0409445
v -1.84402 -1.69563 0.0828142
v -1.83216 -0.899514 0.0822762
v -1.48658 0.591924 0.0591956
v -1.95445 1.6588 0.0556243
v -1.67578 2.70173 0.0584508
v -1.51079 3.7091 0.0561156
v -0.183372 -4.39677 0.0632939
v -0.53492 -2.96833 0.0498838
v -0.498159 -1.82882 0.0589907
v -0.794796 -0.844688 0.0583055
v -0.562939 0.36792 0.0603559
v -0.327387 1.3954 0.0629794
v -0.517962 2.58943 0.0573741
v -0.696618 3.4854 0.0671154
v 0.791954 -3.97591 0.0481667
v 0.866702 -2.68464 0.0745639
v 0.576894 -1.90017 0.0775166
v 0.658573 -0.571411 0.0418842
v 0.629234 0.337529 0.0641721
v 0.346935 1.44873 0.0692652
v 0.575916 2.42034 0.0668564
v 0.598602 3.69762 0.0623781
v 2.01068 -3.72276 0.0759937
v 1.73083 -2.91653 0.0619185
v 1.87844 -1.98871 0.0539573
v 2.03767 -0.456794 0.0775841
v 2.02204 0.229192 0.0547367
v 1.87262 1.48639 0.0425259
v 1.46357 2.75836 0.070662
v 1.52403 3.60013 0.0541869
v 2.85564 -3.97785 0.0680841
v 3.16248 -2.89118 0.0702505
v 3.0116 -2.01529 0.0498326
v 2.77913 -0.556932 0.0596554
v 3.0238 0.242055 0.0680277
v 3.1224 1.5397 0.0485599
v 2.81423 3.10008 0.0569514
v 2.77023 3.46883 0.0858548
v 3.98548 -4.00803 0.0447527
v 3.72635 -2.75765 0.081506
v 3.93712 -1.71507 0.0746458
v 3.87431 -0.75887 0.0451414
v 3.9365 0.252683 0.0639878
v 4.22604 1.77705 0.0593927
v 4.18541 2.74549 0.0587701
v 4.06356 3.86845 0.0490764
vt 0.0001 0.0001
vt 0.9999 0.0001
vt 0.0001 0.9999
vt 0.9999 0.9999
vt 0.111189 0.0001
vt 0.222278 0.0001
vt 0.333367 0.0001
vt 0.444455 0.0001
vt 0.555544 0.0001
vt 0.666633 0.0001
vt 0.777722 0.0001
vt 0.888811 0.0001
vt 0.888811 0.9999
vt 0.777722 0.9999
vt 0.666633 0.9999
vt 0.555544 0.9999
vt 0.444455 0.9999
vt 0.333367 0.9999
vt 0.222278 0.9999
vt 0.111189 0.9999
vt 0.0001 0.888811
vt 0.0001 0.777722
vt 0.0001 0.666633
vt 0.0001 0.555544
vt 0.0001 0.444456
vt 0.0001 0.333367
vt 0.0001 0.222278
vt 0.0001 0.111189
vt 0.9999 0.111189
vt 0.9999 0.222278
vt 0.9999 0.333367
vt 0.9999 0.444456
vt 0.9999 0.555544
vt 0.9999 0.666633
vt 0.9999 0.777722
vt 0.9999 0.888811
vt 0.11727 0.115399
vt 0.120778 0.180369
vt 0.134636 0.309595
vt 0.088728 0.473895
vt 0.085886 0.575352
vt 0.086211 0.65375
vt 0.092207 0.78313
vt 0.106956 0.892282
vt 0.22987 0.102869
vt 0.221803 0.229552
vt 0.233521 0.288953
vt 0.225541 0.443179
vt 0.221596 0.556167
vt 0.227801 0.661237
vt 0.214896 0.795203
vt 0.22542 0.865181
vt 0.335524 0.082127
vt 0.351143 0.213907
vt 0.311934 0.342467
vt 0.313159 0.422214
vt 0.347791 0.572605
vt 0.301482 0.677733
vt 0.329031 0.783086
vt 0.344903 0.885466
vt 0.476837 0.074882
vt 0.441952 0.218774
vt 0.445749 0.333088
vt 0.416414 0.43099
vt 0.439746 0.552976
vt 0.463203 0.656843
vt 0.444252 0.77653
vt 0.426137 0.866051
vt 0.573419 0.117409
vt 0.581125 0.246686
vt 0.552512 0.326
vt 0.561075 0.459693
vt 0.558356 0.550596
vt 0.530299 0.662189
vt 0.553275 0.760113
vt 0.555478 0.888821
vt 0.694433 0.13996
vt 0.667048 0.221666
vt 0.681985 0.314267
vt 0.698218 0.467249
vt 0.696819 0.535952
vt 0.68253 0.662758
vt 0.642062 0.791726
vt 0.648523 0.877957
vt 0.778029 0.111667
vt 0.809426 0.219523
vt 0.794923 0.307783
vt 0.772028 0.454562
vt 0.796846 0.533374
vt 0.807262 0.663157
vt 0.778581 0.821037
vt 0.775122 0.858219
vt 0.890224 0.104741
vt 0.865679 0.23076
vt 0.887326 0.334104
vt 0.881307 0.429754
vt 0.887973 0.53063
vt 0.918106 0.681428
vt 0.915043 0.778027
vt 0.904815 0.89094
vn 0.0266715 0.0390295 0.998882
vn -0.0329905 0.0387037 0.998706
vn -0.0374731 -0.00328837 0.999292
vn 0.0481606 0.000278575 0.99884
vn 0.0197788 0.0252106 0.999486
vn 0.0100687 0.0177252 0.999792
vn -0.00677877 0.0520777 0.99862
vn 0.0159402 0.0326885 0.999339
vn 0.0170483 -0.010303 0.999802
vn -0.0183214 -0.00451523 0.999822
vn -0.0133708 0.0380586 0.999186
vn -0.0165288 0.0759561 0.996974
vn 0.0339372 -0.0446459 0.998426
vn 0.00249996 -0.020882 0.999779
vn 0.00703083 -0.0428484 0.999057
vn -0.0119212 -0.0269401 0.999566
vn 0.00564409 -0.0147652 0.999875
vn 0.00541973 -0.0576337 0.998323
vn -0.014147 -0.0275201 0.999521
vn -0.0326357 -0.033203 0.998916
vn -0.000630947 0.0251356 0.999684
vn 0.0146145 0.0275624 0.999513
vn 0.0269295 0.00338297 0.999632
vn 0.0506457 0.00183836 0.998715
vn 0.0584432 0.00153704 0.99829
vn 0.0478929 -0.0012097 0.998852
vn 0.0297316 -0.000833705 0.999558
vn 0.0147391 0.0185548 0.999719
vn -0.0684443 0.0225743 0.9974
vn -0.0133571 0.00295269 0.999906
vn -0.0143477 0.0033948 0.999891
vn -0.0341821 -0.0126536 0.999336
vn -0.0383925 0.000591122 0.999263
vn -0.0469846 0.00888537 0.998856
vn -0.033196 0.0162888 0.999316
vn -0.00510282 0.0257943 0.999654
vn 0.0115596 0.016376 0.999799
vn 0.00784255 0.0109506 0.999909
vn 0.00744055 0.00446833 0.999962
vn 0.026916 0.000195712 0.999638
vn 0.020597 -0.00848681 0.999752
vn 0.0163152 -0.00481493 0.999855
vn 0.00715344 0.0153165 0.999857
vn -0.018535 -0.00320898 0.999823
vn 0.0127435 0.00426791 0.99991
vn 0.00205291 0.0075298 0.99997
vn -0.0080114 -0.00362191 0.999961
vn -0.0166803 0.000329139 0.999861
vn -0.00375466 0.0029878 0.999988
vn 0.00469723 -0.0029519 0.999985
vn -0.0032799 -0.000410766 0.999995
vn -0.00507942 -0.00507891 0.999974
vn -0.000315605 0.0224439 0.999748
vn 0.00807322 -0.00756967 0.999939
vn 0.00151614 -0.00942702 0.999954
vn 0.000947546 0.00698147 0.999975
vn 0.0014394 0.00446695 0.999989
vn 0.000579835 -0.000324765 1
vn -7.74415e-05 -0.00330021 0.999995
vn 0.000878523 -0.018013 0.999837
vn 0.0143529 0.00821031 0.999863
vn -0.00956089 -0.00279048 0.99995
vn 0.000190658 -0.00083182 1
vn 0.0141641 0.00254878 0.999896
vn -0.00129597 -0.00633695 0.999979
vn -0.00617479 0.0018561 0.999979
vn -0.00238638 -0.00208002 0.999995
vn -0.00315202 -0.000302858 0.999995
vn -0.00628935 -0.00961648 0.999934
vn 0.00285043 -0.00823461 0.999962
vn -0.00212897 0.00787382 0.999967
vn -0.00315952 0.00300262 0.999991
vn 0.00456783 -0.00878895 0.999951
vn 0.0025534 -0.000576435 0.999997
vn -0.0017264 -0.00119598 0.999998
vn -0.00187081 -0.00268624 0.999995
vn -0.00769187 -0.0003073 0.99997
vn -0.00131711 0.00657997 0.999978
vn 0.00838308 0.000836014 0.999964
vn -0.000715952 0.00901373 0.999959
vn -0.00274774 0.0102156 0.999944
vn 0.007309 -0.00381813 0.999966
vn 0.00574204 0.000644349 0.999983
vn -0.00309123 -0.0203015 0.999789
vn 0.0054573 0.00258666 0.999982
vn -0.00344256 0.00211414 0.999992
vn -0.0111395 0.0113801 0.999873
vn 0.0106557 -0.00248271 0.99994
vn -0.00140816 -0.00168257 0.999998
vn -0.00608995 0.00469824 0.99997
vn 0.00428753 -0.0222924 0.999742
vn 0.00440261 -0.0340469 0.999411
vn -0.0164161 0.0186898 0.999691
vn -0.00960725 -0.00458494 0.999943
vn -0.0127054 0.0134467 0.999829
vn -0.0120076 -0.000868972 0.999928
vn -0.0174532 -0.00265961 0.999844
vn -0.0295045 0.00542847 0.99955
vn -0.00977471 0.0076002 0.999923
vn 0.0224606 -0.0141823 0.999647
f 100/100/100 4/4/4 13/13/13
f 44/44/44 3/3/3 21/21/21
f 44/44/44 19/19/19 20/20/20
f 60/60/60 19/19/19 52/52/52
f 60/60/60 17/17/17 18/18/18
f 76/76/76 17/17/17 68/68/68
f 84/84/84 16/16/16 76/76/76
f 84/84/84 14/14/14 15/15/15
f 100/100/100 14/14/14 92/92/92
f 11/11/11 93/93/93 85/85/85
f 93/93/93 86/86/86 85/85/85
f 94/94/94 87/87/87 86/86/86
f 87/87/87 96/96/96 88/88/88
f 96/96/96 89/89/89 88/88/88
f 97/97/97 90/90/90 89/89/89
f 90/90/90 99/99/99 91/91/91
f 91/91/91 100/100/100 92/92/92
f 10/10/10 85/85/85 77/77/77
f 77/77/77 86/86/86 78/78/78
f 78/78/78 87/87/87 79/79/79
f 79/79/79 88/88/88 80/80/80
f 88/88/88 81/81/81 80/80/80
f 81/81/81 90/90/90 82/82/82
f 82/82/82 91/91/91 83/83/83
f 91/91/91 84/84/84 83/83/83
f 10/10/10 69/69/69 9/9/9
f 69/69/69 78/78/78 70/70/70
f 70/70/70 79/79/79 71/71/71
f 79/79/79 72/72/72 71/71/71
f 72/72/72 81/81/81 73/73/73
f 73/73/73 82/82/82 74/74/74
f 82/82/82 75/75/75 74/74/74
f 83/83/83 76/76/76 75/75/75
f 9/9/9 61/61/61 8/8/8
f 69/69/69 62/62/62 61/61/61
f 62/62/62 71/71/71 63/63/63
f 63/63/63 72/72/72 64/64/64
f 72/72/72 65/65/65 64/64/64
f 65/65/65 74/74/74 66/66/66
f 66/66/66 75/75/75 67/67/67
f 67/67/67 76/76/76 68/68/68
f 8/8/8 53/53/53 7/7/7
f 53/53/53 62/62/62 54/54/54
f 54/54/54 63/63/63 55/55/55
f 55/55/55 64/64/64 56/56/56
f 64/64/64 57/57/57 56/56/56
f 57/57/57 66/66/66 58/58/58
f 58/58/58 67/67/67 59/59/59
f 59/59/59 68/68/68 60/60/60
f 6/6/6 53/53/53 45/45/45
f 45/45/45 54/54/54 46/46/46
f 54/54/54 47/47/47 46/46/46
f 55/55/55 48/48/48 47/47/47
f 56/56/56 49/49/49 48/48/48
f 49/49/49 58/58/58 50/50/50
f 58/58/58 51/51/51 50/50/50
f 59/59/59 52/52/52 51/51/51
f 6/6/6 37/37/37 5/5/5
f 45/45/45 38/38/38 37/37/37
f 46/46/46 39/39/39 38/38/38
f 39/39/39 48/48/48 40/40/40
f 40/40/40 49/49/49 41/41/41
f 41/41/41 50/50/50 42/42/42
f 50/50/50 43/43/43 42/42/42
f 51/51/51 44/44/44 43/43/43
f 5/5/5 28/28/28 1/1/1
f 28/28/28 38/38/38 27/27/27
f 27/27/27 39/39/39 26/26/26
f 26/26/26 40/40/40 25/25/25
f 40/40/40 24/24/24 25/25/25
f 41/41/41 23/23/23 24/24/24
f 23/23/23 43/43/43 22/22/22
f 43/43/43 21/21/21 22/22/22
f 2/2/2 93/93/93 12/12/12
f 93/93/93 30/30/30 94/94/94
f 30/30/30 95/95/95 94/94/94
f 31/31/31 96/96/96 95/95/95
f 32/32/32 97/97/97 96/96/96
f 33/33/33 98/98/98 97/97/97
f 98/98/98 35/35/35 99/99/99
f 99/99/99 36/36/36 100/100/100
f 100/100/100 36/36/36 4/4/4
f 44/44/44 20/20/20 3/3/3
f 44/44/44 52/52/52 19/19/19
f 60/60/60 18/18/18 19/19/19
f 60/60/60 68/68/68 17/17/17
f 76/76/76 16/16/16 17/17/17
f 84/84/84 15/15/15 16/16/16
f 84/84/84 92/92/92 14/14/14
f 100/100/100 13/13/13 14/14/14
f 11/11/11 12/12/12 93/93/93
f 93/93/93 94/94/94 86/86/86
f 94/94/94 95/95/95 87/87/87
f 87/87/87 95/95/95 96/96/96
f 96/96/96 97/97/97 89/89/89
f 97/97/97 98/98/98 90/90/90
f 90/90/90 98/98/98 99/99/99
f 91/91/91 99/99/99 100/100/100
f 10/10/10 11/11/11 85/85/85
f 77/77/77 85/85/85 86/86/86
f 78/78/78 86/86/86 87/87/87
f 79/79/79 87/87/87 88/88/88
f 88/88/88 89/89/89 81/81/81
f 81/81/81 89/89/89 90/90/90
f 82/82/82 90/90/90 91/91/91
f 91/91/91 92/92/92 84/84/84
f 10/10/10 77/77/77 69/69/69
f 69/69/69 77/77/77 78/78/78
f 70/70/70 78/78/78 79/79/79
f 79/79/79 80/80/80 72/72/72
f 72/72/72 80/80/80 81/81/81
f 73/73/73 81/81/81 82/82/82
f 82/82/82 83/83/83 75/75/75
f 83/83/83 84/84/84 76/76/76
f 9/9/9 69/69/69 61/61/61
f 69/69/69 70/70/70 62/62/62
f 62/62/62 70/70/70 71/71/71
f 63/63/63 71/71/71 72/72/72
f 72/72/72 73/73/73 65/65/65
f 65/65/65 73/73/73 74/74/74
f 66/66/66 74/74/74 75/75/75
f 67/67/67 75/75/75 76/76/76
f 8/8/8 61/61/61 53/53/53
f 53/53/53 61/61/61 62/62/62
f 54/54/54 62/62/62 63/63/63
f 55/55/55 63/63/63 64/64/64
f 64/64/64 65/65/65 57/57/57
f 57/57/57 65/65/65 66/66/66
f 58/58/58 66/66/66 67/67/67
f 59/59/59 67/67/67 68/68/68
f 6/6/6 7/7/7 53/53/53
f 45/45/45 53/53/53 54/54/54
f 54/54/54 55/55/55 47/47/47
f 55/55/55 56/56/56 48/48/48
f 56/56/56 57/57/57 49/49/49
f 49/49/49 57/57/57 58/58/58
f 58/58/58 59/59/59 51/51/51
f 59/59/59 60/60/60 52/52/52
f 6/6/6 45/45/45 37/37/37
f 45/45/45 46/46/46 38/38/38
f 46/46/46 47/47/47 39/39/39
f 39/39/39 47/47/47 48/48/48
f 40/40/40 48/48/48 49/49/49
f 41/41/41 49/49/49 50/50/50
f 50/50/50 51/51/51 43/43/43
f 51/51/51 52/52/52 44/44/44
f 5/5/5 37/37/37 28/28/28
f 28/28/28 37/37/37 38/38/38
f 27/27/27 38/38/38 39/39/39
f 26/26/26 39/39/39 40/40/40
f 40/40/40 41/41/41 24/24/24
f 41/41/41 42/42/42 23/23/23
f 23/23/23 42/42/42 43/43/43
f 43/43/43 44/44/44 21/21/21
f 2/2/2 29/29/29 93/93/93
f 93/93/93 29/29/29 30/30/30
f 30/30/30 31/31/31 95/95/95
f 31/31/31 32/32/32 96/96/96
f 32/32/32 33/33/33 97/97/97
f 33/33/33 34/34/34 98/98/98
f 98/98/98 34/34/34 35/35/35
f 99/99/99 35/35/35 36/36/36
