o GNATVCloth
v -4.99676 -4.97164 0.61807
v 5.04874 -4.99042 0.39293
v -5.01298 5.02105 0.004229
v 4.98702 5.02105 0.004229
v -3.89731 -5.0101 0.458315
v -2.78413 -5.03686 0.466063
v -1.66538 -5.06078 0.432988
v -0.544322 -5.08232 0.43172
v 0.578374 -5.08811 0.400683
v 1.70017 -5.0761 0.39509
v 2.8205 -5.04866 0.403746
v 3.93681 -5.02497 0.329389
v 3.87443 4.88752 0.215341
v 2.77296 4.77412 0.430796
v 1.65165 4.73613 0.376604
v 0.532251 4.6977 0.400938
v -0.572524 4.67479 0.587568
v -1.69083 4.70807 0.506669
v -2.81504 4.74237 0.495087
v -3.91035 4.86211 0.252949
v -4.97385 3.90928 0.0925549
v -4.9622 2.79446 0.12219
v -4.96309 1.68047 0.158264
v -4.96609 0.566903 0.188659
v -4.96866 -0.545312 0.231686
v -4.97536 -1.65686 0.28071
v -4.98239 -2.76714 0.344102
v -4.99278 -3.87484 0.432638
v 5.02786 -3.88103 0.317812
v 5.00952 -2.77437 0.204769
v 4.99359 -1.66189 0.172505
v 4.98417 -0.549736 0.171573
v 4.98051 0.563136 0.164165
v 4.97748 1.67736 0.140282
v 4.97601 2.7925 0.12716
v 4.96659 3.90685 0.0725342
v -3.81885 -3.85786 0.419813
v -3.77799 -3.213 0.352425
v -3.62917 -1.92678 0.275064
v -4.08022 -0.271842 0.20166
v -4.10708 0.744347 0.201295
v -4.10097 1.52529 0.151075
v -4.03617 2.8195 0.0954328
v -3.93115 3.87712 -0.180952
v -2.69524 -4.01949 0.342397
v -2.76264 -2.75014 0.279729
v -2.63965 -2.15839 0.283542
v -2.71015 -0.615142 0.265414
v -2.74205 0.51618 0.223373
v -2.68708 1.54319 -0.00619331
v -2.85586 2.85283 -0.286381
v -2.76941 3.48971 0.0026183
v -1.63674 -4.2512 0.380794
v -1.47534 -2.93564 0.410004
v -1.857 -1.63901 0.386696
v -1.83406 -0.845291 0.312807
v -1.53646 0.576404 -0.203093
v -1.99762 1.63768 -0.300684
v -1.72419 2.66554 -0.103509
v -1.57551 3.6214 0.2275
v -0.216546 -4.34323 0.387892
v -0.567171 -2.90614 0.361273
v -0.525404 -1.77056 0.252089
v -0.825152 -0.810651 0.0688171
v -0.606959 0.384564 -0.134457
v -0.373918 1.39087 -0.169324
v -0.572946 2.56163 0.0380121
v -0.755683 3.41462 0.226963
v 0.751483 -3.92031 0.330418
v 0.826806 -2.64261 0.311003
v 0.539113 -1.86518 0.167321
v 0.621779 -0.556922 -0.0984399
v 0.589631 0.352202 -0.11057
v 0.300317 1.44947 -0.107891
v 0.526054 2.39912 0.00728752
v 0.550715 3.61312 0.334675
v 1.96431 -3.67846 0.305556
v 1.68572 -2.87327 0.41302
v 1.82474 -1.94539 0.358589
v 1.98743 -0.435491 0.0865797
v 1.98665 0.229435 -0.0865538
v 1.8341 1.48534 -0.168092
v 1.4085 2.74562 -0.0623331
v 1.4915 3.52348 0.269205
v 2.80694 -3.93856 0.295105
v 3.10713 -2.84982 0.291587
v 2.95728 -1.97609 0.406299
v 2.71311 -0.520865 0.254384
v 2.95881 0.270632 0.170317
v 3.08295 1.54521 -0.0871259
v 2.76806 3.1073 -0.208434
v 2.74751 3.43244 -0.0278892
v 3.93143 -3.97739 0.334563
v 3.66898 -2.7254 0.299661
v 3.87446 -1.68489 0.303327
v 3.80879 -0.729526 0.335738
v 3.86593 0.2825 0.288096
v 4.15876 1.7983 0.165892
v 4.13569 2.75062 0.00168074
v 4.035 3.8675 -0.155064
vt 0.0001 0.0001
vt 0.9999 0.0001
vt 0.0001 0.9999
vt 0.9999 0.9999
vt 0.111189 0.0001
vt 0.222278 0.0001
vt 0.333367 0.0001
vt 0.444455 0.0001
vt 0.555544 0.0001
vt 0.666633 0.0001
vt 0.777722 0.0001
vt 0.888811 0.0001
vt 0.888811 0.9999
vt 0.777722 0.9999
vt 0.666633 0.9999
vt 0.555544 0.9999
vt 0.444455 0.9999
vt 0.333367 0.9999
vt 0.222278 0.9999
vt 0.111189 0.9999
vt 0.0001 0.888811
vt 0.0001 0.777722
vt 0.0001 0.666633
vt 0.0001 0.555544
vt 0.0001 0.444456
vt 0.0001 0.333367
vt 0.0001 0.222278
vt 0.0001 0.111189
vt 0.9999 0.111189
vt 0.9999 0.222278
vt 0.9999 0.333367
vt 0.9999 0.444456
vt 0.9999 0.555544
vt 0.9999 0.666633
vt 0.9999 0.777722
vt 0.9999 0.888811
vt 0.11727 0.115399
vt 0.120778 0.180369
vt 0.134636 0.309595
vt 0.088728 0.473895
vt 0.085886 0.575352
vt 0.086211 0.65375
vt 0.092207 0.78313
vt 0.106956 0.892282
vt 0.22987 0.102869
vt 0.221803 0.229552
vt 0.233521 0.288953
vt 0.225541 0.443179
vt 0.221596 0.556167
vt 0.227801 0.661237
vt 0.214896 0.795203
vt 0.22542 0.865181
vt 0.335524 0.082127
vt 0.351143 0.213907
vt 0.311934 0.342467
vt 0.313159 0.422214
vt 0.347791 0.572605
vt 0.301482 0.677733
vt 0.329031 0.783086
vt 0.344903 0.885466
vt 0.476837 0.074882
vt 0.441952 0.218774
vt 0.445749 0.333088
vt 0.416414 0.43099
vt 0.439746 0.552976
vt 0.463203 0.656843
vt 0.444252 0.77653
vt 0.426137 0.866051
vt 0.573419 0.117409
vt 0.581125 0.246686
vt 0.552512 0.326
vt 0.561075 0.459693
vt 0.558356 0.550596
vt 0.530299 0.662189
vt 0.553275 0.760113
vt 0.555478 0.888821
vt 0.694433 0.13996
vt 0.667048 0.221666
vt 0.681985 0.314267
vt 0.698218 0.467249
vt 0.696819 0.535952
vt 0.68253 0.662758
vt 0.642062 0.791726
vt 0.648523 0.877957
vt 0.778029 0.111667
vt 0.809426 0.219523
vt 0.794923 0.307783
vt 0.772028 0.454562
vt 0.796846 0.533374
vt 0.807262 0.663157
vt 0.778581 0.821037
vt 0.775122 0.858219
vt 0.890224 0.104741
vt 0.865679 0.23076
vt 0.887326 0.334104
vt 0.881307 0.429754
vt 0.887973 0.53063
vt 0.918106 0.681428
vt 0.915043 0.778027
vt 0.904815 0.89094
vn 0.147467 0.164358 0.975315
vn -0.0238288 0.0312901 0.999226
vn -0.00015463 -0.159943 0.987126
vn -0.0139647 -0.12546 0.992
vn 0.0508109 0.0772885 0.995713
vn 0.0249708 0.0829805 0.996238
vn 0.0166047 0.0637435 0.997828
vn 0.00969696 0.0569428 0.99833
vn 0.0224983 0.0537025 0.998303
vn 0.00815631 0.0693417 0.99756
vn 0.00832666 0.063348 0.997957
vn 0.0048437 -0.00491393 0.999976
vn 0.212799 -0.30374 0.928686
vn 0.142446 -0.259663 0.955136
vn -0.0102816 -0.086869 0.996167
vn 0.0854536 -0.0696363 0.993906
vn -0.00367551 -0.214038 0.976818
vn -0.0474901 -0.253268 0.96623
vn -0.164003 -0.343756 0.924627
vn -0.247371 -0.386224 0.888616
vn 0.180762 0.112125 0.977115
vn 0.0280697 0.0295937 0.999168
vn 0.0108538 0.0414676 0.999081
vn -0.00439142 0.0219739 0.999749
vn 0.0210579 0.0412641 0.998926
vn 0.0165517 0.0496329 0.99863
vn 0.017606 0.0648962 0.997737
vn 0.0475875 0.0952291 0.994317
vn 0.00777499 0.0847358 0.996373
vn 0.0660511 0.0394977 0.997034
vn 0.123389 0.00226066 0.992356
vn 0.126408 0.0160458 0.991849
vn 0.0794392 0.0301067 0.996385
vn 0.0337183 0.0166571 0.999293
vn -0.0907092 0.0748611 0.99306
vn -0.210127 0.0749528 0.974797
vn 0.0361744 0.0763492 0.996425
vn 0.0372544 0.0743606 0.996535
vn 0.00531498 0.0370049 0.999301
vn -0.00719572 0.0286563 0.999563
vn 0.0165036 0.0621081 0.997933
vn 0.0638996 0.0516313 0.99662
vn 0.148116 0.117067 0.982017
vn -0.033369 -0.151598 0.987879
vn 0.0118773 0.0688046 0.997559
vn -0.0216988 0.0321033 0.999249
vn -0.0736718 0.00187157 0.997281
vn -0.048294 0.0360977 0.998181
vn 0.133093 0.140382 0.981111
vn 0.211298 0.164945 0.963404
vn 0.0521866 -0.035917 0.997991
vn -0.20265 -0.356977 0.911867
vn 0.00476258 0.0400774 0.999185
vn -0.0204193 0.019708 0.999597
vn 0.0292895 0.0735911 0.996858
vn 0.138814 0.157084 0.977781
vn 0.113714 0.181158 0.976858
vn 0.0806702 0.0334611 0.996179
vn -0.148356 -0.256804 0.955009
vn -0.0863349 -0.293498 0.952053
vn 0.0208944 0.0417589 0.998909
vn 0.0385233 0.0572545 0.997616
vn 0.0891015 0.143553 0.985623
vn 0.116223 0.190221 0.974838
vn -0.0247949 0.0729945 0.997024
vn -0.0701343 -0.050293 0.996269
vn -0.0731206 -0.208095 0.975372
vn -0.0739815 -0.264027 0.961674
vn 0.00845749 0.0177768 0.999806
vn -0.0630394 0.0844467 0.994432
vn -0.0173689 0.161468 0.986725
vn -0.0263926 0.15437 0.987661
vn -0.00568259 0.0177884 0.999826
vn -0.0233469 -0.0350137 0.999114
vn 0.0378586 -0.163597 0.985801
vn 0.0488568 -0.220316 0.974204
vn 0.0362765 -0.0199136 0.999143
vn -0.00573926 -0.0294689 0.999549
vn -0.113907 0.13696 0.984006
vn -0.172611 0.220481 0.959997
vn -0.137534 0.14783 0.979403
vn 0.0216396 -0.00463608 0.999755
vn 0.126419 -0.233521 0.964099
vn 0.0930551 -0.265075 0.959727
vn -0.00672133 0.053068 0.998568
vn 0.0242346 -0.0516521 0.998371
vn 0.0294346 -0.00566502 0.999551
vn -0.133051 0.156747 0.978636
vn -0.165859 0.15677 0.973609
vn -0.169127 0.126029 0.977503
vn 0.0608445 -0.169821 0.983595
vn 0.202265 -0.39403 0.896565
vn 0.00144211 0.0420782 0.999113
vn 0.0514627 -0.0211995 0.99845
vn 0.108358 -0.0130479 0.994026
vn 0.0389557 0.0373039 0.998544
vn -0.0299093 0.0839123 0.996024
vn -0.0856916 0.0917979 0.992084
vn -0.177503 0.110165 0.977935
vn 0.0402059 -0.162782 0.985843
f 100/100/100 4/4/4 13/13/13
f 44/44/44 3/3/3 21/21/21
f 44/44/44 19/19/19 20/20/20
f 60/60/60 19/19/19 52/52/52
f 60/60/60 17/17/17 18/18/18
f 76/76/76 17/17/17 68/68/68
f 84/84/84 16/16/16 76/76/76
f 84/84/84 14/14/14 15/15/15
f 100/100/100 14/14/14 92/92/92
f 11/11/11 93/93/93 85/85/85
f 93/93/93 86/86/86 85/85/85
f 94/94/94 87/87/87 86/86/86
f 87/87/87 96/96/96 88/88/88
f 96/96/96 89/89/89 88/88/88
f 97/97/97 90/90/90 89/89/89
f 90/90/90 99/99/99 91/91/91
f 91/91/91 100/100/100 92/92/92
f 10/10/10 85/85/85 77/77/77
f 77/77/77 86/86/86 78/78/78
f 78/78/78 87/87/87 79/79/79
f 79/79/79 88/88/88 80/80/80
f 88/88/88 81/81/81 80/80/80
f 81/81/81 90/90/90 82/82/82
f 82/82/82 91/91/91 83/83/83
f 91/91/91 84/84/84 83/83/83
f 10/10/10 69/69/69 9/9/9
f 69/69/69 78/78/78 70/70/70
f 70/70/70 79/79/79 71/71/71
f 79/79/79 72/72/72 71/71/71
f 72/72/72 81/81/81 73/73/73
f 73/73/73 82/82/82 74/74/74
f 82/82/82 75/75/75 74/74/74
f 83/83/83 76/76/76 75/75/75
f 9/9/9 61/61/61 8/8/8
f 69/69/69 62/62/62 61/61/61
f 62/62/62 71/71/71 63/63/63
f 63/63/63 72/72/72 64/64/64
f 72/72/72 65/65/65 64/64/64
f 65/65/65 74/74/74 66/66/66
f 66/66/66 75/75/75 67/67/67
f 67/67/67 76/76/76 68/68/68
f 8/8/8 53/53/53 7/7/7
f 53/53/53 62/62/62 54/54/54
f 54/54/54 63/63/63 55/55/55
f 55/55/55 64/64/64 56/56/56
f 64/64/64 57/57/57 56/56/56
f 57/57/57 66/66/66 58/58/58
f 58/58/58 67/67/67 59/59/59
f 59/59/59 68/68/68 60/60/60
f 6/6/6 53/53/53 45/45/45
f 45/45/45 54/54/54 46/46/46
f 54/54/54 47/47/47 46/46/46
f 55/55/55 48/48/48 47/47/47
f 56/56/56 49/49/49 48/48/48
f 49/49/49 58/58/58 50/50/50
f 58/58/58 51/51/51 50/50/50
f 59/59/59 52/52/52 51/51/51
f 6/6/6 37/37/37 5/5/5
f 45/45/45 38/38/38 37/37/37
f 46/46/46 39/39/39 38/38/38
f 39/39/39 48/48/48 40/40/40
f 40/40/40 49/49/49 41/41/41
f 41/41/41 50/50/50 42/42/42
f 50/50/50 43/43/43 42/42/42
f 51/51/51 44/44/44 43/43/43
f 5/5/5 28/28/28 1/1/1
f 28/28/28 38/38/38 27/27/27
f 27/27/27 39/39/39 26/26/26
f 26/26/26 40/40/40 25/25/25
f 40/40/40 24/24/24 25/25/25
f 41/41/41 23/23/23 24/24/24
f 23/23/23 43/43/43 22/22/22
f 43/43/43 21/21/21 22/22/22
f 2/2/2 93/93/93 12/12/12
f 93/93/93 30/30/30 94/94/94
f 30/30/30 95/95/95 94/94/94
f 31/31/31 96/96/96 95/95/95
f 32/32/32 97/97/97 96/96/96
f 33/33/33 98/98/98 97/97/97
f 98/98/98 35/35/35 99/99/99
f 99/99/99 36/36/36 100/100/100
f 100/100/100 36/36/36 4/4/4
f 44/44/44 20/20/20 3/3/3
f 44/44/44 52/52/52 19/19/19
f 60/60/60 18/18/18 19/19/19
f 60/60/60 68/68/68 17/17/17
f 76/76/76 16/16/16 17/17/17
f 84/84/84 15/15/15 16/16/16
f 84/84/84 92/92/92 14/14/14
f 100/100/100 13/13/13 14/14/14
f 11/11/11 12/12/12 93/93/93
f 93/93/93 94/94/94 86/86/86
f 94/94/94 95/95/95 87/87/87
f 87/87/87 95/95/95 96/96/96
f 96/96/96 97/97/97 89/89/89
f 97/97/97 98/98/98 90/90/90
f 90/90/90 98/98/98 99/99/99
f 91/91/91 99/99/99 100/100/100
f 10/10/10 11/11/11 85/85/85
f 77/77/77 85/85/85 86/86/86
f 78/78/78 86/86/86 87/87/87
f 79/79/79 87/87/87 88/88/88
f 88/88/88 89/89/89 81/81/81
f 81/81/81 89/89/89 90/90/90
f 82/82/82 90/90/90 91/91/91
f 91/91/91 92/92/92 84/84/84
f 10/10/10 77/77/77 69/69/69
f 69/69/69 77/77/77 78/78/78
f 70/70/70 78/78/78 79/79/79
f 79/79/79 80/80/80 72/72/72
f 72/72/72 80/80/80 81/81/81
f 73/73/73 81/81/81 82/82/82
f 82/82/82 83/83/83 75/75/75
f 83/83/83 84/84/84 76/76/76
f 9/9/9 69/69/69 61/61/61
f 69/69/69 70/70/70 62/62/62
f 62/62/62 70/70/70 71/71/71
f 63/63/63 71/71/71 72/72/72
f 72/72/72 73/73/73 65/65/65
f 65/65/65 73/73/73 74/74/74
f 66/66/66 74/74/74 75/75/75
f 67/67/67 75/75/75 76/76/76
f 8/8/8 61/61/61 53/53/53
f 53/53/53 61/61/61 62/62/62
f 54/54/54 62/62/62 63/63/63
f 55/55/55 63/63/63 64/64/64
f 64/64/64 65/65/65 57/57/57
f 57/57/57 65/65/65 66/66/66
f 58/58/58 66/66/66 67/67/67
f 59/59/59 67/67/67 68/68/68
f 6/6/6 7/7/7 53/53/53
f 45/45/45 53/53/53 54/54/54
f 54/54/54 55/55/55 47/47/47
f 55/55/55 56/56/56 48/48/48
f 56/56/56 57/57/57 49/49/49
f 49/49/49 57/57/57 58/58/58
f 58/58/58 59/59/59 51/51/51
f 59/59/59 60/60/60 52/52/52
f 6/6/6 45/45/45 37/37/37
f 45/45/45 46/46/46 38/38/38
f 46/46/46 47/47/47 39/39/39
f 39/39/39 47/47/47 48/48/48
f 40/40/40 48/48/48 49/49/49
f 41/41/41 49/49/49 50/50/50
f 50/50/50 51/51/51 43/43/43
f 51/51/51 52/52/52 44/44/44
f 5/5/5 37/37/37 28/28/28
f 28/28/28 37/37/37 38/38/38
f 27/27/27 38/38/38 39/39/39
f 26/26/26 39/39/39 40/40/40
f 40/40/40 41/41/41 24/24/24
f 41/41/41 42/42/42 23/23/23
f 23/23/23 42/42/42 43/43/43
f 43/43/43 44/44/44 21/21/21
f 2/2/2 29/29/29 93/93/93
f 93/93/93 29/29/29 30/30/30
f 30/30/30 31/31/31 95/95/95
f 31/31/31 32/32/32 96/96/96
f 32/32/32 33/33/33 97/97/97
f 33/33/33 34/34/34 98/98/98
f 98/98/98 34/34/34 35/35/35
f 99/99/99 35/35/35 36/36/36
