o GNATVCloth
v -4.94089 -5.01014 0.265478
v 5.19363 -5.00682 0.27067
v -5.01298 5.02105 0.004229
v 4.98702 5.02105 0.004229
v -3.82414 -5.05333 0.21239
v -2.70228 -5.09522 0.189379
v -1.57417 -5.13078 0.168631
v -0.443883 -5.15385 0.144142
v 0.69044 -5.16032 0.153352
v 1.82192 -5.15236 0.138104
v 2.95114 -5.11185 0.167463
v 4.07503 -5.0577 0.222209
v 3.85468 4.92946 0.0788588
v 2.7358 4.83974 0.177182
v 1.61954 4.73861 0.222643
v 0.656439 4.67318 0.183744
v -0.461727 4.74507 0.162944
v -1.58551 4.80908 0.177758
v -2.71945 4.88908 0.148955
v -3.85862 4.94917 0.0673249
v -4.9762 3.90446 0.0461651
v -4.95949 2.78742 0.0815614
v -4.9456 1.67085 0.112842
v -4.92997 0.55501 0.152354
v -4.91897 -0.559675 0.196102
v -4.91422 -1.67421 0.217226
v -4.91334 -2.78722 0.225897
v -4.92 -3.89915 0.217806
v 5.16269 -3.89923 0.212858
v 5.14642 -2.78565 0.186109
v 5.12762 -1.67298 0.19761
v 5.11035 -0.558721 0.178822
v 5.09096 0.555889 0.143823
v 5.06798 1.67171 0.107681
v 5.04215 2.7878 0.0700167
v 5.0128 3.90421 0.0340852
v -3.74489 -3.90225 0.168542
v -3.70668 -3.25208 0.157679
v -3.56796 -1.96503 0.120646
v -4.03576 -0.30116 0.132438
v -4.07446 0.716644 0.129418
v -4.08091 1.50113 0.117295
v -4.03832 2.79314 0.0842658
v -3.89855 3.87747 0.0426639
v -2.61054 -4.07082 0.145117
v -2.68964 -2.8001 0.132836
v -2.57356 -2.21072 0.113736
v -2.66232 -0.664282 0.161655
v -2.71268 0.467023 0.152059
v -2.66264 1.51443 0.131588
v -2.80675 2.85754 0.10544
v -2.70521 3.54497 0.142896
v -1.54382 -4.31124 0.134797
v -1.38549 -2.99952 0.122325
v -1.78812 -1.70222 0.178687
v -1.78059 -0.904364 0.173406
v -1.44544 0.588722 0.123655
v -1.92362 1.65226 0.128942
v -1.66069 2.69558 0.143245
v -1.49725 3.68947 0.146727
v -0.113162 -4.41239 0.120532
v -0.46967 -2.97223 0.119914
v -0.439398 -1.82889 0.15095
v -0.742829 -0.844661 0.130917
v -0.520028 0.373085 0.133544
v -0.295857 1.40137 0.143189
v -0.49834 2.60251 0.141614
v -0.681243 3.46525 0.144425
v 0.862717 -3.99407 0.13644
v 0.932238 -2.69991 0.141186
v 0.636661 -1.91138 0.143896
v 0.710296 -0.579081 0.111127
v 0.673236 0.33092 0.141495
v 0.377763 1.44488 0.151357
v 0.599945 2.41115 0.146479
v 0.622986 3.64358 0.131918
v 2.08367 -3.74774 0.153079
v 1.80059 -2.94025 0.132252
v 1.94231 -2.01149 0.136857
v 2.08831 -0.476207 0.154203
v 2.06753 0.203929 0.122089
v 1.90145 1.46335 0.0980763
v 1.46851 2.73621 0.165586
v 1.51369 3.53028 0.130449
v 2.93196 -3.99759 0.138377
v 3.23444 -2.90736 0.178728
v 3.07974 -2.03263 0.10361
v 2.83074 -0.576788 0.159685
v 3.06737 0.222583 0.160802
v 3.15037 1.52279 0.11181
v 2.8273 3.08198 0.12728
v 2.77859 3.422 0.173174
v 4.06532 -4.01854 0.119787
v 3.79913 -2.77035 0.181442
v 4.0002 -1.72367 0.170625
v 3.92741 -0.769983 0.127941
v 3.977 0.242711 0.135729
v 4.2476 1.76939 0.120595
v 4.19616 2.73564 0.0986007
v 4.0617 3.85725 0.0729349
vt 0.0001 0.0001
vt 0.9999 0.0001
vt 0.0001 0.9999
vt 0.9999 0.9999
vt 0.111189 0.0001
vt 0.222278 0.0001
vt 0.333367 0.0001
vt 0.444455 0.0001
vt 0.555544 0.0001
vt 0.666633 0.0001
vt 0.777722 0.0001
vt 0.888811 0.0001
vt 0.888811 0.9999
vt 0.777722 0.9999
vt 0.666633 0.9999
vt 0.555544 0.9999
vt 0.444455 0.9999
vt 0.333367 0.9999
vt 0.222278 0.9999
vt 0.111189 0.9999
vt 0.0001 0.888811
vt 0.0001 0.777722
vt 0.0001 0.666633
vt 0.0001 0.555544
vt 0.0001 0.444456
vt 0.0001 0.333367
vt 0.0001 0.222278
vt 0.0001 0.111189
vt 0.9999 0.111189
vt 0.9999 0.222278
vt 0.9999 0.333367
vt 0.9999 0.444456
vt 0.9999 0.555544
vt 0.9999 0.666633
vt 0.9999 0.777722
vt 0.9999 0.888811
vt 0.11727 0.115399
vt 0.120778 0.180369
vt 0.134636 0.309595
vt 0.088728 0.473895
vt 0.085886 0.575352
vt 0.086211 0.65375
vt 0.092207 0.78313
vt 0.106956 0.892282
vt 0.22987 0.102869
vt 0.221803 0.229552
vt 0.233521 0.288953
vt 0.225541 0.443179
vt 0.221596 0.556167
vt 0.227801 0.661237
vt 0.214896 0.795203
vt 0.22542 0.865181
vt 0.335524 0.082127
vt 0.351143 0.213907
vt 0.311934 0.342467
vt 0.313159 0.422214
vt 0.347791 0.572605
vt 0.301482 0.677733
vt 0.329031 0.783086
vt 0.344903 0.885466
vt 0.476837 0.074882
vt 0.441952 0.218774
vt 0.445749 0.333088
vt 0.416414 0.43099
vt 0.439746 0.552976
vt 0.463203 0.656843
vt 0.444252 0.77653
vt 0.426137 0.866051
vt 0.573419 0.117409
vt 0.581125 0.246686
vt 0.552512 0.326
vt 0.561075 0.459693
vt 0.558356 0.550596
vt 0.530299 0.662189
vt 0.553275 0.760113
vt 0.555478 0.888821
vt 0.694433 0.13996
vt 0.667048 0.221666
vt 0.681985 0.314267
vt 0.698218 0.467249
vt 0.696819 0.535952
vt 0.68253 0.662758
vt 0.642062 0.791726
vt 0.648523 0.877957
vt 0.778029 0.111667
vt 0.809426 0.219523
vt 0.794923 0.307783
vt 0.772028 0.454562
vt 0.796846 0.533374
vt 0.807262 0.663157
vt 0.778581 0.821037
vt 0.775122 0.858219
vt 0.890224 0.104741
vt 0.865679 0.23076
vt 0.887326 0.334104
vt 0.881307 0.429754
vt 0.887973 0.53063
vt 0.918106 0.681428
vt 0.915043 0.778027
vt 0.904815 0.89094
vn 0.049059 0.0418978 0.997917
vn -0.0686568 0.0735134 0.994928
vn -0.0258589 0.0083971 0.99963
vn 0.0523223 0.0173454 0.99848
vn 0.0376263 0.0378694 0.998574
vn 0.0218004 0.039824 0.998969
vn 0.0210591 0.0404615 0.998959
vn 0.00880073 0.0341053 0.99938
vn -0.0061864 0.0219759 0.999739
vn -0.00299803 0.0041361 0.999987
vn -0.0210619 0.0498695 0.998534
vn -0.0503047 0.0974975 0.993964
vn 0.0759214 0.00914961 0.997072
vn 0.0446812 -0.0183448 0.998833
vn 0.0062609 -0.0766217 0.997041
vn -0.0205994 -0.0575512 0.99813
vn 0.000157649 -0.0267848 0.999641
vn -0.00791915 -0.0283276 0.999567
vn -0.0469852 -0.0150175 0.998783
vn -0.0641942 -0.0205674 0.997725
vn 0.00175087 0.0356975 0.999361
vn -0.00311965 0.0297949 0.999551
vn 0.00367271 0.0261571 0.999651
vn 0.0354649 0.02646 0.999021
vn 0.063281 0.0294668 0.997561
vn 0.0713554 0.0136356 0.997358
vn 0.0638523 0.00732271 0.997932
vn 0.0466246 0.0209259 0.998693
vn -0.0883445 0.0360375 0.995438
vn -0.029465 -0.0068298 0.999542
vn -0.0317137 0.0160486 0.999368
vn -0.0346128 0.0138709 0.999305
vn -0.00231811 0.0252248 0.999679
vn 0.0197151 0.0334751 0.999245
vn 0.027924 0.030542 0.999143
vn 0.0368649 0.0293941 0.998888
vn 0.031071 0.0284128 0.999113
vn 0.0358335 0.0136774 0.999264
vn 0.0304996 0.00791311 0.999503
vn 0.0238371 0.0103868 0.999662
vn 0.000774149 0.0154909 0.99988
vn -0.00569694 0.0205644 0.999772
vn -0.00713008 0.0295987 0.999536
vn -0.0456635 0.00422737 0.998948
vn 0.0182245 0.021143 0.99961
vn 0.0136638 0.0216157 0.999673
vn -0.0158964 -0.0126725 0.999793
vn -0.0213164 -0.00952978 0.999727
vn -0.00257565 0.0130664 0.999911
vn -0.00861406 0.0196571 0.99977
vn -0.0343154 -0.00268902 0.999407
vn -0.0450736 -0.0203548 0.998776
vn 0.0138609 0.0241779 0.999612
vn 0.00160263 -0.00932792 0.999955
vn -0.00607448 -0.0149297 0.99987
vn 0.0154092 0.0148562 0.999771
vn 0.00797779 0.00695842 0.999944
vn -0.00437046 0.00216726 0.999988
vn -0.012178 -0.0128941 0.999843
vn -0.00343306 -0.0137179 0.9999
vn -0.00496516 0.0159294 0.999861
vn -0.0032277 -0.00813726 0.999962
vn 0.0109672 -0.00296653 0.999935
vn 0.0193897 0.012729 0.999731
vn -0.00584322 -0.0104901 0.999928
vn -0.00998356 -0.00245737 0.999947
vn -0.000709394 -0.000952231 0.999999
vn 0.00468683 -0.00775533 0.999959
vn -0.00864785 0.00449321 0.999952
vn -0.00103236 -0.00465347 0.999989
vn 0.00237441 0.00221947 0.999995
vn -0.00283787 0.00473485 0.999985
vn 0.00936393 -0.0111494 0.999894
vn 0.00771481 -0.00243614 0.999967
vn -0.00214148 -0.00398639 0.99999
vn -0.00380714 -0.00706183 0.999968
vn -0.00857034 -0.00526387 0.999949
vn -0.0062854 0.0156173 0.999858
vn 0.00561306 -0.00648152 0.999963
vn -0.0187731 0.0186028 0.999651
vn -0.0141503 0.0213278 0.999672
vn 0.0142824 -0.00994015 0.999849
vn 0.00684519 0.0011595 0.999976
vn -0.00677678 -0.0372458 0.999283
vn 0.00500197 -0.00822554 0.999954
vn -0.0105108 0.00788555 0.999914
vn -0.0207093 0.0210653 0.999564
vn 0.00500443 -0.0051456 0.999974
vn 0.00069541 0.0135443 0.999908
vn -0.0055844 0.0156446 0.999862
vn 0.0233906 -0.0351012 0.99911
vn 0.0289071 -0.0654825 0.997435
vn -0.0303247 0.0193056 0.999354
vn -0.0212935 0.00401366 0.999765
vn -0.0438538 0.0214026 0.998809
vn -0.0173136 0.0054625 0.999835
vn -0.00412169 0.0126641 0.999911
vn 0.00624842 0.0228486 0.999719
vn 0.0229155 0.0212341 0.999512
vn 0.0647957 -0.00246496 0.997896
f 100/100/100 4/4/4 13/13/13
f 44/44/44 3/3/3 21/21/21
f 44/44/44 19/19/19 20/20/20
f 60/60/60 19/19/19 52/52/52
f 60/60/60 17/17/17 18/18/18
f 76/76/76 17/17/17 68/68/68
f 84/84/84 16/16/16 76/76/76
f 84/84/84 14/14/14 15/15/15
f 100/100/100 14/14/14 92/92/92
f 11/11/11 93/93/93 85/85/85
f 93/93/93 86/86/86 85/85/85
f 94/94/94 87/87/87 86/86/86
f 87/87/87 96/96/96 88/88/88
f 96/96/96 89/89/89 88/88/88
f 97/97/97 90/90/90 89/89/89
f 90/90/90 99/99/99 91/91/91
f 91/91/91 100/100/100 92/92/92
f 10/10/10 85/85/85 77/77/77
f 77/77/77 86/86/86 78/78/78
f 78/78/78 87/87/87 79/79/79
f 79/79/79 88/88/88 80/80/80
f 88/88/88 81/81/81 80/80/80
f 81/81/81 90/90/90 82/82/82
f 82/82/82 91/91/91 83/83/83
f 91/91/91 84/84/84 83/83/83
f 10/10/10 69/69/69 9/9/9
f 69/69/69 78/78/78 70/70/70
f 70/70/70 79/79/79 71/71/71
f 79/79/79 72/72/72 71/71/71
f 72/72/72 81/81/81 73/73/73
f 73/73/73 82/82/82 74/74/74
f 82/82/82 75/75/75 74/74/74
f 83/83/83 76/76/76 75/75/75
f 9/9/9 61/61/61 8/8/8
f 69/69/69 62/62/62 61/61/61
f 62/62/62 71/71/71 63/63/63
f 63/63/63 72/72/72 64/64/64
f 72/72/72 65/65/65 64/64/64
f 65/65/65 74/74/74 66/66/66
f 66/66/66 75/75/75 67/67/67
f 67/67/67 76/76/76 68/68/68
f 8/8/8 53/53/53 7/7/7
f 53/53/53 62/62/62 54/54/54
f 54/54/54 63/63/63 55/55/55
f 55/55/55 64/64/64 56/56/56
f 64/64/64 57/57/57 56/56/56
f 57/57/57 66/66/66 58/58/58
f 58/58/58 67/67/67 59/59/59
f 59/59/59 68/68/68 60/60/60
f 6/6/6 53/53/53 45/45/45
f 45/45/45 54/54/54 46/46/46
f 54/54/54 47/47/47 46/46/46
f 55/55/55 48/48/48 47/47/47
f 56/56/56 49/49/49 48/48/48
f 49/49/49 58/58/58 50/50/50
f 58/58/58 51/51/51 50/50/50
f 59/59/59 52/52/52 51/51/51
f 6/6/6 37/37/37 5/5/5
f 45/45/45 38/38/38 37/37/37
f 46/46/46 39/39/39 38/38/38
f 39/39/39 48/48/48 40/40/40
f 40/40/40 49/49/49 41/41/41
f 41/41/41 50/50/50 42/42/42
f 50/50/50 43/43/43 42/42/42
f 51/51/51 44/44/44 43/43/43
f 5/5/5 28/28/28 1/1/1
f 28/28/28 38/38/38 27/27/27
f 27/27/27 39/39/39 26/26/26
f 26/26/26 40/40/40 25/25/25
f 40/40/40 24/24/24 25/25/25
f 41/41/41 23/23/23 24/24/24
f 23/23/23 43/43/43 22/22/22
f 43/43/43 21/21/21 22/22/22
f 2/2/2 93/93/93 12/12/12
f 93/93/93 30/30/30 94/94/94
f 30/30/30 95/95/95 94/94/94
f 31/31/31 96/96/96 95/95/95
f 32/32/32 97/97/97 96/96/96
f 33/33/33 98/98/98 97/97/97
f 98/98/98 35/35/35 99/99/99
f 99/99/99 36/36/36 100/100/100
f 100/100/100 36/36/36 4/4/4
f 44/44/44 20/20/20 3/3/3
f 44/44/44 52/52/52 19/19/19
f 60/60/60 18/18/18 19/19/19
f 60/60/60 68/68/68 17/17/17
f 76/76/76 16/16/16 17/17/17
f 84/84/84 15/15/15 16/16/16
f 84/84/84 92/92/92 14/14/14
f 100/100/100 13/13/13 14/14/14
f 11/11/11 12/12/12 93/93/93
f 93/93/93 94/94/94 86/86/86
f 94/94/94 95/95/95 87/87/87
f 87/87/87 95/95/95 96/96/96
f 96/96/96 97/97/97 89/89/89
f 97/97/97 98/98/98 90/90/90
f 90/90/90 98/98/98 99/99/99
f 91/91/91 99/99/99 100/100/100
f 10/10/10 11/11/11 85/85/85
f 77/77/77 85/85/85 86/86/86
f 78/78/78 86/86/86 87/87/87
f 79/79/79 87/87/87 88/88/88
f 88/88/88 89/89/89 81/81/81
f 81/81/81 89/89/89 90/90/90
f 82/82/82 90/90/90 91/91/91
f 91/91/91 92/92/92 84/84/84
f 10/10/10 77/77/77 69/69/69
f 69/69/69 77/77/77 78/78/78
f 70/70/70 78/78/78 79/79/79
f 79/79/79 80/80/80 72/72/72
f 72/72/72 80/80/80 81/81/81
f 73/73/73 81/81/81 82/82/82
f 82/82/82 83/83/83 75/75/75
f 83/83/83 84/84/84 76/76/76
f 9/9/9 69/69/69 61/61/61
f 69/69/69 70/70/70 62/62/62
f 62/62/62 70/70/70 71/71/71
f 63/63/63 71/71/71 72/72/72
f 72/72/72 73/73/73 65/65/65
f 65/65/65 73/73/73 74/74/74
f 66/66/66 74/74/74 75/75/75
f 67/67/67 75/75/75 76/76/76
f 8/8/8 61/61/61 53/53/53
f 53/53/53 61/61/61 62/62/62
f 54/54/54 62/62/62 63/63/63
f 55/55/55 63/63/63 64/64/64
f 64/64/64 65/65/65 57/57/57
f 57/57/57 65/65/65 66/66/66
f 58/58/58 66/66/66 67/67/67
f 59/59/59 67/67/67 68/68/68
f 6/6/6 7/7/7 53/53/53
f 45/45/45 53/53/53 54/54/54
f 54/54/54 55/55/55 47/47/47
f 55/55/55 56/56/56 48/48/48
f 56/56/56 57/57/57 49/49/49
f 49/49/49 57/57/57 58/58/58
f 58/58/58 59/59/59 51/51/51
f 59/59/59 60/60/60 52/52/52
f 6/6/6 45/45/45 37/37/37
f 45/45/45 46/46/46 38/38/38
f 46/46/46 47/47/47 39/39/39
f 39/39/39 47/47/47 48/48/48
f 40/40/40 48/48/48 49/49/49
f 41/41/41 49/49/49 50/50/50
f 50/50/50 51/51/51 43/43/43
f 51/51/51 52/52/52 44/44/44
f 5/5/5 37/37/37 28/28/28
f 28/28/28 37/37/37 38/38/38
f 27/27/27 38/38/38 39/39/39
f 26/26/26 39/39/39 40/40/40
f 40/40/40 41/41/41 24/24/24
f 41/41/41 42/42/42 23/23/23
f 23/23/23 42/42/42 43/43/43
f 43/43/43 44/44/44 21/21/21
f 2/2/2 29/29/29 93/93/93
f 93/93/93 29/29/29 30/30/30
f 30/30/30 31/31/31 95/95/95
f 31/31/31 32/32/32 96/96/96
f 32/32/32 33/33/33 97/97/97
f 33/33/33 34/34/34 98/98/98
f 98/98/98 34/34/34 35/35/35
f 99/99/99 35/35/35 36/36/36
