o GNATVCloth
v -4.90719 -5.00493 0.29761
v 5.17684 -4.99735 0.314986
v -5.01298 5.02105 0.004229
v 4.98702 5.02105 0.004229
v -3.79558 -5.03603 0.245201
v -2.67715 -5.06379 0.227869
v -1.55674 -5.09296 0.182636
v -0.43344 -5.11209 0.16127
v 0.695229 -5.12718 0.19237
v 1.82244 -5.11064 0.171764
v 2.94616 -5.07567 0.182566
v 4.06546 -5.03463 0.240949
v 3.85984 4.93227 0.0577426
v 2.74716 4.85342 0.199712
v 1.63334 4.73918 0.255658
v 0.636001 4.69657 0.217903
v -0.479282 4.7707 0.202144
v -1.59819 4.83593 0.171676
v -2.72822 4.91239 0.14274
v -3.8648 4.96284 0.0864087
v -4.97778 3.90471 0.038192
v -4.96138 2.78824 0.0730598
v -4.95061 1.67221 0.109948
v -4.9361 0.556467 0.141093
v -4.92002 -0.557356 0.197223
v -4.90595 -1.67077 0.243609
v -4.8976 -2.78339 0.267691
v -4.89499 -3.89561 0.266348
v 5.15627 -3.88924 0.239784
v 5.13996 -2.77614 0.226339
v 5.12273 -1.66382 0.221462
v 5.10645 -0.551664 0.181904
v 5.08758 0.560705 0.133248
v 5.06544 1.67502 0.0949429
v 5.045 2.78981 0.0571531
v 5.01915 3.90537 0.029083
v -3.72333 -3.88411 0.199196
v -3.68889 -3.23462 0.192801
v -3.55946 -1.94527 0.144585
v -4.0376 -0.288978 0.151991
v -4.07932 0.728905 0.141396
v -4.08518 1.51303 0.120955
v -4.03898 2.8052 0.0820408
v -3.90031 3.8914 0.0256996
v -2.59178 -4.03911 0.168022
v -2.67716 -2.77082 0.146609
v -2.56355 -2.18022 0.1182
v -2.66157 -0.635829 0.196753
v -2.71645 0.497214 0.187876
v -2.66607 1.54511 0.151853
v -2.80491 2.88567 0.0898702
v -2.71035 3.57794 0.163645
v -1.52786 -4.27375 0.167708
v -1.37556 -2.95936 0.154136
v -1.78238 -1.66485 0.210502
v -1.77874 -0.867347 0.199919
v -1.45228 0.626961 0.139773
v -1.92954 1.68931 0.144285
v -1.66308 2.731 0.175319
v -1.50442 3.72316 0.176947
v -0.102573 -4.37228 0.143157
v -0.46178 -2.92809 0.147466
v -0.433045 -1.78512 0.182691
v -0.742595 -0.80327 0.154713
v -0.526523 0.411931 0.154869
v -0.30264 1.4432 0.171019
v -0.508151 2.63185 0.174231
v -0.687773 3.50386 0.168316
v 0.869226 -3.95623 0.168769
v 0.936995 -2.66307 0.157015
v 0.641892 -1.87345 0.16326
v 0.709767 -0.535736 0.138662
v 0.666957 0.372833 0.165831
v 0.369072 1.48735 0.176477
v 0.589117 2.46457 0.172385
v 0.603219 3.67428 0.157079
v 2.08692 -3.70625 0.172898
v 1.80342 -2.89822 0.152805
v 1.9436 -1.97323 0.168928
v 2.08316 -0.441137 0.172056
v 2.05829 0.245203 0.143512
v 1.89431 1.50176 0.115666
v 1.48441 2.77517 0.198867
v 1.53595 3.56707 0.155496
v 2.93211 -3.96375 0.160419
v 3.23262 -2.87757 0.212229
v 3.07766 -2.00361 0.120633
v 2.82451 -0.54627 0.19886
v 3.05929 0.250685 0.189116
v 3.14486 1.55001 0.13122
v 2.83817 3.10785 0.14475
v 2.79085 3.45607 0.202313
v 4.06244 -3.99467 0.153371
v 3.7947 -2.74619 0.218835
v 3.9957 -1.7052 0.202729
v 3.92281 -0.751694 0.152867
v 3.97243 0.261942 0.153986
v 4.25122 1.78437 0.129251
v 4.19818 2.74586 0.0988556
v 4.06874 3.8708 0.065586
vt 0.0001 0.0001
vt 0.9999 0.0001
vt 0.0001 0.9999
vt 0.9999 0.9999
vt 0.111189 0.0001
vt 0.222278 0.0001
vt 0.333367 0.0001
vt 0.444455 0.0001
vt 0.555544 0.0001
vt 0.666633 0.0001
vt 0.777722 0.0001
vt 0.888811 0.0001
vt 0.888811 0.9999
vt 0.777722 0.9999
vt 0.666633 0.9999
vt 0.555544 0.9999
vt 0.444455 0.9999
vt 0.333367 0.9999
vt 0.222278 0.9999
vt 0.111189 0.9999
vt 0.0001 0.888811
vt 0.0001 0.777722
vt 0.0001 0.666633
vt 0.0001 0.555544
vt 0.0001 0.444456
vt 0.0001 0.333367
vt 0.0001 0.222278
vt 0.0001 0.111189
vt 0.9999 0.111189
vt 0.9999 0.222278
vt 0.9999 0.333367
vt 0.9999 0.444456
vt 0.9999 0.555544
vt 0.9999 0.666633
vt 0.9999 0.777722
vt 0.9999 0.888811
vt 0.11727 0.115399
vt 0.120778 0.180369
vt 0.134636 0.309595
vt 0.088728 0.473895
vt 0.085886 0.575352
vt 0.086211 0.65375
vt 0.092207 0.78313
vt 0.106956 0.892282
vt 0.22987 0.102869
vt 0.221803 0.229552
vt 0.233521 0.288953
vt 0.225541 0.443179
vt 0.221596 0.556167
vt 0.227801 0.661237
vt 0.214896 0.795203
vt 0.22542 0.865181
vt 0.335524 0.082127
vt 0.351143 0.213907
vt 0.311934 0.342467
vt 0.313159 0.422214
vt 0.347791 0.572605
vt 0.301482 0.677733
vt 0.329031 0.783086
vt 0.344903 0.885466
vt 0.476837 0.074882
vt 0.441952 0.218774
vt 0.445749 0.333088
vt 0.416414 0.43099
vt 0.439746 0.552976
vt 0.463203 0.656843
vt 0.444252 0.77653
vt 0.426137 0.866051
vt 0.573419 0.117409
vt 0.581125 0.246686
vt 0.552512 0.326
vt 0.561075 0.459693
vt 0.558356 0.550596
vt 0.530299 0.662189
vt 0.553275 0.760113
vt 0.555478 0.888821
vt 0.694433 0.13996
vt 0.667048 0.221666
vt 0.681985 0.314267
vt 0.698218 0.467249
vt 0.696819 0.535952
vt 0.68253 0.662758
vt 0.642062 0.791726
vt 0.648523 0.877957
vt 0.778029 0.111667
vt 0.809426 0.219523
vt 0.794923 0.307783
vt 0.772028 0.454562
vt 0.796846 0.533374
vt 0.807262 0.663157
vt 0.778581 0.821037
vt 0.775122 0.858219
vt 0.890224 0.104741
vt 0.865679 0.23076
vt 0.887326 0.334104
vt 0.881307 0.429754
vt 0.887973 0.53063
vt 0.918106 0.681428
vt 0.915043 0.778027
vt 0.904815 0.89094
vn 0.0478475 0.0276121 0.998473
vn -0.0769662 0.0747116 0.994231
vn -0.0310771 -0.0116141 0.999449
vn 0.0418226 0.019897 0.998927
vn 0.0403804 0.0342603 0.998597
vn 0.026307 0.0420651 0.998769
vn 0.0300426 0.0171529 0.999401
vn 0.00354139 0.0234593 0.999718
vn -0.0154521 0.0265761 0.999527
vn 0.00454209 0.00842303 0.999954
vn -0.0194851 0.0411708 0.998962
vn -0.0619968 0.083576 0.994571
vn 0.0852719 0.0241424 0.996065
vn 0.0629295 -0.0131047 0.997932
vn 0.0124967 -0.0861674 0.996202
vn -0.0191074 -0.0667784 0.997585
vn -0.0073381 -0.0280924 0.999578
vn -0.0262499 0.00252286 0.999652
vn -0.0504703 -0.00566295 0.998709
vn -0.0629346 -0.0543791 0.996535
vn 0.00462211 0.0373669 0.999291
vn -0.0103197 0.0319979 0.999435
vn -0.00783772 0.0292788 0.999541
vn 0.00911123 0.0296583 0.999519
vn 0.0370423 0.0464455 0.998234
vn 0.0643902 0.0273354 0.99755
vn 0.0707454 0.0170195 0.997349
vn 0.0558249 0.0174105 0.998289
vn -0.0823752 0.0383979 0.995861
vn -0.0271587 -0.00558965 0.999615
vn -0.0218934 0.0300111 0.99931
vn -0.0160506 0.0263402 0.999524
vn 0.0228762 0.0308609 0.999262
vn 0.0467612 0.0349719 0.998294
vn 0.0473086 0.0317015 0.998377
vn 0.0408218 0.0277934 0.99878
vn 0.0388476 0.0291355 0.99882
vn 0.0478163 0.0162901 0.998723
vn 0.0389218 0.0115138 0.999176
vn 0.00698694 0.0173633 0.999825
vn -0.0165358 0.0224654 0.999611
vn -0.014966 0.0282852 0.999488
vn -0.00815853 0.0391122 0.999202
vn -0.0515978 -0.00673828 0.998645
vn 0.0187657 0.0278329 0.999436
vn 0.0201113 0.0318582 0.99929
vn -0.0205552 -0.0166803 0.99965
vn -0.0225133 -0.0155445 0.999626
vn -0.00257483 0.0197144 0.999802
vn -0.0128873 0.0363686 0.999255
vn -0.0531669 -0.00767883 0.998556
vn -0.0720857 -0.0301883 0.996941
vn 0.0168801 0.0183867 0.999688
vn -0.00584824 -0.00737563 0.999956
vn -0.0118312 -0.0163704 0.999796
vn 0.0234912 0.0195692 0.999532
vn 0.0100195 0.00911378 0.999908
vn -0.0102447 0.00499886 0.999935
vn -0.0274197 -0.0215994 0.999391
vn -0.010581 -0.00162711 0.999943
vn -0.0102757 0.0142473 0.999846
vn 0.00169729 -0.008603 0.999962
vn 0.01498 -0.00278945 0.999884
vn 0.0182503 0.0184789 0.999663
vn -0.00836312 -0.0112699 0.999902
vn -0.0115022 -0.00669459 0.999911
vn -0.000801566 -0.00158058 0.999998
vn 0.00692313 -0.00874459 0.999938
vn -0.0078088 0.0106721 0.999913
vn -0.00227395 -0.00375642 0.99999
vn 0.00439844 -0.00297039 0.999986
vn -0.00184177 0.00563737 0.999982
vn 0.0103453 -0.00922362 0.999904
vn 0.0108842 -0.00476067 0.999929
vn -0.000670657 -0.00712097 0.999974
vn -0.00365861 -0.00838064 0.999958
vn -0.00780807 -0.00379661 0.999962
vn -0.00719312 0.0160929 0.999845
vn 0.0021395 -0.011076 0.999936
vn -0.029439 0.020605 0.999354
vn -0.0186391 0.0242749 0.999532
vn 0.0169216 -0.0122192 0.999782
vn 0.00928142 0.000891038 0.999957
vn -0.00491376 -0.0420509 0.999103
vn 0.0030788 -0.0120675 0.999922
vn -0.0189564 0.0093555 0.999777
vn -0.0236166 0.022291 0.999473
vn 0.000661337 -0.00451711 0.99999
vn 0.00537347 0.0224299 0.999734
vn -0.000927773 0.020666 0.999786
vn 0.0346706 -0.0409582 0.998559
vn 0.0418816 -0.0768401 0.996163
vn -0.035494 0.0136378 0.999277
vn -0.0293343 0.00866787 0.999532
vn -0.0488219 0.0300759 0.998355
vn -0.00908304 0.0113177 0.999895
vn 0.0119914 0.0188376 0.999751
vn 0.024891 0.0275931 0.999309
vn 0.0339239 0.0263156 0.999078
vn 0.0778137 0.000528605 0.996968
f 100/100/100 4/4/4 13/13/13
f 44/44/44 3/3/3 21/21/21
f 44/44/44 19/19/19 20/20/20
f 60/60/60 19/19/19 52/52/52
f 60/60/60 17/17/17 18/18/18
f 76/76/76 17/17/17 68/68/68
f 84/84/84 16/16/16 76/76/76
f 84/84/84 14/14/14 15/15/15
f 100/100/100 14/14/14 92/92/92
f 11/11/11 93/93/93 85/85/85
f 93/93/93 86/86/86 85/85/85
f 94/94/94 87/87/87 86/86/86
f 87/87/87 96/96/96 88/88/88
f 96/96/96 89/89/89 88/88/88
f 97/97/97 90/90/90 89/89/89
f 90/90/90 99/99/99 91/91/91
f 91/91/91 100/100/100 92/92/92
f 10/10/10 85/85/85 77/77/77
f 77/77/77 86/86/86 78/78/78
f 78/78/78 87/87/87 79/79/79
f 79/79/79 88/88/88 80/80/80
f 88/88/88 81/81/81 80/80/80
f 81/81/81 90/90/90 82/82/82
f 82/82/82 91/91/91 83/83/83
f 91/91/91 84/84/84 83/83/83
f 10/10/10 69/69/69 9/9/9
f 69/69/69 78/78/78 70/70/70
f 70/70/70 79/79/79 71/71/71
f 79/79/79 72/72/72 71/71/71
f 72/72/72 81/81/81 73/73/73
f 73/73/73 82/82/82 74/74/74
f 82/82/82 75/75/75 74/74/74
f 83/83/83 76/76/76 75/75/75
f 9/9/9 61/61/61 8/8/8
f 69/69/69 62/62/62 61/61/61
f 62/62/62 71/71/71 63/63/63
f 63/63/63 72/72/72 64/64/64
f 72/72/72 65/65/65 64/64/64
f 65/65/65 74/74/74 66/66/66
f 66/66/66 75/75/75 67/67/67
f 67/67/67 76/76/76 68/68/68
f 8/8/8 53/53/53 7/7/7
f 53/53/53 62/62/62 54/54/54
f 54/54/54 63/63/63 55/55/55
f 55/55/55 64/64/64 56/56/56
f 64/64/64 57/57/57 56/56/56
f 57/57/57 66/66/66 58/58/58
f 58/58/58 67/67/67 59/59/59
f 59/59/59 68/68/68 60/60/60
f 6/6/6 53/53/53 45/45/45
f 45/45/45 54/54/54 46/46/46
f 54/54/54 47/47/47 46/46/46
f 55/55/55 48/48/48 47/47/47
f 56/56/56 49/49/49 48/48/48
f 49/49/49 58/58/58 50/50/50
f 58/58/58 51/51/51 50/50/50
f 59/59/59 52/52/52 51/51/51
f 6/6/6 37/37/37 5/5/5
f 45/45/45 38/38/38 37/37/37
f 46/46/46 39/39/39 38/38/38
f 39/39/39 48/48/48 40/40/40
f 40/40/40 49/49/49 41/41/41
f 41/41/41 50/50/50 42/42/42
f 50/50/50 43/43/43 42/42/42
f 51/51/51 44/44/44 43/43/43
f 5/5/5 28/28/28 1/1/1
f 28/28/28 38/38/38 27/27/27
f 27/27/27 39/39/39 26/26/26
f 26/26/26 40/40/40 25/25/25
f 40/40/40 24/24/24 25/25/25
f 41/41/41 23/23/23 24/24/24
f 23/23/23 43/43/43 22/22/22
f 43/43/43 21/21/21 22/22/22
f 2/2/2 93/93/93 12/12/12
f 93/93/93 30/30/30 94/94/94
f 30/30/30 95/95/95 94/94/94
f 31/31/31 96/96/96 95/95/95
f 32/32/32 97/97/97 96/96/96
f 33/33/33 98/98/98 97/97/97
f 98/98/98 35/35/35 99/99/99
f 99/99/99 36/36/36 100/100/100
f 100/100/100 36/36/36 4/4/4
f 44/44/44 20/20/20 3/3/3
f 44/44/44 52/52/52 19/19/19
f 60/60/60 18/18/18 19/19/19
f 60/60/60 68/68/68 17/17/17
f 76/76/76 16/16/16 17/17/17
f 84/84/84 15/15/15 16/16/16
f 84/84/84 92/92/92 14/14/14
f 100/100/100 13/13/13 14/14/14
f 11/11/11 12/12/12 93/93/93
f 93/93/93 94/94/94 86/86/86
f 94/94/94 95/95/95 87/87/87
f 87/87/87 95/95/95 96/96/96
f 96/96/96 97/97/97 89/89/89
f 97/97/97 98/98/98 90/90/90
f 90/90/90 98/98/98 99/99/99
f 91/91/91 99/99/99 100/100/100
f 10/10/10 11/11/11 85/85/85
f 77/77/77 85/85/85 86/86/86
f 78/78/78 86/86/86 87/87/87
f 79/79/79 87/87/87 88/88/88
f 88/88/88 89/89/89 81/81/81
f 81/81/81 89/89/89 90/90/90
f 82/82/82 90/90/90 91/91/91
f 91/91/91 92/92/92 84/84/84
f 10/10/10 77/77/77 69/69/69
f 69/69/69 77/77/77 78/78/78
f 70/70/70 78/78/78 79/79/79
f 79/79/79 80/80/80 72/72/72
f 72/72/72 80/80/80 81/81/81
f 73/73/73 81/81/81 82/82/82
f 82/82/82 83/83/83 75/75/75
f 83/83/83 84/84/84 76/76/76
f 9/9/9 69/69/69 61/61/61
f 69/69/69 70/70/70 62/62/62
f 62/62/62 70/70/70 71/71/71
f 63/63/63 71/71/71 72/72/72
f 72/72/72 73/73/73 65/65/65
f 65/65/65 73/73/73 74/74/74
f 66/66/66 74/74/74 75/75/75
f 67/67/67 75/75/75 76/76/76
f 8/8/8 61/61/61 53/53/53
f 53/53/53 61/61/61 62/62/62
f 54/54/54 62/62/62 63/63/63
f 55/55/55 63/63/63 64/64/64
f 64/64/64 65/65/65 57/57/57
f 57/57/57 65/65/65 66/66/66
f 58/58/58 66/66/66 67/67/67
f 59/59/59 67/67/67 68/68/68
f 6/6/6 7/7/7 53/53/53
f 45/45/45 53/53/53 54/54/54
f 54/54/54 55/55/55 47/47/47
f 55/55/55 56/56/56 48/48/48
f 56/56/56 57/57/57 49/49/49
f 49/49/49 57/57/57 58/58/58
f 58/58/58 59/59/59 51/51/51
f 59/59/59 60/60/60 52/52/52
f 6/6/6 45/45/45 37/37/37
f 45/45/45 46/46/46 38/38/38
f 46/46/46 47/47/47 39/39/39
f 39/39/39 47/47/47 48/48/48
f 40/40/40 48/48/48 49/49/49
f 41/41/41 49/49/49 50/50/50
f 50/50/50 51/51/51 43/43/43
f 51/51/51 52/52/52 44/44/44
f 5/5/5 37/37/37 28/28/28
f 28/28/28 37/37/37 38/38/38
f 27/27/27 38/38/38 39/39/39
f 26/26/26 39/39/39 40/40/40
f 40/40/40 41/41/41 24/24/24
f 41/41/41 42/42/42 23/23/23
f 23/23/23 42/42/42 43/43/43
f 43/43/43 44/44/44 21/21/21
f 2/2/2 29/29/29 93/93/93
f 93/93/93 29/29/29 30/30/30
f 30/30/30 31/31/31 95/95/95
f 31/31/31 32/32/32 96/96/96
f 32/32/32 33/33/33 97/97/97
f 33/33/33 34/34/34 98/98/98
f 98/98/98 34/34/34 35/35/35
f 99/99/99 35/35/35 36/36/36
