o GNATVCloth
v -5.04023 -4.98827 0.592869
v 5.05757 -4.99801 0.392061
v -5.01298 5.02105 0.004229
v 4.98702 5.02105 0.004229
v -3.92827 -5.02811 0.531407
v -2.8097 -5.06677 0.482678
v -1.68712 -5.09354 0.486388
v -0.56128 -5.11751 0.484419
v 0.56819 -5.11139 0.510985
v 1.6966 -5.09735 0.504815
v 2.82114 -5.06906 0.451059
v 3.94268 -5.02485 0.459902
v 3.86498 4.90526 0.187924
v 2.75158 4.82324 0.360855
v 1.63006 4.77278 0.319188
v 0.511627 4.72509 0.297431
v -0.59426 4.69897 0.461961
v -1.69572 4.70658 0.630179
v -2.811 4.76795 0.513815
v -3.90099 4.88494 0.240411
v -4.97971 3.90704 0.0753856
v -4.98215 2.79247 0.139745
v -4.99173 1.67873 0.206096
v -4.99843 0.564566 0.259963
v -5.00328 -0.549057 0.315486
v -5.00939 -1.66245 0.359191
v -5.01795 -2.77512 0.389333
v -5.02279 -3.88454 0.493074
v 5.03274 -3.88909 0.305971
v 5.01991 -2.77743 0.259378
v 5.01098 -1.66472 0.246028
v 5.00428 -0.551752 0.23001
v 4.9974 0.561711 0.198712
v 4.98847 1.67624 0.164606
v 4.9815 2.79139 0.130654
v 4.97223 3.90575 0.0626003
v -3.85434 -3.88903 0.355064
v -3.81723 -3.24348 0.276332
v -3.66899 -1.95316 0.243565
v -4.12109 -0.289319 0.234772
v -4.14351 0.726595 0.186046
v -4.13494 1.50943 0.127527
v -4.06457 2.79863 0.0331709
v -3.92006 3.87422 -0.127036
v -2.72221 -4.05442 0.311643
v -2.80005 -2.78579 0.3468
v -2.6775 -2.19908 0.293539
v -2.75277 -0.653039 0.284806
v -2.7865 0.47421 0.175589
v -2.72045 1.51303 0.0301943
v -2.84085 2.84725 -0.153902
v -2.74321 3.51788 0.0340759
v -1.65713 -4.28915 0.326271
v -1.4982 -2.9766 0.396963
v -1.89172 -1.68334 0.380469
v -1.87504 -0.890345 0.319288
v -1.52463 0.580759 0.0516381
v -1.9847 1.64019 -0.0436602
v -1.70328 2.67891 0.00758494
v -1.58614 3.5845 0.416351
v -0.231377 -4.38125 0.3948
v -0.586149 -2.94379 0.48007
v -0.544148 -1.80443 0.421103
v -0.837699 -0.83068 0.303911
v -0.602024 0.366066 0.115306
v -0.364748 1.39282 0.0706008
v -0.560266 2.56531 0.169774
v -0.761106 3.38844 0.429125
v 0.741699 -3.95538 0.400903
v 0.817843 -2.66615 0.476215
v 0.530915 -1.87799 0.458799
v 0.614135 -0.576229 0.150834
v 0.592083 0.329173 0.141218
v 0.308756 1.44143 0.0750068
v 0.533923 2.40216 0.149185
v 0.54223 3.63067 0.407985
v 1.95999 -3.70237 0.35294
v 1.68028 -2.89343 0.383388
v 1.8342 -1.96913 0.441103
v 1.99195 -0.46037 0.159937
v 1.98061 0.205752 -0.00780598
v 1.83605 1.47017 0.0468848
v 1.41663 2.73604 0.127243
v 1.47915 3.54524 0.305596
v 2.80578 -3.96204 0.360075
v 3.11194 -2.87548 0.32581
v 2.9599 -1.99821 0.282759
v 2.7225 -0.536867 0.305079
v 2.9648 0.256227 0.20821
v 3.08458 1.52533 -0.0854889
v 2.76849 3.08845 -0.0636352
v 2.73422 3.44749 0.0292884
v 3.93519 -3.99565 0.302111
v 3.67542 -2.74306 0.303021
v 3.88472 -1.70141 0.288195
v 3.81971 -0.743762 0.307052
v 3.87922 0.268982 0.28225
v 4.16832 1.78727 0.145647
v 4.1479 2.73745 -0.033975
v 4.02681 3.86084 -0.0938603
vt 0.0001 0.0001
vt 0.9999 0.0001
vt 0.0001 0.9999
vt 0.9999 0.9999
vt 0.111189 0.0001
vt 0.222278 0.0001
vt 0.333367 0.0001
vt 0.444455 0.0001
vt 0.555544 0.0001
vt 0.666633 0.0001
vt 0.777722 0.0001
vt 0.888811 0.0001
vt 0.888811 0.9999
vt 0.777722 0.9999
vt 0.666633 0.9999
vt 0.555544 0.9999
vt 0.444455 0.9999
vt 0.333367 0.9999
vt 0.222278 0.9999
vt 0.111189 0.9999
vt 0.0001 0.888811
vt 0.0001 0.777722
vt 0.0001 0.666633
vt 0.0001 0.555544
vt 0.0001 0.444456
vt 0.0001 0.333367
vt 0.0001 0.222278
vt 0.0001 0.111189
vt 0.9999 0.111189
vt 0.9999 0.222278
vt 0.9999 0.333367
vt 0.9999 0.444456
vt 0.9999 0.555544
vt 0.9999 0.666633
vt 0.9999 0.777722
vt 0.9999 0.888811
vt 0.11727 0.115399
vt 0.120778 0.180369
vt 0.134636 0.309595
vt 0.088728 0.473895
vt 0.085886 0.575352
vt 0.086211 0.65375
vt 0.092207 0.78313
vt 0.106956 0.892282
vt 0.22987 0.102869
vt 0.221803 0.229552
vt 0.233521 0.288953
vt 0.225541 0.443179
vt 0.221596 0.556167
vt 0.227801 0.661237
vt 0.214896 0.795203
vt 0.22542 0.865181
vt 0.335524 0.082127
vt 0.351143 0.213907
vt 0.311934 0.342467
vt 0.313159 0.422214
vt 0.347791 0.572605
vt 0.301482 0.677733
vt 0.329031 0.783086
vt 0.344903 0.885466
vt 0.476837 0.074882
vt 0.441952 0.218774
vt 0.445749 0.333088
vt 0.416414 0.43099
vt 0.439746 0.552976
vt 0.463203 0.656843
vt 0.444252 0.77653
vt 0.426137 0.866051
vt 0.573419 0.117409
vt 0.581125 0.246686
vt 0.552512 0.326
vt 0.561075 0.459693
vt 0.558356 0.550596
vt 0.530299 0.662189
vt 0.553275 0.760113
vt 0.555478 0.888821
vt 0.694433 0.13996
vt 0.667048 0.221666
vt 0.681985 0.314267
vt 0.698218 0.467249
vt 0.696819 0.535952
vt 0.68253 0.662758
vt 0.642062 0.791726
vt 0.648523 0.877957
vt 0.778029 0.111667
vt 0.809426 0.219523
vt 0.794923 0.307783
vt 0.772028 0.454562
vt 0.796846 0.533374
vt 0.807262 0.663157
vt 0.778581 0.821037
vt 0.775122 0.858219
vt 0.890224 0.104741
vt 0.865679 0.23076
vt 0.887326 0.334104
vt 0.881307 0.429754
vt 0.887973 0.53063
vt 0.918106 0.681428
vt 0.915043 0.778027
vt 0.904815 0.89094
vn 0.0581495 0.0889857 0.994334
vn 0.0227284 0.114574 0.993155
vn -0.0236744 -0.135926 0.990436
vn 0.0075857 -0.0904733 0.99587
vn 0.0743834 0.127872 0.988997
vn 0.0334303 0.167739 0.985264
vn 0.00363938 0.195094 0.980778
vn -0.0189527 0.154826 0.98776
vn -0.0235864 0.109312 0.993728
vn 0.0226581 0.0963685 0.995088
vn 0.0284554 0.105577 0.994004
vn 0.02133 0.151661 0.988202
vn 0.173151 -0.231452 0.957313
vn 0.122838 -0.177801 0.97637
vn -0.0279556 -0.00763129 0.99958
vn 0.0810685 0.0661883 0.994508
vn 0.0735908 -0.0297081 0.996846
vn 0.0177232 -0.185494 0.982485
vn -0.221594 -0.311191 0.924151
vn -0.248669 -0.326791 0.911796
vn 0.164802 0.0817093 0.982936
vn 0.114799 0.057554 0.99172
vn 0.100376 0.061433 0.993051
vn 0.0767956 0.0488196 0.995851
vn 0.0781721 0.0439898 0.995969
vn 0.0879212 0.031768 0.995621
vn 0.106525 0.0440054 0.993336
vn 0.105181 0.109798 0.988373
vn -0.00928552 0.0594789 0.998186
vn 0.0236752 0.0169485 0.999576
vn 0.0458383 0.00331024 0.998943
vn 0.063702 0.0213368 0.997741
vn 0.0339242 0.0461229 0.99836
vn -0.0189913 0.0303687 0.999358
vn -0.140065 0.0892431 0.986112
vn -0.175811 0.0488904 0.983209
vn 0.0797167 0.137444 0.987297
vn 0.0435632 0.0571206 0.997416
vn 0.0121131 0.0286061 0.999517
vn 0.0419884 0.0439508 0.998151
vn 0.0629121 0.0714822 0.995456
vn 0.0865583 0.0706773 0.993737
vn 0.125971 0.092327 0.987728
vn -0.06092 -0.139797 0.988304
vn 0.002731 0.0555388 0.998453
vn -0.0468017 0.0330491 0.998357
vn -0.0619352 0.035549 0.997447
vn -0.0400284 0.0447254 0.998197
vn 0.0388275 0.113863 0.992737
vn 0.0773849 0.117387 0.990067
vn -0.0260596 -0.0123976 0.999583
vn -0.231299 -0.313501 0.920987
vn -0.0252135 0.0758388 0.996801
vn -0.0575848 0.00182645 0.998339
vn -0.0444745 0.0424559 0.998108
vn 0.0133231 0.117627 0.992968
vn 0.00453768 0.124473 0.992213
vn -0.0276806 0.0500106 0.998365
vn -0.169395 -0.230081 0.958315
vn -0.109161 -0.257219 0.960168
vn -0.029831 0.0491397 0.998346
vn -0.033639 -0.0142651 0.999332
vn -0.0188673 0.100208 0.994788
vn 0.0205409 0.135572 0.990555
vn -0.00966489 0.0781546 0.996894
vn -0.0343875 -0.0154952 0.999288
vn -0.0553744 -0.170965 0.98372
vn -0.0415724 -0.216601 0.975375
vn 0.0196511 0.0145691 0.999701
vn 0.0411668 -0.0300037 0.998702
vn -0.0013037 0.112909 0.993604
vn 0.0260105 0.150093 0.98833
vn 0.037603 0.0221047 0.999048
vn 0.00125274 0.00110814 0.999999
vn 0.0264533 -0.117386 0.992734
vn 0.0762351 -0.10685 0.991348
vn 0.0253277 0.0388689 0.998923
vn 0.0730544 -0.0358056 0.996685
vn 0.0310297 0.0703068 0.997043
vn -0.0965929 0.216893 0.971405
vn -0.0455612 0.124674 0.991151
vn 0.0772711 -0.0195483 0.996818
vn 0.114373 -0.144032 0.982941
vn 0.104973 -0.118592 0.987379
vn 0.0351115 0.0634304 0.997368
vn 0.0332189 0.0235754 0.99917
vn 0.0469514 0.00193233 0.998895
vn -0.0677783 0.122726 0.990123
vn -0.117374 0.16125 0.979909
vn -0.0869938 0.10685 0.990462
vn 0.110586 -0.0954829 0.989269
vn 0.178898 -0.231561 0.956229
vn 0.0251298 0.0669895 0.997437
vn 0.0241072 0.0182588 0.999543
vn 0.0193829 -6.52828e-05 0.999812
vn 0.0138099 0.0181974 0.999739
vn -0.0366213 0.087722 0.995472
vn -0.112526 0.105069 0.988078
vn -0.1416 0.0803307 0.986659
vn 0.0494941 -0.114866 0.992147
f 100/100/100 4/4/4 13/13/13
f 44/44/44 3/3/3 21/21/21
f 44/44/44 19/19/19 20/20/20
f 60/60/60 19/19/19 52/52/52
f 60/60/60 17/17/17 18/18/18
f 76/76/76 17/17/17 68/68/68
f 84/84/84 16/16/16 76/76/76
f 84/84/84 14/14/14 15/15/15
f 100/100/100 14/14/14 92/92/92
f 11/11/11 93/93/93 85/85/85
f 93/93/93 86/86/86 85/85/85
f 94/94/94 87/87/87 86/86/86
f 87/87/87 96/96/96 88/88/88
f 96/96/96 89/89/89 88/88/88
f 97/97/97 90/90/90 89/89/89
f 90/90/90 99/99/99 91/91/91
f 91/91/91 100/100/100 92/92/92
f 10/10/10 85/85/85 77/77/77
f 77/77/77 86/86/86 78/78/78
f 78/78/78 87/87/87 79/79/79
f 79/79/79 88/88/88 80/80/80
f 88/88/88 81/81/81 80/80/80
f 81/81/81 90/90/90 82/82/82
f 82/82/82 91/91/91 83/83/83
f 91/91/91 84/84/84 83/83/83
f 10/10/10 69/69/69 9/9/9
f 69/69/69 78/78/78 70/70/70
f 70/70/70 79/79/79 71/71/71
f 79/79/79 72/72/72 71/71/71
f 72/72/72 81/81/81 73/73/73
f 73/73/73 82/82/82 74/74/74
f 82/82/82 75/75/75 74/74/74
f 83/83/83 76/76/76 75/75/75
f 9/9/9 61/61/61 8/8/8
f 69/69/69 62/62/62 61/61/61
f 62/62/62 71/71/71 63/63/63
f 63/63/63 72/72/72 64/64/64
f 72/72/72 65/65/65 64/64/64
f 65/65/65 74/74/74 66/66/66
f 66/66/66 75/75/75 67/67/67
f 67/67/67 76/76/76 68/68/68
f 8/8/8 53/53/53 7/7/7
f 53/53/53 62/62/62 54/54/54
f 54/54/54 63/63/63 55/55/55
f 55/55/55 64/64/64 56/56/56
f 64/64/64 57/57/57 56/56/56
f 57/57/57 66/66/66 58/58/58
f 58/58/58 67/67/67 59/59/59
f 59/59/59 68/68/68 60/60/60
f 6/6/6 53/53/53 45/45/45
f 45/45/45 54/54/54 46/46/46
f 54/54/54 47/47/47 46/46/46
f 55/55/55 48/48/48 47/47/47
f 56/56/56 49/49/49 48/48/48
f 49/49/49 58/58/58 50/50/50
f 58/58/58 51/51/51 50/50/50
f 59/59/59 52/52/52 51/51/51
f 6/6/6 37/37/37 5/5/5
f 45/45/45 38/38/38 37/37/37
f 46/46/46 39/39/39 38/38/38
f 39/39/39 48/48/48 40/40/40
f 40/40/40 49/49/49 41/41/41
f 41/41/41 50/50/50 42/42/42
f 50/50/50 43/43/43 42/42/42
f 51/51/51 44/44/44 43/43/43
f 5/5/5 28/28/28 1/1/1
f 28/28/28 38/38/38 27/27/27
f 27/27/27 39/39/39 26/26/26
f 26/26/26 40/40/40 25/25/25
f 40/40/40 24/24/24 25/25/25
f 41/41/41 23/23/23 24/24/24
f 23/23/23 43/43/43 22/22/22
f 43/43/43 21/21/21 22/22/22
f 2/2/2 93/93/93 12/12/12
f 93/93/93 30/30/30 94/94/94
f 30/30/30 95/95/95 94/94/94
f 31/31/31 96/96/96 95/95/95
f 32/32/32 97/97/97 96/96/96
f 33/33/33 98/98/98 97/97/97
f 98/98/98 35/35/35 99/99/99
f 99/99/99 36/36/36 100/100/100
f 100/100/100 36/36/36 4/4/4
f 44/44/44 20/20/20 3/3/3
f 44/44/44 52/52/52 19/19/19
f 60/60/60 18/18/18 19/19/19
f 60/60/60 68/68/68 17/17/17
f 76/76/76 16/16/16 17/17/17
f 84/84/84 15/15/15 16/16/16
f 84/84/84 92/92/92 14/14/14
f 100/100/100 13/13/13 14/14/14
f 11/11/11 12/12/12 93/93/93
f 93/93/93 94/94/94 86/86/86
f 94/94/94 95/95/95 87/87/87
f 87/87/87 95/95/95 96/96/96
f 96/96/96 97/97/97 89/89/89
f 97/97/97 98/98/98 90/90/90
f 90/90/90 98/98/98 99/99/99
f 91/91/91 99/99/99 100/100/100
f 10/10/10 11/11/11 85/85/85
f 77/77/77 85/85/85 86/86/86
f 78/78/78 86/86/86 87/87/87
f 79/79/79 87/87/87 88/88/88
f 88/88/88 89/89/89 81/81/81
f 81/81/81 89/89/89 90/90/90
f 82/82/82 90/90/90 91/91/91
f 91/91/91 92/92/92 84/84/84
f 10/10/10 77/77/77 69/69/69
f 69/69/69 77/77/77 78/78/78
f 70/70/70 78/78/78 79/79/79
f 79/79/79 80/80/80 72/72/72
f 72/72/72 80/80/80 81/81/81
f 73/73/73 81/81/81 82/82/82
f 82/82/82 83/83/83 75/75/75
f 83/83/83 84/84/84 76/76/76
f 9/9/9 69/69/69 61/61/61
f 69/69/69 70/70/70 62/62/62
f 62/62/62 70/70/70 71/71/71
f 63/63/63 71/71/71 72/72/72
f 72/72/72 73/73/73 65/65/65
f 65/65/65 73/73/73 74/74/74
f 66/66/66 74/74/74 75/75/75
f 67/67/67 75/75/75 76/76/76
f 8/8/8 61/61/61 53/53/53
f 53/53/53 61/61/61 62/62/62
f 54/54/54 62/62/62 63/63/63
f 55/55/55 63/63/63 64/64/64
f 64/64/64 65/65/65 57/57/57
f 57/57/57 65/65/65 66/66/66
f 58/58/58 66/66/66 67/67/67
f 59/59/59 67/67/67 68/68/68
f 6/6/6 7/7/7 53/53/53
f 45/45/45 53/53/53 54/54/54
f 54/54/54 55/55/55 47/47/47
f 55/55/55 56/56/56 48/48/48
f 56/56/56 57/57/57 49/49/49
f 49/49/49 57/57/57 58/58/58
f 58/58/58 59/59/59 51/51/51
f 59/59/59 60/60/60 52/52/52
f 6/6/6 45/45/45 37/37/37
f 45/45/45 46/46/46 38/38/38
f 46/46/46 47/47/47 39/39/39
f 39/39/39 47/47/47 48/48/48
f 40/40/40 48/48/48 49/49/49
f 41/41/41 49/49/49 50/50/50
f 50/50/50 51/51/51 43/43/43
f 51/51/51 52/52/52 44/44/44
f 5/5/5 37/37/37 28/28/28
f 28/28/28 37/37/37 38/38/38
f 27/27/27 38/38/38 39/39/39
f 26/26/26 39/39/39 40/40/40
f 40/40/40 41/41/41 24/24/24
f 41/41/41 42/42/42 23/23/23
f 23/23/23 42/42/42 43/43/43
f 43/43/43 44/44/44 21/21/21
f 2/2/2 29/29/29 93/93/93
f 93/93/93 29/29/29 30/30/30
f 30/30/30 31/31/31 95/95/95
f 31/31/31 32/32/32 96/96/96
f 32/32/32 33/33/33 97/97/97
f 33/33/33 34/34/34 98/98/98
f 98/98/98 34/34/34 35/35/35
f 99/99/99 35/35/35 36/36/36
