o GNATVCloth
v -5.00495 -5.00366 0.139191
v 5.11664 -5.01021 0.131194
v -5.01298 5.02105 0.004229
v 4.98702 5.02105 0.004229
v -3.88878 -5.04845 0.108389
v -2.76834 -5.08462 0.0773684
v -1.63907 -5.11164 0.095956
v -0.508443 -5.12549 0.0937633
v 0.622328 -5.13541 0.029796
v 1.75325 -5.13133 0.0640676
v 2.87889 -5.09429 0.0963715
v 4.00023 -5.05384 0.132647
v 3.86062 4.92464 0.109144
v 2.73821 4.84254 0.080039
v 1.69058 4.81122 0.11405
v 0.604494 4.79218 0.0921721
v -0.492939 4.79386 0.0642889
v -1.6037 4.84872 0.131897
v -2.72904 4.90636 0.0832395
v -3.86571 4.9566 0.0792935
v -4.98267 3.90429 0.031283
v -4.97294 2.78788 0.0716048
v -4.97051 1.67155 0.101069
v -4.96689 0.555322 0.105808
v -4.96 -0.559913 0.110736
v -4.9554 -1.67366 0.108873
v -4.95793 -2.78641 0.100112
v -4.97689 -3.89807 0.0927271
v 5.09152 -3.89683 0.125745
v 5.08247 -2.78614 0.074567
v 5.07374 -1.67321 0.0869776
v 5.06708 -0.559356 0.0977551
v 5.05773 0.55562 0.108441
v 5.04549 1.67196 0.10411
v 5.0316 2.78852 0.0835358
v 5.01025 3.90474 0.0439348
v -3.80664 -3.89519 0.0841983
v -3.76575 -3.25182 0.0685647
v -3.62088 -1.96418 0.0485471
v -4.07977 -0.299412 0.0562871
v -4.1089 0.717943 0.0623225
v -4.10692 1.50246 0.0779454
v -4.05064 2.79568 0.0617546
v -3.90565 3.88137 0.0440366
v -2.67292 -4.06917 0.0744823
v -2.74791 -2.79832 0.0748228
v -2.6287 -2.20848 0.067955
v -2.70897 -0.664554 0.0709226
v -2.7497 0.467455 0.0617565
v -2.68845 1.51692 0.064962
v -2.81731 2.86234 0.0658418
v -2.71132 3.55776 0.072459
v -1.60919 -4.31456 0.0516711
v -1.44532 -3.00074 0.0449314
v -1.83996 -1.70144 0.0900208
v -1.82845 -0.906108 0.0891445
v -1.4834 0.585507 0.0639956
v -1.94986 1.65404 0.0606583
v -1.67146 2.69633 0.0637185
v -1.50611 3.70372 0.0611706
v -0.178737 -4.40957 0.0682809
v -0.529978 -2.98074 0.054134
v -0.49303 -1.83563 0.0640995
v -0.789618 -0.853916 0.0632922
v -0.558067 0.359811 0.0652239
v -0.324263 1.38677 0.068101
v -0.514761 2.58178 0.0624504
v -0.691719 3.47806 0.0725896
v 0.798421 -3.99106 0.0526162
v 0.873371 -2.69841 0.0805442
v 0.583714 -1.90977 0.0828441
v 0.665021 -0.583115 0.0456153
v 0.634967 0.32629 0.0695591
v 0.350765 1.43796 0.0748509
v 0.578885 2.4085 0.0717336
v 0.600925 3.68007 0.0673068
v 2.01885 -3.72985 0.0825175
v 1.73943 -2.92399 0.067025
v 1.88695 -1.99584 0.0585923
v 2.04509 -0.460643 0.0837872
v 2.02682 0.22303 0.0591116
v 1.87574 1.4793 0.0462457
v 1.46624 2.74775 0.0764934
v 1.52575 3.58694 0.0590565
v 2.8653 -3.98451 0.0736379
v 3.17224 -2.89449 0.0766295
v 3.02185 -2.02042 0.0536779
v 2.78662 -0.561265 0.0654178
v 3.0286 0.236414 0.0743911
v 3.12448 1.53507 0.0527538
v 2.81298 3.09641 0.0616454
v 2.77048 3.46417 0.0925218
v 3.99599 -4.01141 0.0487851
v 3.73735 -2.75899 0.0879782
v 3.94648 -1.71657 0.0810981
v 3.88192 -0.76183 0.0501267
v 3.94152 0.250833 0.0692695
v 4.2283 1.77735 0.0643369
v 4.18796 2.74241 0.0630604
v 4.06335 3.8671 0.052359
vt 0.0001 0.0001
vt 0.9999 0.0001
vt 0.0001 0.9999
vt 0.9999 0.9999
vt 0.111189 0.0001
vt 0.222278 0.0001
vt 0.333367 0.0001
vt 0.444455 0.0001
vt 0.555544 0.0001
vt 0.666633 0.0001
vt 0.777722 0.0001
vt 0.888811 0.0001
vt 0.888811 0.9999
vt 0.777722 0.9999
vt 0.666633 0.9999
vt 0.555544 0.9999
vt 0.444455 0.9999
vt 0.333367 0.9999
vt 0.222278 0.9999
vt 0.111189 0.9999
vt 0.0001 0.888811
vt 0.0001 0.777722
vt 0.0001 0.666633
vt 0.0001 0.555544
vt 0.0001 0.444456
vt 0.0001 0.333367
vt 0.0001 0.222278
vt 0.0001 0.111189
vt 0.9999 0.111189
vt 0.9999 0.222278
vt 0.9999 0.333367
vt 0.9999 0.444456
vt 0.9999 0.555544
vt 0.9999 0.666633
vt 0.9999 0.777722
vt 0.9999 0.888811
vt 0.11727 0.115399
vt 0.120778 0.180369
vt 0.134636 0.309595
vt 0.088728 0.473895
vt 0.085886 0.575352
vt 0.086211 0.65375
vt 0.092207 0.78313
vt 0.106956 0.892282
vt 0.22987 0.102869
vt 0.221803 0.229552
vt 0.233521 0.288953
vt 0.225541 0.443179
vt 0.221596 0.556167
vt 0.227801 0.661237
vt 0.214896 0.795203
vt 0.22542 0.865181
vt 0.335524 0.082127
vt 0.351143 0.213907
vt 0.311934 0.342467
vt 0.313159 0.422214
vt 0.347791 0.572605
vt 0.301482 0.677733
vt 0.329031 0.783086
vt 0.344903 0.885466
vt 0.476837 0.074882
vt 0.441952 0.218774
vt 0.445749 0.333088
vt 0.416414 0.43099
vt 0.439746 0.552976
vt 0.463203 0.656843
vt 0.444252 0.77653
vt 0.426137 0.866051
vt 0.573419 0.117409
vt 0.581125 0.246686
vt 0.552512 0.326
vt 0.561075 0.459693
vt 0.558356 0.550596
vt 0.530299 0.662189
vt 0.553275 0.760113
vt 0.555478 0.888821
vt 0.694433 0.13996
vt 0.667048 0.221666
vt 0.681985 0.314267
vt 0.698218 0.467249
vt 0.696819 0.535952
vt 0.68253 0.662758
vt 0.642062 0.791726
vt 0.648523 0.877957
vt 0.778029 0.111667
vt 0.809426 0.219523
vt 0.794923 0.307783
vt 0.772028 0.454562
vt 0.796846 0.533374
vt 0.807262 0.663157
vt 0.778581 0.821037
vt 0.775122 0.858219
vt 0.890224 0.104741
vt 0.865679 0.23076
vt 0.887326 0.334104
vt 0.881307 0.429754
vt 0.887973 0.53063
vt 0.918106 0.681428
vt 0.915043 0.778027
vt 0.904815 0.89094
vn 0.0292154 0.041231 0.998722
vn -0.036175 0.0417929 0.998471
vn -0.0391684 -0.003155 0.999228
vn 0.0516484 0.000311746 0.998665
vn 0.0215799 0.0268813 0.999406
vn 0.0109278 0.0194568 0.999751
vn -0.00623858 0.0557055 0.998428
vn 0.0167461 0.0348727 0.999251
vn 0.0175521 -0.00992914 0.999797
vn -0.0190015 -0.00459561 0.999809
vn -0.0140071 0.0403165 0.999089
vn -0.0184764 0.0801012 0.996615
vn 0.0370674 -0.0464945 0.998231
vn 0.00355531 -0.0222678 0.999746
vn 0.00725365 -0.0458473 0.998922
vn -0.0127162 -0.0289706 0.999499
vn 0.00596484 -0.0162596 0.99985
vn 0.00571515 -0.0611663 0.998111
vn -0.0167822 -0.0285921 0.99945
vn -0.0359469 -0.0314175 0.99886
vn -0.00414081 0.0259814 0.999654
vn 0.0104093 0.0312943 0.999456
vn 0.0280214 0.00552592 0.999592
vn 0.0538587 0.00157824 0.998547
vn 0.0612426 0.00168532 0.998122
vn 0.0508501 -0.000358855 0.998706
vn 0.0327608 -0.000992148 0.999463
vn 0.0168488 0.0196222 0.999665
vn -0.0725842 0.0242983 0.997066
vn -0.0150317 0.00233795 0.999884
vn -0.0165696 0.00363476 0.999856
vn -0.0360504 -0.0121469 0.999276
vn -0.0394883 0.00128131 0.999219
vn -0.0472485 0.0105875 0.998827
vn -0.0322544 0.0176956 0.999323
vn -0.0034024 0.0270381 0.999629
vn 0.0127605 0.0177535 0.999761
vn 0.00910429 0.0114711 0.999893
vn 0.00839277 0.00473711 0.999954
vn 0.0284094 0.000123252 0.999596
vn 0.0221107 -0.00815927 0.999722
vn 0.0175538 -0.00412986 0.999837
vn 0.00569599 0.0171064 0.999837
vn -0.0214723 -0.00259444 0.999766
vn 0.0136524 0.00486729 0.999895
vn 0.00231494 0.00784467 0.999967
vn -0.00856221 -0.00414479 0.999955
vn -0.0177634 0.000361867 0.999842
vn -0.00385859 0.00324138 0.999987
vn 0.00454761 -0.00255769 0.999986
vn -0.00418805 -0.000453474 0.999991
vn -0.00626957 -0.00608431 0.999962
vn 0.000120933 0.023989 0.999712
vn 0.00865459 -0.00822642 0.999929
vn 0.00168748 -0.010028 0.999948
vn 0.00135625 0.00768944 0.999969
vn 0.00183305 0.0047839 0.999987
vn 0.000600873 -0.000342477 1
vn -0.000149632 -0.00361999 0.999993
vn 0.00107705 -0.0194023 0.999811
vn 0.0146904 0.00898289 0.999852
vn -0.0100167 -0.00290302 0.999946
vn 0.000719358 -0.00102697 0.999999
vn 0.0152844 0.00295593 0.999879
vn -0.00146139 -0.00673858 0.999976
vn -0.00641895 0.00192353 0.999978
vn -0.00221974 -0.00224429 0.999995
vn -0.00313797 -0.000594258 0.999995
vn -0.00675997 -0.00979506 0.999929
vn 0.0028699 -0.00834411 0.999961
vn -0.00222142 0.00850898 0.999961
vn -0.00334772 0.00311877 0.99999
vn 0.00489808 -0.00941177 0.999944
vn 0.00267211 -0.000354266 0.999996
vn -0.00181601 -0.00127079 0.999998
vn -0.00194728 -0.00311282 0.999993
vn -0.0082378 -0.000340863 0.999966
vn -0.00154861 0.00738655 0.999972
vn 0.00871217 0.00082498 0.999962
vn -0.00130575 0.00993283 0.99995
vn -0.00334318 0.0111328 0.999932
vn 0.00779167 -0.00407426 0.999961
vn 0.00583115 0.000496885 0.999983
vn -0.00337541 -0.0218646 0.999755
vn 0.00599593 0.00248149 0.999979
vn -0.00348247 0.00263422 0.99999
vn -0.0120644 0.012158 0.999853
vn 0.0108557 -0.00275181 0.999937
vn -0.00162222 -0.00130007 0.999998
vn -0.00652681 0.00529089 0.999965
vn 0.00502201 -0.0238069 0.999704
vn 0.00540035 -0.036752 0.99931
vn -0.017585 0.0197248 0.999651
vn -0.0103863 -0.00464119 0.999935
vn -0.0149257 0.0137128 0.999795
vn -0.0130846 -0.000679145 0.999914
vn -0.0180042 -0.00229276 0.999835
vn -0.0298432 0.00635603 0.999534
vn -0.00896986 0.00834105 0.999925
vn 0.0249545 -0.014951 0.999577
f 100/100/100 4/4/4 13/13/13
f 44/44/44 3/3/3 21/21/21
f 44/44/44 19/19/19 20/20/20
f 60/60/60 19/19/19 52/52/52
f 60/60/60 17/17/17 18/18/18
f 76/76/76 17/17/17 68/68/68
f 84/84/84 16/16/16 76/76/76
f 84/84/84 14/14/14 15/15/15
f 100/100/100 14/14/14 92/92/92
f 11/11/11 93/93/93 85/85/85
f 93/93/93 86/86/86 85/85/85
f 94/94/94 87/87/87 86/86/86
f 87/87/87 96/96/96 88/88/88
f 96/96/96 89/89/89 88/88/88
f 97/97/97 90/90/90 89/89/89
f 90/90/90 99/99/99 91/91/91
f 91/91/91 100/100/100 92/92/92
f 10/10/10 85/85/85 77/77/77
f 77/77/77 86/86/86 78/78/78
f 78/78/78 87/87/87 79/79/79
f 79/79/79 88/88/88 80/80/80
f 88/88/88 81/81/81 80/80/80
f 81/81/81 90/90/90 82/82/82
f 82/82/82 91/91/91 83/83/83
f 91/91/91 84/84/84 83/83/83
f 10/10/10 69/69/69 9/9/9
f 69/69/69 78/78/78 70/70/70
f 70/70/70 79/79/79 71/71/71
f 79/79/79 72/72/72 71/71/71
f 72/72/72 81/81/81 73/73/73
f 73/73/73 82/82/82 74/74/74
f 82/82/82 75/75/75 74/74/74
f 83/83/83 76/76/76 75/75/75
f 9/9/9 61/61/61 8/8/8
f 69/69/69 62/62/62 61/61/61
f 62/62/62 71/71/71 63/63/63
f 63/63/63 72/72/72 64/64/64
f 72/72/72 65/65/65 64/64/64
f 65/65/65 74/74/74 66/66/66
f 66/66/66 75/75/75 67/67/67
f 67/67/67 76/76/76 68/68/68
f 8/8/8 53/53/53 7/7/7
f 53/53/53 62/62/62 54/54/54
f 54/54/54 63/63/63 55/55/55
f 55/55/55 64/64/64 56/56/56
f 64/64/64 57/57/57 56/56/56
f 57/57/57 66/66/66 58/58/58
f 58/58/58 67/67/67 59/59/59
f 59/59/59 68/68/68 60/60/60
f 6/6/6 53/53/53 45/45/45
f 45/45/45 54/54/54 46/46/46
f 54/54/54 47/47/47 46/46/46
f 55/55/55 48/48/48 47/47/47
f 56/56/56 49/49/49 48/48/48
f 49/49/49 58/58/58 50/50/50
f 58/58/58 51/51/51 50/50/50
f 59/59/59 52/52/52 51/51/51
f 6/6/6 37/37/37 5/5/5
f 45/45/45 38/38/38 37/37/37
f 46/46/46 39/39/39 38/38/38
f 39/39/39 48/48/48 40/40/40
f 40/40/40 49/49/49 41/41/41
f 41/41/41 50/50/50 42/42/42
f 50/50/50 43/43/43 42/42/42
f 51/51/51 44/44/44 43/43/43
f 5/5/5 28/28/28 1/1/1
f 28/28/28 38/38/38 27/27/27
f 27/27/27 39/39/39 26/26/26
f 26/26/26 40/40/40 25/25/25
f 40/40/40 24/24/24 25/25/25
f 41/41/41 23/23/23 24/24/24
f 23/23/23 43/43/43 22/22/22
f 43/43/43 21/21/21 22/22/22
f 2/2/2 93/93/93 12/12/12
f 93/93/93 30/30/30 94/94/94
f 30/30/30 95/95/95 94/94/94
f 31/31/31 96/96/96 95/95/95
f 32/32/32 97/97/97 96/96/96
f 33/33/33 98/98/98 97/97/97
f 98/98/98 35/35/35 99/99/99
f 99/99/99 36/36/36 100/100/100
f 100/100/100 36/36/36 4/4/4
f 44/44/44 20/20/20 3/3/3
f 44/44/44 52/52/52 19/19/19
f 60/60/60 18/18/18 19/19/19
f 60/60/60 68/68/68 17/17/17
f 76/76/76 16/16/16 17/17/17
f 84/84/84 15/15/15 16/16/16
f 84/84/84 92/92/92 14/14/14
f 100/100/100 13/13/13 14/14/14
f 11/11/11 12/12/12 93/93/93
f 93/93/93 94/94/94 86/86/86
f 94/94/94 95/95/95 87/87/87
f 87/87/87 95/95/95 96/96/96
f 96/96/96 97/97/97 89/89/89
f 97/97/97 98/98/98 90/90/90
f 90/90/90 98/98/98 99/99/99
f 91/91/91 99/99/99 100/100/100
f 10/10/10 11/11/11 85/85/85
f 77/77/77 85/85/85 86/86/86
f 78/78/78 86/86/86 87/87/87
f 79/79/79 87/87/87 88/88/88
f 88/88/88 89/89/89 81/81/81
f 81/81/81 89/89/89 90/90/90
f 82/82/82 90/90/90 91/91/91
f 91/91/91 92/92/92 84/84/84
f 10/10/10 77/77/77 69/69/69
f 69/69/69 77/77/77 78/78/78
f 70/70/70 78/78/78 79/79/79
f 79/79/79 80/80/80 72/72/72
f 72/72/72 80/80/80 81/81/81
f 73/73/73 81/81/81 82/82/82
f 82/82/82 83/83/83 75/75/75
f 83/83/83 84/84/84 76/76/76
f 9/9/9 69/69/69 61/61/61
f 69/69/69 70/70/70 62/62/62
f 62/62/62 70/70/70 71/71/71
f 63/63/63 71/71/71 72/72/72
f 72/72/72 73/73/73 65/65/65
f 65/65/65 73/73/73 74/74/74
f 66/66/66 74/74/74 75/75/75
f 67/67/67 75/75/75 76/76/76
f 8/8/8 61/61/61 53/53/53
f 53/53/53 61/61/61 62/62/62
f 54/54/54 62/62/62 63/63/63
f 55/55/55 63/63/63 64/64/64
f 64/64/64 65/65/65 57/57/57
f 57/57/57 65/65/65 66/66/66
f 58/58/58 66/66/66 67/67/67
f 59/59/59 67/67/67 68/68/68
f 6/6/6 7/7/7 53/53/53
f 45/45/45 53/53/53 54/54/54
f 54/54/54 55/55/55 47/47/47
f 55/55/55 56/56/56 48/48/48
f 56/56/56 57/57/57 49/49/49
f 49/49/49 57/57/57 58/58/58
f 58/58/58 59/59/59 51/51/51
f 59/59/59 60/60/60 52/52/52
f 6/6/6 45/45/45 37/37/37
f 45/45/45 46/46/46 38/38/38
f 46/46/46 47/47/47 39/39/39
f 39/39/39 47/47/47 48/48/48
f 40/40/40 48/48/48 49/49/49
f 41/41/41 49/49/49 50/50/50
f 50/50/50 51/51/51 43/43/43
f 51/51/51 52/52/52 44/44/44
f 5/5/5 37/37/37 28/28/28
f 28/28/28 37/37/37 38/38/38
f 27/27/27 38/38/38 39/39/39
f 26/26/26 39/39/39 40/40/40
f 40/40/40 41/41/41 24/24/24
f 41/41/41 42/42/42 23/23/23
f 23/23/23 42/42/42 43/43/43
f 43/43/43 44/44/44 21/21/21
f 2/2/2 29/29/29 93/93/93
f 93/93/93 29/29/29 30/30/30
f 30/30/30 31/31/31 95/95/95
f 31/31/31 32/32/32 96/96/96
f 32/32/32 33/33/33 97/97/97
f 33/33/33 34/34/34 98/98/98
f 98/98/98 34/34/34 35/35/35
f 99/99/99 35/35/35 36/36/36
