o GNATVCloth
v -5.10153 -4.97745 0.513577
v 4.9814 -4.99529 0.450629
v -5.01298 5.02105 0.004229
v 4.98702 5.02105 0.004229
v -3.98922 -5.01597 0.514443
v -2.8728 -5.05712 0.433838
v -1.7491 -5.08407 0.425922
v -0.622871 -5.10421 0.397161
v 0.505316 -5.10382 0.383355
v 1.62904 -5.08746 0.359781
v 2.7494 -5.05902 0.422536
v 3.86879 -5.02785 0.449218
v 3.84752 4.94777 0.165558
v 2.71844 4.88626 0.312032
v 1.58899 4.7986 0.391143
v 0.470403 4.73637 0.489328
v -0.640304 4.68344 0.39277
v -1.69754 4.70809 0.251483
v -2.8039 4.77506 0.416175
v -3.90446 4.87556 0.218183
v -5.00103 3.90766 0.0820987
v -5.00521 2.79236 0.103075
v -5.01686 1.67782 0.131084
v -5.0309 0.564515 0.179748
v -5.03693 -0.545902 0.260656
v -5.04473 -1.65591 0.340429
v -5.05388 -2.76253 0.449335
v -5.07177 -3.86898 0.550635
v 4.96534 -3.88376 0.381386
v 4.95536 -2.77757 0.278252
v 4.954 -1.66498 0.263654
v 4.95452 -0.552062 0.242899
v 4.95586 0.561545 0.218349
v 4.95325 1.67594 0.172842
v 4.95423 2.79096 0.125706
v 4.95923 3.90572 0.0603971
v -3.9036 -3.87076 0.4238
v -3.86376 -3.23108 0.313163
v -3.7105 -1.94798 0.182608
v -4.15175 -0.286719 0.159889
v -4.17088 0.72985 0.186972
v -4.15666 1.51629 0.172515
v -4.08137 2.80805 0.14845
v -3.94617 3.85888 -0.135582
v -2.7806 -4.04196 0.307795
v -2.8432 -2.77579 0.21224
v -2.72684 -2.18893 0.291842
v -2.79603 -0.644149 0.339494
v -2.81954 0.488839 0.334215
v -2.73326 1.52808 0.197117
v -2.87229 2.83148 -0.12832
v -2.82996 3.44884 0.205085
v -1.71874 -4.28014 0.342039
v -1.55408 -2.96557 0.373935
v -1.9467 -1.67878 0.452791
v -1.92312 -0.882369 0.416987
v -1.57 0.579067 0.0810663
v -2.01868 1.63148 -0.0293576
v -1.77352 2.66021 0.202076
v -1.62196 3.59174 0.305648
v -0.293095 -4.36547 0.373275
v -0.641228 -2.93439 0.382575
v -0.598656 -1.79331 0.428321
v -0.890558 -0.827246 0.320758
v -0.656743 0.387527 0.232622
v -0.416428 1.41084 0.26127
v -0.618414 2.58961 0.356567
v -0.802067 3.43978 0.357157
v 0.680379 -3.93456 0.366126
v 0.759354 -2.64288 0.388998
v 0.472286 -1.85834 0.386765
v 0.559552 -0.5237 0.348703
v 0.533925 0.375829 0.311534
v 0.253969 1.47349 0.350161
v 0.483894 2.45675 0.387958
v 0.500307 3.68354 0.418068
v 1.89738 -3.68154 0.413719
v 1.62079 -2.87554 0.333477
v 1.77261 -1.94972 0.385553
v 1.93595 -0.417668 0.352495
v 1.92115 0.253076 0.22995
v 1.78522 1.51352 0.265785
v 1.37772 2.79132 0.327552
v 1.43772 3.62712 0.340451
v 2.74117 -3.94417 0.411357
v 3.04889 -2.85738 0.36155
v 2.90106 -1.98078 0.272168
v 2.67734 -0.520858 0.355651
v 2.92177 0.275604 0.291456
v 3.02483 1.55662 0.0526543
v 2.73972 3.12383 0.142338
v 2.70084 3.49129 0.142172
v 3.86774 -3.98433 0.359144
v 3.61235 -2.73196 0.339346
v 3.82702 -1.68992 0.299545
v 3.76749 -0.734845 0.263337
v 3.83541 0.276582 0.278741
v 4.13315 1.7921 0.173816
v 4.10782 2.75163 0.0443317
v 4.00162 3.87695 0.014481
vt 0.0001 0.0001
vt 0.9999 0.0001
vt 0.0001 0.9999
vt 0.9999 0.9999
vt 0.111189 0.0001
vt 0.222278 0.0001
vt 0.333367 0.0001
vt 0.444455 0.0001
vt 0.555544 0.0001
vt 0.666633 0.0001
vt 0.777722 0.0001
vt 0.888811 0.0001
vt 0.888811 0.9999
vt 0.777722 0.9999
vt 0.666633 0.9999
vt 0.555544 0.9999
vt 0.444455 0.9999
vt 0.333367 0.9999
vt 0.222278 0.9999
vt 0.111189 0.9999
vt 0.0001 0.888811
vt 0.0001 0.777722
vt 0.0001 0.666633
vt 0.0001 0.555544
vt 0.0001 0.444456
vt 0.0001 0.333367
vt 0.0001 0.222278
vt 0.0001 0.111189
vt 0.9999 0.111189
vt 0.9999 0.222278
vt 0.9999 0.333367
vt 0.9999 0.444456
vt 0.9999 0.555544
vt 0.9999 0.666633
vt 0.9999 0.777722
vt 0.9999 0.888811
vt 0.11727 0.115399
vt 0.120778 0.180369
vt 0.134636 0.309595
vt 0.088728 0.473895
vt 0.085886 0.575352
vt 0.086211 0.65375
vt 0.092207 0.78313
vt 0.106956 0.892282
vt 0.22987 0.102869
vt 0.221803 0.229552
vt 0.233521 0.288953
vt 0.225541 0.443179
vt 0.221596 0.556167
vt 0.227801 0.661237
vt 0.214896 0.795203
vt 0.22542 0.865181
vt 0.335524 0.082127
vt 0.351143 0.213907
vt 0.311934 0.342467
vt 0.313159 0.422214
vt 0.347791 0.572605
vt 0.301482 0.677733
vt 0.329031 0.783086
vt 0.344903 0.885466
vt 0.476837 0.074882
vt 0.441952 0.218774
vt 0.445749 0.333088
vt 0.416414 0.43099
vt 0.439746 0.552976
vt 0.463203 0.656843
vt 0.444252 0.77653
vt 0.426137 0.866051
vt 0.573419 0.117409
vt 0.581125 0.246686
vt 0.552512 0.326
vt 0.561075 0.459693
vt 0.558356 0.550596
vt 0.530299 0.662189
vt 0.553275 0.760113
vt 0.555478 0.888821
vt 0.694433 0.13996
vt 0.667048 0.221666
vt 0.681985 0.314267
vt 0.698218 0.467249
vt 0.696819 0.535952
vt 0.68253 0.662758
vt 0.642062 0.791726
vt 0.648523 0.877957
vt 0.778029 0.111667
vt 0.809426 0.219523
vt 0.794923 0.307783
vt 0.772028 0.454562
vt 0.796846 0.533374
vt 0.807262 0.663157
vt 0.778581 0.821037
vt 0.775122 0.858219
vt 0.890224 0.104741
vt 0.865679 0.23076
vt 0.887326 0.334104
vt 0.881307 0.429754
vt 0.887973 0.53063
vt 0.918106 0.681428
vt 0.915043 0.778027
vt 0.904815 0.89094
vn -0.00193365 -0.0333611 0.999442
vn -0.0148321 0.0738975 0.997156
vn -0.00766334 -0.126369 0.991954
vn 0.0490334 -0.0332866 0.998242
vn 0.0602538 0.0368242 0.997504
vn 0.0497339 0.103111 0.993426
vn 0.018359 0.103074 0.994504
vn 0.00667774 0.0568959 0.998358
vn 0.0113026 0.0176944 0.99978
vn -0.0191047 -0.0119137 0.999747
vn -0.0118972 0.0353557 0.999304
vn -0.0149576 0.0859726 0.996185
vn 0.140373 -0.118483 0.982984
vn 0.120527 -0.103832 0.987265
vn 0.082087 -0.0536637 0.995179
vn 0.0286489 -0.0633476 0.99758
vn -0.0809352 -0.0184005 0.99655
vn 0.00957903 0.0491077 0.998748
vn -0.114229 -0.142201 0.983225
vn -0.207636 -0.313864 0.926486
vn 0.122152 0.107857 0.986633
vn -0.0494221 0.0222877 0.998529
vn -0.0387395 0.0274611 0.998872
vn 0.0240241 0.0297427 0.999269
vn 0.0921858 0.0712981 0.993186
vn 0.119222 0.0713755 0.990299
vn 0.143455 0.088881 0.985658
vn 0.0903359 0.0722618 0.993286
vn -0.0272664 0.0771683 0.996645
vn 0.0239148 0.0399118 0.998917
vn 0.0256044 0.0238623 0.999387
vn 0.0274549 0.00801596 0.999591
vn 0.0311115 0.0414587 0.998656
vn 0.00706791 0.0415225 0.999113
vn -0.0641126 0.0772571 0.994948
vn -0.0654078 0.0440216 0.996887
vn 0.106846 0.116062 0.987478
vn 0.107625 0.11146 0.987924
vn 0.0108357 0.0223938 0.99969
vn -0.010457 0.0163585 0.999812
vn -0.0465162 0.0273242 0.998544
vn -0.0308809 0.0196714 0.99933
vn 0.0681337 0.116345 0.990869
vn -0.0808687 -0.0999451 0.991701
vn 0.0256579 0.0878827 0.9958
vn -0.054287 0.00586978 0.998508
vn -0.141704 -0.0778553 0.986843
vn -0.121478 -0.00757434 0.992565
vn 0.0346031 0.0831862 0.995933
vn 0.10801 0.134722 0.984979
vn -0.0635873 -0.043908 0.99701
vn -0.244311 -0.254515 0.9357
vn -0.00786116 0.0452173 0.998946
vn -0.0616268 -0.0399325 0.9973
vn -0.0433326 0.00177984 0.999059
vn 0.0383828 0.0958048 0.99466
vn -0.00557901 0.118579 0.992929
vn -0.0127535 0.0198914 0.999721
vn -0.178121 -0.166327 0.96985
vn -0.0440338 -0.046059 0.997968
vn -0.00394646 0.0132415 0.999905
vn 4.89998e-05 -0.0195942 0.999808
vn 0.011706 0.0175946 0.999777
vn -0.00329587 0.107603 0.994189
vn -0.10091 0.0298832 0.994447
vn -0.138652 -0.0274171 0.989962
vn -0.0975241 -0.0749796 0.992405
vn -0.0737121 -0.0361001 0.996626
vn 9.19345e-05 0.00442422 0.99999
vn 0.0202224 -0.0196787 0.999602
vn 0.015174 0.00342969 0.999879
vn -0.00708541 0.0645975 0.997886
vn 0.00851897 -0.00259627 0.99996
vn -0.0436057 -0.0258668 0.998714
vn 0.00142551 -0.0367197 0.999325
vn 0.00500431 -0.0342261 0.999402
vn -0.020363 0.0289559 0.999373
vn 0.017784 0.0189204 0.999663
vn 0.0346218 -0.0146011 0.999294
vn -0.000333072 0.101136 0.994873
vn 0.0238067 0.0945981 0.995231
vn 0.1031 -0.022636 0.994413
vn 0.102259 -0.0201102 0.994555
vn 0.109098 -0.0462618 0.992954
vn 0.00900259 0.0114007 0.999894
vn 0.0119877 0.0651414 0.997804
vn 0.0261316 0.0180187 0.999496
vn 0.0376505 0.0444462 0.998302
vn -0.0012235 0.101406 0.994844
vn 0.0123179 0.0738555 0.997193
vn 0.119814 -0.00574587 0.99278
vn 0.131639 -0.053981 0.989827
vn 0.0112905 0.0521736 0.998574
vn 0.0197505 0.0456367 0.998763
vn 0.00478249 0.0328472 0.999449
vn 0.0297596 0.00956329 0.999511
vn 0.000957022 0.0546402 0.998506
vn -0.0520451 0.0831906 0.995174
vn -0.0407208 0.0549037 0.997661
vn 0.0705067 -0.0345681 0.996912
f 100/100/100 4/4/4 13/13/13
f 44/44/44 3/3/3 21/21/21
f 44/44/44 19/19/19 20/20/20
f 60/60/60 19/19/19 52/52/52
f 60/60/60 17/17/17 18/18/18
f 76/76/76 17/17/17 68/68/68
f 84/84/84 16/16/16 76/76/76
f 84/84/84 14/14/14 15/15/15
f 100/100/100 14/14/14 92/92/92
f 11/11/11 93/93/93 85/85/85
f 93/93/93 86/86/86 85/85/85
f 94/94/94 87/87/87 86/86/86
f 87/87/87 96/96/96 88/88/88
f 96/96/96 89/89/89 88/88/88
f 97/97/97 90/90/90 89/89/89
f 90/90/90 99/99/99 91/91/91
f 91/91/91 100/100/100 92/92/92
f 10/10/10 85/85/85 77/77/77
f 77/77/77 86/86/86 78/78/78
f 78/78/78 87/87/87 79/79/79
f 79/79/79 88/88/88 80/80/80
f 88/88/88 81/81/81 80/80/80
f 81/81/81 90/90/90 82/82/82
f 82/82/82 91/91/91 83/83/83
f 91/91/91 84/84/84 83/83/83
f 10/10/10 69/69/69 9/9/9
f 69/69/69 78/78/78 70/70/70
f 70/70/70 79/79/79 71/71/71
f 79/79/79 72/72/72 71/71/71
f 72/72/72 81/81/81 73/73/73
f 73/73/73 82/82/82 74/74/74
f 82/82/82 75/75/75 74/74/74
f 83/83/83 76/76/76 75/75/75
f 9/9/9 61/61/61 8/8/8
f 69/69/69 62/62/62 61/61/61
f 62/62/62 71/71/71 63/63/63
f 63/63/63 72/72/72 64/64/64
f 72/72/72 65/65/65 64/64/64
f 65/65/65 74/74/74 66/66/66
f 66/66/66 75/75/75 67/67/67
f 67/67/67 76/76/76 68/68/68
f 8/8/8 53/53/53 7/7/7
f 53/53/53 62/62/62 54/54/54
f 54/54/54 63/63/63 55/55/55
f 55/55/55 64/64/64 56/56/56
f 64/64/64 57/57/57 56/56/56
f 57/57/57 66/66/66 58/58/58
f 58/58/58 67/67/67 59/59/59
f 59/59/59 68/68/68 60/60/60
f 6/6/6 53/53/53 45/45/45
f 45/45/45 54/54/54 46/46/46
f 54/54/54 47/47/47 46/46/46
f 55/55/55 48/48/48 47/47/47
f 56/56/56 49/49/49 48/48/48
f 49/49/49 58/58/58 50/50/50
f 58/58/58 51/51/51 50/50/50
f 59/59/59 52/52/52 51/51/51
f 6/6/6 37/37/37 5/5/5
f 45/45/45 38/38/38 37/37/37
f 46/46/46 39/39/39 38/38/38
f 39/39/39 48/48/48 40/40/40
f 40/40/40 49/49/49 41/41/41
f 41/41/41 50/50/50 42/42/42
f 50/50/50 43/43/43 42/42/42
f 51/51/51 44/44/44 43/43/43
f 5/5/5 28/28/28 1/1/1
f 28/28/28 38/38/38 27/27/27
f 27/27/27 39/39/39 26/26/26
f 26/26/26 40/40/40 25/25/25
f 40/40/40 24/24/24 25/25/25
f 41/41/41 23/23/23 24/24/24
f 23/23/23 43/43/43 22/22/22
f 43/43/43 21/21/21 22/22/22
f 2/2/2 93/93/93 12/12/12
f 93/93/93 30/30/30 94/94/94
f 30/30/30 95/95/95 94/94/94
f 31/31/31 96/96/96 95/95/95
f 32/32/32 97/97/97 96/96/96
f 33/33/33 98/98/98 97/97/97
f 98/98/98 35/35/35 99/99/99
f 99/99/99 36/36/36 100/100/100
f 100/100/100 36/36/36 4/4/4
f 44/44/44 20/20/20 3/3/3
f 44/44/44 52/52/52 19/19/19
f 60/60/60 18/18/18 19/19/19
f 60/60/60 68/68/68 17/17/17
f 76/76/76 16/16/16 17/17/17
f 84/84/84 15/15/15 16/16/16
f 84/84/84 92/92/92 14/14/14
f 100/100/100 13/13/13 14/14/14
f 11/11/11 12/12/12 93/93/93
f 93/93/93 94/94/94 86/86/86
f 94/94/94 95/95/95 87/87/87
f 87/87/87 95/95/95 96/96/96
f 96/96/96 97/97/97 89/89/89
f 97/97/97 98/98/98 90/90/90
f 90/90/90 98/98/98 99/99/99
f 91/91/91 99/99/99 100/100/100
f 10/10/10 11/11/11 85/85/85
f 77/77/77 85/85/85 86/86/86
f 78/78/78 86/86/86 87/87/87
f 79/79/79 87/87/87 88/88/88
f 88/88/88 89/89/89 81/81/81
f 81/81/81 89/89/89 90/90/90
f 82/82/82 90/90/90 91/91/91
f 91/91/91 92/92/92 84/84/84
f 10/10/10 77/77/77 69/69/69
f 69/69/69 77/77/77 78/78/78
f 70/70/70 78/78/78 79/79/79
f 79/79/79 80/80/80 72/72/72
f 72/72/72 80/80/80 81/81/81
f 73/73/73 81/81/81 82/82/82
f 82/82/82 83/83/83 75/75/75
f 83/83/83 84/84/84 76/76/76
f 9/9/9 69/69/69 61/61/61
f 69/69/69 70/70/70 62/62/62
f 62/62/62 70/70/70 71/71/71
f 63/63/63 71/71/71 72/72/72
f 72/72/72 73/73/73 65/65/65
f 65/65/65 73/73/73 74/74/74
f 66/66/66 74/74/74 75/75/75
f 67/67/67 75/75/75 76/76/76
f 8/8/8 61/61/61 53/53/53
f 53/53/53 61/61/61 62/62/62
f 54/54/54 62/62/62 63/63/63
f 55/55/55 63/63/63 64/64/64
f 64/64/64 65/65/65 57/57/57
f 57/57/57 65/65/65 66/66/66
f 58/58/58 66/66/66 67/67/67
f 59/59/59 67/67/67 68/68/68
f 6/6/6 7/7/7 53/53/53
f 45/45/45 53/53/53 54/54/54
f 54/54/54 55/55/55 47/47/47
f 55/55/55 56/56/56 48/48/48
f 56/56/56 57/57/57 49/49/49
f 49/49/49 57/57/57 58/58/58
f 58/58/58 59/59/59 51/51/51
f 59/59/59 60/60/60 52/52/52
f 6/6/6 45/45/45 37/37/37
f 45/45/45 46/46/46 38/38/38
f 46/46/46 47/47/47 39/39/39
f 39/39/39 47/47/47 48/48/48
f 40/40/40 48/48/48 49/49/49
f 41/41/41 49/49/49 50/50/50
f 50/50/50 51/51/51 43/43/43
f 51/51/51 52/52/52 44/44/44
f 5/5/5 37/37/37 28/28/28
f 28/28/28 37/37/37 38/38/38
f 27/27/27 38/38/38 39/39/39
f 26/26/26 39/39/39 40/40/40
f 40/40/40 41/41/41 24/24/24
f 41/41/41 42/42/42 23/23/23
f 23/23/23 42/42/42 43/43/43
f 43/43/43 44/44/44 21/21/21
f 2/2/2 29/29/29 93/93/93
f 93/93/93 29/29/29 30/30/30
f 30/30/30 31/31/31 95/95/95
f 31/31/31 32/32/32 96/96/96
f 32/32/32 33/33/33 97/97/97
f 33/33/33 34/34/34 98/98/98
f 98/98/98 34/34/34 35/35/35
f 99/99/99 35/35/35 36/36/36
