o GNATVCloth
v -5.0037 -4.99881 0.0304964
v 5.00946 -4.99786 0.030103
v -5.01298 5.02105 0.004229
v 4.98702 5.02105 0.004229
v -3.88974 -5.01146 0.027471
v -2.77534 -5.01325 0.0161701
v -1.66303 -5.00428 0.0143704
v -0.554444 -5.00307 0.0220839
v 0.556141 -5.00997 0.0059473
v 1.66998 -5.01557 0.0142562
v 2.78284 -5.01293 0.0229929
v 3.89626 -5.00765 0.0357267
v 3.87599 4.98206 0.0264592
v 2.77823 4.96733 0.0202173
v 1.67148 4.97147 0.0286012
v 0.559719 4.97157 0.0230749
v -0.553231 4.97542 0.012074
v -1.6631 4.97356 0.0323372
v -2.77427 4.9775 0.0178496
v -3.89041 4.98548 0.0263937
v -5.00102 3.90651 0.0336962
v -4.99411 2.79185 0.0272489
v -4.99512 1.67789 0.0171022
v -4.99316 0.564448 0.0264686
v -4.99117 -0.548505 0.0294552
v -4.99565 -1.66106 0.0248181
v -4.997 -2.77283 0.0203891
v -4.99894 -3.8848 0.0186988
v 5.00433 -3.8866 0.0339089
v 5.00222 -2.77431 0.0143092
v 5.00086 -1.66197 0.01626
v 5.00225 -0.549597 0.0236029
v 5.0045 0.563492 0.0284998
v 5.00468 1.67684 0.0244012
v 5.00152 2.79111 0.0196559
v 4.99785 3.90608 0.0210601
v -3.82609 -3.85917 0.0220917
v -3.79173 -3.20998 0.0166755
v -3.65599 -1.91861 0.00975154
v -4.11587 -0.272272 0.0143416
v -4.14566 0.744774 0.0135963
v -4.14096 1.52832 0.021527
v -4.08341 2.82246 0.0144961
v -3.9329 3.91154 0.0149275
v -2.698 -3.98716 0.0186423
v -2.78174 -2.72496 0.0181386
v -2.66514 -2.13091 0.0146891
v -2.74571 -0.587186 0.0174383
v -2.78657 0.543191 0.0151555
v -2.7254 1.59096 0.0157151
v -2.85319 2.93023 0.0167548
v -2.74698 3.62982 0.0165776
v -1.64627 -4.19807 0.013333
v -1.49193 -2.88071 0.00805949
v -1.88003 -1.59467 0.0207123
v -1.86926 -0.799261 0.0216406
v -1.5226 0.70606 0.0171668
v -1.98775 1.75522 0.0152668
v -1.71155 2.80904 0.0150444
v -1.55101 3.82818 0.0138498
v -0.232165 -4.27011 0.0165243
v -0.586538 -2.83242 0.0137961
v -0.545734 -1.6881 0.0165571
v -0.837086 -0.71032 0.0155074
v -0.601504 0.508427 0.0163892
v -0.368308 1.54859 0.0175787
v -0.558736 2.74438 0.0150856
v -0.7387 3.63661 0.0178885
v 0.733733 -3.84608 0.0121673
v 0.807059 -2.5521 0.0204795
v 0.52187 -1.75923 0.0242078
v 0.609232 -0.423309 0.0112294
v 0.584398 0.486039 0.0166443
v 0.303986 1.60176 0.0184346
v 0.529596 2.57848 0.019261
v 0.552907 3.86252 0.0196768
v 1.94527 -3.61663 0.0185749
v 1.66852 -2.80275 0.0164263
v 1.81719 -1.87783 0.0152353
v 1.98089 -0.349176 0.0215901
v 1.96766 0.339398 0.0158411
v 1.82279 1.60724 0.0115249
v 1.41891 2.89723 0.0204412
v 1.48477 3.75231 0.0136809
v 2.78171 -3.89685 0.017606
v 3.09525 -2.82065 0.0189962
v 2.94842 -1.94204 0.013682
v 2.72015 -0.474354 0.0152099
v 2.97 0.314047 0.0164187
v 3.07359 1.61235 0.0137142
v 2.78656 3.19186 0.0157065
v 2.75213 3.56271 0.0244408
v 3.90657 -3.96529 0.0120467
v 3.65846 -2.70711 0.0224715
v 3.87349 -1.67229 0.0198752
v 3.81387 -0.71708 0.010967
v 3.8823 0.292947 0.0173235
v 4.18536 1.80547 0.016369
v 4.15314 2.77219 0.0165388
v 4.05099 3.89952 0.0154576
vt 0.0001 0.0001
vt 0.9999 0.0001
vt 0.0001 0.9999
vt 0.9999 0.9999
vt 0.111189 0.0001
vt 0.222278 0.0001
vt 0.333367 0.0001
vt 0.444455 0.0001
vt 0.555544 0.0001
vt 0.666633 0.0001
vt 0.777722 0.0001
vt 0.888811 0.0001
vt 0.888811 0.9999
vt 0.777722 0.9999
vt 0.666633 0.9999
vt 0.555544 0.9999
vt 0.444455 0.9999
vt 0.333367 0.9999
vt 0.222278 0.9999
vt 0.111189 0.9999
vt 0.0001 0.888811
vt 0.0001 0.777722
vt 0.0001 0.666633
vt 0.0001 0.555544
vt 0.0001 0.444456
vt 0.0001 0.333367
vt 0.0001 0.222278
vt 0.0001 0.111189
vt 0.9999 0.111189
vt 0.9999 0.222278
vt 0.9999 0.333367
vt 0.9999 0.444456
vt 0.9999 0.555544
vt 0.9999 0.666633
vt 0.9999 0.777722
vt 0.9999 0.888811
vt 0.11727 0.115399
vt 0.120778 0.180369
vt 0.134636 0.309595
vt 0.088728 0.473895
vt 0.085886 0.575352
vt 0.086211 0.65375
vt 0.092207 0.78313
vt 0.106956 0.892282
vt 0.22987 0.102869
vt 0.221803 0.229552
vt 0.233521 0.288953
vt 0.225541 0.443179
vt 0.221596 0.556167
vt 0.227801 0.661237
vt 0.214896 0.795203
vt 0.22542 0.865181
vt 0.335524 0.082127
vt 0.351143 0.213907
vt 0.311934 0.342467
vt 0.313159 0.422214
vt 0.347791 0.572605
vt 0.301482 0.677733
vt 0.329031 0.783086
vt 0.344903 0.885466
vt 0.476837 0.074882
vt 0.441952 0.218774
vt 0.445749 0.333088
vt 0.416414 0.43099
vt 0.439746 0.552976
vt 0.463203 0.656843
vt 0.444252 0.77653
vt 0.426137 0.866051
vt 0.573419 0.117409
vt 0.581125 0.246686
vt 0.552512 0.326
vt 0.561075 0.459693
vt 0.558356 0.550596
vt 0.530299 0.662189
vt 0.553275 0.760113
vt 0.555478 0.888821
vt 0.694433 0.13996
vt 0.667048 0.221666
vt 0.681985 0.314267
vt 0.698218 0.467249
vt 0.696819 0.535952
vt 0.68253 0.662758
vt 0.642062 0.791726
vt 0.648523 0.877957
vt 0.778029 0.111667
vt 0.809426 0.219523
vt 0.794923 0.307783
vt 0.772028 0.454562
vt 0.796846 0.533374
vt 0.807262 0.663157
vt 0.778581 0.821037
vt 0.775122 0.858219
vt 0.890224 0.104741
vt 0.865679 0.23076
vt 0.887326 0.334104
vt 0.881307 0.429754
vt 0.887973 0.53063
vt 0.918106 0.681428
vt 0.915043 0.778027
vt 0.904815 0.89094
vn 0.00283583 0.0105774 0.99994
vn -0.00740532 0.00957589 0.999927
vn -0.00130816 0.00836873 0.999964
vn 0.00711381 0.00407438 0.999966
vn 0.00332812 0.00650639 0.999973
vn 0.00475315 -1.23919e-06 0.999989
vn -0.00267577 0.00134234 0.999996
vn 0.00191578 0.0036714 0.999991
vn 0.00480159 -0.00315837 0.999983
vn -0.00502807 -0.00115492 0.999987
vn -0.00472262 0.0108256 0.99993
vn -0.00334512 0.022745 0.999736
vn 0.00735492 -0.00897305 0.999933
vn 3.38748e-05 -0.00459976 0.999989
vn 0.00127647 -0.0124327 0.999922
vn -0.00293289 -0.00586024 0.999979
vn 0.000590596 -0.00195799 0.999998
vn 0.00259014 -0.0158854 0.99987
vn -0.00117886 -0.00756683 0.999971
vn -0.006239 -0.0104292 0.999926
vn 0.016406 0.00603105 0.999847
vn 0.0142505 -0.00740792 0.999871
vn 0.00414005 -0.00128649 0.999991
vn 0.0149128 0.00410584 0.99988
vn 0.0175055 -0.000764823 0.999847
vn 0.013466 -0.00262164 0.999906
vn 0.00594906 -0.000222646 0.999982
vn -0.000178275 0.00559822 0.999984
vn -0.0204147 0.00703004 0.999767
vn -0.00152342 0.00247537 0.999996
vn -0.00112052 0.000393942 0.999999
vn -0.00948181 -0.00553205 0.99994
vn -0.00958387 0.000687052 0.999954
vn -0.00918163 0.0039576 0.99995
vn -0.00548398 0.000887786 0.999985
vn -0.00519543 0.00472889 0.999975
vn 0.00216222 0.00459244 0.999987
vn 0.000407361 0.0043445 0.99999
vn 0.00146945 0.00111859 0.999998
vn 0.00790209 -0.000140498 0.999969
vn 0.00394695 -0.00173063 0.999991
vn -0.000678449 -0.00233696 0.999997
vn 0.00602644 -0.00112143 0.999981
vn 0.00254477 0.000322586 0.999997
vn 0.00388183 0.0012197 0.999992
vn 0.00136581 0.00354206 0.999993
vn -0.00154355 -0.000712382 0.999999
vn -0.00432894 -0.000850992 0.99999
vn -0.00163404 0.00113782 0.999998
vn 0.00115979 -0.0012625 0.999999
vn -0.000186156 -0.000248994 1
vn 0.000632822 -0.000112589 1
vn -0.000820799 0.00254182 0.999996
vn 0.0015485 -0.00116442 0.999998
vn -4.97074e-05 -0.00359611 0.999994
vn 8.23082e-05 0.000918321 1
vn 0.000334149 0.000874636 1
vn -0.000174775 0.000421508 1
vn 5.96111e-05 -6.64587e-05 1
vn 0.000233614 -0.00417854 0.999991
vn 0.00423742 0.00143827 0.99999
vn -0.00373177 -0.00110146 0.999992
vn -0.00194881 9.91631e-05 0.999998
vn 0.00359765 0.000346411 0.999994
vn 0.000446614 -0.00199563 0.999998
vn -0.00132024 0.000324645 0.999999
vn -0.00161859 -0.000519714 0.999999
vn -0.00231364 0.000983279 0.999997
vn -0.00112741 -0.00315599 0.999994
vn 0.00144519 -0.00411532 0.99999
vn -0.000580662 0.00178272 0.999998
vn -0.00108124 0.00159398 0.999998
vn 0.000975849 -0.00210674 0.999997
vn 0.00128561 -0.00109234 0.999999
vn -0.000723063 -0.00134888 0.999999
vn -0.000660394 0.000289569 1
vn -0.00226455 -0.000778665 0.999997
vn 2.21105e-05 0.00059488 1
vn 0.0032161 -0.000101127 0.999995
vn 0.000623621 0.00209478 0.999998
vn 1.23944e-05 0.00261178 0.999997
vn 0.0017465 -0.00132414 0.999998
vn 0.00270888 0.00055239 0.999996
vn -0.000354978 -0.00491089 0.999988
vn 0.000586141 0.000474394 1
vn -0.0015903 -0.000109721 0.999999
vn -0.00278438 0.00332598 0.999991
vn 0.0042771 -0.000276283 0.999991
vn 1.93319e-05 -0.00117083 0.999999
vn -0.00156548 0.000764343 0.999999
vn 0.000548442 -0.00669076 0.999977
vn -0.000329184 -0.0102489 0.999947
vn -0.00451491 0.00567562 0.999974
vn -0.00150607 -0.00121163 0.999998
vn -0.00093444 0.00438092 0.99999
vn -0.00281706 -0.000456784 0.999996
vn -0.0056719 -0.00169277 0.999982
vn -0.00626444 0.00187883 0.999979
vn -0.00282597 -0.000320613 0.999996
vn 0.00304664 -0.00300445 0.999991
f 100/100/100 4/4/4 13/13/13
f 44/44/44 3/3/3 21/21/21
f 44/44/44 19/19/19 20/20/20
f 60/60/60 19/19/19 52/52/52
f 60/60/60 17/17/17 18/18/18
f 76/76/76 17/17/17 68/68/68
f 84/84/84 16/16/16 76/76/76
f 84/84/84 14/14/14 15/15/15
f 100/100/100 14/14/14 92/92/92
f 11/11/11 93/93/93 85/85/85
f 93/93/93 86/86/86 85/85/85
f 94/94/94 87/87/87 86/86/86
f 87/87/87 96/96/96 88/88/88
f 96/96/96 89/89/89 88/88/88
f 97/97/97 90/90/90 89/89/89
f 90/90/90 99/99/99 91/91/91
f 91/91/91 100/100/100 92/92/92
f 10/10/10 85/85/85 77/77/77
f 77/77/77 86/86/86 78/78/78
f 78/78/78 87/87/87 79/79/79
f 79/79/79 88/88/88 80/80/80
f 88/88/88 81/81/81 80/80/80
f 81/81/81 90/90/90 82/82/82
f 82/82/82 91/91/91 83/83/83
f 91/91/91 84/84/84 83/83/83
f 10/10/10 69/69/69 9/9/9
f 69/69/69 78/78/78 70/70/70
f 70/70/70 79/79/79 71/71/71
f 79/79/79 72/72/72 71/71/71
f 72/72/72 81/81/81 73/73/73
f 73/73/73 82/82/82 74/74/74
f 82/82/82 75/75/75 74/74/74
f 83/83/83 76/76/76 75/75/75
f 9/9/9 61/61/61 8/8/8
f 69/69/69 62/62/62 61/61/61
f 62/62/62 71/71/71 63/63/63
f 63/63/63 72/72/72 64/64/64
f 72/72/72 65/65/65 64/64/64
f 65/65/65 74/74/74 66/66/66
f 66/66/66 75/75/75 67/67/67
f 67/67/67 76/76/76 68/68/68
f 8/8/8 53/53/53 7/7/7
f 53/53/53 62/62/62 54/54/54
f 54/54/54 63/63/63 55/55/55
f 55/55/55 64/64/64 56/56/56
f 64/64/64 57/57/57 56/56/56
f 57/57/57 66/66/66 58/58/58
f 58/58/58 67/67/67 59/59/59
f 59/59/59 68/68/68 60/60/60
f 6/6/6 53/53/53 45/45/45
f 45/45/45 54/54/54 46/46/46
f 54/54/54 47/47/47 46/46/46
f 55/55/55 48/48/48 47/47/47
f 56/56/56 49/49/49 48/48/48
f 49/49/49 58/58/58 50/50/50
f 58/58/58 51/51/51 50/50/50
f 59/59/59 52/52/52 51/51/51
f 6/6/6 37/37/37 5/5/5
f 45/45/45 38/38/38 37/37/37
f 46/46/46 39/39/39 38/38/38
f 39/39/39 48/48/48 40/40/40
f 40/40/40 49/49/49 41/41/41
f 41/41/41 50/50/50 42/42/42
f 50/50/50 43/43/43 42/42/42
f 51/51/51 44/44/44 43/43/43
f 5/5/5 28/28/28 1/1/1
f 28/28/28 38/38/38 27/27/27
f 27/27/27 39/39/39 26/26/26
f 26/26/26 40/40/40 25/25/25
f 40/40/40 24/24/24 25/25/25
f 41/41/41 23/23/23 24/24/24
f 23/23/23 43/43/43 22/22/22
f 43/43/43 21/21/21 22/22/22
f 2/2/2 93/93/93 12/12/12
f 93/93/93 30/30/30 94/94/94
f 30/30/30 95/95/95 94/94/94
f 31/31/31 96/96/96 95/95/95
f 32/32/32 97/97/97 96/96/96
f 33/33/33 98/98/98 97/97/97
f 98/98/98 35/35/35 99/99/99
f 99/99/99 36/36/36 100/100/100
f 100/100/100 36/36/36 4/4/4
f 44/44/44 20/20/20 3/3/3
f 44/44/44 52/52/52 19/19/19
f 60/60/60 18/18/18 19/19/19
f 60/60/60 68/68/68 17/17/17
f 76/76/76 16/16/16 17/17/17
f 84/84/84 15/15/15 16/16/16
f 84/84/84 92/92/92 14/14/14
f 100/100/100 13/13/13 14/14/14
f 11/11/11 12/12/12 93/93/93
f 93/93/93 94/94/94 86/86/86
f 94/94/94 95/95/95 87/87/87
f 87/87/87 95/95/95 96/96/96
f 96/96/96 97/97/97 89/89/89
f 97/97/97 98/98/98 90/90/90
f 90/90/90 98/98/98 99/99/99
f 91/91/91 99/99/99 100/100/100
f 10/10/10 11/11/11 85/85/85
f 77/77/77 85/85/85 86/86/86
f 78/78/78 86/86/86 87/87/87
f 79/79/79 87/87/87 88/88/88
f 88/88/88 89/89/89 81/81/81
f 81/81/81 89/89/89 90/90/90
f 82/82/82 90/90/90 91/91/91
f 91/91/91 92/92/92 84/84/84
f 10/10/10 77/77/77 69/69/69
f 69/69/69 77/77/77 78/78/78
f 70/70/70 78/78/78 79/79/79
f 79/79/79 80/80/80 72/72/72
f 72/72/72 80/80/80 81/81/81
f 73/73/73 81/81/81 82/82/82
f 82/82/82 83/83/83 75/75/75
f 83/83/83 84/84/84 76/76/76
f 9/9/9 69/69/69 61/61/61
f 69/69/69 70/70/70 62/62/62
f 62/62/62 70/70/70 71/71/71
f 63/63/63 71/71/71 72/72/72
f 72/72/72 73/73/73 65/65/65
f 65/65/65 73/73/73 74/74/74
f 66/66/66 74/74/74 75/75/75
f 67/67/67 75/75/75 76/76/76
f 8/8/8 61/61/61 53/53/53
f 53/53/53 61/61/61 62/62/62
f 54/54/54 62/62/62 63/63/63
f 55/55/55 63/63/63 64/64/64
f 64/64/64 65/65/65 57/57/57
f 57/57/57 65/65/65 66/66/66
f 58/58/58 66/66/66 67/67/67
f 59/59/59 67/67/67 68/68/68
f 6/6/6 7/7/7 53/53/53
f 45/45/45 53/53/53 54/54/54
f 54/54/54 55/55/55 47/47/47
f 55/55/55 56/56/56 48/48/48
f 56/56/56 57/57/57 49/49/49
f 49/49/49 57/57/57 58/58/58
f 58/58/58 59/59/59 51/51/51
f 59/59/59 60/60/60 52/52/52
f 6/6/6 45/45/45 37/37/37
f 45/45/45 46/46/46 38/38/38
f 46/46/46 47/47/47 39/39/39
f 39/39/39 47/47/47 48/48/48
f 40/40/40 48/48/48 49/49/49
f 41/41/41 49/49/49 50/50/50
f 50/50/50 51/51/51 43/43/43
f 51/51/51 52/52/52 44/44/44
f 5/5/5 37/37/37 28/28/28
f 28/28/28 37/37/37 38/38/38
f 27/27/27 38/38/38 39/39/39
f 26/26/26 39/39/39 40/40/40
f 40/40/40 41/41/41 24/24/24
f 41/41/41 42/42/42 23/23/23
f 23/23/23 42/42/42 43/43/43
f 43/43/43 44/44/44 21/21/21
f 2/2/2 29/29/29 93/93/93
f 93/93/93 29/29/29 30/30/30
f 30/30/30 31/31/31 95/95/95
f 31/31/31 32/32/32 96/96/96
f 32/32/32 33/33/33 97/97/97
f 33/33/33 34/34/34 98/98/98
f 98/98/98 34/34/34 35/35/35
f 99/99/99 35/35/35 36/36/36
