o GNATVCloth
v -5.05889 -4.97878 0.464683
v 5.05136 -4.99669 0.467008
v -5.01298 5.02105 0.004229
v 4.98702 5.02105 0.004229
v -3.95082 -5.0134 0.444749
v -2.83215 -5.06282 0.40113
v -1.70883 -5.10098 0.310886
v -0.578123 -5.12797 0.298778
v 0.555259 -5.12943 0.303858
v 1.68607 -5.12347 0.345278
v 2.8151 -5.08326 0.315234
v 3.93833 -5.03911 0.35314
v 3.85958 4.94017 0.166704
v 2.74128 4.87385 0.288149
v 1.6293 4.82503 0.432355
v 0.510805 4.80261 0.413269
v -0.5698 4.7942 0.336266
v -1.65934 4.8194 0.217956
v -2.77199 4.85181 0.262822
v -3.8829 4.92666 0.118497
v -5.0023 3.90734 0.0848648
v -4.9951 2.79137 0.104967
v -4.99817 1.67608 0.119256
v -5.00296 0.561449 0.148559
v -5.00328 -0.550915 0.207635
v -5.00548 -1.66041 0.295235
v -5.0123 -2.7669 0.405223
v -5.02803 -3.8724 0.527645
v 5.02849 -3.88699 0.418659
v 5.00963 -2.77981 0.310762
v 4.99728 -1.6691 0.243246
v 4.98841 -0.557251 0.188917
v 4.9828 0.556591 0.150547
v 4.97889 1.67183 0.113517
v 4.97574 2.78813 0.0855186
v 4.97534 3.90441 0.0439139
v -3.85942 -3.87494 0.417931
v -3.81518 -3.2294 0.36129
v -3.66966 -1.95132 0.156938
v -4.11786 -0.288601 0.119687
v -4.14516 0.728009 0.154925
v -4.13744 1.51296 0.164674
v -4.07335 2.8063 0.17635
v -3.93674 3.86716 -0.0630196
v -2.73551 -4.04643 0.30768
v -2.80219 -2.78172 0.210399
v -2.68645 -2.19536 0.276055
v -2.76336 -0.650115 0.340468
v -2.79701 0.482682 0.342757
v -2.71613 1.52405 0.220021
v -2.85585 2.84135 -0.0507141
v -2.77219 3.51171 0.14318
v -1.67232 -4.29295 0.322315
v -1.50533 -2.98371 0.311376
v -1.90332 -1.69108 0.408534
v -1.88694 -0.894199 0.399962
v -1.54105 0.574226 0.143978
v -1.99722 1.63036 0.0142281
v -1.74701 2.65865 0.244406
v -1.57327 3.6727 0.250729
v -0.244177 -4.39919 0.329315
v -0.592487 -2.95933 0.337372
v -0.557095 -1.81566 0.34732
v -0.855087 -0.839762 0.286254
v -0.624335 0.370251 0.255042
v -0.39501 1.40339 0.294568
v -0.594112 2.57625 0.39292
v -0.764797 3.4692 0.310054
v 0.732967 -3.97491 0.335193
v 0.805883 -2.68263 0.266048
v 0.513868 -1.8965 0.307309
v 0.595444 -0.559593 0.311174
v 0.563745 0.351274 0.30418
v 0.277676 1.4589 0.313015
v 0.505458 2.43716 0.344302
v 0.528279 3.6958 0.326447
v 1.95319 -3.72034 0.297918
v 1.6721 -2.91255 0.280544
v 1.81449 -1.98456 0.336401
v 1.96992 -0.450685 0.295648
v 1.95213 0.236695 0.289491
v 1.80443 1.50007 0.255299
v 1.3973 2.77585 0.321803
v 1.45274 3.62074 0.290551
v 2.79977 -3.97219 0.326029
v 3.10089 -2.88233 0.355965
v 2.94817 -2.00661 0.312634
v 2.7099 -0.547185 0.334492
v 2.95486 0.249867 0.30394
v 3.05376 1.54869 0.19979
v 2.76691 3.11719 0.228677
v 2.72307 3.48231 0.174962
v 3.93141 -3.9975 0.366703
v 3.66489 -2.7468 0.370242
v 3.87195 -1.70679 0.311485
v 3.80397 -0.752423 0.261331
v 3.86611 0.261774 0.243058
v 4.16276 1.78248 0.156957
v 4.12704 2.74396 0.0521104
v 4.01844 3.86919 0.00913731
vt 0.0001 0.0001
vt 0.9999 0.0001
vt 0.0001 0.9999
vt 0.9999 0.9999
vt 0.111189 0.0001
vt 0.222278 0.0001
vt 0.333367 0.0001
vt 0.444455 0.0001
vt 0.555544 0.0001
vt 0.666633 0.0001
vt 0.777722 0.0001
vt 0.888811 0.0001
vt 0.888811 0.9999
vt 0.777722 0.9999
vt 0.666633 0.9999
vt 0.555544 0.9999
vt 0.444455 0.9999
vt 0.333367 0.9999
vt 0.222278 0.9999
vt 0.111189 0.9999
vt 0.0001 0.888811
vt 0.0001 0.777722
vt 0.0001 0.666633
vt 0.0001 0.555544
vt 0.0001 0.444456
vt 0.0001 0.333367
vt 0.0001 0.222278
vt 0.0001 0.111189
vt 0.9999 0.111189
vt 0.9999 0.222278
vt 0.9999 0.333367
vt 0.9999 0.444456
vt 0.9999 0.555544
vt 0.9999 0.666633
vt 0.9999 0.777722
vt 0.9999 0.888811
vt 0.11727 0.115399
vt 0.120778 0.180369
vt 0.134636 0.309595
vt 0.088728 0.473895
vt 0.085886 0.575352
vt 0.086211 0.65375
vt 0.092207 0.78313
vt 0.106956 0.892282
vt 0.22987 0.102869
vt 0.221803 0.229552
vt 0.233521 0.288953
vt 0.225541 0.443179
vt 0.221596 0.556167
vt 0.227801 0.661237
vt 0.214896 0.795203
vt 0.22542 0.865181
vt 0.335524 0.082127
vt 0.351143 0.213907
vt 0.311934 0.342467
vt 0.313159 0.422214
vt 0.347791 0.572605
vt 0.301482 0.677733
vt 0.329031 0.783086
vt 0.344903 0.885466
vt 0.476837 0.074882
vt 0.441952 0.218774
vt 0.445749 0.333088
vt 0.416414 0.43099
vt 0.439746 0.552976
vt 0.463203 0.656843
vt 0.444252 0.77653
vt 0.426137 0.866051
vt 0.573419 0.117409
vt 0.581125 0.246686
vt 0.552512 0.326
vt 0.561075 0.459693
vt 0.558356 0.550596
vt 0.530299 0.662189
vt 0.553275 0.760113
vt 0.555478 0.888821
vt 0.694433 0.13996
vt 0.667048 0.221666
vt 0.681985 0.314267
vt 0.698218 0.467249
vt 0.696819 0.535952
vt 0.68253 0.662758
vt 0.642062 0.791726
vt 0.648523 0.877957
vt 0.778029 0.111667
vt 0.809426 0.219523
vt 0.794923 0.307783
vt 0.772028 0.454562
vt 0.796846 0.533374
vt 0.807262 0.663157
vt 0.778581 0.821037
vt 0.775122 0.858219
vt 0.890224 0.104741
vt 0.865679 0.23076
vt 0.887326 0.334104
vt 0.881307 0.429754
vt 0.887973 0.53063
vt 0.918106 0.681428
vt 0.915043 0.778027
vt 0.904815 0.89094
vn 0.0161694 -0.0572586 0.998228
vn -0.0764409 0.0144026 0.99697
vn 0.0137691 -0.0453721 0.998875
vn 0.0566948 -0.0434235 0.997447
vn 0.0498964 -0.00700208 0.99873
vn 0.0591469 0.0436217 0.997296
vn 0.0449406 -0.0161594 0.998859
vn -0.000640146 -0.0309106 0.999522
vn -0.0116131 -0.029798 0.999488
vn -0.00174886 0.00903662 0.999958
vn -0.0141458 -0.0109316 0.99984
vn -0.0672668 -0.0134366 0.997645
vn 0.132379 -0.125029 0.983282
vn 0.120061 -0.106833 0.987002
vn 0.0594729 -0.125329 0.990331
vn -0.0175198 -0.0906187 0.995732
vn -0.0657106 -0.0214764 0.997608
vn -0.0332303 0.0260607 0.999108
vn -0.0938964 -0.0766325 0.992628
vn -0.12524 -0.161347 0.978919
vn 0.0687082 0.097721 0.992839
vn -0.0774479 0.0152208 0.99688
vn -0.0497116 0.00528033 0.99875
vn 0.023362 0.0148561 0.999617
vn 0.0793696 0.0655873 0.994685
vn 0.104452 0.0762841 0.9916
vn 0.0982652 0.117685 0.988177
vn 0.0705164 0.0370919 0.996821
vn -0.0541433 0.0691697 0.996135
vn 0.0228611 0.0528529 0.998341
vn 0.0565986 0.0556419 0.996845
vn 0.0616557 0.0327556 0.99756
vn 0.0674592 0.0368492 0.997041
vn 0.0570837 0.0292624 0.99794
vn -0.00980064 0.056448 0.998357
vn -0.0388068 0.0358663 0.998603
vn 0.0891716 0.0554593 0.994471
vn 0.0944507 0.107726 0.989684
vn -0.00388043 0.0422206 0.999101
vn -0.0290607 0.0117593 0.999509
vn -0.0612171 0.00914007 0.998083
vn -0.0466249 -0.00933203 0.998869
vn 0.0349473 0.0908393 0.995252
vn -0.0343856 -0.0269204 0.999046
vn 0.0434315 0.0695162 0.996635
vn -0.0212735 0.0257871 0.999441
vn -0.12001 -0.0753739 0.989907
vn -0.121957 -0.0196175 0.992341
vn 0.00821178 0.0705426 0.997475
vn 0.0813457 0.10743 0.990879
vn -0.0381258 0.00184272 0.999271
vn -0.180166 -0.129393 0.975089
vn 0.00625808 0.0050317 0.999968
vn -0.0410428 -0.0248834 0.998847
vn -0.0166648 -0.0196223 0.999669
vn 0.0446138 0.060575 0.997166
vn -0.00188789 0.0927577 0.995687
vn -0.0187543 0.0147443 0.999715
vn -0.166047 -0.0806305 0.982816
vn -0.0636313 -0.00499975 0.997961
vn -0.00295199 -0.023899 0.99971
vn 0.00982812 0.000143577 0.999952
vn 0.0183208 0.00781196 0.999802
vn 0.0170234 0.0611411 0.997984
vn -0.0605855 0.00346462 0.998157
vn -0.0821319 -0.0353742 0.995993
vn -0.0665553 -0.0347325 0.997178
vn -0.0615034 0.0269563 0.997743
vn 0.00764689 0.0153985 0.999852
vn 0.00750738 -0.00881573 0.999933
vn 0.0163357 -0.0219953 0.999625
vn -0.00578397 0.0158439 0.999858
vn -0.00418926 0.00518838 0.999978
vn -0.00299967 -0.0233652 0.999722
vn 0.0256431 -0.0261704 0.999328
vn 0.0046077 -0.00382398 0.999982
vn -0.0128372 0.0166369 0.999779
vn -0.016055 0.00138903 0.99987
vn -0.0112952 -0.0195381 0.999745
vn -0.0199885 0.0184802 0.999629
vn -0.000565225 0.029952 0.999551
vn 0.0417769 -0.0080233 0.999095
vn 0.0472323 0.00273584 0.99888
vn 0.0632382 -0.0265897 0.997644
vn -0.0211347 -0.00319419 0.999772
vn -0.0399943 0.00737059 0.999173
vn -0.00235671 0.0165642 0.99986
vn 0.0069797 0.01384 0.99988
vn 0.0343293 0.0459462 0.998354
vn 0.0445629 0.0491351 0.997798
vn 0.091458 0.0520781 0.994446
vn 0.105416 0.0372121 0.993732
vn -0.0368306 0.0103409 0.999268
vn 0.00246903 0.0299006 0.99955
vn 0.0257253 0.0553379 0.998136
vn 0.051018 0.0282983 0.998297
vn 0.0605477 0.0385819 0.997419
vn 0.0307164 0.0613727 0.997642
vn 0.027549 0.0576227 0.997958
vn 0.0810003 -0.00802748 0.996682
f 100/100/100 4/4/4 13/13/13
f 44/44/44 3/3/3 21/21/21
f 44/44/44 19/19/19 20/20/20
f 60/60/60 19/19/19 52/52/52
f 60/60/60 17/17/17 18/18/18
f 76/76/76 17/17/17 68/68/68
f 84/84/84 16/16/16 76/76/76
f 84/84/84 14/14/14 15/15/15
f 100/100/100 14/14/14 92/92/92
f 11/11/11 93/93/93 85/85/85
f 93/93/93 86/86/86 85/85/85
f 94/94/94 87/87/87 86/86/86
f 87/87/87 96/96/96 88/88/88
f 96/96/96 89/89/89 88/88/88
f 97/97/97 90/90/90 89/89/89
f 90/90/90 99/99/99 91/91/91
f 91/91/91 100/100/100 92/92/92
f 10/10/10 85/85/85 77/77/77
f 77/77/77 86/86/86 78/78/78
f 78/78/78 87/87/87 79/79/79
f 79/79/79 88/88/88 80/80/80
f 88/88/88 81/81/81 80/80/80
f 81/81/81 90/90/90 82/82/82
f 82/82/82 91/91/91 83/83/83
f 91/91/91 84/84/84 83/83/83
f 10/10/10 69/69/69 9/9/9
f 69/69/69 78/78/78 70/70/70
f 70/70/70 79/79/79 71/71/71
f 79/79/79 72/72/72 71/71/71
f 72/72/72 81/81/81 73/73/73
f 73/73/73 82/82/82 74/74/74
f 82/82/82 75/75/75 74/74/74
f 83/83/83 76/76/76 75/75/75
f 9/9/9 61/61/61 8/8/8
f 69/69/69 62/62/62 61/61/61
f 62/62/62 71/71/71 63/63/63
f 63/63/63 72/72/72 64/64/64
f 72/72/72 65/65/65 64/64/64
f 65/65/65 74/74/74 66/66/66
f 66/66/66 75/75/75 67/67/67
f 67/67/67 76/76/76 68/68/68
f 8/8/8 53/53/53 7/7/7
f 53/53/53 62/62/62 54/54/54
f 54/54/54 63/63/63 55/55/55
f 55/55/55 64/64/64 56/56/56
f 64/64/64 57/57/57 56/56/56
f 57/57/57 66/66/66 58/58/58
f 58/58/58 67/67/67 59/59/59
f 59/59/59 68/68/68 60/60/60
f 6/6/6 53/53/53 45/45/45
f 45/45/45 54/54/54 46/46/46
f 54/54/54 47/47/47 46/46/46
f 55/55/55 48/48/48 47/47/47
f 56/56/56 49/49/49 48/48/48
f 49/49/49 58/58/58 50/50/50
f 58/58/58 51/51/51 50/50/50
f 59/59/59 52/52/52 51/51/51
f 6/6/6 37/37/37 5/5/5
f 45/45/45 38/38/38 37/37/37
f 46/46/46 39/39/39 38/38/38
f 39/39/39 48/48/48 40/40/40
f 40/40/40 49/49/49 41/41/41
f 41/41/41 50/50/50 42/42/42
f 50/50/50 43/43/43 42/42/42
f 51/51/51 44/44/44 43/43/43
f 5/5/5 28/28/28 1/1/1
f 28/28/28 38/38/38 27/27/27
f 27/27/27 39/39/39 26/26/26
f 26/26/26 40/40/40 25/25/25
f 40/40/40 24/24/24 25/25/25
f 41/41/41 23/23/23 24/24/24
f 23/23/23 43/43/43 22/22/22
f 43/43/43 21/21/21 22/22/22
f 2/2/2 93/93/93 12/12/12
f 93/93/93 30/30/30 94/94/94
f 30/30/30 95/95/95 94/94/94
f 31/31/31 96/96/96 95/95/95
f 32/32/32 97/97/97 96/96/96
f 33/33/33 98/98/98 97/97/97
f 98/98/98 35/35/35 99/99/99
f 99/99/99 36/36/36 100/100/100
f 100/100/100 36/36/36 4/4/4
f 44/44/44 20/20/20 3/3/3
f 44/44/44 52/52/52 19/19/19
f 60/60/60 18/18/18 19/19/19
f 60/60/60 68/68/68 17/17/17
f 76/76/76 16/16/16 17/17/17
f 84/84/84 15/15/15 16/16/16
f 84/84/84 92/92/92 14/14/14
f 100/100/100 13/13/13 14/14/14
f 11/11/11 12/12/12 93/93/93
f 93/93/93 94/94/94 86/86/86
f 94/94/94 95/95/95 87/87/87
f 87/87/87 95/95/95 96/96/96
f 96/96/96 97/97/97 89/89/89
f 97/97/97 98/98/98 90/90/90
f 90/90/90 98/98/98 99/99/99
f 91/91/91 99/99/99 100/100/100
f 10/10/10 11/11/11 85/85/85
f 77/77/77 85/85/85 86/86/86
f 78/78/78 86/86/86 87/87/87
f 79/79/79 87/87/87 88/88/88
f 88/88/88 89/89/89 81/81/81
f 81/81/81 89/89/89 90/90/90
f 82/82/82 90/90/90 91/91/91
f 91/91/91 92/92/92 84/84/84
f 10/10/10 77/77/77 69/69/69
f 69/69/69 77/77/77 78/78/78
f 70/70/70 78/78/78 79/79/79
f 79/79/79 80/80/80 72/72/72
f 72/72/72 80/80/80 81/81/81
f 73/73/73 81/81/81 82/82/82
f 82/82/82 83/83/83 75/75/75
f 83/83/83 84/84/84 76/76/76
f 9/9/9 69/69/69 61/61/61
f 69/69/69 70/70/70 62/62/62
f 62/62/62 70/70/70 71/71/71
f 63/63/63 71/71/71 72/72/72
f 72/72/72 73/73/73 65/65/65
f 65/65/65 73/73/73 74/74/74
f 66/66/66 74/74/74 75/75/75
f 67/67/67 75/75/75 76/76/76
f 8/8/8 61/61/61 53/53/53
f 53/53/53 61/61/61 62/62/62
f 54/54/54 62/62/62 63/63/63
f 55/55/55 63/63/63 64/64/64
f 64/64/64 65/65/65 57/57/57
f 57/57/57 65/65/65 66/66/66
f 58/58/58 66/66/66 67/67/67
f 59/59/59 67/67/67 68/68/68
f 6/6/6 7/7/7 53/53/53
f 45/45/45 53/53/53 54/54/54
f 54/54/54 55/55/55 47/47/47
f 55/55/55 56/56/56 48/48/48
f 56/56/56 57/57/57 49/49/49
f 49/49/49 57/57/57 58/58/58
f 58/58/58 59/59/59 51/51/51
f 59/59/59 60/60/60 52/52/52
f 6/6/6 45/45/45 37/37/37
f 45/45/45 46/46/46 38/38/38
f 46/46/46 47/47/47 39/39/39
f 39/39/39 47/47/47 48/48/48
f 40/40/40 48/48/48 49/49/49
f 41/41/41 49/49/49 50/50/50
f 50/50/50 51/51/51 43/43/43
f 51/51/51 52/52/52 44/44/44
f 5/5/5 37/37/37 28/28/28
f 28/28/28 37/37/37 38/38/38
f 27/27/27 38/38/38 39/39/39
f 26/26/26 39/39/39 40/40/40
f 40/40/40 41/41/41 24/24/24
f 41/41/41 42/42/42 23/23/23
f 23/23/23 42/42/42 43/43/43
f 43/43/43 44/44/44 21/21/21
f 2/2/2 29/29/29 93/93/93
f 93/93/93 29/29/29 30/30/30
f 30/30/30 31/31/31 95/95/95
f 31/31/31 32/32/32 96/96/96
f 32/32/32 33/33/33 97/97/97
f 33/33/33 34/34/34 98/98/98
f 98/98/98 34/34/34 35/35/35
f 99/99/99 35/35/35 36/36/36
