o GNATVCloth
v -4.98 -4.98214 0.435801
v 5.04087 -4.99204 0.452718
v -5.01298 5.02105 0.004229
v 4.98702 5.02105 0.004229
v -3.87499 -5.0088 0.405333
v -2.76275 -5.0358 0.374364
v -1.64715 -5.03992 0.277016
v -0.53095 -5.04105 0.273411
v 0.589501 -5.05397 0.281452
v 1.70778 -5.05474 0.32276
v 2.82224 -5.04055 0.27872
v 3.93568 -5.02092 0.323398
v 3.86837 4.95498 0.14172
v 2.75489 4.92188 0.264719
v 1.64724 4.87431 0.411298
v 0.542667 4.86664 0.377293
v -0.56439 4.86441 0.31377
v -1.66301 4.88172 0.20436
v -2.77471 4.89614 0.210962
v -3.88529 4.9449 0.0776753
v -4.99253 3.90709 0.0726729
v -4.98047 2.79171 0.0913846
v -4.97371 1.67689 0.111579
v -4.97183 0.562621 0.137931
v -4.96849 -0.549059 0.203496
v -4.96716 -1.66065 0.268931
v -4.96476 -2.76605 0.391362
v -4.96154 -3.87302 0.49028
v 5.02878 -3.88204 0.384965
v 5.02533 -2.77145 0.336883
v 5.02337 -1.66261 0.243467
v 5.01676 -0.552265 0.165386
v 5.01098 0.560434 0.117917
v 5.00277 1.67512 0.0909845
v 4.99422 2.79027 0.0691467
v 4.98573 3.90558 0.0398526
v -3.79945 -3.8573 0.374914
v -3.75968 -3.20903 0.349523
v -3.62785 -1.93151 0.169543
v -4.08337 -0.277737 0.128635
v -4.11484 0.738107 0.161288
v -4.11108 1.52254 0.148661
v -4.05916 2.81668 0.148246
v -3.92794 3.88054 -0.0898113
v -2.68104 -4.01664 0.289161
v -2.75753 -2.75258 0.204829
v -2.6422 -2.15882 0.241924
v -2.72714 -0.616448 0.323487
v -2.76521 0.514791 0.328625
v -2.6899 1.55961 0.232041
v -2.83372 2.88062 -0.0183294
v -2.76152 3.55724 0.155812
v -1.62421 -4.23967 0.297862
v -1.47162 -2.9299 0.280198
v -1.86403 -1.64609 0.367969
v -1.85019 -0.848919 0.346881
v -1.50817 0.633709 0.174639
v -1.96805 1.68158 0.042707
v -1.72185 2.71343 0.270835
v -1.56113 3.73535 0.241939
v -0.203935 -4.32116 0.292508
v -0.563676 -2.89375 0.302155
v -0.523249 -1.75932 0.314587
v -0.817865 -0.779521 0.266174
v -0.58812 0.433494 0.239564
v -0.361026 1.46181 0.283761
v -0.563319 2.64705 0.362203
v -0.747649 3.53796 0.282789
v 0.763294 -3.89942 0.306542
v 0.83002 -2.61264 0.238645
v 0.545198 -1.83157 0.276228
v 0.629928 -0.495985 0.278927
v 0.599819 0.411369 0.279468
v 0.311121 1.51715 0.285771
v 0.533557 2.48582 0.301354
v 0.545453 3.77143 0.290564
v 1.9729 -3.65763 0.269388
v 1.6937 -2.84639 0.254
v 1.84177 -1.93124 0.305756
v 2.00341 -0.405371 0.268069
v 1.98806 0.280913 0.266301
v 1.8366 1.54123 0.225999
v 1.42251 2.81576 0.306999
v 1.47676 3.66253 0.264328
v 2.81177 -3.92827 0.288822
v 3.11968 -2.84559 0.327611
v 2.97502 -1.97384 0.2836
v 2.74174 -0.514175 0.317652
v 2.98701 0.278743 0.288924
v 3.08497 1.57453 0.202794
v 2.78882 3.14764 0.239398
v 2.74494 3.50709 0.197088
v 3.9357 -3.97743 0.33091
v 3.68254 -2.72221 0.360734
v 3.8985 -1.68505 0.305755
v 3.83494 -0.731473 0.250479
v 3.89755 0.278309 0.230157
v 4.18925 1.79745 0.151842
v 4.14753 2.76042 0.0661161
v 4.02926 3.88117 -0.0109393
vt 0.0001 0.0001
vt 0.9999 0.0001
vt 0.0001 0.9999
vt 0.9999 0.9999
vt 0.111189 0.0001
vt 0.222278 0.0001
vt 0.333367 0.0001
vt 0.444455 0.0001
vt 0.555544 0.0001
vt 0.666633 0.0001
vt 0.777722 0.0001
vt 0.888811 0.0001
vt 0.888811 0.9999
vt 0.777722 0.9999
vt 0.666633 0.9999
vt 0.555544 0.9999
vt 0.444455 0.9999
vt 0.333367 0.9999
vt 0.222278 0.9999
vt 0.111189 0.9999
vt 0.0001 0.888811
vt 0.0001 0.777722
vt 0.0001 0.666633
vt 0.0001 0.555544
vt 0.0001 0.444456
vt 0.0001 0.333367
vt 0.0001 0.222278
vt 0.0001 0.111189
vt 0.9999 0.111189
vt 0.9999 0.222278
vt 0.9999 0.333367
vt 0.9999 0.444456
vt 0.9999 0.555544
vt 0.9999 0.666633
vt 0.9999 0.777722
vt 0.9999 0.888811
vt 0.11727 0.115399
vt 0.120778 0.180369
vt 0.134636 0.309595
vt 0.088728 0.473895
vt 0.085886 0.575352
vt 0.086211 0.65375
vt 0.092207 0.78313
vt 0.106956 0.892282
vt 0.22987 0.102869
vt 0.221803 0.229552
vt 0.233521 0.288953
vt 0.225541 0.443179
vt 0.221596 0.556167
vt 0.227801 0.661237
vt 0.214896 0.795203
vt 0.22542 0.865181
vt 0.335524 0.082127
vt 0.351143 0.213907
vt 0.311934 0.342467
vt 0.313159 0.422214
vt 0.347791 0.572605
vt 0.301482 0.677733
vt 0.329031 0.783086
vt 0.344903 0.885466
vt 0.476837 0.074882
vt 0.441952 0.218774
vt 0.445749 0.333088
vt 0.416414 0.43099
vt 0.439746 0.552976
vt 0.463203 0.656843
vt 0.444252 0.77653
vt 0.426137 0.866051
vt 0.573419 0.117409
vt 0.581125 0.246686
vt 0.552512 0.326
vt 0.561075 0.459693
vt 0.558356 0.550596
vt 0.530299 0.662189
vt 0.553275 0.760113
vt 0.555478 0.888821
vt 0.694433 0.13996
vt 0.667048 0.221666
vt 0.681985 0.314267
vt 0.698218 0.467249
vt 0.696819 0.535952
vt 0.68253 0.662758
vt 0.642062 0.791726
vt 0.648523 0.877957
vt 0.778029 0.111667
vt 0.809426 0.219523
vt 0.794923 0.307783
vt 0.772028 0.454562
vt 0.796846 0.533374
vt 0.807262 0.663157
vt 0.778581 0.821037
vt 0.775122 0.858219
vt 0.890224 0.104741
vt 0.865679 0.23076
vt 0.887326 0.334104
vt 0.881307 0.429754
vt 0.887973 0.53063
vt 0.918106 0.681428
vt 0.915043 0.778027
vt 0.904815 0.89094
vn 0.0263361 -0.0494799 0.998428
vn -0.0853783 0.0265749 0.995994
vn 0.0393137 -0.0449063 0.998217
vn 0.0374187 -0.0447245 0.998298
vn 0.0511447 -0.00171023 0.99869
vn 0.0529424 0.0387482 0.997846
vn 0.0450361 -0.0273045 0.998612
vn -0.000683302 -0.0255954 0.999672
vn -0.0165841 -0.0200726 0.999661
vn 0.00411203 0.0122265 0.999917
vn -0.0127426 -0.00844736 0.999883
vn -0.0780558 -0.00717518 0.996923
vn 0.120353 -0.12203 0.985202
vn 0.117411 -0.0895887 0.989034
vn 0.0531879 -0.127603 0.990398
vn -0.0226317 -0.0914133 0.995556
vn -0.052935 -0.0235487 0.99832
vn -0.0462296 0.0286241 0.998521
vn -0.100646 -0.0502962 0.99365
vn -0.0994043 -0.150788 0.983556
vn 0.0816043 0.0931945 0.992298
vn -0.0620476 0.0168855 0.99793
vn -0.0441918 0.0148964 0.998912
vn 0.00453732 0.0166166 0.999852
vn 0.0662116 0.0588298 0.99607
vn 0.0818242 0.0720717 0.994037
vn 0.0817448 0.109848 0.990581
vn 0.0727082 0.0231042 0.997086
vn -0.0538213 0.0516374 0.997215
vn 0.00923152 0.0389319 0.999199
vn 0.0561375 0.0718939 0.995831
vn 0.0733161 0.0430348 0.99638
vn 0.0864996 0.0337523 0.99568
vn 0.0779278 0.0223857 0.996708
vn 0.0221638 0.0449627 0.998743
vn -0.0376277 0.0403226 0.998478
vn 0.0787302 0.0374958 0.99619
vn 0.0871128 0.0817463 0.992839
vn 0.00411881 0.0431387 0.999061
vn -0.0321759 0.0102813 0.999429
vn -0.0645639 0.0144791 0.997809
vn -0.0500645 0.00933171 0.998702
vn 0.0246249 0.0917336 0.995479
vn -0.0363013 -0.0139428 0.999244
vn 0.0388246 0.0572872 0.997603
vn -0.00110291 0.034472 0.999405
vn -0.0906662 -0.0618519 0.993959
vn -0.0911709 -0.0200799 0.995633
vn 0.00734872 0.0547141 0.998475
vn 0.0600437 0.100021 0.993172
vn -0.0598911 0.00550577 0.99819
vn -0.180436 -0.0950047 0.978988
vn 0.0106922 0.00358652 0.999936
vn -0.0329703 -0.0172475 0.999308
vn -0.0136301 -0.0166097 0.999769
vn 0.0425662 0.0469571 0.99799
vn 0.00154315 0.0717904 0.997419
vn -0.0140774 0.0110698 0.99984
vn -0.139491 -0.0682429 0.987869
vn -0.0551922 0.0124692 0.998398
vn -0.00352473 -0.0173696 0.999843
vn 0.00944891 4.77632e-05 0.999955
vn 0.0182367 0.00379844 0.999826
vn 0.0163805 0.0482828 0.998699
vn -0.0366136 -0.00450946 0.999319
vn -0.0552246 -0.028789 0.998059
vn -0.0403772 -0.0301898 0.998728
vn -0.0386481 0.0307469 0.99878
vn 0.00403195 0.0169393 0.999848
vn 0.00488103 -0.00698183 0.999964
vn 0.0144201 -0.0208699 0.999678
vn -0.00354744 0.0110719 0.999932
vn -0.00125669 0.00429375 0.99999
vn 0.00873216 -0.0187953 0.999785
vn 0.0245214 -0.0235104 0.999423
vn 0.00281016 -0.00458868 0.999986
vn -0.00888685 0.0151692 0.999845
vn -0.0159743 0.00215886 0.99987
vn -0.0145341 -0.0191808 0.99971
vn -0.0288193 0.0147842 0.999475
vn -0.00919803 0.0260528 0.999618
vn 0.0290727 -0.0107336 0.99952
vn 0.0275075 0.00043468 0.999622
vn 0.0446846 -0.0230359 0.998736
vn -0.0157552 -0.00592961 0.999858
vn -0.048674 -0.000576661 0.998815
vn -0.0155407 0.0149509 0.999767
vn -0.00165023 0.00958688 0.999953
vn 0.0296903 0.0410017 0.998718
vn 0.0386729 0.0398773 0.998456
vn 0.0834272 0.0464374 0.995431
vn 0.102902 0.0399917 0.993887
vn -0.0468277 3.53069e-05 0.998903
vn -0.0250862 0.0191338 0.999502
vn 0.00850619 0.062286 0.998022
vn 0.0473005 0.0315989 0.998381
vn 0.0694343 0.0357 0.996948
vn 0.0510306 0.0502183 0.997434
vn 0.0398444 0.0587758 0.997476
vn 0.0830513 0.00238325 0.996542
f 100/100/100 4/4/4 13/13/13
f 44/44/44 3/3/3 21/21/21
f 44/44/44 19/19/19 20/20/20
f 60/60/60 19/19/19 52/52/52
f 60/60/60 17/17/17 18/18/18
f 76/76/76 17/17/17 68/68/68
f 84/84/84 16/16/16 76/76/76
f 84/84/84 14/14/14 15/15/15
f 100/100/100 14/14/14 92/92/92
f 11/11/11 93/93/93 85/85/85
f 93/93/93 86/86/86 85/85/85
f 94/94/94 87/87/87 86/86/86
f 87/87/87 96/96/96 88/88/88
f 96/96/96 89/89/89 88/88/88
f 97/97/97 90/90/90 89/89/89
f 90/90/90 99/99/99 91/91/91
f 91/91/91 100/100/100 92/92/92
f 10/10/10 85/85/85 77/77/77
f 77/77/77 86/86/86 78/78/78
f 78/78/78 87/87/87 79/79/79
f 79/79/79 88/88/88 80/80/80
f 88/88/88 81/81/81 80/80/80
f 81/81/81 90/90/90 82/82/82
f 82/82/82 91/91/91 83/83/83
f 91/91/91 84/84/84 83/83/83
f 10/10/10 69/69/69 9/9/9
f 69/69/69 78/78/78 70/70/70
f 70/70/70 79/79/79 71/71/71
f 79/79/79 72/72/72 71/71/71
f 72/72/72 81/81/81 73/73/73
f 73/73/73 82/82/82 74/74/74
f 82/82/82 75/75/75 74/74/74
f 83/83/83 76/76/76 75/75/75
f 9/9/9 61/61/61 8/8/8
f 69/69/69 62/62/62 61/61/61
f 62/62/62 71/71/71 63/63/63
f 63/63/63 72/72/72 64/64/64
f 72/72/72 65/65/65 64/64/64
f 65/65/65 74/74/74 66/66/66
f 66/66/66 75/75/75 67/67/67
f 67/67/67 76/76/76 68/68/68
f 8/8/8 53/53/53 7/7/7
f 53/53/53 62/62/62 54/54/54
f 54/54/54 63/63/63 55/55/55
f 55/55/55 64/64/64 56/56/56
f 64/64/64 57/57/57 56/56/56
f 57/57/57 66/66/66 58/58/58
f 58/58/58 67/67/67 59/59/59
f 59/59/59 68/68/68 60/60/60
f 6/6/6 53/53/53 45/45/45
f 45/45/45 54/54/54 46/46/46
f 54/54/54 47/47/47 46/46/46
f 55/55/55 48/48/48 47/47/47
f 56/56/56 49/49/49 48/48/48
f 49/49/49 58/58/58 50/50/50
f 58/58/58 51/51/51 50/50/50
f 59/59/59 52/52/52 51/51/51
f 6/6/6 37/37/37 5/5/5
f 45/45/45 38/38/38 37/37/37
f 46/46/46 39/39/39 38/38/38
f 39/39/39 48/48/48 40/40/40
f 40/40/40 49/49/49 41/41/41
f 41/41/41 50/50/50 42/42/42
f 50/50/50 43/43/43 42/42/42
f 51/51/51 44/44/44 43/43/43
f 5/5/5 28/28/28 1/1/1
f 28/28/28 38/38/38 27/27/27
f 27/27/27 39/39/39 26/26/26
f 26/26/26 40/40/40 25/25/25
f 40/40/40 24/24/24 25/25/25
f 41/41/41 23/23/23 24/24/24
f 23/23/23 43/43/43 22/22/22
f 43/43/43 21/21/21 22/22/22
f 2/2/2 93/93/93 12/12/12
f 93/93/93 30/30/30 94/94/94
f 30/30/30 95/95/95 94/94/94
f 31/31/31 96/96/96 95/95/95
f 32/32/32 97/97/97 96/96/96
f 33/33/33 98/98/98 97/97/97
f 98/98/98 35/35/35 99/99/99
f 99/99/99 36/36/36 100/100/100
f 100/100/100 36/36/36 4/4/4
f 44/44/44 20/20/20 3/3/3
f 44/44/44 52/52/52 19/19/19
f 60/60/60 18/18/18 19/19/19
f 60/60/60 68/68/68 17/17/17
f 76/76/76 16/16/16 17/17/17
f 84/84/84 15/15/15 16/16/16
f 84/84/84 92/92/92 14/14/14
f 100/100/100 13/13/13 14/14/14
f 11/11/11 12/12/12 93/93/93
f 93/93/93 94/94/94 86/86/86
f 94/94/94 95/95/95 87/87/87
f 87/87/87 95/95/95 96/96/96
f 96/96/96 97/97/97 89/89/89
f 97/97/97 98/98/98 90/90/90
f 90/90/90 98/98/98 99/99/99
f 91/91/91 99/99/99 100/100/100
f 10/10/10 11/11/11 85/85/85
f 77/77/77 85/85/85 86/86/86
f 78/78/78 86/86/86 87/87/87
f 79/79/79 87/87/87 88/88/88
f 88/88/88 89/89/89 81/81/81
f 81/81/81 89/89/89 90/90/90
f 82/82/82 90/90/90 91/91/91
f 91/91/91 92/92/92 84/84/84
f 10/10/10 77/77/77 69/69/69
f 69/69/69 77/77/77 78/78/78
f 70/70/70 78/78/78 79/79/79
f 79/79/79 80/80/80 72/72/72
f 72/72/72 80/80/80 81/81/81
f 73/73/73 81/81/81 82/82/82
f 82/82/82 83/83/83 75/75/75
f 83/83/83 84/84/84 76/76/76
f 9/9/9 69/69/69 61/61/61
f 69/69/69 70/70/70 62/62/62
f 62/62/62 70/70/70 71/71/71
f 63/63/63 71/71/71 72/72/72
f 72/72/72 73/73/73 65/65/65
f 65/65/65 73/73/73 74/74/74
f 66/66/66 74/74/74 75/75/75
f 67/67/67 75/75/75 76/76/76
f 8/8/8 61/61/61 53/53/53
f 53/53/53 61/61/61 62/62/62
f 54/54/54 62/62/62 63/63/63
f 55/55/55 63/63/63 64/64/64
f 64/64/64 65/65/65 57/57/57
f 57/57/57 65/65/65 66/66/66
f 58/58/58 66/66/66 67/67/67
f 59/59/59 67/67/67 68/68/68
f 6/6/6 7/7/7 53/53/53
f 45/45/45 53/53/53 54/54/54
f 54/54/54 55/55/55 47/47/47
f 55/55/55 56/56/56 48/48/48
f 56/56/56 57/57/57 49/49/49
f 49/49/49 57/57/57 58/58/58
f 58/58/58 59/59/59 51/51/51
f 59/59/59 60/60/60 52/52/52
f 6/6/6 45/45/45 37/37/37
f 45/45/45 46/46/46 38/38/38
f 46/46/46 47/47/47 39/39/39
f 39/39/39 47/47/47 48/48/48
f 40/40/40 48/48/48 49/49/49
f 41/41/41 49/49/49 50/50/50
f 50/50/50 51/51/51 43/43/43
f 51/51/51 52/52/52 44/44/44
f 5/5/5 37/37/37 28/28/28
f 28/28/28 37/37/37 38/38/38
f 27/27/27 38/38/38 39/39/39
f 26/26/26 39/39/39 40/40/40
f 40/40/40 41/41/41 24/24/24
f 41/41/41 42/42/42 23/23/23
f 23/23/23 42/42/42 43/43/43
f 43/43/43 44/44/44 21/21/21
f 2/2/2 29/29/29 93/93/93
f 93/93/93 29/29/29 30/30/30
f 30/30/30 31/31/31 95/95/95
f 31/31/31 32/32/32 96/96/96
f 32/32/32 33/33/33 97/97/97
f 33/33/33 34/34/34 98/98/98
f 98/98/98 34/34/34 35/35/35
f 99/99/99 35/35/35 36/36/36
