o GNATVCloth
v -4.99844 -5.00394 0.0539243
v 5.02975 -4.99547 0.0517702
v -5.01298 5.02105 0.004229
v 4.98702 5.02105 0.004229
v -3.88341 -5.02869 0.0454677
v -2.76786 -5.04226 0.0284333
v -1.65228 -5.02824 0.0307653
v -0.542622 -5.02554 0.0377374
v 0.569924 -5.03764 0.00872698
v 1.68321 -5.04507 0.0239537
v 2.79894 -5.04116 0.0393071
v 3.91739 -5.02578 0.0593389
v 3.86742 4.96921 0.0468272
v 2.78295 4.92363 0.032485
v 1.68273 4.92698 0.0476166
v 0.569734 4.93203 0.0388383
v -0.53996 4.93029 0.0235541
v -1.65168 4.93668 0.055846
v -2.76473 4.94015 0.029456
v -3.88383 4.97795 0.0453163
v -5.00175 3.90592 0.0454667
v -4.99281 2.79021 0.0446119
v -4.98314 1.67511 0.032998
v -4.97863 0.56026 0.0431784
v -4.97829 -0.553688 0.0499518
v -4.98373 -1.667 0.0409578
v -4.98438 -2.77944 0.0357389
v -4.98771 -3.89262 0.0331583
v 5.0185 -3.89063 0.0553199
v 5.01576 -2.779 0.0254758
v 5.01426 -1.66634 0.0278697
v 5.01469 -0.55335 0.0391244
v 5.01549 0.559941 0.048106
v 5.01315 1.67486 0.0452419
v 5.01061 2.79009 0.0363666
v 5.00075 3.90565 0.0306557
v -3.81582 -3.87535 0.0353761
v -3.78178 -3.22544 0.0275859
v -3.64428 -1.93595 0.0172643
v -4.10628 -0.279503 0.0228854
v -4.13578 0.736634 0.0226288
v -4.13429 1.52352 0.0352636
v -4.07562 2.81716 0.0242195
v -3.92978 3.90517 0.0228287
v -2.68769 -4.01453 0.0306098
v -2.77025 -2.75057 0.0302746
v -2.65416 -2.15975 0.0247956
v -2.73836 -0.617617 0.0282482
v -2.7771 0.512479 0.0244784
v -2.71583 1.56087 0.0258649
v -2.84571 2.90307 0.0273458
v -2.73927 3.59614 0.0277265
v -1.63582 -4.23089 0.0210898
v -1.48203 -2.91531 0.0142708
v -1.87127 -1.6268 0.0353396
v -1.86156 -0.831374 0.0362203
v -1.51282 0.664972 0.0272427
v -1.97775 1.7181 0.0246517
v -1.70121 2.76737 0.0250618
v -1.54047 3.79141 0.0234003
v -0.218726 -4.29859 0.0276507
v -0.57551 -2.86104 0.0222537
v -0.536567 -1.72468 0.0267844
v -0.827617 -0.743965 0.0251908
v -0.592288 0.475254 0.0264761
v -0.357644 1.50641 0.0280755
v -0.547122 2.70272 0.0252659
v -0.727107 3.59761 0.0299499
v 0.745912 -3.87233 0.0201306
v 0.817885 -2.58267 0.033542
v 0.531799 -1.79495 0.0365155
v 0.619235 -0.459398 0.0183333
v 0.594494 0.445929 0.0280095
v 0.312858 1.5598 0.0304709
v 0.542588 2.53923 0.0315682
v 0.564908 3.82174 0.0297203
v 1.95606 -3.64922 0.0319941
v 1.67848 -2.8317 0.0270082
v 1.82874 -1.90789 0.0239859
v 1.9936 -0.383947 0.035175
v 1.97976 0.301353 0.0246364
v 1.83693 1.56532 0.018469
v 1.43204 2.854 0.0324218
v 1.49517 3.71479 0.0229583
v 2.79573 -3.92856 0.0296396
v 3.10701 -2.84887 0.0308685
v 2.96086 -1.96969 0.0225851
v 2.7328 -0.505109 0.0251444
v 2.98109 0.284684 0.0279161
v 3.08608 1.58503 0.0216351
v 2.79916 3.15618 0.0256477
v 2.76412 3.52777 0.0398334
v 3.92044 -3.98027 0.0193706
v 3.67104 -2.72447 0.0364298
v 3.88701 -1.68566 0.0323673
v 3.82775 -0.732474 0.0175049
v 3.89411 0.278268 0.0283745
v 4.19631 1.79586 0.026621
v 4.16597 2.76156 0.0268668
v 4.05618 3.88642 0.0240775
vt 0.0001 0.0001
vt 0.9999 0.0001
vt 0.0001 0.9999
vt 0.9999 0.9999
vt 0.111189 0.0001
vt 0.222278 0.0001
vt 0.333367 0.0001
vt 0.444455 0.0001
vt 0.555544 0.0001
vt 0.666633 0.0001
vt 0.777722 0.0001
vt 0.888811 0.0001
vt 0.888811 0.9999
vt 0.777722 0.9999
vt 0.666633 0.9999
vt 0.555544 0.9999
vt 0.444455 0.9999
vt 0.333367 0.9999
vt 0.222278 0.9999
vt 0.111189 0.9999
vt 0.0001 0.888811
vt 0.0001 0.777722
vt 0.0001 0.666633
vt 0.0001 0.555544
vt 0.0001 0.444456
vt 0.0001 0.333367
vt 0.0001 0.222278
vt 0.0001 0.111189
vt 0.9999 0.111189
vt 0.9999 0.222278
vt 0.9999 0.333367
vt 0.9999 0.444456
vt 0.9999 0.555544
vt 0.9999 0.666633
vt 0.9999 0.777722
vt 0.9999 0.888811
vt 0.11727 0.115399
vt 0.120778 0.180369
vt 0.134636 0.309595
vt 0.088728 0.473895
vt 0.085886 0.575352
vt 0.086211 0.65375
vt 0.092207 0.78313
vt 0.106956 0.892282
vt 0.22987 0.102869
vt 0.221803 0.229552
vt 0.233521 0.288953
vt 0.225541 0.443179
vt 0.221596 0.556167
vt 0.227801 0.661237
vt 0.214896 0.795203
vt 0.22542 0.865181
vt 0.335524 0.082127
vt 0.351143 0.213907
vt 0.311934 0.342467
vt 0.313159 0.422214
vt 0.347791 0.572605
vt 0.301482 0.677733
vt 0.329031 0.783086
vt 0.344903 0.885466
vt 0.476837 0.074882
vt 0.441952 0.218774
vt 0.445749 0.333088
vt 0.416414 0.43099
vt 0.439746 0.552976
vt 0.463203 0.656843
vt 0.444252 0.77653
vt 0.426137 0.866051
vt 0.573419 0.117409
vt 0.581125 0.246686
vt 0.552512 0.326
vt 0.561075 0.459693
vt 0.558356 0.550596
vt 0.530299 0.662189
vt 0.553275 0.760113
vt 0.555478 0.888821
vt 0.694433 0.13996
vt 0.667048 0.221666
vt 0.681985 0.314267
vt 0.698218 0.467249
vt 0.696819 0.535952
vt 0.68253 0.662758
vt 0.642062 0.791726
vt 0.648523 0.877957
vt 0.778029 0.111667
vt 0.809426 0.219523
vt 0.794923 0.307783
vt 0.772028 0.454562
vt 0.796846 0.533374
vt 0.807262 0.663157
vt 0.778581 0.821037
vt 0.775122 0.858219
vt 0.890224 0.104741
vt 0.865679 0.23076
vt 0.887326 0.334104
vt 0.881307 0.429754
vt 0.887973 0.53063
vt 0.918106 0.681428
vt 0.915043 0.778027
vt 0.904815 0.89094
vn 0.00799548 0.0186048 0.999795
vn -0.0133423 0.0173277 0.999761
vn -0.00799149 0.00890952 0.999928
vn 0.0156232 0.00467385 0.999867
vn 0.0071121 0.0117742 0.999905
vn 0.00638136 0.00370649 0.999973
vn -0.00427784 0.0122219 0.999916
vn 0.00529898 0.010039 0.999936
vn 0.00845089 -0.00573805 0.999948
vn -0.00893796 -0.00224361 0.999958
vn -0.00756097 0.0185404 0.9998
vn -0.00633112 0.0382181 0.999249
vn 0.0132179 -0.0187004 0.999738
vn -7.29584e-05 -0.00876113 0.999962
vn 0.00285417 -0.020779 0.99978
vn -0.00513681 -0.0118321 0.999917
vn 0.00194129 -0.00575744 0.999982
vn 0.00254649 -0.0280716 0.999603
vn -0.00275302 -0.0136864 0.999903
vn -0.0118308 -0.0204494 0.999721
vn 0.0214977 0.011675 0.999701
vn 0.0223865 -0.00540222 0.999735
vn 0.00957712 -0.00211341 0.999952
vn 0.0252438 0.00542031 0.999667
vn 0.0313623 -0.00107566 0.999508
vn 0.02279 -0.00376924 0.999733
vn 0.0106776 -1.07087e-05 0.999943
vn 0.0024538 0.00930814 0.999954
vn -0.0336651 0.0115982 0.999366
vn -0.0037441 0.00368227 0.999986
vn -0.00298084 0.00119066 0.999995
vn -0.0163369 -0.00927037 0.999824
vn -0.0189372 -0.000210092 0.999821
vn -0.0220179 0.00521407 0.999744
vn -0.0147537 0.00410595 0.999883
vn -0.00862002 0.0101365 0.999911
vn 0.00417252 0.0076153 0.999962
vn 0.0015721 0.00621084 0.999979
vn 0.00268287 0.00220911 0.999994
vn 0.0136233 -0.000134585 0.999907
vn 0.00754131 -0.00382617 0.999964
vn 0.00169708 -0.00381957 0.999991
vn 0.00943704 0.000681814 0.999955
vn 0.00105232 -0.000705449 0.999999
vn 0.006302 0.00194807 0.999978
vn 0.00222135 0.00537479 0.999983
vn -0.0027339 -0.00110305 0.999996
vn -0.00760754 -0.000848109 0.999971
vn -0.00253766 0.00170596 0.999995
vn 0.00220579 -0.00212578 0.999995
vn -0.000595105 -0.000380202 1
vn 0.000114262 -0.000452754 1
vn -0.00110947 0.00717021 0.999974
vn 0.00304872 -0.00247626 0.999992
vn -2.27024e-06 -0.00552828 0.999985
vn 9.17486e-05 0.00221986 0.999997
vn 0.000698785 0.00174842 0.999998
vn -8.84325e-05 0.000215279 1
vn -0.000140357 -0.000588729 1
vn -0.000290799 -0.00795759 0.999968
vn 0.00724439 0.00277378 0.99997
vn -0.00557566 -0.00138014 0.999983
vn -0.00165545 -0.000246931 0.999999
vn 0.00628666 0.000933334 0.99998
vn -3.34424e-05 -0.00315202 0.999995
vn -0.0026469 0.000407077 0.999996
vn -0.00209714 -0.000938471 0.999997
vn -0.00283444 0.000612161 0.999996
vn -0.00230652 -0.00520312 0.999984
vn 0.0018721 -0.00506032 0.999985
vn -0.000791194 0.00337023 0.999994
vn -0.00166404 0.00194378 0.999997
vn 0.00185319 -0.00378732 0.999991
vn 0.00146871 -0.00135608 0.999998
vn -0.000945767 -0.00146685 0.999999
vn -0.000804378 -0.000449144 1
vn -0.00378886 -0.000775503 0.999993
vn -0.000241486 0.00185634 0.999998
vn 0.00447998 0.000191982 0.99999
vn 0.000821729 0.00402647 0.999992
vn -0.000250486 0.00465483 0.999989
vn 0.00330024 -0.0021541 0.999992
vn 0.00380088 0.00079239 0.999992
vn -0.00123062 -0.00902057 0.999959
vn 0.00154939 0.00118881 0.999998
vn -0.00202534 0.000218972 0.999998
vn -0.0046193 0.00549507 0.999974
vn 0.00647103 -0.000504482 0.999979
vn -0.000337393 -0.00171597 0.999998
vn -0.00282629 0.00148589 0.999995
vn 0.00115254 -0.0110411 0.999938
vn 0.000323438 -0.0163667 0.999866
vn -0.00755442 0.00971207 0.999924
vn -0.0029523 -0.00214492 0.999993
vn -0.00232727 0.00741029 0.99997
vn -0.0046653 -0.000861996 0.999989
vn -0.00951532 -0.00275365 0.999951
vn -0.0139 0.00274367 0.9999
vn -0.00599332 0.000901308 0.999982
vn 0.00639704 -0.00578262 0.999963
f 100/100/100 4/4/4 13/13/13
f 44/44/44 3/3/3 21/21/21
f 44/44/44 19/19/19 20/20/20
f 60/60/60 19/19/19 52/52/52
f 60/60/60 17/17/17 18/18/18
f 76/76/76 17/17/17 68/68/68
f 84/84/84 16/16/16 76/76/76
f 84/84/84 14/14/14 15/15/15
f 100/100/100 14/14/14 92/92/92
f 11/11/11 93/93/93 85/85/85
f 93/93/93 86/86/86 85/85/85
f 94/94/94 87/87/87 86/86/86
f 87/87/87 96/96/96 88/88/88
f 96/96/96 89/89/89 88/88/88
f 97/97/97 90/90/90 89/89/89
f 90/90/90 99/99/99 91/91/91
f 91/91/91 100/100/100 92/92/92
f 10/10/10 85/85/85 77/77/77
f 77/77/77 86/86/86 78/78/78
f 78/78/78 87/87/87 79/79/79
f 79/79/79 88/88/88 80/80/80
f 88/88/88 81/81/81 80/80/80
f 81/81/81 90/90/90 82/82/82
f 82/82/82 91/91/91 83/83/83
f 91/91/91 84/84/84 83/83/83
f 10/10/10 69/69/69 9/9/9
f 69/69/69 78/78/78 70/70/70
f 70/70/70 79/79/79 71/71/71
f 79/79/79 72/72/72 71/71/71
f 72/72/72 81/81/81 73/73/73
f 73/73/73 82/82/82 74/74/74
f 82/82/82 75/75/75 74/74/74
f 83/83/83 76/76/76 75/75/75
f 9/9/9 61/61/61 8/8/8
f 69/69/69 62/62/62 61/61/61
f 62/62/62 71/71/71 63/63/63
f 63/63/63 72/72/72 64/64/64
f 72/72/72 65/65/65 64/64/64
f 65/65/65 74/74/74 66/66/66
f 66/66/66 75/75/75 67/67/67
f 67/67/67 76/76/76 68/68/68
f 8/8/8 53/53/53 7/7/7
f 53/53/53 62/62/62 54/54/54
f 54/54/54 63/63/63 55/55/55
f 55/55/55 64/64/64 56/56/56
f 64/64/64 57/57/57 56/56/56
f 57/57/57 66/66/66 58/58/58
f 58/58/58 67/67/67 59/59/59
f 59/59/59 68/68/68 60/60/60
f 6/6/6 53/53/53 45/45/45
f 45/45/45 54/54/54 46/46/46
f 54/54/54 47/47/47 46/46/46
f 55/55/55 48/48/48 47/47/47
f 56/56/56 49/49/49 48/48/48
f 49/49/49 58/58/58 50/50/50
f 58/58/58 51/51/51 50/50/50
f 59/59/59 52/52/52 51/51/51
f 6/6/6 37/37/37 5/5/5
f 45/45/45 38/38/38 37/37/37
f 46/46/46 39/39/39 38/38/38
f 39/39/39 48/48/48 40/40/40
f 40/40/40 49/49/49 41/41/41
f 41/41/41 50/50/50 42/42/42
f 50/50/50 43/43/43 42/42/42
f 51/51/51 44/44/44 43/43/43
f 5/5/5 28/28/28 1/1/1
f 28/28/28 38/38/38 27/27/27
f 27/27/27 39/39/39 26/26/26
f 26/26/26 40/40/40 25/25/25
f 40/40/40 24/24/24 25/25/25
f 41/41/41 23/23/23 24/24/24
f 23/23/23 43/43/43 22/22/22
f 43/43/43 21/21/21 22/22/22
f 2/2/2 93/93/93 12/12/12
f 93/93/93 30/30/30 94/94/94
f 30/30/30 95/95/95 94/94/94
f 31/31/31 96/96/96 95/95/95
f 32/32/32 97/97/97 96/96/96
f 33/33/33 98/98/98 97/97/97
f 98/98/98 35/35/35 99/99/99
f 99/99/99 36/36/36 100/100/100
f 100/100/100 36/36/36 4/4/4
f 44/44/44 20/20/20 3/3/3
f 44/44/44 52/52/52 19/19/19
f 60/60/60 18/18/18 19/19/19
f 60/60/60 68/68/68 17/17/17
f 76/76/76 16/16/16 17/17/17
f 84/84/84 15/15/15 16/16/16
f 84/84/84 92/92/92 14/14/14
f 100/100/100 13/13/13 14/14/14
f 11/11/11 12/12/12 93/93/93
f 93/93/93 94/94/94 86/86/86
f 94/94/94 95/95/95 87/87/87
f 87/87/87 95/95/95 96/96/96
f 96/96/96 97/97/97 89/89/89
f 97/97/97 98/98/98 90/90/90
f 90/90/90 98/98/98 99/99/99
f 91/91/91 99/99/99 100/100/100
f 10/10/10 11/11/11 85/85/85
f 77/77/77 85/85/85 86/86/86
f 78/78/78 86/86/86 87/87/87
f 79/79/79 87/87/87 88/88/88
f 88/88/88 89/89/89 81/81/81
f 81/81/81 89/89/89 90/90/90
f 82/82/82 90/90/90 91/91/91
f 91/91/91 92/92/92 84/84/84
f 10/10/10 77/77/77 69/69/69
f 69/69/69 77/77/77 78/78/78
f 70/70/70 78/78/78 79/79/79
f 79/79/79 80/80/80 72/72/72
f 72/72/72 80/80/80 81/81/81
f 73/73/73 81/81/81 82/82/82
f 82/82/82 83/83/83 75/75/75
f 83/83/83 84/84/84 76/76/76
f 9/9/9 69/69/69 61/61/61
f 69/69/69 70/70/70 62/62/62
f 62/62/62 70/70/70 71/71/71
f 63/63/63 71/71/71 72/72/72
f 72/72/72 73/73/73 65/65/65
f 65/65/65 73/73/73 74/74/74
f 66/66/66 74/74/74 75/75/75
f 67/67/67 75/75/75 76/76/76
f 8/8/8 61/61/61 53/53/53
f 53/53/53 61/61/61 62/62/62
f 54/54/54 62/62/62 63/63/63
f 55/55/55 63/63/63 64/64/64
f 64/64/64 65/65/65 57/57/57
f 57/57/57 65/65/65 66/66/66
f 58/58/58 66/66/66 67/67/67
f 59/59/59 67/67/67 68/68/68
f 6/6/6 7/7/7 53/53/53
f 45/45/45 53/53/53 54/54/54
f 54/54/54 55/55/55 47/47/47
f 55/55/55 56/56/56 48/48/48
f 56/56/56 57/57/57 49/49/49
f 49/49/49 57/57/57 58/58/58
f 58/58/58 59/59/59 51/51/51
f 59/59/59 60/60/60 52/52/52
f 6/6/6 45/45/45 37/37/37
f 45/45/45 46/46/46 38/38/38
f 46/46/46 47/47/47 39/39/39
f 39/39/39 47/47/47 48/48/48
f 40/40/40 48/48/48 49/49/49
f 41/41/41 49/49/49 50/50/50
f 50/50/50 51/51/51 43/43/43
f 51/51/51 52/52/52 44/44/44
f 5/5/5 37/37/37 28/28/28
f 28/28/28 37/37/37 38/38/38
f 27/27/27 38/38/38 39/39/39
f 26/26/26 39/39/39 40/40/40
f 40/40/40 41/41/41 24/24/24
f 41/41/41 42/42/42 23/23/23
f 23/23/23 42/42/42 43/43/43
f 43/43/43 44/44/44 21/21/21
f 2/2/2 29/29/29 93/93/93
f 93/93/93 29/29/29 30/30/30
f 30/30/30 31/31/31 95/95/95
f 31/31/31 32/32/32 96/96/96
f 32/32/32 33/33/33 97/97/97
f 33/33/33 34/34/34 98/98/98
f 98/98/98 34/34/34 35/35/35
f 99/99/99 35/35/35 36/36/36
