o GNATVCloth
v -4.92839 -4.9828 0.379854
v 5.10557 -4.9826 0.410852
v -5.01298 5.02105 0.004229
v 4.98702 5.02105 0.004229
v -3.81553 -4.99514 0.336683
v -2.70359 -4.9927 0.316611
v -1.5912 -4.99709 0.233869
v -0.473978 -4.9992 0.224613
v 0.645924 -5.00539 0.249845
v 1.76521 -5.00414 0.264027
v 2.88222 -5.00768 0.230832
v 3.99767 -4.99856 0.288211
v 3.8694 4.95892 0.0877233
v 2.78535 4.89019 0.228202
v 1.68071 4.84891 0.354231
v 0.575104 4.8552 0.313023
v -0.538738 4.86744 0.275981
v -1.64506 4.90252 0.177572
v -2.76513 4.94112 0.154674
v -3.88318 4.98205 0.0620294
v -4.99064 3.90697 0.0488962
v -4.97274 2.79256 0.0705915
v -4.95922 1.6792 0.0964056
v -4.94798 0.566938 0.138541
v -4.93776 -0.544434 0.19704
v -4.93007 -1.65535 0.257139
v -4.9195 -2.76324 0.35747
v -4.92129 -3.87352 0.402078
v 5.10016 -3.87394 0.323289
v 5.09343 -2.7639 0.313021
v 5.08556 -1.65408 0.248639
v 5.07468 -0.544903 0.161627
v 5.06103 0.568016 0.108711
v 5.0475 1.68167 0.0776354
v 5.03372 2.7945 0.0559854
v 5.01784 3.90777 0.0307247
v -3.75175 -3.84609 0.296993
v -3.71384 -3.19677 0.290771
v -3.5832 -1.91083 0.174572
v -4.05271 -0.26381 0.152044
v -4.09155 0.75224 0.16113
v -4.09556 1.53677 0.131238
v -4.05011 2.83058 0.0991059
v -3.92 3.91132 -0.0392734
v -2.62461 -3.97654 0.237213
v -2.70537 -2.70933 0.178529
v -2.58892 -2.1175 0.162959
v -2.68505 -0.57896 0.279849
v -2.73293 0.548778 0.274567
v -2.6785 1.59786 0.209611
v -2.81795 2.92177 -0.010879
v -2.75073 3.595 0.188706
v -1.56446 -4.18837 0.245227
v -1.4089 -2.87334 0.229126
v -1.81252 -1.59042 0.308451
v -1.80477 -0.796575 0.277472
v -1.47095 0.693237 0.170244
v -1.94524 1.74511 0.121553
v -1.70128 2.77755 0.270529
v -1.54685 3.77327 0.225113
v -0.146247 -4.26691 0.224721
v -0.498106 -2.82931 0.233902
v -0.466062 -1.68848 0.25878
v -0.769682 -0.718324 0.218336
v -0.547357 0.496723 0.205101
v -0.325802 1.53332 0.243471
v -0.536499 2.72848 0.277441
v -0.728299 3.57371 0.236483
v 0.822117 -3.84505 0.24988
v 0.89687 -2.55245 0.200755
v 0.605345 -1.76341 0.223048
v 0.679268 -0.431305 0.217907
v 0.641816 0.478016 0.230135
v 0.345637 1.58764 0.237923
v 0.563567 2.5664 0.241171
v 0.574977 3.79799 0.2311
v 2.0371 -3.61567 0.228118
v 1.75969 -2.80099 0.207548
v 1.90635 -1.88042 0.251593
v 2.05397 -0.353774 0.220883
v 2.03117 0.32898 0.208696
v 1.87304 1.59393 0.171404
v 1.45552 2.87254 0.272988
v 1.51193 3.69663 0.219448
v 2.87836 -3.89444 0.230646
v 3.18513 -2.81523 0.282328
v 3.03898 -1.93772 0.19902
v 2.79402 -0.471199 0.283287
v 3.03352 0.317525 0.254699
v 3.12515 1.60969 0.176794
v 2.82358 3.16773 0.196485
v 2.7849 3.53716 0.240554
v 4.00409 -3.9541 0.253601
v 3.74734 -2.69858 0.315918
v 3.95913 -1.66576 0.274666
v 3.89064 -0.711738 0.209865
v 3.94553 0.298334 0.199784
v 4.23324 1.81015 0.141924
v 4.19351 2.76993 0.0821459
v 4.06458 3.88755 0.0237937
vt 0.0001 0.0001
vt 0.9999 0.0001
vt 0.0001 0.9999
vt 0.9999 0.9999
vt 0.111189 0.0001
vt 0.222278 0.0001
vt 0.333367 0.0001
vt 0.444455 0.0001
vt 0.555544 0.0001
vt 0.666633 0.0001
vt 0.777722 0.0001
vt 0.888811 0.0001
vt 0.888811 0.9999
vt 0.777722 0.9999
vt 0.666633 0.9999
vt 0.555544 0.9999
vt 0.444455 0.9999
vt 0.333367 0.9999
vt 0.222278 0.9999
vt 0.111189 0.9999
vt 0.0001 0.888811
vt 0.0001 0.777722
vt 0.0001 0.666633
vt 0.0001 0.555544
vt 0.0001 0.444456
vt 0.0001 0.333367
vt 0.0001 0.222278
vt 0.0001 0.111189
vt 0.9999 0.111189
vt 0.9999 0.222278
vt 0.9999 0.333367
vt 0.9999 0.444456
vt 0.9999 0.555544
vt 0.9999 0.666633
vt 0.9999 0.777722
vt 0.9999 0.888811
vt 0.11727 0.115399
vt 0.120778 0.180369
vt 0.134636 0.309595
vt 0.088728 0.473895
vt 0.085886 0.575352
vt 0.086211 0.65375
vt 0.092207 0.78313
vt 0.106956 0.892282
vt 0.22987 0.102869
vt 0.221803 0.229552
vt 0.233521 0.288953
vt 0.225541 0.443179
vt 0.221596 0.556167
vt 0.227801 0.661237
vt 0.214896 0.795203
vt 0.22542 0.865181
vt 0.335524 0.082127
vt 0.351143 0.213907
vt 0.311934 0.342467
vt 0.313159 0.422214
vt 0.347791 0.572605
vt 0.301482 0.677733
vt 0.329031 0.783086
vt 0.344903 0.885466
vt 0.476837 0.074882
vt 0.441952 0.218774
vt 0.445749 0.333088
vt 0.416414 0.43099
vt 0.439746 0.552976
vt 0.463203 0.656843
vt 0.444252 0.77653
vt 0.426137 0.866051
vt 0.573419 0.117409
vt 0.581125 0.246686
vt 0.552512 0.326
vt 0.561075 0.459693
vt 0.558356 0.550596
vt 0.530299 0.662189
vt 0.553275 0.760113
vt 0.555478 0.888821
vt 0.694433 0.13996
vt 0.667048 0.221666
vt 0.681985 0.314267
vt 0.698218 0.467249
vt 0.696819 0.535952
vt 0.68253 0.662758
vt 0.642062 0.791726
vt 0.648523 0.877957
vt 0.778029 0.111667
vt 0.809426 0.219523
vt 0.794923 0.307783
vt 0.772028 0.454562
vt 0.796846 0.533374
vt 0.807262 0.663157
vt 0.778581 0.821037
vt 0.775122 0.858219
vt 0.890224 0.104741
vt 0.865679 0.23076
vt 0.887326 0.334104
vt 0.881307 0.429754
vt 0.887973 0.53063
vt 0.918106 0.681428
vt 0.915043 0.778027
vt 0.904815 0.89094
vn 0.0385311 -0.0202628 0.999052
vn -0.0897383 0.0559297 0.994394
vn 0.0139564 -0.0254387 0.999579
vn 0.0346339 -0.0109359 0.99934
vn 0.0484568 0.0142504 0.998724
vn 0.0403495 0.0418886 0.998307
vn 0.041202 -0.0153932 0.999032
vn -3.76549e-05 -0.00362222 0.999994
vn -0.0209791 0.0053312 0.999766
vn 0.00894702 0.0125522 0.999881
vn -0.0141072 0.0112605 0.999837
vn -0.0810631 0.0335072 0.996146
vn 0.103823 -0.0403848 0.993776
vn 0.0996664 -0.0375367 0.994313
vn 0.0399184 -0.121852 0.991745
vn -0.022537 -0.0884005 0.99583
vn -0.0331516 -0.0256168 0.999122
vn -0.0532821 0.0373764 0.99788
vn -0.0812458 -0.000696399 0.996694
vn -0.0698048 -0.0915814 0.993348
vn 0.0438379 0.0593014 0.997277
vn -0.0317429 0.0208638 0.999278
vn -0.0340747 0.0310559 0.998937
vn -0.00824026 0.0268434 0.999606
vn 0.0337634 0.0535327 0.997995
vn 0.0596815 0.0592669 0.996457
vn 0.0772533 0.0706135 0.994508
vn 0.0715827 0.0133719 0.997345
vn -0.0665632 0.0435538 0.996831
vn -0.00947441 0.0141077 0.999856
vn 0.0247765 0.0686245 0.997335
vn 0.0463045 0.0448622 0.997919
vn 0.0761802 0.0336 0.996528
vn 0.0825426 0.0246033 0.996284
vn 0.0472017 0.035634 0.99825
vn 0.00477506 0.0326294 0.999456
vn 0.0622551 0.0293713 0.997628
vn 0.0755856 0.0443717 0.996152
vn 0.0310169 0.0316183 0.999019
vn -0.0234028 0.0150078 0.999613
vn -0.0513362 0.0260972 0.99834
vn -0.0457986 0.0321131 0.998434
vn 0.0114522 0.071703 0.99736
vn -0.0483177 -0.0198424 0.998635
vn 0.0284184 0.0442593 0.998616
vn 0.0209928 0.0469659 0.998676
vn -0.0541072 -0.0403956 0.997718
vn -0.0510918 -0.0214718 0.998463
vn 0.00141933 0.0356046 0.999365
vn 0.0133652 0.0886735 0.995971
vn -0.0916636 -0.0206288 0.995576
vn -0.15728 -0.0817202 0.984167
vn 0.0154116 0.00899844 0.999841
vn -0.0241285 -0.00978209 0.999661
vn -0.0179021 -0.0169394 0.999696
vn 0.0397768 0.0393718 0.998433
vn 0.00845373 0.032775 0.999427
vn -0.0223305 0.00842901 0.999715
vn -0.0973606 -0.0547223 0.993744
vn -0.0335974 0.0282637 0.999036
vn -0.00856664 -0.00135207 0.999962
vn 0.00839705 -0.0038497 0.999957
vn 0.0212472 -2.38376e-06 0.999774
vn 0.0173099 0.0367658 0.999174
vn -0.0184475 -0.0109583 0.99977
vn -0.0246614 -0.0208494 0.999478
vn -0.00612369 -0.0172016 0.999833
vn -0.00432383 0.016323 0.999857
vn -0.00230638 0.0174398 0.999845
vn 0.000157607 -0.00507843 0.999987
vn 0.00916049 -0.014274 0.999856
vn -0.00139243 0.00857684 0.999962
vn 0.00677412 -0.000692372 0.999977
vn 0.0171947 -0.0131631 0.999766
vn 0.0116407 -0.017802 0.999774
vn -0.00136696 -0.00844462 0.999963
vn -0.00769587 0.00839259 0.999935
vn -0.0109241 0.01025 0.999888
vn -0.00902264 -0.0191003 0.999777
vn -0.0419681 0.02026 0.998914
vn -0.0209959 0.027714 0.999395
vn 0.0225308 -0.0142635 0.999644
vn 0.0167564 -0.000933735 0.999859
vn 0.0140915 -0.0441038 0.998928
vn -0.00505234 -0.0118394 0.999917
vn -0.0445961 0.00524608 0.998991
vn -0.0262423 0.0194114 0.999467
vn -0.00608216 0.0016141 0.99998
vn 0.0202771 0.0381671 0.999066
vn 0.0195938 0.0335524 0.999245
vn 0.0648663 -0.0228675 0.997632
vn 0.0778784 -0.0503518 0.995691
vn -0.0482743 0.000491311 0.998834
vn -0.0439549 0.0144316 0.998929
vn -0.0300609 0.057469 0.997895
vn 0.0255646 0.02715 0.999304
vn 0.0553106 0.0292835 0.99804
vn 0.052585 0.0388018 0.997862
vn 0.0428523 0.0446842 0.998082
vn 0.093127 -0.00429355 0.995645
f 100/100/100 4/4/4 13/13/13
f 44/44/44 3/3/3 21/21/21
f 44/44/44 19/19/19 20/20/20
f 60/60/60 19/19/19 52/52/52
f 60/60/60 17/17/17 18/18/18
f 76/76/76 17/17/17 68/68/68
f 84/84/84 16/16/16 76/76/76
f 84/84/84 14/14/14 15/15/15
f 100/100/100 14/14/14 92/92/92
f 11/11/11 93/93/93 85/85/85
f 93/93/93 86/86/86 85/85/85
f 94/94/94 87/87/87 86/86/86
f 87/87/87 96/96/96 88/88/88
f 96/96/96 89/89/89 88/88/88
f 97/97/97 90/90/90 89/89/89
f 90/90/90 99/99/99 91/91/91
f 91/91/91 100/100/100 92/92/92
f 10/10/10 85/85/85 77/77/77
f 77/77/77 86/86/86 78/78/78
f 78/78/78 87/87/87 79/79/79
f 79/79/79 88/88/88 80/80/80
f 88/88/88 81/81/81 80/80/80
f 81/81/81 90/90/90 82/82/82
f 82/82/82 91/91/91 83/83/83
f 91/91/91 84/84/84 83/83/83
f 10/10/10 69/69/69 9/9/9
f 69/69/69 78/78/78 70/70/70
f 70/70/70 79/79/79 71/71/71
f 79/79/79 72/72/72 71/71/71
f 72/72/72 81/81/81 73/73/73
f 73/73/73 82/82/82 74/74/74
f 82/82/82 75/75/75 74/74/74
f 83/83/83 76/76/76 75/75/75
f 9/9/9 61/61/61 8/8/8
f 69/69/69 62/62/62 61/61/61
f 62/62/62 71/71/71 63/63/63
f 63/63/63 72/72/72 64/64/64
f 72/72/72 65/65/65 64/64/64
f 65/65/65 74/74/74 66/66/66
f 66/66/66 75/75/75 67/67/67
f 67/67/67 76/76/76 68/68/68
f 8/8/8 53/53/53 7/7/7
f 53/53/53 62/62/62 54/54/54
f 54/54/54 63/63/63 55/55/55
f 55/55/55 64/64/64 56/56/56
f 64/64/64 57/57/57 56/56/56
f 57/57/57 66/66/66 58/58/58
f 58/58/58 67/67/67 59/59/59
f 59/59/59 68/68/68 60/60/60
f 6/6/6 53/53/53 45/45/45
f 45/45/45 54/54/54 46/46/46
f 54/54/54 47/47/47 46/46/46
f 55/55/55 48/48/48 47/47/47
f 56/56/56 49/49/49 48/48/48
f 49/49/49 58/58/58 50/50/50
f 58/58/58 51/51/51 50/50/50
f 59/59/59 52/52/52 51/51/51
f 6/6/6 37/37/37 5/5/5
f 45/45/45 38/38/38 37/37/37
f 46/46/46 39/39/39 38/38/38
f 39/39/39 48/48/48 40/40/40
f 40/40/40 49/49/49 41/41/41
f 41/41/41 50/50/50 42/42/42
f 50/50/50 43/43/43 42/42/42
f 51/51/51 44/44/44 43/43/43
f 5/5/5 28/28/28 1/1/1
f 28/28/28 38/38/38 27/27/27
f 27/27/27 39/39/39 26/26/26
f 26/26/26 40/40/40 25/25/25
f 40/40/40 24/24/24 25/25/25
f 41/41/41 23/23/23 24/24/24
f 23/23/23 43/43/43 22/22/22
f 43/43/43 21/21/21 22/22/22
f 2/2/2 93/93/93 12/12/12
f 93/93/93 30/30/30 94/94/94
f 30/30/30 95/95/95 94/94/94
f 31/31/31 96/96/96 95/95/95
f 32/32/32 97/97/97 96/96/96
f 33/33/33 98/98/98 97/97/97
f 98/98/98 35/35/35 99/99/99
f 99/99/99 36/36/36 100/100/100
f 100/100/100 36/36/36 4/4/4
f 44/44/44 20/20/20 3/3/3
f 44/44/44 52/52/52 19/19/19
f 60/60/60 18/18/18 19/19/19
f 60/60/60 68/68/68 17/17/17
f 76/76/76 16/16/16 17/17/17
f 84/84/84 15/15/15 16/16/16
f 84/84/84 92/92/92 14/14/14
f 100/100/100 13/13/13 14/14/14
f 11/11/11 12/12/12 93/93/93
f 93/93/93 94/94/94 86/86/86
f 94/94/94 95/95/95 87/87/87
f 87/87/87 95/95/95 96/96/96
f 96/96/96 97/97/97 89/89/89
f 97/97/97 98/98/98 90/90/90
f 90/90/90 98/98/98 99/99/99
f 91/91/91 99/99/99 100/100/100
f 10/10/10 11/11/11 85/85/85
f 77/77/77 85/85/85 86/86/86
f 78/78/78 86/86/86 87/87/87
f 79/79/79 87/87/87 88/88/88
f 88/88/88 89/89/89 81/81/81
f 81/81/81 89/89/89 90/90/90
f 82/82/82 90/90/90 91/91/91
f 91/91/91 92/92/92 84/84/84
f 10/10/10 77/77/77 69/69/69
f 69/69/69 77/77/77 78/78/78
f 70/70/70 78/78/78 79/79/79
f 79/79/79 80/80/80 72/72/72
f 72/72/72 80/80/80 81/81/81
f 73/73/73 81/81/81 82/82/82
f 82/82/82 83/83/83 75/75/75
f 83/83/83 84/84/84 76/76/76
f 9/9/9 69/69/69 61/61/61
f 69/69/69 70/70/70 62/62/62
f 62/62/62 70/70/70 71/71/71
f 63/63/63 71/71/71 72/72/72
f 72/72/72 73/73/73 65/65/65
f 65/65/65 73/73/73 74/74/74
f 66/66/66 74/74/74 75/75/75
f 67/67/67 75/75/75 76/76/76
f 8/8/8 61/61/61 53/53/53
f 53/53/53 61/61/61 62/62/62
f 54/54/54 62/62/62 63/63/63
f 55/55/55 63/63/63 64/64/64
f 64/64/64 65/65/65 57/57/57
f 57/57/57 65/65/65 66/66/66
f 58/58/58 66/66/66 67/67/67
f 59/59/59 67/67/67 68/68/68
f 6/6/6 7/7/7 53/53/53
f 45/45/45 53/53/53 54/54/54
f 54/54/54 55/55/55 47/47/47
f 55/55/55 56/56/56 48/48/48
f 56/56/56 57/57/57 49/49/49
f 49/49/49 57/57/57 58/58/58
f 58/58/58 59/59/59 51/51/51
f 59/59/59 60/60/60 52/52/52
f 6/6/6 45/45/45 37/37/37
f 45/45/45 46/46/46 38/38/38
f 46/46/46 47/47/47 39/39/39
f 39/39/39 47/47/47 48/48/48
f 40/40/40 48/48/48 49/49/49
f 41/41/41 49/49/49 50/50/50
f 50/50/50 51/51/51 43/43/43
f 51/51/51 52/52/52 44/44/44
f 5/5/5 37/37/37 28/28/28
f 28/28/28 37/37/37 38/38/38
f 27/27/27 38/38/38 39/39/39
f 26/26/26 39/39/39 40/40/40
f 40/40/40 41/41/41 24/24/24
f 41/41/41 42/42/42 23/23/23
f 23/23/23 42/42/42 43/43/43
f 43/43/43 44/44/44 21/21/21
f 2/2/2 29/29/29 93/93/93
f 93/93/93 29/29/29 30/30/30
f 30/30/30 31/31/31 95/95/95
f 31/31/31 32/32/32 96/96/96
f 32/32/32 33/33/33 97/97/97
f 33/33/33 34/34/34 98/98/98
f 98/98/98 34/34/34 35/35/35
f 99/99/99 35/35/35 36/36/36
