o GNATVCloth
v -5.02263 -4.98125 0.607289
v 5.06374 -4.98637 0.399584
v -5.01298 5.02105 0.004229
v 4.98702 5.02105 0.004229
v -3.91249 -5.01554 0.501177
v -2.79289 -5.04749 0.485093
v -1.67065 -5.07272 0.455053
v -0.546228 -5.08421 0.456363
v 0.580681 -5.08004 0.488349
v 1.70434 -5.06441 0.463147
v 2.82657 -5.04388 0.44076
v 3.94613 -5.01539 0.383917
v 3.87104 4.89698 0.213383
v 2.76074 4.80115 0.40694
v 1.64055 4.746 0.317717
v 0.519778 4.70579 0.308354
v -0.581369 4.68111 0.507353
v -1.69573 4.69737 0.600914
v -2.81348 4.75429 0.498377
v -3.91026 4.86168 0.254724
v -4.97134 3.90826 0.0832291
v -4.96748 2.79378 0.1355
v -4.9709 1.6798 0.188547
v -4.97766 0.565857 0.235338
v -4.98336 -0.547618 0.272294
v -4.99024 -1.66003 0.314188
v -4.99988 -2.76956 0.377911
v -5.00923 -3.87902 0.464373
v 5.04245 -3.87904 0.330205
v 5.02723 -2.77227 0.215697
v 5.01642 -1.66017 0.205693
v 5.00542 -0.547496 0.20126
v 4.99554 0.565484 0.196979
v 4.98483 1.67925 0.168312
v 4.97793 2.79356 0.133198
v 4.9692 3.90675 0.0643444
v -3.83552 -3.87012 0.401917
v -3.79796 -3.2286 0.30456
v -3.64626 -1.94029 0.262042
v -4.09848 -0.281378 0.230519
v -4.12045 0.734538 0.181407
v -4.11185 1.51809 0.122133
v -4.04821 2.81051 0.0434512
v -3.92437 3.87805 -0.180407
v -2.70722 -4.03572 0.316084
v -2.77943 -2.76499 0.327834
v -2.65615 -2.17386 0.286871
v -2.72964 -0.629356 0.28115
v -2.76238 0.498928 0.187099
v -2.68845 1.53925 0.0454494
v -2.8438 2.84925 -0.246318
v -2.76628 3.48736 0.0371508
v -1.64337 -4.26406 0.355911
v -1.48253 -2.95066 0.404933
v -1.87168 -1.65757 0.375138
v -1.85332 -0.865537 0.297172
v -1.51422 0.594877 -0.0322267
v -1.98153 1.64151 -0.203549
v -1.70557 2.68516 -0.0857764
v -1.58625 3.58004 0.339413
v -0.218187 -4.34513 0.40217
v -0.569692 -2.91321 0.44817
v -0.527858 -1.77704 0.351131
v -0.818891 -0.806343 0.230444
v -0.592059 0.395394 0.0360686
v -0.363151 1.41581 -0.00578103
v -0.574566 2.57476 0.173209
v -0.76228 3.38684 0.354731
v 0.754065 -3.91663 0.369568
v 0.830665 -2.6304 0.391211
v 0.54212 -1.84556 0.342983
v 0.625707 -0.549089 0.0133182
v 0.597664 0.359505 0.0282837
v 0.308824 1.46759 -0.0198701
v 0.526271 2.43105 0.107374
v 0.548372 3.60777 0.390164
v 1.97071 -3.67065 0.31069
v 1.69565 -2.86396 0.413324
v 1.83951 -1.93632 0.407561
v 1.99471 -0.42301 0.161096
v 1.99014 0.234849 -0.0398488
v 1.83684 1.4971 -0.0359028
v 1.41168 2.7625 0.0428158
v 1.4901 3.52282 0.312869
v 2.81512 -3.93527 0.321916
v 3.12179 -2.85016 0.317362
v 2.97056 -1.97189 0.339741
v 2.72629 -0.509951 0.304515
v 2.97119 0.273913 0.177369
v 3.08769 1.54615 -0.0949353
v 2.76598 3.11278 -0.151418
v 2.74803 3.43405 0.0319251
v 3.94461 -3.9782 0.328295
v 3.68474 -2.72365 0.303016
v 3.89327 -1.6818 0.299172
v 3.82431 -0.728629 0.310329
v 3.87923 0.282924 0.278875
v 4.16522 1.79772 0.147185
v 4.14214 2.74915 -0.0239222
v 4.03015 3.87008 -0.128465
vt 0.0001 0.0001
vt 0.9999 0.0001
vt 0.0001 0.9999
vt 0.9999 0.9999
vt 0.111189 0.0001
vt 0.222278 0.0001
vt 0.333367 0.0001
vt 0.444455 0.0001
vt 0.555544 0.0001
vt 0.666633 0.0001
vt 0.777722 0.0001
vt 0.888811 0.0001
vt 0.888811 0.9999
vt 0.777722 0.9999
vt 0.666633 0.9999
vt 0.555544 0.9999
vt 0.444455 0.9999
vt 0.333367 0.9999
vt 0.222278 0.9999
vt 0.111189 0.9999
vt 0.0001 0.888811
vt 0.0001 0.777722
vt 0.0001 0.666633
vt 0.0001 0.555544
vt 0.0001 0.444456
vt 0.0001 0.333367
vt 0.0001 0.222278
vt 0.0001 0.111189
vt 0.9999 0.111189
vt 0.9999 0.222278
vt 0.9999 0.333367
vt 0.9999 0.444456
vt 0.9999 0.555544
vt 0.9999 0.666633
vt 0.9999 0.777722
vt 0.9999 0.888811
vt 0.11727 0.115399
vt 0.120778 0.180369
vt 0.134636 0.309595
vt 0.088728 0.473895
vt 0.085886 0.575352
vt 0.086211 0.65375
vt 0.092207 0.78313
vt 0.106956 0.892282
vt 0.22987 0.102869
vt 0.221803 0.229552
vt 0.233521 0.288953
vt 0.225541 0.443179
vt 0.221596 0.556167
vt 0.227801 0.661237
vt 0.214896 0.795203
vt 0.22542 0.865181
vt 0.335524 0.082127
vt 0.351143 0.213907
vt 0.311934 0.342467
vt 0.313159 0.422214
vt 0.347791 0.572605
vt 0.301482 0.677733
vt 0.329031 0.783086
vt 0.344903 0.885466
vt 0.476837 0.074882
vt 0.441952 0.218774
vt 0.445749 0.333088
vt 0.416414 0.43099
vt 0.439746 0.552976
vt 0.463203 0.656843
vt 0.444252 0.77653
vt 0.426137 0.866051
vt 0.573419 0.117409
vt 0.581125 0.246686
vt 0.552512 0.326
vt 0.561075 0.459693
vt 0.558356 0.550596
vt 0.530299 0.662189
vt 0.553275 0.760113
vt 0.555478 0.888821
vt 0.694433 0.13996
vt 0.667048 0.221666
vt 0.681985 0.314267
vt 0.698218 0.467249
vt 0.696819 0.535952
vt 0.68253 0.662758
vt 0.642062 0.791726
vt 0.648523 0.877957
vt 0.778029 0.111667
vt 0.809426 0.219523
vt 0.794923 0.307783
vt 0.772028 0.454562
vt 0.796846 0.533374
vt 0.807262 0.663157
vt 0.778581 0.821037
vt 0.775122 0.858219
vt 0.890224 0.104741
vt 0.865679 0.23076
vt 0.887326 0.334104
vt 0.881307 0.429754
vt 0.887973 0.53063
vt 0.918106 0.681428
vt 0.915043 0.778027
vt 0.904815 0.89094
vn 0.098263 0.126787 0.987051
vn -0.0113788 0.0579566 0.998254
vn -0.00615955 -0.165181 0.986244
vn 0.0020316 -0.116197 0.993224
vn 0.0558209 0.0983145 0.993589
vn 0.0355788 0.13183 0.990634
vn 0.0146825 0.121189 0.992521
vn -0.0186634 0.0975647 0.995054
vn -0.0066165 0.0958663 0.995372
vn 0.0214222 0.103444 0.994405
vn 0.0218743 0.0890102 0.99579
vn 0.0169534 0.0535682 0.99842
vn 0.19762 -0.281924 0.938864
vn 0.128917 -0.202921 0.970672
vn -0.0439937 0.00145183 0.999031
vn 0.0855607 0.0505284 0.995051
vn 0.0510604 -0.0931701 0.99434
vn -0.011173 -0.228906 0.973384
vn -0.207658 -0.327703 0.921677
vn -0.246535 -0.389107 0.88759
vn 0.197263 0.0991864 0.97532
vn 0.098678 0.0469969 0.994009
vn 0.0828871 0.0547563 0.995053
vn 0.0482878 0.0413006 0.997979
vn 0.0365654 0.0351733 0.998712
vn 0.0439048 0.0418465 0.998159
vn 0.0702496 0.0527164 0.996136
vn 0.0730258 0.108332 0.991429
vn -0.00919361 0.0825893 0.996541
vn 0.0506781 0.0343201 0.998125
vn 0.0856734 0.0029936 0.996319
vn 0.0837368 0.0118459 0.996417
vn 0.0345987 0.0355142 0.99877
vn -0.0216502 0.0284355 0.999361
vn -0.133822 0.0870359 0.987176
vn -0.197893 0.0619791 0.978262
vn 0.0629067 0.123043 0.990406
vn 0.0417141 0.0701193 0.996666
vn 0.0084124 0.0333815 0.999407
vn 0.017906 0.0416834 0.99897
vn 0.045726 0.0703551 0.996473
vn 0.070913 0.0658174 0.995309
vn 0.147682 0.113745 0.982472
vn -0.053225 -0.16079 0.985552
vn 0.0115055 0.0687051 0.997571
vn -0.0351253 0.0329338 0.99884
vn -0.0595768 0.0284068 0.997819
vn -0.0289288 0.0457593 0.998534
vn 0.0917083 0.124104 0.988022
vn 0.16042 0.143141 0.976615
vn 0.0206946 -0.0283401 0.999384
vn -0.232141 -0.364021 0.901998
vn -0.0178628 0.0556843 0.998289
vn -0.0480032 0.0157175 0.998724
vn -0.01675 0.057687 0.998194
vn 0.0558689 0.134076 0.989395
vn 0.0261425 0.159851 0.986795
vn 0.0198866 0.0575012 0.998147
vn -0.187662 -0.26666 0.945344
vn -0.0988688 -0.290138 0.951864
vn -0.0120283 0.042528 0.999023
vn -0.000661711 0.0184911 0.999829
vn 0.025849 0.122987 0.992072
vn 0.0576138 0.149744 0.987045
vn 0.00948547 0.0707425 0.997449
vn -0.0371105 -0.0425742 0.998404
vn -0.0897316 -0.182735 0.979059
vn -0.0799408 -0.226718 0.970674
vn 0.0233137 0.0210041 0.999508
vn -0.0056717 0.0180955 0.99982
vn -0.00303428 0.139209 0.990258
vn 0.00483887 0.153509 0.988135
vn 0.0240552 0.0125993 0.999631
vn 0.0160554 -0.0287774 0.999457
vn 0.0593083 -0.153551 0.986359
vn 0.0721732 -0.142564 0.987151
vn 0.0346528 0.00199426 0.999397
vn 0.0352492 -0.0381003 0.998652
vn -0.0389073 0.0979133 0.994434
vn -0.142982 0.23136 0.962304
vn -0.083441 0.14704 0.985605
vn 0.0564786 -0.0119288 0.998333
vn 0.132635 -0.195475 0.971698
vn 0.0908009 -0.198158 0.975955
vn 0.00391804 0.0663573 0.997788
vn 0.028145 -0.0166823 0.999465
vn 0.0442463 0.001035 0.99902
vn -0.0765069 0.150987 0.985571
vn -0.127916 0.171765 0.976798
vn -0.11902 0.115877 0.986107
vn 0.100543 -0.172364 0.979889
vn 0.207082 -0.370662 0.905388
vn 0.0118378 0.0553781 0.998395
vn 0.0452839 0.00461899 0.998963
vn 0.0645186 -0.00378131 0.997909
vn 0.0318222 0.0330337 0.998948
vn -0.0428483 0.0828006 0.995645
vn -0.114282 0.100574 0.988344
vn -0.165835 0.0950607 0.981561
vn 0.0581943 -0.160736 0.98528
f 100/100/100 4/4/4 13/13/13
f 44/44/44 3/3/3 21/21/21
f 44/44/44 19/19/19 20/20/20
f 60/60/60 19/19/19 52/52/52
f 60/60/60 17/17/17 18/18/18
f 76/76/76 17/17/17 68/68/68
f 84/84/84 16/16/16 76/76/76
f 84/84/84 14/14/14 15/15/15
f 100/100/100 14/14/14 92/92/92
f 11/11/11 93/93/93 85/85/85
f 93/93/93 86/86/86 85/85/85
f 94/94/94 87/87/87 86/86/86
f 87/87/87 96/96/96 88/88/88
f 96/96/96 89/89/89 88/88/88
f 97/97/97 90/90/90 89/89/89
f 90/90/90 99/99/99 91/91/91
f 91/91/91 100/100/100 92/92/92
f 10/10/10 85/85/85 77/77/77
f 77/77/77 86/86/86 78/78/78
f 78/78/78 87/87/87 79/79/79
f 79/79/79 88/88/88 80/80/80
f 88/88/88 81/81/81 80/80/80
f 81/81/81 90/90/90 82/82/82
f 82/82/82 91/91/91 83/83/83
f 91/91/91 84/84/84 83/83/83
f 10/10/10 69/69/69 9/9/9
f 69/69/69 78/78/78 70/70/70
f 70/70/70 79/79/79 71/71/71
f 79/79/79 72/72/72 71/71/71
f 72/72/72 81/81/81 73/73/73
f 73/73/73 82/82/82 74/74/74
f 82/82/82 75/75/75 74/74/74
f 83/83/83 76/76/76 75/75/75
f 9/9/9 61/61/61 8/8/8
f 69/69/69 62/62/62 61/61/61
f 62/62/62 71/71/71 63/63/63
f 63/63/63 72/72/72 64/64/64
f 72/72/72 65/65/65 64/64/64
f 65/65/65 74/74/74 66/66/66
f 66/66/66 75/75/75 67/67/67
f 67/67/67 76/76/76 68/68/68
f 8/8/8 53/53/53 7/7/7
f 53/53/53 62/62/62 54/54/54
f 54/54/54 63/63/63 55/55/55
f 55/55/55 64/64/64 56/56/56
f 64/64/64 57/57/57 56/56/56
f 57/57/57 66/66/66 58/58/58
f 58/58/58 67/67/67 59/59/59
f 59/59/59 68/68/68 60/60/60
f 6/6/6 53/53/53 45/45/45
f 45/45/45 54/54/54 46/46/46
f 54/54/54 47/47/47 46/46/46
f 55/55/55 48/48/48 47/47/47
f 56/56/56 49/49/49 48/48/48
f 49/49/49 58/58/58 50/50/50
f 58/58/58 51/51/51 50/50/50
f 59/59/59 52/52/52 51/51/51
f 6/6/6 37/37/37 5/5/5
f 45/45/45 38/38/38 37/37/37
f 46/46/46 39/39/39 38/38/38
f 39/39/39 48/48/48 40/40/40
f 40/40/40 49/49/49 41/41/41
f 41/41/41 50/50/50 42/42/42
f 50/50/50 43/43/43 42/42/42
f 51/51/51 44/44/44 43/43/43
f 5/5/5 28/28/28 1/1/1
f 28/28/28 38/38/38 27/27/27
f 27/27/27 39/39/39 26/26/26
f 26/26/26 40/40/40 25/25/25
f 40/40/40 24/24/24 25/25/25
f 41/41/41 23/23/23 24/24/24
f 23/23/23 43/43/43 22/22/22
f 43/43/43 21/21/21 22/22/22
f 2/2/2 93/93/93 12/12/12
f 93/93/93 30/30/30 94/94/94
f 30/30/30 95/95/95 94/94/94
f 31/31/31 96/96/96 95/95/95
f 32/32/32 97/97/97 96/96/96
f 33/33/33 98/98/98 97/97/97
f 98/98/98 35/35/35 99/99/99
f 99/99/99 36/36/36 100/100/100
f 100/100/100 36/36/36 4/4/4
f 44/44/44 20/20/20 3/3/3
f 44/44/44 52/52/52 19/19/19
f 60/60/60 18/18/18 19/19/19
f 60/60/60 68/68/68 17/17/17
f 76/76/76 16/16/16 17/17/17
f 84/84/84 15/15/15 16/16/16
f 84/84/84 92/92/92 14/14/14
f 100/100/100 13/13/13 14/14/14
f 11/11/11 12/12/12 93/93/93
f 93/93/93 94/94/94 86/86/86
f 94/94/94 95/95/95 87/87/87
f 87/87/87 95/95/95 96/96/96
f 96/96/96 97/97/97 89/89/89
f 97/97/97 98/98/98 90/90/90
f 90/90/90 98/98/98 99/99/99
f 91/91/91 99/99/99 100/100/100
f 10/10/10 11/11/11 85/85/85
f 77/77/77 85/85/85 86/86/86
f 78/78/78 86/86/86 87/87/87
f 79/79/79 87/87/87 88/88/88
f 88/88/88 89/89/89 81/81/81
f 81/81/81 89/89/89 90/90/90
f 82/82/82 90/90/90 91/91/91
f 91/91/91 92/92/92 84/84/84
f 10/10/10 77/77/77 69/69/69
f 69/69/69 77/77/77 78/78/78
f 70/70/70 78/78/78 79/79/79
f 79/79/79 80/80/80 72/72/72
f 72/72/72 80/80/80 81/81/81
f 73/73/73 81/81/81 82/82/82
f 82/82/82 83/83/83 75/75/75
f 83/83/83 84/84/84 76/76/76
f 9/9/9 69/69/69 61/61/61
f 69/69/69 70/70/70 62/62/62
f 62/62/62 70/70/70 71/71/71
f 63/63/63 71/71/71 72/72/72
f 72/72/72 73/73/73 65/65/65
f 65/65/65 73/73/73 74/74/74
f 66/66/66 74/74/74 75/75/75
f 67/67/67 75/75/75 76/76/76
f 8/8/8 61/61/61 53/53/53
f 53/53/53 61/61/61 62/62/62
f 54/54/54 62/62/62 63/63/63
f 55/55/55 63/63/63 64/64/64
f 64/64/64 65/65/65 57/57/57
f 57/57/57 65/65/65 66/66/66
f 58/58/58 66/66/66 67/67/67
f 59/59/59 67/67/67 68/68/68
f 6/6/6 7/7/7 53/53/53
f 45/45/45 53/53/53 54/54/54
f 54/54/54 55/55/55 47/47/47
f 55/55/55 56/56/56 48/48/48
f 56/56/56 57/57/57 49/49/49
f 49/49/49 57/57/57 58/58/58
f 58/58/58 59/59/59 51/51/51
f 59/59/59 60/60/60 52/52/52
f 6/6/6 45/45/45 37/37/37
f 45/45/45 46/46/46 38/38/38
f 46/46/46 47/47/47 39/39/39
f 39/39/39 47/47/47 48/48/48
f 40/40/40 48/48/48 49/49/49
f 41/41/41 49/49/49 50/50/50
f 50/50/50 51/51/51 43/43/43
f 51/51/51 52/52/52 44/44/44
f 5/5/5 37/37/37 28/28/28
f 28/28/28 37/37/37 38/38/38
f 27/27/27 38/38/38 39/39/39
f 26/26/26 39/39/39 40/40/40
f 40/40/40 41/41/41 24/24/24
f 41/41/41 42/42/42 23/23/23
f 23/23/23 42/42/42 43/43/43
f 43/43/43 44/44/44 21/21/21
f 2/2/2 29/29/29 93/93/93
f 93/93/93 29/29/29 30/30/30
f 30/30/30 31/31/31 95/95/95
f 31/31/31 32/32/32 96/96/96
f 32/32/32 33/33/33 97/97/97
f 33/33/33 34/34/34 98/98/98
f 98/98/98 34/34/34 35/35/35
f 99/99/99 35/35/35 36/36/36
