o GNATVCloth
v -5.09639 -4.96891 0.524551
v 4.97256 -4.99073 0.444263
v -5.01298 5.02105 0.004229
v 4.98702 5.02105 0.004229
v -3.98251 -5.00653 0.527463
v -2.86905 -5.04051 0.4463
v -1.74799 -5.05982 0.441316
v -0.625523 -5.07892 0.42531
v 0.499303 -5.08322 0.396992
v 1.6222 -5.06497 0.3776
v 2.74167 -5.03819 0.436134
v 3.85833 -5.01005 0.466818
v 3.85177 4.95184 0.161947
v 2.7254 4.89895 0.297091
v 1.59715 4.83034 0.380087
v 0.478208 4.7644 0.486864
v -0.636828 4.70473 0.413957
v -1.72662 4.71418 0.261165
v -2.82399 4.76521 0.465041
v -3.91376 4.87724 0.239533
v -4.99833 3.90879 0.0848231
v -4.99906 2.79432 0.108361
v -5.00992 1.68117 0.143578
v -5.02227 0.569187 0.19416
v -5.03089 -0.541234 0.267473
v -5.04275 -1.65044 0.350612
v -5.05241 -2.75747 0.455252
v -5.06594 -3.86389 0.548882
v 4.95613 -3.88169 0.356762
v 4.94923 -2.77228 0.288927
v 4.94763 -1.66042 0.269015
v 4.94893 -0.547854 0.24343
v 4.94744 0.565131 0.219446
v 4.94622 1.67874 0.176854
v 4.95139 2.793 0.13344
v 4.95649 3.90634 0.0605902
v -3.90135 -3.85982 0.404634
v -3.86315 -3.22111 0.301205
v -3.70862 -1.93513 0.195223
v -4.14401 -0.27631 0.171534
v -4.16193 0.738965 0.195974
v -4.14892 1.52457 0.169555
v -4.07514 2.81695 0.122317
v -3.94544 3.87343 -0.144351
v -2.78126 -4.02562 0.294865
v -2.84361 -2.75759 0.225747
v -2.72405 -2.16886 0.289792
v -2.78859 -0.624559 0.337541
v -2.80992 0.50925 0.328717
v -2.72807 1.54633 0.172407
v -2.86424 2.8541 -0.138104
v -2.83775 3.45973 0.22355
v -1.72035 -4.25226 0.34354
v -1.55673 -2.94361 0.380663
v -1.94392 -1.65557 0.450052
v -1.9178 -0.859097 0.405931
v -1.55904 0.605395 0.0902393
v -2.01062 1.6565 -0.0351882
v -1.76864 2.69163 0.187286
v -1.62856 3.61638 0.335883
v -0.296685 -4.34243 0.376511
v -0.643674 -2.90463 0.392202
v -0.600497 -1.77002 0.44747
v -0.886669 -0.799171 0.327116
v -0.645083 0.412137 0.217476
v -0.40815 1.45124 0.241691
v -0.612503 2.6295 0.323857
v -0.804495 3.44987 0.362308
v 0.67637 -3.91626 0.374322
v 0.755062 -2.62486 0.421709
v 0.471002 -1.83537 0.408053
v 0.561708 -0.503558 0.350693
v 0.538057 0.399852 0.300527
v 0.258285 1.51047 0.346408
v 0.487374 2.48029 0.367439
v 0.500495 3.7137 0.434196
v 1.89141 -3.66204 0.43719
v 1.61441 -2.85809 0.336463
v 1.77075 -1.93358 0.400725
v 1.93458 -0.398694 0.355286
v 1.91928 0.266009 0.179399
v 1.78912 1.53175 0.251765
v 1.37819 2.80896 0.31426
v 1.44014 3.6426 0.356711
v 2.73364 -3.92598 0.420648
v 3.04234 -2.84046 0.351641
v 2.89524 -1.96599 0.253589
v 2.67319 -0.505538 0.360803
v 2.91687 0.287241 0.273079
v 3.02553 1.56545 0.0217682
v 2.73668 3.13326 0.114734
v 2.70344 3.50001 0.150272
v 3.85816 -3.97095 0.344129
v 3.60575 -2.71684 0.337078
v 3.8207 -1.67792 0.296745
v 3.76294 -0.724162 0.262352
v 3.82965 0.287821 0.298191
v 4.12665 1.80281 0.18214
v 4.10808 2.75563 0.0178093
v 4.00077 3.88173 -0.0168296
vt 0.0001 0.0001
vt 0.9999 0.0001
vt 0.0001 0.9999
vt 0.9999 0.9999
vt 0.111189 0.0001
vt 0.222278 0.0001
vt 0.333367 0.0001
vt 0.444455 0.0001
vt 0.555544 0.0001
vt 0.666633 0.0001
vt 0.777722 0.0001
vt 0.888811 0.0001
vt 0.888811 0.9999
vt 0.777722 0.9999
vt 0.666633 0.9999
vt 0.555544 0.9999
vt 0.444455 0.9999
vt 0.333367 0.9999
vt 0.222278 0.9999
vt 0.111189 0.9999
vt 0.0001 0.888811
vt 0.0001 0.777722
vt 0.0001 0.666633
vt 0.0001 0.555544
vt 0.0001 0.444456
vt 0.0001 0.333367
vt 0.0001 0.222278
vt 0.0001 0.111189
vt 0.9999 0.111189
vt 0.9999 0.222278
vt 0.9999 0.333367
vt 0.9999 0.444456
vt 0.9999 0.555544
vt 0.9999 0.666633
vt 0.9999 0.777722
vt 0.9999 0.888811
vt 0.11727 0.115399
vt 0.120778 0.180369
vt 0.134636 0.309595
vt 0.088728 0.473895
vt 0.085886 0.575352
vt 0.086211 0.65375
vt 0.092207 0.78313
vt 0.106956 0.892282
vt 0.22987 0.102869
vt 0.221803 0.229552
vt 0.233521 0.288953
vt 0.225541 0.443179
vt 0.221596 0.556167
vt 0.227801 0.661237
vt 0.214896 0.795203
vt 0.22542 0.865181
vt 0.335524 0.082127
vt 0.351143 0.213907
vt 0.311934 0.342467
vt 0.313159 0.422214
vt 0.347791 0.572605
vt 0.301482 0.677733
vt 0.329031 0.783086
vt 0.344903 0.885466
vt 0.476837 0.074882
vt 0.441952 0.218774
vt 0.445749 0.333088
vt 0.416414 0.43099
vt 0.439746 0.552976
vt 0.463203 0.656843
vt 0.444252 0.77653
vt 0.426137 0.866051
vt 0.573419 0.117409
vt 0.581125 0.246686
vt 0.552512 0.326
vt 0.561075 0.459693
vt 0.558356 0.550596
vt 0.530299 0.662189
vt 0.553275 0.760113
vt 0.555478 0.888821
vt 0.694433 0.13996
vt 0.667048 0.221666
vt 0.681985 0.314267
vt 0.698218 0.467249
vt 0.696819 0.535952
vt 0.68253 0.662758
vt 0.642062 0.791726
vt 0.648523 0.877957
vt 0.778029 0.111667
vt 0.809426 0.219523
vt 0.794923 0.307783
vt 0.772028 0.454562
vt 0.796846 0.533374
vt 0.807262 0.663157
vt 0.778581 0.821037
vt 0.775122 0.858219
vt 0.890224 0.104741
vt 0.865679 0.23076
vt 0.887326 0.334104
vt 0.881307 0.429754
vt 0.887973 0.53063
vt 0.918106 0.681428
vt 0.915043 0.778027
vt 0.904815 0.89094
vn -0.00335464 -0.0219213 0.999754
vn 0.000113637 0.0978442 0.995202
vn -0.0129969 -0.140268 0.990028
vn 0.0317493 -0.0459383 0.99844
vn 0.0648752 0.0589002 0.996154
vn 0.0463 0.126773 0.990851
vn 0.0113359 0.119808 0.992732
vn 0.00771841 0.0829567 0.996523
vn 0.0118785 0.0307097 0.999458
vn -0.0185539 -0.0117763 0.999759
vn -0.00478197 0.0484939 0.998812
vn -0.00608309 0.117255 0.993083
vn 0.134696 -0.145004 0.98022
vn 0.126685 -0.0969336 0.987195
vn 0.0859825 -0.0309646 0.995815
vn 0.0377203 -0.0440846 0.998315
vn -0.0720792 -0.0167411 0.997258
vn 0.0241213 0.0700291 0.997253
vn -0.122092 -0.156522 0.980099
vn -0.231602 -0.341103 0.911048
vn 0.13913 0.103882 0.98481
vn -0.0157463 0.026448 0.999526
vn -0.018548 0.0372942 0.999132
vn 0.0265999 0.0288774 0.999229
vn 0.0868215 0.0692519 0.993814
vn 0.115228 0.0709379 0.990803
vn 0.148695 0.0788045 0.985738
vn 0.100085 0.077348 0.991968
vn -0.0171385 0.069652 0.997424
vn 0.020336 0.0307364 0.999321
vn 0.0202842 0.0261305 0.999453
vn 0.0329784 0.00259041 0.999453
vn 0.0436974 0.0418769 0.998167
vn 0.012281 0.038551 0.999181
vn -0.0894451 0.0902892 0.991891
vn -0.100611 0.0469461 0.993818
vn 0.110781 0.127702 0.985606
vn 0.106472 0.0971733 0.989556
vn 0.0152241 0.0203595 0.999677
vn -0.00672596 0.0175745 0.999823
vn -0.0346773 0.0363529 0.998737
vn -0.0130779 0.0355427 0.999283
vn 0.0798309 0.116149 0.990018
vn -0.09708 -0.122264 0.987738
vn 0.0178907 0.0872484 0.996026
vn -0.0546459 0.00352044 0.9985
vn -0.133396 -0.0666998 0.988816
vn -0.11129 -0.00381184 0.993781
vn 0.033485 0.0898393 0.995393
vn 0.103498 0.142116 0.984424
vn -0.0762617 -0.0642799 0.995014
vn -0.256443 -0.291512 0.921552
vn -0.0136826 0.0568586 0.998288
vn -0.0656341 -0.040005 0.997042
vn -0.0498088 0.00825084 0.998725
vn 0.0341009 0.0964468 0.994754
vn -0.00144745 0.121205 0.992626
vn -0.0161524 0.0287321 0.999457
vn -0.16847 -0.196631 0.965896
vn -0.032634 -0.0632052 0.997467
vn -0.00352372 0.0247009 0.999689
vn -0.0061506 -0.0254336 0.999658
vn 0.00557227 0.0210511 0.999763
vn -0.00660471 0.116311 0.993191
vn -0.0972802 0.0375047 0.99455
vn -0.141195 -0.0158167 0.989855
vn -0.0948795 -0.0907834 0.991341
vn -0.0627695 -0.0703683 0.995544
vn -0.00381335 0.00227097 0.99999
vn 0.0268513 -0.0261917 0.999296
vn 0.0131987 0.0123638 0.999837
vn -0.00400759 0.0863307 0.996258
vn 0.0195815 -0.00437308 0.999799
vn -0.0521066 -0.0186203 0.998468
vn -0.00707964 -0.0390882 0.999211
vn 0.00504581 -0.0509349 0.998689
vn -0.017364 0.039197 0.999081
vn 0.0325905 0.0193345 0.999282
vn 0.0484646 -0.014743 0.998716
vn -0.000416316 0.143892 0.989593
vn 0.0252854 0.118821 0.992594
vn 0.112881 -0.0286267 0.993196
vn 0.106488 -0.04029 0.993497
vn 0.112716 -0.0594707 0.991846
vn 0.0255803 0.0162327 0.999541
vn 0.017792 0.0748224 0.997038
vn 0.0290817 0.0144679 0.999472
vn 0.0406955 0.0651899 0.997043
vn -0.0283447 0.116196 0.992822
vn -0.0059904 0.0807063 0.99672
vn 0.133006 -0.0374613 0.990407
vn 0.152256 -0.0936367 0.983896
vn 0.0189647 0.0569607 0.998196
vn 0.00713748 0.0435931 0.999024
vn -0.00676987 0.0341755 0.999393
vn 0.0224152 0.00555484 0.999733
vn -0.013471 0.0536187 0.998471
vn -0.0679761 0.0972579 0.992935
vn -0.0671255 0.0684605 0.995393
vn 0.0713766 -0.0523563 0.996074
f 100/100/100 4/4/4 13/13/13
f 44/44/44 3/3/3 21/21/21
f 44/44/44 19/19/19 20/20/20
f 60/60/60 19/19/19 52/52/52
f 60/60/60 17/17/17 18/18/18
f 76/76/76 17/17/17 68/68/68
f 84/84/84 16/16/16 76/76/76
f 84/84/84 14/14/14 15/15/15
f 100/100/100 14/14/14 92/92/92
f 11/11/11 93/93/93 85/85/85
f 93/93/93 86/86/86 85/85/85
f 94/94/94 87/87/87 86/86/86
f 87/87/87 96/96/96 88/88/88
f 96/96/96 89/89/89 88/88/88
f 97/97/97 90/90/90 89/89/89
f 90/90/90 99/99/99 91/91/91
f 91/91/91 100/100/100 92/92/92
f 10/10/10 85/85/85 77/77/77
f 77/77/77 86/86/86 78/78/78
f 78/78/78 87/87/87 79/79/79
f 79/79/79 88/88/88 80/80/80
f 88/88/88 81/81/81 80/80/80
f 81/81/81 90/90/90 82/82/82
f 82/82/82 91/91/91 83/83/83
f 91/91/91 84/84/84 83/83/83
f 10/10/10 69/69/69 9/9/9
f 69/69/69 78/78/78 70/70/70
f 70/70/70 79/79/79 71/71/71
f 79/79/79 72/72/72 71/71/71
f 72/72/72 81/81/81 73/73/73
f 73/73/73 82/82/82 74/74/74
f 82/82/82 75/75/75 74/74/74
f 83/83/83 76/76/76 75/75/75
f 9/9/9 61/61/61 8/8/8
f 69/69/69 62/62/62 61/61/61
f 62/62/62 71/71/71 63/63/63
f 63/63/63 72/72/72 64/64/64
f 72/72/72 65/65/65 64/64/64
f 65/65/65 74/74/74 66/66/66
f 66/66/66 75/75/75 67/67/67
f 67/67/67 76/76/76 68/68/68
f 8/8/8 53/53/53 7/7/7
f 53/53/53 62/62/62 54/54/54
f 54/54/54 63/63/63 55/55/55
f 55/55/55 64/64/64 56/56/56
f 64/64/64 57/57/57 56/56/56
f 57/57/57 66/66/66 58/58/58
f 58/58/58 67/67/67 59/59/59
f 59/59/59 68/68/68 60/60/60
f 6/6/6 53/53/53 45/45/45
f 45/45/45 54/54/54 46/46/46
f 54/54/54 47/47/47 46/46/46
f 55/55/55 48/48/48 47/47/47
f 56/56/56 49/49/49 48/48/48
f 49/49/49 58/58/58 50/50/50
f 58/58/58 51/51/51 50/50/50
f 59/59/59 52/52/52 51/51/51
f 6/6/6 37/37/37 5/5/5
f 45/45/45 38/38/38 37/37/37
f 46/46/46 39/39/39 38/38/38
f 39/39/39 48/48/48 40/40/40
f 40/40/40 49/49/49 41/41/41
f 41/41/41 50/50/50 42/42/42
f 50/50/50 43/43/43 42/42/42
f 51/51/51 44/44/44 43/43/43
f 5/5/5 28/28/28 1/1/1
f 28/28/28 38/38/38 27/27/27
f 27/27/27 39/39/39 26/26/26
f 26/26/26 40/40/40 25/25/25
f 40/40/40 24/24/24 25/25/25
f 41/41/41 23/23/23 24/24/24
f 23/23/23 43/43/43 22/22/22
f 43/43/43 21/21/21 22/22/22
f 2/2/2 93/93/93 12/12/12
f 93/93/93 30/30/30 94/94/94
f 30/30/30 95/95/95 94/94/94
f 31/31/31 96/96/96 95/95/95
f 32/32/32 97/97/97 96/96/96
f 33/33/33 98/98/98 97/97/97
f 98/98/98 35/35/35 99/99/99
f 99/99/99 36/36/36 100/100/100
f 100/100/100 36/36/36 4/4/4
f 44/44/44 20/20/20 3/3/3
f 44/44/44 52/52/52 19/19/19
f 60/60/60 18/18/18 19/19/19
f 60/60/60 68/68/68 17/17/17
f 76/76/76 16/16/16 17/17/17
f 84/84/84 15/15/15 16/16/16
f 84/84/84 92/92/92 14/14/14
f 100/100/100 13/13/13 14/14/14
f 11/11/11 12/12/12 93/93/93
f 93/93/93 94/94/94 86/86/86
f 94/94/94 95/95/95 87/87/87
f 87/87/87 95/95/95 96/96/96
f 96/96/96 97/97/97 89/89/89
f 97/97/97 98/98/98 90/90/90
f 90/90/90 98/98/98 99/99/99
f 91/91/91 99/99/99 100/100/100
f 10/10/10 11/11/11 85/85/85
f 77/77/77 85/85/85 86/86/86
f 78/78/78 86/86/86 87/87/87
f 79/79/79 87/87/87 88/88/88
f 88/88/88 89/89/89 81/81/81
f 81/81/81 89/89/89 90/90/90
f 82/82/82 90/90/90 91/91/91
f 91/91/91 92/92/92 84/84/84
f 10/10/10 77/77/77 69/69/69
f 69/69/69 77/77/77 78/78/78
f 70/70/70 78/78/78 79/79/79
f 79/79/79 80/80/80 72/72/72
f 72/72/72 80/80/80 81/81/81
f 73/73/73 81/81/81 82/82/82
f 82/82/82 83/83/83 75/75/75
f 83/83/83 84/84/84 76/76/76
f 9/9/9 69/69/69 61/61/61
f 69/69/69 70/70/70 62/62/62
f 62/62/62 70/70/70 71/71/71
f 63/63/63 71/71/71 72/72/72
f 72/72/72 73/73/73 65/65/65
f 65/65/65 73/73/73 74/74/74
f 66/66/66 74/74/74 75/75/75
f 67/67/67 75/75/75 76/76/76
f 8/8/8 61/61/61 53/53/53
f 53/53/53 61/61/61 62/62/62
f 54/54/54 62/62/62 63/63/63
f 55/55/55 63/63/63 64/64/64
f 64/64/64 65/65/65 57/57/57
f 57/57/57 65/65/65 66/66/66
f 58/58/58 66/66/66 67/67/67
f 59/59/59 67/67/67 68/68/68
f 6/6/6 7/7/7 53/53/53
f 45/45/45 53/53/53 54/54/54
f 54/54/54 55/55/55 47/47/47
f 55/55/55 56/56/56 48/48/48
f 56/56/56 57/57/57 49/49/49
f 49/49/49 57/57/57 58/58/58
f 58/58/58 59/59/59 51/51/51
f 59/59/59 60/60/60 52/52/52
f 6/6/6 45/45/45 37/37/37
f 45/45/45 46/46/46 38/38/38
f 46/46/46 47/47/47 39/39/39
f 39/39/39 47/47/47 48/48/48
f 40/40/40 48/48/48 49/49/49
f 41/41/41 49/49/49 50/50/50
f 50/50/50 51/51/51 43/43/43
f 51/51/51 52/52/52 44/44/44
f 5/5/5 37/37/37 28/28/28
f 28/28/28 37/37/37 38/38/38
f 27/27/27 38/38/38 39/39/39
f 26/26/26 39/39/39 40/40/40
f 40/40/40 41/41/41 24/24/24
f 41/41/41 42/42/42 23/23/23
f 23/23/23 42/42/42 43/43/43
f 43/43/43 44/44/44 21/21/21
f 2/2/2 29/29/29 93/93/93
f 93/93/93 29/29/29 30/30/30
f 30/30/30 31/31/31 95/95/95
f 31/31/31 32/32/32 96/96/96
f 32/32/32 33/33/33 97/97/97
f 33/33/33 34/34/34 98/98/98
f 98/98/98 34/34/34 35/35/35
f 99/99/99 35/35/35 36/36/36
