o GNATVCloth
v -5.06216 -4.97781 0.55234
v 4.96673 -4.98391 0.423853
v -5.01298 5.02105 0.004229
v 4.98702 5.02105 0.004229
v -3.95054 -4.99757 0.548014
v -2.84042 -5.02541 0.471332
v -1.72323 -5.03262 0.472479
v -0.605114 -5.03885 0.478044
v 0.513341 -5.04463 0.433725
v 1.63249 -5.03412 0.441515
v 2.7457 -5.01747 0.455798
v 3.85714 -4.98857 0.496991
v 3.85764 4.95201 0.127895
v 2.74228 4.8965 0.272435
v 1.62478 4.85097 0.364305
v 0.506028 4.83068 0.413543
v -0.614105 4.81295 0.452447
v -1.73269 4.7969 0.369086
v -2.83649 4.81037 0.582994
v -3.92798 4.89846 0.314717
v -4.99706 3.90825 0.0732242
v -4.99832 2.79548 0.136604
v -5.01032 1.68296 0.190839
v -5.02244 0.56998 0.227672
v -5.02585 -0.541166 0.295073
v -5.02986 -1.65167 0.368808
v -5.03354 -2.76017 0.449542
v -5.0411 -3.86803 0.53851
v 4.95687 -3.88093 0.303769
v 4.95336 -2.76844 0.315077
v 4.9506 -1.65674 0.276534
v 4.94943 -0.544899 0.229492
v 4.94809 0.56791 0.206591
v 4.95071 1.68128 0.182638
v 4.95535 2.7954 0.152797
v 4.96312 3.90732 0.0677979
v -3.88298 -3.86598 0.345065
v -3.84391 -3.21841 0.281589
v -3.69341 -1.92863 0.231308
v -4.14275 -0.273091 0.193058
v -4.16201 0.74335 0.213948
v -4.15022 1.52545 0.156798
v -4.07717 2.8155 0.0708761
v -3.92999 3.89493 -0.0734156
v -2.75671 -4.01918 0.276558
v -2.82686 -2.74949 0.287038
v -2.70564 -2.15914 0.286904
v -2.78052 -0.616516 0.323054
v -2.80686 0.512522 0.263413
v -2.73024 1.5509 0.107046
v -2.8532 2.87851 -0.103291
v -2.76874 3.53654 0.136684
v -1.69716 -4.23366 0.337987
v -1.53403 -2.9268 0.393058
v -1.92643 -1.64029 0.421085
v -1.90536 -0.847138 0.37569
v -1.54986 0.628708 0.122719
v -2.0009 1.67544 -0.0502542
v -1.73425 2.70186 0.131782
v -1.59084 3.67031 0.42195
v -0.27947 -4.30396 0.383002
v -0.622889 -2.88317 0.422363
v -0.581984 -1.74512 0.485087
v -0.871406 -0.780343 0.333501
v -0.632417 0.426739 0.180321
v -0.390169 1.45173 0.186002
v -0.580636 2.62834 0.225968
v -0.770795 3.48031 0.386692
v 0.690217 -3.88659 0.399712
v 0.773505 -2.59942 0.499848
v 0.488604 -1.8114 0.457212
v 0.575312 -0.480993 0.333836
v 0.55657 0.410542 0.276345
v 0.275393 1.50226 0.298871
v 0.510289 2.47301 0.281787
v 0.529934 3.73185 0.423454
v 1.89926 -3.63318 0.447811
v 1.62105 -2.82882 0.329009
v 1.78726 -1.91225 0.448639
v 1.94582 -0.391634 0.262606
v 1.93085 0.264659 0.0590951
v 1.80711 1.52451 0.191511
v 1.39907 2.80292 0.256891
v 1.47025 3.63209 0.382492
v 2.73878 -3.90745 0.421017
v 3.04668 -2.82677 0.327257
v 2.90055 -1.95025 0.234862
v 2.67778 -0.490491 0.347713
v 2.9172 0.300694 0.258366
v 3.04151 1.56799 -0.0334324
v 2.7484 3.13811 0.0226566
v 2.73094 3.48701 0.155063
v 3.85868 -3.96149 0.30696
v 3.60976 -2.70647 0.334906
v 3.82395 -1.66909 0.289535
v 3.7649 -0.71305 0.276233
v 3.8303 0.295994 0.310972
v 4.13234 1.80793 0.16422
v 4.12223 2.7572 -0.0207863
v 4.01382 3.88539 -0.0623856
vt 0.0001 0.0001
vt 0.9999 0.0001
vt 0.0001 0.9999
vt 0.9999 0.9999
vt 0.111189 0.0001
vt 0.222278 0.0001
vt 0.333367 0.0001
vt 0.444455 0.0001
vt 0.555544 0.0001
vt 0.666633 0.0001
vt 0.777722 0.0001
vt 0.888811 0.0001
vt 0.888811 0.9999
vt 0.777722 0.9999
vt 0.666633 0.9999
vt 0.555544 0.9999
vt 0.444455 0.9999
vt 0.333367 0.9999
vt 0.222278 0.9999
vt 0.111189 0.9999
vt 0.0001 0.888811
vt 0.0001 0.777722
vt 0.0001 0.666633
vt 0.0001 0.555544
vt 0.0001 0.444456
vt 0.0001 0.333367
vt 0.0001 0.222278
vt 0.0001 0.111189
vt 0.9999 0.111189
vt 0.9999 0.222278
vt 0.9999 0.333367
vt 0.9999 0.444456
vt 0.9999 0.555544
vt 0.9999 0.666633
vt 0.9999 0.777722
vt 0.9999 0.888811
vt 0.11727 0.115399
vt 0.120778 0.180369
vt 0.134636 0.309595
vt 0.088728 0.473895
vt 0.085886 0.575352
vt 0.086211 0.65375
vt 0.092207 0.78313
vt 0.106956 0.892282
vt 0.22987 0.102869
vt 0.221803 0.229552
vt 0.233521 0.288953
vt 0.225541 0.443179
vt 0.221596 0.556167
vt 0.227801 0.661237
vt 0.214896 0.795203
vt 0.22542 0.865181
vt 0.335524 0.082127
vt 0.351143 0.213907
vt 0.311934 0.342467
vt 0.313159 0.422214
vt 0.347791 0.572605
vt 0.301482 0.677733
vt 0.329031 0.783086
vt 0.344903 0.885466
vt 0.476837 0.074882
vt 0.441952 0.218774
vt 0.445749 0.333088
vt 0.416414 0.43099
vt 0.439746 0.552976
vt 0.463203 0.656843
vt 0.444252 0.77653
vt 0.426137 0.866051
vt 0.573419 0.117409
vt 0.581125 0.246686
vt 0.552512 0.326
vt 0.561075 0.459693
vt 0.558356 0.550596
vt 0.530299 0.662189
vt 0.553275 0.760113
vt 0.555478 0.888821
vt 0.694433 0.13996
vt 0.667048 0.221666
vt 0.681985 0.314267
vt 0.698218 0.467249
vt 0.696819 0.535952
vt 0.68253 0.662758
vt 0.642062 0.791726
vt 0.648523 0.877957
vt 0.778029 0.111667
vt 0.809426 0.219523
vt 0.794923 0.307783
vt 0.772028 0.454562
vt 0.796846 0.533374
vt 0.807262 0.663157
vt 0.778581 0.821037
vt 0.775122 0.858219
vt 0.890224 0.104741
vt 0.865679 0.23076
vt 0.887326 0.334104
vt 0.881307 0.429754
vt 0.887973 0.53063
vt 0.918106 0.681428
vt 0.915043 0.778027
vt 0.904815 0.89094
vn 0.00411182 0.0123831 0.999915
vn 0.0294744 0.145015 0.98899
vn -0.0825139 -0.147313 0.985642
vn -0.0101227 -0.0499066 0.998703
vn 0.07989 0.11693 0.989922
vn 0.034665 0.17817 0.983389
vn -0.00196151 0.16606 0.986114
vn 0.00379971 0.138677 0.99033
vn 0.000246127 0.0585391 0.998285
vn -0.00808003 0.0137447 0.999873
vn 0.0161914 0.0819895 0.996502
vn 0.0114048 0.181905 0.98325
vn 0.125782 -0.156349 0.97966
vn 0.144225 -0.0793273 0.98636
vn 0.0627855 0.00693144 0.998003
vn 0.0409761 0.00969938 0.999113
vn -0.00718891 -0.0132171 0.999887
vn 0.058432 0.0541316 0.996823
vn -0.132377 -0.244282 0.960626
vn -0.27217 -0.346635 0.897646
vn 0.114473 0.0776708 0.990385
vn 0.0699465 0.0522333 0.996182
vn 0.0457747 0.0540873 0.997486
vn 0.0420119 0.0242909 0.998822
vn 0.0956988 0.0627909 0.993428
vn 0.108277 0.0636757 0.992079
vn 0.144501 0.0569699 0.987863
vn 0.125241 0.0856812 0.98842
vn -0.000699827 0.0491043 0.998793
vn 0.0113184 0.0113233 0.999872
vn 0.0186453 0.030528 0.99936
vn 0.0554033 0.00854671 0.998428
vn 0.0473116 0.0414191 0.998021
vn -0.0187506 0.0241986 0.999531
vn -0.145464 0.0965444 0.984642
vn -0.160147 0.0529773 0.985671
vn 0.111366 0.139978 0.983872
vn 0.088227 0.0521791 0.994733
vn 0.020316 0.0244562 0.999494
vn 0.0152837 0.0265997 0.999529
vn 0.0108328 0.0476901 0.998803
vn 0.0427758 0.0680847 0.996762
vn 0.0895945 0.0895183 0.991947
vn -0.0989281 -0.154935 0.982959
vn -0.00173753 0.0690816 0.997609
vn -0.0485663 0.00968876 0.998773
vn -0.0951076 -0.0180596 0.995303
vn -0.0803115 0.0168081 0.996628
vn 0.0281018 0.10199 0.994388
vn 0.0927735 0.126557 0.987611
vn -0.0482653 -0.0469792 0.997729
vn -0.230836 -0.305348 0.923839
vn -0.0251448 0.0796324 0.996507
vn -0.0668509 -0.0315612 0.997264
vn -0.062511 0.0218207 0.997806
vn 0.0145607 0.0949244 0.995378
vn -0.0010564 0.126606 0.991953
vn -0.0198805 0.041828 0.998927
vn -0.145948 -0.219998 0.964521
vn -0.0450519 -0.139228 0.989235
vn -0.0110041 0.0439774 0.998972
vn -0.0253657 -0.0365989 0.999008
vn -0.015431 0.0392131 0.999112
vn -0.00998697 0.128853 0.991613
vn -0.075453 0.0548322 0.995641
vn -0.123898 0.0180204 0.992131
vn -0.0754436 -0.125601 0.989208
vn -0.0196623 -0.155141 0.987697
vn -0.00226565 2.93922e-05 0.999997
vn 0.0479594 -0.0460122 0.997789
vn 0.00341182 0.0431956 0.999061
vn 0.018183 0.12585 0.991883
vn 0.0440216 -0.000759849 0.99903
vn -0.0567718 0.0100752 0.998336
vn -0.0190194 -0.0410028 0.998978
vn 0.0140122 -0.0840223 0.996365
vn -0.00424649 0.0670238 0.997742
vn 0.0754157 -0.0046132 0.997142
vn 0.0714082 0.00504407 0.997434
vn -0.0236268 0.210775 0.977249
vn 0.007009 0.130513 0.991422
vn 0.123005 -0.0303114 0.991943
vn 0.10383 -0.0929121 0.990246
vn 0.101069 -0.104086 0.98942
vn 0.0554603 0.0361312 0.997807
vn 0.0196664 0.0758368 0.996926
vn 0.0355159 -0.000356329 0.999369
vn -0.00814282 0.0957299 0.995374
vn -0.087187 0.140288 0.986265
vn -0.042541 0.0976528 0.994311
vn 0.146237 -0.120434 0.981891
vn 0.18781 -0.213117 0.958806
vn 0.0293096 0.063567 0.997547
vn -0.0179715 0.0311129 0.999354
vn -0.0200283 0.0318391 0.999292
vn 0.0149066 0.0024122 0.999886
vn -0.0188922 0.0671335 0.997565
vn -0.0997269 0.106803 0.989266
vn -0.117817 0.0805108 0.989766
vn 0.0683931 -0.0879202 0.993777
f 100/100/100 4/4/4 13/13/13
f 44/44/44 3/3/3 21/21/21
f 44/44/44 19/19/19 20/20/20
f 60/60/60 19/19/19 52/52/52
f 60/60/60 17/17/17 18/18/18
f 76/76/76 17/17/17 68/68/68
f 84/84/84 16/16/16 76/76/76
f 84/84/84 14/14/14 15/15/15
f 100/100/100 14/14/14 92/92/92
f 11/11/11 93/93/93 85/85/85
f 93/93/93 86/86/86 85/85/85
f 94/94/94 87/87/87 86/86/86
f 87/87/87 96/96/96 88/88/88
f 96/96/96 89/89/89 88/88/88
f 97/97/97 90/90/90 89/89/89
f 90/90/90 99/99/99 91/91/91
f 91/91/91 100/100/100 92/92/92
f 10/10/10 85/85/85 77/77/77
f 77/77/77 86/86/86 78/78/78
f 78/78/78 87/87/87 79/79/79
f 79/79/79 88/88/88 80/80/80
f 88/88/88 81/81/81 80/80/80
f 81/81/81 90/90/90 82/82/82
f 82/82/82 91/91/91 83/83/83
f 91/91/91 84/84/84 83/83/83
f 10/10/10 69/69/69 9/9/9
f 69/69/69 78/78/78 70/70/70
f 70/70/70 79/79/79 71/71/71
f 79/79/79 72/72/72 71/71/71
f 72/72/72 81/81/81 73/73/73
f 73/73/73 82/82/82 74/74/74
f 82/82/82 75/75/75 74/74/74
f 83/83/83 76/76/76 75/75/75
f 9/9/9 61/61/61 8/8/8
f 69/69/69 62/62/62 61/61/61
f 62/62/62 71/71/71 63/63/63
f 63/63/63 72/72/72 64/64/64
f 72/72/72 65/65/65 64/64/64
f 65/65/65 74/74/74 66/66/66
f 66/66/66 75/75/75 67/67/67
f 67/67/67 76/76/76 68/68/68
f 8/8/8 53/53/53 7/7/7
f 53/53/53 62/62/62 54/54/54
f 54/54/54 63/63/63 55/55/55
f 55/55/55 64/64/64 56/56/56
f 64/64/64 57/57/57 56/56/56
f 57/57/57 66/66/66 58/58/58
f 58/58/58 67/67/67 59/59/59
f 59/59/59 68/68/68 60/60/60
f 6/6/6 53/53/53 45/45/45
f 45/45/45 54/54/54 46/46/46
f 54/54/54 47/47/47 46/46/46
f 55/55/55 48/48/48 47/47/47
f 56/56/56 49/49/49 48/48/48
f 49/49/49 58/58/58 50/50/50
f 58/58/58 51/51/51 50/50/50
f 59/59/59 52/52/52 51/51/51
f 6/6/6 37/37/37 5/5/5
f 45/45/45 38/38/38 37/37/37
f 46/46/46 39/39/39 38/38/38
f 39/39/39 48/48/48 40/40/40
f 40/40/40 49/49/49 41/41/41
f 41/41/41 50/50/50 42/42/42
f 50/50/50 43/43/43 42/42/42
f 51/51/51 44/44/44 43/43/43
f 5/5/5 28/28/28 1/1/1
f 28/28/28 38/38/38 27/27/27
f 27/27/27 39/39/39 26/26/26
f 26/26/26 40/40/40 25/25/25
f 40/40/40 24/24/24 25/25/25
f 41/41/41 23/23/23 24/24/24
f 23/23/23 43/43/43 22/22/22
f 43/43/43 21/21/21 22/22/22
f 2/2/2 93/93/93 12/12/12
f 93/93/93 30/30/30 94/94/94
f 30/30/30 95/95/95 94/94/94
f 31/31/31 96/96/96 95/95/95
f 32/32/32 97/97/97 96/96/96
f 33/33/33 98/98/98 97/97/97
f 98/98/98 35/35/35 99/99/99
f 99/99/99 36/36/36 100/100/100
f 100/100/100 36/36/36 4/4/4
f 44/44/44 20/20/20 3/3/3
f 44/44/44 52/52/52 19/19/19
f 60/60/60 18/18/18 19/19/19
f 60/60/60 68/68/68 17/17/17
f 76/76/76 16/16/16 17/17/17
f 84/84/84 15/15/15 16/16/16
f 84/84/84 92/92/92 14/14/14
f 100/100/100 13/13/13 14/14/14
f 11/11/11 12/12/12 93/93/93
f 93/93/93 94/94/94 86/86/86
f 94/94/94 95/95/95 87/87/87
f 87/87/87 95/95/95 96/96/96
f 96/96/96 97/97/97 89/89/89
f 97/97/97 98/98/98 90/90/90
f 90/90/90 98/98/98 99/99/99
f 91/91/91 99/99/99 100/100/100
f 10/10/10 11/11/11 85/85/85
f 77/77/77 85/85/85 86/86/86
f 78/78/78 86/86/86 87/87/87
f 79/79/79 87/87/87 88/88/88
f 88/88/88 89/89/89 81/81/81
f 81/81/81 89/89/89 90/90/90
f 82/82/82 90/90/90 91/91/91
f 91/91/91 92/92/92 84/84/84
f 10/10/10 77/77/77 69/69/69
f 69/69/69 77/77/77 78/78/78
f 70/70/70 78/78/78 79/79/79
f 79/79/79 80/80/80 72/72/72
f 72/72/72 80/80/80 81/81/81
f 73/73/73 81/81/81 82/82/82
f 82/82/82 83/83/83 75/75/75
f 83/83/83 84/84/84 76/76/76
f 9/9/9 69/69/69 61/61/61
f 69/69/69 70/70/70 62/62/62
f 62/62/62 70/70/70 71/71/71
f 63/63/63 71/71/71 72/72/72
f 72/72/72 73/73/73 65/65/65
f 65/65/65 73/73/73 74/74/74
f 66/66/66 74/74/74 75/75/75
f 67/67/67 75/75/75 76/76/76
f 8/8/8 61/61/61 53/53/53
f 53/53/53 61/61/61 62/62/62
f 54/54/54 62/62/62 63/63/63
f 55/55/55 63/63/63 64/64/64
f 64/64/64 65/65/65 57/57/57
f 57/57/57 65/65/65 66/66/66
f 58/58/58 66/66/66 67/67/67
f 59/59/59 67/67/67 68/68/68
f 6/6/6 7/7/7 53/53/53
f 45/45/45 53/53/53 54/54/54
f 54/54/54 55/55/55 47/47/47
f 55/55/55 56/56/56 48/48/48
f 56/56/56 57/57/57 49/49/49
f 49/49/49 57/57/57 58/58/58
f 58/58/58 59/59/59 51/51/51
f 59/59/59 60/60/60 52/52/52
f 6/6/6 45/45/45 37/37/37
f 45/45/45 46/46/46 38/38/38
f 46/46/46 47/47/47 39/39/39
f 39/39/39 47/47/47 48/48/48
f 40/40/40 48/48/48 49/49/49
f 41/41/41 49/49/49 50/50/50
f 50/50/50 51/51/51 43/43/43
f 51/51/51 52/52/52 44/44/44
f 5/5/5 37/37/37 28/28/28
f 28/28/28 37/37/37 38/38/38
f 27/27/27 38/38/38 39/39/39
f 26/26/26 39/39/39 40/40/40
f 40/40/40 41/41/41 24/24/24
f 41/41/41 42/42/42 23/23/23
f 23/23/23 42/42/42 43/43/43
f 43/43/43 44/44/44 21/21/21
f 2/2/2 29/29/29 93/93/93
f 93/93/93 29/29/29 30/30/30
f 30/30/30 31/31/31 95/95/95
f 31/31/31 32/32/32 96/96/96
f 32/32/32 33/33/33 97/97/97
f 33/33/33 34/34/34 98/98/98
f 98/98/98 34/34/34 35/35/35
f 99/99/99 35/35/35 36/36/36
