o GNATVCloth
v -4.99732 -5.00428 0.0653605
v 5.04282 -5.00271 0.0625655
v -5.01298 5.02105 0.004229
v 4.98702 5.02105 0.004229
v -3.883 -5.03141 0.0542438
v -2.76542 -5.05512 0.0352212
v -1.64777 -5.04099 0.0410962
v -0.537901 -5.03785 0.0456475
v 0.57637 -5.05171 0.0104802
v 1.6906 -5.05943 0.0294194
v 2.8094 -5.05464 0.0474251
v 3.92941 -5.03027 0.0698875
v 3.86812 4.96331 0.0565476
v 2.78106 4.90452 0.038411
v 1.68803 4.90642 0.056981
v 0.574851 4.91086 0.0463689
v -0.533941 4.90689 0.0289118
v -1.64604 4.91625 0.0671332
v -2.75914 4.92886 0.0358323
v -3.88161 4.97444 0.0538218
v -4.9996 3.90562 0.0466678
v -4.99131 2.78967 0.0523835
v -4.98086 1.67442 0.0431358
v -4.97276 0.559346 0.0509621
v -4.97242 -0.555188 0.0594407
v -4.97671 -1.66914 0.0498632
v -4.97833 -2.78194 0.043846
v -4.9829 -3.89393 0.0407974
v 5.02543 -3.89103 0.0661564
v 5.02255 -2.77982 0.0313442
v 5.02232 -1.66788 0.0345226
v 5.02135 -0.555017 0.0471636
v 5.02125 0.558506 0.0574732
v 5.0176 1.67367 0.0550513
v 5.01516 2.78927 0.045969
v 5.00195 3.90527 0.0338578
v -3.81223 -3.8809 0.042186
v -3.7769 -3.23036 0.033059
v -3.63901 -1.93992 0.0208865
v -4.10177 -0.281975 0.0272623
v -4.13116 0.734776 0.0275254
v -4.12914 1.51872 0.041775
v -4.07254 2.81251 0.0295768
v -3.92802 3.90091 0.0265691
v -2.68427 -4.02914 0.036442
v -2.76606 -2.75891 0.0364764
v -2.64882 -2.16897 0.0304085
v -2.73397 -0.628666 0.033807
v -2.77313 0.502463 0.0291685
v -2.71132 1.54993 0.0311984
v -2.84227 2.8917 0.0327692
v -2.7359 3.58832 0.0335439
v -1.63024 -4.24735 0.0251376
v -1.47681 -2.92875 0.0182617
v -1.8672 -1.64448 0.0427581
v -1.85643 -0.849556 0.0436034
v -1.50898 0.648289 0.0321792
v -1.97291 1.7009 0.0293489
v -1.69653 2.75162 0.0301476
v -1.53593 3.7715 0.028437
v -0.212976 -4.31434 0.0333098
v -0.569312 -2.87738 0.0266965
v -0.531897 -1.74251 0.0318487
v -0.822288 -0.763649 0.0303241
v -0.587723 0.456844 0.0318699
v -0.353512 1.48494 0.0335817
v -0.541794 2.68239 0.0304032
v -0.721853 3.57924 0.0360476
v 0.75232 -3.88651 0.0244649
v 0.824533 -2.59758 0.0401612
v 0.538132 -1.8155 0.0430745
v 0.624598 -0.47825 0.0220728
v 0.599592 0.425287 0.0338478
v 0.318259 1.53939 0.0366585
v 0.549652 2.51971 0.037561
v 0.571577 3.80283 0.0343762
v 1.96383 -3.66333 0.0389605
v 1.68593 -2.84826 0.0325004
v 1.8352 -1.92462 0.028617
v 2.00008 -0.399753 0.0419867
v 1.98637 0.284704 0.0293293
v 1.84388 1.54852 0.0220939
v 1.43873 2.83097 0.0386032
v 1.50065 3.69469 0.0277852
v 2.8031 -3.94139 0.0356503
v 3.11395 -2.8595 0.036626
v 2.9677 -1.97966 0.0270276
v 2.74013 -0.51542 0.0302293
v 2.98786 0.27664 0.0338822
v 3.09324 1.57129 0.0258054
v 2.80475 3.14241 0.0307565
v 2.76843 3.51303 0.0470683
v 3.92899 -3.98602 0.0232802
v 3.67737 -2.7309 0.0438827
v 3.89398 -1.6915 0.0389177
v 3.83436 -0.739511 0.0211905
v 3.90051 0.273506 0.0340066
v 4.20341 1.79134 0.0316414
v 4.17189 2.75725 0.0321589
v 4.05495 3.8838 0.0284879
vt 0.0001 0.0001
vt 0.9999 0.0001
vt 0.0001 0.9999
vt 0.9999 0.9999
vt 0.111189 0.0001
vt 0.222278 0.0001
vt 0.333367 0.0001
vt 0.444455 0.0001
vt 0.555544 0.0001
vt 0.666633 0.0001
vt 0.777722 0.0001
vt 0.888811 0.0001
vt 0.888811 0.9999
vt 0.777722 0.9999
vt 0.666633 0.9999
vt 0.555544 0.9999
vt 0.444455 0.9999
vt 0.333367 0.9999
vt 0.222278 0.9999
vt 0.111189 0.9999
vt 0.0001 0.888811
vt 0.0001 0.777722
vt 0.0001 0.666633
vt 0.0001 0.555544
vt 0.0001 0.444456
vt 0.0001 0.333367
vt 0.0001 0.222278
vt 0.0001 0.111189
vt 0.9999 0.111189
vt 0.9999 0.222278
vt 0.9999 0.333367
vt 0.9999 0.444456
vt 0.9999 0.555544
vt 0.9999 0.666633
vt 0.9999 0.777722
vt 0.9999 0.888811
vt 0.11727 0.115399
vt 0.120778 0.180369
vt 0.134636 0.309595
vt 0.088728 0.473895
vt 0.085886 0.575352
vt 0.086211 0.65375
vt 0.092207 0.78313
vt 0.106956 0.892282
vt 0.22987 0.102869
vt 0.221803 0.229552
vt 0.233521 0.288953
vt 0.225541 0.443179
vt 0.221596 0.556167
vt 0.227801 0.661237
vt 0.214896 0.795203
vt 0.22542 0.865181
vt 0.335524 0.082127
vt 0.351143 0.213907
vt 0.311934 0.342467
vt 0.313159 0.422214
vt 0.347791 0.572605
vt 0.301482 0.677733
vt 0.329031 0.783086
vt 0.344903 0.885466
vt 0.476837 0.074882
vt 0.441952 0.218774
vt 0.445749 0.333088
vt 0.416414 0.43099
vt 0.439746 0.552976
vt 0.463203 0.656843
vt 0.444252 0.77653
vt 0.426137 0.866051
vt 0.573419 0.117409
vt 0.581125 0.246686
vt 0.552512 0.326
vt 0.561075 0.459693
vt 0.558356 0.550596
vt 0.530299 0.662189
vt 0.553275 0.760113
vt 0.555478 0.888821
vt 0.694433 0.13996
vt 0.667048 0.221666
vt 0.681985 0.314267
vt 0.698218 0.467249
vt 0.696819 0.535952
vt 0.68253 0.662758
vt 0.642062 0.791726
vt 0.648523 0.877957
vt 0.778029 0.111667
vt 0.809426 0.219523
vt 0.794923 0.307783
vt 0.772028 0.454562
vt 0.796846 0.533374
vt 0.807262 0.663157
vt 0.778581 0.821037
vt 0.775122 0.858219
vt 0.890224 0.104741
vt 0.865679 0.23076
vt 0.887326 0.334104
vt 0.881307 0.429754
vt 0.887973 0.53063
vt 0.918106 0.681428
vt 0.915043 0.778027
vt 0.904815 0.89094
vn 0.0105083 0.021979 0.999703
vn -0.0166474 0.0203888 0.999654
vn -0.0129308 0.00741723 0.999889
vn 0.0206848 0.00437346 0.999776
vn 0.00880789 0.0139867 0.999863
vn 0.0067258 0.00651624 0.999956
vn -0.00483399 0.0202104 0.999784
vn 0.0075238 0.014098 0.999872
vn 0.0100152 -0.00696988 0.999926
vn -0.0106814 -0.00268586 0.999939
vn -0.0085785 0.0219029 0.999723
vn -0.00776827 0.0445834 0.998975
vn 0.0162503 -0.0231701 0.999599
vn 4.72454e-05 -0.0107133 0.999943
vn 0.00365752 -0.0246524 0.999689
vn -0.00649743 -0.0147389 0.99987
vn 0.00273274 -0.00736769 0.999969
vn 0.00278746 -0.0335159 0.999434
vn -0.00384177 -0.0164981 0.999856
vn -0.0148967 -0.0247314 0.999583
vn 0.0207845 0.0146073 0.999677
vn 0.0248497 -0.0013755 0.99969
vn 0.0132321 -0.00243367 0.99991
vn 0.0295355 0.00512108 0.999551
vn 0.0371111 -0.000565165 0.999311
vn 0.0274537 -0.00394947 0.999615
vn 0.0135063 -2.08219e-05 0.999909
vn 0.00395129 0.0109671 0.999932
vn -0.040254 0.0136741 0.999096
vn -0.00489879 0.00412198 0.999979
vn -0.00421816 0.00153561 0.99999
vn -0.0196005 -0.0106555 0.999751
vn -0.0231638 -0.000379548 0.999732
vn -0.028007 0.00507777 0.999595
vn -0.0202289 0.005887 0.999778
vn -0.009593 0.0132595 0.999866
vn 0.0052687 0.00923207 0.999944
vn 0.00234128 0.00720004 0.999971
vn 0.00330641 0.00266619 0.999991
vn 0.016122 -2.23888e-05 0.99987
vn 0.00956908 -0.00512665 0.999941
vn 0.00417253 -0.0044927 0.999981
vn 0.0105302 0.00251951 0.999941
vn -0.00102163 -0.00140363 0.999999
vn 0.00743031 0.0024331 0.999969
vn 0.002191 0.00598142 0.99998
vn -0.00367783 -0.00132508 0.999992
vn -0.00927524 -0.00075177 0.999957
vn -0.002823 0.00191809 0.999994
vn 0.00278585 -0.00256101 0.999993
vn -0.000712711 -0.000358852 1
vn -0.000303464 -0.000811776 1
vn -0.00113665 0.010153 0.999948
vn 0.00379759 -0.00323586 0.999988
vn 0.000107493 -0.00630751 0.99998
vn 8.52795e-05 0.00294872 0.999996
vn 0.00069959 0.0022323 0.999997
vn 3.21363e-05 6.48849e-05 1
vn -0.000193721 -0.000965396 1
vn -0.000379135 -0.00968291 0.999953
vn 0.00861039 0.00343097 0.999957
vn -0.00632561 -0.00160252 0.999979
vn -0.00145312 -0.000324044 0.999999
vn 0.00753528 0.00115079 0.999971
vn -0.000340012 -0.0036803 0.999993
vn -0.00335777 0.000575672 0.999994
vn -0.00222653 -0.00106615 0.999997
vn -0.00287653 0.000518529 0.999996
vn -0.00298517 -0.00612245 0.999977
vn 0.00210076 -0.00559898 0.999982
vn -0.000976102 0.00412602 0.999991
vn -0.00191765 0.00208648 0.999996
vn 0.00232292 -0.00459549 0.999987
vn 0.00164908 -0.00134467 0.999998
vn -0.00109369 -0.00136199 0.999998
vn -0.000992028 -0.000729243 0.999999
vn -0.00433297 -0.00061665 0.99999
vn -0.000291836 0.00252312 0.999997
vn 0.00519316 0.000331257 0.999986
vn 0.000882702 0.00487204 0.999988
vn -0.00042702 0.00557579 0.999984
vn 0.00401735 -0.00252461 0.999989
vn 0.00409243 0.000901567 0.999991
vn -0.00164763 -0.0108106 0.99994
vn 0.00220116 0.00162218 0.999996
vn -0.002504 0.000302466 0.999997
vn -0.00574634 0.00648012 0.999963
vn 0.00746442 -0.000717794 0.999972
vn -0.000496771 -0.00194621 0.999998
vn -0.00335865 0.00186239 0.999993
vn 0.0015082 -0.0127794 0.999917
vn 0.000734867 -0.0187625 0.999824
vn -0.0092223 0.0112954 0.999894
vn -0.00412875 -0.00271763 0.999988
vn -0.00334084 0.0088471 0.999955
vn -0.00574723 -0.000961991 0.999983
vn -0.0112096 -0.00303812 0.999933
vn -0.0176224 0.00285691 0.999841
vn -0.00768181 0.00187825 0.999969
vn 0.00849016 -0.00703403 0.999939
f 100/100/100 4/4/4 13/13/13
f 44/44/44 3/3/3 21/21/21
f 44/44/44 19/19/19 20/20/20
f 60/60/60 19/19/19 52/52/52
f 60/60/60 17/17/17 18/18/18
f 76/76/76 17/17/17 68/68/68
f 84/84/84 16/16/16 76/76/76
f 84/84/84 14/14/14 15/15/15
f 100/100/100 14/14/14 92/92/92
f 11/11/11 93/93/93 85/85/85
f 93/93/93 86/86/86 85/85/85
f 94/94/94 87/87/87 86/86/86
f 87/87/87 96/96/96 88/88/88
f 96/96/96 89/89/89 88/88/88
f 97/97/97 90/90/90 89/89/89
f 90/90/90 99/99/99 91/91/91
f 91/91/91 100/100/100 92/92/92
f 10/10/10 85/85/85 77/77/77
f 77/77/77 86/86/86 78/78/78
f 78/78/78 87/87/87 79/79/79
f 79/79/79 88/88/88 80/80/80
f 88/88/88 81/81/81 80/80/80
f 81/81/81 90/90/90 82/82/82
f 82/82/82 91/91/91 83/83/83
f 91/91/91 84/84/84 83/83/83
f 10/10/10 69/69/69 9/9/9
f 69/69/69 78/78/78 70/70/70
f 70/70/70 79/79/79 71/71/71
f 79/79/79 72/72/72 71/71/71
f 72/72/72 81/81/81 73/73/73
f 73/73/73 82/82/82 74/74/74
f 82/82/82 75/75/75 74/74/74
f 83/83/83 76/76/76 75/75/75
f 9/9/9 61/61/61 8/8/8
f 69/69/69 62/62/62 61/61/61
f 62/62/62 71/71/71 63/63/63
f 63/63/63 72/72/72 64/64/64
f 72/72/72 65/65/65 64/64/64
f 65/65/65 74/74/74 66/66/66
f 66/66/66 75/75/75 67/67/67
f 67/67/67 76/76/76 68/68/68
f 8/8/8 53/53/53 7/7/7
f 53/53/53 62/62/62 54/54/54
f 54/54/54 63/63/63 55/55/55
f 55/55/55 64/64/64 56/56/56
f 64/64/64 57/57/57 56/56/56
f 57/57/57 66/66/66 58/58/58
f 58/58/58 67/67/67 59/59/59
f 59/59/59 68/68/68 60/60/60
f 6/6/6 53/53/53 45/45/45
f 45/45/45 54/54/54 46/46/46
f 54/54/54 47/47/47 46/46/46
f 55/55/55 48/48/48 47/47/47
f 56/56/56 49/49/49 48/48/48
f 49/49/49 58/58/58 50/50/50
f 58/58/58 51/51/51 50/50/50
f 59/59/59 52/52/52 51/51/51
f 6/6/6 37/37/37 5/5/5
f 45/45/45 38/38/38 37/37/37
f 46/46/46 39/39/39 38/38/38
f 39/39/39 48/48/48 40/40/40
f 40/40/40 49/49/49 41/41/41
f 41/41/41 50/50/50 42/42/42
f 50/50/50 43/43/43 42/42/42
f 51/51/51 44/44/44 43/43/43
f 5/5/5 28/28/28 1/1/1
f 28/28/28 38/38/38 27/27/27
f 27/27/27 39/39/39 26/26/26
f 26/26/26 40/40/40 25/25/25
f 40/40/40 24/24/24 25/25/25
f 41/41/41 23/23/23 24/24/24
f 23/23/23 43/43/43 22/22/22
f 43/43/43 21/21/21 22/22/22
f 2/2/2 93/93/93 12/12/12
f 93/93/93 30/30/30 94/94/94
f 30/30/30 95/95/95 94/94/94
f 31/31/31 96/96/96 95/95/95
f 32/32/32 97/97/97 96/96/96
f 33/33/33 98/98/98 97/97/97
f 98/98/98 35/35/35 99/99/99
f 99/99/99 36/36/36 100/100/100
f 100/100/100 36/36/36 4/4/4
f 44/44/44 20/20/20 3/3/3
f 44/44/44 52/52/52 19/19/19
f 60/60/60 18/18/18 19/19/19
f 60/60/60 68/68/68 17/17/17
f 76/76/76 16/16/16 17/17/17
f 84/84/84 15/15/15 16/16/16
f 84/84/84 92/92/92 14/14/14
f 100/100/100 13/13/13 14/14/14
f 11/11/11 12/12/12 93/93/93
f 93/93/93 94/94/94 86/86/86
f 94/94/94 95/95/95 87/87/87
f 87/87/87 95/95/95 96/96/96
f 96/96/96 97/97/97 89/89/89
f 97/97/97 98/98/98 90/90/90
f 90/90/90 98/98/98 99/99/99
f 91/91/91 99/99/99 100/100/100
f 10/10/10 11/11/11 85/85/85
f 77/77/77 85/85/85 86/86/86
f 78/78/78 86/86/86 87/87/87
f 79/79/79 87/87/87 88/88/88
f 88/88/88 89/89/89 81/81/81
f 81/81/81 89/89/89 90/90/90
f 82/82/82 90/90/90 91/91/91
f 91/91/91 92/92/92 84/84/84
f 10/10/10 77/77/77 69/69/69
f 69/69/69 77/77/77 78/78/78
f 70/70/70 78/78/78 79/79/79
f 79/79/79 80/80/80 72/72/72
f 72/72/72 80/80/80 81/81/81
f 73/73/73 81/81/81 82/82/82
f 82/82/82 83/83/83 75/75/75
f 83/83/83 84/84/84 76/76/76
f 9/9/9 69/69/69 61/61/61
f 69/69/69 70/70/70 62/62/62
f 62/62/62 70/70/70 71/71/71
f 63/63/63 71/71/71 72/72/72
f 72/72/72 73/73/73 65/65/65
f 65/65/65 73/73/73 74/74/74
f 66/66/66 74/74/74 75/75/75
f 67/67/67 75/75/75 76/76/76
f 8/8/8 61/61/61 53/53/53
f 53/53/53 61/61/61 62/62/62
f 54/54/54 62/62/62 63/63/63
f 55/55/55 63/63/63 64/64/64
f 64/64/64 65/65/65 57/57/57
f 57/57/57 65/65/65 66/66/66
f 58/58/58 66/66/66 67/67/67
f 59/59/59 67/67/67 68/68/68
f 6/6/6 7/7/7 53/53/53
f 45/45/45 53/53/53 54/54/54
f 54/54/54 55/55/55 47/47/47
f 55/55/55 56/56/56 48/48/48
f 56/56/56 57/57/57 49/49/49
f 49/49/49 57/57/57 58/58/58
f 58/58/58 59/59/59 51/51/51
f 59/59/59 60/60/60 52/52/52
f 6/6/6 45/45/45 37/37/37
f 45/45/45 46/46/46 38/38/38
f 46/46/46 47/47/47 39/39/39
f 39/39/39 47/47/47 48/48/48
f 40/40/40 48/48/48 49/49/49
f 41/41/41 49/49/49 50/50/50
f 50/50/50 51/51/51 43/43/43
f 51/51/51 52/52/52 44/44/44
f 5/5/5 37/37/37 28/28/28
f 28/28/28 37/37/37 38/38/38
f 27/27/27 38/38/38 39/39/39
f 26/26/26 39/39/39 40/40/40
f 40/40/40 41/41/41 24/24/24
f 41/41/41 42/42/42 23/23/23
f 23/23/23 42/42/42 43/43/43
f 43/43/43 44/44/44 21/21/21
f 2/2/2 29/29/29 93/93/93
f 93/93/93 29/29/29 30/30/30
f 30/30/30 31/31/31 95/95/95
f 31/31/31 32/32/32 96/96/96
f 32/32/32 33/33/33 97/97/97
f 33/33/33 34/34/34 98/98/98
f 98/98/98 34/34/34 35/35/35
f 99/99/99 35/35/35 36/36/36
