o GNATVCloth
v -5.00934 -4.983 0.448275
v 5.04877 -4.99112 0.460468
v -5.01298 5.02105 0.004229
v 4.98702 5.02105 0.004229
v -3.90642 -5.01802 0.422143
v -2.79041 -5.05566 0.387597
v -1.67172 -5.06783 0.288298
v -0.548036 -5.07111 0.284385
v 0.576813 -5.08221 0.289454
v 1.69862 -5.08081 0.334716
v 2.82008 -5.06541 0.291371
v 3.9403 -5.03086 0.33424
v 3.86653 4.94712 0.154004
v 2.7506 4.90481 0.273461
v 1.64219 4.85708 0.420544
v 0.541978 4.84417 0.392355
v -0.565452 4.8435 0.323196
v -1.66854 4.85034 0.210965
v -2.77958 4.88461 0.229606
v -3.88674 4.93963 0.0926271
v -4.99584 3.90725 0.0788814
v -4.98651 2.7917 0.098126
v -4.98453 1.6767 0.11513
v -4.98285 0.562485 0.142441
v -4.9798 -0.548878 0.202894
v -4.98181 -1.65884 0.278705
v -4.98101 -2.7668 0.396548
v -4.98301 -3.87272 0.507502
v 5.02863 -3.88396 0.40018
v 5.01663 -2.77395 0.329302
v 5.00655 -1.66477 0.242495
v 5.00035 -0.553937 0.173915
v 4.99497 0.558781 0.129994
v 4.99009 1.6735 0.0975487
v 4.98729 2.78902 0.0735398
v 4.97916 3.90499 0.0418239
v -3.82483 -3.87027 0.39482
v -3.78167 -3.21924 0.358241
v -3.64281 -1.94265 0.163473
v -4.09494 -0.283459 0.123478
v -4.12494 0.733838 0.158363
v -4.12177 1.51876 0.155565
v -4.06488 2.81352 0.160182
v -3.93116 3.87768 -0.0795507
v -2.70401 -4.03313 0.298735
v -2.77384 -2.76673 0.207154
v -2.65945 -2.17618 0.258783
v -2.74147 -0.631443 0.332123
v -2.77511 0.500464 0.34004
v -2.6983 1.54637 0.230232
v -2.84277 2.86305 -0.0338954
v -2.76584 3.53841 0.150424
v -1.64626 -4.26765 0.309297
v -1.48816 -2.95843 0.292511
v -1.88105 -1.66756 0.383739
v -1.86569 -0.869647 0.367443
v -1.5197 0.611584 0.166517
v -1.97809 1.66346 0.0262983
v -1.73317 2.6947 0.260953
v -1.56707 3.71298 0.245157
v -0.221902 -4.3539 0.30829
v -0.575909 -2.91878 0.317663
v -0.539997 -1.78226 0.328166
v -0.835147 -0.811632 0.276226
v -0.601992 0.402803 0.246713
v -0.372548 1.43037 0.28947
v -0.576225 2.62531 0.378019
v -0.756081 3.50879 0.294444
v 0.747673 -3.93088 0.319451
v 0.81972 -2.63815 0.24867
v 0.529938 -1.85503 0.28947
v 0.613902 -0.518147 0.29281
v 0.586021 0.382632 0.290622
v 0.299869 1.48568 0.297228
v 0.521065 2.46574 0.318804
v 0.539205 3.73708 0.305214
v 1.96296 -3.68917 0.28016
v 1.68228 -2.88273 0.264795
v 1.82803 -1.9568 0.319163
v 1.98769 -0.421379 0.27946
v 1.97241 0.258291 0.278056
v 1.82448 1.52268 0.238846
v 1.4122 2.7945 0.313321
v 1.46931 3.64848 0.275542
v 2.80646 -3.94838 0.303789
v 3.11024 -2.86904 0.339695
v 2.95927 -1.99259 0.298591
v 2.72658 -0.531043 0.325091
v 2.97363 0.265266 0.295628
v 3.07091 1.56397 0.205035
v 2.77952 3.1307 0.239402
v 2.73607 3.49666 0.188185
v 3.9318 -3.9876 0.34732
v 3.67225 -2.7342 0.368135
v 3.88211 -1.69584 0.309755
v 3.81854 -0.743016 0.256414
v 3.88327 0.267621 0.236791
v 4.17529 1.78877 0.154135
v 4.13813 2.7514 0.0602574
v 4.02341 3.87595 -0.00731927
vt 0.0001 0.0001
vt 0.9999 0.0001
vt 0.0001 0.9999
vt 0.9999 0.9999
vt 0.111189 0.0001
vt 0.222278 0.0001
vt 0.333367 0.0001
vt 0.444455 0.0001
vt 0.555544 0.0001
vt 0.666633 0.0001
vt 0.777722 0.0001
vt 0.888811 0.0001
vt 0.888811 0.9999
vt 0.777722 0.9999
vt 0.666633 0.9999
vt 0.555544 0.9999
vt 0.444455 0.9999
vt 0.333367 0.9999
vt 0.222278 0.9999
vt 0.111189 0.9999
vt 0.0001 0.888811
vt 0.0001 0.777722
vt 0.0001 0.666633
vt 0.0001 0.555544
vt 0.0001 0.444456
vt 0.0001 0.333367
vt 0.0001 0.222278
vt 0.0001 0.111189
vt 0.9999 0.111189
vt 0.9999 0.222278
vt 0.9999 0.333367
vt 0.9999 0.444456
vt 0.9999 0.555544
vt 0.9999 0.666633
vt 0.9999 0.777722
vt 0.9999 0.888811
vt 0.11727 0.115399
vt 0.120778 0.180369
vt 0.134636 0.309595
vt 0.088728 0.473895
vt 0.085886 0.575352
vt 0.086211 0.65375
vt 0.092207 0.78313
vt 0.106956 0.892282
vt 0.22987 0.102869
vt 0.221803 0.229552
vt 0.233521 0.288953
vt 0.225541 0.443179
vt 0.221596 0.556167
vt 0.227801 0.661237
vt 0.214896 0.795203
vt 0.22542 0.865181
vt 0.335524 0.082127
vt 0.351143 0.213907
vt 0.311934 0.342467
vt 0.313159 0.422214
vt 0.347791 0.572605
vt 0.301482 0.677733
vt 0.329031 0.783086
vt 0.344903 0.885466
vt 0.476837 0.074882
vt 0.441952 0.218774
vt 0.445749 0.333088
vt 0.416414 0.43099
vt 0.439746 0.552976
vt 0.463203 0.656843
vt 0.444252 0.77653
vt 0.426137 0.866051
vt 0.573419 0.117409
vt 0.581125 0.246686
vt 0.552512 0.326
vt 0.561075 0.459693
vt 0.558356 0.550596
vt 0.530299 0.662189
vt 0.553275 0.760113
vt 0.555478 0.888821
vt 0.694433 0.13996
vt 0.667048 0.221666
vt 0.681985 0.314267
vt 0.698218 0.467249
vt 0.696819 0.535952
vt 0.68253 0.662758
vt 0.642062 0.791726
vt 0.648523 0.877957
vt 0.778029 0.111667
vt 0.809426 0.219523
vt 0.794923 0.307783
vt 0.772028 0.454562
vt 0.796846 0.533374
vt 0.807262 0.663157
vt 0.778581 0.821037
vt 0.775122 0.858219
vt 0.890224 0.104741
vt 0.865679 0.23076
vt 0.887326 0.334104
vt 0.881307 0.429754
vt 0.887973 0.53063
vt 0.918106 0.681428
vt 0.915043 0.778027
vt 0.904815 0.89094
vn 0.021946 -0.0537748 0.998312
vn -0.0829614 0.0199994 0.996352
vn 0.0305182 -0.044293 0.998552
vn 0.0440066 -0.0470961 0.997921
vn 0.0501879 -0.00514814 0.998726
vn 0.0564035 0.0391955 0.997638
vn 0.0457766 -0.0276617 0.998569
vn -0.000894469 -0.0300674 0.999547
vn -0.0150848 -0.025737 0.999555
vn 0.00222371 0.0114273 0.999932
vn -0.0127186 -0.0116924 0.999851
vn -0.0753043 -0.0131144 0.997074
vn 0.125077 -0.12982 0.983617
vn 0.119036 -0.0980521 0.988037
vn 0.0561934 -0.126853 0.990329
vn -0.0206362 -0.0908574 0.99565
vn -0.057961 -0.0226634 0.998062
vn -0.041738 0.0263025 0.998782
vn -0.0983279 -0.0605075 0.993313
vn -0.108683 -0.154664 0.981971
vn 0.0775704 0.0955976 0.992393
vn -0.0675462 0.0158694 0.99759
vn -0.0460531 0.0104545 0.998884
vn 0.0126874 0.014764 0.99981
vn 0.0710239 0.0611141 0.995601
vn 0.0908846 0.0744486 0.993075
vn 0.0871607 0.115352 0.989493
vn 0.0712868 0.0280434 0.997062
vn -0.0535403 0.0581916 0.996869
vn 0.0155858 0.0452597 0.998854
vn 0.0583292 0.0666393 0.996071
vn 0.070726 0.0388811 0.996738
vn 0.0814728 0.0355593 0.996041
vn 0.0728483 0.0254898 0.997017
vn 0.0118825 0.0488086 0.998737
vn -0.0407296 0.0389377 0.998411
vn 0.0828381 0.0431505 0.995628
vn 0.0902499 0.0932615 0.991543
vn -0.000671101 0.0434081 0.999057
vn -0.03243 0.00995266 0.999424
vn -0.0646377 0.011911 0.997838
vn -0.049508 0.00119146 0.998773
vn 0.0297164 0.0920974 0.995306
vn -0.0345302 -0.0189532 0.999224
vn 0.0415422 0.0624994 0.99718
vn -0.00931996 0.0304335 0.999493
vn -0.10315 -0.0685077 0.992304
vn -0.103867 -0.0207397 0.994375
vn 0.00783461 0.0611698 0.998097
vn 0.0709473 0.105282 0.991908
vn -0.0498273 0.0042598 0.998749
vn -0.18102 -0.109103 0.977409
vn 0.00920821 0.00303826 0.999953
vn -0.036265 -0.0200241 0.999142
vn -0.0138341 -0.0174933 0.999751
vn 0.0438133 0.0503701 0.997769
vn 0.000838419 0.0814691 0.996675
vn -0.0150059 0.0141879 0.999787
vn -0.151901 -0.0743951 0.985592
vn -0.0591757 0.00570652 0.998231
vn -0.00274902 -0.0209602 0.999777
vn 0.00956532 0.000522709 0.999954
vn 0.0177631 0.00530156 0.999828
vn 0.0165745 0.052703 0.998473
vn -0.0449185 -0.00137605 0.99899
vn -0.0658607 -0.0308242 0.997353
vn -0.051484 -0.0320748 0.998159
vn -0.0486569 0.0310015 0.998334
vn 0.00565502 0.0165046 0.999848
vn 0.00598044 -0.00793444 0.999951
vn 0.0152638 -0.0219756 0.999642
vn -0.00440305 0.0125205 0.999912
vn -0.00293519 0.00493822 0.999983
vn 0.00436229 -0.0204131 0.999782
vn 0.0259375 -0.0244845 0.999364
vn 0.00385784 -0.003712 0.999986
vn -0.0101025 0.0164387 0.999814
vn -0.0165392 0.00120909 0.999862
vn -0.0142255 -0.0194897 0.999709
vn -0.0252543 0.0149361 0.999569
vn -0.00579876 0.0265175 0.999632
vn 0.0329847 -0.00937392 0.999412
vn 0.0340058 0.00106503 0.999421
vn 0.0521641 -0.0231706 0.99837
vn -0.0179999 -0.00513829 0.999825
vn -0.0472325 0.000640361 0.998884
vn -0.0112342 0.0151659 0.999822
vn 0.00141945 0.0112969 0.999935
vn 0.031807 0.0419982 0.998611
vn 0.0420167 0.0430402 0.998189
vn 0.0871209 0.0518901 0.994845
vn 0.105585 0.0442403 0.993426
vn -0.0440331 0.00250204 0.999027
vn -0.0154075 0.0225721 0.999627
vn 0.0168215 0.0609671 0.997998
vn 0.0496177 0.0305707 0.9983
vn 0.0672517 0.0366029 0.997064
vn 0.0457081 0.0550903 0.997435
vn 0.0365556 0.059288 0.997571
vn 0.0818996 -0.00111533 0.99664
f 100/100/100 4/4/4 13/13/13
f 44/44/44 3/3/3 21/21/21
f 44/44/44 19/19/19 20/20/20
f 60/60/60 19/19/19 52/52/52
f 60/60/60 17/17/17 18/18/18
f 76/76/76 17/17/17 68/68/68
f 84/84/84 16/16/16 76/76/76
f 84/84/84 14/14/14 15/15/15
f 100/100/100 14/14/14 92/92/92
f 11/11/11 93/93/93 85/85/85
f 93/93/93 86/86/86 85/85/85
f 94/94/94 87/87/87 86/86/86
f 87/87/87 96/96/96 88/88/88
f 96/96/96 89/89/89 88/88/88
f 97/97/97 90/90/90 89/89/89
f 90/90/90 99/99/99 91/91/91
f 91/91/91 100/100/100 92/92/92
f 10/10/10 85/85/85 77/77/77
f 77/77/77 86/86/86 78/78/78
f 78/78/78 87/87/87 79/79/79
f 79/79/79 88/88/88 80/80/80
f 88/88/88 81/81/81 80/80/80
f 81/81/81 90/90/90 82/82/82
f 82/82/82 91/91/91 83/83/83
f 91/91/91 84/84/84 83/83/83
f 10/10/10 69/69/69 9/9/9
f 69/69/69 78/78/78 70/70/70
f 70/70/70 79/79/79 71/71/71
f 79/79/79 72/72/72 71/71/71
f 72/72/72 81/81/81 73/73/73
f 73/73/73 82/82/82 74/74/74
f 82/82/82 75/75/75 74/74/74
f 83/83/83 76/76/76 75/75/75
f 9/9/9 61/61/61 8/8/8
f 69/69/69 62/62/62 61/61/61
f 62/62/62 71/71/71 63/63/63
f 63/63/63 72/72/72 64/64/64
f 72/72/72 65/65/65 64/64/64
f 65/65/65 74/74/74 66/66/66
f 66/66/66 75/75/75 67/67/67
f 67/67/67 76/76/76 68/68/68
f 8/8/8 53/53/53 7/7/7
f 53/53/53 62/62/62 54/54/54
f 54/54/54 63/63/63 55/55/55
f 55/55/55 64/64/64 56/56/56
f 64/64/64 57/57/57 56/56/56
f 57/57/57 66/66/66 58/58/58
f 58/58/58 67/67/67 59/59/59
f 59/59/59 68/68/68 60/60/60
f 6/6/6 53/53/53 45/45/45
f 45/45/45 54/54/54 46/46/46
f 54/54/54 47/47/47 46/46/46
f 55/55/55 48/48/48 47/47/47
f 56/56/56 49/49/49 48/48/48
f 49/49/49 58/58/58 50/50/50
f 58/58/58 51/51/51 50/50/50
f 59/59/59 52/52/52 51/51/51
f 6/6/6 37/37/37 5/5/5
f 45/45/45 38/38/38 37/37/37
f 46/46/46 39/39/39 38/38/38
f 39/39/39 48/48/48 40/40/40
f 40/40/40 49/49/49 41/41/41
f 41/41/41 50/50/50 42/42/42
f 50/50/50 43/43/43 42/42/42
f 51/51/51 44/44/44 43/43/43
f 5/5/5 28/28/28 1/1/1
f 28/28/28 38/38/38 27/27/27
f 27/27/27 39/39/39 26/26/26
f 26/26/26 40/40/40 25/25/25
f 40/40/40 24/24/24 25/25/25
f 41/41/41 23/23/23 24/24/24
f 23/23/23 43/43/43 22/22/22
f 43/43/43 21/21/21 22/22/22
f 2/2/2 93/93/93 12/12/12
f 93/93/93 30/30/30 94/94/94
f 30/30/30 95/95/95 94/94/94
f 31/31/31 96/96/96 95/95/95
f 32/32/32 97/97/97 96/96/96
f 33/33/33 98/98/98 97/97/97
f 98/98/98 35/35/35 99/99/99
f 99/99/99 36/36/36 100/100/100
f 100/100/100 36/36/36 4/4/4
f 44/44/44 20/20/20 3/3/3
f 44/44/44 52/52/52 19/19/19
f 60/60/60 18/18/18 19/19/19
f 60/60/60 68/68/68 17/17/17
f 76/76/76 16/16/16 17/17/17
f 84/84/84 15/15/15 16/16/16
f 84/84/84 92/92/92 14/14/14
f 100/100/100 13/13/13 14/14/14
f 11/11/11 12/12/12 93/93/93
f 93/93/93 94/94/94 86/86/86
f 94/94/94 95/95/95 87/87/87
f 87/87/87 95/95/95 96/96/96
f 96/96/96 97/97/97 89/89/89
f 97/97/97 98/98/98 90/90/90
f 90/90/90 98/98/98 99/99/99
f 91/91/91 99/99/99 100/100/100
f 10/10/10 11/11/11 85/85/85
f 77/77/77 85/85/85 86/86/86
f 78/78/78 86/86/86 87/87/87
f 79/79/79 87/87/87 88/88/88
f 88/88/88 89/89/89 81/81/81
f 81/81/81 89/89/89 90/90/90
f 82/82/82 90/90/90 91/91/91
f 91/91/91 92/92/92 84/84/84
f 10/10/10 77/77/77 69/69/69
f 69/69/69 77/77/77 78/78/78
f 70/70/70 78/78/78 79/79/79
f 79/79/79 80/80/80 72/72/72
f 72/72/72 80/80/80 81/81/81
f 73/73/73 81/81/81 82/82/82
f 82/82/82 83/83/83 75/75/75
f 83/83/83 84/84/84 76/76/76
f 9/9/9 69/69/69 61/61/61
f 69/69/69 70/70/70 62/62/62
f 62/62/62 70/70/70 71/71/71
f 63/63/63 71/71/71 72/72/72
f 72/72/72 73/73/73 65/65/65
f 65/65/65 73/73/73 74/74/74
f 66/66/66 74/74/74 75/75/75
f 67/67/67 75/75/75 76/76/76
f 8/8/8 61/61/61 53/53/53
f 53/53/53 61/61/61 62/62/62
f 54/54/54 62/62/62 63/63/63
f 55/55/55 63/63/63 64/64/64
f 64/64/64 65/65/65 57/57/57
f 57/57/57 65/65/65 66/66/66
f 58/58/58 66/66/66 67/67/67
f 59/59/59 67/67/67 68/68/68
f 6/6/6 7/7/7 53/53/53
f 45/45/45 53/53/53 54/54/54
f 54/54/54 55/55/55 47/47/47
f 55/55/55 56/56/56 48/48/48
f 56/56/56 57/57/57 49/49/49
f 49/49/49 57/57/57 58/58/58
f 58/58/58 59/59/59 51/51/51
f 59/59/59 60/60/60 52/52/52
f 6/6/6 45/45/45 37/37/37
f 45/45/45 46/46/46 38/38/38
f 46/46/46 47/47/47 39/39/39
f 39/39/39 47/47/47 48/48/48
f 40/40/40 48/48/48 49/49/49
f 41/41/41 49/49/49 50/50/50
f 50/50/50 51/51/51 43/43/43
f 51/51/51 52/52/52 44/44/44
f 5/5/5 37/37/37 28/28/28
f 28/28/28 37/37/37 38/38/38
f 27/27/27 38/38/38 39/39/39
f 26/26/26 39/39/39 40/40/40
f 40/40/40 41/41/41 24/24/24
f 41/41/41 42/42/42 23/23/23
f 23/23/23 42/42/42 43/43/43
f 43/43/43 44/44/44 21/21/21
f 2/2/2 29/29/29 93/93/93
f 93/93/93 29/29/29 30/30/30
f 30/30/30 31/31/31 95/95/95
f 31/31/31 32/32/32 96/96/96
f 32/32/32 33/33/33 97/97/97
f 33/33/33 34/34/34 98/98/98
f 98/98/98 34/34/34 35/35/35
f 99/99/99 35/35/35 36/36/36
