o GNATVCloth
v -5.0714 -4.97483 0.545737
v 4.96375 -4.98139 0.429061
v -5.01298 5.02105 0.004229
v 4.98702 5.02105 0.004229
v -3.95986 -4.9947 0.545011
v -2.85037 -5.01796 0.466015
v -1.73455 -5.03681 0.466203
v -0.614685 -5.04346 0.467796
v 0.505138 -5.0455 0.424078
v 1.62398 -5.03581 0.425076
v 2.73936 -5.01837 0.452602
v 3.85298 -4.99192 0.492155
v 3.85621 4.95125 0.132956
v 2.73743 4.90071 0.274973
v 1.61889 4.85617 0.369126
v 0.499177 4.83077 0.43457
v -0.621469 4.79521 0.450639
v -1.73767 4.77357 0.311847
v -2.83276 4.79078 0.577374
v -3.92127 4.89693 0.298661
v -4.99542 3.90878 0.0770432
v -4.99734 2.79635 0.131714
v -5.00908 1.68426 0.178823
v -5.0176 0.571502 0.219413
v -5.0235 -0.539833 0.286763
v -5.03138 -1.65061 0.365519
v -5.03921 -2.76044 0.454107
v -5.04935 -3.86512 0.54241
v 4.95366 -3.88076 0.314302
v 4.94986 -2.76866 0.310487
v 4.94585 -1.65454 0.276652
v 4.94384 -0.542799 0.233407
v 4.94274 0.569952 0.208694
v 4.94516 1.68259 0.182192
v 4.95132 2.79583 0.152212
v 4.96 3.90726 0.0641908
v -3.88916 -3.85845 0.35974
v -3.85052 -3.21453 0.284586
v -3.69589 -1.92725 0.223053
v -4.13998 -0.271538 0.188564
v -4.16182 0.743957 0.211765
v -4.14827 1.52901 0.160065
v -4.07497 2.81852 0.0812464
v -3.93167 3.89401 -0.0926772
v -2.76394 -4.01425 0.277531
v -2.83181 -2.74561 0.271132
v -2.70935 -2.15397 0.287235
v -2.77989 -0.610068 0.328241
v -2.80598 0.521161 0.283275
v -2.72787 1.5583 0.12318
v -2.85485 2.87934 -0.119488
v -2.78632 3.52088 0.163437
v -1.70411 -4.23327 0.340723
v -1.54196 -2.92145 0.390515
v -1.93025 -1.63646 0.429185
v -1.90932 -0.841255 0.382301
v -1.54933 0.632284 0.117803
v -2.00138 1.67878 -0.0496017
v -1.74334 2.7129 0.149061
v -1.59994 3.67197 0.403459
v -0.284682 -4.30759 0.381116
v -0.629699 -2.8735 0.414517
v -0.589416 -1.74274 0.477911
v -0.874689 -0.776143 0.333198
v -0.632186 0.431157 0.189366
v -0.392435 1.45866 0.200472
v -0.590194 2.64309 0.24942
v -0.777825 3.4942 0.3797
v 0.685252 -3.87923 0.393496
v 0.76714 -2.59444 0.482809
v 0.482323 -1.80547 0.446093
v 0.566512 -0.479663 0.34252
v 0.546439 0.408057 0.281726
v 0.272989 1.51773 0.315506
v 0.50497 2.48805 0.304887
v 0.523341 3.71932 0.430421
v 1.89643 -3.63339 0.452019
v 1.61773 -2.82902 0.330859
v 1.78146 -1.90932 0.437633
v 1.93664 -0.381489 0.294777
v 1.92241 0.271623 0.0820821
v 1.79981 1.53232 0.209072
v 1.39505 2.81089 0.272852
v 1.46269 3.63331 0.378932
v 2.73597 -3.90258 0.423309
v 3.04402 -2.82581 0.332552
v 2.89683 -1.95038 0.234332
v 2.67213 -0.489042 0.353784
v 2.91339 0.299394 0.25625
v 3.0342 1.57022 -0.0151643
v 2.74632 3.13962 0.0462134
v 2.72555 3.48859 0.1587
v 3.85555 -3.96233 0.314945
v 3.60667 -2.70568 0.33628
v 3.82092 -1.6709 0.291055
v 3.76095 -0.714329 0.270406
v 3.82561 0.29588 0.314808
v 4.12672 1.80829 0.171949
v 4.11806 2.75674 -0.0204153
v 4.00967 3.88248 -0.0592171
vt 0.0001 0.0001
vt 0.9999 0.0001
vt 0.0001 0.9999
vt 0.9999 0.9999
vt 0.111189 0.0001
vt 0.222278 0.0001
vt 0.333367 0.0001
vt 0.444455 0.0001
vt 0.555544 0.0001
vt 0.666633 0.0001
vt 0.777722 0.0001
vt 0.888811 0.0001
vt 0.888811 0.9999
vt 0.777722 0.9999
vt 0.666633 0.9999
vt 0.555544 0.9999
vt 0.444455 0.9999
vt 0.333367 0.9999
vt 0.222278 0.9999
vt 0.111189 0.9999
vt 0.0001 0.888811
vt 0.0001 0.777722
vt 0.0001 0.666633
vt 0.0001 0.555544
vt 0.0001 0.444456
vt 0.0001 0.333367
vt 0.0001 0.222278
vt 0.0001 0.111189
vt 0.9999 0.111189
vt 0.9999 0.222278
vt 0.9999 0.333367
vt 0.9999 0.444456
vt 0.9999 0.555544
vt 0.9999 0.666633
vt 0.9999 0.777722
vt 0.9999 0.888811
vt 0.11727 0.115399
vt 0.120778 0.180369
vt 0.134636 0.309595
vt 0.088728 0.473895
vt 0.085886 0.575352
vt 0.086211 0.65375
vt 0.092207 0.78313
vt 0.106956 0.892282
vt 0.22987 0.102869
vt 0.221803 0.229552
vt 0.233521 0.288953
vt 0.225541 0.443179
vt 0.221596 0.556167
vt 0.227801 0.661237
vt 0.214896 0.795203
vt 0.22542 0.865181
vt 0.335524 0.082127
vt 0.351143 0.213907
vt 0.311934 0.342467
vt 0.313159 0.422214
vt 0.347791 0.572605
vt 0.301482 0.677733
vt 0.329031 0.783086
vt 0.344903 0.885466
vt 0.476837 0.074882
vt 0.441952 0.218774
vt 0.445749 0.333088
vt 0.416414 0.43099
vt 0.439746 0.552976
vt 0.463203 0.656843
vt 0.444252 0.77653
vt 0.426137 0.866051
vt 0.573419 0.117409
vt 0.581125 0.246686
vt 0.552512 0.326
vt 0.561075 0.459693
vt 0.558356 0.550596
vt 0.530299 0.662189
vt 0.553275 0.760113
vt 0.555478 0.888821
vt 0.694433 0.13996
vt 0.667048 0.221666
vt 0.681985 0.314267
vt 0.698218 0.467249
vt 0.696819 0.535952
vt 0.68253 0.662758
vt 0.642062 0.791726
vt 0.648523 0.877957
vt 0.778029 0.111667
vt 0.809426 0.219523
vt 0.794923 0.307783
vt 0.772028 0.454562
vt 0.796846 0.533374
vt 0.807262 0.663157
vt 0.778581 0.821037
vt 0.775122 0.858219
vt 0.890224 0.104741
vt 0.865679 0.23076
vt 0.887326 0.334104
vt 0.881307 0.429754
vt 0.887973 0.53063
vt 0.918106 0.681428
vt 0.915043 0.778027
vt 0.904815 0.89094
vn 0.000706626 0.00298411 0.999995
vn 0.0236126 0.136579 0.990348
vn -0.0644019 -0.146662 0.987088
vn -0.0044009 -0.0518714 0.998644
vn 0.0760243 0.103394 0.991731
vn 0.0379639 0.168252 0.985013
vn 0.000975403 0.154251 0.988031
vn 0.00564003 0.126885 0.991901
vn 0.00392729 0.0521308 0.998633
vn -0.0115086 0.00450417 0.999924
vn 0.0112567 0.0743663 0.997167
vn 0.00765322 0.169599 0.985483
vn 0.126345 -0.15795 0.979331
vn 0.142471 -0.0812748 0.986457
vn 0.0711667 -0.00109129 0.997464
vn 0.0424352 -0.00180262 0.999098
vn -0.0309439 -0.0110026 0.999461
vn 0.0566729 0.0897797 0.994348
vn -0.125209 -0.223055 0.966731
vn -0.272526 -0.347294 0.897283
vn 0.123387 0.0845034 0.988754
vn 0.053492 0.045311 0.99754
vn 0.030272 0.0506074 0.99826
vn 0.0358488 0.0245802 0.999055
vn 0.0907794 0.0647794 0.993762
vn 0.109194 0.0666308 0.991785
vn 0.147811 0.0613866 0.987109
vn 0.119771 0.0841076 0.989232
vn -0.0033972 0.0536025 0.998557
vn 0.0130745 0.0149644 0.999803
vn 0.0168113 0.0305554 0.999392
vn 0.0509472 0.0049394 0.998689
vn 0.0518473 0.0417161 0.997783
vn -0.00861017 0.0253981 0.99964
vn -0.141604 0.100173 0.984842
vn -0.155181 0.0523908 0.986496
vn 0.112895 0.139583 0.983754
vn 0.0943932 0.0628957 0.993546
vn 0.019745 0.0226812 0.999548
vn 0.00835385 0.0237004 0.999684
vn -0.00170355 0.0458928 0.998945
vn 0.0287822 0.0622774 0.997644
vn 0.0897188 0.0969763 0.991235
vn -0.103864 -0.152744 0.982793
vn 0.00273062 0.0751712 0.997167
vn -0.0504496 0.0067402 0.998704
vn -0.10489 -0.0308621 0.994005
vn -0.0874269 0.0109411 0.996111
vn 0.0297829 0.0996099 0.994581
vn 0.0967063 0.134306 0.98621
vn -0.0587811 -0.0557937 0.996711
vn -0.240761 -0.314436 0.91824
vn -0.0229407 0.0755034 0.996882
vn -0.0674899 -0.0342634 0.997131
vn -0.0599441 0.0189247 0.998022
vn 0.0197467 0.0947228 0.995308
vn -0.00046812 0.12603 0.992026
vn -0.0195509 0.0403234 0.998995
vn -0.151586 -0.219059 0.963864
vn -0.0364319 -0.11492 0.992707
vn -0.00821382 0.0405047 0.999146
vn -0.0204875 -0.0345104 0.999194
vn -0.0104176 0.0335505 0.999383
vn -0.0101756 0.126307 0.991939
vn -0.0812498 0.0511222 0.995382
vn -0.130951 0.0113341 0.991324
vn -0.0814236 -0.118381 0.989624
vn -0.0296548 -0.137473 0.990061
vn -0.00424774 0.000144056 0.999991
vn 0.042755 -0.0415565 0.998221
vn 0.00587349 0.0346689 0.999382
vn 0.0116151 0.119683 0.992744
vn 0.0400354 -0.00241412 0.999195
vn -0.057826 0.00271855 0.998323
vn -0.0177649 -0.0403917 0.999026
vn 0.0111017 -0.0779694 0.996894
vn -0.00770808 0.0613485 0.998087
vn 0.0654611 0.00389681 0.997848
vn 0.0681535 -0.00261684 0.997671
vn -0.0143602 0.203465 0.978977
vn 0.0139002 0.133979 0.990887
vn 0.121175 -0.0320101 0.992115
vn 0.105446 -0.0815653 0.991074
vn 0.104874 -0.0944567 0.98999
vn 0.0508794 0.0303716 0.998243
vn 0.0200178 0.0788661 0.996684
vn 0.033789 0.00378297 0.999422
vn 0.0105539 0.0931408 0.995597
vn -0.0768942 0.133878 0.98801
vn -0.0347868 0.0933015 0.99503
vn 0.146697 -0.103598 0.983742
vn 0.183375 -0.187699 0.964957
vn 0.0277319 0.0623414 0.99767
vn -0.0143873 0.035048 0.999282
vn -0.0199861 0.0338998 0.999225
vn 0.0146068 0.00202377 0.999891
vn -0.0199756 0.0605364 0.997966
vn -0.0927094 0.108615 0.989751
vn -0.109439 0.0832332 0.990503
vn 0.0710017 -0.0819434 0.994105
f 100/100/100 4/4/4 13/13/13
f 44/44/44 3/3/3 21/21/21
f 44/44/44 19/19/19 20/20/20
f 60/60/60 19/19/19 52/52/52
f 60/60/60 17/17/17 18/18/18
f 76/76/76 17/17/17 68/68/68
f 84/84/84 16/16/16 76/76/76
f 84/84/84 14/14/14 15/15/15
f 100/100/100 14/14/14 92/92/92
f 11/11/11 93/93/93 85/85/85
f 93/93/93 86/86/86 85/85/85
f 94/94/94 87/87/87 86/86/86
f 87/87/87 96/96/96 88/88/88
f 96/96/96 89/89/89 88/88/88
f 97/97/97 90/90/90 89/89/89
f 90/90/90 99/99/99 91/91/91
f 91/91/91 100/100/100 92/92/92
f 10/10/10 85/85/85 77/77/77
f 77/77/77 86/86/86 78/78/78
f 78/78/78 87/87/87 79/79/79
f 79/79/79 88/88/88 80/80/80
f 88/88/88 81/81/81 80/80/80
f 81/81/81 90/90/90 82/82/82
f 82/82/82 91/91/91 83/83/83
f 91/91/91 84/84/84 83/83/83
f 10/10/10 69/69/69 9/9/9
f 69/69/69 78/78/78 70/70/70
f 70/70/70 79/79/79 71/71/71
f 79/79/79 72/72/72 71/71/71
f 72/72/72 81/81/81 73/73/73
f 73/73/73 82/82/82 74/74/74
f 82/82/82 75/75/75 74/74/74
f 83/83/83 76/76/76 75/75/75
f 9/9/9 61/61/61 8/8/8
f 69/69/69 62/62/62 61/61/61
f 62/62/62 71/71/71 63/63/63
f 63/63/63 72/72/72 64/64/64
f 72/72/72 65/65/65 64/64/64
f 65/65/65 74/74/74 66/66/66
f 66/66/66 75/75/75 67/67/67
f 67/67/67 76/76/76 68/68/68
f 8/8/8 53/53/53 7/7/7
f 53/53/53 62/62/62 54/54/54
f 54/54/54 63/63/63 55/55/55
f 55/55/55 64/64/64 56/56/56
f 64/64/64 57/57/57 56/56/56
f 57/57/57 66/66/66 58/58/58
f 58/58/58 67/67/67 59/59/59
f 59/59/59 68/68/68 60/60/60
f 6/6/6 53/53/53 45/45/45
f 45/45/45 54/54/54 46/46/46
f 54/54/54 47/47/47 46/46/46
f 55/55/55 48/48/48 47/47/47
f 56/56/56 49/49/49 48/48/48
f 49/49/49 58/58/58 50/50/50
f 58/58/58 51/51/51 50/50/50
f 59/59/59 52/52/52 51/51/51
f 6/6/6 37/37/37 5/5/5
f 45/45/45 38/38/38 37/37/37
f 46/46/46 39/39/39 38/38/38
f 39/39/39 48/48/48 40/40/40
f 40/40/40 49/49/49 41/41/41
f 41/41/41 50/50/50 42/42/42
f 50/50/50 43/43/43 42/42/42
f 51/51/51 44/44/44 43/43/43
f 5/5/5 28/28/28 1/1/1
f 28/28/28 38/38/38 27/27/27
f 27/27/27 39/39/39 26/26/26
f 26/26/26 40/40/40 25/25/25
f 40/40/40 24/24/24 25/25/25
f 41/41/41 23/23/23 24/24/24
f 23/23/23 43/43/43 22/22/22
f 43/43/43 21/21/21 22/22/22
f 2/2/2 93/93/93 12/12/12
f 93/93/93 30/30/30 94/94/94
f 30/30/30 95/95/95 94/94/94
f 31/31/31 96/96/96 95/95/95
f 32/32/32 97/97/97 96/96/96
f 33/33/33 98/98/98 97/97/97
f 98/98/98 35/35/35 99/99/99
f 99/99/99 36/36/36 100/100/100
f 100/100/100 36/36/36 4/4/4
f 44/44/44 20/20/20 3/3/3
f 44/44/44 52/52/52 19/19/19
f 60/60/60 18/18/18 19/19/19
f 60/60/60 68/68/68 17/17/17
f 76/76/76 16/16/16 17/17/17
f 84/84/84 15/15/15 16/16/16
f 84/84/84 92/92/92 14/14/14
f 100/100/100 13/13/13 14/14/14
f 11/11/11 12/12/12 93/93/93
f 93/93/93 94/94/94 86/86/86
f 94/94/94 95/95/95 87/87/87
f 87/87/87 95/95/95 96/96/96
f 96/96/96 97/97/97 89/89/89
f 97/97/97 98/98/98 90/90/90
f 90/90/90 98/98/98 99/99/99
f 91/91/91 99/99/99 100/100/100
f 10/10/10 11/11/11 85/85/85
f 77/77/77 85/85/85 86/86/86
f 78/78/78 86/86/86 87/87/87
f 79/79/79 87/87/87 88/88/88
f 88/88/88 89/89/89 81/81/81
f 81/81/81 89/89/89 90/90/90
f 82/82/82 90/90/90 91/91/91
f 91/91/91 92/92/92 84/84/84
f 10/10/10 77/77/77 69/69/69
f 69/69/69 77/77/77 78/78/78
f 70/70/70 78/78/78 79/79/79
f 79/79/79 80/80/80 72/72/72
f 72/72/72 80/80/80 81/81/81
f 73/73/73 81/81/81 82/82/82
f 82/82/82 83/83/83 75/75/75
f 83/83/83 84/84/84 76/76/76
f 9/9/9 69/69/69 61/61/61
f 69/69/69 70/70/70 62/62/62
f 62/62/62 70/70/70 71/71/71
f 63/63/63 71/71/71 72/72/72
f 72/72/72 73/73/73 65/65/65
f 65/65/65 73/73/73 74/74/74
f 66/66/66 74/74/74 75/75/75
f 67/67/67 75/75/75 76/76/76
f 8/8/8 61/61/61 53/53/53
f 53/53/53 61/61/61 62/62/62
f 54/54/54 62/62/62 63/63/63
f 55/55/55 63/63/63 64/64/64
f 64/64/64 65/65/65 57/57/57
f 57/57/57 65/65/65 66/66/66
f 58/58/58 66/66/66 67/67/67
f 59/59/59 67/67/67 68/68/68
f 6/6/6 7/7/7 53/53/53
f 45/45/45 53/53/53 54/54/54
f 54/54/54 55/55/55 47/47/47
f 55/55/55 56/56/56 48/48/48
f 56/56/56 57/57/57 49/49/49
f 49/49/49 57/57/57 58/58/58
f 58/58/58 59/59/59 51/51/51
f 59/59/59 60/60/60 52/52/52
f 6/6/6 45/45/45 37/37/37
f 45/45/45 46/46/46 38/38/38
f 46/46/46 47/47/47 39/39/39
f 39/39/39 47/47/47 48/48/48
f 40/40/40 48/48/48 49/49/49
f 41/41/41 49/49/49 50/50/50
f 50/50/50 51/51/51 43/43/43
f 51/51/51 52/52/52 44/44/44
f 5/5/5 37/37/37 28/28/28
f 28/28/28 37/37/37 38/38/38
f 27/27/27 38/38/38 39/39/39
f 26/26/26 39/39/39 40/40/40
f 40/40/40 41/41/41 24/24/24
f 41/41/41 42/42/42 23/23/23
f 23/23/23 42/42/42 43/43/43
f 43/43/43 44/44/44 21/21/21
f 2/2/2 29/29/29 93/93/93
f 93/93/93 29/29/29 30/30/30
f 30/30/30 31/31/31 95/95/95
f 31/31/31 32/32/32 96/96/96
f 32/32/32 33/33/33 97/97/97
f 33/33/33 34/34/34 98/98/98
f 98/98/98 34/34/34 35/35/35
f 99/99/99 35/35/35 36/36/36
