o GNATVCloth
v -5.05102 -4.98889 0.572658
v 5.00924 -4.99041 0.403108
v -5.01298 5.02105 0.004229
v 4.98702 5.02105 0.004229
v -3.94454 -5.01316 0.55015
v -2.82932 -5.04825 0.4787
v -1.70663 -5.06696 0.492044
v -0.582342 -5.07428 0.502181
v 0.542837 -5.08509 0.467037
v 1.66594 -5.06932 0.491127
v 2.78688 -5.04291 0.458305
v 3.9009 -5.001 0.504308
v 3.85931 4.93655 0.138752
v 2.74624 4.871 0.292037
v 1.62818 4.81881 0.344679
v 0.515331 4.7856 0.352764
v -0.595274 4.77451 0.44713
v -1.705 4.78059 0.538475
v -2.82652 4.80639 0.548536
v -3.92567 4.88763 0.314637
v -4.997 3.90665 0.072177
v -5.00196 2.7924 0.137918
v -5.01007 1.67915 0.208082
v -5.01762 0.565376 0.262611
v -5.02037 -0.547108 0.319599
v -5.02369 -1.65858 0.373519
v -5.0302 -2.77206 0.423268
v -5.03691 -3.87943 0.525705
v 4.99314 -3.88472 0.28618
v 4.98447 -2.77263 0.312906
v 4.9778 -1.66121 0.263705
v 4.97452 -0.548373 0.227663
v 4.97301 0.5647 0.212332
v 4.97085 1.67821 0.171365
v 4.97265 2.79266 0.132096
v 4.9702 3.90625 0.063139
v -3.87799 -3.88706 0.316067
v -3.83585 -3.23924 0.275827
v -3.68489 -1.95048 0.242713
v -4.13724 -0.289669 0.208664
v -4.1585 0.726908 0.20835
v -4.15049 1.5104 0.14718
v -4.08323 2.80066 0.0470014
v -3.92882 3.88119 -0.0688969
v -2.744 -4.04968 0.286771
v -2.81734 -2.77961 0.33034
v -2.69479 -2.18824 0.287504
v -2.76963 -0.643868 0.305653
v -2.79863 0.483767 0.20702
v -2.73265 1.52207 0.0568239
v -2.85163 2.86121 -0.0507417
v -2.74726 3.55018 0.0724043
v -1.67918 -4.27678 0.325032
v -1.51717 -2.96384 0.397124
v -1.91121 -1.67406 0.398199
v -1.89305 -0.878555 0.356257
v -1.53486 0.597244 0.114541
v -1.99542 1.65061 -0.0425817
v -1.71833 2.6902 0.0814915
v -1.5889 3.6415 0.444918
v -0.254025 -4.35475 0.387003
v -0.603763 -2.92615 0.452299
v -0.565653 -1.78414 0.484934
v -0.85524 -0.815369 0.329708
v -0.613523 0.386253 0.155242
v -0.37611 1.42361 0.138166
v -0.571012 2.60235 0.171341
v -0.764791 3.45636 0.429543
v 0.717987 -3.92195 0.412854
v 0.797614 -2.63722 0.533108
v 0.510626 -1.84787 0.48337
v 0.601334 -0.533759 0.282951
v 0.577366 0.35853 0.236666
v 0.294524 1.47096 0.20651
v 0.522078 2.43962 0.216799
v 0.536425 3.69551 0.397454
v 1.93051 -3.66651 0.414836
v 1.64474 -2.8584 0.334316
v 1.81406 -1.94426 0.472833
v 1.97375 -0.444791 0.140865
v 1.95576 0.231589 0.0184961
v 1.82358 1.49001 0.130298
v 1.40908 2.76651 0.201321
v 1.47724 3.59413 0.36336
v 2.77399 -3.92979 0.402473
v 3.07544 -2.84722 0.319147
v 2.92607 -1.97077 0.246785
v 2.69371 -0.510923 0.344403
v 2.9407 0.275876 0.225997
v 3.06474 1.54469 -0.0664163
v 2.75875 3.11048 -0.0129982
v 2.72935 3.46948 0.0804888
v 3.89543 -3.97541 0.289419
v 3.63929 -2.72374 0.323096
v 3.85118 -1.68507 0.288013
v 3.79035 -0.729421 0.289007
v 3.85418 0.282865 0.293158
v 4.15137 1.79837 0.157437
v 4.13684 2.74755 -0.0245495
v 4.02099 3.87267 -0.0688872
vt 0.0001 0.0001
vt 0.9999 0.0001
vt 0.0001 0.9999
vt 0.9999 0.9999
vt 0.111189 0.0001
vt 0.222278 0.0001
vt 0.333367 0.0001
vt 0.444455 0.0001
vt 0.555544 0.0001
vt 0.666633 0.0001
vt 0.777722 0.0001
vt 0.888811 0.0001
vt 0.888811 0.9999
vt 0.777722 0.9999
vt 0.666633 0.9999
vt 0.555544 0.9999
vt 0.444455 0.9999
vt 0.333367 0.9999
vt 0.222278 0.9999
vt 0.111189 0.9999
vt 0.0001 0.888811
vt 0.0001 0.777722
vt 0.0001 0.666633
vt 0.0001 0.555544
vt 0.0001 0.444456
vt 0.0001 0.333367
vt 0.0001 0.222278
vt 0.0001 0.111189
vt 0.9999 0.111189
vt 0.9999 0.222278
vt 0.9999 0.333367
vt 0.9999 0.444456
vt 0.9999 0.555544
vt 0.9999 0.666633
vt 0.9999 0.777722
vt 0.9999 0.888811
vt 0.11727 0.115399
vt 0.120778 0.180369
vt 0.134636 0.309595
vt 0.088728 0.473895
vt 0.085886 0.575352
vt 0.086211 0.65375
vt 0.092207 0.78313
vt 0.106956 0.892282
vt 0.22987 0.102869
vt 0.221803 0.229552
vt 0.233521 0.288953
vt 0.225541 0.443179
vt 0.221596 0.556167
vt 0.227801 0.661237
vt 0.214896 0.795203
vt 0.22542 0.865181
vt 0.335524 0.082127
vt 0.351143 0.213907
vt 0.311934 0.342467
vt 0.313159 0.422214
vt 0.347791 0.572605
vt 0.301482 0.677733
vt 0.329031 0.783086
vt 0.344903 0.885466
vt 0.476837 0.074882
vt 0.441952 0.218774
vt 0.445749 0.333088
vt 0.416414 0.43099
vt 0.439746 0.552976
vt 0.463203 0.656843
vt 0.444252 0.77653
vt 0.426137 0.866051
vt 0.573419 0.117409
vt 0.581125 0.246686
vt 0.552512 0.326
vt 0.561075 0.459693
vt 0.558356 0.550596
vt 0.530299 0.662189
vt 0.553275 0.760113
vt 0.555478 0.888821
vt 0.694433 0.13996
vt 0.667048 0.221666
vt 0.681985 0.314267
vt 0.698218 0.467249
vt 0.696819 0.535952
vt 0.68253 0.662758
vt 0.642062 0.791726
vt 0.648523 0.877957
vt 0.778029 0.111667
vt 0.809426 0.219523
vt 0.794923 0.307783
vt 0.772028 0.454562
vt 0.796846 0.533374
vt 0.807262 0.663157
vt 0.778581 0.821037
vt 0.775122 0.858219
vt 0.890224 0.104741
vt 0.865679 0.23076
vt 0.887326 0.334104
vt 0.881307 0.429754
vt 0.887973 0.53063
vt 0.918106 0.681428
vt 0.915043 0.778027
vt 0.904815 0.89094
vn 0.0212411 0.0420032 0.998892
vn 0.0407539 0.155278 0.98703
vn -0.0860763 -0.145104 0.985665
vn -0.0051392 -0.0592333 0.998231
vn 0.0891268 0.144526 0.985479
vn 0.0293605 0.194797 0.980404
vn -0.00782538 0.207045 0.9783
vn -0.00285281 0.174601 0.984635
vn -0.0135019 0.0826347 0.996489
vn 0.00553723 0.0514573 0.99866
vn 0.0275263 0.102468 0.994355
vn 0.0195409 0.205134 0.978539
vn 0.136769 -0.169696 0.97596
vn 0.139113 -0.114655 0.983617
vn 0.0267159 0.0119552 0.999572
vn 0.0439166 0.0328752 0.998494
vn 0.052207 -0.0157954 0.998511
vn 0.044276 -0.0772935 0.996025
vn -0.172842 -0.289483 0.941449
vn -0.258288 -0.343308 0.90301
vn 0.120828 0.0691386 0.990263
vn 0.0977662 0.0600362 0.993397
vn 0.0804521 0.0649575 0.99464
vn 0.0755617 0.0335731 0.996576
vn 0.110352 0.0492024 0.992674
vn 0.108402 0.0471062 0.99299
vn 0.130046 0.0481855 0.990336
vn 0.13351 0.0933333 0.986643
vn -0.000408632 0.0406323 0.999174
vn 0.0102356 0.00670179 0.999925
vn 0.0296512 0.0257218 0.999229
vn 0.0560765 0.0129614 0.998342
vn 0.0363731 0.0432161 0.998403
vn -0.0117068 0.0359857 0.999284
vn -0.130556 0.0930495 0.987065
vn -0.155076 0.0464856 0.986808
vn 0.102251 0.137169 0.985256
vn 0.0653682 0.0347084 0.997257
vn 0.0182293 0.0290649 0.999411
vn 0.0392013 0.0339853 0.998653
vn 0.0487646 0.0576954 0.997143
vn 0.0739352 0.0751226 0.99443
vn 0.0891953 0.0766099 0.993063
vn -0.0808185 -0.140678 0.986751
vn -0.00819994 0.0518734 0.99862
vn -0.0457353 0.0235974 0.998675
vn -0.0720488 0.0179823 0.997239
vn -0.0623131 0.0325323 0.997526
vn 0.0242529 0.110044 0.993631
vn 0.0756116 0.100812 0.992028
vn -0.0266607 -0.0196015 0.999452
vn -0.20822 -0.267876 0.940684
vn -0.0281019 0.0894968 0.995591
vn -0.0632827 -0.0196878 0.997801
vn -0.0641414 0.028973 0.99752
vn 0.00388303 0.0996199 0.995018
vn -0.00218831 0.125923 0.992038
vn -0.0205813 0.039821 0.998995
vn -0.130727 -0.218983 0.966932
vn -0.0827477 -0.201994 0.975885
vn -0.0208608 0.053562 0.998347
vn -0.0391826 -0.0369507 0.998549
vn -0.0278062 0.0628262 0.997637
vn -0.00319554 0.133457 0.991049
vn -0.0473708 0.0690905 0.996485
vn -0.0842528 0.0169517 0.9963
vn -0.0562991 -0.151466 0.986858
vn -0.00847469 -0.195076 0.980752
vn 0.0071733 0.00159883 0.999973
vn 0.0586916 -0.05411 0.996809
vn -0.00468201 0.0757293 0.997117
vn 0.0383809 0.137025 0.989824
vn 0.0452421 0.0166524 0.998837
vn -0.0351194 0.0161702 0.999252
vn -0.0096292 -0.0624916 0.997999
vn 0.0358293 -0.098386 0.994503
vn 0.00810052 0.0733817 0.997271
vn 0.096557 -0.0315544 0.994827
vn 0.0651553 0.0384025 0.997136
vn -0.08155 0.199473 0.976504
vn -0.0169427 0.103504 0.994485
vn 0.108274 -0.0253171 0.993799
vn 0.0966325 -0.118439 0.988248
vn 0.102307 -0.102885 0.989418
vn 0.0595791 0.0530322 0.996814
vn 0.0220531 0.0588462 0.998023
vn 0.0450081 -0.010411 0.998932
vn -0.0678181 0.109249 0.991698
vn -0.0994895 0.162706 0.981646
vn -0.0636202 0.0980798 0.993143
vn 0.131665 -0.0966636 0.98657
vn 0.184914 -0.191181 0.96398
vn 0.0311882 0.0674823 0.997233
vn -0.0136803 0.0206497 0.999693
vn -0.0102028 0.0237143 0.999667
vn 0.0168687 0.0124425 0.99978
vn -0.0340342 0.0753681 0.996575
vn -0.105923 0.108245 0.988465
vn -0.123687 0.076214 0.98939
vn 0.0518511 -0.087268 0.994835
f 100/100/100 4/4/4 13/13/13
f 44/44/44 3/3/3 21/21/21
f 44/44/44 19/19/19 20/20/20
f 60/60/60 19/19/19 52/52/52
f 60/60/60 17/17/17 18/18/18
f 76/76/76 17/17/17 68/68/68
f 84/84/84 16/16/16 76/76/76
f 84/84/84 14/14/14 15/15/15
f 100/100/100 14/14/14 92/92/92
f 11/11/11 93/93/93 85/85/85
f 93/93/93 86/86/86 85/85/85
f 94/94/94 87/87/87 86/86/86
f 87/87/87 96/96/96 88/88/88
f 96/96/96 89/89/89 88/88/88
f 97/97/97 90/90/90 89/89/89
f 90/90/90 99/99/99 91/91/91
f 91/91/91 100/100/100 92/92/92
f 10/10/10 85/85/85 77/77/77
f 77/77/77 86/86/86 78/78/78
f 78/78/78 87/87/87 79/79/79
f 79/79/79 88/88/88 80/80/80
f 88/88/88 81/81/81 80/80/80
f 81/81/81 90/90/90 82/82/82
f 82/82/82 91/91/91 83/83/83
f 91/91/91 84/84/84 83/83/83
f 10/10/10 69/69/69 9/9/9
f 69/69/69 78/78/78 70/70/70
f 70/70/70 79/79/79 71/71/71
f 79/79/79 72/72/72 71/71/71
f 72/72/72 81/81/81 73/73/73
f 73/73/73 82/82/82 74/74/74
f 82/82/82 75/75/75 74/74/74
f 83/83/83 76/76/76 75/75/75
f 9/9/9 61/61/61 8/8/8
f 69/69/69 62/62/62 61/61/61
f 62/62/62 71/71/71 63/63/63
f 63/63/63 72/72/72 64/64/64
f 72/72/72 65/65/65 64/64/64
f 65/65/65 74/74/74 66/66/66
f 66/66/66 75/75/75 67/67/67
f 67/67/67 76/76/76 68/68/68
f 8/8/8 53/53/53 7/7/7
f 53/53/53 62/62/62 54/54/54
f 54/54/54 63/63/63 55/55/55
f 55/55/55 64/64/64 56/56/56
f 64/64/64 57/57/57 56/56/56
f 57/57/57 66/66/66 58/58/58
f 58/58/58 67/67/67 59/59/59
f 59/59/59 68/68/68 60/60/60
f 6/6/6 53/53/53 45/45/45
f 45/45/45 54/54/54 46/46/46
f 54/54/54 47/47/47 46/46/46
f 55/55/55 48/48/48 47/47/47
f 56/56/56 49/49/49 48/48/48
f 49/49/49 58/58/58 50/50/50
f 58/58/58 51/51/51 50/50/50
f 59/59/59 52/52/52 51/51/51
f 6/6/6 37/37/37 5/5/5
f 45/45/45 38/38/38 37/37/37
f 46/46/46 39/39/39 38/38/38
f 39/39/39 48/48/48 40/40/40
f 40/40/40 49/49/49 41/41/41
f 41/41/41 50/50/50 42/42/42
f 50/50/50 43/43/43 42/42/42
f 51/51/51 44/44/44 43/43/43
f 5/5/5 28/28/28 1/1/1
f 28/28/28 38/38/38 27/27/27
f 27/27/27 39/39/39 26/26/26
f 26/26/26 40/40/40 25/25/25
f 40/40/40 24/24/24 25/25/25
f 41/41/41 23/23/23 24/24/24
f 23/23/23 43/43/43 22/22/22
f 43/43/43 21/21/21 22/22/22
f 2/2/2 93/93/93 12/12/12
f 93/93/93 30/30/30 94/94/94
f 30/30/30 95/95/95 94/94/94
f 31/31/31 96/96/96 95/95/95
f 32/32/32 97/97/97 96/96/96
f 33/33/33 98/98/98 97/97/97
f 98/98/98 35/35/35 99/99/99
f 99/99/99 36/36/36 100/100/100
f 100/100/100 36/36/36 4/4/4
f 44/44/44 20/20/20 3/3/3
f 44/44/44 52/52/52 19/19/19
f 60/60/60 18/18/18 19/19/19
f 60/60/60 68/68/68 17/17/17
f 76/76/76 16/16/16 17/17/17
f 84/84/84 15/15/15 16/16/16
f 84/84/84 92/92/92 14/14/14
f 100/100/100 13/13/13 14/14/14
f 11/11/11 12/12/12 93/93/93
f 93/93/93 94/94/94 86/86/86
f 94/94/94 95/95/95 87/87/87
f 87/87/87 95/95/95 96/96/96
f 96/96/96 97/97/97 89/89/89
f 97/97/97 98/98/98 90/90/90
f 90/90/90 98/98/98 99/99/99
f 91/91/91 99/99/99 100/100/100
f 10/10/10 11/11/11 85/85/85
f 77/77/77 85/85/85 86/86/86
f 78/78/78 86/86/86 87/87/87
f 79/79/79 87/87/87 88/88/88
f 88/88/88 89/89/89 81/81/81
f 81/81/81 89/89/89 90/90/90
f 82/82/82 90/90/90 91/91/91
f 91/91/91 92/92/92 84/84/84
f 10/10/10 77/77/77 69/69/69
f 69/69/69 77/77/77 78/78/78
f 70/70/70 78/78/78 79/79/79
f 79/79/79 80/80/80 72/72/72
f 72/72/72 80/80/80 81/81/81
f 73/73/73 81/81/81 82/82/82
f 82/82/82 83/83/83 75/75/75
f 83/83/83 84/84/84 76/76/76
f 9/9/9 69/69/69 61/61/61
f 69/69/69 70/70/70 62/62/62
f 62/62/62 70/70/70 71/71/71
f 63/63/63 71/71/71 72/72/72
f 72/72/72 73/73/73 65/65/65
f 65/65/65 73/73/73 74/74/74
f 66/66/66 74/74/74 75/75/75
f 67/67/67 75/75/75 76/76/76
f 8/8/8 61/61/61 53/53/53
f 53/53/53 61/61/61 62/62/62
f 54/54/54 62/62/62 63/63/63
f 55/55/55 63/63/63 64/64/64
f 64/64/64 65/65/65 57/57/57
f 57/57/57 65/65/65 66/66/66
f 58/58/58 66/66/66 67/67/67
f 59/59/59 67/67/67 68/68/68
f 6/6/6 7/7/7 53/53/53
f 45/45/45 53/53/53 54/54/54
f 54/54/54 55/55/55 47/47/47
f 55/55/55 56/56/56 48/48/48
f 56/56/56 57/57/57 49/49/49
f 49/49/49 57/57/57 58/58/58
f 58/58/58 59/59/59 51/51/51
f 59/59/59 60/60/60 52/52/52
f 6/6/6 45/45/45 37/37/37
f 45/45/45 46/46/46 38/38/38
f 46/46/46 47/47/47 39/39/39
f 39/39/39 47/47/47 48/48/48
f 40/40/40 48/48/48 49/49/49
f 41/41/41 49/49/49 50/50/50
f 50/50/50 51/51/51 43/43/43
f 51/51/51 52/52/52 44/44/44
f 5/5/5 37/37/37 28/28/28
f 28/28/28 37/37/37 38/38/38
f 27/27/27 38/38/38 39/39/39
f 26/26/26 39/39/39 40/40/40
f 40/40/40 41/41/41 24/24/24
f 41/41/41 42/42/42 23/23/23
f 23/23/23 42/42/42 43/43/43
f 43/43/43 44/44/44 21/21/21
f 2/2/2 29/29/29 93/93/93
f 93/93/93 29/29/29 30/30/30
f 30/30/30 31/31/31 95/95/95
f 31/31/31 32/32/32 96/96/96
f 32/32/32 33/33/33 97/97/97
f 33/33/33 34/34/34 98/98/98
f 98/98/98 34/34/34 35/35/35
f 99/99/99 35/35/35 36/36/36
