o GNATVCloth
v -4.99548 -5.01171 0.19598
v 5.17303 -5.01289 0.187353
v -5.01298 5.02105 0.004229
v 4.98702 5.02105 0.004229
v -3.8771 -5.05992 0.151255
v -2.75319 -5.11095 0.118813
v -1.62233 -5.14631 0.133649
v -0.485007 -5.18506 0.121006
v 0.654927 -5.19019 0.0688813
v 1.79287 -5.16382 0.0915484
v 2.92518 -5.11823 0.131155
v 4.05209 -5.05799 0.174994
v 3.85944 4.92362 0.120491
v 2.74095 4.83555 0.118561
v 1.63578 4.75782 0.160684
v 0.617972 4.71572 0.127867
v -0.455493 4.75801 0.0987334
v -1.5785 4.81308 0.167362
v -2.71325 4.88992 0.123366
v -3.85646 4.94634 0.0671232
v -4.96953 3.90444 0.0373019
v -4.95653 2.78762 0.0769367
v -4.95258 1.67139 0.117749
v -4.94986 0.555203 0.146317
v -4.95353 -0.560342 0.15122
v -4.96131 -1.67519 0.156241
v -4.96873 -2.78835 0.150943
v -4.97608 -3.90122 0.138995
v 5.14458 -3.90005 0.166106
v 5.13374 -2.78728 0.11488
v 5.11779 -1.67413 0.135381
v 5.10176 -0.559582 0.137161
v 5.08436 0.555656 0.138603
v 5.06234 1.67194 0.120288
v 5.03831 2.78824 0.0871983
v 5.01111 3.90467 0.0497842
v -3.79479 -3.90934 0.117897
v -3.75498 -3.26015 0.100729
v -3.60845 -1.9729 0.0743641
v -4.0661 -0.307133 0.0838226
v -4.09262 0.710341 0.0930818
v -4.08984 1.49538 0.101519
v -4.03362 2.78794 0.0786575
v -3.89137 3.87218 0.0524197
v -2.65722 -4.08754 0.104461
v -2.73163 -2.81628 0.103106
v -2.61131 -2.22719 0.0918704
v -2.68849 -0.682623 0.104332
v -2.72888 0.450857 0.0935328
v -2.66776 1.49852 0.09275
v -2.79871 2.84626 0.0894126
v -2.69418 3.54293 0.103409
v -1.58696 -4.33362 0.0790057
v -1.42357 -3.0195 0.0704742
v -1.81867 -1.72261 0.127542
v -1.80574 -0.924651 0.124922
v -1.4595 0.564664 0.0887929
v -1.9275 1.63285 0.0881582
v -1.65401 2.67571 0.0934167
v -1.48757 3.69373 0.0925048
v -0.150244 -4.44286 0.0911041
v -0.503664 -2.99918 0.0780927
v -0.466721 -1.85633 0.0949111
v -0.765616 -0.873286 0.0897887
v -0.53647 0.339434 0.0926219
v -0.305955 1.37264 0.0966893
v -0.499951 2.57272 0.0916084
v -0.673496 3.46338 0.10187
v 0.831662 -4.01892 0.0810241
v 0.905452 -2.72748 0.109174
v 0.612141 -1.93982 0.10949
v 0.690659 -0.604212 0.0682763
v 0.65626 0.304754 0.0986015
v 0.366823 1.4159 0.105532
v 0.592581 2.38807 0.100189
v 0.613692 3.62567 0.0923605
v 2.05938 -3.75914 0.115394
v 1.77639 -2.95605 0.0932518
v 1.91986 -2.02543 0.0861471
v 2.07192 -0.488206 0.115957
v 2.05236 0.194397 0.0835194
v 1.89083 1.44832 0.0669314
v 1.47693 2.71595 0.109818
v 1.51373 3.53881 0.0863962
v 2.91027 -4.00618 0.101761
v 3.21485 -2.91367 0.114682
v 3.05978 -2.04129 0.0741236
v 2.81575 -0.584054 0.098607
v 3.05403 0.217112 0.109653
v 3.13873 1.5188 0.0759669
v 2.8132 3.07219 0.0880795
v 2.76776 3.43098 0.127955
v 4.04556 -4.02039 0.0724676
v 3.78116 -2.77424 0.123016
v 3.9866 -1.7288 0.115913
v 3.91699 -0.774153 0.0796591
v 3.96845 0.238745 0.0972734
v 4.24259 1.76696 0.0908497
v 4.1907 2.73283 0.0830052
v 4.05858 3.85477 0.0672011
vt 0.0001 0.0001
vt 0.9999 0.0001
vt 0.0001 0.9999
vt 0.9999 0.9999
vt 0.111189 0.0001
vt 0.222278 0.0001
vt 0.333367 0.0001
vt 0.444455 0.0001
vt 0.555544 0.0001
vt 0.666633 0.0001
vt 0.777722 0.0001
vt 0.888811 0.0001
vt 0.888811 0.9999
vt 0.777722 0.9999
vt 0.666633 0.9999
vt 0.555544 0.9999
vt 0.444455 0.9999
vt 0.333367 0.9999
vt 0.222278 0.9999
vt 0.111189 0.9999
vt 0.0001 0.888811
vt 0.0001 0.777722
vt 0.0001 0.666633
vt 0.0001 0.555544
vt 0.0001 0.444456
vt 0.0001 0.333367
vt 0.0001 0.222278
vt 0.0001 0.111189
vt 0.9999 0.111189
vt 0.9999 0.222278
vt 0.9999 0.333367
vt 0.9999 0.444456
vt 0.9999 0.555544
vt 0.9999 0.666633
vt 0.9999 0.777722
vt 0.9999 0.888811
vt 0.11727 0.115399
vt 0.120778 0.180369
vt 0.134636 0.309595
vt 0.088728 0.473895
vt 0.085886 0.575352
vt 0.086211 0.65375
vt 0.092207 0.78313
vt 0.106956 0.892282
vt 0.22987 0.102869
vt 0.221803 0.229552
vt 0.233521 0.288953
vt 0.225541 0.443179
vt 0.221596 0.556167
vt 0.227801 0.661237
vt 0.214896 0.795203
vt 0.22542 0.865181
vt 0.335524 0.082127
vt 0.351143 0.213907
vt 0.311934 0.342467
vt 0.313159 0.422214
vt 0.347791 0.572605
vt 0.301482 0.677733
vt 0.329031 0.783086
vt 0.344903 0.885466
vt 0.476837 0.074882
vt 0.441952 0.218774
vt 0.445749 0.333088
vt 0.416414 0.43099
vt 0.439746 0.552976
vt 0.463203 0.656843
vt 0.444252 0.77653
vt 0.426137 0.866051
vt 0.573419 0.117409
vt 0.581125 0.246686
vt 0.552512 0.326
vt 0.561075 0.459693
vt 0.558356 0.550596
vt 0.530299 0.662189
vt 0.553275 0.760113
vt 0.555478 0.888821
vt 0.694433 0.13996
vt 0.667048 0.221666
vt 0.681985 0.314267
vt 0.698218 0.467249
vt 0.696819 0.535952
vt 0.68253 0.662758
vt 0.642062 0.791726
vt 0.648523 0.877957
vt 0.778029 0.111667
vt 0.809426 0.219523
vt 0.794923 0.307783
vt 0.772028 0.454562
vt 0.796846 0.533374
vt 0.807262 0.663157
vt 0.778581 0.821037
vt 0.775122 0.858219
vt 0.890224 0.104741
vt 0.865679 0.23076
vt 0.887326 0.334104
vt 0.881307 0.429754
vt 0.887973 0.53063
vt 0.918106 0.681428
vt 0.915043 0.778027
vt 0.904815 0.89094
vn 0.0420796 0.0504688 0.997839
vn -0.0508903 0.0575995 0.997042
vn -0.0341183 0.00861158 0.999381
vn 0.0606956 0.00557574 0.998141
vn 0.0300634 0.034995 0.998935
vn 0.0148341 0.0296722 0.99945
vn 0.00119012 0.0670347 0.99775
vn 0.017987 0.0429132 0.998917
vn 0.013933 -0.000176695 0.999903
vn -0.0176635 -0.00314493 0.999839
vn -0.0179464 0.0502706 0.998574
vn -0.0294211 0.0981054 0.994741
vn 0.053697 -0.0397415 0.997766
vn 0.0141854 -0.0252304 0.999581
vn 0.0063995 -0.0614649 0.998089
vn -0.018235 -0.0409516 0.998995
vn 0.00659875 -0.02227 0.99973
vn 0.00724078 -0.0661391 0.997784
vn -0.0322802 -0.0281038 0.999084
vn -0.0523955 -0.0119654 0.998555
vn -0.00942021 0.0301551 0.999501
vn -0.00187577 0.0359881 0.99935
vn 0.0235773 0.0170378 0.999577
vn 0.0650756 0.00746427 0.997852
vn 0.0745783 0.0040542 0.997207
vn 0.0656165 0.00348472 0.997839
vn 0.0478513 -0.000344583 0.998854
vn 0.0288138 0.023134 0.999317
vn -0.0882079 0.0308682 0.995624
vn -0.0236036 -0.00186517 0.99972
vn -0.0277873 0.00521172 0.9996
vn -0.043435 -0.00639794 0.999036
vn -0.0369326 0.00842741 0.999282
vn -0.033296 0.0223192 0.999196
vn -0.0150376 0.0233572 0.999614
vn 0.00880949 0.0301933 0.999505
vn 0.0191454 0.023605 0.999538
vn 0.0172681 0.0129416 0.999767
vn 0.0154331 0.00647639 0.99986
vn 0.0347701 0.000240267 0.999395
vn 0.0235411 -0.00195344 0.999721
vn 0.0127853 0.00314014 0.999913
vn -0.00104951 0.022738 0.999741
vn -0.0334454 0.00399806 0.999433
vn 0.0172031 0.00943747 0.999807
vn 0.00516354 0.0120711 0.999914
vn -0.0115472 -0.00645454 0.999913
vn -0.0219803 -0.00134962 0.999758
vn -0.00347375 0.00512691 0.999981
vn 0.00252181 0.00207422 0.999995
vn -0.0116084 -0.00101794 0.999932
vn -0.0158687 -0.0126022 0.999795
vn 0.00455488 0.0294775 0.999555
vn 0.00953198 -0.0104931 0.9999
vn 0.000711849 -0.0127927 0.999918
vn 0.00498588 0.0111296 0.999926
vn 0.00386012 0.006073 0.999974
vn 0.000295673 -0.000300613 1
vn -0.00174008 -0.00629793 0.999979
vn 0.00222912 -0.0234465 0.999723
vn 0.0108501 0.0133942 0.999851
vn -0.0102422 -0.00463526 0.999937
vn 0.00420428 -0.0021412 0.999989
vn 0.0193822 0.00577482 0.999795
vn -0.00298376 -0.00864096 0.999958
vn -0.00820335 0.00158027 0.999965
vn -0.0014235 -0.0022701 0.999996
vn -0.000933435 -0.00264689 0.999996
vn -0.00868282 -0.00695054 0.999938
vn 0.00231676 -0.00805447 0.999965
vn -0.00162782 0.009061 0.999958
vn -0.00397206 0.00358633 0.999986
vn 0.00685083 -0.0118181 0.999907
vn 0.00372682 5.36758e-06 0.999993
vn -0.00238627 -0.00150088 0.999996
vn -0.00282949 -0.00465988 0.999985
vn -0.0100555 -0.00152711 0.999948
vn -0.00344732 0.011712 0.999925
vn 0.00941969 -0.000841197 0.999955
vn -0.00536208 0.0142919 0.999883
vn -0.00704047 0.015738 0.999851
vn 0.0103858 -0.00597464 0.999928
vn 0.00590619 0.000618916 0.999982
vn -0.00587502 -0.0299032 0.999536
vn 0.00757181 -5.8867e-05 0.999971
vn -0.00400909 0.00536038 0.999978
vn -0.01609 0.0161066 0.999741
vn 0.0105524 -0.00443007 0.999935
vn -0.00232852 0.00209788 0.999995
vn -0.00810155 0.00891905 0.999927
vn 0.0101993 -0.0308721 0.999471
vn 0.0122038 -0.0507203 0.998638
vn -0.0228551 0.0231683 0.99947
vn -0.0137098 -0.00330027 0.999901
vn -0.0272626 0.0148156 0.999519
vn -0.0180659 0.00037287 0.999837
vn -0.0184429 0.00139128 0.999829
vn -0.0237444 0.0130168 0.999633
vn -0.000174054 0.0120241 0.999928
vn 0.0389611 -0.01428 0.999139
f 100/100/100 4/4/4 13/13/13
f 44/44/44 3/3/3 21/21/21
f 44/44/44 19/19/19 20/20/20
f 60/60/60 19/19/19 52/52/52
f 60/60/60 17/17/17 18/18/18
f 76/76/76 17/17/17 68/68/68
f 84/84/84 16/16/16 76/76/76
f 84/84/84 14/14/14 15/15/15
f 100/100/100 14/14/14 92/92/92
f 11/11/11 93/93/93 85/85/85
f 93/93/93 86/86/86 85/85/85
f 94/94/94 87/87/87 86/86/86
f 87/87/87 96/96/96 88/88/88
f 96/96/96 89/89/89 88/88/88
f 97/97/97 90/90/90 89/89/89
f 90/90/90 99/99/99 91/91/91
f 91/91/91 100/100/100 92/92/92
f 10/10/10 85/85/85 77/77/77
f 77/77/77 86/86/86 78/78/78
f 78/78/78 87/87/87 79/79/79
f 79/79/79 88/88/88 80/80/80
f 88/88/88 81/81/81 80/80/80
f 81/81/81 90/90/90 82/82/82
f 82/82/82 91/91/91 83/83/83
f 91/91/91 84/84/84 83/83/83
f 10/10/10 69/69/69 9/9/9
f 69/69/69 78/78/78 70/70/70
f 70/70/70 79/79/79 71/71/71
f 79/79/79 72/72/72 71/71/71
f 72/72/72 81/81/81 73/73/73
f 73/73/73 82/82/82 74/74/74
f 82/82/82 75/75/75 74/74/74
f 83/83/83 76/76/76 75/75/75
f 9/9/9 61/61/61 8/8/8
f 69/69/69 62/62/62 61/61/61
f 62/62/62 71/71/71 63/63/63
f 63/63/63 72/72/72 64/64/64
f 72/72/72 65/65/65 64/64/64
f 65/65/65 74/74/74 66/66/66
f 66/66/66 75/75/75 67/67/67
f 67/67/67 76/76/76 68/68/68
f 8/8/8 53/53/53 7/7/7
f 53/53/53 62/62/62 54/54/54
f 54/54/54 63/63/63 55/55/55
f 55/55/55 64/64/64 56/56/56
f 64/64/64 57/57/57 56/56/56
f 57/57/57 66/66/66 58/58/58
f 58/58/58 67/67/67 59/59/59
f 59/59/59 68/68/68 60/60/60
f 6/6/6 53/53/53 45/45/45
f 45/45/45 54/54/54 46/46/46
f 54/54/54 47/47/47 46/46/46
f 55/55/55 48/48/48 47/47/47
f 56/56/56 49/49/49 48/48/48
f 49/49/49 58/58/58 50/50/50
f 58/58/58 51/51/51 50/50/50
f 59/59/59 52/52/52 51/51/51
f 6/6/6 37/37/37 5/5/5
f 45/45/45 38/38/38 37/37/37
f 46/46/46 39/39/39 38/38/38
f 39/39/39 48/48/48 40/40/40
f 40/40/40 49/49/49 41/41/41
f 41/41/41 50/50/50 42/42/42
f 50/50/50 43/43/43 42/42/42
f 51/51/51 44/44/44 43/43/43
f 5/5/5 28/28/28 1/1/1
f 28/28/28 38/38/38 27/27/27
f 27/27/27 39/39/39 26/26/26
f 26/26/26 40/40/40 25/25/25
f 40/40/40 24/24/24 25/25/25
f 41/41/41 23/23/23 24/24/24
f 23/23/23 43/43/43 22/22/22
f 43/43/43 21/21/21 22/22/22
f 2/2/2 93/93/93 12/12/12
f 93/93/93 30/30/30 94/94/94
f 30/30/30 95/95/95 94/94/94
f 31/31/31 96/96/96 95/95/95
f 32/32/32 97/97/97 96/96/96
f 33/33/33 98/98/98 97/97/97
f 98/98/98 35/35/35 99/99/99
f 99/99/99 36/36/36 100/100/100
f 100/100/100 36/36/36 4/4/4
f 44/44/44 20/20/20 3/3/3
f 44/44/44 52/52/52 19/19/19
f 60/60/60 18/18/18 19/19/19
f 60/60/60 68/68/68 17/17/17
f 76/76/76 16/16/16 17/17/17
f 84/84/84 15/15/15 16/16/16
f 84/84/84 92/92/92 14/14/14
f 100/100/100 13/13/13 14/14/14
f 11/11/11 12/12/12 93/93/93
f 93/93/93 94/94/94 86/86/86
f 94/94/94 95/95/95 87/87/87
f 87/87/87 95/95/95 96/96/96
f 96/96/96 97/97/97 89/89/89
f 97/97/97 98/98/98 90/90/90
f 90/90/90 98/98/98 99/99/99
f 91/91/91 99/99/99 100/100/100
f 10/10/10 11/11/11 85/85/85
f 77/77/77 85/85/85 86/86/86
f 78/78/78 86/86/86 87/87/87
f 79/79/79 87/87/87 88/88/88
f 88/88/88 89/89/89 81/81/81
f 81/81/81 89/89/89 90/90/90
f 82/82/82 90/90/90 91/91/91
f 91/91/91 92/92/92 84/84/84
f 10/10/10 77/77/77 69/69/69
f 69/69/69 77/77/77 78/78/78
f 70/70/70 78/78/78 79/79/79
f 79/79/79 80/80/80 72/72/72
f 72/72/72 80/80/80 81/81/81
f 73/73/73 81/81/81 82/82/82
f 82/82/82 83/83/83 75/75/75
f 83/83/83 84/84/84 76/76/76
f 9/9/9 69/69/69 61/61/61
f 69/69/69 70/70/70 62/62/62
f 62/62/62 70/70/70 71/71/71
f 63/63/63 71/71/71 72/72/72
f 72/72/72 73/73/73 65/65/65
f 65/65/65 73/73/73 74/74/74
f 66/66/66 74/74/74 75/75/75
f 67/67/67 75/75/75 76/76/76
f 8/8/8 61/61/61 53/53/53
f 53/53/53 61/61/61 62/62/62
f 54/54/54 62/62/62 63/63/63
f 55/55/55 63/63/63 64/64/64
f 64/64/64 65/65/65 57/57/57
f 57/57/57 65/65/65 66/66/66
f 58/58/58 66/66/66 67/67/67
f 59/59/59 67/67/67 68/68/68
f 6/6/6 7/7/7 53/53/53
f 45/45/45 53/53/53 54/54/54
f 54/54/54 55/55/55 47/47/47
f 55/55/55 56/56/56 48/48/48
f 56/56/56 57/57/57 49/49/49
f 49/49/49 57/57/57 58/58/58
f 58/58/58 59/59/59 51/51/51
f 59/59/59 60/60/60 52/52/52
f 6/6/6 45/45/45 37/37/37
f 45/45/45 46/46/46 38/38/38
f 46/46/46 47/47/47 39/39/39
f 39/39/39 47/47/47 48/48/48
f 40/40/40 48/48/48 49/49/49
f 41/41/41 49/49/49 50/50/50
f 50/50/50 51/51/51 43/43/43
f 51/51/51 52/52/52 44/44/44
f 5/5/5 37/37/37 28/28/28
f 28/28/28 37/37/37 38/38/38
f 27/27/27 38/38/38 39/39/39
f 26/26/26 39/39/39 40/40/40
f 40/40/40 41/41/41 24/24/24
f 41/41/41 42/42/42 23/23/23
f 23/23/23 42/42/42 43/43/43
f 43/43/43 44/44/44 21/21/21
f 2/2/2 29/29/29 93/93/93
f 93/93/93 29/29/29 30/30/30
f 30/30/30 31/31/31 95/95/95
f 31/31/31 32/32/32 96/96/96
f 32/32/32 33/33/33 97/97/97
f 33/33/33 34/34/34 98/98/98
f 98/98/98 34/34/34 35/35/35
f 99/99/99 35/35/35 36/36/36
