o GNATVCloth
v -4.92684 -4.98308 0.377558
v 5.10949 -4.98345 0.408843
v -5.01298 5.02105 0.004229
v 4.98702 5.02105 0.004229
v -3.81381 -4.99599 0.333909
v -2.70151 -4.99337 0.314282
v -1.58856 -4.9985 0.232074
v -0.471027 -4.99974 0.222645
v 0.649243 -5.00606 0.248567
v 1.76875 -5.00504 0.261498
v 2.88598 -5.00821 0.229094
v 4.00142 -4.99964 0.286936
v 3.86946 4.95689 0.0858815
v 2.78409 4.88972 0.227312
v 1.67919 4.84693 0.351402
v 0.578797 4.85048 0.310416
v -0.536276 4.86667 0.27446
v -1.64358 4.90036 0.176767
v -2.76407 4.93967 0.153201
v -3.88275 4.98197 0.0627754
v -4.99044 3.90681 0.0481299
v -4.97236 2.79222 0.0701294
v -4.95935 1.67863 0.0961307
v -4.94761 0.566426 0.138781
v -4.93674 -0.54455 0.196452
v -4.92884 -1.6551 0.257202
v -4.91836 -2.76375 0.355586
v -4.92049 -3.87373 0.39828
v 5.10361 -3.87412 0.320792
v 5.096 -2.76501 0.311163
v 5.08717 -1.65451 0.248585
v 5.0765 -0.543993 0.16199
v 5.06236 0.569668 0.109037
v 5.04831 1.68166 0.0774728
v 5.03426 2.79415 0.0555611
v 5.01842 3.90766 0.0305068
v -3.75081 -3.84591 0.293945
v -3.71276 -3.19719 0.288042
v -3.58211 -1.91108 0.174342
v -4.0518 -0.265067 0.15281
v -4.09119 0.751352 0.160829
v -4.09542 1.53636 0.130816
v -4.04968 2.83064 0.0976254
v -3.91956 3.90996 -0.0363349
v -2.62301 -3.97805 0.235084
v -2.70425 -2.70968 0.177599
v -2.58822 -2.11831 0.159999
v -2.68374 -0.580132 0.277884
v -2.732 0.54887 0.272346
v -2.67831 1.59885 0.207977
v -2.81744 2.92069 -0.00944463
v -2.74975 3.59466 0.189654
v -1.56254 -4.18853 0.243122
v -1.40781 -2.87342 0.227051
v -1.81148 -1.59068 0.306101
v -1.8036 -0.797151 0.275064
v -1.46992 0.693755 0.169452
v -1.94488 1.74576 0.123453
v -1.70012 2.77882 0.26908
v -1.54563 3.77457 0.224166
v -0.143992 -4.26815 0.222054
v -0.496888 -2.82904 0.231195
v -0.465131 -1.6886 0.256653
v -0.768667 -0.716867 0.216324
v -0.545923 0.496609 0.203662
v -0.324734 1.53424 0.241535
v -0.535476 2.73038 0.27412
v -0.727081 3.57484 0.23453
v 0.824373 -3.84656 0.247597
v 0.89806 -2.55271 0.19934
v 0.606692 -1.76461 0.221041
v 0.680878 -0.431201 0.215465
v 0.643097 0.479047 0.228205
v 0.346771 1.58704 0.236104
v 0.564578 2.56607 0.239072
v 0.576581 3.79778 0.228862
v 2.03966 -3.61533 0.226574
v 1.76148 -2.80149 0.205693
v 1.90766 -1.88057 0.249465
v 2.05561 -0.353154 0.219171
v 2.03255 0.328852 0.206434
v 1.87405 1.59463 0.169387
v 1.45654 2.8727 0.2713
v 1.51374 3.69348 0.217621
v 2.88134 -3.89489 0.228433
v 3.18744 -2.8163 0.280681
v 3.04065 -1.93798 0.195573
v 2.79585 -0.472318 0.281623
v 3.03496 0.316252 0.253151
v 3.12638 1.60825 0.175595
v 2.82495 3.167 0.194578
v 2.78618 3.53475 0.240896
v 4.00769 -3.9556 0.250435
v 3.74963 -2.69891 0.3137
v 3.96071 -1.66731 0.273193
v 3.89252 -0.71341 0.208156
v 3.94693 0.296529 0.198578
v 4.23398 1.80961 0.141601
v 4.1953 2.77009 0.082721
v 4.06513 3.88686 0.0253347
vt 0.0001 0.0001
vt 0.9999 0.0001
vt 0.0001 0.9999
vt 0.9999 0.9999
vt 0.111189 0.0001
vt 0.222278 0.0001
vt 0.333367 0.0001
vt 0.444455 0.0001
vt 0.555544 0.0001
vt 0.666633 0.0001
vt 0.777722 0.0001
vt 0.888811 0.0001
vt 0.888811 0.9999
vt 0.777722 0.9999
vt 0.666633 0.9999
vt 0.555544 0.9999
vt 0.444455 0.9999
vt 0.333367 0.9999
vt 0.222278 0.9999
vt 0.111189 0.9999
vt 0.0001 0.888811
vt 0.0001 0.777722
vt 0.0001 0.666633
vt 0.0001 0.555544
vt 0.0001 0.444456
vt 0.0001 0.333367
vt 0.0001 0.222278
vt 0.0001 0.111189
vt 0.9999 0.111189
vt 0.9999 0.222278
vt 0.9999 0.333367
vt 0.9999 0.444456
vt 0.9999 0.555544
vt 0.9999 0.666633
vt 0.9999 0.777722
vt 0.9999 0.888811
vt 0.11727 0.115399
vt 0.120778 0.180369
vt 0.134636 0.309595
vt 0.088728 0.473895
vt 0.085886 0.575352
vt 0.086211 0.65375
vt 0.092207 0.78313
vt 0.106956 0.892282
vt 0.22987 0.102869
vt 0.221803 0.229552
vt 0.233521 0.288953
vt 0.225541 0.443179
vt 0.221596 0.556167
vt 0.227801 0.661237
vt 0.214896 0.795203
vt 0.22542 0.865181
vt 0.335524 0.082127
vt 0.351143 0.213907
vt 0.311934 0.342467
vt 0.313159 0.422214
vt 0.347791 0.572605
vt 0.301482 0.677733
vt 0.329031 0.783086
vt 0.344903 0.885466
vt 0.476837 0.074882
vt 0.441952 0.218774
vt 0.445749 0.333088
vt 0.416414 0.43099
vt 0.439746 0.552976
vt 0.463203 0.656843
vt 0.444252 0.77653
vt 0.426137 0.866051
vt 0.573419 0.117409
vt 0.581125 0.246686
vt 0.552512 0.326
vt 0.561075 0.459693
vt 0.558356 0.550596
vt 0.530299 0.662189
vt 0.553275 0.760113
vt 0.555478 0.888821
vt 0.694433 0.13996
vt 0.667048 0.221666
vt 0.681985 0.314267
vt 0.698218 0.467249
vt 0.696819 0.535952
vt 0.68253 0.662758
vt 0.642062 0.791726
vt 0.648523 0.877957
vt 0.778029 0.111667
vt 0.809426 0.219523
vt 0.794923 0.307783
vt 0.772028 0.454562
vt 0.796846 0.533374
vt 0.807262 0.663157
vt 0.778581 0.821037
vt 0.775122 0.858219
vt 0.890224 0.104741
vt 0.865679 0.23076
vt 0.887326 0.334104
vt 0.881307 0.429754
vt 0.887973 0.53063
vt 0.918106 0.681428
vt 0.915043 0.778027
vt 0.904815 0.89094
vn 0.0389603 -0.0188855 0.999062
vn -0.0897816 0.0570008 0.994329
vn 0.0119617 -0.024723 0.999623
vn 0.0346981 -0.00960679 0.999352
vn 0.048241 0.0148934 0.998725
vn 0.0398935 0.0420305 0.99832
vn 0.0410231 -0.014945 0.999046
vn -3.87976e-05 -0.00282573 0.999996
vn -0.0210781 0.00628651 0.999758
vn 0.00905128 0.0124726 0.999881
vn -0.0141876 0.0121521 0.999826
vn -0.0809461 0.0353108 0.996093
vn 0.10321 -0.0373692 0.993957
vn 0.0986959 -0.0358311 0.994472
vn 0.0392672 -0.120678 0.991915
vn -0.0224193 -0.0880973 0.99586
vn -0.03246 -0.0258177 0.99914
vn -0.0532255 0.037382 0.997883
vn -0.0800306 0.000722574 0.996792
vn -0.069115 -0.0894859 0.993587
vn 0.0419736 0.0579962 0.997434
vn -0.0306584 0.0211009 0.999307
vn -0.0335405 0.0314491 0.998942
vn -0.00833298 0.0271082 0.999598
vn 0.0323314 0.0534763 0.998046
vn 0.0591557 0.0586874 0.996522
vn 0.0772593 0.0687949 0.994635
vn 0.0713841 0.0132447 0.997361
vn -0.0672212 0.0434194 0.996793
vn -0.010096 0.0131936 0.999862
vn 0.0232891 0.0679678 0.997416
vn 0.0446188 0.0445782 0.998009
vn 0.0751788 0.033676 0.996601
vn 0.0823841 0.0249915 0.996287
vn 0.0479932 0.0353416 0.998222
vn 0.00641301 0.0323146 0.999457
vn 0.0615884 0.0292905 0.997672
vn 0.0749897 0.0431321 0.996251
vn 0.0320353 0.0310635 0.999004
vn -0.0229258 0.01525 0.999621
vn -0.0505311 0.0264461 0.998372
vn -0.0452717 0.032573 0.998444
vn 0.0108953 0.070672 0.99744
vn -0.0487374 -0.0199811 0.998612
vn 0.028029 0.043824 0.998646
vn 0.0216399 0.0473965 0.998642
vn -0.0528423 -0.0394271 0.997824
vn -0.0498441 -0.021565 0.998524
vn 0.00127213 0.0351519 0.999381
vn 0.0120433 0.0878895 0.996057
vn -0.0916307 -0.0213464 0.995564
vn -0.155254 -0.0808661 0.984559
vn 0.0155515 0.00922127 0.999837
vn -0.0237527 -0.00953537 0.999672
vn -0.0180953 -0.0170328 0.999691
vn 0.0396071 0.039075 0.998451
vn 0.00866786 0.0316715 0.999461
vn -0.022343 0.00841577 0.999715
vn -0.0953474 -0.0541567 0.99397
vn -0.0327351 0.0282492 0.999065
vn -0.00875812 -0.00074749 0.999961
vn 0.00832342 -0.00404548 0.999957
vn 0.0213248 -0.000151592 0.999773
vn 0.0173636 0.0363719 0.999187
vn -0.0180613 -0.0110775 0.999775
vn -0.0239929 -0.0204692 0.999503
vn -0.0053981 -0.0167177 0.999846
vn -0.00342866 0.0154638 0.999874
vn -0.00255817 0.01741 0.999845
vn 1.51844e-05 -0.00508297 0.999987
vn 0.00896527 -0.0140197 0.999862
vn -0.00136027 0.0085186 0.999963
vn 0.00705081 -0.000955532 0.999975
vn 0.0172286 -0.012938 0.999768
vn 0.0111494 -0.0175587 0.999784
vn -0.00150367 -0.0086059 0.999962
vn -0.00775043 0.00805897 0.999937
vn -0.0107317 0.0105901 0.999886
vn -0.00865617 -0.0191132 0.99978
vn -0.0422208 0.0205353 0.998897
vn -0.0212728 0.0277721 0.999388
vn 0.0224035 -0.0143405 0.999646
vn 0.0166109 -0.000871557 0.999862
vn 0.0132128 -0.0445075 0.998922
vn -0.00464969 -0.0121314 0.999916
vn -0.044131 0.00561098 0.99901
vn -0.0264798 0.0196259 0.999457
vn -0.00603598 0.00129624 0.999981
vn 0.01988 0.037972 0.999081
vn 0.0188191 0.0332942 0.999268
vn 0.064032 -0.0247834 0.99764
vn 0.0768167 -0.0531111 0.99563
vn -0.0480967 0.000703458 0.998842
vn -0.0441325 0.0143847 0.998922
vn -0.031448 0.0570091 0.997878
vn 0.024481 0.0268009 0.999341
vn 0.0543093 0.0289818 0.998103
vn 0.052295 0.0384722 0.99789
vn 0.0428202 0.0440793 0.99811
vn 0.0931349 -0.00438641 0.995644
f 100/100/100 4/4/4 13/13/13
f 44/44/44 3/3/3 21/21/21
f 44/44/44 19/19/19 20/20/20
f 60/60/60 19/19/19 52/52/52
f 60/60/60 17/17/17 18/18/18
f 76/76/76 17/17/17 68/68/68
f 84/84/84 16/16/16 76/76/76
f 84/84/84 14/14/14 15/15/15
f 100/100/100 14/14/14 92/92/92
f 11/11/11 93/93/93 85/85/85
f 93/93/93 86/86/86 85/85/85
f 94/94/94 87/87/87 86/86/86
f 87/87/87 96/96/96 88/88/88
f 96/96/96 89/89/89 88/88/88
f 97/97/97 90/90/90 89/89/89
f 90/90/90 99/99/99 91/91/91
f 91/91/91 100/100/100 92/92/92
f 10/10/10 85/85/85 77/77/77
f 77/77/77 86/86/86 78/78/78
f 78/78/78 87/87/87 79/79/79
f 79/79/79 88/88/88 80/80/80
f 88/88/88 81/81/81 80/80/80
f 81/81/81 90/90/90 82/82/82
f 82/82/82 91/91/91 83/83/83
f 91/91/91 84/84/84 83/83/83
f 10/10/10 69/69/69 9/9/9
f 69/69/69 78/78/78 70/70/70
f 70/70/70 79/79/79 71/71/71
f 79/79/79 72/72/72 71/71/71
f 72/72/72 81/81/81 73/73/73
f 73/73/73 82/82/82 74/74/74
f 82/82/82 75/75/75 74/74/74
f 83/83/83 76/76/76 75/75/75
f 9/9/9 61/61/61 8/8/8
f 69/69/69 62/62/62 61/61/61
f 62/62/62 71/71/71 63/63/63
f 63/63/63 72/72/72 64/64/64
f 72/72/72 65/65/65 64/64/64
f 65/65/65 74/74/74 66/66/66
f 66/66/66 75/75/75 67/67/67
f 67/67/67 76/76/76 68/68/68
f 8/8/8 53/53/53 7/7/7
f 53/53/53 62/62/62 54/54/54
f 54/54/54 63/63/63 55/55/55
f 55/55/55 64/64/64 56/56/56
f 64/64/64 57/57/57 56/56/56
f 57/57/57 66/66/66 58/58/58
f 58/58/58 67/67/67 59/59/59
f 59/59/59 68/68/68 60/60/60
f 6/6/6 53/53/53 45/45/45
f 45/45/45 54/54/54 46/46/46
f 54/54/54 47/47/47 46/46/46
f 55/55/55 48/48/48 47/47/47
f 56/56/56 49/49/49 48/48/48
f 49/49/49 58/58/58 50/50/50
f 58/58/58 51/51/51 50/50/50
f 59/59/59 52/52/52 51/51/51
f 6/6/6 37/37/37 5/5/5
f 45/45/45 38/38/38 37/37/37
f 46/46/46 39/39/39 38/38/38
f 39/39/39 48/48/48 40/40/40
f 40/40/40 49/49/49 41/41/41
f 41/41/41 50/50/50 42/42/42
f 50/50/50 43/43/43 42/42/42
f 51/51/51 44/44/44 43/43/43
f 5/5/5 28/28/28 1/1/1
f 28/28/28 38/38/38 27/27/27
f 27/27/27 39/39/39 26/26/26
f 26/26/26 40/40/40 25/25/25
f 40/40/40 24/24/24 25/25/25
f 41/41/41 23/23/23 24/24/24
f 23/23/23 43/43/43 22/22/22
f 43/43/43 21/21/21 22/22/22
f 2/2/2 93/93/93 12/12/12
f 93/93/93 30/30/30 94/94/94
f 30/30/30 95/95/95 94/94/94
f 31/31/31 96/96/96 95/95/95
f 32/32/32 97/97/97 96/96/96
f 33/33/33 98/98/98 97/97/97
f 98/98/98 35/35/35 99/99/99
f 99/99/99 36/36/36 100/100/100
f 100/100/100 36/36/36 4/4/4
f 44/44/44 20/20/20 3/3/3
f 44/44/44 52/52/52 19/19/19
f 60/60/60 18/18/18 19/19/19
f 60/60/60 68/68/68 17/17/17
f 76/76/76 16/16/16 17/17/17
f 84/84/84 15/15/15 16/16/16
f 84/84/84 92/92/92 14/14/14
f 100/100/100 13/13/13 14/14/14
f 11/11/11 12/12/12 93/93/93
f 93/93/93 94/94/94 86/86/86
f 94/94/94 95/95/95 87/87/87
f 87/87/87 95/95/95 96/96/96
f 96/96/96 97/97/97 89/89/89
f 97/97/97 98/98/98 90/90/90
f 90/90/90 98/98/98 99/99/99
f 91/91/91 99/99/99 100/100/100
f 10/10/10 11/11/11 85/85/85
f 77/77/77 85/85/85 86/86/86
f 78/78/78 86/86/86 87/87/87
f 79/79/79 87/87/87 88/88/88
f 88/88/88 89/89/89 81/81/81
f 81/81/81 89/89/89 90/90/90
f 82/82/82 90/90/90 91/91/91
f 91/91/91 92/92/92 84/84/84
f 10/10/10 77/77/77 69/69/69
f 69/69/69 77/77/77 78/78/78
f 70/70/70 78/78/78 79/79/79
f 79/79/79 80/80/80 72/72/72
f 72/72/72 80/80/80 81/81/81
f 73/73/73 81/81/81 82/82/82
f 82/82/82 83/83/83 75/75/75
f 83/83/83 84/84/84 76/76/76
f 9/9/9 69/69/69 61/61/61
f 69/69/69 70/70/70 62/62/62
f 62/62/62 70/70/70 71/71/71
f 63/63/63 71/71/71 72/72/72
f 72/72/72 73/73/73 65/65/65
f 65/65/65 73/73/73 74/74/74
f 66/66/66 74/74/74 75/75/75
f 67/67/67 75/75/75 76/76/76
f 8/8/8 61/61/61 53/53/53
f 53/53/53 61/61/61 62/62/62
f 54/54/54 62/62/62 63/63/63
f 55/55/55 63/63/63 64/64/64
f 64/64/64 65/65/65 57/57/57
f 57/57/57 65/65/65 66/66/66
f 58/58/58 66/66/66 67/67/67
f 59/59/59 67/67/67 68/68/68
f 6/6/6 7/7/7 53/53/53
f 45/45/45 53/53/53 54/54/54
f 54/54/54 55/55/55 47/47/47
f 55/55/55 56/56/56 48/48/48
f 56/56/56 57/57/57 49/49/49
f 49/49/49 57/57/57 58/58/58
f 58/58/58 59/59/59 51/51/51
f 59/59/59 60/60/60 52/52/52
f 6/6/6 45/45/45 37/37/37
f 45/45/45 46/46/46 38/38/38
f 46/46/46 47/47/47 39/39/39
f 39/39/39 47/47/47 48/48/48
f 40/40/40 48/48/48 49/49/49
f 41/41/41 49/49/49 50/50/50
f 50/50/50 51/51/51 43/43/43
f 51/51/51 52/52/52 44/44/44
f 5/5/5 37/37/37 28/28/28
f 28/28/28 37/37/37 38/38/38
f 27/27/27 38/38/38 39/39/39
f 26/26/26 39/39/39 40/40/40
f 40/40/40 41/41/41 24/24/24
f 41/41/41 42/42/42 23/23/23
f 23/23/23 42/42/42 43/43/43
f 43/43/43 44/44/44 21/21/21
f 2/2/2 29/29/29 93/93/93
f 93/93/93 29/29/29 30/30/30
f 30/30/30 31/31/31 95/95/95
f 31/31/31 32/32/32 96/96/96
f 32/32/32 33/33/33 97/97/97
f 33/33/33 34/34/34 98/98/98
f 98/98/98 34/34/34 35/35/35
f 99/99/99 35/35/35 36/36/36
