o GNATVCloth
v -5.04988 -4.98802 0.569322
v 4.99764 -4.98953 0.407053
v -5.01298 5.02105 0.004229
v 4.98702 5.02105 0.004229
v -3.9428 -5.0125 0.550895
v -2.82941 -5.04249 0.477859
v -1.70663 -5.05797 0.4892
v -0.583502 -5.06252 0.499445
v 0.53936 -5.07197 0.460533
v 1.66017 -5.06104 0.483505
v 2.77947 -5.03702 0.458848
v 3.893 -4.99364 0.50347
v 3.85993 4.93878 0.133579
v 2.7482 4.87522 0.285252
v 1.6308 4.83116 0.348078
v 0.516274 4.8044 0.361921
v -0.59333 4.78934 0.447942
v -1.7091 4.79147 0.51435
v -2.82955 4.80627 0.553391
v -3.92755 4.88702 0.321035
v -4.99901 3.90679 0.0714831
v -5.00478 2.79287 0.137696
v -5.01372 1.67978 0.208518
v -5.01974 0.565875 0.257019
v -5.02029 -0.546571 0.315822
v -5.02509 -1.65873 0.373435
v -5.03053 -2.77036 0.42886
v -5.03611 -3.87851 0.528345
v 4.98334 -3.88414 0.287295
v 4.97636 -2.77248 0.315717
v 4.97103 -1.66089 0.26697
v 4.96854 -0.548626 0.226352
v 4.96941 0.564521 0.211297
v 4.96812 1.6784 0.174402
v 4.97017 2.79292 0.135816
v 4.96934 3.90651 0.0671627
v -3.87716 -3.88428 0.317317
v -3.8379 -3.23618 0.277128
v -3.68705 -1.94766 0.242545
v -4.13768 -0.286816 0.205233
v -4.16083 0.727989 0.210704
v -4.15344 1.51261 0.149031
v -4.08538 2.80177 0.0503421
v -3.93016 3.88241 -0.0620223
v -2.74352 -4.04093 0.283938
v -2.82122 -2.77691 0.323704
v -2.6976 -2.18758 0.28704
v -2.77142 -0.642201 0.309096
v -2.80005 0.485786 0.215448
v -2.73271 1.52525 0.0648969
v -2.85401 2.8652 -0.0545027
v -2.74875 3.54663 0.0778923
v -1.67989 -4.27035 0.32767
v -1.52183 -2.95531 0.396775
v -1.91481 -1.66619 0.401755
v -1.89534 -0.870929 0.360021
v -1.53588 0.605206 0.118838
v -1.996 1.65591 -0.0465355
v -1.72272 2.69246 0.0890448
v -1.58945 3.65077 0.449807
v -0.255909 -4.34782 0.386832
v -0.60869 -2.91689 0.446638
v -0.569918 -1.77429 0.48762
v -0.858674 -0.806215 0.33065
v -0.613744 0.393332 0.159612
v -0.376522 1.42301 0.147383
v -0.572695 2.60517 0.177536
v -0.76617 3.46299 0.420931
v 0.712883 -3.91188 0.411707
v 0.793344 -2.6283 0.531761
v 0.505648 -1.84485 0.480625
v 0.596178 -0.524801 0.295617
v 0.576128 0.369089 0.245682
v 0.294344 1.47816 0.22526
v 0.520574 2.44206 0.227294
v 0.535833 3.70197 0.400834
v 1.92432 -3.66017 0.422428
v 1.64054 -2.8526 0.330306
v 1.80921 -1.93641 0.470617
v 1.96826 -0.4348 0.159592
v 1.95294 0.238459 0.0224336
v 1.82434 1.49913 0.140814
v 1.40854 2.76997 0.210747
v 1.47606 3.60726 0.371529
v 2.76589 -3.92491 0.406749
v 3.06966 -2.84336 0.319586
v 2.92052 -1.96615 0.243907
v 2.69003 -0.505748 0.344805
v 2.93689 0.283736 0.235568
v 3.06157 1.55027 -0.0654098
v 2.75623 3.11695 -0.0104658
v 2.73011 3.47294 0.0953523
v 3.88604 -3.97119 0.291489
v 3.63213 -2.72018 0.325758
v 3.8449 -1.68086 0.288131
v 3.78524 -0.726668 0.287577
v 3.85006 0.286752 0.295046
v 4.14894 1.79948 0.156739
v 4.13442 2.75018 -0.0218835
v 4.02077 3.87592 -0.0660058
vt 0.0001 0.0001
vt 0.9999 0.0001
vt 0.0001 0.9999
vt 0.9999 0.9999
vt 0.111189 0.0001
vt 0.222278 0.0001
vt 0.333367 0.0001
vt 0.444455 0.0001
vt 0.555544 0.0001
vt 0.666633 0.0001
vt 0.777722 0.0001
vt 0.888811 0.0001
vt 0.888811 0.9999
vt 0.777722 0.9999
vt 0.666633 0.9999
vt 0.555544 0.9999
vt 0.444455 0.9999
vt 0.333367 0.9999
vt 0.222278 0.9999
vt 0.111189 0.9999
vt 0.0001 0.888811
vt 0.0001 0.777722
vt 0.0001 0.666633
vt 0.0001 0.555544
vt 0.0001 0.444456
vt 0.0001 0.333367
vt 0.0001 0.222278
vt 0.0001 0.111189
vt 0.9999 0.111189
vt 0.9999 0.222278
vt 0.9999 0.333367
vt 0.9999 0.444456
vt 0.9999 0.555544
vt 0.9999 0.666633
vt 0.9999 0.777722
vt 0.9999 0.888811
vt 0.11727 0.115399
vt 0.120778 0.180369
vt 0.134636 0.309595
vt 0.088728 0.473895
vt 0.085886 0.575352
vt 0.086211 0.65375
vt 0.092207 0.78313
vt 0.106956 0.892282
vt 0.22987 0.102869
vt 0.221803 0.229552
vt 0.233521 0.288953
vt 0.225541 0.443179
vt 0.221596 0.556167
vt 0.227801 0.661237
vt 0.214896 0.795203
vt 0.22542 0.865181
vt 0.335524 0.082127
vt 0.351143 0.213907
vt 0.311934 0.342467
vt 0.313159 0.422214
vt 0.347791 0.572605
vt 0.301482 0.677733
vt 0.329031 0.783086
vt 0.344903 0.885466
vt 0.476837 0.074882
vt 0.441952 0.218774
vt 0.445749 0.333088
vt 0.416414 0.43099
vt 0.439746 0.552976
vt 0.463203 0.656843
vt 0.444252 0.77653
vt 0.426137 0.866051
vt 0.573419 0.117409
vt 0.581125 0.246686
vt 0.552512 0.326
vt 0.561075 0.459693
vt 0.558356 0.550596
vt 0.530299 0.662189
vt 0.553275 0.760113
vt 0.555478 0.888821
vt 0.694433 0.13996
vt 0.667048 0.221666
vt 0.681985 0.314267
vt 0.698218 0.467249
vt 0.696819 0.535952
vt 0.68253 0.662758
vt 0.642062 0.791726
vt 0.648523 0.877957
vt 0.778029 0.111667
vt 0.809426 0.219523
vt 0.794923 0.307783
vt 0.772028 0.454562
vt 0.796846 0.533374
vt 0.807262 0.663157
vt 0.778581 0.821037
vt 0.775122 0.858219
vt 0.890224 0.104741
vt 0.865679 0.23076
vt 0.887326 0.334104
vt 0.881307 0.429754
vt 0.887973 0.53063
vt 0.918106 0.681428
vt 0.915043 0.778027
vt 0.904815 0.89094
vn 0.0174412 0.0366854 0.999175
vn 0.0399149 0.15558 0.987017
vn -0.092591 -0.145366 0.985036
vn -0.00827419 -0.0542595 0.998493
vn 0.0883546 0.142294 0.985873
vn 0.0293852 0.19382 0.980597
vn -0.00762042 0.201149 0.979531
vn -0.00144807 0.170306 0.98539
vn -0.0110724 0.0781074 0.996883
vn 0.00299179 0.0442758 0.999015
vn 0.0261542 0.0995707 0.994687
vn 0.0186963 0.203096 0.97898
vn 0.133406 -0.163369 0.977504
vn 0.140961 -0.104948 0.984437
vn 0.0338337 0.0148702 0.999317
vn 0.0411779 0.0300252 0.998701
vn 0.0463238 -0.0152063 0.998811
vn 0.0466632 -0.0515505 0.99758
vn -0.165168 -0.282729 0.944872
vn -0.260466 -0.34339 0.902353
vn 0.114803 0.0682451 0.991041
vn 0.0938313 0.0605289 0.993746
vn 0.0764822 0.0636926 0.995035
vn 0.0697947 0.0305176 0.997094
vn 0.109169 0.0516847 0.992679
vn 0.108459 0.0505385 0.992815
vn 0.132607 0.0492969 0.989942
vn 0.133722 0.0913548 0.986799
vn 0.000553716 0.0411553 0.999153
vn 0.00977838 0.00667215 0.99993
vn 0.0276402 0.0274075 0.999242
vn 0.056922 0.013078 0.998293
vn 0.0364381 0.0422916 0.998441
vn -0.0165433 0.0338536 0.99929
vn -0.132628 0.0916103 0.986923
vn -0.156211 0.0476928 0.986572
vn 0.103944 0.137174 0.985078
vn 0.0694951 0.0350217 0.996967
vn 0.0190667 0.0285833 0.99941
vn 0.0353958 0.0327693 0.998836
vn 0.0433409 0.0551756 0.997536
vn 0.0707421 0.0749686 0.994673
vn 0.0876504 0.0768866 0.99318
vn -0.083145 -0.143587 0.986139
vn -0.0083704 0.0536906 0.998523
vn -0.0454962 0.0210539 0.998743
vn -0.0749195 0.0125488 0.997111
vn -0.0652562 0.0302746 0.997409
vn 0.0244846 0.108933 0.993748
vn 0.0791346 0.103854 0.991439
vn -0.0269636 -0.0229359 0.999373
vn -0.209596 -0.271551 0.939324
vn -0.0279407 0.0887976 0.995658
vn -0.0640725 -0.0219841 0.997703
vn -0.0646186 0.0277224 0.997525
vn 0.0048648 0.0982164 0.995153
vn -0.00247114 0.126738 0.991933
vn -0.0198004 0.0403664 0.998989
vn -0.130988 -0.220224 0.966614
vn -0.0758227 -0.193527 0.978161
vn -0.0189751 0.0527698 0.998426
vn -0.0375306 -0.0375507 0.99859
vn -0.0263354 0.0580711 0.997965
vn -0.00491186 0.132937 0.991112
vn -0.0526715 0.0667031 0.996382
vn -0.0923952 0.0194138 0.995533
vn -0.0601127 -0.146586 0.98737
vn -0.00603947 -0.191069 0.981558
vn 0.00554915 0.000949353 0.999984
vn 0.0582009 -0.0538354 0.996852
vn -0.00386647 0.0699697 0.997542
vn 0.0356799 0.135786 0.990095
vn 0.0461483 0.0137057 0.998841
vn -0.0397168 0.0163964 0.999076
vn -0.0123873 -0.0568069 0.998308
vn 0.0300474 -0.0966052 0.994869
vn 0.00574625 0.0745314 0.997202
vn 0.0948177 -0.0274963 0.995115
vn 0.0678426 0.0322006 0.997176
vn -0.0710619 0.203469 0.976499
vn -0.0132575 0.108751 0.993981
vn 0.113248 -0.0261186 0.993223
vn 0.0978493 -0.115073 0.988526
vn 0.101314 -0.104903 0.989308
vn 0.0600965 0.0505203 0.996913
vn 0.0208312 0.0626667 0.997817
vn 0.0430325 -0.00968277 0.999027
vn -0.0599148 0.106323 0.992525
vn -0.0983258 0.160272 0.982163
vn -0.0602532 0.0990622 0.993255
vn 0.134986 -0.105808 0.985182
vn 0.186476 -0.201036 0.961671
vn 0.0312507 0.0668224 0.997275
vn -0.0162179 0.0220237 0.999626
vn -0.0128717 0.0253419 0.999596
vn 0.0172311 0.0104591 0.999797
vn -0.0298453 0.0756417 0.996688
vn -0.106424 0.10685 0.988563
vn -0.123748 0.0747999 0.98949
vn 0.0537951 -0.0875221 0.994709
f 100/100/100 4/4/4 13/13/13
f 44/44/44 3/3/3 21/21/21
f 44/44/44 19/19/19 20/20/20
f 60/60/60 19/19/19 52/52/52
f 60/60/60 17/17/17 18/18/18
f 76/76/76 17/17/17 68/68/68
f 84/84/84 16/16/16 76/76/76
f 84/84/84 14/14/14 15/15/15
f 100/100/100 14/14/14 92/92/92
f 11/11/11 93/93/93 85/85/85
f 93/93/93 86/86/86 85/85/85
f 94/94/94 87/87/87 86/86/86
f 87/87/87 96/96/96 88/88/88
f 96/96/96 89/89/89 88/88/88
f 97/97/97 90/90/90 89/89/89
f 90/90/90 99/99/99 91/91/91
f 91/91/91 100/100/100 92/92/92
f 10/10/10 85/85/85 77/77/77
f 77/77/77 86/86/86 78/78/78
f 78/78/78 87/87/87 79/79/79
f 79/79/79 88/88/88 80/80/80
f 88/88/88 81/81/81 80/80/80
f 81/81/81 90/90/90 82/82/82
f 82/82/82 91/91/91 83/83/83
f 91/91/91 84/84/84 83/83/83
f 10/10/10 69/69/69 9/9/9
f 69/69/69 78/78/78 70/70/70
f 70/70/70 79/79/79 71/71/71
f 79/79/79 72/72/72 71/71/71
f 72/72/72 81/81/81 73/73/73
f 73/73/73 82/82/82 74/74/74
f 82/82/82 75/75/75 74/74/74
f 83/83/83 76/76/76 75/75/75
f 9/9/9 61/61/61 8/8/8
f 69/69/69 62/62/62 61/61/61
f 62/62/62 71/71/71 63/63/63
f 63/63/63 72/72/72 64/64/64
f 72/72/72 65/65/65 64/64/64
f 65/65/65 74/74/74 66/66/66
f 66/66/66 75/75/75 67/67/67
f 67/67/67 76/76/76 68/68/68
f 8/8/8 53/53/53 7/7/7
f 53/53/53 62/62/62 54/54/54
f 54/54/54 63/63/63 55/55/55
f 55/55/55 64/64/64 56/56/56
f 64/64/64 57/57/57 56/56/56
f 57/57/57 66/66/66 58/58/58
f 58/58/58 67/67/67 59/59/59
f 59/59/59 68/68/68 60/60/60
f 6/6/6 53/53/53 45/45/45
f 45/45/45 54/54/54 46/46/46
f 54/54/54 47/47/47 46/46/46
f 55/55/55 48/48/48 47/47/47
f 56/56/56 49/49/49 48/48/48
f 49/49/49 58/58/58 50/50/50
f 58/58/58 51/51/51 50/50/50
f 59/59/59 52/52/52 51/51/51
f 6/6/6 37/37/37 5/5/5
f 45/45/45 38/38/38 37/37/37
f 46/46/46 39/39/39 38/38/38
f 39/39/39 48/48/48 40/40/40
f 40/40/40 49/49/49 41/41/41
f 41/41/41 50/50/50 42/42/42
f 50/50/50 43/43/43 42/42/42
f 51/51/51 44/44/44 43/43/43
f 5/5/5 28/28/28 1/1/1
f 28/28/28 38/38/38 27/27/27
f 27/27/27 39/39/39 26/26/26
f 26/26/26 40/40/40 25/25/25
f 40/40/40 24/24/24 25/25/25
f 41/41/41 23/23/23 24/24/24
f 23/23/23 43/43/43 22/22/22
f 43/43/43 21/21/21 22/22/22
f 2/2/2 93/93/93 12/12/12
f 93/93/93 30/30/30 94/94/94
f 30/30/30 95/95/95 94/94/94
f 31/31/31 96/96/96 95/95/95
f 32/32/32 97/97/97 96/96/96
f 33/33/33 98/98/98 97/97/97
f 98/98/98 35/35/35 99/99/99
f 99/99/99 36/36/36 100/100/100
f 100/100/100 36/36/36 4/4/4
f 44/44/44 20/20/20 3/3/3
f 44/44/44 52/52/52 19/19/19
f 60/60/60 18/18/18 19/19/19
f 60/60/60 68/68/68 17/17/17
f 76/76/76 16/16/16 17/17/17
f 84/84/84 15/15/15 16/16/16
f 84/84/84 92/92/92 14/14/14
f 100/100/100 13/13/13 14/14/14
f 11/11/11 12/12/12 93/93/93
f 93/93/93 94/94/94 86/86/86
f 94/94/94 95/95/95 87/87/87
f 87/87/87 95/95/95 96/96/96
f 96/96/96 97/97/97 89/89/89
f 97/97/97 98/98/98 90/90/90
f 90/90/90 98/98/98 99/99/99
f 91/91/91 99/99/99 100/100/100
f 10/10/10 11/11/11 85/85/85
f 77/77/77 85/85/85 86/86/86
f 78/78/78 86/86/86 87/87/87
f 79/79/79 87/87/87 88/88/88
f 88/88/88 89/89/89 81/81/81
f 81/81/81 89/89/89 90/90/90
f 82/82/82 90/90/90 91/91/91
f 91/91/91 92/92/92 84/84/84
f 10/10/10 77/77/77 69/69/69
f 69/69/69 77/77/77 78/78/78
f 70/70/70 78/78/78 79/79/79
f 79/79/79 80/80/80 72/72/72
f 72/72/72 80/80/80 81/81/81
f 73/73/73 81/81/81 82/82/82
f 82/82/82 83/83/83 75/75/75
f 83/83/83 84/84/84 76/76/76
f 9/9/9 69/69/69 61/61/61
f 69/69/69 70/70/70 62/62/62
f 62/62/62 70/70/70 71/71/71
f 63/63/63 71/71/71 72/72/72
f 72/72/72 73/73/73 65/65/65
f 65/65/65 73/73/73 74/74/74
f 66/66/66 74/74/74 75/75/75
f 67/67/67 75/75/75 76/76/76
f 8/8/8 61/61/61 53/53/53
f 53/53/53 61/61/61 62/62/62
f 54/54/54 62/62/62 63/63/63
f 55/55/55 63/63/63 64/64/64
f 64/64/64 65/65/65 57/57/57
f 57/57/57 65/65/65 66/66/66
f 58/58/58 66/66/66 67/67/67
f 59/59/59 67/67/67 68/68/68
f 6/6/6 7/7/7 53/53/53
f 45/45/45 53/53/53 54/54/54
f 54/54/54 55/55/55 47/47/47
f 55/55/55 56/56/56 48/48/48
f 56/56/56 57/57/57 49/49/49
f 49/49/49 57/57/57 58/58/58
f 58/58/58 59/59/59 51/51/51
f 59/59/59 60/60/60 52/52/52
f 6/6/6 45/45/45 37/37/37
f 45/45/45 46/46/46 38/38/38
f 46/46/46 47/47/47 39/39/39
f 39/39/39 47/47/47 48/48/48
f 40/40/40 48/48/48 49/49/49
f 41/41/41 49/49/49 50/50/50
f 50/50/50 51/51/51 43/43/43
f 51/51/51 52/52/52 44/44/44
f 5/5/5 37/37/37 28/28/28
f 28/28/28 37/37/37 38/38/38
f 27/27/27 38/38/38 39/39/39
f 26/26/26 39/39/39 40/40/40
f 40/40/40 41/41/41 24/24/24
f 41/41/41 42/42/42 23/23/23
f 23/23/23 42/42/42 43/43/43
f 43/43/43 44/44/44 21/21/21
f 2/2/2 29/29/29 93/93/93
f 93/93/93 29/29/29 30/30/30
f 30/30/30 31/31/31 95/95/95
f 31/31/31 32/32/32 96/96/96
f 32/32/32 33/33/33 97/97/97
f 33/33/33 34/34/34 98/98/98
f 98/98/98 34/34/34 35/35/35
f 99/99/99 35/35/35 36/36/36
