o GNATVCloth
v -4.96986 -5.01264 0.242916
v 5.19771 -5.01374 0.241106
v -5.01298 5.02105 0.004229
v 4.98702 5.02105 0.004229
v -3.85106 -5.0605 0.191148
v -2.72467 -5.11119 0.163687
v -1.59228 -5.14493 0.158913
v -0.455627 -5.16997 0.135633
v 0.68385 -5.1759 0.123354
v 1.81965 -5.16267 0.119245
v 2.95101 -5.13064 0.156579
v 4.07738 -5.06621 0.208259
v 3.85005 4.928 0.0994386
v 2.72149 4.84501 0.158414
v 1.60473 4.73694 0.201162
v 0.655675 4.6819 0.163599
v -0.466041 4.73566 0.138047
v -1.58404 4.80638 0.178531
v -2.716 4.88972 0.147009
v -3.85606 4.94715 0.0588991
v -4.9702 3.90456 0.0476691
v -4.95389 2.78734 0.0835857
v -4.94348 1.6705 0.114132
v -4.93629 0.554559 0.15892
v -4.92854 -0.561177 0.185095
v -4.92508 -1.67627 0.196283
v -4.93175 -2.79001 0.198911
v -4.9434 -3.90254 0.188307
v 5.16312 -3.90134 0.196614
v 5.14583 -2.78987 0.159504
v 5.12858 -1.67629 0.177746
v 5.11239 -0.561327 0.168875
v 5.0944 0.554255 0.147926
v 5.06727 1.67051 0.114239
v 5.04 2.78716 0.0789445
v 5.01013 3.90393 0.0407774
v -3.76453 -3.91073 0.150168
v -3.72484 -3.26184 0.136361
v -3.58116 -1.97539 0.103796
v -4.04614 -0.30769 0.115418
v -4.07937 0.710201 0.118913
v -4.08036 1.49538 0.114115
v -4.03146 2.78796 0.0845551
v -3.8924 3.87228 0.0499646
v -2.62907 -4.08546 0.130816
v -2.70502 -2.81441 0.123406
v -2.58629 -2.22671 0.107935
v -2.67159 -0.67981 0.140087
v -2.71602 0.451353 0.129742
v -2.65836 1.50053 0.118303
v -2.79756 2.84722 0.104473
v -2.69792 3.5409 0.129123
v -1.56031 -4.32772 0.11353
v -1.39967 -3.01347 0.102349
v -1.79864 -1.71767 0.160282
v -1.78953 -0.920747 0.156641
v -1.44841 0.572615 0.111554
v -1.91937 1.63683 0.115071
v -1.65163 2.6806 0.124332
v -1.4932 3.68012 0.126349
v -0.124498 -4.42833 0.109074
v -0.481876 -2.98611 0.103965
v -0.448633 -1.84681 0.129905
v -0.75082 -0.863693 0.115972
v -0.522636 0.352102 0.118981
v -0.294529 1.38457 0.126074
v -0.491461 2.58549 0.122693
v -0.677443 3.45439 0.129349
v 0.854007 -4.00996 0.115569
v 0.923253 -2.71625 0.13081
v 0.629366 -1.92636 0.131963
v 0.704794 -0.591551 0.0946354
v 0.672349 0.315367 0.125999
v 0.378312 1.42882 0.134953
v 0.599431 2.40568 0.12988
v 0.62485 3.63197 0.116901
v 2.07931 -3.75937 0.140814
v 1.79358 -2.95296 0.11811
v 1.93681 -2.02451 0.117642
v 2.08485 -0.492538 0.14162
v 2.06397 0.188291 0.108066
v 1.90254 1.45024 0.0868146
v 1.46702 2.71643 0.144605
v 1.50558 3.51958 0.114416
v 2.93063 -4.01168 0.124812
v 3.23088 -2.92154 0.156352
v 3.07663 -2.04643 0.0927411
v 2.82956 -0.58933 0.136178
v 3.06685 0.210953 0.142763
v 3.15067 1.51176 0.0989007
v 2.8283 3.06998 0.112877
v 2.77534 3.42625 0.158077
v 4.06521 -4.02714 0.100513
v 3.79636 -2.78174 0.159166
v 4.00121 -1.73444 0.150559
v 3.93037 -0.779864 0.110456
v 3.98119 0.234125 0.122893
v 4.25223 1.76303 0.112057
v 4.19196 2.72759 0.0955477
v 4.05529 3.85028 0.0734199
vt 0.0001 0.0001
vt 0.9999 0.0001
vt 0.0001 0.9999
vt 0.9999 0.9999
vt 0.111189 0.0001
vt 0.222278 0.0001
vt 0.333367 0.0001
vt 0.444455 0.0001
vt 0.555544 0.0001
vt 0.666633 0.0001
vt 0.777722 0.0001
vt 0.888811 0.0001
vt 0.888811 0.9999
vt 0.777722 0.9999
vt 0.666633 0.9999
vt 0.555544 0.9999
vt 0.444455 0.9999
vt 0.333367 0.9999
vt 0.222278 0.9999
vt 0.111189 0.9999
vt 0.0001 0.888811
vt 0.0001 0.777722
vt 0.0001 0.666633
vt 0.0001 0.555544
vt 0.0001 0.444456
vt 0.0001 0.333367
vt 0.0001 0.222278
vt 0.0001 0.111189
vt 0.9999 0.111189
vt 0.9999 0.222278
vt 0.9999 0.333367
vt 0.9999 0.444456
vt 0.9999 0.555544
vt 0.9999 0.666633
vt 0.9999 0.777722
vt 0.9999 0.888811
vt 0.11727 0.115399
vt 0.120778 0.180369
vt 0.134636 0.309595
vt 0.088728 0.473895
vt 0.085886 0.575352
vt 0.086211 0.65375
vt 0.092207 0.78313
vt 0.106956 0.892282
vt 0.22987 0.102869
vt 0.221803 0.229552
vt 0.233521 0.288953
vt 0.225541 0.443179
vt 0.221596 0.556167
vt 0.227801 0.661237
vt 0.214896 0.795203
vt 0.22542 0.865181
vt 0.335524 0.082127
vt 0.351143 0.213907
vt 0.311934 0.342467
vt 0.313159 0.422214
vt 0.347791 0.572605
vt 0.301482 0.677733
vt 0.329031 0.783086
vt 0.344903 0.885466
vt 0.476837 0.074882
vt 0.441952 0.218774
vt 0.445749 0.333088
vt 0.416414 0.43099
vt 0.439746 0.552976
vt 0.463203 0.656843
vt 0.444252 0.77653
vt 0.426137 0.866051
vt 0.573419 0.117409
vt 0.581125 0.246686
vt 0.552512 0.326
vt 0.561075 0.459693
vt 0.558356 0.550596
vt 0.530299 0.662189
vt 0.553275 0.760113
vt 0.555478 0.888821
vt 0.694433 0.13996
vt 0.667048 0.221666
vt 0.681985 0.314267
vt 0.698218 0.467249
vt 0.696819 0.535952
vt 0.68253 0.662758
vt 0.642062 0.791726
vt 0.648523 0.877957
vt 0.778029 0.111667
vt 0.809426 0.219523
vt 0.794923 0.307783
vt 0.772028 0.454562
vt 0.796846 0.533374
vt 0.807262 0.663157
vt 0.778581 0.821037
vt 0.775122 0.858219
vt 0.890224 0.104741
vt 0.865679 0.23076
vt 0.887326 0.334104
vt 0.881307 0.429754
vt 0.887973 0.53063
vt 0.918106 0.681428
vt 0.915043 0.778027
vt 0.904815 0.89094
vn 0.0482144 0.0479294 0.997686
vn -0.0627075 0.069892 0.995582
vn -0.0243091 0.0160833 0.999575
vn 0.0582192 0.0126614 0.998224
vn 0.0355474 0.0382513 0.998636
vn 0.0190798 0.0371969 0.999126
vn 0.0137517 0.054908 0.998397
vn 0.0126741 0.0396255 0.999134
vn 0.00145136 0.0150764 0.999885
vn -0.0087157 0.00100867 0.999961
vn -0.0211559 0.0530341 0.998369
vn -0.0426984 0.102553 0.993811
vn 0.0686603 -0.0110082 0.997579
vn 0.0323764 -0.022017 0.999233
vn 0.00492892 -0.0714754 0.99743
vn -0.0210682 -0.0520734 0.998421
vn 0.00349301 -0.0254423 0.99967
vn 0.00100474 -0.0462016 0.998932
vn -0.0437623 -0.0204716 0.998832
vn -0.06249 -0.00618279 0.998026
vn -0.00106873 0.0343307 0.99941
vn -0.00107038 0.0297231 0.999558
vn 0.011028 0.0241186 0.999648
vn 0.0527269 0.0207789 0.998393
vn 0.0738339 0.0170658 0.997125
vn 0.0721361 0.00839066 0.99736
vn 0.0586593 0.00353118 0.998272
vn 0.0402786 0.0225904 0.998933
vn -0.0910559 0.0343917 0.995252
vn -0.0287196 -0.00596024 0.99957
vn -0.033374 0.0101694 0.999391
vn -0.0419964 0.0052211 0.999104
vn -0.0176104 0.0200583 0.999644
vn 0.000831379 0.0308987 0.999522
vn 0.0121123 0.0281603 0.99953
vn 0.027413 0.0305505 0.999157
vn 0.0265314 0.0272282 0.999277
vn 0.0285114 0.0132543 0.999506
vn 0.0246926 0.00719333 0.999669
vn 0.0315213 0.0053045 0.999489
vn 0.0116877 0.00969577 0.999885
vn -2.82768e-05 0.0144715 0.999895
vn -0.00514835 0.0256957 0.999656
vn -0.0411606 0.00765715 0.999123
vn 0.0182307 0.016594 0.999696
vn 0.0101293 0.0173208 0.999799
vn -0.0140165 -0.0101919 0.99985
vn -0.0219453 -0.00600545 0.999741
vn -0.00262482 0.00939067 0.999952
vn -0.00392293 0.0116926 0.999924
vn -0.0241538 -0.00138793 0.999707
vn -0.031746 -0.017429 0.999344
vn 0.0106997 0.0275147 0.999564
vn 0.00553212 -0.0102253 0.999932
vn -0.00294114 -0.0143635 0.999893
vn 0.0109311 0.0132824 0.999852
vn 0.00641348 0.0065657 0.999958
vn -0.00181589 0.000840577 0.999998
vn -0.00666271 -0.0094924 0.999933
vn -0.000158548 -0.0192198 0.999815
vn 0.000457261 0.0157082 0.999876
vn -0.00646152 -0.00705694 0.999954
vn 0.00836516 -0.00282776 0.999961
vn 0.0200334 0.0097772 0.999752
vn -0.00463207 -0.00994738 0.99994
vn -0.00941061 -0.000631306 0.999956
vn -0.000975178 -0.00129535 0.999999
vn 0.00249061 -0.00575772 0.99998
vn -0.00892254 2.94782e-05 0.99996
vn 0.00038642 -0.00604628 0.999982
vn 0.000630854 0.00544159 0.999985
vn -0.00344934 0.00425132 0.999985
vn 0.00856205 -0.0119421 0.999892
vn 0.0060646 -0.00140955 0.999981
vn -0.00245661 -0.00266119 0.999993
vn -0.00354906 -0.00616833 0.999975
vn -0.00935593 -0.00467845 0.999945
vn -0.00540868 0.0147837 0.999876
vn 0.0076412 -0.00420024 0.999962
vn -0.0129105 0.0172859 0.999767
vn -0.0114028 0.0193938 0.999747
vn 0.0128396 -0.00837576 0.999883
vn 0.0064142 0.000966443 0.999979
vn -0.00715263 -0.0353291 0.99935
vn 0.006386 -0.00551071 0.999964
vn -0.00671681 0.00715818 0.999952
vn -0.0189404 0.0198443 0.999624
vn 0.00755014 -0.00528229 0.999958
vn -0.00123401 0.0085181 0.999963
vn -0.00754288 0.0131442 0.999885
vn 0.0177892 -0.0337534 0.999272
vn 0.0223216 -0.0606662 0.997908
vn -0.0274456 0.0219492 0.999382
vn -0.0172392 0.0011794 0.999851
vn -0.0388062 0.017954 0.999085
vn -0.0196319 0.00275972 0.999803
vn -0.0120531 0.00811828 0.999894
vn -0.00593915 0.0195763 0.999791
vn 0.0136464 0.0179896 0.999745
vn 0.0554779 -0.00730988 0.998433
f 100/100/100 4/4/4 13/13/13
f 44/44/44 3/3/3 21/21/21
f 44/44/44 19/19/19 20/20/20
f 60/60/60 19/19/19 52/52/52
f 60/60/60 17/17/17 18/18/18
f 76/76/76 17/17/17 68/68/68
f 84/84/84 16/16/16 76/76/76
f 84/84/84 14/14/14 15/15/15
f 100/100/100 14/14/14 92/92/92
f 11/11/11 93/93/93 85/85/85
f 93/93/93 86/86/86 85/85/85
f 94/94/94 87/87/87 86/86/86
f 87/87/87 96/96/96 88/88/88
f 96/96/96 89/89/89 88/88/88
f 97/97/97 90/90/90 89/89/89
f 90/90/90 99/99/99 91/91/91
f 91/91/91 100/100/100 92/92/92
f 10/10/10 85/85/85 77/77/77
f 77/77/77 86/86/86 78/78/78
f 78/78/78 87/87/87 79/79/79
f 79/79/79 88/88/88 80/80/80
f 88/88/88 81/81/81 80/80/80
f 81/81/81 90/90/90 82/82/82
f 82/82/82 91/91/91 83/83/83
f 91/91/91 84/84/84 83/83/83
f 10/10/10 69/69/69 9/9/9
f 69/69/69 78/78/78 70/70/70
f 70/70/70 79/79/79 71/71/71
f 79/79/79 72/72/72 71/71/71
f 72/72/72 81/81/81 73/73/73
f 73/73/73 82/82/82 74/74/74
f 82/82/82 75/75/75 74/74/74
f 83/83/83 76/76/76 75/75/75
f 9/9/9 61/61/61 8/8/8
f 69/69/69 62/62/62 61/61/61
f 62/62/62 71/71/71 63/63/63
f 63/63/63 72/72/72 64/64/64
f 72/72/72 65/65/65 64/64/64
f 65/65/65 74/74/74 66/66/66
f 66/66/66 75/75/75 67/67/67
f 67/67/67 76/76/76 68/68/68
f 8/8/8 53/53/53 7/7/7
f 53/53/53 62/62/62 54/54/54
f 54/54/54 63/63/63 55/55/55
f 55/55/55 64/64/64 56/56/56
f 64/64/64 57/57/57 56/56/56
f 57/57/57 66/66/66 58/58/58
f 58/58/58 67/67/67 59/59/59
f 59/59/59 68/68/68 60/60/60
f 6/6/6 53/53/53 45/45/45
f 45/45/45 54/54/54 46/46/46
f 54/54/54 47/47/47 46/46/46
f 55/55/55 48/48/48 47/47/47
f 56/56/56 49/49/49 48/48/48
f 49/49/49 58/58/58 50/50/50
f 58/58/58 51/51/51 50/50/50
f 59/59/59 52/52/52 51/51/51
f 6/6/6 37/37/37 5/5/5
f 45/45/45 38/38/38 37/37/37
f 46/46/46 39/39/39 38/38/38
f 39/39/39 48/48/48 40/40/40
f 40/40/40 49/49/49 41/41/41
f 41/41/41 50/50/50 42/42/42
f 50/50/50 43/43/43 42/42/42
f 51/51/51 44/44/44 43/43/43
f 5/5/5 28/28/28 1/1/1
f 28/28/28 38/38/38 27/27/27
f 27/27/27 39/39/39 26/26/26
f 26/26/26 40/40/40 25/25/25
f 40/40/40 24/24/24 25/25/25
f 41/41/41 23/23/23 24/24/24
f 23/23/23 43/43/43 22/22/22
f 43/43/43 21/21/21 22/22/22
f 2/2/2 93/93/93 12/12/12
f 93/93/93 30/30/30 94/94/94
f 30/30/30 95/95/95 94/94/94
f 31/31/31 96/96/96 95/95/95
f 32/32/32 97/97/97 96/96/96
f 33/33/33 98/98/98 97/97/97
f 98/98/98 35/35/35 99/99/99
f 99/99/99 36/36/36 100/100/100
f 100/100/100 36/36/36 4/4/4
f 44/44/44 20/20/20 3/3/3
f 44/44/44 52/52/52 19/19/19
f 60/60/60 18/18/18 19/19/19
f 60/60/60 68/68/68 17/17/17
f 76/76/76 16/16/16 17/17/17
f 84/84/84 15/15/15 16/16/16
f 84/84/84 92/92/92 14/14/14
f 100/100/100 13/13/13 14/14/14
f 11/11/11 12/12/12 93/93/93
f 93/93/93 94/94/94 86/86/86
f 94/94/94 95/95/95 87/87/87
f 87/87/87 95/95/95 96/96/96
f 96/96/96 97/97/97 89/89/89
f 97/97/97 98/98/98 90/90/90
f 90/90/90 98/98/98 99/99/99
f 91/91/91 99/99/99 100/100/100
f 10/10/10 11/11/11 85/85/85
f 77/77/77 85/85/85 86/86/86
f 78/78/78 86/86/86 87/87/87
f 79/79/79 87/87/87 88/88/88
f 88/88/88 89/89/89 81/81/81
f 81/81/81 89/89/89 90/90/90
f 82/82/82 90/90/90 91/91/91
f 91/91/91 92/92/92 84/84/84
f 10/10/10 77/77/77 69/69/69
f 69/69/69 77/77/77 78/78/78
f 70/70/70 78/78/78 79/79/79
f 79/79/79 80/80/80 72/72/72
f 72/72/72 80/80/80 81/81/81
f 73/73/73 81/81/81 82/82/82
f 82/82/82 83/83/83 75/75/75
f 83/83/83 84/84/84 76/76/76
f 9/9/9 69/69/69 61/61/61
f 69/69/69 70/70/70 62/62/62
f 62/62/62 70/70/70 71/71/71
f 63/63/63 71/71/71 72/72/72
f 72/72/72 73/73/73 65/65/65
f 65/65/65 73/73/73 74/74/74
f 66/66/66 74/74/74 75/75/75
f 67/67/67 75/75/75 76/76/76
f 8/8/8 61/61/61 53/53/53
f 53/53/53 61/61/61 62/62/62
f 54/54/54 62/62/62 63/63/63
f 55/55/55 63/63/63 64/64/64
f 64/64/64 65/65/65 57/57/57
f 57/57/57 65/65/65 66/66/66
f 58/58/58 66/66/66 67/67/67
f 59/59/59 67/67/67 68/68/68
f 6/6/6 7/7/7 53/53/53
f 45/45/45 53/53/53 54/54/54
f 54/54/54 55/55/55 47/47/47
f 55/55/55 56/56/56 48/48/48
f 56/56/56 57/57/57 49/49/49
f 49/49/49 57/57/57 58/58/58
f 58/58/58 59/59/59 51/51/51
f 59/59/59 60/60/60 52/52/52
f 6/6/6 45/45/45 37/37/37
f 45/45/45 46/46/46 38/38/38
f 46/46/46 47/47/47 39/39/39
f 39/39/39 47/47/47 48/48/48
f 40/40/40 48/48/48 49/49/49
f 41/41/41 49/49/49 50/50/50
f 50/50/50 51/51/51 43/43/43
f 51/51/51 52/52/52 44/44/44
f 5/5/5 37/37/37 28/28/28
f 28/28/28 37/37/37 38/38/38
f 27/27/27 38/38/38 39/39/39
f 26/26/26 39/39/39 40/40/40
f 40/40/40 41/41/41 24/24/24
f 41/41/41 42/42/42 23/23/23
f 23/23/23 42/42/42 43/43/43
f 43/43/43 44/44/44 21/21/21
f 2/2/2 29/29/29 93/93/93
f 93/93/93 29/29/29 30/30/30
f 30/30/30 31/31/31 95/95/95
f 31/31/31 32/32/32 96/96/96
f 32/32/32 33/33/33 97/97/97
f 33/33/33 34/34/34 98/98/98
f 98/98/98 34/34/34 35/35/35
f 99/99/99 35/35/35 36/36/36
