o GNATVCloth
v -4.89889 -4.99508 0.329192
v 5.16793 -4.99167 0.35733
v -5.01298 5.02105 0.004229
v 4.98702 5.02105 0.004229
v -3.78866 -5.01517 0.278648
v -2.67307 -5.03084 0.263983
v -1.55378 -5.04801 0.198989
v -0.430657 -5.05961 0.183552
v 0.692746 -5.06306 0.219394
v 1.81509 -5.06336 0.207764
v 2.93677 -5.04957 0.198187
v 4.05534 -5.01842 0.259614
v 3.8639 4.94696 0.0576575
v 2.75868 4.8674 0.212035
v 1.64736 4.7828 0.294199
v 0.63029 4.74715 0.254488
v -0.490649 4.80735 0.236939
v -1.60811 4.87948 0.166173
v -2.73713 4.94216 0.139056
v -3.87053 4.9776 0.087773
v -4.97914 3.90556 0.0374161
v -4.9622 2.79009 0.0673874
v -4.95071 1.67529 0.101539
v -4.94061 0.560871 0.139179
v -4.92866 -0.552341 0.190729
v -4.91466 -1.66363 0.256608
v -4.90008 -2.77464 0.307689
v -4.89529 -3.88715 0.318183
v 5.14922 -3.88302 0.270575
v 5.13095 -2.76962 0.263341
v 5.11262 -1.65806 0.23737
v 5.10002 -0.547576 0.175957
v 5.08598 0.56397 0.122319
v 5.06751 1.67736 0.0824457
v 5.04364 2.79163 0.0515218
v 5.01594 3.90631 0.0284055
v -3.7245 -3.86582 0.233851
v -3.69087 -3.21647 0.230406
v -3.56805 -1.93005 0.162432
v -4.04517 -0.274445 0.159283
v -4.08375 0.74348 0.151189
v -4.08767 1.52764 0.124202
v -4.04013 2.82 0.0822285
v -3.90316 3.90611 0.00548743
v -2.59445 -4.01194 0.19306
v -2.68341 -2.7414 0.159818
v -2.57194 -2.15079 0.123201
v -2.67079 -0.609592 0.232052
v -2.72277 0.521202 0.22353
v -2.67102 1.57097 0.175219
v -2.80856 2.91038 0.044562
v -2.72437 3.59585 0.187972
v -1.53018 -4.23358 0.199019
v -1.38249 -2.92034 0.184441
v -1.79436 -1.6314 0.248716
v -1.78922 -0.834641 0.228541
v -1.45614 0.660095 0.151863
v -1.9348 1.7157 0.147023
v -1.67612 2.76297 0.214225
v -1.52128 3.7646 0.200553
v -0.105935 -4.31556 0.171346
v -0.469095 -2.87924 0.178533
v -0.446563 -1.73599 0.212527
v -0.754376 -0.759679 0.178536
v -0.532328 0.460291 0.174439
v -0.306837 1.49853 0.199747
v -0.51545 2.69419 0.210799
v -0.704164 3.55265 0.193986
v 0.863045 -3.89006 0.200173
v 0.926502 -2.60054 0.17361
v 0.627179 -1.80706 0.184136
v 0.694073 -0.470111 0.167719
v 0.659157 0.434292 0.190169
v 0.365582 1.54913 0.200573
v 0.584194 2.52669 0.198916
v 0.59886 3.73659 0.18432
v 2.07956 -3.663 0.194769
v 1.79357 -2.85243 0.171795
v 1.93146 -1.92732 0.202518
v 2.07219 -0.398501 0.188887
v 2.05086 0.288459 0.165853
v 1.89516 1.54818 0.133699
v 1.47602 2.83535 0.230694
v 1.53049 3.61715 0.18082
v 2.92462 -3.93213 0.184641
v 3.22189 -2.85023 0.243649
v 3.06656 -1.97432 0.140434
v 2.81515 -0.513293 0.237667
v 3.05531 0.278253 0.216757
v 3.14684 1.57214 0.149352
v 2.84192 3.13828 0.162677
v 2.79811 3.47998 0.224606
v 4.05439 -3.97647 0.189252
v 3.78421 -2.72616 0.25915
v 3.98461 -1.68615 0.234128
v 3.91361 -0.735001 0.175173
v 3.96957 0.274992 0.171797
v 4.24945 1.79029 0.134999
v 4.20107 2.75471 0.0944719
v 4.07133 3.87664 0.0530364
vt 0.0001 0.0001
vt 0.9999 0.0001
vt 0.0001 0.9999
vt 0.9999 0.9999
vt 0.111189 0.0001
vt 0.222278 0.0001
vt 0.333367 0.0001
vt 0.444455 0.0001
vt 0.555544 0.0001
vt 0.666633 0.0001
vt 0.777722 0.0001
vt 0.888811 0.0001
vt 0.888811 0.9999
vt 0.777722 0.9999
vt 0.666633 0.9999
vt 0.555544 0.9999
vt 0.444455 0.9999
vt 0.333367 0.9999
vt 0.222278 0.9999
vt 0.111189 0.9999
vt 0.0001 0.888811
vt 0.0001 0.777722
vt 0.0001 0.666633
vt 0.0001 0.555544
vt 0.0001 0.444456
vt 0.0001 0.333367
vt 0.0001 0.222278
vt 0.0001 0.111189
vt 0.9999 0.111189
vt 0.9999 0.222278
vt 0.9999 0.333367
vt 0.9999 0.444456
vt 0.9999 0.555544
vt 0.9999 0.666633
vt 0.9999 0.777722
vt 0.9999 0.888811
vt 0.11727 0.115399
vt 0.120778 0.180369
vt 0.134636 0.309595
vt 0.088728 0.473895
vt 0.085886 0.575352
vt 0.086211 0.65375
vt 0.092207 0.78313
vt 0.106956 0.892282
vt 0.22987 0.102869
vt 0.221803 0.229552
vt 0.233521 0.288953
vt 0.225541 0.443179
vt 0.221596 0.556167
vt 0.227801 0.661237
vt 0.214896 0.795203
vt 0.22542 0.865181
vt 0.335524 0.082127
vt 0.351143 0.213907
vt 0.311934 0.342467
vt 0.313159 0.422214
vt 0.347791 0.572605
vt 0.301482 0.677733
vt 0.329031 0.783086
vt 0.344903 0.885466
vt 0.476837 0.074882
vt 0.441952 0.218774
vt 0.445749 0.333088
vt 0.416414 0.43099
vt 0.439746 0.552976
vt 0.463203 0.656843
vt 0.444252 0.77653
vt 0.426137 0.866051
vt 0.573419 0.117409
vt 0.581125 0.246686
vt 0.552512 0.326
vt 0.561075 0.459693
vt 0.558356 0.550596
vt 0.530299 0.662189
vt 0.553275 0.760113
vt 0.555478 0.888821
vt 0.694433 0.13996
vt 0.667048 0.221666
vt 0.681985 0.314267
vt 0.698218 0.467249
vt 0.696819 0.535952
vt 0.68253 0.662758
vt 0.642062 0.791726
vt 0.648523 0.877957
vt 0.778029 0.111667
vt 0.809426 0.219523
vt 0.794923 0.307783
vt 0.772028 0.454562
vt 0.796846 0.533374
vt 0.807262 0.663157
vt 0.778581 0.821037
vt 0.775122 0.858219
vt 0.890224 0.104741
vt 0.865679 0.23076
vt 0.887326 0.334104
vt 0.881307 0.429754
vt 0.887973 0.53063
vt 0.918106 0.681428
vt 0.915043 0.778027
vt 0.904815 0.89094
vn 0.0456533 0.00977782 0.99891
vn -0.0846196 0.0717225 0.993829
vn -0.0230147 -0.021781 0.999498
vn 0.0362825 0.0135854 0.999249
vn 0.0435128 0.027623 0.998671
vn 0.0312341 0.0428225 0.998594
vn 0.0358498 -0.00107502 0.999357
vn 0.000609612 0.0125228 0.999921
vn -0.0202844 0.0224159 0.999543
vn 0.00891321 0.0106144 0.999904
vn -0.017278 0.0305264 0.999385
vn -0.0727434 0.0671317 0.995089
vn 0.0920629 0.0135432 0.995661
vn 0.0787865 -0.015448 0.996772
vn 0.0228692 -0.099056 0.994819
vn -0.0200021 -0.0770043 0.99683
vn -0.0172861 -0.028302 0.99945
vn -0.0419567 0.0275311 0.99874
vn -0.0574711 0.00620293 0.998328
vn -0.0614802 -0.0745642 0.995319
vn 0.0140863 0.0413371 0.999046
vn -0.0170116 0.0285191 0.999448
vn -0.01979 0.0328733 0.999264
vn -0.00527174 0.0291383 0.999561
vn 0.0188891 0.0529276 0.99842
vn 0.0567251 0.0431945 0.997455
vn 0.0754404 0.0338357 0.996576
vn 0.0639948 0.0139845 0.997852
vn -0.0774815 0.040861 0.996156
vn -0.0213307 -0.000957159 0.999772
vn -0.0057408 0.0466558 0.998895
vn 0.00703859 0.0357126 0.999337
vn 0.0469125 0.0341123 0.998316
vn 0.0686085 0.0329924 0.997098
vn 0.055652 0.031825 0.997943
vn 0.0333682 0.0280164 0.99905
vn 0.0475607 0.0288144 0.998453
vn 0.0597923 0.0229877 0.997946
vn 0.0427937 0.0189386 0.998904
vn -0.00909042 0.0190691 0.999777
vn -0.0319076 0.0272561 0.999119
vn -0.028737 0.0338715 0.999013
vn -0.00190446 0.0510966 0.998692
vn -0.0544305 -0.0183637 0.998349
vn 0.0211549 0.0341346 0.999193
vn 0.0256572 0.0438899 0.998707
vn -0.0298204 -0.0226385 0.999299
vn -0.0294106 -0.0203707 0.99936
vn -0.00114181 0.0257306 0.999668
vn -0.00799337 0.0598905 0.998173
vn -0.0757521 -0.0202451 0.996921
vn -0.108321 -0.0551215 0.992587
vn 0.0175069 0.0137402 0.999752
vn -0.0137506 -0.00633711 0.999885
vn -0.0171495 -0.0179896 0.999691
vn 0.0320522 0.0277544 0.999101
vn 0.0109664 0.0146841 0.999832
vn -0.0170532 0.00808421 0.999822
vn -0.0533649 -0.0374968 0.997871
vn -0.0169654 0.0141179 0.999756
vn -0.0113453 0.00974819 0.999888
vn 0.00543181 -0.00735608 0.999958
vn 0.0189534 -0.00203323 0.999818
vn 0.0177861 0.0258341 0.999508
vn -0.0117901 -0.0118927 0.99986
vn -0.0146142 -0.0123759 0.999817
vn -0.000714194 -0.00561137 0.999984
vn 0.00631089 -0.00348595 0.999974
vn -0.00635303 0.0147644 0.999871
vn -0.00199767 -0.00432728 0.999989
vn 0.00571269 -0.00734199 0.999957
vn -0.00125044 0.00683148 0.999976
vn 0.0103594 -0.00645295 0.999925
vn 0.0146267 -0.00825776 0.999859
vn 0.00267978 -0.0111906 0.999934
vn -0.0032719 -0.0094756 0.99995
vn -0.00782394 0.000177436 0.999969
vn -0.00794226 0.0156632 0.999846
vn -0.00144614 -0.0159794 0.999871
vn -0.0392194 0.0224175 0.998979
vn -0.0222224 0.0270645 0.999387
vn 0.0194147 -0.0139763 0.999714
vn 0.0122767 0.000725703 0.999924
vn 0.000134301 -0.045869 0.998947
vn 0.00155673 -0.0150014 0.999886
vn -0.0296114 0.0103271 0.999508
vn -0.0265383 0.0226598 0.999391
vn -0.00307905 -0.00326478 0.99999
vn 0.0113691 0.0310022 0.999455
vn 0.00538631 0.0261984 0.999642
vn 0.0464889 -0.0427444 0.998004
vn 0.0557226 -0.0800477 0.995232
vn -0.0412801 0.00744128 0.99912
vn -0.0378537 0.0125923 0.999204
vn -0.0488154 0.0417074 0.997937
vn 0.00284178 0.017658 0.99984
vn 0.0295526 0.0234558 0.999288
vn 0.0398844 0.0320424 0.99869
vn 0.040224 0.0322919 0.998669
vn 0.0867352 -0.00105618 0.996231
f 100/100/100 4/4/4 13/13/13
f 44/44/44 3/3/3 21/21/21
f 44/44/44 19/19/19 20/20/20
f 60/60/60 19/19/19 52/52/52
f 60/60/60 17/17/17 18/18/18
f 76/76/76 17/17/17 68/68/68
f 84/84/84 16/16/16 76/76/76
f 84/84/84 14/14/14 15/15/15
f 100/100/100 14/14/14 92/92/92
f 11/11/11 93/93/93 85/85/85
f 93/93/93 86/86/86 85/85/85
f 94/94/94 87/87/87 86/86/86
f 87/87/87 96/96/96 88/88/88
f 96/96/96 89/89/89 88/88/88
f 97/97/97 90/90/90 89/89/89
f 90/90/90 99/99/99 91/91/91
f 91/91/91 100/100/100 92/92/92
f 10/10/10 85/85/85 77/77/77
f 77/77/77 86/86/86 78/78/78
f 78/78/78 87/87/87 79/79/79
f 79/79/79 88/88/88 80/80/80
f 88/88/88 81/81/81 80/80/80
f 81/81/81 90/90/90 82/82/82
f 82/82/82 91/91/91 83/83/83
f 91/91/91 84/84/84 83/83/83
f 10/10/10 69/69/69 9/9/9
f 69/69/69 78/78/78 70/70/70
f 70/70/70 79/79/79 71/71/71
f 79/79/79 72/72/72 71/71/71
f 72/72/72 81/81/81 73/73/73
f 73/73/73 82/82/82 74/74/74
f 82/82/82 75/75/75 74/74/74
f 83/83/83 76/76/76 75/75/75
f 9/9/9 61/61/61 8/8/8
f 69/69/69 62/62/62 61/61/61
f 62/62/62 71/71/71 63/63/63
f 63/63/63 72/72/72 64/64/64
f 72/72/72 65/65/65 64/64/64
f 65/65/65 74/74/74 66/66/66
f 66/66/66 75/75/75 67/67/67
f 67/67/67 76/76/76 68/68/68
f 8/8/8 53/53/53 7/7/7
f 53/53/53 62/62/62 54/54/54
f 54/54/54 63/63/63 55/55/55
f 55/55/55 64/64/64 56/56/56
f 64/64/64 57/57/57 56/56/56
f 57/57/57 66/66/66 58/58/58
f 58/58/58 67/67/67 59/59/59
f 59/59/59 68/68/68 60/60/60
f 6/6/6 53/53/53 45/45/45
f 45/45/45 54/54/54 46/46/46
f 54/54/54 47/47/47 46/46/46
f 55/55/55 48/48/48 47/47/47
f 56/56/56 49/49/49 48/48/48
f 49/49/49 58/58/58 50/50/50
f 58/58/58 51/51/51 50/50/50
f 59/59/59 52/52/52 51/51/51
f 6/6/6 37/37/37 5/5/5
f 45/45/45 38/38/38 37/37/37
f 46/46/46 39/39/39 38/38/38
f 39/39/39 48/48/48 40/40/40
f 40/40/40 49/49/49 41/41/41
f 41/41/41 50/50/50 42/42/42
f 50/50/50 43/43/43 42/42/42
f 51/51/51 44/44/44 43/43/43
f 5/5/5 28/28/28 1/1/1
f 28/28/28 38/38/38 27/27/27
f 27/27/27 39/39/39 26/26/26
f 26/26/26 40/40/40 25/25/25
f 40/40/40 24/24/24 25/25/25
f 41/41/41 23/23/23 24/24/24
f 23/23/23 43/43/43 22/22/22
f 43/43/43 21/21/21 22/22/22
f 2/2/2 93/93/93 12/12/12
f 93/93/93 30/30/30 94/94/94
f 30/30/30 95/95/95 94/94/94
f 31/31/31 96/96/96 95/95/95
f 32/32/32 97/97/97 96/96/96
f 33/33/33 98/98/98 97/97/97
f 98/98/98 35/35/35 99/99/99
f 99/99/99 36/36/36 100/100/100
f 100/100/100 36/36/36 4/4/4
f 44/44/44 20/20/20 3/3/3
f 44/44/44 52/52/52 19/19/19
f 60/60/60 18/18/18 19/19/19
f 60/60/60 68/68/68 17/17/17
f 76/76/76 16/16/16 17/17/17
f 84/84/84 15/15/15 16/16/16
f 84/84/84 92/92/92 14/14/14
f 100/100/100 13/13/13 14/14/14
f 11/11/11 12/12/12 93/93/93
f 93/93/93 94/94/94 86/86/86
f 94/94/94 95/95/95 87/87/87
f 87/87/87 95/95/95 96/96/96
f 96/96/96 97/97/97 89/89/89
f 97/97/97 98/98/98 90/90/90
f 90/90/90 98/98/98 99/99/99
f 91/91/91 99/99/99 100/100/100
f 10/10/10 11/11/11 85/85/85
f 77/77/77 85/85/85 86/86/86
f 78/78/78 86/86/86 87/87/87
f 79/79/79 87/87/87 88/88/88
f 88/88/88 89/89/89 81/81/81
f 81/81/81 89/89/89 90/90/90
f 82/82/82 90/90/90 91/91/91
f 91/91/91 92/92/92 84/84/84
f 10/10/10 77/77/77 69/69/69
f 69/69/69 77/77/77 78/78/78
f 70/70/70 78/78/78 79/79/79
f 79/79/79 80/80/80 72/72/72
f 72/72/72 80/80/80 81/81/81
f 73/73/73 81/81/81 82/82/82
f 82/82/82 83/83/83 75/75/75
f 83/83/83 84/84/84 76/76/76
f 9/9/9 69/69/69 61/61/61
f 69/69/69 70/70/70 62/62/62
f 62/62/62 70/70/70 71/71/71
f 63/63/63 71/71/71 72/72/72
f 72/72/72 73/73/73 65/65/65
f 65/65/65 73/73/73 74/74/74
f 66/66/66 74/74/74 75/75/75
f 67/67/67 75/75/75 76/76/76
f 8/8/8 61/61/61 53/53/53
f 53/53/53 61/61/61 62/62/62
f 54/54/54 62/62/62 63/63/63
f 55/55/55 63/63/63 64/64/64
f 64/64/64 65/65/65 57/57/57
f 57/57/57 65/65/65 66/66/66
f 58/58/58 66/66/66 67/67/67
f 59/59/59 67/67/67 68/68/68
f 6/6/6 7/7/7 53/53/53
f 45/45/45 53/53/53 54/54/54
f 54/54/54 55/55/55 47/47/47
f 55/55/55 56/56/56 48/48/48
f 56/56/56 57/57/57 49/49/49
f 49/49/49 57/57/57 58/58/58
f 58/58/58 59/59/59 51/51/51
f 59/59/59 60/60/60 52/52/52
f 6/6/6 45/45/45 37/37/37
f 45/45/45 46/46/46 38/38/38
f 46/46/46 47/47/47 39/39/39
f 39/39/39 47/47/47 48/48/48
f 40/40/40 48/48/48 49/49/49
f 41/41/41 49/49/49 50/50/50
f 50/50/50 51/51/51 43/43/43
f 51/51/51 52/52/52 44/44/44
f 5/5/5 37/37/37 28/28/28
f 28/28/28 37/37/37 38/38/38
f 27/27/27 38/38/38 39/39/39
f 26/26/26 39/39/39 40/40/40
f 40/40/40 41/41/41 24/24/24
f 41/41/41 42/42/42 23/23/23
f 23/23/23 42/42/42 43/43/43
f 43/43/43 44/44/44 21/21/21
f 2/2/2 29/29/29 93/93/93
f 93/93/93 29/29/29 30/30/30
f 30/30/30 31/31/31 95/95/95
f 31/31/31 32/32/32 96/96/96
f 32/32/32 33/33/33 97/97/97
f 33/33/33 34/34/34 98/98/98
f 98/98/98 34/34/34 35/35/35
f 99/99/99 35/35/35 36/36/36
