o GNATVCloth
v -5.01295 -4.98063 0.00558097
v 4.98975 -4.98157 0.00680048
v -5.01298 5.02105 0.004229
v 4.98702 5.02105 0.004229
v -3.90015 -4.98206 0.00714357
v -2.78958 -4.9819 0.00528971
v -1.67646 -4.98109 0.0045034
v -0.568228 -4.9813 0.00568021
v 0.544354 -4.9816 0.00427253
v 1.65483 -4.98234 0.00451424
v 2.76643 -4.98193 0.00603202
v 3.87826 -4.98153 0.00827138
v 3.87895 5.01833 0.00609988
v 2.76532 5.01731 0.005774
v 1.65588 5.01815 0.00676669
v 0.54533 5.01806 0.00623026
v -0.567552 5.01771 0.00443253
v -1.67684 5.01823 0.0063898
v -2.78927 5.01751 0.00573295
v -3.89794 5.01838 0.00608955
v -5.01155 3.90858 0.00748895
v -5.01015 2.79646 0.00697012
v -5.01129 1.68515 0.00456368
v -5.01092 0.574209 0.00703896
v -5.0111 -0.536844 0.00670646
v -5.01109 -1.64915 0.00610879
v -5.01174 -2.76019 0.00547273
v -5.01193 -3.8709 0.00496372
v 4.9897 -3.87055 0.00799242
v 4.98918 -2.76019 0.004486
v 4.98972 -1.6486 0.00546896
v 4.98833 -0.537517 0.00576129
v 4.99014 0.573545 0.0062787
v 4.98879 1.68558 0.00494999
v 4.99014 2.79653 0.00465798
v 4.98824 3.90864 0.00573343
v -3.84003 -3.82905 0.00643152
v -3.80508 -3.17951 0.00543178
v -3.66585 -1.88775 0.00436833
v -4.12551 -0.244198 0.00528112
v -4.15343 0.771346 0.00467631
v -4.15159 1.55524 0.00593425
v -4.09036 2.84902 0.00524737
v -3.94308 3.94096 0.00531281
v -2.71275 -3.95478 0.00591177
v -2.7945 -2.68746 0.00535715
v -2.67731 -2.09323 0.00522476
v -2.75705 -0.551251 0.00572624
v -2.79674 0.578842 0.00550792
v -2.73473 1.62985 0.0052317
v -2.86369 2.97011 0.005449
v -2.7583 3.6699 0.00496889
v -1.65757 -4.16229 0.00509154
v -1.50067 -2.84429 0.00432576
v -1.8931 -1.55815 0.00555309
v -1.87949 -0.760594 0.00585421
v -1.53446 0.74311 0.00585056
v -1.99755 1.7948 0.00551655
v -1.72243 2.84914 0.00499013
v -1.56303 3.87275 0.00467938
v -0.244283 -4.2349 0.00518436
v -0.593572 -2.79595 0.00506637
v -0.555502 -1.65245 0.00540034
v -0.847191 -0.673155 0.00503801
v -0.614976 0.547343 0.00520073
v -0.379333 1.5862 0.00552362
v -0.570078 2.78292 0.00530994
v -0.750633 3.67866 0.00534817
v 0.72246 -3.80965 0.00465455
v 0.799709 -2.51625 0.0060903
v 0.513504 -1.72324 0.0064878
v 0.598587 -0.386356 0.0045942
v 0.57296 0.522962 0.00537772
v 0.290681 1.6396 0.00542336
v 0.520627 2.61903 0.00550614
v 0.54294 3.90635 0.00589277
v 1.9323 -3.58383 0.00505737
v 1.65883 -2.76624 0.00547331
v 1.8076 -1.84068 0.00529898
v 1.97136 -0.310124 0.00632772
v 1.95635 0.377052 0.00529667
v 1.8134 1.64436 0.00477789
v 1.40805 2.9351 0.00629606
v 1.47347 3.79782 0.00465624
v 2.77009 -3.86668 0.00543884
v 3.08242 -2.78741 0.00599725
v 2.93712 -1.90498 0.00471908
v 2.7081 -0.436846 0.00509939
v 2.95699 0.351594 0.00481325
v 3.06132 1.64857 0.00515907
v 2.77413 3.22802 0.00518741
v 2.74077 3.60041 0.00701504
v 3.89105 -3.93604 0.00478984
v 3.64587 -2.6752 0.00641664
v 3.86201 -1.64167 0.00618495
v 3.80191 -0.685065 0.00491186
v 3.86868 0.323551 0.00564682
v 4.17018 1.83212 0.00542696
v 4.1402 2.79811 0.0054411
v 4.03698 3.92754 0.00549342
vt 0.0001 0.0001
vt 0.9999 0.0001
vt 0.0001 0.9999
vt 0.9999 0.9999
vt 0.111189 0.0001
vt 0.222278 0.0001
vt 0.333367 0.0001
vt 0.444455 0.0001
vt 0.555544 0.0001
vt 0.666633 0.0001
vt 0.777722 0.0001
vt 0.888811 0.0001
vt 0.888811 0.9999
vt 0.777722 0.9999
vt 0.666633 0.9999
vt 0.555544 0.9999
vt 0.444455 0.9999
vt 0.333367 0.9999
vt 0.222278 0.9999
vt 0.111189 0.9999
vt 0.0001 0.888811
vt 0.0001 0.777722
vt 0.0001 0.666633
vt 0.0001 0.555544
vt 0.0001 0.444456
vt 0.0001 0.333367
vt 0.0001 0.222278
vt 0.0001 0.111189
vt 0.9999 0.111189
vt 0.9999 0.222278
vt 0.9999 0.333367
vt 0.9999 0.444456
vt 0.9999 0.555544
vt 0.9999 0.666633
vt 0.9999 0.777722
vt 0.9999 0.888811
vt 0.11727 0.115399
vt 0.120778 0.180369
vt 0.134636 0.309595
vt 0.088728 0.473895
vt 0.085886 0.575352
vt 0.086211 0.65375
vt 0.092207 0.78313
vt 0.106956 0.892282
vt 0.22987 0.102869
vt 0.221803 0.229552
vt 0.233521 0.288953
vt 0.225541 0.443179
vt 0.221596 0.556167
vt 0.227801 0.661237
vt 0.214896 0.795203
vt 0.22542 0.865181
vt 0.335524 0.082127
vt 0.351143 0.213907
vt 0.311934 0.342467
vt 0.313159 0.422214
vt 0.347791 0.572605
vt 0.301482 0.677733
vt 0.329031 0.783086
vt 0.344903 0.885466
vt 0.476837 0.074882
vt 0.441952 0.218774
vt 0.445749 0.333088
vt 0.416414 0.43099
vt 0.439746 0.552976
vt 0.463203 0.656843
vt 0.444252 0.77653
vt 0.426137 0.866051
vt 0.573419 0.117409
vt 0.581125 0.246686
vt 0.552512 0.326
vt 0.561075 0.459693
vt 0.558356 0.550596
vt 0.530299 0.662189
vt 0.553275 0.760113
vt 0.555478 0.888821
vt 0.694433 0.13996
vt 0.667048 0.221666
vt 0.681985 0.314267
vt 0.698218 0.467249
vt 0.696819 0.535952
vt 0.68253 0.662758
vt 0.642062 0.791726
vt 0.648523 0.877957
vt 0.778029 0.111667
vt 0.809426 0.219523
vt 0.794923 0.307783
vt 0.772028 0.454562
vt 0.796846 0.533374
vt 0.807262 0.663157
vt 0.778581 0.821037
vt 0.775122 0.858219
vt 0.890224 0.104741
vt 0.865679 0.23076
vt 0.887326 0.334104
vt 0.881307 0.429754
vt 0.887973 0.53063
vt 0.918106 0.681428
vt 0.915043 0.778027
vt 0.904815 0.89094
vn -0.00140348 0.000557497 0.999999
vn -0.000763776 0.00112045 0.999999
vn 0.000138833 0.00114097 0.999999
vn 0.000731869 0.000520448 1
vn -0.000337071 0.000590715 1
vn 0.000853773 -0.000373265 1
vn -0.000177537 -0.000714203 1
vn 5.74651e-05 3.30311e-05 1
vn 0.000596121 -0.000205419 1
vn -0.000600889 -9.2626e-05 1
vn -0.000923054 0.00147364 0.999999
vn -0.000345908 0.00333427 0.999994
vn 0.000698546 -0.000454777 1
vn -4.04732e-05 -0.000174062 1
vn 0.000205231 -0.00176009 0.999998
vn -0.000268353 -0.000754563 1
vn -0.000261294 -2.18115e-05 1
vn 0.000587185 -0.00143485 0.999999
vn 5.75399e-05 -0.000852159 1
vn -0.000674538 -0.000692671 1
vn 0.00196473 0.000710913 0.999998
vn 0.00194815 -0.00131579 0.999997
vn 0.000225088 -0.000234243 1
vn 0.00218443 0.000865468 0.999997
vn 0.00174775 -0.000418429 0.999998
vn 0.00141228 -0.000438048 0.999999
vn 0.000458431 -8.04718e-05 1
vn -0.00102893 0.000598253 0.999999
vn -0.00297709 0.00104173 0.999995
vn 8.2821e-05 0.000293266 1
vn 0.000196556 7.42368e-05 1
vn -0.000591156 -0.000471945 1
vn -9.56021e-05 0.000333755 1
vn 0.000713141 0.000728943 1
vn 0.000823527 -0.000229811 1
vn 0.000146826 0.000105726 1
vn 2.03038e-05 0.000738959 1
vn -0.000162992 0.000789352 1
vn 2.87552e-05 2.68771e-05 1
vn 0.000865773 -4.26936e-05 1
vn 0.000414624 9.44799e-05 1
vn -0.000572464 -0.000523939 1
vn 0.000657345 -0.000295909 1
vn 0.000439828 0.000175853 1
vn 0.000543506 0.000269247 1
vn 7.8797e-05 0.000444898 1
vn -0.000184923 -0.000232491 1
vn -0.00037231 -0.000233231 1
vn -0.000359043 0.000256256 1
vn -7.70492e-05 -0.00014714 1
vn 0.000115354 0.000201796 1
vn 0.000318817 7.74502e-05 1
vn 3.12672e-05 -2.54415e-05 1
vn 0.000159745 -5.48182e-05 1
vn 0.000130412 -0.000420459 1
vn 0.000202863 -0.000138267 1
vn 0.000255322 -5.01044e-05 1
vn -0.000119193 0.000249276 1
vn -2.43774e-05 0.000358722 1
vn 5.74296e-05 -0.000328064 1
vn 0.00047514 0.000123096 1
vn -0.000485551 -0.00019615 1
vn -0.000390744 0.000143451 1
vn 0.000498704 -3.04026e-05 1
vn 0.000244954 -0.000367074 1
vn 0.000141507 -4.21083e-05 1
vn -0.00021499 6.31716e-05 1
vn -0.000520016 0.000344832 1
vn 5.16195e-05 -0.000523981 1
vn 0.000183976 -0.000606572 1
vn -0.000120288 0.000335467 1
vn -0.000260977 0.000282931 1
vn 3.53811e-05 -0.000264131 1
vn 0.000206908 -0.000133986 1
vn -0.000168202 -0.000340827 1
vn -0.000107387 0.000175871 1
vn -0.000399105 -0.000436797 1
vn 0.00011623 -0.000131022 1
vn 0.000570809 -2.95321e-05 1
vn 0.000219734 0.000409572 1
vn 0.000187969 0.000407244 1
vn 0.000130298 -0.000224021 1
vn 0.000346488 0.000238928 1
vn -0.000104559 -0.000630474 1
vn -0.000268017 -4.74545e-05 1
vn -0.000371772 -6.09371e-05 1
vn -0.000555775 0.000594138 1
vn 0.000800231 0.000130497 1
vn -0.000130884 -0.000133477 1
vn -0.000253216 -1.03386e-05 1
vn 5.55901e-05 -0.00128997 0.999999
vn -0.00026674 -0.00201943 0.999998
vn -0.000574205 0.000775518 1
vn -8.34695e-05 -0.000121131 1
vn -0.000195425 0.000442337 1
vn -0.000454399 0.000144361 1
vn -0.00064065 -0.000256703 1
vn 0.000201872 0.000320145 1
vn 0.000156699 -0.000193845 1
vn 0.000575414 -0.000504169 1
f 100/100/100 4/4/4 13/13/13
f 44/44/44 3/3/3 21/21/21
f 44/44/44 19/19/19 20/20/20
f 60/60/60 19/19/19 52/52/52
f 60/60/60 17/17/17 18/18/18
f 76/76/76 17/17/17 68/68/68
f 84/84/84 16/16/16 76/76/76
f 84/84/84 14/14/14 15/15/15
f 100/100/100 14/14/14 92/92/92
f 11/11/11 93/93/93 85/85/85
f 93/93/93 86/86/86 85/85/85
f 94/94/94 87/87/87 86/86/86
f 87/87/87 96/96/96 88/88/88
f 96/96/96 89/89/89 88/88/88
f 97/97/97 90/90/90 89/89/89
f 90/90/90 99/99/99 91/91/91
f 91/91/91 100/100/100 92/92/92
f 10/10/10 85/85/85 77/77/77
f 77/77/77 86/86/86 78/78/78
f 78/78/78 87/87/87 79/79/79
f 79/79/79 88/88/88 80/80/80
f 88/88/88 81/81/81 80/80/80
f 81/81/81 90/90/90 82/82/82
f 82/82/82 91/91/91 83/83/83
f 91/91/91 84/84/84 83/83/83
f 10/10/10 69/69/69 9/9/9
f 69/69/69 78/78/78 70/70/70
f 70/70/70 79/79/79 71/71/71
f 79/79/79 72/72/72 71/71/71
f 72/72/72 81/81/81 73/73/73
f 73/73/73 82/82/82 74/74/74
f 82/82/82 75/75/75 74/74/74
f 83/83/83 76/76/76 75/75/75
f 9/9/9 61/61/61 8/8/8
f 69/69/69 62/62/62 61/61/61
f 62/62/62 71/71/71 63/63/63
f 63/63/63 72/72/72 64/64/64
f 72/72/72 65/65/65 64/64/64
f 65/65/65 74/74/74 66/66/66
f 66/66/66 75/75/75 67/67/67
f 67/67/67 76/76/76 68/68/68
f 8/8/8 53/53/53 7/7/7
f 53/53/53 62/62/62 54/54/54
f 54/54/54 63/63/63 55/55/55
f 55/55/55 64/64/64 56/56/56
f 64/64/64 57/57/57 56/56/56
f 57/57/57 66/66/66 58/58/58
f 58/58/58 67/67/67 59/59/59
f 59/59/59 68/68/68 60/60/60
f 6/6/6 53/53/53 45/45/45
f 45/45/45 54/54/54 46/46/46
f 54/54/54 47/47/47 46/46/46
f 55/55/55 48/48/48 47/47/47
f 56/56/56 49/49/49 48/48/48
f 49/49/49 58/58/58 50/50/50
f 58/58/58 51/51/51 50/50/50
f 59/59/59 52/52/52 51/51/51
f 6/6/6 37/37/37 5/5/5
f 45/45/45 38/38/38 37/37/37
f 46/46/46 39/39/39 38/38/38
f 39/39/39 48/48/48 40/40/40
f 40/40/40 49/49/49 41/41/41
f 41/41/41 50/50/50 42/42/42
f 50/50/50 43/43/43 42/42/42
f 51/51/51 44/44/44 43/43/43
f 5/5/5 28/28/28 1/1/1
f 28/28/28 38/38/38 27/27/27
f 27/27/27 39/39/39 26/26/26
f 26/26/26 40/40/40 25/25/25
f 40/40/40 24/24/24 25/25/25
f 41/41/41 23/23/23 24/24/24
f 23/23/23 43/43/43 22/22/22
f 43/43/43 21/21/21 22/22/22
f 2/2/2 93/93/93 12/12/12
f 93/93/93 30/30/30 94/94/94
f 30/30/30 95/95/95 94/94/94
f 31/31/31 96/96/96 95/95/95
f 32/32/32 97/97/97 96/96/96
f 33/33/33 98/98/98 97/97/97
f 98/98/98 35/35/35 99/99/99
f 99/99/99 36/36/36 100/100/100
f 100/100/100 36/36/36 4/4/4
f 44/44/44 20/20/20 3/3/3
f 44/44/44 52/52/52 19/19/19
f 60/60/60 18/18/18 19/19/19
f 60/60/60 68/68/68 17/17/17
f 76/76/76 16/16/16 17/17/17
f 84/84/84 15/15/15 16/16/16
f 84/84/84 92/92/92 14/14/14
f 100/100/100 13/13/13 14/14/14
f 11/11/11 12/12/12 93/93/93
f 93/93/93 94/94/94 86/86/86
f 94/94/94 95/95/95 87/87/87
f 87/87/87 95/95/95 96/96/96
f 96/96/96 97/97/97 89/89/89
f 97/97/97 98/98/98 90/90/90
f 90/90/90 98/98/98 99/99/99
f 91/91/91 99/99/99 100/100/100
f 10/10/10 11/11/11 85/85/85
f 77/77/77 85/85/85 86/86/86
f 78/78/78 86/86/86 87/87/87
f 79/79/79 87/87/87 88/88/88
f 88/88/88 89/89/89 81/81/81
f 81/81/81 89/89/89 90/90/90
f 82/82/82 90/90/90 91/91/91
f 91/91/91 92/92/92 84/84/84
f 10/10/10 77/77/77 69/69/69
f 69/69/69 77/77/77 78/78/78
f 70/70/70 78/78/78 79/79/79
f 79/79/79 80/80/80 72/72/72
f 72/72/72 80/80/80 81/81/81
f 73/73/73 81/81/81 82/82/82
f 82/82/82 83/83/83 75/75/75
f 83/83/83 84/84/84 76/76/76
f 9/9/9 69/69/69 61/61/61
f 69/69/69 70/70/70 62/62/62
f 62/62/62 70/70/70 71/71/71
f 63/63/63 71/71/71 72/72/72
f 72/72/72 73/73/73 65/65/65
f 65/65/65 73/73/73 74/74/74
f 66/66/66 74/74/74 75/75/75
f 67/67/67 75/75/75 76/76/76
f 8/8/8 61/61/61 53/53/53
f 53/53/53 61/61/61 62/62/62
f 54/54/54 62/62/62 63/63/63
f 55/55/55 63/63/63 64/64/64
f 64/64/64 65/65/65 57/57/57
f 57/57/57 65/65/65 66/66/66
f 58/58/58 66/66/66 67/67/67
f 59/59/59 67/67/67 68/68/68
f 6/6/6 7/7/7 53/53/53
f 45/45/45 53/53/53 54/54/54
f 54/54/54 55/55/55 47/47/47
f 55/55/55 56/56/56 48/48/48
f 56/56/56 57/57/57 49/49/49
f 49/49/49 57/57/57 58/58/58
f 58/58/58 59/59/59 51/51/51
f 59/59/59 60/60/60 52/52/52
f 6/6/6 45/45/45 37/37/37
f 45/45/45 46/46/46 38/38/38
f 46/46/46 47/47/47 39/39/39
f 39/39/39 47/47/47 48/48/48
f 40/40/40 48/48/48 49/49/49
f 41/41/41 49/49/49 50/50/50
f 50/50/50 51/51/51 43/43/43
f 51/51/51 52/52/52 44/44/44
f 5/5/5 37/37/37 28/28/28
f 28/28/28 37/37/37 38/38/38
f 27/27/27 38/38/38 39/39/39
f 26/26/26 39/39/39 40/40/40
f 40/40/40 41/41/41 24/24/24
f 41/41/41 42/42/42 23/23/23
f 23/23/23 42/42/42 43/43/43
f 43/43/43 44/44/44 21/21/21
f 2/2/2 29/29/29 93/93/93
f 93/93/93 29/29/29 30/30/30
f 30/30/30 31/31/31 95/95/95
f 31/31/31 32/32/32 96/96/96
f 32/32/32 33/33/33 97/97/97
f 33/33/33 34/34/34 98/98/98
f 98/98/98 34/34/34 35/35/35
f 99/99/99 35/35/35 36/36/36
