o GNATVCloth
v -5.10327 -4.97877 0.508
v 4.99327 -4.99929 0.454071
v -5.01298 5.02105 0.004229
v 4.98702 5.02105 0.004229
v -3.99009 -5.02553 0.507327
v -2.87302 -5.0735 0.428692
v -1.74714 -5.09949 0.416462
v -0.619482 -5.11583 0.381701
v 0.510202 -5.11554 0.375693
v 1.63609 -5.09527 0.353131
v 2.75701 -5.06708 0.41351
v 3.87739 -5.03377 0.438483
v 3.84791 4.94794 0.162854
v 2.72055 4.88192 0.318517
v 1.59103 4.79518 0.399924
v 0.471461 4.72421 0.484654
v -0.642669 4.67801 0.382888
v -1.6906 4.70844 0.246819
v -2.79856 4.7852 0.393389
v -3.90194 4.87888 0.207815
v -5.00602 3.90716 0.0804187
v -5.00717 2.79168 0.103272
v -5.02009 1.67693 0.12664
v -5.0334 0.563332 0.172615
v -5.03952 -0.546655 0.256821
v -5.04577 -1.65649 0.334926
v -5.05471 -2.76442 0.444731
v -5.07276 -3.87137 0.55071
v 4.97143 -3.88733 0.393954
v 4.96158 -2.77959 0.274188
v 4.95832 -1.66706 0.261079
v 4.95784 -0.554036 0.240187
v 4.95758 0.560244 0.214966
v 4.95481 1.67491 0.170105
v 4.95892 2.79036 0.123186
v 4.96265 3.90541 0.0592835
v -3.90291 -3.87511 0.431668
v -3.86258 -3.23571 0.320008
v -3.711 -1.95416 0.176087
v -4.15435 -0.290697 0.1529
v -4.17308 0.725 0.18229
v -4.15876 1.51138 0.173433
v -4.08292 2.80251 0.159347
v -3.94841 3.85509 -0.117947
v -2.78019 -4.05326 0.313194
v -2.84267 -2.78643 0.207725
v -2.72716 -2.19993 0.292961
v -2.79781 -0.654131 0.340954
v -2.82286 0.478665 0.33441
v -2.73382 1.51989 0.207934
v -2.87458 2.82169 -0.120956
v -2.82141 3.45206 0.188223
v -1.71735 -4.29184 0.34069
v -1.55227 -2.97912 0.369323
v -1.94656 -1.69047 0.451598
v -1.92444 -0.893801 0.422578
v -1.57286 0.561608 0.0795261
v -2.02137 1.61875 -0.0259139
v -1.77495 2.64643 0.20792
v -1.61876 3.59476 0.293
v -0.290537 -4.37983 0.371058
v -0.638314 -2.94279 0.378171
v -0.598708 -1.80327 0.417605
v -0.892396 -0.841992 0.316618
v -0.659666 0.372313 0.240644
v -0.42104 1.39022 0.269889
v -0.620745 2.57244 0.37091
v -0.799946 3.42427 0.352949
v 0.683322 -3.94596 0.362166
v 0.76131 -2.65066 0.372384
v 0.474839 -1.86437 0.375452
v 0.56218 -0.537903 0.346913
v 0.532627 0.362054 0.315951
v 0.250671 1.4561 0.349786
v 0.481554 2.43929 0.393405
v 0.500693 3.67653 0.407608
v 1.9016 -3.69059 0.399045
v 1.62391 -2.88677 0.330139
v 1.77756 -1.9601 0.378683
v 1.93828 -0.42828 0.347351
v 1.92371 0.250774 0.249441
v 1.7827 1.50286 0.270987
v 1.3766 2.77586 0.332345
v 1.43915 3.60552 0.331538
v 2.74632 -3.95052 0.404021
v 3.05462 -2.86738 0.365757
v 2.90676 -1.99235 0.283156
v 2.67933 -0.529908 0.353029
v 2.92528 0.265292 0.297357
v 3.0257 1.5491 0.0773707
v 2.74265 3.11426 0.154487
v 2.70258 3.48021 0.13851
v 3.87463 -3.98908 0.365947
v 3.61824 -2.73739 0.341456
v 3.83212 -1.69702 0.300909
v 3.77148 -0.743314 0.264073
v 3.83874 0.269263 0.268696
v 4.13565 1.7887 0.16906
v 4.11148 2.74783 0.0521432
v 4.00465 3.87604 0.0269644
vt 0.0001 0.0001
vt 0.9999 0.0001
vt 0.0001 0.9999
vt 0.9999 0.9999
vt 0.111189 0.0001
vt 0.222278 0.0001
vt 0.333367 0.0001
vt 0.444455 0.0001
vt 0.555544 0.0001
vt 0.666633 0.0001
vt 0.777722 0.0001
vt 0.888811 0.0001
vt 0.888811 0.9999
vt 0.777722 0.9999
vt 0.666633 0.9999
vt 0.555544 0.9999
vt 0.444455 0.9999
vt 0.333367 0.9999
vt 0.222278 0.9999
vt 0.111189 0.9999
vt 0.0001 0.888811
vt 0.0001 0.777722
vt 0.0001 0.666633
vt 0.0001 0.555544
vt 0.0001 0.444456
vt 0.0001 0.333367
vt 0.0001 0.222278
vt 0.0001 0.111189
vt 0.9999 0.111189
vt 0.9999 0.222278
vt 0.9999 0.333367
vt 0.9999 0.444456
vt 0.9999 0.555544
vt 0.9999 0.666633
vt 0.9999 0.777722
vt 0.9999 0.888811
vt 0.11727 0.115399
vt 0.120778 0.180369
vt 0.134636 0.309595
vt 0.088728 0.473895
vt 0.085886 0.575352
vt 0.086211 0.65375
vt 0.092207 0.78313
vt 0.106956 0.892282
vt 0.22987 0.102869
vt 0.221803 0.229552
vt 0.233521 0.288953
vt 0.225541 0.443179
vt 0.221596 0.556167
vt 0.227801 0.661237
vt 0.214896 0.795203
vt 0.22542 0.865181
vt 0.335524 0.082127
vt 0.351143 0.213907
vt 0.311934 0.342467
vt 0.313159 0.422214
vt 0.347791 0.572605
vt 0.301482 0.677733
vt 0.329031 0.783086
vt 0.344903 0.885466
vt 0.476837 0.074882
vt 0.441952 0.218774
vt 0.445749 0.333088
vt 0.416414 0.43099
vt 0.439746 0.552976
vt 0.463203 0.656843
vt 0.444252 0.77653
vt 0.426137 0.866051
vt 0.573419 0.117409
vt 0.581125 0.246686
vt 0.552512 0.326
vt 0.561075 0.459693
vt 0.558356 0.550596
vt 0.530299 0.662189
vt 0.553275 0.760113
vt 0.555478 0.888821
vt 0.694433 0.13996
vt 0.667048 0.221666
vt 0.681985 0.314267
vt 0.698218 0.467249
vt 0.696819 0.535952
vt 0.68253 0.662758
vt 0.642062 0.791726
vt 0.648523 0.877957
vt 0.778029 0.111667
vt 0.809426 0.219523
vt 0.794923 0.307783
vt 0.772028 0.454562
vt 0.796846 0.533374
vt 0.807262 0.663157
vt 0.778581 0.821037
vt 0.775122 0.858219
vt 0.890224 0.104741
vt 0.865679 0.23076
vt 0.887326 0.334104
vt 0.881307 0.429754
vt 0.887973 0.53063
vt 0.918106 0.681428
vt 0.915043 0.778027
vt 0.904815 0.89094
vn -0.00101337 -0.0385111 0.999258
vn -0.0232568 0.0612938 0.997849
vn -0.0108809 -0.11403 0.993418
vn 0.0546337 -0.0270543 0.99814
vn 0.0577459 0.0264204 0.997982
vn 0.0514182 0.0916971 0.994459
vn 0.022488 0.092563 0.995453
vn 0.00583619 0.042567 0.999077
vn 0.00981773 0.0105458 0.999896
vn -0.0183942 -0.0103279 0.999777
vn -0.0147652 0.028688 0.999479
vn -0.0201802 0.0692 0.997399
vn 0.14286 -0.103892 0.984275
vn 0.119938 -0.10679 0.987021
vn 0.0781893 -0.06716 0.994674
vn 0.0224638 -0.0715034 0.997187
vn -0.0825068 -0.0190133 0.996409
vn 0.00333394 0.0416453 0.999127
vn -0.107793 -0.135636 0.984878
vn -0.195403 -0.289301 0.937082
vn 0.106743 0.106505 0.988566
vn -0.0607911 0.0210656 0.997928
vn -0.0458346 0.0223064 0.9987
vn 0.0234213 0.0291392 0.999301
vn 0.0957205 0.0720578 0.992797
vn 0.121357 0.0713508 0.990041
vn 0.139567 0.0942564 0.985716
vn 0.0853909 0.0693488 0.993931
vn -0.032886 0.0802683 0.996231
vn 0.0254157 0.044409 0.99869
vn 0.0288 0.0238013 0.999302
vn 0.0267697 0.0118101 0.999572
vn 0.0263237 0.0406454 0.998827
vn 0.00443648 0.0411161 0.999145
vn -0.0569327 0.0726471 0.995731
vn -0.0519415 0.0421408 0.997761
vn 0.104846 0.109381 0.988455
vn 0.107476 0.117478 0.987243
vn 0.0079951 0.0241894 0.999675
vn -0.0120198 0.0158955 0.999801
vn -0.0511965 0.022212 0.998442
vn -0.0380108 0.0125382 0.999199
vn 0.0614718 0.112973 0.991695
vn -0.0712622 -0.088679 0.993508
vn 0.0297787 0.0873257 0.995735
vn -0.0531965 0.00760611 0.998555
vn -0.144128 -0.0816941 0.986181
vn -0.126198 -0.00911441 0.991963
vn 0.034248 0.0801362 0.996195
vn 0.109436 0.129935 0.985465
vn -0.0535476 -0.0317975 0.998059
vn -0.232345 -0.233757 0.944126
vn -0.00514818 0.0389199 0.999229
vn -0.0591324 -0.0390622 0.997486
vn -0.0393918 -0.00213223 0.999222
vn 0.0404309 0.0942374 0.994728
vn -0.00759289 0.117198 0.99308
vn -0.0113077 0.015982 0.999808
vn -0.182478 -0.14895 0.971862
vn -0.05084 -0.0391216 0.99794
vn -0.00438896 0.00672351 0.999968
vn 0.00268351 -0.0162939 0.999864
vn 0.0140628 0.0164388 0.999766
vn -0.000882418 0.102025 0.994781
vn -0.101129 0.0261311 0.99453
vn -0.135783 -0.0317775 0.990229
vn -0.0976735 -0.0669972 0.992961
vn -0.0775122 -0.0209857 0.996771
vn 0.00243505 0.00572949 0.999981
vn 0.0173416 -0.0167673 0.999709
vn 0.0156728 -0.000521578 0.999877
vn -0.00770968 0.0542331 0.998499
vn 0.00464905 -0.00166885 0.999988
vn -0.038719 -0.027871 0.998861
vn 0.00554328 -0.0352596 0.999363
vn 0.00523135 -0.0261585 0.999644
vn -0.0211318 0.0245449 0.999475
vn 0.0108059 0.0170391 0.999796
vn 0.0269048 -0.0142876 0.999536
vn -0.00160093 0.0819104 0.996638
vn 0.0219932 0.0813776 0.996441
vn 0.0954963 -0.0194704 0.995239
vn 0.0984171 -0.0112547 0.995082
vn 0.105552 -0.0411024 0.993564
vn 0.000827888 0.0092915 0.999956
vn 0.00743468 0.0583849 0.998267
vn 0.0242809 0.0190588 0.999523
vn 0.0342905 0.0367934 0.998734
vn 0.0105315 0.0921891 0.995686
vn 0.0211236 0.0696546 0.997348
vn 0.112994 0.00974772 0.993548
vn 0.122325 -0.0363052 0.991826
vn 0.00628777 0.0488244 0.998788
vn 0.025079 0.0457869 0.998636
vn 0.0111086 0.0327328 0.999402
vn 0.0338036 0.012798 0.999347
vn 0.00955522 0.0535255 0.998521
vn -0.0425134 0.0771422 0.996113
vn -0.0283407 0.0510395 0.998294
vn 0.0706302 -0.0266406 0.997147
f 100/100/100 4/4/4 13/13/13
f 44/44/44 3/3/3 21/21/21
f 44/44/44 19/19/19 20/20/20
f 60/60/60 19/19/19 52/52/52
f 60/60/60 17/17/17 18/18/18
f 76/76/76 17/17/17 68/68/68
f 84/84/84 16/16/16 76/76/76
f 84/84/84 14/14/14 15/15/15
f 100/100/100 14/14/14 92/92/92
f 11/11/11 93/93/93 85/85/85
f 93/93/93 86/86/86 85/85/85
f 94/94/94 87/87/87 86/86/86
f 87/87/87 96/96/96 88/88/88
f 96/96/96 89/89/89 88/88/88
f 97/97/97 90/90/90 89/89/89
f 90/90/90 99/99/99 91/91/91
f 91/91/91 100/100/100 92/92/92
f 10/10/10 85/85/85 77/77/77
f 77/77/77 86/86/86 78/78/78
f 78/78/78 87/87/87 79/79/79
f 79/79/79 88/88/88 80/80/80
f 88/88/88 81/81/81 80/80/80
f 81/81/81 90/90/90 82/82/82
f 82/82/82 91/91/91 83/83/83
f 91/91/91 84/84/84 83/83/83
f 10/10/10 69/69/69 9/9/9
f 69/69/69 78/78/78 70/70/70
f 70/70/70 79/79/79 71/71/71
f 79/79/79 72/72/72 71/71/71
f 72/72/72 81/81/81 73/73/73
f 73/73/73 82/82/82 74/74/74
f 82/82/82 75/75/75 74/74/74
f 83/83/83 76/76/76 75/75/75
f 9/9/9 61/61/61 8/8/8
f 69/69/69 62/62/62 61/61/61
f 62/62/62 71/71/71 63/63/63
f 63/63/63 72/72/72 64/64/64
f 72/72/72 65/65/65 64/64/64
f 65/65/65 74/74/74 66/66/66
f 66/66/66 75/75/75 67/67/67
f 67/67/67 76/76/76 68/68/68
f 8/8/8 53/53/53 7/7/7
f 53/53/53 62/62/62 54/54/54
f 54/54/54 63/63/63 55/55/55
f 55/55/55 64/64/64 56/56/56
f 64/64/64 57/57/57 56/56/56
f 57/57/57 66/66/66 58/58/58
f 58/58/58 67/67/67 59/59/59
f 59/59/59 68/68/68 60/60/60
f 6/6/6 53/53/53 45/45/45
f 45/45/45 54/54/54 46/46/46
f 54/54/54 47/47/47 46/46/46
f 55/55/55 48/48/48 47/47/47
f 56/56/56 49/49/49 48/48/48
f 49/49/49 58/58/58 50/50/50
f 58/58/58 51/51/51 50/50/50
f 59/59/59 52/52/52 51/51/51
f 6/6/6 37/37/37 5/5/5
f 45/45/45 38/38/38 37/37/37
f 46/46/46 39/39/39 38/38/38
f 39/39/39 48/48/48 40/40/40
f 40/40/40 49/49/49 41/41/41
f 41/41/41 50/50/50 42/42/42
f 50/50/50 43/43/43 42/42/42
f 51/51/51 44/44/44 43/43/43
f 5/5/5 28/28/28 1/1/1
f 28/28/28 38/38/38 27/27/27
f 27/27/27 39/39/39 26/26/26
f 26/26/26 40/40/40 25/25/25
f 40/40/40 24/24/24 25/25/25
f 41/41/41 23/23/23 24/24/24
f 23/23/23 43/43/43 22/22/22
f 43/43/43 21/21/21 22/22/22
f 2/2/2 93/93/93 12/12/12
f 93/93/93 30/30/30 94/94/94
f 30/30/30 95/95/95 94/94/94
f 31/31/31 96/96/96 95/95/95
f 32/32/32 97/97/97 96/96/96
f 33/33/33 98/98/98 97/97/97
f 98/98/98 35/35/35 99/99/99
f 99/99/99 36/36/36 100/100/100
f 100/100/100 36/36/36 4/4/4
f 44/44/44 20/20/20 3/3/3
f 44/44/44 52/52/52 19/19/19
f 60/60/60 18/18/18 19/19/19
f 60/60/60 68/68/68 17/17/17
f 76/76/76 16/16/16 17/17/17
f 84/84/84 15/15/15 16/16/16
f 84/84/84 92/92/92 14/14/14
f 100/100/100 13/13/13 14/14/14
f 11/11/11 12/12/12 93/93/93
f 93/93/93 94/94/94 86/86/86
f 94/94/94 95/95/95 87/87/87
f 87/87/87 95/95/95 96/96/96
f 96/96/96 97/97/97 89/89/89
f 97/97/97 98/98/98 90/90/90
f 90/90/90 98/98/98 99/99/99
f 91/91/91 99/99/99 100/100/100
f 10/10/10 11/11/11 85/85/85
f 77/77/77 85/85/85 86/86/86
f 78/78/78 86/86/86 87/87/87
f 79/79/79 87/87/87 88/88/88
f 88/88/88 89/89/89 81/81/81
f 81/81/81 89/89/89 90/90/90
f 82/82/82 90/90/90 91/91/91
f 91/91/91 92/92/92 84/84/84
f 10/10/10 77/77/77 69/69/69
f 69/69/69 77/77/77 78/78/78
f 70/70/70 78/78/78 79/79/79
f 79/79/79 80/80/80 72/72/72
f 72/72/72 80/80/80 81/81/81
f 73/73/73 81/81/81 82/82/82
f 82/82/82 83/83/83 75/75/75
f 83/83/83 84/84/84 76/76/76
f 9/9/9 69/69/69 61/61/61
f 69/69/69 70/70/70 62/62/62
f 62/62/62 70/70/70 71/71/71
f 63/63/63 71/71/71 72/72/72
f 72/72/72 73/73/73 65/65/65
f 65/65/65 73/73/73 74/74/74
f 66/66/66 74/74/74 75/75/75
f 67/67/67 75/75/75 76/76/76
f 8/8/8 61/61/61 53/53/53
f 53/53/53 61/61/61 62/62/62
f 54/54/54 62/62/62 63/63/63
f 55/55/55 63/63/63 64/64/64
f 64/64/64 65/65/65 57/57/57
f 57/57/57 65/65/65 66/66/66
f 58/58/58 66/66/66 67/67/67
f 59/59/59 67/67/67 68/68/68
f 6/6/6 7/7/7 53/53/53
f 45/45/45 53/53/53 54/54/54
f 54/54/54 55/55/55 47/47/47
f 55/55/55 56/56/56 48/48/48
f 56/56/56 57/57/57 49/49/49
f 49/49/49 57/57/57 58/58/58
f 58/58/58 59/59/59 51/51/51
f 59/59/59 60/60/60 52/52/52
f 6/6/6 45/45/45 37/37/37
f 45/45/45 46/46/46 38/38/38
f 46/46/46 47/47/47 39/39/39
f 39/39/39 47/47/47 48/48/48
f 40/40/40 48/48/48 49/49/49
f 41/41/41 49/49/49 50/50/50
f 50/50/50 51/51/51 43/43/43
f 51/51/51 52/52/52 44/44/44
f 5/5/5 37/37/37 28/28/28
f 28/28/28 37/37/37 38/38/38
f 27/27/27 38/38/38 39/39/39
f 26/26/26 39/39/39 40/40/40
f 40/40/40 41/41/41 24/24/24
f 41/41/41 42/42/42 23/23/23
f 23/23/23 42/42/42 43/43/43
f 43/43/43 44/44/44 21/21/21
f 2/2/2 29/29/29 93/93/93
f 93/93/93 29/29/29 30/30/30
f 30/30/30 31/31/31 95/95/95
f 31/31/31 32/32/32 96/96/96
f 32/32/32 33/33/33 97/97/97
f 33/33/33 34/34/34 98/98/98
f 98/98/98 34/34/34 35/35/35
f 99/99/99 35/35/35 36/36/36
