o GNATVCloth
v -5.06904 -4.97951 0.467657
v 5.04934 -4.99781 0.467484
v -5.01298 5.02105 0.004229
v 4.98702 5.02105 0.004229
v -3.95818 -5.01566 0.44909
v -2.83886 -5.06283 0.403005
v -1.71396 -5.10572 0.316592
v -0.582863 -5.13949 0.301662
v 0.552401 -5.14019 0.307538
v 1.68389 -5.13097 0.346095
v 2.81308 -5.08709 0.32114
v 3.93634 -5.04414 0.357447
v 3.85869 4.93611 0.167312
v 2.73877 4.87391 0.292256
v 1.62526 4.81464 0.433448
v 0.503353 4.79658 0.417763
v -0.571624 4.78152 0.338722
v -1.65878 4.81169 0.219258
v -2.7709 4.84842 0.270314
v -3.88313 4.92213 0.123895
v -5.00283 3.90739 0.0854626
v -4.99721 2.79149 0.105626
v -5.00152 1.67632 0.1199
v -5.0068 0.562009 0.149445
v -5.00865 -0.549605 0.209581
v -5.01108 -1.6593 0.2984
v -5.02109 -2.7678 0.407492
v -5.03764 -3.87184 0.531064
v 5.02574 -3.88741 0.421372
v 5.00895 -2.77963 0.306406
v 4.99743 -1.6688 0.243716
v 4.98865 -0.556786 0.192088
v 4.98169 0.557143 0.154827
v 4.97751 1.67221 0.117864
v 4.97481 2.78836 0.0885287
v 4.9728 3.90447 0.0442574
v -3.86476 -3.87413 0.421892
v -3.82052 -3.22692 0.359987
v -3.67559 -1.95311 0.156278
v -4.12359 -0.290454 0.119599
v -4.14936 0.725747 0.154947
v -4.14066 1.51025 0.166093
v -4.0752 2.80314 0.17939
v -3.93721 3.86338 -0.0611978
v -2.73981 -4.05203 0.309287
v -2.80728 -2.78512 0.210348
v -2.69113 -2.19871 0.278778
v -2.76876 -0.65386 0.341545
v -2.8017 0.479735 0.341925
v -2.71918 1.52046 0.218627
v -2.85808 2.83761 -0.0542298
v -2.77318 3.50841 0.142767
v -1.67607 -4.29615 0.324368
v -1.51082 -2.98809 0.315125
v -1.90778 -1.69475 0.413602
v -1.89123 -0.897351 0.407233
v -1.54524 0.56986 0.137809
v -2.00062 1.62577 0.0120814
v -1.74927 2.65046 0.24092
v -1.5735 3.66451 0.25195
v -0.247423 -4.40574 0.333272
v -0.595822 -2.96462 0.340946
v -0.559928 -1.82356 0.351217
v -0.857899 -0.843344 0.287788
v -0.628754 0.364952 0.2564
v -0.399189 1.39845 0.295046
v -0.596792 2.5706 0.394588
v -0.765673 3.45958 0.31325
v 0.730413 -3.98219 0.337824
v 0.803173 -2.68861 0.270082
v 0.511829 -1.90234 0.310777
v 0.592092 -0.564275 0.314479
v 0.560007 0.343697 0.306597
v 0.273676 1.45362 0.316023
v 0.502632 2.43351 0.349428
v 0.522299 3.68893 0.330828
v 1.95074 -3.72322 0.302181
v 1.66908 -2.91694 0.283707
v 1.81361 -1.98796 0.33961
v 1.96682 -0.452591 0.298826
v 1.94828 0.234167 0.290761
v 1.80154 1.49772 0.258138
v 1.39366 2.7726 0.323509
v 1.45014 3.61558 0.29333
v 2.79704 -3.97506 0.330839
v 3.09972 -2.88371 0.35899
v 2.94769 -2.00947 0.314292
v 2.70756 -0.549634 0.336214
v 2.95265 0.247449 0.305245
v 3.05117 1.5465 0.197054
v 2.76363 3.11477 0.225603
v 2.72027 3.4773 0.171458
v 3.92834 -3.99988 0.369805
v 3.66433 -2.74875 0.369475
v 3.87143 -1.70415 0.311137
v 3.80309 -0.751616 0.261924
v 3.86482 0.260442 0.24381
v 4.1599 1.78271 0.157511
v 4.12545 2.74225 0.0509111
v 4.01585 3.86659 0.0133698
vt 0.0001 0.0001
vt 0.9999 0.0001
vt 0.0001 0.9999
vt 0.9999 0.9999
vt 0.111189 0.0001
vt 0.222278 0.0001
vt 0.333367 0.0001
vt 0.444455 0.0001
vt 0.555544 0.0001
vt 0.666633 0.0001
vt 0.777722 0.0001
vt 0.888811 0.0001
vt 0.888811 0.9999
vt 0.777722 0.9999
vt 0.666633 0.9999
vt 0.555544 0.9999
vt 0.444455 0.9999
vt 0.333367 0.9999
vt 0.222278 0.9999
vt 0.111189 0.9999
vt 0.0001 0.888811
vt 0.0001 0.777722
vt 0.0001 0.666633
vt 0.0001 0.555544
vt 0.0001 0.444456
vt 0.0001 0.333367
vt 0.0001 0.222278
vt 0.0001 0.111189
vt 0.9999 0.111189
vt 0.9999 0.222278
vt 0.9999 0.333367
vt 0.9999 0.444456
vt 0.9999 0.555544
vt 0.9999 0.666633
vt 0.9999 0.777722
vt 0.9999 0.888811
vt 0.11727 0.115399
vt 0.120778 0.180369
vt 0.134636 0.309595
vt 0.088728 0.473895
vt 0.085886 0.575352
vt 0.086211 0.65375
vt 0.092207 0.78313
vt 0.106956 0.892282
vt 0.22987 0.102869
vt 0.221803 0.229552
vt 0.233521 0.288953
vt 0.225541 0.443179
vt 0.221596 0.556167
vt 0.227801 0.661237
vt 0.214896 0.795203
vt 0.22542 0.865181
vt 0.335524 0.082127
vt 0.351143 0.213907
vt 0.311934 0.342467
vt 0.313159 0.422214
vt 0.347791 0.572605
vt 0.301482 0.677733
vt 0.329031 0.783086
vt 0.344903 0.885466
vt 0.476837 0.074882
vt 0.441952 0.218774
vt 0.445749 0.333088
vt 0.416414 0.43099
vt 0.439746 0.552976
vt 0.463203 0.656843
vt 0.444252 0.77653
vt 0.426137 0.866051
vt 0.573419 0.117409
vt 0.581125 0.246686
vt 0.552512 0.326
vt 0.561075 0.459693
vt 0.558356 0.550596
vt 0.530299 0.662189
vt 0.553275 0.760113
vt 0.555478 0.888821
vt 0.694433 0.13996
vt 0.667048 0.221666
vt 0.681985 0.314267
vt 0.698218 0.467249
vt 0.696819 0.535952
vt 0.68253 0.662758
vt 0.642062 0.791726
vt 0.648523 0.877957
vt 0.778029 0.111667
vt 0.809426 0.219523
vt 0.794923 0.307783
vt 0.772028 0.454562
vt 0.796846 0.533374
vt 0.807262 0.663157
vt 0.778581 0.821037
vt 0.775122 0.858219
vt 0.890224 0.104741
vt 0.865679 0.23076
vt 0.887326 0.334104
vt 0.881307 0.429754
vt 0.887973 0.53063
vt 0.918106 0.681428
vt 0.915043 0.778027
vt 0.904815 0.89094
vn 0.0148113 -0.0575627 0.998232
vn -0.0744909 0.0139231 0.997124
vn 0.0105542 -0.0466439 0.998856
vn 0.0590003 -0.0417361 0.997385
vn 0.0498902 -0.00702936 0.99873
vn 0.0593294 0.0450102 0.997223
vn 0.0445133 -0.011678 0.998941
vn -0.000503699 -0.0299088 0.999552
vn -0.0106449 -0.0296172 0.999505
vn -0.00279783 0.00824691 0.999962
vn -0.014687 -0.0098982 0.999843
vn -0.0648876 -0.0123053 0.997817
vn 0.133847 -0.12189 0.983477
vn 0.120237 -0.108254 0.986825
vn 0.0599723 -0.124494 0.990406
vn -0.0166547 -0.0905008 0.995757
vn -0.0672792 -0.0211672 0.99751
vn -0.0309758 0.026172 0.999177
vn -0.0930571 -0.0801716 0.992428
vn -0.128795 -0.16439 0.977951
vn 0.0674698 0.0982945 0.992868
vn -0.0799319 0.0153363 0.996682
vn -0.0506711 0.00464711 0.998705
vn 0.0247637 0.0151846 0.999578
vn 0.0816213 0.0665322 0.99444
vn 0.107138 0.076323 0.99131
vn 0.100833 0.117495 0.987941
vn 0.0704737 0.0392999 0.996739
vn -0.054111 0.0713126 0.995985
vn 0.0239644 0.0539595 0.998255
vn 0.0556398 0.0530756 0.997039
vn 0.0593321 0.0316482 0.997736
vn 0.0637508 0.0368068 0.997287
vn 0.0524331 0.0298231 0.998179
vn -0.0147745 0.0582301 0.998194
vn -0.0378208 0.0352807 0.998662
vn 0.0904655 0.0586235 0.994173
vn 0.0954318 0.110624 0.98927
vn -0.00397285 0.041593 0.999127
vn -0.0279547 0.0122701 0.999534
vn -0.0605452 0.00872243 0.998127
vn -0.0462285 -0.0108113 0.998872
vn 0.0357834 0.0909685 0.995211
vn -0.0347171 -0.0289228 0.998979
vn 0.0435718 0.071098 0.996517
vn -0.0237207 0.0247351 0.999413
vn -0.123242 -0.076829 0.989398
vn -0.125598 -0.0193175 0.991893
vn 0.00871681 0.0720453 0.997363
vn 0.0833879 0.107583 0.990693
vn -0.0363297 0.00141942 0.999339
vn -0.180494 -0.133859 0.974425
vn 0.00561285 0.00597477 0.999966
vn -0.0421725 -0.0260369 0.998771
vn -0.0176397 -0.0203897 0.999636
vn 0.0445519 0.0629856 0.99702
vn -0.00271733 0.0950485 0.995469
vn -0.0190278 0.0142595 0.999717
vn -0.168425 -0.0823837 0.982266
vn -0.0641109 -0.00714906 0.997917
vn -0.00323049 -0.0239126 0.999709
vn 0.00984706 -0.000159915 0.999951
vn 0.0185406 0.00827815 0.999794
vn 0.0172038 0.0629828 0.997866
vn -0.0642824 0.00453648 0.997921
vn -0.0858716 -0.0360871 0.995652
vn -0.0695014 -0.0353485 0.996955
vn -0.0639982 0.0257708 0.997617
vn 0.00802106 0.0151382 0.999853
vn 0.00780788 -0.0090116 0.999929
vn 0.016519 -0.021737 0.999627
vn -0.00606559 0.0167338 0.999842
vn -0.00421864 0.00510153 0.999978
vn -0.00463458 -0.0239495 0.999702
vn 0.0251583 -0.0264614 0.999333
vn 0.00460208 -0.00394154 0.999982
vn -0.0136233 0.0165001 0.999771
vn -0.0157897 0.0017935 0.999874
vn -0.010369 -0.0194531 0.999757
vn -0.0189227 0.0198075 0.999625
vn 0.000595392 0.0311347 0.999515
vn 0.0440581 -0.00799634 0.998997
vn 0.0502294 0.00304125 0.998733
vn 0.0657309 -0.0271266 0.997469
vn -0.0217219 -0.00266352 0.999761
vn -0.0377632 0.00956508 0.999241
vn -0.000326575 0.0169585 0.999856
vn 0.00825289 0.0144539 0.999862
vn 0.0346823 0.047297 0.998279
vn 0.0446901 0.050424 0.997728
vn 0.0922241 0.0521554 0.994371
vn 0.105099 0.0356754 0.993822
vn -0.0347908 0.0124344 0.999317
vn 0.00633031 0.0315874 0.999481
vn 0.0268754 0.0536929 0.998196
vn 0.0510043 0.0277628 0.998312
vn 0.058728 0.0391846 0.997505
vn 0.0265851 0.0624453 0.997694
vn 0.0251908 0.0570816 0.998052
vn 0.0806078 -0.00893209 0.996706
f 100/100/100 4/4/4 13/13/13
f 44/44/44 3/3/3 21/21/21
f 44/44/44 19/19/19 20/20/20
f 60/60/60 19/19/19 52/52/52
f 60/60/60 17/17/17 18/18/18
f 76/76/76 17/17/17 68/68/68
f 84/84/84 16/16/16 76/76/76
f 84/84/84 14/14/14 15/15/15
f 100/100/100 14/14/14 92/92/92
f 11/11/11 93/93/93 85/85/85
f 93/93/93 86/86/86 85/85/85
f 94/94/94 87/87/87 86/86/86
f 87/87/87 96/96/96 88/88/88
f 96/96/96 89/89/89 88/88/88
f 97/97/97 90/90/90 89/89/89
f 90/90/90 99/99/99 91/91/91
f 91/91/91 100/100/100 92/92/92
f 10/10/10 85/85/85 77/77/77
f 77/77/77 86/86/86 78/78/78
f 78/78/78 87/87/87 79/79/79
f 79/79/79 88/88/88 80/80/80
f 88/88/88 81/81/81 80/80/80
f 81/81/81 90/90/90 82/82/82
f 82/82/82 91/91/91 83/83/83
f 91/91/91 84/84/84 83/83/83
f 10/10/10 69/69/69 9/9/9
f 69/69/69 78/78/78 70/70/70
f 70/70/70 79/79/79 71/71/71
f 79/79/79 72/72/72 71/71/71
f 72/72/72 81/81/81 73/73/73
f 73/73/73 82/82/82 74/74/74
f 82/82/82 75/75/75 74/74/74
f 83/83/83 76/76/76 75/75/75
f 9/9/9 61/61/61 8/8/8
f 69/69/69 62/62/62 61/61/61
f 62/62/62 71/71/71 63/63/63
f 63/63/63 72/72/72 64/64/64
f 72/72/72 65/65/65 64/64/64
f 65/65/65 74/74/74 66/66/66
f 66/66/66 75/75/75 67/67/67
f 67/67/67 76/76/76 68/68/68
f 8/8/8 53/53/53 7/7/7
f 53/53/53 62/62/62 54/54/54
f 54/54/54 63/63/63 55/55/55
f 55/55/55 64/64/64 56/56/56
f 64/64/64 57/57/57 56/56/56
f 57/57/57 66/66/66 58/58/58
f 58/58/58 67/67/67 59/59/59
f 59/59/59 68/68/68 60/60/60
f 6/6/6 53/53/53 45/45/45
f 45/45/45 54/54/54 46/46/46
f 54/54/54 47/47/47 46/46/46
f 55/55/55 48/48/48 47/47/47
f 56/56/56 49/49/49 48/48/48
f 49/49/49 58/58/58 50/50/50
f 58/58/58 51/51/51 50/50/50
f 59/59/59 52/52/52 51/51/51
f 6/6/6 37/37/37 5/5/5
f 45/45/45 38/38/38 37/37/37
f 46/46/46 39/39/39 38/38/38
f 39/39/39 48/48/48 40/40/40
f 40/40/40 49/49/49 41/41/41
f 41/41/41 50/50/50 42/42/42
f 50/50/50 43/43/43 42/42/42
f 51/51/51 44/44/44 43/43/43
f 5/5/5 28/28/28 1/1/1
f 28/28/28 38/38/38 27/27/27
f 27/27/27 39/39/39 26/26/26
f 26/26/26 40/40/40 25/25/25
f 40/40/40 24/24/24 25/25/25
f 41/41/41 23/23/23 24/24/24
f 23/23/23 43/43/43 22/22/22
f 43/43/43 21/21/21 22/22/22
f 2/2/2 93/93/93 12/12/12
f 93/93/93 30/30/30 94/94/94
f 30/30/30 95/95/95 94/94/94
f 31/31/31 96/96/96 95/95/95
f 32/32/32 97/97/97 96/96/96
f 33/33/33 98/98/98 97/97/97
f 98/98/98 35/35/35 99/99/99
f 99/99/99 36/36/36 100/100/100
f 100/100/100 36/36/36 4/4/4
f 44/44/44 20/20/20 3/3/3
f 44/44/44 52/52/52 19/19/19
f 60/60/60 18/18/18 19/19/19
f 60/60/60 68/68/68 17/17/17
f 76/76/76 16/16/16 17/17/17
f 84/84/84 15/15/15 16/16/16
f 84/84/84 92/92/92 14/14/14
f 100/100/100 13/13/13 14/14/14
f 11/11/11 12/12/12 93/93/93
f 93/93/93 94/94/94 86/86/86
f 94/94/94 95/95/95 87/87/87
f 87/87/87 95/95/95 96/96/96
f 96/96/96 97/97/97 89/89/89
f 97/97/97 98/98/98 90/90/90
f 90/90/90 98/98/98 99/99/99
f 91/91/91 99/99/99 100/100/100
f 10/10/10 11/11/11 85/85/85
f 77/77/77 85/85/85 86/86/86
f 78/78/78 86/86/86 87/87/87
f 79/79/79 87/87/87 88/88/88
f 88/88/88 89/89/89 81/81/81
f 81/81/81 89/89/89 90/90/90
f 82/82/82 90/90/90 91/91/91
f 91/91/91 92/92/92 84/84/84
f 10/10/10 77/77/77 69/69/69
f 69/69/69 77/77/77 78/78/78
f 70/70/70 78/78/78 79/79/79
f 79/79/79 80/80/80 72/72/72
f 72/72/72 80/80/80 81/81/81
f 73/73/73 81/81/81 82/82/82
f 82/82/82 83/83/83 75/75/75
f 83/83/83 84/84/84 76/76/76
f 9/9/9 69/69/69 61/61/61
f 69/69/69 70/70/70 62/62/62
f 62/62/62 70/70/70 71/71/71
f 63/63/63 71/71/71 72/72/72
f 72/72/72 73/73/73 65/65/65
f 65/65/65 73/73/73 74/74/74
f 66/66/66 74/74/74 75/75/75
f 67/67/67 75/75/75 76/76/76
f 8/8/8 61/61/61 53/53/53
f 53/53/53 61/61/61 62/62/62
f 54/54/54 62/62/62 63/63/63
f 55/55/55 63/63/63 64/64/64
f 64/64/64 65/65/65 57/57/57
f 57/57/57 65/65/65 66/66/66
f 58/58/58 66/66/66 67/67/67
f 59/59/59 67/67/67 68/68/68
f 6/6/6 7/7/7 53/53/53
f 45/45/45 53/53/53 54/54/54
f 54/54/54 55/55/55 47/47/47
f 55/55/55 56/56/56 48/48/48
f 56/56/56 57/57/57 49/49/49
f 49/49/49 57/57/57 58/58/58
f 58/58/58 59/59/59 51/51/51
f 59/59/59 60/60/60 52/52/52
f 6/6/6 45/45/45 37/37/37
f 45/45/45 46/46/46 38/38/38
f 46/46/46 47/47/47 39/39/39
f 39/39/39 47/47/47 48/48/48
f 40/40/40 48/48/48 49/49/49
f 41/41/41 49/49/49 50/50/50
f 50/50/50 51/51/51 43/43/43
f 51/51/51 52/52/52 44/44/44
f 5/5/5 37/37/37 28/28/28
f 28/28/28 37/37/37 38/38/38
f 27/27/27 38/38/38 39/39/39
f 26/26/26 39/39/39 40/40/40
f 40/40/40 41/41/41 24/24/24
f 41/41/41 42/42/42 23/23/23
f 23/23/23 42/42/42 43/43/43
f 43/43/43 44/44/44 21/21/21
f 2/2/2 29/29/29 93/93/93
f 93/93/93 29/29/29 30/30/30
f 30/30/30 31/31/31 95/95/95
f 31/31/31 32/32/32 96/96/96
f 32/32/32 33/33/33 97/97/97
f 33/33/33 34/34/34 98/98/98
f 98/98/98 34/34/34 35/35/35
f 99/99/99 35/35/35 36/36/36
