o GNATVCloth
v -5.00017 -5.00135 0.106972
v 5.08455 -5.01062 0.100685
v -5.01298 5.02105 0.004229
v 4.98702 5.02105 0.004229
v -3.88807 -5.03674 0.0841147
v -2.76824 -5.07572 0.0582945
v -1.64475 -5.08455 0.0743965
v -0.520299 -5.08557 0.0743844
v 0.602834 -5.09996 0.0187159
v 1.72571 -5.10572 0.0492116
v 2.84768 -5.07623 0.0756078
v 3.96784 -5.04697 0.106786
v 3.86346 4.93485 0.0889256
v 2.75821 4.8631 0.0610546
v 1.69912 4.8459 0.088961
v 0.592513 4.84163 0.0722557
v -0.514781 4.83519 0.0475225
v -1.62172 4.86138 0.104313
v -2.74304 4.91787 0.0610706
v -3.87355 4.95915 0.0747013
v -4.99063 3.90467 0.0376838
v -4.98161 2.78821 0.0691065
v -4.97771 1.67169 0.0784371
v -4.96895 0.555744 0.0807371
v -4.95823 -0.559294 0.0894215
v -4.95712 -1.67265 0.0828736
v -4.96042 -2.78771 0.074329
v -4.97576 -3.89767 0.069382
v 5.06132 -3.89755 0.101606
v 5.05167 -2.7859 0.0553442
v 5.0474 -1.673 0.0617826
v 5.04586 -0.559622 0.075946
v 5.04491 0.555211 0.0878561
v 5.03452 1.6715 0.0870158
v 5.02297 2.78812 0.0720499
v 5.00957 3.90466 0.0402125
v -3.80535 -3.89851 0.0657082
v -3.76608 -3.24687 0.0527656
v -3.62764 -1.95781 0.0350342
v -4.08703 -0.29444 0.0431609
v -4.11884 0.722515 0.0462796
v -4.1178 1.50931 0.0636031
v -4.06054 2.80247 0.0487276
v -3.91432 3.88854 0.0374717
v -2.67783 -4.05825 0.0577053
v -2.7546 -2.78747 0.0583704
v -2.63754 -2.19667 0.0515427
v -2.71696 -0.650468 0.0542994
v -2.75889 0.480904 0.0466289
v -2.69939 1.53103 0.0499885
v -2.82922 2.87345 0.0514323
v -2.72155 3.56792 0.0551924
v -1.61611 -4.28694 0.0395317
v -1.45778 -2.9769 0.03354
v -1.85236 -1.68448 0.069188
v -1.83988 -0.887458 0.0692773
v -1.494 0.606273 0.0500774
v -1.96102 1.66665 0.0464406
v -1.68307 2.71057 0.0487729
v -1.52013 3.72309 0.0465882
v -0.192143 -4.3703 0.0534298
v -0.54577 -2.93914 0.0420181
v -0.508479 -1.80192 0.0495858
v -0.805177 -0.825624 0.048879
v -0.572693 0.389876 0.0508648
v -0.335194 1.42202 0.053213
v -0.525245 2.6144 0.0481576
v -0.705433 3.50863 0.0567636
v 0.778233 -3.94474 0.0400119
v 0.852382 -2.65465 0.0633073
v 0.56214 -1.87711 0.0665614
v 0.647074 -0.543417 0.0350219
v 0.618579 0.361594 0.0539866
v 0.338356 1.47428 0.0583895
v 0.568536 2.4494 0.057401
v 0.592925 3.73339 0.0528214
v 1.99388 -3.70758 0.0634826
v 1.71533 -2.90074 0.0521667
v 1.86224 -1.97264 0.0453075
v 2.02305 -0.442846 0.0657843
v 2.0105 0.242005 0.0462229
v 1.8659 1.50126 0.035468
v 1.45838 2.77952 0.0597674
v 1.51721 3.62642 0.0452521
v 2.83684 -3.96682 0.0572939
v 3.14375 -2.88333 0.0582812
v 2.99538 -2.00511 0.0424494
v 2.76369 -0.543544 0.0493337
v 3.01417 0.250741 0.0560572
v 3.11678 1.55296 0.040637
v 2.81489 3.10994 0.0481054
v 2.77213 3.47903 0.0724219
v 3.96533 -4.00257 0.0371874
v 3.7071 -2.75141 0.068821
v 3.92063 -1.70918 0.0622062
v 3.86 -0.752958 0.0362293
v 3.92695 0.257451 0.0539681
v 4.22233 1.77847 0.0502012
v 4.17884 2.74518 0.0503363
v 4.05969 3.8693 0.0427383
vt 0.0001 0.0001
vt 0.9999 0.0001
vt 0.0001 0.9999
vt 0.9999 0.9999
vt 0.111189 0.0001
vt 0.222278 0.0001
vt 0.333367 0.0001
vt 0.444455 0.0001
vt 0.555544 0.0001
vt 0.666633 0.0001
vt 0.777722 0.0001
vt 0.888811 0.0001
vt 0.888811 0.9999
vt 0.777722 0.9999
vt 0.666633 0.9999
vt 0.555544 0.9999
vt 0.444455 0.9999
vt 0.333367 0.9999
vt 0.222278 0.9999
vt 0.111189 0.9999
vt 0.0001 0.888811
vt 0.0001 0.777722
vt 0.0001 0.666633
vt 0.0001 0.555544
vt 0.0001 0.444456
vt 0.0001 0.333367
vt 0.0001 0.222278
vt 0.0001 0.111189
vt 0.9999 0.111189
vt 0.9999 0.222278
vt 0.9999 0.333367
vt 0.9999 0.444456
vt 0.9999 0.555544
vt 0.9999 0.666633
vt 0.9999 0.777722
vt 0.9999 0.888811
vt 0.11727 0.115399
vt 0.120778 0.180369
vt 0.134636 0.309595
vt 0.088728 0.473895
vt 0.085886 0.575352
vt 0.086211 0.65375
vt 0.092207 0.78313
vt 0.106956 0.892282
vt 0.22987 0.102869
vt 0.221803 0.229552
vt 0.233521 0.288953
vt 0.225541 0.443179
vt 0.221596 0.556167
vt 0.227801 0.661237
vt 0.214896 0.795203
vt 0.22542 0.865181
vt 0.335524 0.082127
vt 0.351143 0.213907
vt 0.311934 0.342467
vt 0.313159 0.422214
vt 0.347791 0.572605
vt 0.301482 0.677733
vt 0.329031 0.783086
vt 0.344903 0.885466
vt 0.476837 0.074882
vt 0.441952 0.218774
vt 0.445749 0.333088
vt 0.416414 0.43099
vt 0.439746 0.552976
vt 0.463203 0.656843
vt 0.444252 0.77653
vt 0.426137 0.866051
vt 0.573419 0.117409
vt 0.581125 0.246686
vt 0.552512 0.326
vt 0.561075 0.459693
vt 0.558356 0.550596
vt 0.530299 0.662189
vt 0.553275 0.760113
vt 0.555478 0.888821
vt 0.694433 0.13996
vt 0.667048 0.221666
vt 0.681985 0.314267
vt 0.698218 0.467249
vt 0.696819 0.535952
vt 0.68253 0.662758
vt 0.642062 0.791726
vt 0.648523 0.877957
vt 0.778029 0.111667
vt 0.809426 0.219523
vt 0.794923 0.307783
vt 0.772028 0.454562
vt 0.796846 0.533374
vt 0.807262 0.663157
vt 0.778581 0.821037
vt 0.775122 0.858219
vt 0.890224 0.104741
vt 0.865679 0.23076
vt 0.887326 0.334104
vt 0.881307 0.429754
vt 0.887973 0.53063
vt 0.918106 0.681428
vt 0.915043 0.778027
vt 0.904815 0.89094
vn 0.0216046 0.0335537 0.999203
vn -0.0276267 0.0322607 0.999098
vn -0.0314307 -0.00115253 0.999505
vn 0.0394486 0.00164733 0.99922
vn 0.0161034 0.0213175 0.999643
vn 0.00839928 0.014415 0.999861
vn -0.0069598 0.0439181 0.999011
vn 0.0139419 0.0276953 0.999519
vn 0.0152857 -0.00992957 0.999834
vn -0.0162977 -0.00393789 0.999859
vn -0.0117052 0.0331305 0.999382
vn -0.0131057 0.0664547 0.997703
vn 0.0276544 -0.0382051 0.998887
vn 0.00116302 -0.017701 0.999843
vn 0.0060061 -0.0367133 0.999308
vn -0.0103419 -0.0228873 0.999685
vn 0.00487279 -0.0121384 0.999914
vn 0.00444746 -0.0502506 0.998727
vn -0.00971172 -0.0245794 0.999651
vn -0.026358 -0.0337383 0.999083
vn 0.00755769 0.0228637 0.99971
vn 0.0218322 0.0183676 0.999593
vn 0.0235946 -0.000143806 0.999722
vn 0.0438018 0.00295048 0.999036
vn 0.0526543 0.00122309 0.998612
vn 0.0420671 -0.00273704 0.999111
vn 0.0243213 -0.000365463 0.999704
vn 0.0110413 0.0161222 0.999809
vn -0.0605225 0.0194594 0.997977
vn -0.0106132 0.00403121 0.999936
vn -0.0104448 0.00286221 0.999941
vn -0.0299291 -0.0129849 0.999468
vn -0.0351117 -0.000518931 0.999383
vn -0.044408 0.00663478 0.998991
vn -0.0321237 0.0132718 0.999396
vn -0.00776146 0.0224783 0.999717
vn 0.0093546 0.0138558 0.99986
vn 0.005682 0.00997518 0.999934
vn 0.00582098 0.00398127 0.999975
vn 0.0237091 0.000256394 0.999719
vn 0.01705 -0.00828666 0.99982
vn 0.0129276 -0.00558089 0.999901
vn 0.00968086 0.0111786 0.999891
vn -0.0123274 -0.00343047 0.999918
vn 0.0109251 0.00342258 0.999934
vn 0.00173603 0.00732288 0.999972
vn -0.00693553 -0.00250096 0.999973
vn -0.0144862 -4.85251e-05 0.999895
vn -0.00357622 0.00270478 0.99999
vn 0.0044645 -0.00324717 0.999985
vn -0.00203901 -0.000420428 0.999998
vn -0.00309957 -0.00329037 0.99999
vn -0.000879567 0.0190892 0.999817
vn 0.00676215 -0.00606898 0.999959
vn 0.000984531 -0.00838119 0.999964
vn 0.000483949 0.00562989 0.999984
vn 0.000960767 0.00377828 0.999992
vn 0.000310268 -0.000238939 1
vn -0.000149105 -0.00256268 0.999997
vn 0.000320084 -0.0152042 0.999884
vn 0.0130271 0.00666512 0.999893
vn -0.00857242 -0.00248379 0.99996
vn -0.000502203 -0.000496023 1
vn 0.0119872 0.00195027 0.999926
vn -0.000959932 -0.00553025 0.999984
vn -0.00539964 0.00145479 0.999984
vn -0.00248309 -0.00172779 0.999995
vn -0.00311121 0.0001498 0.999995
vn -0.00530438 -0.0088221 0.999947
vn 0.0026896 -0.00759265 0.999968
vn -0.00185721 0.00674372 0.999976
vn -0.00278607 0.00274566 0.999992
vn 0.00386379 -0.00748664 0.999965
vn 0.00235432 -0.000999214 0.999997
vn -0.00147284 -0.00118163 0.999998
vn -0.00163684 -0.00189813 0.999997
vn -0.00652108 -0.000217482 0.999979
vn -0.00080805 0.0050398 0.999987
vn 0.00750568 0.000799752 0.999972
vn 7.63727e-05 0.00763011 0.999971
vn -0.00174557 0.00869016 0.999961
vn 0.00632366 -0.00340275 0.999974
vn 0.00535595 0.00081092 0.999985
vn -0.00252426 -0.0169844 0.999853
vn 0.00449811 0.00266576 0.999986
vn -0.00317461 0.00126883 0.999994
vn -0.00920978 0.0097211 0.99991
vn 0.0100068 -0.00177261 0.999948
vn -0.00105786 -0.00207082 0.999997
vn -0.00531817 0.00359617 0.999979
vn 0.00310311 -0.0189378 0.999816
vn 0.00288648 -0.0284357 0.999591
vn -0.0142692 0.0164505 0.999763
vn -0.00794271 -0.00421793 0.99996
vn -0.00884909 0.0124748 0.999883
vn -0.00981632 -0.00114355 0.999951
vn -0.0159944 -0.00318417 0.999867
vn -0.0275337 0.00409944 0.999613
vn -0.0103065 0.00579177 0.99993
vn 0.0173337 -0.0118343 0.99978
f 100/100/100 4/4/4 13/13/13
f 44/44/44 3/3/3 21/21/21
f 44/44/44 19/19/19 20/20/20
f 60/60/60 19/19/19 52/52/52
f 60/60/60 17/17/17 18/18/18
f 76/76/76 17/17/17 68/68/68
f 84/84/84 16/16/16 76/76/76
f 84/84/84 14/14/14 15/15/15
f 100/100/100 14/14/14 92/92/92
f 11/11/11 93/93/93 85/85/85
f 93/93/93 86/86/86 85/85/85
f 94/94/94 87/87/87 86/86/86
f 87/87/87 96/96/96 88/88/88
f 96/96/96 89/89/89 88/88/88
f 97/97/97 90/90/90 89/89/89
f 90/90/90 99/99/99 91/91/91
f 91/91/91 100/100/100 92/92/92
f 10/10/10 85/85/85 77/77/77
f 77/77/77 86/86/86 78/78/78
f 78/78/78 87/87/87 79/79/79
f 79/79/79 88/88/88 80/80/80
f 88/88/88 81/81/81 80/80/80
f 81/81/81 90/90/90 82/82/82
f 82/82/82 91/91/91 83/83/83
f 91/91/91 84/84/84 83/83/83
f 10/10/10 69/69/69 9/9/9
f 69/69/69 78/78/78 70/70/70
f 70/70/70 79/79/79 71/71/71
f 79/79/79 72/72/72 71/71/71
f 72/72/72 81/81/81 73/73/73
f 73/73/73 82/82/82 74/74/74
f 82/82/82 75/75/75 74/74/74
f 83/83/83 76/76/76 75/75/75
f 9/9/9 61/61/61 8/8/8
f 69/69/69 62/62/62 61/61/61
f 62/62/62 71/71/71 63/63/63
f 63/63/63 72/72/72 64/64/64
f 72/72/72 65/65/65 64/64/64
f 65/65/65 74/74/74 66/66/66
f 66/66/66 75/75/75 67/67/67
f 67/67/67 76/76/76 68/68/68
f 8/8/8 53/53/53 7/7/7
f 53/53/53 62/62/62 54/54/54
f 54/54/54 63/63/63 55/55/55
f 55/55/55 64/64/64 56/56/56
f 64/64/64 57/57/57 56/56/56
f 57/57/57 66/66/66 58/58/58
f 58/58/58 67/67/67 59/59/59
f 59/59/59 68/68/68 60/60/60
f 6/6/6 53/53/53 45/45/45
f 45/45/45 54/54/54 46/46/46
f 54/54/54 47/47/47 46/46/46
f 55/55/55 48/48/48 47/47/47
f 56/56/56 49/49/49 48/48/48
f 49/49/49 58/58/58 50/50/50
f 58/58/58 51/51/51 50/50/50
f 59/59/59 52/52/52 51/51/51
f 6/6/6 37/37/37 5/5/5
f 45/45/45 38/38/38 37/37/37
f 46/46/46 39/39/39 38/38/38
f 39/39/39 48/48/48 40/40/40
f 40/40/40 49/49/49 41/41/41
f 41/41/41 50/50/50 42/42/42
f 50/50/50 43/43/43 42/42/42
f 51/51/51 44/44/44 43/43/43
f 5/5/5 28/28/28 1/1/1
f 28/28/28 38/38/38 27/27/27
f 27/27/27 39/39/39 26/26/26
f 26/26/26 40/40/40 25/25/25
f 40/40/40 24/24/24 25/25/25
f 41/41/41 23/23/23 24/24/24
f 23/23/23 43/43/43 22/22/22
f 43/43/43 21/21/21 22/22/22
f 2/2/2 93/93/93 12/12/12
f 93/93/93 30/30/30 94/94/94
f 30/30/30 95/95/95 94/94/94
f 31/31/31 96/96/96 95/95/95
f 32/32/32 97/97/97 96/96/96
f 33/33/33 98/98/98 97/97/97
f 98/98/98 35/35/35 99/99/99
f 99/99/99 36/36/36 100/100/100
f 100/100/100 36/36/36 4/4/4
f 44/44/44 20/20/20 3/3/3
f 44/44/44 52/52/52 19/19/19
f 60/60/60 18/18/18 19/19/19
f 60/60/60 68/68/68 17/17/17
f 76/76/76 16/16/16 17/17/17
f 84/84/84 15/15/15 16/16/16
f 84/84/84 92/92/92 14/14/14
f 100/100/100 13/13/13 14/14/14
f 11/11/11 12/12/12 93/93/93
f 93/93/93 94/94/94 86/86/86
f 94/94/94 95/95/95 87/87/87
f 87/87/87 95/95/95 96/96/96
f 96/96/96 97/97/97 89/89/89
f 97/97/97 98/98/98 90/90/90
f 90/90/90 98/98/98 99/99/99
f 91/91/91 99/99/99 100/100/100
f 10/10/10 11/11/11 85/85/85
f 77/77/77 85/85/85 86/86/86
f 78/78/78 86/86/86 87/87/87
f 79/79/79 87/87/87 88/88/88
f 88/88/88 89/89/89 81/81/81
f 81/81/81 89/89/89 90/90/90
f 82/82/82 90/90/90 91/91/91
f 91/91/91 92/92/92 84/84/84
f 10/10/10 77/77/77 69/69/69
f 69/69/69 77/77/77 78/78/78
f 70/70/70 78/78/78 79/79/79
f 79/79/79 80/80/80 72/72/72
f 72/72/72 80/80/80 81/81/81
f 73/73/73 81/81/81 82/82/82
f 82/82/82 83/83/83 75/75/75
f 83/83/83 84/84/84 76/76/76
f 9/9/9 69/69/69 61/61/61
f 69/69/69 70/70/70 62/62/62
f 62/62/62 70/70/70 71/71/71
f 63/63/63 71/71/71 72/72/72
f 72/72/72 73/73/73 65/65/65
f 65/65/65 73/73/73 74/74/74
f 66/66/66 74/74/74 75/75/75
f 67/67/67 75/75/75 76/76/76
f 8/8/8 61/61/61 53/53/53
f 53/53/53 61/61/61 62/62/62
f 54/54/54 62/62/62 63/63/63
f 55/55/55 63/63/63 64/64/64
f 64/64/64 65/65/65 57/57/57
f 57/57/57 65/65/65 66/66/66
f 58/58/58 66/66/66 67/67/67
f 59/59/59 67/67/67 68/68/68
f 6/6/6 7/7/7 53/53/53
f 45/45/45 53/53/53 54/54/54
f 54/54/54 55/55/55 47/47/47
f 55/55/55 56/56/56 48/48/48
f 56/56/56 57/57/57 49/49/49
f 49/49/49 57/57/57 58/58/58
f 58/58/58 59/59/59 51/51/51
f 59/59/59 60/60/60 52/52/52
f 6/6/6 45/45/45 37/37/37
f 45/45/45 46/46/46 38/38/38
f 46/46/46 47/47/47 39/39/39
f 39/39/39 47/47/47 48/48/48
f 40/40/40 48/48/48 49/49/49
f 41/41/41 49/49/49 50/50/50
f 50/50/50 51/51/51 43/43/43
f 51/51/51 52/52/52 44/44/44
f 5/5/5 37/37/37 28/28/28
f 28/28/28 37/37/37 38/38/38
f 27/27/27 38/38/38 39/39/39
f 26/26/26 39/39/39 40/40/40
f 40/40/40 41/41/41 24/24/24
f 41/41/41 42/42/42 23/23/23
f 23/23/23 42/42/42 43/43/43
f 43/43/43 44/44/44 21/21/21
f 2/2/2 29/29/29 93/93/93
f 93/93/93 29/29/29 30/30/30
f 30/30/30 31/31/31 95/95/95
f 31/31/31 32/32/32 96/96/96
f 32/32/32 33/33/33 97/97/97
f 33/33/33 34/34/34 98/98/98
f 98/98/98 34/34/34 35/35/35
f 99/99/99 35/35/35 36/36/36
