o GNATVCloth
v -4.99865 -4.96532 0.618418
v 5.04863 -4.99356 0.390812
v -5.01298 5.02105 0.004229
v 4.98702 5.02105 0.004229
v -3.8995 -5.00809 0.454055
v -2.78629 -5.03516 0.463023
v -1.66724 -5.06585 0.432216
v -0.54537 -5.08787 0.428822
v 0.577474 -5.09424 0.394133
v 1.69897 -5.07709 0.388711
v 2.81902 -5.04948 0.398679
v 3.93599 -5.02638 0.327478
v 3.87525 4.88145 0.215516
v 2.77362 4.77358 0.433674
v 1.65225 4.74049 0.383985
v 0.532869 4.70173 0.41106
v -0.572246 4.67028 0.593306
v -1.6898 4.70628 0.502157
v -2.81423 4.74013 0.49109
v -3.90951 4.86159 0.249942
v -4.9746 3.9096 0.0952466
v -4.96293 2.7949 0.121906
v -4.96432 1.68125 0.155608
v -4.96689 0.568293 0.185158
v -4.96867 -0.54462 0.228679
v -4.97494 -1.65713 0.27938
v -4.98404 -2.76957 0.340987
v -4.99246 -3.87694 0.429781
v 5.02804 -3.88254 0.314833
v 5.00884 -2.77562 0.204683
v 4.99306 -1.66299 0.172369
v 4.98299 -0.550022 0.168865
v 4.98007 0.56362 0.160654
v 4.97662 1.67788 0.138359
v 4.97578 2.79292 0.12714
v 4.96565 3.90705 0.0720841
v -3.81922 -3.86001 0.419771
v -3.77844 -3.21442 0.356191
v -3.62929 -1.93123 0.274693
v -4.08023 -0.275759 0.19983
v -4.10715 0.742812 0.207276
v -4.10095 1.52903 0.154732
v -4.03625 2.82049 0.096476
v -3.93259 3.87727 -0.180981
v -2.69584 -4.01988 0.345064
v -2.76257 -2.75247 0.276272
v -2.64007 -2.16159 0.28322
v -2.71018 -0.614394 0.263439
v -2.74337 0.514528 0.219339
v -2.68596 1.54103 -0.00424006
v -2.85748 2.85068 -0.291826
v -2.76959 3.4898 -0.00514117
v -1.63853 -4.25234 0.382295
v -1.47476 -2.9379 0.409772
v -1.85776 -1.64342 0.387548
v -1.83306 -0.84821 0.310952
v -1.5381 0.571506 -0.20691
v -1.99824 1.63541 -0.304224
v -1.72659 2.66288 -0.100891
v -1.57534 3.62208 0.220665
v -0.217084 -4.34832 0.385644
v -0.568637 -2.9109 0.354163
v -0.525604 -1.77303 0.242802
v -0.827868 -0.8194 0.0536838
v -0.608101 0.377496 -0.153332
v -0.37477 1.38306 -0.183267
v -0.572939 2.55939 0.0237764
v -0.755191 3.41674 0.217384
v 0.75131 -3.92223 0.328053
v 0.82601 -2.64638 0.304397
v 0.53934 -1.86978 0.152671
v 0.622166 -0.558871 -0.104949
v 0.58901 0.349078 -0.12174
v 0.298819 1.43894 -0.116955
v 0.525658 2.39641 -0.00444176
v 0.551041 3.61199 0.332432
v 1.96449 -3.67698 0.306803
v 1.68481 -2.87329 0.410906
v 1.8244 -1.94623 0.351779
v 1.98838 -0.439436 0.0776981
v 1.98657 0.225942 -0.0900093
v 1.83233 1.48037 -0.181705
v 1.40875 2.74202 -0.0697756
v 1.49059 3.52675 0.257575
v 2.80693 -3.93743 0.29466
v 3.10669 -2.84998 0.292718
v 2.9565 -1.97914 0.40758
v 2.71301 -0.526148 0.248323
v 2.95884 0.265965 0.170329
v 3.08229 1.54227 -0.0858952
v 2.76861 3.10577 -0.211381
v 2.74709 3.43329 -0.0331341
v 3.93144 -3.9791 0.333259
v 3.66852 -2.72535 0.297083
v 3.87358 -1.6857 0.302689
v 3.80813 -0.731154 0.339585
v 3.86612 0.280305 0.290607
v 4.15788 1.7973 0.168163
v 4.13532 2.74975 0.00381383
v 4.03434 3.86534 -0.155736
vt 0.0001 0.0001
vt 0.9999 0.0001
vt 0.0001 0.9999
vt 0.9999 0.9999
vt 0.111189 0.0001
vt 0.222278 0.0001
vt 0.333367 0.0001
vt 0.444455 0.0001
vt 0.555544 0.0001
vt 0.666633 0.0001
vt 0.777722 0.0001
vt 0.888811 0.0001
vt 0.888811 0.9999
vt 0.777722 0.9999
vt 0.666633 0.9999
vt 0.555544 0.9999
vt 0.444455 0.9999
vt 0.333367 0.9999
vt 0.222278 0.9999
vt 0.111189 0.9999
vt 0.0001 0.888811
vt 0.0001 0.777722
vt 0.0001 0.666633
vt 0.0001 0.555544
vt 0.0001 0.444456
vt 0.0001 0.333367
vt 0.0001 0.222278
vt 0.0001 0.111189
vt 0.9999 0.111189
vt 0.9999 0.222278
vt 0.9999 0.333367
vt 0.9999 0.444456
vt 0.9999 0.555544
vt 0.9999 0.666633
vt 0.9999 0.777722
vt 0.9999 0.888811
vt 0.11727 0.115399
vt 0.120778 0.180369
vt 0.134636 0.309595
vt 0.088728 0.473895
vt 0.085886 0.575352
vt 0.086211 0.65375
vt 0.092207 0.78313
vt 0.106956 0.892282
vt 0.22987 0.102869
vt 0.221803 0.229552
vt 0.233521 0.288953
vt 0.225541 0.443179
vt 0.221596 0.556167
vt 0.227801 0.661237
vt 0.214896 0.795203
vt 0.22542 0.865181
vt 0.335524 0.082127
vt 0.351143 0.213907
vt 0.311934 0.342467
vt 0.313159 0.422214
vt 0.347791 0.572605
vt 0.301482 0.677733
vt 0.329031 0.783086
vt 0.344903 0.885466
vt 0.476837 0.074882
vt 0.441952 0.218774
vt 0.445749 0.333088
vt 0.416414 0.43099
vt 0.439746 0.552976
vt 0.463203 0.656843
vt 0.444252 0.77653
vt 0.426137 0.866051
vt 0.573419 0.117409
vt 0.581125 0.246686
vt 0.552512 0.326
vt 0.561075 0.459693
vt 0.558356 0.550596
vt 0.530299 0.662189
vt 0.553275 0.760113
vt 0.555478 0.888821
vt 0.694433 0.13996
vt 0.667048 0.221666
vt 0.681985 0.314267
vt 0.698218 0.467249
vt 0.696819 0.535952
vt 0.68253 0.662758
vt 0.642062 0.791726
vt 0.648523 0.877957
vt 0.778029 0.111667
vt 0.809426 0.219523
vt 0.794923 0.307783
vt 0.772028 0.454562
vt 0.796846 0.533374
vt 0.807262 0.663157
vt 0.778581 0.821037
vt 0.775122 0.858219
vt 0.890224 0.104741
vt 0.865679 0.23076
vt 0.887326 0.334104
vt 0.881307 0.429754
vt 0.887973 0.53063
vt 0.918106 0.681428
vt 0.915043 0.778027
vt 0.904815 0.89094
vn 0.152181 0.167945 0.973979
vn -0.0229905 0.031371 0.999243
vn 0.0024724 -0.15757 0.987505
vn -0.0131652 -0.126438 0.991887
vn 0.0512359 0.0762263 0.995773
vn 0.0234386 0.0787698 0.996617
vn 0.01667 0.0606545 0.99802
vn 0.0122872 0.0544055 0.998443
vn 0.0240316 0.0503319 0.998443
vn 0.00734485 0.0646598 0.99788
vn 0.00729617 0.0602903 0.998154
vn 0.00353736 -0.00550511 0.999979
vn 0.214163 -0.305457 0.927809
vn 0.141485 -0.266791 0.953312
vn -0.00671147 -0.102702 0.99469
vn 0.0884362 -0.0821582 0.992688
vn -0.00774185 -0.223614 0.974647
vn -0.0519998 -0.2561 0.965251
vn -0.162492 -0.345179 0.924364
vn -0.246069 -0.383861 0.89
vn 0.18203 0.11233 0.976856
vn 0.0266712 0.027193 0.999274
vn 0.00427942 0.0420148 0.999108
vn -0.0115329 0.0192386 0.999748
vn 0.0196579 0.0422242 0.998915
vn 0.0156092 0.0498015 0.998637
vn 0.0139827 0.0657168 0.99774
vn 0.0462067 0.0939432 0.994505
vn 0.00936361 0.0837987 0.996439
vn 0.065443 0.0386433 0.997108
vn 0.124811 0.00149087 0.992179
vn 0.131604 0.0173591 0.99115
vn 0.0846124 0.0295526 0.995976
vn 0.0385731 0.0150964 0.999142
vn -0.0875473 0.0745088 0.99337
vn -0.209682 0.0758066 0.974827
vn 0.0337102 0.0716623 0.996859
vn 0.0364339 0.0744354 0.99656
vn 0.00523536 0.0373515 0.999288
vn -0.00803491 0.0272358 0.999597
vn 0.0142259 0.0592955 0.998139
vn 0.0610122 0.0540263 0.996674
vn 0.148823 0.118147 0.98178
vn -0.0295296 -0.150336 0.988194
vn 0.0115143 0.0679783 0.99762
vn -0.0207845 0.0326689 0.99925
vn -0.0750868 8.04802e-05 0.997177
vn -0.0482257 0.0377522 0.998123
vn 0.136394 0.138138 0.980976
vn 0.216041 0.165549 0.962247
vn 0.0539403 -0.0329794 0.997999
vn -0.201903 -0.354464 0.913012
vn 0.00685731 0.038939 0.999218
vn -0.017749 0.020182 0.999639
vn 0.0338034 0.0763548 0.996508
vn 0.144845 0.158567 0.976666
vn 0.122623 0.179974 0.975998
vn 0.0857556 0.0318298 0.995808
vn -0.145277 -0.255187 0.955916
vn -0.0870984 -0.293815 0.951886
vn 0.022742 0.0414929 0.99888
vn 0.0412444 0.0605183 0.997315
vn 0.0932878 0.145588 0.984937
vn 0.122266 0.193377 0.973476
vn -0.0241632 0.0719599 0.997115
vn -0.0684026 -0.0503489 0.996387
vn -0.0692624 -0.211339 0.974956
vn -0.0716674 -0.268218 0.960689
vn 0.00693172 0.0177679 0.999818
vn -0.0665135 0.0904665 0.993676
vn -0.0183768 0.162752 0.986496
vn -0.0294968 0.154359 0.987574
vn -0.00963572 0.0203047 0.999747
vn -0.0263678 -0.0349089 0.999043
vn 0.0352758 -0.165321 0.985609
vn 0.0492341 -0.226759 0.972706
vn 0.0350889 -0.0212265 0.999159
vn -0.00956922 -0.02605 0.999615
vn -0.118379 0.140016 0.983047
vn -0.173493 0.217498 0.960518
vn -0.141777 0.147119 0.978905
vn 0.0178003 -0.00397039 0.999834
vn 0.126473 -0.234189 0.963929
vn 0.094967 -0.268504 0.958586
vn -0.00627394 0.0495455 0.998752
vn 0.025929 -0.0513827 0.998342
vn 0.0277843 -0.00472961 0.999603
vn -0.139108 0.155144 0.978049
vn -0.170262 0.154421 0.973224
vn -0.174153 0.126948 0.976501
vn 0.0557978 -0.16664 0.984438
vn 0.197666 -0.393115 0.897992
vn 0.00225052 0.0413168 0.999144
vn 0.0538177 -0.0212907 0.998324
vn 0.109087 -0.0156567 0.993909
vn 0.037809 0.0365815 0.998615
vn -0.0284371 0.0841662 0.996046
vn -0.0831963 0.0912501 0.992347
vn -0.178081 0.111404 0.977689
vn 0.0387692 -0.162442 0.985956
f 100/100/100 4/4/4 13/13/13
f 44/44/44 3/3/3 21/21/21
f 44/44/44 19/19/19 20/20/20
f 60/60/60 19/19/19 52/52/52
f 60/60/60 17/17/17 18/18/18
f 76/76/76 17/17/17 68/68/68
f 84/84/84 16/16/16 76/76/76
f 84/84/84 14/14/14 15/15/15
f 100/100/100 14/14/14 92/92/92
f 11/11/11 93/93/93 85/85/85
f 93/93/93 86/86/86 85/85/85
f 94/94/94 87/87/87 86/86/86
f 87/87/87 96/96/96 88/88/88
f 96/96/96 89/89/89 88/88/88
f 97/97/97 90/90/90 89/89/89
f 90/90/90 99/99/99 91/91/91
f 91/91/91 100/100/100 92/92/92
f 10/10/10 85/85/85 77/77/77
f 77/77/77 86/86/86 78/78/78
f 78/78/78 87/87/87 79/79/79
f 79/79/79 88/88/88 80/80/80
f 88/88/88 81/81/81 80/80/80
f 81/81/81 90/90/90 82/82/82
f 82/82/82 91/91/91 83/83/83
f 91/91/91 84/84/84 83/83/83
f 10/10/10 69/69/69 9/9/9
f 69/69/69 78/78/78 70/70/70
f 70/70/70 79/79/79 71/71/71
f 79/79/79 72/72/72 71/71/71
f 72/72/72 81/81/81 73/73/73
f 73/73/73 82/82/82 74/74/74
f 82/82/82 75/75/75 74/74/74
f 83/83/83 76/76/76 75/75/75
f 9/9/9 61/61/61 8/8/8
f 69/69/69 62/62/62 61/61/61
f 62/62/62 71/71/71 63/63/63
f 63/63/63 72/72/72 64/64/64
f 72/72/72 65/65/65 64/64/64
f 65/65/65 74/74/74 66/66/66
f 66/66/66 75/75/75 67/67/67
f 67/67/67 76/76/76 68/68/68
f 8/8/8 53/53/53 7/7/7
f 53/53/53 62/62/62 54/54/54
f 54/54/54 63/63/63 55/55/55
f 55/55/55 64/64/64 56/56/56
f 64/64/64 57/57/57 56/56/56
f 57/57/57 66/66/66 58/58/58
f 58/58/58 67/67/67 59/59/59
f 59/59/59 68/68/68 60/60/60
f 6/6/6 53/53/53 45/45/45
f 45/45/45 54/54/54 46/46/46
f 54/54/54 47/47/47 46/46/46
f 55/55/55 48/48/48 47/47/47
f 56/56/56 49/49/49 48/48/48
f 49/49/49 58/58/58 50/50/50
f 58/58/58 51/51/51 50/50/50
f 59/59/59 52/52/52 51/51/51
f 6/6/6 37/37/37 5/5/5
f 45/45/45 38/38/38 37/37/37
f 46/46/46 39/39/39 38/38/38
f 39/39/39 48/48/48 40/40/40
f 40/40/40 49/49/49 41/41/41
f 41/41/41 50/50/50 42/42/42
f 50/50/50 43/43/43 42/42/42
f 51/51/51 44/44/44 43/43/43
f 5/5/5 28/28/28 1/1/1
f 28/28/28 38/38/38 27/27/27
f 27/27/27 39/39/39 26/26/26
f 26/26/26 40/40/40 25/25/25
f 40/40/40 24/24/24 25/25/25
f 41/41/41 23/23/23 24/24/24
f 23/23/23 43/43/43 22/22/22
f 43/43/43 21/21/21 22/22/22
f 2/2/2 93/93/93 12/12/12
f 93/93/93 30/30/30 94/94/94
f 30/30/30 95/95/95 94/94/94
f 31/31/31 96/96/96 95/95/95
f 32/32/32 97/97/97 96/96/96
f 33/33/33 98/98/98 97/97/97
f 98/98/98 35/35/35 99/99/99
f 99/99/99 36/36/36 100/100/100
f 100/100/100 36/36/36 4/4/4
f 44/44/44 20/20/20 3/3/3
f 44/44/44 52/52/52 19/19/19
f 60/60/60 18/18/18 19/19/19
f 60/60/60 68/68/68 17/17/17
f 76/76/76 16/16/16 17/17/17
f 84/84/84 15/15/15 16/16/16
f 84/84/84 92/92/92 14/14/14
f 100/100/100 13/13/13 14/14/14
f 11/11/11 12/12/12 93/93/93
f 93/93/93 94/94/94 86/86/86
f 94/94/94 95/95/95 87/87/87
f 87/87/87 95/95/95 96/96/96
f 96/96/96 97/97/97 89/89/89
f 97/97/97 98/98/98 90/90/90
f 90/90/90 98/98/98 99/99/99
f 91/91/91 99/99/99 100/100/100
f 10/10/10 11/11/11 85/85/85
f 77/77/77 85/85/85 86/86/86
f 78/78/78 86/86/86 87/87/87
f 79/79/79 87/87/87 88/88/88
f 88/88/88 89/89/89 81/81/81
f 81/81/81 89/89/89 90/90/90
f 82/82/82 90/90/90 91/91/91
f 91/91/91 92/92/92 84/84/84
f 10/10/10 77/77/77 69/69/69
f 69/69/69 77/77/77 78/78/78
f 70/70/70 78/78/78 79/79/79
f 79/79/79 80/80/80 72/72/72
f 72/72/72 80/80/80 81/81/81
f 73/73/73 81/81/81 82/82/82
f 82/82/82 83/83/83 75/75/75
f 83/83/83 84/84/84 76/76/76
f 9/9/9 69/69/69 61/61/61
f 69/69/69 70/70/70 62/62/62
f 62/62/62 70/70/70 71/71/71
f 63/63/63 71/71/71 72/72/72
f 72/72/72 73/73/73 65/65/65
f 65/65/65 73/73/73 74/74/74
f 66/66/66 74/74/74 75/75/75
f 67/67/67 75/75/75 76/76/76
f 8/8/8 61/61/61 53/53/53
f 53/53/53 61/61/61 62/62/62
f 54/54/54 62/62/62 63/63/63
f 55/55/55 63/63/63 64/64/64
f 64/64/64 65/65/65 57/57/57
f 57/57/57 65/65/65 66/66/66
f 58/58/58 66/66/66 67/67/67
f 59/59/59 67/67/67 68/68/68
f 6/6/6 7/7/7 53/53/53
f 45/45/45 53/53/53 54/54/54
f 54/54/54 55/55/55 47/47/47
f 55/55/55 56/56/56 48/48/48
f 56/56/56 57/57/57 49/49/49
f 49/49/49 57/57/57 58/58/58
f 58/58/58 59/59/59 51/51/51
f 59/59/59 60/60/60 52/52/52
f 6/6/6 45/45/45 37/37/37
f 45/45/45 46/46/46 38/38/38
f 46/46/46 47/47/47 39/39/39
f 39/39/39 47/47/47 48/48/48
f 40/40/40 48/48/48 49/49/49
f 41/41/41 49/49/49 50/50/50
f 50/50/50 51/51/51 43/43/43
f 51/51/51 52/52/52 44/44/44
f 5/5/5 37/37/37 28/28/28
f 28/28/28 37/37/37 38/38/38
f 27/27/27 38/38/38 39/39/39
f 26/26/26 39/39/39 40/40/40
f 40/40/40 41/41/41 24/24/24
f 41/41/41 42/42/42 23/23/23
f 23/23/23 42/42/42 43/43/43
f 43/43/43 44/44/44 21/21/21
f 2/2/2 29/29/29 93/93/93
f 93/93/93 29/29/29 30/30/30
f 30/30/30 31/31/31 95/95/95
f 31/31/31 32/32/32 96/96/96
f 32/32/32 33/33/33 97/97/97
f 33/33/33 34/34/34 98/98/98
f 98/98/98 34/34/34 35/35/35
f 99/99/99 35/35/35 36/36/36
