o GNATVCloth
v -5.02572 -4.98026 0.605824
v 5.06581 -4.99019 0.398994
v -5.01298 5.02105 0.004229
v 4.98702 5.02105 0.004229
v -3.91446 -5.02055 0.504879
v -2.79489 -5.04837 0.485119
v -1.67274 -5.0767 0.458455
v -0.547429 -5.08809 0.458415
v 0.58067 -5.08202 0.494542
v 1.70515 -5.07217 0.46911
v 2.8275 -5.04624 0.442348
v 3.94731 -5.01781 0.391578
v 3.87055 4.89742 0.212509
v 2.7604 4.80292 0.404737
v 1.63978 4.74636 0.315179
v 0.519085 4.70271 0.303036
v -0.583025 4.68444 0.501613
v -1.69698 4.69477 0.607994
v -2.81353 4.7528 0.497472
v -3.90877 4.86111 0.249417
v -4.97068 3.90815 0.0824198
v -4.9692 2.79372 0.136434
v -4.97466 1.67984 0.191321
v -4.98015 0.565838 0.239093
v -4.98595 -0.547967 0.276278
v -4.99344 -1.66107 0.31926
v -5.00139 -2.77218 0.379515
v -5.01133 -3.88155 0.467285
v 5.04302 -3.88029 0.32898
v 5.02698 -2.77288 0.21849
v 5.01669 -1.66019 0.21143
v 5.00721 -0.547752 0.203552
v 4.99768 0.565178 0.198477
v 4.98676 1.67892 0.168055
v 4.97853 2.79335 0.134054
v 4.96913 3.90663 0.0648914
v -3.83787 -3.87162 0.398177
v -3.80028 -3.22947 0.300626
v -3.64946 -1.94188 0.259789
v -4.10058 -0.282667 0.23226
v -4.12416 0.734215 0.181511
v -4.11596 1.51623 0.121118
v -4.0498 2.80907 0.0411645
v -3.92337 3.87556 -0.179941
v -2.7086 -4.03789 0.315359
v -2.78195 -2.76751 0.330956
v -2.65852 -2.17988 0.287715
v -2.73271 -0.6345 0.28163
v -2.76597 0.494022 0.183349
v -2.69329 1.53476 0.0463128
v -2.84351 2.84548 -0.243992
v -2.76399 3.48941 0.0358638
v -1.64417 -4.26674 0.352607
v -1.48406 -2.95429 0.403842
v -1.87327 -1.66235 0.375386
v -1.85586 -0.870173 0.29839
v -1.51468 0.593182 -0.02052
v -1.98053 1.64509 -0.182217
v -1.7055 2.68366 -0.0776094
v -1.58669 3.5784 0.352918
v -0.218548 -4.35343 0.402057
v -0.571279 -2.91706 0.454482
v -0.529495 -1.77693 0.358613
v -0.82071 -0.808717 0.241233
v -0.592476 0.391474 0.0469962
v -0.36244 1.4134 0.0044353
v -0.573805 2.57407 0.177277
v -0.762048 3.38553 0.364777
v 0.753988 -3.92268 0.373351
v 0.828842 -2.63435 0.399976
v 0.541089 -1.84747 0.3581
v 0.625495 -0.55155 0.026806
v 0.597705 0.358047 0.0408684
v 0.309353 1.46452 -0.0111676
v 0.526448 2.42931 0.112302
v 0.548442 3.61055 0.397365
v 1.97055 -3.67427 0.312496
v 1.69419 -2.86605 0.411675
v 1.8395 -1.93582 0.410506
v 1.99578 -0.424494 0.163805
v 1.99044 0.232658 -0.0362871
v 1.83742 1.49314 -0.0260726
v 1.41241 2.75968 0.0532142
v 1.48901 3.52819 0.308756
v 2.81537 -3.93834 0.325622
v 3.1217 -2.85269 0.319728
v 2.9699 -1.97544 0.332959
v 2.72783 -0.51275 0.305353
v 2.97249 0.272024 0.180726
v 3.0895 1.54291 -0.0949649
v 2.76648 3.10993 -0.14408
v 2.74744 3.43684 0.0340796
v 3.94532 -3.97864 0.325907
v 3.68428 -2.72453 0.302456
v 3.89324 -1.68807 0.29796
v 3.82596 -0.729657 0.309808
v 3.88139 0.280977 0.278799
v 4.16692 1.79639 0.146438
v 4.1441 2.74679 -0.0258583
v 4.02964 3.86822 -0.124227
vt 0.0001 0.0001
vt 0.9999 0.0001
vt 0.0001 0.9999
vt 0.9999 0.9999
vt 0.111189 0.0001
vt 0.222278 0.0001
vt 0.333367 0.0001
vt 0.444455 0.0001
vt 0.555544 0.0001
vt 0.666633 0.0001
vt 0.777722 0.0001
vt 0.888811 0.0001
vt 0.888811 0.9999
vt 0.777722 0.9999
vt 0.666633 0.9999
vt 0.555544 0.9999
vt 0.444455 0.9999
vt 0.333367 0.9999
vt 0.222278 0.9999
vt 0.111189 0.9999
vt 0.0001 0.888811
vt 0.0001 0.777722
vt 0.0001 0.666633
vt 0.0001 0.555544
vt 0.0001 0.444456
vt 0.0001 0.333367
vt 0.0001 0.222278
vt 0.0001 0.111189
vt 0.9999 0.111189
vt 0.9999 0.222278
vt 0.9999 0.333367
vt 0.9999 0.444456
vt 0.9999 0.555544
vt 0.9999 0.666633
vt 0.9999 0.777722
vt 0.9999 0.888811
vt 0.11727 0.115399
vt 0.120778 0.180369
vt 0.134636 0.309595
vt 0.088728 0.473895
vt 0.085886 0.575352
vt 0.086211 0.65375
vt 0.092207 0.78313
vt 0.106956 0.892282
vt 0.22987 0.102869
vt 0.221803 0.229552
vt 0.233521 0.288953
vt 0.225541 0.443179
vt 0.221596 0.556167
vt 0.227801 0.661237
vt 0.214896 0.795203
vt 0.22542 0.865181
vt 0.335524 0.082127
vt 0.351143 0.213907
vt 0.311934 0.342467
vt 0.313159 0.422214
vt 0.347791 0.572605
vt 0.301482 0.677733
vt 0.329031 0.783086
vt 0.344903 0.885466
vt 0.476837 0.074882
vt 0.441952 0.218774
vt 0.445749 0.333088
vt 0.416414 0.43099
vt 0.439746 0.552976
vt 0.463203 0.656843
vt 0.444252 0.77653
vt 0.426137 0.866051
vt 0.573419 0.117409
vt 0.581125 0.246686
vt 0.552512 0.326
vt 0.561075 0.459693
vt 0.558356 0.550596
vt 0.530299 0.662189
vt 0.553275 0.760113
vt 0.555478 0.888821
vt 0.694433 0.13996
vt 0.667048 0.221666
vt 0.681985 0.314267
vt 0.698218 0.467249
vt 0.696819 0.535952
vt 0.68253 0.662758
vt 0.642062 0.791726
vt 0.648523 0.877957
vt 0.778029 0.111667
vt 0.809426 0.219523
vt 0.794923 0.307783
vt 0.772028 0.454562
vt 0.796846 0.533374
vt 0.807262 0.663157
vt 0.778581 0.821037
vt 0.775122 0.858219
vt 0.890224 0.104741
vt 0.865679 0.23076
vt 0.887326 0.334104
vt 0.881307 0.429754
vt 0.887973 0.53063
vt 0.918106 0.681428
vt 0.915043 0.778027
vt 0.904815 0.89094
vn 0.0942098 0.123331 0.987884
vn -0.00829627 0.0629174 0.997984
vn -0.00438376 -0.162802 0.986649
vn 0.00333641 -0.113477 0.993535
vn 0.0573207 0.10105 0.993229
vn 0.0357731 0.135732 0.9901
vn 0.0140753 0.12908 0.991534
vn -0.0200444 0.103289 0.994449
vn -0.00954201 0.0994226 0.995
vn 0.0223121 0.104914 0.994231
vn 0.022798 0.0909951 0.99559
vn 0.0177204 0.0630945 0.99785
vn 0.196281 -0.277373 0.940499
vn 0.126408 -0.200774 0.971448
vn -0.0453158 0.000341793 0.998973
vn 0.0888759 0.0581424 0.994344
vn 0.0559343 -0.0826069 0.995011
vn -0.00845071 -0.223532 0.97466
vn -0.21284 -0.32578 0.921177
vn -0.246351 -0.384019 0.889854
vn 0.19778 0.0985232 0.975283
vn 0.10215 0.0483759 0.993592
vn 0.0871521 0.0558513 0.994628
vn 0.0518305 0.0422351 0.997762
vn 0.0389449 0.0357177 0.998603
vn 0.0480041 0.0407589 0.998015
vn 0.0747949 0.0514438 0.995871
vn 0.0759663 0.109108 0.991123
vn -0.0100437 0.0809575 0.996667
vn 0.0477179 0.0325022 0.998332
vn 0.0806621 0.00263994 0.996738
vn 0.081495 0.012942 0.99659
vn 0.0333712 0.0365118 0.998776
vn -0.0222376 0.0287021 0.999341
vn -0.13661 0.0871256 0.986786
vn -0.196605 0.060371 0.978622
vn 0.0647047 0.12561 0.989967
vn 0.0416758 0.0693946 0.996718
vn 0.00883508 0.0328114 0.999423
vn 0.0207256 0.0423842 0.998886
vn 0.048649 0.07083 0.996301
vn 0.072685 0.0669646 0.995104
vn 0.148088 0.113311 0.982461
vn -0.0528183 -0.159074 0.985853
vn 0.0110098 0.0676808 0.997646
vn -0.0365318 0.0332016 0.998781
vn -0.059358 0.0299673 0.997787
vn -0.029101 0.0464716 0.998496
vn 0.0853954 0.121824 0.988871
vn 0.15023 0.141521 0.978469
vn 0.0141549 -0.0246954 0.999595
vn -0.236122 -0.361887 0.901823
vn -0.0191504 0.0575572 0.998159
vn -0.0496873 0.0147813 0.998655
vn -0.0201741 0.0559882 0.998228
vn 0.0494936 0.132506 0.989946
vn 0.0221335 0.154746 0.987706
vn 0.012 0.0579622 0.998247
vn -0.189099 -0.263811 0.945857
vn -0.100503 -0.288186 0.952286
vn -0.0151541 0.0430827 0.998957
vn -0.0047603 0.014966 0.999877
vn 0.0200691 0.121131 0.992434
vn 0.0531414 0.147446 0.987641
vn 0.00945851 0.0715665 0.997391
vn -0.0340931 -0.0409964 0.998577
vn -0.0868863 -0.181275 0.979587
vn -0.0764946 -0.22565 0.971201
vn 0.024002 0.0209682 0.999492
vn 0.000143885 0.0125212 0.999922
vn -0.00218538 0.136879 0.990585
vn 0.00726078 0.153569 0.988111
vn 0.0258796 0.013499 0.999574
vn 0.0162684 -0.025873 0.999533
vn 0.0573693 -0.15204 0.986708
vn 0.075659 -0.135918 0.987827
vn 0.0337978 0.00508036 0.999416
vn 0.0393296 -0.0379478 0.998505
vn -0.0309603 0.0949759 0.994998
vn -0.137834 0.231014 0.963138
vn -0.0789238 0.145765 0.986166
vn 0.0589115 -0.0127445 0.998182
vn 0.133151 -0.188241 0.973055
vn 0.0929972 -0.188102 0.977737
vn 0.00606283 0.0665138 0.997767
vn 0.0291164 -0.0124437 0.999499
vn 0.0448984 0.00191804 0.99899
vn -0.073998 0.148268 0.986175
vn -0.126201 0.171365 0.977091
vn -0.115316 0.115407 0.986602
vn 0.101737 -0.165739 0.980908
vn 0.202584 -0.360741 0.910399
vn 0.013453 0.0568133 0.998294
vn 0.0445459 0.00694267 0.998983
vn 0.0591081 -0.0042187 0.998243
vn 0.0300026 0.0317504 0.999045
vn -0.0424555 0.0833412 0.995616
vn -0.115357 0.101263 0.988149
vn -0.164629 0.0931958 0.981943
vn 0.0580397 -0.157761 0.98577
f 100/100/100 4/4/4 13/13/13
f 44/44/44 3/3/3 21/21/21
f 44/44/44 19/19/19 20/20/20
f 60/60/60 19/19/19 52/52/52
f 60/60/60 17/17/17 18/18/18
f 76/76/76 17/17/17 68/68/68
f 84/84/84 16/16/16 76/76/76
f 84/84/84 14/14/14 15/15/15
f 100/100/100 14/14/14 92/92/92
f 11/11/11 93/93/93 85/85/85
f 93/93/93 86/86/86 85/85/85
f 94/94/94 87/87/87 86/86/86
f 87/87/87 96/96/96 88/88/88
f 96/96/96 89/89/89 88/88/88
f 97/97/97 90/90/90 89/89/89
f 90/90/90 99/99/99 91/91/91
f 91/91/91 100/100/100 92/92/92
f 10/10/10 85/85/85 77/77/77
f 77/77/77 86/86/86 78/78/78
f 78/78/78 87/87/87 79/79/79
f 79/79/79 88/88/88 80/80/80
f 88/88/88 81/81/81 80/80/80
f 81/81/81 90/90/90 82/82/82
f 82/82/82 91/91/91 83/83/83
f 91/91/91 84/84/84 83/83/83
f 10/10/10 69/69/69 9/9/9
f 69/69/69 78/78/78 70/70/70
f 70/70/70 79/79/79 71/71/71
f 79/79/79 72/72/72 71/71/71
f 72/72/72 81/81/81 73/73/73
f 73/73/73 82/82/82 74/74/74
f 82/82/82 75/75/75 74/74/74
f 83/83/83 76/76/76 75/75/75
f 9/9/9 61/61/61 8/8/8
f 69/69/69 62/62/62 61/61/61
f 62/62/62 71/71/71 63/63/63
f 63/63/63 72/72/72 64/64/64
f 72/72/72 65/65/65 64/64/64
f 65/65/65 74/74/74 66/66/66
f 66/66/66 75/75/75 67/67/67
f 67/67/67 76/76/76 68/68/68
f 8/8/8 53/53/53 7/7/7
f 53/53/53 62/62/62 54/54/54
f 54/54/54 63/63/63 55/55/55
f 55/55/55 64/64/64 56/56/56
f 64/64/64 57/57/57 56/56/56
f 57/57/57 66/66/66 58/58/58
f 58/58/58 67/67/67 59/59/59
f 59/59/59 68/68/68 60/60/60
f 6/6/6 53/53/53 45/45/45
f 45/45/45 54/54/54 46/46/46
f 54/54/54 47/47/47 46/46/46
f 55/55/55 48/48/48 47/47/47
f 56/56/56 49/49/49 48/48/48
f 49/49/49 58/58/58 50/50/50
f 58/58/58 51/51/51 50/50/50
f 59/59/59 52/52/52 51/51/51
f 6/6/6 37/37/37 5/5/5
f 45/45/45 38/38/38 37/37/37
f 46/46/46 39/39/39 38/38/38
f 39/39/39 48/48/48 40/40/40
f 40/40/40 49/49/49 41/41/41
f 41/41/41 50/50/50 42/42/42
f 50/50/50 43/43/43 42/42/42
f 51/51/51 44/44/44 43/43/43
f 5/5/5 28/28/28 1/1/1
f 28/28/28 38/38/38 27/27/27
f 27/27/27 39/39/39 26/26/26
f 26/26/26 40/40/40 25/25/25
f 40/40/40 24/24/24 25/25/25
f 41/41/41 23/23/23 24/24/24
f 23/23/23 43/43/43 22/22/22
f 43/43/43 21/21/21 22/22/22
f 2/2/2 93/93/93 12/12/12
f 93/93/93 30/30/30 94/94/94
f 30/30/30 95/95/95 94/94/94
f 31/31/31 96/96/96 95/95/95
f 32/32/32 97/97/97 96/96/96
f 33/33/33 98/98/98 97/97/97
f 98/98/98 35/35/35 99/99/99
f 99/99/99 36/36/36 100/100/100
f 100/100/100 36/36/36 4/4/4
f 44/44/44 20/20/20 3/3/3
f 44/44/44 52/52/52 19/19/19
f 60/60/60 18/18/18 19/19/19
f 60/60/60 68/68/68 17/17/17
f 76/76/76 16/16/16 17/17/17
f 84/84/84 15/15/15 16/16/16
f 84/84/84 92/92/92 14/14/14
f 100/100/100 13/13/13 14/14/14
f 11/11/11 12/12/12 93/93/93
f 93/93/93 94/94/94 86/86/86
f 94/94/94 95/95/95 87/87/87
f 87/87/87 95/95/95 96/96/96
f 96/96/96 97/97/97 89/89/89
f 97/97/97 98/98/98 90/90/90
f 90/90/90 98/98/98 99/99/99
f 91/91/91 99/99/99 100/100/100
f 10/10/10 11/11/11 85/85/85
f 77/77/77 85/85/85 86/86/86
f 78/78/78 86/86/86 87/87/87
f 79/79/79 87/87/87 88/88/88
f 88/88/88 89/89/89 81/81/81
f 81/81/81 89/89/89 90/90/90
f 82/82/82 90/90/90 91/91/91
f 91/91/91 92/92/92 84/84/84
f 10/10/10 77/77/77 69/69/69
f 69/69/69 77/77/77 78/78/78
f 70/70/70 78/78/78 79/79/79
f 79/79/79 80/80/80 72/72/72
f 72/72/72 80/80/80 81/81/81
f 73/73/73 81/81/81 82/82/82
f 82/82/82 83/83/83 75/75/75
f 83/83/83 84/84/84 76/76/76
f 9/9/9 69/69/69 61/61/61
f 69/69/69 70/70/70 62/62/62
f 62/62/62 70/70/70 71/71/71
f 63/63/63 71/71/71 72/72/72
f 72/72/72 73/73/73 65/65/65
f 65/65/65 73/73/73 74/74/74
f 66/66/66 74/74/74 75/75/75
f 67/67/67 75/75/75 76/76/76
f 8/8/8 61/61/61 53/53/53
f 53/53/53 61/61/61 62/62/62
f 54/54/54 62/62/62 63/63/63
f 55/55/55 63/63/63 64/64/64
f 64/64/64 65/65/65 57/57/57
f 57/57/57 65/65/65 66/66/66
f 58/58/58 66/66/66 67/67/67
f 59/59/59 67/67/67 68/68/68
f 6/6/6 7/7/7 53/53/53
f 45/45/45 53/53/53 54/54/54
f 54/54/54 55/55/55 47/47/47
f 55/55/55 56/56/56 48/48/48
f 56/56/56 57/57/57 49/49/49
f 49/49/49 57/57/57 58/58/58
f 58/58/58 59/59/59 51/51/51
f 59/59/59 60/60/60 52/52/52
f 6/6/6 45/45/45 37/37/37
f 45/45/45 46/46/46 38/38/38
f 46/46/46 47/47/47 39/39/39
f 39/39/39 47/47/47 48/48/48
f 40/40/40 48/48/48 49/49/49
f 41/41/41 49/49/49 50/50/50
f 50/50/50 51/51/51 43/43/43
f 51/51/51 52/52/52 44/44/44
f 5/5/5 37/37/37 28/28/28
f 28/28/28 37/37/37 38/38/38
f 27/27/27 38/38/38 39/39/39
f 26/26/26 39/39/39 40/40/40
f 40/40/40 41/41/41 24/24/24
f 41/41/41 42/42/42 23/23/23
f 23/23/23 42/42/42 43/43/43
f 43/43/43 44/44/44 21/21/21
f 2/2/2 29/29/29 93/93/93
f 93/93/93 29/29/29 30/30/30
f 30/30/30 31/31/31 95/95/95
f 31/31/31 32/32/32 96/96/96
f 32/32/32 33/33/33 97/97/97
f 33/33/33 34/34/34 98/98/98
f 98/98/98 34/34/34 35/35/35
f 99/99/99 35/35/35 36/36/36
