o GNATVCloth
v -5.02166 -4.96606 0.626389
v 5.05274 -4.99371 0.364793
v -5.01298 5.02105 0.004229
v 4.98702 5.02105 0.004229
v -3.92734 -5.02658 0.424531
v -2.80822 -5.05959 0.441246
v -1.68333 -5.08649 0.42734
v -0.556261 -5.10236 0.399699
v 0.571905 -5.1079 0.356868
v 1.69806 -5.10011 0.34464
v 2.82071 -5.06471 0.357745
v 3.94016 -5.02834 0.325776
v 3.87703 4.87033 0.23094
v 2.77093 4.76205 0.433287
v 1.64831 4.72857 0.445138
v 0.5303 4.68431 0.493484
v -0.579561 4.6504 0.623881
v -1.68949 4.69667 0.502664
v -2.80947 4.73476 0.450774
v -3.90729 4.85116 0.23078
v -4.9731 3.90911 0.0983472
v -4.96186 2.79373 0.126566
v -4.96223 1.67892 0.152875
v -4.96317 0.564633 0.1635
v -4.97017 -0.547436 0.213369
v -4.97909 -1.65875 0.269108
v -4.99482 -2.77013 0.32401
v -5.01498 -3.87788 0.402675
v 5.02878 -3.88329 0.286143
v 5.01007 -2.77408 0.20744
v 4.99245 -1.66123 0.173426
v 4.97479 -0.549005 0.157077
v 4.96819 0.563843 0.145965
v 4.96524 1.67769 0.136175
v 4.96711 2.79263 0.126189
v 4.96119 3.90693 0.0722427
v -3.83978 -3.87116 0.415149
v -3.7921 -3.22464 0.375538
v -3.63403 -1.94245 0.262243
v -4.08098 -0.281437 0.207194
v -4.10567 0.734749 0.233957
v -4.09857 1.51806 0.17999
v -4.03823 2.80869 0.0879842
v -3.93728 3.86229 -0.199053
v -2.71272 -4.04068 0.356492
v -2.77141 -2.77217 0.265233
v -2.64449 -2.18188 0.281008
v -2.71082 -0.635788 0.250956
v -2.74268 0.494362 0.20086
v -2.68112 1.52727 0.00985043
v -2.86049 2.83303 -0.297655
v -2.76563 3.48604 -0.0550085
v -1.65312 -4.28094 0.392649
v -1.48197 -2.96657 0.403334
v -1.85613 -1.66885 0.376038
v -1.83249 -0.878669 0.256689
v -1.53522 0.553934 -0.212707
v -2.01082 1.60839 -0.331241
v -1.73592 2.62597 -0.0922824
v -1.57473 3.59998 0.173011
v -0.22744 -4.37237 0.364676
v -0.576671 -2.94376 0.309024
v -0.527718 -1.81361 0.178596
v -0.833915 -0.859793 -0.0444395
v -0.610596 0.338113 -0.276578
v -0.377634 1.37389 -0.263451
v -0.575523 2.53638 -0.0633386
v -0.756844 3.39513 0.158371
v 0.745528 -3.94907 0.319964
v 0.82116 -2.67497 0.25856
v 0.5396 -1.90984 0.0652265
v 0.621146 -0.58599 -0.14173
v 0.584592 0.319774 -0.204846
v 0.296201 1.42716 -0.195529
v 0.522595 2.38171 -0.0899059
v 0.544884 3.59481 0.303112
v 1.96127 -3.69734 0.313145
v 1.67878 -2.89104 0.396168
v 1.82398 -1.96624 0.297721
v 1.99153 -0.460084 0.0148356
v 1.97961 0.214315 -0.112355
v 1.83067 1.46833 -0.283524
v 1.40638 2.7284 -0.117493
v 1.47876 3.53199 0.181402
v 2.80512 -3.9496 0.29757
v 3.10471 -2.86017 0.307837
v 2.95427 -1.98728 0.408535
v 2.71318 -0.538592 0.208887
v 2.95461 0.256762 0.142072
v 3.06901 1.54068 -0.0723163
v 2.7664 3.10079 -0.23063
v 2.74022 3.43682 -0.0696872
v 3.93197 -3.98168 0.314963
v 3.66609 -2.72762 0.27402
v 3.87106 -1.68615 0.297183
v 3.8055 -0.73151 0.361182
v 3.85697 0.280125 0.308143
v 4.14701 1.79778 0.18447
v 4.12525 2.74976 0.0166952
v 4.03214 3.86263 -0.163404
vt 0.0001 0.0001
vt 0.9999 0.0001
vt 0.0001 0.9999
vt 0.9999 0.9999
vt 0.111189 0.0001
vt 0.222278 0.0001
vt 0.333367 0.0001
vt 0.444455 0.0001
vt 0.555544 0.0001
vt 0.666633 0.0001
vt 0.777722 0.0001
vt 0.888811 0.0001
vt 0.888811 0.9999
vt 0.777722 0.9999
vt 0.666633 0.9999
vt 0.555544 0.9999
vt 0.444455 0.9999
vt 0.333367 0.9999
vt 0.222278 0.9999
vt 0.111189 0.9999
vt 0.0001 0.888811
vt 0.0001 0.777722
vt 0.0001 0.666633
vt 0.0001 0.555544
vt 0.0001 0.444456
vt 0.0001 0.333367
vt 0.0001 0.222278
vt 0.0001 0.111189
vt 0.9999 0.111189
vt 0.9999 0.222278
vt 0.9999 0.333367
vt 0.9999 0.444456
vt 0.9999 0.555544
vt 0.9999 0.666633
vt 0.9999 0.777722
vt 0.9999 0.888811
vt 0.11727 0.115399
vt 0.120778 0.180369
vt 0.134636 0.309595
vt 0.088728 0.473895
vt 0.085886 0.575352
vt 0.086211 0.65375
vt 0.092207 0.78313
vt 0.106956 0.892282
vt 0.22987 0.102869
vt 0.221803 0.229552
vt 0.233521 0.288953
vt 0.225541 0.443179
vt 0.221596 0.556167
vt 0.227801 0.661237
vt 0.214896 0.795203
vt 0.22542 0.865181
vt 0.335524 0.082127
vt 0.351143 0.213907
vt 0.311934 0.342467
vt 0.313159 0.422214
vt 0.347791 0.572605
vt 0.301482 0.677733
vt 0.329031 0.783086
vt 0.344903 0.885466
vt 0.476837 0.074882
vt 0.441952 0.218774
vt 0.445749 0.333088
vt 0.416414 0.43099
vt 0.439746 0.552976
vt 0.463203 0.656843
vt 0.444252 0.77653
vt 0.426137 0.866051
vt 0.573419 0.117409
vt 0.581125 0.246686
vt 0.552512 0.326
vt 0.561075 0.459693
vt 0.558356 0.550596
vt 0.530299 0.662189
vt 0.553275 0.760113
vt 0.555478 0.888821
vt 0.694433 0.13996
vt 0.667048 0.221666
vt 0.681985 0.314267
vt 0.698218 0.467249
vt 0.696819 0.535952
vt 0.68253 0.662758
vt 0.642062 0.791726
vt 0.648523 0.877957
vt 0.778029 0.111667
vt 0.809426 0.219523
vt 0.794923 0.307783
vt 0.772028 0.454562
vt 0.796846 0.533374
vt 0.807262 0.663157
vt 0.778581 0.821037
vt 0.775122 0.858219
vt 0.890224 0.104741
vt 0.865679 0.23076
vt 0.887326 0.334104
vt 0.881307 0.429754
vt 0.887973 0.53063
vt 0.918106 0.681428
vt 0.915043 0.778027
vt 0.904815 0.89094
vn 0.188365 0.19666 0.962208
vn -0.00777072 0.0405896 0.999146
vn 0.0198895 -0.154816 0.987743
vn -0.00889642 -0.136025 0.990666
vn 0.0548171 0.0722261 0.995881
vn 0.0118006 0.0532643 0.998511
vn 0.0192276 0.0422977 0.99892
vn 0.0284005 0.03695 0.998913
vn 0.0276753 0.0292288 0.99919
vn 0.00552972 0.0310457 0.999503
vn 0.000323397 0.0393251 0.999226
vn -0.00357967 0.0103024 0.999941
vn 0.216203 -0.326762 0.920045
vn 0.139997 -0.31483 0.938767
vn 0.0338449 -0.219689 0.974983
vn 0.095792 -0.187021 0.977674
vn -0.0291583 -0.288281 0.957102
vn -0.0850796 -0.294977 0.951709
vn -0.161582 -0.357257 0.919923
vn -0.230899 -0.381969 0.894866
vn 0.201436 0.115908 0.972619
vn 0.0413255 0.0246227 0.998842
vn -0.0197324 0.0435459 0.998857
vn -0.0555802 0.00877813 0.998416
vn -0.00727261 0.0474971 0.998845
vn 0.00673367 0.0452821 0.998951
vn -0.00313154 0.0697966 0.997556
vn 0.0379632 0.0852003 0.99564
vn 0.0198279 0.0710794 0.997274
vn 0.0570824 0.0287452 0.997956
vn 0.129841 -0.00321544 0.99153
vn 0.158792 0.0237209 0.987027
vn 0.110827 0.0251679 0.993521
vn 0.0602187 0.00888575 0.998146
vn -0.0693083 0.0755071 0.994734
vn -0.210185 0.0822958 0.974192
vn 0.0175083 0.0427549 0.998932
vn 0.0285714 0.0721777 0.996982
vn 0.00401478 0.0396693 0.999205
vn -0.0148765 0.0211154 0.999666
vn 0.00250106 0.0452433 0.998973
vn 0.050265 0.0684332 0.996389
vn 0.152961 0.129609 0.979696
vn -0.00771995 -0.139556 0.990184
vn 0.00866855 0.0594918 0.998191
vn -0.0162153 0.0393192 0.999095
vn -0.0773731 -0.000796749 0.997002
vn -0.0247711 0.0493369 0.998475
vn 0.160984 0.125254 0.978977
vn 0.243208 0.164007 0.956008
vn 0.0649358 -0.00899433 0.997849
vn -0.194553 -0.321858 0.926583
vn 0.0196352 0.0323349 0.999284
vn 0.00108127 0.0289898 0.999579
vn 0.0680781 0.106142 0.992018
vn 0.182915 0.164757 0.969225
vn 0.173498 0.163912 0.971098
vn 0.121792 0.0259473 0.992216
vn -0.121513 -0.242127 0.962605
vn -0.0977611 -0.299638 0.949031
vn 0.0286096 0.0370307 0.998904
vn 0.0550116 0.082393 0.99508
vn 0.113412 0.157317 0.981014
vn 0.149218 0.209211 0.966419
vn -0.00321347 0.0638788 0.997953
vn -0.0377631 -0.0594865 0.997515
vn -0.0398826 -0.233134 0.971626
vn -0.055553 -0.291382 0.954992
vn -0.00288507 0.0191176 0.999813
vn -0.0849751 0.131081 0.987723
vn -0.0232622 0.169937 0.98518
vn -0.0473171 0.155875 0.986643
vn -0.0358562 0.0490931 0.99815
vn -0.0275455 -0.0439824 0.998653
vn 0.028402 -0.185101 0.982309
vn 0.0494896 -0.274849 0.960213
vn 0.0255594 -0.0294659 0.999239
vn -0.0358923 0.00393236 0.999348
vn -0.145172 0.159147 0.976523
vn -0.182362 0.190043 0.964691
vn -0.167511 0.14419 0.975269
vn -0.0148837 -0.00140215 0.999888
vn 0.121396 -0.245849 0.961676
vn 0.109059 -0.300574 0.947503
vn -0.000908931 0.0213751 0.999771
vn 0.0432922 -0.0432803 0.998125
vn 0.0167161 0.0069085 0.999836
vn -0.176365 0.149337 0.972931
vn -0.199062 0.139509 0.970006
vn -0.210172 0.128262 0.969215
vn 0.02317 -0.14855 0.988633
vn 0.171738 -0.383967 0.907235
vn 0.0129958 0.0372593 0.999221
vn 0.0739088 -0.0188439 0.997087
vn 0.108727 -0.0328566 0.993529
vn 0.0243586 0.034752 0.999099
vn -0.0315711 0.0807107 0.996237
vn -0.0691108 0.0899371 0.993547
vn -0.181019 0.121545 0.97594
vn 0.0266187 -0.161228 0.986558
f 100/100/100 4/4/4 13/13/13
f 44/44/44 3/3/3 21/21/21
f 44/44/44 19/19/19 20/20/20
f 60/60/60 19/19/19 52/52/52
f 60/60/60 17/17/17 18/18/18
f 76/76/76 17/17/17 68/68/68
f 84/84/84 16/16/16 76/76/76
f 84/84/84 14/14/14 15/15/15
f 100/100/100 14/14/14 92/92/92
f 11/11/11 93/93/93 85/85/85
f 93/93/93 86/86/86 85/85/85
f 94/94/94 87/87/87 86/86/86
f 87/87/87 96/96/96 88/88/88
f 96/96/96 89/89/89 88/88/88
f 97/97/97 90/90/90 89/89/89
f 90/90/90 99/99/99 91/91/91
f 91/91/91 100/100/100 92/92/92
f 10/10/10 85/85/85 77/77/77
f 77/77/77 86/86/86 78/78/78
f 78/78/78 87/87/87 79/79/79
f 79/79/79 88/88/88 80/80/80
f 88/88/88 81/81/81 80/80/80
f 81/81/81 90/90/90 82/82/82
f 82/82/82 91/91/91 83/83/83
f 91/91/91 84/84/84 83/83/83
f 10/10/10 69/69/69 9/9/9
f 69/69/69 78/78/78 70/70/70
f 70/70/70 79/79/79 71/71/71
f 79/79/79 72/72/72 71/71/71
f 72/72/72 81/81/81 73/73/73
f 73/73/73 82/82/82 74/74/74
f 82/82/82 75/75/75 74/74/74
f 83/83/83 76/76/76 75/75/75
f 9/9/9 61/61/61 8/8/8
f 69/69/69 62/62/62 61/61/61
f 62/62/62 71/71/71 63/63/63
f 63/63/63 72/72/72 64/64/64
f 72/72/72 65/65/65 64/64/64
f 65/65/65 74/74/74 66/66/66
f 66/66/66 75/75/75 67/67/67
f 67/67/67 76/76/76 68/68/68
f 8/8/8 53/53/53 7/7/7
f 53/53/53 62/62/62 54/54/54
f 54/54/54 63/63/63 55/55/55
f 55/55/55 64/64/64 56/56/56
f 64/64/64 57/57/57 56/56/56
f 57/57/57 66/66/66 58/58/58
f 58/58/58 67/67/67 59/59/59
f 59/59/59 68/68/68 60/60/60
f 6/6/6 53/53/53 45/45/45
f 45/45/45 54/54/54 46/46/46
f 54/54/54 47/47/47 46/46/46
f 55/55/55 48/48/48 47/47/47
f 56/56/56 49/49/49 48/48/48
f 49/49/49 58/58/58 50/50/50
f 58/58/58 51/51/51 50/50/50
f 59/59/59 52/52/52 51/51/51
f 6/6/6 37/37/37 5/5/5
f 45/45/45 38/38/38 37/37/37
f 46/46/46 39/39/39 38/38/38
f 39/39/39 48/48/48 40/40/40
f 40/40/40 49/49/49 41/41/41
f 41/41/41 50/50/50 42/42/42
f 50/50/50 43/43/43 42/42/42
f 51/51/51 44/44/44 43/43/43
f 5/5/5 28/28/28 1/1/1
f 28/28/28 38/38/38 27/27/27
f 27/27/27 39/39/39 26/26/26
f 26/26/26 40/40/40 25/25/25
f 40/40/40 24/24/24 25/25/25
f 41/41/41 23/23/23 24/24/24
f 23/23/23 43/43/43 22/22/22
f 43/43/43 21/21/21 22/22/22
f 2/2/2 93/93/93 12/12/12
f 93/93/93 30/30/30 94/94/94
f 30/30/30 95/95/95 94/94/94
f 31/31/31 96/96/96 95/95/95
f 32/32/32 97/97/97 96/96/96
f 33/33/33 98/98/98 97/97/97
f 98/98/98 35/35/35 99/99/99
f 99/99/99 36/36/36 100/100/100
f 100/100/100 36/36/36 4/4/4
f 44/44/44 20/20/20 3/3/3
f 44/44/44 52/52/52 19/19/19
f 60/60/60 18/18/18 19/19/19
f 60/60/60 68/68/68 17/17/17
f 76/76/76 16/16/16 17/17/17
f 84/84/84 15/15/15 16/16/16
f 84/84/84 92/92/92 14/14/14
f 100/100/100 13/13/13 14/14/14
f 11/11/11 12/12/12 93/93/93
f 93/93/93 94/94/94 86/86/86
f 94/94/94 95/95/95 87/87/87
f 87/87/87 95/95/95 96/96/96
f 96/96/96 97/97/97 89/89/89
f 97/97/97 98/98/98 90/90/90
f 90/90/90 98/98/98 99/99/99
f 91/91/91 99/99/99 100/100/100
f 10/10/10 11/11/11 85/85/85
f 77/77/77 85/85/85 86/86/86
f 78/78/78 86/86/86 87/87/87
f 79/79/79 87/87/87 88/88/88
f 88/88/88 89/89/89 81/81/81
f 81/81/81 89/89/89 90/90/90
f 82/82/82 90/90/90 91/91/91
f 91/91/91 92/92/92 84/84/84
f 10/10/10 77/77/77 69/69/69
f 69/69/69 77/77/77 78/78/78
f 70/70/70 78/78/78 79/79/79
f 79/79/79 80/80/80 72/72/72
f 72/72/72 80/80/80 81/81/81
f 73/73/73 81/81/81 82/82/82
f 82/82/82 83/83/83 75/75/75
f 83/83/83 84/84/84 76/76/76
f 9/9/9 69/69/69 61/61/61
f 69/69/69 70/70/70 62/62/62
f 62/62/62 70/70/70 71/71/71
f 63/63/63 71/71/71 72/72/72
f 72/72/72 73/73/73 65/65/65
f 65/65/65 73/73/73 74/74/74
f 66/66/66 74/74/74 75/75/75
f 67/67/67 75/75/75 76/76/76
f 8/8/8 61/61/61 53/53/53
f 53/53/53 61/61/61 62/62/62
f 54/54/54 62/62/62 63/63/63
f 55/55/55 63/63/63 64/64/64
f 64/64/64 65/65/65 57/57/57
f 57/57/57 65/65/65 66/66/66
f 58/58/58 66/66/66 67/67/67
f 59/59/59 67/67/67 68/68/68
f 6/6/6 7/7/7 53/53/53
f 45/45/45 53/53/53 54/54/54
f 54/54/54 55/55/55 47/47/47
f 55/55/55 56/56/56 48/48/48
f 56/56/56 57/57/57 49/49/49
f 49/49/49 57/57/57 58/58/58
f 58/58/58 59/59/59 51/51/51
f 59/59/59 60/60/60 52/52/52
f 6/6/6 45/45/45 37/37/37
f 45/45/45 46/46/46 38/38/38
f 46/46/46 47/47/47 39/39/39
f 39/39/39 47/47/47 48/48/48
f 40/40/40 48/48/48 49/49/49
f 41/41/41 49/49/49 50/50/50
f 50/50/50 51/51/51 43/43/43
f 51/51/51 52/52/52 44/44/44
f 5/5/5 37/37/37 28/28/28
f 28/28/28 37/37/37 38/38/38
f 27/27/27 38/38/38 39/39/39
f 26/26/26 39/39/39 40/40/40
f 40/40/40 41/41/41 24/24/24
f 41/41/41 42/42/42 23/23/23
f 23/23/23 42/42/42 43/43/43
f 43/43/43 44/44/44 21/21/21
f 2/2/2 29/29/29 93/93/93
f 93/93/93 29/29/29 30/30/30
f 30/30/30 31/31/31 95/95/95
f 31/31/31 32/32/32 96/96/96
f 32/32/32 33/33/33 97/97/97
f 33/33/33 34/34/34 98/98/98
f 98/98/98 34/34/34 35/35/35
f 99/99/99 35/35/35 36/36/36
