o GNATVCloth
v -5.01787 -4.96524 0.62531
v 5.05278 -4.99068 0.370586
v -5.01298 5.02105 0.004229
v 4.98702 5.02105 0.004229
v -3.92348 -5.01612 0.42978
v -2.80364 -5.05973 0.446098
v -1.67999 -5.08405 0.428493
v -0.554639 -5.1009 0.406249
v 0.57246 -5.10266 0.362363
v 1.69786 -5.09803 0.352823
v 2.82024 -5.06488 0.366306
v 3.9393 -5.02619 0.324938
v 3.87689 4.87279 0.229114
v 2.77173 4.76514 0.435946
v 1.64906 4.73131 0.431925
v 0.530148 4.69449 0.477012
v -0.578288 4.65481 0.619132
v -1.68885 4.70171 0.499875
v -2.80929 4.73704 0.460127
v -3.9071 4.8529 0.234018
v -4.97278 3.90947 0.100253
v -4.96316 2.79421 0.125724
v -4.96136 1.67957 0.15023
v -4.96289 0.565676 0.166719
v -4.96969 -0.546008 0.215649
v -4.97733 -1.65689 0.271453
v -4.99115 -2.77006 0.326224
v -5.00977 -3.87866 0.408446
v 5.02895 -3.88462 0.292152
v 5.01006 -2.77425 0.206897
v 4.99515 -1.66311 0.173455
v 4.97934 -0.550524 0.157714
v 4.97078 0.562934 0.146604
v 4.96781 1.67738 0.136229
v 4.96868 2.79246 0.125313
v 4.96187 3.90682 0.0710338
v -3.83483 -3.86929 0.416515
v -3.78784 -3.22332 0.373187
v -3.63284 -1.93876 0.265518
v -4.08073 -0.277558 0.202555
v -4.10572 0.738907 0.231636
v -4.09837 1.52193 0.176975
v -4.03895 2.81251 0.0885219
v -3.93583 3.86709 -0.193801
v -2.7103 -4.03721 0.355284
v -2.76869 -2.77031 0.264868
v -2.64352 -2.1793 0.2812
v -2.71034 -0.634842 0.25313
v -2.74439 0.496899 0.200217
v -2.6809 1.52952 0.0113118
v -2.86034 2.83519 -0.294552
v -2.76594 3.48866 -0.0471653
v -1.65101 -4.27439 0.390845
v -1.47894 -2.96048 0.405379
v -1.85631 -1.66328 0.382931
v -1.83127 -0.87337 0.271945
v -1.53681 0.555216 -0.211622
v -2.00906 1.6129 -0.327065
v -1.73426 2.63141 -0.0932007
v -1.57459 3.60303 0.180245
v -0.225901 -4.3651 0.369232
v -0.572403 -2.93727 0.316791
v -0.527658 -1.80959 0.191846
v -0.832296 -0.855328 -0.0283984
v -0.609834 0.342134 -0.256566
v -0.37794 1.3704 -0.25013
v -0.5764 2.53827 -0.0498816
v -0.75603 3.40066 0.166994
v 0.746093 -3.94717 0.320404
v 0.823769 -2.66527 0.267096
v 0.538706 -1.89793 0.0782601
v 0.622915 -0.585043 -0.134957
v 0.585894 0.321283 -0.188219
v 0.295517 1.43217 -0.177926
v 0.520282 2.38548 -0.0731708
v 0.545819 3.60054 0.310786
v 1.96092 -3.6916 0.312166
v 1.67822 -2.89005 0.398901
v 1.8243 -1.96461 0.309662
v 1.99249 -0.45922 0.0268168
v 1.98212 0.214775 -0.108993
v 1.82932 1.47022 -0.265362
v 1.40455 2.73381 -0.108113
v 1.48028 3.53125 0.192849
v 2.80458 -3.9484 0.296214
v 3.10399 -2.85905 0.304679
v 2.95576 -1.98574 0.40913
v 2.71495 -0.535932 0.215902
v 2.95564 0.258268 0.15041
v 3.07133 1.54093 -0.0758625
v 2.7661 3.10017 -0.22356
v 2.74075 3.43736 -0.062567
v 3.93172 -3.97835 0.319486
v 3.66596 -2.72854 0.278665
v 3.87364 -1.68803 0.297721
v 3.80909 -0.734361 0.35926
v 3.85995 0.279142 0.306914
v 4.14912 1.79623 0.181771
v 4.12727 2.75227 0.0138481
v 4.032 3.86418 -0.162518
vt 0.0001 0.0001
vt 0.9999 0.0001
vt 0.0001 0.9999
vt 0.9999 0.9999
vt 0.111189 0.0001
vt 0.222278 0.0001
vt 0.333367 0.0001
vt 0.444455 0.0001
vt 0.555544 0.0001
vt 0.666633 0.0001
vt 0.777722 0.0001
vt 0.888811 0.0001
vt 0.888811 0.9999
vt 0.777722 0.9999
vt 0.666633 0.9999
vt 0.555544 0.9999
vt 0.444455 0.9999
vt 0.333367 0.9999
vt 0.222278 0.9999
vt 0.111189 0.9999
vt 0.0001 0.888811
vt 0.0001 0.777722
vt 0.0001 0.666633
vt 0.0001 0.555544
vt 0.0001 0.444456
vt 0.0001 0.333367
vt 0.0001 0.222278
vt 0.0001 0.111189
vt 0.9999 0.111189
vt 0.9999 0.222278
vt 0.9999 0.333367
vt 0.9999 0.444456
vt 0.9999 0.555544
vt 0.9999 0.666633
vt 0.9999 0.777722
vt 0.9999 0.888811
vt 0.11727 0.115399
vt 0.120778 0.180369
vt 0.134636 0.309595
vt 0.088728 0.473895
vt 0.085886 0.575352
vt 0.086211 0.65375
vt 0.092207 0.78313
vt 0.106956 0.892282
vt 0.22987 0.102869
vt 0.221803 0.229552
vt 0.233521 0.288953
vt 0.225541 0.443179
vt 0.221596 0.556167
vt 0.227801 0.661237
vt 0.214896 0.795203
vt 0.22542 0.865181
vt 0.335524 0.082127
vt 0.351143 0.213907
vt 0.311934 0.342467
vt 0.313159 0.422214
vt 0.347791 0.572605
vt 0.301482 0.677733
vt 0.329031 0.783086
vt 0.344903 0.885466
vt 0.476837 0.074882
vt 0.441952 0.218774
vt 0.445749 0.333088
vt 0.416414 0.43099
vt 0.439746 0.552976
vt 0.463203 0.656843
vt 0.444252 0.77653
vt 0.426137 0.866051
vt 0.573419 0.117409
vt 0.581125 0.246686
vt 0.552512 0.326
vt 0.561075 0.459693
vt 0.558356 0.550596
vt 0.530299 0.662189
vt 0.553275 0.760113
vt 0.555478 0.888821
vt 0.694433 0.13996
vt 0.667048 0.221666
vt 0.681985 0.314267
vt 0.698218 0.467249
vt 0.696819 0.535952
vt 0.68253 0.662758
vt 0.642062 0.791726
vt 0.648523 0.877957
vt 0.778029 0.111667
vt 0.809426 0.219523
vt 0.794923 0.307783
vt 0.772028 0.454562
vt 0.796846 0.533374
vt 0.807262 0.663157
vt 0.778581 0.821037
vt 0.775122 0.858219
vt 0.890224 0.104741
vt 0.865679 0.23076
vt 0.887326 0.334104
vt 0.881307 0.429754
vt 0.887973 0.53063
vt 0.918106 0.681428
vt 0.915043 0.778027
vt 0.904815 0.89094
vn 0.181243 0.191183 0.964676
vn -0.0111856 0.0380511 0.999213
vn 0.0170532 -0.153628 0.987982
vn -0.0088172 -0.135523 0.990735
vn 0.0538214 0.0725465 0.995912
vn 0.0139233 0.0576636 0.998239
vn 0.0185336 0.0457784 0.99878
vn 0.0257365 0.0402826 0.998857
vn 0.0280813 0.0328701 0.999065
vn 0.0053564 0.0375688 0.99928
vn 0.00132541 0.0434635 0.999054
vn -0.00218436 0.00518753 0.999984
vn 0.216808 -0.324199 0.920809
vn 0.139355 -0.307189 0.94139
vn 0.0242251 -0.1986 0.979781
vn 0.0967901 -0.165557 0.981439
vn -0.0258653 -0.276438 0.960684
vn -0.0786436 -0.286007 0.954995
vn -0.16059 -0.355355 0.920833
vn -0.234096 -0.381293 0.894324
vn 0.198401 0.114251 0.973439
vn 0.0397636 0.0225927 0.998954
vn -0.0188105 0.0440255 0.998853
vn -0.0488757 0.009541 0.998759
vn 0.000499104 0.0470688 0.998892
vn 0.00910695 0.0468433 0.998861
vn -0.00114152 0.06917 0.997604
vn 0.0391954 0.0867094 0.995462
vn 0.0185185 0.0739884 0.997087
vn 0.0587603 0.03097 0.997792
vn 0.129406 -0.00293891 0.991587
vn 0.156809 0.0233392 0.987353
vn 0.10852 0.0258991 0.993757
vn 0.0569266 0.00958745 0.998332
vn -0.0717321 0.0756362 0.994552
vn -0.209251 0.0808579 0.974513
vn 0.0203263 0.0473831 0.99867
vn 0.030565 0.0729079 0.99687
vn 0.00445493 0.0391799 0.999222
vn -0.0130376 0.021896 0.999675
vn 0.00360178 0.0453613 0.998964
vn 0.048746 0.0675815 0.996522
vn 0.151026 0.126865 0.980355
vn -0.0111737 -0.141247 0.989911
vn 0.0093348 0.0615383 0.998061
vn -0.016784 0.0377108 0.999148
vn -0.0791457 -0.00292416 0.996859
vn -0.0323673 0.048571 0.998295
vn 0.156931 0.125859 0.979557
vn 0.240352 0.162685 0.956956
vn 0.0643471 -0.0116828 0.997859
vn -0.194768 -0.326239 0.925005
vn 0.0174733 0.0335047 0.999286
vn -0.00274803 0.0260273 0.999657
vn 0.0612999 0.100091 0.993088
vn 0.175769 0.165455 0.970428
vn 0.165393 0.167659 0.971872
vn 0.117427 0.0256098 0.992751
vn -0.124435 -0.243334 0.961927
vn -0.0953527 -0.298099 0.94976
vn 0.0285321 0.0382182 0.998862
vn 0.0532495 0.0784778 0.995493
vn 0.111732 0.155298 0.981529
vn 0.147207 0.207765 0.967039
vn -0.00865845 0.0645268 0.997878
vn -0.0454171 -0.0570385 0.997338
vn -0.0458286 -0.228943 0.97236
vn -0.0585544 -0.28744 0.956007
vn -0.00103079 0.0186499 0.999826
vn -0.0825462 0.123929 0.988852
vn -0.0225453 0.169017 0.985355
vn -0.0448293 0.15567 0.986791
vn -0.0313199 0.0424641 0.998607
vn -0.0296931 -0.0419998 0.998676
vn 0.0285347 -0.180845 0.983098
vn 0.0501262 -0.265291 0.962865
vn 0.0274605 -0.0282431 0.999224
vn -0.0308935 -0.00269713 0.999519
vn -0.140805 0.155786 0.977704
vn -0.18092 0.196315 0.963706
vn -0.163573 0.144774 0.975851
vn -0.00805254 -0.00251106 0.999964
vn 0.122344 -0.243463 0.962163
vn 0.106279 -0.292501 0.950341
vn -0.00240443 0.0269744 0.999633
vn 0.039665 -0.0452838 0.998186
vn 0.0191023 0.0038953 0.99981
vn -0.17063 0.149904 0.973866
vn -0.195288 0.142029 0.970407
vn -0.203785 0.128258 0.970578
vn 0.0287294 -0.149521 0.988341
vn 0.175676 -0.381639 0.907463
vn 0.0105879 0.0379495 0.999224
vn 0.0700212 -0.0191825 0.997361
vn 0.109183 -0.0307052 0.993547
vn 0.0274899 0.0340227 0.999043
vn -0.0290194 0.0822247 0.996191
vn -0.0710355 0.0903546 0.993373
vn -0.179378 0.119428 0.976504
vn 0.0296414 -0.160706 0.986557
f 100/100/100 4/4/4 13/13/13
f 44/44/44 3/3/3 21/21/21
f 44/44/44 19/19/19 20/20/20
f 60/60/60 19/19/19 52/52/52
f 60/60/60 17/17/17 18/18/18
f 76/76/76 17/17/17 68/68/68
f 84/84/84 16/16/16 76/76/76
f 84/84/84 14/14/14 15/15/15
f 100/100/100 14/14/14 92/92/92
f 11/11/11 93/93/93 85/85/85
f 93/93/93 86/86/86 85/85/85
f 94/94/94 87/87/87 86/86/86
f 87/87/87 96/96/96 88/88/88
f 96/96/96 89/89/89 88/88/88
f 97/97/97 90/90/90 89/89/89
f 90/90/90 99/99/99 91/91/91
f 91/91/91 100/100/100 92/92/92
f 10/10/10 85/85/85 77/77/77
f 77/77/77 86/86/86 78/78/78
f 78/78/78 87/87/87 79/79/79
f 79/79/79 88/88/88 80/80/80
f 88/88/88 81/81/81 80/80/80
f 81/81/81 90/90/90 82/82/82
f 82/82/82 91/91/91 83/83/83
f 91/91/91 84/84/84 83/83/83
f 10/10/10 69/69/69 9/9/9
f 69/69/69 78/78/78 70/70/70
f 70/70/70 79/79/79 71/71/71
f 79/79/79 72/72/72 71/71/71
f 72/72/72 81/81/81 73/73/73
f 73/73/73 82/82/82 74/74/74
f 82/82/82 75/75/75 74/74/74
f 83/83/83 76/76/76 75/75/75
f 9/9/9 61/61/61 8/8/8
f 69/69/69 62/62/62 61/61/61
f 62/62/62 71/71/71 63/63/63
f 63/63/63 72/72/72 64/64/64
f 72/72/72 65/65/65 64/64/64
f 65/65/65 74/74/74 66/66/66
f 66/66/66 75/75/75 67/67/67
f 67/67/67 76/76/76 68/68/68
f 8/8/8 53/53/53 7/7/7
f 53/53/53 62/62/62 54/54/54
f 54/54/54 63/63/63 55/55/55
f 55/55/55 64/64/64 56/56/56
f 64/64/64 57/57/57 56/56/56
f 57/57/57 66/66/66 58/58/58
f 58/58/58 67/67/67 59/59/59
f 59/59/59 68/68/68 60/60/60
f 6/6/6 53/53/53 45/45/45
f 45/45/45 54/54/54 46/46/46
f 54/54/54 47/47/47 46/46/46
f 55/55/55 48/48/48 47/47/47
f 56/56/56 49/49/49 48/48/48
f 49/49/49 58/58/58 50/50/50
f 58/58/58 51/51/51 50/50/50
f 59/59/59 52/52/52 51/51/51
f 6/6/6 37/37/37 5/5/5
f 45/45/45 38/38/38 37/37/37
f 46/46/46 39/39/39 38/38/38
f 39/39/39 48/48/48 40/40/40
f 40/40/40 49/49/49 41/41/41
f 41/41/41 50/50/50 42/42/42
f 50/50/50 43/43/43 42/42/42
f 51/51/51 44/44/44 43/43/43
f 5/5/5 28/28/28 1/1/1
f 28/28/28 38/38/38 27/27/27
f 27/27/27 39/39/39 26/26/26
f 26/26/26 40/40/40 25/25/25
f 40/40/40 24/24/24 25/25/25
f 41/41/41 23/23/23 24/24/24
f 23/23/23 43/43/43 22/22/22
f 43/43/43 21/21/21 22/22/22
f 2/2/2 93/93/93 12/12/12
f 93/93/93 30/30/30 94/94/94
f 30/30/30 95/95/95 94/94/94
f 31/31/31 96/96/96 95/95/95
f 32/32/32 97/97/97 96/96/96
f 33/33/33 98/98/98 97/97/97
f 98/98/98 35/35/35 99/99/99
f 99/99/99 36/36/36 100/100/100
f 100/100/100 36/36/36 4/4/4
f 44/44/44 20/20/20 3/3/3
f 44/44/44 52/52/52 19/19/19
f 60/60/60 18/18/18 19/19/19
f 60/60/60 68/68/68 17/17/17
f 76/76/76 16/16/16 17/17/17
f 84/84/84 15/15/15 16/16/16
f 84/84/84 92/92/92 14/14/14
f 100/100/100 13/13/13 14/14/14
f 11/11/11 12/12/12 93/93/93
f 93/93/93 94/94/94 86/86/86
f 94/94/94 95/95/95 87/87/87
f 87/87/87 95/95/95 96/96/96
f 96/96/96 97/97/97 89/89/89
f 97/97/97 98/98/98 90/90/90
f 90/90/90 98/98/98 99/99/99
f 91/91/91 99/99/99 100/100/100
f 10/10/10 11/11/11 85/85/85
f 77/77/77 85/85/85 86/86/86
f 78/78/78 86/86/86 87/87/87
f 79/79/79 87/87/87 88/88/88
f 88/88/88 89/89/89 81/81/81
f 81/81/81 89/89/89 90/90/90
f 82/82/82 90/90/90 91/91/91
f 91/91/91 92/92/92 84/84/84
f 10/10/10 77/77/77 69/69/69
f 69/69/69 77/77/77 78/78/78
f 70/70/70 78/78/78 79/79/79
f 79/79/79 80/80/80 72/72/72
f 72/72/72 80/80/80 81/81/81
f 73/73/73 81/81/81 82/82/82
f 82/82/82 83/83/83 75/75/75
f 83/83/83 84/84/84 76/76/76
f 9/9/9 69/69/69 61/61/61
f 69/69/69 70/70/70 62/62/62
f 62/62/62 70/70/70 71/71/71
f 63/63/63 71/71/71 72/72/72
f 72/72/72 73/73/73 65/65/65
f 65/65/65 73/73/73 74/74/74
f 66/66/66 74/74/74 75/75/75
f 67/67/67 75/75/75 76/76/76
f 8/8/8 61/61/61 53/53/53
f 53/53/53 61/61/61 62/62/62
f 54/54/54 62/62/62 63/63/63
f 55/55/55 63/63/63 64/64/64
f 64/64/64 65/65/65 57/57/57
f 57/57/57 65/65/65 66/66/66
f 58/58/58 66/66/66 67/67/67
f 59/59/59 67/67/67 68/68/68
f 6/6/6 7/7/7 53/53/53
f 45/45/45 53/53/53 54/54/54
f 54/54/54 55/55/55 47/47/47
f 55/55/55 56/56/56 48/48/48
f 56/56/56 57/57/57 49/49/49
f 49/49/49 57/57/57 58/58/58
f 58/58/58 59/59/59 51/51/51
f 59/59/59 60/60/60 52/52/52
f 6/6/6 45/45/45 37/37/37
f 45/45/45 46/46/46 38/38/38
f 46/46/46 47/47/47 39/39/39
f 39/39/39 47/47/47 48/48/48
f 40/40/40 48/48/48 49/49/49
f 41/41/41 49/49/49 50/50/50
f 50/50/50 51/51/51 43/43/43
f 51/51/51 52/52/52 44/44/44
f 5/5/5 37/37/37 28/28/28
f 28/28/28 37/37/37 38/38/38
f 27/27/27 38/38/38 39/39/39
f 26/26/26 39/39/39 40/40/40
f 40/40/40 41/41/41 24/24/24
f 41/41/41 42/42/42 23/23/23
f 23/23/23 42/42/42 43/43/43
f 43/43/43 44/44/44 21/21/21
f 2/2/2 29/29/29 93/93/93
f 93/93/93 29/29/29 30/30/30
f 30/30/30 31/31/31 95/95/95
f 31/31/31 32/32/32 96/96/96
f 32/32/32 33/33/33 97/97/97
f 33/33/33 34/34/34 98/98/98
f 98/98/98 34/34/34 35/35/35
f 99/99/99 35/35/35 36/36/36
