o GNATVCloth
v -5.0831 -4.98153 0.471921
v 5.04624 -4.99603 0.46764
v -5.01298 5.02105 0.004229
v 4.98702 5.02105 0.004229
v -3.96611 -5.02166 0.455385
v -2.84619 -5.06504 0.405479
v -1.72036 -5.11188 0.325955
v -0.588447 -5.1521 0.306328
v 0.548894 -5.15656 0.313561
v 1.68014 -5.1342 0.346418
v 2.80923 -5.09494 0.330469
v 3.93227 -5.04911 0.36424
v 3.85561 4.93527 0.167939
v 2.73304 4.87639 0.299077
v 1.61637 4.80354 0.434949
v 0.495625 4.78654 0.424488
v -0.575103 4.76245 0.342352
v -1.65833 4.7963 0.221271
v -2.77268 4.84623 0.28165
v -3.88503 4.91808 0.132626
v -5.00295 3.90734 0.0861619
v -4.99963 2.79125 0.106224
v -5.00675 1.67596 0.120654
v -5.01333 0.561449 0.150606
v -5.0168 -0.55016 0.213405
v -5.02103 -1.65941 0.303246
v -5.03356 -2.76659 0.410746
v -5.04923 -3.87093 0.535603
v 5.01934 -3.88665 0.424054
v 5.00835 -2.78122 0.300071
v 4.99731 -1.66961 0.244801
v 4.98865 -0.557136 0.197039
v 4.98119 0.557025 0.161315
v 4.97513 1.67225 0.124896
v 4.97276 2.78843 0.0932595
v 4.9694 3.90443 0.0449223
v -3.87279 -3.8705 0.42724
v -3.82906 -3.22913 0.3583
v -3.68419 -1.95797 0.154782
v -4.13149 -0.294369 0.119658
v -4.15575 0.722295 0.155605
v -4.14617 1.50733 0.168009
v -4.07683 2.80048 0.184091
v -3.93746 3.86082 -0.0605242
v -2.74667 -4.059 0.311571
v -2.8133 -2.79097 0.210071
v -2.6979 -2.20392 0.282369
v -2.77581 -0.657927 0.343004
v -2.80744 0.475922 0.340475
v -2.7238 1.51632 0.217409
v -2.86092 2.83274 -0.0592482
v -2.7734 3.50211 0.142709
v -1.6814 -4.30277 0.327133
v -1.51797 -2.99434 0.320762
v -1.91425 -1.69976 0.42072
v -1.89718 -0.902819 0.418187
v -1.55119 0.566671 0.127728
v -2.00592 1.62011 0.0081153
v -1.75287 2.64126 0.23602
v -1.57425 3.65342 0.253768
v -0.252304 -4.41273 0.338947
v -0.602149 -2.97178 0.346002
v -0.565727 -1.82973 0.356983
v -0.863305 -0.852008 0.290284
v -0.634925 0.357936 0.258164
v -0.403908 1.39015 0.295482
v -0.601474 2.56332 0.396389
v -0.76758 3.44605 0.317814
v 0.725343 -3.98545 0.341155
v 0.799068 -2.69394 0.277498
v 0.508864 -1.91036 0.315652
v 0.587508 -0.573093 0.319205
v 0.554908 0.336379 0.309946
v 0.268848 1.4472 0.320459
v 0.498075 2.42811 0.356994
v 0.5114 3.67895 0.337497
v 1.94614 -3.72958 0.309244
v 1.66565 -2.92218 0.288522
v 1.81184 -1.99277 0.344111
v 1.96322 -0.455925 0.303651
v 1.94421 0.23101 0.292013
v 1.7971 1.49411 0.262087
v 1.39004 2.76806 0.325902
v 1.4468 3.60866 0.297258
v 2.79205 -3.97955 0.338269
v 3.09834 -2.88772 0.363336
v 2.94709 -2.01179 0.315809
v 2.70556 -0.550404 0.338513
v 2.94981 0.246272 0.306714
v 3.04723 1.54491 0.191734
v 2.75917 3.11204 0.220592
v 2.71598 3.47028 0.165508
v 3.92259 -4.00111 0.373805
v 3.66363 -2.75067 0.367578
v 3.87123 -1.70943 0.310826
v 3.80268 -0.753805 0.262538
v 3.86396 0.259157 0.245026
v 4.15686 1.78179 0.158979
v 4.12226 2.74075 0.0489164
v 4.01215 3.86557 0.019264
vt 0.0001 0.0001
vt 0.9999 0.0001
vt 0.0001 0.9999
vt 0.9999 0.9999
vt 0.111189 0.0001
vt 0.222278 0.0001
vt 0.333367 0.0001
vt 0.444455 0.0001
vt 0.555544 0.0001
vt 0.666633 0.0001
vt 0.777722 0.0001
vt 0.888811 0.0001
vt 0.888811 0.9999
vt 0.777722 0.9999
vt 0.666633 0.9999
vt 0.555544 0.9999
vt 0.444455 0.9999
vt 0.333367 0.9999
vt 0.222278 0.9999
vt 0.111189 0.9999
vt 0.0001 0.888811
vt 0.0001 0.777722
vt 0.0001 0.666633
vt 0.0001 0.555544
vt 0.0001 0.444456
vt 0.0001 0.333367
vt 0.0001 0.222278
vt 0.0001 0.111189
vt 0.9999 0.111189
vt 0.9999 0.222278
vt 0.9999 0.333367
vt 0.9999 0.444456
vt 0.9999 0.555544
vt 0.9999 0.666633
vt 0.9999 0.777722
vt 0.9999 0.888811
vt 0.11727 0.115399
vt 0.120778 0.180369
vt 0.134636 0.309595
vt 0.088728 0.473895
vt 0.085886 0.575352
vt 0.086211 0.65375
vt 0.092207 0.78313
vt 0.106956 0.892282
vt 0.22987 0.102869
vt 0.221803 0.229552
vt 0.233521 0.288953
vt 0.225541 0.443179
vt 0.221596 0.556167
vt 0.227801 0.661237
vt 0.214896 0.795203
vt 0.22542 0.865181
vt 0.335524 0.082127
vt 0.351143 0.213907
vt 0.311934 0.342467
vt 0.313159 0.422214
vt 0.347791 0.572605
vt 0.301482 0.677733
vt 0.329031 0.783086
vt 0.344903 0.885466
vt 0.476837 0.074882
vt 0.441952 0.218774
vt 0.445749 0.333088
vt 0.416414 0.43099
vt 0.439746 0.552976
vt 0.463203 0.656843
vt 0.444252 0.77653
vt 0.426137 0.866051
vt 0.573419 0.117409
vt 0.581125 0.246686
vt 0.552512 0.326
vt 0.561075 0.459693
vt 0.558356 0.550596
vt 0.530299 0.662189
vt 0.553275 0.760113
vt 0.555478 0.888821
vt 0.694433 0.13996
vt 0.667048 0.221666
vt 0.681985 0.314267
vt 0.698218 0.467249
vt 0.696819 0.535952
vt 0.68253 0.662758
vt 0.642062 0.791726
vt 0.648523 0.877957
vt 0.778029 0.111667
vt 0.809426 0.219523
vt 0.794923 0.307783
vt 0.772028 0.454562
vt 0.796846 0.533374
vt 0.807262 0.663157
vt 0.778581 0.821037
vt 0.775122 0.858219
vt 0.890224 0.104741
vt 0.865679 0.23076
vt 0.887326 0.334104
vt 0.881307 0.429754
vt 0.887973 0.53063
vt 0.918106 0.681428
vt 0.915043 0.778027
vt 0.904815 0.89094
vn 0.0127087 -0.0576273 0.998257
vn -0.0708571 0.0140416 0.997388
vn 0.0062347 -0.0499607 0.998732
vn 0.0616691 -0.0390524 0.997332
vn 0.0499662 -0.00666571 0.998729
vn 0.0594442 0.0473803 0.997107
vn 0.0437732 -0.00356208 0.999035
vn -0.000172265 -0.0274617 0.999623
vn -0.00885483 -0.0284044 0.999557
vn -0.00448264 0.00689868 0.999966
vn -0.0156279 -0.00788302 0.999847
vn -0.0608409 -0.00967196 0.998101
vn 0.136077 -0.11682 0.983787
vn 0.120613 -0.110345 0.986548
vn 0.0604582 -0.12273 0.990597
vn -0.0150216 -0.0901977 0.995811
vn -0.069618 -0.0206756 0.997359
vn -0.0275538 0.0263862 0.999272
vn -0.0922222 -0.0860592 0.992013
vn -0.134299 -0.171638 0.975963
vn 0.0663152 0.0996349 0.992812
vn -0.0842259 0.0155437 0.996325
vn -0.0524603 0.0039817 0.998615
vn 0.0264033 0.0158645 0.999525
vn 0.0856015 0.0680288 0.994004
vn 0.111634 0.076107 0.990831
vn 0.105159 0.117174 0.987528
vn 0.0705221 0.0426961 0.996596
vn -0.0533892 0.0744124 0.995797
vn 0.0253569 0.0552161 0.998152
vn 0.0537228 0.0492634 0.99734
vn 0.0556186 0.0299041 0.998004
vn 0.058327 0.0365072 0.99763
vn 0.0456886 0.030627 0.998486
vn -0.0223809 0.0611818 0.997876
vn -0.0368182 0.0345116 0.998726
vn 0.0923795 0.0634889 0.993698
vn 0.0969387 0.114905 0.988635
vn -0.0039158 0.040647 0.999166
vn -0.0260249 0.0128393 0.999579
vn -0.0597434 0.00809439 0.998181
vn -0.0459787 -0.0125944 0.998863
vn 0.036964 0.0916911 0.995101
vn -0.0356476 -0.0322846 0.998843
vn 0.043717 0.0733545 0.996347
vn -0.0275496 0.0233704 0.999347
vn -0.128045 -0.0788672 0.988627
vn -0.13103 -0.0190239 0.991196
vn 0.0100247 0.0739984 0.997208
vn 0.0870194 0.107758 0.990361
vn -0.033735 0.000949974 0.99943
vn -0.181883 -0.140643 0.97321
vn 0.00474156 0.00772538 0.999959
vn -0.043817 -0.0276737 0.998656
vn -0.0192409 -0.0216062 0.999581
vn 0.044477 0.0663687 0.996803
vn -0.00397862 0.0986646 0.995113
vn -0.0187744 0.0133187 0.999735
vn -0.171658 -0.0853479 0.981453
vn -0.0646199 -0.010224 0.997858
vn -0.00361755 -0.0233807 0.99972
vn 0.00965639 -0.000667213 0.999953
vn 0.0189173 0.00907435 0.99978
vn 0.0174878 0.0658394 0.997677
vn -0.0699499 0.00627907 0.997531
vn -0.0917676 -0.037012 0.995092
vn -0.0739275 -0.0364594 0.996597
vn -0.0675439 0.0238237 0.997432
vn 0.00862858 0.0145674 0.999857
vn 0.00829884 -0.0091581 0.999924
vn 0.0165595 -0.0207227 0.999648
vn -0.00645345 0.0182179 0.999813
vn -0.00409595 0.00486762 0.99998
vn -0.00709474 -0.0248739 0.999665
vn 0.0242418 -0.0268808 0.999345
vn 0.00454694 -0.00420177 0.999981
vn -0.0149173 0.0162292 0.999757
vn -0.0149204 0.00252951 0.999885
vn -0.0085822 -0.0191215 0.99978
vn -0.0172439 0.0222174 0.999604
vn 0.00246188 0.0333018 0.999442
vn 0.047818 -0.00811728 0.998823
vn 0.0548688 0.00346916 0.998488
vn 0.0696135 -0.0276871 0.99719
vn -0.0223812 -0.00188366 0.999748
vn -0.0338817 0.0133494 0.999337
vn 0.00282059 0.017653 0.99984
vn 0.0103735 0.0154774 0.999826
vn 0.034887 0.0496338 0.998158
vn 0.0444926 0.0524656 0.997631
vn 0.0934834 0.0524597 0.994238
vn 0.104676 0.0336505 0.993937
vn -0.0312205 0.0158425 0.999387
vn 0.0120472 0.0341654 0.999344
vn 0.0280456 0.0511299 0.998298
vn 0.050626 0.0268731 0.998356
vn 0.0555316 0.0400071 0.997655
vn 0.0199313 0.0641564 0.997741
vn 0.0211668 0.0563891 0.998185
vn 0.0797875 -0.0100798 0.996761
f 100/100/100 4/4/4 13/13/13
f 44/44/44 3/3/3 21/21/21
f 44/44/44 19/19/19 20/20/20
f 60/60/60 19/19/19 52/52/52
f 60/60/60 17/17/17 18/18/18
f 76/76/76 17/17/17 68/68/68
f 84/84/84 16/16/16 76/76/76
f 84/84/84 14/14/14 15/15/15
f 100/100/100 14/14/14 92/92/92
f 11/11/11 93/93/93 85/85/85
f 93/93/93 86/86/86 85/85/85
f 94/94/94 87/87/87 86/86/86
f 87/87/87 96/96/96 88/88/88
f 96/96/96 89/89/89 88/88/88
f 97/97/97 90/90/90 89/89/89
f 90/90/90 99/99/99 91/91/91
f 91/91/91 100/100/100 92/92/92
f 10/10/10 85/85/85 77/77/77
f 77/77/77 86/86/86 78/78/78
f 78/78/78 87/87/87 79/79/79
f 79/79/79 88/88/88 80/80/80
f 88/88/88 81/81/81 80/80/80
f 81/81/81 90/90/90 82/82/82
f 82/82/82 91/91/91 83/83/83
f 91/91/91 84/84/84 83/83/83
f 10/10/10 69/69/69 9/9/9
f 69/69/69 78/78/78 70/70/70
f 70/70/70 79/79/79 71/71/71
f 79/79/79 72/72/72 71/71/71
f 72/72/72 81/81/81 73/73/73
f 73/73/73 82/82/82 74/74/74
f 82/82/82 75/75/75 74/74/74
f 83/83/83 76/76/76 75/75/75
f 9/9/9 61/61/61 8/8/8
f 69/69/69 62/62/62 61/61/61
f 62/62/62 71/71/71 63/63/63
f 63/63/63 72/72/72 64/64/64
f 72/72/72 65/65/65 64/64/64
f 65/65/65 74/74/74 66/66/66
f 66/66/66 75/75/75 67/67/67
f 67/67/67 76/76/76 68/68/68
f 8/8/8 53/53/53 7/7/7
f 53/53/53 62/62/62 54/54/54
f 54/54/54 63/63/63 55/55/55
f 55/55/55 64/64/64 56/56/56
f 64/64/64 57/57/57 56/56/56
f 57/57/57 66/66/66 58/58/58
f 58/58/58 67/67/67 59/59/59
f 59/59/59 68/68/68 60/60/60
f 6/6/6 53/53/53 45/45/45
f 45/45/45 54/54/54 46/46/46
f 54/54/54 47/47/47 46/46/46
f 55/55/55 48/48/48 47/47/47
f 56/56/56 49/49/49 48/48/48
f 49/49/49 58/58/58 50/50/50
f 58/58/58 51/51/51 50/50/50
f 59/59/59 52/52/52 51/51/51
f 6/6/6 37/37/37 5/5/5
f 45/45/45 38/38/38 37/37/37
f 46/46/46 39/39/39 38/38/38
f 39/39/39 48/48/48 40/40/40
f 40/40/40 49/49/49 41/41/41
f 41/41/41 50/50/50 42/42/42
f 50/50/50 43/43/43 42/42/42
f 51/51/51 44/44/44 43/43/43
f 5/5/5 28/28/28 1/1/1
f 28/28/28 38/38/38 27/27/27
f 27/27/27 39/39/39 26/26/26
f 26/26/26 40/40/40 25/25/25
f 40/40/40 24/24/24 25/25/25
f 41/41/41 23/23/23 24/24/24
f 23/23/23 43/43/43 22/22/22
f 43/43/43 21/21/21 22/22/22
f 2/2/2 93/93/93 12/12/12
f 93/93/93 30/30/30 94/94/94
f 30/30/30 95/95/95 94/94/94
f 31/31/31 96/96/96 95/95/95
f 32/32/32 97/97/97 96/96/96
f 33/33/33 98/98/98 97/97/97
f 98/98/98 35/35/35 99/99/99
f 99/99/99 36/36/36 100/100/100
f 100/100/100 36/36/36 4/4/4
f 44/44/44 20/20/20 3/3/3
f 44/44/44 52/52/52 19/19/19
f 60/60/60 18/18/18 19/19/19
f 60/60/60 68/68/68 17/17/17
f 76/76/76 16/16/16 17/17/17
f 84/84/84 15/15/15 16/16/16
f 84/84/84 92/92/92 14/14/14
f 100/100/100 13/13/13 14/14/14
f 11/11/11 12/12/12 93/93/93
f 93/93/93 94/94/94 86/86/86
f 94/94/94 95/95/95 87/87/87
f 87/87/87 95/95/95 96/96/96
f 96/96/96 97/97/97 89/89/89
f 97/97/97 98/98/98 90/90/90
f 90/90/90 98/98/98 99/99/99
f 91/91/91 99/99/99 100/100/100
f 10/10/10 11/11/11 85/85/85
f 77/77/77 85/85/85 86/86/86
f 78/78/78 86/86/86 87/87/87
f 79/79/79 87/87/87 88/88/88
f 88/88/88 89/89/89 81/81/81
f 81/81/81 89/89/89 90/90/90
f 82/82/82 90/90/90 91/91/91
f 91/91/91 92/92/92 84/84/84
f 10/10/10 77/77/77 69/69/69
f 69/69/69 77/77/77 78/78/78
f 70/70/70 78/78/78 79/79/79
f 79/79/79 80/80/80 72/72/72
f 72/72/72 80/80/80 81/81/81
f 73/73/73 81/81/81 82/82/82
f 82/82/82 83/83/83 75/75/75
f 83/83/83 84/84/84 76/76/76
f 9/9/9 69/69/69 61/61/61
f 69/69/69 70/70/70 62/62/62
f 62/62/62 70/70/70 71/71/71
f 63/63/63 71/71/71 72/72/72
f 72/72/72 73/73/73 65/65/65
f 65/65/65 73/73/73 74/74/74
f 66/66/66 74/74/74 75/75/75
f 67/67/67 75/75/75 76/76/76
f 8/8/8 61/61/61 53/53/53
f 53/53/53 61/61/61 62/62/62
f 54/54/54 62/62/62 63/63/63
f 55/55/55 63/63/63 64/64/64
f 64/64/64 65/65/65 57/57/57
f 57/57/57 65/65/65 66/66/66
f 58/58/58 66/66/66 67/67/67
f 59/59/59 67/67/67 68/68/68
f 6/6/6 7/7/7 53/53/53
f 45/45/45 53/53/53 54/54/54
f 54/54/54 55/55/55 47/47/47
f 55/55/55 56/56/56 48/48/48
f 56/56/56 57/57/57 49/49/49
f 49/49/49 57/57/57 58/58/58
f 58/58/58 59/59/59 51/51/51
f 59/59/59 60/60/60 52/52/52
f 6/6/6 45/45/45 37/37/37
f 45/45/45 46/46/46 38/38/38
f 46/46/46 47/47/47 39/39/39
f 39/39/39 47/47/47 48/48/48
f 40/40/40 48/48/48 49/49/49
f 41/41/41 49/49/49 50/50/50
f 50/50/50 51/51/51 43/43/43
f 51/51/51 52/52/52 44/44/44
f 5/5/5 37/37/37 28/28/28
f 28/28/28 37/37/37 38/38/38
f 27/27/27 38/38/38 39/39/39
f 26/26/26 39/39/39 40/40/40
f 40/40/40 41/41/41 24/24/24
f 41/41/41 42/42/42 23/23/23
f 23/23/23 42/42/42 43/43/43
f 43/43/43 44/44/44 21/21/21
f 2/2/2 29/29/29 93/93/93
f 93/93/93 29/29/29 30/30/30
f 30/30/30 31/31/31 95/95/95
f 31/31/31 32/32/32 96/96/96
f 32/32/32 33/33/33 97/97/97
f 33/33/33 34/34/34 98/98/98
f 98/98/98 34/34/34 35/35/35
f 99/99/99 35/35/35 36/36/36
