o GNATVCloth
v -4.99708 -5.00371 0.0694814
v 5.04744 -5.00589 0.0664972
v -5.01298 5.02105 0.004229
v 4.98702 5.02105 0.004229
v -3.88325 -5.03274 0.0572178
v -2.76499 -5.05877 0.0375832
v -1.64648 -5.04553 0.0450139
v -0.536142 -5.04234 0.0485204
v 0.578571 -5.05667 0.0111529
v 1.69347 -5.06441 0.0314918
v 2.81353 -5.05915 0.0502443
v 3.93334 -5.03171 0.0733026
v 3.86813 4.96109 0.059996
v 2.77978 4.89858 0.0404932
v 1.68973 4.89969 0.0603638
v 0.576727 4.90355 0.049015
v -0.53201 4.89898 0.0307519
v -1.64384 4.90887 0.0709589
v -2.7577 4.92633 0.0381135
v -3.88055 4.97273 0.0565208
v -4.9986 3.90548 0.0464822
v -4.99024 2.7894 0.0547233
v -4.98073 1.67408 0.0468387
v -4.97128 0.559035 0.0538437
v -4.97044 -0.555269 0.0625922
v -4.97413 -1.6687 0.0530593
v -4.97624 -2.78129 0.0467693
v -4.98158 -3.89483 0.0435388
v 5.02839 -3.89262 0.0698341
v 5.02489 -2.78099 0.0334731
v 5.02496 -1.66738 0.0369393
v 5.02374 -0.554816 0.0501058
v 5.02336 0.558405 0.0607361
v 5.01945 1.67353 0.0584256
v 5.01627 2.78916 0.0492548
v 5.00251 3.90521 0.034844
v -3.81123 -3.88121 0.0446097
v -3.77511 -3.23216 0.0349379
v -3.63751 -1.94097 0.0221815
v -4.10014 -0.283233 0.0288424
v -4.13 0.73246 0.0293035
v -4.12709 1.51877 0.0439901
v -4.07184 2.81057 0.031553
v -3.92684 3.89761 0.0278398
v -2.68331 -4.03288 0.0385719
v -2.76462 -2.76353 0.0386896
v -2.64718 -2.17155 0.0324156
v -2.73217 -0.631812 0.0358617
v -2.77176 0.499325 0.0308792
v -2.70993 1.54792 0.0330983
v -2.84085 2.88789 0.0346247
v -2.73479 3.58707 0.0357458
v -1.62834 -4.25212 0.0265359
v -1.47495 -2.93417 0.0197896
v -1.86569 -1.65035 0.0454081
v -1.85453 -0.855443 0.0462143
v -1.5076 0.643196 0.033931
v -1.97132 1.69632 0.031056
v -1.69516 2.74547 0.0320494
v -1.53442 3.7651 0.0302526
v -0.211003 -4.32002 0.0353165
v -0.56709 -2.88339 0.0282687
v -0.529942 -1.7482 0.0336606
v -0.820512 -0.771156 0.0321556
v -0.586265 0.450108 0.0338238
v -0.352047 1.47746 0.0355145
v -0.540101 2.67619 0.0321683
v -0.720172 3.57148 0.0382222
v 0.754688 -3.89182 0.0260167
v 0.827117 -2.60299 0.0425784
v 0.54029 -1.82251 0.0454528
v 0.626612 -0.485062 0.0233496
v 0.601458 0.418238 0.0358571
v 0.320599 1.53229 0.0388715
v 0.551989 2.51273 0.0396615
v 0.574059 3.79609 0.0361257
v 1.96667 -3.66873 0.0413859
v 1.68886 -2.85399 0.0345001
v 1.83766 -1.93052 0.0302466
v 2.00231 -0.404656 0.0444414
v 1.98869 0.27918 0.0309982
v 1.8463 1.54287 0.0234053
v 1.44105 2.82447 0.0407036
v 1.50253 3.68698 0.0295868
v 2.80597 -3.94367 0.0377456
v 3.11657 -2.86266 0.0387364
v 2.9702 -1.98318 0.0285859
v 2.74275 -0.518749 0.0320494
v 2.99037 0.274117 0.0360882
v 3.09599 1.56734 0.0273145
v 2.80647 3.13804 0.032539
v 2.7699 3.50921 0.0495068
v 3.93223 -3.98741 0.0246594
v 3.67971 -2.73391 0.0464845
v 3.89644 -1.69465 0.0411539
v 3.83675 -0.74033 0.0225317
v 3.90305 0.271274 0.0359842
v 4.20613 1.78997 0.0334728
v 4.17304 2.7559 0.0339999
v 4.05463 3.882 0.0299597
vt 0.0001 0.0001
vt 0.9999 0.0001
vt 0.0001 0.9999
vt 0.9999 0.9999
vt 0.111189 0.0001
vt 0.222278 0.0001
vt 0.333367 0.0001
vt 0.444455 0.0001
vt 0.555544 0.0001
vt 0.666633 0.0001
vt 0.777722 0.0001
vt 0.888811 0.0001
vt 0.888811 0.9999
vt 0.777722 0.9999
vt 0.666633 0.9999
vt 0.555544 0.9999
vt 0.444455 0.9999
vt 0.333367 0.9999
vt 0.222278 0.9999
vt 0.111189 0.9999
vt 0.0001 0.888811
vt 0.0001 0.777722
vt 0.0001 0.666633
vt 0.0001 0.555544
vt 0.0001 0.444456
vt 0.0001 0.333367
vt 0.0001 0.222278
vt 0.0001 0.111189
vt 0.9999 0.111189
vt 0.9999 0.222278
vt 0.9999 0.333367
vt 0.9999 0.444456
vt 0.9999 0.555544
vt 0.9999 0.666633
vt 0.9999 0.777722
vt 0.9999 0.888811
vt 0.11727 0.115399
vt 0.120778 0.180369
vt 0.134636 0.309595
vt 0.088728 0.473895
vt 0.085886 0.575352
vt 0.086211 0.65375
vt 0.092207 0.78313
vt 0.106956 0.892282
vt 0.22987 0.102869
vt 0.221803 0.229552
vt 0.233521 0.288953
vt 0.225541 0.443179
vt 0.221596 0.556167
vt 0.227801 0.661237
vt 0.214896 0.795203
vt 0.22542 0.865181
vt 0.335524 0.082127
vt 0.351143 0.213907
vt 0.311934 0.342467
vt 0.313159 0.422214
vt 0.347791 0.572605
vt 0.301482 0.677733
vt 0.329031 0.783086
vt 0.344903 0.885466
vt 0.476837 0.074882
vt 0.441952 0.218774
vt 0.445749 0.333088
vt 0.416414 0.43099
vt 0.439746 0.552976
vt 0.463203 0.656843
vt 0.444252 0.77653
vt 0.426137 0.866051
vt 0.573419 0.117409
vt 0.581125 0.246686
vt 0.552512 0.326
vt 0.561075 0.459693
vt 0.558356 0.550596
vt 0.530299 0.662189
vt 0.553275 0.760113
vt 0.555478 0.888821
vt 0.694433 0.13996
vt 0.667048 0.221666
vt 0.681985 0.314267
vt 0.698218 0.467249
vt 0.696819 0.535952
vt 0.68253 0.662758
vt 0.642062 0.791726
vt 0.648523 0.877957
vt 0.778029 0.111667
vt 0.809426 0.219523
vt 0.794923 0.307783
vt 0.772028 0.454562
vt 0.796846 0.533374
vt 0.807262 0.663157
vt 0.778581 0.821037
vt 0.775122 0.858219
vt 0.890224 0.104741
vt 0.865679 0.23076
vt 0.887326 0.334104
vt 0.881307 0.429754
vt 0.887973 0.53063
vt 0.918106 0.681428
vt 0.915043 0.778027
vt 0.904815 0.89094
vn 0.0116119 0.0232251 0.999663
vn -0.0179276 0.0214324 0.99961
vn -0.0147663 0.00673778 0.999868
vn 0.0224984 0.00416719 0.999738
vn 0.00945113 0.0146918 0.999847
vn 0.00676515 0.00751529 0.999949
vn -0.0050715 0.0233985 0.999713
vn 0.0083729 0.0157184 0.999841
vn 0.0105423 -0.00735302 0.999917
vn -0.0112523 -0.0027849 0.999933
vn -0.00881499 0.022962 0.999697
vn -0.00834064 0.0465187 0.998883
vn 0.0173282 -0.0248274 0.999542
vn 0.000151811 -0.0114528 0.999934
vn 0.00395759 -0.0259808 0.999655
vn -0.00700832 -0.0156783 0.999853
vn 0.00297609 -0.00785192 0.999965
vn 0.00289186 -0.0352906 0.999373
vn -0.00427536 -0.0173343 0.999841
vn -0.0159601 -0.0259773 0.999535
vn 0.0200374 0.01558 0.999678
vn 0.0252128 0.000359403 0.999682
vn 0.0145474 -0.00239986 0.999891
vn 0.0310611 0.00492982 0.999505
vn 0.0388782 -0.000409304 0.999244
vn 0.0290069 -0.00393706 0.999571
vn 0.0145726 -4.91507e-05 0.999894
vn 0.00455647 0.0115647 0.999923
vn -0.0424172 0.0144167 0.998996
vn -0.0053138 0.00423397 0.999977
vn -0.00476852 0.00158243 0.999987
vn -0.0207917 -0.0111007 0.999722
vn -0.0245838 -0.000400462 0.999698
vn -0.0299434 0.00504843 0.999539
vn -0.0220442 0.00654973 0.999736
vn -0.00987884 0.0143554 0.999848
vn 0.00562431 0.0097857 0.999936
vn 0.00261749 0.00758159 0.999968
vn 0.00353265 0.00279397 0.99999
vn 0.0169365 8.94667e-06 0.999857
vn 0.010359 -0.00549739 0.999931
vn 0.00513818 -0.00466558 0.999976
vn 0.0107472 0.00327695 0.999937
vn -0.00192734 -0.00163625 0.999997
vn 0.00781263 0.00258504 0.999966
vn 0.0021208 0.00618495 0.999979
vn -0.00404447 -0.00141931 0.999991
vn -0.00984005 -0.000718357 0.999951
vn -0.00290999 0.00200652 0.999994
vn 0.00296848 -0.00265978 0.999992
vn -0.00081899 -0.000403209 1
vn -0.000530231 -0.000998509 0.999999
vn -0.00112388 0.011277 0.999936
vn 0.00407916 -0.00351707 0.999986
vn 0.000156147 -0.0065516 0.999979
vn 0.00013036 0.0032228 0.999995
vn 0.000704434 0.00240132 0.999997
vn 7.32285e-05 8.21211e-06 1
vn -0.000201724 -0.00115295 0.999999
vn -0.000363209 -0.0102022 0.999948
vn 0.00908272 0.00370789 0.999952
vn -0.00657865 -0.00170827 0.999977
vn -0.00136229 -0.000321803 0.999999
vn 0.00797942 0.00123065 0.999967
vn -0.000434336 -0.00385721 0.999992
vn -0.0036249 0.000674384 0.999993
vn -0.00223853 -0.00115955 0.999997
vn -0.00287199 0.000484165 0.999996
vn -0.00323322 -0.00644651 0.999974
vn 0.00218321 -0.00578295 0.999981
vn -0.00104335 0.00443324 0.99999
vn -0.00200482 0.00216404 0.999996
vn 0.00250572 -0.00490457 0.999985
vn 0.00170595 -0.00133003 0.999998
vn -0.00113995 -0.0013155 0.999999
vn -0.00106971 -0.000856147 0.999999
vn -0.00450692 -0.000575285 0.99999
vn -0.000295554 0.00275517 0.999996
vn 0.0054628 0.000406685 0.999985
vn 0.000883135 0.00518848 0.999986
vn -0.000535589 0.00591468 0.999982
vn 0.00426108 -0.00263223 0.999987
vn 0.00421481 0.000888323 0.999991
vn -0.00172298 -0.0114211 0.999933
vn 0.00246081 0.0017461 0.999995
vn -0.00263624 0.000324989 0.999996
vn -0.00609397 0.00684607 0.999958
vn 0.00780631 -0.000821153 0.999969
vn -0.00054503 -0.00203603 0.999998
vn -0.00354759 0.00202207 0.999992
vn 0.00165054 -0.0132846 0.99991
vn 0.000953475 -0.0194618 0.99981
vn -0.00978144 0.0117659 0.999883
vn -0.0044907 -0.00287022 0.999986
vn -0.00372741 0.00930147 0.99995
vn -0.00613977 -0.00106124 0.999981
vn -0.0117752 -0.00311909 0.999926
vn -0.018864 0.00291116 0.999818
vn -0.00823908 0.0022817 0.999963
vn 0.00922334 -0.00746088 0.99993
f 100/100/100 4/4/4 13/13/13
f 44/44/44 3/3/3 21/21/21
f 44/44/44 19/19/19 20/20/20
f 60/60/60 19/19/19 52/52/52
f 60/60/60 17/17/17 18/18/18
f 76/76/76 17/17/17 68/68/68
f 84/84/84 16/16/16 76/76/76
f 84/84/84 14/14/14 15/15/15
f 100/100/100 14/14/14 92/92/92
f 11/11/11 93/93/93 85/85/85
f 93/93/93 86/86/86 85/85/85
f 94/94/94 87/87/87 86/86/86
f 87/87/87 96/96/96 88/88/88
f 96/96/96 89/89/89 88/88/88
f 97/97/97 90/90/90 89/89/89
f 90/90/90 99/99/99 91/91/91
f 91/91/91 100/100/100 92/92/92
f 10/10/10 85/85/85 77/77/77
f 77/77/77 86/86/86 78/78/78
f 78/78/78 87/87/87 79/79/79
f 79/79/79 88/88/88 80/80/80
f 88/88/88 81/81/81 80/80/80
f 81/81/81 90/90/90 82/82/82
f 82/82/82 91/91/91 83/83/83
f 91/91/91 84/84/84 83/83/83
f 10/10/10 69/69/69 9/9/9
f 69/69/69 78/78/78 70/70/70
f 70/70/70 79/79/79 71/71/71
f 79/79/79 72/72/72 71/71/71
f 72/72/72 81/81/81 73/73/73
f 73/73/73 82/82/82 74/74/74
f 82/82/82 75/75/75 74/74/74
f 83/83/83 76/76/76 75/75/75
f 9/9/9 61/61/61 8/8/8
f 69/69/69 62/62/62 61/61/61
f 62/62/62 71/71/71 63/63/63
f 63/63/63 72/72/72 64/64/64
f 72/72/72 65/65/65 64/64/64
f 65/65/65 74/74/74 66/66/66
f 66/66/66 75/75/75 67/67/67
f 67/67/67 76/76/76 68/68/68
f 8/8/8 53/53/53 7/7/7
f 53/53/53 62/62/62 54/54/54
f 54/54/54 63/63/63 55/55/55
f 55/55/55 64/64/64 56/56/56
f 64/64/64 57/57/57 56/56/56
f 57/57/57 66/66/66 58/58/58
f 58/58/58 67/67/67 59/59/59
f 59/59/59 68/68/68 60/60/60
f 6/6/6 53/53/53 45/45/45
f 45/45/45 54/54/54 46/46/46
f 54/54/54 47/47/47 46/46/46
f 55/55/55 48/48/48 47/47/47
f 56/56/56 49/49/49 48/48/48
f 49/49/49 58/58/58 50/50/50
f 58/58/58 51/51/51 50/50/50
f 59/59/59 52/52/52 51/51/51
f 6/6/6 37/37/37 5/5/5
f 45/45/45 38/38/38 37/37/37
f 46/46/46 39/39/39 38/38/38
f 39/39/39 48/48/48 40/40/40
f 40/40/40 49/49/49 41/41/41
f 41/41/41 50/50/50 42/42/42
f 50/50/50 43/43/43 42/42/42
f 51/51/51 44/44/44 43/43/43
f 5/5/5 28/28/28 1/1/1
f 28/28/28 38/38/38 27/27/27
f 27/27/27 39/39/39 26/26/26
f 26/26/26 40/40/40 25/25/25
f 40/40/40 24/24/24 25/25/25
f 41/41/41 23/23/23 24/24/24
f 23/23/23 43/43/43 22/22/22
f 43/43/43 21/21/21 22/22/22
f 2/2/2 93/93/93 12/12/12
f 93/93/93 30/30/30 94/94/94
f 30/30/30 95/95/95 94/94/94
f 31/31/31 96/96/96 95/95/95
f 32/32/32 97/97/97 96/96/96
f 33/33/33 98/98/98 97/97/97
f 98/98/98 35/35/35 99/99/99
f 99/99/99 36/36/36 100/100/100
f 100/100/100 36/36/36 4/4/4
f 44/44/44 20/20/20 3/3/3
f 44/44/44 52/52/52 19/19/19
f 60/60/60 18/18/18 19/19/19
f 60/60/60 68/68/68 17/17/17
f 76/76/76 16/16/16 17/17/17
f 84/84/84 15/15/15 16/16/16
f 84/84/84 92/92/92 14/14/14
f 100/100/100 13/13/13 14/14/14
f 11/11/11 12/12/12 93/93/93
f 93/93/93 94/94/94 86/86/86
f 94/94/94 95/95/95 87/87/87
f 87/87/87 95/95/95 96/96/96
f 96/96/96 97/97/97 89/89/89
f 97/97/97 98/98/98 90/90/90
f 90/90/90 98/98/98 99/99/99
f 91/91/91 99/99/99 100/100/100
f 10/10/10 11/11/11 85/85/85
f 77/77/77 85/85/85 86/86/86
f 78/78/78 86/86/86 87/87/87
f 79/79/79 87/87/87 88/88/88
f 88/88/88 89/89/89 81/81/81
f 81/81/81 89/89/89 90/90/90
f 82/82/82 90/90/90 91/91/91
f 91/91/91 92/92/92 84/84/84
f 10/10/10 77/77/77 69/69/69
f 69/69/69 77/77/77 78/78/78
f 70/70/70 78/78/78 79/79/79
f 79/79/79 80/80/80 72/72/72
f 72/72/72 80/80/80 81/81/81
f 73/73/73 81/81/81 82/82/82
f 82/82/82 83/83/83 75/75/75
f 83/83/83 84/84/84 76/76/76
f 9/9/9 69/69/69 61/61/61
f 69/69/69 70/70/70 62/62/62
f 62/62/62 70/70/70 71/71/71
f 63/63/63 71/71/71 72/72/72
f 72/72/72 73/73/73 65/65/65
f 65/65/65 73/73/73 74/74/74
f 66/66/66 74/74/74 75/75/75
f 67/67/67 75/75/75 76/76/76
f 8/8/8 61/61/61 53/53/53
f 53/53/53 61/61/61 62/62/62
f 54/54/54 62/62/62 63/63/63
f 55/55/55 63/63/63 64/64/64
f 64/64/64 65/65/65 57/57/57
f 57/57/57 65/65/65 66/66/66
f 58/58/58 66/66/66 67/67/67
f 59/59/59 67/67/67 68/68/68
f 6/6/6 7/7/7 53/53/53
f 45/45/45 53/53/53 54/54/54
f 54/54/54 55/55/55 47/47/47
f 55/55/55 56/56/56 48/48/48
f 56/56/56 57/57/57 49/49/49
f 49/49/49 57/57/57 58/58/58
f 58/58/58 59/59/59 51/51/51
f 59/59/59 60/60/60 52/52/52
f 6/6/6 45/45/45 37/37/37
f 45/45/45 46/46/46 38/38/38
f 46/46/46 47/47/47 39/39/39
f 39/39/39 47/47/47 48/48/48
f 40/40/40 48/48/48 49/49/49
f 41/41/41 49/49/49 50/50/50
f 50/50/50 51/51/51 43/43/43
f 51/51/51 52/52/52 44/44/44
f 5/5/5 37/37/37 28/28/28
f 28/28/28 37/37/37 38/38/38
f 27/27/27 38/38/38 39/39/39
f 26/26/26 39/39/39 40/40/40
f 40/40/40 41/41/41 24/24/24
f 41/41/41 42/42/42 23/23/23
f 23/23/23 42/42/42 43/43/43
f 43/43/43 44/44/44 21/21/21
f 2/2/2 29/29/29 93/93/93
f 93/93/93 29/29/29 30/30/30
f 30/30/30 31/31/31 95/95/95
f 31/31/31 32/32/32 96/96/96
f 32/32/32 33/33/33 97/97/97
f 33/33/33 34/34/34 98/98/98
f 98/98/98 34/34/34 35/35/35
f 99/99/99 35/35/35 36/36/36
