o GNATVCloth
v -4.93645 -5.01023 0.268939
v 5.19186 -5.00606 0.275386
v -5.01298 5.02105 0.004229
v 4.98702 5.02105 0.004229
v -3.82001 -5.05192 0.21579
v -2.69861 -5.09217 0.193474
v -1.57154 -5.12806 0.170099
v -0.441665 -5.15175 0.145725
v 0.690654 -5.15805 0.157893
v 1.82182 -5.14942 0.141411
v 2.95061 -5.10858 0.169118
v 4.07357 -5.05559 0.224226
v 3.85492 4.93079 0.0758117
v 2.73776 4.83968 0.179908
v 1.62221 4.73842 0.225994
v 0.655203 4.67378 0.187144
v -0.462222 4.74677 0.16706
v -1.58573 4.81228 0.177365
v -2.71971 4.88906 0.14864
v -3.85892 4.94982 0.0693902
v -4.97688 3.90444 0.0454479
v -4.9606 2.7874 0.080831
v -4.9461 1.67086 0.112726
v -4.92987 0.554988 0.150936
v -4.91809 -0.55957 0.197149
v -4.91286 -1.67398 0.22044
v -4.91062 -2.78665 0.230271
v -4.91663 -3.9001 0.222687
v 5.1625 -3.8971 0.215494
v 5.14604 -2.78486 0.190397
v 5.12723 -1.67181 0.200469
v 5.10989 -0.557858 0.179772
v 5.09028 0.556566 0.142826
v 5.06749 1.6722 0.106495
v 5.04249 2.78813 0.0684883
v 5.01384 3.9044 0.0332317
v -3.74202 -3.90033 0.17159
v -3.70422 -3.25157 0.161246
v -3.56638 -1.96281 0.123286
v -4.03484 -0.300513 0.134947
v -4.0744 0.716533 0.130911
v -4.08138 1.50377 0.117663
v -4.03941 2.79502 0.0840574
v -3.89914 3.87911 0.0411221
v -2.60795 -4.06846 0.147453
v -2.68768 -2.79699 0.134318
v -2.57176 -2.20633 0.114386
v -2.66116 -0.661309 0.165229
v -2.71216 0.469854 0.155763
v -2.66348 1.51694 0.133684
v -2.80781 2.86041 0.104844
v -2.7058 3.54706 0.145133
v -1.54146 -4.30789 0.138253
v -1.38376 -2.99543 0.12564
v -1.7866 -1.69914 0.181763
v -1.7795 -0.900446 0.176096
v -1.44586 0.592025 0.125521
v -1.92473 1.65628 0.130957
v -1.66126 2.69992 0.14645
v -1.4974 3.69241 0.150009
v -0.11176 -4.4089 0.122586
v -0.467984 -2.96813 0.122634
v -0.438301 -1.82701 0.154345
v -0.741744 -0.840024 0.13335
v -0.519665 0.376234 0.135847
v -0.297074 1.40475 0.146008
v -0.499312 2.60425 0.1448
v -0.681788 3.46826 0.146865
v 0.863721 -3.99038 0.139821
v 0.933506 -2.69853 0.142823
v 0.637569 -1.90814 0.145854
v 0.710956 -0.575562 0.113897
v 0.673101 0.33358 0.143995
v 0.377285 1.44817 0.154
v 0.599171 2.41413 0.149166
v 0.621226 3.64536 0.134436
v 2.08436 -3.74433 0.155043
v 1.80158 -2.93802 0.134506
v 1.94291 -2.00789 0.140067
v 2.08845 -0.473353 0.156145
v 2.06719 0.207594 0.124336
v 1.90089 1.46621 0.099909
v 1.46909 2.73984 0.169036
v 1.5162 3.53354 0.133058
v 2.93215 -3.99375 0.140611
v 3.23479 -2.90366 0.182227
v 3.07998 -2.02927 0.105403
v 2.83028 -0.573472 0.163625
v 3.06723 0.225757 0.163707
v 3.14955 1.52505 0.113892
v 2.82764 3.08477 0.129451
v 2.77892 3.422 0.175844
v 4.06517 -4.0156 0.123161
v 3.7993 -2.76757 0.185128
v 3.99981 -1.72229 0.173926
v 3.92681 -0.769297 0.130689
v 3.97654 0.244443 0.137719
v 4.24654 1.7708 0.121736
v 4.19689 2.73546 0.0989045
v 4.06326 3.85947 0.0725006
vt 0.0001 0.0001
vt 0.9999 0.0001
vt 0.0001 0.9999
vt 0.9999 0.9999
vt 0.111189 0.0001
vt 0.222278 0.0001
vt 0.333367 0.0001
vt 0.444455 0.0001
vt 0.555544 0.0001
vt 0.666633 0.0001
vt 0.777722 0.0001
vt 0.888811 0.0001
vt 0.888811 0.9999
vt 0.777722 0.9999
vt 0.666633 0.9999
vt 0.555544 0.9999
vt 0.444455 0.9999
vt 0.333367 0.9999
vt 0.222278 0.9999
vt 0.111189 0.9999
vt 0.0001 0.888811
vt 0.0001 0.777722
vt 0.0001 0.666633
vt 0.0001 0.555544
vt 0.0001 0.444456
vt 0.0001 0.333367
vt 0.0001 0.222278
vt 0.0001 0.111189
vt 0.9999 0.111189
vt 0.9999 0.222278
vt 0.9999 0.333367
vt 0.9999 0.444456
vt 0.9999 0.555544
vt 0.9999 0.666633
vt 0.9999 0.777722
vt 0.9999 0.888811
vt 0.11727 0.115399
vt 0.120778 0.180369
vt 0.134636 0.309595
vt 0.088728 0.473895
vt 0.085886 0.575352
vt 0.086211 0.65375
vt 0.092207 0.78313
vt 0.106956 0.892282
vt 0.22987 0.102869
vt 0.221803 0.229552
vt 0.233521 0.288953
vt 0.225541 0.443179
vt 0.221596 0.556167
vt 0.227801 0.661237
vt 0.214896 0.795203
vt 0.22542 0.865181
vt 0.335524 0.082127
vt 0.351143 0.213907
vt 0.311934 0.342467
vt 0.313159 0.422214
vt 0.347791 0.572605
vt 0.301482 0.677733
vt 0.329031 0.783086
vt 0.344903 0.885466
vt 0.476837 0.074882
vt 0.441952 0.218774
vt 0.445749 0.333088
vt 0.416414 0.43099
vt 0.439746 0.552976
vt 0.463203 0.656843
vt 0.444252 0.77653
vt 0.426137 0.866051
vt 0.573419 0.117409
vt 0.581125 0.246686
vt 0.552512 0.326
vt 0.561075 0.459693
vt 0.558356 0.550596
vt 0.530299 0.662189
vt 0.553275 0.760113
vt 0.555478 0.888821
vt 0.694433 0.13996
vt 0.667048 0.221666
vt 0.681985 0.314267
vt 0.698218 0.467249
vt 0.696819 0.535952
vt 0.68253 0.662758
vt 0.642062 0.791726
vt 0.648523 0.877957
vt 0.778029 0.111667
vt 0.809426 0.219523
vt 0.794923 0.307783
vt 0.772028 0.454562
vt 0.796846 0.533374
vt 0.807262 0.663157
vt 0.778581 0.821037
vt 0.775122 0.858219
vt 0.890224 0.104741
vt 0.865679 0.23076
vt 0.887326 0.334104
vt 0.881307 0.429754
vt 0.887973 0.53063
vt 0.918106 0.681428
vt 0.915043 0.778027
vt 0.904815 0.89094
vn 0.0490293 0.0407036 0.997968
vn -0.0695227 0.0738153 0.994846
vn -0.0265063 0.00644125 0.999628
vn 0.0511925 0.0179769 0.998527
vn 0.037895 0.0376674 0.998572
vn 0.0222552 0.0401595 0.998945
vn 0.0221381 0.0379789 0.999033
vn 0.00818806 0.0330879 0.999419
vn -0.007341 0.0228219 0.999713
vn -0.00211777 0.00464955 0.999987
vn -0.0209738 0.0490857 0.998574
vn -0.0515273 0.0961832 0.994029
vn 0.0769884 0.0118904 0.996961
vn 0.0466488 -0.0177101 0.998754
vn 0.00669379 -0.0774885 0.996971
vn -0.0203994 -0.0584351 0.998083
vn -0.000491163 -0.026964 0.999636
vn -0.00966599 -0.0251807 0.999636
vn -0.047345 -0.0141055 0.998779
vn -0.0642406 -0.0239259 0.997648
vn 0.00201515 0.0358633 0.999355
vn -0.00374957 0.0300551 0.999541
vn 0.00250163 0.0264542 0.999647
vn 0.0324441 0.0270991 0.999106
vn 0.061001 0.0315629 0.997639
vn 0.0709724 0.0147497 0.997369
vn 0.0646621 0.00807514 0.997874
vn 0.0475902 0.0205998 0.998654
vn -0.0876822 0.0362839 0.995487
vn -0.0294121 -0.00684566 0.999544
vn -0.0310756 0.0172679 0.999368
vn -0.0330079 0.0152745 0.999338
vn 0.000267424 0.0259239 0.999664
vn 0.0226053 0.0337685 0.999174
vn 0.0303213 0.0307914 0.999066
vn 0.0379436 0.0291778 0.998854
vn 0.0318224 0.0285465 0.999086
vn 0.0370477 0.0138094 0.999218
vn 0.0314654 0.00811954 0.999472
vn 0.0222992 0.0112338 0.999688
vn -0.00108196 0.016312 0.999866
vn -0.00653278 0.0214897 0.999748
vn -0.00739903 0.0304369 0.999509
vn -0.0463996 0.00328996 0.998917
vn 0.0182346 0.0218649 0.999595
vn 0.014282 0.022489 0.999645
vn -0.0162897 -0.0130897 0.999782
vn -0.021272 -0.0101658 0.999722
vn -0.00258386 0.0137239 0.999902
vn -0.00930642 0.0211523 0.999733
vn -0.0361516 -0.00304108 0.999342
vn -0.0475472 -0.0209973 0.998648
vn 0.0142905 0.0235793 0.99962
vn 0.000862755 -0.00916666 0.999958
vn -0.00667456 -0.0150733 0.999864
vn 0.0161961 0.0151962 0.999753
vn 0.00822892 0.0070776 0.999941
vn -0.00489255 0.00243116 0.999985
vn -0.0133409 -0.0136052 0.999818
vn -0.0040741 -0.0126241 0.999912
vn -0.00570952 0.0158715 0.999858
vn -0.0026801 -0.00828558 0.999962
vn 0.0113846 -0.00301285 0.999931
vn 0.0192644 0.013237 0.999727
vn -0.00605628 -0.0105855 0.999926
vn -0.0100942 -0.00281073 0.999945
vn -0.000686779 -0.000934844 0.999999
vn 0.00501528 -0.00801858 0.999955
vn -0.00858631 0.00519252 0.99995
vn -0.0012339 -0.00446887 0.999989
vn 0.00263915 0.00165971 0.999995
vn -0.00272988 0.00479882 0.999985
vn 0.00948696 -0.0109977 0.999894
vn 0.0080112 -0.00263705 0.999964
vn -0.00206339 -0.00424733 0.999989
vn -0.00382784 -0.0072048 0.999967
vn -0.00844003 -0.00522878 0.999951
vn -0.00641531 0.0157043 0.999856
vn 0.00525006 -0.00688475 0.999963
vn -0.0198178 0.0187839 0.999627
vn -0.0146133 0.021622 0.999659
vn 0.0145218 -0.0101928 0.999843
vn 0.00695765 0.00115361 0.999975
vn -0.00669591 -0.0377153 0.999266
vn 0.00476347 -0.00861884 0.999952
vn -0.0112623 0.00801671 0.999904
vn -0.021003 0.0212127 0.999554
vn 0.00453668 -0.00509242 0.999977
vn 0.00108905 0.0144282 0.999895
vn -0.00517935 0.0160886 0.999857
vn 0.0244009 -0.0356165 0.999068
vn 0.0300643 -0.0666588 0.997323
vn -0.030827 0.0187709 0.999348
vn -0.0220542 0.00447952 0.999747
vn -0.0445209 0.0221126 0.998764
vn -0.0167108 0.00600537 0.999842
vn -0.00260623 0.0133787 0.999907
vn 0.00824498 0.0233495 0.999693
vn 0.0243236 0.0217285 0.999468
vn 0.066259 -0.0018633 0.997801
f 100/100/100 4/4/4 13/13/13
f 44/44/44 3/3/3 21/21/21
f 44/44/44 19/19/19 20/20/20
f 60/60/60 19/19/19 52/52/52
f 60/60/60 17/17/17 18/18/18
f 76/76/76 17/17/17 68/68/68
f 84/84/84 16/16/16 76/76/76
f 84/84/84 14/14/14 15/15/15
f 100/100/100 14/14/14 92/92/92
f 11/11/11 93/93/93 85/85/85
f 93/93/93 86/86/86 85/85/85
f 94/94/94 87/87/87 86/86/86
f 87/87/87 96/96/96 88/88/88
f 96/96/96 89/89/89 88/88/88
f 97/97/97 90/90/90 89/89/89
f 90/90/90 99/99/99 91/91/91
f 91/91/91 100/100/100 92/92/92
f 10/10/10 85/85/85 77/77/77
f 77/77/77 86/86/86 78/78/78
f 78/78/78 87/87/87 79/79/79
f 79/79/79 88/88/88 80/80/80
f 88/88/88 81/81/81 80/80/80
f 81/81/81 90/90/90 82/82/82
f 82/82/82 91/91/91 83/83/83
f 91/91/91 84/84/84 83/83/83
f 10/10/10 69/69/69 9/9/9
f 69/69/69 78/78/78 70/70/70
f 70/70/70 79/79/79 71/71/71
f 79/79/79 72/72/72 71/71/71
f 72/72/72 81/81/81 73/73/73
f 73/73/73 82/82/82 74/74/74
f 82/82/82 75/75/75 74/74/74
f 83/83/83 76/76/76 75/75/75
f 9/9/9 61/61/61 8/8/8
f 69/69/69 62/62/62 61/61/61
f 62/62/62 71/71/71 63/63/63
f 63/63/63 72/72/72 64/64/64
f 72/72/72 65/65/65 64/64/64
f 65/65/65 74/74/74 66/66/66
f 66/66/66 75/75/75 67/67/67
f 67/67/67 76/76/76 68/68/68
f 8/8/8 53/53/53 7/7/7
f 53/53/53 62/62/62 54/54/54
f 54/54/54 63/63/63 55/55/55
f 55/55/55 64/64/64 56/56/56
f 64/64/64 57/57/57 56/56/56
f 57/57/57 66/66/66 58/58/58
f 58/58/58 67/67/67 59/59/59
f 59/59/59 68/68/68 60/60/60
f 6/6/6 53/53/53 45/45/45
f 45/45/45 54/54/54 46/46/46
f 54/54/54 47/47/47 46/46/46
f 55/55/55 48/48/48 47/47/47
f 56/56/56 49/49/49 48/48/48
f 49/49/49 58/58/58 50/50/50
f 58/58/58 51/51/51 50/50/50
f 59/59/59 52/52/52 51/51/51
f 6/6/6 37/37/37 5/5/5
f 45/45/45 38/38/38 37/37/37
f 46/46/46 39/39/39 38/38/38
f 39/39/39 48/48/48 40/40/40
f 40/40/40 49/49/49 41/41/41
f 41/41/41 50/50/50 42/42/42
f 50/50/50 43/43/43 42/42/42
f 51/51/51 44/44/44 43/43/43
f 5/5/5 28/28/28 1/1/1
f 28/28/28 38/38/38 27/27/27
f 27/27/27 39/39/39 26/26/26
f 26/26/26 40/40/40 25/25/25
f 40/40/40 24/24/24 25/25/25
f 41/41/41 23/23/23 24/24/24
f 23/23/23 43/43/43 22/22/22
f 43/43/43 21/21/21 22/22/22
f 2/2/2 93/93/93 12/12/12
f 93/93/93 30/30/30 94/94/94
f 30/30/30 95/95/95 94/94/94
f 31/31/31 96/96/96 95/95/95
f 32/32/32 97/97/97 96/96/96
f 33/33/33 98/98/98 97/97/97
f 98/98/98 35/35/35 99/99/99
f 99/99/99 36/36/36 100/100/100
f 100/100/100 36/36/36 4/4/4
f 44/44/44 20/20/20 3/3/3
f 44/44/44 52/52/52 19/19/19
f 60/60/60 18/18/18 19/19/19
f 60/60/60 68/68/68 17/17/17
f 76/76/76 16/16/16 17/17/17
f 84/84/84 15/15/15 16/16/16
f 84/84/84 92/92/92 14/14/14
f 100/100/100 13/13/13 14/14/14
f 11/11/11 12/12/12 93/93/93
f 93/93/93 94/94/94 86/86/86
f 94/94/94 95/95/95 87/87/87
f 87/87/87 95/95/95 96/96/96
f 96/96/96 97/97/97 89/89/89
f 97/97/97 98/98/98 90/90/90
f 90/90/90 98/98/98 99/99/99
f 91/91/91 99/99/99 100/100/100
f 10/10/10 11/11/11 85/85/85
f 77/77/77 85/85/85 86/86/86
f 78/78/78 86/86/86 87/87/87
f 79/79/79 87/87/87 88/88/88
f 88/88/88 89/89/89 81/81/81
f 81/81/81 89/89/89 90/90/90
f 82/82/82 90/90/90 91/91/91
f 91/91/91 92/92/92 84/84/84
f 10/10/10 77/77/77 69/69/69
f 69/69/69 77/77/77 78/78/78
f 70/70/70 78/78/78 79/79/79
f 79/79/79 80/80/80 72/72/72
f 72/72/72 80/80/80 81/81/81
f 73/73/73 81/81/81 82/82/82
f 82/82/82 83/83/83 75/75/75
f 83/83/83 84/84/84 76/76/76
f 9/9/9 69/69/69 61/61/61
f 69/69/69 70/70/70 62/62/62
f 62/62/62 70/70/70 71/71/71
f 63/63/63 71/71/71 72/72/72
f 72/72/72 73/73/73 65/65/65
f 65/65/65 73/73/73 74/74/74
f 66/66/66 74/74/74 75/75/75
f 67/67/67 75/75/75 76/76/76
f 8/8/8 61/61/61 53/53/53
f 53/53/53 61/61/61 62/62/62
f 54/54/54 62/62/62 63/63/63
f 55/55/55 63/63/63 64/64/64
f 64/64/64 65/65/65 57/57/57
f 57/57/57 65/65/65 66/66/66
f 58/58/58 66/66/66 67/67/67
f 59/59/59 67/67/67 68/68/68
f 6/6/6 7/7/7 53/53/53
f 45/45/45 53/53/53 54/54/54
f 54/54/54 55/55/55 47/47/47
f 55/55/55 56/56/56 48/48/48
f 56/56/56 57/57/57 49/49/49
f 49/49/49 57/57/57 58/58/58
f 58/58/58 59/59/59 51/51/51
f 59/59/59 60/60/60 52/52/52
f 6/6/6 45/45/45 37/37/37
f 45/45/45 46/46/46 38/38/38
f 46/46/46 47/47/47 39/39/39
f 39/39/39 47/47/47 48/48/48
f 40/40/40 48/48/48 49/49/49
f 41/41/41 49/49/49 50/50/50
f 50/50/50 51/51/51 43/43/43
f 51/51/51 52/52/52 44/44/44
f 5/5/5 37/37/37 28/28/28
f 28/28/28 37/37/37 38/38/38
f 27/27/27 38/38/38 39/39/39
f 26/26/26 39/39/39 40/40/40
f 40/40/40 41/41/41 24/24/24
f 41/41/41 42/42/42 23/23/23
f 23/23/23 42/42/42 43/43/43
f 43/43/43 44/44/44 21/21/21
f 2/2/2 29/29/29 93/93/93
f 93/93/93 29/29/29 30/30/30
f 30/30/30 31/31/31 95/95/95
f 31/31/31 32/32/32 96/96/96
f 32/32/32 33/33/33 97/97/97
f 33/33/33 34/34/34 98/98/98
f 98/98/98 34/34/34 35/35/35
f 99/99/99 35/35/35 36/36/36
