o GNATVCloth
v -5.04993 -4.98736 0.568466
v 4.9949 -4.9893 0.408027
v -5.01298 5.02105 0.004229
v 4.98702 5.02105 0.004229
v -3.94204 -5.01067 0.550665
v -2.82905 -5.04149 0.477705
v -1.70669 -5.05568 0.488403
v -0.584179 -5.06002 0.498654
v 0.538341 -5.06893 0.458973
v 1.65888 -5.05889 0.481478
v 2.77719 -5.03598 0.458949
v 3.89088 -4.99208 0.503203
v 3.86021 4.93895 0.132386
v 2.74836 4.8768 0.283895
v 1.63129 4.83502 0.348926
v 0.516766 4.80887 0.364278
v -0.59321 4.79271 0.44818
v -1.71014 4.79485 0.508009
v -2.83038 4.80638 0.554818
v -3.9281 4.88881 0.322845
v -4.99931 3.90673 0.071311
v -5.0053 2.79277 0.137748
v -5.01421 1.67968 0.208438
v -5.01938 0.565704 0.255412
v -5.02061 -0.546382 0.314851
v -5.02541 -1.65757 0.373305
v -5.0308 -2.76958 0.430221
v -5.03565 -3.87866 0.528932
v 4.98121 -3.88509 0.287665
v 4.97451 -2.77194 0.316277
v 4.9695 -1.66041 0.267731
v 4.96713 -0.548157 0.226123
v 4.96837 0.564798 0.210914
v 4.96745 1.67856 0.175152
v 4.96939 2.79301 0.136816
v 4.96896 3.90658 0.0679838
v -3.87712 -3.88498 0.318202
v -3.83822 -3.2363 0.27743
v -3.68756 -1.94656 0.242353
v -4.13805 -0.287287 0.204487
v -4.16125 0.72965 0.211263
v -4.15396 1.51062 0.149661
v -4.08579 2.80248 0.0512261
v -3.93041 3.88337 -0.0610371
v -2.74375 -4.03862 0.283257
v -2.82171 -2.77571 0.321954
v -2.69812 -2.1871 0.287004
v -2.77204 -0.641108 0.3099
v -2.80102 0.487135 0.217603
v -2.73254 1.52564 0.0670563
v -2.85432 2.86569 -0.0560902
v -2.74937 3.54656 0.0796543
v -1.68042 -4.26786 0.328352
v -1.52316 -2.95369 0.396617
v -1.91559 -1.66517 0.402709
v -1.89578 -0.8685 0.360909
v -1.53643 0.607699 0.119619
v -1.99597 1.65646 -0.047367
v -1.72365 2.69335 0.0909788
v -1.58955 3.6529 0.450604
v -0.256684 -4.34609 0.386738
v -0.609886 -2.91387 0.44527
v -0.570818 -1.77204 0.488044
v -0.859245 -0.804568 0.330937
v -0.614084 0.395239 0.160664
v -0.376795 1.42311 0.149614
v -0.573106 2.60561 0.179273
v -0.766441 3.46423 0.418658
v 0.71164 -3.90985 0.411312
v 0.792105 -2.62664 0.531095
v 0.504587 -1.84339 0.479761
v 0.594921 -0.522343 0.298477
v 0.575518 0.371958 0.24785
v 0.293936 1.47987 0.229878
v 0.52035 2.44228 0.229915
v 0.535804 3.70324 0.401815
v 1.92283 -3.65722 0.424081
v 1.63948 -2.85079 0.329956
v 1.80785 -1.93675 0.469767
v 1.96709 -0.432365 0.164814
v 1.9522 0.240033 0.0232614
v 1.82422 1.50189 0.143515
v 1.4083 2.77145 0.213103
v 1.47578 3.61065 0.373365
v 2.76394 -3.92351 0.407729
v 3.06808 -2.84258 0.319787
v 2.91925 -1.9647 0.24327
v 2.68974 -0.504946 0.344818
v 2.93593 0.285742 0.238125
v 3.06085 1.55091 -0.0652333
v 2.7556 3.11947 -0.00997283
v 2.73024 3.47493 0.0996308
v 3.88383 -3.97099 0.292085
v 3.63038 -2.71844 0.326428
v 3.84333 -1.68037 0.288152
v 3.7837 -0.72511 0.287253
v 3.84902 0.286286 0.295703
v 4.14833 1.79925 0.156701
v 4.13379 2.75142 -0.0214312
v 4.02049 3.87596 -0.0653989
vt 0.0001 0.0001
vt 0.9999 0.0001
vt 0.0001 0.9999
vt 0.9999 0.9999
vt 0.111189 0.0001
vt 0.222278 0.0001
vt 0.333367 0.0001
vt 0.444455 0.0001
vt 0.555544 0.0001
vt 0.666633 0.0001
vt 0.777722 0.0001
vt 0.888811 0.0001
vt 0.888811 0.9999
vt 0.777722 0.9999
vt 0.666633 0.9999
vt 0.555544 0.9999
vt 0.444455 0.9999
vt 0.333367 0.9999
vt 0.222278 0.9999
vt 0.111189 0.9999
vt 0.0001 0.888811
vt 0.0001 0.777722
vt 0.0001 0.666633
vt 0.0001 0.555544
vt 0.0001 0.444456
vt 0.0001 0.333367
vt 0.0001 0.222278
vt 0.0001 0.111189
vt 0.9999 0.111189
vt 0.9999 0.222278
vt 0.9999 0.333367
vt 0.9999 0.444456
vt 0.9999 0.555544
vt 0.9999 0.666633
vt 0.9999 0.777722
vt 0.9999 0.888811
vt 0.11727 0.115399
vt 0.120778 0.180369
vt 0.134636 0.309595
vt 0.088728 0.473895
vt 0.085886 0.575352
vt 0.086211 0.65375
vt 0.092207 0.78313
vt 0.106956 0.892282
vt 0.22987 0.102869
vt 0.221803 0.229552
vt 0.233521 0.288953
vt 0.225541 0.443179
vt 0.221596 0.556167
vt 0.227801 0.661237
vt 0.214896 0.795203
vt 0.22542 0.865181
vt 0.335524 0.082127
vt 0.351143 0.213907
vt 0.311934 0.342467
vt 0.313159 0.422214
vt 0.347791 0.572605
vt 0.301482 0.677733
vt 0.329031 0.783086
vt 0.344903 0.885466
vt 0.476837 0.074882
vt 0.441952 0.218774
vt 0.445749 0.333088
vt 0.416414 0.43099
vt 0.439746 0.552976
vt 0.463203 0.656843
vt 0.444252 0.77653
vt 0.426137 0.866051
vt 0.573419 0.117409
vt 0.581125 0.246686
vt 0.552512 0.326
vt 0.561075 0.459693
vt 0.558356 0.550596
vt 0.530299 0.662189
vt 0.553275 0.760113
vt 0.555478 0.888821
vt 0.694433 0.13996
vt 0.667048 0.221666
vt 0.681985 0.314267
vt 0.698218 0.467249
vt 0.696819 0.535952
vt 0.68253 0.662758
vt 0.642062 0.791726
vt 0.648523 0.877957
vt 0.778029 0.111667
vt 0.809426 0.219523
vt 0.794923 0.307783
vt 0.772028 0.454562
vt 0.796846 0.533374
vt 0.807262 0.663157
vt 0.778581 0.821037
vt 0.775122 0.858219
vt 0.890224 0.104741
vt 0.865679 0.23076
vt 0.887326 0.334104
vt 0.881307 0.429754
vt 0.887973 0.53063
vt 0.918106 0.681428
vt 0.915043 0.778027
vt 0.904815 0.89094
vn 0.0168006 0.0354143 0.999232
vn 0.0396502 0.155642 0.987017
vn -0.0936957 -0.145658 0.984888
vn -0.00895496 -0.0531585 0.998546
vn 0.0881502 0.141586 0.985993
vn 0.0294073 0.193389 0.980681
vn -0.00749986 0.199324 0.979905
vn -0.00107421 0.169004 0.985615
vn -0.0104622 0.0770441 0.996973
vn 0.00235731 0.042544 0.999092
vn 0.0257587 0.0988391 0.99477
vn 0.0184264 0.202563 0.979096
vn 0.132659 -0.161939 0.977843
vn 0.14133 -0.102528 0.984639
vn 0.0355017 0.0154362 0.99925
vn 0.0406118 0.0293017 0.998745
vn 0.0446057 -0.0150962 0.998891
vn 0.0472928 -0.0451673 0.997859
vn -0.163417 -0.281154 0.945647
vn -0.261091 -0.343793 0.902019
vn 0.113731 0.0682589 0.991164
vn 0.0928755 0.0605726 0.993834
vn 0.0753416 0.0633338 0.995144
vn 0.0681721 0.0298118 0.997228
vn 0.108768 0.0523436 0.992688
vn 0.108472 0.0513792 0.992771
vn 0.133273 0.0496029 0.989837
vn 0.133674 0.091009 0.986838
vn 0.000781859 0.0414168 0.999142
vn 0.00971132 0.00674604 0.99993
vn 0.0271391 0.027746 0.999246
vn 0.0571743 0.0130706 0.998279
vn 0.0366251 0.0420833 0.998443
vn -0.017612 0.0332382 0.999292
vn -0.13329 0.0913467 0.986858
vn -0.156569 0.0479962 0.9865
vn 0.104357 0.13738 0.985006
vn 0.0705575 0.0354143 0.996879
vn 0.0192345 0.0284321 0.999411
vn 0.0343998 0.0324655 0.998881
vn 0.0418685 0.0546459 0.997628
vn 0.0698057 0.0749672 0.99474
vn 0.0874861 0.0771777 0.993172
vn -0.0837968 -0.144428 0.985961
vn -0.00830658 0.0543111 0.99849
vn -0.045492 0.0203798 0.998757
vn -0.0757477 0.0110946 0.997065
vn -0.0660196 0.0296761 0.997377
vn 0.0246276 0.108648 0.993775
vn 0.0800771 0.104828 0.991261
vn -0.0272587 -0.0237856 0.999345
vn -0.21032 -0.272873 0.938779
vn -0.0278799 0.0884815 0.995688
vn -0.0642568 -0.022553 0.997678
vn -0.0646847 0.0273872 0.99753
vn 0.00517565 0.0979141 0.995181
vn -0.00250861 0.126948 0.991906
vn -0.0196457 0.0405882 0.998983
vn -0.131312 -0.220516 0.966504
vn -0.0740865 -0.191371 0.978718
vn -0.0184892 0.0525243 0.998448
vn -0.0370652 -0.0376312 0.998604
vn -0.0259236 0.056923 0.998042
vn -0.00529372 0.132775 0.991132
vn -0.0540363 0.0660749 0.99635
vn -0.0944356 0.0199471 0.995331
vn -0.0611062 -0.145328 0.987495
vn -0.00572228 -0.18994 0.981779
vn 0.00508887 0.000752469 0.999987
vn 0.0578756 -0.0536299 0.996882
vn -0.00351073 0.0685689 0.99764
vn 0.0349372 0.135461 0.990167
vn 0.0463689 0.0128441 0.998842
vn -0.0409107 0.0164423 0.999028
vn -0.0130122 -0.0554524 0.998376
vn 0.0287022 -0.096134 0.994955
vn 0.00523549 0.0744788 0.997209
vn 0.0942753 -0.026541 0.995192
vn 0.0685274 0.030549 0.997181
vn -0.0681868 0.204539 0.976481
vn -0.0123457 0.110274 0.993825
vn 0.114484 -0.0263377 0.993076
vn 0.0983263 -0.114199 0.98858
vn 0.101012 -0.105628 0.989262
vn 0.0601252 0.0498639 0.996945
vn 0.0206653 0.0634788 0.997769
vn 0.0426056 -0.00942429 0.999048
vn -0.0577095 0.105484 0.992745
vn -0.0981487 0.159616 0.982288
vn -0.0594578 0.0994278 0.993267
vn 0.135849 -0.108499 0.98477
vn 0.186802 -0.204201 0.960941
vn 0.031256 0.0667 0.997283
vn -0.0167455 0.0224302 0.999608
vn -0.0134616 0.0257356 0.999578
vn 0.0172934 0.00985957 0.999802
vn -0.0287232 0.0757301 0.996715
vn -0.106599 0.106509 0.988581
vn -0.123872 0.074526 0.989496
vn 0.054441 -0.0878569 0.994644
f 100/100/100 4/4/4 13/13/13
f 44/44/44 3/3/3 21/21/21
f 44/44/44 19/19/19 20/20/20
f 60/60/60 19/19/19 52/52/52
f 60/60/60 17/17/17 18/18/18
f 76/76/76 17/17/17 68/68/68
f 84/84/84 16/16/16 76/76/76
f 84/84/84 14/14/14 15/15/15
f 100/100/100 14/14/14 92/92/92
f 11/11/11 93/93/93 85/85/85
f 93/93/93 86/86/86 85/85/85
f 94/94/94 87/87/87 86/86/86
f 87/87/87 96/96/96 88/88/88
f 96/96/96 89/89/89 88/88/88
f 97/97/97 90/90/90 89/89/89
f 90/90/90 99/99/99 91/91/91
f 91/91/91 100/100/100 92/92/92
f 10/10/10 85/85/85 77/77/77
f 77/77/77 86/86/86 78/78/78
f 78/78/78 87/87/87 79/79/79
f 79/79/79 88/88/88 80/80/80
f 88/88/88 81/81/81 80/80/80
f 81/81/81 90/90/90 82/82/82
f 82/82/82 91/91/91 83/83/83
f 91/91/91 84/84/84 83/83/83
f 10/10/10 69/69/69 9/9/9
f 69/69/69 78/78/78 70/70/70
f 70/70/70 79/79/79 71/71/71
f 79/79/79 72/72/72 71/71/71
f 72/72/72 81/81/81 73/73/73
f 73/73/73 82/82/82 74/74/74
f 82/82/82 75/75/75 74/74/74
f 83/83/83 76/76/76 75/75/75
f 9/9/9 61/61/61 8/8/8
f 69/69/69 62/62/62 61/61/61
f 62/62/62 71/71/71 63/63/63
f 63/63/63 72/72/72 64/64/64
f 72/72/72 65/65/65 64/64/64
f 65/65/65 74/74/74 66/66/66
f 66/66/66 75/75/75 67/67/67
f 67/67/67 76/76/76 68/68/68
f 8/8/8 53/53/53 7/7/7
f 53/53/53 62/62/62 54/54/54
f 54/54/54 63/63/63 55/55/55
f 55/55/55 64/64/64 56/56/56
f 64/64/64 57/57/57 56/56/56
f 57/57/57 66/66/66 58/58/58
f 58/58/58 67/67/67 59/59/59
f 59/59/59 68/68/68 60/60/60
f 6/6/6 53/53/53 45/45/45
f 45/45/45 54/54/54 46/46/46
f 54/54/54 47/47/47 46/46/46
f 55/55/55 48/48/48 47/47/47
f 56/56/56 49/49/49 48/48/48
f 49/49/49 58/58/58 50/50/50
f 58/58/58 51/51/51 50/50/50
f 59/59/59 52/52/52 51/51/51
f 6/6/6 37/37/37 5/5/5
f 45/45/45 38/38/38 37/37/37
f 46/46/46 39/39/39 38/38/38
f 39/39/39 48/48/48 40/40/40
f 40/40/40 49/49/49 41/41/41
f 41/41/41 50/50/50 42/42/42
f 50/50/50 43/43/43 42/42/42
f 51/51/51 44/44/44 43/43/43
f 5/5/5 28/28/28 1/1/1
f 28/28/28 38/38/38 27/27/27
f 27/27/27 39/39/39 26/26/26
f 26/26/26 40/40/40 25/25/25
f 40/40/40 24/24/24 25/25/25
f 41/41/41 23/23/23 24/24/24
f 23/23/23 43/43/43 22/22/22
f 43/43/43 21/21/21 22/22/22
f 2/2/2 93/93/93 12/12/12
f 93/93/93 30/30/30 94/94/94
f 30/30/30 95/95/95 94/94/94
f 31/31/31 96/96/96 95/95/95
f 32/32/32 97/97/97 96/96/96
f 33/33/33 98/98/98 97/97/97
f 98/98/98 35/35/35 99/99/99
f 99/99/99 36/36/36 100/100/100
f 100/100/100 36/36/36 4/4/4
f 44/44/44 20/20/20 3/3/3
f 44/44/44 52/52/52 19/19/19
f 60/60/60 18/18/18 19/19/19
f 60/60/60 68/68/68 17/17/17
f 76/76/76 16/16/16 17/17/17
f 84/84/84 15/15/15 16/16/16
f 84/84/84 92/92/92 14/14/14
f 100/100/100 13/13/13 14/14/14
f 11/11/11 12/12/12 93/93/93
f 93/93/93 94/94/94 86/86/86
f 94/94/94 95/95/95 87/87/87
f 87/87/87 95/95/95 96/96/96
f 96/96/96 97/97/97 89/89/89
f 97/97/97 98/98/98 90/90/90
f 90/90/90 98/98/98 99/99/99
f 91/91/91 99/99/99 100/100/100
f 10/10/10 11/11/11 85/85/85
f 77/77/77 85/85/85 86/86/86
f 78/78/78 86/86/86 87/87/87
f 79/79/79 87/87/87 88/88/88
f 88/88/88 89/89/89 81/81/81
f 81/81/81 89/89/89 90/90/90
f 82/82/82 90/90/90 91/91/91
f 91/91/91 92/92/92 84/84/84
f 10/10/10 77/77/77 69/69/69
f 69/69/69 77/77/77 78/78/78
f 70/70/70 78/78/78 79/79/79
f 79/79/79 80/80/80 72/72/72
f 72/72/72 80/80/80 81/81/81
f 73/73/73 81/81/81 82/82/82
f 82/82/82 83/83/83 75/75/75
f 83/83/83 84/84/84 76/76/76
f 9/9/9 69/69/69 61/61/61
f 69/69/69 70/70/70 62/62/62
f 62/62/62 70/70/70 71/71/71
f 63/63/63 71/71/71 72/72/72
f 72/72/72 73/73/73 65/65/65
f 65/65/65 73/73/73 74/74/74
f 66/66/66 74/74/74 75/75/75
f 67/67/67 75/75/75 76/76/76
f 8/8/8 61/61/61 53/53/53
f 53/53/53 61/61/61 62/62/62
f 54/54/54 62/62/62 63/63/63
f 55/55/55 63/63/63 64/64/64
f 64/64/64 65/65/65 57/57/57
f 57/57/57 65/65/65 66/66/66
f 58/58/58 66/66/66 67/67/67
f 59/59/59 67/67/67 68/68/68
f 6/6/6 7/7/7 53/53/53
f 45/45/45 53/53/53 54/54/54
f 54/54/54 55/55/55 47/47/47
f 55/55/55 56/56/56 48/48/48
f 56/56/56 57/57/57 49/49/49
f 49/49/49 57/57/57 58/58/58
f 58/58/58 59/59/59 51/51/51
f 59/59/59 60/60/60 52/52/52
f 6/6/6 45/45/45 37/37/37
f 45/45/45 46/46/46 38/38/38
f 46/46/46 47/47/47 39/39/39
f 39/39/39 47/47/47 48/48/48
f 40/40/40 48/48/48 49/49/49
f 41/41/41 49/49/49 50/50/50
f 50/50/50 51/51/51 43/43/43
f 51/51/51 52/52/52 44/44/44
f 5/5/5 37/37/37 28/28/28
f 28/28/28 37/37/37 38/38/38
f 27/27/27 38/38/38 39/39/39
f 26/26/26 39/39/39 40/40/40
f 40/40/40 41/41/41 24/24/24
f 41/41/41 42/42/42 23/23/23
f 23/23/23 42/42/42 43/43/43
f 43/43/43 44/44/44 21/21/21
f 2/2/2 29/29/29 93/93/93
f 93/93/93 29/29/29 30/30/30
f 30/30/30 31/31/31 95/95/95
f 31/31/31 32/32/32 96/96/96
f 32/32/32 33/33/33 97/97/97
f 33/33/33 34/34/34 98/98/98
f 98/98/98 34/34/34 35/35/35
f 99/99/99 35/35/35 36/36/36
