o GNATVCloth
v -5.09669 -4.9862 0.485062
v 5.03312 -4.99852 0.465271
v -5.01298 5.02105 0.004229
v 4.98702 5.02105 0.004229
v -3.98138 -5.03115 0.474571
v -2.86216 -5.08874 0.41296
v -1.7344 -5.12733 0.361193
v -0.603075 -5.1546 0.326678
v 0.53195 -5.15575 0.337095
v 1.66403 -5.13651 0.344354
v 2.7934 -5.0928 0.363273
v 3.9168 -5.04869 0.389636
v 3.84643 4.93711 0.16221
v 2.71833 4.87641 0.318843
v 1.59469 4.81005 0.43672
v 0.47399 4.7448 0.446163
v -0.595342 4.71014 0.354804
v -1.66179 4.75418 0.228083
v -2.7767 4.82174 0.319388
v -3.88893 4.90414 0.162466
v -5.00756 3.90727 0.0880568
v -5.00702 2.79087 0.105286
v -5.01908 1.67537 0.121723
v -5.03178 0.560628 0.153699
v -5.03563 -0.550997 0.230196
v -5.0425 -1.6607 0.315978
v -5.05109 -2.76755 0.421688
v -5.06214 -3.8739 0.545464
v 5.0087 -3.88711 0.426353
v 4.99702 -2.78526 0.280914
v 4.99108 -1.67255 0.250397
v 4.98611 -0.55868 0.21437
v 4.97832 0.556199 0.183278
v 4.96903 1.67216 0.14795
v 4.96237 2.78842 0.108059
v 4.96189 3.90434 0.0492888
v -3.8921 -3.88082 0.439472
v -3.85154 -3.23799 0.349424
v -3.7047 -1.96354 0.154232
v -4.14905 -0.298051 0.126113
v -4.17067 0.71858 0.16188
v -4.15747 1.50338 0.172563
v -4.08448 2.79609 0.186949
v -3.94367 3.85246 -0.0675357
v -2.76816 -4.0675 0.318195
v -2.83326 -2.8019 0.209623
v -2.71947 -2.21411 0.289489
v -2.79192 -0.667518 0.344734
v -2.819 0.463926 0.33532
v -2.73131 1.50494 0.217913
v -2.87141 2.81877 -0.067895
v -2.78561 3.48508 0.143577
v -1.70343 -4.31352 0.333496
v -1.53698 -3.00305 0.34084
v -1.93592 -1.71102 0.437121
v -1.91543 -0.913037 0.438139
v -1.56542 0.54414 0.0980616
v -2.01656 1.6068 -0.00803764
v -1.76332 2.63374 0.22402
v -1.58733 3.6189 0.261631
v -0.271922 -4.4124 0.354717
v -0.620359 -2.97683 0.359813
v -0.585886 -1.83958 0.37695
v -0.882676 -0.869854 0.298361
v -0.650583 0.343844 0.260521
v -0.41693 1.36109 0.292536
v -0.614692 2.54432 0.397434
v -0.782032 3.42095 0.330825
v 0.706957 -3.98768 0.349182
v 0.78283 -2.69519 0.307399
v 0.491187 -1.90773 0.333682
v 0.574745 -0.572646 0.332298
v 0.544997 0.328817 0.318609
v 0.25825 1.43207 0.334652
v 0.485838 2.41438 0.379609
v 0.497667 3.64994 0.360263
v 1.93022 -3.73098 0.337756
v 1.65031 -2.92283 0.304849
v 1.79761 -1.99401 0.357033
v 1.95763 -0.460647 0.319976
v 1.9413 0.223717 0.289877
v 1.78936 1.48533 0.271665
v 1.3784 2.75574 0.332451
v 1.43348 3.59227 0.30816
v 2.77748 -3.98029 0.364027
v 3.08454 -2.88869 0.371898
v 2.93548 -2.01266 0.31398
v 2.70177 -0.555781 0.343401
v 2.94687 0.244266 0.307492
v 3.03944 1.53791 0.164424
v 2.74557 3.10411 0.201235
v 2.70118 3.46811 0.145477
v 3.91024 -4.00313 0.379897
v 3.6508 -2.75413 0.357787
v 3.86388 -1.71084 0.307629
v 3.79935 -0.756681 0.264373
v 3.86099 0.255844 0.248603
v 4.14994 1.77912 0.163291
v 4.11315 2.73816 0.0473444
v 4.00344 3.86327 0.0360849
vt 0.0001 0.0001
vt 0.9999 0.0001
vt 0.0001 0.9999
vt 0.9999 0.9999
vt 0.111189 0.0001
vt 0.222278 0.0001
vt 0.333367 0.0001
vt 0.444455 0.0001
vt 0.555544 0.0001
vt 0.666633 0.0001
vt 0.777722 0.0001
vt 0.888811 0.0001
vt 0.888811 0.9999
vt 0.777722 0.9999
vt 0.666633 0.9999
vt 0.555544 0.9999
vt 0.444455 0.9999
vt 0.333367 0.9999
vt 0.222278 0.9999
vt 0.111189 0.9999
vt 0.0001 0.888811
vt 0.0001 0.777722
vt 0.0001 0.666633
vt 0.0001 0.555544
vt 0.0001 0.444456
vt 0.0001 0.333367
vt 0.0001 0.222278
vt 0.0001 0.111189
vt 0.9999 0.111189
vt 0.9999 0.222278
vt 0.9999 0.333367
vt 0.9999 0.444456
vt 0.9999 0.555544
vt 0.9999 0.666633
vt 0.9999 0.777722
vt 0.9999 0.888811
vt 0.11727 0.115399
vt 0.120778 0.180369
vt 0.134636 0.309595
vt 0.088728 0.473895
vt 0.085886 0.575352
vt 0.086211 0.65375
vt 0.092207 0.78313
vt 0.106956 0.892282
vt 0.22987 0.102869
vt 0.221803 0.229552
vt 0.233521 0.288953
vt 0.225541 0.443179
vt 0.221596 0.556167
vt 0.227801 0.661237
vt 0.214896 0.795203
vt 0.22542 0.865181
vt 0.335524 0.082127
vt 0.351143 0.213907
vt 0.311934 0.342467
vt 0.313159 0.422214
vt 0.347791 0.572605
vt 0.301482 0.677733
vt 0.329031 0.783086
vt 0.344903 0.885466
vt 0.476837 0.074882
vt 0.441952 0.218774
vt 0.445749 0.333088
vt 0.416414 0.43099
vt 0.439746 0.552976
vt 0.463203 0.656843
vt 0.444252 0.77653
vt 0.426137 0.866051
vt 0.573419 0.117409
vt 0.581125 0.246686
vt 0.552512 0.326
vt 0.561075 0.459693
vt 0.558356 0.550596
vt 0.530299 0.662189
vt 0.553275 0.760113
vt 0.555478 0.888821
vt 0.694433 0.13996
vt 0.667048 0.221666
vt 0.681985 0.314267
vt 0.698218 0.467249
vt 0.696819 0.535952
vt 0.68253 0.662758
vt 0.642062 0.791726
vt 0.648523 0.877957
vt 0.778029 0.111667
vt 0.809426 0.219523
vt 0.794923 0.307783
vt 0.772028 0.454562
vt 0.796846 0.533374
vt 0.807262 0.663157
vt 0.778581 0.821037
vt 0.775122 0.858219
vt 0.890224 0.104741
vt 0.865679 0.23076
vt 0.887326 0.334104
vt 0.881307 0.429754
vt 0.887973 0.53063
vt 0.918106 0.681428
vt 0.915043 0.778027
vt 0.904815 0.89094
vn 0.00719792 -0.0544449 0.998491
vn -0.0569088 0.0214127 0.99815
vn -0.00465066 -0.0655344 0.997839
vn 0.0643092 -0.0271859 0.99756
vn 0.0513361 -0.00166688 0.99868
vn 0.0576443 0.0577716 0.996664
vn 0.0391002 0.0325021 0.998707
vn 0.00172093 -0.0103573 0.999945
vn -0.00153691 -0.0183448 0.999831
vn -0.0105798 0.000680908 0.999944
vn -0.0181869 0.00245596 0.999832
vn -0.0459169 0.00901668 0.998905
vn 0.142669 -0.0948558 0.985215
vn 0.121751 -0.114833 0.985896
vn 0.0626394 -0.112977 0.991621
vn -0.00567488 -0.0880247 0.996102
vn -0.0767556 -0.0199394 0.996851
vn -0.0167909 0.0284331 0.999455
vn -0.0927447 -0.1071 0.989913
vn -0.154368 -0.203414 0.966847
vn 0.0713494 0.101849 0.992238
vn -0.0882516 0.015479 0.995978
vn -0.0562439 0.00605787 0.998399
vn 0.026508 0.0205803 0.999437
vn 0.0959876 0.0720678 0.99277
vn 0.122195 0.0736816 0.989767
vn 0.118717 0.113466 0.986424
vn 0.07282 0.0529566 0.995938
vn -0.0507672 0.0821128 0.995329
vn 0.0274626 0.0559988 0.998053
vn 0.0451434 0.0362203 0.998324
vn 0.0424553 0.0246002 0.998795
vn 0.0397712 0.0357526 0.998569
vn 0.0231317 0.0338332 0.99916
vn -0.0429413 0.0684443 0.99673
vn -0.0346696 0.0339203 0.998823
vn 0.0970702 0.0786107 0.992168
vn 0.100964 0.123729 0.987166
vn -0.00204988 0.0366166 0.999327
vn -0.0198849 0.0143642 0.999699
vn -0.0583534 0.00842436 0.99826
vn -0.0463462 -0.0106629 0.998869
vn 0.0401274 0.0954737 0.994623
vn -0.0415241 -0.0449684 0.998125
vn 0.0416711 0.0785186 0.996041
vn -0.0392362 0.0201468 0.999027
vn -0.139829 -0.0816209 0.986806
vn -0.139912 -0.0168261 0.990021
vn 0.0193815 0.077213 0.996826
vn 0.0985959 0.10876 0.989166
vn -0.0278184 -0.000228529 0.999613
vn -0.188347 -0.160348 0.968924
vn 0.00243702 0.016106 0.999867
vn -0.0485395 -0.0320582 0.998307
vn -0.0257848 -0.0202841 0.999462
vn 0.0443514 0.0778421 0.995979
vn -0.00821723 0.109114 0.993995
vn -0.0137463 0.00886976 0.999866
vn -0.177188 -0.0972517 0.97936
vn -0.0652358 -0.0203129 0.997663
vn -0.00481611 -0.0170166 0.999844
vn 0.00880007 -0.00437679 0.999952
vn 0.0189644 0.0119737 0.999749
vn 0.0137032 0.0768145 0.996951
vn -0.0873265 0.0127218 0.996098
vn -0.111988 -0.0379722 0.992984
vn -0.087124 -0.0428526 0.995275
vn -0.0759156 0.0146176 0.997007
vn 0.00900157 0.0118246 0.99989
vn 0.0103167 -0.0102726 0.999894
vn 0.0163748 -0.0149469 0.999754
vn -0.00751675 0.0255204 0.999646
vn -0.00247212 0.00310304 0.999992
vn -0.0168073 -0.0272747 0.999487
vn 0.019705 -0.0286432 0.999395
vn 0.00501683 -0.00680358 0.999964
vn -0.0192964 0.0159413 0.999687
vn -0.00965806 0.00642353 0.999933
vn 0.000530781 -0.0169617 0.999856
vn -0.0103903 0.0344736 0.999352
vn 0.0099067 0.043857 0.998989
vn 0.0627325 -0.00970382 0.997983
vn 0.0713028 0.00413558 0.997446
vn 0.0831529 -0.0302479 0.996078
vn -0.0206901 0.00127108 0.999785
vn -0.0185712 0.0282619 0.999428
vn 0.0126221 0.0193215 0.999734
vn 0.0185355 0.0199225 0.99963
vn 0.03291 0.0601569 0.997646
vn 0.0412312 0.0585092 0.997435
vn 0.0975578 0.0489291 0.994026
vn 0.104079 0.0194173 0.99438
vn -0.0180192 0.028716 0.999425
vn 0.0269396 0.0410187 0.998795
vn 0.0279015 0.041429 0.998752
vn 0.0468686 0.0233273 0.998629
vn 0.0419473 0.0439674 0.998152
vn -0.00371179 0.0682299 0.997663
vn 0.00629813 0.0528498 0.998583
vn 0.0760367 -0.0123937 0.997028
f 100/100/100 4/4/4 13/13/13
f 44/44/44 3/3/3 21/21/21
f 44/44/44 19/19/19 20/20/20
f 60/60/60 19/19/19 52/52/52
f 60/60/60 17/17/17 18/18/18
f 76/76/76 17/17/17 68/68/68
f 84/84/84 16/16/16 76/76/76
f 84/84/84 14/14/14 15/15/15
f 100/100/100 14/14/14 92/92/92
f 11/11/11 93/93/93 85/85/85
f 93/93/93 86/86/86 85/85/85
f 94/94/94 87/87/87 86/86/86
f 87/87/87 96/96/96 88/88/88
f 96/96/96 89/89/89 88/88/88
f 97/97/97 90/90/90 89/89/89
f 90/90/90 99/99/99 91/91/91
f 91/91/91 100/100/100 92/92/92
f 10/10/10 85/85/85 77/77/77
f 77/77/77 86/86/86 78/78/78
f 78/78/78 87/87/87 79/79/79
f 79/79/79 88/88/88 80/80/80
f 88/88/88 81/81/81 80/80/80
f 81/81/81 90/90/90 82/82/82
f 82/82/82 91/91/91 83/83/83
f 91/91/91 84/84/84 83/83/83
f 10/10/10 69/69/69 9/9/9
f 69/69/69 78/78/78 70/70/70
f 70/70/70 79/79/79 71/71/71
f 79/79/79 72/72/72 71/71/71
f 72/72/72 81/81/81 73/73/73
f 73/73/73 82/82/82 74/74/74
f 82/82/82 75/75/75 74/74/74
f 83/83/83 76/76/76 75/75/75
f 9/9/9 61/61/61 8/8/8
f 69/69/69 62/62/62 61/61/61
f 62/62/62 71/71/71 63/63/63
f 63/63/63 72/72/72 64/64/64
f 72/72/72 65/65/65 64/64/64
f 65/65/65 74/74/74 66/66/66
f 66/66/66 75/75/75 67/67/67
f 67/67/67 76/76/76 68/68/68
f 8/8/8 53/53/53 7/7/7
f 53/53/53 62/62/62 54/54/54
f 54/54/54 63/63/63 55/55/55
f 55/55/55 64/64/64 56/56/56
f 64/64/64 57/57/57 56/56/56
f 57/57/57 66/66/66 58/58/58
f 58/58/58 67/67/67 59/59/59
f 59/59/59 68/68/68 60/60/60
f 6/6/6 53/53/53 45/45/45
f 45/45/45 54/54/54 46/46/46
f 54/54/54 47/47/47 46/46/46
f 55/55/55 48/48/48 47/47/47
f 56/56/56 49/49/49 48/48/48
f 49/49/49 58/58/58 50/50/50
f 58/58/58 51/51/51 50/50/50
f 59/59/59 52/52/52 51/51/51
f 6/6/6 37/37/37 5/5/5
f 45/45/45 38/38/38 37/37/37
f 46/46/46 39/39/39 38/38/38
f 39/39/39 48/48/48 40/40/40
f 40/40/40 49/49/49 41/41/41
f 41/41/41 50/50/50 42/42/42
f 50/50/50 43/43/43 42/42/42
f 51/51/51 44/44/44 43/43/43
f 5/5/5 28/28/28 1/1/1
f 28/28/28 38/38/38 27/27/27
f 27/27/27 39/39/39 26/26/26
f 26/26/26 40/40/40 25/25/25
f 40/40/40 24/24/24 25/25/25
f 41/41/41 23/23/23 24/24/24
f 23/23/23 43/43/43 22/22/22
f 43/43/43 21/21/21 22/22/22
f 2/2/2 93/93/93 12/12/12
f 93/93/93 30/30/30 94/94/94
f 30/30/30 95/95/95 94/94/94
f 31/31/31 96/96/96 95/95/95
f 32/32/32 97/97/97 96/96/96
f 33/33/33 98/98/98 97/97/97
f 98/98/98 35/35/35 99/99/99
f 99/99/99 36/36/36 100/100/100
f 100/100/100 36/36/36 4/4/4
f 44/44/44 20/20/20 3/3/3
f 44/44/44 52/52/52 19/19/19
f 60/60/60 18/18/18 19/19/19
f 60/60/60 68/68/68 17/17/17
f 76/76/76 16/16/16 17/17/17
f 84/84/84 15/15/15 16/16/16
f 84/84/84 92/92/92 14/14/14
f 100/100/100 13/13/13 14/14/14
f 11/11/11 12/12/12 93/93/93
f 93/93/93 94/94/94 86/86/86
f 94/94/94 95/95/95 87/87/87
f 87/87/87 95/95/95 96/96/96
f 96/96/96 97/97/97 89/89/89
f 97/97/97 98/98/98 90/90/90
f 90/90/90 98/98/98 99/99/99
f 91/91/91 99/99/99 100/100/100
f 10/10/10 11/11/11 85/85/85
f 77/77/77 85/85/85 86/86/86
f 78/78/78 86/86/86 87/87/87
f 79/79/79 87/87/87 88/88/88
f 88/88/88 89/89/89 81/81/81
f 81/81/81 89/89/89 90/90/90
f 82/82/82 90/90/90 91/91/91
f 91/91/91 92/92/92 84/84/84
f 10/10/10 77/77/77 69/69/69
f 69/69/69 77/77/77 78/78/78
f 70/70/70 78/78/78 79/79/79
f 79/79/79 80/80/80 72/72/72
f 72/72/72 80/80/80 81/81/81
f 73/73/73 81/81/81 82/82/82
f 82/82/82 83/83/83 75/75/75
f 83/83/83 84/84/84 76/76/76
f 9/9/9 69/69/69 61/61/61
f 69/69/69 70/70/70 62/62/62
f 62/62/62 70/70/70 71/71/71
f 63/63/63 71/71/71 72/72/72
f 72/72/72 73/73/73 65/65/65
f 65/65/65 73/73/73 74/74/74
f 66/66/66 74/74/74 75/75/75
f 67/67/67 75/75/75 76/76/76
f 8/8/8 61/61/61 53/53/53
f 53/53/53 61/61/61 62/62/62
f 54/54/54 62/62/62 63/63/63
f 55/55/55 63/63/63 64/64/64
f 64/64/64 65/65/65 57/57/57
f 57/57/57 65/65/65 66/66/66
f 58/58/58 66/66/66 67/67/67
f 59/59/59 67/67/67 68/68/68
f 6/6/6 7/7/7 53/53/53
f 45/45/45 53/53/53 54/54/54
f 54/54/54 55/55/55 47/47/47
f 55/55/55 56/56/56 48/48/48
f 56/56/56 57/57/57 49/49/49
f 49/49/49 57/57/57 58/58/58
f 58/58/58 59/59/59 51/51/51
f 59/59/59 60/60/60 52/52/52
f 6/6/6 45/45/45 37/37/37
f 45/45/45 46/46/46 38/38/38
f 46/46/46 47/47/47 39/39/39
f 39/39/39 47/47/47 48/48/48
f 40/40/40 48/48/48 49/49/49
f 41/41/41 49/49/49 50/50/50
f 50/50/50 51/51/51 43/43/43
f 51/51/51 52/52/52 44/44/44
f 5/5/5 37/37/37 28/28/28
f 28/28/28 37/37/37 38/38/38
f 27/27/27 38/38/38 39/39/39
f 26/26/26 39/39/39 40/40/40
f 40/40/40 41/41/41 24/24/24
f 41/41/41 42/42/42 23/23/23
f 23/23/23 42/42/42 43/43/43
f 43/43/43 44/44/44 21/21/21
f 2/2/2 29/29/29 93/93/93
f 93/93/93 29/29/29 30/30/30
f 30/30/30 31/31/31 95/95/95
f 31/31/31 32/32/32 96/96/96
f 32/32/32 33/33/33 97/97/97
f 33/33/33 34/34/34 98/98/98
f 98/98/98 34/34/34 35/35/35
f 99/99/99 35/35/35 36/36/36
