o GNATVCloth
v -5.00911 -4.97515 0.611719
v 5.05277 -4.98507 0.400887
v -5.01298 5.02105 0.004229
v 4.98702 5.02105 0.004229
v -3.9045 -5.00501 0.485537
v -2.7867 -5.03482 0.480948
v -1.66606 -5.05669 0.443351
v -0.543394 -5.06885 0.448207
v 0.580831 -5.0709 0.456097
v 1.7028 -5.06084 0.438862
v 2.82354 -5.04003 0.431442
v 3.94055 -5.01878 0.356633
v 3.87285 4.89513 0.213326
v 2.76566 4.7965 0.41312
v 1.64668 4.74046 0.335244
v 0.529079 4.69932 0.339544
v -0.566961 4.68594 0.535698
v -1.6874 4.69686 0.561066
v -2.80935 4.751 0.501532
v -3.91067 4.86806 0.273849
v -4.97331 3.90882 0.0841385
v -4.9636 2.79461 0.130808
v -4.96249 1.68103 0.177524
v -4.9649 0.567731 0.216983
v -4.97181 -0.544526 0.256433
v -4.98084 -1.65637 0.296213
v -4.98865 -2.76758 0.368061
v -4.9995 -3.87546 0.45293
v 5.03695 -3.87673 0.331403
v 5.02177 -2.77264 0.207772
v 5.00808 -1.66099 0.184875
v 4.99742 -0.546748 0.191797
v 4.98641 0.567202 0.187168
v 4.97699 1.68025 0.163445
v 4.97194 2.79389 0.127522
v 4.9649 3.90721 0.0653209
v -3.82497 -3.86322 0.413527
v -3.78665 -3.21984 0.322789
v -3.63657 -1.93034 0.270297
v -4.08353 -0.275392 0.220484
v -4.10683 0.741682 0.181285
v -4.10085 1.52579 0.129917
v -4.04151 2.81764 0.0597524
v -3.92382 3.88513 -0.164254
v -2.70034 -4.0241 0.323363
v -2.76981 -2.75424 0.310821
v -2.64762 -2.16181 0.285341
v -2.71832 -0.614648 0.277392
v -2.74816 0.514636 0.209735
v -2.67853 1.54899 0.0259468
v -2.84687 2.85739 -0.27055
v -2.76727 3.48485 0.039217
v -1.63907 -4.25039 0.367671
v -1.47705 -2.93615 0.408985
v -1.86441 -1.64554 0.376437
v -1.8464 -0.851387 0.298566
v -1.5167 0.596029 -0.0963507
v -1.98735 1.64153 -0.268076
v -1.71095 2.67463 -0.108794
v -1.57704 3.6035 0.291577
v -0.215184 -4.33486 0.400192
v -0.56622 -2.90101 0.417422
v -0.525556 -1.76467 0.315776
v -0.818505 -0.793789 0.177187
v -0.594347 0.397211 -0.0163193
v -0.368024 1.42457 -0.0593889
v -0.577099 2.5637 0.135664
v -0.75763 3.39281 0.305999
v 0.756046 -3.90425 0.353066
v 0.831793 -2.62042 0.358163
v 0.54208 -1.83989 0.276818
v 0.625571 -0.541194 -0.0381085
v 0.595659 0.363289 -0.0254433
v 0.304011 1.47333 -0.0533073
v 0.52471 2.43447 0.0815948
v 0.551406 3.59518 0.356388
v 1.97117 -3.66196 0.304378
v 1.69507 -2.8577 0.418422
v 1.83573 -1.92877 0.392603
v 1.99134 -0.420555 0.140716
v 1.98817 0.237717 -0.0555798
v 1.83012 1.49987 -0.0805224
v 1.40865 2.77322 -0.0022114
v 1.49349 3.51647 0.32319
v 2.81369 -3.92937 0.307655
v 3.11899 -2.8446 0.305112
v 2.96757 -1.96659 0.36876
v 2.72111 -0.505679 0.294316
v 2.96545 0.278194 0.169115
v 3.0805 1.55018 -0.0934608
v 2.76247 3.11626 -0.177888
v 2.74728 3.43471 0.0173661
v 3.93991 -3.97428 0.335328
v 3.68121 -2.72111 0.305141
v 3.88756 -1.68043 0.303133
v 3.81833 -0.726434 0.31549
v 3.87159 0.284619 0.282416
v 4.15705 1.79919 0.151196
v 4.13409 2.752 -0.0148723
v 4.02908 3.87284 -0.143811
vt 0.0001 0.0001
vt 0.9999 0.0001
vt 0.0001 0.9999
vt 0.9999 0.9999
vt 0.111189 0.0001
vt 0.222278 0.0001
vt 0.333367 0.0001
vt 0.444455 0.0001
vt 0.555544 0.0001
vt 0.666633 0.0001
vt 0.777722 0.0001
vt 0.888811 0.0001
vt 0.888811 0.9999
vt 0.777722 0.9999
vt 0.666633 0.9999
vt 0.555544 0.9999
vt 0.444455 0.9999
vt 0.333367 0.9999
vt 0.222278 0.9999
vt 0.111189 0.9999
vt 0.0001 0.888811
vt 0.0001 0.777722
vt 0.0001 0.666633
vt 0.0001 0.555544
vt 0.0001 0.444456
vt 0.0001 0.333367
vt 0.0001 0.222278
vt 0.0001 0.111189
vt 0.9999 0.111189
vt 0.9999 0.222278
vt 0.9999 0.333367
vt 0.9999 0.444456
vt 0.9999 0.555544
vt 0.9999 0.666633
vt 0.9999 0.777722
vt 0.9999 0.888811
vt 0.11727 0.115399
vt 0.120778 0.180369
vt 0.134636 0.309595
vt 0.088728 0.473895
vt 0.085886 0.575352
vt 0.086211 0.65375
vt 0.092207 0.78313
vt 0.106956 0.892282
vt 0.22987 0.102869
vt 0.221803 0.229552
vt 0.233521 0.288953
vt 0.225541 0.443179
vt 0.221596 0.556167
vt 0.227801 0.661237
vt 0.214896 0.795203
vt 0.22542 0.865181
vt 0.335524 0.082127
vt 0.351143 0.213907
vt 0.311934 0.342467
vt 0.313159 0.422214
vt 0.347791 0.572605
vt 0.301482 0.677733
vt 0.329031 0.783086
vt 0.344903 0.885466
vt 0.476837 0.074882
vt 0.441952 0.218774
vt 0.445749 0.333088
vt 0.416414 0.43099
vt 0.439746 0.552976
vt 0.463203 0.656843
vt 0.444252 0.77653
vt 0.426137 0.866051
vt 0.573419 0.117409
vt 0.581125 0.246686
vt 0.552512 0.326
vt 0.561075 0.459693
vt 0.558356 0.550596
vt 0.530299 0.662189
vt 0.553275 0.760113
vt 0.555478 0.888821
vt 0.694433 0.13996
vt 0.667048 0.221666
vt 0.681985 0.314267
vt 0.698218 0.467249
vt 0.696819 0.535952
vt 0.68253 0.662758
vt 0.642062 0.791726
vt 0.648523 0.877957
vt 0.778029 0.111667
vt 0.809426 0.219523
vt 0.794923 0.307783
vt 0.772028 0.454562
vt 0.796846 0.533374
vt 0.807262 0.663157
vt 0.778581 0.821037
vt 0.775122 0.858219
vt 0.890224 0.104741
vt 0.865679 0.23076
vt 0.887326 0.334104
vt 0.881307 0.429754
vt 0.887973 0.53063
vt 0.918106 0.681428
vt 0.915043 0.778027
vt 0.904815 0.89094
vn 0.11612 0.140951 0.983183
vn -0.0211863 0.0414632 0.998915
vn -0.020343 -0.165747 0.985958
vn -0.00596297 -0.122976 0.992392
vn 0.0516686 0.0882026 0.994762
vn 0.0331425 0.113799 0.992951
vn 0.0159492 0.0929082 0.995547
vn -0.00952935 0.0784593 0.996872
vn 0.00588538 0.0802093 0.996761
vn 0.0164195 0.0947762 0.995363
vn 0.0170066 0.0807143 0.996592
vn 0.0130474 0.020399 0.999707
vn 0.201714 -0.29541 0.933833
vn 0.139245 -0.215412 0.966545
vn -0.032593 -0.00576367 0.999452
vn 0.0724404 0.008082 0.99734
vn 0.0313846 -0.140724 0.989551
vn -0.0217572 -0.24133 0.970199
vn -0.182527 -0.331645 0.925578
vn -0.247823 -0.391639 0.886117
vn 0.179952 0.0990177 0.978679
vn 0.0757176 0.0421285 0.996239
vn 0.0602796 0.0482817 0.997013
vn 0.0325758 0.0366103 0.998799
vn 0.0297093 0.0353723 0.998933
vn 0.0296233 0.0456989 0.998516
vn 0.0496441 0.0582044 0.99707
vn 0.0617378 0.10385 0.992675
vn -0.00416178 0.0868925 0.996209
vn 0.0611333 0.040042 0.997326
vn 0.104912 0.00377867 0.994474
vn 0.0964029 0.00901972 0.995301
vn 0.0461774 0.0333389 0.998377
vn -0.0110593 0.0267001 0.999582
vn -0.118369 0.0841078 0.989401
vn -0.203438 0.0676133 0.97675
vn 0.0537116 0.10798 0.992701
vn 0.0411242 0.0723078 0.996534
vn 0.00670455 0.0352313 0.999357
vn 0.00597135 0.0378394 0.999266
vn 0.0334444 0.0695348 0.997019
vn 0.068664 0.0578394 0.995962
vn 0.147661 0.111851 0.982693
vn -0.0523597 -0.167131 0.984543
vn 0.012488 0.0709218 0.997404
vn -0.0295516 0.0316849 0.999061
vn -0.0625746 0.0194373 0.997851
vn -0.033192 0.0401712 0.998641
vn 0.111813 0.134954 0.984523
vn 0.190292 0.155886 0.969272
vn 0.0393613 -0.0454984 0.998189
vn -0.215925 -0.373042 0.902339
vn -0.0105834 0.0487133 0.998757
vn -0.0389377 0.0183006 0.999074
vn -0.000732219 0.0640167 0.997949
vn 0.0863702 0.14111 0.986219
vn 0.0515979 0.175636 0.983102
vn 0.0450305 0.0534973 0.997552
vn -0.179568 -0.270897 0.945711
vn -0.0898449 -0.292047 0.952175
vn 0.00186956 0.0421112 0.999111
vn 0.0157252 0.0333527 0.99932
vn 0.0508785 0.130676 0.990119
vn 0.0768474 0.162714 0.983676
vn 0.000546446 0.0705991 0.997505
vn -0.0536716 -0.0474847 0.997429
vn -0.0928349 -0.188911 0.977596
vn -0.0842335 -0.234471 0.968467
vn 0.0189387 0.0198598 0.999623
vn -0.0299866 0.0428337 0.998632
vn -0.00804776 0.149125 0.988786
vn -0.00567545 0.153466 0.988138
vn 0.0154306 0.0105177 0.999826
vn 0.00697787 -0.0363828 0.999314
vn 0.0593708 -0.156384 0.98591
vn 0.0569417 -0.174183 0.983066
vn 0.0375717 -0.00927269 0.999251
vn 0.0193595 -0.0382846 0.999079
vn -0.0710614 0.112834 0.99107
vn -0.160424 0.230498 0.959758
vn -0.103699 0.149481 0.983312
vn 0.045287 -0.00834842 0.998939
vn 0.129294 -0.221597 0.966529
vn 0.0843153 -0.234508 0.968451
vn -0.00352202 0.0650072 0.997879
vn 0.0238211 -0.0343626 0.999125
vn 0.0399224 -0.00287871 0.999199
vn -0.0925594 0.158379 0.98303
vn -0.138804 0.169728 0.975667
vn -0.136076 0.118981 0.983528
vn 0.090809 -0.185757 0.978391
vn 0.218815 -0.391568 0.893753
vn 0.00529691 0.049635 0.998753
vn 0.0462918 -0.00655146 0.998906
vn 0.086063 -0.0032806 0.996284
vn 0.0376227 0.0361082 0.998639
vn -0.0412682 0.0819488 0.995782
vn -0.10622 0.0979999 0.989502
vn -0.169977 0.101461 0.980211
vn 0.053709 -0.165736 0.984707
f 100/100/100 4/4/4 13/13/13
f 44/44/44 3/3/3 21/21/21
f 44/44/44 19/19/19 20/20/20
f 60/60/60 19/19/19 52/52/52
f 60/60/60 17/17/17 18/18/18
f 76/76/76 17/17/17 68/68/68
f 84/84/84 16/16/16 76/76/76
f 84/84/84 14/14/14 15/15/15
f 100/100/100 14/14/14 92/92/92
f 11/11/11 93/93/93 85/85/85
f 93/93/93 86/86/86 85/85/85
f 94/94/94 87/87/87 86/86/86
f 87/87/87 96/96/96 88/88/88
f 96/96/96 89/89/89 88/88/88
f 97/97/97 90/90/90 89/89/89
f 90/90/90 99/99/99 91/91/91
f 91/91/91 100/100/100 92/92/92
f 10/10/10 85/85/85 77/77/77
f 77/77/77 86/86/86 78/78/78
f 78/78/78 87/87/87 79/79/79
f 79/79/79 88/88/88 80/80/80
f 88/88/88 81/81/81 80/80/80
f 81/81/81 90/90/90 82/82/82
f 82/82/82 91/91/91 83/83/83
f 91/91/91 84/84/84 83/83/83
f 10/10/10 69/69/69 9/9/9
f 69/69/69 78/78/78 70/70/70
f 70/70/70 79/79/79 71/71/71
f 79/79/79 72/72/72 71/71/71
f 72/72/72 81/81/81 73/73/73
f 73/73/73 82/82/82 74/74/74
f 82/82/82 75/75/75 74/74/74
f 83/83/83 76/76/76 75/75/75
f 9/9/9 61/61/61 8/8/8
f 69/69/69 62/62/62 61/61/61
f 62/62/62 71/71/71 63/63/63
f 63/63/63 72/72/72 64/64/64
f 72/72/72 65/65/65 64/64/64
f 65/65/65 74/74/74 66/66/66
f 66/66/66 75/75/75 67/67/67
f 67/67/67 76/76/76 68/68/68
f 8/8/8 53/53/53 7/7/7
f 53/53/53 62/62/62 54/54/54
f 54/54/54 63/63/63 55/55/55
f 55/55/55 64/64/64 56/56/56
f 64/64/64 57/57/57 56/56/56
f 57/57/57 66/66/66 58/58/58
f 58/58/58 67/67/67 59/59/59
f 59/59/59 68/68/68 60/60/60
f 6/6/6 53/53/53 45/45/45
f 45/45/45 54/54/54 46/46/46
f 54/54/54 47/47/47 46/46/46
f 55/55/55 48/48/48 47/47/47
f 56/56/56 49/49/49 48/48/48
f 49/49/49 58/58/58 50/50/50
f 58/58/58 51/51/51 50/50/50
f 59/59/59 52/52/52 51/51/51
f 6/6/6 37/37/37 5/5/5
f 45/45/45 38/38/38 37/37/37
f 46/46/46 39/39/39 38/38/38
f 39/39/39 48/48/48 40/40/40
f 40/40/40 49/49/49 41/41/41
f 41/41/41 50/50/50 42/42/42
f 50/50/50 43/43/43 42/42/42
f 51/51/51 44/44/44 43/43/43
f 5/5/5 28/28/28 1/1/1
f 28/28/28 38/38/38 27/27/27
f 27/27/27 39/39/39 26/26/26
f 26/26/26 40/40/40 25/25/25
f 40/40/40 24/24/24 25/25/25
f 41/41/41 23/23/23 24/24/24
f 23/23/23 43/43/43 22/22/22
f 43/43/43 21/21/21 22/22/22
f 2/2/2 93/93/93 12/12/12
f 93/93/93 30/30/30 94/94/94
f 30/30/30 95/95/95 94/94/94
f 31/31/31 96/96/96 95/95/95
f 32/32/32 97/97/97 96/96/96
f 33/33/33 98/98/98 97/97/97
f 98/98/98 35/35/35 99/99/99
f 99/99/99 36/36/36 100/100/100
f 100/100/100 36/36/36 4/4/4
f 44/44/44 20/20/20 3/3/3
f 44/44/44 52/52/52 19/19/19
f 60/60/60 18/18/18 19/19/19
f 60/60/60 68/68/68 17/17/17
f 76/76/76 16/16/16 17/17/17
f 84/84/84 15/15/15 16/16/16
f 84/84/84 92/92/92 14/14/14
f 100/100/100 13/13/13 14/14/14
f 11/11/11 12/12/12 93/93/93
f 93/93/93 94/94/94 86/86/86
f 94/94/94 95/95/95 87/87/87
f 87/87/87 95/95/95 96/96/96
f 96/96/96 97/97/97 89/89/89
f 97/97/97 98/98/98 90/90/90
f 90/90/90 98/98/98 99/99/99
f 91/91/91 99/99/99 100/100/100
f 10/10/10 11/11/11 85/85/85
f 77/77/77 85/85/85 86/86/86
f 78/78/78 86/86/86 87/87/87
f 79/79/79 87/87/87 88/88/88
f 88/88/88 89/89/89 81/81/81
f 81/81/81 89/89/89 90/90/90
f 82/82/82 90/90/90 91/91/91
f 91/91/91 92/92/92 84/84/84
f 10/10/10 77/77/77 69/69/69
f 69/69/69 77/77/77 78/78/78
f 70/70/70 78/78/78 79/79/79
f 79/79/79 80/80/80 72/72/72
f 72/72/72 80/80/80 81/81/81
f 73/73/73 81/81/81 82/82/82
f 82/82/82 83/83/83 75/75/75
f 83/83/83 84/84/84 76/76/76
f 9/9/9 69/69/69 61/61/61
f 69/69/69 70/70/70 62/62/62
f 62/62/62 70/70/70 71/71/71
f 63/63/63 71/71/71 72/72/72
f 72/72/72 73/73/73 65/65/65
f 65/65/65 73/73/73 74/74/74
f 66/66/66 74/74/74 75/75/75
f 67/67/67 75/75/75 76/76/76
f 8/8/8 61/61/61 53/53/53
f 53/53/53 61/61/61 62/62/62
f 54/54/54 62/62/62 63/63/63
f 55/55/55 63/63/63 64/64/64
f 64/64/64 65/65/65 57/57/57
f 57/57/57 65/65/65 66/66/66
f 58/58/58 66/66/66 67/67/67
f 59/59/59 67/67/67 68/68/68
f 6/6/6 7/7/7 53/53/53
f 45/45/45 53/53/53 54/54/54
f 54/54/54 55/55/55 47/47/47
f 55/55/55 56/56/56 48/48/48
f 56/56/56 57/57/57 49/49/49
f 49/49/49 57/57/57 58/58/58
f 58/58/58 59/59/59 51/51/51
f 59/59/59 60/60/60 52/52/52
f 6/6/6 45/45/45 37/37/37
f 45/45/45 46/46/46 38/38/38
f 46/46/46 47/47/47 39/39/39
f 39/39/39 47/47/47 48/48/48
f 40/40/40 48/48/48 49/49/49
f 41/41/41 49/49/49 50/50/50
f 50/50/50 51/51/51 43/43/43
f 51/51/51 52/52/52 44/44/44
f 5/5/5 37/37/37 28/28/28
f 28/28/28 37/37/37 38/38/38
f 27/27/27 38/38/38 39/39/39
f 26/26/26 39/39/39 40/40/40
f 40/40/40 41/41/41 24/24/24
f 41/41/41 42/42/42 23/23/23
f 23/23/23 42/42/42 43/43/43
f 43/43/43 44/44/44 21/21/21
f 2/2/2 29/29/29 93/93/93
f 93/93/93 29/29/29 30/30/30
f 30/30/30 31/31/31 95/95/95
f 31/31/31 32/32/32 96/96/96
f 32/32/32 33/33/33 97/97/97
f 33/33/33 34/34/34 98/98/98
f 98/98/98 34/34/34 35/35/35
f 99/99/99 35/35/35 36/36/36
