o GNATVCloth
v -5.03497 -4.98221 0.596593
v 5.06372 -4.99814 0.393578
v -5.01298 5.02105 0.004229
v 4.98702 5.02105 0.004229
v -3.92488 -5.01929 0.52315
v -2.80557 -5.06348 0.483777
v -1.68182 -5.09266 0.479285
v -0.554437 -5.11246 0.475261
v 0.57428 -5.11474 0.514561
v 1.70121 -5.0965 0.497301
v 2.82474 -5.06567 0.449151
v 3.94627 -5.029 0.440505
v 3.86834 4.90193 0.19814
v 2.75639 4.81786 0.378031
v 1.63296 4.75445 0.314475
v 0.5121 4.71157 0.292614
v -0.591231 4.69794 0.472212
v -1.695 4.69735 0.630356
v -2.81023 4.76151 0.506621
v -3.90119 4.88116 0.235858
v -4.97803 3.90707 0.0760773
v -4.97779 2.7924 0.139577
v -4.9866 1.67849 0.204106
v -4.99446 0.564133 0.254784
v -5.00059 -0.549812 0.304092
v -5.00688 -1.66315 0.349682
v -5.01168 -2.7751 0.385932
v -5.01722 -3.88293 0.484487
v 5.0389 -3.88883 0.314436
v 5.02429 -2.7789 0.244056
v 5.01502 -1.66563 0.239658
v 5.006 -0.552631 0.222061
v 4.99898 0.561148 0.198993
v 4.99082 1.67586 0.164867
v 4.9833 2.79131 0.132715
v 4.97245 3.906 0.0682884
v -3.84712 -3.8866 0.369277
v -3.81111 -3.24233 0.281938
v -3.66446 -1.9539 0.247077
v -4.11745 -0.291662 0.237064
v -4.13974 0.725108 0.184146
v -4.13008 1.50736 0.122989
v -4.05892 2.79899 0.033917
v -3.92136 3.87298 -0.143361
v -2.71635 -4.05149 0.314021
v -2.79435 -2.78276 0.344535
v -2.67269 -2.19468 0.292645
v -2.74906 -0.649057 0.28301
v -2.78267 0.478453 0.17405
v -2.71348 1.51862 0.0338981
v -2.84089 2.84408 -0.197387
v -2.7482 3.50484 0.0280146
v -1.65168 -4.28894 0.33274
v -1.49368 -2.97499 0.398427
v -1.88745 -1.681 0.378579
v -1.87136 -0.885906 0.3119
v -1.52166 0.580854 0.032225
v -1.98359 1.64141 -0.0699307
v -1.70511 2.67307 -0.0183789
v -1.58829 3.57466 0.407278
v -0.225575 -4.37265 0.397271
v -0.581773 -2.94105 0.477888
v -0.541203 -1.80042 0.403231
v -0.833509 -0.82421 0.290094
v -0.598249 0.372958 0.0986136
v -0.363262 1.40019 0.052975
v -0.563201 2.56703 0.176816
v -0.761937 3.38806 0.415037
v 0.746813 -3.94702 0.393239
v 0.82128 -2.65424 0.453788
v 0.53343 -1.86436 0.434301
v 0.616913 -0.56876 0.112857
v 0.595157 0.336428 0.112524
v 0.3097 1.44828 0.0470561
v 0.534102 2.41072 0.137872
v 0.545274 3.62431 0.41348
v 1.96473 -3.69898 0.337563
v 1.68561 -2.89045 0.39401
v 1.83679 -1.96331 0.431427
v 1.99364 -0.451489 0.167969
v 1.98534 0.211316 -0.0168834
v 1.83962 1.47419 0.0263436
v 1.41982 2.74384 0.106773
v 1.48257 3.5457 0.299751
v 2.81007 -3.95897 0.349
v 3.11693 -2.86954 0.326509
v 2.96416 -1.99137 0.296221
v 2.725 -0.533135 0.304187
v 2.96841 0.258155 0.202141
v 3.08936 1.52597 -0.0899735
v 2.77064 3.09042 -0.0877685
v 2.74003 3.4437 0.0298591
v 3.94003 -3.9928 0.309414
v 3.67986 -2.74045 0.301148
v 3.88893 -1.69771 0.290529
v 3.8225 -0.742827 0.308713
v 3.8815 0.269881 0.27968
v 4.17149 1.78723 0.143254
v 4.15 2.73785 -0.0319632
v 4.02943 3.86055 -0.101717
vt 0.0001 0.0001
vt 0.9999 0.0001
vt 0.0001 0.9999
vt 0.9999 0.9999
vt 0.111189 0.0001
vt 0.222278 0.0001
vt 0.333367 0.0001
vt 0.444455 0.0001
vt 0.555544 0.0001
vt 0.666633 0.0001
vt 0.777722 0.0001
vt 0.888811 0.0001
vt 0.888811 0.9999
vt 0.777722 0.9999
vt 0.666633 0.9999
vt 0.555544 0.9999
vt 0.444455 0.9999
vt 0.333367 0.9999
vt 0.222278 0.9999
vt 0.111189 0.9999
vt 0.0001 0.888811
vt 0.0001 0.777722
vt 0.0001 0.666633
vt 0.0001 0.555544
vt 0.0001 0.444456
vt 0.0001 0.333367
vt 0.0001 0.222278
vt 0.0001 0.111189
vt 0.9999 0.111189
vt 0.9999 0.222278
vt 0.9999 0.333367
vt 0.9999 0.444456
vt 0.9999 0.555544
vt 0.9999 0.666633
vt 0.9999 0.777722
vt 0.9999 0.888811
vt 0.11727 0.115399
vt 0.120778 0.180369
vt 0.134636 0.309595
vt 0.088728 0.473895
vt 0.085886 0.575352
vt 0.086211 0.65375
vt 0.092207 0.78313
vt 0.106956 0.892282
vt 0.22987 0.102869
vt 0.221803 0.229552
vt 0.233521 0.288953
vt 0.225541 0.443179
vt 0.221596 0.556167
vt 0.227801 0.661237
vt 0.214896 0.795203
vt 0.22542 0.865181
vt 0.335524 0.082127
vt 0.351143 0.213907
vt 0.311934 0.342467
vt 0.313159 0.422214
vt 0.347791 0.572605
vt 0.301482 0.677733
vt 0.329031 0.783086
vt 0.344903 0.885466
vt 0.476837 0.074882
vt 0.441952 0.218774
vt 0.445749 0.333088
vt 0.416414 0.43099
vt 0.439746 0.552976
vt 0.463203 0.656843
vt 0.444252 0.77653
vt 0.426137 0.866051
vt 0.573419 0.117409
vt 0.581125 0.246686
vt 0.552512 0.326
vt 0.561075 0.459693
vt 0.558356 0.550596
vt 0.530299 0.662189
vt 0.553275 0.760113
vt 0.555478 0.888821
vt 0.694433 0.13996
vt 0.667048 0.221666
vt 0.681985 0.314267
vt 0.698218 0.467249
vt 0.696819 0.535952
vt 0.68253 0.662758
vt 0.642062 0.791726
vt 0.648523 0.877957
vt 0.778029 0.111667
vt 0.809426 0.219523
vt 0.794923 0.307783
vt 0.772028 0.454562
vt 0.796846 0.533374
vt 0.807262 0.663157
vt 0.778581 0.821037
vt 0.775122 0.858219
vt 0.890224 0.104741
vt 0.865679 0.23076
vt 0.887326 0.334104
vt 0.881307 0.429754
vt 0.887973 0.53063
vt 0.918106 0.681428
vt 0.915043 0.778027
vt 0.904815 0.89094
vn 0.0690125 0.10011 0.99258
vn 0.0134556 0.0983436 0.995062
vn -0.0144456 -0.140993 0.989905
vn 0.00564379 -0.0955315 0.99541
vn 0.0689062 0.119812 0.990403
vn 0.0347899 0.158447 0.986754
vn 0.00761985 0.179092 0.983803
vn -0.0218157 0.140191 0.989884
vn -0.021537 0.110319 0.993663
vn 0.0243149 0.102732 0.994412
vn 0.0271006 0.102252 0.994389
vn 0.0208556 0.125607 0.991861
vn 0.181888 -0.245999 0.952051
vn 0.120677 -0.187043 0.974911
vn -0.0376643 -0.00748622 0.999262
vn 0.0898169 0.07285 0.99329
vn 0.0727363 -0.038409 0.996611
vn 0.0101091 -0.193957 0.980958
vn -0.224897 -0.313746 0.922488
vn -0.247004 -0.336817 0.908594
vn 0.175031 0.0866723 0.980741
vn 0.113653 0.0565467 0.99191
vn 0.100796 0.060025 0.993095
vn 0.0696763 0.0473322 0.996446
vn 0.0633618 0.0421298 0.997101
vn 0.0764152 0.0336725 0.996507
vn 0.0985153 0.0453229 0.994103
vn 0.0959915 0.11084 0.989192
vn -0.0109012 0.0670247 0.997692
vn 0.0299699 0.021167 0.999327
vn 0.0536682 0.00160357 0.998558
vn 0.068669 0.0206629 0.997425
vn 0.0318365 0.0437977 0.998533
vn -0.0223454 0.0295417 0.999314
vn -0.141134 0.0859618 0.986251
vn -0.185352 0.0517516 0.981309
vn 0.0747903 0.135393 0.987965
vn 0.0419355 0.0621525 0.997185
vn 0.0111558 0.0295067 0.999502
vn 0.036534 0.0444877 0.998342
vn 0.0609527 0.0725871 0.995498
vn 0.0849346 0.0702691 0.993906
vn 0.137194 0.0999486 0.985489
vn -0.0560187 -0.14647 0.987628
vn 0.00591522 0.0590963 0.998235
vn -0.0446249 0.0336677 0.998436
vn -0.0609148 0.0352684 0.99752
vn -0.0357408 0.0462676 0.99829
vn 0.0499181 0.114898 0.992122
vn 0.0935032 0.127815 0.987381
vn -0.0188843 -0.0140809 0.999722
vn -0.240003 -0.334793 0.911215
vn -0.0238169 0.0702878 0.997242
vn -0.0560507 0.00628949 0.998408
vn -0.0381323 0.0460462 0.998211
vn 0.02117 0.122632 0.992226
vn 0.00807898 0.129931 0.99149
vn -0.0226479 0.054923 0.998234
vn -0.181879 -0.239845 0.953622
vn -0.108515 -0.268208 0.95723
vn -0.0279391 0.0467423 0.998516
vn -0.026377 -0.00612732 0.999633
vn -0.00971881 0.107355 0.994173
vn 0.0291876 0.138051 0.989995
vn -0.00207214 0.0769197 0.997035
vn -0.0292783 -0.0254836 0.999246
vn -0.0634479 -0.173563 0.982777
vn -0.0508263 -0.21994 0.974188
vn 0.0225109 0.0174727 0.999594
vn 0.0306969 -0.0185269 0.999357
vn -0.000557798 0.121078 0.992643
vn 0.0205743 0.15223 0.988131
vn 0.0349314 0.0194849 0.9992
vn 0.00784222 -0.0067604 0.999946
vn 0.0374577 -0.131289 0.990636
vn 0.0816023 -0.111157 0.990447
vn 0.0281891 0.0276796 0.999219
vn 0.063117 -0.036586 0.997335
vn 0.0148113 0.0770894 0.996914
vn -0.106125 0.223933 0.968809
vn -0.054748 0.133489 0.989537
vn 0.0718781 -0.017934 0.997252
vn 0.123176 -0.154053 0.980355
vn 0.10336 -0.134437 0.985517
vn 0.0253782 0.0648777 0.99757
vn 0.0333839 0.0130782 0.999357
vn 0.0470316 0.00331482 0.998888
vn -0.0669315 0.130073 0.989243
vn -0.119925 0.164746 0.979018
vn -0.0943998 0.109789 0.989462
vn 0.107024 -0.113805 0.987722
vn 0.182317 -0.269955 0.945455
vn 0.0221765 0.0647283 0.997657
vn 0.0331351 0.0165188 0.999314
vn 0.0296286 -0.00370533 0.999554
vn 0.018023 0.0223459 0.999588
vn -0.0374806 0.0879016 0.995424
vn -0.114574 0.103348 0.988024
vn -0.149682 0.0819884 0.985329
vn 0.0508028 -0.127686 0.990513
f 100/100/100 4/4/4 13/13/13
f 44/44/44 3/3/3 21/21/21
f 44/44/44 19/19/19 20/20/20
f 60/60/60 19/19/19 52/52/52
f 60/60/60 17/17/17 18/18/18
f 76/76/76 17/17/17 68/68/68
f 84/84/84 16/16/16 76/76/76
f 84/84/84 14/14/14 15/15/15
f 100/100/100 14/14/14 92/92/92
f 11/11/11 93/93/93 85/85/85
f 93/93/93 86/86/86 85/85/85
f 94/94/94 87/87/87 86/86/86
f 87/87/87 96/96/96 88/88/88
f 96/96/96 89/89/89 88/88/88
f 97/97/97 90/90/90 89/89/89
f 90/90/90 99/99/99 91/91/91
f 91/91/91 100/100/100 92/92/92
f 10/10/10 85/85/85 77/77/77
f 77/77/77 86/86/86 78/78/78
f 78/78/78 87/87/87 79/79/79
f 79/79/79 88/88/88 80/80/80
f 88/88/88 81/81/81 80/80/80
f 81/81/81 90/90/90 82/82/82
f 82/82/82 91/91/91 83/83/83
f 91/91/91 84/84/84 83/83/83
f 10/10/10 69/69/69 9/9/9
f 69/69/69 78/78/78 70/70/70
f 70/70/70 79/79/79 71/71/71
f 79/79/79 72/72/72 71/71/71
f 72/72/72 81/81/81 73/73/73
f 73/73/73 82/82/82 74/74/74
f 82/82/82 75/75/75 74/74/74
f 83/83/83 76/76/76 75/75/75
f 9/9/9 61/61/61 8/8/8
f 69/69/69 62/62/62 61/61/61
f 62/62/62 71/71/71 63/63/63
f 63/63/63 72/72/72 64/64/64
f 72/72/72 65/65/65 64/64/64
f 65/65/65 74/74/74 66/66/66
f 66/66/66 75/75/75 67/67/67
f 67/67/67 76/76/76 68/68/68
f 8/8/8 53/53/53 7/7/7
f 53/53/53 62/62/62 54/54/54
f 54/54/54 63/63/63 55/55/55
f 55/55/55 64/64/64 56/56/56
f 64/64/64 57/57/57 56/56/56
f 57/57/57 66/66/66 58/58/58
f 58/58/58 67/67/67 59/59/59
f 59/59/59 68/68/68 60/60/60
f 6/6/6 53/53/53 45/45/45
f 45/45/45 54/54/54 46/46/46
f 54/54/54 47/47/47 46/46/46
f 55/55/55 48/48/48 47/47/47
f 56/56/56 49/49/49 48/48/48
f 49/49/49 58/58/58 50/50/50
f 58/58/58 51/51/51 50/50/50
f 59/59/59 52/52/52 51/51/51
f 6/6/6 37/37/37 5/5/5
f 45/45/45 38/38/38 37/37/37
f 46/46/46 39/39/39 38/38/38
f 39/39/39 48/48/48 40/40/40
f 40/40/40 49/49/49 41/41/41
f 41/41/41 50/50/50 42/42/42
f 50/50/50 43/43/43 42/42/42
f 51/51/51 44/44/44 43/43/43
f 5/5/5 28/28/28 1/1/1
f 28/28/28 38/38/38 27/27/27
f 27/27/27 39/39/39 26/26/26
f 26/26/26 40/40/40 25/25/25
f 40/40/40 24/24/24 25/25/25
f 41/41/41 23/23/23 24/24/24
f 23/23/23 43/43/43 22/22/22
f 43/43/43 21/21/21 22/22/22
f 2/2/2 93/93/93 12/12/12
f 93/93/93 30/30/30 94/94/94
f 30/30/30 95/95/95 94/94/94
f 31/31/31 96/96/96 95/95/95
f 32/32/32 97/97/97 96/96/96
f 33/33/33 98/98/98 97/97/97
f 98/98/98 35/35/35 99/99/99
f 99/99/99 36/36/36 100/100/100
f 100/100/100 36/36/36 4/4/4
f 44/44/44 20/20/20 3/3/3
f 44/44/44 52/52/52 19/19/19
f 60/60/60 18/18/18 19/19/19
f 60/60/60 68/68/68 17/17/17
f 76/76/76 16/16/16 17/17/17
f 84/84/84 15/15/15 16/16/16
f 84/84/84 92/92/92 14/14/14
f 100/100/100 13/13/13 14/14/14
f 11/11/11 12/12/12 93/93/93
f 93/93/93 94/94/94 86/86/86
f 94/94/94 95/95/95 87/87/87
f 87/87/87 95/95/95 96/96/96
f 96/96/96 97/97/97 89/89/89
f 97/97/97 98/98/98 90/90/90
f 90/90/90 98/98/98 99/99/99
f 91/91/91 99/99/99 100/100/100
f 10/10/10 11/11/11 85/85/85
f 77/77/77 85/85/85 86/86/86
f 78/78/78 86/86/86 87/87/87
f 79/79/79 87/87/87 88/88/88
f 88/88/88 89/89/89 81/81/81
f 81/81/81 89/89/89 90/90/90
f 82/82/82 90/90/90 91/91/91
f 91/91/91 92/92/92 84/84/84
f 10/10/10 77/77/77 69/69/69
f 69/69/69 77/77/77 78/78/78
f 70/70/70 78/78/78 79/79/79
f 79/79/79 80/80/80 72/72/72
f 72/72/72 80/80/80 81/81/81
f 73/73/73 81/81/81 82/82/82
f 82/82/82 83/83/83 75/75/75
f 83/83/83 84/84/84 76/76/76
f 9/9/9 69/69/69 61/61/61
f 69/69/69 70/70/70 62/62/62
f 62/62/62 70/70/70 71/71/71
f 63/63/63 71/71/71 72/72/72
f 72/72/72 73/73/73 65/65/65
f 65/65/65 73/73/73 74/74/74
f 66/66/66 74/74/74 75/75/75
f 67/67/67 75/75/75 76/76/76
f 8/8/8 61/61/61 53/53/53
f 53/53/53 61/61/61 62/62/62
f 54/54/54 62/62/62 63/63/63
f 55/55/55 63/63/63 64/64/64
f 64/64/64 65/65/65 57/57/57
f 57/57/57 65/65/65 66/66/66
f 58/58/58 66/66/66 67/67/67
f 59/59/59 67/67/67 68/68/68
f 6/6/6 7/7/7 53/53/53
f 45/45/45 53/53/53 54/54/54
f 54/54/54 55/55/55 47/47/47
f 55/55/55 56/56/56 48/48/48
f 56/56/56 57/57/57 49/49/49
f 49/49/49 57/57/57 58/58/58
f 58/58/58 59/59/59 51/51/51
f 59/59/59 60/60/60 52/52/52
f 6/6/6 45/45/45 37/37/37
f 45/45/45 46/46/46 38/38/38
f 46/46/46 47/47/47 39/39/39
f 39/39/39 47/47/47 48/48/48
f 40/40/40 48/48/48 49/49/49
f 41/41/41 49/49/49 50/50/50
f 50/50/50 51/51/51 43/43/43
f 51/51/51 52/52/52 44/44/44
f 5/5/5 37/37/37 28/28/28
f 28/28/28 37/37/37 38/38/38
f 27/27/27 38/38/38 39/39/39
f 26/26/26 39/39/39 40/40/40
f 40/40/40 41/41/41 24/24/24
f 41/41/41 42/42/42 23/23/23
f 23/23/23 42/42/42 43/43/43
f 43/43/43 44/44/44 21/21/21
f 2/2/2 29/29/29 93/93/93
f 93/93/93 29/29/29 30/30/30
f 30/30/30 31/31/31 95/95/95
f 31/31/31 32/32/32 96/96/96
f 32/32/32 33/33/33 97/97/97
f 33/33/33 34/34/34 98/98/98
f 98/98/98 34/34/34 35/35/35
f 99/99/99 35/35/35 36/36/36
