o GNATVCloth
v -5.00671 -4.95703 0.620575
v 5.04974 -4.99041 0.382527
v -5.01298 5.02105 0.004229
v 4.98702 5.02105 0.004229
v -3.90851 -5.01253 0.442613
v -2.79385 -5.04549 0.455427
v -1.67469 -5.07677 0.430498
v -0.551983 -5.09866 0.419607
v 0.574369 -5.09929 0.377706
v 1.69777 -5.08249 0.371567
v 2.8187 -5.05525 0.384222
v 3.93684 -5.02497 0.324695
v 3.8762 4.87813 0.222102
v 2.77501 4.76565 0.435465
v 1.65299 4.73939 0.404857
v 0.532357 4.71067 0.441082
v -0.573666 4.65637 0.605418
v -1.6875 4.71013 0.498254
v -2.81085 4.73889 0.479068
v -3.90788 4.85993 0.242855
v -4.97415 3.90976 0.0998131
v -4.96242 2.79484 0.123005
v -4.96351 1.68096 0.150173
v -4.96457 0.567853 0.176345
v -4.96854 -0.544161 0.221818
v -4.97601 -1.65545 0.275922
v -4.98451 -2.7666 0.333062
v -4.9974 -3.87496 0.420565
v 5.02782 -3.88374 0.30493
v 5.00905 -2.77457 0.205438
v 4.99281 -1.6623 0.173175
v 4.98313 -0.549322 0.162198
v 4.97784 0.563639 0.152128
v 4.97308 1.67756 0.136355
v 4.97207 2.79252 0.125568
v 4.96475 3.90679 0.0706988
v -3.8247 -3.8615 0.418838
v -3.78136 -3.21709 0.365085
v -3.63106 -1.9331 0.271676
v -4.07996 -0.277762 0.198302
v -4.10653 0.738516 0.22092
v -4.1005 1.52366 0.166293
v -4.03678 2.81488 0.0939917
v -3.93437 3.87257 -0.183673
v -2.70051 -4.02302 0.350682
v -2.76497 -2.75943 0.269032
v -2.6418 -2.16956 0.282031
v -2.71117 -0.623289 0.258293
v -2.7443 0.506074 0.206711
v -2.68499 1.53903 0.00457521
v -2.85923 2.84462 -0.297114
v -2.7674 3.48826 -0.0268875
v -1.64294 -4.25896 0.386333
v -1.47593 -2.94947 0.408589
v -1.8582 -1.65146 0.388259
v -1.8334 -0.859086 0.29889
v -1.53821 0.562015 -0.211225
v -2.00457 1.62341 -0.313003
v -1.73116 2.64719 -0.0962315
v -1.57464 3.61363 0.200501
v -0.221671 -4.35887 0.378737
v -0.567066 -2.92062 0.335578
v -0.526339 -1.79078 0.218995
v -0.831021 -0.841605 0.0136258
v -0.608692 0.357065 -0.20372
v -0.376685 1.37271 -0.217087
v -0.574308 2.54873 -0.013497
v -0.754898 3.41759 0.193322
v 0.749474 -3.93741 0.32326
v 0.824523 -2.65008 0.286663
v 0.538979 -1.8788 0.114729
v 0.622279 -0.566217 -0.120725
v 0.588442 0.33487 -0.151885
v 0.295561 1.41842 -0.143621
v 0.521899 2.39271 -0.0363748
v 0.549334 3.60807 0.324397
v 1.96245 -3.6835 0.309241
v 1.6806 -2.87744 0.406139
v 1.82324 -1.95307 0.332994
v 1.99161 -0.446589 0.0528184
v 1.98581 0.218044 -0.0993095
v 1.82815 1.47337 -0.220775
v 1.4055 2.74048 -0.087766
v 1.4856 3.53012 0.225218
v 2.80514 -3.94463 0.294583
v 3.1059 -2.85636 0.297104
v 2.95603 -1.98432 0.409671
v 2.71703 -0.532464 0.232978
v 2.95773 0.263249 0.16443
v 3.07585 1.53916 -0.0820148
v 2.76724 3.10063 -0.213547
v 2.74373 3.43407 -0.0484252
v 3.9314 -3.98213 0.328206
v 3.66825 -2.72844 0.288845
v 3.87326 -1.68783 0.300389
v 3.81122 -0.733034 0.350078
v 3.86506 0.279878 0.298899
v 4.15377 1.79654 0.174752
v 4.13091 2.7488 0.00874095
v 4.03408 3.86325 -0.159148
vt 0.0001 0.0001
vt 0.9999 0.0001
vt 0.0001 0.9999
vt 0.9999 0.9999
vt 0.111189 0.0001
vt 0.222278 0.0001
vt 0.333367 0.0001
vt 0.444455 0.0001
vt 0.555544 0.0001
vt 0.666633 0.0001
vt 0.777722 0.0001
vt 0.888811 0.0001
vt 0.888811 0.9999
vt 0.777722 0.9999
vt 0.666633 0.9999
vt 0.555544 0.9999
vt 0.444455 0.9999
vt 0.333367 0.9999
vt 0.222278 0.9999
vt 0.111189 0.9999
vt 0.0001 0.888811
vt 0.0001 0.777722
vt 0.0001 0.666633
vt 0.0001 0.555544
vt 0.0001 0.444456
vt 0.0001 0.333367
vt 0.0001 0.222278
vt 0.0001 0.111189
vt 0.9999 0.111189
vt 0.9999 0.222278
vt 0.9999 0.333367
vt 0.9999 0.444456
vt 0.9999 0.555544
vt 0.9999 0.666633
vt 0.9999 0.777722
vt 0.9999 0.888811
vt 0.11727 0.115399
vt 0.120778 0.180369
vt 0.134636 0.309595
vt 0.088728 0.473895
vt 0.085886 0.575352
vt 0.086211 0.65375
vt 0.092207 0.78313
vt 0.106956 0.892282
vt 0.22987 0.102869
vt 0.221803 0.229552
vt 0.233521 0.288953
vt 0.225541 0.443179
vt 0.221596 0.556167
vt 0.227801 0.661237
vt 0.214896 0.795203
vt 0.22542 0.865181
vt 0.335524 0.082127
vt 0.351143 0.213907
vt 0.311934 0.342467
vt 0.313159 0.422214
vt 0.347791 0.572605
vt 0.301482 0.677733
vt 0.329031 0.783086
vt 0.344903 0.885466
vt 0.476837 0.074882
vt 0.441952 0.218774
vt 0.445749 0.333088
vt 0.416414 0.43099
vt 0.439746 0.552976
vt 0.463203 0.656843
vt 0.444252 0.77653
vt 0.426137 0.866051
vt 0.573419 0.117409
vt 0.581125 0.246686
vt 0.552512 0.326
vt 0.561075 0.459693
vt 0.558356 0.550596
vt 0.530299 0.662189
vt 0.553275 0.760113
vt 0.555478 0.888821
vt 0.694433 0.13996
vt 0.667048 0.221666
vt 0.681985 0.314267
vt 0.698218 0.467249
vt 0.696819 0.535952
vt 0.68253 0.662758
vt 0.642062 0.791726
vt 0.648523 0.877957
vt 0.778029 0.111667
vt 0.809426 0.219523
vt 0.794923 0.307783
vt 0.772028 0.454562
vt 0.796846 0.533374
vt 0.807262 0.663157
vt 0.778581 0.821037
vt 0.775122 0.858219
vt 0.890224 0.104741
vt 0.865679 0.23076
vt 0.887326 0.334104
vt 0.881307 0.429754
vt 0.887973 0.53063
vt 0.918106 0.681428
vt 0.915043 0.778027
vt 0.904815 0.89094
vn 0.166164 0.177853 0.969927
vn -0.0184785 0.0333402 0.999273
vn 0.0091906 -0.153044 0.988177
vn -0.0108254 -0.130976 0.991326
vn 0.0525018 0.0737354 0.995895
vn 0.0190486 0.068141 0.997494
vn 0.0172243 0.0532503 0.998433
vn 0.0189465 0.0477575 0.998679
vn 0.0270827 0.0418466 0.998757
vn 0.0058328 0.0523554 0.998612
vn 0.00432695 0.0525018 0.998611
vn 0.000732533 -0.00336355 0.999994
vn 0.216418 -0.313647 0.924548
vn 0.139825 -0.286744 0.947748
vn 0.00609892 -0.147762 0.989004
vn 0.0945236 -0.119067 0.988376
vn -0.0174988 -0.249019 0.96834
vn -0.0642353 -0.267669 0.961367
vn -0.159823 -0.349709 0.923125
vn -0.241181 -0.379402 0.893245
vn 0.188435 0.112395 0.975633
vn 0.0308283 0.0227264 0.999266
vn -0.0100313 0.0434382 0.999006
vn -0.0298709 0.0136342 0.999461
vn 0.013042 0.0446748 0.998916
vn 0.0128771 0.0491981 0.998706
vn 0.00575072 0.0674737 0.997704
vn 0.04289 0.0904243 0.994979
vn 0.0139887 0.0798962 0.996705
vn 0.0626147 0.0354255 0.997409
vn 0.127606 -0.000903435 0.991825
vn 0.145597 0.0208428 0.989124
vn 0.0977311 0.0277139 0.994827
vn 0.0485535 0.0120285 0.998748
vn -0.0790887 0.075169 0.994029
vn -0.208798 0.0781917 0.974828
vn 0.0272799 0.05971 0.997843
vn 0.034038 0.0741769 0.996664
vn 0.00506257 0.0382184 0.999257
vn -0.00985457 0.0244544 0.999652
vn 0.00870873 0.0510624 0.998657
vn 0.0528436 0.0610809 0.996733
vn 0.149461 0.121584 0.981264
vn -0.0199429 -0.146398 0.989025
vn 0.0105562 0.0652418 0.997814
vn -0.0186234 0.0347656 0.999222
vn -0.0782778 -0.00291479 0.996927
vn -0.0441322 0.0434898 0.998079
vn 0.145825 0.131344 0.980553
vn 0.228601 0.164 0.959607
vn 0.0589627 -0.0227845 0.998
vn -0.19854 -0.342934 0.918138
vn 0.0121375 0.0361592 0.999272
vn -0.010794 0.0220969 0.999698
vn 0.0462544 0.0862236 0.995201
vn 0.159387 0.162676 0.973721
vn 0.144284 0.174671 0.973998
vn 0.101384 0.0283106 0.994444
vn -0.13573 -0.248737 0.959014
vn -0.0904182 -0.295288 0.95112
vn 0.0265751 0.0403977 0.99883
vn 0.0476391 0.0693246 0.996456
vn 0.103344 0.15064 0.983172
vn 0.13658 0.201096 0.970003
vn -0.0188958 0.0680679 0.997502
vn -0.0596274 -0.0524727 0.996841
vn -0.0580608 -0.219532 0.973876
vn -0.0653916 -0.278291 0.958268
vn 0.00306191 0.0179586 0.999834
vn -0.0754869 0.107029 0.991386
vn -0.0208534 0.166346 0.985847
vn -0.0374213 0.154605 0.987267
vn -0.0201625 0.029087 0.999374
vn -0.0307198 -0.0365591 0.998859
vn 0.0304929 -0.171539 0.984705
vn 0.0502088 -0.244771 0.96828
vn 0.0317602 -0.024744 0.999189
vn -0.0197443 -0.015861 0.999679
vn -0.129735 0.148284 0.980398
vn -0.176704 0.208609 0.961903
vn -0.1528 0.145568 0.977477
vn 0.00626103 -0.00336593 0.999975
vn 0.124256 -0.23839 0.963188
vn 0.100406 -0.277328 0.955514
vn -0.00503105 0.0397604 0.999197
vn 0.0317048 -0.04937 0.998277
vn 0.0238861 -0.0014059 0.999714
vn -0.155042 0.151946 0.976153
vn -0.182957 0.148292 0.971873
vn -0.187998 0.127802 0.973819
vn 0.0423099 -0.155298 0.986961
vn 0.186025 -0.38276 0.904925
vn 0.00544053 0.0396236 0.9992
vn 0.060946 -0.0206509 0.997927
vn 0.109877 -0.0233173 0.993672
vn 0.0338219 0.0347441 0.998824
vn -0.0266371 0.0840626 0.996104
vn -0.0768404 0.090758 0.992904
vn -0.177785 0.115137 0.977311
vn 0.0345835 -0.159909 0.986526
f 100/100/100 4/4/4 13/13/13
f 44/44/44 3/3/3 21/21/21
f 44/44/44 19/19/19 20/20/20
f 60/60/60 19/19/19 52/52/52
f 60/60/60 17/17/17 18/18/18
f 76/76/76 17/17/17 68/68/68
f 84/84/84 16/16/16 76/76/76
f 84/84/84 14/14/14 15/15/15
f 100/100/100 14/14/14 92/92/92
f 11/11/11 93/93/93 85/85/85
f 93/93/93 86/86/86 85/85/85
f 94/94/94 87/87/87 86/86/86
f 87/87/87 96/96/96 88/88/88
f 96/96/96 89/89/89 88/88/88
f 97/97/97 90/90/90 89/89/89
f 90/90/90 99/99/99 91/91/91
f 91/91/91 100/100/100 92/92/92
f 10/10/10 85/85/85 77/77/77
f 77/77/77 86/86/86 78/78/78
f 78/78/78 87/87/87 79/79/79
f 79/79/79 88/88/88 80/80/80
f 88/88/88 81/81/81 80/80/80
f 81/81/81 90/90/90 82/82/82
f 82/82/82 91/91/91 83/83/83
f 91/91/91 84/84/84 83/83/83
f 10/10/10 69/69/69 9/9/9
f 69/69/69 78/78/78 70/70/70
f 70/70/70 79/79/79 71/71/71
f 79/79/79 72/72/72 71/71/71
f 72/72/72 81/81/81 73/73/73
f 73/73/73 82/82/82 74/74/74
f 82/82/82 75/75/75 74/74/74
f 83/83/83 76/76/76 75/75/75
f 9/9/9 61/61/61 8/8/8
f 69/69/69 62/62/62 61/61/61
f 62/62/62 71/71/71 63/63/63
f 63/63/63 72/72/72 64/64/64
f 72/72/72 65/65/65 64/64/64
f 65/65/65 74/74/74 66/66/66
f 66/66/66 75/75/75 67/67/67
f 67/67/67 76/76/76 68/68/68
f 8/8/8 53/53/53 7/7/7
f 53/53/53 62/62/62 54/54/54
f 54/54/54 63/63/63 55/55/55
f 55/55/55 64/64/64 56/56/56
f 64/64/64 57/57/57 56/56/56
f 57/57/57 66/66/66 58/58/58
f 58/58/58 67/67/67 59/59/59
f 59/59/59 68/68/68 60/60/60
f 6/6/6 53/53/53 45/45/45
f 45/45/45 54/54/54 46/46/46
f 54/54/54 47/47/47 46/46/46
f 55/55/55 48/48/48 47/47/47
f 56/56/56 49/49/49 48/48/48
f 49/49/49 58/58/58 50/50/50
f 58/58/58 51/51/51 50/50/50
f 59/59/59 52/52/52 51/51/51
f 6/6/6 37/37/37 5/5/5
f 45/45/45 38/38/38 37/37/37
f 46/46/46 39/39/39 38/38/38
f 39/39/39 48/48/48 40/40/40
f 40/40/40 49/49/49 41/41/41
f 41/41/41 50/50/50 42/42/42
f 50/50/50 43/43/43 42/42/42
f 51/51/51 44/44/44 43/43/43
f 5/5/5 28/28/28 1/1/1
f 28/28/28 38/38/38 27/27/27
f 27/27/27 39/39/39 26/26/26
f 26/26/26 40/40/40 25/25/25
f 40/40/40 24/24/24 25/25/25
f 41/41/41 23/23/23 24/24/24
f 23/23/23 43/43/43 22/22/22
f 43/43/43 21/21/21 22/22/22
f 2/2/2 93/93/93 12/12/12
f 93/93/93 30/30/30 94/94/94
f 30/30/30 95/95/95 94/94/94
f 31/31/31 96/96/96 95/95/95
f 32/32/32 97/97/97 96/96/96
f 33/33/33 98/98/98 97/97/97
f 98/98/98 35/35/35 99/99/99
f 99/99/99 36/36/36 100/100/100
f 100/100/100 36/36/36 4/4/4
f 44/44/44 20/20/20 3/3/3
f 44/44/44 52/52/52 19/19/19
f 60/60/60 18/18/18 19/19/19
f 60/60/60 68/68/68 17/17/17
f 76/76/76 16/16/16 17/17/17
f 84/84/84 15/15/15 16/16/16
f 84/84/84 92/92/92 14/14/14
f 100/100/100 13/13/13 14/14/14
f 11/11/11 12/12/12 93/93/93
f 93/93/93 94/94/94 86/86/86
f 94/94/94 95/95/95 87/87/87
f 87/87/87 95/95/95 96/96/96
f 96/96/96 97/97/97 89/89/89
f 97/97/97 98/98/98 90/90/90
f 90/90/90 98/98/98 99/99/99
f 91/91/91 99/99/99 100/100/100
f 10/10/10 11/11/11 85/85/85
f 77/77/77 85/85/85 86/86/86
f 78/78/78 86/86/86 87/87/87
f 79/79/79 87/87/87 88/88/88
f 88/88/88 89/89/89 81/81/81
f 81/81/81 89/89/89 90/90/90
f 82/82/82 90/90/90 91/91/91
f 91/91/91 92/92/92 84/84/84
f 10/10/10 77/77/77 69/69/69
f 69/69/69 77/77/77 78/78/78
f 70/70/70 78/78/78 79/79/79
f 79/79/79 80/80/80 72/72/72
f 72/72/72 80/80/80 81/81/81
f 73/73/73 81/81/81 82/82/82
f 82/82/82 83/83/83 75/75/75
f 83/83/83 84/84/84 76/76/76
f 9/9/9 69/69/69 61/61/61
f 69/69/69 70/70/70 62/62/62
f 62/62/62 70/70/70 71/71/71
f 63/63/63 71/71/71 72/72/72
f 72/72/72 73/73/73 65/65/65
f 65/65/65 73/73/73 74/74/74
f 66/66/66 74/74/74 75/75/75
f 67/67/67 75/75/75 76/76/76
f 8/8/8 61/61/61 53/53/53
f 53/53/53 61/61/61 62/62/62
f 54/54/54 62/62/62 63/63/63
f 55/55/55 63/63/63 64/64/64
f 64/64/64 65/65/65 57/57/57
f 57/57/57 65/65/65 66/66/66
f 58/58/58 66/66/66 67/67/67
f 59/59/59 67/67/67 68/68/68
f 6/6/6 7/7/7 53/53/53
f 45/45/45 53/53/53 54/54/54
f 54/54/54 55/55/55 47/47/47
f 55/55/55 56/56/56 48/48/48
f 56/56/56 57/57/57 49/49/49
f 49/49/49 57/57/57 58/58/58
f 58/58/58 59/59/59 51/51/51
f 59/59/59 60/60/60 52/52/52
f 6/6/6 45/45/45 37/37/37
f 45/45/45 46/46/46 38/38/38
f 46/46/46 47/47/47 39/39/39
f 39/39/39 47/47/47 48/48/48
f 40/40/40 48/48/48 49/49/49
f 41/41/41 49/49/49 50/50/50
f 50/50/50 51/51/51 43/43/43
f 51/51/51 52/52/52 44/44/44
f 5/5/5 37/37/37 28/28/28
f 28/28/28 37/37/37 38/38/38
f 27/27/27 38/38/38 39/39/39
f 26/26/26 39/39/39 40/40/40
f 40/40/40 41/41/41 24/24/24
f 41/41/41 42/42/42 23/23/23
f 23/23/23 42/42/42 43/43/43
f 43/43/43 44/44/44 21/21/21
f 2/2/2 29/29/29 93/93/93
f 93/93/93 29/29/29 30/30/30
f 30/30/30 31/31/31 95/95/95
f 31/31/31 32/32/32 96/96/96
f 32/32/32 33/33/33 97/97/97
f 33/33/33 34/34/34 98/98/98
f 98/98/98 34/34/34 35/35/35
f 99/99/99 35/35/35 36/36/36
