o GNATVCloth
v -5.09868 -4.98459 0.490103
v 5.02691 -4.99803 0.463315
v -5.01298 5.02105 0.004229
v 4.98702 5.02105 0.004229
v -3.98642 -5.03342 0.482056
v -2.8679 -5.08983 0.415504
v -1.74011 -5.12989 0.375336
v -0.609119 -5.14813 0.336738
v 0.525566 -5.14954 0.346547
v 1.65685 -5.12787 0.343901
v 2.7857 -5.09381 0.375933
v 3.91009 -5.05257 0.400461
v 3.84485 4.94007 0.159332
v 2.71762 4.87298 0.323088
v 1.59226 4.79277 0.429374
v 0.46865 4.74165 0.456174
v -0.605887 4.69342 0.359965
v -1.66476 4.74363 0.231073
v -2.77982 4.8127 0.33457
v -3.89183 4.89804 0.173423
v -5.00996 3.90713 0.0878762
v -5.01079 2.79054 0.104623
v -5.02077 1.67473 0.121837
v -5.0322 0.5598 0.155676
v -5.03803 -0.552019 0.23741
v -5.04484 -1.66237 0.320009
v -5.05274 -2.76971 0.426676
v -5.06465 -3.87571 0.547562
v 5.00203 -3.88652 0.422932
v 4.99139 -2.78373 0.275773
v 4.98451 -1.67078 0.252858
v 4.98088 -0.556988 0.221214
v 4.97601 0.557792 0.191641
v 4.9671 1.67332 0.154974
v 4.96173 2.78925 0.112751
v 4.96063 3.90472 0.0517345
v -3.89506 -3.88306 0.441117
v -3.85518 -3.24052 0.34399
v -3.70938 -1.96533 0.156884
v -4.1528 -0.29962 0.131256
v -4.17234 0.717321 0.166104
v -4.15917 1.5024 0.17353
v -4.08801 2.79527 0.183609
v -3.94702 3.85113 -0.0740301
v -2.77143 -4.06869 0.319495
v -2.83857 -2.80217 0.209644
v -2.72441 -2.21671 0.29052
v -2.79573 -0.672889 0.344264
v -2.82112 0.462432 0.334106
v -2.73305 1.50419 0.21915
v -2.87604 2.81662 -0.0761902
v -2.79298 3.47886 0.147876
v -1.70679 -4.31233 0.335204
v -1.54404 -3.0007 0.348246
v -1.94138 -1.70953 0.441818
v -1.91974 -0.911612 0.437769
v -1.56759 0.542815 0.0896201
v -2.01962 1.60264 -0.0125066
v -1.76899 2.62735 0.218954
v -1.59621 3.60971 0.266253
v -0.27653 -4.40843 0.359535
v -0.628258 -2.97301 0.364189
v -0.591988 -1.83539 0.385441
v -0.88645 -0.866102 0.301858
v -0.653241 0.340409 0.259251
v -0.419489 1.357 0.289711
v -0.618974 2.54466 0.396004
v -0.788784 3.41593 0.335703
v 0.701222 -3.97946 0.351748
v 0.775281 -2.68477 0.321044
v 0.484572 -1.90088 0.341815
v 0.571048 -0.570272 0.336442
v 0.54191 0.333019 0.320272
v 0.255185 1.42715 0.339455
v 0.483106 2.41262 0.386562
v 0.499371 3.64567 0.369688
v 1.92413 -3.72334 0.35078
v 1.64324 -2.91864 0.311046
v 1.79084 -1.9896 0.361641
v 1.95241 -0.453493 0.326287
v 1.93724 0.22624 0.285932
v 1.78805 1.48394 0.27383
v 1.37733 2.75155 0.334093
v 1.43176 3.59321 0.312708
v 2.77097 -3.97678 0.373976
v 3.07854 -2.88684 0.372927
v 2.92828 -2.01355 0.309738
v 2.69629 -0.553487 0.345158
v 2.94271 0.245449 0.306565
v 3.03734 1.54 0.14936
v 2.7434 3.10534 0.191714
v 2.69924 3.46652 0.140924
v 3.90346 -4.0034 0.379445
v 3.64479 -2.75421 0.353495
v 3.85665 -1.70721 0.305981
v 3.79373 -0.754493 0.264805
v 3.85751 0.258492 0.250594
v 4.14775 1.78181 0.163989
v 4.11201 2.74112 0.0491693
v 4.00211 3.86614 0.0400742
vt 0.0001 0.0001
vt 0.9999 0.0001
vt 0.0001 0.9999
vt 0.9999 0.9999
vt 0.111189 0.0001
vt 0.222278 0.0001
vt 0.333367 0.0001
vt 0.444455 0.0001
vt 0.555544 0.0001
vt 0.666633 0.0001
vt 0.777722 0.0001
vt 0.888811 0.0001
vt 0.888811 0.9999
vt 0.777722 0.9999
vt 0.666633 0.9999
vt 0.555544 0.9999
vt 0.444455 0.9999
vt 0.333367 0.9999
vt 0.222278 0.9999
vt 0.111189 0.9999
vt 0.0001 0.888811
vt 0.0001 0.777722
vt 0.0001 0.666633
vt 0.0001 0.555544
vt 0.0001 0.444456
vt 0.0001 0.333367
vt 0.0001 0.222278
vt 0.0001 0.111189
vt 0.9999 0.111189
vt 0.9999 0.222278
vt 0.9999 0.333367
vt 0.9999 0.444456
vt 0.9999 0.555544
vt 0.9999 0.666633
vt 0.9999 0.777722
vt 0.9999 0.888811
vt 0.11727 0.115399
vt 0.120778 0.180369
vt 0.134636 0.309595
vt 0.088728 0.473895
vt 0.085886 0.575352
vt 0.086211 0.65375
vt 0.092207 0.78313
vt 0.106956 0.892282
vt 0.22987 0.102869
vt 0.221803 0.229552
vt 0.233521 0.288953
vt 0.225541 0.443179
vt 0.221596 0.556167
vt 0.227801 0.661237
vt 0.214896 0.795203
vt 0.22542 0.865181
vt 0.335524 0.082127
vt 0.351143 0.213907
vt 0.311934 0.342467
vt 0.313159 0.422214
vt 0.347791 0.572605
vt 0.301482 0.677733
vt 0.329031 0.783086
vt 0.344903 0.885466
vt 0.476837 0.074882
vt 0.441952 0.218774
vt 0.445749 0.333088
vt 0.416414 0.43099
vt 0.439746 0.552976
vt 0.463203 0.656843
vt 0.444252 0.77653
vt 0.426137 0.866051
vt 0.573419 0.117409
vt 0.581125 0.246686
vt 0.552512 0.326
vt 0.561075 0.459693
vt 0.558356 0.550596
vt 0.530299 0.662189
vt 0.553275 0.760113
vt 0.555478 0.888821
vt 0.694433 0.13996
vt 0.667048 0.221666
vt 0.681985 0.314267
vt 0.698218 0.467249
vt 0.696819 0.535952
vt 0.68253 0.662758
vt 0.642062 0.791726
vt 0.648523 0.877957
vt 0.778029 0.111667
vt 0.809426 0.219523
vt 0.794923 0.307783
vt 0.772028 0.454562
vt 0.796846 0.533374
vt 0.807262 0.663157
vt 0.778581 0.821037
vt 0.775122 0.858219
vt 0.890224 0.104741
vt 0.865679 0.23076
vt 0.887326 0.334104
vt 0.881307 0.429754
vt 0.887973 0.53063
vt 0.918106 0.681428
vt 0.915043 0.778027
vt 0.904815 0.89094
vn 0.00494667 -0.0518982 0.99864
vn -0.0502102 0.0274711 0.998361
vn -0.00768649 -0.0737126 0.99725
vn 0.0635 -0.023187 0.997712
vn 0.052282 0.00233228 0.99863
vn 0.0563946 0.0632669 0.996402
vn 0.036037 0.0475309 0.998219
vn 0.00255081 -0.00060331 0.999997
vn 0.00145655 -0.0125865 0.99992
vn -0.0128452 -0.00209856 0.999915
vn -0.0185781 0.00764891 0.999798
vn -0.0398407 0.019759 0.999011
vn 0.14427 -0.0883226 0.985589
vn 0.121498 -0.113911 0.986034
vn 0.064795 -0.105182 0.99234
vn -0.000165445 -0.0862453 0.996274
vn -0.0790572 -0.0198359 0.996673
vn -0.0126205 0.0302455 0.999463
vn -0.0942756 -0.114562 0.988932
vn -0.162698 -0.218833 0.962103
vn 0.076353 0.1022 0.991829
vn -0.0853525 0.0155685 0.996229
vn -0.056374 0.00845376 0.998374
vn 0.0250008 0.0229211 0.999425
vn 0.0982485 0.0728372 0.992493
vn 0.124101 0.0725606 0.989613
vn 0.123779 0.110521 0.986136
vn 0.0744081 0.0568311 0.995607
vn -0.0482879 0.083541 0.995334
vn 0.0275108 0.0547916 0.998119
vn 0.0412783 0.0318268 0.998641
vn 0.0373896 0.0223384 0.999051
vn 0.0334317 0.0363006 0.998782
vn 0.0156854 0.0354262 0.999249
vn -0.0474688 0.0693596 0.996462
vn -0.0346522 0.0347187 0.998796
vn 0.098613 0.0849767 0.991491
vn 0.102215 0.124871 0.986894
vn -0.00029011 0.0344949 0.999405
vn -0.0177461 0.0147871 0.999733
vn -0.0581062 0.0100085 0.99826
vn -0.0465702 -0.00694978 0.998891
vn 0.0428806 0.0981199 0.99425
vn -0.045624 -0.0525395 0.997576
vn 0.0398525 0.0801845 0.995983
vn -0.0430713 0.0186131 0.998899
vn -0.14229 -0.0817016 0.986447
vn -0.138829 -0.0152106 0.9902
vn 0.0238236 0.0772572 0.996727
vn 0.102352 0.111622 0.988466
vn -0.0293683 -0.00299689 0.999564
vn -0.19458 -0.172221 0.965649
vn 0.00127362 0.0203555 0.999792
vn -0.0504067 -0.0336626 0.998161
vn -0.0286352 -0.016986 0.999446
vn 0.0439541 0.0826564 0.995608
vn -0.00970435 0.111538 0.993713
vn -0.0118499 0.00866415 0.999892
vn -0.179832 -0.104793 0.9781
vn -0.0641209 -0.0244958 0.997641
vn -0.00512391 -0.012827 0.999905
vn 0.00799846 -0.00662768 0.999946
vn 0.0185741 0.0129362 0.999744
vn 0.0103604 0.0821475 0.996566
vn -0.0925062 0.0154555 0.995592
vn -0.118764 -0.0379284 0.992198
vn -0.0911936 -0.0462365 0.994759
vn -0.0782462 0.00950991 0.996889
vn 0.00833278 0.0105524 0.99991
vn 0.0114004 -0.0111971 0.999872
vn 0.0162488 -0.012099 0.999795
vn -0.00777446 0.0298676 0.999524
vn -0.00148913 0.00209445 0.999997
vn -0.0211744 -0.0280261 0.999383
vn 0.0174305 -0.0296853 0.999407
vn 0.00520464 -0.00912923 0.999945
vn -0.0206215 0.0166621 0.999649
vn -0.00639112 0.00871379 0.999942
vn 0.00538579 -0.0160793 0.999856
vn -0.00789756 0.0414921 0.999108
vn 0.0129416 0.0497562 0.998678
vn 0.0694969 -0.0109555 0.997522
vn 0.077966 0.00304225 0.996951
vn 0.0883784 -0.0316788 0.995583
vn -0.0180508 0.00273737 0.999833
vn -0.0122186 0.035094 0.999309
vn 0.0158337 0.0198025 0.999678
vn 0.0220973 0.0222461 0.999508
vn 0.0306868 0.0656403 0.997371
vn 0.0387422 0.0605592 0.997413
vn 0.099679 0.0440297 0.994045
vn 0.105354 0.0102112 0.994382
vn -0.0124334 0.0337706 0.999352
vn 0.0299447 0.0431315 0.998621
vn 0.0257166 0.0381538 0.998941
vn 0.0444813 0.0215031 0.998779
vn 0.0355354 0.046017 0.998308
vn -0.0125259 0.069215 0.997523
vn 0.000124649 0.0510275 0.998697
vn 0.0746185 -0.013549 0.99712
f 100/100/100 4/4/4 13/13/13
f 44/44/44 3/3/3 21/21/21
f 44/44/44 19/19/19 20/20/20
f 60/60/60 19/19/19 52/52/52
f 60/60/60 17/17/17 18/18/18
f 76/76/76 17/17/17 68/68/68
f 84/84/84 16/16/16 76/76/76
f 84/84/84 14/14/14 15/15/15
f 100/100/100 14/14/14 92/92/92
f 11/11/11 93/93/93 85/85/85
f 93/93/93 86/86/86 85/85/85
f 94/94/94 87/87/87 86/86/86
f 87/87/87 96/96/96 88/88/88
f 96/96/96 89/89/89 88/88/88
f 97/97/97 90/90/90 89/89/89
f 90/90/90 99/99/99 91/91/91
f 91/91/91 100/100/100 92/92/92
f 10/10/10 85/85/85 77/77/77
f 77/77/77 86/86/86 78/78/78
f 78/78/78 87/87/87 79/79/79
f 79/79/79 88/88/88 80/80/80
f 88/88/88 81/81/81 80/80/80
f 81/81/81 90/90/90 82/82/82
f 82/82/82 91/91/91 83/83/83
f 91/91/91 84/84/84 83/83/83
f 10/10/10 69/69/69 9/9/9
f 69/69/69 78/78/78 70/70/70
f 70/70/70 79/79/79 71/71/71
f 79/79/79 72/72/72 71/71/71
f 72/72/72 81/81/81 73/73/73
f 73/73/73 82/82/82 74/74/74
f 82/82/82 75/75/75 74/74/74
f 83/83/83 76/76/76 75/75/75
f 9/9/9 61/61/61 8/8/8
f 69/69/69 62/62/62 61/61/61
f 62/62/62 71/71/71 63/63/63
f 63/63/63 72/72/72 64/64/64
f 72/72/72 65/65/65 64/64/64
f 65/65/65 74/74/74 66/66/66
f 66/66/66 75/75/75 67/67/67
f 67/67/67 76/76/76 68/68/68
f 8/8/8 53/53/53 7/7/7
f 53/53/53 62/62/62 54/54/54
f 54/54/54 63/63/63 55/55/55
f 55/55/55 64/64/64 56/56/56
f 64/64/64 57/57/57 56/56/56
f 57/57/57 66/66/66 58/58/58
f 58/58/58 67/67/67 59/59/59
f 59/59/59 68/68/68 60/60/60
f 6/6/6 53/53/53 45/45/45
f 45/45/45 54/54/54 46/46/46
f 54/54/54 47/47/47 46/46/46
f 55/55/55 48/48/48 47/47/47
f 56/56/56 49/49/49 48/48/48
f 49/49/49 58/58/58 50/50/50
f 58/58/58 51/51/51 50/50/50
f 59/59/59 52/52/52 51/51/51
f 6/6/6 37/37/37 5/5/5
f 45/45/45 38/38/38 37/37/37
f 46/46/46 39/39/39 38/38/38
f 39/39/39 48/48/48 40/40/40
f 40/40/40 49/49/49 41/41/41
f 41/41/41 50/50/50 42/42/42
f 50/50/50 43/43/43 42/42/42
f 51/51/51 44/44/44 43/43/43
f 5/5/5 28/28/28 1/1/1
f 28/28/28 38/38/38 27/27/27
f 27/27/27 39/39/39 26/26/26
f 26/26/26 40/40/40 25/25/25
f 40/40/40 24/24/24 25/25/25
f 41/41/41 23/23/23 24/24/24
f 23/23/23 43/43/43 22/22/22
f 43/43/43 21/21/21 22/22/22
f 2/2/2 93/93/93 12/12/12
f 93/93/93 30/30/30 94/94/94
f 30/30/30 95/95/95 94/94/94
f 31/31/31 96/96/96 95/95/95
f 32/32/32 97/97/97 96/96/96
f 33/33/33 98/98/98 97/97/97
f 98/98/98 35/35/35 99/99/99
f 99/99/99 36/36/36 100/100/100
f 100/100/100 36/36/36 4/4/4
f 44/44/44 20/20/20 3/3/3
f 44/44/44 52/52/52 19/19/19
f 60/60/60 18/18/18 19/19/19
f 60/60/60 68/68/68 17/17/17
f 76/76/76 16/16/16 17/17/17
f 84/84/84 15/15/15 16/16/16
f 84/84/84 92/92/92 14/14/14
f 100/100/100 13/13/13 14/14/14
f 11/11/11 12/12/12 93/93/93
f 93/93/93 94/94/94 86/86/86
f 94/94/94 95/95/95 87/87/87
f 87/87/87 95/95/95 96/96/96
f 96/96/96 97/97/97 89/89/89
f 97/97/97 98/98/98 90/90/90
f 90/90/90 98/98/98 99/99/99
f 91/91/91 99/99/99 100/100/100
f 10/10/10 11/11/11 85/85/85
f 77/77/77 85/85/85 86/86/86
f 78/78/78 86/86/86 87/87/87
f 79/79/79 87/87/87 88/88/88
f 88/88/88 89/89/89 81/81/81
f 81/81/81 89/89/89 90/90/90
f 82/82/82 90/90/90 91/91/91
f 91/91/91 92/92/92 84/84/84
f 10/10/10 77/77/77 69/69/69
f 69/69/69 77/77/77 78/78/78
f 70/70/70 78/78/78 79/79/79
f 79/79/79 80/80/80 72/72/72
f 72/72/72 80/80/80 81/81/81
f 73/73/73 81/81/81 82/82/82
f 82/82/82 83/83/83 75/75/75
f 83/83/83 84/84/84 76/76/76
f 9/9/9 69/69/69 61/61/61
f 69/69/69 70/70/70 62/62/62
f 62/62/62 70/70/70 71/71/71
f 63/63/63 71/71/71 72/72/72
f 72/72/72 73/73/73 65/65/65
f 65/65/65 73/73/73 74/74/74
f 66/66/66 74/74/74 75/75/75
f 67/67/67 75/75/75 76/76/76
f 8/8/8 61/61/61 53/53/53
f 53/53/53 61/61/61 62/62/62
f 54/54/54 62/62/62 63/63/63
f 55/55/55 63/63/63 64/64/64
f 64/64/64 65/65/65 57/57/57
f 57/57/57 65/65/65 66/66/66
f 58/58/58 66/66/66 67/67/67
f 59/59/59 67/67/67 68/68/68
f 6/6/6 7/7/7 53/53/53
f 45/45/45 53/53/53 54/54/54
f 54/54/54 55/55/55 47/47/47
f 55/55/55 56/56/56 48/48/48
f 56/56/56 57/57/57 49/49/49
f 49/49/49 57/57/57 58/58/58
f 58/58/58 59/59/59 51/51/51
f 59/59/59 60/60/60 52/52/52
f 6/6/6 45/45/45 37/37/37
f 45/45/45 46/46/46 38/38/38
f 46/46/46 47/47/47 39/39/39
f 39/39/39 47/47/47 48/48/48
f 40/40/40 48/48/48 49/49/49
f 41/41/41 49/49/49 50/50/50
f 50/50/50 51/51/51 43/43/43
f 51/51/51 52/52/52 44/44/44
f 5/5/5 37/37/37 28/28/28
f 28/28/28 37/37/37 38/38/38
f 27/27/27 38/38/38 39/39/39
f 26/26/26 39/39/39 40/40/40
f 40/40/40 41/41/41 24/24/24
f 41/41/41 42/42/42 23/23/23
f 23/23/23 42/42/42 43/43/43
f 43/43/43 44/44/44 21/21/21
f 2/2/2 29/29/29 93/93/93
f 93/93/93 29/29/29 30/30/30
f 30/30/30 31/31/31 95/95/95
f 31/31/31 32/32/32 96/96/96
f 32/32/32 33/33/33 97/97/97
f 33/33/33 34/34/34 98/98/98
f 98/98/98 34/34/34 35/35/35
f 99/99/99 35/35/35 36/36/36
