o GNATVCloth
v -4.99674 -4.97167 0.615726
v 5.0505 -4.98473 0.396743
v -5.01298 5.02105 0.004229
v 4.98702 5.02105 0.004229
v -3.89539 -5.00893 0.46751
v -2.78098 -5.03135 0.471487
v -1.66361 -5.05338 0.435366
v -0.542368 -5.07204 0.437768
v 0.580271 -5.07693 0.417121
v 1.70268 -5.07352 0.409656
v 2.82295 -5.04383 0.414117
v 3.93894 -5.01619 0.335646
v 3.87251 4.88962 0.212897
v 2.76896 4.77883 0.423835
v 1.64904 4.72822 0.361445
v 0.532018 4.69266 0.379553
v -0.571705 4.68042 0.571638
v -1.6907 4.7187 0.523161
v -2.81474 4.74935 0.502843
v -3.91196 4.86442 0.2615
v -4.97334 3.90908 0.0874115
v -4.96149 2.79463 0.124155
v -4.96104 1.68091 0.164717
v -4.96253 0.567498 0.196997
v -4.96752 -0.54475 0.239139
v -4.97454 -1.65646 0.284188
v -4.98303 -2.76578 0.351954
v -4.99344 -3.87367 0.439588
v 5.02962 -3.87635 0.323456
v 5.01202 -2.77023 0.205416
v 4.99731 -1.66074 0.173851
v 4.98906 -0.546332 0.178049
v 4.98268 0.566196 0.171936
v 4.97693 1.67913 0.147102
v 4.97389 2.79347 0.125987
v 4.96483 3.90734 0.0711833
v -3.81949 -3.85972 0.41946
v -3.77966 -3.21608 0.34361
v -3.63012 -1.92787 0.27505
v -4.07897 -0.272859 0.207056
v -4.10511 0.743267 0.190838
v -4.09932 1.53039 0.142176
v -4.03606 2.82217 0.0883463
v -3.92837 3.88251 -0.179402
v -2.69521 -4.01932 0.336101
v -2.76345 -2.75035 0.289019
v -2.64157 -2.15711 0.284232
v -2.71178 -0.612467 0.269675
v -2.74176 0.519206 0.227962
v -2.68631 1.544 -0.00412592
v -2.85181 2.85788 -0.276631
v -2.76986 3.49331 0.0203582
v -1.63717 -4.24366 0.377209
v -1.47353 -2.93113 0.41008
v -1.85887 -1.63646 0.383415
v -1.83556 -0.842114 0.31078
v -1.5301 0.58443 -0.182664
v -1.99462 1.63987 -0.293376
v -1.71847 2.66939 -0.109232
v -1.576 3.61217 0.242853
v -0.21663 -4.33292 0.392567
v -0.564061 -2.89735 0.378708
v -0.523701 -1.76461 0.272509
v -0.822091 -0.803083 0.106369
v -0.60318 0.393904 -0.0923905
v -0.372345 1.41085 -0.134924
v -0.573633 2.56187 0.0705344
v -0.755529 3.41015 0.251379
v 0.753376 -3.92073 0.336697
v 0.828314 -2.63275 0.326375
v 0.539382 -1.85616 0.202394
v 0.623164 -0.550447 -0.0824446
v 0.591402 0.359482 -0.0843271
v 0.302518 1.46894 -0.088988
v 0.526156 2.41094 0.0338643
v 0.551977 3.61292 0.339313
v 1.96469 -3.67182 0.303641
v 1.686 -2.86735 0.416628
v 1.82724 -1.93807 0.371517
v 1.98798 -0.428922 0.106398
v 1.98582 0.232766 -0.0772641
v 1.8318 1.49541 -0.138204
v 1.40774 2.75816 -0.0440661
v 1.49434 3.51363 0.292854
v 2.8071 -3.93446 0.297463
v 3.10846 -2.84597 0.293025
v 2.95923 -1.97269 0.397634
v 2.71548 -0.51506 0.269142
v 2.96052 0.273664 0.170154
v 3.08129 1.54797 -0.0899784
v 2.76651 3.11248 -0.199586
v 2.74751 3.43327 -0.0140182
v 3.93282 -3.97534 0.336462
v 3.67135 -2.72332 0.303965
v 3.87781 -1.68281 0.304353
v 3.81231 -0.726546 0.327388
v 3.8677 0.284172 0.284879
v 4.15747 1.79959 0.159992
v 4.13439 2.75253 -0.00329627
v 4.03233 3.86937 -0.150919
vt 0.0001 0.0001
vt 0.9999 0.0001
vt 0.0001 0.9999
vt 0.9999 0.9999
vt 0.111189 0.0001
vt 0.222278 0.0001
vt 0.333367 0.0001
vt 0.444455 0.0001
vt 0.555544 0.0001
vt 0.666633 0.0001
vt 0.777722 0.0001
vt 0.888811 0.0001
vt 0.888811 0.9999
vt 0.777722 0.9999
vt 0.666633 0.9999
vt 0.555544 0.9999
vt 0.444455 0.9999
vt 0.333367 0.9999
vt 0.222278 0.9999
vt 0.111189 0.9999
vt 0.0001 0.888811
vt 0.0001 0.777722
vt 0.0001 0.666633
vt 0.0001 0.555544
vt 0.0001 0.444456
vt 0.0001 0.333367
vt 0.0001 0.222278
vt 0.0001 0.111189
vt 0.9999 0.111189
vt 0.9999 0.222278
vt 0.9999 0.333367
vt 0.9999 0.444456
vt 0.9999 0.555544
vt 0.9999 0.666633
vt 0.9999 0.777722
vt 0.9999 0.888811
vt 0.11727 0.115399
vt 0.120778 0.180369
vt 0.134636 0.309595
vt 0.088728 0.473895
vt 0.085886 0.575352
vt 0.086211 0.65375
vt 0.092207 0.78313
vt 0.106956 0.892282
vt 0.22987 0.102869
vt 0.221803 0.229552
vt 0.233521 0.288953
vt 0.225541 0.443179
vt 0.221596 0.556167
vt 0.227801 0.661237
vt 0.214896 0.795203
vt 0.22542 0.865181
vt 0.335524 0.082127
vt 0.351143 0.213907
vt 0.311934 0.342467
vt 0.313159 0.422214
vt 0.347791 0.572605
vt 0.301482 0.677733
vt 0.329031 0.783086
vt 0.344903 0.885466
vt 0.476837 0.074882
vt 0.441952 0.218774
vt 0.445749 0.333088
vt 0.416414 0.43099
vt 0.439746 0.552976
vt 0.463203 0.656843
vt 0.444252 0.77653
vt 0.426137 0.866051
vt 0.573419 0.117409
vt 0.581125 0.246686
vt 0.552512 0.326
vt 0.561075 0.459693
vt 0.558356 0.550596
vt 0.530299 0.662189
vt 0.553275 0.760113
vt 0.555478 0.888821
vt 0.694433 0.13996
vt 0.667048 0.221666
vt 0.681985 0.314267
vt 0.698218 0.467249
vt 0.696819 0.535952
vt 0.68253 0.662758
vt 0.642062 0.791726
vt 0.648523 0.877957
vt 0.778029 0.111667
vt 0.809426 0.219523
vt 0.794923 0.307783
vt 0.772028 0.454562
vt 0.796846 0.533374
vt 0.807262 0.663157
vt 0.778581 0.821037
vt 0.775122 0.858219
vt 0.890224 0.104741
vt 0.865679 0.23076
vt 0.887326 0.334104
vt 0.881307 0.429754
vt 0.887973 0.53063
vt 0.918106 0.681428
vt 0.915043 0.778027
vt 0.904815 0.89094
vn 0.136929 0.156499 0.97814
vn -0.0245168 0.0325228 0.99917
vn -0.00710629 -0.16582 0.98613
vn -0.0125778 -0.12325 0.992296
vn 0.0504584 0.0799836 0.995518
vn 0.027946 0.0927339 0.995299
vn 0.016339 0.0710987 0.997335
vn 0.00362762 0.0628542 0.998016
vn 0.0182974 0.0620735 0.997904
vn 0.010254 0.079023 0.99682
vn 0.0109448 0.0695503 0.997518
vn 0.00766535 -0.000739599 0.99997
vn 0.208808 -0.29929 0.931034
vn 0.143246 -0.243277 0.959321
vn -0.0176492 -0.0541322 0.998378
vn 0.0785677 -0.0429497 0.995983
vn 0.00642548 -0.191413 0.981489
vn -0.0373576 -0.249032 0.967775
vn -0.168685 -0.341158 0.924747
vn -0.249273 -0.393224 0.885007
vn 0.179097 0.110229 0.977637
vn 0.0376066 0.0348573 0.998685
vn 0.0271856 0.0416951 0.99876
vn 0.00988532 0.0275953 0.99957
vn 0.0241241 0.0390341 0.998947
vn 0.0195787 0.0488377 0.998615
vn 0.0270095 0.0631508 0.997638
vn 0.0514876 0.0981427 0.99384
vn 0.0040404 0.0861336 0.996275
vn 0.0663281 0.0407133 0.996967
vn 0.119211 0.0036682 0.992862
vn 0.115394 0.0127883 0.993238
vn 0.0675091 0.0314648 0.997222
vn 0.0187659 0.0206973 0.99961
vn -0.098433 0.076864 0.992171
vn -0.207699 0.0722719 0.975519
vn 0.0419961 0.086989 0.995324
vn 0.0389419 0.0741092 0.99649
vn 0.00560842 0.0364713 0.999319
vn -0.0045127 0.0316323 0.999489
vn 0.0215938 0.0673528 0.997496
vn 0.0687234 0.0496359 0.9964
vn 0.147334 0.114958 0.982383
vn -0.0420913 -0.1565 0.986781
vn 0.0123402 0.0703524 0.997446
vn -0.0238447 0.0313832 0.999223
vn -0.0697853 0.00689495 0.997538
vn -0.0451007 0.034485 0.998387
vn 0.126359 0.142793 0.981653
vn 0.202504 0.163163 0.965593
vn 0.0482135 -0.0419012 0.997958
vn -0.206031 -0.363091 0.908689
vn -0.000299326 0.0425999 0.999092
vn -0.026442 0.0192018 0.999466
vn 0.0191921 0.0690961 0.997425
vn 0.123885 0.152738 0.980471
vn 0.0928179 0.182216 0.978868
vn 0.0692467 0.0387962 0.996845
vn -0.157036 -0.261406 0.952369
vn -0.0856671 -0.293303 0.952173
vn 0.0159628 0.042081 0.998987
vn 0.0316355 0.0497864 0.998259
vn 0.0779458 0.139246 0.987185
vn 0.102073 0.18208 0.977971
vn -0.021281 0.0739587 0.997034
vn -0.0698793 -0.0504517 0.996279
vn -0.0812601 -0.201014 0.976212
vn -0.0788219 -0.253993 0.963989
vn 0.0120985 0.018109 0.999763
vn -0.0537863 0.0709263 0.99603
vn -0.0148006 0.15854 0.987242
vn -0.0192695 0.154254 0.987843
vn 0.0025991 0.0133708 0.999907
vn -0.0142196 -0.0360925 0.999247
vn 0.0450142 -0.160702 0.985976
vn 0.0489096 -0.205923 0.977345
vn 0.0379244 -0.017051 0.999135
vn 0.00287833 -0.0346196 0.999396
vn -0.101708 0.129731 0.986319
vn -0.170153 0.225833 0.959191
vn -0.127073 0.149085 0.980625
vn 0.0300532 -0.00631752 0.999528
vn 0.126018 -0.232958 0.964287
vn 0.0890888 -0.257602 0.962135
vn -0.00690224 0.0588635 0.998242
vn 0.0219866 -0.0491394 0.99855
vn 0.0328768 -0.00606921 0.999441
vn -0.118687 0.15893 0.98013
vn -0.156038 0.161698 0.974426
vn -0.157732 0.123465 0.979733
vn 0.0718957 -0.177464 0.981498
vn 0.211079 -0.394411 0.894363
vn 0.00116394 0.0439273 0.999034
vn 0.0476622 -0.0184588 0.998693
vn 0.103642 -0.00789116 0.994583
vn 0.0401031 0.0377281 0.998483
vn -0.0336957 0.0831628 0.995966
vn -0.092233 0.0935297 0.991335
vn -0.174723 0.106481 0.978843
vn 0.0440535 -0.163527 0.985555
f 100/100/100 4/4/4 13/13/13
f 44/44/44 3/3/3 21/21/21
f 44/44/44 19/19/19 20/20/20
f 60/60/60 19/19/19 52/52/52
f 60/60/60 17/17/17 18/18/18
f 76/76/76 17/17/17 68/68/68
f 84/84/84 16/16/16 76/76/76
f 84/84/84 14/14/14 15/15/15
f 100/100/100 14/14/14 92/92/92
f 11/11/11 93/93/93 85/85/85
f 93/93/93 86/86/86 85/85/85
f 94/94/94 87/87/87 86/86/86
f 87/87/87 96/96/96 88/88/88
f 96/96/96 89/89/89 88/88/88
f 97/97/97 90/90/90 89/89/89
f 90/90/90 99/99/99 91/91/91
f 91/91/91 100/100/100 92/92/92
f 10/10/10 85/85/85 77/77/77
f 77/77/77 86/86/86 78/78/78
f 78/78/78 87/87/87 79/79/79
f 79/79/79 88/88/88 80/80/80
f 88/88/88 81/81/81 80/80/80
f 81/81/81 90/90/90 82/82/82
f 82/82/82 91/91/91 83/83/83
f 91/91/91 84/84/84 83/83/83
f 10/10/10 69/69/69 9/9/9
f 69/69/69 78/78/78 70/70/70
f 70/70/70 79/79/79 71/71/71
f 79/79/79 72/72/72 71/71/71
f 72/72/72 81/81/81 73/73/73
f 73/73/73 82/82/82 74/74/74
f 82/82/82 75/75/75 74/74/74
f 83/83/83 76/76/76 75/75/75
f 9/9/9 61/61/61 8/8/8
f 69/69/69 62/62/62 61/61/61
f 62/62/62 71/71/71 63/63/63
f 63/63/63 72/72/72 64/64/64
f 72/72/72 65/65/65 64/64/64
f 65/65/65 74/74/74 66/66/66
f 66/66/66 75/75/75 67/67/67
f 67/67/67 76/76/76 68/68/68
f 8/8/8 53/53/53 7/7/7
f 53/53/53 62/62/62 54/54/54
f 54/54/54 63/63/63 55/55/55
f 55/55/55 64/64/64 56/56/56
f 64/64/64 57/57/57 56/56/56
f 57/57/57 66/66/66 58/58/58
f 58/58/58 67/67/67 59/59/59
f 59/59/59 68/68/68 60/60/60
f 6/6/6 53/53/53 45/45/45
f 45/45/45 54/54/54 46/46/46
f 54/54/54 47/47/47 46/46/46
f 55/55/55 48/48/48 47/47/47
f 56/56/56 49/49/49 48/48/48
f 49/49/49 58/58/58 50/50/50
f 58/58/58 51/51/51 50/50/50
f 59/59/59 52/52/52 51/51/51
f 6/6/6 37/37/37 5/5/5
f 45/45/45 38/38/38 37/37/37
f 46/46/46 39/39/39 38/38/38
f 39/39/39 48/48/48 40/40/40
f 40/40/40 49/49/49 41/41/41
f 41/41/41 50/50/50 42/42/42
f 50/50/50 43/43/43 42/42/42
f 51/51/51 44/44/44 43/43/43
f 5/5/5 28/28/28 1/1/1
f 28/28/28 38/38/38 27/27/27
f 27/27/27 39/39/39 26/26/26
f 26/26/26 40/40/40 25/25/25
f 40/40/40 24/24/24 25/25/25
f 41/41/41 23/23/23 24/24/24
f 23/23/23 43/43/43 22/22/22
f 43/43/43 21/21/21 22/22/22
f 2/2/2 93/93/93 12/12/12
f 93/93/93 30/30/30 94/94/94
f 30/30/30 95/95/95 94/94/94
f 31/31/31 96/96/96 95/95/95
f 32/32/32 97/97/97 96/96/96
f 33/33/33 98/98/98 97/97/97
f 98/98/98 35/35/35 99/99/99
f 99/99/99 36/36/36 100/100/100
f 100/100/100 36/36/36 4/4/4
f 44/44/44 20/20/20 3/3/3
f 44/44/44 52/52/52 19/19/19
f 60/60/60 18/18/18 19/19/19
f 60/60/60 68/68/68 17/17/17
f 76/76/76 16/16/16 17/17/17
f 84/84/84 15/15/15 16/16/16
f 84/84/84 92/92/92 14/14/14
f 100/100/100 13/13/13 14/14/14
f 11/11/11 12/12/12 93/93/93
f 93/93/93 94/94/94 86/86/86
f 94/94/94 95/95/95 87/87/87
f 87/87/87 95/95/95 96/96/96
f 96/96/96 97/97/97 89/89/89
f 97/97/97 98/98/98 90/90/90
f 90/90/90 98/98/98 99/99/99
f 91/91/91 99/99/99 100/100/100
f 10/10/10 11/11/11 85/85/85
f 77/77/77 85/85/85 86/86/86
f 78/78/78 86/86/86 87/87/87
f 79/79/79 87/87/87 88/88/88
f 88/88/88 89/89/89 81/81/81
f 81/81/81 89/89/89 90/90/90
f 82/82/82 90/90/90 91/91/91
f 91/91/91 92/92/92 84/84/84
f 10/10/10 77/77/77 69/69/69
f 69/69/69 77/77/77 78/78/78
f 70/70/70 78/78/78 79/79/79
f 79/79/79 80/80/80 72/72/72
f 72/72/72 80/80/80 81/81/81
f 73/73/73 81/81/81 82/82/82
f 82/82/82 83/83/83 75/75/75
f 83/83/83 84/84/84 76/76/76
f 9/9/9 69/69/69 61/61/61
f 69/69/69 70/70/70 62/62/62
f 62/62/62 70/70/70 71/71/71
f 63/63/63 71/71/71 72/72/72
f 72/72/72 73/73/73 65/65/65
f 65/65/65 73/73/73 74/74/74
f 66/66/66 74/74/74 75/75/75
f 67/67/67 75/75/75 76/76/76
f 8/8/8 61/61/61 53/53/53
f 53/53/53 61/61/61 62/62/62
f 54/54/54 62/62/62 63/63/63
f 55/55/55 63/63/63 64/64/64
f 64/64/64 65/65/65 57/57/57
f 57/57/57 65/65/65 66/66/66
f 58/58/58 66/66/66 67/67/67
f 59/59/59 67/67/67 68/68/68
f 6/6/6 7/7/7 53/53/53
f 45/45/45 53/53/53 54/54/54
f 54/54/54 55/55/55 47/47/47
f 55/55/55 56/56/56 48/48/48
f 56/56/56 57/57/57 49/49/49
f 49/49/49 57/57/57 58/58/58
f 58/58/58 59/59/59 51/51/51
f 59/59/59 60/60/60 52/52/52
f 6/6/6 45/45/45 37/37/37
f 45/45/45 46/46/46 38/38/38
f 46/46/46 47/47/47 39/39/39
f 39/39/39 47/47/47 48/48/48
f 40/40/40 48/48/48 49/49/49
f 41/41/41 49/49/49 50/50/50
f 50/50/50 51/51/51 43/43/43
f 51/51/51 52/52/52 44/44/44
f 5/5/5 37/37/37 28/28/28
f 28/28/28 37/37/37 38/38/38
f 27/27/27 38/38/38 39/39/39
f 26/26/26 39/39/39 40/40/40
f 40/40/40 41/41/41 24/24/24
f 41/41/41 42/42/42 23/23/23
f 23/23/23 42/42/42 43/43/43
f 43/43/43 44/44/44 21/21/21
f 2/2/2 29/29/29 93/93/93
f 93/93/93 29/29/29 30/30/30
f 30/30/30 31/31/31 95/95/95
f 31/31/31 32/32/32 96/96/96
f 32/32/32 33/33/33 97/97/97
f 33/33/33 34/34/34 98/98/98
f 98/98/98 34/34/34 35/35/35
f 99/99/99 35/35/35 36/36/36
