o GNATVCloth
v -4.99715 -5.00464 0.0831927
v 5.06142 -5.00702 0.0787642
v -5.01298 5.02105 0.004229
v 4.98702 5.02105 0.004229
v -3.88451 -5.03632 0.066263
v -2.76543 -5.06842 0.0448575
v -1.64398 -5.05981 0.0563321
v -0.530286 -5.05705 0.0576708
v 0.585549 -5.07218 0.0134687
v 1.7041 -5.07985 0.0380935
v 2.82569 -5.06771 0.0592411
v 3.94527 -5.03703 0.0849155
v 3.86606 4.9522 0.0705335
v 2.77426 4.88293 0.0474638
v 1.69425 4.8801 0.0706256
v 0.58247 4.88104 0.0572501
v -0.526079 4.87509 0.0365396
v -1.63658 4.88761 0.0829173
v -2.75357 4.92196 0.0458832
v -3.87686 4.96358 0.0642504
v -4.99605 3.90523 0.0444148
v -4.98567 2.78894 0.0614778
v -4.98062 1.67331 0.0583568
v -4.96883 0.558179 0.0632689
v -4.96446 -0.555974 0.0721028
v -4.96636 -1.66918 0.0634353
v -4.97003 -2.78145 0.0563502
v -4.97808 -3.89224 0.0525427
v 5.03968 -3.89515 0.0809563
v 5.03294 -2.78392 0.040863
v 5.03205 -1.6711 0.0451119
v 5.03172 -0.557884 0.0592703
v 5.03033 0.556608 0.0706651
v 5.02599 1.6723 0.0691283
v 5.01849 2.7886 0.0585815
v 5.00547 3.90497 0.0372822
v -3.80901 -3.88373 0.0522284
v -3.76999 -3.23518 0.0410154
v -3.63384 -1.94836 0.0264309
v -4.09525 -0.289029 0.0337917
v -4.12592 0.72674 0.0353033
v -4.12281 1.51074 0.0512535
v -4.06979 2.80629 0.0377929
v -3.92244 3.89194 0.0315539
v -2.68117 -4.04156 0.0454566
v -2.75964 -2.77379 0.0457022
v -2.64356 -2.18314 0.0390508
v -2.72606 -0.639686 0.0423537
v -2.7675 0.492324 0.0362186
v -2.70572 1.54168 0.0389975
v -2.83607 2.88452 0.0404228
v -2.73027 3.57878 0.0425387
v -1.6226 -4.26476 0.0310074
v -1.46919 -2.95231 0.0248712
v -1.861 -1.66687 0.0537424
v -1.84871 -0.87001 0.0543813
v -1.50337 0.628118 0.0397016
v -1.96701 1.68384 0.036348
v -1.69112 2.72877 0.037932
v -1.52961 3.74706 0.0361787
v -0.204457 -4.33807 0.0417999
v -0.559714 -2.90281 0.033116
v -0.522747 -1.76672 0.039328
v -0.815422 -0.79164 0.0380481
v -0.581868 0.425118 0.0398978
v -0.34641 1.45875 0.0417563
v -0.534724 2.65337 0.0378143
v -0.715458 3.54752 0.0448896
v 0.76254 -3.90957 0.0308816
v 0.835743 -2.62067 0.0500638
v 0.546963 -1.84354 0.0530287
v 0.633487 -0.506282 0.0273781
v 0.607365 0.396849 0.0423347
v 0.327356 1.51033 0.0459126
v 0.558515 2.48984 0.0460946
v 0.581927 3.7745 0.0418794
v 1.97587 -3.68497 0.0492399
v 1.69827 -2.87135 0.040819
v 1.84602 -1.94862 0.0355124
v 2.00934 -0.417619 0.0519663
v 1.9959 0.263388 0.0363887
v 1.85383 1.526 0.0276202
v 1.44805 2.8062 0.0471309
v 1.50806 3.66329 0.0350365
v 2.81634 -3.95347 0.0446315
v 3.12514 -2.869 0.0455821
v 2.97891 -1.99138 0.0336224
v 2.75007 -0.530115 0.0380539
v 2.99863 0.265851 0.0431561
v 3.10477 1.56142 0.0320273
v 2.81069 3.12596 0.0380507
v 2.77322 3.496 0.0570996
v 3.94311 -3.993 0.0289725
v 3.68842 -2.74205 0.0544559
v 3.90449 -1.70104 0.0485703
v 3.84461 -0.746495 0.0270517
v 3.91221 0.266301 0.0423532
v 4.21409 1.7865 0.0393289
v 4.17463 2.75232 0.0398387
v 4.05483 3.87474 0.034745
vt 0.0001 0.0001
vt 0.9999 0.0001
vt 0.0001 0.9999
vt 0.9999 0.9999
vt 0.111189 0.0001
vt 0.222278 0.0001
vt 0.333367 0.0001
vt 0.444455 0.0001
vt 0.555544 0.0001
vt 0.666633 0.0001
vt 0.777722 0.0001
vt 0.888811 0.0001
vt 0.888811 0.9999
vt 0.777722 0.9999
vt 0.666633 0.9999
vt 0.555544 0.9999
vt 0.444455 0.9999
vt 0.333367 0.9999
vt 0.222278 0.9999
vt 0.111189 0.9999
vt 0.0001 0.888811
vt 0.0001 0.777722
vt 0.0001 0.666633
vt 0.0001 0.555544
vt 0.0001 0.444456
vt 0.0001 0.333367
vt 0.0001 0.222278
vt 0.0001 0.111189
vt 0.9999 0.111189
vt 0.9999 0.222278
vt 0.9999 0.333367
vt 0.9999 0.444456
vt 0.9999 0.555544
vt 0.9999 0.666633
vt 0.9999 0.777722
vt 0.9999 0.888811
vt 0.11727 0.115399
vt 0.120778 0.180369
vt 0.134636 0.309595
vt 0.088728 0.473895
vt 0.085886 0.575352
vt 0.086211 0.65375
vt 0.092207 0.78313
vt 0.106956 0.892282
vt 0.22987 0.102869
vt 0.221803 0.229552
vt 0.233521 0.288953
vt 0.225541 0.443179
vt 0.221596 0.556167
vt 0.227801 0.661237
vt 0.214896 0.795203
vt 0.22542 0.865181
vt 0.335524 0.082127
vt 0.351143 0.213907
vt 0.311934 0.342467
vt 0.313159 0.422214
vt 0.347791 0.572605
vt 0.301482 0.677733
vt 0.329031 0.783086
vt 0.344903 0.885466
vt 0.476837 0.074882
vt 0.441952 0.218774
vt 0.445749 0.333088
vt 0.416414 0.43099
vt 0.439746 0.552976
vt 0.463203 0.656843
vt 0.444252 0.77653
vt 0.426137 0.866051
vt 0.573419 0.117409
vt 0.581125 0.246686
vt 0.552512 0.326
vt 0.561075 0.459693
vt 0.558356 0.550596
vt 0.530299 0.662189
vt 0.553275 0.760113
vt 0.555478 0.888821
vt 0.694433 0.13996
vt 0.667048 0.221666
vt 0.681985 0.314267
vt 0.698218 0.467249
vt 0.696819 0.535952
vt 0.68253 0.662758
vt 0.642062 0.791726
vt 0.648523 0.877957
vt 0.778029 0.111667
vt 0.809426 0.219523
vt 0.794923 0.307783
vt 0.772028 0.454562
vt 0.796846 0.533374
vt 0.807262 0.663157
vt 0.778581 0.821037
vt 0.775122 0.858219
vt 0.890224 0.104741
vt 0.865679 0.23076
vt 0.887326 0.334104
vt 0.881307 0.429754
vt 0.887973 0.53063
vt 0.918106 0.681428
vt 0.915043 0.778027
vt 0.904815 0.89094
vn 0.0159845 0.0272653 0.9995
vn -0.021531 0.0253308 0.999447
vn -0.0208909 0.00401761 0.999774
vn 0.0284267 0.00349316 0.99959
vn 0.0118675 0.0167776 0.999789
vn 0.00702956 0.0100711 0.999925
vn -0.00587651 0.0319938 0.999471
vn 0.0106824 0.020304 0.999737
vn 0.0122605 -0.00847468 0.999889
vn -0.0131212 -0.00310542 0.999909
vn -0.009666 0.0265485 0.999601
vn -0.0101473 0.0534834 0.998517
vn 0.0208243 -0.0295454 0.999346
vn 0.000398142 -0.0137813 0.999905
vn 0.00473387 -0.0299586 0.99954
vn -0.00831121 -0.0183883 0.999796
vn 0.00377188 -0.00931876 0.99995
vn 0.00341264 -0.0406246 0.999169
vn -0.00589039 -0.0200916 0.999781
vn -0.0194956 -0.0296622 0.99937
vn 0.0166692 0.0186042 0.999688
vn 0.0257295 0.00641867 0.999648
vn 0.0181785 -0.00208058 0.999833
vn 0.0356742 0.0041149 0.999355
vn 0.0439985 0.000113983 0.999032
vn 0.0337809 -0.00360804 0.999423
vn 0.0180883 -0.000123082 0.999836
vn 0.00694015 0.0133003 0.999887
vn -0.0488074 0.0164104 0.998673
vn -0.00689848 0.00425114 0.999967
vn -0.00649343 0.00205224 0.999977
vn -0.024252 -0.0121347 0.999632
vn -0.0287974 -0.000539606 0.999585
vn -0.0359447 0.00521925 0.99934
vn -0.0268471 0.00885838 0.9996
vn -0.00980781 0.0175297 0.999798
vn 0.00679354 0.011213 0.999914
vn 0.00360245 0.00868447 0.999956
vn 0.00428514 0.00324323 0.999986
vn 0.0194244 4.39973e-05 0.999811
vn 0.0128227 -0.00676308 0.999895
vn 0.00802866 -0.00517981 0.999954
vn 0.0110744 0.00597114 0.999921
vn -0.00522807 -0.00245138 0.999983
vn 0.00893571 0.0028994 0.999956
vn 0.00182425 0.00675903 0.999976
vn -0.00517617 -0.00166555 0.999985
vn -0.0115537 -0.000487346 0.999933
vn -0.00315556 0.00225576 0.999992
vn 0.00370241 -0.00296127 0.999989
vn -0.0011418 -0.000463454 0.999999
vn -0.00140276 -0.00180867 0.999997
vn -0.00103804 0.0143221 0.999897
vn 0.00508817 -0.00439996 0.999977
vn 0.000397216 -0.00718385 0.999974
vn 0.000208766 0.00405886 0.999992
vn 0.000713157 0.0029295 0.999995
vn 0.000111999 -8.44123e-05 1
vn -0.000252075 -0.00177504 0.999998
vn -0.000186267 -0.0119788 0.999928
vn 0.0105833 0.00466455 0.999933
vn -0.007255 -0.00205146 0.999972
vn -0.00103269 -0.000325259 0.999999
vn 0.00941336 0.00145408 0.999955
vn -0.000643615 -0.00448578 0.99999
vn -0.00437739 0.00100703 0.99999
vn -0.00234956 -0.00138358 0.999996
vn -0.00286628 0.000353307 0.999996
vn -0.00403714 -0.00735586 0.999965
vn 0.00237813 -0.00645087 0.999976
vn -0.00131732 0.00531455 0.999985
vn -0.00226309 0.00235939 0.999995
vn 0.00302086 -0.00591081 0.999978
vn 0.00189094 -0.00121555 0.999997
vn -0.00118215 -0.00114406 0.999999
vn -0.00120855 -0.0012338 0.999999
vn -0.00520379 -0.000381958 0.999986
vn -0.00045736 0.00353673 0.999994
vn 0.00619906 0.000644944 0.999981
vn 0.000644633 0.00608723 0.999981
vn -0.000931074 0.00688375 0.999976
vn 0.00503624 -0.0028456 0.999983
vn 0.00468452 0.000885806 0.999989
vn -0.00192196 -0.0133433 0.999909
vn 0.00332521 0.00212634 0.999992
vn -0.00283781 0.00055284 0.999996
vn -0.00717752 0.00793817 0.999943
vn 0.00867367 -0.00113908 0.999962
vn -0.000695035 -0.00216061 0.999997
vn -0.0041707 0.00257534 0.999988
vn 0.00201516 -0.0149611 0.999886
vn 0.00150016 -0.022057 0.999756
vn -0.0113755 0.0134162 0.999845
vn -0.00564572 -0.00344025 0.999978
vn -0.00521633 0.0106303 0.99993
vn -0.00735722 -0.00114622 0.999972
vn -0.013401 -0.00325038 0.999905
vn -0.0224959 0.0031747 0.999742
vn -0.00949109 0.00350537 0.999949
vn 0.0117473 -0.0088604 0.999892
f 100/100/100 4/4/4 13/13/13
f 44/44/44 3/3/3 21/21/21
f 44/44/44 19/19/19 20/20/20
f 60/60/60 19/19/19 52/52/52
f 60/60/60 17/17/17 18/18/18
f 76/76/76 17/17/17 68/68/68
f 84/84/84 16/16/16 76/76/76
f 84/84/84 14/14/14 15/15/15
f 100/100/100 14/14/14 92/92/92
f 11/11/11 93/93/93 85/85/85
f 93/93/93 86/86/86 85/85/85
f 94/94/94 87/87/87 86/86/86
f 87/87/87 96/96/96 88/88/88
f 96/96/96 89/89/89 88/88/88
f 97/97/97 90/90/90 89/89/89
f 90/90/90 99/99/99 91/91/91
f 91/91/91 100/100/100 92/92/92
f 10/10/10 85/85/85 77/77/77
f 77/77/77 86/86/86 78/78/78
f 78/78/78 87/87/87 79/79/79
f 79/79/79 88/88/88 80/80/80
f 88/88/88 81/81/81 80/80/80
f 81/81/81 90/90/90 82/82/82
f 82/82/82 91/91/91 83/83/83
f 91/91/91 84/84/84 83/83/83
f 10/10/10 69/69/69 9/9/9
f 69/69/69 78/78/78 70/70/70
f 70/70/70 79/79/79 71/71/71
f 79/79/79 72/72/72 71/71/71
f 72/72/72 81/81/81 73/73/73
f 73/73/73 82/82/82 74/74/74
f 82/82/82 75/75/75 74/74/74
f 83/83/83 76/76/76 75/75/75
f 9/9/9 61/61/61 8/8/8
f 69/69/69 62/62/62 61/61/61
f 62/62/62 71/71/71 63/63/63
f 63/63/63 72/72/72 64/64/64
f 72/72/72 65/65/65 64/64/64
f 65/65/65 74/74/74 66/66/66
f 66/66/66 75/75/75 67/67/67
f 67/67/67 76/76/76 68/68/68
f 8/8/8 53/53/53 7/7/7
f 53/53/53 62/62/62 54/54/54
f 54/54/54 63/63/63 55/55/55
f 55/55/55 64/64/64 56/56/56
f 64/64/64 57/57/57 56/56/56
f 57/57/57 66/66/66 58/58/58
f 58/58/58 67/67/67 59/59/59
f 59/59/59 68/68/68 60/60/60
f 6/6/6 53/53/53 45/45/45
f 45/45/45 54/54/54 46/46/46
f 54/54/54 47/47/47 46/46/46
f 55/55/55 48/48/48 47/47/47
f 56/56/56 49/49/49 48/48/48
f 49/49/49 58/58/58 50/50/50
f 58/58/58 51/51/51 50/50/50
f 59/59/59 52/52/52 51/51/51
f 6/6/6 37/37/37 5/5/5
f 45/45/45 38/38/38 37/37/37
f 46/46/46 39/39/39 38/38/38
f 39/39/39 48/48/48 40/40/40
f 40/40/40 49/49/49 41/41/41
f 41/41/41 50/50/50 42/42/42
f 50/50/50 43/43/43 42/42/42
f 51/51/51 44/44/44 43/43/43
f 5/5/5 28/28/28 1/1/1
f 28/28/28 38/38/38 27/27/27
f 27/27/27 39/39/39 26/26/26
f 26/26/26 40/40/40 25/25/25
f 40/40/40 24/24/24 25/25/25
f 41/41/41 23/23/23 24/24/24
f 23/23/23 43/43/43 22/22/22
f 43/43/43 21/21/21 22/22/22
f 2/2/2 93/93/93 12/12/12
f 93/93/93 30/30/30 94/94/94
f 30/30/30 95/95/95 94/94/94
f 31/31/31 96/96/96 95/95/95
f 32/32/32 97/97/97 96/96/96
f 33/33/33 98/98/98 97/97/97
f 98/98/98 35/35/35 99/99/99
f 99/99/99 36/36/36 100/100/100
f 100/100/100 36/36/36 4/4/4
f 44/44/44 20/20/20 3/3/3
f 44/44/44 52/52/52 19/19/19
f 60/60/60 18/18/18 19/19/19
f 60/60/60 68/68/68 17/17/17
f 76/76/76 16/16/16 17/17/17
f 84/84/84 15/15/15 16/16/16
f 84/84/84 92/92/92 14/14/14
f 100/100/100 13/13/13 14/14/14
f 11/11/11 12/12/12 93/93/93
f 93/93/93 94/94/94 86/86/86
f 94/94/94 95/95/95 87/87/87
f 87/87/87 95/95/95 96/96/96
f 96/96/96 97/97/97 89/89/89
f 97/97/97 98/98/98 90/90/90
f 90/90/90 98/98/98 99/99/99
f 91/91/91 99/99/99 100/100/100
f 10/10/10 11/11/11 85/85/85
f 77/77/77 85/85/85 86/86/86
f 78/78/78 86/86/86 87/87/87
f 79/79/79 87/87/87 88/88/88
f 88/88/88 89/89/89 81/81/81
f 81/81/81 89/89/89 90/90/90
f 82/82/82 90/90/90 91/91/91
f 91/91/91 92/92/92 84/84/84
f 10/10/10 77/77/77 69/69/69
f 69/69/69 77/77/77 78/78/78
f 70/70/70 78/78/78 79/79/79
f 79/79/79 80/80/80 72/72/72
f 72/72/72 80/80/80 81/81/81
f 73/73/73 81/81/81 82/82/82
f 82/82/82 83/83/83 75/75/75
f 83/83/83 84/84/84 76/76/76
f 9/9/9 69/69/69 61/61/61
f 69/69/69 70/70/70 62/62/62
f 62/62/62 70/70/70 71/71/71
f 63/63/63 71/71/71 72/72/72
f 72/72/72 73/73/73 65/65/65
f 65/65/65 73/73/73 74/74/74
f 66/66/66 74/74/74 75/75/75
f 67/67/67 75/75/75 76/76/76
f 8/8/8 61/61/61 53/53/53
f 53/53/53 61/61/61 62/62/62
f 54/54/54 62/62/62 63/63/63
f 55/55/55 63/63/63 64/64/64
f 64/64/64 65/65/65 57/57/57
f 57/57/57 65/65/65 66/66/66
f 58/58/58 66/66/66 67/67/67
f 59/59/59 67/67/67 68/68/68
f 6/6/6 7/7/7 53/53/53
f 45/45/45 53/53/53 54/54/54
f 54/54/54 55/55/55 47/47/47
f 55/55/55 56/56/56 48/48/48
f 56/56/56 57/57/57 49/49/49
f 49/49/49 57/57/57 58/58/58
f 58/58/58 59/59/59 51/51/51
f 59/59/59 60/60/60 52/52/52
f 6/6/6 45/45/45 37/37/37
f 45/45/45 46/46/46 38/38/38
f 46/46/46 47/47/47 39/39/39
f 39/39/39 47/47/47 48/48/48
f 40/40/40 48/48/48 49/49/49
f 41/41/41 49/49/49 50/50/50
f 50/50/50 51/51/51 43/43/43
f 51/51/51 52/52/52 44/44/44
f 5/5/5 37/37/37 28/28/28
f 28/28/28 37/37/37 38/38/38
f 27/27/27 38/38/38 39/39/39
f 26/26/26 39/39/39 40/40/40
f 40/40/40 41/41/41 24/24/24
f 41/41/41 42/42/42 23/23/23
f 23/23/23 42/42/42 43/43/43
f 43/43/43 44/44/44 21/21/21
f 2/2/2 29/29/29 93/93/93
f 93/93/93 29/29/29 30/30/30
f 30/30/30 31/31/31 95/95/95
f 31/31/31 32/32/32 96/96/96
f 32/32/32 33/33/33 97/97/97
f 33/33/33 34/34/34 98/98/98
f 98/98/98 34/34/34 35/35/35
f 99/99/99 35/35/35 36/36/36
