o GNATVCloth
v -4.89899 -4.99702 0.326445
v 5.1692 -4.99145 0.353768
v -5.01298 5.02105 0.004229
v 4.98702 5.02105 0.004229
v -3.78889 -5.01555 0.275655
v -2.67297 -5.03246 0.260893
v -1.55357 -5.05213 0.197395
v -0.430042 -5.0651 0.181429
v 0.694091 -5.06923 0.217455
v 1.81655 -5.06685 0.204607
v 2.9383 -5.05098 0.196691
v 4.0569 -5.02021 0.258058
v 3.86324 4.94618 0.0568762
v 2.75744 4.86628 0.211273
v 1.64591 4.77755 0.290706
v 0.630538 4.74188 0.251255
v -0.490267 4.80353 0.234196
v -1.60739 4.87649 0.166332
v -2.73625 4.94098 0.138949
v -3.87001 4.97738 0.0887044
v -4.97817 3.90553 0.0370719
v -4.96151 2.78998 0.0676749
v -4.95001 1.67512 0.102336
v -4.94072 0.560623 0.139076
v -4.92846 -0.552602 0.191057
v -4.91388 -1.66414 0.256084
v -4.89895 -2.77573 0.304362
v -4.89413 -3.88777 0.31358
v 5.15029 -3.88197 0.267822
v 5.13182 -2.77007 0.260279
v 5.11365 -1.65903 0.236283
v 5.10081 -0.54798 0.176705
v 5.08637 0.563739 0.123259
v 5.06816 1.67733 0.0832985
v 5.04413 2.79164 0.0516761
v 5.01583 3.90631 0.0284187
v -3.72317 -3.86707 0.230673
v -3.68954 -3.21808 0.227011
v -3.56732 -1.93005 0.161295
v -4.04517 -0.276943 0.159061
v -4.08362 0.742094 0.150454
v -4.08694 1.52663 0.123931
v -4.03944 2.82 0.0819419
v -3.9019 3.90679 0.00735352
v -2.59342 -4.01345 0.190799
v -2.68214 -2.74492 0.158733
v -2.57082 -2.15337 0.122478
v -2.67056 -0.611163 0.229044
v -2.72198 0.519597 0.220445
v -2.67036 1.56857 0.172977
v -2.80837 2.90668 0.0496478
v -2.72247 3.59364 0.1858
v -1.52951 -4.23667 0.196381
v -1.38092 -2.92411 0.181907
v -1.79318 -1.63365 0.245188
v -1.78843 -0.836435 0.225957
v -1.45526 0.658266 0.150906
v -1.93407 1.71148 0.14746
v -1.67489 2.75993 0.210449
v -1.52053 3.76305 0.198836
v -0.105199 -4.32005 0.168708
v -0.467519 -2.88325 0.175717
v -0.445359 -1.74062 0.209984
v -0.753267 -0.764112 0.176462
v -0.531611 0.455739 0.172744
v -0.306557 1.49349 0.197251
v -0.51427 2.69109 0.207534
v -0.703804 3.54726 0.191699
v 0.863845 -3.89497 0.197482
v 0.928481 -2.60526 0.172173
v 0.628572 -1.81244 0.182226
v 0.694843 -0.475504 0.165145
v 0.659707 0.429751 0.18806
v 0.366008 1.54309 0.198525
v 0.585013 2.52223 0.19663
v 0.600118 3.73096 0.181904
v 2.08064 -3.66653 0.192846
v 1.79495 -2.85667 0.17012
v 1.93314 -1.93123 0.199622
v 2.07297 -0.40207 0.187358
v 2.0508 0.284169 0.163836
v 1.8955 1.54477 0.132029
v 1.47635 2.83008 0.22807
v 1.53182 3.61219 0.178628
v 2.92571 -3.93476 0.182429
v 3.22292 -2.85232 0.241017
v 3.0679 -1.97765 0.138402
v 2.81619 -0.516221 0.234547
v 3.05561 0.276819 0.214415
v 3.14713 1.56981 0.147842
v 2.84264 3.13529 0.160856
v 2.79762 3.47966 0.223211
v 4.05546 -3.97865 0.185944
v 3.78518 -2.72678 0.255716
v 3.98587 -1.68797 0.231496
v 3.91456 -0.735835 0.173308
v 3.96998 0.273389 0.170243
v 4.24999 1.79016 0.134551
v 4.20133 2.75433 0.094977
v 4.07045 3.87631 0.0543471
vt 0.0001 0.0001
vt 0.9999 0.0001
vt 0.0001 0.9999
vt 0.9999 0.9999
vt 0.111189 0.0001
vt 0.222278 0.0001
vt 0.333367 0.0001
vt 0.444455 0.0001
vt 0.555544 0.0001
vt 0.666633 0.0001
vt 0.777722 0.0001
vt 0.888811 0.0001
vt 0.888811 0.9999
vt 0.777722 0.9999
vt 0.666633 0.9999
vt 0.555544 0.9999
vt 0.444455 0.9999
vt 0.333367 0.9999
vt 0.222278 0.9999
vt 0.111189 0.9999
vt 0.0001 0.888811
vt 0.0001 0.777722
vt 0.0001 0.666633
vt 0.0001 0.555544
vt 0.0001 0.444456
vt 0.0001 0.333367
vt 0.0001 0.222278
vt 0.0001 0.111189
vt 0.9999 0.111189
vt 0.9999 0.222278
vt 0.9999 0.333367
vt 0.9999 0.444456
vt 0.9999 0.555544
vt 0.9999 0.666633
vt 0.9999 0.777722
vt 0.9999 0.888811
vt 0.11727 0.115399
vt 0.120778 0.180369
vt 0.134636 0.309595
vt 0.088728 0.473895
vt 0.085886 0.575352
vt 0.086211 0.65375
vt 0.092207 0.78313
vt 0.106956 0.892282
vt 0.22987 0.102869
vt 0.221803 0.229552
vt 0.233521 0.288953
vt 0.225541 0.443179
vt 0.221596 0.556167
vt 0.227801 0.661237
vt 0.214896 0.795203
vt 0.22542 0.865181
vt 0.335524 0.082127
vt 0.351143 0.213907
vt 0.311934 0.342467
vt 0.313159 0.422214
vt 0.347791 0.572605
vt 0.301482 0.677733
vt 0.329031 0.783086
vt 0.344903 0.885466
vt 0.476837 0.074882
vt 0.441952 0.218774
vt 0.445749 0.333088
vt 0.416414 0.43099
vt 0.439746 0.552976
vt 0.463203 0.656843
vt 0.444252 0.77653
vt 0.426137 0.866051
vt 0.573419 0.117409
vt 0.581125 0.246686
vt 0.552512 0.326
vt 0.561075 0.459693
vt 0.558356 0.550596
vt 0.530299 0.662189
vt 0.553275 0.760113
vt 0.555478 0.888821
vt 0.694433 0.13996
vt 0.667048 0.221666
vt 0.681985 0.314267
vt 0.698218 0.467249
vt 0.696819 0.535952
vt 0.68253 0.662758
vt 0.642062 0.791726
vt 0.648523 0.877957
vt 0.778029 0.111667
vt 0.809426 0.219523
vt 0.794923 0.307783
vt 0.772028 0.454562
vt 0.796846 0.533374
vt 0.807262 0.663157
vt 0.778581 0.821037
vt 0.775122 0.858219
vt 0.890224 0.104741
vt 0.865679 0.23076
vt 0.887326 0.334104
vt 0.881307 0.429754
vt 0.887973 0.53063
vt 0.918106 0.681428
vt 0.915043 0.778027
vt 0.904815 0.89094
vn 0.045892 0.0113839 0.998882
vn -0.0841476 0.0721479 0.993838
vn -0.024436 -0.0215636 0.999469
vn 0.0365309 0.0144979 0.999227
vn 0.0432331 0.0282663 0.998665
vn 0.0307856 0.0427759 0.99861
vn 0.0354308 0.000197381 0.999372
vn 0.000744243 0.0133971 0.99991
vn -0.0200449 0.0230206 0.999534
vn 0.00868623 0.0104755 0.999907
vn -0.0174391 0.0315178 0.999351
vn -0.0719222 0.0687934 0.995035
vn 0.0915425 0.0153759 0.995682
vn 0.0775264 -0.0148424 0.99688
vn 0.0218682 -0.097831 0.994963
vn -0.019848 -0.076138 0.9969
vn -0.0164049 -0.0282881 0.999465
vn -0.0408562 0.0259713 0.998827
vn -0.0565999 0.00517453 0.998384
vn -0.0614195 -0.0738064 0.995379
vn 0.0128954 0.0408271 0.999083
vn -0.0164095 0.0290383 0.999444
vn -0.0187942 0.0326311 0.999291
vn -0.00453448 0.029183 0.999564
vn 0.0197042 0.0527489 0.998413
vn 0.0571698 0.0419811 0.997481
vn 0.0751176 0.0320512 0.996659
vn 0.0633561 0.0142411 0.997889
vn -0.0780807 0.0405873 0.996121
vn -0.0219441 -0.00148207 0.999758
vn -0.00730223 0.0451711 0.998953
vn 0.00491693 0.0350193 0.999375
vn 0.0449187 0.0339428 0.998414
vn 0.06706 0.033311 0.997193
vn 0.0554176 0.0317676 0.997958
vn 0.0343941 0.0279061 0.999019
vn 0.0467734 0.028877 0.998488
vn 0.058783 0.0221999 0.998024
vn 0.0427482 0.018174 0.998921
vn -0.00786181 0.0191456 0.999786
vn -0.0306329 0.0269738 0.999167
vn -0.0274158 0.0335512 0.999061
vn -0.00274124 0.0499471 0.998748
vn -0.0543817 -0.0174671 0.998367
vn 0.020864 0.0336031 0.999217
vn 0.0253404 0.0428949 0.998758
vn -0.0287544 -0.0219909 0.999345
vn -0.0285592 -0.0200118 0.999392
vn -0.00134303 0.0252605 0.99968
vn -0.00880001 0.0576706 0.998297
vn -0.0736676 -0.0187802 0.997106
vn -0.104906 -0.0522622 0.993108
vn 0.0175291 0.0140611 0.999748
vn -0.0130755 -0.00633787 0.999894
vn -0.0167508 -0.0178676 0.9997
vn 0.031346 0.0269432 0.999145
vn 0.0109512 0.0139971 0.999842
vn -0.0164394 0.00787543 0.999834
vn -0.0506615 -0.0357776 0.998075
vn -0.0165114 0.0126918 0.999783
vn -0.0114026 0.0101976 0.999883
vn 0.00517025 -0.00751126 0.999958
vn 0.0186375 -0.00210495 0.999824
vn 0.0178175 0.0251549 0.999525
vn -0.0114703 -0.0118604 0.999864
vn -0.0142458 -0.0119023 0.999828
vn -0.000750317 -0.00501967 0.999987
vn 0.00642747 -0.00420939 0.99997
vn -0.0065022 0.0144871 0.999874
vn -0.00206497 -0.00424446 0.999989
vn 0.00559891 -0.00697212 0.99996
vn -0.0012803 0.00672371 0.999977
vn 0.0104058 -0.00672893 0.999923
vn 0.0143077 -0.00795392 0.999866
vn 0.00231401 -0.0108415 0.999939
vn -0.00331654 -0.00937721 0.999951
vn -0.00780142 -0.000208608 0.99997
vn -0.00785439 0.0157817 0.999845
vn -0.00113326 -0.0155943 0.999878
vn -0.0385584 0.0222898 0.999008
vn -0.0220156 0.0268567 0.999397
vn 0.0192183 -0.0138561 0.999719
vn 0.0120486 0.00074425 0.999927
vn -0.000407682 -0.0456288 0.998958
vn 0.00175964 -0.0148338 0.999888
vn -0.0287301 0.0103522 0.999534
vn -0.0263856 0.0227009 0.999394
vn -0.00281578 -0.00340446 0.99999
vn 0.0108491 0.0303771 0.99948
vn 0.00475487 0.0257624 0.999657
vn 0.0454648 -0.0428392 0.998047
vn 0.0545264 -0.0801949 0.995287
vn -0.0408266 0.00796538 0.999135
vn -0.0372707 0.0123492 0.999229
vn -0.0490988 0.0406839 0.997965
vn 0.00173275 0.0171043 0.999852
vn 0.0280217 0.023107 0.99934
vn 0.0387892 0.0316668 0.998746
vn 0.039819 0.0317308 0.998703
vn 0.0861131 -0.000750697 0.996285
f 100/100/100 4/4/4 13/13/13
f 44/44/44 3/3/3 21/21/21
f 44/44/44 19/19/19 20/20/20
f 60/60/60 19/19/19 52/52/52
f 60/60/60 17/17/17 18/18/18
f 76/76/76 17/17/17 68/68/68
f 84/84/84 16/16/16 76/76/76
f 84/84/84 14/14/14 15/15/15
f 100/100/100 14/14/14 92/92/92
f 11/11/11 93/93/93 85/85/85
f 93/93/93 86/86/86 85/85/85
f 94/94/94 87/87/87 86/86/86
f 87/87/87 96/96/96 88/88/88
f 96/96/96 89/89/89 88/88/88
f 97/97/97 90/90/90 89/89/89
f 90/90/90 99/99/99 91/91/91
f 91/91/91 100/100/100 92/92/92
f 10/10/10 85/85/85 77/77/77
f 77/77/77 86/86/86 78/78/78
f 78/78/78 87/87/87 79/79/79
f 79/79/79 88/88/88 80/80/80
f 88/88/88 81/81/81 80/80/80
f 81/81/81 90/90/90 82/82/82
f 82/82/82 91/91/91 83/83/83
f 91/91/91 84/84/84 83/83/83
f 10/10/10 69/69/69 9/9/9
f 69/69/69 78/78/78 70/70/70
f 70/70/70 79/79/79 71/71/71
f 79/79/79 72/72/72 71/71/71
f 72/72/72 81/81/81 73/73/73
f 73/73/73 82/82/82 74/74/74
f 82/82/82 75/75/75 74/74/74
f 83/83/83 76/76/76 75/75/75
f 9/9/9 61/61/61 8/8/8
f 69/69/69 62/62/62 61/61/61
f 62/62/62 71/71/71 63/63/63
f 63/63/63 72/72/72 64/64/64
f 72/72/72 65/65/65 64/64/64
f 65/65/65 74/74/74 66/66/66
f 66/66/66 75/75/75 67/67/67
f 67/67/67 76/76/76 68/68/68
f 8/8/8 53/53/53 7/7/7
f 53/53/53 62/62/62 54/54/54
f 54/54/54 63/63/63 55/55/55
f 55/55/55 64/64/64 56/56/56
f 64/64/64 57/57/57 56/56/56
f 57/57/57 66/66/66 58/58/58
f 58/58/58 67/67/67 59/59/59
f 59/59/59 68/68/68 60/60/60
f 6/6/6 53/53/53 45/45/45
f 45/45/45 54/54/54 46/46/46
f 54/54/54 47/47/47 46/46/46
f 55/55/55 48/48/48 47/47/47
f 56/56/56 49/49/49 48/48/48
f 49/49/49 58/58/58 50/50/50
f 58/58/58 51/51/51 50/50/50
f 59/59/59 52/52/52 51/51/51
f 6/6/6 37/37/37 5/5/5
f 45/45/45 38/38/38 37/37/37
f 46/46/46 39/39/39 38/38/38
f 39/39/39 48/48/48 40/40/40
f 40/40/40 49/49/49 41/41/41
f 41/41/41 50/50/50 42/42/42
f 50/50/50 43/43/43 42/42/42
f 51/51/51 44/44/44 43/43/43
f 5/5/5 28/28/28 1/1/1
f 28/28/28 38/38/38 27/27/27
f 27/27/27 39/39/39 26/26/26
f 26/26/26 40/40/40 25/25/25
f 40/40/40 24/24/24 25/25/25
f 41/41/41 23/23/23 24/24/24
f 23/23/23 43/43/43 22/22/22
f 43/43/43 21/21/21 22/22/22
f 2/2/2 93/93/93 12/12/12
f 93/93/93 30/30/30 94/94/94
f 30/30/30 95/95/95 94/94/94
f 31/31/31 96/96/96 95/95/95
f 32/32/32 97/97/97 96/96/96
f 33/33/33 98/98/98 97/97/97
f 98/98/98 35/35/35 99/99/99
f 99/99/99 36/36/36 100/100/100
f 100/100/100 36/36/36 4/4/4
f 44/44/44 20/20/20 3/3/3
f 44/44/44 52/52/52 19/19/19
f 60/60/60 18/18/18 19/19/19
f 60/60/60 68/68/68 17/17/17
f 76/76/76 16/16/16 17/17/17
f 84/84/84 15/15/15 16/16/16
f 84/84/84 92/92/92 14/14/14
f 100/100/100 13/13/13 14/14/14
f 11/11/11 12/12/12 93/93/93
f 93/93/93 94/94/94 86/86/86
f 94/94/94 95/95/95 87/87/87
f 87/87/87 95/95/95 96/96/96
f 96/96/96 97/97/97 89/89/89
f 97/97/97 98/98/98 90/90/90
f 90/90/90 98/98/98 99/99/99
f 91/91/91 99/99/99 100/100/100
f 10/10/10 11/11/11 85/85/85
f 77/77/77 85/85/85 86/86/86
f 78/78/78 86/86/86 87/87/87
f 79/79/79 87/87/87 88/88/88
f 88/88/88 89/89/89 81/81/81
f 81/81/81 89/89/89 90/90/90
f 82/82/82 90/90/90 91/91/91
f 91/91/91 92/92/92 84/84/84
f 10/10/10 77/77/77 69/69/69
f 69/69/69 77/77/77 78/78/78
f 70/70/70 78/78/78 79/79/79
f 79/79/79 80/80/80 72/72/72
f 72/72/72 80/80/80 81/81/81
f 73/73/73 81/81/81 82/82/82
f 82/82/82 83/83/83 75/75/75
f 83/83/83 84/84/84 76/76/76
f 9/9/9 69/69/69 61/61/61
f 69/69/69 70/70/70 62/62/62
f 62/62/62 70/70/70 71/71/71
f 63/63/63 71/71/71 72/72/72
f 72/72/72 73/73/73 65/65/65
f 65/65/65 73/73/73 74/74/74
f 66/66/66 74/74/74 75/75/75
f 67/67/67 75/75/75 76/76/76
f 8/8/8 61/61/61 53/53/53
f 53/53/53 61/61/61 62/62/62
f 54/54/54 62/62/62 63/63/63
f 55/55/55 63/63/63 64/64/64
f 64/64/64 65/65/65 57/57/57
f 57/57/57 65/65/65 66/66/66
f 58/58/58 66/66/66 67/67/67
f 59/59/59 67/67/67 68/68/68
f 6/6/6 7/7/7 53/53/53
f 45/45/45 53/53/53 54/54/54
f 54/54/54 55/55/55 47/47/47
f 55/55/55 56/56/56 48/48/48
f 56/56/56 57/57/57 49/49/49
f 49/49/49 57/57/57 58/58/58
f 58/58/58 59/59/59 51/51/51
f 59/59/59 60/60/60 52/52/52
f 6/6/6 45/45/45 37/37/37
f 45/45/45 46/46/46 38/38/38
f 46/46/46 47/47/47 39/39/39
f 39/39/39 47/47/47 48/48/48
f 40/40/40 48/48/48 49/49/49
f 41/41/41 49/49/49 50/50/50
f 50/50/50 51/51/51 43/43/43
f 51/51/51 52/52/52 44/44/44
f 5/5/5 37/37/37 28/28/28
f 28/28/28 37/37/37 38/38/38
f 27/27/27 38/38/38 39/39/39
f 26/26/26 39/39/39 40/40/40
f 40/40/40 41/41/41 24/24/24
f 41/41/41 42/42/42 23/23/23
f 23/23/23 42/42/42 43/43/43
f 43/43/43 44/44/44 21/21/21
f 2/2/2 29/29/29 93/93/93
f 93/93/93 29/29/29 30/30/30
f 30/30/30 31/31/31 95/95/95
f 31/31/31 32/32/32 96/96/96
f 32/32/32 33/33/33 97/97/97
f 33/33/33 34/34/34 98/98/98
f 98/98/98 34/34/34 35/35/35
f 99/99/99 35/35/35 36/36/36
