o GNATVCloth
v -5.02561 -4.95741 0.625272
v 5.05461 -4.98907 0.34124
v -5.01298 5.02105 0.004229
v 4.98702 5.02105 0.004229
v -3.93386 -5.022 0.40814
v -2.81438 -5.06778 0.423719
v -1.6894 -5.09802 0.419136
v -0.561499 -5.12678 0.376597
v 0.568785 -5.12772 0.342732
v 1.69622 -5.10243 0.318222
v 2.8193 -5.06037 0.326737
v 3.93941 -5.02435 0.329767
v 3.87705 4.86131 0.223559
v 2.77053 4.74918 0.416634
v 1.65189 4.69573 0.489011
v 0.535482 4.65172 0.554361
v -0.576416 4.60825 0.635297
v -1.68731 4.66785 0.518451
v -2.804 4.72603 0.423476
v -3.90466 4.84716 0.221282
v -4.97354 3.90871 0.0938712
v -4.96001 2.79353 0.127649
v -4.96257 1.67919 0.168144
v -4.96396 0.564587 0.165871
v -4.97505 -0.548041 0.207207
v -4.98841 -1.65985 0.25802
v -5.00336 -2.76965 0.320649
v -5.02188 -3.87983 0.380656
v 5.0267 -3.88208 0.265365
v 5.00243 -2.77139 0.210386
v 4.98116 -1.6606 0.170883
v 4.96632 -0.547473 0.158838
v 4.96062 0.564997 0.152551
v 4.95795 1.67823 0.138777
v 4.96264 2.79313 0.137862
v 4.9603 3.90753 0.0830801
v -3.8466 -3.87344 0.405751
v -3.79988 -3.22894 0.375049
v -3.64399 -1.94559 0.252141
v -4.08538 -0.283974 0.22955
v -4.10666 0.733166 0.234747
v -4.09895 1.51895 0.17731
v -4.03388 2.81188 0.0903535
v -3.93984 3.86056 -0.211767
v -2.71773 -4.04548 0.357653
v -2.77937 -2.77693 0.277558
v -2.65512 -2.18639 0.280191
v -2.71767 -0.639627 0.247198
v -2.74142 0.492332 0.205143
v -2.68624 1.52018 -0.0135105
v -2.86436 2.82465 -0.323455
v -2.76869 3.47496 -0.0738845
v -1.65714 -4.28799 0.396453
v -1.48335 -2.97364 0.386921
v -1.86316 -1.67951 0.332534
v -1.84315 -0.891756 0.204689
v -1.53879 0.549281 -0.226092
v -2.00964 1.60435 -0.340784
v -1.74136 2.62155 -0.0972325
v -1.57553 3.59487 0.153848
v -0.232785 -4.38228 0.347239
v -0.576168 -2.94951 0.28211
v -0.537571 -1.82083 0.122339
v -0.841045 -0.868298 -0.0834043
v -0.616761 0.329825 -0.315435
v -0.377923 1.36069 -0.308085
v -0.579062 2.53574 -0.10035
v -0.757605 3.38854 0.142276
v 0.739024 -3.95886 0.324428
v 0.817151 -2.66906 0.227136
v 0.531623 -1.90547 0.0261617
v 0.615112 -0.58475 -0.16663
v 0.5807 0.315058 -0.26822
v 0.29796 1.42012 -0.266206
v 0.519658 2.37622 -0.144814
v 0.54643 3.58381 0.275047
v 1.95402 -3.69561 0.315938
v 1.66879 -2.88978 0.385974
v 1.81837 -1.97209 0.251211
v 1.98686 -0.462036 -0.0190999
v 1.97129 0.214364 -0.121615
v 1.83392 1.46368 -0.338518
v 1.40827 2.7198 -0.148097
v 1.4809 3.51753 0.149307
v 2.79966 -3.95176 0.303801
v 3.09673 -2.86257 0.313861
v 2.94334 -1.98843 0.407372
v 2.7066 -0.542745 0.182504
v 2.95051 0.250888 0.113687
v 3.05995 1.54093 -0.0617606
v 2.76928 3.09622 -0.267354
v 2.74332 3.42813 -0.0984389
v 3.93044 -3.98318 0.294276
v 3.6573 -2.73119 0.269631
v 3.86066 -1.69223 0.298837
v 3.79585 -0.736372 0.354175
v 3.84807 0.274846 0.29966
v 4.13933 1.79654 0.195818
v 4.12013 2.74851 0.0299692
v 4.03746 3.85712 -0.17586
vt 0.0001 0.0001
vt 0.9999 0.0001
vt 0.0001 0.9999
vt 0.9999 0.9999
vt 0.111189 0.0001
vt 0.222278 0.0001
vt 0.333367 0.0001
vt 0.444455 0.0001
vt 0.555544 0.0001
vt 0.666633 0.0001
vt 0.777722 0.0001
vt 0.888811 0.0001
vt 0.888811 0.9999
vt 0.777722 0.9999
vt 0.666633 0.9999
vt 0.555544 0.9999
vt 0.444455 0.9999
vt 0.333367 0.9999
vt 0.222278 0.9999
vt 0.111189 0.9999
vt 0.0001 0.888811
vt 0.0001 0.777722
vt 0.0001 0.666633
vt 0.0001 0.555544
vt 0.0001 0.444456
vt 0.0001 0.333367
vt 0.0001 0.222278
vt 0.0001 0.111189
vt 0.9999 0.111189
vt 0.9999 0.222278
vt 0.9999 0.333367
vt 0.9999 0.444456
vt 0.9999 0.555544
vt 0.9999 0.666633
vt 0.9999 0.777722
vt 0.9999 0.888811
vt 0.11727 0.115399
vt 0.120778 0.180369
vt 0.134636 0.309595
vt 0.088728 0.473895
vt 0.085886 0.575352
vt 0.086211 0.65375
vt 0.092207 0.78313
vt 0.106956 0.892282
vt 0.22987 0.102869
vt 0.221803 0.229552
vt 0.233521 0.288953
vt 0.225541 0.443179
vt 0.221596 0.556167
vt 0.227801 0.661237
vt 0.214896 0.795203
vt 0.22542 0.865181
vt 0.335524 0.082127
vt 0.351143 0.213907
vt 0.311934 0.342467
vt 0.313159 0.422214
vt 0.347791 0.572605
vt 0.301482 0.677733
vt 0.329031 0.783086
vt 0.344903 0.885466
vt 0.476837 0.074882
vt 0.441952 0.218774
vt 0.445749 0.333088
vt 0.416414 0.43099
vt 0.439746 0.552976
vt 0.463203 0.656843
vt 0.444252 0.77653
vt 0.426137 0.866051
vt 0.573419 0.117409
vt 0.581125 0.246686
vt 0.552512 0.326
vt 0.561075 0.459693
vt 0.558356 0.550596
vt 0.530299 0.662189
vt 0.553275 0.760113
vt 0.555478 0.888821
vt 0.694433 0.13996
vt 0.667048 0.221666
vt 0.681985 0.314267
vt 0.698218 0.467249
vt 0.696819 0.535952
vt 0.68253 0.662758
vt 0.642062 0.791726
vt 0.648523 0.877957
vt 0.778029 0.111667
vt 0.809426 0.219523
vt 0.794923 0.307783
vt 0.772028 0.454562
vt 0.796846 0.533374
vt 0.807262 0.663157
vt 0.778581 0.821037
vt 0.775122 0.858219
vt 0.890224 0.104741
vt 0.865679 0.23076
vt 0.887326 0.334104
vt 0.881307 0.429754
vt 0.887973 0.53063
vt 0.918106 0.681428
vt 0.915043 0.778027
vt 0.904815 0.89094
vn 0.202737 0.216107 0.955089
vn 0.0042998 0.0514321 0.998667
vn 0.0273049 -0.158453 0.986989
vn -0.0236797 -0.133968 0.990703
vn 0.0564652 0.075116 0.995575
vn 0.00532635 0.0392676 0.999215
vn 0.0215871 0.027126 0.999399
vn 0.0347941 0.025363 0.999073
vn 0.0230625 0.017258 0.999585
vn 0.00851944 0.00811861 0.999931
vn -0.00104901 0.0251393 0.999683
vn -0.00757688 0.034001 0.999393
vn 0.211613 -0.331847 0.919292
vn 0.150124 -0.336615 0.929598
vn 0.0713488 -0.28588 0.955606
vn 0.0863266 -0.2625 0.961063
vn -0.0386478 -0.330011 0.943186
vn -0.106647 -0.329845 0.937992
vn -0.167673 -0.363318 0.916453
vn -0.221377 -0.385315 0.895837
vn 0.206066 0.121147 0.97101
vn 0.0395528 0.0334645 0.998657
vn -0.00886985 0.0435973 0.99901
vn -0.0649153 0.00959966 0.997845
vn -0.0374741 0.0417741 0.998424
vn -0.00492209 0.0392976 0.999215
vn -0.00543931 0.0689566 0.997605
vn 0.0341319 0.0814956 0.996089
vn 0.0208436 0.0593879 0.998017
vn 0.0555161 0.0201102 0.998255
vn 0.129994 0.000215047 0.991515
vn 0.149845 0.0213944 0.988478
vn 0.106796 0.0212092 0.994055
vn 0.0704466 0.00651914 0.997494
vn -0.0650438 0.0726443 0.995235
vn -0.226571 0.0931834 0.969527
vn 0.00881193 0.0319234 0.999451
vn 0.0194679 0.0664468 0.9976
vn 0.00144793 0.0413662 0.999143
vn -0.0197963 0.0194065 0.999616
vn 0.00940241 0.0561934 0.998376
vn 0.0681 0.0678067 0.995372
vn 0.165452 0.134919 0.976946
vn 0.00148592 -0.138051 0.990424
vn 0.0060823 0.0512451 0.998668
vn -0.0127284 0.0457176 0.998873
vn -0.0578332 0.0143586 0.998223
vn 0.00642557 0.0471309 0.998868
vn 0.172493 0.130009 0.976393
vn 0.24503 0.173623 0.953842
vn 0.0641477 -0.00920382 0.997898
vn -0.197067 -0.319551 0.92685
vn 0.0253376 0.028953 0.99926
vn 0.0174467 0.0460233 0.998788
vn 0.0930355 0.11701 0.988763
vn 0.203331 0.15643 0.966533
vn 0.18946 0.154699 0.969625
vn 0.125208 0.0296585 0.991687
vn -0.118528 -0.244058 0.96249
vn -0.106751 -0.309949 0.944741
vn 0.0250463 0.032686 0.999152
vn 0.0542757 0.0987681 0.993629
vn 0.111458 0.163206 0.980276
vn 0.147629 0.201228 0.968356
vn 0.0173791 0.071947 0.997257
vn -0.0100711 -0.0640205 0.997898
vn -0.0214486 -0.245756 0.969094
vn -0.0476654 -0.30767 0.950298
vn -0.00914106 0.021739 0.999722
vn -0.0899936 0.154678 0.983858
vn -0.027201 0.175718 0.984065
vn -0.0507095 0.156258 0.986414
vn -0.043969 0.0757469 0.996157
vn -0.0112909 -0.0493157 0.998719
vn 0.0317624 -0.203042 0.978655
vn 0.0456348 -0.310726 0.949403
vn 0.0214476 -0.0318678 0.999262
vn -0.0516288 0.0289078 0.998248
vn -0.156448 0.170894 0.972789
vn -0.18465 0.168074 0.968326
vn -0.180282 0.143606 0.973075
vn -0.0398358 0.00297473 0.999202
vn 0.117066 -0.258607 0.958863
vn 0.119066 -0.334849 0.934719
vn 0.00669867 0.00336754 0.999972
vn 0.0487265 -0.0405283 0.99799
vn 0.00276309 0.0201181 0.999794
vn -0.188912 0.14701 0.970928
vn -0.203006 0.129075 0.970633
vn -0.229276 0.128171 0.964886
vn 0.00734084 -0.149045 0.988803
vn 0.167197 -0.399175 0.901501
vn 0.0198798 0.0325938 0.999271
vn 0.0784853 -0.0230069 0.99665
vn 0.107565 -0.0302595 0.993738
vn 0.014369 0.0406146 0.999072
vn -0.0438349 0.0717224 0.996461
vn -0.066791 0.0846488 0.99417
vn -0.194638 0.13252 0.971882
vn 0.0113792 -0.160503 0.98697
f 100/100/100 4/4/4 13/13/13
f 44/44/44 3/3/3 21/21/21
f 44/44/44 19/19/19 20/20/20
f 60/60/60 19/19/19 52/52/52
f 60/60/60 17/17/17 18/18/18
f 76/76/76 17/17/17 68/68/68
f 84/84/84 16/16/16 76/76/76
f 84/84/84 14/14/14 15/15/15
f 100/100/100 14/14/14 92/92/92
f 11/11/11 93/93/93 85/85/85
f 93/93/93 86/86/86 85/85/85
f 94/94/94 87/87/87 86/86/86
f 87/87/87 96/96/96 88/88/88
f 96/96/96 89/89/89 88/88/88
f 97/97/97 90/90/90 89/89/89
f 90/90/90 99/99/99 91/91/91
f 91/91/91 100/100/100 92/92/92
f 10/10/10 85/85/85 77/77/77
f 77/77/77 86/86/86 78/78/78
f 78/78/78 87/87/87 79/79/79
f 79/79/79 88/88/88 80/80/80
f 88/88/88 81/81/81 80/80/80
f 81/81/81 90/90/90 82/82/82
f 82/82/82 91/91/91 83/83/83
f 91/91/91 84/84/84 83/83/83
f 10/10/10 69/69/69 9/9/9
f 69/69/69 78/78/78 70/70/70
f 70/70/70 79/79/79 71/71/71
f 79/79/79 72/72/72 71/71/71
f 72/72/72 81/81/81 73/73/73
f 73/73/73 82/82/82 74/74/74
f 82/82/82 75/75/75 74/74/74
f 83/83/83 76/76/76 75/75/75
f 9/9/9 61/61/61 8/8/8
f 69/69/69 62/62/62 61/61/61
f 62/62/62 71/71/71 63/63/63
f 63/63/63 72/72/72 64/64/64
f 72/72/72 65/65/65 64/64/64
f 65/65/65 74/74/74 66/66/66
f 66/66/66 75/75/75 67/67/67
f 67/67/67 76/76/76 68/68/68
f 8/8/8 53/53/53 7/7/7
f 53/53/53 62/62/62 54/54/54
f 54/54/54 63/63/63 55/55/55
f 55/55/55 64/64/64 56/56/56
f 64/64/64 57/57/57 56/56/56
f 57/57/57 66/66/66 58/58/58
f 58/58/58 67/67/67 59/59/59
f 59/59/59 68/68/68 60/60/60
f 6/6/6 53/53/53 45/45/45
f 45/45/45 54/54/54 46/46/46
f 54/54/54 47/47/47 46/46/46
f 55/55/55 48/48/48 47/47/47
f 56/56/56 49/49/49 48/48/48
f 49/49/49 58/58/58 50/50/50
f 58/58/58 51/51/51 50/50/50
f 59/59/59 52/52/52 51/51/51
f 6/6/6 37/37/37 5/5/5
f 45/45/45 38/38/38 37/37/37
f 46/46/46 39/39/39 38/38/38
f 39/39/39 48/48/48 40/40/40
f 40/40/40 49/49/49 41/41/41
f 41/41/41 50/50/50 42/42/42
f 50/50/50 43/43/43 42/42/42
f 51/51/51 44/44/44 43/43/43
f 5/5/5 28/28/28 1/1/1
f 28/28/28 38/38/38 27/27/27
f 27/27/27 39/39/39 26/26/26
f 26/26/26 40/40/40 25/25/25
f 40/40/40 24/24/24 25/25/25
f 41/41/41 23/23/23 24/24/24
f 23/23/23 43/43/43 22/22/22
f 43/43/43 21/21/21 22/22/22
f 2/2/2 93/93/93 12/12/12
f 93/93/93 30/30/30 94/94/94
f 30/30/30 95/95/95 94/94/94
f 31/31/31 96/96/96 95/95/95
f 32/32/32 97/97/97 96/96/96
f 33/33/33 98/98/98 97/97/97
f 98/98/98 35/35/35 99/99/99
f 99/99/99 36/36/36 100/100/100
f 100/100/100 36/36/36 4/4/4
f 44/44/44 20/20/20 3/3/3
f 44/44/44 52/52/52 19/19/19
f 60/60/60 18/18/18 19/19/19
f 60/60/60 68/68/68 17/17/17
f 76/76/76 16/16/16 17/17/17
f 84/84/84 15/15/15 16/16/16
f 84/84/84 92/92/92 14/14/14
f 100/100/100 13/13/13 14/14/14
f 11/11/11 12/12/12 93/93/93
f 93/93/93 94/94/94 86/86/86
f 94/94/94 95/95/95 87/87/87
f 87/87/87 95/95/95 96/96/96
f 96/96/96 97/97/97 89/89/89
f 97/97/97 98/98/98 90/90/90
f 90/90/90 98/98/98 99/99/99
f 91/91/91 99/99/99 100/100/100
f 10/10/10 11/11/11 85/85/85
f 77/77/77 85/85/85 86/86/86
f 78/78/78 86/86/86 87/87/87
f 79/79/79 87/87/87 88/88/88
f 88/88/88 89/89/89 81/81/81
f 81/81/81 89/89/89 90/90/90
f 82/82/82 90/90/90 91/91/91
f 91/91/91 92/92/92 84/84/84
f 10/10/10 77/77/77 69/69/69
f 69/69/69 77/77/77 78/78/78
f 70/70/70 78/78/78 79/79/79
f 79/79/79 80/80/80 72/72/72
f 72/72/72 80/80/80 81/81/81
f 73/73/73 81/81/81 82/82/82
f 82/82/82 83/83/83 75/75/75
f 83/83/83 84/84/84 76/76/76
f 9/9/9 69/69/69 61/61/61
f 69/69/69 70/70/70 62/62/62
f 62/62/62 70/70/70 71/71/71
f 63/63/63 71/71/71 72/72/72
f 72/72/72 73/73/73 65/65/65
f 65/65/65 73/73/73 74/74/74
f 66/66/66 74/74/74 75/75/75
f 67/67/67 75/75/75 76/76/76
f 8/8/8 61/61/61 53/53/53
f 53/53/53 61/61/61 62/62/62
f 54/54/54 62/62/62 63/63/63
f 55/55/55 63/63/63 64/64/64
f 64/64/64 65/65/65 57/57/57
f 57/57/57 65/65/65 66/66/66
f 58/58/58 66/66/66 67/67/67
f 59/59/59 67/67/67 68/68/68
f 6/6/6 7/7/7 53/53/53
f 45/45/45 53/53/53 54/54/54
f 54/54/54 55/55/55 47/47/47
f 55/55/55 56/56/56 48/48/48
f 56/56/56 57/57/57 49/49/49
f 49/49/49 57/57/57 58/58/58
f 58/58/58 59/59/59 51/51/51
f 59/59/59 60/60/60 52/52/52
f 6/6/6 45/45/45 37/37/37
f 45/45/45 46/46/46 38/38/38
f 46/46/46 47/47/47 39/39/39
f 39/39/39 47/47/47 48/48/48
f 40/40/40 48/48/48 49/49/49
f 41/41/41 49/49/49 50/50/50
f 50/50/50 51/51/51 43/43/43
f 51/51/51 52/52/52 44/44/44
f 5/5/5 37/37/37 28/28/28
f 28/28/28 37/37/37 38/38/38
f 27/27/27 38/38/38 39/39/39
f 26/26/26 39/39/39 40/40/40
f 40/40/40 41/41/41 24/24/24
f 41/41/41 42/42/42 23/23/23
f 23/23/23 42/42/42 43/43/43
f 43/43/43 44/44/44 21/21/21
f 2/2/2 29/29/29 93/93/93
f 93/93/93 29/29/29 30/30/30
f 30/30/30 31/31/31 95/95/95
f 31/31/31 32/32/32 96/96/96
f 32/32/32 33/33/33 97/97/97
f 33/33/33 34/34/34 98/98/98
f 98/98/98 34/34/34 35/35/35
f 99/99/99 35/35/35 36/36/36
