o GNATVCloth
v -5.09737 -4.98457 0.487626
v 5.02986 -4.99764 0.464316
v -5.01298 5.02105 0.004229
v 4.98702 5.02105 0.004229
v -3.98398 -5.03121 0.478286
v -2.86517 -5.08969 0.414195
v -1.73753 -5.12911 0.368368
v -0.606421 -5.1522 0.331557
v 0.528576 -5.15276 0.341881
v 1.66042 -5.1321 0.344017
v 2.78964 -5.09289 0.369693
v 3.91353 -5.05087 0.395022
v 3.84534 4.93938 0.160734
v 2.71766 4.87537 0.321386
v 1.59327 4.80118 0.433323
v 0.470687 4.74285 0.451164
v -0.600568 4.70144 0.357363
v -1.66268 4.74857 0.229499
v -2.7779 4.81842 0.327273
v -3.8904 4.89979 0.167713
v -5.009 3.90724 0.088156
v -5.00919 2.79079 0.104896
v -5.02012 1.67526 0.12178
v -5.03216 0.560574 0.154515
v -5.0372 -0.550857 0.233797
v -5.04376 -1.6613 0.317943
v -5.05191 -2.77029 0.424275
v -5.06323 -3.87561 0.54661
v 5.00593 -3.8874 0.425016
v 4.99433 -2.7843 0.278069
v 4.98795 -1.67139 0.251626
v 4.98401 -0.557793 0.217822
v 4.97745 0.556945 0.187523
v 4.96785 1.67271 0.151665
v 4.96202 2.78879 0.110506
v 4.96087 3.9045 0.0504958
v -3.894 -3.88162 0.440354
v -3.85348 -3.23954 0.34686
v -3.70732 -1.965 0.155528
v -4.15141 -0.298449 0.128506
v -4.17171 0.718054 0.163924
v -4.15828 1.50285 0.173116
v -4.08646 2.79559 0.185532
v -3.94548 3.85213 -0.070488
v -2.77033 -4.06983 0.319081
v -2.83598 -2.80263 0.209591
v -2.72229 -2.21657 0.290053
v -2.79419 -0.670222 0.344568
v -2.8203 0.462715 0.334741
v -2.73213 1.50398 0.21861
v -2.87391 2.81751 -0.0714981
v -2.78941 3.48079 0.145103
v -1.70546 -4.31276 0.334377
v -1.54061 -3.00153 0.344636
v -1.93903 -1.70992 0.439562
v -1.91789 -0.912359 0.438259
v -1.56677 0.541997 0.0936111
v -2.01781 1.60547 -0.010371
v -1.76611 2.63001 0.221365
v -1.59188 3.6138 0.2638
v -0.274501 -4.41008 0.357247
v -0.62453 -2.97546 0.362065
v -0.589094 -1.83827 0.381161
v -0.884668 -0.868505 0.300053
v -0.651939 0.341802 0.26012
v -0.418426 1.35816 0.291234
v -0.617076 2.54367 0.396878
v -0.785266 3.4184 0.33328
v 0.703997 -3.98379 0.350464
v 0.778928 -2.69035 0.314198
v 0.487715 -1.90486 0.337669
v 0.572818 -0.571722 0.334444
v 0.543552 0.330407 0.319591
v 0.256353 1.4292 0.337108
v 0.484189 2.41415 0.383341
v 0.498202 3.64681 0.364941
v 1.92743 -3.72711 0.344177
v 1.64679 -2.92155 0.308018
v 1.79403 -1.99276 0.359353
v 1.95514 -0.457118 0.323154
v 1.93951 0.22454 0.288161
v 1.78882 1.48422 0.272872
v 1.37781 2.75281 0.333333
v 1.43272 3.59281 0.310406
v 2.77465 -3.97922 0.369082
v 3.08129 -2.88664 0.372522
v 2.93167 -2.01302 0.312144
v 2.69914 -0.554938 0.344233
v 2.94527 0.243843 0.30715
v 3.03845 1.53871 0.157171
v 2.74409 3.10439 0.196588
v 2.69987 3.46648 0.142835
v 3.90727 -4.0043 0.379888
v 3.6475 -2.75212 0.35556
v 3.86034 -1.71148 0.306904
v 3.79699 -0.755287 0.264592
v 3.85967 0.257194 0.249482
v 4.14876 1.78012 0.163746
v 4.11239 2.73922 0.0480779
v 4.00236 3.86482 0.0383555
vt 0.0001 0.0001
vt 0.9999 0.0001
vt 0.0001 0.9999
vt 0.9999 0.9999
vt 0.111189 0.0001
vt 0.222278 0.0001
vt 0.333367 0.0001
vt 0.444455 0.0001
vt 0.555544 0.0001
vt 0.666633 0.0001
vt 0.777722 0.0001
vt 0.888811 0.0001
vt 0.888811 0.9999
vt 0.777722 0.9999
vt 0.666633 0.9999
vt 0.555544 0.9999
vt 0.444455 0.9999
vt 0.333367 0.9999
vt 0.222278 0.9999
vt 0.111189 0.9999
vt 0.0001 0.888811
vt 0.0001 0.777722
vt 0.0001 0.666633
vt 0.0001 0.555544
vt 0.0001 0.444456
vt 0.0001 0.333367
vt 0.0001 0.222278
vt 0.0001 0.111189
vt 0.9999 0.111189
vt 0.9999 0.222278
vt 0.9999 0.333367
vt 0.9999 0.444456
vt 0.9999 0.555544
vt 0.9999 0.666633
vt 0.9999 0.777722
vt 0.9999 0.888811
vt 0.11727 0.115399
vt 0.120778 0.180369
vt 0.134636 0.309595
vt 0.088728 0.473895
vt 0.085886 0.575352
vt 0.086211 0.65375
vt 0.092207 0.78313
vt 0.106956 0.892282
vt 0.22987 0.102869
vt 0.221803 0.229552
vt 0.233521 0.288953
vt 0.225541 0.443179
vt 0.221596 0.556167
vt 0.227801 0.661237
vt 0.214896 0.795203
vt 0.22542 0.865181
vt 0.335524 0.082127
vt 0.351143 0.213907
vt 0.311934 0.342467
vt 0.313159 0.422214
vt 0.347791 0.572605
vt 0.301482 0.677733
vt 0.329031 0.783086
vt 0.344903 0.885466
vt 0.476837 0.074882
vt 0.441952 0.218774
vt 0.445749 0.333088
vt 0.416414 0.43099
vt 0.439746 0.552976
vt 0.463203 0.656843
vt 0.444252 0.77653
vt 0.426137 0.866051
vt 0.573419 0.117409
vt 0.581125 0.246686
vt 0.552512 0.326
vt 0.561075 0.459693
vt 0.558356 0.550596
vt 0.530299 0.662189
vt 0.553275 0.760113
vt 0.555478 0.888821
vt 0.694433 0.13996
vt 0.667048 0.221666
vt 0.681985 0.314267
vt 0.698218 0.467249
vt 0.696819 0.535952
vt 0.68253 0.662758
vt 0.642062 0.791726
vt 0.648523 0.877957
vt 0.778029 0.111667
vt 0.809426 0.219523
vt 0.794923 0.307783
vt 0.772028 0.454562
vt 0.796846 0.533374
vt 0.807262 0.663157
vt 0.778581 0.821037
vt 0.775122 0.858219
vt 0.890224 0.104741
vt 0.865679 0.23076
vt 0.887326 0.334104
vt 0.881307 0.429754
vt 0.887973 0.53063
vt 0.918106 0.681428
vt 0.915043 0.778027
vt 0.904815 0.89094
vn 0.00614421 -0.0533006 0.99856
vn -0.0536465 0.0242202 0.998266
vn -0.00624358 -0.0694658 0.997565
vn 0.063982 -0.0250422 0.997637
vn 0.0518669 0.000264744 0.998654
vn 0.0569977 0.0604665 0.996542
vn 0.0376445 0.0400969 0.998486
vn 0.0021447 -0.00563692 0.999982
vn -8.59999e-06 -0.0155253 0.999879
vn -0.0117424 -0.00069859 0.999931
vn -0.0184461 0.00499361 0.999817
vn -0.0428483 0.0141897 0.998981
vn 0.14359 -0.0912434 0.985422
vn 0.121703 -0.114551 0.985934
vn 0.0636067 -0.109354 0.991966
vn -0.00300925 -0.0872166 0.996185
vn -0.0779897 -0.0198703 0.996756
vn -0.0145825 0.029301 0.999464
vn -0.0933446 -0.111005 0.989426
vn -0.158507 -0.210972 0.964555
vn 0.0736459 0.101968 0.992058
vn -0.0871258 0.0154398 0.996078
vn -0.0564595 0.00715468 0.998379
vn 0.025751 0.0217105 0.999433
vn 0.0973285 0.072503 0.992608
vn 0.123263 0.073128 0.989676
vn 0.121187 0.112087 0.986281
vn 0.073601 0.0548671 0.995777
vn -0.0497065 0.0829314 0.995315
vn 0.0275247 0.055486 0.99808
vn 0.0432115 0.0339113 0.99849
vn 0.0398551 0.0234914 0.998929
vn 0.0364616 0.0359478 0.998688
vn 0.0192759 0.0346134 0.999215
vn -0.0454846 0.0690479 0.996576
vn -0.0345642 0.0342136 0.998817
vn 0.0978673 0.0817308 0.991838
vn 0.101609 0.124373 0.987019
vn -0.00121931 0.0355855 0.999366
vn -0.0188224 0.0145882 0.999716
vn -0.0583015 0.00910363 0.998258
vn -0.046511 -0.00896102 0.998878
vn 0.0413155 0.0966495 0.994461
vn -0.0434691 -0.0486125 0.997871
vn 0.0408124 0.0793313 0.996013
vn -0.0411751 0.0193529 0.998964
vn -0.141109 -0.0817691 0.986611
vn -0.13953 -0.016031 0.990088
vn 0.0216275 0.0772259 0.996779
vn 0.100402 0.109995 0.988848
vn -0.0283879 -0.00145866 0.999596
vn -0.191239 -0.166001 0.967404
vn 0.00188731 0.0181765 0.999833
vn -0.0494449 -0.0328797 0.998236
vn -0.0271461 -0.018709 0.999456
vn 0.0442488 0.0803304 0.995786
vn -0.00897839 0.110394 0.993847
vn -0.0128179 0.00852869 0.999881
vn -0.178508 -0.100886 0.978753
vn -0.0647986 -0.0224554 0.997646
vn -0.00499021 -0.0150068 0.999875
vn 0.00842905 -0.00546044 0.99995
vn 0.018804 0.0124682 0.999745
vn 0.0120627 0.0794472 0.996766
vn -0.0900518 0.0140751 0.995838
vn -0.115496 -0.0379799 0.992582
vn -0.0893133 -0.044498 0.995009
vn -0.0771846 0.0121442 0.996943
vn 0.00873796 0.0111903 0.999899
vn 0.0108213 -0.0106939 0.999884
vn 0.0163046 -0.0135338 0.999775
vn -0.00765734 0.0275676 0.999591
vn -0.00199544 0.00262701 0.999995
vn -0.0189655 -0.0276613 0.999437
vn 0.0186109 -0.0291235 0.999403
vn 0.00511358 -0.00785675 0.999956
vn -0.020014 0.0162325 0.999668
vn -0.00810288 0.00751479 0.999939
vn 0.00288073 -0.0164926 0.99986
vn -0.00908204 0.0378053 0.999244
vn 0.011453 0.0466704 0.998845
vn 0.0660682 -0.0102695 0.997762
vn 0.0746616 0.00369472 0.997202
vn 0.0858337 -0.030862 0.995831
vn -0.0195307 0.00201583 0.999807
vn -0.015402 0.031644 0.999381
vn 0.0142805 0.0195912 0.999706
vn 0.0203096 0.0210231 0.999573
vn 0.0319289 0.0627643 0.997517
vn 0.0400775 0.0595539 0.99742
vn 0.0985752 0.0469029 0.994024
vn 0.104582 0.0153462 0.994398
vn -0.0152429 0.0312812 0.999394
vn 0.0286744 0.042131 0.998701
vn 0.0269785 0.0397086 0.998847
vn 0.0457247 0.0224365 0.998702
vn 0.0387864 0.0449523 0.998236
vn -0.00819829 0.0687672 0.997599
vn 0.00321802 0.0519521 0.998644
vn 0.0752807 -0.0128433 0.99708
f 100/100/100 4/4/4 13/13/13
f 44/44/44 3/3/3 21/21/21
f 44/44/44 19/19/19 20/20/20
f 60/60/60 19/19/19 52/52/52
f 60/60/60 17/17/17 18/18/18
f 76/76/76 17/17/17 68/68/68
f 84/84/84 16/16/16 76/76/76
f 84/84/84 14/14/14 15/15/15
f 100/100/100 14/14/14 92/92/92
f 11/11/11 93/93/93 85/85/85
f 93/93/93 86/86/86 85/85/85
f 94/94/94 87/87/87 86/86/86
f 87/87/87 96/96/96 88/88/88
f 96/96/96 89/89/89 88/88/88
f 97/97/97 90/90/90 89/89/89
f 90/90/90 99/99/99 91/91/91
f 91/91/91 100/100/100 92/92/92
f 10/10/10 85/85/85 77/77/77
f 77/77/77 86/86/86 78/78/78
f 78/78/78 87/87/87 79/79/79
f 79/79/79 88/88/88 80/80/80
f 88/88/88 81/81/81 80/80/80
f 81/81/81 90/90/90 82/82/82
f 82/82/82 91/91/91 83/83/83
f 91/91/91 84/84/84 83/83/83
f 10/10/10 69/69/69 9/9/9
f 69/69/69 78/78/78 70/70/70
f 70/70/70 79/79/79 71/71/71
f 79/79/79 72/72/72 71/71/71
f 72/72/72 81/81/81 73/73/73
f 73/73/73 82/82/82 74/74/74
f 82/82/82 75/75/75 74/74/74
f 83/83/83 76/76/76 75/75/75
f 9/9/9 61/61/61 8/8/8
f 69/69/69 62/62/62 61/61/61
f 62/62/62 71/71/71 63/63/63
f 63/63/63 72/72/72 64/64/64
f 72/72/72 65/65/65 64/64/64
f 65/65/65 74/74/74 66/66/66
f 66/66/66 75/75/75 67/67/67
f 67/67/67 76/76/76 68/68/68
f 8/8/8 53/53/53 7/7/7
f 53/53/53 62/62/62 54/54/54
f 54/54/54 63/63/63 55/55/55
f 55/55/55 64/64/64 56/56/56
f 64/64/64 57/57/57 56/56/56
f 57/57/57 66/66/66 58/58/58
f 58/58/58 67/67/67 59/59/59
f 59/59/59 68/68/68 60/60/60
f 6/6/6 53/53/53 45/45/45
f 45/45/45 54/54/54 46/46/46
f 54/54/54 47/47/47 46/46/46
f 55/55/55 48/48/48 47/47/47
f 56/56/56 49/49/49 48/48/48
f 49/49/49 58/58/58 50/50/50
f 58/58/58 51/51/51 50/50/50
f 59/59/59 52/52/52 51/51/51
f 6/6/6 37/37/37 5/5/5
f 45/45/45 38/38/38 37/37/37
f 46/46/46 39/39/39 38/38/38
f 39/39/39 48/48/48 40/40/40
f 40/40/40 49/49/49 41/41/41
f 41/41/41 50/50/50 42/42/42
f 50/50/50 43/43/43 42/42/42
f 51/51/51 44/44/44 43/43/43
f 5/5/5 28/28/28 1/1/1
f 28/28/28 38/38/38 27/27/27
f 27/27/27 39/39/39 26/26/26
f 26/26/26 40/40/40 25/25/25
f 40/40/40 24/24/24 25/25/25
f 41/41/41 23/23/23 24/24/24
f 23/23/23 43/43/43 22/22/22
f 43/43/43 21/21/21 22/22/22
f 2/2/2 93/93/93 12/12/12
f 93/93/93 30/30/30 94/94/94
f 30/30/30 95/95/95 94/94/94
f 31/31/31 96/96/96 95/95/95
f 32/32/32 97/97/97 96/96/96
f 33/33/33 98/98/98 97/97/97
f 98/98/98 35/35/35 99/99/99
f 99/99/99 36/36/36 100/100/100
f 100/100/100 36/36/36 4/4/4
f 44/44/44 20/20/20 3/3/3
f 44/44/44 52/52/52 19/19/19
f 60/60/60 18/18/18 19/19/19
f 60/60/60 68/68/68 17/17/17
f 76/76/76 16/16/16 17/17/17
f 84/84/84 15/15/15 16/16/16
f 84/84/84 92/92/92 14/14/14
f 100/100/100 13/13/13 14/14/14
f 11/11/11 12/12/12 93/93/93
f 93/93/93 94/94/94 86/86/86
f 94/94/94 95/95/95 87/87/87
f 87/87/87 95/95/95 96/96/96
f 96/96/96 97/97/97 89/89/89
f 97/97/97 98/98/98 90/90/90
f 90/90/90 98/98/98 99/99/99
f 91/91/91 99/99/99 100/100/100
f 10/10/10 11/11/11 85/85/85
f 77/77/77 85/85/85 86/86/86
f 78/78/78 86/86/86 87/87/87
f 79/79/79 87/87/87 88/88/88
f 88/88/88 89/89/89 81/81/81
f 81/81/81 89/89/89 90/90/90
f 82/82/82 90/90/90 91/91/91
f 91/91/91 92/92/92 84/84/84
f 10/10/10 77/77/77 69/69/69
f 69/69/69 77/77/77 78/78/78
f 70/70/70 78/78/78 79/79/79
f 79/79/79 80/80/80 72/72/72
f 72/72/72 80/80/80 81/81/81
f 73/73/73 81/81/81 82/82/82
f 82/82/82 83/83/83 75/75/75
f 83/83/83 84/84/84 76/76/76
f 9/9/9 69/69/69 61/61/61
f 69/69/69 70/70/70 62/62/62
f 62/62/62 70/70/70 71/71/71
f 63/63/63 71/71/71 72/72/72
f 72/72/72 73/73/73 65/65/65
f 65/65/65 73/73/73 74/74/74
f 66/66/66 74/74/74 75/75/75
f 67/67/67 75/75/75 76/76/76
f 8/8/8 61/61/61 53/53/53
f 53/53/53 61/61/61 62/62/62
f 54/54/54 62/62/62 63/63/63
f 55/55/55 63/63/63 64/64/64
f 64/64/64 65/65/65 57/57/57
f 57/57/57 65/65/65 66/66/66
f 58/58/58 66/66/66 67/67/67
f 59/59/59 67/67/67 68/68/68
f 6/6/6 7/7/7 53/53/53
f 45/45/45 53/53/53 54/54/54
f 54/54/54 55/55/55 47/47/47
f 55/55/55 56/56/56 48/48/48
f 56/56/56 57/57/57 49/49/49
f 49/49/49 57/57/57 58/58/58
f 58/58/58 59/59/59 51/51/51
f 59/59/59 60/60/60 52/52/52
f 6/6/6 45/45/45 37/37/37
f 45/45/45 46/46/46 38/38/38
f 46/46/46 47/47/47 39/39/39
f 39/39/39 47/47/47 48/48/48
f 40/40/40 48/48/48 49/49/49
f 41/41/41 49/49/49 50/50/50
f 50/50/50 51/51/51 43/43/43
f 51/51/51 52/52/52 44/44/44
f 5/5/5 37/37/37 28/28/28
f 28/28/28 37/37/37 38/38/38
f 27/27/27 38/38/38 39/39/39
f 26/26/26 39/39/39 40/40/40
f 40/40/40 41/41/41 24/24/24
f 41/41/41 42/42/42 23/23/23
f 23/23/23 42/42/42 43/43/43
f 43/43/43 44/44/44 21/21/21
f 2/2/2 29/29/29 93/93/93
f 93/93/93 29/29/29 30/30/30
f 30/30/30 31/31/31 95/95/95
f 31/31/31 32/32/32 96/96/96
f 32/32/32 33/33/33 97/97/97
f 33/33/33 34/34/34 98/98/98
f 98/98/98 34/34/34 35/35/35
f 99/99/99 35/35/35 36/36/36
