o GNATVCloth
v -5.05166 -4.97975 0.563188
v 4.98076 -4.98417 0.413282
v -5.01298 5.02105 0.004229
v 4.98702 5.02105 0.004229
v -3.93806 -5.00699 0.550197
v -2.82635 -5.0379 0.476798
v -1.70888 -5.04251 0.483125
v -0.590145 -5.04847 0.493064
v 0.530483 -5.05458 0.450157
v 1.65068 -5.04962 0.468811
v 2.76449 -5.03052 0.458969
v 3.87681 -4.98974 0.502257
v 3.85987 4.94709 0.12831
v 2.74826 4.88654 0.277608
v 1.63233 4.85474 0.354136
v 0.519298 4.81989 0.37951
v -0.596732 4.81018 0.449879
v -1.71652 4.80457 0.466585
v -2.83421 4.81154 0.565905
v -3.93143 4.89147 0.325978
v -5.0016 3.90717 0.0707397
v -5.00541 2.79367 0.138359
v -5.0121 1.68066 0.205696
v -5.01953 0.566704 0.245124
v -5.02405 -0.545263 0.308849
v -5.02749 -1.65683 0.372518
v -5.03243 -2.76775 0.438185
v -5.03356 -3.87712 0.5318
v 4.97028 -3.88314 0.291545
v 4.96522 -2.77137 0.317918
v 4.96195 -1.65984 0.271921
v 4.95993 -0.547655 0.225792
v 4.9617 0.565254 0.208538
v 4.96219 1.67926 0.179153
v 4.96486 2.79376 0.143444
v 4.96731 3.90695 0.0709479
v -3.87854 -3.8777 0.324508
v -3.83935 -3.22983 0.278845
v -3.68954 -1.9431 0.240269
v -4.14132 -0.284695 0.20056
v -4.16229 0.730953 0.213892
v -4.1527 1.51477 0.15193
v -4.08578 2.80389 0.057133
v -3.93236 3.886 -0.0585218
v -2.74811 -4.03128 0.279682
v -2.82287 -2.76443 0.311328
v -2.70026 -2.17427 0.286917
v -2.77595 -0.632371 0.314247
v -2.80652 0.494984 0.231661
v -2.73229 1.53404 0.0798558
v -2.85504 2.86986 -0.0692511
v -2.754 3.5491 0.0945254
v -1.68627 -4.25275 0.332103
v -1.52813 -2.94419 0.395695
v -1.91932 -1.65502 0.408288
v -1.89969 -0.859855 0.365832
v -1.54226 0.613023 0.123898
v -1.99748 1.66301 -0.0511894
v -1.72476 2.69823 0.104217
v -1.58991 3.66109 0.448353
v -0.264135 -4.33171 0.385825
v -0.615438 -2.89914 0.437282
v -0.575046 -1.76179 0.489744
v -0.862547 -0.794793 0.332198
v -0.619833 0.409095 0.166645
v -0.380792 1.42916 0.162119
v -0.574388 2.60716 0.191284
v -0.76745 3.47232 0.406122
v 0.704635 -3.90303 0.408212
v 0.784717 -2.61815 0.524248
v 0.499607 -1.83022 0.473402
v 0.589836 -0.506281 0.313166
v 0.570425 0.389644 0.259923
v 0.289227 1.48774 0.256649
v 0.519603 2.44317 0.245657
v 0.534488 3.71697 0.408673
v 1.91402 -3.64689 0.434168
v 1.63005 -2.84178 0.327332
v 1.80011 -1.92522 0.46392
v 1.96015 -0.415915 0.19799
v 1.94589 0.249041 0.0320299
v 1.82122 1.50814 0.159252
v 1.40603 2.78352 0.227245
v 1.4744 3.6301 0.38187
v 2.75429 -3.91476 0.412924
v 3.05787 -2.83373 0.321209
v 2.91138 -1.95455 0.240087
v 2.68894 -0.497204 0.343136
v 2.92878 0.294998 0.251108
v 3.05619 1.55827 -0.0595281
v 2.75176 3.12623 -0.0047945
v 2.73185 3.47716 0.123235
v 3.87268 -3.96991 0.295991
v 3.6212 -2.71254 0.330334
v 3.83533 -1.67603 0.288239
v 3.77495 -0.719758 0.28471
v 3.84255 0.29039 0.300121
v 4.14357 1.80254 0.156867
v 4.12987 2.75313 -0.0196243
v 4.01882 3.87848 -0.0634581
vt 0.0001 0.0001
vt 0.9999 0.0001
vt 0.0001 0.9999
vt 0.9999 0.9999
vt 0.111189 0.0001
vt 0.222278 0.0001
vt 0.333367 0.0001
vt 0.444455 0.0001
vt 0.555544 0.0001
vt 0.666633 0.0001
vt 0.777722 0.0001
vt 0.888811 0.0001
vt 0.888811 0.9999
vt 0.777722 0.9999
vt 0.666633 0.9999
vt 0.555544 0.9999
vt 0.444455 0.9999
vt 0.333367 0.9999
vt 0.222278 0.9999
vt 0.111189 0.9999
vt 0.0001 0.888811
vt 0.0001 0.777722
vt 0.0001 0.666633
vt 0.0001 0.555544
vt 0.0001 0.444456
vt 0.0001 0.333367
vt 0.0001 0.222278
vt 0.0001 0.111189
vt 0.9999 0.111189
vt 0.9999 0.222278
vt 0.9999 0.333367
vt 0.9999 0.444456
vt 0.9999 0.555544
vt 0.9999 0.666633
vt 0.9999 0.777722
vt 0.9999 0.888811
vt 0.11727 0.115399
vt 0.120778 0.180369
vt 0.134636 0.309595
vt 0.088728 0.473895
vt 0.085886 0.575352
vt 0.086211 0.65375
vt 0.092207 0.78313
vt 0.106956 0.892282
vt 0.22987 0.102869
vt 0.221803 0.229552
vt 0.233521 0.288953
vt 0.225541 0.443179
vt 0.221596 0.556167
vt 0.227801 0.661237
vt 0.214896 0.795203
vt 0.22542 0.865181
vt 0.335524 0.082127
vt 0.351143 0.213907
vt 0.311934 0.342467
vt 0.313159 0.422214
vt 0.347791 0.572605
vt 0.301482 0.677733
vt 0.329031 0.783086
vt 0.344903 0.885466
vt 0.476837 0.074882
vt 0.441952 0.218774
vt 0.445749 0.333088
vt 0.416414 0.43099
vt 0.439746 0.552976
vt 0.463203 0.656843
vt 0.444252 0.77653
vt 0.426137 0.866051
vt 0.573419 0.117409
vt 0.581125 0.246686
vt 0.552512 0.326
vt 0.561075 0.459693
vt 0.558356 0.550596
vt 0.530299 0.662189
vt 0.553275 0.760113
vt 0.555478 0.888821
vt 0.694433 0.13996
vt 0.667048 0.221666
vt 0.681985 0.314267
vt 0.698218 0.467249
vt 0.696819 0.535952
vt 0.68253 0.662758
vt 0.642062 0.791726
vt 0.648523 0.877957
vt 0.778029 0.111667
vt 0.809426 0.219523
vt 0.794923 0.307783
vt 0.772028 0.454562
vt 0.796846 0.533374
vt 0.807262 0.663157
vt 0.778581 0.821037
vt 0.775122 0.858219
vt 0.890224 0.104741
vt 0.865679 0.23076
vt 0.887326 0.334104
vt 0.881307 0.429754
vt 0.887973 0.53063
vt 0.918106 0.681428
vt 0.915043 0.778027
vt 0.904815 0.89094
vn 0.0123511 0.0282503 0.999525
vn 0.0366162 0.154184 0.987363
vn -0.0965306 -0.146331 0.984515
vn -0.0119501 -0.0490391 0.998725
vn 0.085789 0.135495 0.987057
vn 0.0303266 0.190038 0.981308
vn -0.00625553 0.187989 0.982151
vn 0.000854185 0.159837 0.987143
vn -0.00672025 0.0708663 0.997463
vn -0.00130098 0.0322451 0.999479
vn 0.0230097 0.0941555 0.995292
vn 0.0162274 0.198278 0.980011
vn 0.12905 -0.156527 0.979207
vn 0.143265 -0.0900815 0.985576
vn 0.0451053 0.0168037 0.998841
vn 0.0386091 0.024626 0.998951
vn 0.0311352 -0.0145971 0.999409
vn 0.0517661 -0.0101907 0.998607
vn -0.152276 -0.270934 0.950477
vn -0.265101 -0.344188 0.900697
vn 0.109827 0.0696683 0.991506
vn 0.0871635 0.0598622 0.994394
vn 0.0674233 0.0604364 0.995892
vn 0.0579072 0.0264644 0.997971
vn 0.105118 0.0565076 0.992853
vn 0.1084 0.0561059 0.992523
vn 0.137236 0.0515746 0.989195
vn 0.131999 0.0888223 0.987262
vn 0.000633691 0.0431796 0.999067
vn 0.00970926 0.00758914 0.999924
vn 0.023972 0.029162 0.999287
vn 0.0579508 0.0126962 0.998239
vn 0.0386636 0.0413073 0.998398
vn -0.0228043 0.0292206 0.999313
vn -0.138605 0.0913135 0.986129
vn -0.159118 0.0501869 0.985983
vn 0.106973 0.138279 0.984599
vn 0.0766568 0.0388015 0.996302
vn 0.0199924 0.0273717 0.999425
vn 0.0280624 0.0305921 0.999138
vn 0.0320059 0.0515771 0.998156
vn 0.0629623 0.0739202 0.995275
vn 0.0875673 0.0799409 0.992946
vn -0.087975 -0.149008 0.984915
vn -0.00707169 0.0587707 0.998246
vn -0.0461177 0.0164749 0.9988
vn -0.0812653 0.0020813 0.99669
vn -0.0703557 0.0257437 0.99719
vn 0.0257532 0.106521 0.993977
vn 0.0852977 0.111431 0.990105
vn -0.0312331 -0.0304314 0.999049
vn -0.215478 -0.282954 0.934615
vn -0.027405 0.0861053 0.995909
vn -0.0652955 -0.0258467 0.997531
vn -0.0647549 0.0256839 0.997571
vn 0.00746159 0.096323 0.995322
vn -0.00223687 0.127557 0.991829
vn -0.0191022 0.041547 0.998954
vn -0.134723 -0.2217 0.965763
vn -0.0638785 -0.176991 0.982137
vn -0.0157488 0.0503342 0.998608
vn -0.0336362 -0.0379661 0.998713
vn -0.0229946 0.050404 0.998464
vn -0.0074571 0.131784 0.99125
vn -0.0620303 0.0620199 0.996145
vn -0.106071 0.0222092 0.99411
vn -0.0664179 -0.13808 0.988192
vn -0.00662209 -0.180781 0.983501
vn 0.0024833 0.000281377 0.999997
vn 0.0560347 -0.0519688 0.997075
vn -0.00133235 0.059962 0.9982
vn 0.0295282 0.133108 0.990662
vn 0.0466476 0.00755285 0.998883
vn -0.0478353 0.0164886 0.998719
vn -0.0161849 -0.0479345 0.998719
vn 0.0218899 -0.0926436 0.995459
vn 0.00181833 0.0737362 0.997276
vn 0.0896788 -0.019644 0.995777
vn 0.0717278 0.0213028 0.997197
vn -0.0501231 0.209777 0.976464
vn -0.00615706 0.118328 0.992955
vn 0.120092 -0.0271613 0.992391
vn 0.100779 -0.108452 0.98898
vn 0.0990415 -0.108756 0.989122
vn 0.0599892 0.0455435 0.99716
vn 0.0195521 0.0680718 0.997489
vn 0.039667 -0.00708642 0.999188
vn -0.0422388 0.100605 0.994029
vn -0.0962224 0.153281 0.983487
vn -0.0543478 0.100938 0.993407
vn 0.140072 -0.121319 0.982681
vn 0.188307 -0.219244 0.957326
vn 0.0307055 0.0657713 0.997362
vn -0.0188058 0.0248457 0.999514
vn -0.0162805 0.0278815 0.999479
vn 0.0168403 0.00646316 0.999837
vn -0.0228146 0.075084 0.996916
vn -0.106533 0.105407 0.988706
vn -0.124114 0.0749288 0.989435
vn 0.0591615 -0.0897176 0.994209
f 100/100/100 4/4/4 13/13/13
f 44/44/44 3/3/3 21/21/21
f 44/44/44 19/19/19 20/20/20
f 60/60/60 19/19/19 52/52/52
f 60/60/60 17/17/17 18/18/18
f 76/76/76 17/17/17 68/68/68
f 84/84/84 16/16/16 76/76/76
f 84/84/84 14/14/14 15/15/15
f 100/100/100 14/14/14 92/92/92
f 11/11/11 93/93/93 85/85/85
f 93/93/93 86/86/86 85/85/85
f 94/94/94 87/87/87 86/86/86
f 87/87/87 96/96/96 88/88/88
f 96/96/96 89/89/89 88/88/88
f 97/97/97 90/90/90 89/89/89
f 90/90/90 99/99/99 91/91/91
f 91/91/91 100/100/100 92/92/92
f 10/10/10 85/85/85 77/77/77
f 77/77/77 86/86/86 78/78/78
f 78/78/78 87/87/87 79/79/79
f 79/79/79 88/88/88 80/80/80
f 88/88/88 81/81/81 80/80/80
f 81/81/81 90/90/90 82/82/82
f 82/82/82 91/91/91 83/83/83
f 91/91/91 84/84/84 83/83/83
f 10/10/10 69/69/69 9/9/9
f 69/69/69 78/78/78 70/70/70
f 70/70/70 79/79/79 71/71/71
f 79/79/79 72/72/72 71/71/71
f 72/72/72 81/81/81 73/73/73
f 73/73/73 82/82/82 74/74/74
f 82/82/82 75/75/75 74/74/74
f 83/83/83 76/76/76 75/75/75
f 9/9/9 61/61/61 8/8/8
f 69/69/69 62/62/62 61/61/61
f 62/62/62 71/71/71 63/63/63
f 63/63/63 72/72/72 64/64/64
f 72/72/72 65/65/65 64/64/64
f 65/65/65 74/74/74 66/66/66
f 66/66/66 75/75/75 67/67/67
f 67/67/67 76/76/76 68/68/68
f 8/8/8 53/53/53 7/7/7
f 53/53/53 62/62/62 54/54/54
f 54/54/54 63/63/63 55/55/55
f 55/55/55 64/64/64 56/56/56
f 64/64/64 57/57/57 56/56/56
f 57/57/57 66/66/66 58/58/58
f 58/58/58 67/67/67 59/59/59
f 59/59/59 68/68/68 60/60/60
f 6/6/6 53/53/53 45/45/45
f 45/45/45 54/54/54 46/46/46
f 54/54/54 47/47/47 46/46/46
f 55/55/55 48/48/48 47/47/47
f 56/56/56 49/49/49 48/48/48
f 49/49/49 58/58/58 50/50/50
f 58/58/58 51/51/51 50/50/50
f 59/59/59 52/52/52 51/51/51
f 6/6/6 37/37/37 5/5/5
f 45/45/45 38/38/38 37/37/37
f 46/46/46 39/39/39 38/38/38
f 39/39/39 48/48/48 40/40/40
f 40/40/40 49/49/49 41/41/41
f 41/41/41 50/50/50 42/42/42
f 50/50/50 43/43/43 42/42/42
f 51/51/51 44/44/44 43/43/43
f 5/5/5 28/28/28 1/1/1
f 28/28/28 38/38/38 27/27/27
f 27/27/27 39/39/39 26/26/26
f 26/26/26 40/40/40 25/25/25
f 40/40/40 24/24/24 25/25/25
f 41/41/41 23/23/23 24/24/24
f 23/23/23 43/43/43 22/22/22
f 43/43/43 21/21/21 22/22/22
f 2/2/2 93/93/93 12/12/12
f 93/93/93 30/30/30 94/94/94
f 30/30/30 95/95/95 94/94/94
f 31/31/31 96/96/96 95/95/95
f 32/32/32 97/97/97 96/96/96
f 33/33/33 98/98/98 97/97/97
f 98/98/98 35/35/35 99/99/99
f 99/99/99 36/36/36 100/100/100
f 100/100/100 36/36/36 4/4/4
f 44/44/44 20/20/20 3/3/3
f 44/44/44 52/52/52 19/19/19
f 60/60/60 18/18/18 19/19/19
f 60/60/60 68/68/68 17/17/17
f 76/76/76 16/16/16 17/17/17
f 84/84/84 15/15/15 16/16/16
f 84/84/84 92/92/92 14/14/14
f 100/100/100 13/13/13 14/14/14
f 11/11/11 12/12/12 93/93/93
f 93/93/93 94/94/94 86/86/86
f 94/94/94 95/95/95 87/87/87
f 87/87/87 95/95/95 96/96/96
f 96/96/96 97/97/97 89/89/89
f 97/97/97 98/98/98 90/90/90
f 90/90/90 98/98/98 99/99/99
f 91/91/91 99/99/99 100/100/100
f 10/10/10 11/11/11 85/85/85
f 77/77/77 85/85/85 86/86/86
f 78/78/78 86/86/86 87/87/87
f 79/79/79 87/87/87 88/88/88
f 88/88/88 89/89/89 81/81/81
f 81/81/81 89/89/89 90/90/90
f 82/82/82 90/90/90 91/91/91
f 91/91/91 92/92/92 84/84/84
f 10/10/10 77/77/77 69/69/69
f 69/69/69 77/77/77 78/78/78
f 70/70/70 78/78/78 79/79/79
f 79/79/79 80/80/80 72/72/72
f 72/72/72 80/80/80 81/81/81
f 73/73/73 81/81/81 82/82/82
f 82/82/82 83/83/83 75/75/75
f 83/83/83 84/84/84 76/76/76
f 9/9/9 69/69/69 61/61/61
f 69/69/69 70/70/70 62/62/62
f 62/62/62 70/70/70 71/71/71
f 63/63/63 71/71/71 72/72/72
f 72/72/72 73/73/73 65/65/65
f 65/65/65 73/73/73 74/74/74
f 66/66/66 74/74/74 75/75/75
f 67/67/67 75/75/75 76/76/76
f 8/8/8 61/61/61 53/53/53
f 53/53/53 61/61/61 62/62/62
f 54/54/54 62/62/62 63/63/63
f 55/55/55 63/63/63 64/64/64
f 64/64/64 65/65/65 57/57/57
f 57/57/57 65/65/65 66/66/66
f 58/58/58 66/66/66 67/67/67
f 59/59/59 67/67/67 68/68/68
f 6/6/6 7/7/7 53/53/53
f 45/45/45 53/53/53 54/54/54
f 54/54/54 55/55/55 47/47/47
f 55/55/55 56/56/56 48/48/48
f 56/56/56 57/57/57 49/49/49
f 49/49/49 57/57/57 58/58/58
f 58/58/58 59/59/59 51/51/51
f 59/59/59 60/60/60 52/52/52
f 6/6/6 45/45/45 37/37/37
f 45/45/45 46/46/46 38/38/38
f 46/46/46 47/47/47 39/39/39
f 39/39/39 47/47/47 48/48/48
f 40/40/40 48/48/48 49/49/49
f 41/41/41 49/49/49 50/50/50
f 50/50/50 51/51/51 43/43/43
f 51/51/51 52/52/52 44/44/44
f 5/5/5 37/37/37 28/28/28
f 28/28/28 37/37/37 38/38/38
f 27/27/27 38/38/38 39/39/39
f 26/26/26 39/39/39 40/40/40
f 40/40/40 41/41/41 24/24/24
f 41/41/41 42/42/42 23/23/23
f 23/23/23 42/42/42 43/43/43
f 43/43/43 44/44/44 21/21/21
f 2/2/2 29/29/29 93/93/93
f 93/93/93 29/29/29 30/30/30
f 30/30/30 31/31/31 95/95/95
f 31/31/31 32/32/32 96/96/96
f 32/32/32 33/33/33 97/97/97
f 33/33/33 34/34/34 98/98/98
f 98/98/98 34/34/34 35/35/35
f 99/99/99 35/35/35 36/36/36
