o GNATVCloth
v -5.03473 -4.98104 0.597111
v 5.06388 -4.9967 0.393795
v -5.01298 5.02105 0.004229
v 4.98702 5.02105 0.004229
v -3.92446 -5.01945 0.522122
v -2.80499 -5.06343 0.484029
v -1.68095 -5.09172 0.478051
v -0.553379 -5.11129 0.474022
v 0.575172 -5.11511 0.5146
v 1.70187 -5.09551 0.495931
v 2.82533 -5.06634 0.449
v 3.94666 -5.02814 0.437457
v 3.86855 4.89951 0.198926
v 2.75648 4.81677 0.38027
v 1.63313 4.75315 0.313979
v 0.512567 4.70956 0.292404
v -0.589546 4.69855 0.473754
v -1.6951 4.69474 0.629576
v -2.81013 4.7586 0.504899
v -3.90101 4.88005 0.235809
v -4.97793 3.90705 0.0763344
v -4.97702 2.79228 0.139517
v -4.98561 1.67824 0.203599
v -4.99403 0.563795 0.254082
v -5.00039 -0.550254 0.30237
v -5.00628 -1.66358 0.348092
v -5.01097 -2.77509 0.385503
v -5.01684 -3.88368 0.483442
v 5.03967 -3.88853 0.315583
v 5.02479 -2.779 0.242095
v 5.01553 -1.6659 0.238452
v 5.00642 -0.552721 0.220796
v 4.9994 0.561219 0.199195
v 4.99091 1.67598 0.164947
v 4.98325 2.7914 0.132983
v 4.97256 3.90606 0.0686875
v -3.84624 -3.88528 0.371147
v -3.81036 -3.24167 0.282885
v -3.66351 -1.95336 0.247723
v -4.11659 -0.290533 0.237099
v -4.13902 0.724543 0.184016
v -4.12934 1.51122 0.122181
v -4.05815 2.80022 0.0340107
v -3.92183 3.87369 -0.145546
v -2.71572 -4.05045 0.314128
v -2.79359 -2.78203 0.343987
v -2.67195 -2.19494 0.29249
v -2.74825 -0.647716 0.282767
v -2.78157 0.478796 0.173998
v -2.71285 1.51929 0.034649
v -2.84104 2.84317 -0.202324
v -2.74922 3.50346 0.0278107
v -1.65124 -4.2879 0.333836
v -1.49296 -2.97442 0.398666
v -1.88702 -1.68051 0.378285
v -1.87068 -0.887137 0.311155
v -1.52123 0.582156 0.0293141
v -1.98343 1.64122 -0.0747618
v -1.70529 2.67276 -0.0221561
v -1.58841 3.57431 0.405785
v -0.22498 -4.37202 0.397625
v -0.581094 -2.93941 0.47717
v -0.540833 -1.79895 0.40054
v -0.832861 -0.824625 0.288031
v -0.597801 0.374858 0.095879
v -0.36328 1.40109 0.0504047
v -0.563958 2.56751 0.177686
v -0.762214 3.38811 0.412579
v 0.747395 -3.94547 0.392034
v 0.821678 -2.65114 0.45058
v 0.533706 -1.863 0.43041
v 0.617377 -0.567247 0.10741
v 0.595623 0.33804 0.108355
v 0.309861 1.44909 0.0432457
v 0.533954 2.41182 0.136316
v 0.545493 3.62301 0.413811
v 1.96528 -3.70013 0.335454
v 1.6866 -2.88787 0.395446
v 1.83693 -1.96321 0.430199
v 1.99377 -0.449551 0.1685
v 1.98616 0.212292 -0.0180831
v 1.83982 1.47449 0.0233726
v 1.41969 2.74562 0.10387
v 1.48282 3.54616 0.299451
v 2.81082 -3.95786 0.347422
v 3.11744 -2.86891 0.326499
v 2.96454 -1.99081 0.298232
v 2.72531 -0.53215 0.304388
v 2.96923 0.259209 0.200936
v 3.08973 1.52745 -0.0906739
v 2.77062 3.09135 -0.091325
v 2.74071 3.4426 0.0299388
v 3.94072 -3.99284 0.310512
v 3.68036 -2.73936 0.300992
v 3.88932 -1.69764 0.290914
v 3.82303 -0.740928 0.308838
v 3.88203 0.27119 0.279421
v 4.17163 1.78775 0.143194
v 4.14987 2.73831 -0.031696
v 4.02984 3.86082 -0.102568
vt 0.0001 0.0001
vt 0.9999 0.0001
vt 0.0001 0.9999
vt 0.9999 0.9999
vt 0.111189 0.0001
vt 0.222278 0.0001
vt 0.333367 0.0001
vt 0.444455 0.0001
vt 0.555544 0.0001
vt 0.666633 0.0001
vt 0.777722 0.0001
vt 0.888811 0.0001
vt 0.888811 0.9999
vt 0.777722 0.9999
vt 0.666633 0.9999
vt 0.555544 0.9999
vt 0.444455 0.9999
vt 0.333367 0.9999
vt 0.222278 0.9999
vt 0.111189 0.9999
vt 0.0001 0.888811
vt 0.0001 0.777722
vt 0.0001 0.666633
vt 0.0001 0.555544
vt 0.0001 0.444456
vt 0.0001 0.333367
vt 0.0001 0.222278
vt 0.0001 0.111189
vt 0.9999 0.111189
vt 0.9999 0.222278
vt 0.9999 0.333367
vt 0.9999 0.444456
vt 0.9999 0.555544
vt 0.9999 0.666633
vt 0.9999 0.777722
vt 0.9999 0.888811
vt 0.11727 0.115399
vt 0.120778 0.180369
vt 0.134636 0.309595
vt 0.088728 0.473895
vt 0.085886 0.575352
vt 0.086211 0.65375
vt 0.092207 0.78313
vt 0.106956 0.892282
vt 0.22987 0.102869
vt 0.221803 0.229552
vt 0.233521 0.288953
vt 0.225541 0.443179
vt 0.221596 0.556167
vt 0.227801 0.661237
vt 0.214896 0.795203
vt 0.22542 0.865181
vt 0.335524 0.082127
vt 0.351143 0.213907
vt 0.311934 0.342467
vt 0.313159 0.422214
vt 0.347791 0.572605
vt 0.301482 0.677733
vt 0.329031 0.783086
vt 0.344903 0.885466
vt 0.476837 0.074882
vt 0.441952 0.218774
vt 0.445749 0.333088
vt 0.416414 0.43099
vt 0.439746 0.552976
vt 0.463203 0.656843
vt 0.444252 0.77653
vt 0.426137 0.866051
vt 0.573419 0.117409
vt 0.581125 0.246686
vt 0.552512 0.326
vt 0.561075 0.459693
vt 0.558356 0.550596
vt 0.530299 0.662189
vt 0.553275 0.760113
vt 0.555478 0.888821
vt 0.694433 0.13996
vt 0.667048 0.221666
vt 0.681985 0.314267
vt 0.698218 0.467249
vt 0.696819 0.535952
vt 0.68253 0.662758
vt 0.642062 0.791726
vt 0.648523 0.877957
vt 0.778029 0.111667
vt 0.809426 0.219523
vt 0.794923 0.307783
vt 0.772028 0.454562
vt 0.796846 0.533374
vt 0.807262 0.663157
vt 0.778581 0.821037
vt 0.775122 0.858219
vt 0.890224 0.104741
vt 0.865679 0.23076
vt 0.887326 0.334104
vt 0.881307 0.429754
vt 0.887973 0.53063
vt 0.918106 0.681428
vt 0.915043 0.778027
vt 0.904815 0.89094
vn 0.0705392 0.101638 0.992317
vn 0.0120446 0.0960497 0.995304
vn -0.0134661 -0.142011 0.989773
vn 0.00563642 -0.0962687 0.995339
vn 0.0681047 0.118634 0.9906
vn 0.0349142 0.157072 0.98697
vn 0.00812407 0.176295 0.984304
vn -0.02203 0.137981 0.99019
vn -0.0210969 0.110249 0.99368
vn 0.024398 0.103524 0.994328
vn 0.0268728 0.101718 0.99445
vn 0.0207059 0.121796 0.992339
vn 0.183015 -0.247733 0.951385
vn 0.120462 -0.188086 0.974737
vn -0.0387655 -0.00719931 0.999222
vn 0.0907142 0.0732543 0.993179
vn 0.0724965 -0.0400507 0.996564
vn 0.00882375 -0.195053 0.980753
vn -0.225083 -0.314134 0.922311
vn -0.246813 -0.338923 0.907863
vn 0.176432 0.0873564 0.980429
vn 0.113413 0.0562493 0.991954
vn 0.100594 0.0598425 0.993126
vn 0.0686156 0.0470411 0.996534
vn 0.0613793 0.0417521 0.997241
vn 0.074643 0.0340469 0.996629
vn 0.0972177 0.0455862 0.994219
vn 0.0946718 0.110878 0.989314
vn -0.0110628 0.0680465 0.997621
vn 0.0309224 0.0218273 0.999283
vn 0.0550012 0.0015337 0.998485
vn 0.0694392 0.020353 0.997379
vn 0.0316716 0.0433877 0.998556
vn -0.022508 0.029506 0.999311
vn -0.141145 0.0857535 0.986268
vn -0.186222 0.0521392 0.981123
vn 0.0741286 0.134976 0.988072
vn 0.0418085 0.0627405 0.997154
vn 0.0110225 0.0296896 0.999498
vn 0.03568 0.0444879 0.998373
vn 0.0605314 0.0726508 0.995519
vn 0.0844886 0.0702159 0.993947
vn 0.138486 0.100899 0.985211
vn -0.0555669 -0.147385 0.987517
vn 0.00630646 0.0596184 0.998201
vn -0.0441938 0.0336927 0.998455
vn -0.0607356 0.0351677 0.997534
vn -0.0351991 0.0464698 0.998299
vn 0.0517105 0.11511 0.992006
vn 0.0962661 0.129047 0.986955
vn -0.0173994 -0.0143931 0.999745
vn -0.240748 -0.33728 0.9101
vn -0.0236173 0.0694751 0.997304
vn -0.0557965 0.00691442 0.998418
vn -0.0371768 0.0465366 0.998224
vn 0.0223959 0.123208 0.992128
vn 0.00863124 0.130907 0.991357
vn -0.0214455 0.0554791 0.99823
vn -0.183133 -0.24129 0.953017
vn -0.108184 -0.269656 0.956861
vn -0.0274639 0.0465059 0.99854
vn -0.0252503 -0.00485992 0.999669
vn -0.00822918 0.108296 0.994085
vn 0.0305 0.138385 0.989909
vn -0.00108346 0.0766141 0.99706
vn -0.0288598 -0.0268084 0.999224
vn -0.0648209 -0.173914 0.982625
vn -0.0521745 -0.220364 0.974021
vn 0.0228449 0.0178639 0.999579
vn 0.02902 -0.016815 0.999437
vn -0.000522309 0.122186 0.992507
vn 0.0198099 0.1524 0.98812
vn 0.03444 0.0190759 0.999225
vn 0.00865329 -0.00792519 0.999931
vn 0.0389637 -0.13309 0.990338
vn 0.0820319 -0.112053 0.99031
vn 0.0284969 0.02623 0.99925
vn 0.0616834 -0.0367404 0.997419
vn 0.0122978 0.0780242 0.996876
vn -0.107864 0.224733 0.968432
vn -0.0561082 0.134605 0.98931
vn 0.0711589 -0.01766 0.997309
vn 0.124365 -0.155696 0.979945
vn 0.102961 -0.137111 0.98519
vn 0.0239205 0.0651061 0.997592
vn 0.033291 0.0115889 0.999379
vn 0.0470676 0.00339063 0.998886
vn -0.06701 0.131244 0.989083
vn -0.120307 0.165338 0.978871
vn -0.0955562 0.110153 0.989311
vn 0.10656 -0.116917 0.987408
vn 0.182881 -0.275904 0.943627
vn 0.021697 0.0643547 0.997691
vn 0.0342356 0.0162013 0.999282
vn 0.0311885 -0.00401652 0.999505
vn 0.0187233 0.023002 0.99956
vn -0.0377874 0.0877408 0.995426
vn -0.114804 0.103198 0.988013
vn -0.150762 0.0823323 0.985136
vn 0.0511707 -0.129658 0.990237
f 100/100/100 4/4/4 13/13/13
f 44/44/44 3/3/3 21/21/21
f 44/44/44 19/19/19 20/20/20
f 60/60/60 19/19/19 52/52/52
f 60/60/60 17/17/17 18/18/18
f 76/76/76 17/17/17 68/68/68
f 84/84/84 16/16/16 76/76/76
f 84/84/84 14/14/14 15/15/15
f 100/100/100 14/14/14 92/92/92
f 11/11/11 93/93/93 85/85/85
f 93/93/93 86/86/86 85/85/85
f 94/94/94 87/87/87 86/86/86
f 87/87/87 96/96/96 88/88/88
f 96/96/96 89/89/89 88/88/88
f 97/97/97 90/90/90 89/89/89
f 90/90/90 99/99/99 91/91/91
f 91/91/91 100/100/100 92/92/92
f 10/10/10 85/85/85 77/77/77
f 77/77/77 86/86/86 78/78/78
f 78/78/78 87/87/87 79/79/79
f 79/79/79 88/88/88 80/80/80
f 88/88/88 81/81/81 80/80/80
f 81/81/81 90/90/90 82/82/82
f 82/82/82 91/91/91 83/83/83
f 91/91/91 84/84/84 83/83/83
f 10/10/10 69/69/69 9/9/9
f 69/69/69 78/78/78 70/70/70
f 70/70/70 79/79/79 71/71/71
f 79/79/79 72/72/72 71/71/71
f 72/72/72 81/81/81 73/73/73
f 73/73/73 82/82/82 74/74/74
f 82/82/82 75/75/75 74/74/74
f 83/83/83 76/76/76 75/75/75
f 9/9/9 61/61/61 8/8/8
f 69/69/69 62/62/62 61/61/61
f 62/62/62 71/71/71 63/63/63
f 63/63/63 72/72/72 64/64/64
f 72/72/72 65/65/65 64/64/64
f 65/65/65 74/74/74 66/66/66
f 66/66/66 75/75/75 67/67/67
f 67/67/67 76/76/76 68/68/68
f 8/8/8 53/53/53 7/7/7
f 53/53/53 62/62/62 54/54/54
f 54/54/54 63/63/63 55/55/55
f 55/55/55 64/64/64 56/56/56
f 64/64/64 57/57/57 56/56/56
f 57/57/57 66/66/66 58/58/58
f 58/58/58 67/67/67 59/59/59
f 59/59/59 68/68/68 60/60/60
f 6/6/6 53/53/53 45/45/45
f 45/45/45 54/54/54 46/46/46
f 54/54/54 47/47/47 46/46/46
f 55/55/55 48/48/48 47/47/47
f 56/56/56 49/49/49 48/48/48
f 49/49/49 58/58/58 50/50/50
f 58/58/58 51/51/51 50/50/50
f 59/59/59 52/52/52 51/51/51
f 6/6/6 37/37/37 5/5/5
f 45/45/45 38/38/38 37/37/37
f 46/46/46 39/39/39 38/38/38
f 39/39/39 48/48/48 40/40/40
f 40/40/40 49/49/49 41/41/41
f 41/41/41 50/50/50 42/42/42
f 50/50/50 43/43/43 42/42/42
f 51/51/51 44/44/44 43/43/43
f 5/5/5 28/28/28 1/1/1
f 28/28/28 38/38/38 27/27/27
f 27/27/27 39/39/39 26/26/26
f 26/26/26 40/40/40 25/25/25
f 40/40/40 24/24/24 25/25/25
f 41/41/41 23/23/23 24/24/24
f 23/23/23 43/43/43 22/22/22
f 43/43/43 21/21/21 22/22/22
f 2/2/2 93/93/93 12/12/12
f 93/93/93 30/30/30 94/94/94
f 30/30/30 95/95/95 94/94/94
f 31/31/31 96/96/96 95/95/95
f 32/32/32 97/97/97 96/96/96
f 33/33/33 98/98/98 97/97/97
f 98/98/98 35/35/35 99/99/99
f 99/99/99 36/36/36 100/100/100
f 100/100/100 36/36/36 4/4/4
f 44/44/44 20/20/20 3/3/3
f 44/44/44 52/52/52 19/19/19
f 60/60/60 18/18/18 19/19/19
f 60/60/60 68/68/68 17/17/17
f 76/76/76 16/16/16 17/17/17
f 84/84/84 15/15/15 16/16/16
f 84/84/84 92/92/92 14/14/14
f 100/100/100 13/13/13 14/14/14
f 11/11/11 12/12/12 93/93/93
f 93/93/93 94/94/94 86/86/86
f 94/94/94 95/95/95 87/87/87
f 87/87/87 95/95/95 96/96/96
f 96/96/96 97/97/97 89/89/89
f 97/97/97 98/98/98 90/90/90
f 90/90/90 98/98/98 99/99/99
f 91/91/91 99/99/99 100/100/100
f 10/10/10 11/11/11 85/85/85
f 77/77/77 85/85/85 86/86/86
f 78/78/78 86/86/86 87/87/87
f 79/79/79 87/87/87 88/88/88
f 88/88/88 89/89/89 81/81/81
f 81/81/81 89/89/89 90/90/90
f 82/82/82 90/90/90 91/91/91
f 91/91/91 92/92/92 84/84/84
f 10/10/10 77/77/77 69/69/69
f 69/69/69 77/77/77 78/78/78
f 70/70/70 78/78/78 79/79/79
f 79/79/79 80/80/80 72/72/72
f 72/72/72 80/80/80 81/81/81
f 73/73/73 81/81/81 82/82/82
f 82/82/82 83/83/83 75/75/75
f 83/83/83 84/84/84 76/76/76
f 9/9/9 69/69/69 61/61/61
f 69/69/69 70/70/70 62/62/62
f 62/62/62 70/70/70 71/71/71
f 63/63/63 71/71/71 72/72/72
f 72/72/72 73/73/73 65/65/65
f 65/65/65 73/73/73 74/74/74
f 66/66/66 74/74/74 75/75/75
f 67/67/67 75/75/75 76/76/76
f 8/8/8 61/61/61 53/53/53
f 53/53/53 61/61/61 62/62/62
f 54/54/54 62/62/62 63/63/63
f 55/55/55 63/63/63 64/64/64
f 64/64/64 65/65/65 57/57/57
f 57/57/57 65/65/65 66/66/66
f 58/58/58 66/66/66 67/67/67
f 59/59/59 67/67/67 68/68/68
f 6/6/6 7/7/7 53/53/53
f 45/45/45 53/53/53 54/54/54
f 54/54/54 55/55/55 47/47/47
f 55/55/55 56/56/56 48/48/48
f 56/56/56 57/57/57 49/49/49
f 49/49/49 57/57/57 58/58/58
f 58/58/58 59/59/59 51/51/51
f 59/59/59 60/60/60 52/52/52
f 6/6/6 45/45/45 37/37/37
f 45/45/45 46/46/46 38/38/38
f 46/46/46 47/47/47 39/39/39
f 39/39/39 47/47/47 48/48/48
f 40/40/40 48/48/48 49/49/49
f 41/41/41 49/49/49 50/50/50
f 50/50/50 51/51/51 43/43/43
f 51/51/51 52/52/52 44/44/44
f 5/5/5 37/37/37 28/28/28
f 28/28/28 37/37/37 38/38/38
f 27/27/27 38/38/38 39/39/39
f 26/26/26 39/39/39 40/40/40
f 40/40/40 41/41/41 24/24/24
f 41/41/41 42/42/42 23/23/23
f 23/23/23 42/42/42 43/43/43
f 43/43/43 44/44/44 21/21/21
f 2/2/2 29/29/29 93/93/93
f 93/93/93 29/29/29 30/30/30
f 30/30/30 31/31/31 95/95/95
f 31/31/31 32/32/32 96/96/96
f 32/32/32 33/33/33 97/97/97
f 33/33/33 34/34/34 98/98/98
f 98/98/98 34/34/34 35/35/35
f 99/99/99 35/35/35 36/36/36
