o GNATVCloth
v -4.97588 -4.97938 0.434032
v 5.03991 -4.99225 0.451457
v -5.01298 5.02105 0.004229
v 4.98702 5.02105 0.004229
v -3.87115 -5.00626 0.402858
v -2.75875 -5.03317 0.372357
v -1.64401 -5.03584 0.275533
v -0.528734 -5.03767 0.271777
v 0.590817 -5.05022 0.280339
v 1.70847 -5.05156 0.320906
v 2.82285 -5.03747 0.276951
v 3.93588 -5.01858 0.321998
v 3.86793 4.95651 0.140069
v 2.75423 4.91975 0.263317
v 1.6475 4.87794 0.410238
v 0.542306 4.86905 0.375053
v -0.564284 4.86697 0.312418
v -1.66164 4.88265 0.203485
v -2.77392 4.89859 0.208548
v -3.88498 4.94404 0.0755448
v -4.9919 3.90709 0.0716942
v -4.97946 2.79171 0.0904253
v -4.97291 1.67691 0.110986
v -4.97051 0.562912 0.137449
v -4.96696 -0.5483 0.203588
v -4.96544 -1.6603 0.267672
v -4.96227 -2.7662 0.390601
v -4.9594 -3.874 0.487617
v 5.02963 -3.88271 0.382822
v 5.02742 -2.77106 0.33744
v 5.02551 -1.66231 0.243722
v 5.01917 -0.552146 0.164424
v 5.01358 0.560258 0.11648
v 5.00446 1.67499 0.0902309
v 4.99593 2.79017 0.0686403
v 4.9866 3.90553 0.0395358
v -3.79603 -3.85764 0.37206
v -3.75725 -3.20848 0.348186
v -3.62585 -1.93004 0.170109
v -4.08177 -0.276991 0.129368
v -4.11359 0.739103 0.161736
v -4.11008 1.52476 0.147648
v -4.05809 2.81878 0.146523
v -3.92719 3.88221 -0.0905125
v -2.67847 -4.01459 0.287651
v -2.75522 -2.75099 0.204127
v -2.63943 -2.15592 0.239384
v -2.72515 -0.614953 0.322208
v -2.76387 0.517477 0.326876
v -2.68944 1.56302 0.231796
v -2.8324 2.88249 -0.0168664
v -2.76102 3.55966 0.156827
v -1.62129 -4.23617 0.296117
v -1.4688 -2.9262 0.278398
v -1.86172 -1.64319 0.365812
v -1.84801 -0.845327 0.344078
v -1.50653 0.637552 0.175297
v -1.96731 1.68525 0.0457129
v -1.72052 2.71725 0.271808
v -1.56019 3.73746 0.241499
v -0.201735 -4.31662 0.290189
v -0.561062 -2.89041 0.299845
v -0.520912 -1.75508 0.312608
v -0.815532 -0.775398 0.264639
v -0.586204 0.437727 0.238479
v -0.359649 1.46624 0.28278
v -0.561801 2.64927 0.359677
v -0.746638 3.54178 0.281059
v 0.765396 -3.89532 0.304629
v 0.832284 -2.60936 0.237267
v 0.547427 -1.82791 0.274328
v 0.632213 -0.493552 0.276891
v 0.601521 0.415117 0.277792
v 0.31262 1.52148 0.28407
v 0.535064 2.48906 0.298923
v 0.546549 3.7753 0.28843
v 1.97488 -3.65379 0.267872
v 1.69602 -2.84159 0.252397
v 1.84398 -1.9281 0.303826
v 2.00562 -0.401735 0.266371
v 1.99015 0.284038 0.264448
v 1.83797 1.54394 0.224099
v 1.42386 2.81901 0.306055
v 1.47826 3.66472 0.262682
v 2.81279 -3.9258 0.286672
v 3.12151 -2.84208 0.325907
v 2.97724 -1.97059 0.281118
v 2.74405 -0.512238 0.316578
v 2.9895 0.282179 0.287828
v 3.08672 1.57856 0.202167
v 2.79033 3.15066 0.238622
v 2.74688 3.51117 0.198922
v 3.93703 -3.97563 0.328424
v 3.68432 -2.72154 0.359508
v 3.90067 -1.68288 0.304973
v 3.83746 -0.729401 0.249407
v 3.89979 0.277871 0.229228
v 4.1911 1.79893 0.151496
v 4.14917 2.75994 0.0669286
v 4.03058 3.8829 -0.0107742
vt 0.0001 0.0001
vt 0.9999 0.0001
vt 0.0001 0.9999
vt 0.9999 0.9999
vt 0.111189 0.0001
vt 0.222278 0.0001
vt 0.333367 0.0001
vt 0.444455 0.0001
vt 0.555544 0.0001
vt 0.666633 0.0001
vt 0.777722 0.0001
vt 0.888811 0.0001
vt 0.888811 0.9999
vt 0.777722 0.9999
vt 0.666633 0.9999
vt 0.555544 0.9999
vt 0.444455 0.9999
vt 0.333367 0.9999
vt 0.222278 0.9999
vt 0.111189 0.9999
vt 0.0001 0.888811
vt 0.0001 0.777722
vt 0.0001 0.666633
vt 0.0001 0.555544
vt 0.0001 0.444456
vt 0.0001 0.333367
vt 0.0001 0.222278
vt 0.0001 0.111189
vt 0.9999 0.111189
vt 0.9999 0.222278
vt 0.9999 0.333367
vt 0.9999 0.444456
vt 0.9999 0.555544
vt 0.9999 0.666633
vt 0.9999 0.777722
vt 0.9999 0.888811
vt 0.11727 0.115399
vt 0.120778 0.180369
vt 0.134636 0.309595
vt 0.088728 0.473895
vt 0.085886 0.575352
vt 0.086211 0.65375
vt 0.092207 0.78313
vt 0.106956 0.892282
vt 0.22987 0.102869
vt 0.221803 0.229552
vt 0.233521 0.288953
vt 0.225541 0.443179
vt 0.221596 0.556167
vt 0.227801 0.661237
vt 0.214896 0.795203
vt 0.22542 0.865181
vt 0.335524 0.082127
vt 0.351143 0.213907
vt 0.311934 0.342467
vt 0.313159 0.422214
vt 0.347791 0.572605
vt 0.301482 0.677733
vt 0.329031 0.783086
vt 0.344903 0.885466
vt 0.476837 0.074882
vt 0.441952 0.218774
vt 0.445749 0.333088
vt 0.416414 0.43099
vt 0.439746 0.552976
vt 0.463203 0.656843
vt 0.444252 0.77653
vt 0.426137 0.866051
vt 0.573419 0.117409
vt 0.581125 0.246686
vt 0.552512 0.326
vt 0.561075 0.459693
vt 0.558356 0.550596
vt 0.530299 0.662189
vt 0.553275 0.760113
vt 0.555478 0.888821
vt 0.694433 0.13996
vt 0.667048 0.221666
vt 0.681985 0.314267
vt 0.698218 0.467249
vt 0.696819 0.535952
vt 0.68253 0.662758
vt 0.642062 0.791726
vt 0.648523 0.877957
vt 0.778029 0.111667
vt 0.809426 0.219523
vt 0.794923 0.307783
vt 0.772028 0.454562
vt 0.796846 0.533374
vt 0.807262 0.663157
vt 0.778581 0.821037
vt 0.775122 0.858219
vt 0.890224 0.104741
vt 0.865679 0.23076
vt 0.887326 0.334104
vt 0.881307 0.429754
vt 0.887973 0.53063
vt 0.918106 0.681428
vt 0.915043 0.778027
vt 0.904815 0.89094
vn 0.026987 -0.0488034 0.998444
vn -0.0856581 0.0276049 0.995942
vn 0.0400285 -0.0448766 0.99819
vn 0.0368258 -0.0441067 0.998348
vn 0.0512352 -0.00120403 0.998686
vn 0.052423 0.0387821 0.997872
vn 0.0449166 -0.0269808 0.998626
vn -0.0006359 -0.0248356 0.999691
vn -0.0167862 -0.0191932 0.999675
vn 0.00435408 0.0123111 0.999915
vn -0.0127855 -0.00786173 0.999887
vn -0.078384 -0.00605514 0.996905
vn 0.119778 -0.120315 0.985483
vn 0.117032 -0.0880196 0.98922
vn 0.0525841 -0.127791 0.990406
vn -0.0229041 -0.0915144 0.99554
vn -0.0522058 -0.0236791 0.998356
vn -0.0467524 0.0290022 0.998485
vn -0.100767 -0.0487242 0.993716
vn -0.0981238 -0.149956 0.983811
vn 0.0815492 0.0926966 0.992349
vn -0.0612636 0.017061 0.997976
vn -0.0439382 0.0155906 0.998913
vn 0.0034937 0.0169122 0.999851
vn 0.0655933 0.0584972 0.99613
vn 0.0807576 0.0716663 0.994154
vn 0.0811716 0.108914 0.990732
vn 0.0728403 0.0223736 0.997093
vn -0.0539783 0.0508873 0.997245
vn 0.00834777 0.0380157 0.999242
vn 0.0555593 0.0724263 0.995825
vn 0.0733569 0.0435096 0.996356
vn 0.0869417 0.0335422 0.995649
vn 0.0784271 0.0220032 0.996677
vn 0.0233696 0.0445184 0.998735
vn -0.0367362 0.0403267 0.998511
vn 0.078108 0.0367477 0.996267
vn 0.0867431 0.0801199 0.993004
vn 0.00489849 0.0429886 0.999064
vn -0.0320312 0.0102918 0.999434
vn -0.0644267 0.0149147 0.997811
vn -0.050025 0.0105151 0.998693
vn 0.0240727 0.0915861 0.995506
vn -0.036684 -0.0135075 0.999236
vn 0.0384391 0.0566257 0.997655
vn -1.77855e-05 0.0350172 0.999387
vn -0.0891174 -0.061098 0.994145
vn -0.0894985 -0.0200417 0.995785
vn 0.00716879 0.0538371 0.998524
vn 0.0582701 0.0995288 0.993327
vn -0.0612991 0.00544116 0.998105
vn -0.180294 -0.0935412 0.979155
vn 0.0108973 0.00374122 0.999934
vn -0.0325738 -0.0169161 0.999326
vn -0.0136648 -0.0165445 0.99977
vn 0.0424697 0.0465883 0.998011
vn 0.0017359 0.0702407 0.997529
vn -0.0142519 0.010812 0.99984
vn -0.137773 -0.0673535 0.988171
vn -0.0545048 0.0133337 0.998424
vn -0.00367125 -0.016814 0.999852
vn 0.00941262 -3.28204e-05 0.999956
vn 0.0183308 0.003621 0.999825
vn 0.0163782 0.047745 0.998725
vn -0.0356039 -0.00489306 0.999354
vn -0.0537169 -0.0286017 0.998146
vn -0.0388626 -0.029775 0.998801
vn -0.0372044 0.0305251 0.998841
vn 0.00379776 0.0169864 0.999849
vn 0.00472091 -0.00686539 0.999965
vn 0.014257 -0.0206588 0.999685
vn -0.00343047 0.0109133 0.999935
vn -0.000988513 0.00419417 0.999991
vn 0.00930016 -0.0185782 0.999784
vn 0.0242394 -0.023369 0.999433
vn 0.00265132 -0.00471882 0.999985
vn -0.00875305 0.0149669 0.99985
vn -0.0158402 0.00233009 0.999872
vn -0.0144751 -0.0191737 0.999711
vn -0.0293422 0.0148357 0.999459
vn -0.0096861 0.026035 0.999614
vn 0.0286597 -0.0109015 0.99953
vn 0.0268107 0.000383476 0.99964
vn 0.0434154 -0.0236525 0.998777
vn -0.0154123 -0.00605936 0.999863
vn -0.0487845 -0.000615678 0.998809
vn -0.0160478 0.0149555 0.999759
vn -0.00200199 0.0093134 0.999955
vn 0.0293806 0.04088 0.998732
vn 0.0381243 0.0395336 0.998491
vn 0.0829261 0.0443167 0.99557
vn 0.102387 0.0373259 0.994044
vn -0.0471436 -0.000192593 0.998888
vn -0.026292 0.0187222 0.999479
vn 0.00720936 0.0623552 0.998028
vn 0.0468496 0.0316478 0.998401
vn 0.0695557 0.0355306 0.996945
vn 0.0515585 0.0496126 0.997437
vn 0.0401453 0.0585454 0.997477
vn 0.0835321 0.00226368 0.996502
f 100/100/100 4/4/4 13/13/13
f 44/44/44 3/3/3 21/21/21
f 44/44/44 19/19/19 20/20/20
f 60/60/60 19/19/19 52/52/52
f 60/60/60 17/17/17 18/18/18
f 76/76/76 17/17/17 68/68/68
f 84/84/84 16/16/16 76/76/76
f 84/84/84 14/14/14 15/15/15
f 100/100/100 14/14/14 92/92/92
f 11/11/11 93/93/93 85/85/85
f 93/93/93 86/86/86 85/85/85
f 94/94/94 87/87/87 86/86/86
f 87/87/87 96/96/96 88/88/88
f 96/96/96 89/89/89 88/88/88
f 97/97/97 90/90/90 89/89/89
f 90/90/90 99/99/99 91/91/91
f 91/91/91 100/100/100 92/92/92
f 10/10/10 85/85/85 77/77/77
f 77/77/77 86/86/86 78/78/78
f 78/78/78 87/87/87 79/79/79
f 79/79/79 88/88/88 80/80/80
f 88/88/88 81/81/81 80/80/80
f 81/81/81 90/90/90 82/82/82
f 82/82/82 91/91/91 83/83/83
f 91/91/91 84/84/84 83/83/83
f 10/10/10 69/69/69 9/9/9
f 69/69/69 78/78/78 70/70/70
f 70/70/70 79/79/79 71/71/71
f 79/79/79 72/72/72 71/71/71
f 72/72/72 81/81/81 73/73/73
f 73/73/73 82/82/82 74/74/74
f 82/82/82 75/75/75 74/74/74
f 83/83/83 76/76/76 75/75/75
f 9/9/9 61/61/61 8/8/8
f 69/69/69 62/62/62 61/61/61
f 62/62/62 71/71/71 63/63/63
f 63/63/63 72/72/72 64/64/64
f 72/72/72 65/65/65 64/64/64
f 65/65/65 74/74/74 66/66/66
f 66/66/66 75/75/75 67/67/67
f 67/67/67 76/76/76 68/68/68
f 8/8/8 53/53/53 7/7/7
f 53/53/53 62/62/62 54/54/54
f 54/54/54 63/63/63 55/55/55
f 55/55/55 64/64/64 56/56/56
f 64/64/64 57/57/57 56/56/56
f 57/57/57 66/66/66 58/58/58
f 58/58/58 67/67/67 59/59/59
f 59/59/59 68/68/68 60/60/60
f 6/6/6 53/53/53 45/45/45
f 45/45/45 54/54/54 46/46/46
f 54/54/54 47/47/47 46/46/46
f 55/55/55 48/48/48 47/47/47
f 56/56/56 49/49/49 48/48/48
f 49/49/49 58/58/58 50/50/50
f 58/58/58 51/51/51 50/50/50
f 59/59/59 52/52/52 51/51/51
f 6/6/6 37/37/37 5/5/5
f 45/45/45 38/38/38 37/37/37
f 46/46/46 39/39/39 38/38/38
f 39/39/39 48/48/48 40/40/40
f 40/40/40 49/49/49 41/41/41
f 41/41/41 50/50/50 42/42/42
f 50/50/50 43/43/43 42/42/42
f 51/51/51 44/44/44 43/43/43
f 5/5/5 28/28/28 1/1/1
f 28/28/28 38/38/38 27/27/27
f 27/27/27 39/39/39 26/26/26
f 26/26/26 40/40/40 25/25/25
f 40/40/40 24/24/24 25/25/25
f 41/41/41 23/23/23 24/24/24
f 23/23/23 43/43/43 22/22/22
f 43/43/43 21/21/21 22/22/22
f 2/2/2 93/93/93 12/12/12
f 93/93/93 30/30/30 94/94/94
f 30/30/30 95/95/95 94/94/94
f 31/31/31 96/96/96 95/95/95
f 32/32/32 97/97/97 96/96/96
f 33/33/33 98/98/98 97/97/97
f 98/98/98 35/35/35 99/99/99
f 99/99/99 36/36/36 100/100/100
f 100/100/100 36/36/36 4/4/4
f 44/44/44 20/20/20 3/3/3
f 44/44/44 52/52/52 19/19/19
f 60/60/60 18/18/18 19/19/19
f 60/60/60 68/68/68 17/17/17
f 76/76/76 16/16/16 17/17/17
f 84/84/84 15/15/15 16/16/16
f 84/84/84 92/92/92 14/14/14
f 100/100/100 13/13/13 14/14/14
f 11/11/11 12/12/12 93/93/93
f 93/93/93 94/94/94 86/86/86
f 94/94/94 95/95/95 87/87/87
f 87/87/87 95/95/95 96/96/96
f 96/96/96 97/97/97 89/89/89
f 97/97/97 98/98/98 90/90/90
f 90/90/90 98/98/98 99/99/99
f 91/91/91 99/99/99 100/100/100
f 10/10/10 11/11/11 85/85/85
f 77/77/77 85/85/85 86/86/86
f 78/78/78 86/86/86 87/87/87
f 79/79/79 87/87/87 88/88/88
f 88/88/88 89/89/89 81/81/81
f 81/81/81 89/89/89 90/90/90
f 82/82/82 90/90/90 91/91/91
f 91/91/91 92/92/92 84/84/84
f 10/10/10 77/77/77 69/69/69
f 69/69/69 77/77/77 78/78/78
f 70/70/70 78/78/78 79/79/79
f 79/79/79 80/80/80 72/72/72
f 72/72/72 80/80/80 81/81/81
f 73/73/73 81/81/81 82/82/82
f 82/82/82 83/83/83 75/75/75
f 83/83/83 84/84/84 76/76/76
f 9/9/9 69/69/69 61/61/61
f 69/69/69 70/70/70 62/62/62
f 62/62/62 70/70/70 71/71/71
f 63/63/63 71/71/71 72/72/72
f 72/72/72 73/73/73 65/65/65
f 65/65/65 73/73/73 74/74/74
f 66/66/66 74/74/74 75/75/75
f 67/67/67 75/75/75 76/76/76
f 8/8/8 61/61/61 53/53/53
f 53/53/53 61/61/61 62/62/62
f 54/54/54 62/62/62 63/63/63
f 55/55/55 63/63/63 64/64/64
f 64/64/64 65/65/65 57/57/57
f 57/57/57 65/65/65 66/66/66
f 58/58/58 66/66/66 67/67/67
f 59/59/59 67/67/67 68/68/68
f 6/6/6 7/7/7 53/53/53
f 45/45/45 53/53/53 54/54/54
f 54/54/54 55/55/55 47/47/47
f 55/55/55 56/56/56 48/48/48
f 56/56/56 57/57/57 49/49/49
f 49/49/49 57/57/57 58/58/58
f 58/58/58 59/59/59 51/51/51
f 59/59/59 60/60/60 52/52/52
f 6/6/6 45/45/45 37/37/37
f 45/45/45 46/46/46 38/38/38
f 46/46/46 47/47/47 39/39/39
f 39/39/39 47/47/47 48/48/48
f 40/40/40 48/48/48 49/49/49
f 41/41/41 49/49/49 50/50/50
f 50/50/50 51/51/51 43/43/43
f 51/51/51 52/52/52 44/44/44
f 5/5/5 37/37/37 28/28/28
f 28/28/28 37/37/37 38/38/38
f 27/27/27 38/38/38 39/39/39
f 26/26/26 39/39/39 40/40/40
f 40/40/40 41/41/41 24/24/24
f 41/41/41 42/42/42 23/23/23
f 23/23/23 42/42/42 43/43/43
f 43/43/43 44/44/44 21/21/21
f 2/2/2 29/29/29 93/93/93
f 93/93/93 29/29/29 30/30/30
f 30/30/30 31/31/31 95/95/95
f 31/31/31 32/32/32 96/96/96
f 32/32/32 33/33/33 97/97/97
f 33/33/33 34/34/34 98/98/98
f 98/98/98 34/34/34 35/35/35
f 99/99/99 35/35/35 36/36/36
