o GNATVCloth
v -5.00523 -5.00518 0.144822
v 5.12285 -5.01049 0.136725
v -5.01298 5.02105 0.004229
v 4.98702 5.02105 0.004229
v -3.88835 -5.04857 0.112432
v -2.76746 -5.08653 0.08093
v -1.63768 -5.11555 0.0996156
v -0.506318 -5.13249 0.0968617
v 0.625416 -5.14135 0.0324462
v 1.75716 -5.13488 0.0668107
v 2.88447 -5.09807 0.0999578
v 4.00599 -5.05444 0.136588
v 3.85911 4.92428 0.111708
v 2.7377 4.83978 0.0834948
v 1.68748 4.80463 0.118343
v 0.605779 4.78235 0.0955742
v -0.488155 4.78879 0.0674666
v -1.60052 4.84594 0.136303
v -2.72709 4.90463 0.0872497
v -3.86494 4.95427 0.0790058
v -4.98132 3.90433 0.0309233
v -4.97114 2.78799 0.0716977
v -4.9688 1.67183 0.104076
v -4.96572 0.555813 0.109958
v -4.96055 -0.559297 0.114584
v -4.95608 -1.67277 0.11342
v -4.95925 -2.78526 0.104938
v -4.9773 -3.89788 0.0969441
v 5.09712 -3.89957 0.130116
v 5.08793 -2.78551 0.0779866
v 5.07876 -1.67275 0.0916469
v 5.07052 -0.559018 0.101554
v 5.05962 0.555968 0.111758
v 5.04753 1.6722 0.106797
v 5.033 2.78867 0.0845869
v 5.01084 3.90484 0.0446808
v -3.80698 -3.89739 0.0874961
v -3.76483 -3.25392 0.0714426
v -3.62029 -1.96245 0.0508949
v -4.07848 -0.300109 0.0586474
v -4.10724 0.716158 0.0651737
v -4.10549 1.50236 0.08039
v -4.04922 2.7947 0.0637435
v -3.90412 3.87997 0.0450488
v -2.67221 -4.07125 0.0773566
v -2.74613 -2.79976 0.0777022
v -2.62748 -2.20931 0.0705951
v -2.70735 -0.667261 0.0739794
v -2.74791 0.466734 0.0645463
v -2.68614 1.51468 0.0676231
v -2.81591 2.86085 0.0682409
v -2.70928 3.55566 0.0755262
v -1.60747 -4.3175 0.0539558
v -1.44353 -3.00496 0.0470697
v -1.83786 -1.70581 0.0936565
v -1.82663 -0.909494 0.0925749
v -1.48157 0.582273 0.0663946
v -1.94741 1.65143 0.0632168
v -1.66909 2.69332 0.0664189
v -1.50388 3.70148 0.0638573
v -0.176207 -4.41573 0.0708014
v -0.52758 -2.98449 0.0563641
v -0.490167 -1.84037 0.0667801
v -0.787291 -0.857808 0.0657935
v -0.55576 0.356804 0.0677409
v -0.322838 1.38382 0.0706644
v -0.513174 2.57932 0.0650651
v -0.689103 3.47554 0.0754003
v 0.801672 -3.99817 0.0549284
v 0.876506 -2.70236 0.0835346
v 0.586783 -1.91561 0.0854465
v 0.668448 -0.587328 0.0475628
v 0.637763 0.321448 0.0722646
v 0.352385 1.43195 0.0776995
v 0.580274 2.40347 0.0741951
v 0.602136 3.67238 0.0698115
v 2.02294 -3.73361 0.0858146
v 1.74374 -2.92772 0.0695408
v 1.89122 -1.99959 0.0609482
v 2.04823 -0.462674 0.0869815
v 2.02927 0.219887 0.0613231
v 1.87733 1.47552 0.0481852
v 1.46791 2.74278 0.0795708
v 1.52588 3.58157 0.0615913
v 2.86986 -3.98802 0.0764582
v 3.1773 -2.89604 0.0798799
v 3.0273 -2.0228 0.0556924
v 2.78984 -0.563142 0.0684317
v 3.03145 0.234244 0.0777413
v 3.12548 1.53362 0.0549073
v 2.81277 3.09466 0.064079
v 2.77007 3.4618 0.0957919
v 4.00132 -4.01161 0.0508659
v 3.74285 -2.7616 0.0911227
v 3.9515 -1.71701 0.0843123
v 3.88575 -0.763764 0.0527462
v 3.94406 0.25066 0.0719131
v 4.22982 1.77577 0.0669347
v 4.18862 2.74198 0.0651473
v 4.06271 3.86523 0.0539975
vt 0.0001 0.0001
vt 0.9999 0.0001
vt 0.0001 0.9999
vt 0.9999 0.9999
vt 0.111189 0.0001
vt 0.222278 0.0001
vt 0.333367 0.0001
vt 0.444455 0.0001
vt 0.555544 0.0001
vt 0.666633 0.0001
vt 0.777722 0.0001
vt 0.888811 0.0001
vt 0.888811 0.9999
vt 0.777722 0.9999
vt 0.666633 0.9999
vt 0.555544 0.9999
vt 0.444455 0.9999
vt 0.333367 0.9999
vt 0.222278 0.9999
vt 0.111189 0.9999
vt 0.0001 0.888811
vt 0.0001 0.777722
vt 0.0001 0.666633
vt 0.0001 0.555544
vt 0.0001 0.444456
vt 0.0001 0.333367
vt 0.0001 0.222278
vt 0.0001 0.111189
vt 0.9999 0.111189
vt 0.9999 0.222278
vt 0.9999 0.333367
vt 0.9999 0.444456
vt 0.9999 0.555544
vt 0.9999 0.666633
vt 0.9999 0.777722
vt 0.9999 0.888811
vt 0.11727 0.115399
vt 0.120778 0.180369
vt 0.134636 0.309595
vt 0.088728 0.473895
vt 0.085886 0.575352
vt 0.086211 0.65375
vt 0.092207 0.78313
vt 0.106956 0.892282
vt 0.22987 0.102869
vt 0.221803 0.229552
vt 0.233521 0.288953
vt 0.225541 0.443179
vt 0.221596 0.556167
vt 0.227801 0.661237
vt 0.214896 0.795203
vt 0.22542 0.865181
vt 0.335524 0.082127
vt 0.351143 0.213907
vt 0.311934 0.342467
vt 0.313159 0.422214
vt 0.347791 0.572605
vt 0.301482 0.677733
vt 0.329031 0.783086
vt 0.344903 0.885466
vt 0.476837 0.074882
vt 0.441952 0.218774
vt 0.445749 0.333088
vt 0.416414 0.43099
vt 0.439746 0.552976
vt 0.463203 0.656843
vt 0.444252 0.77653
vt 0.426137 0.866051
vt 0.573419 0.117409
vt 0.581125 0.246686
vt 0.552512 0.326
vt 0.561075 0.459693
vt 0.558356 0.550596
vt 0.530299 0.662189
vt 0.553275 0.760113
vt 0.555478 0.888821
vt 0.694433 0.13996
vt 0.667048 0.221666
vt 0.681985 0.314267
vt 0.698218 0.467249
vt 0.696819 0.535952
vt 0.68253 0.662758
vt 0.642062 0.791726
vt 0.648523 0.877957
vt 0.778029 0.111667
vt 0.809426 0.219523
vt 0.794923 0.307783
vt 0.772028 0.454562
vt 0.796846 0.533374
vt 0.807262 0.663157
vt 0.778581 0.821037
vt 0.775122 0.858219
vt 0.890224 0.104741
vt 0.865679 0.23076
vt 0.887326 0.334104
vt 0.881307 0.429754
vt 0.887973 0.53063
vt 0.918106 0.681428
vt 0.915043 0.778027
vt 0.904815 0.89094
vn 0.0306083 0.0424072 0.998631
vn -0.0380072 0.0431397 0.998346
vn -0.0396434 -0.00277952 0.99921
vn 0.053142 0.00050063 0.998587
vn 0.0224765 0.027706 0.999363
vn 0.011346 0.02035 0.999729
vn -0.00587246 0.0573418 0.998337
vn 0.0170777 0.0358725 0.99921
vn 0.0176764 -0.00954548 0.999798
vn -0.0192617 -0.00454566 0.999804
vn -0.0142498 0.0413439 0.999043
vn -0.0195305 0.0818231 0.996455
vn 0.0386192 -0.0469666 0.99815
vn 0.00419119 -0.0228658 0.99973
vn 0.00735173 -0.0473191 0.998853
vn -0.0131107 -0.0300127 0.999463
vn 0.00609945 -0.0169797 0.999837
vn 0.00590588 -0.0626768 0.998016
vn -0.0181933 -0.0289976 0.999414
vn -0.0376459 -0.0301989 0.998835
vn -0.0056345 0.026346 0.999637
vn 0.00838438 0.0327946 0.999427
vn 0.0282111 0.00665217 0.99958
vn 0.0553654 0.00164022 0.998465
vn 0.0627558 0.00181965 0.998027
vn 0.0524183 7.26114e-05 0.998625
vn 0.0343223 -0.00103563 0.99941
vn 0.0179505 0.0200834 0.999637
vn -0.0746657 0.0251178 0.996892
vn -0.015938 0.00198165 0.999871
vn -0.0177987 0.00368586 0.999835
vn -0.0369862 -0.0117765 0.999246
vn -0.0399552 0.00164452 0.9992
vn -0.0472232 0.0115922 0.998817
vn -0.0314251 0.0184551 0.999336
vn -0.002428 0.027536 0.999618
vn 0.0133689 0.0183751 0.999742
vn 0.00979624 0.0116714 0.999884
vn 0.00893388 0.00490674 0.999948
vn 0.0291574 9.55668e-05 0.999575
vn 0.0226866 -0.00794373 0.999711
vn 0.0178425 -0.00367411 0.999834
vn 0.00492383 0.0179471 0.999827
vn -0.0229073 -0.00220649 0.999735
vn 0.0141039 0.00518453 0.999887
vn 0.00249321 0.00806143 0.999964
vn -0.00885984 -0.00439213 0.999951
vn -0.0182811 0.000344556 0.999833
vn -0.00386562 0.00335033 0.999987
vn 0.00448189 -0.00230433 0.999987
vn -0.0047203 -0.000503207 0.999989
vn -0.00696746 -0.00668687 0.999953
vn 0.000364579 0.0247031 0.999695
vn 0.00888168 -0.00854364 0.999924
vn 0.0017278 -0.0103128 0.999945
vn 0.00161893 0.00805604 0.999966
vn 0.00202931 0.00493954 0.999986
vn 0.000639247 -0.000359734 1
vn -0.000213479 -0.00384332 0.999993
vn 0.00120334 -0.0200576 0.999798
vn 0.0147664 0.00938394 0.999847
vn -0.0101848 -0.00297175 0.999944
vn 0.00101098 -0.00113055 0.999999
vn 0.0157932 0.00318337 0.99987
vn -0.00157576 -0.0069204 0.999975
vn -0.00656634 0.00197162 0.999976
vn -0.00211576 -0.00235079 0.999995
vn -0.00308541 -0.000772792 0.999995
vn -0.00698049 -0.00976562 0.999928
vn 0.00289535 -0.00834819 0.999961
vn -0.00223137 0.00877626 0.999959
vn -0.00345202 0.00316461 0.999989
vn 0.00507664 -0.00972491 0.99994
vn 0.00270443 -0.000222185 0.999996
vn -0.00190646 -0.00132534 0.999997
vn -0.00201079 -0.00333717 0.999992
vn -0.00851546 -0.000303905 0.999964
vn -0.00168821 0.00780139 0.999968
vn 0.00882821 0.000770744 0.999961
vn -0.00163719 0.0104289 0.999944
vn -0.00369286 0.0116303 0.999925
vn 0.00802258 -0.00423709 0.999959
vn 0.00583084 0.00041876 0.999983
vn -0.00349763 -0.0225952 0.999739
vn 0.00626646 0.00244309 0.999977
vn -0.00345319 0.00290652 0.99999
vn -0.0124628 0.0124906 0.999844
vn 0.0109027 -0.00289052 0.999936
vn -0.00171782 -0.0010566 0.999998
vn -0.00673956 0.00561693 0.999961
vn 0.00541493 -0.0244568 0.999686
vn 0.00589634 -0.0379701 0.999261
vn -0.0181927 0.0201572 0.999631
vn -0.0106902 -0.00468385 0.999932
vn -0.0160721 0.0137304 0.999777
vn -0.0136066 -0.000584774 0.999907
vn -0.0182111 -0.00204672 0.999832
vn -0.0298976 0.00690771 0.999529
vn -0.00840527 0.00870328 0.999927
vn 0.0261586 -0.0151647 0.999543
f 100/100/100 4/4/4 13/13/13
f 44/44/44 3/3/3 21/21/21
f 44/44/44 19/19/19 20/20/20
f 60/60/60 19/19/19 52/52/52
f 60/60/60 17/17/17 18/18/18
f 76/76/76 17/17/17 68/68/68
f 84/84/84 16/16/16 76/76/76
f 84/84/84 14/14/14 15/15/15
f 100/100/100 14/14/14 92/92/92
f 11/11/11 93/93/93 85/85/85
f 93/93/93 86/86/86 85/85/85
f 94/94/94 87/87/87 86/86/86
f 87/87/87 96/96/96 88/88/88
f 96/96/96 89/89/89 88/88/88
f 97/97/97 90/90/90 89/89/89
f 90/90/90 99/99/99 91/91/91
f 91/91/91 100/100/100 92/92/92
f 10/10/10 85/85/85 77/77/77
f 77/77/77 86/86/86 78/78/78
f 78/78/78 87/87/87 79/79/79
f 79/79/79 88/88/88 80/80/80
f 88/88/88 81/81/81 80/80/80
f 81/81/81 90/90/90 82/82/82
f 82/82/82 91/91/91 83/83/83
f 91/91/91 84/84/84 83/83/83
f 10/10/10 69/69/69 9/9/9
f 69/69/69 78/78/78 70/70/70
f 70/70/70 79/79/79 71/71/71
f 79/79/79 72/72/72 71/71/71
f 72/72/72 81/81/81 73/73/73
f 73/73/73 82/82/82 74/74/74
f 82/82/82 75/75/75 74/74/74
f 83/83/83 76/76/76 75/75/75
f 9/9/9 61/61/61 8/8/8
f 69/69/69 62/62/62 61/61/61
f 62/62/62 71/71/71 63/63/63
f 63/63/63 72/72/72 64/64/64
f 72/72/72 65/65/65 64/64/64
f 65/65/65 74/74/74 66/66/66
f 66/66/66 75/75/75 67/67/67
f 67/67/67 76/76/76 68/68/68
f 8/8/8 53/53/53 7/7/7
f 53/53/53 62/62/62 54/54/54
f 54/54/54 63/63/63 55/55/55
f 55/55/55 64/64/64 56/56/56
f 64/64/64 57/57/57 56/56/56
f 57/57/57 66/66/66 58/58/58
f 58/58/58 67/67/67 59/59/59
f 59/59/59 68/68/68 60/60/60
f 6/6/6 53/53/53 45/45/45
f 45/45/45 54/54/54 46/46/46
f 54/54/54 47/47/47 46/46/46
f 55/55/55 48/48/48 47/47/47
f 56/56/56 49/49/49 48/48/48
f 49/49/49 58/58/58 50/50/50
f 58/58/58 51/51/51 50/50/50
f 59/59/59 52/52/52 51/51/51
f 6/6/6 37/37/37 5/5/5
f 45/45/45 38/38/38 37/37/37
f 46/46/46 39/39/39 38/38/38
f 39/39/39 48/48/48 40/40/40
f 40/40/40 49/49/49 41/41/41
f 41/41/41 50/50/50 42/42/42
f 50/50/50 43/43/43 42/42/42
f 51/51/51 44/44/44 43/43/43
f 5/5/5 28/28/28 1/1/1
f 28/28/28 38/38/38 27/27/27
f 27/27/27 39/39/39 26/26/26
f 26/26/26 40/40/40 25/25/25
f 40/40/40 24/24/24 25/25/25
f 41/41/41 23/23/23 24/24/24
f 23/23/23 43/43/43 22/22/22
f 43/43/43 21/21/21 22/22/22
f 2/2/2 93/93/93 12/12/12
f 93/93/93 30/30/30 94/94/94
f 30/30/30 95/95/95 94/94/94
f 31/31/31 96/96/96 95/95/95
f 32/32/32 97/97/97 96/96/96
f 33/33/33 98/98/98 97/97/97
f 98/98/98 35/35/35 99/99/99
f 99/99/99 36/36/36 100/100/100
f 100/100/100 36/36/36 4/4/4
f 44/44/44 20/20/20 3/3/3
f 44/44/44 52/52/52 19/19/19
f 60/60/60 18/18/18 19/19/19
f 60/60/60 68/68/68 17/17/17
f 76/76/76 16/16/16 17/17/17
f 84/84/84 15/15/15 16/16/16
f 84/84/84 92/92/92 14/14/14
f 100/100/100 13/13/13 14/14/14
f 11/11/11 12/12/12 93/93/93
f 93/93/93 94/94/94 86/86/86
f 94/94/94 95/95/95 87/87/87
f 87/87/87 95/95/95 96/96/96
f 96/96/96 97/97/97 89/89/89
f 97/97/97 98/98/98 90/90/90
f 90/90/90 98/98/98 99/99/99
f 91/91/91 99/99/99 100/100/100
f 10/10/10 11/11/11 85/85/85
f 77/77/77 85/85/85 86/86/86
f 78/78/78 86/86/86 87/87/87
f 79/79/79 87/87/87 88/88/88
f 88/88/88 89/89/89 81/81/81
f 81/81/81 89/89/89 90/90/90
f 82/82/82 90/90/90 91/91/91
f 91/91/91 92/92/92 84/84/84
f 10/10/10 77/77/77 69/69/69
f 69/69/69 77/77/77 78/78/78
f 70/70/70 78/78/78 79/79/79
f 79/79/79 80/80/80 72/72/72
f 72/72/72 80/80/80 81/81/81
f 73/73/73 81/81/81 82/82/82
f 82/82/82 83/83/83 75/75/75
f 83/83/83 84/84/84 76/76/76
f 9/9/9 69/69/69 61/61/61
f 69/69/69 70/70/70 62/62/62
f 62/62/62 70/70/70 71/71/71
f 63/63/63 71/71/71 72/72/72
f 72/72/72 73/73/73 65/65/65
f 65/65/65 73/73/73 74/74/74
f 66/66/66 74/74/74 75/75/75
f 67/67/67 75/75/75 76/76/76
f 8/8/8 61/61/61 53/53/53
f 53/53/53 61/61/61 62/62/62
f 54/54/54 62/62/62 63/63/63
f 55/55/55 63/63/63 64/64/64
f 64/64/64 65/65/65 57/57/57
f 57/57/57 65/65/65 66/66/66
f 58/58/58 66/66/66 67/67/67
f 59/59/59 67/67/67 68/68/68
f 6/6/6 7/7/7 53/53/53
f 45/45/45 53/53/53 54/54/54
f 54/54/54 55/55/55 47/47/47
f 55/55/55 56/56/56 48/48/48
f 56/56/56 57/57/57 49/49/49
f 49/49/49 57/57/57 58/58/58
f 58/58/58 59/59/59 51/51/51
f 59/59/59 60/60/60 52/52/52
f 6/6/6 45/45/45 37/37/37
f 45/45/45 46/46/46 38/38/38
f 46/46/46 47/47/47 39/39/39
f 39/39/39 47/47/47 48/48/48
f 40/40/40 48/48/48 49/49/49
f 41/41/41 49/49/49 50/50/50
f 50/50/50 51/51/51 43/43/43
f 51/51/51 52/52/52 44/44/44
f 5/5/5 37/37/37 28/28/28
f 28/28/28 37/37/37 38/38/38
f 27/27/27 38/38/38 39/39/39
f 26/26/26 39/39/39 40/40/40
f 40/40/40 41/41/41 24/24/24
f 41/41/41 42/42/42 23/23/23
f 23/23/23 42/42/42 43/43/43
f 43/43/43 44/44/44 21/21/21
f 2/2/2 29/29/29 93/93/93
f 93/93/93 29/29/29 30/30/30
f 30/30/30 31/31/31 95/95/95
f 31/31/31 32/32/32 96/96/96
f 32/32/32 33/33/33 97/97/97
f 33/33/33 34/34/34 98/98/98
f 98/98/98 34/34/34 35/35/35
f 99/99/99 35/35/35 36/36/36
