o GNATVCloth
v -5.08429 -4.9749 0.53488
v 4.96507 -4.99024 0.437887
v -5.01298 5.02105 0.004229
v 4.98702 5.02105 0.004229
v -3.9724 -4.99803 0.537332
v -2.86212 -5.02567 0.457228
v -1.74246 -5.04765 0.454487
v -0.620597 -5.05994 0.448343
v 0.501183 -5.06101 0.409742
v 1.62212 -5.04582 0.399461
v 2.73969 -5.02746 0.445579
v 3.8535 -5.00069 0.481042
v 3.85388 4.95024 0.147717
v 2.73002 4.90442 0.285033
v 1.60474 4.85103 0.37481
v 0.485704 4.79186 0.467088
v -0.63547 4.75303 0.43605
v -1.74568 4.73034 0.268114
v -2.83745 4.77523 0.527996
v -3.92021 4.88723 0.265646
v -4.99766 3.90886 0.0832901
v -4.99846 2.79487 0.119413
v -5.00259 1.68185 0.159355
v -5.0148 0.569698 0.206823
v -5.02629 -0.540912 0.275761
v -5.03668 -1.65033 0.358644
v -5.04674 -2.75782 0.456788
v -5.062 -3.86346 0.547222
v 4.95377 -3.88293 0.334117
v 4.94834 -2.76938 0.300192
v 4.9443 -1.65777 0.273875
v 4.942 -0.543942 0.239543
v 4.94089 0.569583 0.215136
v 4.94326 1.68206 0.179753
v 4.95152 2.79524 0.144246
v 4.95781 3.90707 0.0608113
v -3.89839 -3.85702 0.383865
v -3.85937 -3.21395 0.291804
v -3.70315 -1.9265 0.208489
v -4.13991 -0.270324 0.180128
v -4.15703 0.74299 0.204792
v -4.14338 1.52602 0.165532
v -4.07552 2.81889 0.100514
v -3.94078 3.88754 -0.125448
v -2.77542 -4.01535 0.283224
v -2.84022 -2.74618 0.245689
v -2.71854 -2.1548 0.288007
v -2.78326 -0.611551 0.334484
v -2.80469 0.521039 0.312232
v -2.72427 1.55816 0.148207
v -2.86045 2.87065 -0.136681
v -2.81968 3.4868 0.203429
v -1.7163 -4.24077 0.343362
v -1.55227 -2.92623 0.385776
v -1.9386 -1.63754 0.441634
v -1.91201 -0.842772 0.394413
v -1.55289 0.62892 0.104087
v -2.00307 1.6767 -0.0423399
v -1.75785 2.70793 0.17172
v -1.61878 3.64744 0.368455
v -0.295144 -4.31796 0.37865
v -0.640981 -2.88782 0.402175
v -0.596315 -1.74572 0.463944
v -0.880503 -0.778745 0.330808
v -0.638564 0.428881 0.203658
v -0.400782 1.46701 0.221951
v -0.601503 2.64836 0.288369
v -0.794018 3.48462 0.37008
v 0.675709 -3.89094 0.383186
v 0.758244 -2.60201 0.452726
v 0.474681 -1.81393 0.427233
v 0.564213 -0.492248 0.34992
v 0.540169 0.409565 0.290631
v 0.262713 1.51861 0.335336
v 0.497044 2.49705 0.339745
v 0.509902 3.71753 0.43784
v 1.89058 -3.64364 0.450106
v 1.61327 -2.83959 0.334982
v 1.77424 -1.91593 0.417559
v 1.93261 -0.384906 0.335351
v 1.917 0.270743 0.12895
v 1.79202 1.53452 0.233669
v 1.38822 2.81607 0.295578
v 1.45025 3.64326 0.369873
v 2.73298 -3.9132 0.4242
v 3.04089 -2.83098 0.34236
v 2.89357 -1.95562 0.24005
v 2.67195 -0.496362 0.361492
v 2.91246 0.293712 0.259508
v 3.02728 1.57065 0.0051502
v 2.74313 3.14028 0.0828114
v 2.71505 3.49827 0.156508
v 3.85573 -3.96583 0.329281
v 3.60434 -2.70879 0.336843
v 3.81778 -1.67142 0.293851
v 3.76001 -0.715757 0.26401
v 3.82401 0.294763 0.311268
v 4.12433 1.8088 0.182702
v 4.11355 2.75654 -0.00837193
v 4.00482 3.88306 -0.0442275
vt 0.0001 0.0001
vt 0.9999 0.0001
vt 0.0001 0.9999
vt 0.9999 0.9999
vt 0.111189 0.0001
vt 0.222278 0.0001
vt 0.333367 0.0001
vt 0.444455 0.0001
vt 0.555544 0.0001
vt 0.666633 0.0001
vt 0.777722 0.0001
vt 0.888811 0.0001
vt 0.888811 0.9999
vt 0.777722 0.9999
vt 0.666633 0.9999
vt 0.555544 0.9999
vt 0.444455 0.9999
vt 0.333367 0.9999
vt 0.222278 0.9999
vt 0.111189 0.9999
vt 0.0001 0.888811
vt 0.0001 0.777722
vt 0.0001 0.666633
vt 0.0001 0.555544
vt 0.0001 0.444456
vt 0.0001 0.333367
vt 0.0001 0.222278
vt 0.0001 0.111189
vt 0.9999 0.111189
vt 0.9999 0.222278
vt 0.9999 0.333367
vt 0.9999 0.444456
vt 0.9999 0.555544
vt 0.9999 0.666633
vt 0.9999 0.777722
vt 0.9999 0.888811
vt 0.11727 0.115399
vt 0.120778 0.180369
vt 0.134636 0.309595
vt 0.088728 0.473895
vt 0.085886 0.575352
vt 0.086211 0.65375
vt 0.092207 0.78313
vt 0.106956 0.892282
vt 0.22987 0.102869
vt 0.221803 0.229552
vt 0.233521 0.288953
vt 0.225541 0.443179
vt 0.221596 0.556167
vt 0.227801 0.661237
vt 0.214896 0.795203
vt 0.22542 0.865181
vt 0.335524 0.082127
vt 0.351143 0.213907
vt 0.311934 0.342467
vt 0.313159 0.422214
vt 0.347791 0.572605
vt 0.301482 0.677733
vt 0.329031 0.783086
vt 0.344903 0.885466
vt 0.476837 0.074882
vt 0.441952 0.218774
vt 0.445749 0.333088
vt 0.416414 0.43099
vt 0.439746 0.552976
vt 0.463203 0.656843
vt 0.444252 0.77653
vt 0.426137 0.866051
vt 0.573419 0.117409
vt 0.581125 0.246686
vt 0.552512 0.326
vt 0.561075 0.459693
vt 0.558356 0.550596
vt 0.530299 0.662189
vt 0.553275 0.760113
vt 0.555478 0.888821
vt 0.694433 0.13996
vt 0.667048 0.221666
vt 0.681985 0.314267
vt 0.698218 0.467249
vt 0.696819 0.535952
vt 0.68253 0.662758
vt 0.642062 0.791726
vt 0.648523 0.877957
vt 0.778029 0.111667
vt 0.809426 0.219523
vt 0.794923 0.307783
vt 0.772028 0.454562
vt 0.796846 0.533374
vt 0.807262 0.663157
vt 0.778581 0.821037
vt 0.775122 0.858219
vt 0.890224 0.104741
vt 0.865679 0.23076
vt 0.887326 0.334104
vt 0.881307 0.429754
vt 0.887973 0.53063
vt 0.918106 0.681428
vt 0.915043 0.778027
vt 0.904815 0.89094
vn -0.00243505 -0.0110556 0.999936
vn 0.0128103 0.119126 0.992797
vn -0.0334258 -0.144751 0.988903
vn 0.0116493 -0.0525736 0.998549
vn 0.0700633 0.0804379 0.994294
vn 0.0427088 0.149038 0.987909
vn 0.00600857 0.13624 0.990658
vn 0.00737397 0.105572 0.994384
vn 0.00919245 0.041657 0.99909
vn -0.016056 -0.00646267 0.99985
vn 0.00288825 0.0614207 0.998108
vn 0.00102788 0.145093 0.989418
vn 0.129916 -0.157692 0.978905
vn 0.135637 -0.0890867 0.986745
vn 0.0815712 -0.0145078 0.996562
vn 0.0421523 -0.022714 0.998853
vn -0.0583674 -0.0127902 0.998213
vn 0.0427605 0.0971468 0.994351
vn -0.122447 -0.184789 0.97512
vn -0.256402 -0.347566 0.901918
vn 0.13687 0.095205 0.986003
vn 0.0195737 0.0340866 0.999227
vn 0.00426839 0.0446684 0.998993
vn 0.0299475 0.026473 0.999201
vn 0.0867521 0.0671204 0.993966
vn 0.111936 0.0696576 0.991271
vn 0.1501 0.0698844 0.986198
vn 0.110051 0.0809457 0.990624
vn -0.00906364 0.0618313 0.998046
vn 0.0167067 0.0222656 0.999613
vn 0.0169906 0.0289399 0.999437
vn 0.0414732 0.00143922 0.999139
vn 0.0523986 0.0415867 0.99776
vn 0.00851907 0.0317935 0.999458
vn -0.120086 0.100202 0.987694
vn -0.134377 0.0496824 0.989684
vn 0.113355 0.135584 0.98426
vn 0.102383 0.0808168 0.991457
vn 0.0179534 0.0206702 0.999625
vn -0.000852244 0.0197083 0.999805
vn -0.0202964 0.0422253 0.998902
vn 0.00648457 0.0499236 0.998732
vn 0.0869508 0.108634 0.990272
vn -0.104618 -0.140718 0.984507
vn 0.0104752 0.0831806 0.996479
vn -0.0530371 0.00364784 0.998586
vn -0.120723 -0.0508948 0.991381
vn -0.0999786 0.00211771 0.994987
vn 0.0314642 0.0951504 0.994966
vn 0.0997936 0.142711 0.984721
vn -0.073656 -0.0659452 0.995101
vn -0.254133 -0.311998 0.915464
vn -0.0188182 0.0671375 0.997566
vn -0.0676371 -0.0379389 0.996988
vn -0.0551193 0.0138368 0.998384
vn 0.0281308 0.0954201 0.995039
vn 0.000181479 0.123644 0.992326
vn -0.0189561 0.0354764 0.999191
vn -0.160285 -0.212619 0.963899
vn -0.0302137 -0.0833942 0.996059
vn -0.00485089 0.0333971 0.99943
vn -0.0129554 -0.0302411 0.999459
vn -0.00191219 0.0264188 0.999649
vn -0.00885963 0.122103 0.992478
vn -0.0902997 0.0443563 0.994926
vn -0.138611 -0.00217626 0.990345
vn -0.0889208 -0.105573 0.990428
vn -0.0471838 -0.104486 0.993406
vn -0.00543587 0.000788281 0.999985
vn 0.0343245 -0.0333709 0.998853
vn 0.0101914 0.0224756 0.999695
vn 0.00255124 0.104888 0.994481
vn 0.030595 -0.00437889 0.999522
vn -0.0568498 -0.00897734 0.998342
vn -0.0133286 -0.0399868 0.999111
vn 0.00742613 -0.0656556 0.997815
vn -0.0130912 0.0501089 0.998658
vn 0.0484325 0.0147239 0.998718
vn 0.0594959 -0.0110375 0.998168
vn -0.00557125 0.178864 0.983858
vn 0.0218062 0.131668 0.991054
vn 0.117737 -0.0318188 0.992535
vn 0.107273 -0.0609729 0.992358
vn 0.110757 -0.0759659 0.99094
vn 0.0397443 0.0221854 0.998964
vn 0.0201431 0.0795276 0.996629
vn 0.031404 0.00983929 0.999458
vn 0.0320179 0.0824024 0.996085
vn -0.0541418 0.125651 0.990596
vn -0.021482 0.0869414 0.995982
vn 0.142702 -0.0698947 0.987295
vn 0.170598 -0.138667 0.975535
vn 0.0242392 0.0600746 0.9979
vn -0.00472992 0.0403447 0.999175
vn -0.0156593 0.035109 0.999261
vn 0.0173077 0.00318262 0.999845
vn -0.0201468 0.0538658 0.998345
vn -0.0807217 0.107196 0.990956
vn -0.0911258 0.0807158 0.992563
vn 0.0723001 -0.0687323 0.995012
f 100/100/100 4/4/4 13/13/13
f 44/44/44 3/3/3 21/21/21
f 44/44/44 19/19/19 20/20/20
f 60/60/60 19/19/19 52/52/52
f 60/60/60 17/17/17 18/18/18
f 76/76/76 17/17/17 68/68/68
f 84/84/84 16/16/16 76/76/76
f 84/84/84 14/14/14 15/15/15
f 100/100/100 14/14/14 92/92/92
f 11/11/11 93/93/93 85/85/85
f 93/93/93 86/86/86 85/85/85
f 94/94/94 87/87/87 86/86/86
f 87/87/87 96/96/96 88/88/88
f 96/96/96 89/89/89 88/88/88
f 97/97/97 90/90/90 89/89/89
f 90/90/90 99/99/99 91/91/91
f 91/91/91 100/100/100 92/92/92
f 10/10/10 85/85/85 77/77/77
f 77/77/77 86/86/86 78/78/78
f 78/78/78 87/87/87 79/79/79
f 79/79/79 88/88/88 80/80/80
f 88/88/88 81/81/81 80/80/80
f 81/81/81 90/90/90 82/82/82
f 82/82/82 91/91/91 83/83/83
f 91/91/91 84/84/84 83/83/83
f 10/10/10 69/69/69 9/9/9
f 69/69/69 78/78/78 70/70/70
f 70/70/70 79/79/79 71/71/71
f 79/79/79 72/72/72 71/71/71
f 72/72/72 81/81/81 73/73/73
f 73/73/73 82/82/82 74/74/74
f 82/82/82 75/75/75 74/74/74
f 83/83/83 76/76/76 75/75/75
f 9/9/9 61/61/61 8/8/8
f 69/69/69 62/62/62 61/61/61
f 62/62/62 71/71/71 63/63/63
f 63/63/63 72/72/72 64/64/64
f 72/72/72 65/65/65 64/64/64
f 65/65/65 74/74/74 66/66/66
f 66/66/66 75/75/75 67/67/67
f 67/67/67 76/76/76 68/68/68
f 8/8/8 53/53/53 7/7/7
f 53/53/53 62/62/62 54/54/54
f 54/54/54 63/63/63 55/55/55
f 55/55/55 64/64/64 56/56/56
f 64/64/64 57/57/57 56/56/56
f 57/57/57 66/66/66 58/58/58
f 58/58/58 67/67/67 59/59/59
f 59/59/59 68/68/68 60/60/60
f 6/6/6 53/53/53 45/45/45
f 45/45/45 54/54/54 46/46/46
f 54/54/54 47/47/47 46/46/46
f 55/55/55 48/48/48 47/47/47
f 56/56/56 49/49/49 48/48/48
f 49/49/49 58/58/58 50/50/50
f 58/58/58 51/51/51 50/50/50
f 59/59/59 52/52/52 51/51/51
f 6/6/6 37/37/37 5/5/5
f 45/45/45 38/38/38 37/37/37
f 46/46/46 39/39/39 38/38/38
f 39/39/39 48/48/48 40/40/40
f 40/40/40 49/49/49 41/41/41
f 41/41/41 50/50/50 42/42/42
f 50/50/50 43/43/43 42/42/42
f 51/51/51 44/44/44 43/43/43
f 5/5/5 28/28/28 1/1/1
f 28/28/28 38/38/38 27/27/27
f 27/27/27 39/39/39 26/26/26
f 26/26/26 40/40/40 25/25/25
f 40/40/40 24/24/24 25/25/25
f 41/41/41 23/23/23 24/24/24
f 23/23/23 43/43/43 22/22/22
f 43/43/43 21/21/21 22/22/22
f 2/2/2 93/93/93 12/12/12
f 93/93/93 30/30/30 94/94/94
f 30/30/30 95/95/95 94/94/94
f 31/31/31 96/96/96 95/95/95
f 32/32/32 97/97/97 96/96/96
f 33/33/33 98/98/98 97/97/97
f 98/98/98 35/35/35 99/99/99
f 99/99/99 36/36/36 100/100/100
f 100/100/100 36/36/36 4/4/4
f 44/44/44 20/20/20 3/3/3
f 44/44/44 52/52/52 19/19/19
f 60/60/60 18/18/18 19/19/19
f 60/60/60 68/68/68 17/17/17
f 76/76/76 16/16/16 17/17/17
f 84/84/84 15/15/15 16/16/16
f 84/84/84 92/92/92 14/14/14
f 100/100/100 13/13/13 14/14/14
f 11/11/11 12/12/12 93/93/93
f 93/93/93 94/94/94 86/86/86
f 94/94/94 95/95/95 87/87/87
f 87/87/87 95/95/95 96/96/96
f 96/96/96 97/97/97 89/89/89
f 97/97/97 98/98/98 90/90/90
f 90/90/90 98/98/98 99/99/99
f 91/91/91 99/99/99 100/100/100
f 10/10/10 11/11/11 85/85/85
f 77/77/77 85/85/85 86/86/86
f 78/78/78 86/86/86 87/87/87
f 79/79/79 87/87/87 88/88/88
f 88/88/88 89/89/89 81/81/81
f 81/81/81 89/89/89 90/90/90
f 82/82/82 90/90/90 91/91/91
f 91/91/91 92/92/92 84/84/84
f 10/10/10 77/77/77 69/69/69
f 69/69/69 77/77/77 78/78/78
f 70/70/70 78/78/78 79/79/79
f 79/79/79 80/80/80 72/72/72
f 72/72/72 80/80/80 81/81/81
f 73/73/73 81/81/81 82/82/82
f 82/82/82 83/83/83 75/75/75
f 83/83/83 84/84/84 76/76/76
f 9/9/9 69/69/69 61/61/61
f 69/69/69 70/70/70 62/62/62
f 62/62/62 70/70/70 71/71/71
f 63/63/63 71/71/71 72/72/72
f 72/72/72 73/73/73 65/65/65
f 65/65/65 73/73/73 74/74/74
f 66/66/66 74/74/74 75/75/75
f 67/67/67 75/75/75 76/76/76
f 8/8/8 61/61/61 53/53/53
f 53/53/53 61/61/61 62/62/62
f 54/54/54 62/62/62 63/63/63
f 55/55/55 63/63/63 64/64/64
f 64/64/64 65/65/65 57/57/57
f 57/57/57 65/65/65 66/66/66
f 58/58/58 66/66/66 67/67/67
f 59/59/59 67/67/67 68/68/68
f 6/6/6 7/7/7 53/53/53
f 45/45/45 53/53/53 54/54/54
f 54/54/54 55/55/55 47/47/47
f 55/55/55 56/56/56 48/48/48
f 56/56/56 57/57/57 49/49/49
f 49/49/49 57/57/57 58/58/58
f 58/58/58 59/59/59 51/51/51
f 59/59/59 60/60/60 52/52/52
f 6/6/6 45/45/45 37/37/37
f 45/45/45 46/46/46 38/38/38
f 46/46/46 47/47/47 39/39/39
f 39/39/39 47/47/47 48/48/48
f 40/40/40 48/48/48 49/49/49
f 41/41/41 49/49/49 50/50/50
f 50/50/50 51/51/51 43/43/43
f 51/51/51 52/52/52 44/44/44
f 5/5/5 37/37/37 28/28/28
f 28/28/28 37/37/37 38/38/38
f 27/27/27 38/38/38 39/39/39
f 26/26/26 39/39/39 40/40/40
f 40/40/40 41/41/41 24/24/24
f 41/41/41 42/42/42 23/23/23
f 23/23/23 42/42/42 43/43/43
f 43/43/43 44/44/44 21/21/21
f 2/2/2 29/29/29 93/93/93
f 93/93/93 29/29/29 30/30/30
f 30/30/30 31/31/31 95/95/95
f 31/31/31 32/32/32 96/96/96
f 32/32/32 33/33/33 97/97/97
f 33/33/33 34/34/34 98/98/98
f 98/98/98 34/34/34 35/35/35
f 99/99/99 35/35/35 36/36/36
