o GNATVCloth
v -5.0143 -4.96103 0.623617
v 5.05257 -4.99045 0.374831
v -5.01298 5.02105 0.004229
v 4.98702 5.02105 0.004229
v -3.91841 -5.01271 0.433961
v -2.80058 -5.05494 0.449243
v -1.67843 -5.0819 0.429208
v -0.553832 -5.10108 0.410991
v 0.57259 -5.10043 0.367035
v 1.69758 -5.09239 0.358991
v 2.81964 -5.05962 0.372305
v 3.93851 -5.02527 0.324531
v 3.87692 4.87247 0.226211
v 2.77277 4.7652 0.436342
v 1.65007 4.73231 0.422175
v 0.530412 4.70243 0.465017
v -0.576587 4.65413 0.614362
v -1.68841 4.70679 0.499036
v -2.80956 4.73455 0.465406
v -3.90672 4.85702 0.23783
v -4.97308 3.90987 0.100806
v -4.96282 2.79488 0.124823
v -4.96192 1.68073 0.149303
v -4.9634 0.567586 0.169672
v -4.96924 -0.544848 0.217528
v -4.97681 -1.65634 0.273081
v -4.98788 -2.76974 0.3283
v -5.0054 -3.87697 0.412661
v 5.02842 -3.88307 0.296408
v 5.00982 -2.7746 0.206479
v 4.9948 -1.66057 0.173446
v 4.98212 -0.5491 0.158658
v 4.9727 0.563681 0.147784
v 4.96875 1.67744 0.136287
v 4.97029 2.7924 0.124899
v 4.96264 3.90675 0.070435
v -3.8313 -3.8687 0.417519
v -3.78531 -3.22085 0.370812
v -3.63217 -1.93468 0.267709
v -4.08038 -0.278122 0.200282
v -4.10558 0.737801 0.228986
v -4.09877 1.52332 0.173869
v -4.0387 2.81532 0.0899584
v -3.93526 3.87251 -0.190361
v -2.7074 -4.03518 0.354199
v -2.76741 -2.76631 0.265585
v -2.64301 -2.17648 0.281417
v -2.71041 -0.630312 0.254747
v -2.74494 0.49903 0.201195
v -2.68163 1.53135 0.0101905
v -2.8601 2.83745 -0.292585
v -2.7661 3.48785 -0.0410883
v -1.64821 -4.26783 0.389369
v -1.47799 -2.95607 0.406727
v -1.85691 -1.65934 0.385663
v -1.83142 -0.869404 0.282129
v -1.53765 0.557575 -0.211172
v -2.00746 1.61536 -0.323278
v -1.73334 2.63772 -0.0938091
v -1.57431 3.6057 0.18636
v -0.224701 -4.36094 0.3725
v -0.568472 -2.93209 0.322774
v -0.527624 -1.80424 0.201098
v -0.832145 -0.851656 -0.0149891
v -0.609315 0.345813 -0.239769
v -0.377869 1.3684 -0.239543
v -0.576468 2.54049 -0.0387833
v -0.75542 3.40802 0.175527
v 0.746897 -3.94617 0.321154
v 0.824582 -2.65697 0.273518
v 0.538468 -1.88961 0.0893149
v 0.623174 -0.577962 -0.130509
v 0.587101 0.324652 -0.175707
v 0.295087 1.42631 -0.165759
v 0.519125 2.38809 -0.0607338
v 0.547025 3.6038 0.315871
v 1.96019 -3.69116 0.311234
v 1.67866 -2.88723 0.401375
v 1.8237 -1.96415 0.318398
v 1.9928 -0.455803 0.0354627
v 1.98386 0.216874 -0.106388
v 1.82872 1.47251 -0.251002
v 1.40409 2.73706 -0.101154
v 1.4817 3.5311 0.202796
v 2.80494 -3.9474 0.295599
v 3.10424 -2.8589 0.302236
v 2.95639 -1.98474 0.40921
v 2.71626 -0.535522 0.221564
v 2.95672 0.259529 0.155982
v 3.07282 1.53957 -0.0780719
v 2.76639 3.10096 -0.218788
v 2.7413 3.43583 -0.0582792
v 3.93147 -3.97847 0.322641
v 3.6663 -2.72667 0.282228
v 3.87408 -1.6873 0.29859
v 3.81102 -0.732223 0.356462
v 3.86197 0.278497 0.304734
v 4.15042 1.79484 0.178964
v 4.12856 2.7469 0.012845
v 4.03247 3.86292 -0.16121
vt 0.0001 0.0001
vt 0.9999 0.0001
vt 0.0001 0.9999
vt 0.9999 0.9999
vt 0.111189 0.0001
vt 0.222278 0.0001
vt 0.333367 0.0001
vt 0.444455 0.0001
vt 0.555544 0.0001
vt 0.666633 0.0001
vt 0.777722 0.0001
vt 0.888811 0.0001
vt 0.888811 0.9999
vt 0.777722 0.9999
vt 0.666633 0.9999
vt 0.555544 0.9999
vt 0.444455 0.9999
vt 0.333367 0.9999
vt 0.222278 0.9999
vt 0.111189 0.9999
vt 0.0001 0.888811
vt 0.0001 0.777722
vt 0.0001 0.666633
vt 0.0001 0.555544
vt 0.0001 0.444456
vt 0.0001 0.333367
vt 0.0001 0.222278
vt 0.0001 0.111189
vt 0.9999 0.111189
vt 0.9999 0.222278
vt 0.9999 0.333367
vt 0.9999 0.444456
vt 0.9999 0.555544
vt 0.9999 0.666633
vt 0.9999 0.777722
vt 0.9999 0.888811
vt 0.11727 0.115399
vt 0.120778 0.180369
vt 0.134636 0.309595
vt 0.088728 0.473895
vt 0.085886 0.575352
vt 0.086211 0.65375
vt 0.092207 0.78313
vt 0.106956 0.892282
vt 0.22987 0.102869
vt 0.221803 0.229552
vt 0.233521 0.288953
vt 0.225541 0.443179
vt 0.221596 0.556167
vt 0.227801 0.661237
vt 0.214896 0.795203
vt 0.22542 0.865181
vt 0.335524 0.082127
vt 0.351143 0.213907
vt 0.311934 0.342467
vt 0.313159 0.422214
vt 0.347791 0.572605
vt 0.301482 0.677733
vt 0.329031 0.783086
vt 0.344903 0.885466
vt 0.476837 0.074882
vt 0.441952 0.218774
vt 0.445749 0.333088
vt 0.416414 0.43099
vt 0.439746 0.552976
vt 0.463203 0.656843
vt 0.444252 0.77653
vt 0.426137 0.866051
vt 0.573419 0.117409
vt 0.581125 0.246686
vt 0.552512 0.326
vt 0.561075 0.459693
vt 0.558356 0.550596
vt 0.530299 0.662189
vt 0.553275 0.760113
vt 0.555478 0.888821
vt 0.694433 0.13996
vt 0.667048 0.221666
vt 0.681985 0.314267
vt 0.698218 0.467249
vt 0.696819 0.535952
vt 0.68253 0.662758
vt 0.642062 0.791726
vt 0.648523 0.877957
vt 0.778029 0.111667
vt 0.809426 0.219523
vt 0.794923 0.307783
vt 0.772028 0.454562
vt 0.796846 0.533374
vt 0.807262 0.663157
vt 0.778581 0.821037
vt 0.775122 0.858219
vt 0.890224 0.104741
vt 0.865679 0.23076
vt 0.887326 0.334104
vt 0.881307 0.429754
vt 0.887973 0.53063
vt 0.918106 0.681428
vt 0.915043 0.778027
vt 0.904815 0.89094
vn 0.17607 0.186638 0.966522
vn -0.0137534 0.0362972 0.999246
vn 0.0145882 -0.153704 0.988009
vn -0.00907538 -0.134074 0.99093
vn 0.0532988 0.0727576 0.995924
vn 0.0155813 0.0610141 0.998015
vn 0.0179936 0.0482052 0.998675
vn 0.0235866 0.0427434 0.998808
vn 0.0280428 0.0357404 0.998968
vn 0.00533991 0.042536 0.999081
vn 0.00223571 0.0464427 0.998918
vn -0.00127899 0.0017974 0.999998
vn 0.216901 -0.320442 0.922101
vn 0.139108 -0.300692 0.943522
vn 0.0176705 -0.182029 0.983134
vn 0.0966382 -0.149683 0.984
vn -0.0232937 -0.267451 0.96329
vn -0.0739781 -0.279507 0.95729
vn -0.160436 -0.353842 0.921442
vn -0.236584 -0.381742 0.893477
vn 0.195285 0.113375 0.974171
vn 0.0372069 0.0219219 0.999067
vn -0.0168736 0.0440481 0.998887
vn -0.0431024 0.0105242 0.999015
vn 0.0054527 0.0464162 0.998907
vn 0.0105882 0.0478311 0.998799
vn 0.000822098 0.0686644 0.997639
vn 0.0403277 0.087861 0.995316
vn 0.0172252 0.0760739 0.996953
vn 0.0601045 0.0324796 0.997664
vn 0.128959 -0.00226545 0.991647
vn 0.153814 0.0227531 0.987838
vn 0.105338 0.026597 0.994081
vn 0.053553 0.0103111 0.998512
vn -0.0737261 0.075377 0.994426
vn -0.20831 0.0798377 0.974799
vn 0.0225954 0.0512045 0.998432
vn 0.0318542 0.0733863 0.996795
vn 0.00468019 0.0388452 0.999234
vn -0.0118239 0.0226058 0.999674
vn 0.00498401 0.0465616 0.998903
vn 0.0491673 0.0659741 0.996609
vn 0.149818 0.124723 0.980815
vn -0.0144074 -0.142753 0.989654
vn 0.00976839 0.0628555 0.997975
vn -0.0173837 0.0366245 0.999178
vn -0.0794031 -0.00345203 0.996837
vn -0.0369841 0.0472765 0.998197
vn 0.153413 0.127238 0.979936
vn 0.237155 0.162153 0.957843
vn 0.0633208 -0.0145884 0.997887
vn -0.19554 -0.330166 0.923447
vn 0.0157585 0.0343408 0.999286
vn -0.00548824 0.0244544 0.999686
vn 0.0562966 0.0953804 0.993848
vn 0.170297 0.164832 0.971509
vn 0.158614 0.170332 0.972537
vn 0.113056 0.0259581 0.993249
vn -0.127096 -0.244652 0.961245
vn -0.0936541 -0.297081 0.950248
vn 0.0281611 0.0390304 0.998841
vn 0.0515223 0.0755803 0.995808
vn 0.109433 0.153818 0.982021
vn 0.144466 0.205801 0.967872
vn -0.0123912 0.0654176 0.997781
vn -0.0507499 -0.0550723 0.997192
vn -0.0501272 -0.225773 0.972889
vn -0.0608457 -0.284606 0.956712
vn 0.000330359 0.0183738 0.999831
vn -0.0805771 0.118525 0.989676
vn -0.0221662 0.168387 0.985472
vn -0.0425675 0.155242 0.986959
vn -0.0276036 0.0376056 0.998911
vn -0.0305846 -0.0400164 0.998731
vn 0.0289018 -0.177552 0.983687
vn 0.0503301 -0.258345 0.964741
vn 0.0288405 -0.0271191 0.999216
vn -0.0270946 -0.00732597 0.999606
vn -0.137146 0.153307 0.978615
vn -0.179497 0.200719 0.963064
vn -0.160172 0.144977 0.976384
vn -0.00306414 -0.00307675 0.999991
vn 0.12291 -0.241816 0.962506
vn 0.104318 -0.28686 0.952276
vn -0.00344885 0.0312699 0.999505
vn 0.0369866 -0.0465815 0.99823
vn 0.020843 0.00208197 0.999781
vn -0.165728 0.150396 0.974636
vn -0.191602 0.143993 0.970852
vn -0.198499 0.128 0.971707
vn 0.0329554 -0.150781 0.988018
vn 0.178517 -0.380768 0.907275
vn 0.00879927 0.0384246 0.999223
vn 0.0669998 -0.0195666 0.997561
vn 0.109379 -0.0283712 0.993595
vn 0.0296831 0.0340473 0.998979
vn -0.0276028 0.0831621 0.996154
vn -0.0728074 0.0904309 0.993238
vn -0.17812 0.117658 0.976949
vn 0.031403 -0.16001 0.986616
f 100/100/100 4/4/4 13/13/13
f 44/44/44 3/3/3 21/21/21
f 44/44/44 19/19/19 20/20/20
f 60/60/60 19/19/19 52/52/52
f 60/60/60 17/17/17 18/18/18
f 76/76/76 17/17/17 68/68/68
f 84/84/84 16/16/16 76/76/76
f 84/84/84 14/14/14 15/15/15
f 100/100/100 14/14/14 92/92/92
f 11/11/11 93/93/93 85/85/85
f 93/93/93 86/86/86 85/85/85
f 94/94/94 87/87/87 86/86/86
f 87/87/87 96/96/96 88/88/88
f 96/96/96 89/89/89 88/88/88
f 97/97/97 90/90/90 89/89/89
f 90/90/90 99/99/99 91/91/91
f 91/91/91 100/100/100 92/92/92
f 10/10/10 85/85/85 77/77/77
f 77/77/77 86/86/86 78/78/78
f 78/78/78 87/87/87 79/79/79
f 79/79/79 88/88/88 80/80/80
f 88/88/88 81/81/81 80/80/80
f 81/81/81 90/90/90 82/82/82
f 82/82/82 91/91/91 83/83/83
f 91/91/91 84/84/84 83/83/83
f 10/10/10 69/69/69 9/9/9
f 69/69/69 78/78/78 70/70/70
f 70/70/70 79/79/79 71/71/71
f 79/79/79 72/72/72 71/71/71
f 72/72/72 81/81/81 73/73/73
f 73/73/73 82/82/82 74/74/74
f 82/82/82 75/75/75 74/74/74
f 83/83/83 76/76/76 75/75/75
f 9/9/9 61/61/61 8/8/8
f 69/69/69 62/62/62 61/61/61
f 62/62/62 71/71/71 63/63/63
f 63/63/63 72/72/72 64/64/64
f 72/72/72 65/65/65 64/64/64
f 65/65/65 74/74/74 66/66/66
f 66/66/66 75/75/75 67/67/67
f 67/67/67 76/76/76 68/68/68
f 8/8/8 53/53/53 7/7/7
f 53/53/53 62/62/62 54/54/54
f 54/54/54 63/63/63 55/55/55
f 55/55/55 64/64/64 56/56/56
f 64/64/64 57/57/57 56/56/56
f 57/57/57 66/66/66 58/58/58
f 58/58/58 67/67/67 59/59/59
f 59/59/59 68/68/68 60/60/60
f 6/6/6 53/53/53 45/45/45
f 45/45/45 54/54/54 46/46/46
f 54/54/54 47/47/47 46/46/46
f 55/55/55 48/48/48 47/47/47
f 56/56/56 49/49/49 48/48/48
f 49/49/49 58/58/58 50/50/50
f 58/58/58 51/51/51 50/50/50
f 59/59/59 52/52/52 51/51/51
f 6/6/6 37/37/37 5/5/5
f 45/45/45 38/38/38 37/37/37
f 46/46/46 39/39/39 38/38/38
f 39/39/39 48/48/48 40/40/40
f 40/40/40 49/49/49 41/41/41
f 41/41/41 50/50/50 42/42/42
f 50/50/50 43/43/43 42/42/42
f 51/51/51 44/44/44 43/43/43
f 5/5/5 28/28/28 1/1/1
f 28/28/28 38/38/38 27/27/27
f 27/27/27 39/39/39 26/26/26
f 26/26/26 40/40/40 25/25/25
f 40/40/40 24/24/24 25/25/25
f 41/41/41 23/23/23 24/24/24
f 23/23/23 43/43/43 22/22/22
f 43/43/43 21/21/21 22/22/22
f 2/2/2 93/93/93 12/12/12
f 93/93/93 30/30/30 94/94/94
f 30/30/30 95/95/95 94/94/94
f 31/31/31 96/96/96 95/95/95
f 32/32/32 97/97/97 96/96/96
f 33/33/33 98/98/98 97/97/97
f 98/98/98 35/35/35 99/99/99
f 99/99/99 36/36/36 100/100/100
f 100/100/100 36/36/36 4/4/4
f 44/44/44 20/20/20 3/3/3
f 44/44/44 52/52/52 19/19/19
f 60/60/60 18/18/18 19/19/19
f 60/60/60 68/68/68 17/17/17
f 76/76/76 16/16/16 17/17/17
f 84/84/84 15/15/15 16/16/16
f 84/84/84 92/92/92 14/14/14
f 100/100/100 13/13/13 14/14/14
f 11/11/11 12/12/12 93/93/93
f 93/93/93 94/94/94 86/86/86
f 94/94/94 95/95/95 87/87/87
f 87/87/87 95/95/95 96/96/96
f 96/96/96 97/97/97 89/89/89
f 97/97/97 98/98/98 90/90/90
f 90/90/90 98/98/98 99/99/99
f 91/91/91 99/99/99 100/100/100
f 10/10/10 11/11/11 85/85/85
f 77/77/77 85/85/85 86/86/86
f 78/78/78 86/86/86 87/87/87
f 79/79/79 87/87/87 88/88/88
f 88/88/88 89/89/89 81/81/81
f 81/81/81 89/89/89 90/90/90
f 82/82/82 90/90/90 91/91/91
f 91/91/91 92/92/92 84/84/84
f 10/10/10 77/77/77 69/69/69
f 69/69/69 77/77/77 78/78/78
f 70/70/70 78/78/78 79/79/79
f 79/79/79 80/80/80 72/72/72
f 72/72/72 80/80/80 81/81/81
f 73/73/73 81/81/81 82/82/82
f 82/82/82 83/83/83 75/75/75
f 83/83/83 84/84/84 76/76/76
f 9/9/9 69/69/69 61/61/61
f 69/69/69 70/70/70 62/62/62
f 62/62/62 70/70/70 71/71/71
f 63/63/63 71/71/71 72/72/72
f 72/72/72 73/73/73 65/65/65
f 65/65/65 73/73/73 74/74/74
f 66/66/66 74/74/74 75/75/75
f 67/67/67 75/75/75 76/76/76
f 8/8/8 61/61/61 53/53/53
f 53/53/53 61/61/61 62/62/62
f 54/54/54 62/62/62 63/63/63
f 55/55/55 63/63/63 64/64/64
f 64/64/64 65/65/65 57/57/57
f 57/57/57 65/65/65 66/66/66
f 58/58/58 66/66/66 67/67/67
f 59/59/59 67/67/67 68/68/68
f 6/6/6 7/7/7 53/53/53
f 45/45/45 53/53/53 54/54/54
f 54/54/54 55/55/55 47/47/47
f 55/55/55 56/56/56 48/48/48
f 56/56/56 57/57/57 49/49/49
f 49/49/49 57/57/57 58/58/58
f 58/58/58 59/59/59 51/51/51
f 59/59/59 60/60/60 52/52/52
f 6/6/6 45/45/45 37/37/37
f 45/45/45 46/46/46 38/38/38
f 46/46/46 47/47/47 39/39/39
f 39/39/39 47/47/47 48/48/48
f 40/40/40 48/48/48 49/49/49
f 41/41/41 49/49/49 50/50/50
f 50/50/50 51/51/51 43/43/43
f 51/51/51 52/52/52 44/44/44
f 5/5/5 37/37/37 28/28/28
f 28/28/28 37/37/37 38/38/38
f 27/27/27 38/38/38 39/39/39
f 26/26/26 39/39/39 40/40/40
f 40/40/40 41/41/41 24/24/24
f 41/41/41 42/42/42 23/23/23
f 23/23/23 42/42/42 43/43/43
f 43/43/43 44/44/44 21/21/21
f 2/2/2 29/29/29 93/93/93
f 93/93/93 29/29/29 30/30/30
f 30/30/30 31/31/31 95/95/95
f 31/31/31 32/32/32 96/96/96
f 32/32/32 33/33/33 97/97/97
f 33/33/33 34/34/34 98/98/98
f 98/98/98 34/34/34 35/35/35
f 99/99/99 35/35/35 36/36/36
