o GNATVCloth
v -4.9991 -4.99983 0.0465
v 5.02265 -4.99331 0.0451486
v -5.01298 5.02105 0.004229
v 4.98702 5.02105 0.004229
v -3.88444 -5.02447 0.0398486
v -2.7699 -5.03335 0.0243804
v -1.65516 -5.02053 0.0250043
v -0.545572 -5.01825 0.0329068
v 0.565699 -5.02903 0.00776351
v 1.67903 -5.03601 0.0208302
v 2.79352 -5.0325 0.0342496
v 3.90968 -5.0218 0.052241
v 3.86774 4.9723 0.0406854
v 2.78269 4.93663 0.0287661
v 1.67919 4.94087 0.0418948
v 0.566917 4.94546 0.0340391
v -0.543923 4.9455 0.0200355
v -1.65515 4.94768 0.0486018
v -2.76823 4.94986 0.0257656
v -3.88583 4.9801 0.0396113
v -5.00249 3.90618 0.0431729
v -4.99276 2.79084 0.0394763
v -4.98606 1.67594 0.0274688
v -4.98294 0.561336 0.0380759
v -4.98209 -0.552188 0.0440237
v -4.98772 -1.66492 0.0357809
v -4.98821 -2.77801 0.0309515
v -4.99116 -3.89036 0.0284618
v 5.01461 -3.89159 0.0484785
v 5.01149 -2.77712 0.0219713
v 5.00946 -1.66452 0.0240458
v 5.01079 -0.551995 0.034408
v 5.01187 0.561012 0.0421287
v 5.01101 1.67539 0.0387072
v 5.00721 2.7904 0.0308433
v 5.00021 3.90577 0.0282313
v -3.81859 -3.87182 0.0314523
v -3.7846 -3.22177 0.0241656
v -3.64811 -1.93128 0.0150179
v -4.10912 -0.277934 0.0201203
v -4.13928 0.738346 0.0196083
v -4.13617 1.52442 0.0309951
v -4.07792 2.81811 0.0210648
v -3.93033 3.90576 0.0203865
v -2.69042 -4.00573 0.0268678
v -2.7733 -2.74461 0.0265848
v -2.65743 -2.15152 0.021486
v -2.74074 -0.609891 0.0248395
v -2.77959 0.519614 0.0215489
v -2.7191 1.5724 0.0226482
v -2.84802 2.91012 0.0239842
v -2.74124 3.6043 0.0242014
v -1.63907 -4.22058 0.0186798
v -1.48528 -2.90465 0.0120982
v -1.8738 -1.61809 0.0307416
v -1.86415 -0.819521 0.0316835
v -1.51536 0.677288 0.0240311
v -1.98083 1.72921 0.0217056
v -1.7043 2.77912 0.021883
v -1.54347 3.80342 0.0202246
v -0.222757 -4.28923 0.0242311
v -0.579225 -2.85177 0.0195696
v -0.539265 -1.71271 0.0236279
v -0.830883 -0.733322 0.0221696
v -0.595204 0.485932 0.0232582
v -0.360675 1.51958 0.0247274
v -0.550587 2.71584 0.0219867
v -0.730699 3.60808 0.0261281
v 0.742028 -3.8643 0.0176335
v 0.814203 -2.57375 0.0294353
v 0.528109 -1.78192 0.032719
v 0.616166 -0.448173 0.0161163
v 0.591318 0.459035 0.0243489
v 0.310063 1.57261 0.0265433
v 0.538142 2.55118 0.027788
v 0.560929 3.83338 0.0268092
v 1.95175 -3.63903 0.0277731
v 1.67475 -2.82255 0.0236766
v 1.8249 -1.89786 0.0211784
v 1.98932 -0.37335 0.0309074
v 1.97578 0.311844 0.0218648
v 1.8324 1.57862 0.016221
v 1.428 2.86814 0.0285452
v 1.49167 3.72619 0.0200598
v 2.7913 -3.91885 0.0259216
v 3.10318 -2.8405 0.0271713
v 2.9567 -1.96258 0.0197435
v 2.72856 -0.497668 0.0220382
v 2.97732 0.293456 0.0242296
v 3.08209 1.59322 0.0191622
v 2.79542 3.16629 0.0225034
v 2.76087 3.53749 0.0350975
v 3.91573 -3.97627 0.0169817
v 3.6673 -2.72153 0.0319536
v 3.88256 -1.68356 0.028371
v 3.82367 -0.727305 0.0153299
v 3.89038 0.28383 0.0248272
v 4.1927 1.79747 0.0234449
v 4.1613 2.76391 0.0235999
v 4.05627 3.8893 0.0213623
vt 0.0001 0.0001
vt 0.9999 0.0001
vt 0.0001 0.9999
vt 0.9999 0.9999
vt 0.111189 0.0001
vt 0.222278 0.0001
vt 0.333367 0.0001
vt 0.444455 0.0001
vt 0.555544 0.0001
vt 0.666633 0.0001
vt 0.777722 0.0001
vt 0.888811 0.0001
vt 0.888811 0.9999
vt 0.777722 0.9999
vt 0.666633 0.9999
vt 0.555544 0.9999
vt 0.444455 0.9999
vt 0.333367 0.9999
vt 0.222278 0.9999
vt 0.111189 0.9999
vt 0.0001 0.888811
vt 0.0001 0.777722
vt 0.0001 0.666633
vt 0.0001 0.555544
vt 0.0001 0.444456
vt 0.0001 0.333367
vt 0.0001 0.222278
vt 0.0001 0.111189
vt 0.9999 0.111189
vt 0.9999 0.222278
vt 0.9999 0.333367
vt 0.9999 0.444456
vt 0.9999 0.555544
vt 0.9999 0.666633
vt 0.9999 0.777722
vt 0.9999 0.888811
vt 0.11727 0.115399
vt 0.120778 0.180369
vt 0.134636 0.309595
vt 0.088728 0.473895
vt 0.085886 0.575352
vt 0.086211 0.65375
vt 0.092207 0.78313
vt 0.106956 0.892282
vt 0.22987 0.102869
vt 0.221803 0.229552
vt 0.233521 0.288953
vt 0.225541 0.443179
vt 0.221596 0.556167
vt 0.227801 0.661237
vt 0.214896 0.795203
vt 0.22542 0.865181
vt 0.335524 0.082127
vt 0.351143 0.213907
vt 0.311934 0.342467
vt 0.313159 0.422214
vt 0.347791 0.572605
vt 0.301482 0.677733
vt 0.329031 0.783086
vt 0.344903 0.885466
vt 0.476837 0.074882
vt 0.441952 0.218774
vt 0.445749 0.333088
vt 0.416414 0.43099
vt 0.439746 0.552976
vt 0.463203 0.656843
vt 0.444252 0.77653
vt 0.426137 0.866051
vt 0.573419 0.117409
vt 0.581125 0.246686
vt 0.552512 0.326
vt 0.561075 0.459693
vt 0.558356 0.550596
vt 0.530299 0.662189
vt 0.553275 0.760113
vt 0.555478 0.888821
vt 0.694433 0.13996
vt 0.667048 0.221666
vt 0.681985 0.314267
vt 0.698218 0.467249
vt 0.696819 0.535952
vt 0.68253 0.662758
vt 0.642062 0.791726
vt 0.648523 0.877957
vt 0.778029 0.111667
vt 0.809426 0.219523
vt 0.794923 0.307783
vt 0.772028 0.454562
vt 0.796846 0.533374
vt 0.807262 0.663157
vt 0.778581 0.821037
vt 0.775122 0.858219
vt 0.890224 0.104741
vt 0.865679 0.23076
vt 0.887326 0.334104
vt 0.881307 0.429754
vt 0.887973 0.53063
vt 0.918106 0.681428
vt 0.915043 0.778027
vt 0.904815 0.89094
vn 0.00632472 0.0162107 0.999849
vn -0.0114514 0.0152268 0.999819
vn -0.00536547 0.00927805 0.999943
vn 0.0127185 0.00467781 0.999908
vn 0.00586199 0.0100454 0.999932
vn 0.00605003 0.00218033 0.999979
vn -0.00389448 0.00798406 0.999961
vn 0.00407632 0.00775766 0.999962
vn 0.00739595 -0.00500206 0.99996
vn -0.00776581 -0.00194175 0.999968
vn -0.00672153 0.0162498 0.999845
vn -0.00546284 0.0337358 0.999416
vn 0.0113728 -0.015859 0.99981
vn -6.34847e-05 -0.00759006 0.999971
vn 0.00234349 -0.0183346 0.999829
vn -0.00441287 -0.00994729 0.999941
vn 0.00143028 -0.00464607 0.999988
vn 0.0025464 -0.0245435 0.999696
vn -0.00217218 -0.0118765 0.999927
vn -0.0100442 -0.0174749 0.999797
vn 0.0209067 0.00990326 0.999732
vn 0.0203261 -0.00689088 0.99977
vn 0.00770844 -0.00193321 0.999968
vn 0.0224033 0.00535835 0.999735
vn 0.027716 -0.00109779 0.999615
vn 0.020045 -0.00353058 0.999793
vn 0.0091278 -0.000115811 0.999958
vn 0.00143385 0.0081872 0.999965
vn -0.0294369 0.0102274 0.999514
vn -0.00302638 0.00329359 0.99999
vn -0.00240779 0.000901944 0.999997
vn -0.0144122 -0.00821039 0.999862
vn -0.0161236 0.000111421 0.99987
vn -0.0178983 0.00502368 0.999827
vn -0.011596 0.00294705 0.999928
vn -0.00786122 0.00834033 0.999934
vn 0.00352684 0.00669904 0.999971
vn 0.00115327 0.0056783 0.999983
vn 0.00232436 0.00192859 0.999995
vn 0.0120316 -0.000114466 0.999928
vn 0.00637435 -0.00312368 0.999975
vn 0.00063383 -0.00343638 0.999994
vn 0.00857946 -0.000154716 0.999963
vn 0.00189794 -0.000314799 0.999998
vn 0.00563855 0.00171251 0.999983
vn 0.00210078 0.0048946 0.999986
vn -0.00221589 -0.000908146 0.999997
vn -0.00659396 -0.000868466 0.999978
vn -0.00230736 0.00155314 0.999996
vn 0.0018555 -0.00187484 0.999996
vn -0.000482989 -0.000361075 1
vn 0.000343925 -0.000321927 1
vn -0.00109739 0.00552027 0.999984
vn 0.00258949 -0.00202844 0.999995
vn -6.32196e-05 -0.0050142 0.999987
vn 7.10617e-05 0.00181102 0.999998
vn 0.000604632 0.00149163 0.999999
vn -0.000107927 0.000287375 1
vn -6.71077e-05 -0.000381319 1
vn -0.000144383 -0.00683305 0.999977
vn 0.00635244 0.00235715 0.999977
vn -0.00506526 -0.00126875 0.999986
vn -0.00180587 -0.000169901 0.999998
vn 0.005443 0.000779299 0.999985
vn 0.000157215 -0.00274418 0.999996
vn -0.00219318 0.000328774 0.999998
vn -0.0020131 -0.000844729 0.999998
vn -0.00280456 0.000698828 0.999996
vn -0.00191524 -0.00457943 0.999988
vn 0.00175755 -0.0047778 0.999987
vn -0.000694271 0.00285421 0.999996
vn -0.00147174 0.00188993 0.999997
vn 0.00156276 -0.003183 0.999994
vn 0.00146117 -0.00136063 0.999998
vn -0.000833489 -0.00153747 0.999998
vn -0.000742755 -0.000271438 1
vn -0.00334376 -0.000783813 0.999994
vn -0.000161757 0.00149453 0.999999
vn 0.00410663 9.60241e-05 0.999992
vn 0.000757407 0.00341437 0.999994
vn -0.000167736 0.00405144 0.999992
vn 0.00278931 -0.00189241 0.999994
vn 0.00357426 0.000657633 0.999993
vn -0.000923177 -0.00785998 0.999969
vn 0.00124415 0.000966096 0.999999
vn -0.00182293 0.000161674 0.999998
vn -0.00398527 0.00484301 0.99998
vn 0.00582955 -0.000416302 0.999983
vn -0.000169645 -0.00154662 0.999999
vn -0.00244519 0.00124734 0.999996
vn 0.000932755 -0.00978904 0.999952
vn 0.000116122 -0.0146356 0.999893
vn -0.00655392 0.00855186 0.999942
vn -0.0024378 -0.00183358 0.999995
vn -0.00185052 0.00649278 0.999977
vn -0.00409435 -0.000772609 0.999991
vn -0.00842495 -0.00246371 0.999961
vn -0.0114654 0.00254574 0.999931
vn -0.00500325 0.000406805 0.999987
vn 0.00518664 -0.00496403 0.999974
f 100/100/100 4/4/4 13/13/13
f 44/44/44 3/3/3 21/21/21
f 44/44/44 19/19/19 20/20/20
f 60/60/60 19/19/19 52/52/52
f 60/60/60 17/17/17 18/18/18
f 76/76/76 17/17/17 68/68/68
f 84/84/84 16/16/16 76/76/76
f 84/84/84 14/14/14 15/15/15
f 100/100/100 14/14/14 92/92/92
f 11/11/11 93/93/93 85/85/85
f 93/93/93 86/86/86 85/85/85
f 94/94/94 87/87/87 86/86/86
f 87/87/87 96/96/96 88/88/88
f 96/96/96 89/89/89 88/88/88
f 97/97/97 90/90/90 89/89/89
f 90/90/90 99/99/99 91/91/91
f 91/91/91 100/100/100 92/92/92
f 10/10/10 85/85/85 77/77/77
f 77/77/77 86/86/86 78/78/78
f 78/78/78 87/87/87 79/79/79
f 79/79/79 88/88/88 80/80/80
f 88/88/88 81/81/81 80/80/80
f 81/81/81 90/90/90 82/82/82
f 82/82/82 91/91/91 83/83/83
f 91/91/91 84/84/84 83/83/83
f 10/10/10 69/69/69 9/9/9
f 69/69/69 78/78/78 70/70/70
f 70/70/70 79/79/79 71/71/71
f 79/79/79 72/72/72 71/71/71
f 72/72/72 81/81/81 73/73/73
f 73/73/73 82/82/82 74/74/74
f 82/82/82 75/75/75 74/74/74
f 83/83/83 76/76/76 75/75/75
f 9/9/9 61/61/61 8/8/8
f 69/69/69 62/62/62 61/61/61
f 62/62/62 71/71/71 63/63/63
f 63/63/63 72/72/72 64/64/64
f 72/72/72 65/65/65 64/64/64
f 65/65/65 74/74/74 66/66/66
f 66/66/66 75/75/75 67/67/67
f 67/67/67 76/76/76 68/68/68
f 8/8/8 53/53/53 7/7/7
f 53/53/53 62/62/62 54/54/54
f 54/54/54 63/63/63 55/55/55
f 55/55/55 64/64/64 56/56/56
f 64/64/64 57/57/57 56/56/56
f 57/57/57 66/66/66 58/58/58
f 58/58/58 67/67/67 59/59/59
f 59/59/59 68/68/68 60/60/60
f 6/6/6 53/53/53 45/45/45
f 45/45/45 54/54/54 46/46/46
f 54/54/54 47/47/47 46/46/46
f 55/55/55 48/48/48 47/47/47
f 56/56/56 49/49/49 48/48/48
f 49/49/49 58/58/58 50/50/50
f 58/58/58 51/51/51 50/50/50
f 59/59/59 52/52/52 51/51/51
f 6/6/6 37/37/37 5/5/5
f 45/45/45 38/38/38 37/37/37
f 46/46/46 39/39/39 38/38/38
f 39/39/39 48/48/48 40/40/40
f 40/40/40 49/49/49 41/41/41
f 41/41/41 50/50/50 42/42/42
f 50/50/50 43/43/43 42/42/42
f 51/51/51 44/44/44 43/43/43
f 5/5/5 28/28/28 1/1/1
f 28/28/28 38/38/38 27/27/27
f 27/27/27 39/39/39 26/26/26
f 26/26/26 40/40/40 25/25/25
f 40/40/40 24/24/24 25/25/25
f 41/41/41 23/23/23 24/24/24
f 23/23/23 43/43/43 22/22/22
f 43/43/43 21/21/21 22/22/22
f 2/2/2 93/93/93 12/12/12
f 93/93/93 30/30/30 94/94/94
f 30/30/30 95/95/95 94/94/94
f 31/31/31 96/96/96 95/95/95
f 32/32/32 97/97/97 96/96/96
f 33/33/33 98/98/98 97/97/97
f 98/98/98 35/35/35 99/99/99
f 99/99/99 36/36/36 100/100/100
f 100/100/100 36/36/36 4/4/4
f 44/44/44 20/20/20 3/3/3
f 44/44/44 52/52/52 19/19/19
f 60/60/60 18/18/18 19/19/19
f 60/60/60 68/68/68 17/17/17
f 76/76/76 16/16/16 17/17/17
f 84/84/84 15/15/15 16/16/16
f 84/84/84 92/92/92 14/14/14
f 100/100/100 13/13/13 14/14/14
f 11/11/11 12/12/12 93/93/93
f 93/93/93 94/94/94 86/86/86
f 94/94/94 95/95/95 87/87/87
f 87/87/87 95/95/95 96/96/96
f 96/96/96 97/97/97 89/89/89
f 97/97/97 98/98/98 90/90/90
f 90/90/90 98/98/98 99/99/99
f 91/91/91 99/99/99 100/100/100
f 10/10/10 11/11/11 85/85/85
f 77/77/77 85/85/85 86/86/86
f 78/78/78 86/86/86 87/87/87
f 79/79/79 87/87/87 88/88/88
f 88/88/88 89/89/89 81/81/81
f 81/81/81 89/89/89 90/90/90
f 82/82/82 90/90/90 91/91/91
f 91/91/91 92/92/92 84/84/84
f 10/10/10 77/77/77 69/69/69
f 69/69/69 77/77/77 78/78/78
f 70/70/70 78/78/78 79/79/79
f 79/79/79 80/80/80 72/72/72
f 72/72/72 80/80/80 81/81/81
f 73/73/73 81/81/81 82/82/82
f 82/82/82 83/83/83 75/75/75
f 83/83/83 84/84/84 76/76/76
f 9/9/9 69/69/69 61/61/61
f 69/69/69 70/70/70 62/62/62
f 62/62/62 70/70/70 71/71/71
f 63/63/63 71/71/71 72/72/72
f 72/72/72 73/73/73 65/65/65
f 65/65/65 73/73/73 74/74/74
f 66/66/66 74/74/74 75/75/75
f 67/67/67 75/75/75 76/76/76
f 8/8/8 61/61/61 53/53/53
f 53/53/53 61/61/61 62/62/62
f 54/54/54 62/62/62 63/63/63
f 55/55/55 63/63/63 64/64/64
f 64/64/64 65/65/65 57/57/57
f 57/57/57 65/65/65 66/66/66
f 58/58/58 66/66/66 67/67/67
f 59/59/59 67/67/67 68/68/68
f 6/6/6 7/7/7 53/53/53
f 45/45/45 53/53/53 54/54/54
f 54/54/54 55/55/55 47/47/47
f 55/55/55 56/56/56 48/48/48
f 56/56/56 57/57/57 49/49/49
f 49/49/49 57/57/57 58/58/58
f 58/58/58 59/59/59 51/51/51
f 59/59/59 60/60/60 52/52/52
f 6/6/6 45/45/45 37/37/37
f 45/45/45 46/46/46 38/38/38
f 46/46/46 47/47/47 39/39/39
f 39/39/39 47/47/47 48/48/48
f 40/40/40 48/48/48 49/49/49
f 41/41/41 49/49/49 50/50/50
f 50/50/50 51/51/51 43/43/43
f 51/51/51 52/52/52 44/44/44
f 5/5/5 37/37/37 28/28/28
f 28/28/28 37/37/37 38/38/38
f 27/27/27 38/38/38 39/39/39
f 26/26/26 39/39/39 40/40/40
f 40/40/40 41/41/41 24/24/24
f 41/41/41 42/42/42 23/23/23
f 23/23/23 42/42/42 43/43/43
f 43/43/43 44/44/44 21/21/21
f 2/2/2 29/29/29 93/93/93
f 93/93/93 29/29/29 30/30/30
f 30/30/30 31/31/31 95/95/95
f 31/31/31 32/32/32 96/96/96
f 32/32/32 33/33/33 97/97/97
f 33/33/33 34/34/34 98/98/98
f 98/98/98 34/34/34 35/35/35
f 99/99/99 35/35/35 36/36/36
