o GNATVCloth
v -4.92359 -4.98423 0.372898
v 5.11706 -4.984 0.40456
v -5.01298 5.02105 0.004229
v 4.98702 5.02105 0.004229
v -3.81072 -4.99801 0.32833
v -2.69697 -4.99546 0.309564
v -1.58289 -5.00167 0.22846
v -0.464821 -5.00159 0.218682
v 0.655728 -5.00798 0.245958
v 1.77554 -5.00775 0.256356
v 2.89317 -5.0096 0.22564
v 4.0088 -5.00217 0.28436
v 3.86978 4.95262 0.0822603
v 2.78141 4.88858 0.225531
v 1.67609 4.84298 0.345802
v 0.585988 4.84021 0.305056
v -0.530953 4.86495 0.271359
v -1.64025 4.89579 0.175214
v -2.7611 4.93765 0.150556
v -3.88114 4.97861 0.0642995
v -4.99028 3.90653 0.0466924
v -4.97158 2.79174 0.0692681
v -4.9595 1.67775 0.0956998
v -4.94686 0.565195 0.139191
v -4.93447 -0.546244 0.195322
v -4.92615 -1.65685 0.257479
v -4.91661 -2.76314 0.35159
v -4.91861 -3.87514 0.390597
v 5.11035 -3.87744 0.315832
v 5.10094 -2.76525 0.307173
v 5.09048 -1.65208 0.248046
v 5.08008 -0.543283 0.163034
v 5.06498 0.56805 0.110015
v 5.04979 1.68125 0.0772379
v 5.03562 2.79456 0.0547163
v 5.01848 3.90798 0.0300867
v -3.74873 -3.84597 0.287787
v -3.71067 -3.19818 0.282521
v -3.57999 -1.91175 0.173774
v -4.05029 -0.264228 0.154253
v -4.09035 0.750924 0.160008
v -4.09505 1.534 0.130103
v -4.0488 2.82702 0.0950691
v -3.91871 3.90949 -0.0308411
v -2.61978 -3.98004 0.230719
v -2.70222 -2.71392 0.175927
v -2.58666 -2.12035 0.154153
v -2.68139 -0.582451 0.273919
v -2.73049 0.549917 0.26775
v -2.67772 1.59696 0.204984
v -2.81654 2.92028 -0.00614021
v -2.74767 3.59314 0.191205
v -1.55893 -4.18971 0.238881
v -1.40578 -2.87443 0.222853
v -1.80954 -1.59228 0.301266
v -1.80137 -0.798553 0.27025
v -1.46818 0.69469 0.167776
v -1.94418 1.74676 0.126954
v -1.69763 2.78126 0.265773
v -1.54306 3.77643 0.222186
v -0.139481 -4.27129 0.216699
v -0.494647 -2.82924 0.225754
v -0.463486 -1.68981 0.252388
v -0.766888 -0.714614 0.212288
v -0.543377 0.496349 0.200765
v -0.323089 1.53502 0.237583
v -0.533337 2.73294 0.267472
v -0.724496 3.57735 0.23055
v 0.829135 -3.84865 0.242926
v 0.900433 -2.55615 0.1966
v 0.609072 -1.7673 0.217052
v 0.68395 -0.430431 0.21057
v 0.645652 0.477532 0.224317
v 0.349466 1.58552 0.232444
v 0.56682 2.56524 0.234893
v 0.579641 3.79638 0.224347
v 2.0448 -3.61561 0.22348
v 1.76484 -2.80303 0.201969
v 1.91001 -1.88158 0.24515
v 2.05894 -0.352249 0.215788
v 2.03532 0.328497 0.201911
v 1.87593 1.59565 0.165389
v 1.45879 2.87238 0.267783
v 1.51693 3.68703 0.213963
v 2.88729 -3.89633 0.223968
v 3.19205 -2.81897 0.277364
v 3.04366 -1.93925 0.188703
v 2.79944 -0.475348 0.278173
v 3.03785 0.313072 0.249981
v 3.12862 1.60484 0.173134
v 2.82745 3.16545 0.190945
v 2.78899 3.52851 0.240968
v 4.01477 -3.95752 0.244133
v 3.75442 -2.70222 0.309079
v 3.96349 -1.67025 0.270114
v 3.89582 -0.716871 0.204748
v 3.94995 0.293913 0.196078
v 4.23589 1.80757 0.14098
v 4.19789 2.7705 0.0838986
v 4.06669 3.88557 0.0283956
vt 0.0001 0.0001
vt 0.9999 0.0001
vt 0.0001 0.9999
vt 0.9999 0.9999
vt 0.111189 0.0001
vt 0.222278 0.0001
vt 0.333367 0.0001
vt 0.444455 0.0001
vt 0.555544 0.0001
vt 0.666633 0.0001
vt 0.777722 0.0001
vt 0.888811 0.0001
vt 0.888811 0.9999
vt 0.777722 0.9999
vt 0.666633 0.9999
vt 0.555544 0.9999
vt 0.444455 0.9999
vt 0.333367 0.9999
vt 0.222278 0.9999
vt 0.111189 0.9999
vt 0.0001 0.888811
vt 0.0001 0.777722
vt 0.0001 0.666633
vt 0.0001 0.555544
vt 0.0001 0.444456
vt 0.0001 0.333367
vt 0.0001 0.222278
vt 0.0001 0.111189
vt 0.9999 0.111189
vt 0.9999 0.222278
vt 0.9999 0.333367
vt 0.9999 0.444456
vt 0.9999 0.555544
vt 0.9999 0.666633
vt 0.9999 0.777722
vt 0.9999 0.888811
vt 0.11727 0.115399
vt 0.120778 0.180369
vt 0.134636 0.309595
vt 0.088728 0.473895
vt 0.085886 0.575352
vt 0.086211 0.65375
vt 0.092207 0.78313
vt 0.106956 0.892282
vt 0.22987 0.102869
vt 0.221803 0.229552
vt 0.233521 0.288953
vt 0.225541 0.443179
vt 0.221596 0.556167
vt 0.227801 0.661237
vt 0.214896 0.795203
vt 0.22542 0.865181
vt 0.335524 0.082127
vt 0.351143 0.213907
vt 0.311934 0.342467
vt 0.313159 0.422214
vt 0.347791 0.572605
vt 0.301482 0.677733
vt 0.329031 0.783086
vt 0.344903 0.885466
vt 0.476837 0.074882
vt 0.441952 0.218774
vt 0.445749 0.333088
vt 0.416414 0.43099
vt 0.439746 0.552976
vt 0.463203 0.656843
vt 0.444252 0.77653
vt 0.426137 0.866051
vt 0.573419 0.117409
vt 0.581125 0.246686
vt 0.552512 0.326
vt 0.561075 0.459693
vt 0.558356 0.550596
vt 0.530299 0.662189
vt 0.553275 0.760113
vt 0.555478 0.888821
vt 0.694433 0.13996
vt 0.667048 0.221666
vt 0.681985 0.314267
vt 0.698218 0.467249
vt 0.696819 0.535952
vt 0.68253 0.662758
vt 0.642062 0.791726
vt 0.648523 0.877957
vt 0.778029 0.111667
vt 0.809426 0.219523
vt 0.794923 0.307783
vt 0.772028 0.454562
vt 0.796846 0.533374
vt 0.807262 0.663157
vt 0.778581 0.821037
vt 0.775122 0.858219
vt 0.890224 0.104741
vt 0.865679 0.23076
vt 0.887326 0.334104
vt 0.881307 0.429754
vt 0.887973 0.53063
vt 0.918106 0.681428
vt 0.915043 0.778027
vt 0.904815 0.89094
vn 0.0398114 -0.0161222 0.999077
vn -0.0896557 0.0591072 0.994217
vn 0.00801575 -0.0236495 0.999688
vn 0.0348207 -0.00695326 0.999369
vn 0.0478067 0.0161836 0.998725
vn 0.038983 0.0422929 0.998344
vn 0.0406515 -0.014023 0.999075
vn -4.07785e-05 -0.00123741 0.999999
vn -0.0212395 0.00821733 0.999741
vn 0.00923677 0.012312 0.999882
vn -0.0143797 0.0139368 0.999799
vn -0.0806079 0.0388138 0.99599
vn 0.101967 -0.0313755 0.994293
vn 0.0967518 -0.0326855 0.994772
vn 0.0379266 -0.11839 0.992243
vn -0.0221973 -0.0874193 0.995924
vn -0.0310594 -0.0262341 0.999173
vn -0.0529413 0.0372781 0.997902
vn -0.0775742 0.00311315 0.996982
vn -0.0678293 -0.08607 0.993977
vn 0.0383245 0.0554213 0.997727
vn -0.0287672 0.0215779 0.999353
vn -0.0324954 0.0320829 0.998957
vn -0.00845671 0.0276359 0.999582
vn 0.0293262 0.0534106 0.998142
vn 0.0581209 0.0575088 0.996652
vn 0.0772491 0.0651719 0.994879
vn 0.0709543 0.0130194 0.997395
vn -0.0683929 0.0432833 0.996719
vn -0.0112649 0.0114235 0.999871
vn 0.0203258 0.0665184 0.997578
vn 0.0410606 0.0439651 0.998189
vn 0.0730466 0.0339065 0.996752
vn 0.0820353 0.0258259 0.996295
vn 0.0495216 0.0347687 0.998168
vn 0.0096348 0.0317259 0.99945
vn 0.0602491 0.0291266 0.997758
vn 0.0737736 0.04068 0.996445
vn 0.0340362 0.0299662 0.998971
vn -0.0219888 0.0157956 0.999633
vn -0.0488904 0.0270465 0.998438
vn -0.0442274 0.0332559 0.998468
vn 0.00954722 0.0684697 0.997608
vn -0.0496979 -0.0204597 0.998555
vn 0.0272549 0.0429133 0.998707
vn 0.0229281 0.0482492 0.998572
vn -0.0503252 -0.0374371 0.998031
vn -0.0473937 -0.0217329 0.99864
vn 0.00103303 0.034285 0.999412
vn 0.00938231 0.0859059 0.996259
vn -0.0916775 -0.0229684 0.995524
vn -0.151319 -0.0793073 0.985298
vn 0.0158218 0.00966753 0.999828
vn -0.0229893 -0.00903759 0.999695
vn -0.0184865 -0.0172705 0.99968
vn 0.0392637 0.0384412 0.998489
vn 0.0090522 0.0295511 0.999522
vn -0.0222914 0.00830746 0.999717
vn -0.0913372 -0.0530659 0.994405
vn -0.0310293 0.0280027 0.999126
vn -0.00910749 0.000470807 0.999958
vn 0.00815734 -0.0044266 0.999957
vn 0.0214332 -0.000457627 0.99977
vn 0.0174511 0.0355477 0.999216
vn -0.0173342 -0.0113058 0.999786
vn -0.022744 -0.0196995 0.999547
vn -0.00411061 -0.0157386 0.999868
vn -0.00173398 0.0136638 0.999905
vn -0.00304334 0.0173445 0.999845
vn -0.000237823 -0.00504285 0.999987
vn 0.00856542 -0.0134407 0.999873
vn -0.00130562 0.00839188 0.999964
vn 0.00756887 -0.00150815 0.99997
vn 0.0172545 -0.0124927 0.999773
vn 0.0101852 -0.0170515 0.999803
vn -0.00176873 -0.00890919 0.999959
vn -0.0078591 0.00736065 0.999942
vn -0.0103175 0.0112587 0.999883
vn -0.00786329 -0.0191053 0.999787
vn -0.0426272 0.0210794 0.998869
vn -0.0217698 0.0278741 0.999374
vn 0.022135 -0.0145026 0.99965
vn 0.0162684 -0.00076417 0.999867
vn 0.0115506 -0.0452011 0.998911
vn -0.00386771 -0.0127127 0.999912
vn -0.0430715 0.00633275 0.999052
vn -0.0268422 0.0200172 0.999439
vn -0.00589264 0.00066047 0.999982
vn 0.0190826 0.0375596 0.999112
vn 0.0172911 0.0327269 0.999315
vn 0.0623448 -0.0282794 0.997654
vn 0.074689 -0.0581556 0.99551
vn -0.0476475 0.00115358 0.998864
vn -0.0442716 0.0142247 0.998918
vn -0.0341322 0.0559625 0.997849
vn 0.0222572 0.0260394 0.999413
vn 0.05217 0.0284191 0.998234
vn 0.0516299 0.0378163 0.99795
vn 0.042756 0.042839 0.998167
vn 0.0930052 -0.0044706 0.995656
f 100/100/100 4/4/4 13/13/13
f 44/44/44 3/3/3 21/21/21
f 44/44/44 19/19/19 20/20/20
f 60/60/60 19/19/19 52/52/52
f 60/60/60 17/17/17 18/18/18
f 76/76/76 17/17/17 68/68/68
f 84/84/84 16/16/16 76/76/76
f 84/84/84 14/14/14 15/15/15
f 100/100/100 14/14/14 92/92/92
f 11/11/11 93/93/93 85/85/85
f 93/93/93 86/86/86 85/85/85
f 94/94/94 87/87/87 86/86/86
f 87/87/87 96/96/96 88/88/88
f 96/96/96 89/89/89 88/88/88
f 97/97/97 90/90/90 89/89/89
f 90/90/90 99/99/99 91/91/91
f 91/91/91 100/100/100 92/92/92
f 10/10/10 85/85/85 77/77/77
f 77/77/77 86/86/86 78/78/78
f 78/78/78 87/87/87 79/79/79
f 79/79/79 88/88/88 80/80/80
f 88/88/88 81/81/81 80/80/80
f 81/81/81 90/90/90 82/82/82
f 82/82/82 91/91/91 83/83/83
f 91/91/91 84/84/84 83/83/83
f 10/10/10 69/69/69 9/9/9
f 69/69/69 78/78/78 70/70/70
f 70/70/70 79/79/79 71/71/71
f 79/79/79 72/72/72 71/71/71
f 72/72/72 81/81/81 73/73/73
f 73/73/73 82/82/82 74/74/74
f 82/82/82 75/75/75 74/74/74
f 83/83/83 76/76/76 75/75/75
f 9/9/9 61/61/61 8/8/8
f 69/69/69 62/62/62 61/61/61
f 62/62/62 71/71/71 63/63/63
f 63/63/63 72/72/72 64/64/64
f 72/72/72 65/65/65 64/64/64
f 65/65/65 74/74/74 66/66/66
f 66/66/66 75/75/75 67/67/67
f 67/67/67 76/76/76 68/68/68
f 8/8/8 53/53/53 7/7/7
f 53/53/53 62/62/62 54/54/54
f 54/54/54 63/63/63 55/55/55
f 55/55/55 64/64/64 56/56/56
f 64/64/64 57/57/57 56/56/56
f 57/57/57 66/66/66 58/58/58
f 58/58/58 67/67/67 59/59/59
f 59/59/59 68/68/68 60/60/60
f 6/6/6 53/53/53 45/45/45
f 45/45/45 54/54/54 46/46/46
f 54/54/54 47/47/47 46/46/46
f 55/55/55 48/48/48 47/47/47
f 56/56/56 49/49/49 48/48/48
f 49/49/49 58/58/58 50/50/50
f 58/58/58 51/51/51 50/50/50
f 59/59/59 52/52/52 51/51/51
f 6/6/6 37/37/37 5/5/5
f 45/45/45 38/38/38 37/37/37
f 46/46/46 39/39/39 38/38/38
f 39/39/39 48/48/48 40/40/40
f 40/40/40 49/49/49 41/41/41
f 41/41/41 50/50/50 42/42/42
f 50/50/50 43/43/43 42/42/42
f 51/51/51 44/44/44 43/43/43
f 5/5/5 28/28/28 1/1/1
f 28/28/28 38/38/38 27/27/27
f 27/27/27 39/39/39 26/26/26
f 26/26/26 40/40/40 25/25/25
f 40/40/40 24/24/24 25/25/25
f 41/41/41 23/23/23 24/24/24
f 23/23/23 43/43/43 22/22/22
f 43/43/43 21/21/21 22/22/22
f 2/2/2 93/93/93 12/12/12
f 93/93/93 30/30/30 94/94/94
f 30/30/30 95/95/95 94/94/94
f 31/31/31 96/96/96 95/95/95
f 32/32/32 97/97/97 96/96/96
f 33/33/33 98/98/98 97/97/97
f 98/98/98 35/35/35 99/99/99
f 99/99/99 36/36/36 100/100/100
f 100/100/100 36/36/36 4/4/4
f 44/44/44 20/20/20 3/3/3
f 44/44/44 52/52/52 19/19/19
f 60/60/60 18/18/18 19/19/19
f 60/60/60 68/68/68 17/17/17
f 76/76/76 16/16/16 17/17/17
f 84/84/84 15/15/15 16/16/16
f 84/84/84 92/92/92 14/14/14
f 100/100/100 13/13/13 14/14/14
f 11/11/11 12/12/12 93/93/93
f 93/93/93 94/94/94 86/86/86
f 94/94/94 95/95/95 87/87/87
f 87/87/87 95/95/95 96/96/96
f 96/96/96 97/97/97 89/89/89
f 97/97/97 98/98/98 90/90/90
f 90/90/90 98/98/98 99/99/99
f 91/91/91 99/99/99 100/100/100
f 10/10/10 11/11/11 85/85/85
f 77/77/77 85/85/85 86/86/86
f 78/78/78 86/86/86 87/87/87
f 79/79/79 87/87/87 88/88/88
f 88/88/88 89/89/89 81/81/81
f 81/81/81 89/89/89 90/90/90
f 82/82/82 90/90/90 91/91/91
f 91/91/91 92/92/92 84/84/84
f 10/10/10 77/77/77 69/69/69
f 69/69/69 77/77/77 78/78/78
f 70/70/70 78/78/78 79/79/79
f 79/79/79 80/80/80 72/72/72
f 72/72/72 80/80/80 81/81/81
f 73/73/73 81/81/81 82/82/82
f 82/82/82 83/83/83 75/75/75
f 83/83/83 84/84/84 76/76/76
f 9/9/9 69/69/69 61/61/61
f 69/69/69 70/70/70 62/62/62
f 62/62/62 70/70/70 71/71/71
f 63/63/63 71/71/71 72/72/72
f 72/72/72 73/73/73 65/65/65
f 65/65/65 73/73/73 74/74/74
f 66/66/66 74/74/74 75/75/75
f 67/67/67 75/75/75 76/76/76
f 8/8/8 61/61/61 53/53/53
f 53/53/53 61/61/61 62/62/62
f 54/54/54 62/62/62 63/63/63
f 55/55/55 63/63/63 64/64/64
f 64/64/64 65/65/65 57/57/57
f 57/57/57 65/65/65 66/66/66
f 58/58/58 66/66/66 67/67/67
f 59/59/59 67/67/67 68/68/68
f 6/6/6 7/7/7 53/53/53
f 45/45/45 53/53/53 54/54/54
f 54/54/54 55/55/55 47/47/47
f 55/55/55 56/56/56 48/48/48
f 56/56/56 57/57/57 49/49/49
f 49/49/49 57/57/57 58/58/58
f 58/58/58 59/59/59 51/51/51
f 59/59/59 60/60/60 52/52/52
f 6/6/6 45/45/45 37/37/37
f 45/45/45 46/46/46 38/38/38
f 46/46/46 47/47/47 39/39/39
f 39/39/39 47/47/47 48/48/48
f 40/40/40 48/48/48 49/49/49
f 41/41/41 49/49/49 50/50/50
f 50/50/50 51/51/51 43/43/43
f 51/51/51 52/52/52 44/44/44
f 5/5/5 37/37/37 28/28/28
f 28/28/28 37/37/37 38/38/38
f 27/27/27 38/38/38 39/39/39
f 26/26/26 39/39/39 40/40/40
f 40/40/40 41/41/41 24/24/24
f 41/41/41 42/42/42 23/23/23
f 23/23/23 42/42/42 43/43/43
f 43/43/43 44/44/44 21/21/21
f 2/2/2 29/29/29 93/93/93
f 93/93/93 29/29/29 30/30/30
f 30/30/30 31/31/31 95/95/95
f 31/31/31 32/32/32 96/96/96
f 32/32/32 33/33/33 97/97/97
f 33/33/33 34/34/34 98/98/98
f 98/98/98 34/34/34 35/35/35
f 99/99/99 35/35/35 36/36/36
