o GNATVCloth
v -4.90892 -5.00677 0.294607
v 5.17793 -4.99765 0.310761
v -5.01298 5.02105 0.004229
v 4.98702 5.02105 0.004229
v -3.79738 -5.03896 0.242062
v -2.6784 -5.06654 0.224233
v -1.55779 -5.09688 0.181244
v -0.434048 -5.11647 0.159411
v 0.694926 -5.13312 0.189161
v 1.8223 -5.11572 0.168388
v 2.94628 -5.07951 0.181175
v 4.06586 -5.0364 0.239139
v 3.8596 4.93227 0.0588481
v 2.74638 4.85143 0.197975
v 1.63239 4.73785 0.252304
v 0.638575 4.69318 0.214526
v -0.477599 4.76697 0.198479
v -1.59666 4.83439 0.172368
v -2.7268 4.90823 0.14346
v -3.86352 4.96276 0.0851858
v -4.97797 3.90463 0.0388247
v -4.96187 2.78807 0.0738589
v -4.95013 1.67199 0.110501
v -4.9354 0.556186 0.141762
v -4.91905 -0.557687 0.1978
v -4.90556 -1.67135 0.241558
v -4.89854 -2.78411 0.263767
v -4.89662 -3.8968 0.261526
v 5.15685 -3.8894 0.237044
v 5.14094 -2.77753 0.222602
v 5.12339 -1.66494 0.219531
v 5.10677 -0.552626 0.182112
v 5.08763 0.560017 0.134317
v 5.06485 1.67446 0.0962911
v 5.04462 2.78945 0.0581335
v 5.01952 3.90522 0.0292726
v -3.72452 -3.88734 0.196089
v -3.68991 -3.23726 0.189394
v -3.55966 -1.94647 0.142434
v -4.03667 -0.289068 0.150611
v -4.07858 0.726539 0.140401
v -4.08495 1.51199 0.120634
v -4.0396 2.80493 0.0822028
v -3.90042 3.88893 0.0274731
v -2.59259 -4.04397 0.165794
v -2.67769 -2.77342 0.145331
v -2.56373 -2.18244 0.117825
v -2.66062 -0.638508 0.193339
v -2.71547 0.493382 0.184464
v -2.66617 1.54288 0.14981
v -2.80562 2.88411 0.0924103
v -2.70983 3.57524 0.161653
v -1.52859 -4.27743 0.164599
v -1.37599 -2.96286 0.151124
v -1.78177 -1.66927 0.207216
v -1.77773 -0.871094 0.197305
v -1.45169 0.624775 0.138408
v -1.93011 1.68622 0.143245
v -1.6617 2.72881 0.172099
v -1.50339 3.71893 0.174251
v -0.103037 -4.37693 0.140728
v -0.462001 -2.93281 0.144668
v -0.432691 -1.78959 0.179713
v -0.74156 -0.808746 0.152453
v -0.525728 0.407165 0.152911
v -0.301888 1.43832 0.168284
v -0.50722 2.62683 0.170895
v -0.686412 3.49965 0.165962
v 0.868959 -3.96151 0.165682
v 0.937173 -2.66828 0.155452
v 0.642083 -1.87767 0.161346
v 0.710817 -0.541263 0.135947
v 0.668307 0.367549 0.163473
v 0.369322 1.48073 0.174103
v 0.589207 2.45865 0.16987
v 0.604719 3.66958 0.154555
v 2.08705 -3.70924 0.170898
v 1.8038 -2.90298 0.150952
v 1.94398 -1.97813 0.165732
v 2.08402 -0.446 0.170457
v 2.05939 0.241967 0.141429
v 1.89491 1.4969 0.113989
v 1.48372 2.77053 0.195688
v 1.53429 3.56322 0.1531
v 2.9325 -3.96777 0.15818
v 3.2333 -2.88098 0.209197
v 3.07822 -2.00673 0.118854
v 2.82535 -0.54799 0.195067
v 3.06018 0.24753 0.186411
v 3.14495 1.54813 0.129387
v 2.83686 3.10559 0.143301
v 2.78963 3.45113 0.19939
v 4.06303 -3.99671 0.150061
v 3.7954 -2.74803 0.215054
v 3.9965 -1.70634 0.199641
v 3.92321 -0.752045 0.150618
v 3.97298 0.260109 0.15226
v 4.24997 1.78223 0.12861
v 4.19795 2.74497 0.0990397
v 4.06879 3.86821 0.0666139
vt 0.0001 0.0001
vt 0.9999 0.0001
vt 0.0001 0.9999
vt 0.9999 0.9999
vt 0.111189 0.0001
vt 0.222278 0.0001
vt 0.333367 0.0001
vt 0.444455 0.0001
vt 0.555544 0.0001
vt 0.666633 0.0001
vt 0.777722 0.0001
vt 0.888811 0.0001
vt 0.888811 0.9999
vt 0.777722 0.9999
vt 0.666633 0.9999
vt 0.555544 0.9999
vt 0.444455 0.9999
vt 0.333367 0.9999
vt 0.222278 0.9999
vt 0.111189 0.9999
vt 0.0001 0.888811
vt 0.0001 0.777722
vt 0.0001 0.666633
vt 0.0001 0.555544
vt 0.0001 0.444456
vt 0.0001 0.333367
vt 0.0001 0.222278
vt 0.0001 0.111189
vt 0.9999 0.111189
vt 0.9999 0.222278
vt 0.9999 0.333367
vt 0.9999 0.444456
vt 0.9999 0.555544
vt 0.9999 0.666633
vt 0.9999 0.777722
vt 0.9999 0.888811
vt 0.11727 0.115399
vt 0.120778 0.180369
vt 0.134636 0.309595
vt 0.088728 0.473895
vt 0.085886 0.575352
vt 0.086211 0.65375
vt 0.092207 0.78313
vt 0.106956 0.892282
vt 0.22987 0.102869
vt 0.221803 0.229552
vt 0.233521 0.288953
vt 0.225541 0.443179
vt 0.221596 0.556167
vt 0.227801 0.661237
vt 0.214896 0.795203
vt 0.22542 0.865181
vt 0.335524 0.082127
vt 0.351143 0.213907
vt 0.311934 0.342467
vt 0.313159 0.422214
vt 0.347791 0.572605
vt 0.301482 0.677733
vt 0.329031 0.783086
vt 0.344903 0.885466
vt 0.476837 0.074882
vt 0.441952 0.218774
vt 0.445749 0.333088
vt 0.416414 0.43099
vt 0.439746 0.552976
vt 0.463203 0.656843
vt 0.444252 0.77653
vt 0.426137 0.866051
vt 0.573419 0.117409
vt 0.581125 0.246686
vt 0.552512 0.326
vt 0.561075 0.459693
vt 0.558356 0.550596
vt 0.530299 0.662189
vt 0.553275 0.760113
vt 0.555478 0.888821
vt 0.694433 0.13996
vt 0.667048 0.221666
vt 0.681985 0.314267
vt 0.698218 0.467249
vt 0.696819 0.535952
vt 0.68253 0.662758
vt 0.642062 0.791726
vt 0.648523 0.877957
vt 0.778029 0.111667
vt 0.809426 0.219523
vt 0.794923 0.307783
vt 0.772028 0.454562
vt 0.796846 0.533374
vt 0.807262 0.663157
vt 0.778581 0.821037
vt 0.775122 0.858219
vt 0.890224 0.104741
vt 0.865679 0.23076
vt 0.887326 0.334104
vt 0.881307 0.429754
vt 0.887973 0.53063
vt 0.918106 0.681428
vt 0.915043 0.778027
vt 0.904815 0.89094
vn 0.0480442 0.0292243 0.998418
vn -0.0761983 0.0747585 0.994286
vn -0.0309307 -0.0098756 0.999473
vn 0.0427022 0.0200418 0.998887
vn 0.0401167 0.0347942 0.998589
vn 0.0258323 0.041962 0.998785
vn 0.0293022 0.0192566 0.999385
vn 0.00397527 0.0245406 0.999691
vn -0.014722 0.0265283 0.99954
vn 0.00393887 0.00812213 0.999959
vn -0.0197181 0.0421649 0.998916
vn -0.0608868 0.0850424 0.994515
vn 0.0844645 0.0238755 0.99614
vn 0.061256 -0.0134373 0.998032
vn 0.0116806 -0.0851191 0.996302
vn -0.0191687 -0.0658311 0.997647
vn -0.00648274 -0.0280111 0.999587
vn -0.0244714 -0.000358288 0.9997
vn -0.0500691 -0.00664032 0.998724
vn -0.0631756 -0.0513952 0.996678
vn 0.00420268 0.0371763 0.9993
vn -0.00962653 0.0319661 0.999443
vn -0.00671169 0.0289228 0.999559
vn 0.0111838 0.0295938 0.999499
vn 0.0396074 0.0452467 0.99819
vn 0.0652845 0.025784 0.997534
vn 0.0701745 0.0158225 0.997409
vn 0.0549685 0.0177433 0.99833
vn -0.0829348 0.0381663 0.995824
vn -0.0275715 -0.00584022 0.999603
vn -0.0231236 0.0284751 0.999327
vn -0.01807 0.0252752 0.999517
vn 0.0204265 0.0304133 0.999329
vn 0.0442226 0.0349703 0.99841
vn 0.0458489 0.0316765 0.998446
vn 0.0410293 0.0278714 0.998769
vn 0.0380397 0.029094 0.998853
vn 0.0466366 0.015862 0.998786
vn 0.0382549 0.0110169 0.999207
vn 0.00868102 0.016873 0.99982
vn -0.0149662 0.0218492 0.999649
vn -0.0138874 0.0276149 0.999522
vn -0.00827616 0.0381191 0.999239
vn -0.0511521 -0.00558663 0.998675
vn 0.0186353 0.0272031 0.999456
vn 0.0194919 0.0307789 0.999336
vn -0.0200034 -0.0162512 0.999668
vn -0.0222213 -0.0150181 0.99964
vn -0.00261544 0.0190766 0.999815
vn -0.0127683 0.0344996 0.999323
vn -0.0512163 -0.00699746 0.998663
vn -0.0691496 -0.0287985 0.99719
vn 0.016692 0.0189263 0.999682
vn -0.00509755 -0.00756215 0.999958
vn -0.0113043 -0.0162345 0.999804
vn 0.0226669 0.0189553 0.999563
vn 0.00985668 0.00880073 0.999913
vn -0.00960617 0.00471973 0.999943
vn -0.0255147 -0.0205405 0.999463
vn -0.00984854 -0.00292405 0.999947
vn -0.00993702 0.0145404 0.999845
vn 0.00126921 -0.00863228 0.999962
vn 0.0146004 -0.0028348 0.999889
vn 0.0183433 0.0178597 0.999672
vn -0.00807893 -0.0111824 0.999905
vn -0.0113184 -0.00619954 0.999917
vn -0.000762527 -0.00142232 0.999999
vn 0.00684348 -0.00885343 0.999937
vn -0.00791834 0.0101609 0.999917
vn -0.00223554 -0.00375975 0.99999
vn 0.00425322 -0.00249757 0.999988
vn -0.00191773 0.0055357 0.999983
vn 0.0102925 -0.00943801 0.999902
vn 0.0105302 -0.0044771 0.999935
vn -0.000899577 -0.0067496 0.999977
vn -0.00369131 -0.00826313 0.999959
vn -0.00787643 -0.00408931 0.999961
vn -0.00714753 0.0161228 0.999844
vn 0.00249607 -0.0105983 0.999941
vn -0.0284316 0.020369 0.999388
vn -0.0182293 0.0239915 0.999546
vn 0.016645 -0.0120133 0.999789
vn 0.0089406 0.000926186 0.99996
vn -0.00522065 -0.041599 0.999121
vn 0.0031913 -0.0117372 0.999926
vn -0.0180049 0.00925284 0.999795
vn -0.0233343 0.0222476 0.99948
vn 0.00107296 -0.00460598 0.999989
vn 0.00487575 0.0215731 0.999755
vn -0.00142098 0.020112 0.999797
vn 0.0334794 -0.0404402 0.998621
vn 0.0404689 -0.0759391 0.996291
vn -0.0349456 0.0142347 0.999288
vn -0.0284752 0.0083026 0.99956
vn -0.0485667 0.0290474 0.998397
vn -0.0100592 0.0106933 0.999892
vn 0.0103418 0.0183203 0.999779
vn 0.0231801 0.0271393 0.999363
vn 0.0331244 0.0257711 0.999119
vn 0.076667 0.000472379 0.997057
f 100/100/100 4/4/4 13/13/13
f 44/44/44 3/3/3 21/21/21
f 44/44/44 19/19/19 20/20/20
f 60/60/60 19/19/19 52/52/52
f 60/60/60 17/17/17 18/18/18
f 76/76/76 17/17/17 68/68/68
f 84/84/84 16/16/16 76/76/76
f 84/84/84 14/14/14 15/15/15
f 100/100/100 14/14/14 92/92/92
f 11/11/11 93/93/93 85/85/85
f 93/93/93 86/86/86 85/85/85
f 94/94/94 87/87/87 86/86/86
f 87/87/87 96/96/96 88/88/88
f 96/96/96 89/89/89 88/88/88
f 97/97/97 90/90/90 89/89/89
f 90/90/90 99/99/99 91/91/91
f 91/91/91 100/100/100 92/92/92
f 10/10/10 85/85/85 77/77/77
f 77/77/77 86/86/86 78/78/78
f 78/78/78 87/87/87 79/79/79
f 79/79/79 88/88/88 80/80/80
f 88/88/88 81/81/81 80/80/80
f 81/81/81 90/90/90 82/82/82
f 82/82/82 91/91/91 83/83/83
f 91/91/91 84/84/84 83/83/83
f 10/10/10 69/69/69 9/9/9
f 69/69/69 78/78/78 70/70/70
f 70/70/70 79/79/79 71/71/71
f 79/79/79 72/72/72 71/71/71
f 72/72/72 81/81/81 73/73/73
f 73/73/73 82/82/82 74/74/74
f 82/82/82 75/75/75 74/74/74
f 83/83/83 76/76/76 75/75/75
f 9/9/9 61/61/61 8/8/8
f 69/69/69 62/62/62 61/61/61
f 62/62/62 71/71/71 63/63/63
f 63/63/63 72/72/72 64/64/64
f 72/72/72 65/65/65 64/64/64
f 65/65/65 74/74/74 66/66/66
f 66/66/66 75/75/75 67/67/67
f 67/67/67 76/76/76 68/68/68
f 8/8/8 53/53/53 7/7/7
f 53/53/53 62/62/62 54/54/54
f 54/54/54 63/63/63 55/55/55
f 55/55/55 64/64/64 56/56/56
f 64/64/64 57/57/57 56/56/56
f 57/57/57 66/66/66 58/58/58
f 58/58/58 67/67/67 59/59/59
f 59/59/59 68/68/68 60/60/60
f 6/6/6 53/53/53 45/45/45
f 45/45/45 54/54/54 46/46/46
f 54/54/54 47/47/47 46/46/46
f 55/55/55 48/48/48 47/47/47
f 56/56/56 49/49/49 48/48/48
f 49/49/49 58/58/58 50/50/50
f 58/58/58 51/51/51 50/50/50
f 59/59/59 52/52/52 51/51/51
f 6/6/6 37/37/37 5/5/5
f 45/45/45 38/38/38 37/37/37
f 46/46/46 39/39/39 38/38/38
f 39/39/39 48/48/48 40/40/40
f 40/40/40 49/49/49 41/41/41
f 41/41/41 50/50/50 42/42/42
f 50/50/50 43/43/43 42/42/42
f 51/51/51 44/44/44 43/43/43
f 5/5/5 28/28/28 1/1/1
f 28/28/28 38/38/38 27/27/27
f 27/27/27 39/39/39 26/26/26
f 26/26/26 40/40/40 25/25/25
f 40/40/40 24/24/24 25/25/25
f 41/41/41 23/23/23 24/24/24
f 23/23/23 43/43/43 22/22/22
f 43/43/43 21/21/21 22/22/22
f 2/2/2 93/93/93 12/12/12
f 93/93/93 30/30/30 94/94/94
f 30/30/30 95/95/95 94/94/94
f 31/31/31 96/96/96 95/95/95
f 32/32/32 97/97/97 96/96/96
f 33/33/33 98/98/98 97/97/97
f 98/98/98 35/35/35 99/99/99
f 99/99/99 36/36/36 100/100/100
f 100/100/100 36/36/36 4/4/4
f 44/44/44 20/20/20 3/3/3
f 44/44/44 52/52/52 19/19/19
f 60/60/60 18/18/18 19/19/19
f 60/60/60 68/68/68 17/17/17
f 76/76/76 16/16/16 17/17/17
f 84/84/84 15/15/15 16/16/16
f 84/84/84 92/92/92 14/14/14
f 100/100/100 13/13/13 14/14/14
f 11/11/11 12/12/12 93/93/93
f 93/93/93 94/94/94 86/86/86
f 94/94/94 95/95/95 87/87/87
f 87/87/87 95/95/95 96/96/96
f 96/96/96 97/97/97 89/89/89
f 97/97/97 98/98/98 90/90/90
f 90/90/90 98/98/98 99/99/99
f 91/91/91 99/99/99 100/100/100
f 10/10/10 11/11/11 85/85/85
f 77/77/77 85/85/85 86/86/86
f 78/78/78 86/86/86 87/87/87
f 79/79/79 87/87/87 88/88/88
f 88/88/88 89/89/89 81/81/81
f 81/81/81 89/89/89 90/90/90
f 82/82/82 90/90/90 91/91/91
f 91/91/91 92/92/92 84/84/84
f 10/10/10 77/77/77 69/69/69
f 69/69/69 77/77/77 78/78/78
f 70/70/70 78/78/78 79/79/79
f 79/79/79 80/80/80 72/72/72
f 72/72/72 80/80/80 81/81/81
f 73/73/73 81/81/81 82/82/82
f 82/82/82 83/83/83 75/75/75
f 83/83/83 84/84/84 76/76/76
f 9/9/9 69/69/69 61/61/61
f 69/69/69 70/70/70 62/62/62
f 62/62/62 70/70/70 71/71/71
f 63/63/63 71/71/71 72/72/72
f 72/72/72 73/73/73 65/65/65
f 65/65/65 73/73/73 74/74/74
f 66/66/66 74/74/74 75/75/75
f 67/67/67 75/75/75 76/76/76
f 8/8/8 61/61/61 53/53/53
f 53/53/53 61/61/61 62/62/62
f 54/54/54 62/62/62 63/63/63
f 55/55/55 63/63/63 64/64/64
f 64/64/64 65/65/65 57/57/57
f 57/57/57 65/65/65 66/66/66
f 58/58/58 66/66/66 67/67/67
f 59/59/59 67/67/67 68/68/68
f 6/6/6 7/7/7 53/53/53
f 45/45/45 53/53/53 54/54/54
f 54/54/54 55/55/55 47/47/47
f 55/55/55 56/56/56 48/48/48
f 56/56/56 57/57/57 49/49/49
f 49/49/49 57/57/57 58/58/58
f 58/58/58 59/59/59 51/51/51
f 59/59/59 60/60/60 52/52/52
f 6/6/6 45/45/45 37/37/37
f 45/45/45 46/46/46 38/38/38
f 46/46/46 47/47/47 39/39/39
f 39/39/39 47/47/47 48/48/48
f 40/40/40 48/48/48 49/49/49
f 41/41/41 49/49/49 50/50/50
f 50/50/50 51/51/51 43/43/43
f 51/51/51 52/52/52 44/44/44
f 5/5/5 37/37/37 28/28/28
f 28/28/28 37/37/37 38/38/38
f 27/27/27 38/38/38 39/39/39
f 26/26/26 39/39/39 40/40/40
f 40/40/40 41/41/41 24/24/24
f 41/41/41 42/42/42 23/23/23
f 23/23/23 42/42/42 43/43/43
f 43/43/43 44/44/44 21/21/21
f 2/2/2 29/29/29 93/93/93
f 93/93/93 29/29/29 30/30/30
f 30/30/30 31/31/31 95/95/95
f 31/31/31 32/32/32 96/96/96
f 32/32/32 33/33/33 97/97/97
f 33/33/33 34/34/34 98/98/98
f 98/98/98 34/34/34 35/35/35
f 99/99/99 35/35/35 36/36/36
