o GNATVCloth
v -5.07382 -4.97393 0.543803
v 4.96355 -4.98166 0.430569
v -5.01298 5.02105 0.004229
v 4.98702 5.02105 0.004229
v -3.96189 -4.99486 0.543856
v -2.85299 -5.0179 0.464556
v -1.73656 -5.03856 0.464268
v -0.616425 -5.04632 0.464676
v 0.503591 -5.04685 0.421387
v 1.62242 -5.03771 0.420361
v 2.73857 -5.01871 0.451493
v 3.85253 -4.99461 0.490725
v 3.85616 4.94953 0.134828
v 2.73669 4.90011 0.276153
v 1.61659 4.85733 0.370376
v 0.496762 4.82362 0.440685
v -0.624111 4.78938 0.449157
v -1.73888 4.76635 0.298698
v -2.83157 4.78652 0.572702
v -3.91965 4.8941 0.292564
v -4.99635 3.90861 0.0783769
v -4.99695 2.79545 0.129798
v -5.00746 1.68302 0.175253
v -5.0163 0.570838 0.217255
v -5.02357 -0.539288 0.284585
v -5.03253 -1.64845 0.364325
v -5.04081 -2.759 0.454919
v -5.05215 -3.86528 0.543502
v 4.95364 -3.88009 0.317626
v 4.94918 -2.76825 0.308826
v 4.9452 -1.65486 0.27638
v 4.94261 -0.544332 0.234643
v 4.94144 0.568139 0.209787
v 4.94433 1.68115 0.1819
v 4.95041 2.79523 0.151473
v 4.95959 3.90693 0.0632718
v -3.8912 -3.86027 0.364412
v -3.85266 -3.21507 0.285534
v -3.69695 -1.92601 0.22037
v -4.13937 -0.270265 0.187103
v -4.16112 0.745882 0.210705
v -4.14767 1.52689 0.161241
v -4.07468 2.81898 0.0844139
v -3.93363 3.89242 -0.098744
v -2.76605 -4.01439 0.278052
v -2.8332 -2.74448 0.266476
v -2.71059 -2.15267 0.287311
v -2.77995 -0.608587 0.329648
v -2.80561 0.522585 0.288977
v -2.72732 1.56013 0.127713
v -2.85544 2.87887 -0.123688
v -2.79256 3.51594 0.171224
v -1.70668 -4.23448 0.34137
v -1.54414 -2.92118 0.389689
v -1.93115 -1.6351 0.431547
v -1.90978 -0.839858 0.384231
v -1.54944 0.630911 0.116075
v -2.00172 1.67895 -0.0491923
v -1.74607 2.71551 0.153931
v -1.60339 3.66889 0.397562
v -0.286634 -4.31083 0.380559
v -0.632238 -2.87286 0.412278
v -0.591004 -1.74317 0.475709
v -0.875958 -0.774591 0.332783
v -0.633122 0.431994 0.191909
v -0.393373 1.46061 0.204506
v -0.592011 2.64572 0.256349
v -0.780779 3.49749 0.378088
v 0.683912 -3.87849 0.391631
v 0.765173 -2.59389 0.477742
v 0.480391 -1.80511 0.442794
v 0.565212 -0.481059 0.344472
v 0.544373 0.406579 0.283242
v 0.271946 1.52089 0.319621
v 0.503991 2.49102 0.31142
v 0.520856 3.7169 0.432121
v 1.89591 -3.63368 0.452509
v 1.61696 -2.83004 0.33157
v 1.77981 -1.91007 0.434061
v 1.93487 -0.383041 0.304019
v 1.92096 0.271986 0.0892168
v 1.79801 1.53394 0.213945
v 1.39401 2.81437 0.277099
v 1.46029 3.63596 0.377708
v 2.73533 -3.9043 0.423793
v 3.04335 -2.82575 0.334221
v 2.896 -1.94983 0.234732
v 2.67137 -0.489412 0.355346
v 2.91271 0.300217 0.25569
v 3.03265 1.56982 -0.0104465
v 2.74513 3.13934 0.0530106
v 2.72332 3.49142 0.159157
v 3.85512 -3.96244 0.31733
v 3.60627 -2.70585 0.33651
v 3.82008 -1.67005 0.291516
v 3.76038 -0.71462 0.268953
v 3.82451 0.296299 0.314891
v 4.12592 1.80806 0.174411
v 4.117 2.7565 -0.0194743
v 4.00878 3.8831 -0.0574985
vt 0.0001 0.0001
vt 0.9999 0.0001
vt 0.0001 0.9999
vt 0.9999 0.9999
vt 0.111189 0.0001
vt 0.222278 0.0001
vt 0.333367 0.0001
vt 0.444455 0.0001
vt 0.555544 0.0001
vt 0.666633 0.0001
vt 0.777722 0.0001
vt 0.888811 0.0001
vt 0.888811 0.9999
vt 0.777722 0.9999
vt 0.666633 0.9999
vt 0.555544 0.9999
vt 0.444455 0.9999
vt 0.333367 0.9999
vt 0.222278 0.9999
vt 0.111189 0.9999
vt 0.0001 0.888811
vt 0.0001 0.777722
vt 0.0001 0.666633
vt 0.0001 0.555544
vt 0.0001 0.444456
vt 0.0001 0.333367
vt 0.0001 0.222278
vt 0.0001 0.111189
vt 0.9999 0.111189
vt 0.9999 0.222278
vt 0.9999 0.333367
vt 0.9999 0.444456
vt 0.9999 0.555544
vt 0.9999 0.666633
vt 0.9999 0.777722
vt 0.9999 0.888811
vt 0.11727 0.115399
vt 0.120778 0.180369
vt 0.134636 0.309595
vt 0.088728 0.473895
vt 0.085886 0.575352
vt 0.086211 0.65375
vt 0.092207 0.78313
vt 0.106956 0.892282
vt 0.22987 0.102869
vt 0.221803 0.229552
vt 0.233521 0.288953
vt 0.225541 0.443179
vt 0.221596 0.556167
vt 0.227801 0.661237
vt 0.214896 0.795203
vt 0.22542 0.865181
vt 0.335524 0.082127
vt 0.351143 0.213907
vt 0.311934 0.342467
vt 0.313159 0.422214
vt 0.347791 0.572605
vt 0.301482 0.677733
vt 0.329031 0.783086
vt 0.344903 0.885466
vt 0.476837 0.074882
vt 0.441952 0.218774
vt 0.445749 0.333088
vt 0.416414 0.43099
vt 0.439746 0.552976
vt 0.463203 0.656843
vt 0.444252 0.77653
vt 0.426137 0.866051
vt 0.573419 0.117409
vt 0.581125 0.246686
vt 0.552512 0.326
vt 0.561075 0.459693
vt 0.558356 0.550596
vt 0.530299 0.662189
vt 0.553275 0.760113
vt 0.555478 0.888821
vt 0.694433 0.13996
vt 0.667048 0.221666
vt 0.681985 0.314267
vt 0.698218 0.467249
vt 0.696819 0.535952
vt 0.68253 0.662758
vt 0.642062 0.791726
vt 0.648523 0.877957
vt 0.778029 0.111667
vt 0.809426 0.219523
vt 0.794923 0.307783
vt 0.772028 0.454562
vt 0.796846 0.533374
vt 0.807262 0.663157
vt 0.778581 0.821037
vt 0.775122 0.858219
vt 0.890224 0.104741
vt 0.865679 0.23076
vt 0.887326 0.334104
vt 0.881307 0.429754
vt 0.887973 0.53063
vt 0.918106 0.681428
vt 0.915043 0.778027
vt 0.904815 0.89094
vn -4.2048e-05 0.000272219 1
vn 0.0217674 0.133751 0.990776
vn -0.0586039 -0.146144 0.987526
vn -0.00202751 -0.0524267 0.998623
vn 0.0749358 0.0993988 0.992222
vn 0.0388604 0.16527 0.985482
vn 0.0018674 0.151018 0.988529
vn 0.00613494 0.123518 0.992323
vn 0.00493116 0.0503972 0.998717
vn -0.0124519 0.00217125 0.99992
vn 0.00981361 0.0720985 0.997349
vn 0.00656205 0.16565 0.986163
vn 0.12686 -0.158437 0.979186
vn 0.141665 -0.0824036 0.986479
vn 0.0733677 -0.00340247 0.997299
vn 0.0426064 -0.00536222 0.999078
vn -0.0371261 -0.0106544 0.999254
vn 0.055378 0.0963623 0.993805
vn -0.123774 -0.216242 0.968462
vn -0.271244 -0.346944 0.897806
vn 0.126232 0.0865229 0.98822
vn 0.0480039 0.0431965 0.997913
vn 0.0256114 0.0496604 0.998438
vn 0.0346201 0.0248604 0.999091
vn 0.0897285 0.0652067 0.993829
vn 0.109616 0.0672907 0.991694
vn 0.148627 0.0627509 0.9869
vn 0.118161 0.0837138 0.989459
vn -0.00439014 0.0549773 0.998478
vn 0.0136709 0.0161475 0.999776
vn 0.0165827 0.0304012 0.9994
vn 0.0492795 0.00410786 0.998777
vn 0.0526295 0.0416815 0.997744
vn -0.0050858 0.0261945 0.999644
vn -0.139146 0.100899 0.985118
vn -0.152653 0.0520627 0.986908
vn 0.113212 0.139439 0.983738
vn 0.0960549 0.066183 0.993173
vn 0.0194563 0.0221885 0.999564
vn 0.00651668 0.0228833 0.999717
vn -0.00517544 0.0453796 0.998956
vn 0.0246742 0.0603602 0.997872
vn 0.0895639 0.0992684 0.991022
vn -0.104576 -0.151192 0.982957
vn 0.00407028 0.0769381 0.997028
vn -0.0510374 0.00600441 0.998679
vn -0.107809 -0.0345519 0.993571
vn -0.089568 0.00925919 0.995938
vn 0.0302855 0.0989417 0.994632
vn 0.0977614 0.136334 0.985827
vn -0.0616518 -0.0581989 0.996399
vn -0.243481 -0.315945 0.917003
vn -0.0222585 0.0742868 0.996988
vn -0.0676571 -0.034997 0.997095
vn -0.0590875 0.018114 0.998088
vn 0.0213987 0.0948374 0.995263
vn -0.000246834 0.12583 0.992052
vn -0.0193697 0.0397379 0.999022
vn -0.153146 -0.218717 0.963696
vn -0.0345103 -0.108462 0.993501
vn -0.00747062 0.0395003 0.999192
vn -0.0191011 -0.0338595 0.999244
vn -0.00888187 0.032046 0.999447
vn -0.010055 0.125619 0.992028
vn -0.0828258 0.0500117 0.995308
vn -0.132642 0.00917443 0.991122
vn -0.082964 -0.116241 0.98975
vn -0.0325704 -0.131992 0.990716
vn -0.00468035 0.000199089 0.999989
vn 0.0412365 -0.0401068 0.998344
vn 0.00670907 0.0323705 0.999453
vn 0.00984592 0.117543 0.993019
vn 0.0386871 -0.00278474 0.999247
vn -0.0578976 0.000590305 0.998322
vn -0.0170958 -0.0402528 0.999043
vn 0.01042 -0.0760165 0.997052
vn -0.00871251 0.0595161 0.998189
vn 0.0624713 0.00618359 0.998028
vn 0.0670005 -0.00457583 0.997742
vn -0.0121456 0.200334 0.979652
vn 0.0155492 0.134494 0.990792
vn 0.120566 -0.0322675 0.992181
vn 0.105927 -0.0780571 0.991306
vn 0.105989 -0.0912207 0.990174
vn 0.0492386 0.0287587 0.998373
vn 0.020144 0.0793493 0.996643
vn 0.0333399 0.00492967 0.999432
vn 0.0153194 0.0919515 0.995646
vn -0.0736108 0.132338 0.988468
vn -0.0326166 0.0920824 0.995217
vn 0.146359 -0.0976336 0.984402
vn 0.181547 -0.178866 0.966979
vn 0.0272046 0.0619496 0.997708
vn -0.0129418 0.0360555 0.999266
vn -0.0195763 0.0342977 0.99922
vn 0.0147151 0.002179 0.999889
vn -0.0203707 0.0589055 0.998056
vn -0.0905565 0.108838 0.989926
vn -0.106648 0.083582 0.990778
vn 0.0715099 -0.0798246 0.994241
f 100/100/100 4/4/4 13/13/13
f 44/44/44 3/3/3 21/21/21
f 44/44/44 19/19/19 20/20/20
f 60/60/60 19/19/19 52/52/52
f 60/60/60 17/17/17 18/18/18
f 76/76/76 17/17/17 68/68/68
f 84/84/84 16/16/16 76/76/76
f 84/84/84 14/14/14 15/15/15
f 100/100/100 14/14/14 92/92/92
f 11/11/11 93/93/93 85/85/85
f 93/93/93 86/86/86 85/85/85
f 94/94/94 87/87/87 86/86/86
f 87/87/87 96/96/96 88/88/88
f 96/96/96 89/89/89 88/88/88
f 97/97/97 90/90/90 89/89/89
f 90/90/90 99/99/99 91/91/91
f 91/91/91 100/100/100 92/92/92
f 10/10/10 85/85/85 77/77/77
f 77/77/77 86/86/86 78/78/78
f 78/78/78 87/87/87 79/79/79
f 79/79/79 88/88/88 80/80/80
f 88/88/88 81/81/81 80/80/80
f 81/81/81 90/90/90 82/82/82
f 82/82/82 91/91/91 83/83/83
f 91/91/91 84/84/84 83/83/83
f 10/10/10 69/69/69 9/9/9
f 69/69/69 78/78/78 70/70/70
f 70/70/70 79/79/79 71/71/71
f 79/79/79 72/72/72 71/71/71
f 72/72/72 81/81/81 73/73/73
f 73/73/73 82/82/82 74/74/74
f 82/82/82 75/75/75 74/74/74
f 83/83/83 76/76/76 75/75/75
f 9/9/9 61/61/61 8/8/8
f 69/69/69 62/62/62 61/61/61
f 62/62/62 71/71/71 63/63/63
f 63/63/63 72/72/72 64/64/64
f 72/72/72 65/65/65 64/64/64
f 65/65/65 74/74/74 66/66/66
f 66/66/66 75/75/75 67/67/67
f 67/67/67 76/76/76 68/68/68
f 8/8/8 53/53/53 7/7/7
f 53/53/53 62/62/62 54/54/54
f 54/54/54 63/63/63 55/55/55
f 55/55/55 64/64/64 56/56/56
f 64/64/64 57/57/57 56/56/56
f 57/57/57 66/66/66 58/58/58
f 58/58/58 67/67/67 59/59/59
f 59/59/59 68/68/68 60/60/60
f 6/6/6 53/53/53 45/45/45
f 45/45/45 54/54/54 46/46/46
f 54/54/54 47/47/47 46/46/46
f 55/55/55 48/48/48 47/47/47
f 56/56/56 49/49/49 48/48/48
f 49/49/49 58/58/58 50/50/50
f 58/58/58 51/51/51 50/50/50
f 59/59/59 52/52/52 51/51/51
f 6/6/6 37/37/37 5/5/5
f 45/45/45 38/38/38 37/37/37
f 46/46/46 39/39/39 38/38/38
f 39/39/39 48/48/48 40/40/40
f 40/40/40 49/49/49 41/41/41
f 41/41/41 50/50/50 42/42/42
f 50/50/50 43/43/43 42/42/42
f 51/51/51 44/44/44 43/43/43
f 5/5/5 28/28/28 1/1/1
f 28/28/28 38/38/38 27/27/27
f 27/27/27 39/39/39 26/26/26
f 26/26/26 40/40/40 25/25/25
f 40/40/40 24/24/24 25/25/25
f 41/41/41 23/23/23 24/24/24
f 23/23/23 43/43/43 22/22/22
f 43/43/43 21/21/21 22/22/22
f 2/2/2 93/93/93 12/12/12
f 93/93/93 30/30/30 94/94/94
f 30/30/30 95/95/95 94/94/94
f 31/31/31 96/96/96 95/95/95
f 32/32/32 97/97/97 96/96/96
f 33/33/33 98/98/98 97/97/97
f 98/98/98 35/35/35 99/99/99
f 99/99/99 36/36/36 100/100/100
f 100/100/100 36/36/36 4/4/4
f 44/44/44 20/20/20 3/3/3
f 44/44/44 52/52/52 19/19/19
f 60/60/60 18/18/18 19/19/19
f 60/60/60 68/68/68 17/17/17
f 76/76/76 16/16/16 17/17/17
f 84/84/84 15/15/15 16/16/16
f 84/84/84 92/92/92 14/14/14
f 100/100/100 13/13/13 14/14/14
f 11/11/11 12/12/12 93/93/93
f 93/93/93 94/94/94 86/86/86
f 94/94/94 95/95/95 87/87/87
f 87/87/87 95/95/95 96/96/96
f 96/96/96 97/97/97 89/89/89
f 97/97/97 98/98/98 90/90/90
f 90/90/90 98/98/98 99/99/99
f 91/91/91 99/99/99 100/100/100
f 10/10/10 11/11/11 85/85/85
f 77/77/77 85/85/85 86/86/86
f 78/78/78 86/86/86 87/87/87
f 79/79/79 87/87/87 88/88/88
f 88/88/88 89/89/89 81/81/81
f 81/81/81 89/89/89 90/90/90
f 82/82/82 90/90/90 91/91/91
f 91/91/91 92/92/92 84/84/84
f 10/10/10 77/77/77 69/69/69
f 69/69/69 77/77/77 78/78/78
f 70/70/70 78/78/78 79/79/79
f 79/79/79 80/80/80 72/72/72
f 72/72/72 80/80/80 81/81/81
f 73/73/73 81/81/81 82/82/82
f 82/82/82 83/83/83 75/75/75
f 83/83/83 84/84/84 76/76/76
f 9/9/9 69/69/69 61/61/61
f 69/69/69 70/70/70 62/62/62
f 62/62/62 70/70/70 71/71/71
f 63/63/63 71/71/71 72/72/72
f 72/72/72 73/73/73 65/65/65
f 65/65/65 73/73/73 74/74/74
f 66/66/66 74/74/74 75/75/75
f 67/67/67 75/75/75 76/76/76
f 8/8/8 61/61/61 53/53/53
f 53/53/53 61/61/61 62/62/62
f 54/54/54 62/62/62 63/63/63
f 55/55/55 63/63/63 64/64/64
f 64/64/64 65/65/65 57/57/57
f 57/57/57 65/65/65 66/66/66
f 58/58/58 66/66/66 67/67/67
f 59/59/59 67/67/67 68/68/68
f 6/6/6 7/7/7 53/53/53
f 45/45/45 53/53/53 54/54/54
f 54/54/54 55/55/55 47/47/47
f 55/55/55 56/56/56 48/48/48
f 56/56/56 57/57/57 49/49/49
f 49/49/49 57/57/57 58/58/58
f 58/58/58 59/59/59 51/51/51
f 59/59/59 60/60/60 52/52/52
f 6/6/6 45/45/45 37/37/37
f 45/45/45 46/46/46 38/38/38
f 46/46/46 47/47/47 39/39/39
f 39/39/39 47/47/47 48/48/48
f 40/40/40 48/48/48 49/49/49
f 41/41/41 49/49/49 50/50/50
f 50/50/50 51/51/51 43/43/43
f 51/51/51 52/52/52 44/44/44
f 5/5/5 37/37/37 28/28/28
f 28/28/28 37/37/37 38/38/38
f 27/27/27 38/38/38 39/39/39
f 26/26/26 39/39/39 40/40/40
f 40/40/40 41/41/41 24/24/24
f 41/41/41 42/42/42 23/23/23
f 23/23/23 42/42/42 43/43/43
f 43/43/43 44/44/44 21/21/21
f 2/2/2 29/29/29 93/93/93
f 93/93/93 29/29/29 30/30/30
f 30/30/30 31/31/31 95/95/95
f 31/31/31 32/32/32 96/96/96
f 32/32/32 33/33/33 97/97/97
f 33/33/33 34/34/34 98/98/98
f 98/98/98 34/34/34 35/35/35
f 99/99/99 35/35/35 36/36/36
