o GNATVCloth
v -5.02602 -4.95916 0.625741
v 5.05474 -4.98754 0.342898
v -5.01298 5.02105 0.004229
v 4.98702 5.02105 0.004229
v -3.93353 -5.0229 0.409185
v -2.81393 -5.06825 0.425033
v -1.68884 -5.09656 0.419994
v -0.561474 -5.12438 0.378177
v 0.568725 -5.12726 0.343594
v 1.69616 -5.10151 0.319923
v 2.81956 -5.05924 0.328951
v 3.9397 -5.02317 0.329425
v 3.877 4.8617 0.224737
v 2.77034 4.74987 0.417929
v 1.65131 4.69749 0.48563
v 0.534402 4.65549 0.550346
v -0.576875 4.61147 0.634322
v -1.68749 4.67031 0.517034
v -2.80446 4.72669 0.425121
v -3.90484 4.84415 0.220571
v -4.97356 3.90857 0.0933501
v -4.95992 2.79324 0.12746
v -4.96276 1.67881 0.167181
v -4.96378 0.564409 0.16484
v -4.97443 -0.547952 0.207504
v -4.98757 -1.6598 0.258909
v -5.00295 -2.77025 0.320729
v -5.02188 -3.87984 0.382275
v 5.02748 -3.88257 0.266852
v 5.00336 -2.77147 0.210226
v 4.9816 -1.65985 0.171246
v 4.96648 -0.548024 0.158496
v 4.961 0.564836 0.151737
v 4.95838 1.67812 0.138224
v 4.96303 2.79303 0.136599
v 4.96093 3.90744 0.082144
v -3.84668 -3.87325 0.406593
v -3.79968 -3.22773 0.375466
v -3.6434 -1.94643 0.252762
v -4.08488 -0.285037 0.227803
v -4.10638 0.733752 0.234773
v -4.09891 1.52061 0.177839
v -4.03409 2.81043 0.0902766
v -3.93959 3.85987 -0.21021
v -2.71786 -4.04537 0.357657
v -2.77917 -2.77702 0.27629
v -2.65465 -2.18584 0.280223
v -2.71697 -0.639727 0.247249
v -2.74146 0.491765 0.205838
v -2.68548 1.51907 -0.011454
v -2.86415 2.82436 -0.322662
v -2.76823 3.47571 -0.0729582
v -1.65712 -4.28782 0.396378
v -1.48328 -2.97387 0.3887
v -1.86262 -1.67743 0.33578
v -1.8422 -0.891692 0.207909
v -1.53844 0.549002 -0.224217
v -2.0093 1.605 -0.339859
v -1.74115 2.62158 -0.0960049
v -1.57537 3.59589 0.15533
v -0.232453 -4.38367 0.348549
v -0.57595 -2.94909 0.283931
v -0.536781 -1.82008 0.126581
v -0.840364 -0.86807 -0.0812836
v -0.616394 0.32926 -0.313976
v -0.377671 1.36085 -0.304951
v -0.578998 2.53519 -0.0983282
v -0.757451 3.38913 0.14305
v 0.739793 -3.95893 0.323885
v 0.817803 -2.66848 0.229275
v 0.532087 -1.90587 0.0283444
v 0.615598 -0.584945 -0.164793
v 0.581013 0.31449 -0.263295
v 0.297976 1.41907 -0.260842
v 0.519729 2.3758 -0.141152
v 0.546347 3.58391 0.277013
v 1.95517 -3.69549 0.315814
v 1.67001 -2.89002 0.386628
v 1.81856 -1.97161 0.25468
v 1.98717 -0.462388 -0.017036
v 1.97213 0.214918 -0.121097
v 1.83377 1.46246 -0.335081
v 1.40826 2.72045 -0.145842
v 1.4806 3.51973 0.151343
v 2.80055 -3.95212 0.303334
v 3.09792 -2.86291 0.313591
v 2.94405 -1.98903 0.407606
v 2.70677 -0.542554 0.184466
v 2.9509 0.252083 0.115424
v 3.06052 1.54061 -0.0622935
v 2.76917 3.0965 -0.263729
v 2.74316 3.42751 -0.0969812
v 3.93115 -3.98232 0.295925
v 3.65834 -2.73156 0.269498
v 3.86111 -1.69037 0.29877
v 3.79625 -0.736798 0.354976
v 3.84849 0.276499 0.300541
v 4.13993 1.79442 0.195209
v 4.12057 2.74736 0.0288947
v 4.03738 3.85683 -0.17405
vt 0.0001 0.0001
vt 0.9999 0.0001
vt 0.0001 0.9999
vt 0.9999 0.9999
vt 0.111189 0.0001
vt 0.222278 0.0001
vt 0.333367 0.0001
vt 0.444455 0.0001
vt 0.555544 0.0001
vt 0.666633 0.0001
vt 0.777722 0.0001
vt 0.888811 0.0001
vt 0.888811 0.9999
vt 0.777722 0.9999
vt 0.666633 0.9999
vt 0.555544 0.9999
vt 0.444455 0.9999
vt 0.333367 0.9999
vt 0.222278 0.9999
vt 0.111189 0.9999
vt 0.0001 0.888811
vt 0.0001 0.777722
vt 0.0001 0.666633
vt 0.0001 0.555544
vt 0.0001 0.444456
vt 0.0001 0.333367
vt 0.0001 0.222278
vt 0.0001 0.111189
vt 0.9999 0.111189
vt 0.9999 0.222278
vt 0.9999 0.333367
vt 0.9999 0.444456
vt 0.9999 0.555544
vt 0.9999 0.666633
vt 0.9999 0.777722
vt 0.9999 0.888811
vt 0.11727 0.115399
vt 0.120778 0.180369
vt 0.134636 0.309595
vt 0.088728 0.473895
vt 0.085886 0.575352
vt 0.086211 0.65375
vt 0.092207 0.78313
vt 0.106956 0.892282
vt 0.22987 0.102869
vt 0.221803 0.229552
vt 0.233521 0.288953
vt 0.225541 0.443179
vt 0.221596 0.556167
vt 0.227801 0.661237
vt 0.214896 0.795203
vt 0.22542 0.865181
vt 0.335524 0.082127
vt 0.351143 0.213907
vt 0.311934 0.342467
vt 0.313159 0.422214
vt 0.347791 0.572605
vt 0.301482 0.677733
vt 0.329031 0.783086
vt 0.344903 0.885466
vt 0.476837 0.074882
vt 0.441952 0.218774
vt 0.445749 0.333088
vt 0.416414 0.43099
vt 0.439746 0.552976
vt 0.463203 0.656843
vt 0.444252 0.77653
vt 0.426137 0.866051
vt 0.573419 0.117409
vt 0.581125 0.246686
vt 0.552512 0.326
vt 0.561075 0.459693
vt 0.558356 0.550596
vt 0.530299 0.662189
vt 0.553275 0.760113
vt 0.555478 0.888821
vt 0.694433 0.13996
vt 0.667048 0.221666
vt 0.681985 0.314267
vt 0.698218 0.467249
vt 0.696819 0.535952
vt 0.68253 0.662758
vt 0.642062 0.791726
vt 0.648523 0.877957
vt 0.778029 0.111667
vt 0.809426 0.219523
vt 0.794923 0.307783
vt 0.772028 0.454562
vt 0.796846 0.533374
vt 0.807262 0.663157
vt 0.778581 0.821037
vt 0.775122 0.858219
vt 0.890224 0.104741
vt 0.865679 0.23076
vt 0.887326 0.334104
vt 0.881307 0.429754
vt 0.887973 0.53063
vt 0.918106 0.681428
vt 0.915043 0.778027
vt 0.904815 0.89094
vn 0.201943 0.214774 0.955558
vn 0.0035305 0.0506151 0.998712
vn 0.0261131 -0.158147 0.98707
vn -0.0217674 -0.13396 0.990748
vn 0.0563337 0.0747593 0.995609
vn 0.00568258 0.0402039 0.999175
vn 0.0214734 0.0283397 0.999368
vn 0.0345184 0.0261272 0.999062
vn 0.0235131 0.0180819 0.99956
vn 0.00821358 0.0096957 0.999919
vn -0.00106137 0.0261311 0.999658
vn -0.00727919 0.0321088 0.999458
vn 0.211968 -0.331069 0.919491
vn 0.148878 -0.335171 0.93032
vn 0.0685643 -0.281588 0.957083
vn 0.0872028 -0.257137 0.962432
vn -0.0381014 -0.326983 0.944262
vn -0.105132 -0.327125 0.939115
vn -0.166927 -0.362698 0.916834
vn -0.221901 -0.384361 0.896118
vn 0.204856 0.120609 0.971333
vn 0.0394914 0.0332597 0.998666
vn -0.0101263 0.0434004 0.999007
vn -0.0649387 0.00937465 0.997845
vn -0.0353783 0.0426078 0.998465
vn -0.00398109 0.0397315 0.999202
vn -0.00549124 0.0691886 0.997588
vn 0.0343006 0.0816722 0.996069
vn 0.0209817 0.0602516 0.997963
vn 0.0554759 0.0207337 0.998245
vn 0.130043 -5.21017e-05 0.991508
vn 0.150934 0.0216796 0.988306
vn 0.107678 0.0215291 0.993953
vn 0.0704056 0.0067186 0.997496
vn -0.0649793 0.0728635 0.995223
vn -0.224595 0.091992 0.9701
vn 0.00937533 0.0324295 0.99943
vn 0.0201945 0.066995 0.997549
vn 0.001689 0.0413042 0.999145
vn -0.0197152 0.0194501 0.999616
vn 0.00833987 0.0551689 0.998442
vn 0.0666594 0.067816 0.995468
vn 0.164528 0.134751 0.977125
vn 0.000940619 -0.13828 0.990393
vn 0.00623635 0.0518244 0.998637
vn -0.0130491 0.0452944 0.998888
vn -0.0595778 0.013175 0.998137
vn 0.00422844 0.0471909 0.998877
vn 0.171463 0.129434 0.976651
vn 0.244813 0.173454 0.953929
vn 0.0640082 -0.00913912 0.997908
vn -0.196906 -0.31967 0.926843
vn 0.0250529 0.0291046 0.999262
vn 0.0161983 0.0447083 0.998869
vn 0.0913171 0.116893 0.988937
vn 0.202082 0.156898 0.966719
vn 0.189175 0.154946 0.969641
vn 0.124825 0.0296282 0.991736
vn -0.118826 -0.243826 0.962512
vn -0.106075 -0.308869 0.945171
vn 0.0254669 0.032967 0.999132
vn 0.0546488 0.097564 0.993728
vn 0.111897 0.162933 0.980271
vn 0.147993 0.202291 0.968079
vn 0.0159945 0.0709632 0.997351
vn -0.0118896 -0.0637531 0.997895
vn -0.0225403 -0.244878 0.969292
vn -0.0479794 -0.306364 0.950704
vn -0.00868365 0.0215139 0.999731
vn -0.0897951 0.153129 0.984118
vn -0.0269038 0.175333 0.984141
vn -0.0506815 0.156215 0.986422
vn -0.0437533 0.0738132 0.996312
vn -0.0127759 -0.0488868 0.998723
vn 0.0313402 -0.201557 0.978975
vn 0.0459615 -0.308066 0.950254
vn 0.0216402 -0.0317698 0.999261
vn -0.0505664 0.0269955 0.998356
vn -0.155823 0.170083 0.973032
vn -0.184681 0.169627 0.968049
vn -0.179437 0.143621 0.973229
vn -0.0381595 0.00270454 0.999268
vn 0.117261 -0.257551 0.959123
vn 0.118345 -0.33196 0.93584
vn 0.00606926 0.00457771 0.999971
vn 0.0485848 -0.0405954 0.997994
vn 0.00399364 0.0190506 0.999811
vn -0.188258 0.147293 0.971012
vn -0.20299 0.129855 0.970532
vn -0.228026 0.128095 0.965192
vn 0.00812787 -0.148549 0.988872
vn 0.16674 -0.397134 0.902487
vn 0.01947 0.0330249 0.999265
vn 0.0784799 -0.02255 0.996661
vn 0.107681 -0.0307346 0.99371
vn 0.0151111 0.0401736 0.999078
vn -0.0429116 0.0723723 0.996454
vn -0.0665321 0.0851578 0.994144
vn -0.193141 0.131437 0.972328
vn 0.0125361 -0.16039 0.986974
f 100/100/100 4/4/4 13/13/13
f 44/44/44 3/3/3 21/21/21
f 44/44/44 19/19/19 20/20/20
f 60/60/60 19/19/19 52/52/52
f 60/60/60 17/17/17 18/18/18
f 76/76/76 17/17/17 68/68/68
f 84/84/84 16/16/16 76/76/76
f 84/84/84 14/14/14 15/15/15
f 100/100/100 14/14/14 92/92/92
f 11/11/11 93/93/93 85/85/85
f 93/93/93 86/86/86 85/85/85
f 94/94/94 87/87/87 86/86/86
f 87/87/87 96/96/96 88/88/88
f 96/96/96 89/89/89 88/88/88
f 97/97/97 90/90/90 89/89/89
f 90/90/90 99/99/99 91/91/91
f 91/91/91 100/100/100 92/92/92
f 10/10/10 85/85/85 77/77/77
f 77/77/77 86/86/86 78/78/78
f 78/78/78 87/87/87 79/79/79
f 79/79/79 88/88/88 80/80/80
f 88/88/88 81/81/81 80/80/80
f 81/81/81 90/90/90 82/82/82
f 82/82/82 91/91/91 83/83/83
f 91/91/91 84/84/84 83/83/83
f 10/10/10 69/69/69 9/9/9
f 69/69/69 78/78/78 70/70/70
f 70/70/70 79/79/79 71/71/71
f 79/79/79 72/72/72 71/71/71
f 72/72/72 81/81/81 73/73/73
f 73/73/73 82/82/82 74/74/74
f 82/82/82 75/75/75 74/74/74
f 83/83/83 76/76/76 75/75/75
f 9/9/9 61/61/61 8/8/8
f 69/69/69 62/62/62 61/61/61
f 62/62/62 71/71/71 63/63/63
f 63/63/63 72/72/72 64/64/64
f 72/72/72 65/65/65 64/64/64
f 65/65/65 74/74/74 66/66/66
f 66/66/66 75/75/75 67/67/67
f 67/67/67 76/76/76 68/68/68
f 8/8/8 53/53/53 7/7/7
f 53/53/53 62/62/62 54/54/54
f 54/54/54 63/63/63 55/55/55
f 55/55/55 64/64/64 56/56/56
f 64/64/64 57/57/57 56/56/56
f 57/57/57 66/66/66 58/58/58
f 58/58/58 67/67/67 59/59/59
f 59/59/59 68/68/68 60/60/60
f 6/6/6 53/53/53 45/45/45
f 45/45/45 54/54/54 46/46/46
f 54/54/54 47/47/47 46/46/46
f 55/55/55 48/48/48 47/47/47
f 56/56/56 49/49/49 48/48/48
f 49/49/49 58/58/58 50/50/50
f 58/58/58 51/51/51 50/50/50
f 59/59/59 52/52/52 51/51/51
f 6/6/6 37/37/37 5/5/5
f 45/45/45 38/38/38 37/37/37
f 46/46/46 39/39/39 38/38/38
f 39/39/39 48/48/48 40/40/40
f 40/40/40 49/49/49 41/41/41
f 41/41/41 50/50/50 42/42/42
f 50/50/50 43/43/43 42/42/42
f 51/51/51 44/44/44 43/43/43
f 5/5/5 28/28/28 1/1/1
f 28/28/28 38/38/38 27/27/27
f 27/27/27 39/39/39 26/26/26
f 26/26/26 40/40/40 25/25/25
f 40/40/40 24/24/24 25/25/25
f 41/41/41 23/23/23 24/24/24
f 23/23/23 43/43/43 22/22/22
f 43/43/43 21/21/21 22/22/22
f 2/2/2 93/93/93 12/12/12
f 93/93/93 30/30/30 94/94/94
f 30/30/30 95/95/95 94/94/94
f 31/31/31 96/96/96 95/95/95
f 32/32/32 97/97/97 96/96/96
f 33/33/33 98/98/98 97/97/97
f 98/98/98 35/35/35 99/99/99
f 99/99/99 36/36/36 100/100/100
f 100/100/100 36/36/36 4/4/4
f 44/44/44 20/20/20 3/3/3
f 44/44/44 52/52/52 19/19/19
f 60/60/60 18/18/18 19/19/19
f 60/60/60 68/68/68 17/17/17
f 76/76/76 16/16/16 17/17/17
f 84/84/84 15/15/15 16/16/16
f 84/84/84 92/92/92 14/14/14
f 100/100/100 13/13/13 14/14/14
f 11/11/11 12/12/12 93/93/93
f 93/93/93 94/94/94 86/86/86
f 94/94/94 95/95/95 87/87/87
f 87/87/87 95/95/95 96/96/96
f 96/96/96 97/97/97 89/89/89
f 97/97/97 98/98/98 90/90/90
f 90/90/90 98/98/98 99/99/99
f 91/91/91 99/99/99 100/100/100
f 10/10/10 11/11/11 85/85/85
f 77/77/77 85/85/85 86/86/86
f 78/78/78 86/86/86 87/87/87
f 79/79/79 87/87/87 88/88/88
f 88/88/88 89/89/89 81/81/81
f 81/81/81 89/89/89 90/90/90
f 82/82/82 90/90/90 91/91/91
f 91/91/91 92/92/92 84/84/84
f 10/10/10 77/77/77 69/69/69
f 69/69/69 77/77/77 78/78/78
f 70/70/70 78/78/78 79/79/79
f 79/79/79 80/80/80 72/72/72
f 72/72/72 80/80/80 81/81/81
f 73/73/73 81/81/81 82/82/82
f 82/82/82 83/83/83 75/75/75
f 83/83/83 84/84/84 76/76/76
f 9/9/9 69/69/69 61/61/61
f 69/69/69 70/70/70 62/62/62
f 62/62/62 70/70/70 71/71/71
f 63/63/63 71/71/71 72/72/72
f 72/72/72 73/73/73 65/65/65
f 65/65/65 73/73/73 74/74/74
f 66/66/66 74/74/74 75/75/75
f 67/67/67 75/75/75 76/76/76
f 8/8/8 61/61/61 53/53/53
f 53/53/53 61/61/61 62/62/62
f 54/54/54 62/62/62 63/63/63
f 55/55/55 63/63/63 64/64/64
f 64/64/64 65/65/65 57/57/57
f 57/57/57 65/65/65 66/66/66
f 58/58/58 66/66/66 67/67/67
f 59/59/59 67/67/67 68/68/68
f 6/6/6 7/7/7 53/53/53
f 45/45/45 53/53/53 54/54/54
f 54/54/54 55/55/55 47/47/47
f 55/55/55 56/56/56 48/48/48
f 56/56/56 57/57/57 49/49/49
f 49/49/49 57/57/57 58/58/58
f 58/58/58 59/59/59 51/51/51
f 59/59/59 60/60/60 52/52/52
f 6/6/6 45/45/45 37/37/37
f 45/45/45 46/46/46 38/38/38
f 46/46/46 47/47/47 39/39/39
f 39/39/39 47/47/47 48/48/48
f 40/40/40 48/48/48 49/49/49
f 41/41/41 49/49/49 50/50/50
f 50/50/50 51/51/51 43/43/43
f 51/51/51 52/52/52 44/44/44
f 5/5/5 37/37/37 28/28/28
f 28/28/28 37/37/37 38/38/38
f 27/27/27 38/38/38 39/39/39
f 26/26/26 39/39/39 40/40/40
f 40/40/40 41/41/41 24/24/24
f 41/41/41 42/42/42 23/23/23
f 23/23/23 42/42/42 43/43/43
f 43/43/43 44/44/44 21/21/21
f 2/2/2 29/29/29 93/93/93
f 93/93/93 29/29/29 30/30/30
f 30/30/30 31/31/31 95/95/95
f 31/31/31 32/32/32 96/96/96
f 32/32/32 33/33/33 97/97/97
f 33/33/33 34/34/34 98/98/98
f 98/98/98 34/34/34 35/35/35
f 99/99/99 35/35/35 36/36/36
