o GNATVCloth
v -5.10815 -4.98488 0.502099
v 5.00688 -4.99342 0.45702
v -5.01298 5.02105 0.004229
v 4.98702 5.02105 0.004229
v -3.99021 -5.02757 0.499453
v -2.87197 -5.08063 0.423319
v -1.745 -5.11472 0.405081
v -0.616024 -5.13162 0.366137
v 0.514088 -5.12813 0.367138
v 1.64209 -5.1077 0.348012
v 2.76664 -5.07471 0.402882
v 3.88867 -5.03666 0.426389
v 3.84652 4.94425 0.159404
v 2.72091 4.87398 0.322794
v 1.59519 4.80407 0.410318
v 0.478857 4.72111 0.477057
v -0.636874 4.67392 0.37399
v -1.68445 4.71716 0.241541
v -2.79518 4.79115 0.371019
v -3.89947 4.88976 0.199019
v -5.00954 3.90688 0.0820711
v -5.01004 2.79054 0.103966
v -5.02207 1.67496 0.123583
v -5.03433 0.560434 0.165808
v -5.03867 -0.550888 0.251968
v -5.04734 -1.66129 0.329887
v -5.056 -2.76791 0.439442
v -5.07073 -3.87435 0.550489
v 4.9806 -3.88731 0.405095
v 4.97042 -2.78264 0.272455
v 4.96642 -1.66976 0.258493
v 4.96329 -0.556467 0.235558
v 4.96057 0.558048 0.209218
v 4.95927 1.67347 0.166576
v 4.9615 2.78937 0.120862
v 4.96473 3.90483 0.0573278
v -3.90038 -3.87946 0.437141
v -3.86062 -3.23921 0.327903
v -3.7124 -1.96085 0.169188
v -4.15356 -0.29618 0.145603
v -4.1743 0.72027 0.177232
v -4.16057 1.50545 0.173999
v -4.0858 2.79949 0.168982
v -3.94953 3.85458 -0.100181
v -2.77721 -4.06242 0.317378
v -2.84207 -2.79523 0.207016
v -2.72805 -2.20786 0.292815
v -2.79762 -0.662747 0.342345
v -2.82346 0.469688 0.333268
v -2.73458 1.51147 0.216065
v -2.87672 2.81676 -0.107666
v -2.81081 3.45874 0.171256
v -1.71402 -4.30254 0.339013
v -1.5507 -2.99153 0.363488
v -1.94677 -1.7029 0.449648
v -1.92403 -0.903904 0.428948
v -1.5724 0.551177 0.0793684
v -2.02349 1.60699 -0.0220432
v -1.77441 2.6352 0.211966
v -1.6113 3.60064 0.282589
v -0.286874 -4.38646 0.368104
v -0.637125 -2.9548 0.373691
v -0.598383 -1.81198 0.406994
v -0.892056 -0.849952 0.311608
v -0.659014 0.354646 0.248594
v -0.423478 1.37487 0.277641
v -0.620931 2.56131 0.382996
v -0.803157 3.41183 0.34728
v 0.687843 -3.95598 0.358467
v 0.764752 -2.66154 0.355499
v 0.476456 -1.87328 0.364034
v 0.564197 -0.552043 0.344303
v 0.534657 0.351157 0.319112
v 0.249753 1.43828 0.348093
v 0.48158 2.41957 0.394636
v 0.497487 3.6656 0.395412
v 1.90714 -3.70286 0.383673
v 1.62945 -2.89804 0.32492
v 1.78157 -1.97151 0.372649
v 1.94162 -0.436325 0.341019
v 1.92654 0.243198 0.265561
v 1.78322 1.49387 0.274098
v 1.37557 2.76215 0.335021
v 1.43701 3.59245 0.324115
v 2.75242 -3.96105 0.395368
v 3.06174 -2.87434 0.369264
v 2.91463 -1.99883 0.293337
v 2.68394 -0.537214 0.350181
v 2.92913 0.260806 0.301107
v 3.02896 1.54453 0.103371
v 2.74278 3.11031 0.166666
v 2.70193 3.46945 0.136823
v 3.88262 -3.9978 0.37207
v 3.6267 -2.7442 0.344645
v 3.83979 -1.70272 0.302343
v 3.77678 -0.748406 0.264665
v 3.84196 0.263176 0.260437
v 4.14062 1.78494 0.165637
v 4.11286 2.7442 0.0549244
v 4.00636 3.86952 0.0362247
vt 0.0001 0.0001
vt 0.9999 0.0001
vt 0.0001 0.9999
vt 0.9999 0.9999
vt 0.111189 0.0001
vt 0.222278 0.0001
vt 0.333367 0.0001
vt 0.444455 0.0001
vt 0.555544 0.0001
vt 0.666633 0.0001
vt 0.777722 0.0001
vt 0.888811 0.0001
vt 0.888811 0.9999
vt 0.777722 0.9999
vt 0.666633 0.9999
vt 0.555544 0.9999
vt 0.444455 0.9999
vt 0.333367 0.9999
vt 0.222278 0.9999
vt 0.111189 0.9999
vt 0.0001 0.888811
vt 0.0001 0.777722
vt 0.0001 0.666633
vt 0.0001 0.555544
vt 0.0001 0.444456
vt 0.0001 0.333367
vt 0.0001 0.222278
vt 0.0001 0.111189
vt 0.9999 0.111189
vt 0.9999 0.222278
vt 0.9999 0.333367
vt 0.9999 0.444456
vt 0.9999 0.555544
vt 0.9999 0.666633
vt 0.9999 0.777722
vt 0.9999 0.888811
vt 0.11727 0.115399
vt 0.120778 0.180369
vt 0.134636 0.309595
vt 0.088728 0.473895
vt 0.085886 0.575352
vt 0.086211 0.65375
vt 0.092207 0.78313
vt 0.106956 0.892282
vt 0.22987 0.102869
vt 0.221803 0.229552
vt 0.233521 0.288953
vt 0.225541 0.443179
vt 0.221596 0.556167
vt 0.227801 0.661237
vt 0.214896 0.795203
vt 0.22542 0.865181
vt 0.335524 0.082127
vt 0.351143 0.213907
vt 0.311934 0.342467
vt 0.313159 0.422214
vt 0.347791 0.572605
vt 0.301482 0.677733
vt 0.329031 0.783086
vt 0.344903 0.885466
vt 0.476837 0.074882
vt 0.441952 0.218774
vt 0.445749 0.333088
vt 0.416414 0.43099
vt 0.439746 0.552976
vt 0.463203 0.656843
vt 0.444252 0.77653
vt 0.426137 0.866051
vt 0.573419 0.117409
vt 0.581125 0.246686
vt 0.552512 0.326
vt 0.561075 0.459693
vt 0.558356 0.550596
vt 0.530299 0.662189
vt 0.553275 0.760113
vt 0.555478 0.888821
vt 0.694433 0.13996
vt 0.667048 0.221666
vt 0.681985 0.314267
vt 0.698218 0.467249
vt 0.696819 0.535952
vt 0.68253 0.662758
vt 0.642062 0.791726
vt 0.648523 0.877957
vt 0.778029 0.111667
vt 0.809426 0.219523
vt 0.794923 0.307783
vt 0.772028 0.454562
vt 0.796846 0.533374
vt 0.807262 0.663157
vt 0.778581 0.821037
vt 0.775122 0.858219
vt 0.890224 0.104741
vt 0.865679 0.23076
vt 0.887326 0.334104
vt 0.881307 0.429754
vt 0.887973 0.53063
vt 0.918106 0.681428
vt 0.915043 0.778027
vt 0.904815 0.89094
vn 0.000701491 -0.0435558 0.999051
vn -0.0320086 0.0490333 0.998284
vn -0.0123548 -0.100314 0.994879
vn 0.058631 -0.0222006 0.998033
vn 0.0558763 0.0171777 0.99829
vn 0.0530927 0.0810543 0.995295
vn 0.0270586 0.0800229 0.996426
vn 0.00489226 0.0279026 0.999599
vn 0.00769027 0.00299712 0.999966
vn -0.0171257 -0.00821936 0.99982
vn -0.0169307 0.0217464 0.99962
vn -0.0260194 0.0520472 0.998306
vn 0.14447 -0.0914406 0.985275
vn 0.120044 -0.109051 0.986761
vn 0.0738248 -0.0803602 0.994028
vn 0.0155542 -0.0780069 0.996831
vn -0.0822388 -0.0192784 0.996426
vn -0.00284878 0.0365523 0.999328
vn -0.102309 -0.129211 0.986325
vn -0.183908 -0.264712 0.946629
vn 0.0936055 0.104679 0.990091
vn -0.0703412 0.0189443 0.997343
vn -0.051292 0.0171669 0.998536
vn 0.02319 0.0278581 0.999343
vn 0.0983434 0.0727173 0.992492
vn 0.123321 0.0713069 0.989802
vn 0.134908 0.100177 0.985781
vn 0.0811881 0.0657071 0.994531
vn -0.0382498 0.0824428 0.995861
vn 0.0264817 0.0485233 0.998471
vn 0.0324477 0.0250794 0.999159
vn 0.028259 0.0156618 0.999478
vn 0.0248222 0.0393456 0.998917
vn 0.00424107 0.0395642 0.999208
vn -0.0530087 0.0699999 0.996138
vn -0.0422394 0.0398104 0.998314
vn 0.102764 0.101589 0.989505
vn 0.106133 0.12181 0.986863
vn 0.0051561 0.0273926 0.999611
vn -0.0135614 0.0155744 0.999787
vn -0.054723 0.0170886 0.998355
vn -0.0433662 0.00562331 0.999043
vn 0.0544524 0.107976 0.992661
vn -0.06165 -0.0766811 0.995148
vn 0.0335602 0.0853099 0.995789
vn -0.0507138 0.0112129 0.99865
vn -0.145009 -0.0828331 0.985957
vn -0.131212 -0.0106918 0.991297
vn 0.0324845 0.0780365 0.996421
vn 0.109224 0.123413 0.986326
vn -0.0431802 -0.0198232 0.998871
vn -0.218913 -0.211782 0.952484
vn -0.00258837 0.0325297 0.999467
vn -0.0561937 -0.037624 0.997711
vn -0.0358747 -0.00702149 0.999332
vn 0.0418682 0.0917228 0.994904
vn -0.00964841 0.115776 0.993228
vn -0.0100031 0.0124083 0.999873
vn -0.184 -0.131939 0.974031
vn -0.0570157 -0.0335198 0.99781
vn -0.00484845 -1.17417e-05 0.999988
vn 0.00487145 -0.0130048 0.999904
vn 0.0160365 0.0153407 0.999754
vn 0.00219922 0.0958397 0.995394
vn -0.100171 0.0225371 0.994715
vn -0.13186 -0.0349438 0.990652
vn -0.0968135 -0.0590909 0.993547
vn -0.0797257 -0.00822758 0.996783
vn 0.00473055 0.00723196 0.999963
vn 0.0149857 -0.0144642 0.999783
vn 0.0159855 -0.00443117 0.999862
vn -0.00797405 0.0448873 0.99896
vn 0.00194661 -0.000654655 0.999998
vn -0.0332199 -0.0285876 0.999039
vn 0.00969103 -0.0334077 0.999395
vn 0.00527898 -0.0189999 0.999806
vn -0.0215492 0.02101 0.999547
vn 0.00442217 0.0145442 0.999884
vn 0.0194245 -0.0144923 0.999706
vn -0.00322702 0.065754 0.997831
vn 0.0194724 0.06931 0.997405
vn 0.0870427 -0.0161864 0.996073
vn 0.0928771 -0.00426539 0.995668
vn 0.100675 -0.036894 0.994235
vn -0.0066564 0.00706258 0.999953
vn 0.0017531 0.0510394 0.998695
vn 0.0221008 0.0196222 0.999563
vn 0.0306255 0.0308364 0.999055
vn 0.019766 0.0828184 0.996369
vn 0.0287491 0.065954 0.997408
vn 0.10712 0.0238916 0.993959
vn 0.11428 -0.0191723 0.993264
vn 0.000608704 0.044573 0.999006
vn 0.0288424 0.045513 0.998547
vn 0.0168969 0.0335221 0.999295
vn 0.0376015 0.0160701 0.999164
vn 0.0184511 0.0515508 0.9985
vn -0.0326142 0.0726552 0.996824
vn -0.0173145 0.049096 0.998644
vn 0.0713079 -0.0199863 0.997254
f 100/100/100 4/4/4 13/13/13
f 44/44/44 3/3/3 21/21/21
f 44/44/44 19/19/19 20/20/20
f 60/60/60 19/19/19 52/52/52
f 60/60/60 17/17/17 18/18/18
f 76/76/76 17/17/17 68/68/68
f 84/84/84 16/16/16 76/76/76
f 84/84/84 14/14/14 15/15/15
f 100/100/100 14/14/14 92/92/92
f 11/11/11 93/93/93 85/85/85
f 93/93/93 86/86/86 85/85/85
f 94/94/94 87/87/87 86/86/86
f 87/87/87 96/96/96 88/88/88
f 96/96/96 89/89/89 88/88/88
f 97/97/97 90/90/90 89/89/89
f 90/90/90 99/99/99 91/91/91
f 91/91/91 100/100/100 92/92/92
f 10/10/10 85/85/85 77/77/77
f 77/77/77 86/86/86 78/78/78
f 78/78/78 87/87/87 79/79/79
f 79/79/79 88/88/88 80/80/80
f 88/88/88 81/81/81 80/80/80
f 81/81/81 90/90/90 82/82/82
f 82/82/82 91/91/91 83/83/83
f 91/91/91 84/84/84 83/83/83
f 10/10/10 69/69/69 9/9/9
f 69/69/69 78/78/78 70/70/70
f 70/70/70 79/79/79 71/71/71
f 79/79/79 72/72/72 71/71/71
f 72/72/72 81/81/81 73/73/73
f 73/73/73 82/82/82 74/74/74
f 82/82/82 75/75/75 74/74/74
f 83/83/83 76/76/76 75/75/75
f 9/9/9 61/61/61 8/8/8
f 69/69/69 62/62/62 61/61/61
f 62/62/62 71/71/71 63/63/63
f 63/63/63 72/72/72 64/64/64
f 72/72/72 65/65/65 64/64/64
f 65/65/65 74/74/74 66/66/66
f 66/66/66 75/75/75 67/67/67
f 67/67/67 76/76/76 68/68/68
f 8/8/8 53/53/53 7/7/7
f 53/53/53 62/62/62 54/54/54
f 54/54/54 63/63/63 55/55/55
f 55/55/55 64/64/64 56/56/56
f 64/64/64 57/57/57 56/56/56
f 57/57/57 66/66/66 58/58/58
f 58/58/58 67/67/67 59/59/59
f 59/59/59 68/68/68 60/60/60
f 6/6/6 53/53/53 45/45/45
f 45/45/45 54/54/54 46/46/46
f 54/54/54 47/47/47 46/46/46
f 55/55/55 48/48/48 47/47/47
f 56/56/56 49/49/49 48/48/48
f 49/49/49 58/58/58 50/50/50
f 58/58/58 51/51/51 50/50/50
f 59/59/59 52/52/52 51/51/51
f 6/6/6 37/37/37 5/5/5
f 45/45/45 38/38/38 37/37/37
f 46/46/46 39/39/39 38/38/38
f 39/39/39 48/48/48 40/40/40
f 40/40/40 49/49/49 41/41/41
f 41/41/41 50/50/50 42/42/42
f 50/50/50 43/43/43 42/42/42
f 51/51/51 44/44/44 43/43/43
f 5/5/5 28/28/28 1/1/1
f 28/28/28 38/38/38 27/27/27
f 27/27/27 39/39/39 26/26/26
f 26/26/26 40/40/40 25/25/25
f 40/40/40 24/24/24 25/25/25
f 41/41/41 23/23/23 24/24/24
f 23/23/23 43/43/43 22/22/22
f 43/43/43 21/21/21 22/22/22
f 2/2/2 93/93/93 12/12/12
f 93/93/93 30/30/30 94/94/94
f 30/30/30 95/95/95 94/94/94
f 31/31/31 96/96/96 95/95/95
f 32/32/32 97/97/97 96/96/96
f 33/33/33 98/98/98 97/97/97
f 98/98/98 35/35/35 99/99/99
f 99/99/99 36/36/36 100/100/100
f 100/100/100 36/36/36 4/4/4
f 44/44/44 20/20/20 3/3/3
f 44/44/44 52/52/52 19/19/19
f 60/60/60 18/18/18 19/19/19
f 60/60/60 68/68/68 17/17/17
f 76/76/76 16/16/16 17/17/17
f 84/84/84 15/15/15 16/16/16
f 84/84/84 92/92/92 14/14/14
f 100/100/100 13/13/13 14/14/14
f 11/11/11 12/12/12 93/93/93
f 93/93/93 94/94/94 86/86/86
f 94/94/94 95/95/95 87/87/87
f 87/87/87 95/95/95 96/96/96
f 96/96/96 97/97/97 89/89/89
f 97/97/97 98/98/98 90/90/90
f 90/90/90 98/98/98 99/99/99
f 91/91/91 99/99/99 100/100/100
f 10/10/10 11/11/11 85/85/85
f 77/77/77 85/85/85 86/86/86
f 78/78/78 86/86/86 87/87/87
f 79/79/79 87/87/87 88/88/88
f 88/88/88 89/89/89 81/81/81
f 81/81/81 89/89/89 90/90/90
f 82/82/82 90/90/90 91/91/91
f 91/91/91 92/92/92 84/84/84
f 10/10/10 77/77/77 69/69/69
f 69/69/69 77/77/77 78/78/78
f 70/70/70 78/78/78 79/79/79
f 79/79/79 80/80/80 72/72/72
f 72/72/72 80/80/80 81/81/81
f 73/73/73 81/81/81 82/82/82
f 82/82/82 83/83/83 75/75/75
f 83/83/83 84/84/84 76/76/76
f 9/9/9 69/69/69 61/61/61
f 69/69/69 70/70/70 62/62/62
f 62/62/62 70/70/70 71/71/71
f 63/63/63 71/71/71 72/72/72
f 72/72/72 73/73/73 65/65/65
f 65/65/65 73/73/73 74/74/74
f 66/66/66 74/74/74 75/75/75
f 67/67/67 75/75/75 76/76/76
f 8/8/8 61/61/61 53/53/53
f 53/53/53 61/61/61 62/62/62
f 54/54/54 62/62/62 63/63/63
f 55/55/55 63/63/63 64/64/64
f 64/64/64 65/65/65 57/57/57
f 57/57/57 65/65/65 66/66/66
f 58/58/58 66/66/66 67/67/67
f 59/59/59 67/67/67 68/68/68
f 6/6/6 7/7/7 53/53/53
f 45/45/45 53/53/53 54/54/54
f 54/54/54 55/55/55 47/47/47
f 55/55/55 56/56/56 48/48/48
f 56/56/56 57/57/57 49/49/49
f 49/49/49 57/57/57 58/58/58
f 58/58/58 59/59/59 51/51/51
f 59/59/59 60/60/60 52/52/52
f 6/6/6 45/45/45 37/37/37
f 45/45/45 46/46/46 38/38/38
f 46/46/46 47/47/47 39/39/39
f 39/39/39 47/47/47 48/48/48
f 40/40/40 48/48/48 49/49/49
f 41/41/41 49/49/49 50/50/50
f 50/50/50 51/51/51 43/43/43
f 51/51/51 52/52/52 44/44/44
f 5/5/5 37/37/37 28/28/28
f 28/28/28 37/37/37 38/38/38
f 27/27/27 38/38/38 39/39/39
f 26/26/26 39/39/39 40/40/40
f 40/40/40 41/41/41 24/24/24
f 41/41/41 42/42/42 23/23/23
f 23/23/23 42/42/42 43/43/43
f 43/43/43 44/44/44 21/21/21
f 2/2/2 29/29/29 93/93/93
f 93/93/93 29/29/29 30/30/30
f 30/30/30 31/31/31 95/95/95
f 31/31/31 32/32/32 96/96/96
f 32/32/32 33/33/33 97/97/97
f 33/33/33 34/34/34 98/98/98
f 98/98/98 34/34/34 35/35/35
f 99/99/99 35/35/35 36/36/36
