o GNATVCloth
v -5.01605 -4.97441 0.608527
v 5.05843 -4.98709 0.400634
v -5.01298 5.02105 0.004229
v 4.98702 5.02105 0.004229
v -3.90933 -5.0126 0.495422
v -2.79026 -5.04181 0.483878
v -1.66791 -5.06583 0.449884
v -0.543309 -5.08045 0.453426
v 0.581019 -5.07733 0.476792
v 1.70312 -5.05712 0.453518
v 2.8247 -5.04197 0.43777
v 3.9433 -5.0165 0.372352
v 3.87151 4.89915 0.214866
v 2.76294 4.79723 0.408641
v 1.64377 4.7444 0.323512
v 0.523303 4.70655 0.319194
v -0.575869 4.68089 0.517706
v -1.69254 4.69627 0.586076
v -2.81209 4.75458 0.499666
v -3.91146 4.863 0.263428
v -4.97259 3.90856 0.0839087
v -4.96635 2.79435 0.133931
v -4.96641 1.68082 0.184058
v -4.97339 0.567773 0.228464
v -4.97999 -0.544643 0.265998
v -4.98616 -1.65658 0.306508
v -4.99518 -2.76711 0.374703
v -5.00579 -3.87506 0.459862
v 5.04043 -3.87667 0.33163
v 5.02664 -2.77196 0.211665
v 5.01439 -1.65957 0.196671
v 5.00164 -0.546468 0.197737
v 4.99171 0.566557 0.193845
v 4.9819 1.68005 0.167726
v 4.9762 2.79406 0.13118
v 4.96791 3.90715 0.0640229
v -3.8314 -3.86213 0.406661
v -3.79338 -3.22338 0.311535
v -3.64146 -1.93715 0.265618
v -4.0929 -0.279171 0.227002
v -4.11384 0.735471 0.18104
v -4.10567 1.52086 0.124697
v -4.04654 2.81241 0.0479423
v -3.9249 3.87995 -0.174145
v -2.70448 -4.03001 0.318509
v -2.7756 -2.75886 0.321503
v -2.65202 -2.16953 0.286284
v -2.72554 -0.623601 0.280022
v -2.75714 0.503593 0.195376
v -2.68099 1.54393 0.0412512
v -2.84525 2.85242 -0.255405
v -2.76768 3.48737 0.0399415
v -1.64208 -4.25974 0.360928
v -1.4811 -2.9466 0.406696
v -1.86844 -1.65238 0.375254
v -1.84986 -0.859001 0.296707
v -1.51466 0.599831 -0.0548545
v -1.98269 1.64284 -0.234679
v -1.70724 2.68059 -0.0975837
v -1.5837 3.5868 0.319061
v -0.217736 -4.33459 0.40174
v -0.567389 -2.90812 0.436962
v -0.527596 -1.77337 0.338094
v -0.817031 -0.802886 0.211353
v -0.59172 0.399857 0.0168331
v -0.36543 1.41899 -0.0245853
v -0.575673 2.57312 0.162657
v -0.761825 3.38944 0.336878
v 0.754192 -3.90857 0.363218
v 0.833 -2.62286 0.377523
v 0.542289 -1.84416 0.317858
v 0.625769 -0.546634 -0.00808026
v 0.597934 0.362134 0.00757984
v 0.307923 1.47478 -0.0334561
v 0.525905 2.43235 0.0984509
v 0.548402 3.60087 0.376603
v 1.9718 -3.66547 0.307929
v 1.69711 -2.8621 0.415751
v 1.83906 -1.93326 0.40209
v 1.99293 -0.420573 0.154307
v 1.98934 0.236504 -0.0453367
v 1.83469 1.49997 -0.0526391
v 1.41044 2.76893 0.0253172
v 1.49118 3.51907 0.319584
v 2.81553 -3.93282 0.316036
v 3.122 -2.84801 0.312899
v 2.97057 -1.96863 0.351083
v 2.72338 -0.507532 0.302258
v 2.96856 0.27672 0.17279
v 3.08396 1.54978 -0.094617
v 2.76505 3.11402 -0.163241
v 2.7485 3.43342 0.0283527
v 3.94282 -3.97421 0.331575
v 3.6848 -2.723 0.304078
v 3.89181 -1.68301 0.300915
v 3.82167 -0.726893 0.311824
v 3.87573 0.287056 0.279536
v 4.16167 1.80138 0.14842
v 4.14012 2.75403 -0.0205046
v 4.02968 3.87404 -0.134878
vt 0.0001 0.0001
vt 0.9999 0.0001
vt 0.0001 0.9999
vt 0.9999 0.9999
vt 0.111189 0.0001
vt 0.222278 0.0001
vt 0.333367 0.0001
vt 0.444455 0.0001
vt 0.555544 0.0001
vt 0.666633 0.0001
vt 0.777722 0.0001
vt 0.888811 0.0001
vt 0.888811 0.9999
vt 0.777722 0.9999
vt 0.666633 0.9999
vt 0.555544 0.9999
vt 0.444455 0.9999
vt 0.333367 0.9999
vt 0.222278 0.9999
vt 0.111189 0.9999
vt 0.0001 0.888811
vt 0.0001 0.777722
vt 0.0001 0.666633
vt 0.0001 0.555544
vt 0.0001 0.444456
vt 0.0001 0.333367
vt 0.0001 0.222278
vt 0.0001 0.111189
vt 0.9999 0.111189
vt 0.9999 0.222278
vt 0.9999 0.333367
vt 0.9999 0.444456
vt 0.9999 0.555544
vt 0.9999 0.666633
vt 0.9999 0.777722
vt 0.9999 0.888811
vt 0.11727 0.115399
vt 0.120778 0.180369
vt 0.134636 0.309595
vt 0.088728 0.473895
vt 0.085886 0.575352
vt 0.086211 0.65375
vt 0.092207 0.78313
vt 0.106956 0.892282
vt 0.22987 0.102869
vt 0.221803 0.229552
vt 0.233521 0.288953
vt 0.225541 0.443179
vt 0.221596 0.556167
vt 0.227801 0.661237
vt 0.214896 0.795203
vt 0.22542 0.865181
vt 0.335524 0.082127
vt 0.351143 0.213907
vt 0.311934 0.342467
vt 0.313159 0.422214
vt 0.347791 0.572605
vt 0.301482 0.677733
vt 0.329031 0.783086
vt 0.344903 0.885466
vt 0.476837 0.074882
vt 0.441952 0.218774
vt 0.445749 0.333088
vt 0.416414 0.43099
vt 0.439746 0.552976
vt 0.463203 0.656843
vt 0.444252 0.77653
vt 0.426137 0.866051
vt 0.573419 0.117409
vt 0.581125 0.246686
vt 0.552512 0.326
vt 0.561075 0.459693
vt 0.558356 0.550596
vt 0.530299 0.662189
vt 0.553275 0.760113
vt 0.555478 0.888821
vt 0.694433 0.13996
vt 0.667048 0.221666
vt 0.681985 0.314267
vt 0.698218 0.467249
vt 0.696819 0.535952
vt 0.68253 0.662758
vt 0.642062 0.791726
vt 0.648523 0.877957
vt 0.778029 0.111667
vt 0.809426 0.219523
vt 0.794923 0.307783
vt 0.772028 0.454562
vt 0.796846 0.533374
vt 0.807262 0.663157
vt 0.778581 0.821037
vt 0.775122 0.858219
vt 0.890224 0.104741
vt 0.865679 0.23076
vt 0.887326 0.334104
vt 0.881307 0.429754
vt 0.887973 0.53063
vt 0.918106 0.681428
vt 0.915043 0.778027
vt 0.904815 0.89094
vn 0.105291 0.1323 0.985602
vn -0.0159605 0.0505056 0.998596
vn -0.0123129 -0.165881 0.986069
vn -0.000531621 -0.119959 0.992779
vn 0.0540215 0.0941913 0.994087
vn 0.0350102 0.124831 0.99156
vn 0.0153586 0.109191 0.993902
vn -0.015669 0.0892289 0.995888
vn -0.00170903 0.0897842 0.99596
vn 0.0197187 0.100525 0.994739
vn 0.0200963 0.0858347 0.996107
vn 0.0155572 0.0390954 0.999114
vn 0.199281 -0.288743 0.936437
vn 0.133449 -0.206592 0.969284
vn -0.0399767 0.00177534 0.999199
vn 0.0793609 0.0352791 0.996221
vn 0.0433501 -0.11149 0.99282
vn -0.0154414 -0.23539 0.971778
vn -0.197406 -0.329237 0.923382
vn -0.246841 -0.39125 0.886563
vn 0.191626 0.0986058 0.976502
vn 0.0921101 0.0449739 0.994733
vn 0.0750393 0.0525869 0.995793
vn 0.0424316 0.0397272 0.998309
vn 0.0334769 0.0348531 0.998832
vn 0.0378176 0.0435109 0.998337
vn 0.0623857 0.0549038 0.996541
vn 0.0684956 0.106699 0.991929
vn -0.007595 0.0849068 0.99636
vn 0.0553013 0.037075 0.997781
vn 0.0936456 0.00333825 0.9956
vn 0.0879709 0.0103656 0.996069
vn 0.0377213 0.0342954 0.9987
vn -0.0193844 0.0279782 0.999421
vn -0.128388 0.086469 0.987947
vn -0.199779 0.0642635 0.977731
vn 0.059558 0.117692 0.991262
vn 0.041653 0.0710824 0.9966
vn 0.00771739 0.0341944 0.999385
vn 0.0131891 0.0403749 0.999098
vn 0.0406808 0.0696874 0.996739
vn 0.0688231 0.06337 0.995614
vn 0.147524 0.113285 0.982549
vn -0.0532342 -0.16403 0.985018
vn 0.0120658 0.0698503 0.997485
vn -0.0328941 0.0324504 0.998932
vn -0.0603815 0.0252107 0.997857
vn -0.02984 0.0439069 0.99859
vn 0.100695 0.127908 0.986661
vn 0.174874 0.147749 0.973442
vn 0.0298394 -0.0354693 0.998925
vn -0.225037 -0.368097 0.902143
vn -0.0152433 0.0526727 0.998495
vn -0.0448326 0.0169427 0.998851
vn -0.0107854 0.0602652 0.998124
vn 0.0669477 0.136486 0.988377
vn 0.034326 0.167191 0.985327
vn 0.0308232 0.0564432 0.99793
vn -0.185535 -0.269866 0.944854
vn -0.0955792 -0.291493 0.951786
vn -0.00666151 0.0419714 0.999097
vn 0.00591497 0.024209 0.999689
vn 0.0355981 0.126016 0.991389
vn 0.0652128 0.15408 0.985904
vn 0.00766673 0.069924 0.997523
vn -0.0430891 -0.0449317 0.99806
vn -0.0928794 -0.185046 0.978331
vn -0.0833236 -0.228722 0.969919
vn 0.0218517 0.0207021 0.999547
vn -0.0152188 0.0275616 0.999504
vn -0.00469171 0.143159 0.989689
vn 0.000815421 0.153356 0.988171
vn 0.0207377 0.011322 0.999721
vn 0.0141428 -0.0329614 0.999357
vn 0.0611441 -0.155292 0.985975
vn 0.0659957 -0.154614 0.985768
vn 0.0359983 -0.0028704 0.999348
vn 0.0287813 -0.0382975 0.998852
vn -0.0519348 0.103424 0.993281
vn -0.151142 0.231232 0.961087
vn -0.0912304 0.148367 0.984715
vn 0.052314 -0.0104008 0.998577
vn 0.131563 -0.206947 0.969466
vn 0.0873004 -0.213797 0.972969
vn 0.000668214 0.0660618 0.997815
vn 0.0263852 -0.0237535 0.99937
vn 0.0428311 -0.000509243 0.999082
vn -0.0819021 0.154665 0.984566
vn -0.131393 0.17182 0.976327
vn -0.125494 0.117029 0.985168
vn 0.0975787 -0.180398 0.978741
vn 0.213479 -0.382203 0.899081
vn 0.0091311 0.053069 0.998549
vn 0.0460137 0.000478596 0.998941
vn 0.0733292 -0.00324789 0.997302
vn 0.0345312 0.0347063 0.998801
vn -0.0430205 0.0822335 0.995684
vn -0.111875 0.0995968 0.988719
vn -0.167691 0.0978605 0.980971
vn 0.0575611 -0.164131 0.984758
f 100/100/100 4/4/4 13/13/13
f 44/44/44 3/3/3 21/21/21
f 44/44/44 19/19/19 20/20/20
f 60/60/60 19/19/19 52/52/52
f 60/60/60 17/17/17 18/18/18
f 76/76/76 17/17/17 68/68/68
f 84/84/84 16/16/16 76/76/76
f 84/84/84 14/14/14 15/15/15
f 100/100/100 14/14/14 92/92/92
f 11/11/11 93/93/93 85/85/85
f 93/93/93 86/86/86 85/85/85
f 94/94/94 87/87/87 86/86/86
f 87/87/87 96/96/96 88/88/88
f 96/96/96 89/89/89 88/88/88
f 97/97/97 90/90/90 89/89/89
f 90/90/90 99/99/99 91/91/91
f 91/91/91 100/100/100 92/92/92
f 10/10/10 85/85/85 77/77/77
f 77/77/77 86/86/86 78/78/78
f 78/78/78 87/87/87 79/79/79
f 79/79/79 88/88/88 80/80/80
f 88/88/88 81/81/81 80/80/80
f 81/81/81 90/90/90 82/82/82
f 82/82/82 91/91/91 83/83/83
f 91/91/91 84/84/84 83/83/83
f 10/10/10 69/69/69 9/9/9
f 69/69/69 78/78/78 70/70/70
f 70/70/70 79/79/79 71/71/71
f 79/79/79 72/72/72 71/71/71
f 72/72/72 81/81/81 73/73/73
f 73/73/73 82/82/82 74/74/74
f 82/82/82 75/75/75 74/74/74
f 83/83/83 76/76/76 75/75/75
f 9/9/9 61/61/61 8/8/8
f 69/69/69 62/62/62 61/61/61
f 62/62/62 71/71/71 63/63/63
f 63/63/63 72/72/72 64/64/64
f 72/72/72 65/65/65 64/64/64
f 65/65/65 74/74/74 66/66/66
f 66/66/66 75/75/75 67/67/67
f 67/67/67 76/76/76 68/68/68
f 8/8/8 53/53/53 7/7/7
f 53/53/53 62/62/62 54/54/54
f 54/54/54 63/63/63 55/55/55
f 55/55/55 64/64/64 56/56/56
f 64/64/64 57/57/57 56/56/56
f 57/57/57 66/66/66 58/58/58
f 58/58/58 67/67/67 59/59/59
f 59/59/59 68/68/68 60/60/60
f 6/6/6 53/53/53 45/45/45
f 45/45/45 54/54/54 46/46/46
f 54/54/54 47/47/47 46/46/46
f 55/55/55 48/48/48 47/47/47
f 56/56/56 49/49/49 48/48/48
f 49/49/49 58/58/58 50/50/50
f 58/58/58 51/51/51 50/50/50
f 59/59/59 52/52/52 51/51/51
f 6/6/6 37/37/37 5/5/5
f 45/45/45 38/38/38 37/37/37
f 46/46/46 39/39/39 38/38/38
f 39/39/39 48/48/48 40/40/40
f 40/40/40 49/49/49 41/41/41
f 41/41/41 50/50/50 42/42/42
f 50/50/50 43/43/43 42/42/42
f 51/51/51 44/44/44 43/43/43
f 5/5/5 28/28/28 1/1/1
f 28/28/28 38/38/38 27/27/27
f 27/27/27 39/39/39 26/26/26
f 26/26/26 40/40/40 25/25/25
f 40/40/40 24/24/24 25/25/25
f 41/41/41 23/23/23 24/24/24
f 23/23/23 43/43/43 22/22/22
f 43/43/43 21/21/21 22/22/22
f 2/2/2 93/93/93 12/12/12
f 93/93/93 30/30/30 94/94/94
f 30/30/30 95/95/95 94/94/94
f 31/31/31 96/96/96 95/95/95
f 32/32/32 97/97/97 96/96/96
f 33/33/33 98/98/98 97/97/97
f 98/98/98 35/35/35 99/99/99
f 99/99/99 36/36/36 100/100/100
f 100/100/100 36/36/36 4/4/4
f 44/44/44 20/20/20 3/3/3
f 44/44/44 52/52/52 19/19/19
f 60/60/60 18/18/18 19/19/19
f 60/60/60 68/68/68 17/17/17
f 76/76/76 16/16/16 17/17/17
f 84/84/84 15/15/15 16/16/16
f 84/84/84 92/92/92 14/14/14
f 100/100/100 13/13/13 14/14/14
f 11/11/11 12/12/12 93/93/93
f 93/93/93 94/94/94 86/86/86
f 94/94/94 95/95/95 87/87/87
f 87/87/87 95/95/95 96/96/96
f 96/96/96 97/97/97 89/89/89
f 97/97/97 98/98/98 90/90/90
f 90/90/90 98/98/98 99/99/99
f 91/91/91 99/99/99 100/100/100
f 10/10/10 11/11/11 85/85/85
f 77/77/77 85/85/85 86/86/86
f 78/78/78 86/86/86 87/87/87
f 79/79/79 87/87/87 88/88/88
f 88/88/88 89/89/89 81/81/81
f 81/81/81 89/89/89 90/90/90
f 82/82/82 90/90/90 91/91/91
f 91/91/91 92/92/92 84/84/84
f 10/10/10 77/77/77 69/69/69
f 69/69/69 77/77/77 78/78/78
f 70/70/70 78/78/78 79/79/79
f 79/79/79 80/80/80 72/72/72
f 72/72/72 80/80/80 81/81/81
f 73/73/73 81/81/81 82/82/82
f 82/82/82 83/83/83 75/75/75
f 83/83/83 84/84/84 76/76/76
f 9/9/9 69/69/69 61/61/61
f 69/69/69 70/70/70 62/62/62
f 62/62/62 70/70/70 71/71/71
f 63/63/63 71/71/71 72/72/72
f 72/72/72 73/73/73 65/65/65
f 65/65/65 73/73/73 74/74/74
f 66/66/66 74/74/74 75/75/75
f 67/67/67 75/75/75 76/76/76
f 8/8/8 61/61/61 53/53/53
f 53/53/53 61/61/61 62/62/62
f 54/54/54 62/62/62 63/63/63
f 55/55/55 63/63/63 64/64/64
f 64/64/64 65/65/65 57/57/57
f 57/57/57 65/65/65 66/66/66
f 58/58/58 66/66/66 67/67/67
f 59/59/59 67/67/67 68/68/68
f 6/6/6 7/7/7 53/53/53
f 45/45/45 53/53/53 54/54/54
f 54/54/54 55/55/55 47/47/47
f 55/55/55 56/56/56 48/48/48
f 56/56/56 57/57/57 49/49/49
f 49/49/49 57/57/57 58/58/58
f 58/58/58 59/59/59 51/51/51
f 59/59/59 60/60/60 52/52/52
f 6/6/6 45/45/45 37/37/37
f 45/45/45 46/46/46 38/38/38
f 46/46/46 47/47/47 39/39/39
f 39/39/39 47/47/47 48/48/48
f 40/40/40 48/48/48 49/49/49
f 41/41/41 49/49/49 50/50/50
f 50/50/50 51/51/51 43/43/43
f 51/51/51 52/52/52 44/44/44
f 5/5/5 37/37/37 28/28/28
f 28/28/28 37/37/37 38/38/38
f 27/27/27 38/38/38 39/39/39
f 26/26/26 39/39/39 40/40/40
f 40/40/40 41/41/41 24/24/24
f 41/41/41 42/42/42 23/23/23
f 23/23/23 42/42/42 43/43/43
f 43/43/43 44/44/44 21/21/21
f 2/2/2 29/29/29 93/93/93
f 93/93/93 29/29/29 30/30/30
f 30/30/30 31/31/31 95/95/95
f 31/31/31 32/32/32 96/96/96
f 32/32/32 33/33/33 97/97/97
f 33/33/33 34/34/34 98/98/98
f 98/98/98 34/34/34 35/35/35
f 99/99/99 35/35/35 36/36/36
