o GNATVCloth
v -4.99196 -5.01279 0.20629
v 5.17972 -5.01038 0.198191
v -5.01298 5.02105 0.004229
v 4.98702 5.02105 0.004229
v -3.87373 -5.0621 0.159759
v -2.74863 -5.11461 0.127763
v -1.61717 -5.15379 0.140303
v -0.479335 -5.18202 0.124446
v 0.661594 -5.19456 0.0793265
v 1.80021 -5.16987 0.0968613
v 2.93328 -5.1194 0.137034
v 4.05964 -5.06345 0.183034
v 3.85834 4.92314 0.118873
v 2.73725 4.84054 0.126757
v 1.61937 4.74997 0.169592
v 0.624336 4.7078 0.135218
v -0.455685 4.74964 0.106259
v -1.57806 4.81256 0.171617
v -2.71306 4.88717 0.130028
v -3.85543 4.94488 0.0637234
v -4.96823 3.90448 0.040073
v -4.95355 2.78752 0.0787751
v -4.95032 1.67113 0.117758
v -4.9471 0.554984 0.151881
v -4.95029 -0.560728 0.159149
v -4.9551 -1.6757 0.164931
v -4.96106 -2.78885 0.160799
v -4.97225 -3.90114 0.148809
v 5.15185 -3.90063 0.17299
v 5.13901 -2.78902 0.123714
v 5.12177 -1.67538 0.144586
v 5.1071 -0.560454 0.144681
v 5.08829 0.555046 0.14252
v 5.06382 1.6714 0.120252
v 5.03793 2.78782 0.0864607
v 5.01001 3.90444 0.0491791
v -3.79155 -3.91119 0.124633
v -3.75017 -3.26361 0.107813
v -3.6043 -1.97672 0.0800954
v -4.06275 -0.309241 0.0901339
v -4.08912 0.708348 0.0989833
v -4.08716 1.49343 0.105006
v -4.03059 2.78593 0.0807413
v -3.89015 3.87011 0.0530274
v -2.65319 -4.08948 0.110134
v -2.72716 -2.81758 0.107843
v -2.6073 -2.22886 0.0957138
v -2.68503 -0.68153 0.111452
v -2.72534 0.449425 0.100557
v -2.66408 1.49925 0.0981712
v -2.79601 2.84465 0.0934807
v -2.69253 3.53919 0.109071
v -1.58166 -4.33472 0.0854406
v -1.41883 -3.0222 0.0763761
v -1.81507 -1.72342 0.134659
v -1.80221 -0.92438 0.131767
v -1.45553 0.566409 0.0935932
v -1.92447 1.63242 0.0937511
v -1.6518 2.67625 0.0996053
v -1.4857 3.69114 0.0991272
v -0.143931 -4.4422 0.0949859
v -0.498709 -3.00026 0.0831671
v -0.462731 -1.85653 0.101845
v -0.76232 -0.873548 0.0951149
v -0.53235 0.341339 0.0981066
v -0.302045 1.3722 0.10265
v -0.499025 2.57173 0.0977614
v -0.671386 3.45895 0.107648
v 0.837697 -4.02017 0.0876416
v 0.910186 -2.72556 0.114203
v 0.615934 -1.93945 0.114451
v 0.694722 -0.601568 0.0733342
v 0.659557 0.305205 0.104262
v 0.370643 1.41665 0.111637
v 0.594524 2.39208 0.106284
v 0.615558 3.62327 0.097262
v 2.06505 -3.76113 0.121175
v 1.78146 -2.95813 0.0983321
v 1.9239 -2.02755 0.0923041
v 2.07562 -0.491721 0.121715
v 2.05545 0.190513 0.088496
v 1.8937 1.4461 0.071053
v 1.47519 2.71304 0.116735
v 1.5112 3.53225 0.092103
v 2.91663 -4.00721 0.106882
v 3.22009 -2.91874 0.123103
v 3.06418 -2.04314 0.0780639
v 2.82007 -0.587391 0.10586
v 3.05861 0.212659 0.116596
v 3.14168 1.51267 0.0807231
v 2.81624 3.06858 0.0932324
v 2.76866 3.42487 0.134606
v 4.05311 -4.02171 0.0776856
v 3.78601 -2.77707 0.130113
v 3.99059 -1.73168 0.122854
v 3.92197 -0.776855 0.0859686
v 3.97343 0.236888 0.102693
v 4.24431 1.76475 0.0957196
v 4.19189 2.73036 0.0862683
v 4.0581 3.8532 0.0692439
vt 0.0001 0.0001
vt 0.9999 0.0001
vt 0.0001 0.9999
vt 0.9999 0.9999
vt 0.111189 0.0001
vt 0.222278 0.0001
vt 0.333367 0.0001
vt 0.444455 0.0001
vt 0.555544 0.0001
vt 0.666633 0.0001
vt 0.777722 0.0001
vt 0.888811 0.0001
vt 0.888811 0.9999
vt 0.777722 0.9999
vt 0.666633 0.9999
vt 0.555544 0.9999
vt 0.444455 0.9999
vt 0.333367 0.9999
vt 0.222278 0.9999
vt 0.111189 0.9999
vt 0.0001 0.888811
vt 0.0001 0.777722
vt 0.0001 0.666633
vt 0.0001 0.555544
vt 0.0001 0.444456
vt 0.0001 0.333367
vt 0.0001 0.222278
vt 0.0001 0.111189
vt 0.9999 0.111189
vt 0.9999 0.222278
vt 0.9999 0.333367
vt 0.9999 0.444456
vt 0.9999 0.555544
vt 0.9999 0.666633
vt 0.9999 0.777722
vt 0.9999 0.888811
vt 0.11727 0.115399
vt 0.120778 0.180369
vt 0.134636 0.309595
vt 0.088728 0.473895
vt 0.085886 0.575352
vt 0.086211 0.65375
vt 0.092207 0.78313
vt 0.106956 0.892282
vt 0.22987 0.102869
vt 0.221803 0.229552
vt 0.233521 0.288953
vt 0.225541 0.443179
vt 0.221596 0.556167
vt 0.227801 0.661237
vt 0.214896 0.795203
vt 0.22542 0.865181
vt 0.335524 0.082127
vt 0.351143 0.213907
vt 0.311934 0.342467
vt 0.313159 0.422214
vt 0.347791 0.572605
vt 0.301482 0.677733
vt 0.329031 0.783086
vt 0.344903 0.885466
vt 0.476837 0.074882
vt 0.441952 0.218774
vt 0.445749 0.333088
vt 0.416414 0.43099
vt 0.439746 0.552976
vt 0.463203 0.656843
vt 0.444252 0.77653
vt 0.426137 0.866051
vt 0.573419 0.117409
vt 0.581125 0.246686
vt 0.552512 0.326
vt 0.561075 0.459693
vt 0.558356 0.550596
vt 0.530299 0.662189
vt 0.553275 0.760113
vt 0.555478 0.888821
vt 0.694433 0.13996
vt 0.667048 0.221666
vt 0.681985 0.314267
vt 0.698218 0.467249
vt 0.696819 0.535952
vt 0.68253 0.662758
vt 0.642062 0.791726
vt 0.648523 0.877957
vt 0.778029 0.111667
vt 0.809426 0.219523
vt 0.794923 0.307783
vt 0.772028 0.454562
vt 0.796846 0.533374
vt 0.807262 0.663157
vt 0.778581 0.821037
vt 0.775122 0.858219
vt 0.890224 0.104741
vt 0.865679 0.23076
vt 0.887326 0.334104
vt 0.881307 0.429754
vt 0.887973 0.53063
vt 0.918106 0.681428
vt 0.915043 0.778027
vt 0.904815 0.89094
vn 0.0437586 0.050815 0.997749
vn -0.0535006 0.060523 0.996732
vn -0.0314479 0.011695 0.999437
vn 0.0611856 0.00689749 0.998103
vn 0.0314055 0.0360727 0.998856
vn 0.0156599 0.0315315 0.99938
vn 0.00340744 0.0666839 0.997768
vn 0.0172556 0.0431157 0.998921
vn 0.0119044 0.00273722 0.999925
vn -0.0163444 -0.00255758 0.999863
vn -0.0187367 0.0514711 0.998499
vn -0.031899 0.100365 0.994439
vn 0.056873 -0.0356615 0.997744
vn 0.01727 -0.0251029 0.999536
vn 0.00588138 -0.0640256 0.997931
vn -0.0192793 -0.0434687 0.998869
vn 0.00624488 -0.0230789 0.999714
vn 0.0068561 -0.0639423 0.99793
vn -0.0351199 -0.0269066 0.999021
vn -0.0551086 -0.00815637 0.998447
vn -0.00807349 0.0310806 0.999484
vn -0.00206918 0.0347463 0.999394
vn 0.0214146 0.0189615 0.999591
vn 0.0648741 0.0099678 0.997844
vn 0.075959 0.00556017 0.997095
vn 0.067761 0.00425353 0.997692
vn 0.050352 0.000216723 0.998731
vn 0.0311313 0.0233344 0.999243
vn -0.0898409 0.0317222 0.995451
vn -0.0250713 -0.00278097 0.999682
vn -0.0295598 0.00577889 0.999546
vn -0.044113 -0.0045011 0.999016
vn -0.0342559 0.0107086 0.999356
vn -0.0271276 0.0244784 0.999332
vn -0.00997297 0.0242279 0.999657
vn 0.0121707 0.0304916 0.999461
vn 0.0205922 0.0245419 0.999487
vn 0.019316 0.0131095 0.999727
vn 0.0171907 0.00669838 0.99983
vn 0.0351387 0.000761564 0.999382
vn 0.0222306 0.000296351 0.999753
vn 0.0103039 0.00528431 0.999933
vn -0.00201926 0.0232208 0.999728
vn -0.0351624 0.00546427 0.999367
vn 0.017657 0.0107214 0.999787
vn 0.00606644 0.0130968 0.999896
vn -0.0120977 -0.00711321 0.999902
vn -0.0222865 -0.0020654 0.999749
vn -0.00328358 0.00579895 0.999978
vn 0.00154877 0.00360062 0.999992
vn -0.0136753 -0.00109311 0.999906
vn -0.0184083 -0.0137276 0.999736
vn 0.00570451 0.0297195 0.999542
vn 0.00909348 -0.0106514 0.999902
vn 0.000139544 -0.0132057 0.999913
vn 0.0060333 0.0116789 0.999914
vn 0.00433506 0.00621105 0.999971
vn 5.61252e-05 -0.000187646 1
vn -0.00237819 -0.00682636 0.999974
vn 0.00211199 -0.0232263 0.999728
vn 0.00898168 0.0140336 0.999861
vn -0.009818 -0.00512741 0.999939
vn 0.00498395 -0.00231735 0.999985
vn 0.0198008 0.00652698 0.999783
vn -0.00330122 -0.00898613 0.999954
vn -0.00851015 0.0012458 0.999963
vn -0.00132115 -0.00211381 0.999997
vn -0.000319045 -0.0031731 0.999995
vn -0.00882771 -0.00576042 0.999944
vn 0.002073 -0.00779354 0.999967
vn -0.00127899 0.00863094 0.999962
vn -0.00395815 0.00371879 0.999985
vn 0.00722235 -0.0120686 0.999901
vn 0.00413638 -0.000228385 0.999991
vn -0.00244459 -0.00161948 0.999996
vn -0.0029994 -0.00495389 0.999983
vn -0.0101494 -0.00209425 0.999946
vn -0.00384638 0.0124361 0.999915
vn 0.0092971 -0.00142028 0.999956
vn -0.00657908 0.0150408 0.999865
vn -0.00786265 0.016545 0.999832
vn 0.0108888 -0.00643753 0.99992
vn 0.00596907 0.000681043 0.999982
vn -0.00641667 -0.031466 0.999484
vn 0.00751334 -0.00108728 0.999971
vn -0.0042178 0.00579316 0.999974
vn -0.0166652 0.0168553 0.999719
vn 0.0101296 -0.00468612 0.999938
vn -0.00228426 0.00315937 0.999992
vn -0.00821161 0.00973831 0.999919
vn 0.0115192 -0.0320155 0.999421
vn 0.0140231 -0.0535151 0.998469
vn -0.0237353 0.0233121 0.999446
vn -0.0141957 -0.00260288 0.999896
vn -0.0297005 0.0151773 0.999444
vn -0.018759 0.000684665 0.999824
vn -0.0178541 0.00255741 0.999837
vn -0.0208376 0.0143966 0.999679
vn 0.00223581 0.0130712 0.999912
vn 0.0421852 -0.0134507 0.999019
f 100/100/100 4/4/4 13/13/13
f 44/44/44 3/3/3 21/21/21
f 44/44/44 19/19/19 20/20/20
f 60/60/60 19/19/19 52/52/52
f 60/60/60 17/17/17 18/18/18
f 76/76/76 17/17/17 68/68/68
f 84/84/84 16/16/16 76/76/76
f 84/84/84 14/14/14 15/15/15
f 100/100/100 14/14/14 92/92/92
f 11/11/11 93/93/93 85/85/85
f 93/93/93 86/86/86 85/85/85
f 94/94/94 87/87/87 86/86/86
f 87/87/87 96/96/96 88/88/88
f 96/96/96 89/89/89 88/88/88
f 97/97/97 90/90/90 89/89/89
f 90/90/90 99/99/99 91/91/91
f 91/91/91 100/100/100 92/92/92
f 10/10/10 85/85/85 77/77/77
f 77/77/77 86/86/86 78/78/78
f 78/78/78 87/87/87 79/79/79
f 79/79/79 88/88/88 80/80/80
f 88/88/88 81/81/81 80/80/80
f 81/81/81 90/90/90 82/82/82
f 82/82/82 91/91/91 83/83/83
f 91/91/91 84/84/84 83/83/83
f 10/10/10 69/69/69 9/9/9
f 69/69/69 78/78/78 70/70/70
f 70/70/70 79/79/79 71/71/71
f 79/79/79 72/72/72 71/71/71
f 72/72/72 81/81/81 73/73/73
f 73/73/73 82/82/82 74/74/74
f 82/82/82 75/75/75 74/74/74
f 83/83/83 76/76/76 75/75/75
f 9/9/9 61/61/61 8/8/8
f 69/69/69 62/62/62 61/61/61
f 62/62/62 71/71/71 63/63/63
f 63/63/63 72/72/72 64/64/64
f 72/72/72 65/65/65 64/64/64
f 65/65/65 74/74/74 66/66/66
f 66/66/66 75/75/75 67/67/67
f 67/67/67 76/76/76 68/68/68
f 8/8/8 53/53/53 7/7/7
f 53/53/53 62/62/62 54/54/54
f 54/54/54 63/63/63 55/55/55
f 55/55/55 64/64/64 56/56/56
f 64/64/64 57/57/57 56/56/56
f 57/57/57 66/66/66 58/58/58
f 58/58/58 67/67/67 59/59/59
f 59/59/59 68/68/68 60/60/60
f 6/6/6 53/53/53 45/45/45
f 45/45/45 54/54/54 46/46/46
f 54/54/54 47/47/47 46/46/46
f 55/55/55 48/48/48 47/47/47
f 56/56/56 49/49/49 48/48/48
f 49/49/49 58/58/58 50/50/50
f 58/58/58 51/51/51 50/50/50
f 59/59/59 52/52/52 51/51/51
f 6/6/6 37/37/37 5/5/5
f 45/45/45 38/38/38 37/37/37
f 46/46/46 39/39/39 38/38/38
f 39/39/39 48/48/48 40/40/40
f 40/40/40 49/49/49 41/41/41
f 41/41/41 50/50/50 42/42/42
f 50/50/50 43/43/43 42/42/42
f 51/51/51 44/44/44 43/43/43
f 5/5/5 28/28/28 1/1/1
f 28/28/28 38/38/38 27/27/27
f 27/27/27 39/39/39 26/26/26
f 26/26/26 40/40/40 25/25/25
f 40/40/40 24/24/24 25/25/25
f 41/41/41 23/23/23 24/24/24
f 23/23/23 43/43/43 22/22/22
f 43/43/43 21/21/21 22/22/22
f 2/2/2 93/93/93 12/12/12
f 93/93/93 30/30/30 94/94/94
f 30/30/30 95/95/95 94/94/94
f 31/31/31 96/96/96 95/95/95
f 32/32/32 97/97/97 96/96/96
f 33/33/33 98/98/98 97/97/97
f 98/98/98 35/35/35 99/99/99
f 99/99/99 36/36/36 100/100/100
f 100/100/100 36/36/36 4/4/4
f 44/44/44 20/20/20 3/3/3
f 44/44/44 52/52/52 19/19/19
f 60/60/60 18/18/18 19/19/19
f 60/60/60 68/68/68 17/17/17
f 76/76/76 16/16/16 17/17/17
f 84/84/84 15/15/15 16/16/16
f 84/84/84 92/92/92 14/14/14
f 100/100/100 13/13/13 14/14/14
f 11/11/11 12/12/12 93/93/93
f 93/93/93 94/94/94 86/86/86
f 94/94/94 95/95/95 87/87/87
f 87/87/87 95/95/95 96/96/96
f 96/96/96 97/97/97 89/89/89
f 97/97/97 98/98/98 90/90/90
f 90/90/90 98/98/98 99/99/99
f 91/91/91 99/99/99 100/100/100
f 10/10/10 11/11/11 85/85/85
f 77/77/77 85/85/85 86/86/86
f 78/78/78 86/86/86 87/87/87
f 79/79/79 87/87/87 88/88/88
f 88/88/88 89/89/89 81/81/81
f 81/81/81 89/89/89 90/90/90
f 82/82/82 90/90/90 91/91/91
f 91/91/91 92/92/92 84/84/84
f 10/10/10 77/77/77 69/69/69
f 69/69/69 77/77/77 78/78/78
f 70/70/70 78/78/78 79/79/79
f 79/79/79 80/80/80 72/72/72
f 72/72/72 80/80/80 81/81/81
f 73/73/73 81/81/81 82/82/82
f 82/82/82 83/83/83 75/75/75
f 83/83/83 84/84/84 76/76/76
f 9/9/9 69/69/69 61/61/61
f 69/69/69 70/70/70 62/62/62
f 62/62/62 70/70/70 71/71/71
f 63/63/63 71/71/71 72/72/72
f 72/72/72 73/73/73 65/65/65
f 65/65/65 73/73/73 74/74/74
f 66/66/66 74/74/74 75/75/75
f 67/67/67 75/75/75 76/76/76
f 8/8/8 61/61/61 53/53/53
f 53/53/53 61/61/61 62/62/62
f 54/54/54 62/62/62 63/63/63
f 55/55/55 63/63/63 64/64/64
f 64/64/64 65/65/65 57/57/57
f 57/57/57 65/65/65 66/66/66
f 58/58/58 66/66/66 67/67/67
f 59/59/59 67/67/67 68/68/68
f 6/6/6 7/7/7 53/53/53
f 45/45/45 53/53/53 54/54/54
f 54/54/54 55/55/55 47/47/47
f 55/55/55 56/56/56 48/48/48
f 56/56/56 57/57/57 49/49/49
f 49/49/49 57/57/57 58/58/58
f 58/58/58 59/59/59 51/51/51
f 59/59/59 60/60/60 52/52/52
f 6/6/6 45/45/45 37/37/37
f 45/45/45 46/46/46 38/38/38
f 46/46/46 47/47/47 39/39/39
f 39/39/39 47/47/47 48/48/48
f 40/40/40 48/48/48 49/49/49
f 41/41/41 49/49/49 50/50/50
f 50/50/50 51/51/51 43/43/43
f 51/51/51 52/52/52 44/44/44
f 5/5/5 37/37/37 28/28/28
f 28/28/28 37/37/37 38/38/38
f 27/27/27 38/38/38 39/39/39
f 26/26/26 39/39/39 40/40/40
f 40/40/40 41/41/41 24/24/24
f 41/41/41 42/42/42 23/23/23
f 23/23/23 42/42/42 43/43/43
f 43/43/43 44/44/44 21/21/21
f 2/2/2 29/29/29 93/93/93
f 93/93/93 29/29/29 30/30/30
f 30/30/30 31/31/31 95/95/95
f 31/31/31 32/32/32 96/96/96
f 32/32/32 33/33/33 97/97/97
f 33/33/33 34/34/34 98/98/98
f 98/98/98 34/34/34 35/35/35
f 99/99/99 35/35/35 36/36/36
