o GNATVCloth
v -5.0434 -4.97857 0.460037
v 5.0541 -4.99794 0.465992
v -5.01298 5.02105 0.004229
v 4.98702 5.02105 0.004229
v -3.93836 -5.01347 0.438123
v -2.81968 -5.06402 0.397877
v -1.69811 -5.09254 0.303081
v -0.569876 -5.11031 0.294536
v 0.56084 -5.11407 0.298905
v 1.6895 -5.11098 0.343198
v 2.81687 -5.07869 0.307034
v 3.93988 -5.03311 0.346953
v 3.86014 4.94074 0.164144
v 2.74335 4.87808 0.282927
v 1.63338 4.83994 0.429996
v 0.523489 4.81295 0.406722
v -0.567676 4.81221 0.33248
v -1.66109 4.827 0.21608
v -2.77514 4.86103 0.252135
v -3.88576 4.93025 0.109938
v -5.00038 3.90729 0.0835095
v -4.99202 2.79137 0.103514
v -4.99437 1.67616 0.118128
v -4.99731 0.561722 0.147096
v -4.99555 -0.549932 0.205255
v -4.99802 -1.65901 0.290326
v -5.00052 -2.76649 0.402235
v -5.01326 -3.87186 0.521969
v 5.02949 -3.88672 0.413982
v 5.01141 -2.77883 0.316935
v 4.99745 -1.6686 0.242778
v 4.98895 -0.556877 0.184259
v 4.98536 0.55686 0.144155
v 4.98126 1.67204 0.107664
v 4.97866 2.7883 0.0813149
v 4.97752 3.90456 0.0433923
v -3.85054 -3.87115 0.411241
v -3.8063 -3.22449 0.36112
v -3.66089 -1.95006 0.159123
v -4.1096 -0.28887 0.12069
v -4.13881 0.726603 0.155229
v -4.13288 1.51347 0.162266
v -4.07029 2.80883 0.171338
v -3.93532 3.87011 -0.066448
v -2.72782 -4.0421 0.305377
v -2.7941 -2.77735 0.209224
v -2.67812 -2.18911 0.271863
v -2.75596 -0.644505 0.33857
v -2.78942 0.488112 0.343557
v -2.71115 1.53004 0.223325
v -2.85165 2.84693 -0.0470778
v -2.76968 3.52027 0.145409
v -1.66615 -4.2887 0.318908
v -1.4982 -2.97751 0.305589
v -1.89694 -1.68476 0.400896
v -1.88062 -0.887195 0.389518
v -1.53434 0.584994 0.152121
v -1.99205 1.64097 0.0174963
v -1.74381 2.66915 0.249212
v -1.57278 3.686 0.24887
v -0.23913 -4.38706 0.323211
v -0.587409 -2.94784 0.33178
v -0.553063 -1.8054 0.341563
v -0.850543 -0.833747 0.283786
v -0.617554 0.378631 0.252801
v -0.38778 1.41038 0.293556
v -0.589983 2.58923 0.389459
v -0.763147 3.48061 0.305414
v 0.736499 -3.96043 0.330807
v 0.809994 -2.67149 0.260578
v 0.517685 -1.88524 0.302043
v 0.600581 -0.548251 0.305933
v 0.570077 0.357415 0.300398
v 0.284393 1.46874 0.30837
v 0.509553 2.44402 0.336595
v 0.534183 3.70651 0.319981
v 1.95629 -3.71434 0.292055
v 1.67612 -2.90692 0.275704
v 1.81664 -1.9777 0.331527
v 1.97513 -0.442945 0.290805
v 1.95854 0.242215 0.286883
v 1.80927 1.50404 0.25076
v 1.40343 2.78011 0.319188
v 1.4576 3.62944 0.286225
v 2.8026 -3.9697 0.31904
v 3.10307 -2.88104 0.351348
v 2.94975 -2.00382 0.309311
v 2.71416 -0.5425 0.331833
v 2.95913 0.255147 0.301694
v 3.05785 1.55485 0.202626
v 2.77104 3.12225 0.232791
v 2.7289 3.4885 0.179514
v 3.93387 -3.99588 0.361509
v 3.6663 -2.74469 0.370963
v 3.87339 -1.70396 0.311393
v 3.80676 -0.749996 0.260138
v 3.86984 0.262819 0.241691
v 4.16691 1.78607 0.155781
v 4.12933 2.74587 0.0544304
v 4.0212 3.86981 0.00352561
vt 0.0001 0.0001
vt 0.9999 0.0001
vt 0.0001 0.9999
vt 0.9999 0.9999
vt 0.111189 0.0001
vt 0.222278 0.0001
vt 0.333367 0.0001
vt 0.444455 0.0001
vt 0.555544 0.0001
vt 0.666633 0.0001
vt 0.777722 0.0001
vt 0.888811 0.0001
vt 0.888811 0.9999
vt 0.777722 0.9999
vt 0.666633 0.9999
vt 0.555544 0.9999
vt 0.444455 0.9999
vt 0.333367 0.9999
vt 0.222278 0.9999
vt 0.111189 0.9999
vt 0.0001 0.888811
vt 0.0001 0.777722
vt 0.0001 0.666633
vt 0.0001 0.555544
vt 0.0001 0.444456
vt 0.0001 0.333367
vt 0.0001 0.222278
vt 0.0001 0.111189
vt 0.9999 0.111189
vt 0.9999 0.222278
vt 0.9999 0.333367
vt 0.9999 0.444456
vt 0.9999 0.555544
vt 0.9999 0.666633
vt 0.9999 0.777722
vt 0.9999 0.888811
vt 0.11727 0.115399
vt 0.120778 0.180369
vt 0.134636 0.309595
vt 0.088728 0.473895
vt 0.085886 0.575352
vt 0.086211 0.65375
vt 0.092207 0.78313
vt 0.106956 0.892282
vt 0.22987 0.102869
vt 0.221803 0.229552
vt 0.233521 0.288953
vt 0.225541 0.443179
vt 0.221596 0.556167
vt 0.227801 0.661237
vt 0.214896 0.795203
vt 0.22542 0.865181
vt 0.335524 0.082127
vt 0.351143 0.213907
vt 0.311934 0.342467
vt 0.313159 0.422214
vt 0.347791 0.572605
vt 0.301482 0.677733
vt 0.329031 0.783086
vt 0.344903 0.885466
vt 0.476837 0.074882
vt 0.441952 0.218774
vt 0.445749 0.333088
vt 0.416414 0.43099
vt 0.439746 0.552976
vt 0.463203 0.656843
vt 0.444252 0.77653
vt 0.426137 0.866051
vt 0.573419 0.117409
vt 0.581125 0.246686
vt 0.552512 0.326
vt 0.561075 0.459693
vt 0.558356 0.550596
vt 0.530299 0.662189
vt 0.553275 0.760113
vt 0.555478 0.888821
vt 0.694433 0.13996
vt 0.667048 0.221666
vt 0.681985 0.314267
vt 0.698218 0.467249
vt 0.696819 0.535952
vt 0.68253 0.662758
vt 0.642062 0.791726
vt 0.648523 0.877957
vt 0.778029 0.111667
vt 0.809426 0.219523
vt 0.794923 0.307783
vt 0.772028 0.454562
vt 0.796846 0.533374
vt 0.807262 0.663157
vt 0.778581 0.821037
vt 0.775122 0.858219
vt 0.890224 0.104741
vt 0.865679 0.23076
vt 0.887326 0.334104
vt 0.881307 0.429754
vt 0.887973 0.53063
vt 0.918106 0.681428
vt 0.915043 0.778027
vt 0.904815 0.89094
vn 0.018017 -0.0563525 0.998248
vn -0.0791038 0.0154959 0.996746
vn 0.0186106 -0.0439126 0.998862
vn 0.0530212 -0.0450909 0.997575
vn 0.0499499 -0.00652062 0.99873
vn 0.058667 0.0419192 0.997397
vn 0.0454715 -0.0214721 0.998735
vn -0.00076617 -0.0316156 0.9995
vn -0.0128429 -0.0292743 0.999489
vn -0.000282765 0.010013 0.99995
vn -0.0134606 -0.0119836 0.999838
vn -0.0703988 -0.0144057 0.997415
vn 0.130138 -0.127891 0.983213
vn 0.119667 -0.104271 0.987323
vn 0.0585266 -0.126116 0.990288
vn -0.0185869 -0.0906866 0.995706
vn -0.0633757 -0.0217963 0.997752
vn -0.0362265 0.0259064 0.999008
vn -0.0949969 -0.0712191 0.992927
vn -0.119941 -0.15748 0.980211
vn 0.0710022 0.0968503 0.992763
vn -0.0736637 0.0152728 0.997166
vn -0.0482353 0.00655936 0.998814
vn 0.0207796 0.014739 0.999675
vn 0.0760697 0.0641673 0.995036
vn 0.100007 0.076041 0.992077
vn 0.094528 0.117376 0.988578
vn 0.0707469 0.0342859 0.996905
vn -0.0542821 0.0658869 0.99635
vn 0.0210169 0.0509314 0.998481
vn 0.0576873 0.0592813 0.996573
vn 0.0648982 0.0344611 0.997297
vn 0.0724501 0.036775 0.996694
vn 0.0629062 0.0282851 0.997619
vn -0.00256138 0.0537976 0.998549
vn -0.0397759 0.0367848 0.998531
vn 0.0872669 0.051496 0.994853
vn 0.0932898 0.103506 0.990244
vn -0.00320952 0.0425811 0.999088
vn -0.0305595 0.0112428 0.99947
vn -0.0624385 0.00993712 0.997999
vn -0.0476102 -0.00663797 0.998844
vn 0.0338162 0.0910987 0.995268
vn -0.0340142 -0.0244723 0.999122
vn 0.0430711 0.0675856 0.996783
vn -0.0175663 0.0268135 0.999486
vn -0.114917 -0.0738158 0.990629
vn -0.116242 -0.0200305 0.993019
vn 0.00782629 0.0679769 0.997656
vn 0.0782536 0.107535 0.991117
vn -0.0414278 0.0022683 0.999139
vn -0.1801 -0.123698 0.97584
vn 0.00724163 0.00400249 0.999966
vn -0.0396231 -0.0233451 0.998942
vn -0.0154006 -0.0187278 0.999706
vn 0.0446553 0.0570301 0.997373
vn -0.000726811 0.0893374 0.996001
vn -0.0180151 0.0152621 0.999721
vn -0.162608 -0.0788531 0.983535
vn -0.0624806 -0.00178631 0.998045
vn -0.00262336 -0.0234219 0.999722
vn 0.00970956 0.000472097 0.999953
vn 0.0180209 0.00703637 0.999813
vn 0.0168329 0.0584269 0.99815
vn -0.055363 0.0019677 0.998464
vn -0.0768111 -0.0341222 0.996462
vn -0.0621831 -0.0338618 0.99749
vn -0.0578725 0.0285264 0.997916
vn 0.00713561 0.0157935 0.99985
vn 0.00711291 -0.00852686 0.999938
vn 0.0159759 -0.0221019 0.999628
vn -0.00536053 0.0146694 0.999878
vn -0.00402727 0.00525472 0.999978
vn -0.000587553 -0.0224943 0.999747
vn 0.026078 -0.0256741 0.99933
vn 0.00452187 -0.00367089 0.999983
vn -0.011834 0.0167895 0.999789
vn -0.0162903 0.00105361 0.999867
vn -0.0124354 -0.0195729 0.999731
vn -0.0216092 0.0169407 0.999623
vn -0.00224886 0.0285208 0.999591
vn 0.0387027 -0.00823307 0.999217
vn 0.0429225 0.00222323 0.999076
vn 0.0596563 -0.0255956 0.997891
vn -0.0201555 -0.00396157 0.999789
vn -0.0430146 0.00461336 0.999064
vn -0.00537179 0.0160824 0.999856
vn 0.00519948 0.0130119 0.999902
vn 0.0336629 0.0443068 0.998451
vn 0.0441598 0.0472043 0.997909
vn 0.0902651 0.0521353 0.994552
vn 0.105696 0.0398126 0.993601
vn -0.0395744 0.00741716 0.999189
vn -0.0033158 0.0274866 0.999617
vn 0.02353 0.0575744 0.998064
vn 0.0508379 0.0290108 0.998285
vn 0.0629929 0.0378315 0.997297
vn 0.0362209 0.0596241 0.997564
vn 0.0308525 0.0582249 0.997827
vn 0.0814078 -0.0060581 0.996662
f 100/100/100 4/4/4 13/13/13
f 44/44/44 3/3/3 21/21/21
f 44/44/44 19/19/19 20/20/20
f 60/60/60 19/19/19 52/52/52
f 60/60/60 17/17/17 18/18/18
f 76/76/76 17/17/17 68/68/68
f 84/84/84 16/16/16 76/76/76
f 84/84/84 14/14/14 15/15/15
f 100/100/100 14/14/14 92/92/92
f 11/11/11 93/93/93 85/85/85
f 93/93/93 86/86/86 85/85/85
f 94/94/94 87/87/87 86/86/86
f 87/87/87 96/96/96 88/88/88
f 96/96/96 89/89/89 88/88/88
f 97/97/97 90/90/90 89/89/89
f 90/90/90 99/99/99 91/91/91
f 91/91/91 100/100/100 92/92/92
f 10/10/10 85/85/85 77/77/77
f 77/77/77 86/86/86 78/78/78
f 78/78/78 87/87/87 79/79/79
f 79/79/79 88/88/88 80/80/80
f 88/88/88 81/81/81 80/80/80
f 81/81/81 90/90/90 82/82/82
f 82/82/82 91/91/91 83/83/83
f 91/91/91 84/84/84 83/83/83
f 10/10/10 69/69/69 9/9/9
f 69/69/69 78/78/78 70/70/70
f 70/70/70 79/79/79 71/71/71
f 79/79/79 72/72/72 71/71/71
f 72/72/72 81/81/81 73/73/73
f 73/73/73 82/82/82 74/74/74
f 82/82/82 75/75/75 74/74/74
f 83/83/83 76/76/76 75/75/75
f 9/9/9 61/61/61 8/8/8
f 69/69/69 62/62/62 61/61/61
f 62/62/62 71/71/71 63/63/63
f 63/63/63 72/72/72 64/64/64
f 72/72/72 65/65/65 64/64/64
f 65/65/65 74/74/74 66/66/66
f 66/66/66 75/75/75 67/67/67
f 67/67/67 76/76/76 68/68/68
f 8/8/8 53/53/53 7/7/7
f 53/53/53 62/62/62 54/54/54
f 54/54/54 63/63/63 55/55/55
f 55/55/55 64/64/64 56/56/56
f 64/64/64 57/57/57 56/56/56
f 57/57/57 66/66/66 58/58/58
f 58/58/58 67/67/67 59/59/59
f 59/59/59 68/68/68 60/60/60
f 6/6/6 53/53/53 45/45/45
f 45/45/45 54/54/54 46/46/46
f 54/54/54 47/47/47 46/46/46
f 55/55/55 48/48/48 47/47/47
f 56/56/56 49/49/49 48/48/48
f 49/49/49 58/58/58 50/50/50
f 58/58/58 51/51/51 50/50/50
f 59/59/59 52/52/52 51/51/51
f 6/6/6 37/37/37 5/5/5
f 45/45/45 38/38/38 37/37/37
f 46/46/46 39/39/39 38/38/38
f 39/39/39 48/48/48 40/40/40
f 40/40/40 49/49/49 41/41/41
f 41/41/41 50/50/50 42/42/42
f 50/50/50 43/43/43 42/42/42
f 51/51/51 44/44/44 43/43/43
f 5/5/5 28/28/28 1/1/1
f 28/28/28 38/38/38 27/27/27
f 27/27/27 39/39/39 26/26/26
f 26/26/26 40/40/40 25/25/25
f 40/40/40 24/24/24 25/25/25
f 41/41/41 23/23/23 24/24/24
f 23/23/23 43/43/43 22/22/22
f 43/43/43 21/21/21 22/22/22
f 2/2/2 93/93/93 12/12/12
f 93/93/93 30/30/30 94/94/94
f 30/30/30 95/95/95 94/94/94
f 31/31/31 96/96/96 95/95/95
f 32/32/32 97/97/97 96/96/96
f 33/33/33 98/98/98 97/97/97
f 98/98/98 35/35/35 99/99/99
f 99/99/99 36/36/36 100/100/100
f 100/100/100 36/36/36 4/4/4
f 44/44/44 20/20/20 3/3/3
f 44/44/44 52/52/52 19/19/19
f 60/60/60 18/18/18 19/19/19
f 60/60/60 68/68/68 17/17/17
f 76/76/76 16/16/16 17/17/17
f 84/84/84 15/15/15 16/16/16
f 84/84/84 92/92/92 14/14/14
f 100/100/100 13/13/13 14/14/14
f 11/11/11 12/12/12 93/93/93
f 93/93/93 94/94/94 86/86/86
f 94/94/94 95/95/95 87/87/87
f 87/87/87 95/95/95 96/96/96
f 96/96/96 97/97/97 89/89/89
f 97/97/97 98/98/98 90/90/90
f 90/90/90 98/98/98 99/99/99
f 91/91/91 99/99/99 100/100/100
f 10/10/10 11/11/11 85/85/85
f 77/77/77 85/85/85 86/86/86
f 78/78/78 86/86/86 87/87/87
f 79/79/79 87/87/87 88/88/88
f 88/88/88 89/89/89 81/81/81
f 81/81/81 89/89/89 90/90/90
f 82/82/82 90/90/90 91/91/91
f 91/91/91 92/92/92 84/84/84
f 10/10/10 77/77/77 69/69/69
f 69/69/69 77/77/77 78/78/78
f 70/70/70 78/78/78 79/79/79
f 79/79/79 80/80/80 72/72/72
f 72/72/72 80/80/80 81/81/81
f 73/73/73 81/81/81 82/82/82
f 82/82/82 83/83/83 75/75/75
f 83/83/83 84/84/84 76/76/76
f 9/9/9 69/69/69 61/61/61
f 69/69/69 70/70/70 62/62/62
f 62/62/62 70/70/70 71/71/71
f 63/63/63 71/71/71 72/72/72
f 72/72/72 73/73/73 65/65/65
f 65/65/65 73/73/73 74/74/74
f 66/66/66 74/74/74 75/75/75
f 67/67/67 75/75/75 76/76/76
f 8/8/8 61/61/61 53/53/53
f 53/53/53 61/61/61 62/62/62
f 54/54/54 62/62/62 63/63/63
f 55/55/55 63/63/63 64/64/64
f 64/64/64 65/65/65 57/57/57
f 57/57/57 65/65/65 66/66/66
f 58/58/58 66/66/66 67/67/67
f 59/59/59 67/67/67 68/68/68
f 6/6/6 7/7/7 53/53/53
f 45/45/45 53/53/53 54/54/54
f 54/54/54 55/55/55 47/47/47
f 55/55/55 56/56/56 48/48/48
f 56/56/56 57/57/57 49/49/49
f 49/49/49 57/57/57 58/58/58
f 58/58/58 59/59/59 51/51/51
f 59/59/59 60/60/60 52/52/52
f 6/6/6 45/45/45 37/37/37
f 45/45/45 46/46/46 38/38/38
f 46/46/46 47/47/47 39/39/39
f 39/39/39 47/47/47 48/48/48
f 40/40/40 48/48/48 49/49/49
f 41/41/41 49/49/49 50/50/50
f 50/50/50 51/51/51 43/43/43
f 51/51/51 52/52/52 44/44/44
f 5/5/5 37/37/37 28/28/28
f 28/28/28 37/37/37 38/38/38
f 27/27/27 38/38/38 39/39/39
f 26/26/26 39/39/39 40/40/40
f 40/40/40 41/41/41 24/24/24
f 41/41/41 42/42/42 23/23/23
f 23/23/23 42/42/42 43/43/43
f 43/43/43 44/44/44 21/21/21
f 2/2/2 29/29/29 93/93/93
f 93/93/93 29/29/29 30/30/30
f 30/30/30 31/31/31 95/95/95
f 31/31/31 32/32/32 96/96/96
f 32/32/32 33/33/33 97/97/97
f 33/33/33 34/34/34 98/98/98
f 98/98/98 34/34/34 35/35/35
f 99/99/99 35/35/35 36/36/36
