o GNATVCloth
v -4.9015 -5.00258 0.315205
v 5.17252 -4.99063 0.338762
v -5.01298 5.02105 0.004229
v 4.98702 5.02105 0.004229
v -3.79013 -5.01957 0.263596
v -2.67322 -5.04189 0.248195
v -1.55352 -5.06892 0.191249
v -0.429297 -5.0851 0.173068
v 0.696745 -5.09105 0.208775
v 1.82084 -5.0825 0.19172
v 2.94324 -5.058 0.190891
v 4.06159 -5.02944 0.251717
v 3.86125 4.94003 0.0551977
v 2.75249 4.86223 0.207731
v 1.64066 4.75761 0.276469
v 0.628288 4.7215 0.238038
v -0.486873 4.79107 0.222408
v -1.60457 4.85733 0.167944
v -2.73384 4.93239 0.139413
v -3.86857 4.97396 0.0903868
v -4.97648 3.90523 0.0364361
v -4.96035 2.7892 0.0692751
v -4.94975 1.67383 0.105618
v -4.93983 0.558826 0.139046
v -4.92633 -0.554755 0.193151
v -4.91055 -1.66705 0.252806
v -4.89626 -2.77894 0.290429
v -4.89107 -3.89155 0.294918
v 5.15348 -3.88452 0.256771
v 5.13487 -2.77181 0.247462
v 5.11777 -1.66017 0.23123
v 5.10322 -0.548712 0.17934
v 5.08758 0.563084 0.127131
v 5.06883 1.67693 0.0873833
v 5.04548 2.79134 0.0529478
v 5.01649 3.90615 0.0285298
v -3.72013 -3.87325 0.218012
v -3.68653 -3.22488 0.213387
v -3.56307 -1.93457 0.155816
v -4.0436 -0.279676 0.157384
v -4.08246 0.738678 0.147051
v -4.08552 1.5226 0.122752
v -4.03767 2.81535 0.0813808
v -3.89956 3.90342 0.0147867
v -2.59086 -4.02188 0.18174
v -2.67769 -2.75293 0.153933
v -2.56647 -2.16195 0.120776
v -2.66881 -0.621194 0.216331
v -2.72004 0.509784 0.207819
v -2.66658 1.55617 0.164505
v -2.80636 2.89859 0.0687007
v -2.71568 3.58515 0.176399
v -1.52789 -4.25126 0.185451
v -1.37616 -2.93627 0.171427
v -1.78824 -1.64559 0.230854
v -1.78564 -0.848448 0.215678
v -1.45398 0.648747 0.14685
v -1.93018 1.70174 0.147843
v -1.67061 2.74611 0.195656
v -1.51438 3.7518 0.191156
v -0.103213 -4.3424 0.158248
v -0.463211 -2.90016 0.164407
v -0.440013 -1.75931 0.199556
v -0.748535 -0.778796 0.167918
v -0.528901 0.439255 0.165874
v -0.306875 1.47315 0.187005
v -0.511108 2.66967 0.194337
v -0.700007 3.5276 0.182406
v 0.867044 -3.91944 0.186466
v 0.934107 -2.62648 0.166248
v 0.6349 -1.83666 0.174615
v 0.700311 -0.500848 0.154708
v 0.660966 0.409115 0.179481
v 0.36776 1.52366 0.190049
v 0.589358 2.49978 0.187211
v 0.602451 3.70748 0.17213
v 2.08394 -3.68199 0.184992
v 1.79951 -2.874 0.163354
v 1.93871 -1.94689 0.187707
v 2.07692 -0.414217 0.181276
v 2.05241 0.264602 0.155836
v 1.89489 1.53117 0.125432
v 1.4783 2.80776 0.217022
v 1.53695 3.59276 0.16959
v 2.9294 -3.94587 0.173585
v 3.22678 -2.86137 0.230071
v 3.07257 -1.98669 0.130937
v 2.81974 -0.527169 0.220893
v 3.05687 0.265534 0.204799
v 3.14693 1.56123 0.141553
v 2.84345 3.12317 0.153884
v 2.79519 3.47593 0.216682
v 4.05871 -3.98454 0.172843
v 3.78931 -2.73543 0.241427
v 3.99051 -1.69422 0.220453
v 3.91856 -0.741105 0.165528
v 3.97037 0.267686 0.163931
v 4.25221 1.78863 0.132656
v 4.20108 2.75223 0.0968354
v 4.0683 3.87695 0.0591267
vt 0.0001 0.0001
vt 0.9999 0.0001
vt 0.0001 0.9999
vt 0.9999 0.9999
vt 0.111189 0.0001
vt 0.222278 0.0001
vt 0.333367 0.0001
vt 0.444455 0.0001
vt 0.555544 0.0001
vt 0.666633 0.0001
vt 0.777722 0.0001
vt 0.888811 0.0001
vt 0.888811 0.9999
vt 0.777722 0.9999
vt 0.666633 0.9999
vt 0.555544 0.9999
vt 0.444455 0.9999
vt 0.333367 0.9999
vt 0.222278 0.9999
vt 0.111189 0.9999
vt 0.0001 0.888811
vt 0.0001 0.777722
vt 0.0001 0.666633
vt 0.0001 0.555544
vt 0.0001 0.444456
vt 0.0001 0.333367
vt 0.0001 0.222278
vt 0.0001 0.111189
vt 0.9999 0.111189
vt 0.9999 0.222278
vt 0.9999 0.333367
vt 0.9999 0.444456
vt 0.9999 0.555544
vt 0.9999 0.666633
vt 0.9999 0.777722
vt 0.9999 0.888811
vt 0.11727 0.115399
vt 0.120778 0.180369
vt 0.134636 0.309595
vt 0.088728 0.473895
vt 0.085886 0.575352
vt 0.086211 0.65375
vt 0.092207 0.78313
vt 0.106956 0.892282
vt 0.22987 0.102869
vt 0.221803 0.229552
vt 0.233521 0.288953
vt 0.225541 0.443179
vt 0.221596 0.556167
vt 0.227801 0.661237
vt 0.214896 0.795203
vt 0.22542 0.865181
vt 0.335524 0.082127
vt 0.351143 0.213907
vt 0.311934 0.342467
vt 0.313159 0.422214
vt 0.347791 0.572605
vt 0.301482 0.677733
vt 0.329031 0.783086
vt 0.344903 0.885466
vt 0.476837 0.074882
vt 0.441952 0.218774
vt 0.445749 0.333088
vt 0.416414 0.43099
vt 0.439746 0.552976
vt 0.463203 0.656843
vt 0.444252 0.77653
vt 0.426137 0.866051
vt 0.573419 0.117409
vt 0.581125 0.246686
vt 0.552512 0.326
vt 0.561075 0.459693
vt 0.558356 0.550596
vt 0.530299 0.662189
vt 0.553275 0.760113
vt 0.555478 0.888821
vt 0.694433 0.13996
vt 0.667048 0.221666
vt 0.681985 0.314267
vt 0.698218 0.467249
vt 0.696819 0.535952
vt 0.68253 0.662758
vt 0.642062 0.791726
vt 0.648523 0.877957
vt 0.778029 0.111667
vt 0.809426 0.219523
vt 0.794923 0.307783
vt 0.772028 0.454562
vt 0.796846 0.533374
vt 0.807262 0.663157
vt 0.778581 0.821037
vt 0.775122 0.858219
vt 0.890224 0.104741
vt 0.865679 0.23076
vt 0.887326 0.334104
vt 0.881307 0.429754
vt 0.887973 0.53063
vt 0.918106 0.681428
vt 0.915043 0.778027
vt 0.904815 0.89094
vn 0.0466513 0.0177985 0.998753
vn -0.0816461 0.0735292 0.993945
vn -0.0288396 -0.0192902 0.999398
vn 0.037945 0.0174714 0.999127
vn 0.0420594 0.0307855 0.998641
vn 0.0290122 0.0425771 0.998672
vn 0.0335995 0.00603254 0.999417
vn 0.00152566 0.0172035 0.999851
vn -0.0187818 0.0251504 0.999507
vn 0.00747103 0.00982781 0.999924
vn -0.0181723 0.0354062 0.999208
vn -0.0682837 0.074909 0.99485
vn 0.0893516 0.0210828 0.995777
vn 0.0721233 -0.0130867 0.99731
vn 0.0179729 -0.0929422 0.995509
vn -0.0192951 -0.0724677 0.997184
vn -0.0128017 -0.0282789 0.999518
vn -0.0358235 0.0180571 0.999195
vn -0.0536258 0.000671184 0.998561
vn -0.0616421 -0.0685337 0.995743
vn 0.00878931 0.0390886 0.999197
vn -0.0139859 0.0308188 0.999427
vn -0.0145372 0.0314203 0.999401
vn -0.000572082 0.0294609 0.999566
vn 0.0244519 0.0513473 0.998381
vn 0.059428 0.0365831 0.997562
vn 0.0736325 0.0253794 0.996962
vn 0.0605614 0.0153875 0.998046
vn -0.0799818 0.0396724 0.996007
vn -0.0242697 -0.00343268 0.9997
vn -0.0134785 0.0391745 0.999141
vn -0.00359198 0.0319321 0.999484
vn 0.0365528 0.0330051 0.998787
vn 0.0600047 0.0343458 0.997607
vn 0.0535174 0.0316752 0.998064
vn 0.0378205 0.027656 0.998902
vn 0.0436083 0.0290958 0.998625
vn 0.0545873 0.0194049 0.99832
vn 0.0418083 0.0151794 0.99901
vn -0.00250344 0.0190546 0.999815
vn -0.0253194 0.0255088 0.999354
vn -0.0222098 0.0318419 0.999246
vn -0.00578583 0.0454128 0.998951
vn -0.0536653 -0.0135252 0.998467
vn 0.0198149 0.0314211 0.99931
vn 0.0233965 0.0382987 0.998992
vn -0.0249829 -0.019821 0.999491
vn -0.0256386 -0.0184455 0.999501
vn -0.0020762 0.0230998 0.999731
vn -0.0115463 0.048613 0.998751
vn -0.0654827 -0.0136494 0.99776
vn -0.0913559 -0.0419883 0.994933
vn 0.0175236 0.0155215 0.999726
vn -0.010274 -0.00665712 0.999925
vn -0.0149489 -0.0173524 0.999738
vn 0.0281519 0.0235879 0.999325
vn 0.0107212 0.0115839 0.999875
vn -0.014008 0.00669117 0.999879
vn -0.0406295 -0.0294466 0.99874
vn -0.0145824 0.00676499 0.999871
vn -0.0114005 0.011993 0.999863
vn 0.00400279 -0.00810483 0.999959
vn 0.017218 -0.0024045 0.999849
vn 0.0179011 0.0223502 0.99959
vn -0.0102027 -0.011694 0.99988
vn -0.0129459 -0.00989498 0.999867
vn -0.000916528 -0.00316572 0.999995
vn 0.00677063 -0.00670052 0.999955
vn -0.00708228 0.0132272 0.999887
vn -0.0022626 -0.00395176 0.99999
vn 0.00515843 -0.00547521 0.999972
vn -0.00148363 0.00631396 0.999979
vn 0.010471 -0.00776602 0.999915
vn 0.0130001 -0.00668416 0.999893
vn 0.00096944 -0.00944995 0.999955
vn -0.00349758 -0.00898783 0.999954
vn -0.00773135 -0.00173973 0.999969
vn -0.00757661 0.0160251 0.999843
vn 0.000179859 -0.0138772 0.999904
vn -0.0352535 0.0218014 0.999141
vn -0.0209015 0.0259352 0.999445
vn 0.018409 -0.0133313 0.999742
vn 0.0110832 0.000739817 0.999938
vn -0.00245206 -0.0444402 0.999009
vn 0.00241962 -0.0139563 0.9999
vn -0.0248788 0.0100243 0.99964
vn -0.0253502 0.0226428 0.999422
vn -0.00157344 -0.00391612 0.999991
vn 0.00864236 0.0273848 0.999588
vn 0.0023251 0.0238662 0.999712
vn 0.0413135 -0.0427643 0.998231
vn 0.0496948 -0.0799767 0.995557
vn -0.0388203 0.0100751 0.999195
vn -0.0342871 0.010936 0.999352
vn -0.0495626 0.0364509 0.998106
vn -0.00274021 0.0148255 0.999886
vn 0.0217605 0.0215596 0.999531
vn 0.0338962 0.0301158 0.998972
vn 0.0378707 0.0295477 0.998846
vn 0.0833584 0.000174591 0.99652
f 100/100/100 4/4/4 13/13/13
f 44/44/44 3/3/3 21/21/21
f 44/44/44 19/19/19 20/20/20
f 60/60/60 19/19/19 52/52/52
f 60/60/60 17/17/17 18/18/18
f 76/76/76 17/17/17 68/68/68
f 84/84/84 16/16/16 76/76/76
f 84/84/84 14/14/14 15/15/15
f 100/100/100 14/14/14 92/92/92
f 11/11/11 93/93/93 85/85/85
f 93/93/93 86/86/86 85/85/85
f 94/94/94 87/87/87 86/86/86
f 87/87/87 96/96/96 88/88/88
f 96/96/96 89/89/89 88/88/88
f 97/97/97 90/90/90 89/89/89
f 90/90/90 99/99/99 91/91/91
f 91/91/91 100/100/100 92/92/92
f 10/10/10 85/85/85 77/77/77
f 77/77/77 86/86/86 78/78/78
f 78/78/78 87/87/87 79/79/79
f 79/79/79 88/88/88 80/80/80
f 88/88/88 81/81/81 80/80/80
f 81/81/81 90/90/90 82/82/82
f 82/82/82 91/91/91 83/83/83
f 91/91/91 84/84/84 83/83/83
f 10/10/10 69/69/69 9/9/9
f 69/69/69 78/78/78 70/70/70
f 70/70/70 79/79/79 71/71/71
f 79/79/79 72/72/72 71/71/71
f 72/72/72 81/81/81 73/73/73
f 73/73/73 82/82/82 74/74/74
f 82/82/82 75/75/75 74/74/74
f 83/83/83 76/76/76 75/75/75
f 9/9/9 61/61/61 8/8/8
f 69/69/69 62/62/62 61/61/61
f 62/62/62 71/71/71 63/63/63
f 63/63/63 72/72/72 64/64/64
f 72/72/72 65/65/65 64/64/64
f 65/65/65 74/74/74 66/66/66
f 66/66/66 75/75/75 67/67/67
f 67/67/67 76/76/76 68/68/68
f 8/8/8 53/53/53 7/7/7
f 53/53/53 62/62/62 54/54/54
f 54/54/54 63/63/63 55/55/55
f 55/55/55 64/64/64 56/56/56
f 64/64/64 57/57/57 56/56/56
f 57/57/57 66/66/66 58/58/58
f 58/58/58 67/67/67 59/59/59
f 59/59/59 68/68/68 60/60/60
f 6/6/6 53/53/53 45/45/45
f 45/45/45 54/54/54 46/46/46
f 54/54/54 47/47/47 46/46/46
f 55/55/55 48/48/48 47/47/47
f 56/56/56 49/49/49 48/48/48
f 49/49/49 58/58/58 50/50/50
f 58/58/58 51/51/51 50/50/50
f 59/59/59 52/52/52 51/51/51
f 6/6/6 37/37/37 5/5/5
f 45/45/45 38/38/38 37/37/37
f 46/46/46 39/39/39 38/38/38
f 39/39/39 48/48/48 40/40/40
f 40/40/40 49/49/49 41/41/41
f 41/41/41 50/50/50 42/42/42
f 50/50/50 43/43/43 42/42/42
f 51/51/51 44/44/44 43/43/43
f 5/5/5 28/28/28 1/1/1
f 28/28/28 38/38/38 27/27/27
f 27/27/27 39/39/39 26/26/26
f 26/26/26 40/40/40 25/25/25
f 40/40/40 24/24/24 25/25/25
f 41/41/41 23/23/23 24/24/24
f 23/23/23 43/43/43 22/22/22
f 43/43/43 21/21/21 22/22/22
f 2/2/2 93/93/93 12/12/12
f 93/93/93 30/30/30 94/94/94
f 30/30/30 95/95/95 94/94/94
f 31/31/31 96/96/96 95/95/95
f 32/32/32 97/97/97 96/96/96
f 33/33/33 98/98/98 97/97/97
f 98/98/98 35/35/35 99/99/99
f 99/99/99 36/36/36 100/100/100
f 100/100/100 36/36/36 4/4/4
f 44/44/44 20/20/20 3/3/3
f 44/44/44 52/52/52 19/19/19
f 60/60/60 18/18/18 19/19/19
f 60/60/60 68/68/68 17/17/17
f 76/76/76 16/16/16 17/17/17
f 84/84/84 15/15/15 16/16/16
f 84/84/84 92/92/92 14/14/14
f 100/100/100 13/13/13 14/14/14
f 11/11/11 12/12/12 93/93/93
f 93/93/93 94/94/94 86/86/86
f 94/94/94 95/95/95 87/87/87
f 87/87/87 95/95/95 96/96/96
f 96/96/96 97/97/97 89/89/89
f 97/97/97 98/98/98 90/90/90
f 90/90/90 98/98/98 99/99/99
f 91/91/91 99/99/99 100/100/100
f 10/10/10 11/11/11 85/85/85
f 77/77/77 85/85/85 86/86/86
f 78/78/78 86/86/86 87/87/87
f 79/79/79 87/87/87 88/88/88
f 88/88/88 89/89/89 81/81/81
f 81/81/81 89/89/89 90/90/90
f 82/82/82 90/90/90 91/91/91
f 91/91/91 92/92/92 84/84/84
f 10/10/10 77/77/77 69/69/69
f 69/69/69 77/77/77 78/78/78
f 70/70/70 78/78/78 79/79/79
f 79/79/79 80/80/80 72/72/72
f 72/72/72 80/80/80 81/81/81
f 73/73/73 81/81/81 82/82/82
f 82/82/82 83/83/83 75/75/75
f 83/83/83 84/84/84 76/76/76
f 9/9/9 69/69/69 61/61/61
f 69/69/69 70/70/70 62/62/62
f 62/62/62 70/70/70 71/71/71
f 63/63/63 71/71/71 72/72/72
f 72/72/72 73/73/73 65/65/65
f 65/65/65 73/73/73 74/74/74
f 66/66/66 74/74/74 75/75/75
f 67/67/67 75/75/75 76/76/76
f 8/8/8 61/61/61 53/53/53
f 53/53/53 61/61/61 62/62/62
f 54/54/54 62/62/62 63/63/63
f 55/55/55 63/63/63 64/64/64
f 64/64/64 65/65/65 57/57/57
f 57/57/57 65/65/65 66/66/66
f 58/58/58 66/66/66 67/67/67
f 59/59/59 67/67/67 68/68/68
f 6/6/6 7/7/7 53/53/53
f 45/45/45 53/53/53 54/54/54
f 54/54/54 55/55/55 47/47/47
f 55/55/55 56/56/56 48/48/48
f 56/56/56 57/57/57 49/49/49
f 49/49/49 57/57/57 58/58/58
f 58/58/58 59/59/59 51/51/51
f 59/59/59 60/60/60 52/52/52
f 6/6/6 45/45/45 37/37/37
f 45/45/45 46/46/46 38/38/38
f 46/46/46 47/47/47 39/39/39
f 39/39/39 47/47/47 48/48/48
f 40/40/40 48/48/48 49/49/49
f 41/41/41 49/49/49 50/50/50
f 50/50/50 51/51/51 43/43/43
f 51/51/51 52/52/52 44/44/44
f 5/5/5 37/37/37 28/28/28
f 28/28/28 37/37/37 38/38/38
f 27/27/27 38/38/38 39/39/39
f 26/26/26 39/39/39 40/40/40
f 40/40/40 41/41/41 24/24/24
f 41/41/41 42/42/42 23/23/23
f 23/23/23 42/42/42 43/43/43
f 43/43/43 44/44/44 21/21/21
f 2/2/2 29/29/29 93/93/93
f 93/93/93 29/29/29 30/30/30
f 30/30/30 31/31/31 95/95/95
f 31/31/31 32/32/32 96/96/96
f 32/32/32 33/33/33 97/97/97
f 33/33/33 34/34/34 98/98/98
f 98/98/98 34/34/34 35/35/35
f 99/99/99 35/35/35 36/36/36
