o GNATVCloth
v -5.03458 -4.97944 0.598216
v 5.06401 -4.99513 0.394355
v -5.01298 5.02105 0.004229
v 4.98702 5.02105 0.004229
v -3.92332 -5.02113 0.520189
v -2.80374 -5.06129 0.484201
v -1.67935 -5.08972 0.475536
v -0.551769 -5.10945 0.471701
v 0.576817 -5.10969 0.513567
v 1.70324 -5.09389 0.493104
v 2.82644 -5.06806 0.448727
v 3.94757 -5.02726 0.431444
v 3.86891 4.89832 0.201313
v 2.75661 4.81404 0.384389
v 1.63394 4.7518 0.313155
v 0.513795 4.7056 0.292276
v -0.586244 4.69955 0.476908
v -1.69554 4.69001 0.627784
v -2.80983 4.75368 0.501951
v -3.90089 4.87839 0.236486
v -4.97763 3.90723 0.0768661
v -4.97573 2.79259 0.139357
v -4.98374 1.6787 0.202365
v -4.99312 0.564441 0.252582
v -4.99998 -0.549489 0.29886
v -5.00453 -1.6624 0.344663
v -5.00974 -2.77585 0.384617
v -5.01607 -3.88653 0.481503
v 5.0408 -3.88755 0.317781
v 5.0256 -2.77836 0.238306
v 5.01628 -1.66545 0.235795
v 5.00735 -0.552424 0.218248
v 5.00049 0.561411 0.199573
v 4.99107 1.67613 0.165171
v 4.98308 2.79151 0.133484
v 4.97273 3.90614 0.0691217
v -3.84489 -3.88148 0.374702
v -3.80882 -3.24037 0.284918
v -3.66173 -1.95119 0.249087
v -4.1147 -0.288875 0.23703
v -4.13719 0.727092 0.183491
v -4.12773 1.51163 0.12128
v -4.05683 2.80255 0.0344721
v -3.9226 3.87618 -0.150537
v -2.71462 -4.05093 0.314451
v -2.79227 -2.78091 0.342933
v -2.67044 -2.19274 0.291984
v -2.74635 -0.64758 0.282428
v -2.77937 0.479348 0.174134
v -2.71163 1.52046 0.0363019
v -2.84145 2.84236 -0.2112
v -2.75141 3.49965 0.0273047
v -1.65022 -4.28569 0.336069
v -1.49161 -2.97319 0.399199
v -1.88616 -1.67967 0.377805
v -1.86911 -0.884519 0.308996
v -1.5203 0.58383 0.0237184
v -1.98319 1.64011 -0.0851577
v -1.70554 2.67295 -0.0296805
v -1.58848 3.57427 0.402367
v -0.223884 -4.37201 0.398347
v -0.579691 -2.93613 0.475517
v -0.53993 -1.79565 0.395199
v -0.831534 -0.823938 0.28345
v -0.59703 0.377894 0.0903692
v -0.36337 1.40252 0.045207
v -0.565595 2.56846 0.179237
v -0.762588 3.38797 0.407348
v 0.748414 -3.94162 0.389973
v 0.822601 -2.6503 0.444026
v 0.534251 -1.86036 0.422524
v 0.618314 -0.564335 0.0965111
v 0.596515 0.341853 0.0999919
v 0.310176 1.45107 0.0357587
v 0.533684 2.41397 0.133229
v 0.545835 3.62036 0.414046
v 1.96634 -3.6963 0.331688
v 1.68854 -2.88646 0.397924
v 1.83708 -1.95955 0.427424
v 1.99422 -0.447344 0.169378
v 1.98777 0.212499 -0.0202374
v 1.84005 1.476 0.0174051
v 1.41911 2.74941 0.0980365
v 1.4831 3.54681 0.299218
v 2.81221 -3.95622 0.344322
v 3.11824 -2.86921 0.326318
v 2.96532 -1.99082 0.302291
v 2.72614 -0.528854 0.304951
v 2.97078 0.261412 0.198598
v 3.09016 1.53015 -0.0923443
v 2.77029 3.09506 -0.0986128
v 2.74167 3.44095 0.0305219
v 3.942 -3.99038 0.312625
v 3.68127 -2.73758 0.300801
v 3.88993 -1.69558 0.291786
v 3.8241 -0.739493 0.309054
v 3.88301 0.271777 0.279331
v 4.1717 1.78797 0.143476
v 4.14963 2.74045 -0.0314593
v 4.03035 3.86247 -0.104712
vt 0.0001 0.0001
vt 0.9999 0.0001
vt 0.0001 0.9999
vt 0.9999 0.9999
vt 0.111189 0.0001
vt 0.222278 0.0001
vt 0.333367 0.0001
vt 0.444455 0.0001
vt 0.555544 0.0001
vt 0.666633 0.0001
vt 0.777722 0.0001
vt 0.888811 0.0001
vt 0.888811 0.9999
vt 0.777722 0.9999
vt 0.666633 0.9999
vt 0.555544 0.9999
vt 0.444455 0.9999
vt 0.333367 0.9999
vt 0.222278 0.9999
vt 0.111189 0.9999
vt 0.0001 0.888811
vt 0.0001 0.777722
vt 0.0001 0.666633
vt 0.0001 0.555544
vt 0.0001 0.444456
vt 0.0001 0.333367
vt 0.0001 0.222278
vt 0.0001 0.111189
vt 0.9999 0.111189
vt 0.9999 0.222278
vt 0.9999 0.333367
vt 0.9999 0.444456
vt 0.9999 0.555544
vt 0.9999 0.666633
vt 0.9999 0.777722
vt 0.9999 0.888811
vt 0.11727 0.115399
vt 0.120778 0.180369
vt 0.134636 0.309595
vt 0.088728 0.473895
vt 0.085886 0.575352
vt 0.086211 0.65375
vt 0.092207 0.78313
vt 0.106956 0.892282
vt 0.22987 0.102869
vt 0.221803 0.229552
vt 0.233521 0.288953
vt 0.225541 0.443179
vt 0.221596 0.556167
vt 0.227801 0.661237
vt 0.214896 0.795203
vt 0.22542 0.865181
vt 0.335524 0.082127
vt 0.351143 0.213907
vt 0.311934 0.342467
vt 0.313159 0.422214
vt 0.347791 0.572605
vt 0.301482 0.677733
vt 0.329031 0.783086
vt 0.344903 0.885466
vt 0.476837 0.074882
vt 0.441952 0.218774
vt 0.445749 0.333088
vt 0.416414 0.43099
vt 0.439746 0.552976
vt 0.463203 0.656843
vt 0.444252 0.77653
vt 0.426137 0.866051
vt 0.573419 0.117409
vt 0.581125 0.246686
vt 0.552512 0.326
vt 0.561075 0.459693
vt 0.558356 0.550596
vt 0.530299 0.662189
vt 0.553275 0.760113
vt 0.555478 0.888821
vt 0.694433 0.13996
vt 0.667048 0.221666
vt 0.681985 0.314267
vt 0.698218 0.467249
vt 0.696819 0.535952
vt 0.68253 0.662758
vt 0.642062 0.791726
vt 0.648523 0.877957
vt 0.778029 0.111667
vt 0.809426 0.219523
vt 0.794923 0.307783
vt 0.772028 0.454562
vt 0.796846 0.533374
vt 0.807262 0.663157
vt 0.778581 0.821037
vt 0.775122 0.858219
vt 0.890224 0.104741
vt 0.865679 0.23076
vt 0.887326 0.334104
vt 0.881307 0.429754
vt 0.887973 0.53063
vt 0.918106 0.681428
vt 0.915043 0.778027
vt 0.904815 0.89094
vn 0.0735661 0.104668 0.991783
vn 0.00930225 0.0913881 0.995772
vn -0.0115381 -0.144739 0.989403
vn 0.005608 -0.098204 0.995151
vn 0.0665301 0.116301 0.990983
vn 0.0351897 0.154451 0.987374
vn 0.00912101 0.170579 0.985302
vn -0.0222964 0.133644 0.990779
vn -0.0202638 0.109682 0.99376
vn 0.0246211 0.104454 0.994225
vn 0.0263604 0.100556 0.994582
vn 0.0204402 0.113932 0.993278
vn 0.185207 -0.251766 0.949901
vn 0.120332 -0.190127 0.974357
vn -0.0406978 -0.00646155 0.999151
vn 0.0921852 0.0736389 0.993015
vn 0.0718344 -0.0437014 0.996459
vn 0.00632513 -0.197445 0.980294
vn -0.225308 -0.315235 0.92188
vn -0.246534 -0.344468 0.905849
vn 0.179448 0.0888901 0.979743
vn 0.112636 0.0555599 0.992082
vn 0.0998994 0.0594631 0.993219
vn 0.0665756 0.0464782 0.996698
vn 0.0576112 0.0409515 0.997499
vn 0.071063 0.0348058 0.996864
vn 0.0944677 0.0462005 0.994455
vn 0.09201 0.110927 0.98956
vn -0.0112334 0.0700222 0.997482
vn 0.0329373 0.0231506 0.999189
vn 0.0578593 0.00146398 0.998324
vn 0.0710864 0.0195101 0.997279
vn 0.0316718 0.042511 0.998594
vn -0.022442 0.0294399 0.999315
vn -0.141138 0.0855907 0.986283
vn -0.188019 0.0529334 0.980738
vn 0.0729166 0.134098 0.988282
vn 0.0415497 0.0638686 0.997093
vn 0.0107226 0.0300576 0.999491
vn 0.03393 0.0444281 0.998436
vn 0.0596001 0.0727347 0.995569
vn 0.0833963 0.0700531 0.994051
vn 0.140784 0.102836 0.984685
vn -0.0549479 -0.149317 0.987261
vn 0.0071511 0.0607453 0.998128
vn -0.0432934 0.0337533 0.998492
vn -0.0604407 0.0348268 0.997564
vn -0.0341222 0.0467916 0.998322
vn 0.0554363 0.115587 0.991749
vn 0.10214 0.131256 0.986073
vn -0.014284 -0.0150981 0.999784
vn -0.242129 -0.341917 0.908001
vn -0.0231789 0.0679166 0.997422
vn -0.0552229 0.0080972 0.998441
vn -0.0352906 0.0476553 0.99824
vn 0.0250318 0.124487 0.991905
vn 0.00985081 0.133128 0.99105
vn -0.0186396 0.0565152 0.998228
vn -0.18531 -0.244234 0.951846
vn -0.107353 -0.272519 0.956143
vn -0.0265235 0.0460363 0.998588
vn -0.0229594 -0.00236291 0.999734
vn -0.00515557 0.110189 0.993897
vn 0.0331955 0.13922 0.989705
vn 0.000878579 0.0759664 0.99711
vn -0.0282121 -0.029278 0.999173
vn -0.0676626 -0.174598 0.982312
vn -0.0549861 -0.221179 0.973682
vn 0.0233592 0.0184491 0.999557
vn 0.0258253 -0.0133753 0.999577
vn -0.000438745 0.124248 0.992251
vn 0.0182776 0.152754 0.988095
vn 0.0333759 0.0182635 0.999276
vn 0.0101987 -0.010259 0.999895
vn 0.0419349 -0.136525 0.989749
vn 0.0826266 -0.114052 0.990033
vn 0.0293548 0.0231082 0.999302
vn 0.0588306 -0.0368472 0.997588
vn 0.00705064 0.0800881 0.996763
vn -0.111818 0.226314 0.967615
vn -0.0590912 0.136837 0.98883
vn 0.0698059 -0.0170441 0.997415
vn 0.126718 -0.159152 0.979088
vn 0.102048 -0.143038 0.984442
vn 0.0213128 0.0653798 0.997633
vn 0.0330125 0.00855644 0.999418
vn 0.0469277 0.00349318 0.998892
vn -0.0675716 0.133632 0.988725
vn -0.121076 0.166652 0.978554
vn -0.0979668 0.111043 0.988975
vn 0.105967 -0.123956 0.986613
vn 0.184494 -0.288882 0.93942
vn 0.0207156 0.0635051 0.997766
vn 0.0362148 0.015436 0.999225
vn 0.0344007 -0.00453432 0.999398
vn 0.0202261 0.0241816 0.999503
vn -0.0384061 0.087296 0.995442
vn -0.115273 0.103006 0.987979
vn -0.153019 0.0832246 0.984713
vn 0.052227 -0.134091 0.989592
f 100/100/100 4/4/4 13/13/13
f 44/44/44 3/3/3 21/21/21
f 44/44/44 19/19/19 20/20/20
f 60/60/60 19/19/19 52/52/52
f 60/60/60 17/17/17 18/18/18
f 76/76/76 17/17/17 68/68/68
f 84/84/84 16/16/16 76/76/76
f 84/84/84 14/14/14 15/15/15
f 100/100/100 14/14/14 92/92/92
f 11/11/11 93/93/93 85/85/85
f 93/93/93 86/86/86 85/85/85
f 94/94/94 87/87/87 86/86/86
f 87/87/87 96/96/96 88/88/88
f 96/96/96 89/89/89 88/88/88
f 97/97/97 90/90/90 89/89/89
f 90/90/90 99/99/99 91/91/91
f 91/91/91 100/100/100 92/92/92
f 10/10/10 85/85/85 77/77/77
f 77/77/77 86/86/86 78/78/78
f 78/78/78 87/87/87 79/79/79
f 79/79/79 88/88/88 80/80/80
f 88/88/88 81/81/81 80/80/80
f 81/81/81 90/90/90 82/82/82
f 82/82/82 91/91/91 83/83/83
f 91/91/91 84/84/84 83/83/83
f 10/10/10 69/69/69 9/9/9
f 69/69/69 78/78/78 70/70/70
f 70/70/70 79/79/79 71/71/71
f 79/79/79 72/72/72 71/71/71
f 72/72/72 81/81/81 73/73/73
f 73/73/73 82/82/82 74/74/74
f 82/82/82 75/75/75 74/74/74
f 83/83/83 76/76/76 75/75/75
f 9/9/9 61/61/61 8/8/8
f 69/69/69 62/62/62 61/61/61
f 62/62/62 71/71/71 63/63/63
f 63/63/63 72/72/72 64/64/64
f 72/72/72 65/65/65 64/64/64
f 65/65/65 74/74/74 66/66/66
f 66/66/66 75/75/75 67/67/67
f 67/67/67 76/76/76 68/68/68
f 8/8/8 53/53/53 7/7/7
f 53/53/53 62/62/62 54/54/54
f 54/54/54 63/63/63 55/55/55
f 55/55/55 64/64/64 56/56/56
f 64/64/64 57/57/57 56/56/56
f 57/57/57 66/66/66 58/58/58
f 58/58/58 67/67/67 59/59/59
f 59/59/59 68/68/68 60/60/60
f 6/6/6 53/53/53 45/45/45
f 45/45/45 54/54/54 46/46/46
f 54/54/54 47/47/47 46/46/46
f 55/55/55 48/48/48 47/47/47
f 56/56/56 49/49/49 48/48/48
f 49/49/49 58/58/58 50/50/50
f 58/58/58 51/51/51 50/50/50
f 59/59/59 52/52/52 51/51/51
f 6/6/6 37/37/37 5/5/5
f 45/45/45 38/38/38 37/37/37
f 46/46/46 39/39/39 38/38/38
f 39/39/39 48/48/48 40/40/40
f 40/40/40 49/49/49 41/41/41
f 41/41/41 50/50/50 42/42/42
f 50/50/50 43/43/43 42/42/42
f 51/51/51 44/44/44 43/43/43
f 5/5/5 28/28/28 1/1/1
f 28/28/28 38/38/38 27/27/27
f 27/27/27 39/39/39 26/26/26
f 26/26/26 40/40/40 25/25/25
f 40/40/40 24/24/24 25/25/25
f 41/41/41 23/23/23 24/24/24
f 23/23/23 43/43/43 22/22/22
f 43/43/43 21/21/21 22/22/22
f 2/2/2 93/93/93 12/12/12
f 93/93/93 30/30/30 94/94/94
f 30/30/30 95/95/95 94/94/94
f 31/31/31 96/96/96 95/95/95
f 32/32/32 97/97/97 96/96/96
f 33/33/33 98/98/98 97/97/97
f 98/98/98 35/35/35 99/99/99
f 99/99/99 36/36/36 100/100/100
f 100/100/100 36/36/36 4/4/4
f 44/44/44 20/20/20 3/3/3
f 44/44/44 52/52/52 19/19/19
f 60/60/60 18/18/18 19/19/19
f 60/60/60 68/68/68 17/17/17
f 76/76/76 16/16/16 17/17/17
f 84/84/84 15/15/15 16/16/16
f 84/84/84 92/92/92 14/14/14
f 100/100/100 13/13/13 14/14/14
f 11/11/11 12/12/12 93/93/93
f 93/93/93 94/94/94 86/86/86
f 94/94/94 95/95/95 87/87/87
f 87/87/87 95/95/95 96/96/96
f 96/96/96 97/97/97 89/89/89
f 97/97/97 98/98/98 90/90/90
f 90/90/90 98/98/98 99/99/99
f 91/91/91 99/99/99 100/100/100
f 10/10/10 11/11/11 85/85/85
f 77/77/77 85/85/85 86/86/86
f 78/78/78 86/86/86 87/87/87
f 79/79/79 87/87/87 88/88/88
f 88/88/88 89/89/89 81/81/81
f 81/81/81 89/89/89 90/90/90
f 82/82/82 90/90/90 91/91/91
f 91/91/91 92/92/92 84/84/84
f 10/10/10 77/77/77 69/69/69
f 69/69/69 77/77/77 78/78/78
f 70/70/70 78/78/78 79/79/79
f 79/79/79 80/80/80 72/72/72
f 72/72/72 80/80/80 81/81/81
f 73/73/73 81/81/81 82/82/82
f 82/82/82 83/83/83 75/75/75
f 83/83/83 84/84/84 76/76/76
f 9/9/9 69/69/69 61/61/61
f 69/69/69 70/70/70 62/62/62
f 62/62/62 70/70/70 71/71/71
f 63/63/63 71/71/71 72/72/72
f 72/72/72 73/73/73 65/65/65
f 65/65/65 73/73/73 74/74/74
f 66/66/66 74/74/74 75/75/75
f 67/67/67 75/75/75 76/76/76
f 8/8/8 61/61/61 53/53/53
f 53/53/53 61/61/61 62/62/62
f 54/54/54 62/62/62 63/63/63
f 55/55/55 63/63/63 64/64/64
f 64/64/64 65/65/65 57/57/57
f 57/57/57 65/65/65 66/66/66
f 58/58/58 66/66/66 67/67/67
f 59/59/59 67/67/67 68/68/68
f 6/6/6 7/7/7 53/53/53
f 45/45/45 53/53/53 54/54/54
f 54/54/54 55/55/55 47/47/47
f 55/55/55 56/56/56 48/48/48
f 56/56/56 57/57/57 49/49/49
f 49/49/49 57/57/57 58/58/58
f 58/58/58 59/59/59 51/51/51
f 59/59/59 60/60/60 52/52/52
f 6/6/6 45/45/45 37/37/37
f 45/45/45 46/46/46 38/38/38
f 46/46/46 47/47/47 39/39/39
f 39/39/39 47/47/47 48/48/48
f 40/40/40 48/48/48 49/49/49
f 41/41/41 49/49/49 50/50/50
f 50/50/50 51/51/51 43/43/43
f 51/51/51 52/52/52 44/44/44
f 5/5/5 37/37/37 28/28/28
f 28/28/28 37/37/37 38/38/38
f 27/27/27 38/38/38 39/39/39
f 26/26/26 39/39/39 40/40/40
f 40/40/40 41/41/41 24/24/24
f 41/41/41 42/42/42 23/23/23
f 23/23/23 42/42/42 43/43/43
f 43/43/43 44/44/44 21/21/21
f 2/2/2 29/29/29 93/93/93
f 93/93/93 29/29/29 30/30/30
f 30/30/30 31/31/31 95/95/95
f 31/31/31 32/32/32 96/96/96
f 32/32/32 33/33/33 97/97/97
f 33/33/33 34/34/34 98/98/98
f 98/98/98 34/34/34 35/35/35
f 99/99/99 35/35/35 36/36/36
