o GNATVCloth
v -5.02298 -4.98048 0.45347
v 5.05282 -4.99245 0.463233
v -5.01298 5.02105 0.004229
v 4.98702 5.02105 0.004229
v -3.92107 -5.02102 0.429188
v -2.80213 -5.06251 0.392499
v -1.68187 -5.07908 0.294036
v -0.557647 -5.08723 0.288823
v 0.569956 -5.09527 0.293224
v 1.69432 -5.09349 0.338906
v 2.81877 -5.07173 0.297517
v 3.94071 -5.03048 0.339377
v 3.86381 4.94271 0.158734
v 2.74704 4.89139 0.277177
v 1.6383 4.85241 0.425141
v 0.536624 4.83107 0.398492
v -0.566055 4.83247 0.32723
v -1.66595 4.83813 0.213391
v -2.77877 4.87843 0.239058
v -3.88746 4.931 0.098926
v -4.99726 3.90732 0.0810571
v -4.98885 2.79168 0.100717
v -4.98943 1.67661 0.116451
v -4.98871 0.562229 0.144596
v -4.98603 -0.54964 0.203439
v -4.98887 -1.65969 0.283794
v -4.98822 -2.76595 0.398783
v -4.99529 -3.87125 0.513879
v 5.02906 -3.88557 0.406432
v 5.01457 -2.77641 0.324449
v 5.00121 -1.66739 0.242564
v 4.99401 -0.556105 0.178264
v 4.99024 0.557464 0.135899
v 4.98532 1.67245 0.101335
v 4.98391 2.78848 0.0764222
v 4.97836 3.90471 0.0425716
v -3.83557 -3.86757 0.401942
v -3.79307 -3.2195 0.359974
v -3.65024 -1.94409 0.161606
v -4.10033 -0.285068 0.122217
v -4.13063 0.730915 0.156662
v -4.12647 1.51754 0.158559
v -4.06691 2.80958 0.164196
v -3.9325 3.87092 -0.0723562
v -2.71523 -4.04008 0.302109
v -2.78214 -2.77452 0.207035
v -2.66622 -2.18193 0.265404
v -2.74747 -0.636243 0.335411
v -2.78063 0.496331 0.34283
v -2.70378 1.53965 0.228092
v -2.84619 2.85731 -0.0419064
v -2.76726 3.53145 0.148837
v -1.65565 -4.28012 0.313704
v -1.49234 -2.96624 0.297922
v -1.88826 -1.67592 0.390916
v -1.8722 -0.878393 0.376743
v -1.52541 0.602142 0.160965
v -1.98453 1.65532 0.0221181
v -1.73822 2.68331 0.255779
v -1.57023 3.70228 0.246606
v -0.230263 -4.36827 0.314795
v -0.580444 -2.93121 0.323895
v -0.546446 -1.7921 0.333915
v -0.842499 -0.822709 0.279834
v -0.608616 0.391238 0.249463
v -0.378327 1.42119 0.291548
v -0.582653 2.60982 0.383413
v -0.759643 3.49553 0.29921
v 0.741976 -3.94248 0.324478
v 0.815744 -2.6552 0.253535
v 0.524232 -1.86639 0.295017
v 0.607829 -0.530453 0.298553
v 0.579419 0.370094 0.294995
v 0.293341 1.47727 0.302017
v 0.515501 2.45617 0.326401
v 0.537733 3.72244 0.311475
v 1.96023 -3.70334 0.285042
v 1.67965 -2.89278 0.26943
v 1.8224 -1.96511 0.324578
v 1.98184 -0.434479 0.284389
v 1.96624 0.251205 0.282261
v 1.81781 1.5136 0.244123
v 1.40908 2.78678 0.315826
v 1.46515 3.64117 0.280163
v 2.80528 -3.96253 0.31019
v 3.10693 -2.87545 0.344881
v 2.95398 -1.99747 0.303648
v 2.72117 -0.53703 0.328091
v 2.96707 0.260993 0.298384
v 3.06501 1.5596 0.20458
v 2.7766 3.13095 0.236953
v 2.73279 3.49284 0.185107
v 3.93298 -3.99228 0.353717
v 3.66921 -2.7414 0.370234
v 3.87702 -1.69978 0.310747
v 3.81257 -0.745759 0.258106
v 3.87766 0.266892 0.239112
v 4.1707 1.78751 0.154879
v 4.1345 2.7491 0.0575717
v 4.0221 3.87301 -0.00310985
vt 0.0001 0.0001
vt 0.9999 0.0001
vt 0.0001 0.9999
vt 0.9999 0.9999
vt 0.111189 0.0001
vt 0.222278 0.0001
vt 0.333367 0.0001
vt 0.444455 0.0001
vt 0.555544 0.0001
vt 0.666633 0.0001
vt 0.777722 0.0001
vt 0.888811 0.0001
vt 0.888811 0.9999
vt 0.777722 0.9999
vt 0.666633 0.9999
vt 0.555544 0.9999
vt 0.444455 0.9999
vt 0.333367 0.9999
vt 0.222278 0.9999
vt 0.111189 0.9999
vt 0.0001 0.888811
vt 0.0001 0.777722
vt 0.0001 0.666633
vt 0.0001 0.555544
vt 0.0001 0.444456
vt 0.0001 0.333367
vt 0.0001 0.222278
vt 0.0001 0.111189
vt 0.9999 0.111189
vt 0.9999 0.222278
vt 0.9999 0.333367
vt 0.9999 0.444456
vt 0.9999 0.555544
vt 0.9999 0.666633
vt 0.9999 0.777722
vt 0.9999 0.888811
vt 0.11727 0.115399
vt 0.120778 0.180369
vt 0.134636 0.309595
vt 0.088728 0.473895
vt 0.085886 0.575352
vt 0.086211 0.65375
vt 0.092207 0.78313
vt 0.106956 0.892282
vt 0.22987 0.102869
vt 0.221803 0.229552
vt 0.233521 0.288953
vt 0.225541 0.443179
vt 0.221596 0.556167
vt 0.227801 0.661237
vt 0.214896 0.795203
vt 0.22542 0.865181
vt 0.335524 0.082127
vt 0.351143 0.213907
vt 0.311934 0.342467
vt 0.313159 0.422214
vt 0.347791 0.572605
vt 0.301482 0.677733
vt 0.329031 0.783086
vt 0.344903 0.885466
vt 0.476837 0.074882
vt 0.441952 0.218774
vt 0.445749 0.333088
vt 0.416414 0.43099
vt 0.439746 0.552976
vt 0.463203 0.656843
vt 0.444252 0.77653
vt 0.426137 0.866051
vt 0.573419 0.117409
vt 0.581125 0.246686
vt 0.552512 0.326
vt 0.561075 0.459693
vt 0.558356 0.550596
vt 0.530299 0.662189
vt 0.553275 0.760113
vt 0.555478 0.888821
vt 0.694433 0.13996
vt 0.667048 0.221666
vt 0.681985 0.314267
vt 0.698218 0.467249
vt 0.696819 0.535952
vt 0.68253 0.662758
vt 0.642062 0.791726
vt 0.648523 0.877957
vt 0.778029 0.111667
vt 0.809426 0.219523
vt 0.794923 0.307783
vt 0.772028 0.454562
vt 0.796846 0.533374
vt 0.807262 0.663157
vt 0.778581 0.821037
vt 0.775122 0.858219
vt 0.890224 0.104741
vt 0.865679 0.23076
vt 0.887326 0.334104
vt 0.881307 0.429754
vt 0.887973 0.53063
vt 0.918106 0.681428
vt 0.915043 0.778027
vt 0.904815 0.89094
vn 0.0199798 -0.0548661 0.998294
vn -0.0815867 0.0177657 0.996508
vn 0.0250822 -0.0429428 0.998763
vn 0.0478988 -0.0466367 0.997763
vn 0.0499029 -0.00579256 0.998737
vn 0.0576308 0.040119 0.997532
vn 0.0458279 -0.0260866 0.998609
vn -0.00086821 -0.03125 0.999511
vn -0.0142196 -0.0275577 0.999519
vn 0.00132125 0.0109418 0.999939
vn -0.0128918 -0.0123177 0.999841
vn -0.073523 -0.0143218 0.997191
vn 0.127233 -0.129947 0.983324
vn 0.119277 -0.100676 0.987744
vn 0.057172 -0.126704 0.990292
vn -0.0198094 -0.0907744 0.995674
vn -0.0602586 -0.0222656 0.997934
vn -0.0394028 0.0258894 0.998888
vn -0.0964188 -0.0643337 0.99326
vn -0.113105 -0.153799 0.981607
vn 0.0746049 0.0956668 0.992614
vn -0.0689831 0.015584 0.997496
vn -0.0465665 0.00877724 0.998877
vn 0.0164101 0.0146923 0.999757
vn 0.072653 0.0623656 0.995405
vn 0.0945002 0.0752915 0.992674
vn 0.0899734 0.116471 0.98911
vn 0.0708962 0.0306808 0.997012
vn -0.0539165 0.0614708 0.996652
vn 0.0181209 0.0478211 0.998692
vn 0.0583409 0.0637361 0.99626
vn 0.0685315 0.036921 0.996965
vn 0.0781598 0.0362423 0.996282
vn 0.0693307 0.0267842 0.997234
vn 0.0061579 0.0508093 0.998689
vn -0.0405671 0.0379319 0.998457
vn 0.0847137 0.0465618 0.995317
vn 0.0919418 0.0978507 0.990945
vn -0.00200303 0.0427897 0.999082
vn -0.0320354 0.0104564 0.999432
vn -0.063986 0.011034 0.99789
vn -0.0489551 -0.00212502 0.998799
vn 0.0318731 0.0916436 0.995282
vn -0.0340211 -0.0217214 0.999185
vn 0.0424023 0.0650736 0.996979
vn -0.0128218 0.0283335 0.999516
vn -0.10846 -0.0716848 0.991513
vn -0.109141 -0.0205724 0.993813
vn 0.00781683 0.0641254 0.997911
vn 0.07422 0.107163 0.991467
vn -0.0465698 0.0025004 0.998912
vn -0.180604 -0.116706 0.976607
vn 0.00848324 0.00320562 0.999959
vn -0.037845 -0.021528 0.999052
vn -0.0141451 -0.0180185 0.999738
vn 0.0443879 0.0527479 0.997621
vn 0.000377706 0.0848816 0.996391
vn -0.0164012 0.0152143 0.99975
vn -0.157424 -0.0769303 0.98453
vn -0.0604995 0.00251516 0.998165
vn -0.00253655 -0.0221883 0.999751
vn 0.00959639 0.000629119 0.999954
vn 0.017735 0.00599948 0.999825
vn 0.0166613 0.0549806 0.998348
vn -0.0491512 5.22007e-05 0.998791
vn -0.0703815 -0.0322402 0.996999
vn -0.0561664 -0.0328097 0.997882
vn -0.0527721 0.0301719 0.998151
vn 0.00631069 0.0162796 0.999848
vn 0.00650514 -0.00811572 0.999946
vn 0.0155699 -0.0220529 0.999636
vn -0.0047973 0.0133736 0.999899
vn -0.00350827 0.00514816 0.999981
vn 0.00237244 -0.0212844 0.999771
vn 0.0261808 -0.024958 0.999346
vn 0.00421001 -0.00358937 0.999985
vn -0.0107327 0.0166955 0.999803
vn -0.0165295 0.00102924 0.999863
vn -0.0135654 -0.0195261 0.999717
vn -0.0236959 0.0155953 0.999598
vn -0.00430527 0.0271989 0.999621
vn 0.0352465 -0.00876173 0.99934
vn 0.0376309 0.00153428 0.999291
vn 0.0552164 -0.0240206 0.998185
vn -0.0188698 -0.00474886 0.999811
vn -0.0459099 0.00193549 0.998944
vn -0.00892533 0.015532 0.99984
vn 0.00301919 0.0119888 0.999924
vn 0.032648 0.0427754 0.998551
vn 0.0430549 0.0448394 0.998066
vn 0.0885759 0.0524397 0.994688
vn 0.105775 0.0433365 0.993445
vn -0.0424037 0.00422188 0.999092
vn -0.01052 0.0244915 0.999645
vn 0.0199185 0.0598589 0.998008
vn 0.0502761 0.0299121 0.998287
vn 0.065638 0.0370493 0.997155
vn 0.0421681 0.05718 0.997473
vn 0.0344167 0.0589396 0.997668
vn 0.0817911 -0.00312941 0.996645
f 100/100/100 4/4/4 13/13/13
f 44/44/44 3/3/3 21/21/21
f 44/44/44 19/19/19 20/20/20
f 60/60/60 19/19/19 52/52/52
f 60/60/60 17/17/17 18/18/18
f 76/76/76 17/17/17 68/68/68
f 84/84/84 16/16/16 76/76/76
f 84/84/84 14/14/14 15/15/15
f 100/100/100 14/14/14 92/92/92
f 11/11/11 93/93/93 85/85/85
f 93/93/93 86/86/86 85/85/85
f 94/94/94 87/87/87 86/86/86
f 87/87/87 96/96/96 88/88/88
f 96/96/96 89/89/89 88/88/88
f 97/97/97 90/90/90 89/89/89
f 90/90/90 99/99/99 91/91/91
f 91/91/91 100/100/100 92/92/92
f 10/10/10 85/85/85 77/77/77
f 77/77/77 86/86/86 78/78/78
f 78/78/78 87/87/87 79/79/79
f 79/79/79 88/88/88 80/80/80
f 88/88/88 81/81/81 80/80/80
f 81/81/81 90/90/90 82/82/82
f 82/82/82 91/91/91 83/83/83
f 91/91/91 84/84/84 83/83/83
f 10/10/10 69/69/69 9/9/9
f 69/69/69 78/78/78 70/70/70
f 70/70/70 79/79/79 71/71/71
f 79/79/79 72/72/72 71/71/71
f 72/72/72 81/81/81 73/73/73
f 73/73/73 82/82/82 74/74/74
f 82/82/82 75/75/75 74/74/74
f 83/83/83 76/76/76 75/75/75
f 9/9/9 61/61/61 8/8/8
f 69/69/69 62/62/62 61/61/61
f 62/62/62 71/71/71 63/63/63
f 63/63/63 72/72/72 64/64/64
f 72/72/72 65/65/65 64/64/64
f 65/65/65 74/74/74 66/66/66
f 66/66/66 75/75/75 67/67/67
f 67/67/67 76/76/76 68/68/68
f 8/8/8 53/53/53 7/7/7
f 53/53/53 62/62/62 54/54/54
f 54/54/54 63/63/63 55/55/55
f 55/55/55 64/64/64 56/56/56
f 64/64/64 57/57/57 56/56/56
f 57/57/57 66/66/66 58/58/58
f 58/58/58 67/67/67 59/59/59
f 59/59/59 68/68/68 60/60/60
f 6/6/6 53/53/53 45/45/45
f 45/45/45 54/54/54 46/46/46
f 54/54/54 47/47/47 46/46/46
f 55/55/55 48/48/48 47/47/47
f 56/56/56 49/49/49 48/48/48
f 49/49/49 58/58/58 50/50/50
f 58/58/58 51/51/51 50/50/50
f 59/59/59 52/52/52 51/51/51
f 6/6/6 37/37/37 5/5/5
f 45/45/45 38/38/38 37/37/37
f 46/46/46 39/39/39 38/38/38
f 39/39/39 48/48/48 40/40/40
f 40/40/40 49/49/49 41/41/41
f 41/41/41 50/50/50 42/42/42
f 50/50/50 43/43/43 42/42/42
f 51/51/51 44/44/44 43/43/43
f 5/5/5 28/28/28 1/1/1
f 28/28/28 38/38/38 27/27/27
f 27/27/27 39/39/39 26/26/26
f 26/26/26 40/40/40 25/25/25
f 40/40/40 24/24/24 25/25/25
f 41/41/41 23/23/23 24/24/24
f 23/23/23 43/43/43 22/22/22
f 43/43/43 21/21/21 22/22/22
f 2/2/2 93/93/93 12/12/12
f 93/93/93 30/30/30 94/94/94
f 30/30/30 95/95/95 94/94/94
f 31/31/31 96/96/96 95/95/95
f 32/32/32 97/97/97 96/96/96
f 33/33/33 98/98/98 97/97/97
f 98/98/98 35/35/35 99/99/99
f 99/99/99 36/36/36 100/100/100
f 100/100/100 36/36/36 4/4/4
f 44/44/44 20/20/20 3/3/3
f 44/44/44 52/52/52 19/19/19
f 60/60/60 18/18/18 19/19/19
f 60/60/60 68/68/68 17/17/17
f 76/76/76 16/16/16 17/17/17
f 84/84/84 15/15/15 16/16/16
f 84/84/84 92/92/92 14/14/14
f 100/100/100 13/13/13 14/14/14
f 11/11/11 12/12/12 93/93/93
f 93/93/93 94/94/94 86/86/86
f 94/94/94 95/95/95 87/87/87
f 87/87/87 95/95/95 96/96/96
f 96/96/96 97/97/97 89/89/89
f 97/97/97 98/98/98 90/90/90
f 90/90/90 98/98/98 99/99/99
f 91/91/91 99/99/99 100/100/100
f 10/10/10 11/11/11 85/85/85
f 77/77/77 85/85/85 86/86/86
f 78/78/78 86/86/86 87/87/87
f 79/79/79 87/87/87 88/88/88
f 88/88/88 89/89/89 81/81/81
f 81/81/81 89/89/89 90/90/90
f 82/82/82 90/90/90 91/91/91
f 91/91/91 92/92/92 84/84/84
f 10/10/10 77/77/77 69/69/69
f 69/69/69 77/77/77 78/78/78
f 70/70/70 78/78/78 79/79/79
f 79/79/79 80/80/80 72/72/72
f 72/72/72 80/80/80 81/81/81
f 73/73/73 81/81/81 82/82/82
f 82/82/82 83/83/83 75/75/75
f 83/83/83 84/84/84 76/76/76
f 9/9/9 69/69/69 61/61/61
f 69/69/69 70/70/70 62/62/62
f 62/62/62 70/70/70 71/71/71
f 63/63/63 71/71/71 72/72/72
f 72/72/72 73/73/73 65/65/65
f 65/65/65 73/73/73 74/74/74
f 66/66/66 74/74/74 75/75/75
f 67/67/67 75/75/75 76/76/76
f 8/8/8 61/61/61 53/53/53
f 53/53/53 61/61/61 62/62/62
f 54/54/54 62/62/62 63/63/63
f 55/55/55 63/63/63 64/64/64
f 64/64/64 65/65/65 57/57/57
f 57/57/57 65/65/65 66/66/66
f 58/58/58 66/66/66 67/67/67
f 59/59/59 67/67/67 68/68/68
f 6/6/6 7/7/7 53/53/53
f 45/45/45 53/53/53 54/54/54
f 54/54/54 55/55/55 47/47/47
f 55/55/55 56/56/56 48/48/48
f 56/56/56 57/57/57 49/49/49
f 49/49/49 57/57/57 58/58/58
f 58/58/58 59/59/59 51/51/51
f 59/59/59 60/60/60 52/52/52
f 6/6/6 45/45/45 37/37/37
f 45/45/45 46/46/46 38/38/38
f 46/46/46 47/47/47 39/39/39
f 39/39/39 47/47/47 48/48/48
f 40/40/40 48/48/48 49/49/49
f 41/41/41 49/49/49 50/50/50
f 50/50/50 51/51/51 43/43/43
f 51/51/51 52/52/52 44/44/44
f 5/5/5 37/37/37 28/28/28
f 28/28/28 37/37/37 38/38/38
f 27/27/27 38/38/38 39/39/39
f 26/26/26 39/39/39 40/40/40
f 40/40/40 41/41/41 24/24/24
f 41/41/41 42/42/42 23/23/23
f 23/23/23 42/42/42 43/43/43
f 43/43/43 44/44/44 21/21/21
f 2/2/2 29/29/29 93/93/93
f 93/93/93 29/29/29 30/30/30
f 30/30/30 31/31/31 95/95/95
f 31/31/31 32/32/32 96/96/96
f 32/32/32 33/33/33 97/97/97
f 33/33/33 34/34/34 98/98/98
f 98/98/98 34/34/34 35/35/35
f 99/99/99 35/35/35 36/36/36
