o GNATVCloth
v -5.05885 -4.98549 0.584101
v 5.04418 -4.99402 0.393076
v -5.01298 5.02105 0.004229
v 4.98702 5.02105 0.004229
v -3.94535 -5.01925 0.543686
v -2.82678 -5.06088 0.480258
v -1.70246 -5.08929 0.495158
v -0.574077 -5.10922 0.500231
v 0.557122 -5.12043 0.493239
v 1.68563 -5.09581 0.50899
v 2.80971 -5.0659 0.454764
v 3.93067 -5.01717 0.491765
v 3.86202 4.91638 0.162546
v 2.74847 4.84603 0.324371
v 1.62693 4.78676 0.331331
v 0.511503 4.7387 0.321177
v -0.583631 4.7271 0.447615
v -1.69259 4.73386 0.606576
v -2.81379 4.78257 0.530003
v -3.90956 4.88534 0.273364
v -4.9862 3.90683 0.0747073
v -4.98993 2.79232 0.140361
v -4.9995 1.67853 0.20505
v -5.00515 0.565058 0.26922
v -5.01007 -0.548029 0.326175
v -5.01683 -1.66001 0.370194
v -5.02616 -2.77505 0.402868
v -5.03167 -3.88195 0.510764
v 5.02068 -3.88722 0.291577
v 5.00991 -2.77515 0.290942
v 5.00022 -1.66345 0.253093
v 4.99239 -0.550665 0.234809
v 4.98421 0.562465 0.207165
v 4.97662 1.67656 0.164535
v 4.97362 2.79144 0.126897
v 4.97059 3.90526 0.0515278
v -3.86792 -3.88885 0.32818
v -3.82804 -3.24224 0.273162
v -3.67823 -1.95467 0.241504
v -4.12873 -0.291523 0.223596
v -4.14979 0.726038 0.195438
v -4.14133 1.50786 0.138412
v -4.07284 2.79808 0.0369508
v -3.92191 3.87591 -0.0976819
v -2.73452 -4.0543 0.301001
v -2.8101 -2.78504 0.344604
v -2.6863 -2.199 0.291754
v -2.76046 -0.652665 0.292891
v -2.79267 0.474929 0.185021
v -2.72656 1.51387 0.0342262
v -2.84433 2.85437 -0.0758129
v -2.74103 3.5384 0.0529837
v -1.66961 -4.28985 0.319499
v -1.50791 -2.97818 0.396647
v -1.89979 -1.68527 0.387013
v -1.88285 -0.891205 0.336558
v -1.53022 0.581987 0.0883081
v -1.9894 1.64369 -0.0277621
v -1.70958 2.68604 0.0491705
v -1.58367 3.61543 0.429799
v -0.243128 -4.37913 0.389518
v -0.594823 -2.94529 0.472055
v -0.55181 -1.80166 0.458576
v -0.843662 -0.830353 0.320981
v -0.60604 0.37309 0.138126
v -0.374274 1.3881 0.104065
v -0.569593 2.57691 0.160071
v -0.761692 3.41269 0.442624
v 0.729808 -3.95009 0.410542
v 0.810304 -2.65947 0.516182
v 0.524712 -1.87235 0.483849
v 0.611406 -0.563129 0.221243
v 0.587942 0.344913 0.192828
v 0.298764 1.43957 0.136843
v 0.523502 2.40945 0.178447
v 0.538482 3.64762 0.39488
v 1.94816 -3.69477 0.383521
v 1.66479 -2.88793 0.358134
v 1.82902 -1.96644 0.463955
v 1.99028 -0.466769 0.130788
v 1.97101 0.209669 0.00750118
v 1.82843 1.47212 0.087832
v 1.41043 2.74312 0.16525
v 1.47642 3.57409 0.330734
v 2.7939 -3.9539 0.382432
v 3.09896 -2.86751 0.321339
v 2.94861 -1.9908 0.260923
v 2.71256 -0.530722 0.325077
v 2.95657 0.259419 0.208568
v 3.07247 1.52919 -0.0735908
v 2.76099 3.09496 -0.0303658
v 2.72702 3.45898 0.0431549
v 3.9209 -3.98873 0.290253
v 3.66362 -2.73661 0.311739
v 3.87381 -1.69595 0.286979
v 3.8094 -0.74005 0.297896
v 3.86731 0.273586 0.288525
v 4.15676 1.79037 0.155275
v 4.13952 2.7379 -0.0350686
v 4.02167 3.86228 -0.0798799
vt 0.0001 0.0001
vt 0.9999 0.0001
vt 0.0001 0.9999
vt 0.9999 0.9999
vt 0.111189 0.0001
vt 0.222278 0.0001
vt 0.333367 0.0001
vt 0.444455 0.0001
vt 0.555544 0.0001
vt 0.666633 0.0001
vt 0.777722 0.0001
vt 0.888811 0.0001
vt 0.888811 0.9999
vt 0.777722 0.9999
vt 0.666633 0.9999
vt 0.555544 0.9999
vt 0.444455 0.9999
vt 0.333367 0.9999
vt 0.222278 0.9999
vt 0.111189 0.9999
vt 0.0001 0.888811
vt 0.0001 0.777722
vt 0.0001 0.666633
vt 0.0001 0.555544
vt 0.0001 0.444456
vt 0.0001 0.333367
vt 0.0001 0.222278
vt 0.0001 0.111189
vt 0.9999 0.111189
vt 0.9999 0.222278
vt 0.9999 0.333367
vt 0.9999 0.444456
vt 0.9999 0.555544
vt 0.9999 0.666633
vt 0.9999 0.777722
vt 0.9999 0.888811
vt 0.11727 0.115399
vt 0.120778 0.180369
vt 0.134636 0.309595
vt 0.088728 0.473895
vt 0.085886 0.575352
vt 0.086211 0.65375
vt 0.092207 0.78313
vt 0.106956 0.892282
vt 0.22987 0.102869
vt 0.221803 0.229552
vt 0.233521 0.288953
vt 0.225541 0.443179
vt 0.221596 0.556167
vt 0.227801 0.661237
vt 0.214896 0.795203
vt 0.22542 0.865181
vt 0.335524 0.082127
vt 0.351143 0.213907
vt 0.311934 0.342467
vt 0.313159 0.422214
vt 0.347791 0.572605
vt 0.301482 0.677733
vt 0.329031 0.783086
vt 0.344903 0.885466
vt 0.476837 0.074882
vt 0.441952 0.218774
vt 0.445749 0.333088
vt 0.416414 0.43099
vt 0.439746 0.552976
vt 0.463203 0.656843
vt 0.444252 0.77653
vt 0.426137 0.866051
vt 0.573419 0.117409
vt 0.581125 0.246686
vt 0.552512 0.326
vt 0.561075 0.459693
vt 0.558356 0.550596
vt 0.530299 0.662189
vt 0.553275 0.760113
vt 0.555478 0.888821
vt 0.694433 0.13996
vt 0.667048 0.221666
vt 0.681985 0.314267
vt 0.698218 0.467249
vt 0.696819 0.535952
vt 0.68253 0.662758
vt 0.642062 0.791726
vt 0.648523 0.877957
vt 0.778029 0.111667
vt 0.809426 0.219523
vt 0.794923 0.307783
vt 0.772028 0.454562
vt 0.796846 0.533374
vt 0.807262 0.663157
vt 0.778581 0.821037
vt 0.775122 0.858219
vt 0.890224 0.104741
vt 0.865679 0.23076
vt 0.887326 0.334104
vt 0.881307 0.429754
vt 0.887973 0.53063
vt 0.918106 0.681428
vt 0.915043 0.778027
vt 0.904815 0.89094
vn 0.0381718 0.065325 0.997134
vn 0.0366147 0.142088 0.989177
vn -0.0524909 -0.138031 0.989036
vn 0.00800229 -0.0790222 0.996841
vn 0.0849757 0.141383 0.986301
vn 0.0311933 0.185567 0.982136
vn -0.00405585 0.214765 0.976657
vn -0.0103294 0.176045 0.984328
vn -0.0213917 0.0994049 0.994817
vn 0.0153632 0.0777547 0.996854
vn 0.029761 0.108045 0.9937
vn 0.0210203 0.192433 0.981085
vn 0.153977 -0.199251 0.967776
vn 0.129782 -0.150193 0.980101
vn -0.00142857 -0.00031526 0.999999
vn 0.0594444 0.0465586 0.997145
vn 0.0692407 -0.0206419 0.997386
vn 0.0328703 -0.152912 0.987693
vn -0.202592 -0.305499 0.930391
vn -0.253167 -0.33104 0.909021
vn 0.145011 0.0747625 0.986601
vn 0.111509 0.0573667 0.992106
vn 0.0924314 0.0645943 0.993622
vn 0.0855336 0.0455467 0.995294
vn 0.102692 0.0445506 0.993715
vn 0.103445 0.0352979 0.994009
vn 0.119311 0.0450318 0.991835
vn 0.122914 0.102666 0.987093
vn -0.00543777 0.0458848 0.998932
vn 0.0147237 0.0103288 0.999838
vn 0.0366651 0.013889 0.999231
vn 0.0563208 0.0160901 0.998283
vn 0.0375735 0.0470016 0.998188
vn -0.00629576 0.0359589 0.999333
vn -0.134109 0.0969405 0.986214
vn -0.157245 0.0449068 0.986538
vn 0.0913375 0.137403 0.986295
vn 0.0516479 0.0436477 0.997711
vn 0.0147559 0.0289727 0.999471
vn 0.0466616 0.0395849 0.998126
vn 0.0611489 0.0665463 0.995908
vn 0.0822271 0.0727026 0.993958
vn 0.103243 0.0804749 0.991395
vn -0.0720566 -0.134032 0.988354
vn -0.00375492 0.0498169 0.998751
vn -0.0473954 0.0301706 0.99842
vn -0.0650739 0.031427 0.997385
vn -0.050157 0.0401273 0.997935
vn 0.0261518 0.112338 0.993326
vn 0.0655856 0.100717 0.992751
vn -0.0296972 -0.0127778 0.999477
vn -0.21321 -0.276558 0.937047
vn -0.0270969 0.0857827 0.995945
vn -0.0604047 -0.00913037 0.998132
vn -0.0563064 0.0360319 0.997763
vn 0.00462487 0.107752 0.994167
vn 0.000160745 0.12167 0.992571
vn -0.0266547 0.04199 0.998762
vn -0.143098 -0.218181 0.96536
vn -0.101101 -0.231735 0.967511
vn -0.0274363 0.0532351 0.998205
vn -0.0411579 -0.0287851 0.998738
vn -0.028622 0.0829376 0.996144
vn 0.00631169 0.134084 0.99095
vn -0.0271596 0.0758063 0.996753
vn -0.0544845 0.00383156 0.998507
vn -0.0494528 -0.164048 0.985212
vn -0.0236814 -0.207414 0.977967
vn 0.0132912 0.00700951 0.999887
vn 0.0540831 -0.0470388 0.997428
vn -0.00441733 0.0963776 0.995335
vn 0.0366948 0.143322 0.988996
vn 0.0411372 0.0229609 0.99889
vn -0.01588 0.0122441 0.999799
vn 0.0054429 -0.0881814 0.99609
vn 0.0581208 -0.103032 0.992979
vn 0.0174414 0.0601777 0.998035
vn 0.0905336 -0.0371927 0.995199
vn 0.0524717 0.0573512 0.996974
vn -0.0945986 0.200703 0.975074
vn -0.0301761 0.105012 0.994013
vn 0.0903525 -0.0217261 0.995673
vn 0.101236 -0.128614 0.986514
vn 0.104237 -0.10244 0.989263
vn 0.0512819 0.0599746 0.996882
vn 0.0283723 0.0422382 0.998705
vn 0.0477093 -0.00548458 0.998846
vn -0.0741502 0.115832 0.990497
vn -0.108487 0.16198 0.980812
vn -0.0755315 0.100621 0.992054
vn 0.119839 -0.0813283 0.989457
vn 0.177742 -0.18855 0.965845
vn 0.0291231 0.0687161 0.997211
vn 0.002786 0.0187791 0.99982
vn 0.00265728 0.0127835 0.999915
vn 0.0125856 0.0149485 0.999809
vn -0.0403667 0.0801136 0.995968
vn -0.107589 0.110228 0.988066
vn -0.128912 0.0806357 0.988372
vn 0.0504484 -0.0970593 0.993999
f 100/100/100 4/4/4 13/13/13
f 44/44/44 3/3/3 21/21/21
f 44/44/44 19/19/19 20/20/20
f 60/60/60 19/19/19 52/52/52
f 60/60/60 17/17/17 18/18/18
f 76/76/76 17/17/17 68/68/68
f 84/84/84 16/16/16 76/76/76
f 84/84/84 14/14/14 15/15/15
f 100/100/100 14/14/14 92/92/92
f 11/11/11 93/93/93 85/85/85
f 93/93/93 86/86/86 85/85/85
f 94/94/94 87/87/87 86/86/86
f 87/87/87 96/96/96 88/88/88
f 96/96/96 89/89/89 88/88/88
f 97/97/97 90/90/90 89/89/89
f 90/90/90 99/99/99 91/91/91
f 91/91/91 100/100/100 92/92/92
f 10/10/10 85/85/85 77/77/77
f 77/77/77 86/86/86 78/78/78
f 78/78/78 87/87/87 79/79/79
f 79/79/79 88/88/88 80/80/80
f 88/88/88 81/81/81 80/80/80
f 81/81/81 90/90/90 82/82/82
f 82/82/82 91/91/91 83/83/83
f 91/91/91 84/84/84 83/83/83
f 10/10/10 69/69/69 9/9/9
f 69/69/69 78/78/78 70/70/70
f 70/70/70 79/79/79 71/71/71
f 79/79/79 72/72/72 71/71/71
f 72/72/72 81/81/81 73/73/73
f 73/73/73 82/82/82 74/74/74
f 82/82/82 75/75/75 74/74/74
f 83/83/83 76/76/76 75/75/75
f 9/9/9 61/61/61 8/8/8
f 69/69/69 62/62/62 61/61/61
f 62/62/62 71/71/71 63/63/63
f 63/63/63 72/72/72 64/64/64
f 72/72/72 65/65/65 64/64/64
f 65/65/65 74/74/74 66/66/66
f 66/66/66 75/75/75 67/67/67
f 67/67/67 76/76/76 68/68/68
f 8/8/8 53/53/53 7/7/7
f 53/53/53 62/62/62 54/54/54
f 54/54/54 63/63/63 55/55/55
f 55/55/55 64/64/64 56/56/56
f 64/64/64 57/57/57 56/56/56
f 57/57/57 66/66/66 58/58/58
f 58/58/58 67/67/67 59/59/59
f 59/59/59 68/68/68 60/60/60
f 6/6/6 53/53/53 45/45/45
f 45/45/45 54/54/54 46/46/46
f 54/54/54 47/47/47 46/46/46
f 55/55/55 48/48/48 47/47/47
f 56/56/56 49/49/49 48/48/48
f 49/49/49 58/58/58 50/50/50
f 58/58/58 51/51/51 50/50/50
f 59/59/59 52/52/52 51/51/51
f 6/6/6 37/37/37 5/5/5
f 45/45/45 38/38/38 37/37/37
f 46/46/46 39/39/39 38/38/38
f 39/39/39 48/48/48 40/40/40
f 40/40/40 49/49/49 41/41/41
f 41/41/41 50/50/50 42/42/42
f 50/50/50 43/43/43 42/42/42
f 51/51/51 44/44/44 43/43/43
f 5/5/5 28/28/28 1/1/1
f 28/28/28 38/38/38 27/27/27
f 27/27/27 39/39/39 26/26/26
f 26/26/26 40/40/40 25/25/25
f 40/40/40 24/24/24 25/25/25
f 41/41/41 23/23/23 24/24/24
f 23/23/23 43/43/43 22/22/22
f 43/43/43 21/21/21 22/22/22
f 2/2/2 93/93/93 12/12/12
f 93/93/93 30/30/30 94/94/94
f 30/30/30 95/95/95 94/94/94
f 31/31/31 96/96/96 95/95/95
f 32/32/32 97/97/97 96/96/96
f 33/33/33 98/98/98 97/97/97
f 98/98/98 35/35/35 99/99/99
f 99/99/99 36/36/36 100/100/100
f 100/100/100 36/36/36 4/4/4
f 44/44/44 20/20/20 3/3/3
f 44/44/44 52/52/52 19/19/19
f 60/60/60 18/18/18 19/19/19
f 60/60/60 68/68/68 17/17/17
f 76/76/76 16/16/16 17/17/17
f 84/84/84 15/15/15 16/16/16
f 84/84/84 92/92/92 14/14/14
f 100/100/100 13/13/13 14/14/14
f 11/11/11 12/12/12 93/93/93
f 93/93/93 94/94/94 86/86/86
f 94/94/94 95/95/95 87/87/87
f 87/87/87 95/95/95 96/96/96
f 96/96/96 97/97/97 89/89/89
f 97/97/97 98/98/98 90/90/90
f 90/90/90 98/98/98 99/99/99
f 91/91/91 99/99/99 100/100/100
f 10/10/10 11/11/11 85/85/85
f 77/77/77 85/85/85 86/86/86
f 78/78/78 86/86/86 87/87/87
f 79/79/79 87/87/87 88/88/88
f 88/88/88 89/89/89 81/81/81
f 81/81/81 89/89/89 90/90/90
f 82/82/82 90/90/90 91/91/91
f 91/91/91 92/92/92 84/84/84
f 10/10/10 77/77/77 69/69/69
f 69/69/69 77/77/77 78/78/78
f 70/70/70 78/78/78 79/79/79
f 79/79/79 80/80/80 72/72/72
f 72/72/72 80/80/80 81/81/81
f 73/73/73 81/81/81 82/82/82
f 82/82/82 83/83/83 75/75/75
f 83/83/83 84/84/84 76/76/76
f 9/9/9 69/69/69 61/61/61
f 69/69/69 70/70/70 62/62/62
f 62/62/62 70/70/70 71/71/71
f 63/63/63 71/71/71 72/72/72
f 72/72/72 73/73/73 65/65/65
f 65/65/65 73/73/73 74/74/74
f 66/66/66 74/74/74 75/75/75
f 67/67/67 75/75/75 76/76/76
f 8/8/8 61/61/61 53/53/53
f 53/53/53 61/61/61 62/62/62
f 54/54/54 62/62/62 63/63/63
f 55/55/55 63/63/63 64/64/64
f 64/64/64 65/65/65 57/57/57
f 57/57/57 65/65/65 66/66/66
f 58/58/58 66/66/66 67/67/67
f 59/59/59 67/67/67 68/68/68
f 6/6/6 7/7/7 53/53/53
f 45/45/45 53/53/53 54/54/54
f 54/54/54 55/55/55 47/47/47
f 55/55/55 56/56/56 48/48/48
f 56/56/56 57/57/57 49/49/49
f 49/49/49 57/57/57 58/58/58
f 58/58/58 59/59/59 51/51/51
f 59/59/59 60/60/60 52/52/52
f 6/6/6 45/45/45 37/37/37
f 45/45/45 46/46/46 38/38/38
f 46/46/46 47/47/47 39/39/39
f 39/39/39 47/47/47 48/48/48
f 40/40/40 48/48/48 49/49/49
f 41/41/41 49/49/49 50/50/50
f 50/50/50 51/51/51 43/43/43
f 51/51/51 52/52/52 44/44/44
f 5/5/5 37/37/37 28/28/28
f 28/28/28 37/37/37 38/38/38
f 27/27/27 38/38/38 39/39/39
f 26/26/26 39/39/39 40/40/40
f 40/40/40 41/41/41 24/24/24
f 41/41/41 42/42/42 23/23/23
f 23/23/23 42/42/42 43/43/43
f 43/43/43 44/44/44 21/21/21
f 2/2/2 29/29/29 93/93/93
f 93/93/93 29/29/29 30/30/30
f 30/30/30 31/31/31 95/95/95
f 31/31/31 32/32/32 96/96/96
f 32/32/32 33/33/33 97/97/97
f 33/33/33 34/34/34 98/98/98
f 98/98/98 34/34/34 35/35/35
f 99/99/99 35/35/35 36/36/36
