o GNATVCloth
v -5.05811 -4.97502 0.555049
v 4.96916 -4.98569 0.421527
v -5.01298 5.02105 0.004229
v 4.98702 5.02105 0.004229
v -3.94602 -5.00165 0.549111
v -2.8357 -5.02986 0.473334
v -1.71795 -5.03254 0.475058
v -0.600461 -5.03948 0.48216
v 0.517588 -5.04557 0.437861
v 1.63655 -5.03646 0.448514
v 2.74995 -5.01883 0.456845
v 3.86041 -4.9904 0.499139
v 3.85839 4.94986 0.12662
v 2.7444 4.89494 0.272637
v 1.62746 4.85215 0.361938
v 0.509545 4.82638 0.404755
v -0.61017 4.81895 0.452185
v -1.72902 4.80806 0.394837
v -2.8364 4.80965 0.578952
v -3.92998 4.89964 0.320662
v -4.99891 3.90801 0.0720378
v -4.99979 2.79525 0.137762
v -5.00971 1.68306 0.195411
v -5.02337 0.570705 0.231412
v -5.02721 -0.539758 0.298599
v -5.02978 -1.65259 0.369995
v -5.03216 -2.76369 0.447261
v -5.03886 -3.87245 0.536932
v 4.95924 -3.87964 0.299874
v 4.95543 -2.76873 0.316399
v 4.95348 -1.65689 0.275856
v 4.95203 -0.545543 0.228168
v 4.95087 0.567163 0.206382
v 4.95352 1.68066 0.182334
v 4.95789 2.79495 0.151555
v 4.96474 3.90719 0.0693624
v -3.88091 -3.86767 0.33896
v -3.84227 -3.22117 0.280721
v -3.69264 -1.93299 0.234147
v -4.14307 -0.277128 0.194923
v -4.16244 0.739699 0.214806
v -4.15009 1.52194 0.155472
v -4.07868 2.81455 0.0669075
v -3.93112 3.89407 -0.0675948
v -2.75423 -4.02113 0.276693
v -2.82516 -2.75344 0.293505
v -2.70346 -2.16177 0.286841
v -2.78002 -0.618925 0.320867
v -2.80668 0.511507 0.254662
v -2.73116 1.55039 0.0996231
v -2.85262 2.87905 -0.0931849
v -2.76463 3.54287 0.125923
v -1.69506 -4.23631 0.33665
v -1.53193 -2.93134 0.393865
v -1.92371 -1.64106 0.417726
v -1.90518 -0.851341 0.373074
v -1.55011 0.624125 0.124102
v -2.00106 1.671 -0.0503025
v -1.73086 2.69869 0.124726
v -1.5904 3.66299 0.429014
v -0.276701 -4.30707 0.383793
v -0.620649 -2.88994 0.42578
v -0.579617 -1.7478 0.487787
v -0.869894 -0.781542 0.333059
v -0.631177 0.424544 0.176528
v -0.388674 1.44746 0.179848
v -0.576444 2.61996 0.21615
v -0.768847 3.47897 0.3912
v 0.693212 -3.89091 0.402102
v 0.77571 -2.60249 0.50694
v 0.491495 -1.81472 0.461622
v 0.580684 -0.484405 0.329325
v 0.559512 0.408343 0.273481
v 0.27869 1.49614 0.290156
v 0.514068 2.46454 0.272109
v 0.531268 3.73237 0.419924
v 1.90213 -3.63757 0.445326
v 1.62216 -2.83359 0.327567
v 1.79016 -1.9168 0.453759
v 1.94978 -0.395602 0.248191
v 1.93557 0.263407 0.0498298
v 1.81004 1.52162 0.18373
v 1.40062 2.79824 0.249431
v 1.47166 3.63513 0.383898
v 2.74172 -3.9056 0.419183
v 3.04839 -2.82722 0.325266
v 2.90242 -1.95342 0.235965
v 2.68118 -0.491495 0.345509
v 2.92002 0.301104 0.259128
v 3.0451 1.56805 -0.041626
v 2.74863 3.1353 0.0138569
v 2.73242 3.4831 0.149706
v 3.86099 -3.96111 0.303783
v 3.61149 -2.70796 0.333974
v 3.82634 -1.67061 0.289127
v 3.76676 -0.71409 0.278753
v 3.8329 0.296899 0.308358
v 4.13543 1.80814 0.16114
v 4.12441 2.7573 -0.0199685
v 4.0157 3.88295 -0.0625563
vt 0.0001 0.0001
vt 0.9999 0.0001
vt 0.0001 0.9999
vt 0.9999 0.9999
vt 0.111189 0.0001
vt 0.222278 0.0001
vt 0.333367 0.0001
vt 0.444455 0.0001
vt 0.555544 0.0001
vt 0.666633 0.0001
vt 0.777722 0.0001
vt 0.888811 0.0001
vt 0.888811 0.9999
vt 0.777722 0.9999
vt 0.666633 0.9999
vt 0.555544 0.9999
vt 0.444455 0.9999
vt 0.333367 0.9999
vt 0.222278 0.9999
vt 0.111189 0.9999
vt 0.0001 0.888811
vt 0.0001 0.777722
vt 0.0001 0.666633
vt 0.0001 0.555544
vt 0.0001 0.444456
vt 0.0001 0.333367
vt 0.0001 0.222278
vt 0.0001 0.111189
vt 0.9999 0.111189
vt 0.9999 0.222278
vt 0.9999 0.333367
vt 0.9999 0.444456
vt 0.9999 0.555544
vt 0.9999 0.666633
vt 0.9999 0.777722
vt 0.9999 0.888811
vt 0.11727 0.115399
vt 0.120778 0.180369
vt 0.134636 0.309595
vt 0.088728 0.473895
vt 0.085886 0.575352
vt 0.086211 0.65375
vt 0.092207 0.78313
vt 0.106956 0.892282
vt 0.22987 0.102869
vt 0.221803 0.229552
vt 0.233521 0.288953
vt 0.225541 0.443179
vt 0.221596 0.556167
vt 0.227801 0.661237
vt 0.214896 0.795203
vt 0.22542 0.865181
vt 0.335524 0.082127
vt 0.351143 0.213907
vt 0.311934 0.342467
vt 0.313159 0.422214
vt 0.347791 0.572605
vt 0.301482 0.677733
vt 0.329031 0.783086
vt 0.344903 0.885466
vt 0.476837 0.074882
vt 0.441952 0.218774
vt 0.445749 0.333088
vt 0.416414 0.43099
vt 0.439746 0.552976
vt 0.463203 0.656843
vt 0.444252 0.77653
vt 0.426137 0.866051
vt 0.573419 0.117409
vt 0.581125 0.246686
vt 0.552512 0.326
vt 0.561075 0.459693
vt 0.558356 0.550596
vt 0.530299 0.662189
vt 0.553275 0.760113
vt 0.555478 0.888821
vt 0.694433 0.13996
vt 0.667048 0.221666
vt 0.681985 0.314267
vt 0.698218 0.467249
vt 0.696819 0.535952
vt 0.68253 0.662758
vt 0.642062 0.791726
vt 0.648523 0.877957
vt 0.778029 0.111667
vt 0.809426 0.219523
vt 0.794923 0.307783
vt 0.772028 0.454562
vt 0.796846 0.533374
vt 0.807262 0.663157
vt 0.778581 0.821037
vt 0.775122 0.858219
vt 0.890224 0.104741
vt 0.865679 0.23076
vt 0.887326 0.334104
vt 0.881307 0.429754
vt 0.887973 0.53063
vt 0.918106 0.681428
vt 0.915043 0.778027
vt 0.904815 0.89094
vn 0.0057306 0.0163293 0.99985
vn 0.0316724 0.147854 0.988502
vn -0.0882709 -0.147519 0.985112
vn -0.0115126 -0.0487822 0.998743
vn 0.0812734 0.122155 0.989178
vn 0.0333448 0.181727 0.982783
vn -0.00315243 0.17135 0.985205
vn 0.00302687 0.143842 0.989596
vn -0.00139913 0.0614854 0.998107
vn -0.00636913 0.018058 0.999817
vn 0.0180881 0.0852138 0.996198
vn 0.0128534 0.186445 0.982381
vn 0.126059 -0.155146 0.979816
vn 0.144342 -0.0800471 0.986285
vn 0.0586941 0.0104981 0.998221
vn 0.0399918 0.0141681 0.9991
vn 0.0030385 -0.0138048 0.9999
vn 0.056573 0.036628 0.997726
vn -0.137472 -0.25223 0.957853
vn -0.270705 -0.346472 0.898151
vn 0.112012 0.0752737 0.990852
vn 0.0754391 0.05484 0.995641
vn 0.0518172 0.0556987 0.997102
vn 0.0449629 0.0243098 0.998693
vn 0.0981663 0.0616268 0.99326
vn 0.108276 0.0620589 0.992182
vn 0.142908 0.0553556 0.988187
vn 0.127135 0.0863002 0.988124
vn 4.63715e-05 0.0473067 0.99888
vn 0.0107428 0.010013 0.999892
vn 0.0198245 0.0303101 0.999344
vn 0.0566538 0.0100601 0.998343
vn 0.0448329 0.0413724 0.998137
vn -0.0220491 0.0246649 0.999453
vn -0.144814 0.0946232 0.984924
vn -0.160579 0.0527319 0.985613
vn 0.11033 0.139696 0.984029
vn 0.0854354 0.0481002 0.995182
vn 0.0204501 0.0252479 0.999472
vn 0.0184324 0.0276663 0.999447
vn 0.0161981 0.0484976 0.998692
vn 0.0485849 0.070201 0.996349
vn 0.0887916 0.0865782 0.99228
vn -0.0965047 -0.154159 0.983322
vn -0.00341249 0.0663659 0.99779
vn -0.047814 0.0112008 0.998793
vn -0.0912218 -0.0127395 0.995749
vn -0.0774781 0.0193105 0.996807
vn 0.0276444 0.103135 0.994283
vn 0.0908784 0.122384 0.988313
vn -0.0437807 -0.0430123 0.998115
vn -0.226912 -0.299761 0.926636
vn -0.0259156 0.0813116 0.996352
vn -0.0665915 -0.0303066 0.99732
vn -0.0633931 0.0230954 0.997721
vn 0.0126408 0.0952495 0.995373
vn -0.00122114 0.126821 0.991925
vn -0.019365 0.0419899 0.99893
vn -0.142601 -0.220519 0.964902
vn -0.0499673 -0.149904 0.987437
vn -0.012193 0.0455303 0.998888
vn -0.0274739 -0.0373336 0.998925
vn -0.017429 0.0418517 0.998972
vn -0.00968943 0.129984 0.991469
vn -0.072617 0.0563872 0.995765
vn -0.120022 0.0201544 0.992567
vn -0.0728816 -0.128504 0.989027
vn -0.0154429 -0.162155 0.986644
vn -0.00115094 0.000151281 0.999999
vn 0.0500941 -0.0480293 0.997589
vn 0.00219502 0.047155 0.998885
vn 0.0208571 0.128278 0.991519
vn 0.0453159 0.000472126 0.998973
vn -0.0554459 0.0126741 0.998381
vn -0.0188629 -0.0417304 0.998951
vn 0.0155236 -0.0863416 0.996145
vn -0.0028563 0.069466 0.99758
vn 0.0793029 -0.00865151 0.996813
vn 0.0722963 0.00828769 0.997349
vn -0.0284375 0.213008 0.976636
vn 0.00380824 0.128609 0.991688
vn 0.123416 -0.0296036 0.991913
vn 0.103114 -0.0972515 0.989904
vn 0.0997094 -0.10681 0.989267
vn 0.0571113 0.0385938 0.997622
vn 0.019297 0.0743094 0.997048
vn 0.0364634 -0.00229568 0.999332
vn -0.0162978 0.0967808 0.995172
vn -0.0907392 0.143311 0.985509
vn -0.0456861 0.0990631 0.994032
vn 0.145006 -0.124493 0.981568
vn 0.188339 -0.219885 0.957172
vn 0.0298015 0.0640537 0.997501
vn -0.0187994 0.0293881 0.999391
vn -0.0194186 0.0308028 0.999337
vn 0.015416 0.00295986 0.999877
vn -0.0187274 0.0700331 0.997369
vn -0.102186 0.105935 0.989109
vn -0.12025 0.0786837 0.98962
vn 0.0663941 -0.0892553 0.993793
f 100/100/100 4/4/4 13/13/13
f 44/44/44 3/3/3 21/21/21
f 44/44/44 19/19/19 20/20/20
f 60/60/60 19/19/19 52/52/52
f 60/60/60 17/17/17 18/18/18
f 76/76/76 17/17/17 68/68/68
f 84/84/84 16/16/16 76/76/76
f 84/84/84 14/14/14 15/15/15
f 100/100/100 14/14/14 92/92/92
f 11/11/11 93/93/93 85/85/85
f 93/93/93 86/86/86 85/85/85
f 94/94/94 87/87/87 86/86/86
f 87/87/87 96/96/96 88/88/88
f 96/96/96 89/89/89 88/88/88
f 97/97/97 90/90/90 89/89/89
f 90/90/90 99/99/99 91/91/91
f 91/91/91 100/100/100 92/92/92
f 10/10/10 85/85/85 77/77/77
f 77/77/77 86/86/86 78/78/78
f 78/78/78 87/87/87 79/79/79
f 79/79/79 88/88/88 80/80/80
f 88/88/88 81/81/81 80/80/80
f 81/81/81 90/90/90 82/82/82
f 82/82/82 91/91/91 83/83/83
f 91/91/91 84/84/84 83/83/83
f 10/10/10 69/69/69 9/9/9
f 69/69/69 78/78/78 70/70/70
f 70/70/70 79/79/79 71/71/71
f 79/79/79 72/72/72 71/71/71
f 72/72/72 81/81/81 73/73/73
f 73/73/73 82/82/82 74/74/74
f 82/82/82 75/75/75 74/74/74
f 83/83/83 76/76/76 75/75/75
f 9/9/9 61/61/61 8/8/8
f 69/69/69 62/62/62 61/61/61
f 62/62/62 71/71/71 63/63/63
f 63/63/63 72/72/72 64/64/64
f 72/72/72 65/65/65 64/64/64
f 65/65/65 74/74/74 66/66/66
f 66/66/66 75/75/75 67/67/67
f 67/67/67 76/76/76 68/68/68
f 8/8/8 53/53/53 7/7/7
f 53/53/53 62/62/62 54/54/54
f 54/54/54 63/63/63 55/55/55
f 55/55/55 64/64/64 56/56/56
f 64/64/64 57/57/57 56/56/56
f 57/57/57 66/66/66 58/58/58
f 58/58/58 67/67/67 59/59/59
f 59/59/59 68/68/68 60/60/60
f 6/6/6 53/53/53 45/45/45
f 45/45/45 54/54/54 46/46/46
f 54/54/54 47/47/47 46/46/46
f 55/55/55 48/48/48 47/47/47
f 56/56/56 49/49/49 48/48/48
f 49/49/49 58/58/58 50/50/50
f 58/58/58 51/51/51 50/50/50
f 59/59/59 52/52/52 51/51/51
f 6/6/6 37/37/37 5/5/5
f 45/45/45 38/38/38 37/37/37
f 46/46/46 39/39/39 38/38/38
f 39/39/39 48/48/48 40/40/40
f 40/40/40 49/49/49 41/41/41
f 41/41/41 50/50/50 42/42/42
f 50/50/50 43/43/43 42/42/42
f 51/51/51 44/44/44 43/43/43
f 5/5/5 28/28/28 1/1/1
f 28/28/28 38/38/38 27/27/27
f 27/27/27 39/39/39 26/26/26
f 26/26/26 40/40/40 25/25/25
f 40/40/40 24/24/24 25/25/25
f 41/41/41 23/23/23 24/24/24
f 23/23/23 43/43/43 22/22/22
f 43/43/43 21/21/21 22/22/22
f 2/2/2 93/93/93 12/12/12
f 93/93/93 30/30/30 94/94/94
f 30/30/30 95/95/95 94/94/94
f 31/31/31 96/96/96 95/95/95
f 32/32/32 97/97/97 96/96/96
f 33/33/33 98/98/98 97/97/97
f 98/98/98 35/35/35 99/99/99
f 99/99/99 36/36/36 100/100/100
f 100/100/100 36/36/36 4/4/4
f 44/44/44 20/20/20 3/3/3
f 44/44/44 52/52/52 19/19/19
f 60/60/60 18/18/18 19/19/19
f 60/60/60 68/68/68 17/17/17
f 76/76/76 16/16/16 17/17/17
f 84/84/84 15/15/15 16/16/16
f 84/84/84 92/92/92 14/14/14
f 100/100/100 13/13/13 14/14/14
f 11/11/11 12/12/12 93/93/93
f 93/93/93 94/94/94 86/86/86
f 94/94/94 95/95/95 87/87/87
f 87/87/87 95/95/95 96/96/96
f 96/96/96 97/97/97 89/89/89
f 97/97/97 98/98/98 90/90/90
f 90/90/90 98/98/98 99/99/99
f 91/91/91 99/99/99 100/100/100
f 10/10/10 11/11/11 85/85/85
f 77/77/77 85/85/85 86/86/86
f 78/78/78 86/86/86 87/87/87
f 79/79/79 87/87/87 88/88/88
f 88/88/88 89/89/89 81/81/81
f 81/81/81 89/89/89 90/90/90
f 82/82/82 90/90/90 91/91/91
f 91/91/91 92/92/92 84/84/84
f 10/10/10 77/77/77 69/69/69
f 69/69/69 77/77/77 78/78/78
f 70/70/70 78/78/78 79/79/79
f 79/79/79 80/80/80 72/72/72
f 72/72/72 80/80/80 81/81/81
f 73/73/73 81/81/81 82/82/82
f 82/82/82 83/83/83 75/75/75
f 83/83/83 84/84/84 76/76/76
f 9/9/9 69/69/69 61/61/61
f 69/69/69 70/70/70 62/62/62
f 62/62/62 70/70/70 71/71/71
f 63/63/63 71/71/71 72/72/72
f 72/72/72 73/73/73 65/65/65
f 65/65/65 73/73/73 74/74/74
f 66/66/66 74/74/74 75/75/75
f 67/67/67 75/75/75 76/76/76
f 8/8/8 61/61/61 53/53/53
f 53/53/53 61/61/61 62/62/62
f 54/54/54 62/62/62 63/63/63
f 55/55/55 63/63/63 64/64/64
f 64/64/64 65/65/65 57/57/57
f 57/57/57 65/65/65 66/66/66
f 58/58/58 66/66/66 67/67/67
f 59/59/59 67/67/67 68/68/68
f 6/6/6 7/7/7 53/53/53
f 45/45/45 53/53/53 54/54/54
f 54/54/54 55/55/55 47/47/47
f 55/55/55 56/56/56 48/48/48
f 56/56/56 57/57/57 49/49/49
f 49/49/49 57/57/57 58/58/58
f 58/58/58 59/59/59 51/51/51
f 59/59/59 60/60/60 52/52/52
f 6/6/6 45/45/45 37/37/37
f 45/45/45 46/46/46 38/38/38
f 46/46/46 47/47/47 39/39/39
f 39/39/39 47/47/47 48/48/48
f 40/40/40 48/48/48 49/49/49
f 41/41/41 49/49/49 50/50/50
f 50/50/50 51/51/51 43/43/43
f 51/51/51 52/52/52 44/44/44
f 5/5/5 37/37/37 28/28/28
f 28/28/28 37/37/37 38/38/38
f 27/27/27 38/38/38 39/39/39
f 26/26/26 39/39/39 40/40/40
f 40/40/40 41/41/41 24/24/24
f 41/41/41 42/42/42 23/23/23
f 23/23/23 42/42/42 43/43/43
f 43/43/43 44/44/44 21/21/21
f 2/2/2 29/29/29 93/93/93
f 93/93/93 29/29/29 30/30/30
f 30/30/30 31/31/31 95/95/95
f 31/31/31 32/32/32 96/96/96
f 32/32/32 33/33/33 97/97/97
f 33/33/33 34/34/34 98/98/98
f 98/98/98 34/34/34 35/35/35
f 99/99/99 35/35/35 36/36/36
