o GNATVCloth
v -4.98149 -5.0151 0.230162
v 5.19311 -5.01319 0.225238
v -5.01298 5.02105 0.004229
v 4.98702 5.02105 0.004229
v -3.86214 -5.06413 0.179887
v -2.73452 -5.11423 0.150243
v -1.60127 -5.151 0.152999
v -0.463241 -5.17586 0.131669
v 0.677025 -5.18449 0.106968
v 1.81518 -5.16792 0.110557
v 2.94669 -5.12586 0.149879
v 4.07334 -5.0703 0.200142
v 3.85088 4.92634 0.109009
v 2.72099 4.84374 0.147224
v 1.6038 4.73829 0.18969
v 0.643876 4.69114 0.153198
v -0.462938 4.73578 0.125879
v -1.58086 4.81051 0.177477
v -2.71449 4.88894 0.142681
v -3.8554 4.94319 0.0584871
v -4.96792 3.90454 0.0459962
v -4.95216 2.78729 0.0826284
v -4.94493 1.67042 0.115514
v -4.94059 0.554336 0.159136
v -4.93637 -0.561819 0.176657
v -4.93539 -1.67714 0.185051
v -4.94103 -2.79061 0.18483
v -4.95648 -3.90249 0.173478
v 5.16167 -3.9016 0.188324
v 5.14441 -2.78956 0.145979
v 5.12723 -1.67576 0.166123
v 5.113 -0.560802 0.161135
v 5.09379 0.554652 0.147734
v 5.06611 1.67086 0.117105
v 5.03846 2.78738 0.0825753
v 5.00978 3.90411 0.0445814
v -3.77572 -3.91384 0.14081
v -3.73493 -3.26356 0.125641
v -3.58973 -1.97711 0.0949102
v -4.05267 -0.310255 0.106088
v -4.08317 0.707489 0.112222
v -4.0813 1.4927 0.111496
v -4.02928 2.78531 0.0838488
v -3.88992 3.86967 0.0521764
v -2.63897 -4.08829 0.123356
v -2.71348 -2.81903 0.11809
v -2.59463 -2.2286 0.103979
v -2.67666 -0.683326 0.129314
v -2.71842 0.448426 0.118644
v -2.65879 1.49956 0.111053
v -2.79484 2.84469 0.101415
v -2.69381 3.53878 0.121994
v -1.56915 -4.33315 0.102795
v -1.40694 -3.01915 0.0923512
v -1.80521 -1.7235 0.151003
v -1.79477 -0.924763 0.147768
v -1.4504 0.568422 0.105
v -1.91964 1.63455 0.107332
v -1.64893 2.67883 0.115045
v -1.48826 3.68289 0.116021
v -0.131483 -4.43457 0.103807
v -0.488258 -2.99292 0.0960922
v -0.454275 -1.85128 0.119308
v -0.755129 -0.868385 0.108258
v -0.524819 0.346371 0.111346
v -0.295979 1.37779 0.117363
v -0.493453 2.57588 0.113294
v -0.673012 3.45293 0.121436
v 0.849014 -4.01457 0.104982
v 0.918758 -2.72138 0.125067
v 0.624488 -1.93413 0.125722
v 0.701836 -0.598328 0.0864211
v 0.668586 0.310967 0.118139
v 0.376972 1.42593 0.126409
v 0.597911 2.40295 0.12122
v 0.620928 3.62647 0.109507
v 2.0754 -3.76269 0.134006
v 1.78992 -2.958 0.11077
v 1.93296 -2.02888 0.108039
v 2.08222 -0.492696 0.13468
v 2.06092 0.186395 0.100797
v 1.90024 1.44687 0.0810238
v 1.46895 2.71123 0.1341
v 1.50653 3.52133 0.106144
v 2.92771 -4.01206 0.118404
v 3.22826 -2.9216 0.144027
v 3.07318 -2.04734 0.0874414
v 2.82705 -0.590985 0.124578
v 3.06558 0.20905 0.133237
v 3.14772 1.50561 0.0922407
v 2.82522 3.06795 0.105475
v 2.77317 3.4291 0.150093
v 4.06362 -4.02765 0.0914285
v 3.79389 -2.78113 0.148251
v 3.9989 -1.73435 0.140138
v 3.92901 -0.781896 0.101466
v 3.98118 0.231394 0.115661
v 4.24995 1.76227 0.106576
v 4.1928 2.72687 0.0928123
v 4.05543 3.84908 0.0725215
vt 0.0001 0.0001
vt 0.9999 0.0001
vt 0.0001 0.9999
vt 0.9999 0.9999
vt 0.111189 0.0001
vt 0.222278 0.0001
vt 0.333367 0.0001
vt 0.444455 0.0001
vt 0.555544 0.0001
vt 0.666633 0.0001
vt 0.777722 0.0001
vt 0.888811 0.0001
vt 0.888811 0.9999
vt 0.777722 0.9999
vt 0.666633 0.9999
vt 0.555544 0.9999
vt 0.444455 0.9999
vt 0.333367 0.9999
vt 0.222278 0.9999
vt 0.111189 0.9999
vt 0.0001 0.888811
vt 0.0001 0.777722
vt 0.0001 0.666633
vt 0.0001 0.555544
vt 0.0001 0.444456
vt 0.0001 0.333367
vt 0.0001 0.222278
vt 0.0001 0.111189
vt 0.9999 0.111189
vt 0.9999 0.222278
vt 0.9999 0.333367
vt 0.9999 0.444456
vt 0.9999 0.555544
vt 0.9999 0.666633
vt 0.9999 0.777722
vt 0.9999 0.888811
vt 0.11727 0.115399
vt 0.120778 0.180369
vt 0.134636 0.309595
vt 0.088728 0.473895
vt 0.085886 0.575352
vt 0.086211 0.65375
vt 0.092207 0.78313
vt 0.106956 0.892282
vt 0.22987 0.102869
vt 0.221803 0.229552
vt 0.233521 0.288953
vt 0.225541 0.443179
vt 0.221596 0.556167
vt 0.227801 0.661237
vt 0.214896 0.795203
vt 0.22542 0.865181
vt 0.335524 0.082127
vt 0.351143 0.213907
vt 0.311934 0.342467
vt 0.313159 0.422214
vt 0.347791 0.572605
vt 0.301482 0.677733
vt 0.329031 0.783086
vt 0.344903 0.885466
vt 0.476837 0.074882
vt 0.441952 0.218774
vt 0.445749 0.333088
vt 0.416414 0.43099
vt 0.439746 0.552976
vt 0.463203 0.656843
vt 0.444252 0.77653
vt 0.426137 0.866051
vt 0.573419 0.117409
vt 0.581125 0.246686
vt 0.552512 0.326
vt 0.561075 0.459693
vt 0.558356 0.550596
vt 0.530299 0.662189
vt 0.553275 0.760113
vt 0.555478 0.888821
vt 0.694433 0.13996
vt 0.667048 0.221666
vt 0.681985 0.314267
vt 0.698218 0.467249
vt 0.696819 0.535952
vt 0.68253 0.662758
vt 0.642062 0.791726
vt 0.648523 0.877957
vt 0.778029 0.111667
vt 0.809426 0.219523
vt 0.794923 0.307783
vt 0.772028 0.454562
vt 0.796846 0.533374
vt 0.807262 0.663157
vt 0.778581 0.821037
vt 0.775122 0.858219
vt 0.890224 0.104741
vt 0.865679 0.23076
vt 0.887326 0.334104
vt 0.881307 0.429754
vt 0.887973 0.53063
vt 0.918106 0.681428
vt 0.915043 0.778027
vt 0.904815 0.89094
vn 0.0469898 0.0497714 0.997655
vn -0.0595145 0.067019 0.995975
vn -0.0258305 0.0164287 0.999531
vn 0.0601942 0.0103149 0.998133
vn 0.0342089 0.0378276 0.998699
vn 0.0177564 0.0353714 0.999216
vn 0.00979427 0.0608845 0.998097
vn 0.0145927 0.0416626 0.999025
vn 0.00554058 0.0106496 0.999928
vn -0.0118115 -0.000510222 0.99993
vn -0.0203647 0.0531917 0.998377
vn -0.0384839 0.103272 0.993908
vn 0.0644843 -0.0215475 0.997686
vn 0.0262356 -0.0235437 0.999378
vn 0.00499612 -0.0688871 0.997612
vn -0.0206832 -0.0490396 0.998583
vn 0.00474901 -0.0246775 0.999684
vn 0.00403681 -0.0540892 0.998528
vn -0.0411072 -0.0230599 0.998889
vn -0.0604415 -0.00392438 0.998164
vn -0.00351435 0.0332535 0.999441
vn -0.00125477 0.0310882 0.999516
vn 0.0150468 0.022645 0.99963
vn 0.0593815 0.0169286 0.998092
vn 0.0762721 0.0117534 0.997018
vn 0.0712738 0.00656242 0.997435
vn 0.0557952 0.0020616 0.99844
vn 0.0369042 0.0230958 0.999052
vn -0.0916646 0.0334674 0.995227
vn -0.0277666 -0.00495061 0.999602
vn -0.0327198 0.00804318 0.999432
vn -0.0437922 0.00125323 0.99904
vn -0.0247232 0.0167407 0.999554
vn -0.00965537 0.0289303 0.999535
vn 0.00374159 0.026617 0.999639
vn 0.0216009 0.0307989 0.999292
vn 0.0242659 0.0263659 0.999358
vn 0.0249309 0.0131926 0.999602
vn 0.021803 0.00699883 0.999738
vn 0.0338924 0.00317052 0.99942
vn 0.0165047 0.00631635 0.999844
vn 0.00358363 0.0110591 0.999932
vn -0.00404528 0.0244717 0.999692
vn -0.0389509 0.00769515 0.999211
vn 0.018157 0.0142832 0.999733
vn 0.00850736 0.015575 0.999843
vn -0.0133366 -0.00905044 0.99987
vn -0.0223008 -0.00439569 0.999742
vn -0.00280985 0.00786232 0.999965
vn -0.00164583 0.0083252 0.999964
vn -0.0198008 -0.00122039 0.999803
vn -0.0261131 -0.0161849 0.999528
vn 0.00885424 0.0288013 0.999546
vn 0.00714922 -0.0105537 0.999919
vn -0.00165321 -0.0140549 0.9999
vn 0.00892744 0.0126942 0.99988
vn 0.00560835 0.00645726 0.999963
vn -0.000931457 0.000344218 1
vn -0.0047083 -0.00832199 0.999954
vn 0.0010187 -0.0212275 0.999774
vn 0.00364104 0.015269 0.999877
vn -0.0079456 -0.00636339 0.999948
vn 0.00709228 -0.00265645 0.999971
vn 0.0201692 0.00847463 0.999761
vn -0.00414731 -0.009641 0.999945
vn -0.00913809 0.000153485 0.999958
vn -0.00111703 -0.00159339 0.999998
vn 0.00137681 -0.00472106 0.999988
vn -0.00896725 -0.00224591 0.999957
vn 0.00110594 -0.00679437 0.999976
vn -0.000162376 0.00688165 0.999976
vn -0.00371647 0.00405871 0.999985
vn 0.00809509 -0.0121545 0.999893
vn 0.0052688 -0.000888688 0.999986
vn -0.00251893 -0.00216895 0.999995
vn -0.00335061 -0.00571161 0.999978
vn -0.00978923 -0.00373578 0.999945
vn -0.00486924 0.0140333 0.99989
vn 0.00842219 -0.00308163 0.99996
vn -0.010295 0.0166605 0.999808
vn -0.0100015 0.0184291 0.99978
vn 0.0121396 -0.00759824 0.999897
vn 0.00625553 0.000831753 0.99998
vn -0.00707707 -0.0341474 0.999392
vn 0.00700512 -0.00381783 0.999968
vn -0.00553646 0.00671401 0.999962
vn -0.0181143 0.0188076 0.999659
vn 0.00866782 -0.00508721 0.99995
vn -0.0018225 0.0063352 0.999978
vn -0.00804745 0.011902 0.999897
vn 0.0152538 -0.0332946 0.999329
vn 0.0190803 -0.0582756 0.998118
vn -0.0260414 0.0228365 0.9994
vn -0.015888 -0.000356821 0.999874
vn -0.035563 0.0166791 0.999228
vn -0.0197636 0.0018035 0.999803
vn -0.0149232 0.00592094 0.999871
vn -0.0119263 0.0177085 0.999772
vn 0.00905681 0.0161489 0.999829
vn 0.0504574 -0.00993158 0.998677
f 100/100/100 4/4/4 13/13/13
f 44/44/44 3/3/3 21/21/21
f 44/44/44 19/19/19 20/20/20
f 60/60/60 19/19/19 52/52/52
f 60/60/60 17/17/17 18/18/18
f 76/76/76 17/17/17 68/68/68
f 84/84/84 16/16/16 76/76/76
f 84/84/84 14/14/14 15/15/15
f 100/100/100 14/14/14 92/92/92
f 11/11/11 93/93/93 85/85/85
f 93/93/93 86/86/86 85/85/85
f 94/94/94 87/87/87 86/86/86
f 87/87/87 96/96/96 88/88/88
f 96/96/96 89/89/89 88/88/88
f 97/97/97 90/90/90 89/89/89
f 90/90/90 99/99/99 91/91/91
f 91/91/91 100/100/100 92/92/92
f 10/10/10 85/85/85 77/77/77
f 77/77/77 86/86/86 78/78/78
f 78/78/78 87/87/87 79/79/79
f 79/79/79 88/88/88 80/80/80
f 88/88/88 81/81/81 80/80/80
f 81/81/81 90/90/90 82/82/82
f 82/82/82 91/91/91 83/83/83
f 91/91/91 84/84/84 83/83/83
f 10/10/10 69/69/69 9/9/9
f 69/69/69 78/78/78 70/70/70
f 70/70/70 79/79/79 71/71/71
f 79/79/79 72/72/72 71/71/71
f 72/72/72 81/81/81 73/73/73
f 73/73/73 82/82/82 74/74/74
f 82/82/82 75/75/75 74/74/74
f 83/83/83 76/76/76 75/75/75
f 9/9/9 61/61/61 8/8/8
f 69/69/69 62/62/62 61/61/61
f 62/62/62 71/71/71 63/63/63
f 63/63/63 72/72/72 64/64/64
f 72/72/72 65/65/65 64/64/64
f 65/65/65 74/74/74 66/66/66
f 66/66/66 75/75/75 67/67/67
f 67/67/67 76/76/76 68/68/68
f 8/8/8 53/53/53 7/7/7
f 53/53/53 62/62/62 54/54/54
f 54/54/54 63/63/63 55/55/55
f 55/55/55 64/64/64 56/56/56
f 64/64/64 57/57/57 56/56/56
f 57/57/57 66/66/66 58/58/58
f 58/58/58 67/67/67 59/59/59
f 59/59/59 68/68/68 60/60/60
f 6/6/6 53/53/53 45/45/45
f 45/45/45 54/54/54 46/46/46
f 54/54/54 47/47/47 46/46/46
f 55/55/55 48/48/48 47/47/47
f 56/56/56 49/49/49 48/48/48
f 49/49/49 58/58/58 50/50/50
f 58/58/58 51/51/51 50/50/50
f 59/59/59 52/52/52 51/51/51
f 6/6/6 37/37/37 5/5/5
f 45/45/45 38/38/38 37/37/37
f 46/46/46 39/39/39 38/38/38
f 39/39/39 48/48/48 40/40/40
f 40/40/40 49/49/49 41/41/41
f 41/41/41 50/50/50 42/42/42
f 50/50/50 43/43/43 42/42/42
f 51/51/51 44/44/44 43/43/43
f 5/5/5 28/28/28 1/1/1
f 28/28/28 38/38/38 27/27/27
f 27/27/27 39/39/39 26/26/26
f 26/26/26 40/40/40 25/25/25
f 40/40/40 24/24/24 25/25/25
f 41/41/41 23/23/23 24/24/24
f 23/23/23 43/43/43 22/22/22
f 43/43/43 21/21/21 22/22/22
f 2/2/2 93/93/93 12/12/12
f 93/93/93 30/30/30 94/94/94
f 30/30/30 95/95/95 94/94/94
f 31/31/31 96/96/96 95/95/95
f 32/32/32 97/97/97 96/96/96
f 33/33/33 98/98/98 97/97/97
f 98/98/98 35/35/35 99/99/99
f 99/99/99 36/36/36 100/100/100
f 100/100/100 36/36/36 4/4/4
f 44/44/44 20/20/20 3/3/3
f 44/44/44 52/52/52 19/19/19
f 60/60/60 18/18/18 19/19/19
f 60/60/60 68/68/68 17/17/17
f 76/76/76 16/16/16 17/17/17
f 84/84/84 15/15/15 16/16/16
f 84/84/84 92/92/92 14/14/14
f 100/100/100 13/13/13 14/14/14
f 11/11/11 12/12/12 93/93/93
f 93/93/93 94/94/94 86/86/86
f 94/94/94 95/95/95 87/87/87
f 87/87/87 95/95/95 96/96/96
f 96/96/96 97/97/97 89/89/89
f 97/97/97 98/98/98 90/90/90
f 90/90/90 98/98/98 99/99/99
f 91/91/91 99/99/99 100/100/100
f 10/10/10 11/11/11 85/85/85
f 77/77/77 85/85/85 86/86/86
f 78/78/78 86/86/86 87/87/87
f 79/79/79 87/87/87 88/88/88
f 88/88/88 89/89/89 81/81/81
f 81/81/81 89/89/89 90/90/90
f 82/82/82 90/90/90 91/91/91
f 91/91/91 92/92/92 84/84/84
f 10/10/10 77/77/77 69/69/69
f 69/69/69 77/77/77 78/78/78
f 70/70/70 78/78/78 79/79/79
f 79/79/79 80/80/80 72/72/72
f 72/72/72 80/80/80 81/81/81
f 73/73/73 81/81/81 82/82/82
f 82/82/82 83/83/83 75/75/75
f 83/83/83 84/84/84 76/76/76
f 9/9/9 69/69/69 61/61/61
f 69/69/69 70/70/70 62/62/62
f 62/62/62 70/70/70 71/71/71
f 63/63/63 71/71/71 72/72/72
f 72/72/72 73/73/73 65/65/65
f 65/65/65 73/73/73 74/74/74
f 66/66/66 74/74/74 75/75/75
f 67/67/67 75/75/75 76/76/76
f 8/8/8 61/61/61 53/53/53
f 53/53/53 61/61/61 62/62/62
f 54/54/54 62/62/62 63/63/63
f 55/55/55 63/63/63 64/64/64
f 64/64/64 65/65/65 57/57/57
f 57/57/57 65/65/65 66/66/66
f 58/58/58 66/66/66 67/67/67
f 59/59/59 67/67/67 68/68/68
f 6/6/6 7/7/7 53/53/53
f 45/45/45 53/53/53 54/54/54
f 54/54/54 55/55/55 47/47/47
f 55/55/55 56/56/56 48/48/48
f 56/56/56 57/57/57 49/49/49
f 49/49/49 57/57/57 58/58/58
f 58/58/58 59/59/59 51/51/51
f 59/59/59 60/60/60 52/52/52
f 6/6/6 45/45/45 37/37/37
f 45/45/45 46/46/46 38/38/38
f 46/46/46 47/47/47 39/39/39
f 39/39/39 47/47/47 48/48/48
f 40/40/40 48/48/48 49/49/49
f 41/41/41 49/49/49 50/50/50
f 50/50/50 51/51/51 43/43/43
f 51/51/51 52/52/52 44/44/44
f 5/5/5 37/37/37 28/28/28
f 28/28/28 37/37/37 38/38/38
f 27/27/27 38/38/38 39/39/39
f 26/26/26 39/39/39 40/40/40
f 40/40/40 41/41/41 24/24/24
f 41/41/41 42/42/42 23/23/23
f 23/23/23 42/42/42 43/43/43
f 43/43/43 44/44/44 21/21/21
f 2/2/2 29/29/29 93/93/93
f 93/93/93 29/29/29 30/30/30
f 30/30/30 31/31/31 95/95/95
f 31/31/31 32/32/32 96/96/96
f 32/32/32 33/33/33 97/97/97
f 33/33/33 34/34/34 98/98/98
f 98/98/98 34/34/34 35/35/35
f 99/99/99 35/35/35 36/36/36
