o GNATVCloth
v -5.00994 -4.97456 0.611293
v 5.05271 -4.98459 0.400905
v -5.01298 5.02105 0.004229
v 4.98702 5.02105 0.004229
v -3.90494 -5.00474 0.486714
v -2.78713 -5.03541 0.481371
v -1.66627 -5.05764 0.444061
v -0.543372 -5.06981 0.448846
v 0.580976 -5.07151 0.458748
v 1.70288 -5.0609 0.440785
v 2.82357 -5.03975 0.432294
v 3.94057 -5.01981 0.358437
v 3.87275 4.89606 0.213676
v 2.76526 4.79741 0.412731
v 1.64638 4.74228 0.333671
v 0.528537 4.70044 0.336947
v -0.567628 4.6856 0.533391
v -1.68801 4.69569 0.563945
v -2.80969 4.75068 0.500879
v -3.91088 4.86777 0.273225
v -4.97325 3.90882 0.0841582
v -4.96412 2.79463 0.131248
v -4.9629 1.68113 0.178326
v -4.96571 0.567857 0.218409
v -4.97307 -0.544803 0.25763
v -4.98155 -1.65718 0.297395
v -4.98912 -2.76667 0.368929
v -5.00026 -3.87555 0.453817
v 5.03737 -3.87674 0.331608
v 5.02263 -2.77281 0.208118
v 5.00872 -1.66083 0.186155
v 4.99786 -0.545332 0.192589
v 4.98695 0.567041 0.188034
v 4.9774 1.67998 0.164211
v 4.97242 2.79377 0.12792
v 4.96543 3.90712 0.0650733
v -3.82579 -3.86422 0.41291
v -3.78741 -3.2204 0.321344
v -3.63713 -1.93028 0.26977
v -4.08446 -0.274381 0.221283
v -4.10753 0.740133 0.181165
v -4.10125 1.52608 0.12917
v -4.0423 2.81744 0.0579078
v -3.92383 3.88465 -0.16457
v -2.70086 -4.02547 0.322706
v -2.77039 -2.75312 0.312156
v -2.648 -2.16275 0.285482
v -2.71925 -0.616733 0.2778
v -2.74914 0.513127 0.207995
v -2.67827 1.54766 0.0285176
v -2.84676 2.85724 -0.269685
v -2.76728 3.48606 0.0401636
v -1.63951 -4.25222 0.366901
v -1.47747 -2.9371 0.40877
v -1.86483 -1.64608 0.376199
v -1.84658 -0.852971 0.298233
v -1.51613 0.596315 -0.090611
v -1.98676 1.64206 -0.265251
v -1.71053 2.67554 -0.107851
v -1.57769 3.60173 0.294956
v -0.215448 -4.33435 0.400489
v -0.566395 -2.90221 0.419967
v -0.525924 -1.76476 0.318513
v -0.818344 -0.794641 0.181628
v -0.59384 0.397796 -0.0119418
v -0.367551 1.42421 -0.0546991
v -0.577187 2.56513 0.139582
v -0.758123 3.39224 0.309902
v 0.755783 -3.90378 0.354285
v 0.832247 -2.62019 0.360428
v 0.542015 -1.83966 0.281794
v 0.625661 -0.541904 -0.0345161
v 0.595973 0.363056 -0.0213644
v 0.304719 1.4735 -0.0509205
v 0.524654 2.43419 0.0839467
v 0.551055 3.59488 0.358465
v 1.97129 -3.6614 0.304663
v 1.6956 -2.85736 0.418189
v 1.83632 -1.92883 0.393763
v 1.99155 -0.420137 0.14246
v 1.9883 0.236403 -0.0539871
v 1.83057 1.50044 -0.0769576
v 1.40861 2.77346 0.00110327
v 1.49331 3.51669 0.323552
v 2.81421 -3.93078 0.308635
v 3.11978 -2.84537 0.306044
v 2.96805 -1.96644 0.366647
v 2.72134 -0.505987 0.295611
v 2.9657 0.278375 0.169263
v 3.08089 1.55101 -0.0936499
v 2.76268 3.1154 -0.176502
v 2.74772 3.43439 0.019201
v 3.94042 -3.97365 0.334968
v 3.68188 -2.72012 0.305069
v 3.88822 -1.68154 0.302885
v 3.81859 -0.725351 0.314901
v 3.87189 0.28457 0.28207
v 4.15759 1.80062 0.150573
v 4.13461 2.7522 -0.0155264
v 4.02927 3.87155 -0.142828
vt 0.0001 0.0001
vt 0.9999 0.0001
vt 0.0001 0.9999
vt 0.9999 0.9999
vt 0.111189 0.0001
vt 0.222278 0.0001
vt 0.333367 0.0001
vt 0.444455 0.0001
vt 0.555544 0.0001
vt 0.666633 0.0001
vt 0.777722 0.0001
vt 0.888811 0.0001
vt 0.888811 0.9999
vt 0.777722 0.9999
vt 0.666633 0.9999
vt 0.555544 0.9999
vt 0.444455 0.9999
vt 0.333367 0.9999
vt 0.222278 0.9999
vt 0.111189 0.9999
vt 0.0001 0.888811
vt 0.0001 0.777722
vt 0.0001 0.666633
vt 0.0001 0.555544
vt 0.0001 0.444456
vt 0.0001 0.333367
vt 0.0001 0.222278
vt 0.0001 0.111189
vt 0.9999 0.111189
vt 0.9999 0.222278
vt 0.9999 0.333367
vt 0.9999 0.444456
vt 0.9999 0.555544
vt 0.9999 0.666633
vt 0.9999 0.777722
vt 0.9999 0.888811
vt 0.11727 0.115399
vt 0.120778 0.180369
vt 0.134636 0.309595
vt 0.088728 0.473895
vt 0.085886 0.575352
vt 0.086211 0.65375
vt 0.092207 0.78313
vt 0.106956 0.892282
vt 0.22987 0.102869
vt 0.221803 0.229552
vt 0.233521 0.288953
vt 0.225541 0.443179
vt 0.221596 0.556167
vt 0.227801 0.661237
vt 0.214896 0.795203
vt 0.22542 0.865181
vt 0.335524 0.082127
vt 0.351143 0.213907
vt 0.311934 0.342467
vt 0.313159 0.422214
vt 0.347791 0.572605
vt 0.301482 0.677733
vt 0.329031 0.783086
vt 0.344903 0.885466
vt 0.476837 0.074882
vt 0.441952 0.218774
vt 0.445749 0.333088
vt 0.416414 0.43099
vt 0.439746 0.552976
vt 0.463203 0.656843
vt 0.444252 0.77653
vt 0.426137 0.866051
vt 0.573419 0.117409
vt 0.581125 0.246686
vt 0.552512 0.326
vt 0.561075 0.459693
vt 0.558356 0.550596
vt 0.530299 0.662189
vt 0.553275 0.760113
vt 0.555478 0.888821
vt 0.694433 0.13996
vt 0.667048 0.221666
vt 0.681985 0.314267
vt 0.698218 0.467249
vt 0.696819 0.535952
vt 0.68253 0.662758
vt 0.642062 0.791726
vt 0.648523 0.877957
vt 0.778029 0.111667
vt 0.809426 0.219523
vt 0.794923 0.307783
vt 0.772028 0.454562
vt 0.796846 0.533374
vt 0.807262 0.663157
vt 0.778581 0.821037
vt 0.775122 0.858219
vt 0.890224 0.104741
vt 0.865679 0.23076
vt 0.887326 0.334104
vt 0.881307 0.429754
vt 0.887973 0.53063
vt 0.918106 0.681428
vt 0.915043 0.778027
vt 0.904815 0.89094
vn 0.114702 0.139915 0.983498
vn -0.0206639 0.0424155 0.998886
vn -0.0199858 -0.165613 0.985988
vn -0.00533547 -0.12252 0.992452
vn 0.0518808 0.0888927 0.994689
vn 0.0334382 0.115237 0.992775
vn 0.0158927 0.0948292 0.995367
vn -0.010377 0.0796951 0.996765
vn 0.00496375 0.0813903 0.99667
vn 0.0168713 0.095596 0.995277
vn 0.0173522 0.0814207 0.996529
vn 0.0133708 0.0224278 0.999659
vn 0.20136 -0.294333 0.93425
vn 0.138506 -0.213847 0.966998
vn -0.0336521 -0.00404923 0.999425
vn 0.0728812 0.01147 0.997275
vn 0.0329652 -0.137151 0.990001
vn -0.0210313 -0.240721 0.970366
vn -0.184114 -0.331143 0.925444
vn -0.247662 -0.391403 0.886266
vn 0.181011 0.0986317 0.978523
vn 0.0781936 0.0424672 0.996033
vn 0.0622831 0.0488444 0.996863
vn 0.0338651 0.0370561 0.998739
vn 0.0301321 0.0352462 0.998924
vn 0.0305278 0.0454617 0.9985
vn 0.0512421 0.0578011 0.997012
vn 0.0625423 0.104215 0.992586
vn -0.004614 0.0867627 0.996218
vn 0.0605304 0.0397791 0.997373
vn 0.103605 0.00375366 0.994611
vn 0.0952495 0.00909363 0.995412
vn 0.0448828 0.033447 0.998432
vn -0.0126703 0.0268973 0.999558
vn -0.119682 0.0844575 0.989213
vn -0.203022 0.0672815 0.97686
vn 0.0544779 0.109271 0.992518
vn 0.0412265 0.0721567 0.996541
vn 0.00679806 0.035112 0.99936
vn 0.00683416 0.0381839 0.999247
vn 0.0342491 0.0694915 0.996994
vn 0.0684627 0.0585942 0.995932
vn 0.147727 0.111932 0.982674
vn -0.0525834 -0.167226 0.984515
vn 0.0124642 0.0708859 0.997407
vn -0.0299776 0.0317776 0.999045
vn -0.0622322 0.0202088 0.997857
vn -0.0326772 0.0406443 0.998639
vn 0.110649 0.134046 0.984778
vn 0.189011 0.155062 0.969655
vn 0.0384415 -0.0448677 0.998253
vn -0.216967 -0.373072 0.902077
vn -0.0112083 0.0492045 0.998726
vn -0.0397007 0.0181943 0.999046
vn -0.00199818 0.0635972 0.997974
vn 0.0838055 0.14042 0.986539
vn 0.049172 0.174855 0.983366
vn 0.0433578 0.0540707 0.997595
vn -0.18079 -0.271303 0.945362
vn -0.0904937 -0.292005 0.952126
vn 0.000822383 0.0420635 0.999115
vn 0.0145646 0.0322433 0.999374
vn 0.0490359 0.130117 0.990285
vn 0.0753821 0.161524 0.983986
vn 0.00175911 0.0704086 0.997517
vn -0.0523679 -0.0471885 0.997512
vn -0.0932016 -0.188406 0.977659
vn -0.0843125 -0.233571 0.968677
vn 0.0193602 0.019972 0.999613
vn -0.0282076 0.0409882 0.998761
vn -0.00757478 0.148433 0.988893
vn -0.00484564 0.153469 0.988142
vn 0.0160623 0.0106169 0.999815
vn 0.00814673 -0.0361458 0.999313
vn 0.0598993 -0.156239 0.985901
vn 0.0579071 -0.17187 0.983416
vn 0.0374228 -0.00858263 0.999263
vn 0.0204653 -0.0383288 0.999056
vn -0.068817 0.111692 0.991357
vn -0.159464 0.230701 0.959869
vn -0.10219 0.149476 0.98347
vn 0.046199 -0.0084865 0.998896
vn 0.129599 -0.220199 0.966807
vn 0.0843427 -0.232365 0.968965
vn -0.00310591 0.0652599 0.997863
vn 0.0240705 -0.033123 0.999161
vn 0.0403219 -0.00258237 0.999183
vn -0.091156 0.158102 0.983206
vn -0.137825 0.170087 0.975743
vn -0.134721 0.118747 0.983742
vn 0.0916577 -0.185639 0.978334
vn 0.218312 -0.39097 0.894138
vn 0.00570725 0.0500573 0.99873
vn 0.0462924 -0.00568645 0.998912
vn 0.084594 -0.00317672 0.99641
vn 0.0372765 0.0360117 0.998656
vn -0.0415919 0.0819472 0.995768
vn -0.107041 0.098189 0.989394
vn -0.169738 0.101104 0.980289
vn 0.0541466 -0.165564 0.984712
f 100/100/100 4/4/4 13/13/13
f 44/44/44 3/3/3 21/21/21
f 44/44/44 19/19/19 20/20/20
f 60/60/60 19/19/19 52/52/52
f 60/60/60 17/17/17 18/18/18
f 76/76/76 17/17/17 68/68/68
f 84/84/84 16/16/16 76/76/76
f 84/84/84 14/14/14 15/15/15
f 100/100/100 14/14/14 92/92/92
f 11/11/11 93/93/93 85/85/85
f 93/93/93 86/86/86 85/85/85
f 94/94/94 87/87/87 86/86/86
f 87/87/87 96/96/96 88/88/88
f 96/96/96 89/89/89 88/88/88
f 97/97/97 90/90/90 89/89/89
f 90/90/90 99/99/99 91/91/91
f 91/91/91 100/100/100 92/92/92
f 10/10/10 85/85/85 77/77/77
f 77/77/77 86/86/86 78/78/78
f 78/78/78 87/87/87 79/79/79
f 79/79/79 88/88/88 80/80/80
f 88/88/88 81/81/81 80/80/80
f 81/81/81 90/90/90 82/82/82
f 82/82/82 91/91/91 83/83/83
f 91/91/91 84/84/84 83/83/83
f 10/10/10 69/69/69 9/9/9
f 69/69/69 78/78/78 70/70/70
f 70/70/70 79/79/79 71/71/71
f 79/79/79 72/72/72 71/71/71
f 72/72/72 81/81/81 73/73/73
f 73/73/73 82/82/82 74/74/74
f 82/82/82 75/75/75 74/74/74
f 83/83/83 76/76/76 75/75/75
f 9/9/9 61/61/61 8/8/8
f 69/69/69 62/62/62 61/61/61
f 62/62/62 71/71/71 63/63/63
f 63/63/63 72/72/72 64/64/64
f 72/72/72 65/65/65 64/64/64
f 65/65/65 74/74/74 66/66/66
f 66/66/66 75/75/75 67/67/67
f 67/67/67 76/76/76 68/68/68
f 8/8/8 53/53/53 7/7/7
f 53/53/53 62/62/62 54/54/54
f 54/54/54 63/63/63 55/55/55
f 55/55/55 64/64/64 56/56/56
f 64/64/64 57/57/57 56/56/56
f 57/57/57 66/66/66 58/58/58
f 58/58/58 67/67/67 59/59/59
f 59/59/59 68/68/68 60/60/60
f 6/6/6 53/53/53 45/45/45
f 45/45/45 54/54/54 46/46/46
f 54/54/54 47/47/47 46/46/46
f 55/55/55 48/48/48 47/47/47
f 56/56/56 49/49/49 48/48/48
f 49/49/49 58/58/58 50/50/50
f 58/58/58 51/51/51 50/50/50
f 59/59/59 52/52/52 51/51/51
f 6/6/6 37/37/37 5/5/5
f 45/45/45 38/38/38 37/37/37
f 46/46/46 39/39/39 38/38/38
f 39/39/39 48/48/48 40/40/40
f 40/40/40 49/49/49 41/41/41
f 41/41/41 50/50/50 42/42/42
f 50/50/50 43/43/43 42/42/42
f 51/51/51 44/44/44 43/43/43
f 5/5/5 28/28/28 1/1/1
f 28/28/28 38/38/38 27/27/27
f 27/27/27 39/39/39 26/26/26
f 26/26/26 40/40/40 25/25/25
f 40/40/40 24/24/24 25/25/25
f 41/41/41 23/23/23 24/24/24
f 23/23/23 43/43/43 22/22/22
f 43/43/43 21/21/21 22/22/22
f 2/2/2 93/93/93 12/12/12
f 93/93/93 30/30/30 94/94/94
f 30/30/30 95/95/95 94/94/94
f 31/31/31 96/96/96 95/95/95
f 32/32/32 97/97/97 96/96/96
f 33/33/33 98/98/98 97/97/97
f 98/98/98 35/35/35 99/99/99
f 99/99/99 36/36/36 100/100/100
f 100/100/100 36/36/36 4/4/4
f 44/44/44 20/20/20 3/3/3
f 44/44/44 52/52/52 19/19/19
f 60/60/60 18/18/18 19/19/19
f 60/60/60 68/68/68 17/17/17
f 76/76/76 16/16/16 17/17/17
f 84/84/84 15/15/15 16/16/16
f 84/84/84 92/92/92 14/14/14
f 100/100/100 13/13/13 14/14/14
f 11/11/11 12/12/12 93/93/93
f 93/93/93 94/94/94 86/86/86
f 94/94/94 95/95/95 87/87/87
f 87/87/87 95/95/95 96/96/96
f 96/96/96 97/97/97 89/89/89
f 97/97/97 98/98/98 90/90/90
f 90/90/90 98/98/98 99/99/99
f 91/91/91 99/99/99 100/100/100
f 10/10/10 11/11/11 85/85/85
f 77/77/77 85/85/85 86/86/86
f 78/78/78 86/86/86 87/87/87
f 79/79/79 87/87/87 88/88/88
f 88/88/88 89/89/89 81/81/81
f 81/81/81 89/89/89 90/90/90
f 82/82/82 90/90/90 91/91/91
f 91/91/91 92/92/92 84/84/84
f 10/10/10 77/77/77 69/69/69
f 69/69/69 77/77/77 78/78/78
f 70/70/70 78/78/78 79/79/79
f 79/79/79 80/80/80 72/72/72
f 72/72/72 80/80/80 81/81/81
f 73/73/73 81/81/81 82/82/82
f 82/82/82 83/83/83 75/75/75
f 83/83/83 84/84/84 76/76/76
f 9/9/9 69/69/69 61/61/61
f 69/69/69 70/70/70 62/62/62
f 62/62/62 70/70/70 71/71/71
f 63/63/63 71/71/71 72/72/72
f 72/72/72 73/73/73 65/65/65
f 65/65/65 73/73/73 74/74/74
f 66/66/66 74/74/74 75/75/75
f 67/67/67 75/75/75 76/76/76
f 8/8/8 61/61/61 53/53/53
f 53/53/53 61/61/61 62/62/62
f 54/54/54 62/62/62 63/63/63
f 55/55/55 63/63/63 64/64/64
f 64/64/64 65/65/65 57/57/57
f 57/57/57 65/65/65 66/66/66
f 58/58/58 66/66/66 67/67/67
f 59/59/59 67/67/67 68/68/68
f 6/6/6 7/7/7 53/53/53
f 45/45/45 53/53/53 54/54/54
f 54/54/54 55/55/55 47/47/47
f 55/55/55 56/56/56 48/48/48
f 56/56/56 57/57/57 49/49/49
f 49/49/49 57/57/57 58/58/58
f 58/58/58 59/59/59 51/51/51
f 59/59/59 60/60/60 52/52/52
f 6/6/6 45/45/45 37/37/37
f 45/45/45 46/46/46 38/38/38
f 46/46/46 47/47/47 39/39/39
f 39/39/39 47/47/47 48/48/48
f 40/40/40 48/48/48 49/49/49
f 41/41/41 49/49/49 50/50/50
f 50/50/50 51/51/51 43/43/43
f 51/51/51 52/52/52 44/44/44
f 5/5/5 37/37/37 28/28/28
f 28/28/28 37/37/37 38/38/38
f 27/27/27 38/38/38 39/39/39
f 26/26/26 39/39/39 40/40/40
f 40/40/40 41/41/41 24/24/24
f 41/41/41 42/42/42 23/23/23
f 23/23/23 42/42/42 43/43/43
f 43/43/43 44/44/44 21/21/21
f 2/2/2 29/29/29 93/93/93
f 93/93/93 29/29/29 30/30/30
f 30/30/30 31/31/31 95/95/95
f 31/31/31 32/32/32 96/96/96
f 32/32/32 33/33/33 97/97/97
f 33/33/33 34/34/34 98/98/98
f 98/98/98 34/34/34 35/35/35
f 99/99/99 35/35/35 36/36/36
