o GNATVCloth
v -4.9937 -5.01173 0.201174
v 5.17658 -5.01198 0.192799
v -5.01298 5.02105 0.004229
v 4.98702 5.02105 0.004229
v -3.87542 -5.06086 0.155531
v -2.75104 -5.11394 0.123304
v -1.61995 -5.15009 0.137066
v -0.482191 -5.18325 0.122771
v 0.658211 -5.19426 0.0740248
v 1.79656 -5.16687 0.0942057
v 2.92942 -5.11878 0.134159
v 4.05599 -5.06054 0.179071
v 3.85899 4.92324 0.119862
v 2.73946 4.83782 0.122651
v 1.62742 4.75377 0.165204
v 0.620973 4.7116 0.131549
v -0.455234 4.75384 0.102475
v -1.578 4.81255 0.169631
v -2.71306 4.88828 0.126798
v -3.8559 4.94669 0.0653794
v -4.96881 3.90447 0.038679
v -4.9549 2.78759 0.0778573
v -4.95143 1.67129 0.117859
v -4.94845 0.555109 0.149271
v -4.9521 -0.560543 0.15524
v -4.95846 -1.67553 0.160641
v -4.96511 -2.78874 0.155896
v -4.97428 -3.90133 0.143906
v 5.1484 -3.90019 0.169612
v 5.13666 -2.7884 0.119276
v 5.12 -1.67479 0.140035
v 5.10462 -0.559914 0.14097
v 5.08647 0.555454 0.140689
v 5.06314 1.67177 0.120393
v 5.03811 2.78811 0.0868861
v 5.01049 3.9046 0.0495841
v -3.79344 -3.9104 0.12129
v -3.75275 -3.26171 0.104259
v -3.60657 -1.97479 0.0772197
v -4.06449 -0.30812 0.0869583
v -4.09077 0.709252 0.0960668
v -4.08852 1.49425 0.103323
v -4.03194 2.78667 0.0797681
v -3.89067 3.87061 0.0527858
v -2.65533 -4.08769 0.107316
v -2.72944 -2.8174 0.105525
v -2.60941 -2.22811 0.0938362
v -2.68672 -0.682337 0.107884
v -2.72703 0.450107 0.0970303
v -2.66586 1.49843 0.0954811
v -2.79724 2.84552 0.0914992
v -2.69322 3.54112 0.106283
v -1.58417 -4.33418 0.0821929
v -1.42117 -3.02076 0.073413
v -1.81681 -1.72379 0.131129
v -1.80392 -0.923558 0.128364
v -1.45742 0.565036 0.0912191
v -1.92588 1.63198 0.0909612
v -1.65289 2.67656 0.0965153
v -1.48649 3.69244 0.0958116
v -0.14701 -4.44287 0.0930915
v -0.501134 -3.00054 0.0806153
v -0.464644 -1.85571 0.0983656
v -0.763841 -0.873771 0.0924623
v -0.534334 0.339889 0.0953767
v -0.303985 1.3725 0.099676
v -0.499504 2.57211 0.0946802
v -0.672334 3.46119 0.104781
v 0.834749 -4.01893 0.084316
v 0.90792 -2.72692 0.111729
v 0.614072 -1.93965 0.112
v 0.692745 -0.603016 0.0707989
v 0.657856 0.30481 0.101437
v 0.368823 1.41604 0.108598
v 0.593609 2.38984 0.103243
v 0.61464 3.62412 0.0948134
v 2.06234 -3.76025 0.118327
v 1.77909 -2.9582 0.0958109
v 1.92193 -2.02596 0.0892136
v 2.07387 -0.490306 0.118876
v 2.05399 0.192299 0.0860143
v 1.89228 1.44699 0.069003
v 1.47618 2.7144 0.113274
v 1.51241 3.53534 0.089254
v 2.91361 -4.00672 0.10436
v 3.21761 -2.91618 0.118877
v 3.06203 -2.04236 0.0761169
v 2.81806 -0.585877 0.102217
v 3.0564 0.214711 0.113145
v 3.14027 1.51558 0.0783551
v 2.81456 3.07014 0.0906828
v 2.768 3.42769 0.131311
v 4.04954 -4.02088 0.0750721
v 3.78377 -2.77615 0.126558
v 3.9886 -1.72961 0.119368
v 3.91963 -0.776091 0.0828269
v 3.97102 0.23815 0.100002
v 4.24343 1.76584 0.093318
v 4.19134 2.73073 0.0846965
v 4.05846 3.85496 0.0682589
vt 0.0001 0.0001
vt 0.9999 0.0001
vt 0.0001 0.9999
vt 0.9999 0.9999
vt 0.111189 0.0001
vt 0.222278 0.0001
vt 0.333367 0.0001
vt 0.444455 0.0001
vt 0.555544 0.0001
vt 0.666633 0.0001
vt 0.777722 0.0001
vt 0.888811 0.0001
vt 0.888811 0.9999
vt 0.777722 0.9999
vt 0.666633 0.9999
vt 0.555544 0.9999
vt 0.444455 0.9999
vt 0.333367 0.9999
vt 0.222278 0.9999
vt 0.111189 0.9999
vt 0.0001 0.888811
vt 0.0001 0.777722
vt 0.0001 0.666633
vt 0.0001 0.555544
vt 0.0001 0.444456
vt 0.0001 0.333367
vt 0.0001 0.222278
vt 0.0001 0.111189
vt 0.9999 0.111189
vt 0.9999 0.222278
vt 0.9999 0.333367
vt 0.9999 0.444456
vt 0.9999 0.555544
vt 0.9999 0.666633
vt 0.9999 0.777722
vt 0.9999 0.888811
vt 0.11727 0.115399
vt 0.120778 0.180369
vt 0.134636 0.309595
vt 0.088728 0.473895
vt 0.085886 0.575352
vt 0.086211 0.65375
vt 0.092207 0.78313
vt 0.106956 0.892282
vt 0.22987 0.102869
vt 0.221803 0.229552
vt 0.233521 0.288953
vt 0.225541 0.443179
vt 0.221596 0.556167
vt 0.227801 0.661237
vt 0.214896 0.795203
vt 0.22542 0.865181
vt 0.335524 0.082127
vt 0.351143 0.213907
vt 0.311934 0.342467
vt 0.313159 0.422214
vt 0.347791 0.572605
vt 0.301482 0.677733
vt 0.329031 0.783086
vt 0.344903 0.885466
vt 0.476837 0.074882
vt 0.441952 0.218774
vt 0.445749 0.333088
vt 0.416414 0.43099
vt 0.439746 0.552976
vt 0.463203 0.656843
vt 0.444252 0.77653
vt 0.426137 0.866051
vt 0.573419 0.117409
vt 0.581125 0.246686
vt 0.552512 0.326
vt 0.561075 0.459693
vt 0.558356 0.550596
vt 0.530299 0.662189
vt 0.553275 0.760113
vt 0.555478 0.888821
vt 0.694433 0.13996
vt 0.667048 0.221666
vt 0.681985 0.314267
vt 0.698218 0.467249
vt 0.696819 0.535952
vt 0.68253 0.662758
vt 0.642062 0.791726
vt 0.648523 0.877957
vt 0.778029 0.111667
vt 0.809426 0.219523
vt 0.794923 0.307783
vt 0.772028 0.454562
vt 0.796846 0.533374
vt 0.807262 0.663157
vt 0.778581 0.821037
vt 0.775122 0.858219
vt 0.890224 0.104741
vt 0.865679 0.23076
vt 0.887326 0.334104
vt 0.881307 0.429754
vt 0.887973 0.53063
vt 0.918106 0.681428
vt 0.915043 0.778027
vt 0.904815 0.89094
vn 0.0429521 0.0507086 0.997789
vn -0.0521872 0.0590698 0.996889
vn -0.0327812 0.0102026 0.99941
vn 0.0610155 0.0062197 0.998117
vn 0.0307544 0.0355637 0.998894
vn 0.0152338 0.0306278 0.999415
vn 0.00224584 0.0670031 0.99775
vn 0.0176632 0.0430579 0.998916
vn 0.0129777 0.00123742 0.999915
vn -0.017045 -0.00286544 0.999851
vn -0.0183528 0.050909 0.998535
vn -0.0306292 0.0992997 0.994586
vn 0.0553011 -0.0378704 0.997751
vn 0.0156887 -0.0252218 0.999559
vn 0.00613933 -0.0627897 0.998008
vn -0.0187833 -0.0422214 0.998932
vn 0.00644471 -0.0226913 0.999722
vn 0.00710239 -0.0651822 0.997848
vn -0.0337281 -0.0275356 0.999052
vn -0.0537897 -0.00994802 0.998503
vn -0.00880202 0.0306228 0.999492
vn -0.0020339 0.035418 0.999371
vn 0.0225417 0.0180278 0.999583
vn 0.0651139 0.00867611 0.99784
vn 0.0753586 0.00474413 0.997145
vn 0.0667417 0.00386308 0.997763
vn 0.0491311 -7.80826e-05 0.998792
vn 0.0299795 0.0232622 0.99928
vn -0.0890904 0.0313215 0.995531
vn -0.0243654 -0.00231723 0.9997
vn -0.0287154 0.00548042 0.999573
vn -0.0438142 -0.00547197 0.999025
vn -0.0356861 0.00954464 0.999317
vn -0.0303181 0.0234235 0.999266
vn -0.0125533 0.0237895 0.999638
vn 0.0104524 0.0303544 0.999485
vn 0.0198666 0.0240909 0.999512
vn 0.0182798 0.0130348 0.999748
vn 0.0163053 0.00659181 0.999845
vn 0.0350122 0.000469894 0.999387
vn 0.0229588 -0.00085359 0.999736
vn 0.0115836 0.0041919 0.999924
vn -0.00154443 0.0229922 0.999734
vn -0.0343231 0.00476115 0.999399
vn 0.0174387 0.0100666 0.999797
vn 0.00560185 0.0125758 0.999905
vn -0.0118312 -0.00678209 0.999907
vn -0.0221571 -0.00169395 0.999753
vn -0.00338196 0.00545104 0.999979
vn 0.00206016 0.00281184 0.999994
vn -0.0126146 -0.00105856 0.99992
vn -0.0171038 -0.0131791 0.999767
vn 0.00511501 0.0296427 0.999547
vn 0.00934166 -0.0105914 0.9999
vn 0.000437212 -0.0130088 0.999915
vn 0.00549656 0.0114125 0.99992
vn 0.00409839 0.00615128 0.999973
vn 0.000185691 -0.000246922 1
vn -0.00204101 -0.00656233 0.999976
vn 0.0021943 -0.0233819 0.999724
vn 0.00995164 0.0137218 0.999856
vn -0.010048 -0.00487386 0.999938
vn 0.00459704 -0.00222625 0.999987
vn 0.0196068 0.00614869 0.999789
vn -0.00313348 -0.00881619 0.999956
vn -0.00835796 0.00142312 0.999964
vn -0.00137152 -0.00219661 0.999997
vn -0.000630656 -0.00290401 0.999996
vn -0.0087641 -0.00637239 0.999941
vn 0.00219418 -0.00793771 0.999966
vn -0.00146319 0.00886692 0.99996
vn -0.00396699 0.00365433 0.999985
vn 0.00704077 -0.0119524 0.999904
vn 0.00393086 -0.000109773 0.999992
vn -0.00241515 -0.0015522 0.999996
vn -0.00291663 -0.00480543 0.999984
vn -0.0101172 -0.00179235 0.999947
vn -0.00365649 0.0120828 0.99992
vn 0.0093668 -0.00112609 0.999955
vn -0.00595162 0.0146612 0.999875
vn -0.00745134 0.0161439 0.999842
vn 0.0106374 -0.00620594 0.999924
vn 0.00593333 0.00065326 0.999982
vn -0.0061558 -0.030693 0.99951
vn 0.00755013 -0.000551618 0.999971
vn -0.00410655 0.0055861 0.999976
vn -0.0163825 0.0164818 0.99973
vn 0.0103433 -0.00456685 0.999936
vn -0.00232008 0.00261833 0.999994
vn -0.00817024 0.00932272 0.999923
vn 0.0108516 -0.0314482 0.999447
vn 0.013109 -0.0521056 0.998556
vn -0.0232988 0.0232655 0.999458
vn -0.0139426 -0.00297109 0.999898
vn -0.028492 0.014987 0.999482
vn -0.0184318 0.000535047 0.99983
vn -0.0181836 0.00196637 0.999833
vn -0.0223496 0.0137085 0.999656
vn 0.00100465 0.0125272 0.999921
vn 0.0405685 -0.0139016 0.99908
f 100/100/100 4/4/4 13/13/13
f 44/44/44 3/3/3 21/21/21
f 44/44/44 19/19/19 20/20/20
f 60/60/60 19/19/19 52/52/52
f 60/60/60 17/17/17 18/18/18
f 76/76/76 17/17/17 68/68/68
f 84/84/84 16/16/16 76/76/76
f 84/84/84 14/14/14 15/15/15
f 100/100/100 14/14/14 92/92/92
f 11/11/11 93/93/93 85/85/85
f 93/93/93 86/86/86 85/85/85
f 94/94/94 87/87/87 86/86/86
f 87/87/87 96/96/96 88/88/88
f 96/96/96 89/89/89 88/88/88
f 97/97/97 90/90/90 89/89/89
f 90/90/90 99/99/99 91/91/91
f 91/91/91 100/100/100 92/92/92
f 10/10/10 85/85/85 77/77/77
f 77/77/77 86/86/86 78/78/78
f 78/78/78 87/87/87 79/79/79
f 79/79/79 88/88/88 80/80/80
f 88/88/88 81/81/81 80/80/80
f 81/81/81 90/90/90 82/82/82
f 82/82/82 91/91/91 83/83/83
f 91/91/91 84/84/84 83/83/83
f 10/10/10 69/69/69 9/9/9
f 69/69/69 78/78/78 70/70/70
f 70/70/70 79/79/79 71/71/71
f 79/79/79 72/72/72 71/71/71
f 72/72/72 81/81/81 73/73/73
f 73/73/73 82/82/82 74/74/74
f 82/82/82 75/75/75 74/74/74
f 83/83/83 76/76/76 75/75/75
f 9/9/9 61/61/61 8/8/8
f 69/69/69 62/62/62 61/61/61
f 62/62/62 71/71/71 63/63/63
f 63/63/63 72/72/72 64/64/64
f 72/72/72 65/65/65 64/64/64
f 65/65/65 74/74/74 66/66/66
f 66/66/66 75/75/75 67/67/67
f 67/67/67 76/76/76 68/68/68
f 8/8/8 53/53/53 7/7/7
f 53/53/53 62/62/62 54/54/54
f 54/54/54 63/63/63 55/55/55
f 55/55/55 64/64/64 56/56/56
f 64/64/64 57/57/57 56/56/56
f 57/57/57 66/66/66 58/58/58
f 58/58/58 67/67/67 59/59/59
f 59/59/59 68/68/68 60/60/60
f 6/6/6 53/53/53 45/45/45
f 45/45/45 54/54/54 46/46/46
f 54/54/54 47/47/47 46/46/46
f 55/55/55 48/48/48 47/47/47
f 56/56/56 49/49/49 48/48/48
f 49/49/49 58/58/58 50/50/50
f 58/58/58 51/51/51 50/50/50
f 59/59/59 52/52/52 51/51/51
f 6/6/6 37/37/37 5/5/5
f 45/45/45 38/38/38 37/37/37
f 46/46/46 39/39/39 38/38/38
f 39/39/39 48/48/48 40/40/40
f 40/40/40 49/49/49 41/41/41
f 41/41/41 50/50/50 42/42/42
f 50/50/50 43/43/43 42/42/42
f 51/51/51 44/44/44 43/43/43
f 5/5/5 28/28/28 1/1/1
f 28/28/28 38/38/38 27/27/27
f 27/27/27 39/39/39 26/26/26
f 26/26/26 40/40/40 25/25/25
f 40/40/40 24/24/24 25/25/25
f 41/41/41 23/23/23 24/24/24
f 23/23/23 43/43/43 22/22/22
f 43/43/43 21/21/21 22/22/22
f 2/2/2 93/93/93 12/12/12
f 93/93/93 30/30/30 94/94/94
f 30/30/30 95/95/95 94/94/94
f 31/31/31 96/96/96 95/95/95
f 32/32/32 97/97/97 96/96/96
f 33/33/33 98/98/98 97/97/97
f 98/98/98 35/35/35 99/99/99
f 99/99/99 36/36/36 100/100/100
f 100/100/100 36/36/36 4/4/4
f 44/44/44 20/20/20 3/3/3
f 44/44/44 52/52/52 19/19/19
f 60/60/60 18/18/18 19/19/19
f 60/60/60 68/68/68 17/17/17
f 76/76/76 16/16/16 17/17/17
f 84/84/84 15/15/15 16/16/16
f 84/84/84 92/92/92 14/14/14
f 100/100/100 13/13/13 14/14/14
f 11/11/11 12/12/12 93/93/93
f 93/93/93 94/94/94 86/86/86
f 94/94/94 95/95/95 87/87/87
f 87/87/87 95/95/95 96/96/96
f 96/96/96 97/97/97 89/89/89
f 97/97/97 98/98/98 90/90/90
f 90/90/90 98/98/98 99/99/99
f 91/91/91 99/99/99 100/100/100
f 10/10/10 11/11/11 85/85/85
f 77/77/77 85/85/85 86/86/86
f 78/78/78 86/86/86 87/87/87
f 79/79/79 87/87/87 88/88/88
f 88/88/88 89/89/89 81/81/81
f 81/81/81 89/89/89 90/90/90
f 82/82/82 90/90/90 91/91/91
f 91/91/91 92/92/92 84/84/84
f 10/10/10 77/77/77 69/69/69
f 69/69/69 77/77/77 78/78/78
f 70/70/70 78/78/78 79/79/79
f 79/79/79 80/80/80 72/72/72
f 72/72/72 80/80/80 81/81/81
f 73/73/73 81/81/81 82/82/82
f 82/82/82 83/83/83 75/75/75
f 83/83/83 84/84/84 76/76/76
f 9/9/9 69/69/69 61/61/61
f 69/69/69 70/70/70 62/62/62
f 62/62/62 70/70/70 71/71/71
f 63/63/63 71/71/71 72/72/72
f 72/72/72 73/73/73 65/65/65
f 65/65/65 73/73/73 74/74/74
f 66/66/66 74/74/74 75/75/75
f 67/67/67 75/75/75 76/76/76
f 8/8/8 61/61/61 53/53/53
f 53/53/53 61/61/61 62/62/62
f 54/54/54 62/62/62 63/63/63
f 55/55/55 63/63/63 64/64/64
f 64/64/64 65/65/65 57/57/57
f 57/57/57 65/65/65 66/66/66
f 58/58/58 66/66/66 67/67/67
f 59/59/59 67/67/67 68/68/68
f 6/6/6 7/7/7 53/53/53
f 45/45/45 53/53/53 54/54/54
f 54/54/54 55/55/55 47/47/47
f 55/55/55 56/56/56 48/48/48
f 56/56/56 57/57/57 49/49/49
f 49/49/49 57/57/57 58/58/58
f 58/58/58 59/59/59 51/51/51
f 59/59/59 60/60/60 52/52/52
f 6/6/6 45/45/45 37/37/37
f 45/45/45 46/46/46 38/38/38
f 46/46/46 47/47/47 39/39/39
f 39/39/39 47/47/47 48/48/48
f 40/40/40 48/48/48 49/49/49
f 41/41/41 49/49/49 50/50/50
f 50/50/50 51/51/51 43/43/43
f 51/51/51 52/52/52 44/44/44
f 5/5/5 37/37/37 28/28/28
f 28/28/28 37/37/37 38/38/38
f 27/27/27 38/38/38 39/39/39
f 26/26/26 39/39/39 40/40/40
f 40/40/40 41/41/41 24/24/24
f 41/41/41 42/42/42 23/23/23
f 23/23/23 42/42/42 43/43/43
f 43/43/43 44/44/44 21/21/21
f 2/2/2 29/29/29 93/93/93
f 93/93/93 29/29/29 30/30/30
f 30/30/30 31/31/31 95/95/95
f 31/31/31 32/32/32 96/96/96
f 32/32/32 33/33/33 97/97/97
f 33/33/33 34/34/34 98/98/98
f 98/98/98 34/34/34 35/35/35
f 99/99/99 35/35/35 36/36/36
