o GNATVCloth
v -5.01996 -4.96859 0.626415
v 5.05266 -4.9915 0.367686
v -5.01298 5.02105 0.004229
v 4.98702 5.02105 0.004229
v -3.92582 -5.02071 0.427107
v -2.80598 -5.05922 0.443664
v -1.68144 -5.0854 0.427959
v -0.555323 -5.10136 0.402998
v 0.572311 -5.10497 0.359513
v 1.69802 -5.10045 0.348738
v 2.82054 -5.06429 0.362022
v 3.93991 -5.02675 0.325313
v 3.87697 4.87622 0.23188
v 2.77131 4.76473 0.435185
v 1.6486 4.73085 0.438676
v 0.530246 4.68917 0.485148
v -0.579126 4.65483 0.622244
v -1.68905 4.69876 0.500982
v -2.80935 4.73704 0.455906
v -3.90743 4.85018 0.231511
v -4.97282 3.90933 0.0993712
v -4.96258 2.79407 0.126199
v -4.96184 1.67948 0.151342
v -4.96283 0.565663 0.16496
v -4.96994 -0.546418 0.214456
v -4.97808 -1.65792 0.270339
v -4.99306 -2.76888 0.324964
v -5.01251 -3.87825 0.40544
v 5.02899 -3.88394 0.289152
v 5.01024 -2.77494 0.207166
v 4.9942 -1.66299 0.173448
v 4.97705 -0.550157 0.157332
v 4.96965 0.562795 0.146175
v 4.96661 1.67707 0.136206
v 4.9676 2.79224 0.125691
v 4.96144 3.90679 0.0715603
v -3.83724 -3.87221 0.41597
v -3.78992 -3.22333 0.37444
v -3.63335 -1.93762 0.263777
v -4.08095 -0.280272 0.204821
v -4.10563 0.73603 0.232868
v -4.09834 1.52089 0.178636
v -4.03873 2.80978 0.0879981
v -3.93642 3.86358 -0.196041
v -2.71164 -4.03923 0.355956
v -2.76999 -2.77278 0.264908
v -2.64384 -2.18228 0.281124
v -2.71052 -0.635639 0.252043
v -2.74356 0.496537 0.200122
v -2.68092 1.52914 0.0108827
v -2.86032 2.8339 -0.295762
v -2.76566 3.48755 -0.05122
v -1.65232 -4.27826 0.391777
v -1.48025 -2.96372 0.404391
v -1.8561 -1.66614 0.380081
v -1.83166 -0.876339 0.264672
v -1.53602 0.554476 -0.212189
v -2.01012 1.61062 -0.329369
v -1.73515 2.62863 -0.0927049
v -1.57473 3.60176 0.176599
v -0.226792 -4.36856 0.366984
v -0.574819 -2.94052 0.312885
v -0.527686 -1.81198 0.185358
v -0.832877 -0.858801 -0.036476
v -0.61015 0.340238 -0.267189
v -0.37784 1.37329 -0.256894
v -0.575877 2.53723 -0.0567738
v -0.756572 3.39547 0.161645
v 0.745793 -3.94788 0.320088
v 0.822392 -2.67066 0.262814
v 0.539234 -1.90404 0.0715273
v 0.622215 -0.587867 -0.138102
v 0.58513 0.320577 -0.196636
v 0.295902 1.43228 -0.186535
v 0.521472 2.38366 -0.0815333
v 0.545216 3.59786 0.307077
v 1.96141 -3.69426 0.312611
v 1.67839 -2.88947 0.397424
v 1.82439 -1.96535 0.30374
v 1.99208 -0.459737 0.0207953
v 1.98078 0.214963 -0.110768
v 1.82991 1.46864 -0.274467
v 1.40537 2.73072 -0.112862
v 1.47943 3.53139 0.186828
v 2.80461 -3.95012 0.296873
v 3.10419 -2.86012 0.306251
v 2.95509 -1.98571 0.408847
v 2.71407 -0.537898 0.212466
v 2.95507 0.257524 0.146316
v 3.07033 1.53962 -0.0740158
v 2.7662 3.10105 -0.227111
v 2.74046 3.43661 -0.0662489
v 3.93182 -3.98095 0.317329
v 3.66606 -2.72931 0.276138
v 3.87264 -1.68725 0.297275
v 3.80739 -0.731905 0.360642
v 3.85847 0.279585 0.307795
v 4.14804 1.79736 0.183374
v 4.12633 2.75062 0.0153124
v 4.03189 3.86525 -0.16407
vt 0.0001 0.0001
vt 0.9999 0.0001
vt 0.0001 0.9999
vt 0.9999 0.9999
vt 0.111189 0.0001
vt 0.222278 0.0001
vt 0.333367 0.0001
vt 0.444455 0.0001
vt 0.555544 0.0001
vt 0.666633 0.0001
vt 0.777722 0.0001
vt 0.888811 0.0001
vt 0.888811 0.9999
vt 0.777722 0.9999
vt 0.666633 0.9999
vt 0.555544 0.9999
vt 0.444455 0.9999
vt 0.333367 0.9999
vt 0.222278 0.9999
vt 0.111189 0.9999
vt 0.0001 0.888811
vt 0.0001 0.777722
vt 0.0001 0.666633
vt 0.0001 0.555544
vt 0.0001 0.444456
vt 0.0001 0.333367
vt 0.0001 0.222278
vt 0.0001 0.111189
vt 0.9999 0.111189
vt 0.9999 0.222278
vt 0.9999 0.333367
vt 0.9999 0.444456
vt 0.9999 0.555544
vt 0.9999 0.666633
vt 0.9999 0.777722
vt 0.9999 0.888811
vt 0.11727 0.115399
vt 0.120778 0.180369
vt 0.134636 0.309595
vt 0.088728 0.473895
vt 0.085886 0.575352
vt 0.086211 0.65375
vt 0.092207 0.78313
vt 0.106956 0.892282
vt 0.22987 0.102869
vt 0.221803 0.229552
vt 0.233521 0.288953
vt 0.225541 0.443179
vt 0.221596 0.556167
vt 0.227801 0.661237
vt 0.214896 0.795203
vt 0.22542 0.865181
vt 0.335524 0.082127
vt 0.351143 0.213907
vt 0.311934 0.342467
vt 0.313159 0.422214
vt 0.347791 0.572605
vt 0.301482 0.677733
vt 0.329031 0.783086
vt 0.344903 0.885466
vt 0.476837 0.074882
vt 0.441952 0.218774
vt 0.445749 0.333088
vt 0.416414 0.43099
vt 0.439746 0.552976
vt 0.463203 0.656843
vt 0.444252 0.77653
vt 0.426137 0.866051
vt 0.573419 0.117409
vt 0.581125 0.246686
vt 0.552512 0.326
vt 0.561075 0.459693
vt 0.558356 0.550596
vt 0.530299 0.662189
vt 0.553275 0.760113
vt 0.555478 0.888821
vt 0.694433 0.13996
vt 0.667048 0.221666
vt 0.681985 0.314267
vt 0.698218 0.467249
vt 0.696819 0.535952
vt 0.68253 0.662758
vt 0.642062 0.791726
vt 0.648523 0.877957
vt 0.778029 0.111667
vt 0.809426 0.219523
vt 0.794923 0.307783
vt 0.772028 0.454562
vt 0.796846 0.533374
vt 0.807262 0.663157
vt 0.778581 0.821037
vt 0.775122 0.858219
vt 0.890224 0.104741
vt 0.865679 0.23076
vt 0.887326 0.334104
vt 0.881307 0.429754
vt 0.887973 0.53063
vt 0.918106 0.681428
vt 0.915043 0.778027
vt 0.904815 0.89094
vn 0.184742 0.193995 0.96345
vn -0.00948874 0.0392661 0.999184
vn 0.0184127 -0.153809 0.987929
vn -0.00917357 -0.136659 0.990576
vn 0.0542176 0.0723247 0.995906
vn 0.0128486 0.0554393 0.998379
vn 0.0188712 0.0440945 0.998849
vn 0.0271003 0.0386308 0.998886
vn 0.0279412 0.0310301 0.999128
vn 0.00539976 0.0343393 0.999396
vn 0.000767318 0.0414168 0.999142
vn -0.00288761 0.00761201 0.999967
vn 0.216647 -0.32706 0.919835
vn 0.139889 -0.311464 0.939905
vn 0.0288731 -0.2093 0.977425
vn 0.0965314 -0.17626 0.979599
vn -0.027497 -0.282368 0.958912
vn -0.0818512 -0.290447 0.953384
vn -0.160852 -0.3562 0.920461
vn -0.232459 -0.380975 0.894886
vn 0.199963 0.114918 0.973041
vn 0.0409037 0.0234818 0.998887
vn -0.0194731 0.0437817 0.998851
vn -0.0524002 0.00915982 0.998584
vn -0.00335385 0.0473618 0.998872
vn 0.00794197 0.0460686 0.998907
vn -0.00225059 0.0694227 0.997585
vn 0.0384452 0.0858904 0.995563
vn 0.0191916 0.0725803 0.997178
vn 0.0578094 0.0299251 0.997879
vn 0.129646 -0.00322636 0.991555
vn 0.158185 0.0236406 0.987126
vn 0.109993 0.0254832 0.993606
vn 0.0588754 0.00922538 0.998223
vn -0.0703873 0.0757284 0.994641
vn -0.210234 0.0817629 0.974226
vn 0.0188313 0.0449553 0.998811
vn 0.0296019 0.072515 0.996928
vn 0.00422258 0.0393789 0.999215
vn -0.0139305 0.0215538 0.999671
vn 0.00292591 0.0450769 0.998979
vn 0.0492313 0.0680945 0.996463
vn 0.151851 0.128192 0.980055
vn -0.00929281 -0.140243 0.990073
vn 0.00902049 0.0605688 0.998123
vn -0.016485 0.0385124 0.999122
vn -0.0785697 -0.00206454 0.996906
vn -0.028805 0.0491155 0.998378
vn 0.159082 0.125492 0.979257
vn 0.241977 0.163196 0.956459
vn 0.0648467 -0.0101809 0.997843
vn -0.194299 -0.323819 0.925953
vn 0.0185755 0.0329366 0.999285
vn -0.000845306 0.0273646 0.999625
vn 0.0646674 0.103161 0.99256
vn 0.1794 0.165369 0.969778
vn 0.169671 0.165815 0.971451
vn 0.119924 0.0256299 0.992452
vn -0.122785 -0.242612 0.962322
vn -0.0965182 -0.298855 0.949405
vn 0.0286287 0.0376385 0.998881
vn 0.0542206 0.0804211 0.995285
vn 0.112797 0.156333 0.981243
vn 0.148526 0.208762 0.966622
vn -0.00597844 0.0640796 0.997927
vn -0.0416433 -0.0584614 0.997421
vn -0.0428948 -0.231061 0.971993
vn -0.0570434 -0.289336 0.955526
vn -0.00195045 0.0189054 0.999819
vn -0.0838029 0.127547 0.988286
vn -0.0228611 0.169469 0.98527
vn -0.0461791 0.155875 0.986697
vn -0.0337374 0.0457495 0.998383
vn -0.0288215 -0.0432112 0.99865
vn 0.0283626 -0.183022 0.9827
vn 0.0498584 -0.269995 0.96157
vn 0.0264459 -0.0287833 0.999236
vn -0.0334918 0.000683482 0.999439
vn -0.143096 0.157505 0.977096
vn -0.181711 0.193164 0.964193
vn -0.165591 0.144509 0.97555
vn -0.0114649 -0.00198669 0.999932
vn 0.121953 -0.24452 0.961945
vn 0.107657 -0.296615 0.94891
vn -0.00172361 0.0242209 0.999705
vn 0.0414766 -0.0441636 0.998163
vn 0.0178778 0.00536264 0.999826
vn -0.17368 0.149603 0.973373
vn -0.197371 0.140874 0.970154
vn -0.207138 0.128366 0.969854
vn 0.0261983 -0.149128 0.988471
vn 0.174303 -0.383194 0.907073
vn 0.0117874 0.0376652 0.999221
vn 0.072026 -0.0188825 0.997224
vn 0.108937 -0.031999 0.993533
vn 0.0258951 0.0343154 0.999076
vn -0.030235 0.0815698 0.996209
vn -0.070051 0.0902549 0.993452
vn -0.180342 0.120813 0.976156
vn 0.028423 -0.161396 0.98648
f 100/100/100 4/4/4 13/13/13
f 44/44/44 3/3/3 21/21/21
f 44/44/44 19/19/19 20/20/20
f 60/60/60 19/19/19 52/52/52
f 60/60/60 17/17/17 18/18/18
f 76/76/76 17/17/17 68/68/68
f 84/84/84 16/16/16 76/76/76
f 84/84/84 14/14/14 15/15/15
f 100/100/100 14/14/14 92/92/92
f 11/11/11 93/93/93 85/85/85
f 93/93/93 86/86/86 85/85/85
f 94/94/94 87/87/87 86/86/86
f 87/87/87 96/96/96 88/88/88
f 96/96/96 89/89/89 88/88/88
f 97/97/97 90/90/90 89/89/89
f 90/90/90 99/99/99 91/91/91
f 91/91/91 100/100/100 92/92/92
f 10/10/10 85/85/85 77/77/77
f 77/77/77 86/86/86 78/78/78
f 78/78/78 87/87/87 79/79/79
f 79/79/79 88/88/88 80/80/80
f 88/88/88 81/81/81 80/80/80
f 81/81/81 90/90/90 82/82/82
f 82/82/82 91/91/91 83/83/83
f 91/91/91 84/84/84 83/83/83
f 10/10/10 69/69/69 9/9/9
f 69/69/69 78/78/78 70/70/70
f 70/70/70 79/79/79 71/71/71
f 79/79/79 72/72/72 71/71/71
f 72/72/72 81/81/81 73/73/73
f 73/73/73 82/82/82 74/74/74
f 82/82/82 75/75/75 74/74/74
f 83/83/83 76/76/76 75/75/75
f 9/9/9 61/61/61 8/8/8
f 69/69/69 62/62/62 61/61/61
f 62/62/62 71/71/71 63/63/63
f 63/63/63 72/72/72 64/64/64
f 72/72/72 65/65/65 64/64/64
f 65/65/65 74/74/74 66/66/66
f 66/66/66 75/75/75 67/67/67
f 67/67/67 76/76/76 68/68/68
f 8/8/8 53/53/53 7/7/7
f 53/53/53 62/62/62 54/54/54
f 54/54/54 63/63/63 55/55/55
f 55/55/55 64/64/64 56/56/56
f 64/64/64 57/57/57 56/56/56
f 57/57/57 66/66/66 58/58/58
f 58/58/58 67/67/67 59/59/59
f 59/59/59 68/68/68 60/60/60
f 6/6/6 53/53/53 45/45/45
f 45/45/45 54/54/54 46/46/46
f 54/54/54 47/47/47 46/46/46
f 55/55/55 48/48/48 47/47/47
f 56/56/56 49/49/49 48/48/48
f 49/49/49 58/58/58 50/50/50
f 58/58/58 51/51/51 50/50/50
f 59/59/59 52/52/52 51/51/51
f 6/6/6 37/37/37 5/5/5
f 45/45/45 38/38/38 37/37/37
f 46/46/46 39/39/39 38/38/38
f 39/39/39 48/48/48 40/40/40
f 40/40/40 49/49/49 41/41/41
f 41/41/41 50/50/50 42/42/42
f 50/50/50 43/43/43 42/42/42
f 51/51/51 44/44/44 43/43/43
f 5/5/5 28/28/28 1/1/1
f 28/28/28 38/38/38 27/27/27
f 27/27/27 39/39/39 26/26/26
f 26/26/26 40/40/40 25/25/25
f 40/40/40 24/24/24 25/25/25
f 41/41/41 23/23/23 24/24/24
f 23/23/23 43/43/43 22/22/22
f 43/43/43 21/21/21 22/22/22
f 2/2/2 93/93/93 12/12/12
f 93/93/93 30/30/30 94/94/94
f 30/30/30 95/95/95 94/94/94
f 31/31/31 96/96/96 95/95/95
f 32/32/32 97/97/97 96/96/96
f 33/33/33 98/98/98 97/97/97
f 98/98/98 35/35/35 99/99/99
f 99/99/99 36/36/36 100/100/100
f 100/100/100 36/36/36 4/4/4
f 44/44/44 20/20/20 3/3/3
f 44/44/44 52/52/52 19/19/19
f 60/60/60 18/18/18 19/19/19
f 60/60/60 68/68/68 17/17/17
f 76/76/76 16/16/16 17/17/17
f 84/84/84 15/15/15 16/16/16
f 84/84/84 92/92/92 14/14/14
f 100/100/100 13/13/13 14/14/14
f 11/11/11 12/12/12 93/93/93
f 93/93/93 94/94/94 86/86/86
f 94/94/94 95/95/95 87/87/87
f 87/87/87 95/95/95 96/96/96
f 96/96/96 97/97/97 89/89/89
f 97/97/97 98/98/98 90/90/90
f 90/90/90 98/98/98 99/99/99
f 91/91/91 99/99/99 100/100/100
f 10/10/10 11/11/11 85/85/85
f 77/77/77 85/85/85 86/86/86
f 78/78/78 86/86/86 87/87/87
f 79/79/79 87/87/87 88/88/88
f 88/88/88 89/89/89 81/81/81
f 81/81/81 89/89/89 90/90/90
f 82/82/82 90/90/90 91/91/91
f 91/91/91 92/92/92 84/84/84
f 10/10/10 77/77/77 69/69/69
f 69/69/69 77/77/77 78/78/78
f 70/70/70 78/78/78 79/79/79
f 79/79/79 80/80/80 72/72/72
f 72/72/72 80/80/80 81/81/81
f 73/73/73 81/81/81 82/82/82
f 82/82/82 83/83/83 75/75/75
f 83/83/83 84/84/84 76/76/76
f 9/9/9 69/69/69 61/61/61
f 69/69/69 70/70/70 62/62/62
f 62/62/62 70/70/70 71/71/71
f 63/63/63 71/71/71 72/72/72
f 72/72/72 73/73/73 65/65/65
f 65/65/65 73/73/73 74/74/74
f 66/66/66 74/74/74 75/75/75
f 67/67/67 75/75/75 76/76/76
f 8/8/8 61/61/61 53/53/53
f 53/53/53 61/61/61 62/62/62
f 54/54/54 62/62/62 63/63/63
f 55/55/55 63/63/63 64/64/64
f 64/64/64 65/65/65 57/57/57
f 57/57/57 65/65/65 66/66/66
f 58/58/58 66/66/66 67/67/67
f 59/59/59 67/67/67 68/68/68
f 6/6/6 7/7/7 53/53/53
f 45/45/45 53/53/53 54/54/54
f 54/54/54 55/55/55 47/47/47
f 55/55/55 56/56/56 48/48/48
f 56/56/56 57/57/57 49/49/49
f 49/49/49 57/57/57 58/58/58
f 58/58/58 59/59/59 51/51/51
f 59/59/59 60/60/60 52/52/52
f 6/6/6 45/45/45 37/37/37
f 45/45/45 46/46/46 38/38/38
f 46/46/46 47/47/47 39/39/39
f 39/39/39 47/47/47 48/48/48
f 40/40/40 48/48/48 49/49/49
f 41/41/41 49/49/49 50/50/50
f 50/50/50 51/51/51 43/43/43
f 51/51/51 52/52/52 44/44/44
f 5/5/5 37/37/37 28/28/28
f 28/28/28 37/37/37 38/38/38
f 27/27/27 38/38/38 39/39/39
f 26/26/26 39/39/39 40/40/40
f 40/40/40 41/41/41 24/24/24
f 41/41/41 42/42/42 23/23/23
f 23/23/23 42/42/42 43/43/43
f 43/43/43 44/44/44 21/21/21
f 2/2/2 29/29/29 93/93/93
f 93/93/93 29/29/29 30/30/30
f 30/30/30 31/31/31 95/95/95
f 31/31/31 32/32/32 96/96/96
f 32/32/32 33/33/33 97/97/97
f 33/33/33 34/34/34 98/98/98
f 98/98/98 34/34/34 35/35/35
f 99/99/99 35/35/35 36/36/36
