o GNATVCloth
v -4.92025 -4.98647 0.368121
v 5.12416 -4.98556 0.400085
v -5.01298 5.02105 0.004229
v 4.98702 5.02105 0.004229
v -3.80802 -5.00041 0.322711
v -2.69208 -4.99856 0.304759
v -1.57695 -5.00531 0.224825
v -0.458366 -5.00449 0.214686
v 0.661801 -5.01066 0.243267
v 1.78182 -5.01165 0.251103
v 2.89985 -5.0115 0.22222
v 4.01597 -5.00514 0.28174
v 3.87024 4.94873 0.0787528
v 2.77861 4.88707 0.223749
v 1.67299 4.83879 0.34022
v 0.592945 4.82922 0.299529
v -0.525098 4.8625 0.268157
v -1.63694 4.8914 0.1737
v -2.75753 4.93656 0.148241
v -3.87921 4.97618 0.066335
v -4.99022 3.90642 0.0454168
v -4.97121 2.79159 0.0684974
v -4.95942 1.67743 0.0954578
v -4.94608 0.564531 0.139481
v -4.93238 -0.547065 0.194145
v -4.92336 -1.65788 0.257584
v -4.9153 -2.76666 0.347762
v -4.91632 -3.8763 0.38273
v 5.1169 -3.87678 0.31067
v 5.1058 -2.76511 0.302871
v 5.09389 -1.65383 0.247612
v 5.08326 -0.544347 0.164268
v 5.06756 0.569458 0.110969
v 5.05139 1.68153 0.0771279
v 5.03715 2.79408 0.0539446
v 5.01773 3.90748 0.0297251
v -3.74616 -3.84671 0.281536
v -3.70879 -3.19974 0.276948
v -3.57801 -1.91288 0.173042
v -4.04891 -0.263699 0.155542
v -4.08936 0.750221 0.159245
v -4.09471 1.53204 0.129359
v -4.04843 2.82625 0.0926738
v -3.91763 3.90899 -0.0257648
v -2.61659 -3.9831 0.226361
v -2.70044 -2.71736 0.174239
v -2.58463 -2.12364 0.148566
v -2.6795 -0.582827 0.269839
v -2.72933 0.546672 0.263153
v -2.67694 1.59433 0.202075
v -2.81551 2.91992 -0.00285953
v -2.74559 3.59327 0.192866
v -1.55548 -4.19214 0.234588
v -1.40386 -2.87659 0.21859
v -1.80775 -1.59549 0.296217
v -1.79949 -0.80007 0.265435
v -1.46679 0.695428 0.165992
v -1.94313 1.74716 0.130136
v -1.69496 2.78345 0.261918
v -1.54025 3.77722 0.220106
v -0.134899 -4.27285 0.211355
v -0.492615 -2.83177 0.22027
v -0.461899 -1.69255 0.248091
v -0.765189 -0.713574 0.208251
v -0.541793 0.497339 0.197879
v -0.321634 1.53461 0.233544
v -0.530772 2.73071 0.260696
v -0.721587 3.57995 0.226476
v 0.834111 -3.85198 0.238187
v 0.903072 -2.56008 0.193855
v 0.610945 -1.76893 0.213108
v 0.686707 -0.431398 0.205638
v 0.648436 0.474259 0.220414
v 0.351871 1.58606 0.228811
v 0.56927 2.56365 0.23074
v 0.582476 3.7936 0.21978
v 2.04997 -3.61733 0.220365
v 1.76797 -2.80548 0.198239
v 1.91215 -1.88368 0.240742
v 2.06216 -0.352295 0.212462
v 2.03814 0.327948 0.197413
v 1.87786 1.59585 0.161441
v 1.46121 2.87106 0.264067
v 1.51939 3.68046 0.210297
v 2.89327 -3.89843 0.219451
v 3.19656 -2.82098 0.273893
v 3.04621 -1.94278 0.181996
v 2.80271 -0.479173 0.274541
v 3.04072 0.309087 0.246698
v 3.13057 1.60108 0.170577
v 2.8297 3.16379 0.187523
v 2.7916 3.52068 0.24037
v 4.02147 -3.96025 0.237755
v 3.7593 -2.70595 0.304336
v 3.9661 -1.67249 0.266818
v 3.89857 -0.719034 0.201335
v 3.95318 0.291086 0.193484
v 4.23841 1.80503 0.140363
v 4.19908 2.77054 0.0851283
v 4.06876 3.88442 0.0314089
vt 0.0001 0.0001
vt 0.9999 0.0001
vt 0.0001 0.9999
vt 0.9999 0.9999
vt 0.111189 0.0001
vt 0.222278 0.0001
vt 0.333367 0.0001
vt 0.444455 0.0001
vt 0.555544 0.0001
vt 0.666633 0.0001
vt 0.777722 0.0001
vt 0.888811 0.0001
vt 0.888811 0.9999
vt 0.777722 0.9999
vt 0.666633 0.9999
vt 0.555544 0.9999
vt 0.444455 0.9999
vt 0.333367 0.9999
vt 0.222278 0.9999
vt 0.111189 0.9999
vt 0.0001 0.888811
vt 0.0001 0.777722
vt 0.0001 0.666633
vt 0.0001 0.555544
vt 0.0001 0.444456
vt 0.0001 0.333367
vt 0.0001 0.222278
vt 0.0001 0.111189
vt 0.9999 0.111189
vt 0.9999 0.222278
vt 0.9999 0.333367
vt 0.9999 0.444456
vt 0.9999 0.555544
vt 0.9999 0.666633
vt 0.9999 0.777722
vt 0.9999 0.888811
vt 0.11727 0.115399
vt 0.120778 0.180369
vt 0.134636 0.309595
vt 0.088728 0.473895
vt 0.085886 0.575352
vt 0.086211 0.65375
vt 0.092207 0.78313
vt 0.106956 0.892282
vt 0.22987 0.102869
vt 0.221803 0.229552
vt 0.233521 0.288953
vt 0.225541 0.443179
vt 0.221596 0.556167
vt 0.227801 0.661237
vt 0.214896 0.795203
vt 0.22542 0.865181
vt 0.335524 0.082127
vt 0.351143 0.213907
vt 0.311934 0.342467
vt 0.313159 0.422214
vt 0.347791 0.572605
vt 0.301482 0.677733
vt 0.329031 0.783086
vt 0.344903 0.885466
vt 0.476837 0.074882
vt 0.441952 0.218774
vt 0.445749 0.333088
vt 0.416414 0.43099
vt 0.439746 0.552976
vt 0.463203 0.656843
vt 0.444252 0.77653
vt 0.426137 0.866051
vt 0.573419 0.117409
vt 0.581125 0.246686
vt 0.552512 0.326
vt 0.561075 0.459693
vt 0.558356 0.550596
vt 0.530299 0.662189
vt 0.553275 0.760113
vt 0.555478 0.888821
vt 0.694433 0.13996
vt 0.667048 0.221666
vt 0.681985 0.314267
vt 0.698218 0.467249
vt 0.696819 0.535952
vt 0.68253 0.662758
vt 0.642062 0.791726
vt 0.648523 0.877957
vt 0.778029 0.111667
vt 0.809426 0.219523
vt 0.794923 0.307783
vt 0.772028 0.454562
vt 0.796846 0.533374
vt 0.807262 0.663157
vt 0.778581 0.821037
vt 0.775122 0.858219
vt 0.890224 0.104741
vt 0.865679 0.23076
vt 0.887326 0.334104
vt 0.881307 0.429754
vt 0.887973 0.53063
vt 0.918106 0.681428
vt 0.915043 0.778027
vt 0.904815 0.89094
vn 0.0406231 -0.0132912 0.999086
vn -0.089571 0.0610599 0.994107
vn 0.00415093 -0.0228755 0.99973
vn 0.0349333 -0.00432397 0.99938
vn 0.0473575 0.0175052 0.998725
vn 0.0380781 0.0425398 0.998369
vn 0.0402595 -0.0130579 0.999104
vn -4.71558e-05 0.000310409 1
vn -0.0213441 0.0100992 0.999721
vn 0.00939055 0.0121365 0.999882
vn -0.0145803 0.0157811 0.999769
vn -0.0801675 0.0423438 0.995882
vn 0.100705 -0.0254582 0.994591
vn 0.0947912 -0.0298632 0.995049
vn 0.0365253 -0.116174 0.992557
vn -0.0219757 -0.0866331 0.995998
vn -0.029612 -0.026667 0.999206
vn -0.0524318 0.0370147 0.997938
vn -0.0750843 0.00522159 0.997164
vn -0.0666532 -0.0834081 0.994284
vn 0.03498 0.0531129 0.997976
vn -0.0270125 0.0220639 0.999392
vn -0.0313946 0.0326302 0.998974
vn -0.0086177 0.0280292 0.99957
vn 0.0265143 0.053322 0.998225
vn 0.0571932 0.0562563 0.996777
vn 0.0772577 0.0614958 0.995113
vn 0.0704859 0.0127852 0.997431
vn -0.0696204 0.0430464 0.996644
vn -0.0123431 0.00967317 0.999877
vn 0.0173807 0.0648514 0.997744
vn 0.0374128 0.0432864 0.998362
vn 0.0707663 0.0340723 0.996911
vn 0.0815445 0.0266542 0.996313
vn 0.0509675 0.0342422 0.998113
vn 0.0127905 0.031185 0.999432
vn 0.0588717 0.02896 0.997845
vn 0.0724839 0.0382305 0.996637
vn 0.0358878 0.0288858 0.998938
vn -0.0210356 0.0162678 0.999646
vn -0.0472393 0.027517 0.998505
vn -0.0430858 0.0338641 0.998497
vn 0.00837122 0.0664172 0.997757
vn -0.0505804 -0.0208932 0.998501
vn 0.0264851 0.0419592 0.998768
vn 0.0240949 0.0489754 0.998509
vn -0.0478623 -0.0353904 0.998227
vn -0.0450342 -0.0218624 0.998746
vn 0.000831641 0.0333099 0.999445
vn 0.00699658 0.0838052 0.996458
vn -0.0913765 -0.0243366 0.995519
vn -0.147288 -0.0777602 0.986032
vn 0.0160894 0.0101164 0.999819
vn -0.022176 -0.0085538 0.999718
vn -0.018844 -0.0175349 0.999669
vn 0.0388725 0.0376928 0.998533
vn 0.00933641 0.0275153 0.999578
vn -0.0222112 0.00825643 0.999719
vn -0.0873286 -0.0520404 0.994819
vn -0.0291664 0.0275319 0.999195
vn -0.00943597 0.00166421 0.999954
vn 0.00797277 -0.00481184 0.999957
vn 0.0214834 -0.000761271 0.999769
vn 0.0175132 0.0346486 0.999246
vn -0.0166444 -0.0115371 0.999795
vn -0.0215966 -0.0189044 0.999588
vn -0.00305713 -0.0147917 0.999886
vn -0.000113716 0.0116571 0.999932
vn -0.0035161 0.0172427 0.999845
vn -0.000496601 -0.00501747 0.999987
vn 0.00818786 -0.0128395 0.999884
vn -0.00125522 0.00825755 0.999965
vn 0.00806966 -0.00208155 0.999965
vn 0.017245 -0.0120621 0.999779
vn 0.00921728 -0.0164959 0.999821
vn -0.00203046 -0.00922489 0.999955
vn -0.0079348 0.00665189 0.999946
vn -0.0099341 0.0119301 0.999879
vn -0.00709466 -0.019054 0.999793
vn -0.0429245 0.0215933 0.998845
vn -0.0221807 0.0279572 0.999363
vn 0.0218647 -0.014655 0.999654
vn 0.0158652 -0.000679712 0.999874
vn 0.00996995 -0.0458084 0.9989
vn -0.0030848 -0.0132231 0.999908
vn -0.0419752 0.00708109 0.999094
vn -0.0271675 0.0204318 0.999422
vn -0.00569548 7.21114e-05 0.999984
vn 0.0182938 0.0371077 0.999144
vn 0.0158018 0.0320916 0.99936
vn 0.0606176 -0.0314171 0.997667
vn 0.0725242 -0.0626955 0.995394
vn -0.0471818 0.0016307 0.998885
vn -0.0442962 0.0140709 0.998919
vn -0.036674 0.054769 0.997825
vn 0.0200411 0.02522 0.999481
vn 0.0499241 0.0278499 0.998365
vn 0.0508625 0.0371406 0.998015
vn 0.0426997 0.0415749 0.998223
vn 0.0927127 -0.0044406 0.995683
f 100/100/100 4/4/4 13/13/13
f 44/44/44 3/3/3 21/21/21
f 44/44/44 19/19/19 20/20/20
f 60/60/60 19/19/19 52/52/52
f 60/60/60 17/17/17 18/18/18
f 76/76/76 17/17/17 68/68/68
f 84/84/84 16/16/16 76/76/76
f 84/84/84 14/14/14 15/15/15
f 100/100/100 14/14/14 92/92/92
f 11/11/11 93/93/93 85/85/85
f 93/93/93 86/86/86 85/85/85
f 94/94/94 87/87/87 86/86/86
f 87/87/87 96/96/96 88/88/88
f 96/96/96 89/89/89 88/88/88
f 97/97/97 90/90/90 89/89/89
f 90/90/90 99/99/99 91/91/91
f 91/91/91 100/100/100 92/92/92
f 10/10/10 85/85/85 77/77/77
f 77/77/77 86/86/86 78/78/78
f 78/78/78 87/87/87 79/79/79
f 79/79/79 88/88/88 80/80/80
f 88/88/88 81/81/81 80/80/80
f 81/81/81 90/90/90 82/82/82
f 82/82/82 91/91/91 83/83/83
f 91/91/91 84/84/84 83/83/83
f 10/10/10 69/69/69 9/9/9
f 69/69/69 78/78/78 70/70/70
f 70/70/70 79/79/79 71/71/71
f 79/79/79 72/72/72 71/71/71
f 72/72/72 81/81/81 73/73/73
f 73/73/73 82/82/82 74/74/74
f 82/82/82 75/75/75 74/74/74
f 83/83/83 76/76/76 75/75/75
f 9/9/9 61/61/61 8/8/8
f 69/69/69 62/62/62 61/61/61
f 62/62/62 71/71/71 63/63/63
f 63/63/63 72/72/72 64/64/64
f 72/72/72 65/65/65 64/64/64
f 65/65/65 74/74/74 66/66/66
f 66/66/66 75/75/75 67/67/67
f 67/67/67 76/76/76 68/68/68
f 8/8/8 53/53/53 7/7/7
f 53/53/53 62/62/62 54/54/54
f 54/54/54 63/63/63 55/55/55
f 55/55/55 64/64/64 56/56/56
f 64/64/64 57/57/57 56/56/56
f 57/57/57 66/66/66 58/58/58
f 58/58/58 67/67/67 59/59/59
f 59/59/59 68/68/68 60/60/60
f 6/6/6 53/53/53 45/45/45
f 45/45/45 54/54/54 46/46/46
f 54/54/54 47/47/47 46/46/46
f 55/55/55 48/48/48 47/47/47
f 56/56/56 49/49/49 48/48/48
f 49/49/49 58/58/58 50/50/50
f 58/58/58 51/51/51 50/50/50
f 59/59/59 52/52/52 51/51/51
f 6/6/6 37/37/37 5/5/5
f 45/45/45 38/38/38 37/37/37
f 46/46/46 39/39/39 38/38/38
f 39/39/39 48/48/48 40/40/40
f 40/40/40 49/49/49 41/41/41
f 41/41/41 50/50/50 42/42/42
f 50/50/50 43/43/43 42/42/42
f 51/51/51 44/44/44 43/43/43
f 5/5/5 28/28/28 1/1/1
f 28/28/28 38/38/38 27/27/27
f 27/27/27 39/39/39 26/26/26
f 26/26/26 40/40/40 25/25/25
f 40/40/40 24/24/24 25/25/25
f 41/41/41 23/23/23 24/24/24
f 23/23/23 43/43/43 22/22/22
f 43/43/43 21/21/21 22/22/22
f 2/2/2 93/93/93 12/12/12
f 93/93/93 30/30/30 94/94/94
f 30/30/30 95/95/95 94/94/94
f 31/31/31 96/96/96 95/95/95
f 32/32/32 97/97/97 96/96/96
f 33/33/33 98/98/98 97/97/97
f 98/98/98 35/35/35 99/99/99
f 99/99/99 36/36/36 100/100/100
f 100/100/100 36/36/36 4/4/4
f 44/44/44 20/20/20 3/3/3
f 44/44/44 52/52/52 19/19/19
f 60/60/60 18/18/18 19/19/19
f 60/60/60 68/68/68 17/17/17
f 76/76/76 16/16/16 17/17/17
f 84/84/84 15/15/15 16/16/16
f 84/84/84 92/92/92 14/14/14
f 100/100/100 13/13/13 14/14/14
f 11/11/11 12/12/12 93/93/93
f 93/93/93 94/94/94 86/86/86
f 94/94/94 95/95/95 87/87/87
f 87/87/87 95/95/95 96/96/96
f 96/96/96 97/97/97 89/89/89
f 97/97/97 98/98/98 90/90/90
f 90/90/90 98/98/98 99/99/99
f 91/91/91 99/99/99 100/100/100
f 10/10/10 11/11/11 85/85/85
f 77/77/77 85/85/85 86/86/86
f 78/78/78 86/86/86 87/87/87
f 79/79/79 87/87/87 88/88/88
f 88/88/88 89/89/89 81/81/81
f 81/81/81 89/89/89 90/90/90
f 82/82/82 90/90/90 91/91/91
f 91/91/91 92/92/92 84/84/84
f 10/10/10 77/77/77 69/69/69
f 69/69/69 77/77/77 78/78/78
f 70/70/70 78/78/78 79/79/79
f 79/79/79 80/80/80 72/72/72
f 72/72/72 80/80/80 81/81/81
f 73/73/73 81/81/81 82/82/82
f 82/82/82 83/83/83 75/75/75
f 83/83/83 84/84/84 76/76/76
f 9/9/9 69/69/69 61/61/61
f 69/69/69 70/70/70 62/62/62
f 62/62/62 70/70/70 71/71/71
f 63/63/63 71/71/71 72/72/72
f 72/72/72 73/73/73 65/65/65
f 65/65/65 73/73/73 74/74/74
f 66/66/66 74/74/74 75/75/75
f 67/67/67 75/75/75 76/76/76
f 8/8/8 61/61/61 53/53/53
f 53/53/53 61/61/61 62/62/62
f 54/54/54 62/62/62 63/63/63
f 55/55/55 63/63/63 64/64/64
f 64/64/64 65/65/65 57/57/57
f 57/57/57 65/65/65 66/66/66
f 58/58/58 66/66/66 67/67/67
f 59/59/59 67/67/67 68/68/68
f 6/6/6 7/7/7 53/53/53
f 45/45/45 53/53/53 54/54/54
f 54/54/54 55/55/55 47/47/47
f 55/55/55 56/56/56 48/48/48
f 56/56/56 57/57/57 49/49/49
f 49/49/49 57/57/57 58/58/58
f 58/58/58 59/59/59 51/51/51
f 59/59/59 60/60/60 52/52/52
f 6/6/6 45/45/45 37/37/37
f 45/45/45 46/46/46 38/38/38
f 46/46/46 47/47/47 39/39/39
f 39/39/39 47/47/47 48/48/48
f 40/40/40 48/48/48 49/49/49
f 41/41/41 49/49/49 50/50/50
f 50/50/50 51/51/51 43/43/43
f 51/51/51 52/52/52 44/44/44
f 5/5/5 37/37/37 28/28/28
f 28/28/28 37/37/37 38/38/38
f 27/27/27 38/38/38 39/39/39
f 26/26/26 39/39/39 40/40/40
f 40/40/40 41/41/41 24/24/24
f 41/41/41 42/42/42 23/23/23
f 23/23/23 42/42/42 43/43/43
f 43/43/43 44/44/44 21/21/21
f 2/2/2 29/29/29 93/93/93
f 93/93/93 29/29/29 30/30/30
f 30/30/30 31/31/31 95/95/95
f 31/31/31 32/32/32 96/96/96
f 32/32/32 33/33/33 97/97/97
f 33/33/33 34/34/34 98/98/98
f 98/98/98 34/34/34 35/35/35
f 99/99/99 35/35/35 36/36/36
