o GNATVCloth
v -4.93709 -4.98409 0.393197
v 5.08072 -4.98135 0.422005
v -5.01298 5.02105 0.004229
v 4.98702 5.02105 0.004229
v -3.82644 -4.99262 0.352994
v -2.71401 -4.99361 0.330228
v -1.60341 -4.9919 0.244352
v -0.489287 -5.00029 0.236195
v 0.627146 -5.00528 0.257267
v 1.7433 -5.00502 0.278631
v 2.85927 -5.0068 0.241383
v 3.97422 -4.99521 0.295673
v 3.87028 4.96495 0.0990121
v 2.78962 4.8921 0.233794
v 1.68013 4.86267 0.371579
v 0.559345 4.87645 0.327994
v -0.552515 4.87311 0.284702
v -1.64678 4.91044 0.183154
v -2.76611 4.94392 0.16539
v -3.88389 4.97874 0.0593893
v -4.99215 3.90732 0.0538881
v -4.97305 2.79308 0.0739742
v -4.95955 1.67975 0.0988831
v -4.95128 0.567012 0.137139
v -4.9431 -0.544507 0.200256
v -4.93568 -1.6557 0.256823
v -4.92804 -2.76202 0.368025
v -4.92576 -3.87443 0.424172
v 5.0791 -3.87232 0.337577
v 5.07785 -2.76045 0.323248
v 5.07385 -1.65068 0.248302
v 5.06324 -0.541733 0.159617
v 5.05305 0.569491 0.107174
v 5.04238 1.68213 0.0792625
v 5.03199 2.79513 0.0586085
v 5.01076 3.90799 0.0322559
v -3.75804 -3.8423 0.314842
v -3.72102 -3.19328 0.306041
v -3.5898 -1.90848 0.175858
v -4.05895 -0.259099 0.146874
v -4.09443 0.757069 0.162637
v -4.09611 1.54113 0.133867
v -4.05099 2.83392 0.108461
v -3.92193 3.91151 -0.0576992
v -2.63395 -3.97172 0.249806
v -2.71259 -2.7139 0.184604
v -2.59602 -2.12132 0.18084
v -2.69302 -0.582112 0.291372
v -2.73971 0.550123 0.287578
v -2.67962 1.60018 0.216751
v -2.82089 2.92091 -0.0128749
v -2.75545 3.59441 0.180821
v -1.57715 -4.19177 0.257643
v -1.41684 -2.87835 0.241289
v -1.8204 -1.59533 0.321997
v -1.81289 -0.798428 0.292118
v -1.47825 0.690107 0.174173
v -1.94961 1.73676 0.108104
v -1.70702 2.76981 0.276407
v -1.55343 3.76269 0.230117
v -0.160095 -4.26459 0.240553
v -0.506859 -2.83524 0.249923
v -0.474607 -1.69259 0.271552
v -0.778847 -0.727255 0.23014
v -0.555917 0.4932 0.21354
v -0.332626 1.52582 0.254661
v -0.542725 2.71281 0.297363
v -0.735373 3.56819 0.247703
v 0.809362 -3.8415 0.263296
v 0.887085 -2.5551 0.209272
v 0.596286 -1.7612 0.235155
v 0.669694 -0.438103 0.232385
v 0.632675 0.466519 0.241665
v 0.340538 1.58251 0.248663
v 0.5584 2.56291 0.253825
v 0.565516 3.79407 0.244359
v 2.02221 -3.61779 0.237293
v 1.74816 -2.80589 0.218536
v 1.89568 -1.88252 0.264121
v 2.04411 -0.358266 0.231322
v 2.02335 0.328253 0.222195
v 1.86523 1.58836 0.18369
v 1.44984 2.86907 0.282363
v 1.50077 3.71268 0.230232
v 2.85999 -3.89426 0.24369
v 3.17174 -2.81416 0.292184
v 3.02715 -1.93511 0.219989
v 2.78309 -0.475019 0.292211
v 3.02532 0.31642 0.263602
v 3.11747 1.61367 0.183614
v 2.81458 3.17365 0.208742
v 2.77847 3.53909 0.234622
v 3.98337 -3.94963 0.272241
v 3.73372 -2.69312 0.328265
v 3.9469 -1.6583 0.282864
v 3.87797 -0.705457 0.22021
v 3.93728 0.303733 0.206868
v 4.22773 1.81249 0.143898
v 4.17992 2.7693 0.078825
v 4.0614 3.8914 0.0144045
vt 0.0001 0.0001
vt 0.9999 0.0001
vt 0.0001 0.9999
vt 0.9999 0.9999
vt 0.111189 0.0001
vt 0.222278 0.0001
vt 0.333367 0.0001
vt 0.444455 0.0001
vt 0.555544 0.0001
vt 0.666633 0.0001
vt 0.777722 0.0001
vt 0.888811 0.0001
vt 0.888811 0.9999
vt 0.777722 0.9999
vt 0.666633 0.9999
vt 0.555544 0.9999
vt 0.444455 0.9999
vt 0.333367 0.9999
vt 0.222278 0.9999
vt 0.111189 0.9999
vt 0.0001 0.888811
vt 0.0001 0.777722
vt 0.0001 0.666633
vt 0.0001 0.555544
vt 0.0001 0.444456
vt 0.0001 0.333367
vt 0.0001 0.222278
vt 0.0001 0.111189
vt 0.9999 0.111189
vt 0.9999 0.222278
vt 0.9999 0.333367
vt 0.9999 0.444456
vt 0.9999 0.555544
vt 0.9999 0.666633
vt 0.9999 0.777722
vt 0.9999 0.888811
vt 0.11727 0.115399
vt 0.120778 0.180369
vt 0.134636 0.309595
vt 0.088728 0.473895
vt 0.085886 0.575352
vt 0.086211 0.65375
vt 0.092207 0.78313
vt 0.106956 0.892282
vt 0.22987 0.102869
vt 0.221803 0.229552
vt 0.233521 0.288953
vt 0.225541 0.443179
vt 0.221596 0.556167
vt 0.227801 0.661237
vt 0.214896 0.795203
vt 0.22542 0.865181
vt 0.335524 0.082127
vt 0.351143 0.213907
vt 0.311934 0.342467
vt 0.313159 0.422214
vt 0.347791 0.572605
vt 0.301482 0.677733
vt 0.329031 0.783086
vt 0.344903 0.885466
vt 0.476837 0.074882
vt 0.441952 0.218774
vt 0.445749 0.333088
vt 0.416414 0.43099
vt 0.439746 0.552976
vt 0.463203 0.656843
vt 0.444252 0.77653
vt 0.426137 0.866051
vt 0.573419 0.117409
vt 0.581125 0.246686
vt 0.552512 0.326
vt 0.561075 0.459693
vt 0.558356 0.550596
vt 0.530299 0.662189
vt 0.553275 0.760113
vt 0.555478 0.888821
vt 0.694433 0.13996
vt 0.667048 0.221666
vt 0.681985 0.314267
vt 0.698218 0.467249
vt 0.696819 0.535952
vt 0.68253 0.662758
vt 0.642062 0.791726
vt 0.648523 0.877957
vt 0.778029 0.111667
vt 0.809426 0.219523
vt 0.794923 0.307783
vt 0.772028 0.454562
vt 0.796846 0.533374
vt 0.807262 0.663157
vt 0.778581 0.821037
vt 0.775122 0.858219
vt 0.890224 0.104741
vt 0.865679 0.23076
vt 0.887326 0.334104
vt 0.881307 0.429754
vt 0.887973 0.53063
vt 0.918106 0.681428
vt 0.915043 0.778027
vt 0.904815 0.89094
vn 0.0359425 -0.0282526 0.998954
vn -0.0892389 0.0494864 0.99478
vn 0.0256023 -0.0305944 0.999204
vn 0.0342353 -0.0190513 0.999232
vn 0.0496606 0.0104046 0.998712
vn 0.0431473 0.0409864 0.998228
vn 0.0421769 -0.0179766 0.998948
vn -5.8661e-05 -0.00846467 0.999964
vn -0.0202476 -0.000428142 0.999795
vn 0.00820933 0.0128917 0.999883
vn -0.01368 0.00622248 0.999887
vn -0.0813189 0.0230416 0.996422
vn 0.107414 -0.0590938 0.992457
vn 0.105141 -0.0491508 0.993242
vn 0.0429856 -0.128482 0.99078
vn -0.0234162 -0.0900157 0.995665
vn -0.0374067 -0.0244887 0.999
vn -0.0529862 0.0365239 0.997927
vn -0.0883886 -0.0112203 0.996023
vn -0.0748424 -0.106116 0.991533
vn 0.0560089 0.0679878 0.996113
vn -0.0382366 0.0196219 0.999076
vn -0.0368317 0.0283631 0.998919
vn -0.0071863 0.0248911 0.999664
vn 0.042796 0.0540171 0.997623
vn 0.0630598 0.0626491 0.996041
vn 0.0771842 0.0809031 0.993729
vn 0.0726877 0.0144829 0.99725
vn -0.0625744 0.0442469 0.997059
vn -0.00573603 0.0196865 0.99979
vn 0.033373 0.0717502 0.996864
vn 0.0557338 0.0460342 0.997384
vn 0.0812356 0.0330404 0.996147
vn 0.0826538 0.0225231 0.996324
vn 0.0422601 0.0374488 0.998405
vn -0.00532833 0.0347073 0.999383
vn 0.0662071 0.0302111 0.997348
vn 0.0788477 0.0518658 0.995537
vn 0.0246895 0.0347768 0.99909
vn -0.0260902 0.0136201 0.999567
vn -0.0555895 0.0239573 0.998166
vn -0.0477309 0.0289183 0.998442
vn 0.0144233 0.0778518 0.996861
vn -0.0454301 -0.0173121 0.998818
vn 0.0307239 0.0468687 0.998428
vn 0.0170567 0.0443376 0.998871
vn -0.0613267 -0.0457404 0.997069
vn -0.0588844 -0.0209672 0.998045
vn 0.00235043 0.0390946 0.999233
vn 0.0220748 0.0922287 0.995493
vn -0.0883132 -0.0132951 0.996004
vn -0.166524 -0.0832283 0.982519
vn 0.01453 0.00769344 0.999865
vn -0.0261353 -0.0111793 0.999596
vn -0.0166235 -0.0165742 0.999724
vn 0.0407216 0.0409038 0.998333
vn 0.00700916 0.040065 0.999173
vn -0.0211556 0.00862146 0.999739
vn -0.107465 -0.0564848 0.992603
vn -0.0390651 0.0269674 0.998873
vn -0.00737451 -0.00498305 0.99996
vn 0.00877502 -0.00275757 0.999958
vn 0.0206241 0.000868052 0.999787
vn 0.0169544 0.0390512 0.999093
vn -0.0211567 -0.0100811 0.999725
vn -0.0293055 -0.0230442 0.999305
vn -0.0115229 -0.0199439 0.999735
vn -0.0104447 0.0210274 0.999724
vn -0.000770627 0.0175331 0.999846
vn 0.00109193 -0.0050997 0.999986
vn 0.0103527 -0.0157838 0.999822
vn -0.0016605 0.00896371 0.999958
vn 0.00499969 0.000817187 0.999987
vn 0.0166584 -0.014457 0.999757
vn 0.0147549 -0.0191603 0.999708
vn -0.000513102 -0.00736914 0.999973
vn -0.00747291 0.0102216 0.99992
vn -0.0121448 0.00816581 0.999893
vn -0.0109969 -0.0188861 0.999761
vn -0.0396382 0.0186811 0.999039
vn -0.0188456 0.0272276 0.999452
vn 0.0233626 -0.0137947 0.999632
vn 0.0175075 -0.00124974 0.999846
vn 0.019854 -0.0408399 0.998968
vn -0.00756147 -0.0101495 0.99992
vn -0.0469531 0.00283885 0.998893
vn -0.0245838 0.0178756 0.999538
vn -0.00596454 0.00340184 0.999976
vn 0.0225644 0.0389429 0.998987
vn 0.0243489 0.0348061 0.999097
vn 0.0697691 -0.00918414 0.997521
vn 0.0842832 -0.0310414 0.995958
vn -0.0489477 -0.000452983 0.998801
vn -0.0420835 0.014778 0.999005
vn -0.021262 0.0597818 0.997985
vn 0.0317816 0.0289199 0.999076
vn 0.060759 0.0310406 0.99767
vn 0.053766 0.0407967 0.99772
vn 0.0431179 0.048194 0.997907
vn 0.0921924 -0.00307621 0.995736
f 100/100/100 4/4/4 13/13/13
f 44/44/44 3/3/3 21/21/21
f 44/44/44 19/19/19 20/20/20
f 60/60/60 19/19/19 52/52/52
f 60/60/60 17/17/17 18/18/18
f 76/76/76 17/17/17 68/68/68
f 84/84/84 16/16/16 76/76/76
f 84/84/84 14/14/14 15/15/15
f 100/100/100 14/14/14 92/92/92
f 11/11/11 93/93/93 85/85/85
f 93/93/93 86/86/86 85/85/85
f 94/94/94 87/87/87 86/86/86
f 87/87/87 96/96/96 88/88/88
f 96/96/96 89/89/89 88/88/88
f 97/97/97 90/90/90 89/89/89
f 90/90/90 99/99/99 91/91/91
f 91/91/91 100/100/100 92/92/92
f 10/10/10 85/85/85 77/77/77
f 77/77/77 86/86/86 78/78/78
f 78/78/78 87/87/87 79/79/79
f 79/79/79 88/88/88 80/80/80
f 88/88/88 81/81/81 80/80/80
f 81/81/81 90/90/90 82/82/82
f 82/82/82 91/91/91 83/83/83
f 91/91/91 84/84/84 83/83/83
f 10/10/10 69/69/69 9/9/9
f 69/69/69 78/78/78 70/70/70
f 70/70/70 79/79/79 71/71/71
f 79/79/79 72/72/72 71/71/71
f 72/72/72 81/81/81 73/73/73
f 73/73/73 82/82/82 74/74/74
f 82/82/82 75/75/75 74/74/74
f 83/83/83 76/76/76 75/75/75
f 9/9/9 61/61/61 8/8/8
f 69/69/69 62/62/62 61/61/61
f 62/62/62 71/71/71 63/63/63
f 63/63/63 72/72/72 64/64/64
f 72/72/72 65/65/65 64/64/64
f 65/65/65 74/74/74 66/66/66
f 66/66/66 75/75/75 67/67/67
f 67/67/67 76/76/76 68/68/68
f 8/8/8 53/53/53 7/7/7
f 53/53/53 62/62/62 54/54/54
f 54/54/54 63/63/63 55/55/55
f 55/55/55 64/64/64 56/56/56
f 64/64/64 57/57/57 56/56/56
f 57/57/57 66/66/66 58/58/58
f 58/58/58 67/67/67 59/59/59
f 59/59/59 68/68/68 60/60/60
f 6/6/6 53/53/53 45/45/45
f 45/45/45 54/54/54 46/46/46
f 54/54/54 47/47/47 46/46/46
f 55/55/55 48/48/48 47/47/47
f 56/56/56 49/49/49 48/48/48
f 49/49/49 58/58/58 50/50/50
f 58/58/58 51/51/51 50/50/50
f 59/59/59 52/52/52 51/51/51
f 6/6/6 37/37/37 5/5/5
f 45/45/45 38/38/38 37/37/37
f 46/46/46 39/39/39 38/38/38
f 39/39/39 48/48/48 40/40/40
f 40/40/40 49/49/49 41/41/41
f 41/41/41 50/50/50 42/42/42
f 50/50/50 43/43/43 42/42/42
f 51/51/51 44/44/44 43/43/43
f 5/5/5 28/28/28 1/1/1
f 28/28/28 38/38/38 27/27/27
f 27/27/27 39/39/39 26/26/26
f 26/26/26 40/40/40 25/25/25
f 40/40/40 24/24/24 25/25/25
f 41/41/41 23/23/23 24/24/24
f 23/23/23 43/43/43 22/22/22
f 43/43/43 21/21/21 22/22/22
f 2/2/2 93/93/93 12/12/12
f 93/93/93 30/30/30 94/94/94
f 30/30/30 95/95/95 94/94/94
f 31/31/31 96/96/96 95/95/95
f 32/32/32 97/97/97 96/96/96
f 33/33/33 98/98/98 97/97/97
f 98/98/98 35/35/35 99/99/99
f 99/99/99 36/36/36 100/100/100
f 100/100/100 36/36/36 4/4/4
f 44/44/44 20/20/20 3/3/3
f 44/44/44 52/52/52 19/19/19
f 60/60/60 18/18/18 19/19/19
f 60/60/60 68/68/68 17/17/17
f 76/76/76 16/16/16 17/17/17
f 84/84/84 15/15/15 16/16/16
f 84/84/84 92/92/92 14/14/14
f 100/100/100 13/13/13 14/14/14
f 11/11/11 12/12/12 93/93/93
f 93/93/93 94/94/94 86/86/86
f 94/94/94 95/95/95 87/87/87
f 87/87/87 95/95/95 96/96/96
f 96/96/96 97/97/97 89/89/89
f 97/97/97 98/98/98 90/90/90
f 90/90/90 98/98/98 99/99/99
f 91/91/91 99/99/99 100/100/100
f 10/10/10 11/11/11 85/85/85
f 77/77/77 85/85/85 86/86/86
f 78/78/78 86/86/86 87/87/87
f 79/79/79 87/87/87 88/88/88
f 88/88/88 89/89/89 81/81/81
f 81/81/81 89/89/89 90/90/90
f 82/82/82 90/90/90 91/91/91
f 91/91/91 92/92/92 84/84/84
f 10/10/10 77/77/77 69/69/69
f 69/69/69 77/77/77 78/78/78
f 70/70/70 78/78/78 79/79/79
f 79/79/79 80/80/80 72/72/72
f 72/72/72 80/80/80 81/81/81
f 73/73/73 81/81/81 82/82/82
f 82/82/82 83/83/83 75/75/75
f 83/83/83 84/84/84 76/76/76
f 9/9/9 69/69/69 61/61/61
f 69/69/69 70/70/70 62/62/62
f 62/62/62 70/70/70 71/71/71
f 63/63/63 71/71/71 72/72/72
f 72/72/72 73/73/73 65/65/65
f 65/65/65 73/73/73 74/74/74
f 66/66/66 74/74/74 75/75/75
f 67/67/67 75/75/75 76/76/76
f 8/8/8 61/61/61 53/53/53
f 53/53/53 61/61/61 62/62/62
f 54/54/54 62/62/62 63/63/63
f 55/55/55 63/63/63 64/64/64
f 64/64/64 65/65/65 57/57/57
f 57/57/57 65/65/65 66/66/66
f 58/58/58 66/66/66 67/67/67
f 59/59/59 67/67/67 68/68/68
f 6/6/6 7/7/7 53/53/53
f 45/45/45 53/53/53 54/54/54
f 54/54/54 55/55/55 47/47/47
f 55/55/55 56/56/56 48/48/48
f 56/56/56 57/57/57 49/49/49
f 49/49/49 57/57/57 58/58/58
f 58/58/58 59/59/59 51/51/51
f 59/59/59 60/60/60 52/52/52
f 6/6/6 45/45/45 37/37/37
f 45/45/45 46/46/46 38/38/38
f 46/46/46 47/47/47 39/39/39
f 39/39/39 47/47/47 48/48/48
f 40/40/40 48/48/48 49/49/49
f 41/41/41 49/49/49 50/50/50
f 50/50/50 51/51/51 43/43/43
f 51/51/51 52/52/52 44/44/44
f 5/5/5 37/37/37 28/28/28
f 28/28/28 37/37/37 38/38/38
f 27/27/27 38/38/38 39/39/39
f 26/26/26 39/39/39 40/40/40
f 40/40/40 41/41/41 24/24/24
f 41/41/41 42/42/42 23/23/23
f 23/23/23 42/42/42 43/43/43
f 43/43/43 44/44/44 21/21/21
f 2/2/2 29/29/29 93/93/93
f 93/93/93 29/29/29 30/30/30
f 30/30/30 31/31/31 95/95/95
f 31/31/31 32/32/32 96/96/96
f 32/32/32 33/33/33 97/97/97
f 33/33/33 34/34/34 98/98/98
f 98/98/98 34/34/34 35/35/35
f 99/99/99 35/35/35 36/36/36
