o GNATVCloth
v -4.90483 -5.00299 0.303559
v 5.17507 -4.99587 0.323199
v -5.01298 5.02105 0.004229
v 4.98702 5.02105 0.004229
v -3.79283 -5.0291 0.251375
v -2.67517 -5.05676 0.234894
v -1.55508 -5.08508 0.185446
v -0.431848 -5.10411 0.165091
v 0.695813 -5.11505 0.19837
v 1.82247 -5.10077 0.178481
v 2.94587 -5.0687 0.185329
v 4.06448 -5.03219 0.244574
v 3.86012 4.93353 0.0561598
v 2.7487 4.85699 0.202824
v 1.63555 4.74332 0.262454
v 0.63148 4.70389 0.224629
v -0.482115 4.77817 0.209242
v -1.60094 4.84042 0.170338
v -2.73057 4.92011 0.141396
v -3.86693 4.96447 0.0883692
v -4.97726 3.90479 0.0372161
v -4.96069 2.78841 0.0716076
v -4.95097 1.67247 0.108673
v -4.93739 0.556925 0.140077
v -4.92223 -0.556768 0.195903
v -4.90733 -1.66945 0.24728
v -4.89632 -2.78145 0.27541
v -4.89246 -3.89328 0.275936
v 5.15526 -3.8865 0.245342
v 5.13816 -2.77487 0.233644
v 5.12119 -1.66221 0.225066
v 5.10557 -0.550138 0.181281
v 5.0875 0.562075 0.131147
v 5.06684 1.67623 0.0922806
v 5.04574 2.7908 0.0554073
v 5.01818 3.90582 0.0288121
v -3.72138 -3.87958 0.205456
v -3.68747 -3.22999 0.199616
v -3.55967 -1.94345 0.148669
v -4.03961 -0.286979 0.15433
v -4.08067 0.731601 0.143379
v -4.08556 1.51595 0.121561
v -4.03801 2.80946 0.0816359
v -3.89986 3.8954 0.0221796
v -2.59077 -4.03227 0.172566
v -2.67651 -2.7641 0.149091
v -2.5639 -2.17318 0.119075
v -2.66401 -0.629227 0.203388
v -2.71804 0.500867 0.194661
v -2.66582 1.54995 0.155956
v -2.80436 2.88877 0.0839475
v -2.71177 3.58179 0.167722
v -1.52727 -4.26676 0.173806
v -1.375 -2.95099 0.160081
v -1.78391 -1.65799 0.217103
v -1.78147 -0.860668 0.205186
v -1.4533 0.632704 0.142317
v -1.92843 1.69425 0.146004
v -1.66603 2.73557 0.181874
v -1.50704 3.73269 0.182057
v -0.102284 -4.36119 0.148095
v -0.461654 -2.92009 0.153054
v -0.434807 -1.77709 0.188584
v -0.744568 -0.792189 0.159121
v -0.527373 0.421541 0.158675
v -0.304646 1.45325 0.176426
v -0.509534 2.64331 0.180932
v -0.691407 3.51182 0.173016
v 0.869237 -3.94569 0.174837
v 0.936426 -2.65184 0.160092
v 0.640529 -1.86077 0.167066
v 0.707073 -0.52572 0.144037
v 0.66423 0.385846 0.170521
v 0.368754 1.50079 0.181124
v 0.590144 2.47615 0.177397
v 0.601533 3.68462 0.162133
v 2.08623 -3.70025 0.176934
v 1.80249 -2.88889 0.156406
v 1.94243 -1.9636 0.175281
v 2.08119 -0.431215 0.175186
v 2.05615 0.251131 0.147655
v 1.89375 1.51184 0.118961
v 1.48313 2.7853 0.205087
v 1.53838 3.57503 0.160239
v 2.93136 -3.95645 0.164853
v 3.23077 -2.87135 0.218258
v 3.07631 -1.9976 0.124091
v 2.82286 -0.540151 0.206338
v 3.05811 0.255132 0.194489
v 3.14522 1.55362 0.134797
v 2.84042 3.11242 0.14765
v 2.79293 3.46497 0.207793
v 4.06124 -3.99139 0.159905
v 3.79318 -2.74257 0.22644
v 3.9941 -1.70171 0.208774
v 3.92176 -0.748903 0.157253
v 3.97141 0.263407 0.15738
v 4.25284 1.78644 0.130495
v 4.1989 2.75087 0.0982407
v 4.06843 3.87336 0.0635305
vt 0.0001 0.0001
vt 0.9999 0.0001
vt 0.0001 0.9999
vt 0.9999 0.9999
vt 0.111189 0.0001
vt 0.222278 0.0001
vt 0.333367 0.0001
vt 0.444455 0.0001
vt 0.555544 0.0001
vt 0.666633 0.0001
vt 0.777722 0.0001
vt 0.888811 0.0001
vt 0.888811 0.9999
vt 0.777722 0.9999
vt 0.666633 0.9999
vt 0.555544 0.9999
vt 0.444455 0.9999
vt 0.333367 0.9999
vt 0.222278 0.9999
vt 0.111189 0.9999
vt 0.0001 0.888811
vt 0.0001 0.777722
vt 0.0001 0.666633
vt 0.0001 0.555544
vt 0.0001 0.444456
vt 0.0001 0.333367
vt 0.0001 0.222278
vt 0.0001 0.111189
vt 0.9999 0.111189
vt 0.9999 0.222278
vt 0.9999 0.333367
vt 0.9999 0.444456
vt 0.9999 0.555544
vt 0.9999 0.666633
vt 0.9999 0.777722
vt 0.9999 0.888811
vt 0.11727 0.115399
vt 0.120778 0.180369
vt 0.134636 0.309595
vt 0.088728 0.473895
vt 0.085886 0.575352
vt 0.086211 0.65375
vt 0.092207 0.78313
vt 0.106956 0.892282
vt 0.22987 0.102869
vt 0.221803 0.229552
vt 0.233521 0.288953
vt 0.225541 0.443179
vt 0.221596 0.556167
vt 0.227801 0.661237
vt 0.214896 0.795203
vt 0.22542 0.865181
vt 0.335524 0.082127
vt 0.351143 0.213907
vt 0.311934 0.342467
vt 0.313159 0.422214
vt 0.347791 0.572605
vt 0.301482 0.677733
vt 0.329031 0.783086
vt 0.344903 0.885466
vt 0.476837 0.074882
vt 0.441952 0.218774
vt 0.445749 0.333088
vt 0.416414 0.43099
vt 0.439746 0.552976
vt 0.463203 0.656843
vt 0.444252 0.77653
vt 0.426137 0.866051
vt 0.573419 0.117409
vt 0.581125 0.246686
vt 0.552512 0.326
vt 0.561075 0.459693
vt 0.558356 0.550596
vt 0.530299 0.662189
vt 0.553275 0.760113
vt 0.555478 0.888821
vt 0.694433 0.13996
vt 0.667048 0.221666
vt 0.681985 0.314267
vt 0.698218 0.467249
vt 0.696819 0.535952
vt 0.68253 0.662758
vt 0.642062 0.791726
vt 0.648523 0.877957
vt 0.778029 0.111667
vt 0.809426 0.219523
vt 0.794923 0.307783
vt 0.772028 0.454562
vt 0.796846 0.533374
vt 0.807262 0.663157
vt 0.778581 0.821037
vt 0.775122 0.858219
vt 0.890224 0.104741
vt 0.865679 0.23076
vt 0.887326 0.334104
vt 0.881307 0.429754
vt 0.887973 0.53063
vt 0.918106 0.681428
vt 0.915043 0.778027
vt 0.904815 0.89094
vn 0.0474323 0.0243278 0.998578
vn -0.078599 0.0744539 0.994122
vn -0.0309587 -0.0146765 0.999413
vn 0.0402724 0.0193853 0.999001
vn 0.0409221 0.0331417 0.998613
vn 0.0272411 0.0422701 0.998735
vn 0.0313867 0.0131499 0.999421
vn 0.00273744 0.021279 0.99977
vn -0.0167537 0.0263848 0.999511
vn 0.00565622 0.00896038 0.999944
vn -0.0190191 0.0392227 0.999049
vn -0.0641813 0.080715 0.994669
vn 0.0867752 0.0239738 0.995939
vn 0.0661403 -0.0126868 0.99773
vn 0.0142365 -0.0883252 0.99599
vn -0.0190576 -0.0686757 0.997457
vn -0.00911812 -0.0282094 0.99956
vn -0.0296705 0.00805922 0.999527
vn -0.0513545 -0.00360758 0.998674
vn -0.0624439 -0.059758 0.996258
vn 0.00568237 0.0378201 0.999268
vn -0.0115891 0.0318557 0.999425
vn -0.0100736 0.030012 0.999499
vn 0.00534469 0.0296757 0.999545
vn 0.0321959 0.0485035 0.998304
vn 0.0626113 0.0304624 0.997573
vn 0.0718194 0.0195871 0.997225
vn 0.0574777 0.0167525 0.998206
vn -0.0814945 0.0387886 0.995919
vn -0.0262831 -0.00499024 0.999642
vn -0.0192739 0.0330698 0.999267
vn -0.011962 0.0283561 0.999526
vn 0.0276161 0.0316687 0.999117
vn 0.0515781 0.0348841 0.99806
vn 0.0498559 0.0317134 0.998253
vn 0.0401254 0.0276828 0.998811
vn 0.0404549 0.0292099 0.998754
vn 0.050124 0.0172518 0.998594
vn 0.0400877 0.0126033 0.999117
vn 0.00367413 0.0181518 0.999829
vn -0.019573 0.0236037 0.99953
vn -0.0172378 0.0295842 0.999414
vn -0.0076739 0.0411498 0.999123
vn -0.0523824 -0.00900084 0.998587
vn 0.0190596 0.0290842 0.999395
vn 0.021212 0.0339442 0.999199
vn -0.021864 -0.017673 0.999605
vn -0.0233042 -0.0165686 0.999591
vn -0.00246698 0.0208903 0.999779
vn -0.0128308 0.0402595 0.999107
vn -0.0571303 -0.00928002 0.998324
vn -0.0781626 -0.0334194 0.99638
vn 0.0171978 0.0173519 0.999702
vn -0.00735669 -0.00711797 0.999948
vn -0.0129343 -0.0166979 0.999777
vn 0.0250635 0.0207966 0.99947
vn 0.0103052 0.00980577 0.999899
vn -0.0115212 0.00554634 0.999918
vn -0.0314943 -0.0239166 0.999218
vn -0.0120059 0.00105651 0.999927
vn -0.0108245 0.013567 0.999849
vn 0.00254756 -0.00851828 0.99996
vn 0.0157329 -0.00268419 0.999873
vn 0.018081 0.0197293 0.999642
vn -0.00896182 -0.0114413 0.999894
vn -0.0119153 -0.00773749 0.999899
vn -0.00088135 -0.00197676 0.999998
vn 0.00697164 -0.00832703 0.999941
vn -0.00758264 0.0116288 0.999904
vn -0.00232687 -0.00378225 0.99999
vn 0.00471011 -0.00386059 0.999982
vn -0.00170975 0.00588311 0.999981
vn 0.0104277 -0.00874664 0.999907
vn 0.0115971 -0.00536892 0.999918
vn -0.000174223 -0.00790344 0.999969
vn -0.00360475 -0.00860223 0.999956
vn -0.00770804 -0.00317101 0.999965
vn -0.00730288 0.0160585 0.999844
vn 0.00146174 -0.01202 0.999927
vn -0.0314527 0.0210718 0.999283
vn -0.019442 0.0248531 0.999502
vn 0.0174613 -0.0126118 0.999768
vn 0.00993881 0.000817716 0.99995
vn -0.00420368 -0.0429058 0.99907
vn 0.00288619 -0.0127354 0.999915
vn -0.020905 0.00957812 0.999736
vn -0.0242045 0.0224128 0.999456
vn -0.000143392 -0.00431981 0.999991
vn 0.00642648 0.0241072 0.999689
vn 0.000113509 0.0217643 0.999763
vn 0.0369689 -0.0418221 0.998441
vn 0.0445765 -0.0783194 0.995931
vn -0.0366323 0.0124276 0.999251
vn -0.0310557 0.0094244 0.999473
vn -0.0492342 0.0321701 0.998269
vn -0.00705732 0.0125169 0.999897
vn 0.0152826 0.0198049 0.999687
vn 0.0281366 0.0284664 0.999199
vn 0.0353906 0.0274069 0.998998
vn 0.0798947 0.000529141 0.996803
f 100/100/100 4/4/4 13/13/13
f 44/44/44 3/3/3 21/21/21
f 44/44/44 19/19/19 20/20/20
f 60/60/60 19/19/19 52/52/52
f 60/60/60 17/17/17 18/18/18
f 76/76/76 17/17/17 68/68/68
f 84/84/84 16/16/16 76/76/76
f 84/84/84 14/14/14 15/15/15
f 100/100/100 14/14/14 92/92/92
f 11/11/11 93/93/93 85/85/85
f 93/93/93 86/86/86 85/85/85
f 94/94/94 87/87/87 86/86/86
f 87/87/87 96/96/96 88/88/88
f 96/96/96 89/89/89 88/88/88
f 97/97/97 90/90/90 89/89/89
f 90/90/90 99/99/99 91/91/91
f 91/91/91 100/100/100 92/92/92
f 10/10/10 85/85/85 77/77/77
f 77/77/77 86/86/86 78/78/78
f 78/78/78 87/87/87 79/79/79
f 79/79/79 88/88/88 80/80/80
f 88/88/88 81/81/81 80/80/80
f 81/81/81 90/90/90 82/82/82
f 82/82/82 91/91/91 83/83/83
f 91/91/91 84/84/84 83/83/83
f 10/10/10 69/69/69 9/9/9
f 69/69/69 78/78/78 70/70/70
f 70/70/70 79/79/79 71/71/71
f 79/79/79 72/72/72 71/71/71
f 72/72/72 81/81/81 73/73/73
f 73/73/73 82/82/82 74/74/74
f 82/82/82 75/75/75 74/74/74
f 83/83/83 76/76/76 75/75/75
f 9/9/9 61/61/61 8/8/8
f 69/69/69 62/62/62 61/61/61
f 62/62/62 71/71/71 63/63/63
f 63/63/63 72/72/72 64/64/64
f 72/72/72 65/65/65 64/64/64
f 65/65/65 74/74/74 66/66/66
f 66/66/66 75/75/75 67/67/67
f 67/67/67 76/76/76 68/68/68
f 8/8/8 53/53/53 7/7/7
f 53/53/53 62/62/62 54/54/54
f 54/54/54 63/63/63 55/55/55
f 55/55/55 64/64/64 56/56/56
f 64/64/64 57/57/57 56/56/56
f 57/57/57 66/66/66 58/58/58
f 58/58/58 67/67/67 59/59/59
f 59/59/59 68/68/68 60/60/60
f 6/6/6 53/53/53 45/45/45
f 45/45/45 54/54/54 46/46/46
f 54/54/54 47/47/47 46/46/46
f 55/55/55 48/48/48 47/47/47
f 56/56/56 49/49/49 48/48/48
f 49/49/49 58/58/58 50/50/50
f 58/58/58 51/51/51 50/50/50
f 59/59/59 52/52/52 51/51/51
f 6/6/6 37/37/37 5/5/5
f 45/45/45 38/38/38 37/37/37
f 46/46/46 39/39/39 38/38/38
f 39/39/39 48/48/48 40/40/40
f 40/40/40 49/49/49 41/41/41
f 41/41/41 50/50/50 42/42/42
f 50/50/50 43/43/43 42/42/42
f 51/51/51 44/44/44 43/43/43
f 5/5/5 28/28/28 1/1/1
f 28/28/28 38/38/38 27/27/27
f 27/27/27 39/39/39 26/26/26
f 26/26/26 40/40/40 25/25/25
f 40/40/40 24/24/24 25/25/25
f 41/41/41 23/23/23 24/24/24
f 23/23/23 43/43/43 22/22/22
f 43/43/43 21/21/21 22/22/22
f 2/2/2 93/93/93 12/12/12
f 93/93/93 30/30/30 94/94/94
f 30/30/30 95/95/95 94/94/94
f 31/31/31 96/96/96 95/95/95
f 32/32/32 97/97/97 96/96/96
f 33/33/33 98/98/98 97/97/97
f 98/98/98 35/35/35 99/99/99
f 99/99/99 36/36/36 100/100/100
f 100/100/100 36/36/36 4/4/4
f 44/44/44 20/20/20 3/3/3
f 44/44/44 52/52/52 19/19/19
f 60/60/60 18/18/18 19/19/19
f 60/60/60 68/68/68 17/17/17
f 76/76/76 16/16/16 17/17/17
f 84/84/84 15/15/15 16/16/16
f 84/84/84 92/92/92 14/14/14
f 100/100/100 13/13/13 14/14/14
f 11/11/11 12/12/12 93/93/93
f 93/93/93 94/94/94 86/86/86
f 94/94/94 95/95/95 87/87/87
f 87/87/87 95/95/95 96/96/96
f 96/96/96 97/97/97 89/89/89
f 97/97/97 98/98/98 90/90/90
f 90/90/90 98/98/98 99/99/99
f 91/91/91 99/99/99 100/100/100
f 10/10/10 11/11/11 85/85/85
f 77/77/77 85/85/85 86/86/86
f 78/78/78 86/86/86 87/87/87
f 79/79/79 87/87/87 88/88/88
f 88/88/88 89/89/89 81/81/81
f 81/81/81 89/89/89 90/90/90
f 82/82/82 90/90/90 91/91/91
f 91/91/91 92/92/92 84/84/84
f 10/10/10 77/77/77 69/69/69
f 69/69/69 77/77/77 78/78/78
f 70/70/70 78/78/78 79/79/79
f 79/79/79 80/80/80 72/72/72
f 72/72/72 80/80/80 81/81/81
f 73/73/73 81/81/81 82/82/82
f 82/82/82 83/83/83 75/75/75
f 83/83/83 84/84/84 76/76/76
f 9/9/9 69/69/69 61/61/61
f 69/69/69 70/70/70 62/62/62
f 62/62/62 70/70/70 71/71/71
f 63/63/63 71/71/71 72/72/72
f 72/72/72 73/73/73 65/65/65
f 65/65/65 73/73/73 74/74/74
f 66/66/66 74/74/74 75/75/75
f 67/67/67 75/75/75 76/76/76
f 8/8/8 61/61/61 53/53/53
f 53/53/53 61/61/61 62/62/62
f 54/54/54 62/62/62 63/63/63
f 55/55/55 63/63/63 64/64/64
f 64/64/64 65/65/65 57/57/57
f 57/57/57 65/65/65 66/66/66
f 58/58/58 66/66/66 67/67/67
f 59/59/59 67/67/67 68/68/68
f 6/6/6 7/7/7 53/53/53
f 45/45/45 53/53/53 54/54/54
f 54/54/54 55/55/55 47/47/47
f 55/55/55 56/56/56 48/48/48
f 56/56/56 57/57/57 49/49/49
f 49/49/49 57/57/57 58/58/58
f 58/58/58 59/59/59 51/51/51
f 59/59/59 60/60/60 52/52/52
f 6/6/6 45/45/45 37/37/37
f 45/45/45 46/46/46 38/38/38
f 46/46/46 47/47/47 39/39/39
f 39/39/39 47/47/47 48/48/48
f 40/40/40 48/48/48 49/49/49
f 41/41/41 49/49/49 50/50/50
f 50/50/50 51/51/51 43/43/43
f 51/51/51 52/52/52 44/44/44
f 5/5/5 37/37/37 28/28/28
f 28/28/28 37/37/37 38/38/38
f 27/27/27 38/38/38 39/39/39
f 26/26/26 39/39/39 40/40/40
f 40/40/40 41/41/41 24/24/24
f 41/41/41 42/42/42 23/23/23
f 23/23/23 42/42/42 43/43/43
f 43/43/43 44/44/44 21/21/21
f 2/2/2 29/29/29 93/93/93
f 93/93/93 29/29/29 30/30/30
f 30/30/30 31/31/31 95/95/95
f 31/31/31 32/32/32 96/96/96
f 32/32/32 33/33/33 97/97/97
f 33/33/33 34/34/34 98/98/98
f 98/98/98 34/34/34 35/35/35
f 99/99/99 35/35/35 36/36/36
