o GNATVCloth
v -4.94352 -4.98303 0.403953
v 5.0606 -4.9796 0.429959
v -5.01298 5.02105 0.004229
v 4.98702 5.02105 0.004229
v -3.83324 -4.98918 0.365802
v -2.72231 -5.00038 0.341197
v -1.61148 -4.99313 0.252714
v -0.498251 -5.00555 0.24554
v 0.614166 -5.01024 0.263236
v 1.72729 -5.0128 0.290073
v 2.84245 -5.00934 0.250291
v 3.95567 -4.99669 0.301781
v 3.87093 4.9589 0.108519
v 2.78067 4.89548 0.240324
v 1.6716 4.87537 0.384278
v 0.553075 4.88362 0.339999
v -0.560558 4.87908 0.291652
v -1.64688 4.89947 0.188924
v -2.7661 4.93708 0.175424
v -3.88337 4.97603 0.0603828
v -4.99035 3.90761 0.0578526
v -4.97287 2.79359 0.0774584
v -4.96119 1.6804 0.101625
v -4.95534 0.567008 0.13628
v -4.94745 -0.544059 0.202181
v -4.94161 -1.65629 0.257722
v -4.93473 -2.76257 0.375184
v -4.93104 -3.8719 0.441342
v 5.06365 -3.8706 0.34917
v 5.06509 -2.75926 0.329986
v 5.0607 -1.65161 0.247589
v 5.05301 -0.542228 0.159015
v 5.04504 0.570359 0.106935
v 5.03704 1.68445 0.0811261
v 5.02364 2.7963 0.0610178
v 5.00492 3.90861 0.033888
v -3.76539 -3.84114 0.329366
v -3.72808 -3.19257 0.317764
v -3.59685 -1.90999 0.176166
v -4.06299 -0.260969 0.142552
v -4.09888 0.75492 0.163248
v -4.09878 1.53897 0.13643
v -4.05115 2.83318 0.117923
v -3.92175 3.90667 -0.0734602
v -2.64225 -3.97827 0.260283
v -2.72087 -2.71531 0.189838
v -2.60547 -2.12411 0.196408
v -2.69941 -0.58626 0.299924
v -2.74489 0.544688 0.297925
v -2.68294 1.59178 0.222453
v -2.82349 2.91501 -0.0118402
v -2.75652 3.59058 0.174385
v -1.58775 -4.19836 0.267699
v -1.42595 -2.88883 0.251026
v -1.82945 -1.60621 0.332913
v -1.82073 -0.809473 0.304803
v -1.4847 0.687321 0.176228
v -1.95567 1.72921 0.0934571
v -1.7108 2.76331 0.278516
v -1.55388 3.75849 0.233483
v -0.171589 -4.26933 0.25348
v -0.516635 -2.84439 0.262966
v -0.485465 -1.70095 0.282167
v -0.788561 -0.732749 0.239433
v -0.56293 0.483536 0.220285
v -0.337279 1.51774 0.263264
v -0.547523 2.69862 0.313837
v -0.738646 3.56218 0.256534
v 0.797707 -3.84657 0.274144
v 0.876199 -2.56024 0.216429
v 0.58521 -1.7737 0.245107
v 0.66145 -0.450761 0.244156
v 0.626045 0.458548 0.251128
v 0.334232 1.57011 0.257623
v 0.552938 2.5452 0.264472
v 0.56058 3.79044 0.255434
v 2.00999 -3.62275 0.244867
v 1.73659 -2.81293 0.227394
v 1.88394 -1.88891 0.274265
v 2.03577 -0.364273 0.240102
v 2.01624 0.3227 0.233352
v 1.85891 1.58224 0.193993
v 1.44363 2.86374 0.289403
v 1.49328 3.71497 0.238787
v 2.84629 -3.89389 0.254496
v 3.16057 -2.81675 0.300536
v 3.01452 -1.93985 0.236927
v 2.77442 -0.478975 0.298915
v 3.01827 0.313315 0.270285
v 3.10993 1.60655 0.189144
v 2.80853 3.17467 0.218775
v 2.77093 3.54003 0.225956
v 3.96866 -3.94979 0.287419
v 3.72106 -2.6961 0.336963
v 3.93448 -1.65853 0.289265
v 3.86855 -0.70673 0.228616
v 3.93011 0.300686 0.212666
v 4.21859 1.81374 0.145687
v 4.17402 2.76891 0.0759676
v 4.05522 3.89284 0.00650873
vt 0.0001 0.0001
vt 0.9999 0.0001
vt 0.0001 0.9999
vt 0.9999 0.9999
vt 0.111189 0.0001
vt 0.222278 0.0001
vt 0.333367 0.0001
vt 0.444455 0.0001
vt 0.555544 0.0001
vt 0.666633 0.0001
vt 0.777722 0.0001
vt 0.888811 0.0001
vt 0.888811 0.9999
vt 0.777722 0.9999
vt 0.666633 0.9999
vt 0.555544 0.9999
vt 0.444455 0.9999
vt 0.333367 0.9999
vt 0.222278 0.9999
vt 0.111189 0.9999
vt 0.0001 0.888811
vt 0.0001 0.777722
vt 0.0001 0.666633
vt 0.0001 0.555544
vt 0.0001 0.444456
vt 0.0001 0.333367
vt 0.0001 0.222278
vt 0.0001 0.111189
vt 0.9999 0.111189
vt 0.9999 0.222278
vt 0.9999 0.333367
vt 0.9999 0.444456
vt 0.9999 0.555544
vt 0.9999 0.666633
vt 0.9999 0.777722
vt 0.9999 0.888811
vt 0.11727 0.115399
vt 0.120778 0.180369
vt 0.134636 0.309595
vt 0.088728 0.473895
vt 0.085886 0.575352
vt 0.086211 0.65375
vt 0.092207 0.78313
vt 0.106956 0.892282
vt 0.22987 0.102869
vt 0.221803 0.229552
vt 0.233521 0.288953
vt 0.225541 0.443179
vt 0.221596 0.556167
vt 0.227801 0.661237
vt 0.214896 0.795203
vt 0.22542 0.865181
vt 0.335524 0.082127
vt 0.351143 0.213907
vt 0.311934 0.342467
vt 0.313159 0.422214
vt 0.347791 0.572605
vt 0.301482 0.677733
vt 0.329031 0.783086
vt 0.344903 0.885466
vt 0.476837 0.074882
vt 0.441952 0.218774
vt 0.445749 0.333088
vt 0.416414 0.43099
vt 0.439746 0.552976
vt 0.463203 0.656843
vt 0.444252 0.77653
vt 0.426137 0.866051
vt 0.573419 0.117409
vt 0.581125 0.246686
vt 0.552512 0.326
vt 0.561075 0.459693
vt 0.558356 0.550596
vt 0.530299 0.662189
vt 0.553275 0.760113
vt 0.555478 0.888821
vt 0.694433 0.13996
vt 0.667048 0.221666
vt 0.681985 0.314267
vt 0.698218 0.467249
vt 0.696819 0.535952
vt 0.68253 0.662758
vt 0.642062 0.791726
vt 0.648523 0.877957
vt 0.778029 0.111667
vt 0.809426 0.219523
vt 0.794923 0.307783
vt 0.772028 0.454562
vt 0.796846 0.533374
vt 0.807262 0.663157
vt 0.778581 0.821037
vt 0.775122 0.858219
vt 0.890224 0.104741
vt 0.865679 0.23076
vt 0.887326 0.334104
vt 0.881307 0.429754
vt 0.887973 0.53063
vt 0.918106 0.681428
vt 0.915043 0.778027
vt 0.904815 0.89094
vn 0.0341332 -0.0339945 0.998839
vn -0.0884914 0.0439069 0.995109
vn 0.0341217 -0.0362161 0.998761
vn 0.0340271 -0.0260844 0.99908
vn 0.050542 0.00746296 0.998694
vn 0.0454085 0.0402192 0.998159
vn 0.0429056 -0.0201141 0.998877
vn -0.000133001 -0.0125549 0.999921
vn -0.0195122 -0.00524698 0.999796
vn 0.00737334 0.0129804 0.999889
vn -0.0134093 0.00224218 0.999908
vn -0.0809537 0.0146762 0.99661
vn 0.110492 -0.0757262 0.990988
vn 0.108852 -0.0598492 0.992255
vn 0.0450651 -0.131095 0.990345
vn -0.023851 -0.0909196 0.995573
vn -0.041146 -0.0239419 0.998866
vn -0.0521899 0.034723 0.998033
vn -0.0939651 -0.0213398 0.995347
vn -0.0800012 -0.120967 0.989427
vn 0.0662655 0.0761222 0.994894
vn -0.0446678 0.0190466 0.99882
vn -0.0388623 0.0254874 0.998919
vn -0.00562024 0.0230502 0.999719
vn 0.0497011 0.0547799 0.997261
vn 0.0664304 0.0651436 0.995662
vn 0.0772999 0.0887884 0.993046
vn 0.0733081 0.0159947 0.997181
vn -0.0594919 0.0450136 0.997213
vn -0.00262477 0.024332 0.9997
vn 0.0401143 0.0733922 0.996496
vn 0.0624834 0.0464697 0.996964
vn 0.0843828 0.0327351 0.995896
vn 0.0819686 0.0213388 0.996406
vn 0.0378881 0.0390842 0.998517
vn -0.0140678 0.036465 0.999236
vn 0.0692213 0.0312526 0.997112
vn 0.0809098 0.0583901 0.99501
vn 0.0192435 0.0371168 0.999126
vn -0.0279772 0.0126126 0.999529
vn -0.0585776 0.0218092 0.998045
vn -0.0489033 0.0251277 0.998487
vn 0.0167145 0.0829458 0.996414
vn -0.0431226 -0.0148908 0.998959
vn 0.0326025 0.0489963 0.998267
vn 0.0131463 0.0416066 0.999048
vn -0.0677394 -0.0499988 0.99645
vn -0.065922 -0.0204811 0.997615
vn 0.00346753 0.0423046 0.999099
vn 0.0304934 0.0938075 0.995123
vn -0.0831256 -0.00644993 0.996518
vn -0.172484 -0.0833991 0.981475
vn 0.0137382 0.00664904 0.999883
vn -0.0276143 -0.0125833 0.999539
vn -0.0157155 -0.0163846 0.999742
vn 0.0410573 0.0419193 0.998277
vn 0.00535517 0.0471434 0.998874
vn -0.0193951 0.00867523 0.999774
vn -0.114744 -0.058069 0.991696
vn -0.0433736 0.0246882 0.998754
vn -0.00639205 -0.0080099 0.999947
vn 0.00898711 -0.00196399 0.999958
vn 0.0200272 0.00154007 0.999798
vn 0.0166388 0.0409334 0.999023
vn -0.0239809 -0.00909886 0.999671
vn -0.0343462 -0.0245684 0.999108
vn -0.0172697 -0.0224382 0.999599
vn -0.016408 0.0245159 0.999565
vn 0.000501293 0.017442 0.999848
vn 0.00200638 -0.00539486 0.999983
vn 0.0114172 -0.017123 0.999788
vn -0.00195335 0.00932238 0.999955
vn 0.00349198 0.00194733 0.999992
vn 0.01565 -0.0154425 0.999758
vn 0.017459 -0.0202434 0.999643
vn 0.000223835 -0.00650484 0.999979
vn -0.00751246 0.0115309 0.999905
vn -0.0131558 0.00648827 0.999892
vn -0.0123822 -0.0187871 0.999747
vn -0.0372961 0.0173861 0.999153
vn -0.0167277 0.0268106 0.999501
vn 0.0242422 -0.0132529 0.999618
vn 0.0186451 -0.00112683 0.999825
vn 0.0256041 -0.0362417 0.999015
vn -0.00978353 -0.00890052 0.999913
vn -0.0480449 0.00127431 0.998844
vn -0.0228159 0.0167586 0.999599
vn -0.00558499 0.00497502 0.999972
vn 0.0243912 0.039589 0.998918
vn 0.0281497 0.0357646 0.998964
vn 0.0734707 0.00576822 0.997281
vn 0.0894308 -0.0108369 0.995934
vn -0.049047 -0.000864324 0.998796
vn -0.0393146 0.0152427 0.999111
vn -0.0139431 0.060943 0.998044
vn 0.0363747 0.0301725 0.998883
vn 0.0644809 0.0324912 0.99739
vn 0.0540754 0.0426243 0.997627
vn 0.0429896 0.0511476 0.997765
vn 0.0901428 -0.000860174 0.995929
f 100/100/100 4/4/4 13/13/13
f 44/44/44 3/3/3 21/21/21
f 44/44/44 19/19/19 20/20/20
f 60/60/60 19/19/19 52/52/52
f 60/60/60 17/17/17 18/18/18
f 76/76/76 17/17/17 68/68/68
f 84/84/84 16/16/16 76/76/76
f 84/84/84 14/14/14 15/15/15
f 100/100/100 14/14/14 92/92/92
f 11/11/11 93/93/93 85/85/85
f 93/93/93 86/86/86 85/85/85
f 94/94/94 87/87/87 86/86/86
f 87/87/87 96/96/96 88/88/88
f 96/96/96 89/89/89 88/88/88
f 97/97/97 90/90/90 89/89/89
f 90/90/90 99/99/99 91/91/91
f 91/91/91 100/100/100 92/92/92
f 10/10/10 85/85/85 77/77/77
f 77/77/77 86/86/86 78/78/78
f 78/78/78 87/87/87 79/79/79
f 79/79/79 88/88/88 80/80/80
f 88/88/88 81/81/81 80/80/80
f 81/81/81 90/90/90 82/82/82
f 82/82/82 91/91/91 83/83/83
f 91/91/91 84/84/84 83/83/83
f 10/10/10 69/69/69 9/9/9
f 69/69/69 78/78/78 70/70/70
f 70/70/70 79/79/79 71/71/71
f 79/79/79 72/72/72 71/71/71
f 72/72/72 81/81/81 73/73/73
f 73/73/73 82/82/82 74/74/74
f 82/82/82 75/75/75 74/74/74
f 83/83/83 76/76/76 75/75/75
f 9/9/9 61/61/61 8/8/8
f 69/69/69 62/62/62 61/61/61
f 62/62/62 71/71/71 63/63/63
f 63/63/63 72/72/72 64/64/64
f 72/72/72 65/65/65 64/64/64
f 65/65/65 74/74/74 66/66/66
f 66/66/66 75/75/75 67/67/67
f 67/67/67 76/76/76 68/68/68
f 8/8/8 53/53/53 7/7/7
f 53/53/53 62/62/62 54/54/54
f 54/54/54 63/63/63 55/55/55
f 55/55/55 64/64/64 56/56/56
f 64/64/64 57/57/57 56/56/56
f 57/57/57 66/66/66 58/58/58
f 58/58/58 67/67/67 59/59/59
f 59/59/59 68/68/68 60/60/60
f 6/6/6 53/53/53 45/45/45
f 45/45/45 54/54/54 46/46/46
f 54/54/54 47/47/47 46/46/46
f 55/55/55 48/48/48 47/47/47
f 56/56/56 49/49/49 48/48/48
f 49/49/49 58/58/58 50/50/50
f 58/58/58 51/51/51 50/50/50
f 59/59/59 52/52/52 51/51/51
f 6/6/6 37/37/37 5/5/5
f 45/45/45 38/38/38 37/37/37
f 46/46/46 39/39/39 38/38/38
f 39/39/39 48/48/48 40/40/40
f 40/40/40 49/49/49 41/41/41
f 41/41/41 50/50/50 42/42/42
f 50/50/50 43/43/43 42/42/42
f 51/51/51 44/44/44 43/43/43
f 5/5/5 28/28/28 1/1/1
f 28/28/28 38/38/38 27/27/27
f 27/27/27 39/39/39 26/26/26
f 26/26/26 40/40/40 25/25/25
f 40/40/40 24/24/24 25/25/25
f 41/41/41 23/23/23 24/24/24
f 23/23/23 43/43/43 22/22/22
f 43/43/43 21/21/21 22/22/22
f 2/2/2 93/93/93 12/12/12
f 93/93/93 30/30/30 94/94/94
f 30/30/30 95/95/95 94/94/94
f 31/31/31 96/96/96 95/95/95
f 32/32/32 97/97/97 96/96/96
f 33/33/33 98/98/98 97/97/97
f 98/98/98 35/35/35 99/99/99
f 99/99/99 36/36/36 100/100/100
f 100/100/100 36/36/36 4/4/4
f 44/44/44 20/20/20 3/3/3
f 44/44/44 52/52/52 19/19/19
f 60/60/60 18/18/18 19/19/19
f 60/60/60 68/68/68 17/17/17
f 76/76/76 16/16/16 17/17/17
f 84/84/84 15/15/15 16/16/16
f 84/84/84 92/92/92 14/14/14
f 100/100/100 13/13/13 14/14/14
f 11/11/11 12/12/12 93/93/93
f 93/93/93 94/94/94 86/86/86
f 94/94/94 95/95/95 87/87/87
f 87/87/87 95/95/95 96/96/96
f 96/96/96 97/97/97 89/89/89
f 97/97/97 98/98/98 90/90/90
f 90/90/90 98/98/98 99/99/99
f 91/91/91 99/99/99 100/100/100
f 10/10/10 11/11/11 85/85/85
f 77/77/77 85/85/85 86/86/86
f 78/78/78 86/86/86 87/87/87
f 79/79/79 87/87/87 88/88/88
f 88/88/88 89/89/89 81/81/81
f 81/81/81 89/89/89 90/90/90
f 82/82/82 90/90/90 91/91/91
f 91/91/91 92/92/92 84/84/84
f 10/10/10 77/77/77 69/69/69
f 69/69/69 77/77/77 78/78/78
f 70/70/70 78/78/78 79/79/79
f 79/79/79 80/80/80 72/72/72
f 72/72/72 80/80/80 81/81/81
f 73/73/73 81/81/81 82/82/82
f 82/82/82 83/83/83 75/75/75
f 83/83/83 84/84/84 76/76/76
f 9/9/9 69/69/69 61/61/61
f 69/69/69 70/70/70 62/62/62
f 62/62/62 70/70/70 71/71/71
f 63/63/63 71/71/71 72/72/72
f 72/72/72 73/73/73 65/65/65
f 65/65/65 73/73/73 74/74/74
f 66/66/66 74/74/74 75/75/75
f 67/67/67 75/75/75 76/76/76
f 8/8/8 61/61/61 53/53/53
f 53/53/53 61/61/61 62/62/62
f 54/54/54 62/62/62 63/63/63
f 55/55/55 63/63/63 64/64/64
f 64/64/64 65/65/65 57/57/57
f 57/57/57 65/65/65 66/66/66
f 58/58/58 66/66/66 67/67/67
f 59/59/59 67/67/67 68/68/68
f 6/6/6 7/7/7 53/53/53
f 45/45/45 53/53/53 54/54/54
f 54/54/54 55/55/55 47/47/47
f 55/55/55 56/56/56 48/48/48
f 56/56/56 57/57/57 49/49/49
f 49/49/49 57/57/57 58/58/58
f 58/58/58 59/59/59 51/51/51
f 59/59/59 60/60/60 52/52/52
f 6/6/6 45/45/45 37/37/37
f 45/45/45 46/46/46 38/38/38
f 46/46/46 47/47/47 39/39/39
f 39/39/39 47/47/47 48/48/48
f 40/40/40 48/48/48 49/49/49
f 41/41/41 49/49/49 50/50/50
f 50/50/50 51/51/51 43/43/43
f 51/51/51 52/52/52 44/44/44
f 5/5/5 37/37/37 28/28/28
f 28/28/28 37/37/37 38/38/38
f 27/27/27 38/38/38 39/39/39
f 26/26/26 39/39/39 40/40/40
f 40/40/40 41/41/41 24/24/24
f 41/41/41 42/42/42 23/23/23
f 23/23/23 42/42/42 43/43/43
f 43/43/43 44/44/44 21/21/21
f 2/2/2 29/29/29 93/93/93
f 93/93/93 29/29/29 30/30/30
f 30/30/30 31/31/31 95/95/95
f 31/31/31 32/32/32 96/96/96
f 32/32/32 33/33/33 97/97/97
f 33/33/33 34/34/34 98/98/98
f 98/98/98 34/34/34 35/35/35
f 99/99/99 35/35/35 36/36/36
