o GNATVCloth
v -4.9398 -4.98523 0.397505
v 5.07238 -4.98017 0.425271
v -5.01298 5.02105 0.004229
v 4.98702 5.02105 0.004229
v -3.82938 -4.99297 0.358259
v -2.71733 -4.99577 0.334657
v -1.60659 -4.99169 0.247734
v -0.493198 -5.00201 0.239967
v 0.621616 -5.00673 0.259673
v 1.73632 -5.00746 0.283285
v 2.85216 -5.00746 0.244938
v 3.96636 -4.99538 0.298106
v 3.87057 4.96358 0.102818
v 2.78777 4.89307 0.236116
v 1.676 4.86787 0.376972
v 0.557296 4.88051 0.33286
v -0.556423 4.87562 0.287486
v -1.64614 4.90805 0.1854
v -2.76568 4.94072 0.16937
v -3.88346 4.97856 0.0595404
v -4.99201 3.90742 0.0554806
v -4.97288 2.79322 0.0753129
v -4.96003 1.67999 0.0999382
v -4.95285 0.56768 0.136747
v -4.94496 -0.542364 0.201024
v -4.93757 -1.65548 0.256994
v -4.93084 -2.76279 0.371128
v -4.92759 -3.87314 0.431176
v 5.07251 -3.87249 0.342271
v 5.07275 -2.75869 0.326103
v 5.06883 -1.64967 0.247963
v 5.05913 -0.540227 0.159257
v 5.05017 0.569742 0.10701
v 5.04061 1.68224 0.0799719
v 5.02951 2.79508 0.0595523
v 5.00826 3.9079 0.0328708
v -3.76074 -3.8392 0.320633
v -3.7237 -3.19228 0.31074
v -3.59234 -1.90795 0.176109
v -4.0606 -0.260753 0.145185
v -4.09605 0.754838 0.163019
v -4.09678 1.53931 0.134835
v -4.05101 2.8354 0.112184
v -3.92231 3.91092 -0.0643489
v -2.63716 -3.9733 0.254008
v -2.71553 -2.71683 0.186698
v -2.59966 -2.12221 0.186917
v -2.6955 -0.581312 0.295003
v -2.74201 0.549151 0.29169
v -2.68063 1.59678 0.219104
v -2.82187 2.91973 -0.0123154
v -2.75606 3.59377 0.177969
v -1.58146 -4.19406 0.261697
v -1.42007 -2.8821 0.245236
v -1.82386 -1.59918 0.326362
v -1.81604 -0.802322 0.297145
v -1.4808 0.689205 0.175125
v -1.95191 1.73372 0.102597
v -1.70856 2.76729 0.277513
v -1.55435 3.76017 0.231531
v -0.164766 -4.26578 0.245756
v -0.51044 -2.8384 0.255177
v -0.478599 -1.69537 0.275809
v -0.782726 -0.729458 0.233918
v -0.558774 0.489904 0.216272
v -0.334268 1.52286 0.258201
v -0.544639 2.7071 0.303979
v -0.737182 3.56611 0.251281
v 0.804884 -3.84262 0.267672
v 0.882854 -2.55608 0.212146
v 0.592343 -1.76541 0.239142
v 0.666526 -0.442537 0.237134
v 0.629815 0.463677 0.245468
v 0.338178 1.5783 0.252257
v 0.55642 2.55653 0.258049
v 0.563198 3.79214 0.248773
v 2.01744 -3.61959 0.24032
v 1.74381 -2.80932 0.222097
v 1.89121 -1.88413 0.268222
v 2.04078 -0.360307 0.234832
v 2.02067 0.326782 0.226665
v 1.86251 1.58617 0.187817
v 1.44753 2.86738 0.285264
v 1.4975 3.71537 0.233708
v 2.8541 -3.89356 0.248023
v 3.16743 -2.81521 0.295501
v 3.02244 -1.93644 0.226858
v 2.77951 -0.476635 0.294966
v 3.02271 0.313729 0.266437
v 3.11467 1.61269 0.18579
v 2.81182 3.1746 0.212849
v 2.7757 3.53902 0.231493
v 3.97718 -3.94906 0.278374
v 3.72879 -2.69342 0.331871
v 3.94216 -1.65735 0.285444
v 3.87396 -0.705336 0.223636
v 3.9344 0.303367 0.209199
v 4.22447 1.81321 0.144589
v 4.17692 2.76904 0.0776936
v 4.05951 3.8922 0.0112278
vt 0.0001 0.0001
vt 0.9999 0.0001
vt 0.0001 0.9999
vt 0.9999 0.9999
vt 0.111189 0.0001
vt 0.222278 0.0001
vt 0.333367 0.0001
vt 0.444455 0.0001
vt 0.555544 0.0001
vt 0.666633 0.0001
vt 0.777722 0.0001
vt 0.888811 0.0001
vt 0.888811 0.9999
vt 0.777722 0.9999
vt 0.666633 0.9999
vt 0.555544 0.9999
vt 0.444455 0.9999
vt 0.333367 0.9999
vt 0.222278 0.9999
vt 0.111189 0.9999
vt 0.0001 0.888811
vt 0.0001 0.777722
vt 0.0001 0.666633
vt 0.0001 0.555544
vt 0.0001 0.444456
vt 0.0001 0.333367
vt 0.0001 0.222278
vt 0.0001 0.111189
vt 0.9999 0.111189
vt 0.9999 0.222278
vt 0.9999 0.333367
vt 0.9999 0.444456
vt 0.9999 0.555544
vt 0.9999 0.666633
vt 0.9999 0.777722
vt 0.9999 0.888811
vt 0.11727 0.115399
vt 0.120778 0.180369
vt 0.134636 0.309595
vt 0.088728 0.473895
vt 0.085886 0.575352
vt 0.086211 0.65375
vt 0.092207 0.78313
vt 0.106956 0.892282
vt 0.22987 0.102869
vt 0.221803 0.229552
vt 0.233521 0.288953
vt 0.225541 0.443179
vt 0.221596 0.556167
vt 0.227801 0.661237
vt 0.214896 0.795203
vt 0.22542 0.865181
vt 0.335524 0.082127
vt 0.351143 0.213907
vt 0.311934 0.342467
vt 0.313159 0.422214
vt 0.347791 0.572605
vt 0.301482 0.677733
vt 0.329031 0.783086
vt 0.344903 0.885466
vt 0.476837 0.074882
vt 0.441952 0.218774
vt 0.445749 0.333088
vt 0.416414 0.43099
vt 0.439746 0.552976
vt 0.463203 0.656843
vt 0.444252 0.77653
vt 0.426137 0.866051
vt 0.573419 0.117409
vt 0.581125 0.246686
vt 0.552512 0.326
vt 0.561075 0.459693
vt 0.558356 0.550596
vt 0.530299 0.662189
vt 0.553275 0.760113
vt 0.555478 0.888821
vt 0.694433 0.13996
vt 0.667048 0.221666
vt 0.681985 0.314267
vt 0.698218 0.467249
vt 0.696819 0.535952
vt 0.68253 0.662758
vt 0.642062 0.791726
vt 0.648523 0.877957
vt 0.778029 0.111667
vt 0.809426 0.219523
vt 0.794923 0.307783
vt 0.772028 0.454562
vt 0.796846 0.533374
vt 0.807262 0.663157
vt 0.778581 0.821037
vt 0.775122 0.858219
vt 0.890224 0.104741
vt 0.865679 0.23076
vt 0.887326 0.334104
vt 0.881307 0.429754
vt 0.887973 0.53063
vt 0.918106 0.681428
vt 0.915043 0.778027
vt 0.904815 0.89094
vn 0.0350915 -0.0306303 0.998915
vn -0.0889328 0.0472797 0.994915
vn 0.0292945 -0.0329336 0.999028
vn 0.0341205 -0.0218399 0.999179
vn 0.050006 0.0092034 0.998706
vn 0.0440863 0.040677 0.998199
vn 0.0424703 -0.0188238 0.99892
vn -8.3633e-05 -0.010098 0.999949
vn -0.0199658 -0.00235626 0.999798
vn 0.00788857 0.0129542 0.999885
vn -0.013565 0.00459637 0.999897
vn -0.0812125 0.0196324 0.996503
vn 0.108626 -0.0656402 0.991913
vn 0.106685 -0.0533235 0.992862
vn 0.0437245 -0.129906 0.990562
vn -0.0236599 -0.0904561 0.995619
vn -0.0388914 -0.0242028 0.99895
vn -0.0527545 0.0358878 0.997962
vn -0.0907868 -0.015338 0.995752
vn -0.0768966 -0.112163 0.99071
vn 0.0602237 0.0713169 0.995634
vn -0.0408404 0.0193536 0.998978
vn -0.0376497 0.027266 0.998919
vn -0.00664704 0.0241595 0.999686
vn 0.0456999 0.0542701 0.99748
vn 0.0643141 0.0636756 0.995896
vn 0.0771991 0.0840846 0.993464
vn 0.0729797 0.015056 0.99722
vn -0.061284 0.0445607 0.997125
vn -0.00448519 0.0215786 0.999757
vn 0.0361191 0.0724849 0.996715
vn 0.0585262 0.0462394 0.997214
vn 0.0825611 0.0329154 0.996042
vn 0.0824189 0.0220133 0.996355
vn 0.0405424 0.0380949 0.998451
vn -0.00880278 0.0354171 0.999334
vn 0.0674706 0.0306232 0.997251
vn 0.0797873 0.0544445 0.995324
vn 0.0225639 0.0357181 0.999107
vn -0.0268751 0.0132049 0.999552
vn -0.0568352 0.0231555 0.998115
vn -0.0482182 0.0274972 0.998458
vn 0.0153095 0.0799411 0.996682
vn -0.0444766 -0.0162326 0.998879
vn 0.0314822 0.0477636 0.998362
vn 0.015623 0.0433537 0.998938
vn -0.0638323 -0.0474187 0.996833
vn -0.0615823 -0.0207426 0.997886
vn 0.00279305 0.0403772 0.999181
vn 0.0252858 0.0928187 0.995362
vn -0.0864063 -0.0104118 0.996206
vn -0.169084 -0.0831353 0.982089
vn 0.0142189 0.00727167 0.999872
vn -0.0267647 -0.011686 0.999573
vn -0.0162519 -0.0164957 0.999732
vn 0.0409599 0.0413472 0.998305
vn 0.00637315 0.0427934 0.999064
vn -0.0204957 0.00858065 0.999753
vn -0.110437 -0.0569523 0.99225
vn -0.040892 0.0261402 0.998822
vn -0.00697789 -0.00619476 0.999956
vn 0.00887023 -0.0024347 0.999958
vn 0.0203849 0.00114352 0.999792
vn 0.0168144 0.0397959 0.999066
vn -0.0222241 -0.00971513 0.999706
vn -0.03119 -0.0236839 0.999233
vn -0.0136886 -0.020914 0.999688
vn -0.0127467 0.0224751 0.999666
vn -0.000244561 0.01751 0.999847
vn 0.00145816 -0.00520184 0.999985
vn 0.0107711 -0.016325 0.999809
vn -0.00177118 0.0091069 0.999957
vn 0.0044046 0.00128509 0.99999
vn 0.016324 -0.0148594 0.999756
vn 0.015842 -0.0195864 0.999683
vn -0.000221758 -0.00701187 0.999975
vn -0.00746745 0.0107764 0.999914
vn -0.0125496 0.00749401 0.999893
vn -0.0115973 -0.0188213 0.999756
vn -0.0387369 0.0181772 0.999084
vn -0.0180188 0.0270655 0.999471
vn 0.0237126 -0.0136015 0.999626
vn 0.017878 -0.00124943 0.999839
vn 0.0220226 -0.039178 0.99899
vn -0.00845314 -0.00963253 0.999918
vn -0.0474778 0.0021501 0.99887
vn -0.0239271 0.0173967 0.999562
vn -0.00585896 0.00402375 0.999975
vn 0.0233183 0.0391836 0.99896
vn 0.0259095 0.0351787 0.999045
vn 0.0713 -0.00352393 0.997449
vn 0.0863594 -0.0232554 0.995993
vn -0.0490155 -0.00064319 0.998798
vn -0.0410826 0.0149418 0.999044
vn -0.0183121 0.0603146 0.998011
vn 0.0336869 0.0294186 0.998999
vn 0.0623325 0.0316359 0.997554
vn 0.0539441 0.0415228 0.99768
vn 0.0431257 0.0493663 0.997849
vn 0.0914846 -0.00228496 0.995804
f 100/100/100 4/4/4 13/13/13
f 44/44/44 3/3/3 21/21/21
f 44/44/44 19/19/19 20/20/20
f 60/60/60 19/19/19 52/52/52
f 60/60/60 17/17/17 18/18/18
f 76/76/76 17/17/17 68/68/68
f 84/84/84 16/16/16 76/76/76
f 84/84/84 14/14/14 15/15/15
f 100/100/100 14/14/14 92/92/92
f 11/11/11 93/93/93 85/85/85
f 93/93/93 86/86/86 85/85/85
f 94/94/94 87/87/87 86/86/86
f 87/87/87 96/96/96 88/88/88
f 96/96/96 89/89/89 88/88/88
f 97/97/97 90/90/90 89/89/89
f 90/90/90 99/99/99 91/91/91
f 91/91/91 100/100/100 92/92/92
f 10/10/10 85/85/85 77/77/77
f 77/77/77 86/86/86 78/78/78
f 78/78/78 87/87/87 79/79/79
f 79/79/79 88/88/88 80/80/80
f 88/88/88 81/81/81 80/80/80
f 81/81/81 90/90/90 82/82/82
f 82/82/82 91/91/91 83/83/83
f 91/91/91 84/84/84 83/83/83
f 10/10/10 69/69/69 9/9/9
f 69/69/69 78/78/78 70/70/70
f 70/70/70 79/79/79 71/71/71
f 79/79/79 72/72/72 71/71/71
f 72/72/72 81/81/81 73/73/73
f 73/73/73 82/82/82 74/74/74
f 82/82/82 75/75/75 74/74/74
f 83/83/83 76/76/76 75/75/75
f 9/9/9 61/61/61 8/8/8
f 69/69/69 62/62/62 61/61/61
f 62/62/62 71/71/71 63/63/63
f 63/63/63 72/72/72 64/64/64
f 72/72/72 65/65/65 64/64/64
f 65/65/65 74/74/74 66/66/66
f 66/66/66 75/75/75 67/67/67
f 67/67/67 76/76/76 68/68/68
f 8/8/8 53/53/53 7/7/7
f 53/53/53 62/62/62 54/54/54
f 54/54/54 63/63/63 55/55/55
f 55/55/55 64/64/64 56/56/56
f 64/64/64 57/57/57 56/56/56
f 57/57/57 66/66/66 58/58/58
f 58/58/58 67/67/67 59/59/59
f 59/59/59 68/68/68 60/60/60
f 6/6/6 53/53/53 45/45/45
f 45/45/45 54/54/54 46/46/46
f 54/54/54 47/47/47 46/46/46
f 55/55/55 48/48/48 47/47/47
f 56/56/56 49/49/49 48/48/48
f 49/49/49 58/58/58 50/50/50
f 58/58/58 51/51/51 50/50/50
f 59/59/59 52/52/52 51/51/51
f 6/6/6 37/37/37 5/5/5
f 45/45/45 38/38/38 37/37/37
f 46/46/46 39/39/39 38/38/38
f 39/39/39 48/48/48 40/40/40
f 40/40/40 49/49/49 41/41/41
f 41/41/41 50/50/50 42/42/42
f 50/50/50 43/43/43 42/42/42
f 51/51/51 44/44/44 43/43/43
f 5/5/5 28/28/28 1/1/1
f 28/28/28 38/38/38 27/27/27
f 27/27/27 39/39/39 26/26/26
f 26/26/26 40/40/40 25/25/25
f 40/40/40 24/24/24 25/25/25
f 41/41/41 23/23/23 24/24/24
f 23/23/23 43/43/43 22/22/22
f 43/43/43 21/21/21 22/22/22
f 2/2/2 93/93/93 12/12/12
f 93/93/93 30/30/30 94/94/94
f 30/30/30 95/95/95 94/94/94
f 31/31/31 96/96/96 95/95/95
f 32/32/32 97/97/97 96/96/96
f 33/33/33 98/98/98 97/97/97
f 98/98/98 35/35/35 99/99/99
f 99/99/99 36/36/36 100/100/100
f 100/100/100 36/36/36 4/4/4
f 44/44/44 20/20/20 3/3/3
f 44/44/44 52/52/52 19/19/19
f 60/60/60 18/18/18 19/19/19
f 60/60/60 68/68/68 17/17/17
f 76/76/76 16/16/16 17/17/17
f 84/84/84 15/15/15 16/16/16
f 84/84/84 92/92/92 14/14/14
f 100/100/100 13/13/13 14/14/14
f 11/11/11 12/12/12 93/93/93
f 93/93/93 94/94/94 86/86/86
f 94/94/94 95/95/95 87/87/87
f 87/87/87 95/95/95 96/96/96
f 96/96/96 97/97/97 89/89/89
f 97/97/97 98/98/98 90/90/90
f 90/90/90 98/98/98 99/99/99
f 91/91/91 99/99/99 100/100/100
f 10/10/10 11/11/11 85/85/85
f 77/77/77 85/85/85 86/86/86
f 78/78/78 86/86/86 87/87/87
f 79/79/79 87/87/87 88/88/88
f 88/88/88 89/89/89 81/81/81
f 81/81/81 89/89/89 90/90/90
f 82/82/82 90/90/90 91/91/91
f 91/91/91 92/92/92 84/84/84
f 10/10/10 77/77/77 69/69/69
f 69/69/69 77/77/77 78/78/78
f 70/70/70 78/78/78 79/79/79
f 79/79/79 80/80/80 72/72/72
f 72/72/72 80/80/80 81/81/81
f 73/73/73 81/81/81 82/82/82
f 82/82/82 83/83/83 75/75/75
f 83/83/83 84/84/84 76/76/76
f 9/9/9 69/69/69 61/61/61
f 69/69/69 70/70/70 62/62/62
f 62/62/62 70/70/70 71/71/71
f 63/63/63 71/71/71 72/72/72
f 72/72/72 73/73/73 65/65/65
f 65/65/65 73/73/73 74/74/74
f 66/66/66 74/74/74 75/75/75
f 67/67/67 75/75/75 76/76/76
f 8/8/8 61/61/61 53/53/53
f 53/53/53 61/61/61 62/62/62
f 54/54/54 62/62/62 63/63/63
f 55/55/55 63/63/63 64/64/64
f 64/64/64 65/65/65 57/57/57
f 57/57/57 65/65/65 66/66/66
f 58/58/58 66/66/66 67/67/67
f 59/59/59 67/67/67 68/68/68
f 6/6/6 7/7/7 53/53/53
f 45/45/45 53/53/53 54/54/54
f 54/54/54 55/55/55 47/47/47
f 55/55/55 56/56/56 48/48/48
f 56/56/56 57/57/57 49/49/49
f 49/49/49 57/57/57 58/58/58
f 58/58/58 59/59/59 51/51/51
f 59/59/59 60/60/60 52/52/52
f 6/6/6 45/45/45 37/37/37
f 45/45/45 46/46/46 38/38/38
f 46/46/46 47/47/47 39/39/39
f 39/39/39 47/47/47 48/48/48
f 40/40/40 48/48/48 49/49/49
f 41/41/41 49/49/49 50/50/50
f 50/50/50 51/51/51 43/43/43
f 51/51/51 52/52/52 44/44/44
f 5/5/5 37/37/37 28/28/28
f 28/28/28 37/37/37 38/38/38
f 27/27/27 38/38/38 39/39/39
f 26/26/26 39/39/39 40/40/40
f 40/40/40 41/41/41 24/24/24
f 41/41/41 42/42/42 23/23/23
f 23/23/23 42/42/42 43/43/43
f 43/43/43 44/44/44 21/21/21
f 2/2/2 29/29/29 93/93/93
f 93/93/93 29/29/29 30/30/30
f 30/30/30 31/31/31 95/95/95
f 31/31/31 32/32/32 96/96/96
f 32/32/32 33/33/33 97/97/97
f 33/33/33 34/34/34 98/98/98
f 98/98/98 34/34/34 35/35/35
f 99/99/99 35/35/35 36/36/36
