o GNATVCloth
v -5.01077 -4.97406 0.610869
v 5.05296 -4.98464 0.40093
v -5.01298 5.02105 0.004229
v 4.98702 5.02105 0.004229
v -3.90534 -5.00484 0.487906
v -2.78759 -5.0362 0.481794
v -1.66649 -5.05864 0.444797
v -0.54331 -5.07093 0.449485
v 0.581106 -5.07225 0.461393
v 1.70294 -5.05957 0.442571
v 2.82358 -5.03973 0.433139
v 3.94065 -5.02069 0.360285
v 3.87252 4.89559 0.213608
v 2.76482 4.79835 0.412389
v 1.64609 4.74431 0.332127
v 0.52796 4.70162 0.334348
v -0.568447 4.6851 0.531098
v -1.68869 4.69489 0.566919
v -2.81009 4.75079 0.500409
v -3.91111 4.86572 0.271621
v -4.97313 3.90877 0.0841435
v -4.96463 2.7946 0.131679
v -4.96329 1.68126 0.179121
v -4.96662 0.568303 0.219829
v -4.97439 -0.544121 0.2588
v -4.98224 -1.65687 0.298534
v -4.98968 -2.7668 0.369829
v -5.00106 -3.87616 0.454743
v 5.03772 -3.87758 0.331874
v 5.02339 -2.77215 0.208425
v 5.0095 -1.65845 0.187509
v 4.99833 -0.546507 0.193348
v 4.98754 0.566264 0.18891
v 4.9778 1.67969 0.164921
v 4.97294 2.79372 0.12835
v 4.96582 3.90708 0.0648239
v -3.82671 -3.86453 0.412177
v -3.78816 -3.21967 0.319886
v -3.63767 -1.93179 0.26927
v -4.08547 -0.274557 0.222121
v -4.10829 0.741379 0.180941
v -4.10171 1.52391 0.128592
v -4.0431 2.81681 0.0561617
v -3.92388 3.88454 -0.164917
v -2.70135 -4.02471 0.322031
v -2.77101 -2.75486 0.313524
v -2.64844 -2.16388 0.285605
v -2.72017 -0.619172 0.278246
v -2.75021 0.512465 0.206204
v -2.67818 1.54865 0.030416
v -2.84659 2.85554 -0.267782
v -2.76726 3.48645 0.0406227
v -1.63992 -4.25416 0.36611
v -1.47802 -2.9383 0.408546
v -1.86525 -1.64666 0.375994
v -1.84679 -0.854358 0.297961
v -1.51566 0.596851 -0.0850526
v -1.98615 1.64202 -0.262122
v -1.71003 2.67686 -0.106722
v -1.57849 3.59978 0.29831
v -0.215736 -4.33392 0.400754
v -0.566495 -2.90344 0.422498
v -0.52631 -1.76489 0.321249
v -0.818149 -0.795655 0.186035
v -0.593373 0.398316 -0.00763113
v -0.367152 1.42367 -0.0500987
v -0.577172 2.56656 0.143375
v -0.758673 3.39177 0.313814
v 0.7555 -3.90383 0.355543
v 0.832677 -2.62009 0.362737
v 0.541963 -1.83967 0.286812
v 0.625738 -0.542762 -0.030868
v 0.596273 0.362969 -0.0172659
v 0.30544 1.47382 -0.0485101
v 0.524701 2.43387 0.0862124
v 0.550621 3.59493 0.360717
v 1.97141 -3.66224 0.305026
v 1.69604 -2.85708 0.41796
v 1.83689 -1.92895 0.394931
v 1.99173 -0.419567 0.144126
v 1.98842 0.235927 -0.0525148
v 1.83105 1.50055 -0.0734096
v 1.40869 2.77346 0.00447719
v 1.49302 3.51664 0.323667
v 2.81471 -3.93181 0.309637
v 3.12043 -2.84618 0.306999
v 2.96851 -1.96721 0.36451
v 2.72152 -0.506486 0.296932
v 2.966 0.278202 0.169541
v 3.08132 1.55118 -0.0938523
v 2.76302 3.11553 -0.174733
v 2.7481 3.43268 0.0202178
v 3.94088 -3.97318 0.334574
v 3.68255 -2.71911 0.304984
v 3.88881 -1.68199 0.302637
v 3.81894 -0.725044 0.314352
v 3.87224 0.286335 0.281554
v 4.15814 1.80015 0.150278
v 4.13527 2.75239 -0.0162265
v 4.02944 3.87243 -0.141683
vt 0.0001 0.0001
vt 0.9999 0.0001
vt 0.0001 0.9999
vt 0.9999 0.9999
vt 0.111189 0.0001
vt 0.222278 0.0001
vt 0.333367 0.0001
vt 0.444455 0.0001
vt 0.555544 0.0001
vt 0.666633 0.0001
vt 0.777722 0.0001
vt 0.888811 0.0001
vt 0.888811 0.9999
vt 0.777722 0.9999
vt 0.666633 0.9999
vt 0.555544 0.9999
vt 0.444455 0.9999
vt 0.333367 0.9999
vt 0.222278 0.9999
vt 0.111189 0.9999
vt 0.0001 0.888811
vt 0.0001 0.777722
vt 0.0001 0.666633
vt 0.0001 0.555544
vt 0.0001 0.444456
vt 0.0001 0.333367
vt 0.0001 0.222278
vt 0.0001 0.111189
vt 0.9999 0.111189
vt 0.9999 0.222278
vt 0.9999 0.333367
vt 0.9999 0.444456
vt 0.9999 0.555544
vt 0.9999 0.666633
vt 0.9999 0.777722
vt 0.9999 0.888811
vt 0.11727 0.115399
vt 0.120778 0.180369
vt 0.134636 0.309595
vt 0.088728 0.473895
vt 0.085886 0.575352
vt 0.086211 0.65375
vt 0.092207 0.78313
vt 0.106956 0.892282
vt 0.22987 0.102869
vt 0.221803 0.229552
vt 0.233521 0.288953
vt 0.225541 0.443179
vt 0.221596 0.556167
vt 0.227801 0.661237
vt 0.214896 0.795203
vt 0.22542 0.865181
vt 0.335524 0.082127
vt 0.351143 0.213907
vt 0.311934 0.342467
vt 0.313159 0.422214
vt 0.347791 0.572605
vt 0.301482 0.677733
vt 0.329031 0.783086
vt 0.344903 0.885466
vt 0.476837 0.074882
vt 0.441952 0.218774
vt 0.445749 0.333088
vt 0.416414 0.43099
vt 0.439746 0.552976
vt 0.463203 0.656843
vt 0.444252 0.77653
vt 0.426137 0.866051
vt 0.573419 0.117409
vt 0.581125 0.246686
vt 0.552512 0.326
vt 0.561075 0.459693
vt 0.558356 0.550596
vt 0.530299 0.662189
vt 0.553275 0.760113
vt 0.555478 0.888821
vt 0.694433 0.13996
vt 0.667048 0.221666
vt 0.681985 0.314267
vt 0.698218 0.467249
vt 0.696819 0.535952
vt 0.68253 0.662758
vt 0.642062 0.791726
vt 0.648523 0.877957
vt 0.778029 0.111667
vt 0.809426 0.219523
vt 0.794923 0.307783
vt 0.772028 0.454562
vt 0.796846 0.533374
vt 0.807262 0.663157
vt 0.778581 0.821037
vt 0.775122 0.858219
vt 0.890224 0.104741
vt 0.865679 0.23076
vt 0.887326 0.334104
vt 0.881307 0.429754
vt 0.887973 0.53063
vt 0.918106 0.681428
vt 0.915043 0.778027
vt 0.904815 0.89094
vn 0.1133 0.138898 0.983804
vn -0.0201393 0.0433864 0.998855
vn -0.0195549 -0.165488 0.986018
vn -0.00456512 -0.122272 0.992486
vn 0.0521251 0.089628 0.99461
vn 0.0337116 0.116544 0.992613
vn 0.0158348 0.0968172 0.995176
vn -0.0112108 0.0809732 0.996653
vn 0.00403319 0.0825746 0.996577
vn 0.0173145 0.0964101 0.995191
vn 0.0177281 0.0820951 0.996467
vn 0.0136909 0.0245328 0.999605
vn 0.201034 -0.29368 0.934525
vn 0.137841 -0.212596 0.967369
vn -0.0347235 -0.00255732 0.999394
vn 0.0734634 0.0148851 0.997187
vn 0.0345077 -0.13355 0.990441
vn -0.0202922 -0.240095 0.970537
vn -0.185771 -0.330701 0.925271
vn -0.247507 -0.391155 0.886418
vn 0.18202 0.0982445 0.978375
vn 0.080575 0.0428164 0.995829
vn 0.0642547 0.0494254 0.996709
vn 0.0351614 0.0374985 0.998678
vn 0.0305688 0.0351175 0.998916
vn 0.0314654 0.045199 0.998482
vn 0.052823 0.0574079 0.996952
vn 0.0633428 0.104539 0.992502
vn -0.00509443 0.0865786 0.996232
vn 0.0599061 0.0394521 0.997424
vn 0.102252 0.00368265 0.994752
vn 0.0940945 0.00922507 0.995521
vn 0.0436983 0.0335046 0.998483
vn -0.0138765 0.0270802 0.999537
vn -0.120946 0.0848049 0.98903
vn -0.202444 0.0668449 0.97701
vn 0.0551337 0.110412 0.992355
vn 0.0412737 0.0719329 0.996555
vn 0.00691091 0.034973 0.999364
vn 0.00770006 0.0385208 0.999228
vn 0.0351649 0.0695281 0.99696
vn 0.0684491 0.0593741 0.995886
vn 0.147665 0.111938 0.982683
vn -0.052829 -0.167003 0.98454
vn 0.0123705 0.0706876 0.997422
vn -0.0304131 0.0318198 0.999031
vn -0.0619281 0.020907 0.997862
vn -0.0321994 0.0410954 0.998636
vn 0.109451 0.133244 0.985021
vn 0.187655 0.154199 0.970056
vn 0.0378068 -0.0436945 0.998329
vn -0.217677 -0.372382 0.902191
vn -0.0118001 0.0496633 0.998696
vn -0.0404868 0.0180468 0.999017
vn -0.00326399 0.0631499 0.997999
vn 0.0812975 0.139751 0.986844
vn 0.0468448 0.17405 0.983622
vn 0.0418037 0.0546072 0.997632
vn -0.181544 -0.271412 0.945186
vn -0.0911816 -0.29201 0.952059
vn -0.000237745 0.0420165 0.999117
vn 0.0133854 0.0311229 0.999426
vn 0.0471855 0.129559 0.990448
vn 0.0739367 0.160366 0.984285
vn 0.00288025 0.0702492 0.997525
vn -0.0510592 -0.0468728 0.997595
vn -0.0934793 -0.187918 0.977726
vn -0.0843702 -0.232751 0.96887
vn 0.0197502 0.0201118 0.999603
vn -0.0264225 0.0391437 0.998884
vn -0.00711121 0.147735 0.989001
vn -0.00401639 0.153461 0.988147
vn 0.0167115 0.0107207 0.999803
vn 0.00924062 -0.0358593 0.999314
vn 0.0603383 -0.156111 0.985895
vn 0.0589071 -0.169524 0.983764
vn 0.0372343 -0.00777651 0.999276
vn 0.021562 -0.0382959 0.999034
vn -0.0665502 0.110546 0.99164
vn -0.158504 0.230814 0.960001
vn -0.100642 0.149415 0.983639
vn 0.047081 -0.00870471 0.998853
vn 0.129854 -0.218726 0.967108
vn 0.0844725 -0.230262 0.969455
vn -0.00266047 0.0654817 0.99785
vn 0.0243526 -0.0318469 0.999196
vn 0.0407448 -0.0023167 0.999167
vn -0.0897435 0.157749 0.983393
vn -0.136813 0.170493 0.975815
vn -0.133389 0.118489 0.983955
vn 0.0926643 -0.185697 0.978228
vn 0.218024 -0.390659 0.894344
vn 0.00613643 0.050468 0.998707
vn 0.0463197 -0.00483084 0.998915
vn 0.0830965 -0.00313143 0.996537
vn 0.0369804 0.0359154 0.99867
vn -0.0419336 0.081982 0.995751
vn -0.10779 0.0983779 0.989294
vn -0.169412 0.100617 0.980396
vn 0.0548513 -0.165688 0.984652
f 100/100/100 4/4/4 13/13/13
f 44/44/44 3/3/3 21/21/21
f 44/44/44 19/19/19 20/20/20
f 60/60/60 19/19/19 52/52/52
f 60/60/60 17/17/17 18/18/18
f 76/76/76 17/17/17 68/68/68
f 84/84/84 16/16/16 76/76/76
f 84/84/84 14/14/14 15/15/15
f 100/100/100 14/14/14 92/92/92
f 11/11/11 93/93/93 85/85/85
f 93/93/93 86/86/86 85/85/85
f 94/94/94 87/87/87 86/86/86
f 87/87/87 96/96/96 88/88/88
f 96/96/96 89/89/89 88/88/88
f 97/97/97 90/90/90 89/89/89
f 90/90/90 99/99/99 91/91/91
f 91/91/91 100/100/100 92/92/92
f 10/10/10 85/85/85 77/77/77
f 77/77/77 86/86/86 78/78/78
f 78/78/78 87/87/87 79/79/79
f 79/79/79 88/88/88 80/80/80
f 88/88/88 81/81/81 80/80/80
f 81/81/81 90/90/90 82/82/82
f 82/82/82 91/91/91 83/83/83
f 91/91/91 84/84/84 83/83/83
f 10/10/10 69/69/69 9/9/9
f 69/69/69 78/78/78 70/70/70
f 70/70/70 79/79/79 71/71/71
f 79/79/79 72/72/72 71/71/71
f 72/72/72 81/81/81 73/73/73
f 73/73/73 82/82/82 74/74/74
f 82/82/82 75/75/75 74/74/74
f 83/83/83 76/76/76 75/75/75
f 9/9/9 61/61/61 8/8/8
f 69/69/69 62/62/62 61/61/61
f 62/62/62 71/71/71 63/63/63
f 63/63/63 72/72/72 64/64/64
f 72/72/72 65/65/65 64/64/64
f 65/65/65 74/74/74 66/66/66
f 66/66/66 75/75/75 67/67/67
f 67/67/67 76/76/76 68/68/68
f 8/8/8 53/53/53 7/7/7
f 53/53/53 62/62/62 54/54/54
f 54/54/54 63/63/63 55/55/55
f 55/55/55 64/64/64 56/56/56
f 64/64/64 57/57/57 56/56/56
f 57/57/57 66/66/66 58/58/58
f 58/58/58 67/67/67 59/59/59
f 59/59/59 68/68/68 60/60/60
f 6/6/6 53/53/53 45/45/45
f 45/45/45 54/54/54 46/46/46
f 54/54/54 47/47/47 46/46/46
f 55/55/55 48/48/48 47/47/47
f 56/56/56 49/49/49 48/48/48
f 49/49/49 58/58/58 50/50/50
f 58/58/58 51/51/51 50/50/50
f 59/59/59 52/52/52 51/51/51
f 6/6/6 37/37/37 5/5/5
f 45/45/45 38/38/38 37/37/37
f 46/46/46 39/39/39 38/38/38
f 39/39/39 48/48/48 40/40/40
f 40/40/40 49/49/49 41/41/41
f 41/41/41 50/50/50 42/42/42
f 50/50/50 43/43/43 42/42/42
f 51/51/51 44/44/44 43/43/43
f 5/5/5 28/28/28 1/1/1
f 28/28/28 38/38/38 27/27/27
f 27/27/27 39/39/39 26/26/26
f 26/26/26 40/40/40 25/25/25
f 40/40/40 24/24/24 25/25/25
f 41/41/41 23/23/23 24/24/24
f 23/23/23 43/43/43 22/22/22
f 43/43/43 21/21/21 22/22/22
f 2/2/2 93/93/93 12/12/12
f 93/93/93 30/30/30 94/94/94
f 30/30/30 95/95/95 94/94/94
f 31/31/31 96/96/96 95/95/95
f 32/32/32 97/97/97 96/96/96
f 33/33/33 98/98/98 97/97/97
f 98/98/98 35/35/35 99/99/99
f 99/99/99 36/36/36 100/100/100
f 100/100/100 36/36/36 4/4/4
f 44/44/44 20/20/20 3/3/3
f 44/44/44 52/52/52 19/19/19
f 60/60/60 18/18/18 19/19/19
f 60/60/60 68/68/68 17/17/17
f 76/76/76 16/16/16 17/17/17
f 84/84/84 15/15/15 16/16/16
f 84/84/84 92/92/92 14/14/14
f 100/100/100 13/13/13 14/14/14
f 11/11/11 12/12/12 93/93/93
f 93/93/93 94/94/94 86/86/86
f 94/94/94 95/95/95 87/87/87
f 87/87/87 95/95/95 96/96/96
f 96/96/96 97/97/97 89/89/89
f 97/97/97 98/98/98 90/90/90
f 90/90/90 98/98/98 99/99/99
f 91/91/91 99/99/99 100/100/100
f 10/10/10 11/11/11 85/85/85
f 77/77/77 85/85/85 86/86/86
f 78/78/78 86/86/86 87/87/87
f 79/79/79 87/87/87 88/88/88
f 88/88/88 89/89/89 81/81/81
f 81/81/81 89/89/89 90/90/90
f 82/82/82 90/90/90 91/91/91
f 91/91/91 92/92/92 84/84/84
f 10/10/10 77/77/77 69/69/69
f 69/69/69 77/77/77 78/78/78
f 70/70/70 78/78/78 79/79/79
f 79/79/79 80/80/80 72/72/72
f 72/72/72 80/80/80 81/81/81
f 73/73/73 81/81/81 82/82/82
f 82/82/82 83/83/83 75/75/75
f 83/83/83 84/84/84 76/76/76
f 9/9/9 69/69/69 61/61/61
f 69/69/69 70/70/70 62/62/62
f 62/62/62 70/70/70 71/71/71
f 63/63/63 71/71/71 72/72/72
f 72/72/72 73/73/73 65/65/65
f 65/65/65 73/73/73 74/74/74
f 66/66/66 74/74/74 75/75/75
f 67/67/67 75/75/75 76/76/76
f 8/8/8 61/61/61 53/53/53
f 53/53/53 61/61/61 62/62/62
f 54/54/54 62/62/62 63/63/63
f 55/55/55 63/63/63 64/64/64
f 64/64/64 65/65/65 57/57/57
f 57/57/57 65/65/65 66/66/66
f 58/58/58 66/66/66 67/67/67
f 59/59/59 67/67/67 68/68/68
f 6/6/6 7/7/7 53/53/53
f 45/45/45 53/53/53 54/54/54
f 54/54/54 55/55/55 47/47/47
f 55/55/55 56/56/56 48/48/48
f 56/56/56 57/57/57 49/49/49
f 49/49/49 57/57/57 58/58/58
f 58/58/58 59/59/59 51/51/51
f 59/59/59 60/60/60 52/52/52
f 6/6/6 45/45/45 37/37/37
f 45/45/45 46/46/46 38/38/38
f 46/46/46 47/47/47 39/39/39
f 39/39/39 47/47/47 48/48/48
f 40/40/40 48/48/48 49/49/49
f 41/41/41 49/49/49 50/50/50
f 50/50/50 51/51/51 43/43/43
f 51/51/51 52/52/52 44/44/44
f 5/5/5 37/37/37 28/28/28
f 28/28/28 37/37/37 38/38/38
f 27/27/27 38/38/38 39/39/39
f 26/26/26 39/39/39 40/40/40
f 40/40/40 41/41/41 24/24/24
f 41/41/41 42/42/42 23/23/23
f 23/23/23 42/42/42 43/43/43
f 43/43/43 44/44/44 21/21/21
f 2/2/2 29/29/29 93/93/93
f 93/93/93 29/29/29 30/30/30
f 30/30/30 31/31/31 95/95/95
f 31/31/31 32/32/32 96/96/96
f 32/32/32 33/33/33 97/97/97
f 33/33/33 34/34/34 98/98/98
f 98/98/98 34/34/34 35/35/35
f 99/99/99 35/35/35 36/36/36
