o GNATVCloth
v -5.10191 -4.98025 0.511309
v 4.9854 -4.99524 0.451875
v -5.01298 5.02105 0.004229
v 4.98702 5.02105 0.004229
v -3.98984 -5.01939 0.511616
v -2.87306 -5.063 0.43166
v -1.74833 -5.0902 0.422339
v -0.621501 -5.10839 0.391016
v 0.507492 -5.10833 0.380375
v 1.63178 -5.09012 0.356953
v 2.75215 -5.0621 0.41911
v 3.8718 -5.03062 0.445087
v 3.84728 4.94868 0.164874
v 2.71851 4.88503 0.314932
v 1.58844 4.79349 0.394391
v 0.469092 4.73174 0.487906
v -0.641727 4.68126 0.388752
v -1.69412 4.70738 0.249628
v -2.80139 4.77946 0.407107
v -3.9034 4.87679 0.214051
v -5.0031 3.90745 0.0811875
v -5.00596 2.79215 0.103007
v -5.01804 1.67759 0.129154
v -5.03213 0.564284 0.176865
v -5.03819 -0.545995 0.259201
v -5.04513 -1.65593 0.33821
v -5.05408 -2.7635 0.447618
v -5.07226 -3.86827 0.550665
v 4.96773 -3.88619 0.38652
v 4.95762 -2.77893 0.276487
v 4.95564 -1.66637 0.262628
v 4.95563 -0.553442 0.242042
v 4.95655 0.560672 0.217277
v 4.95382 1.67528 0.171833
v 4.95603 2.79061 0.124652
v 4.96058 3.90555 0.0600576
v -3.9036 -3.87334 0.427239
v -3.86352 -3.23482 0.315966
v -3.71053 -1.95157 0.179902
v -4.15317 -0.288355 0.157139
v -4.17199 0.728073 0.185201
v -4.15769 1.51284 0.172954
v -4.08193 2.80624 0.153332
v -3.94704 3.85835 -0.129525
v -2.78067 -4.04591 0.310036
v -2.84291 -2.77959 0.210371
v -2.72698 -2.19382 0.292257
v -2.79706 -0.648713 0.340037
v -2.82106 0.484044 0.334639
v -2.7336 1.52499 0.201778
v -2.87348 2.82707 -0.126389
v -2.82675 3.45025 0.198908
v -1.71836 -4.28494 0.34155
v -1.55351 -2.97076 0.372232
v -1.94668 -1.68313 0.452385
v -1.92391 -0.88694 0.419072
v -1.57158 0.571641 0.0803252
v -2.01972 1.62655 -0.028088
v -1.77441 2.65444 0.204635
v -1.62089 3.59202 0.300324
v -0.292123 -4.37252 0.372467
v -0.639811 -2.9373 0.380812
v -0.598613 -1.79744 0.424013
v -0.891402 -0.835616 0.319389
v -0.658356 0.383098 0.235675
v -0.418471 1.40192 0.264817
v -0.619528 2.58195 0.362516
v -0.800835 3.43415 0.355666
v 0.681303 -3.93861 0.364528
v 0.760173 -2.64626 0.382354
v 0.473293 -1.86095 0.382269
v 0.560638 -0.529188 0.34807
v 0.533013 0.370009 0.313431
v 0.252612 1.46717 0.350175
v 0.482749 2.45004 0.390635
v 0.501354 3.68052 0.414093
v 1.89873 -3.6865 0.408093
v 1.62177 -2.87796 0.332288
v 1.77448 -1.95372 0.382688
v 1.93703 -0.422669 0.350621
v 1.92215 0.252588 0.23818
v 1.78397 1.50916 0.26808
v 1.37724 2.7856 0.329686
v 1.43928 3.61867 0.336727
v 2.74331 -3.94683 0.408612
v 3.05114 -2.86082 0.3632
v 2.90274 -1.986 0.276716
v 2.67801 -0.52608 0.354575
v 2.92302 0.270572 0.294116
v 3.02492 1.55253 0.0620825
v 2.74121 3.12014 0.147271
v 2.70153 3.48788 0.140602
v 3.87042 -3.98693 0.36196
v 3.61437 -2.73246 0.34002
v 3.82905 -1.69188 0.300073
v 3.7686 -0.737427 0.263637
v 3.83695 0.275399 0.274441
v 4.13419 1.79241 0.171555
v 4.10911 2.74968 0.0483667
v 4.00283 3.87368 0.0197935
vt 0.0001 0.0001
vt 0.9999 0.0001
vt 0.0001 0.9999
vt 0.9999 0.9999
vt 0.111189 0.0001
vt 0.222278 0.0001
vt 0.333367 0.0001
vt 0.444455 0.0001
vt 0.555544 0.0001
vt 0.666633 0.0001
vt 0.777722 0.0001
vt 0.888811 0.0001
vt 0.888811 0.9999
vt 0.777722 0.9999
vt 0.666633 0.9999
vt 0.555544 0.9999
vt 0.444455 0.9999
vt 0.333367 0.9999
vt 0.222278 0.9999
vt 0.111189 0.9999
vt 0.0001 0.888811
vt 0.0001 0.777722
vt 0.0001 0.666633
vt 0.0001 0.555544
vt 0.0001 0.444456
vt 0.0001 0.333367
vt 0.0001 0.222278
vt 0.0001 0.111189
vt 0.9999 0.111189
vt 0.9999 0.222278
vt 0.9999 0.333367
vt 0.9999 0.444456
vt 0.9999 0.555544
vt 0.9999 0.666633
vt 0.9999 0.777722
vt 0.9999 0.888811
vt 0.11727 0.115399
vt 0.120778 0.180369
vt 0.134636 0.309595
vt 0.088728 0.473895
vt 0.085886 0.575352
vt 0.086211 0.65375
vt 0.092207 0.78313
vt 0.106956 0.892282
vt 0.22987 0.102869
vt 0.221803 0.229552
vt 0.233521 0.288953
vt 0.225541 0.443179
vt 0.221596 0.556167
vt 0.227801 0.661237
vt 0.214896 0.795203
vt 0.22542 0.865181
vt 0.335524 0.082127
vt 0.351143 0.213907
vt 0.311934 0.342467
vt 0.313159 0.422214
vt 0.347791 0.572605
vt 0.301482 0.677733
vt 0.329031 0.783086
vt 0.344903 0.885466
vt 0.476837 0.074882
vt 0.441952 0.218774
vt 0.445749 0.333088
vt 0.416414 0.43099
vt 0.439746 0.552976
vt 0.463203 0.656843
vt 0.444252 0.77653
vt 0.426137 0.866051
vt 0.573419 0.117409
vt 0.581125 0.246686
vt 0.552512 0.326
vt 0.561075 0.459693
vt 0.558356 0.550596
vt 0.530299 0.662189
vt 0.553275 0.760113
vt 0.555478 0.888821
vt 0.694433 0.13996
vt 0.667048 0.221666
vt 0.681985 0.314267
vt 0.698218 0.467249
vt 0.696819 0.535952
vt 0.68253 0.662758
vt 0.642062 0.791726
vt 0.648523 0.877957
vt 0.778029 0.111667
vt 0.809426 0.219523
vt 0.794923 0.307783
vt 0.772028 0.454562
vt 0.796846 0.533374
vt 0.807262 0.663157
vt 0.778581 0.821037
vt 0.775122 0.858219
vt 0.890224 0.104741
vt 0.865679 0.23076
vt 0.887326 0.334104
vt 0.881307 0.429754
vt 0.887973 0.53063
vt 0.918106 0.681428
vt 0.915043 0.778027
vt 0.904815 0.89094
vn -0.00151877 -0.0353297 0.999375
vn -0.0181477 0.0688795 0.99746
vn -0.00870677 -0.122154 0.992473
vn 0.0514027 -0.030551 0.998211
vn 0.0592757 0.0325752 0.99771
vn 0.0504042 0.0984558 0.993864
vn 0.0199478 0.0990696 0.994881
vn 0.00636791 0.0512531 0.998665
vn 0.0107821 0.01489 0.999831
vn -0.0188888 -0.0114239 0.999756
vn -0.0131068 0.0327211 0.999379
vn -0.0169752 0.0793614 0.996701
vn 0.141418 -0.112276 0.983562
vn 0.120058 -0.105054 0.987193
vn 0.080553 -0.0590645 0.994999
vn 0.0262727 -0.0667547 0.997423
vn -0.0818401 -0.0186843 0.99647
vn 0.00705932 0.0458671 0.998923
vn -0.111796 -0.139715 0.98386
vn -0.202751 -0.305204 0.930453
vn 0.116107 0.107656 0.987385
vn -0.0547012 0.0218409 0.998264
vn -0.0419344 0.0253611 0.998798
vn 0.0236932 0.0295571 0.999282
vn 0.0936686 0.0716149 0.993024
vn 0.120186 0.0713586 0.990184
vn 0.142092 0.0910669 0.985656
vn 0.0884309 0.0712256 0.993532
vn -0.0295076 0.078476 0.996479
vn 0.0245267 0.0417314 0.998828
vn 0.0268492 0.0237255 0.999358
vn 0.0269113 0.00954755 0.999592
vn 0.028772 0.0412169 0.998736
vn 0.00559123 0.0415017 0.999123
vn -0.0606477 0.0750746 0.995332
vn -0.0595847 0.0434476 0.997277
vn 0.106093 0.113517 0.987855
vn 0.107614 0.114093 0.987624
vn 0.00972473 0.0230767 0.999686
vn -0.011098 0.0160959 0.999809
vn -0.048561 0.0252957 0.9985
vn -0.0339649 0.0166798 0.999284
vn 0.0656374 0.115388 0.99115
vn -0.0771336 -0.0956024 0.992427
vn 0.0272853 0.0877237 0.995771
vn -0.0539988 0.00653931 0.99852
vn -0.142773 -0.0794778 0.986559
vn -0.123352 -0.00828078 0.992328
vn 0.0346025 0.0818205 0.996046
vn 0.108861 0.133105 0.985105
vn -0.0597347 -0.0389445 0.997454
vn -0.24014 -0.246418 0.938941
vn -0.00675998 0.0427207 0.999064
vn -0.0606322 -0.0395988 0.997374
vn -0.0417808 0.000331219 0.999127
vn 0.0392569 0.0952307 0.994681
vn -0.0063139 0.117992 0.992994
vn -0.0122126 0.0183512 0.999757
vn -0.180176 -0.159495 0.970617
vn -0.0467211 -0.0430829 0.997978
vn -0.00411068 0.0106926 0.999934
vn 0.00115316 -0.0182738 0.999832
vn 0.0126873 0.0171226 0.999773
vn -0.00239764 0.10544 0.994423
vn -0.101128 0.0283208 0.99447
vn -0.137611 -0.029331 0.990052
vn -0.0976946 -0.0718168 0.992622
vn -0.0753936 -0.0298102 0.996708
vn 0.00102245 0.00489795 0.999987
vn 0.0190779 -0.0185003 0.999647
vn 0.0154 0.00182757 0.99988
vn -0.00738565 0.0603266 0.998151
vn 0.00677209 -0.00222877 0.999975
vn -0.0417448 -0.0268662 0.998767
vn 0.00308006 -0.0361819 0.99934
vn 0.0051359 -0.0309133 0.999509
vn -0.0206651 0.0270256 0.999421
vn 0.0150034 0.0181426 0.999723
vn 0.0315414 -0.0144909 0.999397
vn -0.000672871 0.0930061 0.995665
vn 0.0232444 0.0891667 0.995745
vn 0.100217 -0.0213975 0.994735
vn 0.100911 -0.0164123 0.99476
vn 0.107846 -0.0440821 0.99319
vn 0.00572064 0.0105576 0.999928
vn 0.0103029 0.0624868 0.997993
vn 0.0254278 0.0184347 0.999507
vn 0.0364093 0.0410999 0.998491
vn 0.00372815 0.0978064 0.995198
vn 0.0158831 0.0721343 0.997268
vn 0.117001 0.000593171 0.993132
vn 0.12777 -0.0468064 0.990699
vn 0.00935858 0.0509425 0.998658
vn 0.0219699 0.0457064 0.998713
vn 0.00738958 0.0327113 0.999437
vn 0.0314366 0.0108581 0.999447
vn 0.00428686 0.0544114 0.998509
vn -0.0483456 0.0805207 0.99558
vn -0.035598 0.0531097 0.997954
vn 0.0704065 -0.03109 0.997034
f 100/100/100 4/4/4 13/13/13
f 44/44/44 3/3/3 21/21/21
f 44/44/44 19/19/19 20/20/20
f 60/60/60 19/19/19 52/52/52
f 60/60/60 17/17/17 18/18/18
f 76/76/76 17/17/17 68/68/68
f 84/84/84 16/16/16 76/76/76
f 84/84/84 14/14/14 15/15/15
f 100/100/100 14/14/14 92/92/92
f 11/11/11 93/93/93 85/85/85
f 93/93/93 86/86/86 85/85/85
f 94/94/94 87/87/87 86/86/86
f 87/87/87 96/96/96 88/88/88
f 96/96/96 89/89/89 88/88/88
f 97/97/97 90/90/90 89/89/89
f 90/90/90 99/99/99 91/91/91
f 91/91/91 100/100/100 92/92/92
f 10/10/10 85/85/85 77/77/77
f 77/77/77 86/86/86 78/78/78
f 78/78/78 87/87/87 79/79/79
f 79/79/79 88/88/88 80/80/80
f 88/88/88 81/81/81 80/80/80
f 81/81/81 90/90/90 82/82/82
f 82/82/82 91/91/91 83/83/83
f 91/91/91 84/84/84 83/83/83
f 10/10/10 69/69/69 9/9/9
f 69/69/69 78/78/78 70/70/70
f 70/70/70 79/79/79 71/71/71
f 79/79/79 72/72/72 71/71/71
f 72/72/72 81/81/81 73/73/73
f 73/73/73 82/82/82 74/74/74
f 82/82/82 75/75/75 74/74/74
f 83/83/83 76/76/76 75/75/75
f 9/9/9 61/61/61 8/8/8
f 69/69/69 62/62/62 61/61/61
f 62/62/62 71/71/71 63/63/63
f 63/63/63 72/72/72 64/64/64
f 72/72/72 65/65/65 64/64/64
f 65/65/65 74/74/74 66/66/66
f 66/66/66 75/75/75 67/67/67
f 67/67/67 76/76/76 68/68/68
f 8/8/8 53/53/53 7/7/7
f 53/53/53 62/62/62 54/54/54
f 54/54/54 63/63/63 55/55/55
f 55/55/55 64/64/64 56/56/56
f 64/64/64 57/57/57 56/56/56
f 57/57/57 66/66/66 58/58/58
f 58/58/58 67/67/67 59/59/59
f 59/59/59 68/68/68 60/60/60
f 6/6/6 53/53/53 45/45/45
f 45/45/45 54/54/54 46/46/46
f 54/54/54 47/47/47 46/46/46
f 55/55/55 48/48/48 47/47/47
f 56/56/56 49/49/49 48/48/48
f 49/49/49 58/58/58 50/50/50
f 58/58/58 51/51/51 50/50/50
f 59/59/59 52/52/52 51/51/51
f 6/6/6 37/37/37 5/5/5
f 45/45/45 38/38/38 37/37/37
f 46/46/46 39/39/39 38/38/38
f 39/39/39 48/48/48 40/40/40
f 40/40/40 49/49/49 41/41/41
f 41/41/41 50/50/50 42/42/42
f 50/50/50 43/43/43 42/42/42
f 51/51/51 44/44/44 43/43/43
f 5/5/5 28/28/28 1/1/1
f 28/28/28 38/38/38 27/27/27
f 27/27/27 39/39/39 26/26/26
f 26/26/26 40/40/40 25/25/25
f 40/40/40 24/24/24 25/25/25
f 41/41/41 23/23/23 24/24/24
f 23/23/23 43/43/43 22/22/22
f 43/43/43 21/21/21 22/22/22
f 2/2/2 93/93/93 12/12/12
f 93/93/93 30/30/30 94/94/94
f 30/30/30 95/95/95 94/94/94
f 31/31/31 96/96/96 95/95/95
f 32/32/32 97/97/97 96/96/96
f 33/33/33 98/98/98 97/97/97
f 98/98/98 35/35/35 99/99/99
f 99/99/99 36/36/36 100/100/100
f 100/100/100 36/36/36 4/4/4
f 44/44/44 20/20/20 3/3/3
f 44/44/44 52/52/52 19/19/19
f 60/60/60 18/18/18 19/19/19
f 60/60/60 68/68/68 17/17/17
f 76/76/76 16/16/16 17/17/17
f 84/84/84 15/15/15 16/16/16
f 84/84/84 92/92/92 14/14/14
f 100/100/100 13/13/13 14/14/14
f 11/11/11 12/12/12 93/93/93
f 93/93/93 94/94/94 86/86/86
f 94/94/94 95/95/95 87/87/87
f 87/87/87 95/95/95 96/96/96
f 96/96/96 97/97/97 89/89/89
f 97/97/97 98/98/98 90/90/90
f 90/90/90 98/98/98 99/99/99
f 91/91/91 99/99/99 100/100/100
f 10/10/10 11/11/11 85/85/85
f 77/77/77 85/85/85 86/86/86
f 78/78/78 86/86/86 87/87/87
f 79/79/79 87/87/87 88/88/88
f 88/88/88 89/89/89 81/81/81
f 81/81/81 89/89/89 90/90/90
f 82/82/82 90/90/90 91/91/91
f 91/91/91 92/92/92 84/84/84
f 10/10/10 77/77/77 69/69/69
f 69/69/69 77/77/77 78/78/78
f 70/70/70 78/78/78 79/79/79
f 79/79/79 80/80/80 72/72/72
f 72/72/72 80/80/80 81/81/81
f 73/73/73 81/81/81 82/82/82
f 82/82/82 83/83/83 75/75/75
f 83/83/83 84/84/84 76/76/76
f 9/9/9 69/69/69 61/61/61
f 69/69/69 70/70/70 62/62/62
f 62/62/62 70/70/70 71/71/71
f 63/63/63 71/71/71 72/72/72
f 72/72/72 73/73/73 65/65/65
f 65/65/65 73/73/73 74/74/74
f 66/66/66 74/74/74 75/75/75
f 67/67/67 75/75/75 76/76/76
f 8/8/8 61/61/61 53/53/53
f 53/53/53 61/61/61 62/62/62
f 54/54/54 62/62/62 63/63/63
f 55/55/55 63/63/63 64/64/64
f 64/64/64 65/65/65 57/57/57
f 57/57/57 65/65/65 66/66/66
f 58/58/58 66/66/66 67/67/67
f 59/59/59 67/67/67 68/68/68
f 6/6/6 7/7/7 53/53/53
f 45/45/45 53/53/53 54/54/54
f 54/54/54 55/55/55 47/47/47
f 55/55/55 56/56/56 48/48/48
f 56/56/56 57/57/57 49/49/49
f 49/49/49 57/57/57 58/58/58
f 58/58/58 59/59/59 51/51/51
f 59/59/59 60/60/60 52/52/52
f 6/6/6 45/45/45 37/37/37
f 45/45/45 46/46/46 38/38/38
f 46/46/46 47/47/47 39/39/39
f 39/39/39 47/47/47 48/48/48
f 40/40/40 48/48/48 49/49/49
f 41/41/41 49/49/49 50/50/50
f 50/50/50 51/51/51 43/43/43
f 51/51/51 52/52/52 44/44/44
f 5/5/5 37/37/37 28/28/28
f 28/28/28 37/37/37 38/38/38
f 27/27/27 38/38/38 39/39/39
f 26/26/26 39/39/39 40/40/40
f 40/40/40 41/41/41 24/24/24
f 41/41/41 42/42/42 23/23/23
f 23/23/23 42/42/42 43/43/43
f 43/43/43 44/44/44 21/21/21
f 2/2/2 29/29/29 93/93/93
f 93/93/93 29/29/29 30/30/30
f 30/30/30 31/31/31 95/95/95
f 31/31/31 32/32/32 96/96/96
f 32/32/32 33/33/33 97/97/97
f 33/33/33 34/34/34 98/98/98
f 98/98/98 34/34/34 35/35/35
f 99/99/99 35/35/35 36/36/36
