o GNATVCloth
v -5.10262 -4.97882 0.509121
v 4.99049 -4.99737 0.453297
v -5.01298 5.02105 0.004229
v 4.98702 5.02105 0.004229
v -3.99006 -5.02402 0.508801
v -2.8731 -5.06983 0.429641
v -1.74751 -5.09639 0.418494
v -0.620148 -5.11319 0.384815
v 0.509352 -5.11309 0.377284
v 1.63469 -5.09337 0.354348
v 2.75532 -5.06627 0.415443
v 3.87535 -5.03359 0.440806
v 3.84765 4.94767 0.163522
v 2.71966 4.88311 0.317431
v 1.58984 4.79344 0.397985
v 0.470052 4.72669 0.485875
v -0.642558 4.67909 0.384819
v -1.69164 4.70774 0.247773
v -2.79938 4.78395 0.398044
v -3.90241 4.87951 0.210355
v -5.00515 3.90728 0.0805284
v -5.00673 2.79193 0.103149
v -5.01945 1.67734 0.127423
v -5.03303 0.564051 0.174012
v -5.03921 -0.54595 0.257623
v -5.04552 -1.65607 0.33602
v -5.05441 -2.76292 0.44561
v -5.07269 -3.87117 0.550771
v 4.97008 -3.88745 0.391527
v 4.96019 -2.78026 0.274909
v 4.95729 -1.66679 0.2616
v 4.957 -0.55365 0.240879
v 4.95724 0.56054 0.215824
v 4.9544 1.67513 0.170706
v 4.95798 2.79048 0.123656
v 4.96195 3.90547 0.0595737
v -3.90322 -3.87475 0.430337
v -3.86293 -3.23404 0.318466
v -3.71077 -1.95371 0.177427
v -4.15413 -0.292009 0.154339
v -4.1728 0.72616 0.183337
v -4.15842 1.5108 0.173306
v -4.08254 2.80441 0.157591
v -3.94803 3.85619 -0.122322
v -2.78046 -4.05045 0.312165
v -2.84275 -2.78467 0.208559
v -2.7271 -2.19812 0.292742
v -2.79763 -0.651801 0.340645
v -2.82235 0.479951 0.334557
v -2.73374 1.5206 0.206234
v -2.87429 2.82427 -0.123235
v -2.82324 3.45073 0.191745
v -1.71777 -4.28957 0.34099
v -1.55271 -2.97632 0.370341
v -1.94658 -1.68793 0.451883
v -1.92435 -0.891559 0.421359
v -1.57259 0.563975 0.0797834
v -2.02081 1.62182 -0.0266887
v -1.77486 2.649 0.206909
v -1.61967 3.59364 0.295346
v -0.291089 -4.37855 0.371554
v -0.638717 -2.94042 0.379054
v -0.598676 -1.80139 0.419734
v -0.89213 -0.840069 0.31757
v -0.659386 0.375997 0.238988
v -0.420252 1.39405 0.268229
v -0.620428 2.57533 0.36819
v -0.799937 3.42761 0.353929
v 0.682589 -3.94321 0.362947
v 0.760897 -2.64926 0.375709
v 0.474351 -1.86326 0.377731
v 0.5617 -0.534963 0.34733
v 0.532632 0.364567 0.315158
v 0.251238 1.46 0.349969
v 0.481853 2.44294 0.392653
v 0.501215 3.67793 0.409843
v 1.90057 -3.68906 0.40208
v 1.62306 -2.88368 0.330949
v 1.77656 -1.95793 0.379978
v 1.93786 -0.426652 0.348498
v 1.9232 0.25178 0.245801
v 1.78304 1.50488 0.270094
v 1.37675 2.77923 0.331547
v 1.43952 3.60973 0.333201
v 2.74531 -3.9482 0.405589
v 3.05341 -2.86609 0.364994
v 2.90524 -1.99077 0.281
v 2.6788 -0.529511 0.35364
v 2.92454 0.267201 0.296422
v 3.02534 1.55102 0.072116
v 2.74231 3.11563 0.152073
v 2.70236 3.48306 0.139155
v 3.87321 -3.98791 0.364618
v 3.61684 -2.73556 0.340909
v 3.83104 -1.69447 0.300602
v 3.77045 -0.740781 0.263962
v 3.83816 0.270523 0.270535
v 4.13508 1.78959 0.169879
v 4.11072 2.74855 0.0510648
v 4.0041 3.87553 0.0247142
vt 0.0001 0.0001
vt 0.9999 0.0001
vt 0.0001 0.9999
vt 0.9999 0.9999
vt 0.111189 0.0001
vt 0.222278 0.0001
vt 0.333367 0.0001
vt 0.444455 0.0001
vt 0.555544 0.0001
vt 0.666633 0.0001
vt 0.777722 0.0001
vt 0.888811 0.0001
vt 0.888811 0.9999
vt 0.777722 0.9999
vt 0.666633 0.9999
vt 0.555544 0.9999
vt 0.444455 0.9999
vt 0.333367 0.9999
vt 0.222278 0.9999
vt 0.111189 0.9999
vt 0.0001 0.888811
vt 0.0001 0.777722
vt 0.0001 0.666633
vt 0.0001 0.555544
vt 0.0001 0.444456
vt 0.0001 0.333367
vt 0.0001 0.222278
vt 0.0001 0.111189
vt 0.9999 0.111189
vt 0.9999 0.222278
vt 0.9999 0.333367
vt 0.9999 0.444456
vt 0.9999 0.555544
vt 0.9999 0.666633
vt 0.9999 0.777722
vt 0.9999 0.888811
vt 0.11727 0.115399
vt 0.120778 0.180369
vt 0.134636 0.309595
vt 0.088728 0.473895
vt 0.085886 0.575352
vt 0.086211 0.65375
vt 0.092207 0.78313
vt 0.106956 0.892282
vt 0.22987 0.102869
vt 0.221803 0.229552
vt 0.233521 0.288953
vt 0.225541 0.443179
vt 0.221596 0.556167
vt 0.227801 0.661237
vt 0.214896 0.795203
vt 0.22542 0.865181
vt 0.335524 0.082127
vt 0.351143 0.213907
vt 0.311934 0.342467
vt 0.313159 0.422214
vt 0.347791 0.572605
vt 0.301482 0.677733
vt 0.329031 0.783086
vt 0.344903 0.885466
vt 0.476837 0.074882
vt 0.441952 0.218774
vt 0.445749 0.333088
vt 0.416414 0.43099
vt 0.439746 0.552976
vt 0.463203 0.656843
vt 0.444252 0.77653
vt 0.426137 0.866051
vt 0.573419 0.117409
vt 0.581125 0.246686
vt 0.552512 0.326
vt 0.561075 0.459693
vt 0.558356 0.550596
vt 0.530299 0.662189
vt 0.553275 0.760113
vt 0.555478 0.888821
vt 0.694433 0.13996
vt 0.667048 0.221666
vt 0.681985 0.314267
vt 0.698218 0.467249
vt 0.696819 0.535952
vt 0.68253 0.662758
vt 0.642062 0.791726
vt 0.648523 0.877957
vt 0.778029 0.111667
vt 0.809426 0.219523
vt 0.794923 0.307783
vt 0.772028 0.454562
vt 0.796846 0.533374
vt 0.807262 0.663157
vt 0.778581 0.821037
vt 0.775122 0.858219
vt 0.890224 0.104741
vt 0.865679 0.23076
vt 0.887326 0.334104
vt 0.881307 0.429754
vt 0.887973 0.53063
vt 0.918106 0.681428
vt 0.915043 0.778027
vt 0.904815 0.89094
vn -0.00123744 -0.0375419 0.999294
vn -0.0215269 0.063821 0.997729
vn -0.0100261 -0.117055 0.993075
vn 0.053637 -0.0281732 0.998163
vn 0.0582199 0.0283713 0.9979
vn 0.0510882 0.093899 0.99427
vn 0.0216193 0.094808 0.995261
vn 0.00602651 0.0454979 0.998946
vn 0.0101593 0.0120149 0.999876
vn -0.0185703 -0.0107124 0.99977
vn -0.0142542 0.0300489 0.999447
vn -0.019113 0.0726144 0.997177
vn 0.142407 -0.106623 0.984049
vn 0.119937 -0.106244 0.98708
vn 0.0789784 -0.0644734 0.994789
vn 0.0237572 -0.0699772 0.997266
vn -0.0823706 -0.0189206 0.996422
vn 0.00461989 0.0429596 0.999066
vn -0.10915 -0.137105 0.984524
vn -0.197819 -0.295074 0.934772
vn 0.109984 0.107132 0.988143
vn -0.0590795 0.0213676 0.998025
vn -0.0446846 0.0233081 0.998729
vn 0.0234994 0.0293037 0.999294
vn 0.0952275 0.0719154 0.992854
vn 0.121025 0.0713843 0.990079
vn 0.14045 0.0931512 0.985696
vn 0.0863497 0.0699417 0.993807
vn -0.031743 0.0797192 0.996312
vn 0.0251258 0.0435363 0.998736
vn 0.0281394 0.023718 0.999323
vn 0.0267436 0.0110626 0.999581
vn 0.0270031 0.0408439 0.998801
vn 0.00476129 0.0412941 0.999136
vn -0.05803 0.0733764 0.995615
vn -0.0543311 0.0425827 0.997615
vn 0.10524 0.110742 0.988261
vn 0.10753 0.116365 0.987368
vn 0.00861425 0.0238041 0.99968
vn -0.0116651 0.0159735 0.999804
vn -0.0504002 0.0232465 0.998459
vn -0.0368176 0.0138721 0.999226
vn 0.0629166 0.114 0.991486
vn -0.0732352 -0.0910891 0.993146
vn 0.0289448 0.0874787 0.995746
vn -0.0534728 0.00725807 0.998543
vn -0.14366 -0.08096 0.98631
vn -0.125203 -0.00883477 0.992092
vn 0.0344707 0.0805988 0.99615
vn 0.109315 0.130983 0.985339
vn -0.0558392 -0.0343783 0.997848
vn -0.235345 -0.238374 0.942226
vn -0.00567832 0.0401941 0.999176
vn -0.0596261 -0.039233 0.99745
vn -0.0401733 -0.00126536 0.999192
vn 0.0400674 0.0946311 0.994706
vn -0.00715885 0.117469 0.993051
vn -0.0116496 0.0166871 0.999793
vn -0.181961 -0.152634 0.971387
vn -0.0494745 -0.0403797 0.997959
vn -0.00429382 0.00806897 0.999958
vn 0.00219353 -0.0169561 0.999854
vn 0.0136194 0.0166594 0.999768
vn -0.00142555 0.1032 0.99466
vn -0.101172 0.0268577 0.994506
vn -0.136441 -0.0310069 0.990163
vn -0.097724 -0.0686346 0.992844
vn -0.0768613 -0.0238371 0.996757
vn 0.00196293 0.00544156 0.999983
vn 0.0178962 -0.0173185 0.99969
vn 0.0155912 0.000253316 0.999878
vn -0.00761428 0.0562191 0.998389
vn 0.00531503 -0.00185765 0.999984
vn -0.0397555 -0.0275882 0.998829
vn 0.00471754 -0.0355881 0.999355
vn 0.00521263 -0.0277104 0.999602
vn -0.0209768 0.0253277 0.999459
vn 0.0121933 0.0174402 0.999774
vn 0.0284354 -0.014348 0.999493
vn -0.00129098 0.0854658 0.99634
vn 0.0224303 0.0839159 0.99622
vn 0.097133 -0.0201312 0.995068
vn 0.0993185 -0.0129107 0.994972
vn 0.106367 -0.0420816 0.993436
vn 0.00244293 0.009713 0.99995
vn 0.00845736 0.0597926 0.998175
vn 0.0246797 0.0188535 0.999518
vn 0.0350001 0.0381085 0.998661
vn 0.00839133 0.0940721 0.99553
vn 0.0194732 0.0704439 0.997326
vn 0.114316 0.00666907 0.993422
vn 0.124104 -0.0398654 0.991468
vn 0.00735311 0.0495709 0.998744
vn 0.0240953 0.0457875 0.998661
vn 0.0098591 0.0326684 0.999418
vn 0.0330468 0.0121243 0.99938
vn 0.0078347 0.0538526 0.998518
vn -0.0444691 0.0781926 0.995946
vn -0.0307039 0.0516253 0.998194
vn 0.0705457 -0.0281095 0.997112
f 100/100/100 4/4/4 13/13/13
f 44/44/44 3/3/3 21/21/21
f 44/44/44 19/19/19 20/20/20
f 60/60/60 19/19/19 52/52/52
f 60/60/60 17/17/17 18/18/18
f 76/76/76 17/17/17 68/68/68
f 84/84/84 16/16/16 76/76/76
f 84/84/84 14/14/14 15/15/15
f 100/100/100 14/14/14 92/92/92
f 11/11/11 93/93/93 85/85/85
f 93/93/93 86/86/86 85/85/85
f 94/94/94 87/87/87 86/86/86
f 87/87/87 96/96/96 88/88/88
f 96/96/96 89/89/89 88/88/88
f 97/97/97 90/90/90 89/89/89
f 90/90/90 99/99/99 91/91/91
f 91/91/91 100/100/100 92/92/92
f 10/10/10 85/85/85 77/77/77
f 77/77/77 86/86/86 78/78/78
f 78/78/78 87/87/87 79/79/79
f 79/79/79 88/88/88 80/80/80
f 88/88/88 81/81/81 80/80/80
f 81/81/81 90/90/90 82/82/82
f 82/82/82 91/91/91 83/83/83
f 91/91/91 84/84/84 83/83/83
f 10/10/10 69/69/69 9/9/9
f 69/69/69 78/78/78 70/70/70
f 70/70/70 79/79/79 71/71/71
f 79/79/79 72/72/72 71/71/71
f 72/72/72 81/81/81 73/73/73
f 73/73/73 82/82/82 74/74/74
f 82/82/82 75/75/75 74/74/74
f 83/83/83 76/76/76 75/75/75
f 9/9/9 61/61/61 8/8/8
f 69/69/69 62/62/62 61/61/61
f 62/62/62 71/71/71 63/63/63
f 63/63/63 72/72/72 64/64/64
f 72/72/72 65/65/65 64/64/64
f 65/65/65 74/74/74 66/66/66
f 66/66/66 75/75/75 67/67/67
f 67/67/67 76/76/76 68/68/68
f 8/8/8 53/53/53 7/7/7
f 53/53/53 62/62/62 54/54/54
f 54/54/54 63/63/63 55/55/55
f 55/55/55 64/64/64 56/56/56
f 64/64/64 57/57/57 56/56/56
f 57/57/57 66/66/66 58/58/58
f 58/58/58 67/67/67 59/59/59
f 59/59/59 68/68/68 60/60/60
f 6/6/6 53/53/53 45/45/45
f 45/45/45 54/54/54 46/46/46
f 54/54/54 47/47/47 46/46/46
f 55/55/55 48/48/48 47/47/47
f 56/56/56 49/49/49 48/48/48
f 49/49/49 58/58/58 50/50/50
f 58/58/58 51/51/51 50/50/50
f 59/59/59 52/52/52 51/51/51
f 6/6/6 37/37/37 5/5/5
f 45/45/45 38/38/38 37/37/37
f 46/46/46 39/39/39 38/38/38
f 39/39/39 48/48/48 40/40/40
f 40/40/40 49/49/49 41/41/41
f 41/41/41 50/50/50 42/42/42
f 50/50/50 43/43/43 42/42/42
f 51/51/51 44/44/44 43/43/43
f 5/5/5 28/28/28 1/1/1
f 28/28/28 38/38/38 27/27/27
f 27/27/27 39/39/39 26/26/26
f 26/26/26 40/40/40 25/25/25
f 40/40/40 24/24/24 25/25/25
f 41/41/41 23/23/23 24/24/24
f 23/23/23 43/43/43 22/22/22
f 43/43/43 21/21/21 22/22/22
f 2/2/2 93/93/93 12/12/12
f 93/93/93 30/30/30 94/94/94
f 30/30/30 95/95/95 94/94/94
f 31/31/31 96/96/96 95/95/95
f 32/32/32 97/97/97 96/96/96
f 33/33/33 98/98/98 97/97/97
f 98/98/98 35/35/35 99/99/99
f 99/99/99 36/36/36 100/100/100
f 100/100/100 36/36/36 4/4/4
f 44/44/44 20/20/20 3/3/3
f 44/44/44 52/52/52 19/19/19
f 60/60/60 18/18/18 19/19/19
f 60/60/60 68/68/68 17/17/17
f 76/76/76 16/16/16 17/17/17
f 84/84/84 15/15/15 16/16/16
f 84/84/84 92/92/92 14/14/14
f 100/100/100 13/13/13 14/14/14
f 11/11/11 12/12/12 93/93/93
f 93/93/93 94/94/94 86/86/86
f 94/94/94 95/95/95 87/87/87
f 87/87/87 95/95/95 96/96/96
f 96/96/96 97/97/97 89/89/89
f 97/97/97 98/98/98 90/90/90
f 90/90/90 98/98/98 99/99/99
f 91/91/91 99/99/99 100/100/100
f 10/10/10 11/11/11 85/85/85
f 77/77/77 85/85/85 86/86/86
f 78/78/78 86/86/86 87/87/87
f 79/79/79 87/87/87 88/88/88
f 88/88/88 89/89/89 81/81/81
f 81/81/81 89/89/89 90/90/90
f 82/82/82 90/90/90 91/91/91
f 91/91/91 92/92/92 84/84/84
f 10/10/10 77/77/77 69/69/69
f 69/69/69 77/77/77 78/78/78
f 70/70/70 78/78/78 79/79/79
f 79/79/79 80/80/80 72/72/72
f 72/72/72 80/80/80 81/81/81
f 73/73/73 81/81/81 82/82/82
f 82/82/82 83/83/83 75/75/75
f 83/83/83 84/84/84 76/76/76
f 9/9/9 69/69/69 61/61/61
f 69/69/69 70/70/70 62/62/62
f 62/62/62 70/70/70 71/71/71
f 63/63/63 71/71/71 72/72/72
f 72/72/72 73/73/73 65/65/65
f 65/65/65 73/73/73 74/74/74
f 66/66/66 74/74/74 75/75/75
f 67/67/67 75/75/75 76/76/76
f 8/8/8 61/61/61 53/53/53
f 53/53/53 61/61/61 62/62/62
f 54/54/54 62/62/62 63/63/63
f 55/55/55 63/63/63 64/64/64
f 64/64/64 65/65/65 57/57/57
f 57/57/57 65/65/65 66/66/66
f 58/58/58 66/66/66 67/67/67
f 59/59/59 67/67/67 68/68/68
f 6/6/6 7/7/7 53/53/53
f 45/45/45 53/53/53 54/54/54
f 54/54/54 55/55/55 47/47/47
f 55/55/55 56/56/56 48/48/48
f 56/56/56 57/57/57 49/49/49
f 49/49/49 57/57/57 58/58/58
f 58/58/58 59/59/59 51/51/51
f 59/59/59 60/60/60 52/52/52
f 6/6/6 45/45/45 37/37/37
f 45/45/45 46/46/46 38/38/38
f 46/46/46 47/47/47 39/39/39
f 39/39/39 47/47/47 48/48/48
f 40/40/40 48/48/48 49/49/49
f 41/41/41 49/49/49 50/50/50
f 50/50/50 51/51/51 43/43/43
f 51/51/51 52/52/52 44/44/44
f 5/5/5 37/37/37 28/28/28
f 28/28/28 37/37/37 38/38/38
f 27/27/27 38/38/38 39/39/39
f 26/26/26 39/39/39 40/40/40
f 40/40/40 41/41/41 24/24/24
f 41/41/41 42/42/42 23/23/23
f 23/23/23 42/42/42 43/43/43
f 43/43/43 44/44/44 21/21/21
f 2/2/2 29/29/29 93/93/93
f 93/93/93 29/29/29 30/30/30
f 30/30/30 31/31/31 95/95/95
f 31/31/31 32/32/32 96/96/96
f 32/32/32 33/33/33 97/97/97
f 33/33/33 34/34/34 98/98/98
f 98/98/98 34/34/34 35/35/35
f 99/99/99 35/35/35 36/36/36
