o GNATVCloth
v -5.01159 -4.9737 0.610447
v 5.05347 -4.98529 0.400963
v -5.01298 5.02105 0.004229
v 4.98702 5.02105 0.004229
v -3.90575 -5.0053 0.489116
v -2.78808 -5.03716 0.482213
v -1.66673 -5.05969 0.445563
v -0.543207 -5.07218 0.450128
v 0.581203 -5.07307 0.464026
v 1.70297 -5.05846 0.444365
v 2.82363 -5.03993 0.433977
v 3.94084 -5.02139 0.362182
v 3.87222 4.89653 0.213996
v 2.76449 4.79772 0.411591
v 1.64582 4.7451 0.330603
v 0.52731 4.70268 0.331753
v -0.569424 4.68448 0.528819
v -1.68939 4.69447 0.569986
v -2.8106 4.75125 0.500079
v -3.91132 4.86478 0.270345
v -4.973 3.90876 0.0840993
v -4.96507 2.79459 0.132094
v -4.96368 1.6812 0.179923
v -4.96764 0.568277 0.22127
v -4.97569 -0.544011 0.259994
v -4.98291 -1.65582 0.299706
v -4.99034 -2.76734 0.370747
v -5.00186 -3.87584 0.455597
v 5.03801 -3.87748 0.332001
v 5.02414 -2.77125 0.20879
v 5.01033 -1.65938 0.188922
v 4.99874 -0.546815 0.194118
v 4.98816 0.566135 0.1898
v 4.97831 1.67974 0.16556
v 4.97353 2.7938 0.128812
v 4.96612 3.9071 0.0645877
v -3.82768 -3.86506 0.411458
v -3.78889 -3.21929 0.318403
v -3.63821 -1.93198 0.268707
v -4.08656 -0.275419 0.222961
v -4.10911 0.741016 0.180836
v -4.1022 1.52495 0.127835
v -4.04381 2.81442 0.0546681
v -3.92399 3.88426 -0.165914
v -2.70183 -4.02444 0.321363
v -2.77169 -2.75586 0.314863
v -2.64893 -2.16592 0.285746
v -2.72109 -0.619547 0.278573
v -2.75133 0.510304 0.204476
v -2.67818 1.54849 0.0324928
v -2.84655 2.85629 -0.265449
v -2.76719 3.48526 0.0402286
v -1.64028 -4.25519 0.365319
v -1.47867 -2.94052 0.40829
v -1.86567 -1.64729 0.375822
v -1.84707 -0.855661 0.297761
v -1.51531 0.598106 -0.0798097
v -1.98552 1.64207 -0.258428
v -1.70953 2.67756 -0.105535
v -1.57937 3.59769 0.301662
v -0.216053 -4.3336 0.400988
v -0.566558 -2.90468 0.425015
v -0.526686 -1.76507 0.323984
v -0.817913 -0.796826 0.190404
v -0.592952 0.398751 -0.00338675
v -0.366832 1.42298 -0.045598
v -0.57706 2.56794 0.147026
v -0.759253 3.39137 0.317724
v 0.755214 -3.9041 0.356811
v 0.833049 -2.62011 0.365087
v 0.54194 -1.83989 0.291872
v 0.625791 -0.543754 -0.0271706
v 0.596584 0.363033 -0.0131486
v 0.306124 1.47425 -0.0460746
v 0.524826 2.43354 0.088401
v 0.55016 3.59532 0.363126
v 1.97156 -3.66372 0.305381
v 1.69639 -2.857 0.417724
v 1.83742 -1.92915 0.396109
v 1.99189 -0.418961 0.145743
v 1.98855 0.236385 -0.0511741
v 1.83156 1.50013 -0.0698771
v 1.4089 2.77321 0.00789418
v 1.49266 3.51691 0.323507
v 2.8151 -3.93137 0.310643
v 3.12094 -2.84666 0.308038
v 2.96897 -1.9691 0.362323
v 2.72168 -0.507103 0.29827
v 2.96632 0.277742 0.169943
v 3.08176 1.55107 -0.0941219
v 2.76339 3.11601 -0.173016
v 2.74838 3.43317 0.0218927
v 3.94128 -3.97294 0.334152
v 3.68313 -2.71872 0.304856
v 3.88934 -1.68021 0.302394
v 3.81939 -0.726 0.31383
v 3.87268 0.287113 0.281141
v 4.15868 1.80125 0.149821
v 4.13606 2.75281 -0.0168896
v 4.02958 3.87238 -0.140626
vt 0.0001 0.0001
vt 0.9999 0.0001
vt 0.0001 0.9999
vt 0.9999 0.9999
vt 0.111189 0.0001
vt 0.222278 0.0001
vt 0.333367 0.0001
vt 0.444455 0.0001
vt 0.555544 0.0001
vt 0.666633 0.0001
vt 0.777722 0.0001
vt 0.888811 0.0001
vt 0.888811 0.9999
vt 0.777722 0.9999
vt 0.666633 0.9999
vt 0.555544 0.9999
vt 0.444455 0.9999
vt 0.333367 0.9999
vt 0.222278 0.9999
vt 0.111189 0.9999
vt 0.0001 0.888811
vt 0.0001 0.777722
vt 0.0001 0.666633
vt 0.0001 0.555544
vt 0.0001 0.444456
vt 0.0001 0.333367
vt 0.0001 0.222278
vt 0.0001 0.111189
vt 0.9999 0.111189
vt 0.9999 0.222278
vt 0.9999 0.333367
vt 0.9999 0.444456
vt 0.9999 0.555544
vt 0.9999 0.666633
vt 0.9999 0.777722
vt 0.9999 0.888811
vt 0.11727 0.115399
vt 0.120778 0.180369
vt 0.134636 0.309595
vt 0.088728 0.473895
vt 0.085886 0.575352
vt 0.086211 0.65375
vt 0.092207 0.78313
vt 0.106956 0.892282
vt 0.22987 0.102869
vt 0.221803 0.229552
vt 0.233521 0.288953
vt 0.225541 0.443179
vt 0.221596 0.556167
vt 0.227801 0.661237
vt 0.214896 0.795203
vt 0.22542 0.865181
vt 0.335524 0.082127
vt 0.351143 0.213907
vt 0.311934 0.342467
vt 0.313159 0.422214
vt 0.347791 0.572605
vt 0.301482 0.677733
vt 0.329031 0.783086
vt 0.344903 0.885466
vt 0.476837 0.074882
vt 0.441952 0.218774
vt 0.445749 0.333088
vt 0.416414 0.43099
vt 0.439746 0.552976
vt 0.463203 0.656843
vt 0.444252 0.77653
vt 0.426137 0.866051
vt 0.573419 0.117409
vt 0.581125 0.246686
vt 0.552512 0.326
vt 0.561075 0.459693
vt 0.558356 0.550596
vt 0.530299 0.662189
vt 0.553275 0.760113
vt 0.555478 0.888821
vt 0.694433 0.13996
vt 0.667048 0.221666
vt 0.681985 0.314267
vt 0.698218 0.467249
vt 0.696819 0.535952
vt 0.68253 0.662758
vt 0.642062 0.791726
vt 0.648523 0.877957
vt 0.778029 0.111667
vt 0.809426 0.219523
vt 0.794923 0.307783
vt 0.772028 0.454562
vt 0.796846 0.533374
vt 0.807262 0.663157
vt 0.778581 0.821037
vt 0.775122 0.858219
vt 0.890224 0.104741
vt 0.865679 0.23076
vt 0.887326 0.334104
vt 0.881307 0.429754
vt 0.887973 0.53063
vt 0.918106 0.681428
vt 0.915043 0.778027
vt 0.904815 0.89094
vn 0.111914 0.137815 0.984115
vn -0.0195724 0.0444159 0.998821
vn -0.0187609 -0.16555 0.986023
vn -0.0038891 -0.121923 0.992532
vn 0.0523748 0.0903395 0.994533
vn 0.0339401 0.11785 0.992451
vn 0.0157723 0.098727 0.99499
vn -0.0120071 0.0822365 0.99654
vn 0.00309288 0.0837634 0.996481
vn 0.0177148 0.0972065 0.995107
vn 0.018152 0.0826792 0.996411
vn 0.0140069 0.0267172 0.999545
vn 0.200726 -0.292859 0.934849
vn 0.137194 -0.211376 0.967728
vn -0.0355782 -0.00133678 0.999366
vn 0.0741913 0.018316 0.997076
vn 0.0360196 -0.129918 0.99087
vn -0.0195405 -0.239442 0.970714
vn -0.187576 -0.330419 0.925007
vn -0.247365 -0.391201 0.886438
vn 0.183346 0.0980201 0.978149
vn 0.0827481 0.0431757 0.995635
vn 0.0661409 0.0499676 0.996558
vn 0.0364282 0.0379133 0.998617
vn 0.0310275 0.0350148 0.998905
vn 0.0324362 0.0449334 0.998463
vn 0.0544304 0.0569862 0.99689
vn 0.0641683 0.104867 0.992414
vn -0.00556329 0.0863653 0.996248
vn 0.0592458 0.0391134 0.997477
vn 0.100893 0.00363315 0.994891
vn 0.0929699 0.00935079 0.995625
vn 0.0425041 0.033608 0.998531
vn -0.0151523 0.0272611 0.999514
vn -0.12223 0.0851389 0.988843
vn -0.201991 0.0664651 0.97713
vn 0.0558175 0.111587 0.992186
vn 0.0413391 0.0717321 0.996567
vn 0.00704056 0.0348384 0.999368
vn 0.00858217 0.0388495 0.999208
vn 0.0360494 0.0695029 0.99693
vn 0.0683887 0.0600747 0.995848
vn 0.147392 0.111948 0.982722
vn -0.0531224 -0.166816 0.984556
vn 0.0122634 0.0705151 0.997435
vn -0.0308301 0.0318902 0.999016
vn -0.061619 0.021658 0.997865
vn -0.0317515 0.0415748 0.998631
vn 0.108117 0.13234 0.98529
vn 0.18589 0.15298 0.970588
vn 0.0365719 -0.0428007 0.998414
vn -0.218782 -0.371902 0.902121
vn -0.0123993 0.0500988 0.998667
vn -0.0412608 0.017889 0.998988
vn -0.00451432 0.0626891 0.998023
vn 0.0788082 0.139126 0.987134
vn 0.0445185 0.173103 0.983897
vn 0.040181 0.054941 0.997681
vn -0.18235 -0.271439 0.945023
vn -0.0919153 -0.291975 0.951999
vn -0.00129227 0.0419681 0.999118
vn 0.0121782 0.0299878 0.999476
vn 0.0453093 0.128998 0.990609
vn 0.0724996 0.159244 0.984574
vn 0.0038809 0.0701286 0.99753
vn -0.0497309 -0.0465797 0.997676
vn -0.0936297 -0.18741 0.977809
vn -0.0843599 -0.231954 0.969062
vn 0.0201321 0.0202506 0.999592
vn -0.0246266 0.0372864 0.999001
vn -0.00665684 0.147031 0.98911
vn -0.0031859 0.153437 0.988153
vn 0.017382 0.0108241 0.99979
vn 0.01025 -0.0355185 0.999316
vn 0.0606839 -0.155994 0.985892
vn 0.0599881 -0.167106 0.984112
vn 0.0369905 -0.0069351 0.999292
vn 0.0226697 -0.03825 0.999011
vn -0.0642514 0.109389 0.99192
vn -0.157547 0.230818 0.960157
vn -0.09905 0.149279 0.983822
vn 0.0479837 -0.0089462 0.998808
vn 0.130187 -0.21704 0.967443
vn 0.0848199 -0.227894 0.969985
vn -0.00221772 0.065621 0.997842
vn 0.0246818 -0.0305504 0.999228
vn 0.0411978 -0.00206716 0.999149
vn -0.088302 0.157301 0.983595
vn -0.135713 0.170891 0.975899
vn -0.132071 0.118252 0.984161
vn 0.0936033 -0.185391 0.978197
vn 0.217477 -0.389948 0.894788
vn 0.00661472 0.0508682 0.998683
vn 0.0463782 -0.00394916 0.998916
vn 0.0815722 -0.00310274 0.996663
vn 0.0367032 0.0357573 0.998686
vn -0.0422499 0.0820113 0.995735
vn -0.108622 0.0985863 0.989183
vn -0.169161 0.100197 0.980482
vn 0.0553556 -0.165601 0.984638
f 100/100/100 4/4/4 13/13/13
f 44/44/44 3/3/3 21/21/21
f 44/44/44 19/19/19 20/20/20
f 60/60/60 19/19/19 52/52/52
f 60/60/60 17/17/17 18/18/18
f 76/76/76 17/17/17 68/68/68
f 84/84/84 16/16/16 76/76/76
f 84/84/84 14/14/14 15/15/15
f 100/100/100 14/14/14 92/92/92
f 11/11/11 93/93/93 85/85/85
f 93/93/93 86/86/86 85/85/85
f 94/94/94 87/87/87 86/86/86
f 87/87/87 96/96/96 88/88/88
f 96/96/96 89/89/89 88/88/88
f 97/97/97 90/90/90 89/89/89
f 90/90/90 99/99/99 91/91/91
f 91/91/91 100/100/100 92/92/92
f 10/10/10 85/85/85 77/77/77
f 77/77/77 86/86/86 78/78/78
f 78/78/78 87/87/87 79/79/79
f 79/79/79 88/88/88 80/80/80
f 88/88/88 81/81/81 80/80/80
f 81/81/81 90/90/90 82/82/82
f 82/82/82 91/91/91 83/83/83
f 91/91/91 84/84/84 83/83/83
f 10/10/10 69/69/69 9/9/9
f 69/69/69 78/78/78 70/70/70
f 70/70/70 79/79/79 71/71/71
f 79/79/79 72/72/72 71/71/71
f 72/72/72 81/81/81 73/73/73
f 73/73/73 82/82/82 74/74/74
f 82/82/82 75/75/75 74/74/74
f 83/83/83 76/76/76 75/75/75
f 9/9/9 61/61/61 8/8/8
f 69/69/69 62/62/62 61/61/61
f 62/62/62 71/71/71 63/63/63
f 63/63/63 72/72/72 64/64/64
f 72/72/72 65/65/65 64/64/64
f 65/65/65 74/74/74 66/66/66
f 66/66/66 75/75/75 67/67/67
f 67/67/67 76/76/76 68/68/68
f 8/8/8 53/53/53 7/7/7
f 53/53/53 62/62/62 54/54/54
f 54/54/54 63/63/63 55/55/55
f 55/55/55 64/64/64 56/56/56
f 64/64/64 57/57/57 56/56/56
f 57/57/57 66/66/66 58/58/58
f 58/58/58 67/67/67 59/59/59
f 59/59/59 68/68/68 60/60/60
f 6/6/6 53/53/53 45/45/45
f 45/45/45 54/54/54 46/46/46
f 54/54/54 47/47/47 46/46/46
f 55/55/55 48/48/48 47/47/47
f 56/56/56 49/49/49 48/48/48
f 49/49/49 58/58/58 50/50/50
f 58/58/58 51/51/51 50/50/50
f 59/59/59 52/52/52 51/51/51
f 6/6/6 37/37/37 5/5/5
f 45/45/45 38/38/38 37/37/37
f 46/46/46 39/39/39 38/38/38
f 39/39/39 48/48/48 40/40/40
f 40/40/40 49/49/49 41/41/41
f 41/41/41 50/50/50 42/42/42
f 50/50/50 43/43/43 42/42/42
f 51/51/51 44/44/44 43/43/43
f 5/5/5 28/28/28 1/1/1
f 28/28/28 38/38/38 27/27/27
f 27/27/27 39/39/39 26/26/26
f 26/26/26 40/40/40 25/25/25
f 40/40/40 24/24/24 25/25/25
f 41/41/41 23/23/23 24/24/24
f 23/23/23 43/43/43 22/22/22
f 43/43/43 21/21/21 22/22/22
f 2/2/2 93/93/93 12/12/12
f 93/93/93 30/30/30 94/94/94
f 30/30/30 95/95/95 94/94/94
f 31/31/31 96/96/96 95/95/95
f 32/32/32 97/97/97 96/96/96
f 33/33/33 98/98/98 97/97/97
f 98/98/98 35/35/35 99/99/99
f 99/99/99 36/36/36 100/100/100
f 100/100/100 36/36/36 4/4/4
f 44/44/44 20/20/20 3/3/3
f 44/44/44 52/52/52 19/19/19
f 60/60/60 18/18/18 19/19/19
f 60/60/60 68/68/68 17/17/17
f 76/76/76 16/16/16 17/17/17
f 84/84/84 15/15/15 16/16/16
f 84/84/84 92/92/92 14/14/14
f 100/100/100 13/13/13 14/14/14
f 11/11/11 12/12/12 93/93/93
f 93/93/93 94/94/94 86/86/86
f 94/94/94 95/95/95 87/87/87
f 87/87/87 95/95/95 96/96/96
f 96/96/96 97/97/97 89/89/89
f 97/97/97 98/98/98 90/90/90
f 90/90/90 98/98/98 99/99/99
f 91/91/91 99/99/99 100/100/100
f 10/10/10 11/11/11 85/85/85
f 77/77/77 85/85/85 86/86/86
f 78/78/78 86/86/86 87/87/87
f 79/79/79 87/87/87 88/88/88
f 88/88/88 89/89/89 81/81/81
f 81/81/81 89/89/89 90/90/90
f 82/82/82 90/90/90 91/91/91
f 91/91/91 92/92/92 84/84/84
f 10/10/10 77/77/77 69/69/69
f 69/69/69 77/77/77 78/78/78
f 70/70/70 78/78/78 79/79/79
f 79/79/79 80/80/80 72/72/72
f 72/72/72 80/80/80 81/81/81
f 73/73/73 81/81/81 82/82/82
f 82/82/82 83/83/83 75/75/75
f 83/83/83 84/84/84 76/76/76
f 9/9/9 69/69/69 61/61/61
f 69/69/69 70/70/70 62/62/62
f 62/62/62 70/70/70 71/71/71
f 63/63/63 71/71/71 72/72/72
f 72/72/72 73/73/73 65/65/65
f 65/65/65 73/73/73 74/74/74
f 66/66/66 74/74/74 75/75/75
f 67/67/67 75/75/75 76/76/76
f 8/8/8 61/61/61 53/53/53
f 53/53/53 61/61/61 62/62/62
f 54/54/54 62/62/62 63/63/63
f 55/55/55 63/63/63 64/64/64
f 64/64/64 65/65/65 57/57/57
f 57/57/57 65/65/65 66/66/66
f 58/58/58 66/66/66 67/67/67
f 59/59/59 67/67/67 68/68/68
f 6/6/6 7/7/7 53/53/53
f 45/45/45 53/53/53 54/54/54
f 54/54/54 55/55/55 47/47/47
f 55/55/55 56/56/56 48/48/48
f 56/56/56 57/57/57 49/49/49
f 49/49/49 57/57/57 58/58/58
f 58/58/58 59/59/59 51/51/51
f 59/59/59 60/60/60 52/52/52
f 6/6/6 45/45/45 37/37/37
f 45/45/45 46/46/46 38/38/38
f 46/46/46 47/47/47 39/39/39
f 39/39/39 47/47/47 48/48/48
f 40/40/40 48/48/48 49/49/49
f 41/41/41 49/49/49 50/50/50
f 50/50/50 51/51/51 43/43/43
f 51/51/51 52/52/52 44/44/44
f 5/5/5 37/37/37 28/28/28
f 28/28/28 37/37/37 38/38/38
f 27/27/27 38/38/38 39/39/39
f 26/26/26 39/39/39 40/40/40
f 40/40/40 41/41/41 24/24/24
f 41/41/41 42/42/42 23/23/23
f 23/23/23 42/42/42 43/43/43
f 43/43/43 44/44/44 21/21/21
f 2/2/2 29/29/29 93/93/93
f 93/93/93 29/29/29 30/30/30
f 30/30/30 31/31/31 95/95/95
f 31/31/31 32/32/32 96/96/96
f 32/32/32 33/33/33 97/97/97
f 33/33/33 34/34/34 98/98/98
f 98/98/98 34/34/34 35/35/35
f 99/99/99 35/35/35 36/36/36
