o GNATVCloth
v -4.90003 -5.002 0.320886
v 5.1711 -4.99043 0.346353
v -5.01298 5.02105 0.004229
v 4.98702 5.02105 0.004229
v -3.78947 -5.01695 0.269645
v -2.67295 -5.03653 0.254615
v -1.55339 -5.06054 0.194276
v -0.429303 -5.07538 0.177208
v 0.696087 -5.07978 0.213298
v 1.81899 -5.07433 0.198213
v 2.941 -5.05416 0.193755
v 4.05956 -5.02455 0.25492
v 3.86217 4.94358 0.0557355
v 2.75489 4.86424 0.209626
v 1.64323 4.7672 0.283611
v 0.629698 4.73152 0.244698
v -0.488963 4.79691 0.228463
v -1.60598 4.86776 0.166985
v -2.73502 4.93809 0.138952
v -3.86913 4.97756 0.0900727
v -4.97692 3.90542 0.0366046
v -4.96061 2.78958 0.0683908
v -4.94956 1.67455 0.103971
v -4.94049 0.559794 0.13897
v -4.92761 -0.553668 0.191979
v -4.91219 -1.66534 0.254679
v -4.89731 -2.77681 0.297536
v -4.89216 -3.88988 0.304297
v 5.15212 -3.88283 0.26235
v 5.1334 -2.77193 0.254001
v 5.11573 -1.65947 0.233913
v 5.1021 -0.547934 0.178072
v 5.08708 0.563737 0.125157
v 5.06887 1.6773 0.0852167
v 5.04493 2.79158 0.0521741
v 5.01592 3.90627 0.0284624
v -3.72113 -3.87038 0.224332
v -3.68746 -3.22171 0.220228
v -3.56543 -1.93122 0.158758
v -4.04479 -0.276594 0.158355
v -4.08316 0.739086 0.148798
v -4.0858 1.52325 0.123409
v -4.0383 2.81984 0.081443
v -3.90023 3.9044 0.0111238
v -2.59182 -4.01739 0.18628
v -2.67974 -2.74898 0.156354
v -2.56841 -2.15808 0.121536
v -2.67009 -0.616325 0.222764
v -2.7208 0.515237 0.214189
v -2.66826 1.56256 0.168668
v -2.80781 2.90157 0.0595428
v -2.71868 3.58808 0.181175
v -1.52856 -4.24351 0.190998
v -1.37815 -2.93005 0.176778
v -1.79074 -1.63981 0.237985
v -1.78696 -0.842038 0.220833
v -1.45429 0.654365 0.148927
v -1.93232 1.70598 0.147943
v -1.67251 2.75267 0.202963
v -1.5181 3.75866 0.195163
v -0.104047 -4.33057 0.163462
v -0.464962 -2.89155 0.17007
v -0.442768 -1.7504 0.204829
v -0.750867 -0.770939 0.172223
v -0.530159 0.445639 0.169318
v -0.306676 1.48301 0.19218
v -0.512335 2.68271 0.200976
v -0.702582 3.5368 0.187076
v 0.865424 -3.90672 0.192037
v 0.931821 -2.61554 0.169245
v 0.631613 -1.82421 0.178413
v 0.697132 -0.487524 0.159957
v 0.660393 0.419909 0.183801
v 0.366964 1.53295 0.194342
v 0.587201 2.51166 0.191978
v 0.601959 3.71931 0.177042
v 2.0825 -3.67382 0.188955
v 1.79742 -2.86522 0.166757
v 1.93616 -1.93901 0.193728
v 2.07484 -0.40842 0.184312
v 2.05121 0.274634 0.159833
v 1.89553 1.53799 0.128717
v 1.47696 2.8191 0.222659
v 1.53452 3.60236 0.174159
v 2.92772 -3.94063 0.177985
v 3.22487 -2.85699 0.235698
v 3.07035 -1.98186 0.134546
v 2.81807 -0.521747 0.227872
v 3.05627 0.271539 0.209686
v 3.14729 1.56538 0.14475
v 2.84357 3.12923 0.157288
v 2.79641 3.47843 0.220179
v 4.05726 -3.98163 0.179397
v 3.7872 -2.73075 0.248636
v 3.9883 -1.69153 0.226088
v 3.91657 -0.737957 0.169461
v 3.97033 0.270046 0.167117
v 4.25112 1.78992 0.133617
v 4.20148 2.75349 0.0959395
v 4.06908 3.87625 0.0568275
vt 0.0001 0.0001
vt 0.9999 0.0001
vt 0.0001 0.9999
vt 0.9999 0.9999
vt 0.111189 0.0001
vt 0.222278 0.0001
vt 0.333367 0.0001
vt 0.444455 0.0001
vt 0.555544 0.0001
vt 0.666633 0.0001
vt 0.777722 0.0001
vt 0.888811 0.0001
vt 0.888811 0.9999
vt 0.777722 0.9999
vt 0.666633 0.9999
vt 0.555544 0.9999
vt 0.444455 0.9999
vt 0.333367 0.9999
vt 0.222278 0.9999
vt 0.111189 0.9999
vt 0.0001 0.888811
vt 0.0001 0.777722
vt 0.0001 0.666633
vt 0.0001 0.555544
vt 0.0001 0.444456
vt 0.0001 0.333367
vt 0.0001 0.222278
vt 0.0001 0.111189
vt 0.9999 0.111189
vt 0.9999 0.222278
vt 0.9999 0.333367
vt 0.9999 0.444456
vt 0.9999 0.555544
vt 0.9999 0.666633
vt 0.9999 0.777722
vt 0.9999 0.888811
vt 0.11727 0.115399
vt 0.120778 0.180369
vt 0.134636 0.309595
vt 0.088728 0.473895
vt 0.085886 0.575352
vt 0.086211 0.65375
vt 0.092207 0.78313
vt 0.106956 0.892282
vt 0.22987 0.102869
vt 0.221803 0.229552
vt 0.233521 0.288953
vt 0.225541 0.443179
vt 0.221596 0.556167
vt 0.227801 0.661237
vt 0.214896 0.795203
vt 0.22542 0.865181
vt 0.335524 0.082127
vt 0.351143 0.213907
vt 0.311934 0.342467
vt 0.313159 0.422214
vt 0.347791 0.572605
vt 0.301482 0.677733
vt 0.329031 0.783086
vt 0.344903 0.885466
vt 0.476837 0.074882
vt 0.441952 0.218774
vt 0.445749 0.333088
vt 0.416414 0.43099
vt 0.439746 0.552976
vt 0.463203 0.656843
vt 0.444252 0.77653
vt 0.426137 0.866051
vt 0.573419 0.117409
vt 0.581125 0.246686
vt 0.552512 0.326
vt 0.561075 0.459693
vt 0.558356 0.550596
vt 0.530299 0.662189
vt 0.553275 0.760113
vt 0.555478 0.888821
vt 0.694433 0.13996
vt 0.667048 0.221666
vt 0.681985 0.314267
vt 0.698218 0.467249
vt 0.696819 0.535952
vt 0.68253 0.662758
vt 0.642062 0.791726
vt 0.648523 0.877957
vt 0.778029 0.111667
vt 0.809426 0.219523
vt 0.794923 0.307783
vt 0.772028 0.454562
vt 0.796846 0.533374
vt 0.807262 0.663157
vt 0.778581 0.821037
vt 0.775122 0.858219
vt 0.890224 0.104741
vt 0.865679 0.23076
vt 0.887326 0.334104
vt 0.881307 0.429754
vt 0.887973 0.53063
vt 0.918106 0.681428
vt 0.915043 0.778027
vt 0.904815 0.89094
vn 0.0462814 0.0145716 0.998822
vn -0.0829681 0.0728797 0.993884
vn -0.026895 -0.0206302 0.999425
vn 0.0371486 0.016121 0.99918
vn 0.0426484 0.0295419 0.998653
vn 0.0298896 0.0426898 0.998641
vn 0.0345549 0.00296026 0.999398
vn 0.00108071 0.0152294 0.999883
vn -0.0194829 0.0241491 0.999519
vn 0.00815107 0.0101743 0.999915
vn -0.0178055 0.033473 0.999281
vn -0.0701647 0.0718932 0.994941
vn 0.090475 0.0185582 0.995726
vn 0.0748925 -0.0138209 0.997096
vn 0.019901 -0.0953738 0.995243
vn -0.0195509 -0.0743363 0.997042
vn -0.0146215 -0.0282731 0.999493
vn -0.0384823 0.0223322 0.99901
vn -0.0550005 0.00299868 0.998482
vn -0.0613968 -0.0714604 0.995552
vn 0.0107625 0.0399103 0.999145
vn -0.0151277 0.0299955 0.999436
vn -0.0166797 0.0320561 0.999347
vn -0.0027615 0.0293224 0.999566
vn 0.0216443 0.0521942 0.998402
vn 0.0581462 0.0393914 0.997531
vn 0.0744139 0.0286261 0.996817
vn 0.0619973 0.0147765 0.997967
vn -0.0790874 0.0401157 0.99606
vn -0.0231634 -0.00250685 0.999729
vn -0.0104378 0.0421901 0.999055
vn 0.000654772 0.0335416 0.999437
vn 0.0408105 0.0335224 0.998604
vn 0.0636994 0.0338786 0.997394
vn 0.0546667 0.0316987 0.998001
vn 0.0362452 0.0277436 0.998958
vn 0.0451891 0.0289887 0.998558
vn 0.0567265 0.0207183 0.998175
vn 0.0423879 0.0166495 0.998962
vn -0.00531112 0.0191949 0.999802
vn -0.0280163 0.02629 0.999262
vn -0.0247904 0.0327562 0.999156
vn -0.00432838 0.0476789 0.998853
vn -0.0540769 -0.0155279 0.998416
vn 0.0203024 0.0325258 0.999265
vn 0.0244466 0.040639 0.998875
vn -0.0267887 -0.0208698 0.999423
vn -0.0270399 -0.0192617 0.999449
vn -0.00175991 0.0242188 0.999705
vn -0.0103298 0.0531209 0.998535
vn -0.0695538 -0.0161233 0.997448
vn -0.0980782 -0.0469492 0.994071
vn 0.0175543 0.0147429 0.999737
vn -0.0116934 -0.00646358 0.999911
vn -0.015886 -0.0176493 0.999718
vn 0.029764 0.0252196 0.999239
vn 0.0108646 0.0127155 0.99986
vn -0.015228 0.00731299 0.999857
vn -0.0454901 -0.0325288 0.998435
vn -0.0156013 0.00974932 0.999831
vn -0.0114582 0.0110946 0.999873
vn 0.00462307 -0.00782461 0.999959
vn 0.0179467 -0.00227101 0.999836
vn 0.0178569 0.023731 0.999559
vn -0.0108231 -0.0117801 0.999872
vn -0.0135585 -0.0109234 0.999848
vn -0.000835797 -0.00399243 0.999992
vn 0.00660962 -0.00552903 0.999963
vn -0.00679831 0.0138904 0.99988
vn -0.00217851 -0.00408625 0.999989
vn 0.00538023 -0.0062337 0.999966
vn -0.00136245 0.00651101 0.999978
vn 0.0104656 -0.00725753 0.999919
vn 0.0136681 -0.00733145 0.99988
vn 0.00161964 -0.0101513 0.999947
vn -0.00341042 -0.00917492 0.999952
vn -0.00777146 -0.000997874 0.999969
vn -0.00770916 0.0159311 0.999843
vn -0.000462544 -0.0147669 0.999891
vn -0.0369868 0.0220374 0.999073
vn -0.0215012 0.0263999 0.99942
vn 0.0188203 -0.0136035 0.99973
vn 0.0115774 0.000754502 0.999933
vn -0.00146029 -0.0450907 0.998982
vn 0.00210704 -0.0144572 0.999893
vn -0.026807 0.0102243 0.999588
vn -0.0258794 0.0226893 0.999408
vn -0.00221214 -0.00369852 0.999991
vn 0.00976491 0.0289291 0.999534
vn 0.00352205 0.0248457 0.999685
vn 0.0433958 -0.0429047 0.998136
vn 0.0521111 -0.0802676 0.99541
vn -0.0398451 0.0090021 0.999165
vn -0.0358132 0.011691 0.99929
vn -0.0494531 0.038563 0.998032
vn -0.000512185 0.0159654 0.999872
vn 0.0249251 0.0223539 0.999439
vn 0.0364469 0.0309026 0.998858
vn 0.0389095 0.0306302 0.998773
vn 0.0847925 -0.000224608 0.996399
f 100/100/100 4/4/4 13/13/13
f 44/44/44 3/3/3 21/21/21
f 44/44/44 19/19/19 20/20/20
f 60/60/60 19/19/19 52/52/52
f 60/60/60 17/17/17 18/18/18
f 76/76/76 17/17/17 68/68/68
f 84/84/84 16/16/16 76/76/76
f 84/84/84 14/14/14 15/15/15
f 100/100/100 14/14/14 92/92/92
f 11/11/11 93/93/93 85/85/85
f 93/93/93 86/86/86 85/85/85
f 94/94/94 87/87/87 86/86/86
f 87/87/87 96/96/96 88/88/88
f 96/96/96 89/89/89 88/88/88
f 97/97/97 90/90/90 89/89/89
f 90/90/90 99/99/99 91/91/91
f 91/91/91 100/100/100 92/92/92
f 10/10/10 85/85/85 77/77/77
f 77/77/77 86/86/86 78/78/78
f 78/78/78 87/87/87 79/79/79
f 79/79/79 88/88/88 80/80/80
f 88/88/88 81/81/81 80/80/80
f 81/81/81 90/90/90 82/82/82
f 82/82/82 91/91/91 83/83/83
f 91/91/91 84/84/84 83/83/83
f 10/10/10 69/69/69 9/9/9
f 69/69/69 78/78/78 70/70/70
f 70/70/70 79/79/79 71/71/71
f 79/79/79 72/72/72 71/71/71
f 72/72/72 81/81/81 73/73/73
f 73/73/73 82/82/82 74/74/74
f 82/82/82 75/75/75 74/74/74
f 83/83/83 76/76/76 75/75/75
f 9/9/9 61/61/61 8/8/8
f 69/69/69 62/62/62 61/61/61
f 62/62/62 71/71/71 63/63/63
f 63/63/63 72/72/72 64/64/64
f 72/72/72 65/65/65 64/64/64
f 65/65/65 74/74/74 66/66/66
f 66/66/66 75/75/75 67/67/67
f 67/67/67 76/76/76 68/68/68
f 8/8/8 53/53/53 7/7/7
f 53/53/53 62/62/62 54/54/54
f 54/54/54 63/63/63 55/55/55
f 55/55/55 64/64/64 56/56/56
f 64/64/64 57/57/57 56/56/56
f 57/57/57 66/66/66 58/58/58
f 58/58/58 67/67/67 59/59/59
f 59/59/59 68/68/68 60/60/60
f 6/6/6 53/53/53 45/45/45
f 45/45/45 54/54/54 46/46/46
f 54/54/54 47/47/47 46/46/46
f 55/55/55 48/48/48 47/47/47
f 56/56/56 49/49/49 48/48/48
f 49/49/49 58/58/58 50/50/50
f 58/58/58 51/51/51 50/50/50
f 59/59/59 52/52/52 51/51/51
f 6/6/6 37/37/37 5/5/5
f 45/45/45 38/38/38 37/37/37
f 46/46/46 39/39/39 38/38/38
f 39/39/39 48/48/48 40/40/40
f 40/40/40 49/49/49 41/41/41
f 41/41/41 50/50/50 42/42/42
f 50/50/50 43/43/43 42/42/42
f 51/51/51 44/44/44 43/43/43
f 5/5/5 28/28/28 1/1/1
f 28/28/28 38/38/38 27/27/27
f 27/27/27 39/39/39 26/26/26
f 26/26/26 40/40/40 25/25/25
f 40/40/40 24/24/24 25/25/25
f 41/41/41 23/23/23 24/24/24
f 23/23/23 43/43/43 22/22/22
f 43/43/43 21/21/21 22/22/22
f 2/2/2 93/93/93 12/12/12
f 93/93/93 30/30/30 94/94/94
f 30/30/30 95/95/95 94/94/94
f 31/31/31 96/96/96 95/95/95
f 32/32/32 97/97/97 96/96/96
f 33/33/33 98/98/98 97/97/97
f 98/98/98 35/35/35 99/99/99
f 99/99/99 36/36/36 100/100/100
f 100/100/100 36/36/36 4/4/4
f 44/44/44 20/20/20 3/3/3
f 44/44/44 52/52/52 19/19/19
f 60/60/60 18/18/18 19/19/19
f 60/60/60 68/68/68 17/17/17
f 76/76/76 16/16/16 17/17/17
f 84/84/84 15/15/15 16/16/16
f 84/84/84 92/92/92 14/14/14
f 100/100/100 13/13/13 14/14/14
f 11/11/11 12/12/12 93/93/93
f 93/93/93 94/94/94 86/86/86
f 94/94/94 95/95/95 87/87/87
f 87/87/87 95/95/95 96/96/96
f 96/96/96 97/97/97 89/89/89
f 97/97/97 98/98/98 90/90/90
f 90/90/90 98/98/98 99/99/99
f 91/91/91 99/99/99 100/100/100
f 10/10/10 11/11/11 85/85/85
f 77/77/77 85/85/85 86/86/86
f 78/78/78 86/86/86 87/87/87
f 79/79/79 87/87/87 88/88/88
f 88/88/88 89/89/89 81/81/81
f 81/81/81 89/89/89 90/90/90
f 82/82/82 90/90/90 91/91/91
f 91/91/91 92/92/92 84/84/84
f 10/10/10 77/77/77 69/69/69
f 69/69/69 77/77/77 78/78/78
f 70/70/70 78/78/78 79/79/79
f 79/79/79 80/80/80 72/72/72
f 72/72/72 80/80/80 81/81/81
f 73/73/73 81/81/81 82/82/82
f 82/82/82 83/83/83 75/75/75
f 83/83/83 84/84/84 76/76/76
f 9/9/9 69/69/69 61/61/61
f 69/69/69 70/70/70 62/62/62
f 62/62/62 70/70/70 71/71/71
f 63/63/63 71/71/71 72/72/72
f 72/72/72 73/73/73 65/65/65
f 65/65/65 73/73/73 74/74/74
f 66/66/66 74/74/74 75/75/75
f 67/67/67 75/75/75 76/76/76
f 8/8/8 61/61/61 53/53/53
f 53/53/53 61/61/61 62/62/62
f 54/54/54 62/62/62 63/63/63
f 55/55/55 63/63/63 64/64/64
f 64/64/64 65/65/65 57/57/57
f 57/57/57 65/65/65 66/66/66
f 58/58/58 66/66/66 67/67/67
f 59/59/59 67/67/67 68/68/68
f 6/6/6 7/7/7 53/53/53
f 45/45/45 53/53/53 54/54/54
f 54/54/54 55/55/55 47/47/47
f 55/55/55 56/56/56 48/48/48
f 56/56/56 57/57/57 49/49/49
f 49/49/49 57/57/57 58/58/58
f 58/58/58 59/59/59 51/51/51
f 59/59/59 60/60/60 52/52/52
f 6/6/6 45/45/45 37/37/37
f 45/45/45 46/46/46 38/38/38
f 46/46/46 47/47/47 39/39/39
f 39/39/39 47/47/47 48/48/48
f 40/40/40 48/48/48 49/49/49
f 41/41/41 49/49/49 50/50/50
f 50/50/50 51/51/51 43/43/43
f 51/51/51 52/52/52 44/44/44
f 5/5/5 37/37/37 28/28/28
f 28/28/28 37/37/37 38/38/38
f 27/27/27 38/38/38 39/39/39
f 26/26/26 39/39/39 40/40/40
f 40/40/40 41/41/41 24/24/24
f 41/41/41 42/42/42 23/23/23
f 23/23/23 42/42/42 43/43/43
f 43/43/43 44/44/44 21/21/21
f 2/2/2 29/29/29 93/93/93
f 93/93/93 29/29/29 30/30/30
f 30/30/30 31/31/31 95/95/95
f 31/31/31 32/32/32 96/96/96
f 32/32/32 33/33/33 97/97/97
f 33/33/33 34/34/34 98/98/98
f 98/98/98 34/34/34 35/35/35
f 99/99/99 35/35/35 36/36/36
