o GNATVCloth
v -5.04859 -4.97851 0.461611
v 5.05333 -4.997 0.466372
v -5.01298 5.02105 0.004229
v 4.98702 5.02105 0.004229
v -3.94258 -5.0129 0.440341
v -2.82406 -5.06352 0.399017
v -1.70214 -5.09552 0.305588
v -0.572698 -5.1162 0.295946
v 0.558773 -5.11907 0.300479
v 1.68835 -5.11527 0.344007
v 2.81642 -5.08017 0.309668
v 3.93954 -5.03479 0.348977
v 3.8599 4.93993 0.165067
v 2.7427 4.87609 0.284563
v 1.63223 4.83535 0.430898
v 0.519288 4.8092 0.408867
v -0.568299 4.80637 0.333757
v -1.66033 4.82453 0.216708
v -2.77401 4.85738 0.255601
v -3.88466 4.92932 0.112784
v -5.00116 3.90733 0.0840176
v -4.993 2.79145 0.104061
v -4.99547 1.67621 0.118518
v -4.9993 0.561772 0.147594
v -4.9981 -0.549919 0.205909
v -5.0004 -1.65924 0.291935
v -5.00418 -2.76617 0.403128
v -5.01808 -3.87317 0.524023
v 5.02947 -3.88653 0.415578
v 5.0107 -2.77947 0.31495
v 4.99727 -1.66905 0.242917
v 4.9885 -0.557262 0.185815
v 4.98438 0.556637 0.146276
v 4.98044 1.67189 0.109511
v 4.97749 2.78817 0.0826715
v 4.97707 3.90447 0.0435755
v -3.85376 -3.87284 0.413554
v -3.80934 -3.22504 0.361117
v -3.66374 -1.9515 0.158512
v -4.11228 -0.290964 0.120254
v -4.14091 0.728271 0.155135
v -4.13446 1.51414 0.163108
v -4.07127 2.80791 0.173217
v -3.9359 3.87057 -0.065373
v -2.73062 -4.043 0.306138
v -2.79685 -2.77837 0.209726
v -2.68107 -2.19065 0.273312
v -2.7583 -0.646304 0.339227
v -2.7919 0.485783 0.343368
v -2.71291 1.52765 0.222139
v -2.85314 2.84496 -0.0480856
v -2.77055 3.51692 0.144479
v -1.66828 -4.29011 0.320088
v -1.50034 -2.97962 0.307541
v -1.89907 -1.68771 0.403424
v -1.88271 -0.888955 0.392921
v -1.5366 0.581097 0.149547
v -1.99379 1.63713 0.0163974
v -1.74492 2.66578 0.247635
v -1.573 3.68164 0.249485
v -0.240892 -4.39138 0.325266
v -0.589129 -2.95183 0.333677
v -0.554451 -1.80889 0.343472
v -0.852158 -0.835915 0.284643
v -0.619815 0.375769 0.253574
v -0.390265 1.40801 0.293936
v -0.591433 2.58445 0.390731
v -0.763785 3.47706 0.306948
v 0.735315 -3.96526 0.332308
v 0.808611 -2.67572 0.262363
v 0.51629 -1.88919 0.303804
v 0.598864 -0.552852 0.307718
v 0.567835 0.356356 0.301675
v 0.282129 1.46529 0.309935
v 0.508194 2.44153 0.339161
v 0.532619 3.70286 0.322125
v 1.95527 -3.71641 0.293941
v 1.67491 -2.90897 0.277326
v 1.81574 -1.97994 0.333156
v 1.97335 -0.446184 0.292439
v 1.95649 0.239886 0.28785
v 1.8075 1.50265 0.252309
v 1.40143 2.77876 0.320058
v 1.45586 3.62644 0.287688
v 2.80177 -3.97034 0.321338
v 3.10231 -2.88133 0.352894
v 2.94908 -2.00444 0.310517
v 2.71262 -0.544773 0.332747
v 2.95757 0.254226 0.302412
v 3.05642 1.5524 0.201854
v 2.76967 3.12022 0.231539
v 2.72695 3.48702 0.178005
v 3.9334 -3.99605 0.363311
v 3.66578 -2.74631 0.370826
v 3.8728 -1.70387 0.3114
v 3.80566 -0.751258 0.260612
v 3.8683 0.261186 0.24222
v 4.16567 1.78269 0.156387
v 4.12848 2.74679 0.0534351
v 4.02053 3.87068 0.00533283
vt 0.0001 0.0001
vt 0.9999 0.0001
vt 0.0001 0.9999
vt 0.9999 0.9999
vt 0.111189 0.0001
vt 0.222278 0.0001
vt 0.333367 0.0001
vt 0.444455 0.0001
vt 0.555544 0.0001
vt 0.666633 0.0001
vt 0.777722 0.0001
vt 0.888811 0.0001
vt 0.888811 0.9999
vt 0.777722 0.9999
vt 0.666633 0.9999
vt 0.555544 0.9999
vt 0.444455 0.9999
vt 0.333367 0.9999
vt 0.222278 0.9999
vt 0.111189 0.9999
vt 0.0001 0.888811
vt 0.0001 0.777722
vt 0.0001 0.666633
vt 0.0001 0.555544
vt 0.0001 0.444456
vt 0.0001 0.333367
vt 0.0001 0.222278
vt 0.0001 0.111189
vt 0.9999 0.111189
vt 0.9999 0.222278
vt 0.9999 0.333367
vt 0.9999 0.444456
vt 0.9999 0.555544
vt 0.9999 0.666633
vt 0.9999 0.777722
vt 0.9999 0.888811
vt 0.11727 0.115399
vt 0.120778 0.180369
vt 0.134636 0.309595
vt 0.088728 0.473895
vt 0.085886 0.575352
vt 0.086211 0.65375
vt 0.092207 0.78313
vt 0.106956 0.892282
vt 0.22987 0.102869
vt 0.221803 0.229552
vt 0.233521 0.288953
vt 0.225541 0.443179
vt 0.221596 0.556167
vt 0.227801 0.661237
vt 0.214896 0.795203
vt 0.22542 0.865181
vt 0.335524 0.082127
vt 0.351143 0.213907
vt 0.311934 0.342467
vt 0.313159 0.422214
vt 0.347791 0.572605
vt 0.301482 0.677733
vt 0.329031 0.783086
vt 0.344903 0.885466
vt 0.476837 0.074882
vt 0.441952 0.218774
vt 0.445749 0.333088
vt 0.416414 0.43099
vt 0.439746 0.552976
vt 0.463203 0.656843
vt 0.444252 0.77653
vt 0.426137 0.866051
vt 0.573419 0.117409
vt 0.581125 0.246686
vt 0.552512 0.326
vt 0.561075 0.459693
vt 0.558356 0.550596
vt 0.530299 0.662189
vt 0.553275 0.760113
vt 0.555478 0.888821
vt 0.694433 0.13996
vt 0.667048 0.221666
vt 0.681985 0.314267
vt 0.698218 0.467249
vt 0.696819 0.535952
vt 0.68253 0.662758
vt 0.642062 0.791726
vt 0.648523 0.877957
vt 0.778029 0.111667
vt 0.809426 0.219523
vt 0.794923 0.307783
vt 0.772028 0.454562
vt 0.796846 0.533374
vt 0.807262 0.663157
vt 0.778581 0.821037
vt 0.775122 0.858219
vt 0.890224 0.104741
vt 0.865679 0.23076
vt 0.887326 0.334104
vt 0.881307 0.429754
vt 0.887973 0.53063
vt 0.918106 0.681428
vt 0.915043 0.778027
vt 0.904815 0.89094
vn 0.0174295 -0.0568449 0.998231
vn -0.0782352 0.0150998 0.996821
vn 0.0170242 -0.0444916 0.998865
vn 0.0542973 -0.0446611 0.997526
vn 0.0499604 -0.0067705 0.998728
vn 0.0588549 0.042437 0.997364
vn 0.0453129 -0.0198868 0.998775
vn -0.000730091 -0.0314792 0.999504
vn -0.012454 -0.0295354 0.999486
vn -0.000754423 0.00971823 0.999952
vn -0.0136685 -0.0117043 0.999838
vn -0.0694117 -0.0141752 0.997487
vn 0.130887 -0.127217 0.983201
vn 0.119812 -0.105217 0.987205
vn 0.0588629 -0.1259 0.990295
vn -0.018251 -0.0906694 0.995714
vn -0.064153 -0.0216987 0.997704
vn -0.0352935 0.0259541 0.99904
vn -0.0947037 -0.0731074 0.992817
vn -0.121716 -0.158973 0.979751
vn 0.0701386 0.0971528 0.992795
vn -0.0750795 0.0152255 0.997061
vn -0.0487989 0.00607703 0.99879
vn 0.0216916 0.0147434 0.999656
vn 0.0773092 0.064632 0.99491
vn 0.101524 0.0762 0.99191
vn 0.0957389 0.117529 0.988444
vn 0.0707002 0.0351858 0.996877
vn -0.0542016 0.0669907 0.99628
vn 0.0216645 0.0515979 0.998433
vn 0.0573853 0.0580886 0.996661
vn 0.063865 0.0338951 0.997383
vn 0.0709181 0.0367929 0.996803
vn 0.0612939 0.0286282 0.997709
vn -0.00491493 0.0546659 0.998493
vn -0.0395196 0.0364281 0.998555
vn 0.087928 0.0528138 0.994726
vn 0.0936403 0.104948 0.990059
vn -0.00342498 0.0425381 0.999089
vn -0.0300456 0.0114449 0.999483
vn -0.0620167 0.00967796 0.998028
vn -0.047267 -0.00762455 0.998853
vn 0.0341401 0.0909319 0.995272
vn -0.0341857 -0.0252861 0.999096
vn 0.0431945 0.0682151 0.996735
vn -0.0187737 0.0264852 0.999473
vn -0.116549 -0.0743084 0.990401
vn -0.118111 -0.0198754 0.992802
vn 0.00791565 0.0688689 0.997594
vn 0.0792938 0.107435 0.991045
vn -0.0402867 0.002173 0.999186
vn -0.180163 -0.125445 0.975605
vn 0.00691473 0.00429432 0.999967
vn -0.0400838 -0.02385 0.998912
vn -0.0158251 -0.0190199 0.999694
vn 0.0446556 0.0581993 0.997306
vn -0.00110062 0.0904872 0.995897
vn -0.0183203 0.0151055 0.999718
vn -0.163744 -0.0793483 0.983307
vn -0.0629264 -0.00285765 0.998014
vn -0.00270994 -0.0236331 0.999717
vn 0.00975618 0.000383817 0.999952
vn 0.018114 0.0072917 0.999809
vn 0.0169005 0.0593168 0.998096
vn -0.0570557 0.00245498 0.998368
vn -0.0785464 -0.0345592 0.996311
vn -0.0636429 -0.034145 0.997388
vn -0.0590834 0.0280323 0.997859
vn 0.00730829 0.0156661 0.999851
vn 0.00724964 -0.00859838 0.999937
vn 0.0161019 -0.0220786 0.999627
vn -0.00550115 0.0150396 0.999872
vn -0.00409542 0.00524195 0.999978
vn -0.00137845 -0.022787 0.999739
vn 0.0259717 -0.0258449 0.999329
vn 0.00456521 -0.00371635 0.999983
vn -0.0121475 0.0167524 0.999786
vn -0.0162216 0.0011429 0.999868
vn -0.0120789 -0.0195571 0.999736
vn -0.0210701 0.0174014 0.999627
vn -0.00170122 0.0289623 0.999579
vn 0.039676 -0.00814663 0.999179
vn 0.0443218 0.00239598 0.999014
vn 0.0608346 -0.0259524 0.99781
vn -0.0204875 -0.00371267 0.999783
vn -0.0420696 0.00545406 0.9991
vn -0.00437598 0.0162177 0.999859
vn 0.00577363 0.0132863 0.999895
vn 0.0338963 0.0448268 0.99842
vn 0.0443405 0.0478341 0.997871
vn 0.0906671 0.0520809 0.994519
vn 0.105602 0.0389039 0.993647
vn -0.0387047 0.00834987 0.999216
vn -0.0014114 0.0282527 0.9996
vn 0.0243253 0.0568441 0.998087
vn 0.0509181 0.0287875 0.998288
vn 0.0622094 0.0380428 0.997338
vn 0.0345321 0.0601954 0.997589
vn 0.0298097 0.0580005 0.997871
vn 0.0812901 -0.00684315 0.996667
f 100/100/100 4/4/4 13/13/13
f 44/44/44 3/3/3 21/21/21
f 44/44/44 19/19/19 20/20/20
f 60/60/60 19/19/19 52/52/52
f 60/60/60 17/17/17 18/18/18
f 76/76/76 17/17/17 68/68/68
f 84/84/84 16/16/16 76/76/76
f 84/84/84 14/14/14 15/15/15
f 100/100/100 14/14/14 92/92/92
f 11/11/11 93/93/93 85/85/85
f 93/93/93 86/86/86 85/85/85
f 94/94/94 87/87/87 86/86/86
f 87/87/87 96/96/96 88/88/88
f 96/96/96 89/89/89 88/88/88
f 97/97/97 90/90/90 89/89/89
f 90/90/90 99/99/99 91/91/91
f 91/91/91 100/100/100 92/92/92
f 10/10/10 85/85/85 77/77/77
f 77/77/77 86/86/86 78/78/78
f 78/78/78 87/87/87 79/79/79
f 79/79/79 88/88/88 80/80/80
f 88/88/88 81/81/81 80/80/80
f 81/81/81 90/90/90 82/82/82
f 82/82/82 91/91/91 83/83/83
f 91/91/91 84/84/84 83/83/83
f 10/10/10 69/69/69 9/9/9
f 69/69/69 78/78/78 70/70/70
f 70/70/70 79/79/79 71/71/71
f 79/79/79 72/72/72 71/71/71
f 72/72/72 81/81/81 73/73/73
f 73/73/73 82/82/82 74/74/74
f 82/82/82 75/75/75 74/74/74
f 83/83/83 76/76/76 75/75/75
f 9/9/9 61/61/61 8/8/8
f 69/69/69 62/62/62 61/61/61
f 62/62/62 71/71/71 63/63/63
f 63/63/63 72/72/72 64/64/64
f 72/72/72 65/65/65 64/64/64
f 65/65/65 74/74/74 66/66/66
f 66/66/66 75/75/75 67/67/67
f 67/67/67 76/76/76 68/68/68
f 8/8/8 53/53/53 7/7/7
f 53/53/53 62/62/62 54/54/54
f 54/54/54 63/63/63 55/55/55
f 55/55/55 64/64/64 56/56/56
f 64/64/64 57/57/57 56/56/56
f 57/57/57 66/66/66 58/58/58
f 58/58/58 67/67/67 59/59/59
f 59/59/59 68/68/68 60/60/60
f 6/6/6 53/53/53 45/45/45
f 45/45/45 54/54/54 46/46/46
f 54/54/54 47/47/47 46/46/46
f 55/55/55 48/48/48 47/47/47
f 56/56/56 49/49/49 48/48/48
f 49/49/49 58/58/58 50/50/50
f 58/58/58 51/51/51 50/50/50
f 59/59/59 52/52/52 51/51/51
f 6/6/6 37/37/37 5/5/5
f 45/45/45 38/38/38 37/37/37
f 46/46/46 39/39/39 38/38/38
f 39/39/39 48/48/48 40/40/40
f 40/40/40 49/49/49 41/41/41
f 41/41/41 50/50/50 42/42/42
f 50/50/50 43/43/43 42/42/42
f 51/51/51 44/44/44 43/43/43
f 5/5/5 28/28/28 1/1/1
f 28/28/28 38/38/38 27/27/27
f 27/27/27 39/39/39 26/26/26
f 26/26/26 40/40/40 25/25/25
f 40/40/40 24/24/24 25/25/25
f 41/41/41 23/23/23 24/24/24
f 23/23/23 43/43/43 22/22/22
f 43/43/43 21/21/21 22/22/22
f 2/2/2 93/93/93 12/12/12
f 93/93/93 30/30/30 94/94/94
f 30/30/30 95/95/95 94/94/94
f 31/31/31 96/96/96 95/95/95
f 32/32/32 97/97/97 96/96/96
f 33/33/33 98/98/98 97/97/97
f 98/98/98 35/35/35 99/99/99
f 99/99/99 36/36/36 100/100/100
f 100/100/100 36/36/36 4/4/4
f 44/44/44 20/20/20 3/3/3
f 44/44/44 52/52/52 19/19/19
f 60/60/60 18/18/18 19/19/19
f 60/60/60 68/68/68 17/17/17
f 76/76/76 16/16/16 17/17/17
f 84/84/84 15/15/15 16/16/16
f 84/84/84 92/92/92 14/14/14
f 100/100/100 13/13/13 14/14/14
f 11/11/11 12/12/12 93/93/93
f 93/93/93 94/94/94 86/86/86
f 94/94/94 95/95/95 87/87/87
f 87/87/87 95/95/95 96/96/96
f 96/96/96 97/97/97 89/89/89
f 97/97/97 98/98/98 90/90/90
f 90/90/90 98/98/98 99/99/99
f 91/91/91 99/99/99 100/100/100
f 10/10/10 11/11/11 85/85/85
f 77/77/77 85/85/85 86/86/86
f 78/78/78 86/86/86 87/87/87
f 79/79/79 87/87/87 88/88/88
f 88/88/88 89/89/89 81/81/81
f 81/81/81 89/89/89 90/90/90
f 82/82/82 90/90/90 91/91/91
f 91/91/91 92/92/92 84/84/84
f 10/10/10 77/77/77 69/69/69
f 69/69/69 77/77/77 78/78/78
f 70/70/70 78/78/78 79/79/79
f 79/79/79 80/80/80 72/72/72
f 72/72/72 80/80/80 81/81/81
f 73/73/73 81/81/81 82/82/82
f 82/82/82 83/83/83 75/75/75
f 83/83/83 84/84/84 76/76/76
f 9/9/9 69/69/69 61/61/61
f 69/69/69 70/70/70 62/62/62
f 62/62/62 70/70/70 71/71/71
f 63/63/63 71/71/71 72/72/72
f 72/72/72 73/73/73 65/65/65
f 65/65/65 73/73/73 74/74/74
f 66/66/66 74/74/74 75/75/75
f 67/67/67 75/75/75 76/76/76
f 8/8/8 61/61/61 53/53/53
f 53/53/53 61/61/61 62/62/62
f 54/54/54 62/62/62 63/63/63
f 55/55/55 63/63/63 64/64/64
f 64/64/64 65/65/65 57/57/57
f 57/57/57 65/65/65 66/66/66
f 58/58/58 66/66/66 67/67/67
f 59/59/59 67/67/67 68/68/68
f 6/6/6 7/7/7 53/53/53
f 45/45/45 53/53/53 54/54/54
f 54/54/54 55/55/55 47/47/47
f 55/55/55 56/56/56 48/48/48
f 56/56/56 57/57/57 49/49/49
f 49/49/49 57/57/57 58/58/58
f 58/58/58 59/59/59 51/51/51
f 59/59/59 60/60/60 52/52/52
f 6/6/6 45/45/45 37/37/37
f 45/45/45 46/46/46 38/38/38
f 46/46/46 47/47/47 39/39/39
f 39/39/39 47/47/47 48/48/48
f 40/40/40 48/48/48 49/49/49
f 41/41/41 49/49/49 50/50/50
f 50/50/50 51/51/51 43/43/43
f 51/51/51 52/52/52 44/44/44
f 5/5/5 37/37/37 28/28/28
f 28/28/28 37/37/37 38/38/38
f 27/27/27 38/38/38 39/39/39
f 26/26/26 39/39/39 40/40/40
f 40/40/40 41/41/41 24/24/24
f 41/41/41 42/42/42 23/23/23
f 23/23/23 42/42/42 43/43/43
f 43/43/43 44/44/44 21/21/21
f 2/2/2 29/29/29 93/93/93
f 93/93/93 29/29/29 30/30/30
f 30/30/30 31/31/31 95/95/95
f 31/31/31 32/32/32 96/96/96
f 32/32/32 33/33/33 97/97/97
f 33/33/33 34/34/34 98/98/98
f 98/98/98 34/34/34 35/35/35
f 99/99/99 35/35/35 36/36/36
