o GNATVCloth
v -5.03821 -4.97875 0.458438
v 5.05455 -4.99821 0.465512
v -5.01298 5.02105 0.004229
v 4.98702 5.02105 0.004229
v -3.93413 -5.01459 0.435899
v -2.81519 -5.06353 0.396591
v -1.69387 -5.08941 0.300667
v -0.566982 -5.10445 0.293122
v 0.563096 -5.10919 0.297401
v 1.69063 -5.10662 0.342276
v 2.81729 -5.07715 0.304503
v 3.9401 -5.03186 0.344971
v 3.86062 4.94125 0.163023
v 2.74406 4.88067 0.281384
v 1.63459 4.84397 0.428969
v 0.527357 4.81704 0.404615
v -0.567144 4.81783 0.331188
v -1.66206 4.82949 0.215442
v -2.77621 4.86519 0.248764
v -3.88663 4.93087 0.107132
v -4.99953 3.90723 0.0829439
v -4.99113 2.79134 0.102903
v -4.99334 1.67613 0.117719
v -4.99511 0.561738 0.146543
v -4.99304 -0.550018 0.204689
v -4.99574 -1.65952 0.288782
v -4.99711 -2.76579 0.401273
v -5.00856 -3.87098 0.519923
v 5.02941 -3.88675 0.412275
v 5.01216 -2.77837 0.318895
v 4.99796 -1.66808 0.242661
v 4.98976 -0.55623 0.182706
v 4.98647 0.557429 0.142034
v 4.98213 1.67243 0.105922
v 4.97987 2.7885 0.0799898
v 4.97784 3.90468 0.0431989
v -3.84706 -3.86986 0.408924
v -3.80319 -3.22352 0.360998
v -3.6581 -1.94785 0.159732
v -4.10704 -0.288589 0.121098
v -4.1368 0.72757 0.155469
v -4.13121 1.51569 0.16141
v -4.06936 2.80746 0.169486
v -3.93466 3.86959 -0.067703
v -2.72487 -4.04257 0.304696
v -2.79123 -2.77657 0.208586
v -2.67511 -2.18803 0.270355
v -2.7537 -0.642435 0.3379
v -2.78709 0.490574 0.343637
v -2.70931 1.53301 0.224497
v -2.85019 2.85006 -0.0458108
v -2.76887 3.52255 0.146118
v -1.66387 -4.28721 0.317678
v -1.49634 -2.97424 0.303682
v -1.89478 -1.68268 0.39835
v -1.87854 -0.88513 0.386189
v -1.53206 0.589108 0.154549
v -1.99028 1.64471 0.0186133
v -1.7426 2.67259 0.250806
v -1.57242 3.69027 0.24827
v -0.237212 -4.38252 0.321136
v -0.585661 -2.94378 0.329852
v -0.551591 -1.80219 0.33964
v -0.848788 -0.831362 0.282884
v -0.615309 0.381584 0.252003
v -0.385284 1.41285 0.29313
v -0.58839 2.59422 0.388085
v -0.762433 3.48412 0.303874
v 0.737715 -3.95571 0.329272
v 0.811419 -2.66747 0.258796
v 0.519202 -1.88092 0.300286
v 0.602321 -0.543684 0.304123
v 0.572417 0.358657 0.299095
v 0.286628 1.47226 0.306793
v 0.51093 2.44672 0.334035
v 0.535423 3.71029 0.317846
v 1.95732 -3.71219 0.290232
v 1.67717 -2.90306 0.274154
v 1.81774 -1.97554 0.329814
v 1.97688 -0.440766 0.289194
v 1.96049 0.244695 0.285835
v 1.81121 1.50591 0.249165
v 1.40525 2.78146 0.318326
v 1.45944 3.63247 0.284736
v 2.8034 -3.96918 0.316773
v 3.10389 -2.88044 0.34979
v 2.95055 -2.00269 0.308004
v 2.71585 -0.541007 0.330926
v 2.96085 0.257266 0.300885
v 3.0595 1.55634 0.203299
v 2.77248 3.12458 0.233949
v 2.73041 3.48972 0.180996
v 3.93398 -3.99578 0.359642
v 3.66694 -2.74415 0.371056
v 3.87403 -1.70255 0.311274
v 3.80796 -0.748431 0.259637
v 3.87166 0.265859 0.241036
v 4.16788 1.78572 0.155503
v 4.13041 2.74614 0.055269
v 4.02161 3.86981 0.00177384
vt 0.0001 0.0001
vt 0.9999 0.0001
vt 0.0001 0.9999
vt 0.9999 0.9999
vt 0.111189 0.0001
vt 0.222278 0.0001
vt 0.333367 0.0001
vt 0.444455 0.0001
vt 0.555544 0.0001
vt 0.666633 0.0001
vt 0.777722 0.0001
vt 0.888811 0.0001
vt 0.888811 0.9999
vt 0.777722 0.9999
vt 0.666633 0.9999
vt 0.555544 0.9999
vt 0.444455 0.9999
vt 0.333367 0.9999
vt 0.222278 0.9999
vt 0.111189 0.9999
vt 0.0001 0.888811
vt 0.0001 0.777722
vt 0.0001 0.666633
vt 0.0001 0.555544
vt 0.0001 0.444456
vt 0.0001 0.333367
vt 0.0001 0.222278
vt 0.0001 0.111189
vt 0.9999 0.111189
vt 0.9999 0.222278
vt 0.9999 0.333367
vt 0.9999 0.444456
vt 0.9999 0.555544
vt 0.9999 0.666633
vt 0.9999 0.777722
vt 0.9999 0.888811
vt 0.11727 0.115399
vt 0.120778 0.180369
vt 0.134636 0.309595
vt 0.088728 0.473895
vt 0.085886 0.575352
vt 0.086211 0.65375
vt 0.092207 0.78313
vt 0.106956 0.892282
vt 0.22987 0.102869
vt 0.221803 0.229552
vt 0.233521 0.288953
vt 0.225541 0.443179
vt 0.221596 0.556167
vt 0.227801 0.661237
vt 0.214896 0.795203
vt 0.22542 0.865181
vt 0.335524 0.082127
vt 0.351143 0.213907
vt 0.311934 0.342467
vt 0.313159 0.422214
vt 0.347791 0.572605
vt 0.301482 0.677733
vt 0.329031 0.783086
vt 0.344903 0.885466
vt 0.476837 0.074882
vt 0.441952 0.218774
vt 0.445749 0.333088
vt 0.416414 0.43099
vt 0.439746 0.552976
vt 0.463203 0.656843
vt 0.444252 0.77653
vt 0.426137 0.866051
vt 0.573419 0.117409
vt 0.581125 0.246686
vt 0.552512 0.326
vt 0.561075 0.459693
vt 0.558356 0.550596
vt 0.530299 0.662189
vt 0.553275 0.760113
vt 0.555478 0.888821
vt 0.694433 0.13996
vt 0.667048 0.221666
vt 0.681985 0.314267
vt 0.698218 0.467249
vt 0.696819 0.535952
vt 0.68253 0.662758
vt 0.642062 0.791726
vt 0.648523 0.877957
vt 0.778029 0.111667
vt 0.809426 0.219523
vt 0.794923 0.307783
vt 0.772028 0.454562
vt 0.796846 0.533374
vt 0.807262 0.663157
vt 0.778581 0.821037
vt 0.775122 0.858219
vt 0.890224 0.104741
vt 0.865679 0.23076
vt 0.887326 0.334104
vt 0.881307 0.429754
vt 0.887973 0.53063
vt 0.918106 0.681428
vt 0.915043 0.778027
vt 0.904815 0.89094
vn 0.0185643 -0.0559037 0.998264
vn -0.0798917 0.0159539 0.996676
vn 0.0202209 -0.043462 0.99885
vn 0.051743 -0.0455183 0.997623
vn 0.04995 -0.00630013 0.998732
vn 0.0584448 0.0414298 0.997431
vn 0.0455654 -0.0228817 0.998699
vn -0.00079853 -0.0316596 0.999498
vn -0.0132137 -0.0289379 0.999494
vn 0.000168461 0.0102786 0.999947
vn -0.0132778 -0.0121893 0.999838
vn -0.0713059 -0.0145439 0.997348
vn 0.129399 -0.12853 0.983227
vn 0.119548 -0.103346 0.987435
vn 0.0581905 -0.126309 0.990283
vn -0.0189091 -0.0907061 0.995698
vn -0.0625994 -0.0219006 0.997798
vn -0.0370912 0.0258688 0.998977
vn -0.0953075 -0.069444 0.993023
vn -0.118185 -0.1562 0.980629
vn 0.0719246 0.0964514 0.992736
vn -0.0723047 0.0153427 0.997265
vn -0.0477453 0.00708313 0.998834
vn 0.0197915 0.0147476 0.999695
vn 0.0750868 0.0637164 0.995139
vn 0.0985739 0.075899 0.992231
vn 0.0933289 0.117165 0.988717
vn 0.0707877 0.0333822 0.996933
vn -0.0543228 0.0647827 0.99642
vn 0.0203534 0.0502176 0.998531
vn 0.0579417 0.0604431 0.996489
vn 0.0658802 0.0350586 0.997211
vn 0.0739738 0.0366924 0.996585
vn 0.0646275 0.0279336 0.997518
vn -0.000253185 0.0529578 0.998597
vn -0.0400212 0.0370899 0.99851
vn 0.0866162 0.0502074 0.994976
vn 0.0929829 0.102061 0.990423
vn -0.00297527 0.0425748 0.999089
vn -0.0309937 0.0110647 0.999458
vn -0.0628425 0.0102346 0.997971
vn -0.0479419 -0.00557243 0.998835
vn 0.0332809 0.0911522 0.995281
vn -0.0339667 -0.0238134 0.999139
vn 0.0429269 0.066983 0.99683
vn -0.0163975 0.027088 0.999499
vn -0.113333 -0.0734127 0.990841
vn -0.114407 -0.0201915 0.993229
vn 0.00781393 0.0670678 0.997718
vn 0.0771952 0.107505 0.991203
vn -0.0428071 0.00220984 0.999081
vn -0.180166 -0.122032 0.976037
vn 0.00757229 0.00373706 0.999964
vn -0.039171 -0.0229026 0.99897
vn -0.0150015 -0.0185134 0.999716
vn 0.0446544 0.0558813 0.997438
vn -0.000376695 0.0882072 0.996102
vn -0.0176207 0.015335 0.999727
vn -0.16145 -0.0783775 0.983764
vn -0.0620565 -0.00072736 0.998072
vn -0.00256219 -0.0231664 0.999728
vn 0.00968135 0.000538311 0.999953
vn 0.0179323 0.00676691 0.999816
vn 0.01677 0.0575314 0.998203
vn -0.0537196 0.00148735 0.998555
vn -0.0751142 -0.0336739 0.996606
vn -0.0607074 -0.0335818 0.99759
vn -0.0566414 0.0289905 0.997974
vn 0.00693235 0.0159104 0.999849
vn 0.00694802 -0.00843658 0.99994
vn 0.0158629 -0.0221068 0.99963
vn -0.0052153 0.0143131 0.999884
vn -0.00393819 0.00525546 0.999978
vn 0.000193798 -0.0222042 0.999753
vn 0.026154 -0.0255058 0.999332
vn 0.00446345 -0.00363405 0.999983
vn -0.0115218 0.0167684 0.999793
vn -0.0163588 0.000979983 0.999866
vn -0.0127562 -0.0195918 0.999727
vn -0.0221465 0.0165217 0.999618
vn -0.0027874 0.0281324 0.9996
vn 0.0377676 -0.00833903 0.999252
vn 0.0415548 0.00204689 0.999134
vn 0.058507 -0.0252093 0.997969
vn -0.0198215 -0.00419741 0.999795
vn -0.0438856 0.00382141 0.999029
vn -0.00632931 0.0159471 0.999853
vn 0.004643 0.0127416 0.999908
vn 0.0334239 0.0438725 0.998478
vn 0.043944 0.0465912 0.997947
vn 0.0898625 0.0522295 0.994584
vn 0.105761 0.0407695 0.993555
vn -0.0403935 0.00651403 0.999163
vn -0.00520483 0.026712 0.99963
vn 0.022692 0.0582555 0.998044
vn 0.0507436 0.0292482 0.998283
vn 0.0637198 0.0376337 0.997258
vn 0.0378713 0.0590047 0.997539
vn 0.0318522 0.0583952 0.997785
vn 0.081522 -0.00529843 0.996657
f 100/100/100 4/4/4 13/13/13
f 44/44/44 3/3/3 21/21/21
f 44/44/44 19/19/19 20/20/20
f 60/60/60 19/19/19 52/52/52
f 60/60/60 17/17/17 18/18/18
f 76/76/76 17/17/17 68/68/68
f 84/84/84 16/16/16 76/76/76
f 84/84/84 14/14/14 15/15/15
f 100/100/100 14/14/14 92/92/92
f 11/11/11 93/93/93 85/85/85
f 93/93/93 86/86/86 85/85/85
f 94/94/94 87/87/87 86/86/86
f 87/87/87 96/96/96 88/88/88
f 96/96/96 89/89/89 88/88/88
f 97/97/97 90/90/90 89/89/89
f 90/90/90 99/99/99 91/91/91
f 91/91/91 100/100/100 92/92/92
f 10/10/10 85/85/85 77/77/77
f 77/77/77 86/86/86 78/78/78
f 78/78/78 87/87/87 79/79/79
f 79/79/79 88/88/88 80/80/80
f 88/88/88 81/81/81 80/80/80
f 81/81/81 90/90/90 82/82/82
f 82/82/82 91/91/91 83/83/83
f 91/91/91 84/84/84 83/83/83
f 10/10/10 69/69/69 9/9/9
f 69/69/69 78/78/78 70/70/70
f 70/70/70 79/79/79 71/71/71
f 79/79/79 72/72/72 71/71/71
f 72/72/72 81/81/81 73/73/73
f 73/73/73 82/82/82 74/74/74
f 82/82/82 75/75/75 74/74/74
f 83/83/83 76/76/76 75/75/75
f 9/9/9 61/61/61 8/8/8
f 69/69/69 62/62/62 61/61/61
f 62/62/62 71/71/71 63/63/63
f 63/63/63 72/72/72 64/64/64
f 72/72/72 65/65/65 64/64/64
f 65/65/65 74/74/74 66/66/66
f 66/66/66 75/75/75 67/67/67
f 67/67/67 76/76/76 68/68/68
f 8/8/8 53/53/53 7/7/7
f 53/53/53 62/62/62 54/54/54
f 54/54/54 63/63/63 55/55/55
f 55/55/55 64/64/64 56/56/56
f 64/64/64 57/57/57 56/56/56
f 57/57/57 66/66/66 58/58/58
f 58/58/58 67/67/67 59/59/59
f 59/59/59 68/68/68 60/60/60
f 6/6/6 53/53/53 45/45/45
f 45/45/45 54/54/54 46/46/46
f 54/54/54 47/47/47 46/46/46
f 55/55/55 48/48/48 47/47/47
f 56/56/56 49/49/49 48/48/48
f 49/49/49 58/58/58 50/50/50
f 58/58/58 51/51/51 50/50/50
f 59/59/59 52/52/52 51/51/51
f 6/6/6 37/37/37 5/5/5
f 45/45/45 38/38/38 37/37/37
f 46/46/46 39/39/39 38/38/38
f 39/39/39 48/48/48 40/40/40
f 40/40/40 49/49/49 41/41/41
f 41/41/41 50/50/50 42/42/42
f 50/50/50 43/43/43 42/42/42
f 51/51/51 44/44/44 43/43/43
f 5/5/5 28/28/28 1/1/1
f 28/28/28 38/38/38 27/27/27
f 27/27/27 39/39/39 26/26/26
f 26/26/26 40/40/40 25/25/25
f 40/40/40 24/24/24 25/25/25
f 41/41/41 23/23/23 24/24/24
f 23/23/23 43/43/43 22/22/22
f 43/43/43 21/21/21 22/22/22
f 2/2/2 93/93/93 12/12/12
f 93/93/93 30/30/30 94/94/94
f 30/30/30 95/95/95 94/94/94
f 31/31/31 96/96/96 95/95/95
f 32/32/32 97/97/97 96/96/96
f 33/33/33 98/98/98 97/97/97
f 98/98/98 35/35/35 99/99/99
f 99/99/99 36/36/36 100/100/100
f 100/100/100 36/36/36 4/4/4
f 44/44/44 20/20/20 3/3/3
f 44/44/44 52/52/52 19/19/19
f 60/60/60 18/18/18 19/19/19
f 60/60/60 68/68/68 17/17/17
f 76/76/76 16/16/16 17/17/17
f 84/84/84 15/15/15 16/16/16
f 84/84/84 92/92/92 14/14/14
f 100/100/100 13/13/13 14/14/14
f 11/11/11 12/12/12 93/93/93
f 93/93/93 94/94/94 86/86/86
f 94/94/94 95/95/95 87/87/87
f 87/87/87 95/95/95 96/96/96
f 96/96/96 97/97/97 89/89/89
f 97/97/97 98/98/98 90/90/90
f 90/90/90 98/98/98 99/99/99
f 91/91/91 99/99/99 100/100/100
f 10/10/10 11/11/11 85/85/85
f 77/77/77 85/85/85 86/86/86
f 78/78/78 86/86/86 87/87/87
f 79/79/79 87/87/87 88/88/88
f 88/88/88 89/89/89 81/81/81
f 81/81/81 89/89/89 90/90/90
f 82/82/82 90/90/90 91/91/91
f 91/91/91 92/92/92 84/84/84
f 10/10/10 77/77/77 69/69/69
f 69/69/69 77/77/77 78/78/78
f 70/70/70 78/78/78 79/79/79
f 79/79/79 80/80/80 72/72/72
f 72/72/72 80/80/80 81/81/81
f 73/73/73 81/81/81 82/82/82
f 82/82/82 83/83/83 75/75/75
f 83/83/83 84/84/84 76/76/76
f 9/9/9 69/69/69 61/61/61
f 69/69/69 70/70/70 62/62/62
f 62/62/62 70/70/70 71/71/71
f 63/63/63 71/71/71 72/72/72
f 72/72/72 73/73/73 65/65/65
f 65/65/65 73/73/73 74/74/74
f 66/66/66 74/74/74 75/75/75
f 67/67/67 75/75/75 76/76/76
f 8/8/8 61/61/61 53/53/53
f 53/53/53 61/61/61 62/62/62
f 54/54/54 62/62/62 63/63/63
f 55/55/55 63/63/63 64/64/64
f 64/64/64 65/65/65 57/57/57
f 57/57/57 65/65/65 66/66/66
f 58/58/58 66/66/66 67/67/67
f 59/59/59 67/67/67 68/68/68
f 6/6/6 7/7/7 53/53/53
f 45/45/45 53/53/53 54/54/54
f 54/54/54 55/55/55 47/47/47
f 55/55/55 56/56/56 48/48/48
f 56/56/56 57/57/57 49/49/49
f 49/49/49 57/57/57 58/58/58
f 58/58/58 59/59/59 51/51/51
f 59/59/59 60/60/60 52/52/52
f 6/6/6 45/45/45 37/37/37
f 45/45/45 46/46/46 38/38/38
f 46/46/46 47/47/47 39/39/39
f 39/39/39 47/47/47 48/48/48
f 40/40/40 48/48/48 49/49/49
f 41/41/41 49/49/49 50/50/50
f 50/50/50 51/51/51 43/43/43
f 51/51/51 52/52/52 44/44/44
f 5/5/5 37/37/37 28/28/28
f 28/28/28 37/37/37 38/38/38
f 27/27/27 38/38/38 39/39/39
f 26/26/26 39/39/39 40/40/40
f 40/40/40 41/41/41 24/24/24
f 41/41/41 42/42/42 23/23/23
f 23/23/23 42/42/42 43/43/43
f 43/43/43 44/44/44 21/21/21
f 2/2/2 29/29/29 93/93/93
f 93/93/93 29/29/29 30/30/30
f 30/30/30 31/31/31 95/95/95
f 31/31/31 32/32/32 96/96/96
f 32/32/32 33/33/33 97/97/97
f 33/33/33 34/34/34 98/98/98
f 98/98/98 34/34/34 35/35/35
f 99/99/99 35/35/35 36/36/36
