o GNATVCloth
v -5.05452 -4.98575 0.575832
v 5.02117 -4.99002 0.3993
v -5.01298 5.02105 0.004229
v 4.98702 5.02105 0.004229
v -3.94484 -5.01556 0.54927
v -2.82856 -5.05665 0.479951
v -1.70604 -5.0755 0.494278
v -0.581518 -5.08865 0.504158
v 0.546182 -5.09822 0.473899
v 1.67096 -5.07817 0.497855
v 2.79173 -5.05043 0.457512
v 3.91055 -5.00642 0.503666
v 3.85963 4.93071 0.144218
v 2.74456 4.86697 0.300185
v 1.62543 4.81174 0.341259
v 0.515255 4.76665 0.344023
v -0.596759 4.75832 0.446455
v -1.70193 4.7734 0.56092
v -2.82354 4.80575 0.544682
v -3.92242 4.88654 0.305115
v -4.99387 3.90665 0.072789
v -4.9983 2.79222 0.138625
v -5.00594 1.67866 0.20694
v -5.01264 0.564906 0.266617
v -5.01865 -0.548443 0.322715
v -5.02277 -1.6607 0.373403
v -5.02962 -2.77178 0.417604
v -5.03647 -3.88042 0.522406
v 5.00358 -3.88582 0.286219
v 4.99224 -2.77389 0.30888
v 4.98495 -1.66198 0.260403
v 4.98061 -0.548921 0.229549
v 4.9769 0.564033 0.212386
v 4.97336 1.67756 0.16858
v 4.97358 2.79213 0.129351
v 4.9697 3.90585 0.05846
v -3.87693 -3.88859 0.31649
v -3.83411 -3.24069 0.274589
v -3.6828 -1.95302 0.242606
v -4.13638 -0.29113 0.212314
v -4.15622 0.725956 0.205732
v -4.14765 1.50956 0.14514
v -4.08008 2.80096 0.043858
v -3.92666 3.88106 -0.0768101
v -2.7433 -4.04978 0.289908
v -2.8146 -2.78051 0.335338
v -2.69093 -2.19352 0.288678
v -2.76779 -0.648301 0.302186
v -2.79995 0.478893 0.200121
v -2.73129 1.51761 0.0494162
v -2.84879 2.86199 -0.0510944
v -2.74494 3.54709 0.066943
v -1.67888 -4.28362 0.322421
v -1.51397 -2.96968 0.397242
v -1.90703 -1.67717 0.394816
v -1.88961 -0.880859 0.350987
v -1.53494 0.593455 0.108855
v -1.99382 1.64743 -0.0372744
v -1.7148 2.68383 0.0732689
v -1.58775 3.63405 0.439185
v -0.252554 -4.36252 0.386931
v -0.600121 -2.932 0.458047
v -0.560835 -1.79018 0.4801
v -0.851143 -0.821425 0.328116
v -0.613519 0.380325 0.151234
v -0.375789 1.41472 0.129223
v -0.570149 2.5974 0.166328
v -0.76357 3.44588 0.436324
v 0.720897 -3.93205 0.413438
v 0.801968 -2.64279 0.531942
v 0.51535 -1.85544 0.48553
v 0.605672 -0.541883 0.268469
v 0.578546 0.352423 0.226685
v 0.294218 1.46216 0.187675
v 0.523382 2.43459 0.206372
v 0.537048 3.68578 0.395117
v 1.93639 -3.67354 0.406865
v 1.6498 -2.86762 0.338446
v 1.81872 -1.95171 0.474554
v 1.98129 -0.455425 0.127938
v 1.95885 0.225467 0.0141113
v 1.82355 1.48597 0.119651
v 1.40997 2.76179 0.191744
v 1.47766 3.58409 0.35449
v 2.78127 -3.93728 0.397902
v 3.08265 -2.8535 0.319267
v 2.93207 -1.97584 0.249681
v 2.69897 -0.516443 0.343065
v 2.94507 0.271671 0.217704
v 3.06585 1.54132 -0.0678867
v 2.76026 3.10615 -0.0162921
v 2.72864 3.46833 0.0681611
v 3.90487 -3.98144 0.288182
v 3.64623 -2.72731 0.320366
v 3.85754 -1.68871 0.287717
v 3.79493 -0.732416 0.290824
v 3.85755 0.278953 0.292195
v 4.15341 1.79277 0.158518
v 4.1381 2.74306 -0.028014
v 4.0208 3.8677 -0.0719276
vt 0.0001 0.0001
vt 0.9999 0.0001
vt 0.0001 0.9999
vt 0.9999 0.9999
vt 0.111189 0.0001
vt 0.222278 0.0001
vt 0.333367 0.0001
vt 0.444455 0.0001
vt 0.555544 0.0001
vt 0.666633 0.0001
vt 0.777722 0.0001
vt 0.888811 0.0001
vt 0.888811 0.9999
vt 0.777722 0.9999
vt 0.666633 0.9999
vt 0.555544 0.9999
vt 0.444455 0.9999
vt 0.333367 0.9999
vt 0.222278 0.9999
vt 0.111189 0.9999
vt 0.0001 0.888811
vt 0.0001 0.777722
vt 0.0001 0.666633
vt 0.0001 0.555544
vt 0.0001 0.444456
vt 0.0001 0.333367
vt 0.0001 0.222278
vt 0.0001 0.111189
vt 0.9999 0.111189
vt 0.9999 0.222278
vt 0.9999 0.333367
vt 0.9999 0.444456
vt 0.9999 0.555544
vt 0.9999 0.666633
vt 0.9999 0.777722
vt 0.9999 0.888811
vt 0.11727 0.115399
vt 0.120778 0.180369
vt 0.134636 0.309595
vt 0.088728 0.473895
vt 0.085886 0.575352
vt 0.086211 0.65375
vt 0.092207 0.78313
vt 0.106956 0.892282
vt 0.22987 0.102869
vt 0.221803 0.229552
vt 0.233521 0.288953
vt 0.225541 0.443179
vt 0.221596 0.556167
vt 0.227801 0.661237
vt 0.214896 0.795203
vt 0.22542 0.865181
vt 0.335524 0.082127
vt 0.351143 0.213907
vt 0.311934 0.342467
vt 0.313159 0.422214
vt 0.347791 0.572605
vt 0.301482 0.677733
vt 0.329031 0.783086
vt 0.344903 0.885466
vt 0.476837 0.074882
vt 0.441952 0.218774
vt 0.445749 0.333088
vt 0.416414 0.43099
vt 0.439746 0.552976
vt 0.463203 0.656843
vt 0.444252 0.77653
vt 0.426137 0.866051
vt 0.573419 0.117409
vt 0.581125 0.246686
vt 0.552512 0.326
vt 0.561075 0.459693
vt 0.558356 0.550596
vt 0.530299 0.662189
vt 0.553275 0.760113
vt 0.555478 0.888821
vt 0.694433 0.13996
vt 0.667048 0.221666
vt 0.681985 0.314267
vt 0.698218 0.467249
vt 0.696819 0.535952
vt 0.68253 0.662758
vt 0.642062 0.791726
vt 0.648523 0.877957
vt 0.778029 0.111667
vt 0.809426 0.219523
vt 0.794923 0.307783
vt 0.772028 0.454562
vt 0.796846 0.533374
vt 0.807262 0.663157
vt 0.778581 0.821037
vt 0.775122 0.858219
vt 0.890224 0.104741
vt 0.865679 0.23076
vt 0.887326 0.334104
vt 0.881307 0.429754
vt 0.887973 0.53063
vt 0.918106 0.681428
vt 0.915043 0.778027
vt 0.904815 0.89094
vn 0.0251869 0.0478523 0.998537
vn 0.0408431 0.15397 0.987231
vn -0.0779355 -0.14439 0.986447
vn -0.00135536 -0.0647566 0.9979
vn 0.0891167 0.145627 0.985318
vn 0.0296263 0.194133 0.980528
vn -0.00750408 0.212328 0.97717
vn -0.00439231 0.178114 0.984
vn -0.016026 0.0874039 0.996044
vn 0.00817691 0.0585877 0.998249
vn 0.0285752 0.104843 0.994078
vn 0.0201268 0.205799 0.978387
vn 0.140746 -0.176736 0.974143
vn 0.136795 -0.124402 0.982757
vn 0.0192143 0.00846265 0.99978
vn 0.0472427 0.0358703 0.998239
vn 0.0571372 -0.0167239 0.998226
vn 0.0419509 -0.101991 0.9939
vn -0.180764 -0.295306 0.938146
vn -0.256598 -0.342256 0.903891
vn 0.127482 0.0705748 0.989327
vn 0.101923 0.0592397 0.993027
vn 0.0838313 0.0656477 0.994315
vn 0.0800822 0.0367756 0.99611
vn 0.110482 0.0471298 0.99276
vn 0.10797 0.0436975 0.993193
vn 0.127433 0.0470899 0.990729
vn 0.132211 0.0956339 0.986597
vn -0.00176417 0.0407885 0.999166
vn 0.0109965 0.00719541 0.999914
vn 0.031577 0.0233053 0.99923
vn 0.0555945 0.0129609 0.998369
vn 0.0372169 0.0443103 0.998324
vn -0.00703046 0.0372312 0.999282
vn -0.130107 0.0948836 0.98695
vn -0.154478 0.0454695 0.986949
vn 0.0998128 0.137116 0.985513
vn 0.0614962 0.0355425 0.997474
vn 0.0173068 0.0292229 0.999423
vn 0.0423275 0.0351386 0.998486
vn 0.0532153 0.0602663 0.996763
vn 0.0765298 0.0750104 0.994242
vn 0.0916424 0.0768914 0.992819
vn -0.0789273 -0.13824 0.987249
vn -0.00764838 0.0502762 0.998706
vn -0.046175 0.0256002 0.998605
vn -0.0696011 0.0225557 0.99732
vn -0.0590172 0.0347568 0.997652
vn 0.023983 0.110651 0.99357
vn 0.0717 0.0989081 0.99251
vn -0.0277346 -0.0172043 0.999467
vn -0.208073 -0.266392 0.941138
vn -0.0279292 0.0896272 0.995584
vn -0.0625756 -0.0171362 0.997893
vn -0.062681 0.0309299 0.997554
vn 0.00339646 0.101547 0.994825
vn -0.00184553 0.124598 0.992206
vn -0.0221638 0.0397345 0.998964
vn -0.131992 -0.217244 0.967152
vn -0.0887769 -0.209577 0.973754
vn -0.0228843 0.0541338 0.998271
vn -0.0405583 -0.0356636 0.998541
vn -0.0288699 0.0680596 0.997263
vn -0.00125365 0.133848 0.991001
vn -0.0420406 0.0712432 0.996573
vn -0.0759442 0.0142284 0.997011
vn -0.0529055 -0.155613 0.9864
vn -0.0119798 -0.198239 0.98008
vn 0.0087082 0.00278868 0.999958
vn 0.0583469 -0.0539237 0.996839
vn -0.00564605 0.0813902 0.996666
vn 0.0399461 0.138493 0.989557
vn 0.0445126 0.0188705 0.998831
vn -0.0302584 0.0157685 0.999418
vn -0.00632936 -0.0685961 0.997624
vn 0.0418744 -0.09993 0.994113
vn 0.0103241 0.071764 0.997368
vn 0.0968475 -0.0347645 0.994692
vn 0.0619151 0.0439316 0.997114
vn -0.0904702 0.197697 0.976079
vn -0.0208255 0.100181 0.994751
vn 0.103471 -0.0245967 0.994328
vn 0.0965262 -0.121301 0.987911
vn 0.103022 -0.101728 0.989463
vn 0.0584633 0.0551488 0.996765
vn 0.0232095 0.055007 0.998216
vn 0.0467695 -0.0107198 0.998848
vn -0.0736893 0.111979 0.990975
vn -0.101564 0.164304 0.981167
vn -0.0668568 0.0976933 0.992968
vn 0.128512 -0.089785 0.987635
vn 0.182934 -0.185457 0.965474
vn 0.0309128 0.0681072 0.997199
vn -0.0104496 0.0197573 0.99975
vn -0.00729403 0.0216319 0.999739
vn 0.0161714 0.0137007 0.999775
vn -0.0374579 0.075522 0.99644
vn -0.105472 0.109666 0.988357
vn -0.124267 0.0778806 0.989188
vn 0.0508918 -0.0885503 0.994771
f 100/100/100 4/4/4 13/13/13
f 44/44/44 3/3/3 21/21/21
f 44/44/44 19/19/19 20/20/20
f 60/60/60 19/19/19 52/52/52
f 60/60/60 17/17/17 18/18/18
f 76/76/76 17/17/17 68/68/68
f 84/84/84 16/16/16 76/76/76
f 84/84/84 14/14/14 15/15/15
f 100/100/100 14/14/14 92/92/92
f 11/11/11 93/93/93 85/85/85
f 93/93/93 86/86/86 85/85/85
f 94/94/94 87/87/87 86/86/86
f 87/87/87 96/96/96 88/88/88
f 96/96/96 89/89/89 88/88/88
f 97/97/97 90/90/90 89/89/89
f 90/90/90 99/99/99 91/91/91
f 91/91/91 100/100/100 92/92/92
f 10/10/10 85/85/85 77/77/77
f 77/77/77 86/86/86 78/78/78
f 78/78/78 87/87/87 79/79/79
f 79/79/79 88/88/88 80/80/80
f 88/88/88 81/81/81 80/80/80
f 81/81/81 90/90/90 82/82/82
f 82/82/82 91/91/91 83/83/83
f 91/91/91 84/84/84 83/83/83
f 10/10/10 69/69/69 9/9/9
f 69/69/69 78/78/78 70/70/70
f 70/70/70 79/79/79 71/71/71
f 79/79/79 72/72/72 71/71/71
f 72/72/72 81/81/81 73/73/73
f 73/73/73 82/82/82 74/74/74
f 82/82/82 75/75/75 74/74/74
f 83/83/83 76/76/76 75/75/75
f 9/9/9 61/61/61 8/8/8
f 69/69/69 62/62/62 61/61/61
f 62/62/62 71/71/71 63/63/63
f 63/63/63 72/72/72 64/64/64
f 72/72/72 65/65/65 64/64/64
f 65/65/65 74/74/74 66/66/66
f 66/66/66 75/75/75 67/67/67
f 67/67/67 76/76/76 68/68/68
f 8/8/8 53/53/53 7/7/7
f 53/53/53 62/62/62 54/54/54
f 54/54/54 63/63/63 55/55/55
f 55/55/55 64/64/64 56/56/56
f 64/64/64 57/57/57 56/56/56
f 57/57/57 66/66/66 58/58/58
f 58/58/58 67/67/67 59/59/59
f 59/59/59 68/68/68 60/60/60
f 6/6/6 53/53/53 45/45/45
f 45/45/45 54/54/54 46/46/46
f 54/54/54 47/47/47 46/46/46
f 55/55/55 48/48/48 47/47/47
f 56/56/56 49/49/49 48/48/48
f 49/49/49 58/58/58 50/50/50
f 58/58/58 51/51/51 50/50/50
f 59/59/59 52/52/52 51/51/51
f 6/6/6 37/37/37 5/5/5
f 45/45/45 38/38/38 37/37/37
f 46/46/46 39/39/39 38/38/38
f 39/39/39 48/48/48 40/40/40
f 40/40/40 49/49/49 41/41/41
f 41/41/41 50/50/50 42/42/42
f 50/50/50 43/43/43 42/42/42
f 51/51/51 44/44/44 43/43/43
f 5/5/5 28/28/28 1/1/1
f 28/28/28 38/38/38 27/27/27
f 27/27/27 39/39/39 26/26/26
f 26/26/26 40/40/40 25/25/25
f 40/40/40 24/24/24 25/25/25
f 41/41/41 23/23/23 24/24/24
f 23/23/23 43/43/43 22/22/22
f 43/43/43 21/21/21 22/22/22
f 2/2/2 93/93/93 12/12/12
f 93/93/93 30/30/30 94/94/94
f 30/30/30 95/95/95 94/94/94
f 31/31/31 96/96/96 95/95/95
f 32/32/32 97/97/97 96/96/96
f 33/33/33 98/98/98 97/97/97
f 98/98/98 35/35/35 99/99/99
f 99/99/99 36/36/36 100/100/100
f 100/100/100 36/36/36 4/4/4
f 44/44/44 20/20/20 3/3/3
f 44/44/44 52/52/52 19/19/19
f 60/60/60 18/18/18 19/19/19
f 60/60/60 68/68/68 17/17/17
f 76/76/76 16/16/16 17/17/17
f 84/84/84 15/15/15 16/16/16
f 84/84/84 92/92/92 14/14/14
f 100/100/100 13/13/13 14/14/14
f 11/11/11 12/12/12 93/93/93
f 93/93/93 94/94/94 86/86/86
f 94/94/94 95/95/95 87/87/87
f 87/87/87 95/95/95 96/96/96
f 96/96/96 97/97/97 89/89/89
f 97/97/97 98/98/98 90/90/90
f 90/90/90 98/98/98 99/99/99
f 91/91/91 99/99/99 100/100/100
f 10/10/10 11/11/11 85/85/85
f 77/77/77 85/85/85 86/86/86
f 78/78/78 86/86/86 87/87/87
f 79/79/79 87/87/87 88/88/88
f 88/88/88 89/89/89 81/81/81
f 81/81/81 89/89/89 90/90/90
f 82/82/82 90/90/90 91/91/91
f 91/91/91 92/92/92 84/84/84
f 10/10/10 77/77/77 69/69/69
f 69/69/69 77/77/77 78/78/78
f 70/70/70 78/78/78 79/79/79
f 79/79/79 80/80/80 72/72/72
f 72/72/72 80/80/80 81/81/81
f 73/73/73 81/81/81 82/82/82
f 82/82/82 83/83/83 75/75/75
f 83/83/83 84/84/84 76/76/76
f 9/9/9 69/69/69 61/61/61
f 69/69/69 70/70/70 62/62/62
f 62/62/62 70/70/70 71/71/71
f 63/63/63 71/71/71 72/72/72
f 72/72/72 73/73/73 65/65/65
f 65/65/65 73/73/73 74/74/74
f 66/66/66 74/74/74 75/75/75
f 67/67/67 75/75/75 76/76/76
f 8/8/8 61/61/61 53/53/53
f 53/53/53 61/61/61 62/62/62
f 54/54/54 62/62/62 63/63/63
f 55/55/55 63/63/63 64/64/64
f 64/64/64 65/65/65 57/57/57
f 57/57/57 65/65/65 66/66/66
f 58/58/58 66/66/66 67/67/67
f 59/59/59 67/67/67 68/68/68
f 6/6/6 7/7/7 53/53/53
f 45/45/45 53/53/53 54/54/54
f 54/54/54 55/55/55 47/47/47
f 55/55/55 56/56/56 48/48/48
f 56/56/56 57/57/57 49/49/49
f 49/49/49 57/57/57 58/58/58
f 58/58/58 59/59/59 51/51/51
f 59/59/59 60/60/60 52/52/52
f 6/6/6 45/45/45 37/37/37
f 45/45/45 46/46/46 38/38/38
f 46/46/46 47/47/47 39/39/39
f 39/39/39 47/47/47 48/48/48
f 40/40/40 48/48/48 49/49/49
f 41/41/41 49/49/49 50/50/50
f 50/50/50 51/51/51 43/43/43
f 51/51/51 52/52/52 44/44/44
f 5/5/5 37/37/37 28/28/28
f 28/28/28 37/37/37 38/38/38
f 27/27/27 38/38/38 39/39/39
f 26/26/26 39/39/39 40/40/40
f 40/40/40 41/41/41 24/24/24
f 41/41/41 42/42/42 23/23/23
f 23/23/23 42/42/42 43/43/43
f 43/43/43 44/44/44 21/21/21
f 2/2/2 29/29/29 93/93/93
f 93/93/93 29/29/29 30/30/30
f 30/30/30 31/31/31 95/95/95
f 31/31/31 32/32/32 96/96/96
f 32/32/32 33/33/33 97/97/97
f 33/33/33 34/34/34 98/98/98
f 98/98/98 34/34/34 35/35/35
f 99/99/99 35/35/35 36/36/36
