o GNATVCloth
v -4.90123 -4.99258 0.337366
v 5.16231 -4.99065 0.36734
v -5.01298 5.02105 0.004229
v 4.98702 5.02105 0.004229
v -3.78888 -5.01463 0.287621
v -2.67378 -5.02729 0.273072
v -1.55502 -5.0364 0.203891
v -0.433361 -5.04448 0.189932
v 0.688069 -5.04645 0.224842
v 1.80983 -5.05162 0.217039
v 2.93142 -5.04099 0.202734
v 4.04988 -5.01496 0.264278
v 3.86644 4.94737 0.0607029
v 2.76222 4.87118 0.214194
v 1.65234 4.79798 0.304343
v 0.627121 4.76314 0.264002
v -0.492552 4.82064 0.244631
v -1.61124 4.88297 0.166436
v -2.74065 4.94627 0.139588
v -3.87252 4.98048 0.084282
v -4.98317 3.90574 0.0387689
v -4.96532 2.7905 0.0667943
v -4.95358 1.67583 0.0993095
v -4.94059 0.561882 0.139534
v -4.9287 -0.55046 0.19016
v -4.91658 -1.66115 0.257601
v -4.90397 -2.77289 0.317318
v -4.89894 -3.88466 0.33179
v 5.14536 -3.88231 0.278844
v 5.1282 -2.77026 0.272223
v 5.10952 -1.65841 0.240488
v 5.09702 -0.546982 0.173594
v 5.08435 0.565648 0.119514
v 5.06467 1.67839 0.0802626
v 5.04208 2.79218 0.0513559
v 5.0165 3.90658 0.0284138
v -3.72901 -3.862 0.243371
v -3.69548 -3.21388 0.240594
v -3.56967 -1.92244 0.165315
v -4.04462 -0.272982 0.159565
v -4.08443 0.742785 0.153401
v -4.08957 1.52863 0.125084
v -4.04288 2.82183 0.0834192
v -3.90753 3.90837 -0.000638004
v -2.59828 -4.00439 0.199693
v -2.68735 -2.73582 0.163136
v -2.57482 -2.14494 0.125617
v -2.67219 -0.601557 0.240812
v -2.72469 0.52777 0.232283
v -2.67209 1.57773 0.181341
v -2.80925 2.91332 0.0313619
v -2.72963 3.59479 0.192965
v -1.53345 -4.22518 0.206732
v -1.38748 -2.90963 0.191723
v -1.7975 -1.62596 0.259398
v -1.79168 -0.827111 0.236197
v -1.45978 0.672251 0.154698
v -1.93617 1.72524 0.144907
v -1.67922 2.77284 0.225711
v -1.52323 3.7686 0.205264
v -0.109051 -4.30294 0.179292
v -0.474767 -2.86632 0.186987
v -0.449838 -1.7243 0.220013
v -0.75704 -0.746529 0.184628
v -0.534549 0.472758 0.179414
v -0.309262 1.51069 0.207037
v -0.518858 2.70199 0.220601
v -0.705602 3.56722 0.200738
v 0.860061 -3.87772 0.208113
v 0.920422 -2.58697 0.177833
v 0.623281 -1.79551 0.189868
v 0.692998 -0.456615 0.175386
v 0.656755 0.446313 0.196424
v 0.364441 1.56492 0.206548
v 0.582516 2.53968 0.205623
v 0.594992 3.75228 0.191525
v 2.0759 -3.6549 0.200409
v 1.78873 -2.83966 0.176812
v 1.92616 -1.91552 0.210983
v 2.07057 -0.386135 0.193489
v 2.05135 0.300474 0.171928
v 1.89295 1.56247 0.138993
v 1.47391 2.84569 0.23805
v 1.52705 3.63213 0.187199
v 2.92079 -3.92631 0.191413
v 3.21833 -2.84315 0.25094
v 3.06225 -1.96743 0.147039
v 2.81201 -0.506048 0.246651
v 3.05449 0.283867 0.223468
v 3.14489 1.57924 0.153767
v 2.83957 3.14577 0.168042
v 2.79848 3.48108 0.228582
v 4.05032 -3.97153 0.199087
v 3.78093 -2.72045 0.269147
v 3.98111 -1.68388 0.241874
v 3.91098 -0.732174 0.180623
v 3.96736 0.279288 0.176422
v 4.24799 1.79249 0.136201
v 4.19987 2.75499 0.0929176
v 4.07417 3.87865 0.0488581
vt 0.0001 0.0001
vt 0.9999 0.0001
vt 0.0001 0.9999
vt 0.9999 0.9999
vt 0.111189 0.0001
vt 0.222278 0.0001
vt 0.333367 0.0001
vt 0.444455 0.0001
vt 0.555544 0.0001
vt 0.666633 0.0001
vt 0.777722 0.0001
vt 0.888811 0.0001
vt 0.888811 0.9999
vt 0.777722 0.9999
vt 0.666633 0.9999
vt 0.555544 0.9999
vt 0.444455 0.9999
vt 0.333367 0.9999
vt 0.222278 0.9999
vt 0.111189 0.9999
vt 0.0001 0.888811
vt 0.0001 0.777722
vt 0.0001 0.666633
vt 0.0001 0.555544
vt 0.0001 0.444456
vt 0.0001 0.333367
vt 0.0001 0.222278
vt 0.0001 0.111189
vt 0.9999 0.111189
vt 0.9999 0.222278
vt 0.9999 0.333367
vt 0.9999 0.444456
vt 0.9999 0.555544
vt 0.9999 0.666633
vt 0.9999 0.777722
vt 0.9999 0.888811
vt 0.11727 0.115399
vt 0.120778 0.180369
vt 0.134636 0.309595
vt 0.088728 0.473895
vt 0.085886 0.575352
vt 0.086211 0.65375
vt 0.092207 0.78313
vt 0.106956 0.892282
vt 0.22987 0.102869
vt 0.221803 0.229552
vt 0.233521 0.288953
vt 0.225541 0.443179
vt 0.221596 0.556167
vt 0.227801 0.661237
vt 0.214896 0.795203
vt 0.22542 0.865181
vt 0.335524 0.082127
vt 0.351143 0.213907
vt 0.311934 0.342467
vt 0.313159 0.422214
vt 0.347791 0.572605
vt 0.301482 0.677733
vt 0.329031 0.783086
vt 0.344903 0.885466
vt 0.476837 0.074882
vt 0.441952 0.218774
vt 0.445749 0.333088
vt 0.416414 0.43099
vt 0.439746 0.552976
vt 0.463203 0.656843
vt 0.444252 0.77653
vt 0.426137 0.866051
vt 0.573419 0.117409
vt 0.581125 0.246686
vt 0.552512 0.326
vt 0.561075 0.459693
vt 0.558356 0.550596
vt 0.530299 0.662189
vt 0.553275 0.760113
vt 0.555478 0.888821
vt 0.694433 0.13996
vt 0.667048 0.221666
vt 0.681985 0.314267
vt 0.698218 0.467249
vt 0.696819 0.535952
vt 0.68253 0.662758
vt 0.642062 0.791726
vt 0.648523 0.877957
vt 0.778029 0.111667
vt 0.809426 0.219523
vt 0.794923 0.307783
vt 0.772028 0.454562
vt 0.796846 0.533374
vt 0.807262 0.663157
vt 0.778581 0.821037
vt 0.775122 0.858219
vt 0.890224 0.104741
vt 0.865679 0.23076
vt 0.887326 0.334104
vt 0.881307 0.429754
vt 0.887973 0.53063
vt 0.918106 0.681428
vt 0.915043 0.778027
vt 0.904815 0.89094
vn 0.0447736 0.00493574 0.998985
vn -0.0860902 0.0701385 0.993815
vn -0.0180563 -0.0223114 0.999588
vn 0.0357276 0.0104905 0.999306
vn 0.0443158 0.0256702 0.998688
vn 0.0326035 0.0429053 0.998547
vn 0.037058 -0.0044841 0.999303
vn 0.000313155 0.00995952 0.99995
vn -0.0208403 0.0203903 0.999575
vn 0.00940285 0.0109872 0.999895
vn -0.0166837 0.0275698 0.999481
vn -0.0748625 0.0622121 0.995251
vn 0.0936034 0.00715957 0.995584
vn 0.0823331 -0.0175717 0.99645
vn 0.0259175 -0.102699 0.994375
vn -0.0204488 -0.0794461 0.996629
vn -0.0199145 -0.028295 0.999401
vn -0.0449965 0.0312379 0.998499
vn -0.060418 0.00826724 0.998139
vn -0.0617572 -0.0768057 0.995132
vn 0.0180086 0.0431257 0.998907
vn -0.0189263 0.0268842 0.999459
vn -0.0226529 0.0334156 0.999185
vn -0.00695208 0.0289632 0.999556
vn 0.0178482 0.0532226 0.998423
vn 0.0557911 0.0465734 0.997356
vn 0.0761499 0.0392547 0.996323
vn 0.0657524 0.0132484 0.997748
vn -0.0759436 0.0415072 0.996248
vn -0.0195532 0.000763991 0.999809
vn -0.00103256 0.0509366 0.998701
vn 0.0133944 0.0376318 0.999202
vn 0.0526556 0.034462 0.998018
vn 0.0727345 0.0318963 0.996841
vn 0.055869 0.0320815 0.997923
vn 0.0299345 0.0284603 0.999147
vn 0.0499129 0.0285573 0.998345
vn 0.0627401 0.0253708 0.997707
vn 0.0425743 0.0211989 0.998868
vn -0.0123574 0.0186651 0.999749
vn -0.0354716 0.0279154 0.998981
vn -0.0323848 0.0345685 0.998877
vn 0.000509986 0.0544112 0.998518
vn -0.0543747 -0.0203153 0.998314
vn 0.0221166 0.0356361 0.99912
vn 0.0265649 0.0466306 0.998559
vn -0.0333106 -0.024656 0.999141
vn -0.0322786 -0.0212142 0.999254
vn -0.000586083 0.0272867 0.999627
vn -0.00529519 0.0660572 0.997802
vn -0.0810828 -0.0235787 0.996428
vn -0.117896 -0.0622167 0.991075
vn 0.0173724 0.0128737 0.999766
vn -0.0157594 -0.00646194 0.999855
vn -0.0182622 -0.0183185 0.999665
vn 0.0340457 0.0302489 0.998962
vn 0.0108224 0.0169082 0.999799
vn -0.0186564 0.0084041 0.999791
vn -0.0607275 -0.0419356 0.997273
vn -0.0186842 0.0181543 0.999661
vn -0.0110726 0.0083194 0.999904
vn 0.00611227 -0.00688697 0.999958
vn 0.0198592 -0.00188273 0.999801
vn 0.0177617 0.0278387 0.999455
vn -0.0127535 -0.0119712 0.999847
vn -0.0158433 -0.0137594 0.99978
vn -0.000631381 -0.00752959 0.999971
vn 0.00583743 -0.000937563 0.999983
vn -0.0058635 0.0154927 0.999863
vn -0.00174147 -0.00460799 0.999988
vn 0.00607799 -0.00849148 0.999946
vn -0.00120621 0.00715301 0.999974
vn 0.0101107 -0.00565477 0.999933
vn 0.0154679 -0.00914683 0.999838
vn 0.0038355 -0.0122922 0.999917
vn -0.00311207 -0.00978366 0.999947
vn -0.00786011 0.00144696 0.999968
vn -0.0082149 0.0152258 0.99985
vn -0.00249618 -0.0170391 0.999852
vn -0.0409861 0.0227714 0.9989
vn -0.0226824 0.0275808 0.999362
vn 0.0199724 -0.0143907 0.999697
vn 0.0129216 0.000321714 0.999916
vn 0.00177095 -0.0466581 0.998909
vn 0.000918375 -0.0151825 0.999884
vn -0.0322823 0.0102988 0.999426
vn -0.0270609 0.0225085 0.99938
vn -0.00381078 -0.00271468 0.999989
vn 0.0128996 0.0327583 0.99938
vn 0.00737477 0.0274429 0.999596
vn 0.0494549 -0.0422166 0.997884
vn 0.0591826 -0.0790498 0.995112
vn -0.0426306 0.00602997 0.999073
vn -0.0397114 0.0133007 0.999123
vn -0.047616 0.0446976 0.997865
vn 0.00622882 0.019308 0.999794
vn 0.0340484 0.0244436 0.999121
vn 0.04289 0.0331397 0.99853
vn 0.0412111 0.0340307 0.998571
vn 0.088426 -0.00203356 0.996081
f 100/100/100 4/4/4 13/13/13
f 44/44/44 3/3/3 21/21/21
f 44/44/44 19/19/19 20/20/20
f 60/60/60 19/19/19 52/52/52
f 60/60/60 17/17/17 18/18/18
f 76/76/76 17/17/17 68/68/68
f 84/84/84 16/16/16 76/76/76
f 84/84/84 14/14/14 15/15/15
f 100/100/100 14/14/14 92/92/92
f 11/11/11 93/93/93 85/85/85
f 93/93/93 86/86/86 85/85/85
f 94/94/94 87/87/87 86/86/86
f 87/87/87 96/96/96 88/88/88
f 96/96/96 89/89/89 88/88/88
f 97/97/97 90/90/90 89/89/89
f 90/90/90 99/99/99 91/91/91
f 91/91/91 100/100/100 92/92/92
f 10/10/10 85/85/85 77/77/77
f 77/77/77 86/86/86 78/78/78
f 78/78/78 87/87/87 79/79/79
f 79/79/79 88/88/88 80/80/80
f 88/88/88 81/81/81 80/80/80
f 81/81/81 90/90/90 82/82/82
f 82/82/82 91/91/91 83/83/83
f 91/91/91 84/84/84 83/83/83
f 10/10/10 69/69/69 9/9/9
f 69/69/69 78/78/78 70/70/70
f 70/70/70 79/79/79 71/71/71
f 79/79/79 72/72/72 71/71/71
f 72/72/72 81/81/81 73/73/73
f 73/73/73 82/82/82 74/74/74
f 82/82/82 75/75/75 74/74/74
f 83/83/83 76/76/76 75/75/75
f 9/9/9 61/61/61 8/8/8
f 69/69/69 62/62/62 61/61/61
f 62/62/62 71/71/71 63/63/63
f 63/63/63 72/72/72 64/64/64
f 72/72/72 65/65/65 64/64/64
f 65/65/65 74/74/74 66/66/66
f 66/66/66 75/75/75 67/67/67
f 67/67/67 76/76/76 68/68/68
f 8/8/8 53/53/53 7/7/7
f 53/53/53 62/62/62 54/54/54
f 54/54/54 63/63/63 55/55/55
f 55/55/55 64/64/64 56/56/56
f 64/64/64 57/57/57 56/56/56
f 57/57/57 66/66/66 58/58/58
f 58/58/58 67/67/67 59/59/59
f 59/59/59 68/68/68 60/60/60
f 6/6/6 53/53/53 45/45/45
f 45/45/45 54/54/54 46/46/46
f 54/54/54 47/47/47 46/46/46
f 55/55/55 48/48/48 47/47/47
f 56/56/56 49/49/49 48/48/48
f 49/49/49 58/58/58 50/50/50
f 58/58/58 51/51/51 50/50/50
f 59/59/59 52/52/52 51/51/51
f 6/6/6 37/37/37 5/5/5
f 45/45/45 38/38/38 37/37/37
f 46/46/46 39/39/39 38/38/38
f 39/39/39 48/48/48 40/40/40
f 40/40/40 49/49/49 41/41/41
f 41/41/41 50/50/50 42/42/42
f 50/50/50 43/43/43 42/42/42
f 51/51/51 44/44/44 43/43/43
f 5/5/5 28/28/28 1/1/1
f 28/28/28 38/38/38 27/27/27
f 27/27/27 39/39/39 26/26/26
f 26/26/26 40/40/40 25/25/25
f 40/40/40 24/24/24 25/25/25
f 41/41/41 23/23/23 24/24/24
f 23/23/23 43/43/43 22/22/22
f 43/43/43 21/21/21 22/22/22
f 2/2/2 93/93/93 12/12/12
f 93/93/93 30/30/30 94/94/94
f 30/30/30 95/95/95 94/94/94
f 31/31/31 96/96/96 95/95/95
f 32/32/32 97/97/97 96/96/96
f 33/33/33 98/98/98 97/97/97
f 98/98/98 35/35/35 99/99/99
f 99/99/99 36/36/36 100/100/100
f 100/100/100 36/36/36 4/4/4
f 44/44/44 20/20/20 3/3/3
f 44/44/44 52/52/52 19/19/19
f 60/60/60 18/18/18 19/19/19
f 60/60/60 68/68/68 17/17/17
f 76/76/76 16/16/16 17/17/17
f 84/84/84 15/15/15 16/16/16
f 84/84/84 92/92/92 14/14/14
f 100/100/100 13/13/13 14/14/14
f 11/11/11 12/12/12 93/93/93
f 93/93/93 94/94/94 86/86/86
f 94/94/94 95/95/95 87/87/87
f 87/87/87 95/95/95 96/96/96
f 96/96/96 97/97/97 89/89/89
f 97/97/97 98/98/98 90/90/90
f 90/90/90 98/98/98 99/99/99
f 91/91/91 99/99/99 100/100/100
f 10/10/10 11/11/11 85/85/85
f 77/77/77 85/85/85 86/86/86
f 78/78/78 86/86/86 87/87/87
f 79/79/79 87/87/87 88/88/88
f 88/88/88 89/89/89 81/81/81
f 81/81/81 89/89/89 90/90/90
f 82/82/82 90/90/90 91/91/91
f 91/91/91 92/92/92 84/84/84
f 10/10/10 77/77/77 69/69/69
f 69/69/69 77/77/77 78/78/78
f 70/70/70 78/78/78 79/79/79
f 79/79/79 80/80/80 72/72/72
f 72/72/72 80/80/80 81/81/81
f 73/73/73 81/81/81 82/82/82
f 82/82/82 83/83/83 75/75/75
f 83/83/83 84/84/84 76/76/76
f 9/9/9 69/69/69 61/61/61
f 69/69/69 70/70/70 62/62/62
f 62/62/62 70/70/70 71/71/71
f 63/63/63 71/71/71 72/72/72
f 72/72/72 73/73/73 65/65/65
f 65/65/65 73/73/73 74/74/74
f 66/66/66 74/74/74 75/75/75
f 67/67/67 75/75/75 76/76/76
f 8/8/8 61/61/61 53/53/53
f 53/53/53 61/61/61 62/62/62
f 54/54/54 62/62/62 63/63/63
f 55/55/55 63/63/63 64/64/64
f 64/64/64 65/65/65 57/57/57
f 57/57/57 65/65/65 66/66/66
f 58/58/58 66/66/66 67/67/67
f 59/59/59 67/67/67 68/68/68
f 6/6/6 7/7/7 53/53/53
f 45/45/45 53/53/53 54/54/54
f 54/54/54 55/55/55 47/47/47
f 55/55/55 56/56/56 48/48/48
f 56/56/56 57/57/57 49/49/49
f 49/49/49 57/57/57 58/58/58
f 58/58/58 59/59/59 51/51/51
f 59/59/59 60/60/60 52/52/52
f 6/6/6 45/45/45 37/37/37
f 45/45/45 46/46/46 38/38/38
f 46/46/46 47/47/47 39/39/39
f 39/39/39 47/47/47 48/48/48
f 40/40/40 48/48/48 49/49/49
f 41/41/41 49/49/49 50/50/50
f 50/50/50 51/51/51 43/43/43
f 51/51/51 52/52/52 44/44/44
f 5/5/5 37/37/37 28/28/28
f 28/28/28 37/37/37 38/38/38
f 27/27/27 38/38/38 39/39/39
f 26/26/26 39/39/39 40/40/40
f 40/40/40 41/41/41 24/24/24
f 41/41/41 42/42/42 23/23/23
f 23/23/23 42/42/42 43/43/43
f 43/43/43 44/44/44 21/21/21
f 2/2/2 29/29/29 93/93/93
f 93/93/93 29/29/29 30/30/30
f 30/30/30 31/31/31 95/95/95
f 31/31/31 32/32/32 96/96/96
f 32/32/32 33/33/33 97/97/97
f 33/33/33 34/34/34 98/98/98
f 98/98/98 34/34/34 35/35/35
f 99/99/99 35/35/35 36/36/36
