o GNATVCloth
v -5.04419 -4.98777 0.591073
v 5.05274 -4.99474 0.391607
v -5.01298 5.02105 0.004229
v 4.98702 5.02105 0.004229
v -3.93111 -5.02416 0.533835
v -2.81228 -5.0667 0.482107
v -1.68924 -5.09175 0.488663
v -0.563333 -5.11638 0.488126
v 0.566209 -5.11108 0.508076
v 1.69473 -5.09916 0.507255
v 2.81933 -5.07302 0.452223
v 3.941 -5.02243 0.467559
v 3.86405 4.90537 0.182501
v 2.74966 4.82659 0.353112
v 1.62768 4.77414 0.321582
v 0.508861 4.73008 0.301558
v -0.58873 4.7045 0.457866
v -1.69406 4.70425 0.62649
v -2.81072 4.76866 0.516505
v -3.9017 4.88828 0.246
v -4.98206 3.90687 0.0757029
v -4.98415 2.79209 0.139894
v -4.99321 1.67804 0.206175
v -5.00069 0.56375 0.26239
v -5.00544 -0.549896 0.31948
v -5.01127 -1.66302 0.362433
v -5.01953 -2.77418 0.391694
v -5.02565 -3.88114 0.496669
v 5.03152 -3.88946 0.302556
v 5.01785 -2.77786 0.266401
v 5.00966 -1.66539 0.247812
v 5.00321 -0.552421 0.232548
v 4.99577 0.561033 0.199552
v 4.98602 1.67577 0.164519
v 4.97931 2.79113 0.129803
v 4.97221 3.90547 0.0592192
v -3.85812 -3.88731 0.348827
v -3.8201 -3.24381 0.275156
v -3.67015 -1.95565 0.24262
v -4.12189 -0.292294 0.233091
v -4.14528 0.723475 0.18768
v -4.13646 1.50788 0.129899
v -4.06645 2.80037 0.0332615
v -3.92134 3.87769 -0.120932
v -2.72553 -4.05607 0.309899
v -2.80239 -2.78555 0.347365
v -2.67962 -2.19612 0.293343
v -2.75374 -0.652473 0.285991
v -2.78754 0.474799 0.176702
v -2.72153 1.51243 0.0294946
v -2.84072 2.84866 -0.133445
v -2.74233 3.52335 0.0379483
v -1.66025 -4.28967 0.32412
v -1.50036 -2.97836 0.396601
v -1.89397 -1.68475 0.381512
v -1.87644 -0.891168 0.32268
v -1.5249 0.578742 0.0601068
v -1.98494 1.64052 -0.0362748
v -1.70416 2.68052 0.0176881
v -1.58538 3.59078 0.420022
v -0.234236 -4.38125 0.39399
v -0.587942 -2.94652 0.479639
v -0.546522 -1.80485 0.429152
v -0.839487 -0.832873 0.308751
v -0.603188 0.367336 0.121052
v -0.365923 1.39092 0.0779309
v -0.561719 2.56653 0.16671
v -0.761519 3.39132 0.433715
v 0.739272 -3.9586 0.403457
v 0.816783 -2.66546 0.486054
v 0.529021 -1.87684 0.466429
v 0.613385 -0.575401 0.166882
v 0.591381 0.328808 0.15296
v 0.306889 1.43558 0.0878031
v 0.532002 2.39871 0.154489
v 0.540766 3.63185 0.40459
v 1.9582 -3.70503 0.359496
v 1.67788 -2.8954 0.378136
v 1.83288 -1.96956 0.445936
v 1.99177 -0.462323 0.154319
v 1.97955 0.20552 -0.00336394
v 1.83415 1.46643 0.0555857
v 1.41467 2.73637 0.135988
v 1.47773 3.55075 0.309918
v 2.80424 -3.96261 0.364786
v 3.11008 -2.87417 0.325019
v 2.95714 -1.99683 0.277497
v 2.72088 -0.53701 0.306698
v 2.96391 0.256279 0.208925
v 3.08202 1.525 -0.0831157
v 2.76638 3.08952 -0.0549112
v 2.73184 3.45019 0.0307078
v 3.93256 -3.99418 0.299078
v 3.67316 -2.74162 0.304373
v 3.88282 -1.6985 0.287642
v 3.81811 -0.743167 0.305524
v 3.87789 0.269702 0.283739
v 4.16597 1.786 0.147491
v 4.14585 2.7369 -0.0345659
v 4.02564 3.85993 -0.0902642
vt 0.0001 0.0001
vt 0.9999 0.0001
vt 0.0001 0.9999
vt 0.9999 0.9999
vt 0.111189 0.0001
vt 0.222278 0.0001
vt 0.333367 0.0001
vt 0.444455 0.0001
vt 0.555544 0.0001
vt 0.666633 0.0001
vt 0.777722 0.0001
vt 0.888811 0.0001
vt 0.888811 0.9999
vt 0.777722 0.9999
vt 0.666633 0.9999
vt 0.555544 0.9999
vt 0.444455 0.9999
vt 0.333367 0.9999
vt 0.222278 0.9999
vt 0.111189 0.9999
vt 0.0001 0.888811
vt 0.0001 0.777722
vt 0.0001 0.666633
vt 0.0001 0.555544
vt 0.0001 0.444456
vt 0.0001 0.333367
vt 0.0001 0.222278
vt 0.0001 0.111189
vt 0.9999 0.111189
vt 0.9999 0.222278
vt 0.9999 0.333367
vt 0.9999 0.444456
vt 0.9999 0.555544
vt 0.9999 0.666633
vt 0.9999 0.777722
vt 0.9999 0.888811
vt 0.11727 0.115399
vt 0.120778 0.180369
vt 0.134636 0.309595
vt 0.088728 0.473895
vt 0.085886 0.575352
vt 0.086211 0.65375
vt 0.092207 0.78313
vt 0.106956 0.892282
vt 0.22987 0.102869
vt 0.221803 0.229552
vt 0.233521 0.288953
vt 0.225541 0.443179
vt 0.221596 0.556167
vt 0.227801 0.661237
vt 0.214896 0.795203
vt 0.22542 0.865181
vt 0.335524 0.082127
vt 0.351143 0.213907
vt 0.311934 0.342467
vt 0.313159 0.422214
vt 0.347791 0.572605
vt 0.301482 0.677733
vt 0.329031 0.783086
vt 0.344903 0.885466
vt 0.476837 0.074882
vt 0.441952 0.218774
vt 0.445749 0.333088
vt 0.416414 0.43099
vt 0.439746 0.552976
vt 0.463203 0.656843
vt 0.444252 0.77653
vt 0.426137 0.866051
vt 0.573419 0.117409
vt 0.581125 0.246686
vt 0.552512 0.326
vt 0.561075 0.459693
vt 0.558356 0.550596
vt 0.530299 0.662189
vt 0.553275 0.760113
vt 0.555478 0.888821
vt 0.694433 0.13996
vt 0.667048 0.221666
vt 0.681985 0.314267
vt 0.698218 0.467249
vt 0.696819 0.535952
vt 0.68253 0.662758
vt 0.642062 0.791726
vt 0.648523 0.877957
vt 0.778029 0.111667
vt 0.809426 0.219523
vt 0.794923 0.307783
vt 0.772028 0.454562
vt 0.796846 0.533374
vt 0.807262 0.663157
vt 0.778581 0.821037
vt 0.775122 0.858219
vt 0.890224 0.104741
vt 0.865679 0.23076
vt 0.887326 0.334104
vt 0.881307 0.429754
vt 0.887973 0.53063
vt 0.918106 0.681428
vt 0.915043 0.778027
vt 0.904815 0.89094
vn 0.0539114 0.083978 0.995008
vn 0.0262702 0.121174 0.992284
vn -0.0284265 -0.135553 0.990362
vn 0.0087282 -0.0882868 0.996057
vn 0.0769041 0.131053 0.988388
vn 0.0329376 0.17183 0.984576
vn 0.00181316 0.200898 0.97961
vn -0.0174967 0.160072 0.98695
vn -0.0235433 0.107872 0.993886
vn 0.0214139 0.0932556 0.995412
vn 0.0287998 0.106719 0.993872
vn 0.0212558 0.161829 0.98659
vn 0.169105 -0.224267 0.959744
vn 0.123883 -0.172658 0.97716
vn -0.0227049 -0.00674849 0.999719
vn 0.0765367 0.0619128 0.995143
vn 0.0737307 -0.0270144 0.996912
vn 0.0209807 -0.180299 0.983388
vn -0.219146 -0.310202 0.925067
vn -0.24955 -0.3262 0.911767
vn 0.160977 0.080007 0.98371
vn 0.114717 0.0574808 0.991734
vn 0.0992634 0.0621048 0.993121
vn 0.079518 0.0489025 0.995633
vn 0.0844091 0.0443181 0.995445
vn 0.0921848 0.0317298 0.995236
vn 0.109602 0.043909 0.993005
vn 0.109242 0.108569 0.988068
vn -0.00852297 0.0562805 0.998379
vn 0.0213397 0.015332 0.999655
vn 0.0432824 0.0049029 0.999051
vn 0.0616872 0.0206832 0.997881
vn 0.0350596 0.0468378 0.998287
vn -0.0165664 0.0311344 0.999378
vn -0.139191 0.0911385 0.986063
vn -0.17088 0.0478578 0.984129
vn 0.0822213 0.137675 0.987059
vn 0.0448371 0.0543964 0.997512
vn 0.0125606 0.0286382 0.999511
vn 0.0438021 0.0433115 0.998101
vn 0.0631685 0.0707001 0.995495
vn 0.0863498 0.0709301 0.993737
vn 0.120605 0.0892194 0.988683
vn -0.0635512 -0.137405 0.988474
vn 0.00145174 0.0540453 0.998537
vn -0.047262 0.0327345 0.998346
vn -0.0625286 0.0352746 0.99742
vn -0.04204 0.0439207 0.99815
vn 0.034986 0.113535 0.992918
vn 0.0723176 0.11267 0.990997
vn -0.0280064 -0.0118806 0.999537
vn -0.227273 -0.303725 0.925256
vn -0.0258491 0.0781669 0.996605
vn -0.0581881 -0.000380645 0.998306
vn -0.0472523 0.0409713 0.998042
vn 0.010747 0.115463 0.993254
vn 0.00334505 0.122968 0.992405
vn -0.0283527 0.0477312 0.998458
vn -0.162959 -0.226392 0.960308
vn -0.108278 -0.251917 0.961672
vn -0.0298268 0.0499538 0.998306
vn -0.0361052 -0.017572 0.999193
vn -0.0220126 0.096743 0.995066
vn 0.0169813 0.134894 0.990715
vn -0.0132588 0.0781658 0.996852
vn -0.0377479 -0.0110483 0.999226
vn -0.0529469 -0.1697 0.984072
vn -0.0373244 -0.214907 0.975921
vn 0.0184597 0.0131103 0.999744
vn 0.0447849 -0.0341325 0.998413
vn -0.00202517 0.10973 0.993959
vn 0.0283219 0.148783 0.988464
vn 0.0382747 0.0230748 0.999001
vn -0.00212851 0.00428211 0.999989
vn 0.0215232 -0.110878 0.993601
vn 0.0729621 -0.105751 0.991712
vn 0.0237827 0.043814 0.998757
vn 0.0772909 -0.0359363 0.996361
vn 0.0371023 0.0677804 0.99701
vn -0.0939014 0.212912 0.972549
vn -0.0415953 0.120154 0.991883
vn 0.0797449 -0.0198525 0.996618
vn 0.11106 -0.140142 0.983883
vn 0.104995 -0.1136 0.987963
vn 0.0389641 0.0628909 0.99726
vn 0.0325644 0.0277961 0.999083
vn 0.0469676 0.00088697 0.998896
vn -0.0685284 0.120275 0.990373
vn -0.115809 0.160221 0.980264
vn -0.0841798 0.105547 0.990845
vn 0.112253 -0.0901827 0.989579
vn 0.177655 -0.218915 0.959435
vn 0.0261175 0.0676486 0.997367
vn 0.0196777 0.0185465 0.999634
vn 0.0154183 0.00228771 0.999879
vn 0.0124232 0.0168861 0.99978
vn -0.0371608 0.0867311 0.995538
vn -0.111432 0.106026 0.9881
vn -0.138325 0.080141 0.987139
vn 0.0495221 -0.110279 0.992666
f 100/100/100 4/4/4 13/13/13
f 44/44/44 3/3/3 21/21/21
f 44/44/44 19/19/19 20/20/20
f 60/60/60 19/19/19 52/52/52
f 60/60/60 17/17/17 18/18/18
f 76/76/76 17/17/17 68/68/68
f 84/84/84 16/16/16 76/76/76
f 84/84/84 14/14/14 15/15/15
f 100/100/100 14/14/14 92/92/92
f 11/11/11 93/93/93 85/85/85
f 93/93/93 86/86/86 85/85/85
f 94/94/94 87/87/87 86/86/86
f 87/87/87 96/96/96 88/88/88
f 96/96/96 89/89/89 88/88/88
f 97/97/97 90/90/90 89/89/89
f 90/90/90 99/99/99 91/91/91
f 91/91/91 100/100/100 92/92/92
f 10/10/10 85/85/85 77/77/77
f 77/77/77 86/86/86 78/78/78
f 78/78/78 87/87/87 79/79/79
f 79/79/79 88/88/88 80/80/80
f 88/88/88 81/81/81 80/80/80
f 81/81/81 90/90/90 82/82/82
f 82/82/82 91/91/91 83/83/83
f 91/91/91 84/84/84 83/83/83
f 10/10/10 69/69/69 9/9/9
f 69/69/69 78/78/78 70/70/70
f 70/70/70 79/79/79 71/71/71
f 79/79/79 72/72/72 71/71/71
f 72/72/72 81/81/81 73/73/73
f 73/73/73 82/82/82 74/74/74
f 82/82/82 75/75/75 74/74/74
f 83/83/83 76/76/76 75/75/75
f 9/9/9 61/61/61 8/8/8
f 69/69/69 62/62/62 61/61/61
f 62/62/62 71/71/71 63/63/63
f 63/63/63 72/72/72 64/64/64
f 72/72/72 65/65/65 64/64/64
f 65/65/65 74/74/74 66/66/66
f 66/66/66 75/75/75 67/67/67
f 67/67/67 76/76/76 68/68/68
f 8/8/8 53/53/53 7/7/7
f 53/53/53 62/62/62 54/54/54
f 54/54/54 63/63/63 55/55/55
f 55/55/55 64/64/64 56/56/56
f 64/64/64 57/57/57 56/56/56
f 57/57/57 66/66/66 58/58/58
f 58/58/58 67/67/67 59/59/59
f 59/59/59 68/68/68 60/60/60
f 6/6/6 53/53/53 45/45/45
f 45/45/45 54/54/54 46/46/46
f 54/54/54 47/47/47 46/46/46
f 55/55/55 48/48/48 47/47/47
f 56/56/56 49/49/49 48/48/48
f 49/49/49 58/58/58 50/50/50
f 58/58/58 51/51/51 50/50/50
f 59/59/59 52/52/52 51/51/51
f 6/6/6 37/37/37 5/5/5
f 45/45/45 38/38/38 37/37/37
f 46/46/46 39/39/39 38/38/38
f 39/39/39 48/48/48 40/40/40
f 40/40/40 49/49/49 41/41/41
f 41/41/41 50/50/50 42/42/42
f 50/50/50 43/43/43 42/42/42
f 51/51/51 44/44/44 43/43/43
f 5/5/5 28/28/28 1/1/1
f 28/28/28 38/38/38 27/27/27
f 27/27/27 39/39/39 26/26/26
f 26/26/26 40/40/40 25/25/25
f 40/40/40 24/24/24 25/25/25
f 41/41/41 23/23/23 24/24/24
f 23/23/23 43/43/43 22/22/22
f 43/43/43 21/21/21 22/22/22
f 2/2/2 93/93/93 12/12/12
f 93/93/93 30/30/30 94/94/94
f 30/30/30 95/95/95 94/94/94
f 31/31/31 96/96/96 95/95/95
f 32/32/32 97/97/97 96/96/96
f 33/33/33 98/98/98 97/97/97
f 98/98/98 35/35/35 99/99/99
f 99/99/99 36/36/36 100/100/100
f 100/100/100 36/36/36 4/4/4
f 44/44/44 20/20/20 3/3/3
f 44/44/44 52/52/52 19/19/19
f 60/60/60 18/18/18 19/19/19
f 60/60/60 68/68/68 17/17/17
f 76/76/76 16/16/16 17/17/17
f 84/84/84 15/15/15 16/16/16
f 84/84/84 92/92/92 14/14/14
f 100/100/100 13/13/13 14/14/14
f 11/11/11 12/12/12 93/93/93
f 93/93/93 94/94/94 86/86/86
f 94/94/94 95/95/95 87/87/87
f 87/87/87 95/95/95 96/96/96
f 96/96/96 97/97/97 89/89/89
f 97/97/97 98/98/98 90/90/90
f 90/90/90 98/98/98 99/99/99
f 91/91/91 99/99/99 100/100/100
f 10/10/10 11/11/11 85/85/85
f 77/77/77 85/85/85 86/86/86
f 78/78/78 86/86/86 87/87/87
f 79/79/79 87/87/87 88/88/88
f 88/88/88 89/89/89 81/81/81
f 81/81/81 89/89/89 90/90/90
f 82/82/82 90/90/90 91/91/91
f 91/91/91 92/92/92 84/84/84
f 10/10/10 77/77/77 69/69/69
f 69/69/69 77/77/77 78/78/78
f 70/70/70 78/78/78 79/79/79
f 79/79/79 80/80/80 72/72/72
f 72/72/72 80/80/80 81/81/81
f 73/73/73 81/81/81 82/82/82
f 82/82/82 83/83/83 75/75/75
f 83/83/83 84/84/84 76/76/76
f 9/9/9 69/69/69 61/61/61
f 69/69/69 70/70/70 62/62/62
f 62/62/62 70/70/70 71/71/71
f 63/63/63 71/71/71 72/72/72
f 72/72/72 73/73/73 65/65/65
f 65/65/65 73/73/73 74/74/74
f 66/66/66 74/74/74 75/75/75
f 67/67/67 75/75/75 76/76/76
f 8/8/8 61/61/61 53/53/53
f 53/53/53 61/61/61 62/62/62
f 54/54/54 62/62/62 63/63/63
f 55/55/55 63/63/63 64/64/64
f 64/64/64 65/65/65 57/57/57
f 57/57/57 65/65/65 66/66/66
f 58/58/58 66/66/66 67/67/67
f 59/59/59 67/67/67 68/68/68
f 6/6/6 7/7/7 53/53/53
f 45/45/45 53/53/53 54/54/54
f 54/54/54 55/55/55 47/47/47
f 55/55/55 56/56/56 48/48/48
f 56/56/56 57/57/57 49/49/49
f 49/49/49 57/57/57 58/58/58
f 58/58/58 59/59/59 51/51/51
f 59/59/59 60/60/60 52/52/52
f 6/6/6 45/45/45 37/37/37
f 45/45/45 46/46/46 38/38/38
f 46/46/46 47/47/47 39/39/39
f 39/39/39 47/47/47 48/48/48
f 40/40/40 48/48/48 49/49/49
f 41/41/41 49/49/49 50/50/50
f 50/50/50 51/51/51 43/43/43
f 51/51/51 52/52/52 44/44/44
f 5/5/5 37/37/37 28/28/28
f 28/28/28 37/37/37 38/38/38
f 27/27/27 38/38/38 39/39/39
f 26/26/26 39/39/39 40/40/40
f 40/40/40 41/41/41 24/24/24
f 41/41/41 42/42/42 23/23/23
f 23/23/23 42/42/42 43/43/43
f 43/43/43 44/44/44 21/21/21
f 2/2/2 29/29/29 93/93/93
f 93/93/93 29/29/29 30/30/30
f 30/30/30 31/31/31 95/95/95
f 31/31/31 32/32/32 96/96/96
f 32/32/32 33/33/33 97/97/97
f 33/33/33 34/34/34 98/98/98
f 98/98/98 34/34/34 35/35/35
f 99/99/99 35/35/35 36/36/36
