o GNATVCloth
v -4.94675 -4.97828 0.410341
v 5.05097 -4.9806 0.434479
v -5.01298 5.02105 0.004229
v 4.98702 5.02105 0.004229
v -3.83745 -4.98806 0.373201
v -2.72728 -5.0062 0.347606
v -1.61682 -4.99707 0.257562
v -0.50325 -5.00996 0.251012
v 0.607708 -5.01539 0.266744
v 1.7206 -5.01955 0.296651
v 2.83438 -5.01221 0.255646
v 3.94771 -4.99881 0.305601
v 3.87108 4.9532 0.114299
v 2.77064 4.8989 0.245115
v 1.66647 4.88156 0.390818
v 0.548285 4.88386 0.347055
v -0.562947 4.88102 0.29583
v -1.6488 4.89167 0.192275
v -2.76778 4.9336 0.181615
v -3.88348 4.96759 0.0614411
v -4.98821 3.90748 0.0601714
v -4.9731 2.79288 0.0798157
v -4.96346 1.67926 0.103479
v -4.9582 0.566787 0.136147
v -4.95022 -0.543366 0.202877
v -4.94638 -1.65446 0.258836
v -4.93871 -2.76153 0.37861
v -4.93556 -3.86974 0.451089
v 5.05572 -3.87384 0.356121
v 5.05717 -2.76267 0.333438
v 5.05235 -1.65367 0.247049
v 5.04752 -0.543872 0.158876
v 5.03939 0.567263 0.107357
v 5.03045 1.67997 0.0827069
v 5.01849 2.79353 0.0626509
v 5.0019 3.90766 0.0351095
v -3.77039 -3.84519 0.337999
v -3.73266 -3.19472 0.324714
v -3.6026 -1.91252 0.175676
v -4.06553 -0.263634 0.139948
v -4.10166 0.754158 0.163334
v -4.10137 1.53625 0.138184
v -4.05176 2.83197 0.123778
v -3.92066 3.90153 -0.0809567
v -2.64839 -3.98616 0.266467
v -2.72713 -2.71763 0.192916
v -2.611 -2.12913 0.205433
v -2.70386 -0.59207 0.304807
v -2.74754 0.540588 0.304099
v -2.68567 1.58645 0.225471
v -2.82463 2.90742 -0.0118211
v -2.75632 3.58533 0.171319
v -1.59373 -4.20381 0.273615
v -1.4333 -2.89599 0.25661
v -1.83485 -1.61124 0.339605
v -1.8256 -0.81431 0.312342
v -1.48858 0.680773 0.177128
v -1.95922 1.72367 0.0836886
v -1.71268 2.75807 0.278729
v -1.55317 3.75698 0.235306
v -0.178073 -4.2749 0.261092
v -0.523977 -2.85178 0.270636
v -0.493075 -1.70875 0.288448
v -0.793991 -0.73747 0.244787
v -0.566889 0.476679 0.224187
v -0.341444 1.51114 0.267962
v -0.550441 2.69013 0.32358
v -0.7386 3.5577 0.261667
v 0.790429 -3.85313 0.280502
v 0.868693 -2.56753 0.220676
v 0.577123 -1.78343 0.251049
v 0.656089 -0.459018 0.25104
v 0.62223 0.450024 0.256691
v 0.330182 1.56116 0.262951
v 0.549203 2.53287 0.271029
v 0.558207 3.79024 0.262139
v 2.00214 -3.62573 0.249424
v 1.72888 -2.81518 0.232623
v 1.87595 -1.89623 0.280211
v 2.03076 -0.369078 0.245381
v 2.01112 0.316572 0.239961
v 1.85541 1.57695 0.200146
v 1.43961 2.85822 0.293261
v 1.49006 3.70908 0.243711
v 2.83929 -3.89662 0.260968
v 3.15261 -2.81913 0.305585
v 3.00632 -1.94443 0.246635
v 2.76965 -0.480174 0.30261
v 3.01326 0.31064 0.274061
v 3.105 1.59875 0.19233
v 2.80592 3.17302 0.224408
v 2.76662 3.54199 0.219536
v 3.96079 -3.95239 0.296189
v 3.71332 -2.69924 0.341789
v 3.92631 -1.66413 0.293059
v 3.8632 -0.70996 0.233382
v 3.92574 0.296832 0.216076
v 4.21297 1.81139 0.146912
v 4.17006 2.76962 0.0742709
v 4.04947 3.89345 0.00188059
vt 0.0001 0.0001
vt 0.9999 0.0001
vt 0.0001 0.9999
vt 0.9999 0.9999
vt 0.111189 0.0001
vt 0.222278 0.0001
vt 0.333367 0.0001
vt 0.444455 0.0001
vt 0.555544 0.0001
vt 0.666633 0.0001
vt 0.777722 0.0001
vt 0.888811 0.0001
vt 0.888811 0.9999
vt 0.777722 0.9999
vt 0.666633 0.9999
vt 0.555544 0.9999
vt 0.444455 0.9999
vt 0.333367 0.9999
vt 0.222278 0.9999
vt 0.111189 0.9999
vt 0.0001 0.888811
vt 0.0001 0.777722
vt 0.0001 0.666633
vt 0.0001 0.555544
vt 0.0001 0.444456
vt 0.0001 0.333367
vt 0.0001 0.222278
vt 0.0001 0.111189
vt 0.9999 0.111189
vt 0.9999 0.222278
vt 0.9999 0.333367
vt 0.9999 0.444456
vt 0.9999 0.555544
vt 0.9999 0.666633
vt 0.9999 0.777722
vt 0.9999 0.888811
vt 0.11727 0.115399
vt 0.120778 0.180369
vt 0.134636 0.309595
vt 0.088728 0.473895
vt 0.085886 0.575352
vt 0.086211 0.65375
vt 0.092207 0.78313
vt 0.106956 0.892282
vt 0.22987 0.102869
vt 0.221803 0.229552
vt 0.233521 0.288953
vt 0.225541 0.443179
vt 0.221596 0.556167
vt 0.227801 0.661237
vt 0.214896 0.795203
vt 0.22542 0.865181
vt 0.335524 0.082127
vt 0.351143 0.213907
vt 0.311934 0.342467
vt 0.313159 0.422214
vt 0.347791 0.572605
vt 0.301482 0.677733
vt 0.329031 0.783086
vt 0.344903 0.885466
vt 0.476837 0.074882
vt 0.441952 0.218774
vt 0.445749 0.333088
vt 0.416414 0.43099
vt 0.439746 0.552976
vt 0.463203 0.656843
vt 0.444252 0.77653
vt 0.426137 0.866051
vt 0.573419 0.117409
vt 0.581125 0.246686
vt 0.552512 0.326
vt 0.561075 0.459693
vt 0.558356 0.550596
vt 0.530299 0.662189
vt 0.553275 0.760113
vt 0.555478 0.888821
vt 0.694433 0.13996
vt 0.667048 0.221666
vt 0.681985 0.314267
vt 0.698218 0.467249
vt 0.696819 0.535952
vt 0.68253 0.662758
vt 0.642062 0.791726
vt 0.648523 0.877957
vt 0.778029 0.111667
vt 0.809426 0.219523
vt 0.794923 0.307783
vt 0.772028 0.454562
vt 0.796846 0.533374
vt 0.807262 0.663157
vt 0.778581 0.821037
vt 0.775122 0.858219
vt 0.890224 0.104741
vt 0.865679 0.23076
vt 0.887326 0.334104
vt 0.881307 0.429754
vt 0.887973 0.53063
vt 0.918106 0.681428
vt 0.915043 0.778027
vt 0.904815 0.89094
vn 0.0331123 -0.0370478 0.998765
vn -0.0879586 0.0406038 0.995296
vn 0.0377549 -0.0391409 0.99852
vn 0.0340395 -0.0303831 0.998959
vn 0.0509448 0.00579428 0.998685
vn 0.0467132 0.0397875 0.998116
vn 0.0433458 -0.0214749 0.998829
vn -0.000190862 -0.0150237 0.999887
vn -0.0190213 -0.0081202 0.999786
vn 0.00683253 0.0129257 0.999893
vn -0.0132531 -3.79316e-06 0.999912
vn -0.0806147 0.00997275 0.996695
vn 0.112401 -0.0860921 0.989926
vn 0.110884 -0.0665205 0.991605
vn 0.0464793 -0.131238 0.990261
vn -0.0239475 -0.0912625 0.995539
vn -0.0434018 -0.0238302 0.998773
vn -0.0514133 0.0335186 0.998115
vn -0.0965484 -0.0271225 0.994959
vn -0.0832143 -0.129087 0.988136
vn 0.0713651 0.0806678 0.994183
vn -0.0484522 0.0188722 0.998647
vn -0.0399105 0.0236642 0.998923
vn -0.00424947 0.0218772 0.999752
vn 0.0534181 0.0553532 0.997037
vn 0.0688956 0.0664694 0.995407
vn 0.0775472 0.0933057 0.992613
vn 0.0734232 0.0170198 0.997156
vn -0.0578596 0.0456156 0.997282
vn -0.000811656 0.0270557 0.999634
vn 0.0438766 0.0740384 0.99629
vn 0.0661035 0.0465089 0.996728
vn 0.0860093 0.0326146 0.99576
vn 0.0816008 0.0207764 0.996449
vn 0.035294 0.0399754 0.998577
vn -0.0193326 0.0375361 0.999108
vn 0.0708809 0.0318631 0.996976
vn 0.0819808 0.0624414 0.994676
vn 0.0161119 0.0384717 0.99913
vn -0.0289785 0.012064 0.999507
vn -0.0600995 0.0204926 0.997982
vn -0.0494247 0.0225711 0.998523
vn 0.0182724 0.0857157 0.996152
vn -0.0418649 -0.0138391 0.999027
vn 0.0337525 0.0502719 0.998165
vn 0.0107424 0.0401864 0.999134
vn -0.0717221 -0.0523952 0.996048
vn -0.0703018 -0.0202552 0.99732
vn 0.00430538 0.0444459 0.999003
vn 0.0360395 0.0949644 0.994828
vn -0.0792289 -0.0029203 0.996852
vn -0.175311 -0.084198 0.980906
vn 0.0132323 0.00604361 0.999894
vn -0.0285028 -0.0133985 0.999504
vn -0.0151338 -0.0162188 0.999754
vn 0.0413218 0.0427432 0.998231
vn 0.00447641 0.0516814 0.998654
vn -0.0182119 0.00896986 0.999794
vn -0.119006 -0.0595523 0.991106
vn -0.0456305 0.0229897 0.998694
vn -0.00581223 -0.00981562 0.999935
vn 0.00906043 -0.00150028 0.999958
vn 0.0196926 0.00192162 0.999804
vn 0.0165379 0.0421951 0.998972
vn -0.0258566 -0.0084345 0.99963
vn -0.0377791 -0.025412 0.998963
vn -0.0212039 -0.023979 0.999488
vn -0.0202893 0.0263501 0.999447
vn 0.00119042 0.01735 0.999849
vn 0.00254511 -0.00562866 0.999981
vn 0.012053 -0.0178857 0.999767
vn -0.00217211 0.00954606 0.999952
vn 0.00254745 0.0025429 0.999994
vn 0.0147644 -0.0160315 0.999763
vn 0.0190259 -0.0209282 0.9996
vn 0.000680475 -0.00605904 0.999981
vn -0.00763785 0.012233 0.999896
vn -0.0137475 0.00548999 0.999891
vn -0.0130153 -0.0188189 0.999738
vn -0.0357345 0.0165982 0.999223
vn -0.0153817 0.0265529 0.999529
vn 0.0248239 -0.0128823 0.999609
vn 0.019665 -0.00089003 0.999806
vn 0.0294146 -0.0329463 0.999024
vn -0.0110528 -0.00822404 0.999905
vn -0.0484077 0.000594901 0.998827
vn -0.0216231 0.016232 0.999634
vn -0.00517518 0.00588421 0.999969
vn 0.0254339 0.0399525 0.998878
vn 0.0303322 0.0363406 0.998879
vn 0.0755677 0.0155095 0.99702
vn 0.0925101 0.00186814 0.99571
vn -0.0489548 -0.000972698 0.998801
vn -0.0373115 0.0156794 0.999181
vn -0.00966316 0.0614676 0.998062
vn 0.038894 0.0308134 0.998768
vn 0.0663914 0.0332754 0.997239
vn 0.0541337 0.0436981 0.997577
vn 0.042803 0.0528665 0.997684
vn 0.0886221 0.00060201 0.996065
f 100/100/100 4/4/4 13/13/13
f 44/44/44 3/3/3 21/21/21
f 44/44/44 19/19/19 20/20/20
f 60/60/60 19/19/19 52/52/52
f 60/60/60 17/17/17 18/18/18
f 76/76/76 17/17/17 68/68/68
f 84/84/84 16/16/16 76/76/76
f 84/84/84 14/14/14 15/15/15
f 100/100/100 14/14/14 92/92/92
f 11/11/11 93/93/93 85/85/85
f 93/93/93 86/86/86 85/85/85
f 94/94/94 87/87/87 86/86/86
f 87/87/87 96/96/96 88/88/88
f 96/96/96 89/89/89 88/88/88
f 97/97/97 90/90/90 89/89/89
f 90/90/90 99/99/99 91/91/91
f 91/91/91 100/100/100 92/92/92
f 10/10/10 85/85/85 77/77/77
f 77/77/77 86/86/86 78/78/78
f 78/78/78 87/87/87 79/79/79
f 79/79/79 88/88/88 80/80/80
f 88/88/88 81/81/81 80/80/80
f 81/81/81 90/90/90 82/82/82
f 82/82/82 91/91/91 83/83/83
f 91/91/91 84/84/84 83/83/83
f 10/10/10 69/69/69 9/9/9
f 69/69/69 78/78/78 70/70/70
f 70/70/70 79/79/79 71/71/71
f 79/79/79 72/72/72 71/71/71
f 72/72/72 81/81/81 73/73/73
f 73/73/73 82/82/82 74/74/74
f 82/82/82 75/75/75 74/74/74
f 83/83/83 76/76/76 75/75/75
f 9/9/9 61/61/61 8/8/8
f 69/69/69 62/62/62 61/61/61
f 62/62/62 71/71/71 63/63/63
f 63/63/63 72/72/72 64/64/64
f 72/72/72 65/65/65 64/64/64
f 65/65/65 74/74/74 66/66/66
f 66/66/66 75/75/75 67/67/67
f 67/67/67 76/76/76 68/68/68
f 8/8/8 53/53/53 7/7/7
f 53/53/53 62/62/62 54/54/54
f 54/54/54 63/63/63 55/55/55
f 55/55/55 64/64/64 56/56/56
f 64/64/64 57/57/57 56/56/56
f 57/57/57 66/66/66 58/58/58
f 58/58/58 67/67/67 59/59/59
f 59/59/59 68/68/68 60/60/60
f 6/6/6 53/53/53 45/45/45
f 45/45/45 54/54/54 46/46/46
f 54/54/54 47/47/47 46/46/46
f 55/55/55 48/48/48 47/47/47
f 56/56/56 49/49/49 48/48/48
f 49/49/49 58/58/58 50/50/50
f 58/58/58 51/51/51 50/50/50
f 59/59/59 52/52/52 51/51/51
f 6/6/6 37/37/37 5/5/5
f 45/45/45 38/38/38 37/37/37
f 46/46/46 39/39/39 38/38/38
f 39/39/39 48/48/48 40/40/40
f 40/40/40 49/49/49 41/41/41
f 41/41/41 50/50/50 42/42/42
f 50/50/50 43/43/43 42/42/42
f 51/51/51 44/44/44 43/43/43
f 5/5/5 28/28/28 1/1/1
f 28/28/28 38/38/38 27/27/27
f 27/27/27 39/39/39 26/26/26
f 26/26/26 40/40/40 25/25/25
f 40/40/40 24/24/24 25/25/25
f 41/41/41 23/23/23 24/24/24
f 23/23/23 43/43/43 22/22/22
f 43/43/43 21/21/21 22/22/22
f 2/2/2 93/93/93 12/12/12
f 93/93/93 30/30/30 94/94/94
f 30/30/30 95/95/95 94/94/94
f 31/31/31 96/96/96 95/95/95
f 32/32/32 97/97/97 96/96/96
f 33/33/33 98/98/98 97/97/97
f 98/98/98 35/35/35 99/99/99
f 99/99/99 36/36/36 100/100/100
f 100/100/100 36/36/36 4/4/4
f 44/44/44 20/20/20 3/3/3
f 44/44/44 52/52/52 19/19/19
f 60/60/60 18/18/18 19/19/19
f 60/60/60 68/68/68 17/17/17
f 76/76/76 16/16/16 17/17/17
f 84/84/84 15/15/15 16/16/16
f 84/84/84 92/92/92 14/14/14
f 100/100/100 13/13/13 14/14/14
f 11/11/11 12/12/12 93/93/93
f 93/93/93 94/94/94 86/86/86
f 94/94/94 95/95/95 87/87/87
f 87/87/87 95/95/95 96/96/96
f 96/96/96 97/97/97 89/89/89
f 97/97/97 98/98/98 90/90/90
f 90/90/90 98/98/98 99/99/99
f 91/91/91 99/99/99 100/100/100
f 10/10/10 11/11/11 85/85/85
f 77/77/77 85/85/85 86/86/86
f 78/78/78 86/86/86 87/87/87
f 79/79/79 87/87/87 88/88/88
f 88/88/88 89/89/89 81/81/81
f 81/81/81 89/89/89 90/90/90
f 82/82/82 90/90/90 91/91/91
f 91/91/91 92/92/92 84/84/84
f 10/10/10 77/77/77 69/69/69
f 69/69/69 77/77/77 78/78/78
f 70/70/70 78/78/78 79/79/79
f 79/79/79 80/80/80 72/72/72
f 72/72/72 80/80/80 81/81/81
f 73/73/73 81/81/81 82/82/82
f 82/82/82 83/83/83 75/75/75
f 83/83/83 84/84/84 76/76/76
f 9/9/9 69/69/69 61/61/61
f 69/69/69 70/70/70 62/62/62
f 62/62/62 70/70/70 71/71/71
f 63/63/63 71/71/71 72/72/72
f 72/72/72 73/73/73 65/65/65
f 65/65/65 73/73/73 74/74/74
f 66/66/66 74/74/74 75/75/75
f 67/67/67 75/75/75 76/76/76
f 8/8/8 61/61/61 53/53/53
f 53/53/53 61/61/61 62/62/62
f 54/54/54 62/62/62 63/63/63
f 55/55/55 63/63/63 64/64/64
f 64/64/64 65/65/65 57/57/57
f 57/57/57 65/65/65 66/66/66
f 58/58/58 66/66/66 67/67/67
f 59/59/59 67/67/67 68/68/68
f 6/6/6 7/7/7 53/53/53
f 45/45/45 53/53/53 54/54/54
f 54/54/54 55/55/55 47/47/47
f 55/55/55 56/56/56 48/48/48
f 56/56/56 57/57/57 49/49/49
f 49/49/49 57/57/57 58/58/58
f 58/58/58 59/59/59 51/51/51
f 59/59/59 60/60/60 52/52/52
f 6/6/6 45/45/45 37/37/37
f 45/45/45 46/46/46 38/38/38
f 46/46/46 47/47/47 39/39/39
f 39/39/39 47/47/47 48/48/48
f 40/40/40 48/48/48 49/49/49
f 41/41/41 49/49/49 50/50/50
f 50/50/50 51/51/51 43/43/43
f 51/51/51 52/52/52 44/44/44
f 5/5/5 37/37/37 28/28/28
f 28/28/28 37/37/37 38/38/38
f 27/27/27 38/38/38 39/39/39
f 26/26/26 39/39/39 40/40/40
f 40/40/40 41/41/41 24/24/24
f 41/41/41 42/42/42 23/23/23
f 23/23/23 42/42/42 43/43/43
f 43/43/43 44/44/44 21/21/21
f 2/2/2 29/29/29 93/93/93
f 93/93/93 29/29/29 30/30/30
f 30/30/30 31/31/31 95/95/95
f 31/31/31 32/32/32 96/96/96
f 32/32/32 33/33/33 97/97/97
f 33/33/33 34/34/34 98/98/98
f 98/98/98 34/34/34 35/35/35
f 99/99/99 35/35/35 36/36/36
