o GNATVCloth
v -5.1013 -4.97286 0.51695
v 4.97769 -4.99347 0.44869
v -5.01298 5.02105 0.004229
v 4.98702 5.02105 0.004229
v -3.98727 -5.01289 0.518649
v -2.87218 -5.05029 0.437377
v -1.74958 -5.07531 0.430881
v -0.624795 -5.09888 0.406219
v 0.502035 -5.09746 0.387643
v 1.62582 -5.08086 0.364555
v 2.74576 -5.05422 0.427198
v 3.86487 -5.02426 0.455148
v 3.8489 4.95108 0.166201
v 2.72048 4.88723 0.307165
v 1.59249 4.81382 0.386986
v 0.474908 4.74221 0.490285
v -0.638087 4.6871 0.398913
v -1.70461 4.7102 0.254335
v -2.80869 4.76937 0.429939
v -3.90649 4.87416 0.224179
v -4.9989 3.90806 0.0834777
v -5.00369 2.79295 0.103747
v -5.01531 1.67862 0.134341
v -5.02873 0.565503 0.18409
v -5.03488 -0.545174 0.262691
v -5.04412 -1.65529 0.343617
v -5.05406 -2.76193 0.451758
v -5.0705 -3.87042 0.550464
v 4.96163 -3.88288 0.373838
v 4.95281 -2.77592 0.281215
v 4.95141 -1.66318 0.26524
v 4.95337 -0.550244 0.243662
v 4.95362 0.563285 0.219422
v 4.951 1.67732 0.17419
v 4.95263 2.7918 0.127553
v 4.95744 3.90607 0.0606297
v -3.90313 -3.8653 0.418119
v -3.86388 -3.22583 0.309189
v -3.71049 -1.9441 0.18659
v -4.14918 -0.2826 0.163711
v -4.16862 0.733679 0.18957
v -4.15468 1.51795 0.171847
v -4.07975 2.81037 0.140965
v -3.94552 3.86286 -0.142419
v -2.7806 -4.03781 0.30427
v -2.84331 -2.77009 0.215356
v -2.72664 -2.1826 0.29119
v -2.79367 -0.636471 0.338875
v -2.81697 0.495497 0.333258
v -2.73244 1.53309 0.189921
v -2.8699 2.83837 -0.131297
v -2.83425 3.44933 0.213632
v -1.71923 -4.27079 0.342663
v -1.55481 -2.96071 0.376082
v -1.94605 -1.67005 0.453041
v -1.92166 -0.87413 0.413571
v -1.56702 0.58764 0.0829817
v -2.01687 1.63934 -0.0311362
v -1.77162 2.66952 0.197856
v -1.62461 3.5948 0.314147
v -0.294425 -4.3555 0.37432
v -0.643209 -2.92908 0.385258
v -0.599232 -1.78697 0.434827
v -0.889554 -0.813794 0.322498
v -0.65316 0.393923 0.228136
v -0.413293 1.42467 0.255677
v -0.616425 2.60231 0.347234
v -0.803696 3.44509 0.358992
v 0.679336 -3.92933 0.368533
v 0.758073 -2.63752 0.398924
v 0.471093 -1.85335 0.393385
v 0.558557 -0.515849 0.349464
v 0.535812 0.384412 0.308412
v 0.255595 1.48405 0.34969
v 0.48544 2.4648 0.382851
v 0.498125 3.69044 0.423616
v 1.89565 -3.67829 0.421845
v 1.61907 -2.87313 0.334539
v 1.77103 -1.94341 0.390162
v 1.9345 -0.407932 0.354757
v 1.91994 0.255795 0.216035
v 1.78716 1.52032 0.26195
v 1.37784 2.79862 0.324008
v 1.43495 3.63653 0.346003
v 2.73868 -3.93782 0.414855
v 3.0461 -2.85022 0.358642
v 2.89883 -1.9752 0.265948
v 2.67667 -0.515051 0.357303
v 2.92046 0.280211 0.286634
v 3.025 1.56003 0.0407152
v 2.73749 3.12826 0.134625
v 2.69987 3.49543 0.144779
v 3.86393 -3.98118 0.354755
v 3.60961 -2.72659 0.338416
v 3.82449 -1.6873 0.298769
v 3.76615 -0.732071 0.262884
v 3.83371 0.279948 0.285091
v 4.13075 1.79693 0.176469
v 4.10715 2.75329 0.0375349
v 4.00034 3.87917 0.00562783
vt 0.0001 0.0001
vt 0.9999 0.0001
vt 0.0001 0.9999
vt 0.9999 0.9999
vt 0.111189 0.0001
vt 0.222278 0.0001
vt 0.333367 0.0001
vt 0.444455 0.0001
vt 0.555544 0.0001
vt 0.666633 0.0001
vt 0.777722 0.0001
vt 0.888811 0.0001
vt 0.888811 0.9999
vt 0.777722 0.9999
vt 0.666633 0.9999
vt 0.555544 0.9999
vt 0.444455 0.9999
vt 0.333367 0.9999
vt 0.222278 0.9999
vt 0.111189 0.9999
vt 0.0001 0.888811
vt 0.0001 0.777722
vt 0.0001 0.666633
vt 0.0001 0.555544
vt 0.0001 0.444456
vt 0.0001 0.333367
vt 0.0001 0.222278
vt 0.0001 0.111189
vt 0.9999 0.111189
vt 0.9999 0.222278
vt 0.9999 0.333367
vt 0.9999 0.444456
vt 0.9999 0.555544
vt 0.9999 0.666633
vt 0.9999 0.777722
vt 0.9999 0.888811
vt 0.11727 0.115399
vt 0.120778 0.180369
vt 0.134636 0.309595
vt 0.088728 0.473895
vt 0.085886 0.575352
vt 0.086211 0.65375
vt 0.092207 0.78313
vt 0.106956 0.892282
vt 0.22987 0.102869
vt 0.221803 0.229552
vt 0.233521 0.288953
vt 0.225541 0.443179
vt 0.221596 0.556167
vt 0.227801 0.661237
vt 0.214896 0.795203
vt 0.22542 0.865181
vt 0.335524 0.082127
vt 0.351143 0.213907
vt 0.311934 0.342467
vt 0.313159 0.422214
vt 0.347791 0.572605
vt 0.301482 0.677733
vt 0.329031 0.783086
vt 0.344903 0.885466
vt 0.476837 0.074882
vt 0.441952 0.218774
vt 0.445749 0.333088
vt 0.416414 0.43099
vt 0.439746 0.552976
vt 0.463203 0.656843
vt 0.444252 0.77653
vt 0.426137 0.866051
vt 0.573419 0.117409
vt 0.581125 0.246686
vt 0.552512 0.326
vt 0.561075 0.459693
vt 0.558356 0.550596
vt 0.530299 0.662189
vt 0.553275 0.760113
vt 0.555478 0.888821
vt 0.694433 0.13996
vt 0.667048 0.221666
vt 0.681985 0.314267
vt 0.698218 0.467249
vt 0.696819 0.535952
vt 0.68253 0.662758
vt 0.642062 0.791726
vt 0.648523 0.877957
vt 0.778029 0.111667
vt 0.809426 0.219523
vt 0.794923 0.307783
vt 0.772028 0.454562
vt 0.796846 0.533374
vt 0.807262 0.663157
vt 0.778581 0.821037
vt 0.775122 0.858219
vt 0.890224 0.104741
vt 0.865679 0.23076
vt 0.887326 0.334104
vt 0.881307 0.429754
vt 0.887973 0.53063
vt 0.918106 0.681428
vt 0.915043 0.778027
vt 0.904815 0.89094
vn -0.00261318 -0.0303132 0.999537
vn -0.0101044 0.0813645 0.996633
vn -0.00710277 -0.132053 0.991217
vn 0.0447262 -0.0374243 0.998298
vn 0.0616595 0.0433765 0.997154
vn 0.0486944 0.110191 0.992717
vn 0.0161162 0.108385 0.993978
vn 0.00712185 0.0650425 0.997857
vn 0.0118234 0.0218021 0.999692
vn -0.0191674 -0.012459 0.999739
vn -0.00993291 0.039342 0.999176
vn -0.0121458 0.0957852 0.995328
vn 0.138739 -0.127516 0.982085
vn 0.12174 -0.101841 0.987324
vn 0.0841754 -0.0459154 0.995393
vn 0.0318934 -0.0579921 0.997808
vn -0.0789353 -0.0179288 0.996719
vn 0.0135653 0.0545122 0.998421
vn -0.117567 -0.145967 0.982279
vn -0.214916 -0.325494 0.920796
vn 0.129812 0.107533 0.98569
vn -0.0406733 0.0230905 0.998906
vn -0.0334361 0.0305162 0.998975
vn 0.0246503 0.0297794 0.999252
vn 0.0900473 0.070737 0.993422
vn 0.117826 0.0713415 0.990468
vn 0.145322 0.0857311 0.985663
vn 0.0931507 0.0737962 0.992913
vn -0.0240484 0.0750283 0.996891
vn 0.0229158 0.0371334 0.999048
vn 0.0238441 0.024346 0.999419
vn 0.0286811 0.0059449 0.999571
vn 0.0347615 0.041807 0.998521
vn 0.00878208 0.0411913 0.999113
vn -0.0703938 0.0808851 0.994235
vn -0.0750749 0.0449634 0.996164
vn 0.108025 0.11981 0.986902
vn 0.10755 0.107378 0.988384
vn 0.0123979 0.0215015 0.999692
vn -0.00950758 0.0167371 0.999815
vn -0.0432394 0.030213 0.998608
vn -0.0259419 0.0242118 0.99937
vn 0.0717947 0.117138 0.990517
vn -0.0864375 -0.10672 0.990525
vn 0.0233242 0.0880406 0.995844
vn -0.0545512 0.00486306 0.998499
vn -0.139786 -0.0752047 0.987322
vn -0.118467 -0.00637613 0.992938
vn 0.0344744 0.0852358 0.995764
vn 0.106643 0.137058 0.984806
vn -0.068806 -0.0511662 0.996317
vn -0.249759 -0.266529 0.930904
vn -0.00956941 0.0488305 0.998761
vn -0.0630507 -0.0403158 0.997196
vn -0.0454437 0.00409071 0.998959
vn 0.0372129 0.0966631 0.994621
vn -0.00436305 0.119459 0.99283
vn -0.0136387 0.0224233 0.999656
vn -0.174929 -0.176405 0.968649
vn -0.0399912 -0.0508866 0.997903
vn -0.00372341 0.0169225 0.99985
vn -0.0016926 -0.0215722 0.999766
vn 0.0101515 0.018396 0.999779
vn -0.00450521 0.110829 0.993829
vn -0.100216 0.032246 0.994443
vn -0.139875 -0.0242306 0.989873
vn -0.0970586 -0.0797208 0.992081
vn -0.0708566 -0.0460124 0.996425
vn -0.00124898 0.00378071 0.999992
vn 0.0221065 -0.021628 0.999522
vn 0.0147625 0.00587752 0.999874
vn -0.00650988 0.0713241 0.997432
vn 0.0115911 -0.00319622 0.999928
vn -0.046307 -0.0240221 0.998638
vn -0.00112645 -0.0375032 0.999296
vn 0.00479071 -0.0393264 0.999215
vn -0.0197485 0.0320311 0.999292
vn 0.0220069 0.0196675 0.999564
vn 0.039048 -0.0148556 0.999127
vn 0.000166912 0.114472 0.993426
vn 0.024661 0.102834 0.994393
vn 0.106812 -0.0245236 0.993977
vn 0.103901 -0.025931 0.99425
vn 0.110622 -0.0498899 0.99261
vn 0.0141292 0.0127119 0.999819
vn 0.0139794 0.0687361 0.997537
vn 0.0270309 0.0171609 0.999487
vn 0.0394895 0.0503709 0.99795
vn -0.00910525 0.106407 0.994281
vn 0.00672298 0.0761906 0.997071
vn 0.123924 -0.0152867 0.992174
vn 0.137683 -0.0653516 0.988318
vn 0.0138925 0.0538497 0.998452
vn 0.0160622 0.0452798 0.998845
vn 0.00105398 0.0332141 0.999448
vn 0.0273685 0.00796273 0.999594
vn -0.00390175 0.054664 0.998497
vn -0.0573837 0.0874336 0.994516
vn -0.0485853 0.0583854 0.997111
vn 0.0707249 -0.0398676 0.996699
f 100/100/100 4/4/4 13/13/13
f 44/44/44 3/3/3 21/21/21
f 44/44/44 19/19/19 20/20/20
f 60/60/60 19/19/19 52/52/52
f 60/60/60 17/17/17 18/18/18
f 76/76/76 17/17/17 68/68/68
f 84/84/84 16/16/16 76/76/76
f 84/84/84 14/14/14 15/15/15
f 100/100/100 14/14/14 92/92/92
f 11/11/11 93/93/93 85/85/85
f 93/93/93 86/86/86 85/85/85
f 94/94/94 87/87/87 86/86/86
f 87/87/87 96/96/96 88/88/88
f 96/96/96 89/89/89 88/88/88
f 97/97/97 90/90/90 89/89/89
f 90/90/90 99/99/99 91/91/91
f 91/91/91 100/100/100 92/92/92
f 10/10/10 85/85/85 77/77/77
f 77/77/77 86/86/86 78/78/78
f 78/78/78 87/87/87 79/79/79
f 79/79/79 88/88/88 80/80/80
f 88/88/88 81/81/81 80/80/80
f 81/81/81 90/90/90 82/82/82
f 82/82/82 91/91/91 83/83/83
f 91/91/91 84/84/84 83/83/83
f 10/10/10 69/69/69 9/9/9
f 69/69/69 78/78/78 70/70/70
f 70/70/70 79/79/79 71/71/71
f 79/79/79 72/72/72 71/71/71
f 72/72/72 81/81/81 73/73/73
f 73/73/73 82/82/82 74/74/74
f 82/82/82 75/75/75 74/74/74
f 83/83/83 76/76/76 75/75/75
f 9/9/9 61/61/61 8/8/8
f 69/69/69 62/62/62 61/61/61
f 62/62/62 71/71/71 63/63/63
f 63/63/63 72/72/72 64/64/64
f 72/72/72 65/65/65 64/64/64
f 65/65/65 74/74/74 66/66/66
f 66/66/66 75/75/75 67/67/67
f 67/67/67 76/76/76 68/68/68
f 8/8/8 53/53/53 7/7/7
f 53/53/53 62/62/62 54/54/54
f 54/54/54 63/63/63 55/55/55
f 55/55/55 64/64/64 56/56/56
f 64/64/64 57/57/57 56/56/56
f 57/57/57 66/66/66 58/58/58
f 58/58/58 67/67/67 59/59/59
f 59/59/59 68/68/68 60/60/60
f 6/6/6 53/53/53 45/45/45
f 45/45/45 54/54/54 46/46/46
f 54/54/54 47/47/47 46/46/46
f 55/55/55 48/48/48 47/47/47
f 56/56/56 49/49/49 48/48/48
f 49/49/49 58/58/58 50/50/50
f 58/58/58 51/51/51 50/50/50
f 59/59/59 52/52/52 51/51/51
f 6/6/6 37/37/37 5/5/5
f 45/45/45 38/38/38 37/37/37
f 46/46/46 39/39/39 38/38/38
f 39/39/39 48/48/48 40/40/40
f 40/40/40 49/49/49 41/41/41
f 41/41/41 50/50/50 42/42/42
f 50/50/50 43/43/43 42/42/42
f 51/51/51 44/44/44 43/43/43
f 5/5/5 28/28/28 1/1/1
f 28/28/28 38/38/38 27/27/27
f 27/27/27 39/39/39 26/26/26
f 26/26/26 40/40/40 25/25/25
f 40/40/40 24/24/24 25/25/25
f 41/41/41 23/23/23 24/24/24
f 23/23/23 43/43/43 22/22/22
f 43/43/43 21/21/21 22/22/22
f 2/2/2 93/93/93 12/12/12
f 93/93/93 30/30/30 94/94/94
f 30/30/30 95/95/95 94/94/94
f 31/31/31 96/96/96 95/95/95
f 32/32/32 97/97/97 96/96/96
f 33/33/33 98/98/98 97/97/97
f 98/98/98 35/35/35 99/99/99
f 99/99/99 36/36/36 100/100/100
f 100/100/100 36/36/36 4/4/4
f 44/44/44 20/20/20 3/3/3
f 44/44/44 52/52/52 19/19/19
f 60/60/60 18/18/18 19/19/19
f 60/60/60 68/68/68 17/17/17
f 76/76/76 16/16/16 17/17/17
f 84/84/84 15/15/15 16/16/16
f 84/84/84 92/92/92 14/14/14
f 100/100/100 13/13/13 14/14/14
f 11/11/11 12/12/12 93/93/93
f 93/93/93 94/94/94 86/86/86
f 94/94/94 95/95/95 87/87/87
f 87/87/87 95/95/95 96/96/96
f 96/96/96 97/97/97 89/89/89
f 97/97/97 98/98/98 90/90/90
f 90/90/90 98/98/98 99/99/99
f 91/91/91 99/99/99 100/100/100
f 10/10/10 11/11/11 85/85/85
f 77/77/77 85/85/85 86/86/86
f 78/78/78 86/86/86 87/87/87
f 79/79/79 87/87/87 88/88/88
f 88/88/88 89/89/89 81/81/81
f 81/81/81 89/89/89 90/90/90
f 82/82/82 90/90/90 91/91/91
f 91/91/91 92/92/92 84/84/84
f 10/10/10 77/77/77 69/69/69
f 69/69/69 77/77/77 78/78/78
f 70/70/70 78/78/78 79/79/79
f 79/79/79 80/80/80 72/72/72
f 72/72/72 80/80/80 81/81/81
f 73/73/73 81/81/81 82/82/82
f 82/82/82 83/83/83 75/75/75
f 83/83/83 84/84/84 76/76/76
f 9/9/9 69/69/69 61/61/61
f 69/69/69 70/70/70 62/62/62
f 62/62/62 70/70/70 71/71/71
f 63/63/63 71/71/71 72/72/72
f 72/72/72 73/73/73 65/65/65
f 65/65/65 73/73/73 74/74/74
f 66/66/66 74/74/74 75/75/75
f 67/67/67 75/75/75 76/76/76
f 8/8/8 61/61/61 53/53/53
f 53/53/53 61/61/61 62/62/62
f 54/54/54 62/62/62 63/63/63
f 55/55/55 63/63/63 64/64/64
f 64/64/64 65/65/65 57/57/57
f 57/57/57 65/65/65 66/66/66
f 58/58/58 66/66/66 67/67/67
f 59/59/59 67/67/67 68/68/68
f 6/6/6 7/7/7 53/53/53
f 45/45/45 53/53/53 54/54/54
f 54/54/54 55/55/55 47/47/47
f 55/55/55 56/56/56 48/48/48
f 56/56/56 57/57/57 49/49/49
f 49/49/49 57/57/57 58/58/58
f 58/58/58 59/59/59 51/51/51
f 59/59/59 60/60/60 52/52/52
f 6/6/6 45/45/45 37/37/37
f 45/45/45 46/46/46 38/38/38
f 46/46/46 47/47/47 39/39/39
f 39/39/39 47/47/47 48/48/48
f 40/40/40 48/48/48 49/49/49
f 41/41/41 49/49/49 50/50/50
f 50/50/50 51/51/51 43/43/43
f 51/51/51 52/52/52 44/44/44
f 5/5/5 37/37/37 28/28/28
f 28/28/28 37/37/37 38/38/38
f 27/27/27 38/38/38 39/39/39
f 26/26/26 39/39/39 40/40/40
f 40/40/40 41/41/41 24/24/24
f 41/41/41 42/42/42 23/23/23
f 23/23/23 42/42/42 43/43/43
f 43/43/43 44/44/44 21/21/21
f 2/2/2 29/29/29 93/93/93
f 93/93/93 29/29/29 30/30/30
f 30/30/30 31/31/31 95/95/95
f 31/31/31 32/32/32 96/96/96
f 32/32/32 33/33/33 97/97/97
f 33/33/33 34/34/34 98/98/98
f 98/98/98 34/34/34 35/35/35
f 99/99/99 35/35/35 36/36/36
