o GNATVCloth
v -5.02693 -4.96592 0.627299
v 5.05455 -4.98498 0.347925
v -5.01298 5.02105 0.004229
v 4.98702 5.02105 0.004229
v -3.93293 -5.02844 0.412394
v -2.81257 -5.07065 0.429077
v -1.68727 -5.09273 0.422264
v -0.561203 -5.11742 0.383035
v 0.568661 -5.12481 0.346256
v 1.69596 -5.09963 0.325228
v 2.81983 -5.05828 0.335625
v 3.94016 -5.02077 0.328425
v 3.87683 4.86352 0.227909
v 2.77018 4.74992 0.420954
v 1.64974 4.70357 0.475758
v 0.531443 4.66603 0.5381
v -0.578259 4.62121 0.631601
v -1.68822 4.6777 0.513125
v -2.80593 4.72883 0.43038
v -3.90551 4.84457 0.222444
v -4.97352 3.90858 0.0926117
v -4.96048 2.7934 0.127191
v -4.96221 1.67901 0.163877
v -4.96382 0.564655 0.162543
v -4.97271 -0.547852 0.208576
v -4.98486 -1.65957 0.261494
v -5.00113 -2.77037 0.320995
v -5.02174 -3.87972 0.386936
v 5.0292 -3.8822 0.271251
v 5.00613 -2.7739 0.209667
v 4.98286 -1.66214 0.172277
v 4.9675 -0.550035 0.157659
v 4.962 0.562886 0.149708
v 4.95913 1.67704 0.137033
v 4.96396 2.79228 0.133371
v 4.96174 3.9071 0.0794339
v -3.84634 -3.87524 0.4092
v -3.7991 -3.22635 0.376645
v -3.64131 -1.94304 0.254435
v -4.0833 -0.283045 0.222558
v -4.10646 0.733417 0.234773
v -4.09853 1.51452 0.179925
v -4.03502 2.80716 0.0899348
v -3.9388 3.85661 -0.207479
v -2.71768 -4.04459 0.357576
v -2.77813 -2.77785 0.272579
v -2.65271 -2.18758 0.280508
v -2.7148 -0.641305 0.247709
v -2.74158 0.492734 0.206637
v -2.6839 1.52079 -0.00583947
v -2.86321 2.82496 -0.31817
v -2.76728 3.47664 -0.0703791
v -1.65662 -4.28552 0.3959
v -1.48375 -2.97154 0.393251
v -1.86057 -1.67487 0.345926
v -1.83969 -0.889418 0.217954
v -1.53717 0.549092 -0.219534
v -2.00929 1.605 -0.337702
v -1.74007 2.62278 -0.0930276
v -1.57539 3.59808 0.159517
v -0.231266 -4.38705 0.352495
v -0.576547 -2.94847 0.289557
v -0.533841 -1.81995 0.139483
v -0.838593 -0.86712 -0.0744279
v -0.614929 0.329407 -0.308741
v -0.377281 1.36356 -0.295464
v -0.577911 2.53404 -0.0916764
v -0.757157 3.39078 0.145682
v 0.742173 -3.95765 0.322411
v 0.81953 -2.66848 0.235762
v 0.53378 -1.9072 0.0354926
v 0.616696 -0.585513 -0.159329
v 0.582182 0.313895 -0.248827
v 0.297888 1.41654 -0.244993
v 0.520834 2.37541 -0.129929
v 0.546247 3.58371 0.28263
v 1.95843 -3.6972 0.315264
v 1.67336 -2.89077 0.388986
v 1.81924 -1.97056 0.265042
v 1.98804 -0.462397 -0.0107082
v 1.97457 0.215238 -0.119261
v 1.83297 1.46461 -0.324228
v 1.40831 2.71992 -0.13953
v 1.47976 3.52621 0.157998
v 2.80347 -3.95409 0.301902
v 3.10132 -2.86233 0.312791
v 2.94643 -1.98927 0.407853
v 2.70744 -0.543324 0.190441
v 2.95221 0.250209 0.121651
v 3.06219 1.53916 -0.0641999
v 2.76876 3.09786 -0.255193
v 2.74276 3.4323 -0.0894587
v 3.93234 -3.98183 0.300783
v 3.66145 -2.72982 0.269256
v 3.86266 -1.68915 0.298247
v 3.79744 -0.734959 0.357439
v 3.85044 0.276898 0.303474
v 4.1413 1.7956 0.192859
v 4.12184 2.74756 0.0254746
v 4.03636 3.85812 -0.169447
vt 0.0001 0.0001
vt 0.9999 0.0001
vt 0.0001 0.9999
vt 0.9999 0.9999
vt 0.111189 0.0001
vt 0.222278 0.0001
vt 0.333367 0.0001
vt 0.444455 0.0001
vt 0.555544 0.0001
vt 0.666633 0.0001
vt 0.777722 0.0001
vt 0.888811 0.0001
vt 0.888811 0.9999
vt 0.777722 0.9999
vt 0.666633 0.9999
vt 0.555544 0.9999
vt 0.444455 0.9999
vt 0.333367 0.9999
vt 0.222278 0.9999
vt 0.111189 0.9999
vt 0.0001 0.888811
vt 0.0001 0.777722
vt 0.0001 0.666633
vt 0.0001 0.555544
vt 0.0001 0.444456
vt 0.0001 0.333367
vt 0.0001 0.222278
vt 0.0001 0.111189
vt 0.9999 0.111189
vt 0.9999 0.222278
vt 0.9999 0.333367
vt 0.9999 0.444456
vt 0.9999 0.555544
vt 0.9999 0.666633
vt 0.9999 0.777722
vt 0.9999 0.888811
vt 0.11727 0.115399
vt 0.120778 0.180369
vt 0.134636 0.309595
vt 0.088728 0.473895
vt 0.085886 0.575352
vt 0.086211 0.65375
vt 0.092207 0.78313
vt 0.106956 0.892282
vt 0.22987 0.102869
vt 0.221803 0.229552
vt 0.233521 0.288953
vt 0.225541 0.443179
vt 0.221596 0.556167
vt 0.227801 0.661237
vt 0.214896 0.795203
vt 0.22542 0.865181
vt 0.335524 0.082127
vt 0.351143 0.213907
vt 0.311934 0.342467
vt 0.313159 0.422214
vt 0.347791 0.572605
vt 0.301482 0.677733
vt 0.329031 0.783086
vt 0.344903 0.885466
vt 0.476837 0.074882
vt 0.441952 0.218774
vt 0.445749 0.333088
vt 0.416414 0.43099
vt 0.439746 0.552976
vt 0.463203 0.656843
vt 0.444252 0.77653
vt 0.426137 0.866051
vt 0.573419 0.117409
vt 0.581125 0.246686
vt 0.552512 0.326
vt 0.561075 0.459693
vt 0.558356 0.550596
vt 0.530299 0.662189
vt 0.553275 0.760113
vt 0.555478 0.888821
vt 0.694433 0.13996
vt 0.667048 0.221666
vt 0.681985 0.314267
vt 0.698218 0.467249
vt 0.696819 0.535952
vt 0.68253 0.662758
vt 0.642062 0.791726
vt 0.648523 0.877957
vt 0.778029 0.111667
vt 0.809426 0.219523
vt 0.794923 0.307783
vt 0.772028 0.454562
vt 0.796846 0.533374
vt 0.807262 0.663157
vt 0.778581 0.821037
vt 0.775122 0.858219
vt 0.890224 0.104741
vt 0.865679 0.23076
vt 0.887326 0.334104
vt 0.881307 0.429754
vt 0.887973 0.53063
vt 0.918106 0.681428
vt 0.915043 0.778027
vt 0.904815 0.89094
vn 0.20001 0.210786 0.956852
vn 0.00108703 0.0481546 0.998839
vn 0.0238492 -0.157489 0.987233
vn -0.0166764 -0.134336 0.990795
vn 0.0560109 0.0737059 0.995706
vn 0.00684241 0.0430146 0.999051
vn 0.0210877 0.0318352 0.999271
vn 0.0335142 0.0284801 0.999032
vn 0.0247907 0.0205527 0.999481
vn 0.00735757 0.0145667 0.999867
vn -0.00103014 0.0291882 0.999573
vn -0.00640334 0.0265479 0.999627
vn 0.213071 -0.329688 0.919732
vn 0.145736 -0.330748 0.932398
vn 0.0603607 -0.268207 0.961469
vn 0.0895828 -0.241028 0.966375
vn -0.0363682 -0.317954 0.947409
vn -0.100564 -0.319159 0.94235
vn -0.165091 -0.361104 0.917796
vn -0.223643 -0.382569 0.896451
vn 0.203114 0.119619 0.971821
vn 0.0397269 0.0321236 0.998694
vn -0.0136372 0.0429476 0.998984
vn -0.0643899 0.00888868 0.997885
vn -0.0290068 0.0447012 0.998579
vn -0.00120222 0.0409842 0.999159
vn -0.00557733 0.0696794 0.997554
vn 0.0348739 0.082193 0.996006
vn 0.0211542 0.0628685 0.997798
vn 0.055332 0.0226424 0.998211
vn 0.130018 -0.000953819 0.991511
vn 0.154159 0.0223806 0.987793
vn 0.109894 0.0225397 0.993688
vn 0.0691464 0.00725363 0.99758
vn -0.0654508 0.0737119 0.99513
vn -0.219378 0.088789 0.971591
vn 0.0110069 0.0340525 0.999359
vn 0.0223582 0.0684815 0.997402
vn 0.00227976 0.0409356 0.999159
vn -0.0191747 0.019609 0.999624
vn 0.00557812 0.0521045 0.998626
vn 0.062349 0.0677727 0.995751
vn 0.161733 0.134397 0.97764
vn -0.000633871 -0.138392 0.990377
vn 0.00678681 0.053655 0.998537
vn -0.0139774 0.0438415 0.998941
vn -0.0648225 0.0093864 0.997853
vn -0.00254616 0.0475576 0.998865
vn 0.168797 0.128013 0.977302
vn 0.244688 0.172142 0.954198
vn 0.0640516 -0.00850315 0.99791
vn -0.196359 -0.31965 0.926967
vn 0.0240415 0.0296949 0.99927
vn 0.0124429 0.0406819 0.999095
vn 0.0859985 0.115872 0.989534
vn 0.198233 0.158546 0.967247
vn 0.187584 0.156223 0.969746
vn 0.12442 0.029355 0.991795
vn -0.119397 -0.243067 0.962633
vn -0.104112 -0.30596 0.946335
vn 0.0266129 0.0338381 0.999073
vn 0.0555022 0.0939184 0.994032
vn 0.112998 0.161857 0.980323
vn 0.148942 0.205105 0.967341
vn 0.0117082 0.0682354 0.9976
vn -0.0175697 -0.0629935 0.997859
vn -0.0260388 -0.242275 0.969858
vn -0.0492066 -0.30258 0.951853
vn -0.00737512 0.0208524 0.999755
vn -0.0892057 0.148362 0.984901
vn -0.0259662 0.174003 0.984403
vn -0.0504267 0.156084 0.986456
vn -0.0429015 0.0678588 0.996772
vn -0.0169929 -0.0476834 0.998718
vn 0.0302211 -0.19734 0.979869
vn 0.0468225 -0.300117 0.952753
vn 0.0223163 -0.0315302 0.999254
vn -0.0473867 0.0214628 0.998646
vn -0.153784 0.167663 0.973776
vn -0.184552 0.174263 0.96725
vn -0.176709 0.1435 0.973746
vn -0.0326337 0.00179839 0.999466
vn 0.118401 -0.254305 0.959849
vn 0.116261 -0.323983 0.938892
vn 0.00418506 0.0082979 0.999957
vn 0.0481823 -0.040769 0.998006
vn 0.00752864 0.0160515 0.999843
vn -0.186237 0.147976 0.971298
vn -0.202749 0.132277 0.970256
vn -0.224276 0.128159 0.966062
vn 0.0110738 -0.148274 0.988884
vn 0.16642 -0.393487 0.904142
vn 0.0181892 0.0342689 0.999247
vn 0.0783323 -0.0211699 0.996703
vn 0.107761 -0.0320821 0.993659
vn 0.0171819 0.0387703 0.9991
vn -0.0400283 0.0743913 0.996425
vn -0.0664842 0.0867551 0.994009
vn -0.189598 0.128662 0.973395
vn 0.0162081 -0.160936 0.986832
f 100/100/100 4/4/4 13/13/13
f 44/44/44 3/3/3 21/21/21
f 44/44/44 19/19/19 20/20/20
f 60/60/60 19/19/19 52/52/52
f 60/60/60 17/17/17 18/18/18
f 76/76/76 17/17/17 68/68/68
f 84/84/84 16/16/16 76/76/76
f 84/84/84 14/14/14 15/15/15
f 100/100/100 14/14/14 92/92/92
f 11/11/11 93/93/93 85/85/85
f 93/93/93 86/86/86 85/85/85
f 94/94/94 87/87/87 86/86/86
f 87/87/87 96/96/96 88/88/88
f 96/96/96 89/89/89 88/88/88
f 97/97/97 90/90/90 89/89/89
f 90/90/90 99/99/99 91/91/91
f 91/91/91 100/100/100 92/92/92
f 10/10/10 85/85/85 77/77/77
f 77/77/77 86/86/86 78/78/78
f 78/78/78 87/87/87 79/79/79
f 79/79/79 88/88/88 80/80/80
f 88/88/88 81/81/81 80/80/80
f 81/81/81 90/90/90 82/82/82
f 82/82/82 91/91/91 83/83/83
f 91/91/91 84/84/84 83/83/83
f 10/10/10 69/69/69 9/9/9
f 69/69/69 78/78/78 70/70/70
f 70/70/70 79/79/79 71/71/71
f 79/79/79 72/72/72 71/71/71
f 72/72/72 81/81/81 73/73/73
f 73/73/73 82/82/82 74/74/74
f 82/82/82 75/75/75 74/74/74
f 83/83/83 76/76/76 75/75/75
f 9/9/9 61/61/61 8/8/8
f 69/69/69 62/62/62 61/61/61
f 62/62/62 71/71/71 63/63/63
f 63/63/63 72/72/72 64/64/64
f 72/72/72 65/65/65 64/64/64
f 65/65/65 74/74/74 66/66/66
f 66/66/66 75/75/75 67/67/67
f 67/67/67 76/76/76 68/68/68
f 8/8/8 53/53/53 7/7/7
f 53/53/53 62/62/62 54/54/54
f 54/54/54 63/63/63 55/55/55
f 55/55/55 64/64/64 56/56/56
f 64/64/64 57/57/57 56/56/56
f 57/57/57 66/66/66 58/58/58
f 58/58/58 67/67/67 59/59/59
f 59/59/59 68/68/68 60/60/60
f 6/6/6 53/53/53 45/45/45
f 45/45/45 54/54/54 46/46/46
f 54/54/54 47/47/47 46/46/46
f 55/55/55 48/48/48 47/47/47
f 56/56/56 49/49/49 48/48/48
f 49/49/49 58/58/58 50/50/50
f 58/58/58 51/51/51 50/50/50
f 59/59/59 52/52/52 51/51/51
f 6/6/6 37/37/37 5/5/5
f 45/45/45 38/38/38 37/37/37
f 46/46/46 39/39/39 38/38/38
f 39/39/39 48/48/48 40/40/40
f 40/40/40 49/49/49 41/41/41
f 41/41/41 50/50/50 42/42/42
f 50/50/50 43/43/43 42/42/42
f 51/51/51 44/44/44 43/43/43
f 5/5/5 28/28/28 1/1/1
f 28/28/28 38/38/38 27/27/27
f 27/27/27 39/39/39 26/26/26
f 26/26/26 40/40/40 25/25/25
f 40/40/40 24/24/24 25/25/25
f 41/41/41 23/23/23 24/24/24
f 23/23/23 43/43/43 22/22/22
f 43/43/43 21/21/21 22/22/22
f 2/2/2 93/93/93 12/12/12
f 93/93/93 30/30/30 94/94/94
f 30/30/30 95/95/95 94/94/94
f 31/31/31 96/96/96 95/95/95
f 32/32/32 97/97/97 96/96/96
f 33/33/33 98/98/98 97/97/97
f 98/98/98 35/35/35 99/99/99
f 99/99/99 36/36/36 100/100/100
f 100/100/100 36/36/36 4/4/4
f 44/44/44 20/20/20 3/3/3
f 44/44/44 52/52/52 19/19/19
f 60/60/60 18/18/18 19/19/19
f 60/60/60 68/68/68 17/17/17
f 76/76/76 16/16/16 17/17/17
f 84/84/84 15/15/15 16/16/16
f 84/84/84 92/92/92 14/14/14
f 100/100/100 13/13/13 14/14/14
f 11/11/11 12/12/12 93/93/93
f 93/93/93 94/94/94 86/86/86
f 94/94/94 95/95/95 87/87/87
f 87/87/87 95/95/95 96/96/96
f 96/96/96 97/97/97 89/89/89
f 97/97/97 98/98/98 90/90/90
f 90/90/90 98/98/98 99/99/99
f 91/91/91 99/99/99 100/100/100
f 10/10/10 11/11/11 85/85/85
f 77/77/77 85/85/85 86/86/86
f 78/78/78 86/86/86 87/87/87
f 79/79/79 87/87/87 88/88/88
f 88/88/88 89/89/89 81/81/81
f 81/81/81 89/89/89 90/90/90
f 82/82/82 90/90/90 91/91/91
f 91/91/91 92/92/92 84/84/84
f 10/10/10 77/77/77 69/69/69
f 69/69/69 77/77/77 78/78/78
f 70/70/70 78/78/78 79/79/79
f 79/79/79 80/80/80 72/72/72
f 72/72/72 80/80/80 81/81/81
f 73/73/73 81/81/81 82/82/82
f 82/82/82 83/83/83 75/75/75
f 83/83/83 84/84/84 76/76/76
f 9/9/9 69/69/69 61/61/61
f 69/69/69 70/70/70 62/62/62
f 62/62/62 70/70/70 71/71/71
f 63/63/63 71/71/71 72/72/72
f 72/72/72 73/73/73 65/65/65
f 65/65/65 73/73/73 74/74/74
f 66/66/66 74/74/74 75/75/75
f 67/67/67 75/75/75 76/76/76
f 8/8/8 61/61/61 53/53/53
f 53/53/53 61/61/61 62/62/62
f 54/54/54 62/62/62 63/63/63
f 55/55/55 63/63/63 64/64/64
f 64/64/64 65/65/65 57/57/57
f 57/57/57 65/65/65 66/66/66
f 58/58/58 66/66/66 67/67/67
f 59/59/59 67/67/67 68/68/68
f 6/6/6 7/7/7 53/53/53
f 45/45/45 53/53/53 54/54/54
f 54/54/54 55/55/55 47/47/47
f 55/55/55 56/56/56 48/48/48
f 56/56/56 57/57/57 49/49/49
f 49/49/49 57/57/57 58/58/58
f 58/58/58 59/59/59 51/51/51
f 59/59/59 60/60/60 52/52/52
f 6/6/6 45/45/45 37/37/37
f 45/45/45 46/46/46 38/38/38
f 46/46/46 47/47/47 39/39/39
f 39/39/39 47/47/47 48/48/48
f 40/40/40 48/48/48 49/49/49
f 41/41/41 49/49/49 50/50/50
f 50/50/50 51/51/51 43/43/43
f 51/51/51 52/52/52 44/44/44
f 5/5/5 37/37/37 28/28/28
f 28/28/28 37/37/37 38/38/38
f 27/27/27 38/38/38 39/39/39
f 26/26/26 39/39/39 40/40/40
f 40/40/40 41/41/41 24/24/24
f 41/41/41 42/42/42 23/23/23
f 23/23/23 42/42/42 43/43/43
f 43/43/43 44/44/44 21/21/21
f 2/2/2 29/29/29 93/93/93
f 93/93/93 29/29/29 30/30/30
f 30/30/30 31/31/31 95/95/95
f 31/31/31 32/32/32 96/96/96
f 32/32/32 33/33/33 97/97/97
f 33/33/33 34/34/34 98/98/98
f 98/98/98 34/34/34 35/35/35
f 99/99/99 35/35/35 36/36/36
