o GNATVCloth
v -5.05008 -4.98689 0.567614
v 4.99223 -4.98924 0.409011
v -5.01298 5.02105 0.004229
v 4.98702 5.02105 0.004229
v -3.94119 -5.00911 0.550454
v -2.82855 -5.04067 0.477567
v -1.70686 -5.05339 0.487576
v -0.585024 -5.0577 0.497822
v 0.53722 -5.06605 0.45744
v 1.6576 -5.05689 0.479422
v 2.7749 -5.03506 0.459028
v 3.88869 -4.99084 0.502962
v 3.86041 4.94049 0.131511
v 2.7484 4.87857 0.282665
v 1.63169 4.83911 0.349776
v 0.517345 4.8132 0.366666
v -0.593298 4.79596 0.448435
v -1.71114 4.79839 0.501523
v -2.83115 4.80669 0.556391
v -3.92889 4.89155 0.324744
v -4.99965 3.90672 0.0711563
v -5.00571 2.79272 0.137828
v -5.01439 1.67952 0.208266
v -5.01908 0.565338 0.253763
v -5.021 -0.547173 0.313918
v -5.0257 -1.65871 0.373271
v -5.03118 -2.76905 0.431686
v -5.03514 -3.87668 0.529301
v 4.97921 -3.88343 0.288119
v 4.97277 -2.77208 0.316714
v 4.96807 -1.65977 0.268473
v 4.96576 -0.54811 0.225966
v 4.96735 0.5648 0.210506
v 4.96669 1.67856 0.17589
v 4.96859 2.79303 0.137864
v 4.96857 3.90659 0.0687176
v -3.87718 -3.88484 0.319131
v -3.83846 -3.23509 0.277701
v -3.68804 -1.94757 0.242152
v -4.13853 -0.287082 0.203743
v -4.16151 0.730248 0.211894
v -4.1543 1.51276 0.149955
v -4.08612 2.80193 0.0522307
v -3.93063 3.88417 -0.0604179
v -2.74416 -4.03662 0.282601
v -2.82206 -2.7743 0.320205
v -2.69859 -2.18539 0.286983
v -2.7727 -0.640291 0.310691
v -2.80209 0.488606 0.21982
v -2.73239 1.52709 0.0691265
v -2.85462 2.86541 -0.0578767
v -2.75005 3.547 0.0816541
v -1.68113 -4.26533 0.329021
v -1.52439 -2.9522 0.396455
v -1.91635 -1.6644 0.403681
v -1.89624 -0.866205 0.361811
v -1.5371 0.609971 0.120345
v -1.99595 1.65676 -0.0481874
v -1.72435 2.69447 0.0929656
v -1.58963 3.65483 0.451165
v -0.257612 -4.34434 0.38662
v -0.611021 -2.91086 0.443918
v -0.571658 -1.76989 0.488427
v -0.859732 -0.802918 0.331202
v -0.614587 0.397253 0.161697
v -0.377207 1.42345 0.151799
v -0.573453 2.60597 0.181086
v -0.766698 3.46539 0.416385
v 0.71044 -3.9081 0.410884
v 0.790893 -2.62512 0.530277
v 0.503645 -1.84164 0.478831
v 0.593707 -0.519777 0.301212
v 0.574813 0.374881 0.249981
v 0.293407 1.4815 0.234462
v 0.520183 2.44241 0.232533
v 0.535771 3.70444 0.40285
v 1.92135 -3.65449 0.425735
v 1.63824 -2.84906 0.329596
v 1.80647 -1.93734 0.469021
v 1.96592 -0.430282 0.17019
v 1.95137 0.242378 0.0240533
v 1.82399 1.50429 0.146208
v 1.40801 2.7732 0.215464
v 1.47556 3.61397 0.375097
v 2.76211 -3.92225 0.408684
v 3.06634 -2.8411 0.319964
v 2.91798 -1.96424 0.242649
v 2.6897 -0.503187 0.344787
v 2.93493 0.287685 0.240724
v 3.06013 1.55259 -0.0649472
v 2.75498 3.1214 -0.00938657
v 2.73041 3.47613 0.103772
v 3.8817 -3.97108 0.292696
v 3.62876 -2.71686 0.32712
v 3.84178 -1.68004 0.28816
v 3.7821 -0.723804 0.28693
v 3.84792 0.286495 0.296391
v 4.14775 1.80056 0.156427
v 4.1331 2.7505 -0.0207522
v 4.02017 3.87566 -0.064965
vt 0.0001 0.0001
vt 0.9999 0.0001
vt 0.0001 0.9999
vt 0.9999 0.9999
vt 0.111189 0.0001
vt 0.222278 0.0001
vt 0.333367 0.0001
vt 0.444455 0.0001
vt 0.555544 0.0001
vt 0.666633 0.0001
vt 0.777722 0.0001
vt 0.888811 0.0001
vt 0.888811 0.9999
vt 0.777722 0.9999
vt 0.666633 0.9999
vt 0.555544 0.9999
vt 0.444455 0.9999
vt 0.333367 0.9999
vt 0.222278 0.9999
vt 0.111189 0.9999
vt 0.0001 0.888811
vt 0.0001 0.777722
vt 0.0001 0.666633
vt 0.0001 0.555544
vt 0.0001 0.444456
vt 0.0001 0.333367
vt 0.0001 0.222278
vt 0.0001 0.111189
vt 0.9999 0.111189
vt 0.9999 0.222278
vt 0.9999 0.333367
vt 0.9999 0.444456
vt 0.9999 0.555544
vt 0.9999 0.666633
vt 0.9999 0.777722
vt 0.9999 0.888811
vt 0.11727 0.115399
vt 0.120778 0.180369
vt 0.134636 0.309595
vt 0.088728 0.473895
vt 0.085886 0.575352
vt 0.086211 0.65375
vt 0.092207 0.78313
vt 0.106956 0.892282
vt 0.22987 0.102869
vt 0.221803 0.229552
vt 0.233521 0.288953
vt 0.225541 0.443179
vt 0.221596 0.556167
vt 0.227801 0.661237
vt 0.214896 0.795203
vt 0.22542 0.865181
vt 0.335524 0.082127
vt 0.351143 0.213907
vt 0.311934 0.342467
vt 0.313159 0.422214
vt 0.347791 0.572605
vt 0.301482 0.677733
vt 0.329031 0.783086
vt 0.344903 0.885466
vt 0.476837 0.074882
vt 0.441952 0.218774
vt 0.445749 0.333088
vt 0.416414 0.43099
vt 0.439746 0.552976
vt 0.463203 0.656843
vt 0.444252 0.77653
vt 0.426137 0.866051
vt 0.573419 0.117409
vt 0.581125 0.246686
vt 0.552512 0.326
vt 0.561075 0.459693
vt 0.558356 0.550596
vt 0.530299 0.662189
vt 0.553275 0.760113
vt 0.555478 0.888821
vt 0.694433 0.13996
vt 0.667048 0.221666
vt 0.681985 0.314267
vt 0.698218 0.467249
vt 0.696819 0.535952
vt 0.68253 0.662758
vt 0.642062 0.791726
vt 0.648523 0.877957
vt 0.778029 0.111667
vt 0.809426 0.219523
vt 0.794923 0.307783
vt 0.772028 0.454562
vt 0.796846 0.533374
vt 0.807262 0.663157
vt 0.778581 0.821037
vt 0.775122 0.858219
vt 0.890224 0.104741
vt 0.865679 0.23076
vt 0.887326 0.334104
vt 0.881307 0.429754
vt 0.887973 0.53063
vt 0.918106 0.681428
vt 0.915043 0.778027
vt 0.904815 0.89094
vn 0.0161503 0.0342673 0.999282
vn 0.0392134 0.155533 0.987052
vn -0.0945438 -0.146007 0.984756
vn -0.00964579 -0.0521839 0.998591
vn 0.0879405 0.140792 0.986126
vn 0.0294752 0.19291 0.980774
vn -0.00735192 0.19747 0.980281
vn -0.000706976 0.167655 0.985845
vn -0.00985313 0.0760041 0.997059
vn 0.00172807 0.0408173 0.999165
vn 0.0253458 0.0981086 0.994853
vn 0.0181391 0.202029 0.979212
vn 0.131953 -0.160686 0.978145
vn 0.14169 -0.100206 0.984826
vn 0.0371296 0.0159194 0.999184
vn 0.0401021 0.0285655 0.998787
vn 0.0427667 -0.0149948 0.998973
vn 0.0479619 -0.0388552 0.998093
vn -0.161699 -0.279613 0.946398
vn -0.26175 -0.344282 0.901641
vn 0.112892 0.0683867 0.991251
vn 0.0919094 0.0605791 0.993923
vn 0.0741359 0.0629471 0.99526
vn 0.066448 0.0290943 0.997366
vn 0.108311 0.0530198 0.992702
vn 0.108518 0.0522249 0.992722
vn 0.133976 0.0499173 0.989727
vn 0.133578 0.0906409 0.986885
vn 0.000847801 0.041564 0.999135
vn 0.00969802 0.0068232 0.99993
vn 0.0266225 0.0280176 0.999253
vn 0.0574009 0.0130662 0.998266
vn 0.036782 0.0419345 0.998443
vn -0.018895 0.0325874 0.99929
vn -0.134076 0.0911679 0.986768
vn -0.156971 0.0484136 0.986416
vn 0.1048 0.137531 0.984938
vn 0.0715973 0.0358307 0.99679
vn 0.0194008 0.0282806 0.999412
vn 0.0333845 0.0321168 0.998926
vn 0.040324 0.054097 0.997721
vn 0.0688326 0.0749458 0.994809
vn 0.0874192 0.0775687 0.993147
vn -0.0844392 -0.145242 0.985786
vn -0.0082025 0.0549589 0.998455
vn -0.0455619 0.0196892 0.998767
vn -0.0766398 0.00957963 0.997013
vn -0.0667904 0.0290403 0.997344
vn 0.0248041 0.108331 0.993805
vn 0.0810515 0.105874 0.991071
vn -0.0275925 -0.0245822 0.999317
vn -0.211135 -0.274285 0.938184
vn -0.0278088 0.0881447 0.995719
vn -0.0644405 -0.0231394 0.997653
vn -0.064756 0.0270349 0.997535
vn 0.00549939 0.097607 0.99521
vn -0.00252509 0.12717 0.991878
vn -0.0194791 0.0408373 0.998976
vn -0.131689 -0.220799 0.966388
vn -0.0723597 -0.189205 0.979268
vn -0.0180104 0.0522589 0.998471
vn -0.0365644 -0.0377027 0.99862
vn -0.02549 0.0557913 0.998117
vn -0.00566015 0.13261 0.991152
vn -0.0554045 0.0654328 0.996318
vn -0.0964728 0.0204522 0.995125
vn -0.062111 -0.144077 0.987615
vn -0.00553757 -0.188751 0.982009
vn 0.00463291 0.000591661 0.999989
vn 0.0575271 -0.0534678 0.996911
vn -0.0031625 0.0671502 0.997738
vn 0.034163 0.135117 0.990241
vn 0.0465943 0.0119285 0.998843
vn -0.0421072 0.0164849 0.998977
vn -0.01361 -0.0541305 0.998441
vn 0.0274063 -0.0956509 0.995038
vn 0.00470557 0.0744034 0.997217
vn 0.0936647 -0.0256093 0.995274
vn 0.0691376 0.0288386 0.99719
vn -0.0653901 0.205564 0.976457
vn -0.0114203 0.111706 0.993676
vn 0.115694 -0.0265921 0.992929
vn 0.0987979 -0.113326 0.988634
vn 0.100697 -0.106307 0.989221
vn 0.0601433 0.0491922 0.996977
vn 0.0204671 0.0643154 0.99772
vn 0.0421676 -0.00912924 0.999069
vn -0.055481 0.104666 0.992959
vn -0.0979346 0.158867 0.982431
vn -0.0586472 0.0997363 0.993284
vn 0.136623 -0.111033 0.984381
vn 0.187116 -0.207181 0.960241
vn 0.0312074 0.0665464 0.997295
vn -0.0172498 0.0228689 0.99959
vn -0.0140239 0.0261063 0.999561
vn 0.0173514 0.00925924 0.999807
vn -0.0275805 0.075814 0.99674
vn -0.106798 0.106251 0.988587
vn -0.12403 0.0744273 0.989483
vn 0.055086 -0.0881147 0.994586
f 100/100/100 4/4/4 13/13/13
f 44/44/44 3/3/3 21/21/21
f 44/44/44 19/19/19 20/20/20
f 60/60/60 19/19/19 52/52/52
f 60/60/60 17/17/17 18/18/18
f 76/76/76 17/17/17 68/68/68
f 84/84/84 16/16/16 76/76/76
f 84/84/84 14/14/14 15/15/15
f 100/100/100 14/14/14 92/92/92
f 11/11/11 93/93/93 85/85/85
f 93/93/93 86/86/86 85/85/85
f 94/94/94 87/87/87 86/86/86
f 87/87/87 96/96/96 88/88/88
f 96/96/96 89/89/89 88/88/88
f 97/97/97 90/90/90 89/89/89
f 90/90/90 99/99/99 91/91/91
f 91/91/91 100/100/100 92/92/92
f 10/10/10 85/85/85 77/77/77
f 77/77/77 86/86/86 78/78/78
f 78/78/78 87/87/87 79/79/79
f 79/79/79 88/88/88 80/80/80
f 88/88/88 81/81/81 80/80/80
f 81/81/81 90/90/90 82/82/82
f 82/82/82 91/91/91 83/83/83
f 91/91/91 84/84/84 83/83/83
f 10/10/10 69/69/69 9/9/9
f 69/69/69 78/78/78 70/70/70
f 70/70/70 79/79/79 71/71/71
f 79/79/79 72/72/72 71/71/71
f 72/72/72 81/81/81 73/73/73
f 73/73/73 82/82/82 74/74/74
f 82/82/82 75/75/75 74/74/74
f 83/83/83 76/76/76 75/75/75
f 9/9/9 61/61/61 8/8/8
f 69/69/69 62/62/62 61/61/61
f 62/62/62 71/71/71 63/63/63
f 63/63/63 72/72/72 64/64/64
f 72/72/72 65/65/65 64/64/64
f 65/65/65 74/74/74 66/66/66
f 66/66/66 75/75/75 67/67/67
f 67/67/67 76/76/76 68/68/68
f 8/8/8 53/53/53 7/7/7
f 53/53/53 62/62/62 54/54/54
f 54/54/54 63/63/63 55/55/55
f 55/55/55 64/64/64 56/56/56
f 64/64/64 57/57/57 56/56/56
f 57/57/57 66/66/66 58/58/58
f 58/58/58 67/67/67 59/59/59
f 59/59/59 68/68/68 60/60/60
f 6/6/6 53/53/53 45/45/45
f 45/45/45 54/54/54 46/46/46
f 54/54/54 47/47/47 46/46/46
f 55/55/55 48/48/48 47/47/47
f 56/56/56 49/49/49 48/48/48
f 49/49/49 58/58/58 50/50/50
f 58/58/58 51/51/51 50/50/50
f 59/59/59 52/52/52 51/51/51
f 6/6/6 37/37/37 5/5/5
f 45/45/45 38/38/38 37/37/37
f 46/46/46 39/39/39 38/38/38
f 39/39/39 48/48/48 40/40/40
f 40/40/40 49/49/49 41/41/41
f 41/41/41 50/50/50 42/42/42
f 50/50/50 43/43/43 42/42/42
f 51/51/51 44/44/44 43/43/43
f 5/5/5 28/28/28 1/1/1
f 28/28/28 38/38/38 27/27/27
f 27/27/27 39/39/39 26/26/26
f 26/26/26 40/40/40 25/25/25
f 40/40/40 24/24/24 25/25/25
f 41/41/41 23/23/23 24/24/24
f 23/23/23 43/43/43 22/22/22
f 43/43/43 21/21/21 22/22/22
f 2/2/2 93/93/93 12/12/12
f 93/93/93 30/30/30 94/94/94
f 30/30/30 95/95/95 94/94/94
f 31/31/31 96/96/96 95/95/95
f 32/32/32 97/97/97 96/96/96
f 33/33/33 98/98/98 97/97/97
f 98/98/98 35/35/35 99/99/99
f 99/99/99 36/36/36 100/100/100
f 100/100/100 36/36/36 4/4/4
f 44/44/44 20/20/20 3/3/3
f 44/44/44 52/52/52 19/19/19
f 60/60/60 18/18/18 19/19/19
f 60/60/60 68/68/68 17/17/17
f 76/76/76 16/16/16 17/17/17
f 84/84/84 15/15/15 16/16/16
f 84/84/84 92/92/92 14/14/14
f 100/100/100 13/13/13 14/14/14
f 11/11/11 12/12/12 93/93/93
f 93/93/93 94/94/94 86/86/86
f 94/94/94 95/95/95 87/87/87
f 87/87/87 95/95/95 96/96/96
f 96/96/96 97/97/97 89/89/89
f 97/97/97 98/98/98 90/90/90
f 90/90/90 98/98/98 99/99/99
f 91/91/91 99/99/99 100/100/100
f 10/10/10 11/11/11 85/85/85
f 77/77/77 85/85/85 86/86/86
f 78/78/78 86/86/86 87/87/87
f 79/79/79 87/87/87 88/88/88
f 88/88/88 89/89/89 81/81/81
f 81/81/81 89/89/89 90/90/90
f 82/82/82 90/90/90 91/91/91
f 91/91/91 92/92/92 84/84/84
f 10/10/10 77/77/77 69/69/69
f 69/69/69 77/77/77 78/78/78
f 70/70/70 78/78/78 79/79/79
f 79/79/79 80/80/80 72/72/72
f 72/72/72 80/80/80 81/81/81
f 73/73/73 81/81/81 82/82/82
f 82/82/82 83/83/83 75/75/75
f 83/83/83 84/84/84 76/76/76
f 9/9/9 69/69/69 61/61/61
f 69/69/69 70/70/70 62/62/62
f 62/62/62 70/70/70 71/71/71
f 63/63/63 71/71/71 72/72/72
f 72/72/72 73/73/73 65/65/65
f 65/65/65 73/73/73 74/74/74
f 66/66/66 74/74/74 75/75/75
f 67/67/67 75/75/75 76/76/76
f 8/8/8 61/61/61 53/53/53
f 53/53/53 61/61/61 62/62/62
f 54/54/54 62/62/62 63/63/63
f 55/55/55 63/63/63 64/64/64
f 64/64/64 65/65/65 57/57/57
f 57/57/57 65/65/65 66/66/66
f 58/58/58 66/66/66 67/67/67
f 59/59/59 67/67/67 68/68/68
f 6/6/6 7/7/7 53/53/53
f 45/45/45 53/53/53 54/54/54
f 54/54/54 55/55/55 47/47/47
f 55/55/55 56/56/56 48/48/48
f 56/56/56 57/57/57 49/49/49
f 49/49/49 57/57/57 58/58/58
f 58/58/58 59/59/59 51/51/51
f 59/59/59 60/60/60 52/52/52
f 6/6/6 45/45/45 37/37/37
f 45/45/45 46/46/46 38/38/38
f 46/46/46 47/47/47 39/39/39
f 39/39/39 47/47/47 48/48/48
f 40/40/40 48/48/48 49/49/49
f 41/41/41 49/49/49 50/50/50
f 50/50/50 51/51/51 43/43/43
f 51/51/51 52/52/52 44/44/44
f 5/5/5 37/37/37 28/28/28
f 28/28/28 37/37/37 38/38/38
f 27/27/27 38/38/38 39/39/39
f 26/26/26 39/39/39 40/40/40
f 40/40/40 41/41/41 24/24/24
f 41/41/41 42/42/42 23/23/23
f 23/23/23 42/42/42 43/43/43
f 43/43/43 44/44/44 21/21/21
f 2/2/2 29/29/29 93/93/93
f 93/93/93 29/29/29 30/30/30
f 30/30/30 31/31/31 95/95/95
f 31/31/31 32/32/32 96/96/96
f 32/32/32 33/33/33 97/97/97
f 33/33/33 34/34/34 98/98/98
f 98/98/98 34/34/34 35/35/35
f 99/99/99 35/35/35 36/36/36
