o GNATVCloth
v -5.06118 -4.98888 0.582231
v 5.04098 -4.99265 0.394155
v -5.01298 5.02105 0.004229
v 4.98702 5.02105 0.004229
v -3.94615 -5.01599 0.545354
v -2.82749 -5.06193 0.480451
v -1.70447 -5.08782 0.495922
v -0.577528 -5.11039 0.503294
v 0.5533 -5.11937 0.488206
v 1.68159 -5.0898 0.507017
v 2.80541 -5.06431 0.455607
v 3.92616 -5.01058 0.495678
v 3.86125 4.91901 0.156973
v 2.74706 4.85164 0.317337
v 1.62594 4.79627 0.334088
v 0.512793 4.74166 0.327338
v -0.588809 4.73296 0.446518
v -1.69476 4.74927 0.597303
v -2.81642 4.78949 0.534119
v -3.91312 4.88617 0.282698
v -4.98662 3.90683 0.0739585
v -4.99109 2.79241 0.140069
v -5.00079 1.67865 0.205142
v -5.00676 0.565148 0.269786
v -5.01145 -0.548023 0.325994
v -5.01887 -1.66005 0.371465
v -5.02765 -2.77443 0.406806
v -5.03253 -3.87895 0.513996
v 5.01806 -3.88864 0.289425
v 5.00585 -2.77674 0.296855
v 4.99641 -1.66455 0.254745
v 4.98915 -0.551598 0.233768
v 4.98227 0.562062 0.209501
v 4.97491 1.67626 0.165042
v 4.9728 2.79126 0.126956
v 4.97107 3.90524 0.0520922
v -3.87028 -3.88932 0.323755
v -3.83016 -3.24254 0.273353
v -3.67967 -1.95544 0.241726
v -4.13065 -0.293286 0.220601
v -4.15266 0.72529 0.198398
v -4.14367 1.50898 0.140496
v -4.07388 2.79813 0.0386143
v -3.92167 3.87748 -0.09197
v -2.73681 -4.05302 0.297874
v -2.81163 -2.78477 0.34282
v -2.68782 -2.19633 0.290822
v -2.76233 -0.651964 0.295244
v -2.79524 0.474393 0.188562
v -2.72901 1.51458 0.0375107
v -2.84501 2.856 -0.0653737
v -2.74107 3.53956 0.0566472
v -1.67209 -4.28779 0.319385
v -1.50991 -2.974 0.396865
v -1.90115 -1.68552 0.38892
v -1.88426 -0.888956 0.340346
v -1.53273 0.583136 0.0949357
v -1.99057 1.64446 -0.0294059
v -1.7109 2.68605 0.0563301
v -1.58449 3.62203 0.431564
v -0.246514 -4.37671 0.387839
v -0.596521 -2.94204 0.468734
v -0.553129 -1.79869 0.465569
v -0.844994 -0.826915 0.323106
v -0.608689 0.373418 0.14217
v -0.37552 1.39304 0.111004
v -0.569554 2.58211 0.160465
v -0.762219 3.42041 0.442501
v 0.7256 -3.94735 0.411913
v 0.809083 -2.65723 0.522259
v 0.52352 -1.87035 0.486148
v 0.611206 -0.55588 0.234655
v 0.58534 0.347363 0.202898
v 0.297237 1.44511 0.150579
v 0.52316 2.41756 0.185909
v 0.537863 3.65798 0.393966
v 1.94415 -3.68988 0.390163
v 1.66167 -2.88018 0.352336
v 1.82727 -1.96157 0.467818
v 1.98843 -0.464681 0.125797
v 1.96803 0.212982 0.00961445
v 1.82664 1.4746 0.0966434
v 1.41016 2.74628 0.172466
v 1.47685 3.57604 0.336984
v 2.79072 -3.94941 0.387065
v 3.09565 -2.86397 0.320463
v 2.94448 -1.98729 0.257361
v 2.70833 -0.526757 0.331298
v 2.95382 0.261569 0.209326
v 3.07005 1.53305 -0.0712043
v 2.76065 3.09699 -0.0253784
v 2.72716 3.46011 0.0483797
v 3.91817 -3.98875 0.289058
v 3.66018 -2.73484 0.31419
v 3.86971 -1.69279 0.28709
v 3.80584 -0.739423 0.295657
v 3.86455 0.274885 0.289533
v 4.15493 1.79128 0.157089
v 4.13842 2.73916 -0.0341527
v 4.02182 3.86353 -0.0776949
vt 0.0001 0.0001
vt 0.9999 0.0001
vt 0.0001 0.9999
vt 0.9999 0.9999
vt 0.111189 0.0001
vt 0.222278 0.0001
vt 0.333367 0.0001
vt 0.444455 0.0001
vt 0.555544 0.0001
vt 0.666633 0.0001
vt 0.777722 0.0001
vt 0.888811 0.0001
vt 0.888811 0.9999
vt 0.777722 0.9999
vt 0.666633 0.9999
vt 0.555544 0.9999
vt 0.444455 0.9999
vt 0.333367 0.9999
vt 0.222278 0.9999
vt 0.111189 0.9999
vt 0.0001 0.888811
vt 0.0001 0.777722
vt 0.0001 0.666633
vt 0.0001 0.555544
vt 0.0001 0.444456
vt 0.0001 0.333367
vt 0.0001 0.222278
vt 0.0001 0.111189
vt 0.9999 0.111189
vt 0.9999 0.222278
vt 0.9999 0.333367
vt 0.9999 0.444456
vt 0.9999 0.555544
vt 0.9999 0.666633
vt 0.9999 0.777722
vt 0.9999 0.888811
vt 0.11727 0.115399
vt 0.120778 0.180369
vt 0.134636 0.309595
vt 0.088728 0.473895
vt 0.085886 0.575352
vt 0.086211 0.65375
vt 0.092207 0.78313
vt 0.106956 0.892282
vt 0.22987 0.102869
vt 0.221803 0.229552
vt 0.233521 0.288953
vt 0.225541 0.443179
vt 0.221596 0.556167
vt 0.227801 0.661237
vt 0.214896 0.795203
vt 0.22542 0.865181
vt 0.335524 0.082127
vt 0.351143 0.213907
vt 0.311934 0.342467
vt 0.313159 0.422214
vt 0.347791 0.572605
vt 0.301482 0.677733
vt 0.329031 0.783086
vt 0.344903 0.885466
vt 0.476837 0.074882
vt 0.441952 0.218774
vt 0.445749 0.333088
vt 0.416414 0.43099
vt 0.439746 0.552976
vt 0.463203 0.656843
vt 0.444252 0.77653
vt 0.426137 0.866051
vt 0.573419 0.117409
vt 0.581125 0.246686
vt 0.552512 0.326
vt 0.561075 0.459693
vt 0.558356 0.550596
vt 0.530299 0.662189
vt 0.553275 0.760113
vt 0.555478 0.888821
vt 0.694433 0.13996
vt 0.667048 0.221666
vt 0.681985 0.314267
vt 0.698218 0.467249
vt 0.696819 0.535952
vt 0.68253 0.662758
vt 0.642062 0.791726
vt 0.648523 0.877957
vt 0.778029 0.111667
vt 0.809426 0.219523
vt 0.794923 0.307783
vt 0.772028 0.454562
vt 0.796846 0.533374
vt 0.807262 0.663157
vt 0.778581 0.821037
vt 0.775122 0.858219
vt 0.890224 0.104741
vt 0.865679 0.23076
vt 0.887326 0.334104
vt 0.881307 0.429754
vt 0.887973 0.53063
vt 0.918106 0.681428
vt 0.915043 0.778027
vt 0.904815 0.89094
vn 0.0344627 0.0604389 0.997577
vn 0.0385081 0.146549 0.988454
vn -0.0597614 -0.140169 0.988322
vn 0.0060175 -0.0755894 0.997121
vn 0.086784 0.143431 0.985848
vn 0.0306859 0.188678 0.981559
vn -0.0052728 0.21568 0.97645
vn -0.00809725 0.178808 0.983851
vn -0.0203606 0.0967527 0.9951
vn 0.0134018 0.0726933 0.997264
vn 0.029544 0.107665 0.993748
vn 0.0206667 0.198307 0.979922
vn 0.150132 -0.192754 0.969694
vn 0.131761 -0.14342 0.980851
vn 0.00434771 0.00184199 0.999989
vn 0.0555966 0.0431862 0.997519
vn 0.066288 -0.0194586 0.997611
vn 0.0356771 -0.141958 0.98923
vn -0.196857 -0.3036 0.932241
vn -0.254093 -0.334873 0.907357
vn 0.140258 0.0736087 0.987375
vn 0.109404 0.0577268 0.99232
vn 0.0901646 0.0651248 0.993795
vn 0.0852967 0.0435289 0.995404
vn 0.105902 0.0448106 0.993366
vn 0.105257 0.0372783 0.993746
vn 0.121734 0.0455654 0.991516
vn 0.126203 0.100789 0.986871
vn -0.00432392 0.0438432 0.999029
vn 0.0134869 0.00928722 0.999866
vn 0.0352693 0.0167204 0.999238
vn 0.0555637 0.0147745 0.998346
vn 0.0377347 0.046398 0.99821
vn -0.00450385 0.0369857 0.999306
vn -0.132724 0.097358 0.98636
vn -0.155692 0.0447227 0.986793
vn 0.0938925 0.137313 0.986068
vn 0.054152 0.0408896 0.997695
vn 0.0154576 0.0291233 0.999456
vn 0.0461854 0.0382988 0.998198
vn 0.0596364 0.0649891 0.996102
vn 0.0807487 0.073351 0.994032
vn 0.0993544 0.0789925 0.991912
vn -0.0743263 -0.134663 0.9881
vn -0.00500199 0.0493318 0.99877
vn -0.0471618 0.0290585 0.998465
vn -0.0661606 0.0294901 0.997373
vn -0.0524738 0.0387849 0.997869
vn 0.0250797 0.111902 0.993403
vn 0.0664099 0.0990761 0.992861
vn -0.0292666 -0.013597 0.999479
vn -0.210646 -0.271583 0.93908
vn -0.0272519 0.0873308 0.995807
vn -0.0610579 -0.011511 0.998068
vn -0.0584448 0.03467 0.997688
vn 0.00387192 0.105896 0.99437
vn -0.000531045 0.122299 0.992493
vn -0.0254314 0.0410017 0.998835
vn -0.139054 -0.217121 0.96619
vn -0.0982918 -0.225705 0.969224
vn -0.0263849 0.0540087 0.998192
vn -0.041647 -0.0313554 0.99864
vn -0.0293576 0.0789689 0.996445
vn 0.00386739 0.134106 0.990959
vn -0.0311442 0.0747245 0.996718
vn -0.0600383 0.00721877 0.99817
vn -0.0496736 -0.162215 0.985504
vn -0.0205724 -0.204954 0.978555
vn 0.0117845 0.00548084 0.999916
vn 0.0560977 -0.0498385 0.997181
vn -0.00495003 0.0923234 0.995717
vn 0.0384565 0.141749 0.989155
vn 0.0420303 0.0221173 0.998871
vn -0.0198139 0.0136138 0.999711
vn 0.00178311 -0.0824674 0.996592
vn 0.0537326 -0.102278 0.993304
vn 0.0154893 0.0640135 0.997829
vn 0.0933319 -0.0371729 0.994941
vn 0.0554303 0.0540885 0.996996
vn -0.0954586 0.198452 0.975451
vn -0.0276243 0.102009 0.9944
vn 0.0936268 -0.0223757 0.995356
vn 0.0991845 -0.126354 0.987014
vn 0.104 -0.10129 0.989406
vn 0.053792 0.0588396 0.996817
vn 0.0268895 0.0459439 0.998582
vn 0.0477309 -0.00734585 0.998833
vn -0.0755246 0.115147 0.990473
vn -0.106191 0.163038 0.980888
vn -0.0731541 0.0993368 0.992361
vn 0.122147 -0.0817436 0.98914
vn 0.178886 -0.184581 0.9664
vn 0.0296793 0.0687698 0.997191
vn -0.00146493 0.0188854 0.999821
vn -0.000311769 0.0156107 0.999878
vn 0.0135936 0.0148178 0.999798
vn -0.0405602 0.0781404 0.996117
vn -0.10661 0.110778 0.988111
vn -0.127166 0.0804919 0.98861
vn 0.0505362 -0.0941311 0.994276
f 100/100/100 4/4/4 13/13/13
f 44/44/44 3/3/3 21/21/21
f 44/44/44 19/19/19 20/20/20
f 60/60/60 19/19/19 52/52/52
f 60/60/60 17/17/17 18/18/18
f 76/76/76 17/17/17 68/68/68
f 84/84/84 16/16/16 76/76/76
f 84/84/84 14/14/14 15/15/15
f 100/100/100 14/14/14 92/92/92
f 11/11/11 93/93/93 85/85/85
f 93/93/93 86/86/86 85/85/85
f 94/94/94 87/87/87 86/86/86
f 87/87/87 96/96/96 88/88/88
f 96/96/96 89/89/89 88/88/88
f 97/97/97 90/90/90 89/89/89
f 90/90/90 99/99/99 91/91/91
f 91/91/91 100/100/100 92/92/92
f 10/10/10 85/85/85 77/77/77
f 77/77/77 86/86/86 78/78/78
f 78/78/78 87/87/87 79/79/79
f 79/79/79 88/88/88 80/80/80
f 88/88/88 81/81/81 80/80/80
f 81/81/81 90/90/90 82/82/82
f 82/82/82 91/91/91 83/83/83
f 91/91/91 84/84/84 83/83/83
f 10/10/10 69/69/69 9/9/9
f 69/69/69 78/78/78 70/70/70
f 70/70/70 79/79/79 71/71/71
f 79/79/79 72/72/72 71/71/71
f 72/72/72 81/81/81 73/73/73
f 73/73/73 82/82/82 74/74/74
f 82/82/82 75/75/75 74/74/74
f 83/83/83 76/76/76 75/75/75
f 9/9/9 61/61/61 8/8/8
f 69/69/69 62/62/62 61/61/61
f 62/62/62 71/71/71 63/63/63
f 63/63/63 72/72/72 64/64/64
f 72/72/72 65/65/65 64/64/64
f 65/65/65 74/74/74 66/66/66
f 66/66/66 75/75/75 67/67/67
f 67/67/67 76/76/76 68/68/68
f 8/8/8 53/53/53 7/7/7
f 53/53/53 62/62/62 54/54/54
f 54/54/54 63/63/63 55/55/55
f 55/55/55 64/64/64 56/56/56
f 64/64/64 57/57/57 56/56/56
f 57/57/57 66/66/66 58/58/58
f 58/58/58 67/67/67 59/59/59
f 59/59/59 68/68/68 60/60/60
f 6/6/6 53/53/53 45/45/45
f 45/45/45 54/54/54 46/46/46
f 54/54/54 47/47/47 46/46/46
f 55/55/55 48/48/48 47/47/47
f 56/56/56 49/49/49 48/48/48
f 49/49/49 58/58/58 50/50/50
f 58/58/58 51/51/51 50/50/50
f 59/59/59 52/52/52 51/51/51
f 6/6/6 37/37/37 5/5/5
f 45/45/45 38/38/38 37/37/37
f 46/46/46 39/39/39 38/38/38
f 39/39/39 48/48/48 40/40/40
f 40/40/40 49/49/49 41/41/41
f 41/41/41 50/50/50 42/42/42
f 50/50/50 43/43/43 42/42/42
f 51/51/51 44/44/44 43/43/43
f 5/5/5 28/28/28 1/1/1
f 28/28/28 38/38/38 27/27/27
f 27/27/27 39/39/39 26/26/26
f 26/26/26 40/40/40 25/25/25
f 40/40/40 24/24/24 25/25/25
f 41/41/41 23/23/23 24/24/24
f 23/23/23 43/43/43 22/22/22
f 43/43/43 21/21/21 22/22/22
f 2/2/2 93/93/93 12/12/12
f 93/93/93 30/30/30 94/94/94
f 30/30/30 95/95/95 94/94/94
f 31/31/31 96/96/96 95/95/95
f 32/32/32 97/97/97 96/96/96
f 33/33/33 98/98/98 97/97/97
f 98/98/98 35/35/35 99/99/99
f 99/99/99 36/36/36 100/100/100
f 100/100/100 36/36/36 4/4/4
f 44/44/44 20/20/20 3/3/3
f 44/44/44 52/52/52 19/19/19
f 60/60/60 18/18/18 19/19/19
f 60/60/60 68/68/68 17/17/17
f 76/76/76 16/16/16 17/17/17
f 84/84/84 15/15/15 16/16/16
f 84/84/84 92/92/92 14/14/14
f 100/100/100 13/13/13 14/14/14
f 11/11/11 12/12/12 93/93/93
f 93/93/93 94/94/94 86/86/86
f 94/94/94 95/95/95 87/87/87
f 87/87/87 95/95/95 96/96/96
f 96/96/96 97/97/97 89/89/89
f 97/97/97 98/98/98 90/90/90
f 90/90/90 98/98/98 99/99/99
f 91/91/91 99/99/99 100/100/100
f 10/10/10 11/11/11 85/85/85
f 77/77/77 85/85/85 86/86/86
f 78/78/78 86/86/86 87/87/87
f 79/79/79 87/87/87 88/88/88
f 88/88/88 89/89/89 81/81/81
f 81/81/81 89/89/89 90/90/90
f 82/82/82 90/90/90 91/91/91
f 91/91/91 92/92/92 84/84/84
f 10/10/10 77/77/77 69/69/69
f 69/69/69 77/77/77 78/78/78
f 70/70/70 78/78/78 79/79/79
f 79/79/79 80/80/80 72/72/72
f 72/72/72 80/80/80 81/81/81
f 73/73/73 81/81/81 82/82/82
f 82/82/82 83/83/83 75/75/75
f 83/83/83 84/84/84 76/76/76
f 9/9/9 69/69/69 61/61/61
f 69/69/69 70/70/70 62/62/62
f 62/62/62 70/70/70 71/71/71
f 63/63/63 71/71/71 72/72/72
f 72/72/72 73/73/73 65/65/65
f 65/65/65 73/73/73 74/74/74
f 66/66/66 74/74/74 75/75/75
f 67/67/67 75/75/75 76/76/76
f 8/8/8 61/61/61 53/53/53
f 53/53/53 61/61/61 62/62/62
f 54/54/54 62/62/62 63/63/63
f 55/55/55 63/63/63 64/64/64
f 64/64/64 65/65/65 57/57/57
f 57/57/57 65/65/65 66/66/66
f 58/58/58 66/66/66 67/67/67
f 59/59/59 67/67/67 68/68/68
f 6/6/6 7/7/7 53/53/53
f 45/45/45 53/53/53 54/54/54
f 54/54/54 55/55/55 47/47/47
f 55/55/55 56/56/56 48/48/48
f 56/56/56 57/57/57 49/49/49
f 49/49/49 57/57/57 58/58/58
f 58/58/58 59/59/59 51/51/51
f 59/59/59 60/60/60 52/52/52
f 6/6/6 45/45/45 37/37/37
f 45/45/45 46/46/46 38/38/38
f 46/46/46 47/47/47 39/39/39
f 39/39/39 47/47/47 48/48/48
f 40/40/40 48/48/48 49/49/49
f 41/41/41 49/49/49 50/50/50
f 50/50/50 51/51/51 43/43/43
f 51/51/51 52/52/52 44/44/44
f 5/5/5 37/37/37 28/28/28
f 28/28/28 37/37/37 38/38/38
f 27/27/27 38/38/38 39/39/39
f 26/26/26 39/39/39 40/40/40
f 40/40/40 41/41/41 24/24/24
f 41/41/41 42/42/42 23/23/23
f 23/23/23 42/42/42 43/43/43
f 43/43/43 44/44/44 21/21/21
f 2/2/2 29/29/29 93/93/93
f 93/93/93 29/29/29 30/30/30
f 30/30/30 31/31/31 95/95/95
f 31/31/31 32/32/32 96/96/96
f 32/32/32 33/33/33 97/97/97
f 33/33/33 34/34/34 98/98/98
f 98/98/98 34/34/34 35/35/35
f 99/99/99 35/35/35 36/36/36
