o GNATVCloth
v -4.89921 -4.99366 0.331925
v 5.16638 -4.99213 0.360825
v -5.01298 5.02105 0.004229
v 4.98702 5.02105 0.004229
v -3.78854 -5.01491 0.281637
v -2.67323 -5.02945 0.267043
v -1.55407 -5.044 0.200604
v -0.431422 -5.05434 0.18568
v 0.691271 -5.05717 0.221267
v 1.81348 -5.06002 0.210894
v 2.93512 -5.04715 0.19969
v 4.05365 -5.01694 0.261169
v 3.86467 4.9474 0.0585623
v 2.75989 4.86859 0.212769
v 1.64892 4.78799 0.297641
v 0.629602 4.75246 0.25769
v -0.49105 4.81152 0.239594
v -1.60892 4.88144 0.166138
v -2.73818 4.94349 0.139205
v -3.87111 4.97815 0.0867102
v -4.98036 3.90561 0.0378192
v -4.96306 2.79021 0.0671447
v -4.9516 1.67548 0.100763
v -4.94052 0.56119 0.139297
v -4.92876 -0.551799 0.190466
v -4.91534 -1.66293 0.257041
v -4.90137 -2.77397 0.310945
v -4.8965 -3.8858 0.322745
v 5.14805 -3.88226 0.273285
v 5.13008 -2.77091 0.266382
v 5.11152 -1.65642 0.238399
v 5.09914 -0.546993 0.175174
v 5.08555 0.564452 0.121378
v 5.06669 1.67755 0.0816578
v 5.0431 2.79173 0.0514202
v 5.01613 3.90636 0.0283982
v -3.72597 -3.86484 0.23703
v -3.69232 -3.21499 0.233802
v -3.56872 -1.9278 0.163474
v -4.045 -0.273386 0.159453
v -4.0839 0.742485 0.151953
v -4.08837 1.52831 0.12448
v -4.04094 2.82089 0.0825394
v -3.90461 3.90604 0.00355559
v -2.59563 -4.0091 0.19527
v -2.68465 -2.74021 0.160976
v -2.57297 -2.14764 0.123953
v -2.67112 -0.609169 0.234999
v -2.72356 0.524332 0.226518
v -2.6715 1.5738 0.177309
v -2.80865 2.91104 0.039632
v -2.72632 3.59799 0.190166
v -1.53106 -4.23065 0.201623
v -1.38413 -2.91669 0.186925
v -1.79547 -1.62943 0.252263
v -1.79009 -0.832825 0.231125
v -1.45726 0.664109 0.152814
v -1.93536 1.71887 0.146442
v -1.67726 2.76619 0.218034
v -1.52188 3.76598 0.202194
v -0.106816 -4.31122 0.173989
v -0.470849 -2.87534 0.181344
v -0.447704 -1.73147 0.215053
v -0.755376 -0.755224 0.180586
v -0.53304 0.464646 0.176116
v -0.307407 1.5028 0.202206
v -0.516668 2.69701 0.214064
v -0.704528 3.55786 0.196254
v 0.862186 -3.88547 0.202841
v 0.92442 -2.59618 0.175029
v 0.625848 -1.8021 0.18605
v 0.693541 -0.465172 0.170284
v 0.658451 0.43857 0.192264
v 0.365216 1.55483 0.202592
v 0.583576 2.53112 0.201177
v 0.597536 3.74204 0.186728
v 2.07842 -3.65952 0.196674
v 1.79206 -2.84819 0.173466
v 1.92971 -1.92338 0.205378
v 2.07153 -0.394645 0.190419
v 2.05102 0.292612 0.167874
v 1.8946 1.55252 0.135431
v 1.47552 2.83944 0.233211
v 1.52922 3.62213 0.18298
v 2.92344 -3.9305 0.186854
v 3.22077 -2.84756 0.246176
v 3.06519 -1.97184 0.142553
v 2.81407 -0.510472 0.240734
v 3.05504 0.279892 0.219045
v 3.14639 1.5745 0.150841
v 2.84113 3.14096 0.164485
v 2.79845 3.48025 0.225958
v 4.05317 -3.97455 0.192544
v 3.78319 -2.72441 0.262517
v 3.98342 -1.68527 0.236756
v 3.9127 -0.734093 0.177014
v 3.96898 0.276506 0.173347
v 4.24893 1.7905 0.135432
v 4.20073 2.7551 0.0939511
v 4.07228 3.87716 0.0516816
vt 0.0001 0.0001
vt 0.9999 0.0001
vt 0.0001 0.9999
vt 0.9999 0.9999
vt 0.111189 0.0001
vt 0.222278 0.0001
vt 0.333367 0.0001
vt 0.444455 0.0001
vt 0.555544 0.0001
vt 0.666633 0.0001
vt 0.777722 0.0001
vt 0.888811 0.0001
vt 0.888811 0.9999
vt 0.777722 0.9999
vt 0.666633 0.9999
vt 0.555544 0.9999
vt 0.444455 0.9999
vt 0.333367 0.9999
vt 0.222278 0.9999
vt 0.111189 0.9999
vt 0.0001 0.888811
vt 0.0001 0.777722
vt 0.0001 0.666633
vt 0.0001 0.555544
vt 0.0001 0.444456
vt 0.0001 0.333367
vt 0.0001 0.222278
vt 0.0001 0.111189
vt 0.9999 0.111189
vt 0.9999 0.222278
vt 0.9999 0.333367
vt 0.9999 0.444456
vt 0.9999 0.555544
vt 0.9999 0.666633
vt 0.9999 0.777722
vt 0.9999 0.888811
vt 0.11727 0.115399
vt 0.120778 0.180369
vt 0.134636 0.309595
vt 0.088728 0.473895
vt 0.085886 0.575352
vt 0.086211 0.65375
vt 0.092207 0.78313
vt 0.106956 0.892282
vt 0.22987 0.102869
vt 0.221803 0.229552
vt 0.233521 0.288953
vt 0.225541 0.443179
vt 0.221596 0.556167
vt 0.227801 0.661237
vt 0.214896 0.795203
vt 0.22542 0.865181
vt 0.335524 0.082127
vt 0.351143 0.213907
vt 0.311934 0.342467
vt 0.313159 0.422214
vt 0.347791 0.572605
vt 0.301482 0.677733
vt 0.329031 0.783086
vt 0.344903 0.885466
vt 0.476837 0.074882
vt 0.441952 0.218774
vt 0.445749 0.333088
vt 0.416414 0.43099
vt 0.439746 0.552976
vt 0.463203 0.656843
vt 0.444252 0.77653
vt 0.426137 0.866051
vt 0.573419 0.117409
vt 0.581125 0.246686
vt 0.552512 0.326
vt 0.561075 0.459693
vt 0.558356 0.550596
vt 0.530299 0.662189
vt 0.553275 0.760113
vt 0.555478 0.888821
vt 0.694433 0.13996
vt 0.667048 0.221666
vt 0.681985 0.314267
vt 0.698218 0.467249
vt 0.696819 0.535952
vt 0.68253 0.662758
vt 0.642062 0.791726
vt 0.648523 0.877957
vt 0.778029 0.111667
vt 0.809426 0.219523
vt 0.794923 0.307783
vt 0.772028 0.454562
vt 0.796846 0.533374
vt 0.807262 0.663157
vt 0.778581 0.821037
vt 0.775122 0.858219
vt 0.890224 0.104741
vt 0.865679 0.23076
vt 0.887326 0.334104
vt 0.881307 0.429754
vt 0.887973 0.53063
vt 0.918106 0.681428
vt 0.915043 0.778027
vt 0.904815 0.89094
vn 0.0453855 0.00816614 0.998936
vn -0.0851245 0.0712272 0.993821
vn -0.0214763 -0.0219521 0.999528
vn 0.0360682 0.0126104 0.99927
vn 0.0437918 0.0269789 0.998676
vn 0.0316805 0.0428464 0.998579
vn 0.0362593 -0.00227802 0.99934
vn 0.000494349 0.0116604 0.999932
vn -0.0204959 0.0217751 0.999553
vn 0.00911466 0.0107486 0.999901
vn -0.0171007 0.0295567 0.999417
vn -0.0735036 0.0654808 0.995143
vn 0.0925773 0.0115578 0.995638
vn 0.0800074 -0.0161072 0.996664
vn 0.0238804 -0.100277 0.994673
vn -0.020156 -0.0778457 0.996762
vn -0.0181645 -0.0283114 0.999434
vn -0.0430097 0.0289236 0.998656
vn -0.058388 0.00719115 0.998268
vn -0.0615571 -0.0752701 0.995261
vn 0.0153361 0.0418896 0.999005
vn -0.0176168 0.0279824 0.999453
vn -0.020754 0.0330809 0.999237
vn -0.00590787 0.0290849 0.99956
vn 0.0183194 0.0530651 0.998423
vn 0.0563424 0.044357 0.997426
vn 0.0756978 0.0356222 0.996494
vn 0.0646074 0.0137392 0.997816
vn -0.076925 0.0410606 0.996191
vn -0.0207438 -0.000423056 0.999785
vn -0.00418687 0.048119 0.998833
vn 0.00916045 0.0363879 0.999296
vn 0.0488667 0.0342539 0.998218
vn 0.0700706 0.0326511 0.997008
vn 0.0558008 0.0318974 0.997932
vn 0.0322793 0.0281453 0.999083
vn 0.0483444 0.0287381 0.998417
vn 0.0607879 0.0237734 0.997868
vn 0.0427706 0.0196574 0.998892
vn -0.0102429 0.0189548 0.999768
vn -0.0331396 0.0275086 0.999072
vn -0.0299956 0.0341358 0.998967
vn -0.00100128 0.0522601 0.998633
vn -0.0544349 -0.0190855 0.998335
vn 0.02146 0.0346346 0.99917
vn 0.0259632 0.0447906 0.998659
vn -0.0309773 -0.0233967 0.999246
vn -0.0303419 -0.0207439 0.999324
vn -0.000963449 0.0262393 0.999655
vn -0.00709264 0.0621385 0.998042
vn -0.0775928 -0.0214223 0.996755
vn -0.111537 -0.0576197 0.992088
vn 0.017476 0.0134316 0.999757
vn -0.0144407 -0.00638326 0.999875
vn -0.017569 -0.0181308 0.999681
vn 0.0327114 0.0285585 0.999057
vn 0.0109462 0.0153946 0.999822
vn -0.0176465 0.00829916 0.99981
vn -0.055907 -0.0390818 0.997671
vn -0.0173935 0.0155375 0.999728
vn -0.0112693 0.00928742 0.999893
vn 0.00567835 -0.00719812 0.999958
vn 0.0192625 -0.00196541 0.999812
vn 0.0177661 0.0265071 0.999491
vn -0.0121102 -0.0119231 0.999856
vn -0.0150063 -0.0128454 0.999805
vn -0.000681072 -0.00622526 0.99998
vn 0.0061759 -0.00270037 0.999977
vn -0.00620115 0.0150282 0.999868
vn -0.00192308 -0.00441117 0.999988
vn 0.00583168 -0.00771416 0.999953
vn -0.00122831 0.00694285 0.999975
vn 0.0102923 -0.00618565 0.999928
vn 0.0149242 -0.00855988 0.999852
vn 0.0030567 -0.0115499 0.999929
vn -0.00322122 -0.00958479 0.999949
vn -0.00784237 0.00059297 0.999969
vn -0.00804169 0.0155503 0.999847
vn -0.00178387 -0.0163443 0.999865
vn -0.0398539 0.0225441 0.998951
vn -0.0224029 0.027255 0.999377
vn 0.0196058 -0.0141114 0.999708
vn 0.0124971 0.0006294 0.999922
vn 0.000676427 -0.0461295 0.998935
vn 0.00134981 -0.015091 0.999885
vn -0.0305017 0.0103595 0.999481
vn -0.0267161 0.0226434 0.999387
vn -0.00333945 -0.00309101 0.99999
vn 0.0118858 0.0316138 0.999429
vn 0.00603824 0.0266211 0.999627
vn 0.0474962 -0.0426115 0.997962
vn 0.0569006 -0.0798009 0.995185
vn -0.0417442 0.00694638 0.999104
vn -0.0384789 0.0128574 0.999177
vn -0.048486 0.0427132 0.99791
vn 0.00395523 0.0182158 0.999826
vn 0.0310683 0.023793 0.999234
vn 0.0409318 0.0324131 0.998636
vn 0.04059 0.0328623 0.998635
vn 0.0873279 -0.00137509 0.996179
f 100/100/100 4/4/4 13/13/13
f 44/44/44 3/3/3 21/21/21
f 44/44/44 19/19/19 20/20/20
f 60/60/60 19/19/19 52/52/52
f 60/60/60 17/17/17 18/18/18
f 76/76/76 17/17/17 68/68/68
f 84/84/84 16/16/16 76/76/76
f 84/84/84 14/14/14 15/15/15
f 100/100/100 14/14/14 92/92/92
f 11/11/11 93/93/93 85/85/85
f 93/93/93 86/86/86 85/85/85
f 94/94/94 87/87/87 86/86/86
f 87/87/87 96/96/96 88/88/88
f 96/96/96 89/89/89 88/88/88
f 97/97/97 90/90/90 89/89/89
f 90/90/90 99/99/99 91/91/91
f 91/91/91 100/100/100 92/92/92
f 10/10/10 85/85/85 77/77/77
f 77/77/77 86/86/86 78/78/78
f 78/78/78 87/87/87 79/79/79
f 79/79/79 88/88/88 80/80/80
f 88/88/88 81/81/81 80/80/80
f 81/81/81 90/90/90 82/82/82
f 82/82/82 91/91/91 83/83/83
f 91/91/91 84/84/84 83/83/83
f 10/10/10 69/69/69 9/9/9
f 69/69/69 78/78/78 70/70/70
f 70/70/70 79/79/79 71/71/71
f 79/79/79 72/72/72 71/71/71
f 72/72/72 81/81/81 73/73/73
f 73/73/73 82/82/82 74/74/74
f 82/82/82 75/75/75 74/74/74
f 83/83/83 76/76/76 75/75/75
f 9/9/9 61/61/61 8/8/8
f 69/69/69 62/62/62 61/61/61
f 62/62/62 71/71/71 63/63/63
f 63/63/63 72/72/72 64/64/64
f 72/72/72 65/65/65 64/64/64
f 65/65/65 74/74/74 66/66/66
f 66/66/66 75/75/75 67/67/67
f 67/67/67 76/76/76 68/68/68
f 8/8/8 53/53/53 7/7/7
f 53/53/53 62/62/62 54/54/54
f 54/54/54 63/63/63 55/55/55
f 55/55/55 64/64/64 56/56/56
f 64/64/64 57/57/57 56/56/56
f 57/57/57 66/66/66 58/58/58
f 58/58/58 67/67/67 59/59/59
f 59/59/59 68/68/68 60/60/60
f 6/6/6 53/53/53 45/45/45
f 45/45/45 54/54/54 46/46/46
f 54/54/54 47/47/47 46/46/46
f 55/55/55 48/48/48 47/47/47
f 56/56/56 49/49/49 48/48/48
f 49/49/49 58/58/58 50/50/50
f 58/58/58 51/51/51 50/50/50
f 59/59/59 52/52/52 51/51/51
f 6/6/6 37/37/37 5/5/5
f 45/45/45 38/38/38 37/37/37
f 46/46/46 39/39/39 38/38/38
f 39/39/39 48/48/48 40/40/40
f 40/40/40 49/49/49 41/41/41
f 41/41/41 50/50/50 42/42/42
f 50/50/50 43/43/43 42/42/42
f 51/51/51 44/44/44 43/43/43
f 5/5/5 28/28/28 1/1/1
f 28/28/28 38/38/38 27/27/27
f 27/27/27 39/39/39 26/26/26
f 26/26/26 40/40/40 25/25/25
f 40/40/40 24/24/24 25/25/25
f 41/41/41 23/23/23 24/24/24
f 23/23/23 43/43/43 22/22/22
f 43/43/43 21/21/21 22/22/22
f 2/2/2 93/93/93 12/12/12
f 93/93/93 30/30/30 94/94/94
f 30/30/30 95/95/95 94/94/94
f 31/31/31 96/96/96 95/95/95
f 32/32/32 97/97/97 96/96/96
f 33/33/33 98/98/98 97/97/97
f 98/98/98 35/35/35 99/99/99
f 99/99/99 36/36/36 100/100/100
f 100/100/100 36/36/36 4/4/4
f 44/44/44 20/20/20 3/3/3
f 44/44/44 52/52/52 19/19/19
f 60/60/60 18/18/18 19/19/19
f 60/60/60 68/68/68 17/17/17
f 76/76/76 16/16/16 17/17/17
f 84/84/84 15/15/15 16/16/16
f 84/84/84 92/92/92 14/14/14
f 100/100/100 13/13/13 14/14/14
f 11/11/11 12/12/12 93/93/93
f 93/93/93 94/94/94 86/86/86
f 94/94/94 95/95/95 87/87/87
f 87/87/87 95/95/95 96/96/96
f 96/96/96 97/97/97 89/89/89
f 97/97/97 98/98/98 90/90/90
f 90/90/90 98/98/98 99/99/99
f 91/91/91 99/99/99 100/100/100
f 10/10/10 11/11/11 85/85/85
f 77/77/77 85/85/85 86/86/86
f 78/78/78 86/86/86 87/87/87
f 79/79/79 87/87/87 88/88/88
f 88/88/88 89/89/89 81/81/81
f 81/81/81 89/89/89 90/90/90
f 82/82/82 90/90/90 91/91/91
f 91/91/91 92/92/92 84/84/84
f 10/10/10 77/77/77 69/69/69
f 69/69/69 77/77/77 78/78/78
f 70/70/70 78/78/78 79/79/79
f 79/79/79 80/80/80 72/72/72
f 72/72/72 80/80/80 81/81/81
f 73/73/73 81/81/81 82/82/82
f 82/82/82 83/83/83 75/75/75
f 83/83/83 84/84/84 76/76/76
f 9/9/9 69/69/69 61/61/61
f 69/69/69 70/70/70 62/62/62
f 62/62/62 70/70/70 71/71/71
f 63/63/63 71/71/71 72/72/72
f 72/72/72 73/73/73 65/65/65
f 65/65/65 73/73/73 74/74/74
f 66/66/66 74/74/74 75/75/75
f 67/67/67 75/75/75 76/76/76
f 8/8/8 61/61/61 53/53/53
f 53/53/53 61/61/61 62/62/62
f 54/54/54 62/62/62 63/63/63
f 55/55/55 63/63/63 64/64/64
f 64/64/64 65/65/65 57/57/57
f 57/57/57 65/65/65 66/66/66
f 58/58/58 66/66/66 67/67/67
f 59/59/59 67/67/67 68/68/68
f 6/6/6 7/7/7 53/53/53
f 45/45/45 53/53/53 54/54/54
f 54/54/54 55/55/55 47/47/47
f 55/55/55 56/56/56 48/48/48
f 56/56/56 57/57/57 49/49/49
f 49/49/49 57/57/57 58/58/58
f 58/58/58 59/59/59 51/51/51
f 59/59/59 60/60/60 52/52/52
f 6/6/6 45/45/45 37/37/37
f 45/45/45 46/46/46 38/38/38
f 46/46/46 47/47/47 39/39/39
f 39/39/39 47/47/47 48/48/48
f 40/40/40 48/48/48 49/49/49
f 41/41/41 49/49/49 50/50/50
f 50/50/50 51/51/51 43/43/43
f 51/51/51 52/52/52 44/44/44
f 5/5/5 37/37/37 28/28/28
f 28/28/28 37/37/37 38/38/38
f 27/27/27 38/38/38 39/39/39
f 26/26/26 39/39/39 40/40/40
f 40/40/40 41/41/41 24/24/24
f 41/41/41 42/42/42 23/23/23
f 23/23/23 42/42/42 43/43/43
f 43/43/43 44/44/44 21/21/21
f 2/2/2 29/29/29 93/93/93
f 93/93/93 29/29/29 30/30/30
f 30/30/30 31/31/31 95/95/95
f 31/31/31 32/32/32 96/96/96
f 32/32/32 33/33/33 97/97/97
f 33/33/33 34/34/34 98/98/98
f 98/98/98 34/34/34 35/35/35
f 99/99/99 35/35/35 36/36/36
