o GNATVCloth
v -5.01049 -4.95802 0.621979
v 5.05123 -4.99004 0.378814
v -5.01298 5.02105 0.004229
v 4.98702 5.02105 0.004229
v -3.91298 -5.01297 0.43828
v -2.79756 -5.04931 0.452286
v -1.67651 -5.07958 0.429864
v -0.553219 -5.10137 0.415506
v 0.573239 -5.09943 0.372151
v 1.69757 -5.087 0.365242
v 2.8191 -5.05634 0.378289
v 3.9378 -5.02475 0.324421
v 3.87703 4.87406 0.22366
v 2.77407 4.7657 0.436258
v 1.65172 4.73495 0.413128
v 0.531356 4.7084 0.453029
v -0.574894 4.65411 0.609729
v -1.68771 4.71013 0.498574
v -2.8102 4.73501 0.471739
v -3.90722 4.85967 0.240809
v -4.97328 3.90971 0.100616
v -4.96234 2.79466 0.123879
v -4.96283 1.68039 0.149325
v -4.96397 0.566949 0.173006
v -4.96881 -0.545094 0.219634
v -4.9767 -1.65641 0.274587
v -4.98546 -2.7669 0.330527
v -5.00117 -3.8751 0.416677
v 5.02793 -3.88046 0.300484
v 5.00965 -2.77416 0.205997
v 4.99364 -1.66285 0.173466
v 4.98326 -0.550196 0.160206
v 4.97518 0.562863 0.149727
v 4.97057 1.67718 0.136296
v 4.97125 2.79228 0.125102
v 4.9639 3.9067 0.0704467
v -3.82769 -3.86347 0.418151
v -3.78331 -3.21836 0.368065
v -3.63161 -1.93631 0.269969
v -4.08003 -0.275243 0.198817
v -4.10578 0.740693 0.225072
v -4.09956 1.52348 0.170342
v -4.03777 2.81468 0.0915715
v -3.93452 3.87073 -0.186207
v -2.70371 -4.03123 0.352741
v -2.76637 -2.7628 0.266926
v -2.64229 -2.17141 0.281708
v -2.71084 -0.628391 0.256539
v -2.74489 0.502945 0.203368
v -2.68322 1.53592 0.00769354
v -2.85966 2.84117 -0.294534
v -2.76654 3.48866 -0.0339591
v -1.64544 -4.26216 0.387852
v -1.47717 -2.9534 0.407803
v -1.85764 -1.65616 0.387549
v -1.83237 -0.864518 0.291506
v -1.53797 0.559728 -0.211351
v -2.00637 1.62045 -0.318255
v -1.73253 2.6423 -0.0949534
v -1.57434 3.60932 0.193148
v -0.223403 -4.35849 0.375655
v -0.566493 -2.92635 0.329024
v -0.527194 -1.79786 0.210127
v -0.831793 -0.847326 -0.000901555
v -0.608889 0.350767 -0.222079
v -0.377423 1.36988 -0.22856
v -0.575567 2.54403 -0.0266258
v -0.755119 3.41388 0.184368
v 0.748102 -3.94443 0.322137
v 0.824485 -2.64975 0.279925
v 0.538741 -1.88328 0.101528
v 0.622751 -0.571654 -0.125803
v 0.588002 0.329443 -0.163608
v 0.295091 1.42069 -0.154373
v 0.519943 2.39054 -0.0484905
v 0.54815 3.60622 0.320422
v 1.96069 -3.68916 0.310174
v 1.67967 -2.88406 0.404174
v 1.8232 -1.95632 0.325546
v 1.99252 -0.452182 0.0442732
v 1.98508 0.217218 -0.102988
v 1.82806 1.47454 -0.235951
v 1.4044 2.73809 -0.0944978
v 1.48341 3.53088 0.213685
v 2.80516 -3.946 0.295044
v 3.10495 -2.85742 0.299705
v 2.95643 -1.9849 0.40942
v 2.71719 -0.535581 0.227493
v 2.95738 0.259926 0.160988
v 3.07436 1.53859 -0.0802292
v 2.7668 3.10054 -0.215949
v 2.74233 3.43547 -0.0531882
v 3.93127 -3.98077 0.3256
v 3.6673 -2.72867 0.285506
v 3.87374 -1.68682 0.299495
v 3.81183 -0.731934 0.35345
v 3.86378 0.279314 0.301968
v 4.15168 1.79637 0.176678
v 4.12978 2.74848 0.0107769
v 4.03323 3.86246 -0.159974
vt 0.0001 0.0001
vt 0.9999 0.0001
vt 0.0001 0.9999
vt 0.9999 0.9999
vt 0.111189 0.0001
vt 0.222278 0.0001
vt 0.333367 0.0001
vt 0.444455 0.0001
vt 0.555544 0.0001
vt 0.666633 0.0001
vt 0.777722 0.0001
vt 0.888811 0.0001
vt 0.888811 0.9999
vt 0.777722 0.9999
vt 0.666633 0.9999
vt 0.555544 0.9999
vt 0.444455 0.9999
vt 0.333367 0.9999
vt 0.222278 0.9999
vt 0.111189 0.9999
vt 0.0001 0.888811
vt 0.0001 0.777722
vt 0.0001 0.666633
vt 0.0001 0.555544
vt 0.0001 0.444456
vt 0.0001 0.333367
vt 0.0001 0.222278
vt 0.0001 0.111189
vt 0.9999 0.111189
vt 0.9999 0.222278
vt 0.9999 0.333367
vt 0.9999 0.444456
vt 0.9999 0.555544
vt 0.9999 0.666633
vt 0.9999 0.777722
vt 0.9999 0.888811
vt 0.11727 0.115399
vt 0.120778 0.180369
vt 0.134636 0.309595
vt 0.088728 0.473895
vt 0.085886 0.575352
vt 0.086211 0.65375
vt 0.092207 0.78313
vt 0.106956 0.892282
vt 0.22987 0.102869
vt 0.221803 0.229552
vt 0.233521 0.288953
vt 0.225541 0.443179
vt 0.221596 0.556167
vt 0.227801 0.661237
vt 0.214896 0.795203
vt 0.22542 0.865181
vt 0.335524 0.082127
vt 0.351143 0.213907
vt 0.311934 0.342467
vt 0.313159 0.422214
vt 0.347791 0.572605
vt 0.301482 0.677733
vt 0.329031 0.783086
vt 0.344903 0.885466
vt 0.476837 0.074882
vt 0.441952 0.218774
vt 0.445749 0.333088
vt 0.416414 0.43099
vt 0.439746 0.552976
vt 0.463203 0.656843
vt 0.444252 0.77653
vt 0.426137 0.866051
vt 0.573419 0.117409
vt 0.581125 0.246686
vt 0.552512 0.326
vt 0.561075 0.459693
vt 0.558356 0.550596
vt 0.530299 0.662189
vt 0.553275 0.760113
vt 0.555478 0.888821
vt 0.694433 0.13996
vt 0.667048 0.221666
vt 0.681985 0.314267
vt 0.698218 0.467249
vt 0.696819 0.535952
vt 0.68253 0.662758
vt 0.642062 0.791726
vt 0.648523 0.877957
vt 0.778029 0.111667
vt 0.809426 0.219523
vt 0.794923 0.307783
vt 0.772028 0.454562
vt 0.796846 0.533374
vt 0.807262 0.663157
vt 0.778581 0.821037
vt 0.775122 0.858219
vt 0.890224 0.104741
vt 0.865679 0.23076
vt 0.887326 0.334104
vt 0.881307 0.429754
vt 0.887973 0.53063
vt 0.918106 0.681428
vt 0.915043 0.778027
vt 0.904815 0.89094
vn 0.171183 0.182091 0.968266
vn -0.0162088 0.0347005 0.999266
vn 0.0117993 -0.15254 0.988227
vn -0.00976021 -0.132437 0.991143
vn 0.0529514 0.0731863 0.995912
vn 0.0173071 0.0645245 0.997766
vn 0.0175426 0.0506553 0.998562
vn 0.0213221 0.0452229 0.998749
vn 0.0277175 0.038757 0.998864
vn 0.00548116 0.0475327 0.998855
vn 0.00324736 0.0494524 0.998771
vn -0.00031457 -0.0011312 0.999999
vn 0.216768 -0.316723 0.923417
vn 0.139237 -0.293761 0.945684
vn 0.0115815 -0.164977 0.986229
vn 0.0958636 -0.134127 0.986316
vn -0.0205466 -0.258318 0.965841
vn -0.0691937 -0.273326 0.95943
vn -0.159765 -0.351554 0.922434
vn -0.238926 -0.379369 0.893864
vn 0.191882 0.112617 0.974935
vn 0.0344382 0.0219928 0.999165
vn -0.0137931 0.0438961 0.998941
vn -0.0364339 0.0119913 0.999264
vn 0.00955581 0.0455862 0.998915
vn 0.0117857 0.0486122 0.998748
vn 0.00316072 0.0681079 0.997673
vn 0.041623 0.0891102 0.995152
vn 0.0156902 0.0780452 0.996826
vn 0.0613292 0.0339887 0.997539
vn 0.12831 -0.00161044 0.991733
vn 0.150065 0.0219264 0.988433
vn 0.101713 0.0271837 0.994442
vn 0.0508651 0.011121 0.998644
vn -0.0763033 0.0752752 0.994239
vn -0.208273 0.0789544 0.974879
vn 0.0249584 0.0553898 0.998153
vn 0.0330452 0.0738595 0.996721
vn 0.00495315 0.0385251 0.999245
vn -0.0107259 0.0235254 0.999666
vn 0.00684469 0.0485418 0.998798
vn 0.0505902 0.0638378 0.996677
vn 0.14946 0.123003 0.981087
vn -0.0169307 -0.144356 0.989381
vn 0.0101995 0.0641249 0.99789
vn -0.017938 0.0356471 0.999203
vn -0.0790919 -0.00350066 0.996861
vn -0.0411044 0.0454824 0.998119
vn 0.14964 0.129118 0.980274
vn 0.23309 0.162889 0.958716
vn 0.0612807 -0.0186754 0.997946
vn -0.196528 -0.336434 0.920972
vn 0.013987 0.0352086 0.999282
vn -0.00819394 0.023107 0.999699
vn 0.0511469 0.0905641 0.994576
vn 0.164778 0.163842 0.972627
vn 0.151664 0.1726 0.973246
vn 0.10747 0.0268493 0.993846
vn -0.131222 -0.246622 0.960187
vn -0.0920042 -0.296134 0.950705
vn 0.0275224 0.0397617 0.99883
vn 0.0495967 0.0725819 0.996129
vn 0.106589 0.152275 0.982574
vn 0.14096 0.20356 0.968862
vn -0.0158818 0.0666383 0.997651
vn -0.0555117 -0.0536419 0.997016
vn -0.0541652 -0.222693 0.973383
vn -0.0631194 -0.281581 0.957459
vn 0.00170198 0.018095 0.999835
vn -0.0783585 0.113124 0.990486
vn -0.0217095 0.167655 0.985607
vn -0.0401096 0.154897 0.987116
vn -0.0239185 0.0331013 0.999166
vn -0.0309638 -0.0381407 0.998793
vn 0.0294887 -0.174439 0.984226
vn 0.0503234 -0.251472 0.966555
vn 0.0303824 -0.0261133 0.999197
vn -0.0232871 -0.0117355 0.99966
vn -0.133492 0.151022 0.979475
vn -0.178033 0.204869 0.962462
vn -0.156552 0.145195 0.976939
vn 0.00180735 -0.0033039 0.999993
vn 0.123622 -0.239947 0.962883
vn 0.102375 -0.281753 0.95401
vn -0.00437127 0.0355731 0.999358
vn 0.0344472 -0.0480408 0.998251
vn 0.0224525 0.000307704 0.999748
vn -0.160509 0.151014 0.975414
vn -0.187421 0.146116 0.971352
vn -0.193291 0.127978 0.972759
vn 0.0375164 -0.152753 0.987552
vn 0.181932 -0.381408 0.906327
vn 0.00708749 0.0390112 0.999214
vn 0.0639538 -0.0200373 0.997752
vn 0.109605 -0.0259476 0.993636
vn 0.0318581 0.0342518 0.998905
vn -0.0268219 0.0837825 0.996123
vn -0.0748762 0.0906051 0.993068
vn -0.177851 0.116324 0.977158
vn 0.0329927 -0.159782 0.986601
f 100/100/100 4/4/4 13/13/13
f 44/44/44 3/3/3 21/21/21
f 44/44/44 19/19/19 20/20/20
f 60/60/60 19/19/19 52/52/52
f 60/60/60 17/17/17 18/18/18
f 76/76/76 17/17/17 68/68/68
f 84/84/84 16/16/16 76/76/76
f 84/84/84 14/14/14 15/15/15
f 100/100/100 14/14/14 92/92/92
f 11/11/11 93/93/93 85/85/85
f 93/93/93 86/86/86 85/85/85
f 94/94/94 87/87/87 86/86/86
f 87/87/87 96/96/96 88/88/88
f 96/96/96 89/89/89 88/88/88
f 97/97/97 90/90/90 89/89/89
f 90/90/90 99/99/99 91/91/91
f 91/91/91 100/100/100 92/92/92
f 10/10/10 85/85/85 77/77/77
f 77/77/77 86/86/86 78/78/78
f 78/78/78 87/87/87 79/79/79
f 79/79/79 88/88/88 80/80/80
f 88/88/88 81/81/81 80/80/80
f 81/81/81 90/90/90 82/82/82
f 82/82/82 91/91/91 83/83/83
f 91/91/91 84/84/84 83/83/83
f 10/10/10 69/69/69 9/9/9
f 69/69/69 78/78/78 70/70/70
f 70/70/70 79/79/79 71/71/71
f 79/79/79 72/72/72 71/71/71
f 72/72/72 81/81/81 73/73/73
f 73/73/73 82/82/82 74/74/74
f 82/82/82 75/75/75 74/74/74
f 83/83/83 76/76/76 75/75/75
f 9/9/9 61/61/61 8/8/8
f 69/69/69 62/62/62 61/61/61
f 62/62/62 71/71/71 63/63/63
f 63/63/63 72/72/72 64/64/64
f 72/72/72 65/65/65 64/64/64
f 65/65/65 74/74/74 66/66/66
f 66/66/66 75/75/75 67/67/67
f 67/67/67 76/76/76 68/68/68
f 8/8/8 53/53/53 7/7/7
f 53/53/53 62/62/62 54/54/54
f 54/54/54 63/63/63 55/55/55
f 55/55/55 64/64/64 56/56/56
f 64/64/64 57/57/57 56/56/56
f 57/57/57 66/66/66 58/58/58
f 58/58/58 67/67/67 59/59/59
f 59/59/59 68/68/68 60/60/60
f 6/6/6 53/53/53 45/45/45
f 45/45/45 54/54/54 46/46/46
f 54/54/54 47/47/47 46/46/46
f 55/55/55 48/48/48 47/47/47
f 56/56/56 49/49/49 48/48/48
f 49/49/49 58/58/58 50/50/50
f 58/58/58 51/51/51 50/50/50
f 59/59/59 52/52/52 51/51/51
f 6/6/6 37/37/37 5/5/5
f 45/45/45 38/38/38 37/37/37
f 46/46/46 39/39/39 38/38/38
f 39/39/39 48/48/48 40/40/40
f 40/40/40 49/49/49 41/41/41
f 41/41/41 50/50/50 42/42/42
f 50/50/50 43/43/43 42/42/42
f 51/51/51 44/44/44 43/43/43
f 5/5/5 28/28/28 1/1/1
f 28/28/28 38/38/38 27/27/27
f 27/27/27 39/39/39 26/26/26
f 26/26/26 40/40/40 25/25/25
f 40/40/40 24/24/24 25/25/25
f 41/41/41 23/23/23 24/24/24
f 23/23/23 43/43/43 22/22/22
f 43/43/43 21/21/21 22/22/22
f 2/2/2 93/93/93 12/12/12
f 93/93/93 30/30/30 94/94/94
f 30/30/30 95/95/95 94/94/94
f 31/31/31 96/96/96 95/95/95
f 32/32/32 97/97/97 96/96/96
f 33/33/33 98/98/98 97/97/97
f 98/98/98 35/35/35 99/99/99
f 99/99/99 36/36/36 100/100/100
f 100/100/100 36/36/36 4/4/4
f 44/44/44 20/20/20 3/3/3
f 44/44/44 52/52/52 19/19/19
f 60/60/60 18/18/18 19/19/19
f 60/60/60 68/68/68 17/17/17
f 76/76/76 16/16/16 17/17/17
f 84/84/84 15/15/15 16/16/16
f 84/84/84 92/92/92 14/14/14
f 100/100/100 13/13/13 14/14/14
f 11/11/11 12/12/12 93/93/93
f 93/93/93 94/94/94 86/86/86
f 94/94/94 95/95/95 87/87/87
f 87/87/87 95/95/95 96/96/96
f 96/96/96 97/97/97 89/89/89
f 97/97/97 98/98/98 90/90/90
f 90/90/90 98/98/98 99/99/99
f 91/91/91 99/99/99 100/100/100
f 10/10/10 11/11/11 85/85/85
f 77/77/77 85/85/85 86/86/86
f 78/78/78 86/86/86 87/87/87
f 79/79/79 87/87/87 88/88/88
f 88/88/88 89/89/89 81/81/81
f 81/81/81 89/89/89 90/90/90
f 82/82/82 90/90/90 91/91/91
f 91/91/91 92/92/92 84/84/84
f 10/10/10 77/77/77 69/69/69
f 69/69/69 77/77/77 78/78/78
f 70/70/70 78/78/78 79/79/79
f 79/79/79 80/80/80 72/72/72
f 72/72/72 80/80/80 81/81/81
f 73/73/73 81/81/81 82/82/82
f 82/82/82 83/83/83 75/75/75
f 83/83/83 84/84/84 76/76/76
f 9/9/9 69/69/69 61/61/61
f 69/69/69 70/70/70 62/62/62
f 62/62/62 70/70/70 71/71/71
f 63/63/63 71/71/71 72/72/72
f 72/72/72 73/73/73 65/65/65
f 65/65/65 73/73/73 74/74/74
f 66/66/66 74/74/74 75/75/75
f 67/67/67 75/75/75 76/76/76
f 8/8/8 61/61/61 53/53/53
f 53/53/53 61/61/61 62/62/62
f 54/54/54 62/62/62 63/63/63
f 55/55/55 63/63/63 64/64/64
f 64/64/64 65/65/65 57/57/57
f 57/57/57 65/65/65 66/66/66
f 58/58/58 66/66/66 67/67/67
f 59/59/59 67/67/67 68/68/68
f 6/6/6 7/7/7 53/53/53
f 45/45/45 53/53/53 54/54/54
f 54/54/54 55/55/55 47/47/47
f 55/55/55 56/56/56 48/48/48
f 56/56/56 57/57/57 49/49/49
f 49/49/49 57/57/57 58/58/58
f 58/58/58 59/59/59 51/51/51
f 59/59/59 60/60/60 52/52/52
f 6/6/6 45/45/45 37/37/37
f 45/45/45 46/46/46 38/38/38
f 46/46/46 47/47/47 39/39/39
f 39/39/39 47/47/47 48/48/48
f 40/40/40 48/48/48 49/49/49
f 41/41/41 49/49/49 50/50/50
f 50/50/50 51/51/51 43/43/43
f 51/51/51 52/52/52 44/44/44
f 5/5/5 37/37/37 28/28/28
f 28/28/28 37/37/37 38/38/38
f 27/27/27 38/38/38 39/39/39
f 26/26/26 39/39/39 40/40/40
f 40/40/40 41/41/41 24/24/24
f 41/41/41 42/42/42 23/23/23
f 23/23/23 42/42/42 43/43/43
f 43/43/43 44/44/44 21/21/21
f 2/2/2 29/29/29 93/93/93
f 93/93/93 29/29/29 30/30/30
f 30/30/30 31/31/31 95/95/95
f 31/31/31 32/32/32 96/96/96
f 32/32/32 33/33/33 97/97/97
f 33/33/33 34/34/34 98/98/98
f 98/98/98 34/34/34 35/35/35
f 99/99/99 35/35/35 36/36/36
