o GNATVCloth
v -5.05575 -4.97389 0.556841
v 4.97111 -4.98662 0.419891
v -5.01298 5.02105 0.004229
v 4.98702 5.02105 0.004229
v -3.94315 -5.00448 0.549697
v -2.83266 -5.03168 0.474297
v -1.71493 -5.03333 0.476793
v -0.597613 -5.04066 0.484794
v 0.520359 -5.04663 0.440593
v 1.6395 -5.03917 0.453139
v 2.7529 -5.02082 0.457466
v 3.86313 -4.9913 0.500318
v 3.85936 4.94954 0.126334
v 2.74581 4.89337 0.273144
v 1.62896 4.85411 0.360288
v 0.51218 4.82363 0.398996
v -0.607083 4.82058 0.451824
v -1.72624 4.80608 0.411712
v -2.83615 4.80962 0.575964
v -3.93051 4.89805 0.323168
v -4.99991 3.90791 0.0714387
v -5.0012 2.795 0.138277
v -5.00921 1.68235 0.198265
v -5.02302 0.568878 0.234097
v -5.02719 -0.543717 0.301153
v -5.02998 -1.65471 0.370821
v -5.03215 -2.76574 0.445643
v -5.03742 -3.87338 0.535692
v 4.96086 -3.88104 0.297502
v 4.95709 -2.76898 0.317127
v 4.95529 -1.65577 0.275163
v 4.9538 -0.545341 0.22742
v 4.95304 0.56725 0.206484
v 4.95543 1.68072 0.181919
v 4.95992 2.79496 0.150206
v 4.9656 3.90733 0.0702211
v -3.88004 -3.87124 0.33532
v -3.8414 -3.22337 0.280154
v -3.6918 -1.93519 0.235793
v -4.14312 -0.280114 0.196076
v -4.16286 0.737313 0.215295
v -4.15014 1.52174 0.154462
v -4.08013 2.81309 0.0645114
v -3.93194 3.89379 -0.064406
v -2.7529 -4.02434 0.277109
v -2.8243 -2.75432 0.29769
v -2.70204 -2.16392 0.286891
v -2.77962 -0.619079 0.319261
v -2.80648 0.509128 0.249024
v -2.73171 1.54628 0.0952365
v -2.85277 2.87949 -0.0871079
v -2.7623 3.54612 0.118776
v -1.69354 -4.2389 0.335716
v -1.5309 -2.933 0.394383
v -1.92221 -1.64442 0.41549
v -1.90481 -0.853178 0.371372
v -1.54987 0.621255 0.124628
v -2.00099 1.6684 -0.0504733
v -1.72867 2.69772 0.120212
v -1.59071 3.66224 0.433626
v -0.274373 -4.31079 0.384306
v -0.619399 -2.8934 0.428172
v -0.578502 -1.75067 0.489034
v -0.868504 -0.783831 0.332866
v -0.629257 0.422713 0.17409
v -0.386994 1.44382 0.175877
v -0.574664 2.61398 0.20965
v -0.767931 3.47962 0.394671
v 0.695574 -3.89412 0.403604
v 0.777228 -2.60589 0.511415
v 0.493377 -1.81686 0.464402
v 0.584028 -0.487885 0.326087
v 0.561579 0.405582 0.271125
v 0.280868 1.49312 0.283628
v 0.516365 2.45852 0.265853
v 0.532065 3.73114 0.417496
v 1.90433 -3.6411 0.443514
v 1.62295 -2.83575 0.326732
v 1.79235 -1.91853 0.456632
v 1.95231 -0.399538 0.237841
v 1.93821 0.259493 0.0445588
v 1.81245 1.52145 0.17851
v 1.40184 2.79364 0.244294
v 1.47227 3.63706 0.384523
v 2.74455 -3.9055 0.417845
v 3.04996 -2.82938 0.324219
v 2.90386 -1.95174 0.236834
v 2.68332 -0.491388 0.344057
v 2.92213 0.300256 0.258486
v 3.04742 1.5646 -0.0461642
v 2.74893 3.13307 0.00844162
v 2.73258 3.48149 0.14542
v 3.86308 -3.96246 0.3018
v 3.61295 -2.70701 0.333291
v 3.82816 -1.67016 0.288902
v 3.76809 -0.715151 0.280314
v 3.83491 0.295225 0.306373
v 4.13733 1.80653 0.159629
v 4.1259 2.75597 -0.0195507
v 4.01661 3.88253 -0.0626396
vt 0.0001 0.0001
vt 0.9999 0.0001
vt 0.0001 0.9999
vt 0.9999 0.9999
vt 0.111189 0.0001
vt 0.222278 0.0001
vt 0.333367 0.0001
vt 0.444455 0.0001
vt 0.555544 0.0001
vt 0.666633 0.0001
vt 0.777722 0.0001
vt 0.888811 0.0001
vt 0.888811 0.9999
vt 0.777722 0.9999
vt 0.666633 0.9999
vt 0.555544 0.9999
vt 0.444455 0.9999
vt 0.333367 0.9999
vt 0.222278 0.9999
vt 0.111189 0.9999
vt 0.0001 0.888811
vt 0.0001 0.777722
vt 0.0001 0.666633
vt 0.0001 0.555544
vt 0.0001 0.444456
vt 0.0001 0.333367
vt 0.0001 0.222278
vt 0.0001 0.111189
vt 0.9999 0.111189
vt 0.9999 0.222278
vt 0.9999 0.333367
vt 0.9999 0.444456
vt 0.9999 0.555544
vt 0.9999 0.666633
vt 0.9999 0.777722
vt 0.9999 0.888811
vt 0.11727 0.115399
vt 0.120778 0.180369
vt 0.134636 0.309595
vt 0.088728 0.473895
vt 0.085886 0.575352
vt 0.086211 0.65375
vt 0.092207 0.78313
vt 0.106956 0.892282
vt 0.22987 0.102869
vt 0.221803 0.229552
vt 0.233521 0.288953
vt 0.225541 0.443179
vt 0.221596 0.556167
vt 0.227801 0.661237
vt 0.214896 0.795203
vt 0.22542 0.865181
vt 0.335524 0.082127
vt 0.351143 0.213907
vt 0.311934 0.342467
vt 0.313159 0.422214
vt 0.347791 0.572605
vt 0.301482 0.677733
vt 0.329031 0.783086
vt 0.344903 0.885466
vt 0.476837 0.074882
vt 0.441952 0.218774
vt 0.445749 0.333088
vt 0.416414 0.43099
vt 0.439746 0.552976
vt 0.463203 0.656843
vt 0.444252 0.77653
vt 0.426137 0.866051
vt 0.573419 0.117409
vt 0.581125 0.246686
vt 0.552512 0.326
vt 0.561075 0.459693
vt 0.558356 0.550596
vt 0.530299 0.662189
vt 0.553275 0.760113
vt 0.555478 0.888821
vt 0.694433 0.13996
vt 0.667048 0.221666
vt 0.681985 0.314267
vt 0.698218 0.467249
vt 0.696819 0.535952
vt 0.68253 0.662758
vt 0.642062 0.791726
vt 0.648523 0.877957
vt 0.778029 0.111667
vt 0.809426 0.219523
vt 0.794923 0.307783
vt 0.772028 0.454562
vt 0.796846 0.533374
vt 0.807262 0.663157
vt 0.778581 0.821037
vt 0.775122 0.858219
vt 0.890224 0.104741
vt 0.865679 0.23076
vt 0.887326 0.334104
vt 0.881307 0.429754
vt 0.887973 0.53063
vt 0.918106 0.681428
vt 0.915043 0.778027
vt 0.904815 0.89094
vn 0.00694453 0.0190976 0.999794
vn 0.0330664 0.149716 0.988176
vn -0.0913614 -0.147578 0.984822
vn -0.0120847 -0.0483598 0.998757
vn 0.0823015 0.125605 0.988661
vn 0.0324771 0.184033 0.982383
vn -0.0039209 0.174948 0.98457
vn 0.00253238 0.14734 0.989083
vn -0.00252239 0.0635054 0.997978
vn -0.00522442 0.0210047 0.999766
vn 0.0192822 0.0873507 0.995991
vn 0.0137238 0.189442 0.981796
vn 0.126452 -0.154893 0.979805
vn 0.144321 -0.0811834 0.986195
vn 0.0558404 0.0126911 0.998359
vn 0.0393687 0.0169514 0.999081
vn 0.00960925 -0.0139539 0.999856
vn 0.0554364 0.0256912 0.998132
vn -0.140685 -0.257003 0.956116
vn -0.269512 -0.34639 0.898542
vn 0.110754 0.0737874 0.991105
vn 0.0786032 0.0563893 0.99531
vn 0.0556062 0.0568052 0.996836
vn 0.0471728 0.0243847 0.998589
vn 0.0999258 0.0607539 0.993138
vn 0.108336 0.0609259 0.992246
vn 0.141792 0.0543544 0.988403
vn 0.128419 0.0868422 0.98791
vn 0.000478736 0.0462761 0.998929
vn 0.0104399 0.00927109 0.999902
vn 0.020718 0.0301427 0.999331
vn 0.0572012 0.0109435 0.998303
vn 0.0431576 0.0412975 0.998214
vn -0.0233365 0.025318 0.999407
vn -0.143908 0.0935268 0.985161
vn -0.16055 0.0523253 0.98564
vn 0.109656 0.139569 0.984122
vn 0.0835203 0.0456327 0.995461
vn 0.0204269 0.0257875 0.999459
vn 0.0205874 0.0283104 0.999387
vn 0.0197466 0.0490289 0.998602
vn 0.0522043 0.0714827 0.996075
vn 0.0883295 0.0847796 0.992477
vn -0.0947951 -0.153496 0.983592
vn -0.00444017 0.0647017 0.997895
vn -0.0474299 0.0123213 0.998799
vn -0.0888276 -0.00924235 0.996004
vn -0.0757623 0.0209265 0.996906
vn 0.0273331 0.10385 0.994217
vn 0.0896492 0.119708 0.988753
vn -0.0409452 -0.0404564 0.998342
vn -0.224271 -0.296049 0.92847
vn -0.0263627 0.0824414 0.996247
vn -0.0663624 -0.0293995 0.997362
vn -0.0639259 0.0237517 0.997672
vn 0.0113865 0.0954289 0.995371
vn -0.00139707 0.126987 0.991903
vn -0.0191304 0.0420101 0.998934
vn -0.140592 -0.220721 0.965151
vn -0.0531572 -0.156279 0.986282
vn -0.012977 0.0465869 0.99883
vn -0.0288879 -0.0376872 0.998872
vn -0.0187651 0.0436354 0.998871
vn -0.00938702 0.130535 0.991399
vn -0.0705485 0.0574731 0.995851
vn -0.117255 0.0212707 0.992874
vn -0.0713184 -0.130414 0.988891
vn -0.0130612 -0.166357 0.985979
vn -0.000356174 0.000210417 1
vn 0.0516656 -0.0492452 0.99745
vn 0.00138741 0.0499126 0.998753
vn 0.0227321 0.12976 0.991285
vn 0.0459003 0.00167486 0.998945
vn -0.0542872 0.014069 0.998426
vn -0.0186188 -0.0424732 0.998924
vn 0.0166526 -0.0877692 0.996002
vn -0.00188971 0.0708613 0.997484
vn 0.0819539 -0.0113465 0.996572
vn 0.0727508 0.0107488 0.997292
vn -0.0322732 0.21391 0.97632
vn 0.0015469 0.12715 0.991882
vn 0.12316 -0.0289549 0.991964
vn 0.10268 -0.0998529 0.98969
vn 0.099045 -0.108018 0.989203
vn 0.0581041 0.0401582 0.997502
vn 0.0191767 0.0730244 0.997146
vn 0.037082 -0.00362224 0.999306
vn -0.0219991 0.0977352 0.994969
vn -0.0926695 0.145469 0.985013
vn -0.0477969 0.0998629 0.993853
vn 0.144027 -0.125751 0.981551
vn 0.188565 -0.222614 0.956497
vn 0.0301399 0.0644531 0.997465
vn -0.0191072 0.0282183 0.999419
vn -0.0188136 0.0301481 0.999368
vn 0.0156714 0.00356889 0.999871
vn -0.0190652 0.0716238 0.99725
vn -0.10356 0.105507 0.989011
vn -0.121596 0.0776248 0.98954
vn 0.0649772 -0.0898843 0.99383
f 100/100/100 4/4/4 13/13/13
f 44/44/44 3/3/3 21/21/21
f 44/44/44 19/19/19 20/20/20
f 60/60/60 19/19/19 52/52/52
f 60/60/60 17/17/17 18/18/18
f 76/76/76 17/17/17 68/68/68
f 84/84/84 16/16/16 76/76/76
f 84/84/84 14/14/14 15/15/15
f 100/100/100 14/14/14 92/92/92
f 11/11/11 93/93/93 85/85/85
f 93/93/93 86/86/86 85/85/85
f 94/94/94 87/87/87 86/86/86
f 87/87/87 96/96/96 88/88/88
f 96/96/96 89/89/89 88/88/88
f 97/97/97 90/90/90 89/89/89
f 90/90/90 99/99/99 91/91/91
f 91/91/91 100/100/100 92/92/92
f 10/10/10 85/85/85 77/77/77
f 77/77/77 86/86/86 78/78/78
f 78/78/78 87/87/87 79/79/79
f 79/79/79 88/88/88 80/80/80
f 88/88/88 81/81/81 80/80/80
f 81/81/81 90/90/90 82/82/82
f 82/82/82 91/91/91 83/83/83
f 91/91/91 84/84/84 83/83/83
f 10/10/10 69/69/69 9/9/9
f 69/69/69 78/78/78 70/70/70
f 70/70/70 79/79/79 71/71/71
f 79/79/79 72/72/72 71/71/71
f 72/72/72 81/81/81 73/73/73
f 73/73/73 82/82/82 74/74/74
f 82/82/82 75/75/75 74/74/74
f 83/83/83 76/76/76 75/75/75
f 9/9/9 61/61/61 8/8/8
f 69/69/69 62/62/62 61/61/61
f 62/62/62 71/71/71 63/63/63
f 63/63/63 72/72/72 64/64/64
f 72/72/72 65/65/65 64/64/64
f 65/65/65 74/74/74 66/66/66
f 66/66/66 75/75/75 67/67/67
f 67/67/67 76/76/76 68/68/68
f 8/8/8 53/53/53 7/7/7
f 53/53/53 62/62/62 54/54/54
f 54/54/54 63/63/63 55/55/55
f 55/55/55 64/64/64 56/56/56
f 64/64/64 57/57/57 56/56/56
f 57/57/57 66/66/66 58/58/58
f 58/58/58 67/67/67 59/59/59
f 59/59/59 68/68/68 60/60/60
f 6/6/6 53/53/53 45/45/45
f 45/45/45 54/54/54 46/46/46
f 54/54/54 47/47/47 46/46/46
f 55/55/55 48/48/48 47/47/47
f 56/56/56 49/49/49 48/48/48
f 49/49/49 58/58/58 50/50/50
f 58/58/58 51/51/51 50/50/50
f 59/59/59 52/52/52 51/51/51
f 6/6/6 37/37/37 5/5/5
f 45/45/45 38/38/38 37/37/37
f 46/46/46 39/39/39 38/38/38
f 39/39/39 48/48/48 40/40/40
f 40/40/40 49/49/49 41/41/41
f 41/41/41 50/50/50 42/42/42
f 50/50/50 43/43/43 42/42/42
f 51/51/51 44/44/44 43/43/43
f 5/5/5 28/28/28 1/1/1
f 28/28/28 38/38/38 27/27/27
f 27/27/27 39/39/39 26/26/26
f 26/26/26 40/40/40 25/25/25
f 40/40/40 24/24/24 25/25/25
f 41/41/41 23/23/23 24/24/24
f 23/23/23 43/43/43 22/22/22
f 43/43/43 21/21/21 22/22/22
f 2/2/2 93/93/93 12/12/12
f 93/93/93 30/30/30 94/94/94
f 30/30/30 95/95/95 94/94/94
f 31/31/31 96/96/96 95/95/95
f 32/32/32 97/97/97 96/96/96
f 33/33/33 98/98/98 97/97/97
f 98/98/98 35/35/35 99/99/99
f 99/99/99 36/36/36 100/100/100
f 100/100/100 36/36/36 4/4/4
f 44/44/44 20/20/20 3/3/3
f 44/44/44 52/52/52 19/19/19
f 60/60/60 18/18/18 19/19/19
f 60/60/60 68/68/68 17/17/17
f 76/76/76 16/16/16 17/17/17
f 84/84/84 15/15/15 16/16/16
f 84/84/84 92/92/92 14/14/14
f 100/100/100 13/13/13 14/14/14
f 11/11/11 12/12/12 93/93/93
f 93/93/93 94/94/94 86/86/86
f 94/94/94 95/95/95 87/87/87
f 87/87/87 95/95/95 96/96/96
f 96/96/96 97/97/97 89/89/89
f 97/97/97 98/98/98 90/90/90
f 90/90/90 98/98/98 99/99/99
f 91/91/91 99/99/99 100/100/100
f 10/10/10 11/11/11 85/85/85
f 77/77/77 85/85/85 86/86/86
f 78/78/78 86/86/86 87/87/87
f 79/79/79 87/87/87 88/88/88
f 88/88/88 89/89/89 81/81/81
f 81/81/81 89/89/89 90/90/90
f 82/82/82 90/90/90 91/91/91
f 91/91/91 92/92/92 84/84/84
f 10/10/10 77/77/77 69/69/69
f 69/69/69 77/77/77 78/78/78
f 70/70/70 78/78/78 79/79/79
f 79/79/79 80/80/80 72/72/72
f 72/72/72 80/80/80 81/81/81
f 73/73/73 81/81/81 82/82/82
f 82/82/82 83/83/83 75/75/75
f 83/83/83 84/84/84 76/76/76
f 9/9/9 69/69/69 61/61/61
f 69/69/69 70/70/70 62/62/62
f 62/62/62 70/70/70 71/71/71
f 63/63/63 71/71/71 72/72/72
f 72/72/72 73/73/73 65/65/65
f 65/65/65 73/73/73 74/74/74
f 66/66/66 74/74/74 75/75/75
f 67/67/67 75/75/75 76/76/76
f 8/8/8 61/61/61 53/53/53
f 53/53/53 61/61/61 62/62/62
f 54/54/54 62/62/62 63/63/63
f 55/55/55 63/63/63 64/64/64
f 64/64/64 65/65/65 57/57/57
f 57/57/57 65/65/65 66/66/66
f 58/58/58 66/66/66 67/67/67
f 59/59/59 67/67/67 68/68/68
f 6/6/6 7/7/7 53/53/53
f 45/45/45 53/53/53 54/54/54
f 54/54/54 55/55/55 47/47/47
f 55/55/55 56/56/56 48/48/48
f 56/56/56 57/57/57 49/49/49
f 49/49/49 57/57/57 58/58/58
f 58/58/58 59/59/59 51/51/51
f 59/59/59 60/60/60 52/52/52
f 6/6/6 45/45/45 37/37/37
f 45/45/45 46/46/46 38/38/38
f 46/46/46 47/47/47 39/39/39
f 39/39/39 47/47/47 48/48/48
f 40/40/40 48/48/48 49/49/49
f 41/41/41 49/49/49 50/50/50
f 50/50/50 51/51/51 43/43/43
f 51/51/51 52/52/52 44/44/44
f 5/5/5 37/37/37 28/28/28
f 28/28/28 37/37/37 38/38/38
f 27/27/27 38/38/38 39/39/39
f 26/26/26 39/39/39 40/40/40
f 40/40/40 41/41/41 24/24/24
f 41/41/41 42/42/42 23/23/23
f 23/23/23 42/42/42 43/43/43
f 43/43/43 44/44/44 21/21/21
f 2/2/2 29/29/29 93/93/93
f 93/93/93 29/29/29 30/30/30
f 30/30/30 31/31/31 95/95/95
f 31/31/31 32/32/32 96/96/96
f 32/32/32 33/33/33 97/97/97
f 33/33/33 34/34/34 98/98/98
f 98/98/98 34/34/34 35/35/35
f 99/99/99 35/35/35 36/36/36
