o GNATVCloth
v -5.0532 -4.97415 0.559535
v 4.97459 -4.98392 0.416926
v -5.01298 5.02105 0.004229
v 4.98702 5.02105 0.004229
v -3.93973 -5.00836 0.550429
v -2.82874 -5.03535 0.475707
v -1.71154 -5.03601 0.479453
v -0.594023 -5.04336 0.488541
v 0.524596 -5.04907 0.444667
v 1.64427 -5.04461 0.459976
v 2.75743 -5.02463 0.458254
v 3.86814 -4.99215 0.501707
v 3.86016 4.94717 0.126341
v 2.74765 4.88963 0.274415
v 1.63097 4.85718 0.357702
v 0.516092 4.82075 0.390507
v -0.602246 4.8181 0.451051
v -1.722 4.80385 0.436049
v -2.83568 4.81037 0.571584
v -3.93108 4.89418 0.325062
v -5.00121 3.90712 0.0709341
v -5.00298 2.79355 0.138621
v -5.0094 1.68021 0.202018
v -5.0217 0.566109 0.238579
v -5.02626 -0.545547 0.304621
v -5.02952 -1.65679 0.371769
v -5.03255 -2.76737 0.44281
v -5.03539 -3.87521 0.533915
v 4.96419 -3.88215 0.294822
v 4.9601 -2.77083 0.317762
v 4.95802 -1.65749 0.273998
v 4.95639 -0.546394 0.226492
v 4.95668 0.566635 0.207128
v 4.95841 1.68028 0.18101
v 4.96259 2.79462 0.147722
v 4.96628 3.90727 0.0709658
v -3.87937 -3.87601 0.330231
v -3.84034 -3.22731 0.27944
v -3.69044 -1.93765 0.237978
v -4.1428 -0.280008 0.197854
v -4.16302 0.736916 0.21489
v -4.1508 1.51938 0.15331
v -4.08284 2.80807 0.0612539
v -3.93264 3.8891 -0.0606813
v -2.75101 -4.02688 0.277879
v -2.82334 -2.75851 0.303736
v -2.70095 -2.16668 0.286937
v -2.77866 -0.624493 0.317066
v -2.80641 0.503983 0.241195
v -2.73224 1.54311 0.0883142
v -2.85372 2.87574 -0.0787699
v -2.75874 3.54938 0.108288
v -1.69076 -4.244 0.33425
v -1.52963 -2.93697 0.39503
v -1.92077 -1.65024 0.412295
v -1.90308 -0.85419 0.368828
v -1.54783 0.61748 0.124809
v -2.00013 1.66487 -0.0508822
v -1.72577 2.69815 0.113597
v -1.59045 3.66157 0.44048
v -0.270205 -4.31851 0.385024
v -0.617767 -2.895 0.43204
v -0.577071 -1.75535 0.489635
v -0.865919 -0.790007 0.332881
v -0.625522 0.418374 0.170676
v -0.384315 1.4375 0.169987
v -0.574021 2.6078 0.200723
v -0.767629 3.48004 0.399864
v 0.699448 -3.89902 0.405666
v 0.779723 -2.61005 0.517381
v 0.496188 -1.82255 0.468486
v 0.58763 -0.495134 0.320937
v 0.565672 0.399765 0.266804
v 0.284467 1.49046 0.27282
v 0.518564 2.44918 0.25675
v 0.533217 3.7277 0.413855
v 1.90809 -3.64026 0.439666
v 1.62526 -2.83742 0.327014
v 1.79557 -1.92239 0.459787
v 1.95586 -0.405783 0.221193
v 1.94126 0.256459 0.0386693
v 1.81654 1.51487 0.170133
v 1.40385 2.78687 0.236444
v 1.47301 3.63826 0.384673
v 2.74898 -3.90856 0.415802
v 3.05316 -2.82899 0.322619
v 2.90654 -1.95425 0.238384
v 2.68606 -0.493661 0.343041
v 2.92489 0.299229 0.256757
v 3.05117 1.56261 -0.0528979
v 2.74996 3.131 0.00200852
v 2.7322 3.47817 0.136595
v 3.86687 -3.96422 0.299076
v 3.61559 -2.70845 0.332057
v 3.83118 -1.67431 0.288664
v 3.77055 -0.718905 0.282409
v 3.83826 0.293865 0.303761
v 4.14008 1.80483 0.158055
v 4.12762 2.75651 -0.0195291
v 4.01759 3.88178 -0.0626573
vt 0.0001 0.0001
vt 0.9999 0.0001
vt 0.0001 0.9999
vt 0.9999 0.9999
vt 0.111189 0.0001
vt 0.222278 0.0001
vt 0.333367 0.0001
vt 0.444455 0.0001
vt 0.555544 0.0001
vt 0.666633 0.0001
vt 0.777722 0.0001
vt 0.888811 0.0001
vt 0.888811 0.9999
vt 0.777722 0.9999
vt 0.666633 0.9999
vt 0.555544 0.9999
vt 0.444455 0.9999
vt 0.333367 0.9999
vt 0.222278 0.9999
vt 0.111189 0.9999
vt 0.0001 0.888811
vt 0.0001 0.777722
vt 0.0001 0.666633
vt 0.0001 0.555544
vt 0.0001 0.444456
vt 0.0001 0.333367
vt 0.0001 0.222278
vt 0.0001 0.111189
vt 0.9999 0.111189
vt 0.9999 0.222278
vt 0.9999 0.333367
vt 0.9999 0.444456
vt 0.9999 0.555544
vt 0.9999 0.666633
vt 0.9999 0.777722
vt 0.9999 0.888811
vt 0.11727 0.115399
vt 0.120778 0.180369
vt 0.134636 0.309595
vt 0.088728 0.473895
vt 0.085886 0.575352
vt 0.086211 0.65375
vt 0.092207 0.78313
vt 0.106956 0.892282
vt 0.22987 0.102869
vt 0.221803 0.229552
vt 0.233521 0.288953
vt 0.225541 0.443179
vt 0.221596 0.556167
vt 0.227801 0.661237
vt 0.214896 0.795203
vt 0.22542 0.865181
vt 0.335524 0.082127
vt 0.351143 0.213907
vt 0.311934 0.342467
vt 0.313159 0.422214
vt 0.347791 0.572605
vt 0.301482 0.677733
vt 0.329031 0.783086
vt 0.344903 0.885466
vt 0.476837 0.074882
vt 0.441952 0.218774
vt 0.445749 0.333088
vt 0.416414 0.43099
vt 0.439746 0.552976
vt 0.463203 0.656843
vt 0.444252 0.77653
vt 0.426137 0.866051
vt 0.573419 0.117409
vt 0.581125 0.246686
vt 0.552512 0.326
vt 0.561075 0.459693
vt 0.558356 0.550596
vt 0.530299 0.662189
vt 0.553275 0.760113
vt 0.555478 0.888821
vt 0.694433 0.13996
vt 0.667048 0.221666
vt 0.681985 0.314267
vt 0.698218 0.467249
vt 0.696819 0.535952
vt 0.68253 0.662758
vt 0.642062 0.791726
vt 0.648523 0.877957
vt 0.778029 0.111667
vt 0.809426 0.219523
vt 0.794923 0.307783
vt 0.772028 0.454562
vt 0.796846 0.533374
vt 0.807262 0.663157
vt 0.778581 0.821037
vt 0.775122 0.858219
vt 0.890224 0.104741
vt 0.865679 0.23076
vt 0.887326 0.334104
vt 0.881307 0.429754
vt 0.887973 0.53063
vt 0.918106 0.681428
vt 0.915043 0.778027
vt 0.904815 0.89094
vn 0.00888734 0.0231622 0.999692
vn 0.0346342 0.151789 0.987806
vn -0.094668 -0.146815 0.984623
vn -0.0123179 -0.0481556 0.998764
vn 0.083819 0.130424 0.987909
vn 0.0313083 0.186998 0.981861
vn -0.00500141 0.180454 0.983571
vn 0.00181478 0.152666 0.988276
vn -0.00424488 0.0666356 0.997768
vn -0.00358662 0.0258019 0.999661
vn 0.0209453 0.0903483 0.99569
vn 0.014796 0.193401 0.981008
vn 0.127365 -0.154972 0.979674
vn 0.144125 -0.0841785 0.985973
vn 0.0514226 0.0154306 0.998558
vn 0.0386381 0.0208053 0.999037
vn 0.0192104 -0.0141084 0.999716
vn 0.053857 0.0100758 0.998498
vn -0.145381 -0.263216 0.95372
vn -0.267638 -0.34488 0.899682
vn 0.109696 0.071773 0.99137
vn 0.082731 0.0582565 0.994868
vn 0.0609839 0.0583632 0.996431
vn 0.0514834 0.0250293 0.99836
vn 0.102231 0.0591376 0.993001
vn 0.108301 0.0590048 0.992366
vn 0.139951 0.053 0.988739
vn 0.130189 0.0877083 0.987602
vn 0.000518351 0.0448426 0.998994
vn 0.00995049 0.00841836 0.999915
vn 0.0220632 0.029808 0.999312
vn 0.0578182 0.0118804 0.998256
vn 0.0411118 0.0412479 0.998303
vn -0.0239681 0.0267081 0.999356
vn -0.141945 0.0922385 0.985568
vn -0.160042 0.0514204 0.98577
vn 0.108533 0.139208 0.984298
vn 0.0806271 0.0422721 0.995848
vn 0.0202563 0.0264671 0.999444
vn 0.0237939 0.0293529 0.999286
vn 0.0251325 0.0499781 0.998434
vn 0.0572096 0.0727951 0.995705
vn 0.0878679 0.0824713 0.992712
vn -0.0917248 -0.151614 0.984175
vn -0.00583521 0.0620919 0.998053
vn -0.0468699 0.0139283 0.998804
vn -0.0854757 -0.0043283 0.996331
vn -0.0733628 0.0230846 0.997038
vn 0.026726 0.10503 0.99411
vn 0.0879299 0.115989 0.989351
vn -0.0363718 -0.036079 0.998687
vn -0.219971 -0.290262 0.931322
vn -0.0269232 0.0840581 0.996097
vn -0.0659525 -0.0279397 0.997432
vn -0.0644471 0.0245507 0.997619
vn 0.00958833 0.0957521 0.995359
vn -0.00169974 0.127317 0.991861
vn -0.0188807 0.0419796 0.99894
vn -0.137597 -0.22108 0.9655
vn -0.0577205 -0.165522 0.984515
vn -0.0141326 0.0481991 0.998738
vn -0.031004 -0.0378754 0.998801
vn -0.0207128 0.0464373 0.998706
vn -0.00868014 0.131081 0.991334
vn -0.0670996 0.0592991 0.995983
vn -0.112776 0.0223208 0.99337
vn -0.0691784 -0.133374 0.988649
vn -0.00979046 -0.172544 0.984953
vn 0.000768116 0.000238976 1
vn 0.0535864 -0.0504132 0.99729
vn 0.000243808 0.0542189 0.998529
vn 0.025627 0.131251 0.991018
vn 0.0464107 0.00397332 0.998915
vn -0.0518823 0.0156184 0.998531
vn -0.017808 -0.0441367 0.998867
vn 0.0185742 -0.0898115 0.995786
vn -0.000338717 0.0722884 0.997384
vn 0.0853218 -0.0149478 0.996241
vn 0.0726102 0.015097 0.997246
vn -0.0391772 0.212431 0.97639
vn -0.00170396 0.123533 0.992339
vn 0.122354 -0.0280692 0.99209
vn 0.101878 -0.103647 0.989383
vn 0.0986141 -0.108928 0.989146
vn 0.0591028 0.0425471 0.997345
vn 0.0193165 0.0709548 0.997292
vn 0.0380742 -0.00510114 0.999262
vn -0.0307572 0.0984439 0.994667
vn -0.0944702 0.148664 0.984365
vn -0.0505956 0.100722 0.993627
vn 0.142417 -0.12558 0.981808
vn 0.188596 -0.223559 0.95627
vn 0.0303444 0.0649851 0.997425
vn -0.0192294 0.0266526 0.99946
vn -0.0177652 0.0291626 0.999417
vn 0.0162245 0.00458744 0.999858
vn -0.0200846 0.0735688 0.997088
vn -0.105201 0.105234 0.988867
vn -0.122972 0.0760545 0.989492
vn 0.0626544 -0.0902898 0.993943
f 100/100/100 4/4/4 13/13/13
f 44/44/44 3/3/3 21/21/21
f 44/44/44 19/19/19 20/20/20
f 60/60/60 19/19/19 52/52/52
f 60/60/60 17/17/17 18/18/18
f 76/76/76 17/17/17 68/68/68
f 84/84/84 16/16/16 76/76/76
f 84/84/84 14/14/14 15/15/15
f 100/100/100 14/14/14 92/92/92
f 11/11/11 93/93/93 85/85/85
f 93/93/93 86/86/86 85/85/85
f 94/94/94 87/87/87 86/86/86
f 87/87/87 96/96/96 88/88/88
f 96/96/96 89/89/89 88/88/88
f 97/97/97 90/90/90 89/89/89
f 90/90/90 99/99/99 91/91/91
f 91/91/91 100/100/100 92/92/92
f 10/10/10 85/85/85 77/77/77
f 77/77/77 86/86/86 78/78/78
f 78/78/78 87/87/87 79/79/79
f 79/79/79 88/88/88 80/80/80
f 88/88/88 81/81/81 80/80/80
f 81/81/81 90/90/90 82/82/82
f 82/82/82 91/91/91 83/83/83
f 91/91/91 84/84/84 83/83/83
f 10/10/10 69/69/69 9/9/9
f 69/69/69 78/78/78 70/70/70
f 70/70/70 79/79/79 71/71/71
f 79/79/79 72/72/72 71/71/71
f 72/72/72 81/81/81 73/73/73
f 73/73/73 82/82/82 74/74/74
f 82/82/82 75/75/75 74/74/74
f 83/83/83 76/76/76 75/75/75
f 9/9/9 61/61/61 8/8/8
f 69/69/69 62/62/62 61/61/61
f 62/62/62 71/71/71 63/63/63
f 63/63/63 72/72/72 64/64/64
f 72/72/72 65/65/65 64/64/64
f 65/65/65 74/74/74 66/66/66
f 66/66/66 75/75/75 67/67/67
f 67/67/67 76/76/76 68/68/68
f 8/8/8 53/53/53 7/7/7
f 53/53/53 62/62/62 54/54/54
f 54/54/54 63/63/63 55/55/55
f 55/55/55 64/64/64 56/56/56
f 64/64/64 57/57/57 56/56/56
f 57/57/57 66/66/66 58/58/58
f 58/58/58 67/67/67 59/59/59
f 59/59/59 68/68/68 60/60/60
f 6/6/6 53/53/53 45/45/45
f 45/45/45 54/54/54 46/46/46
f 54/54/54 47/47/47 46/46/46
f 55/55/55 48/48/48 47/47/47
f 56/56/56 49/49/49 48/48/48
f 49/49/49 58/58/58 50/50/50
f 58/58/58 51/51/51 50/50/50
f 59/59/59 52/52/52 51/51/51
f 6/6/6 37/37/37 5/5/5
f 45/45/45 38/38/38 37/37/37
f 46/46/46 39/39/39 38/38/38
f 39/39/39 48/48/48 40/40/40
f 40/40/40 49/49/49 41/41/41
f 41/41/41 50/50/50 42/42/42
f 50/50/50 43/43/43 42/42/42
f 51/51/51 44/44/44 43/43/43
f 5/5/5 28/28/28 1/1/1
f 28/28/28 38/38/38 27/27/27
f 27/27/27 39/39/39 26/26/26
f 26/26/26 40/40/40 25/25/25
f 40/40/40 24/24/24 25/25/25
f 41/41/41 23/23/23 24/24/24
f 23/23/23 43/43/43 22/22/22
f 43/43/43 21/21/21 22/22/22
f 2/2/2 93/93/93 12/12/12
f 93/93/93 30/30/30 94/94/94
f 30/30/30 95/95/95 94/94/94
f 31/31/31 96/96/96 95/95/95
f 32/32/32 97/97/97 96/96/96
f 33/33/33 98/98/98 97/97/97
f 98/98/98 35/35/35 99/99/99
f 99/99/99 36/36/36 100/100/100
f 100/100/100 36/36/36 4/4/4
f 44/44/44 20/20/20 3/3/3
f 44/44/44 52/52/52 19/19/19
f 60/60/60 18/18/18 19/19/19
f 60/60/60 68/68/68 17/17/17
f 76/76/76 16/16/16 17/17/17
f 84/84/84 15/15/15 16/16/16
f 84/84/84 92/92/92 14/14/14
f 100/100/100 13/13/13 14/14/14
f 11/11/11 12/12/12 93/93/93
f 93/93/93 94/94/94 86/86/86
f 94/94/94 95/95/95 87/87/87
f 87/87/87 95/95/95 96/96/96
f 96/96/96 97/97/97 89/89/89
f 97/97/97 98/98/98 90/90/90
f 90/90/90 98/98/98 99/99/99
f 91/91/91 99/99/99 100/100/100
f 10/10/10 11/11/11 85/85/85
f 77/77/77 85/85/85 86/86/86
f 78/78/78 86/86/86 87/87/87
f 79/79/79 87/87/87 88/88/88
f 88/88/88 89/89/89 81/81/81
f 81/81/81 89/89/89 90/90/90
f 82/82/82 90/90/90 91/91/91
f 91/91/91 92/92/92 84/84/84
f 10/10/10 77/77/77 69/69/69
f 69/69/69 77/77/77 78/78/78
f 70/70/70 78/78/78 79/79/79
f 79/79/79 80/80/80 72/72/72
f 72/72/72 80/80/80 81/81/81
f 73/73/73 81/81/81 82/82/82
f 82/82/82 83/83/83 75/75/75
f 83/83/83 84/84/84 76/76/76
f 9/9/9 69/69/69 61/61/61
f 69/69/69 70/70/70 62/62/62
f 62/62/62 70/70/70 71/71/71
f 63/63/63 71/71/71 72/72/72
f 72/72/72 73/73/73 65/65/65
f 65/65/65 73/73/73 74/74/74
f 66/66/66 74/74/74 75/75/75
f 67/67/67 75/75/75 76/76/76
f 8/8/8 61/61/61 53/53/53
f 53/53/53 61/61/61 62/62/62
f 54/54/54 62/62/62 63/63/63
f 55/55/55 63/63/63 64/64/64
f 64/64/64 65/65/65 57/57/57
f 57/57/57 65/65/65 66/66/66
f 58/58/58 66/66/66 67/67/67
f 59/59/59 67/67/67 68/68/68
f 6/6/6 7/7/7 53/53/53
f 45/45/45 53/53/53 54/54/54
f 54/54/54 55/55/55 47/47/47
f 55/55/55 56/56/56 48/48/48
f 56/56/56 57/57/57 49/49/49
f 49/49/49 57/57/57 58/58/58
f 58/58/58 59/59/59 51/51/51
f 59/59/59 60/60/60 52/52/52
f 6/6/6 45/45/45 37/37/37
f 45/45/45 46/46/46 38/38/38
f 46/46/46 47/47/47 39/39/39
f 39/39/39 47/47/47 48/48/48
f 40/40/40 48/48/48 49/49/49
f 41/41/41 49/49/49 50/50/50
f 50/50/50 51/51/51 43/43/43
f 51/51/51 52/52/52 44/44/44
f 5/5/5 37/37/37 28/28/28
f 28/28/28 37/37/37 38/38/38
f 27/27/27 38/38/38 39/39/39
f 26/26/26 39/39/39 40/40/40
f 40/40/40 41/41/41 24/24/24
f 41/41/41 42/42/42 23/23/23
f 23/23/23 42/42/42 43/43/43
f 43/43/43 44/44/44 21/21/21
f 2/2/2 29/29/29 93/93/93
f 93/93/93 29/29/29 30/30/30
f 30/30/30 31/31/31 95/95/95
f 31/31/31 32/32/32 96/96/96
f 32/32/32 33/33/33 97/97/97
f 33/33/33 34/34/34 98/98/98
f 98/98/98 34/34/34 35/35/35
f 99/99/99 35/35/35 36/36/36
