o GNATVCloth
v -4.90393 -5.00258 0.306503
v 5.17438 -4.99396 0.327135
v -5.01298 5.02105 0.004229
v 4.98702 5.02105 0.004229
v -3.79188 -5.02615 0.254446
v -2.67445 -5.05255 0.238279
v -1.55446 -5.0811 0.18687
v -0.430981 -5.10047 0.167053
v 0.696101 -5.10895 0.201162
v 1.82232 -5.096 0.181818
v 2.9455 -5.06561 0.186708
v 4.06386 -5.03137 0.246378
v 3.8603 4.93478 0.0556585
v 2.74954 4.85853 0.204207
v 1.63679 4.74616 0.265906
v 0.629776 4.70789 0.227983
v -0.483367 4.78171 0.212667
v -1.60206 4.84369 0.1697
v -2.73156 4.92353 0.140792
v -3.86761 4.96618 0.0891213
v -4.977 3.90491 0.0368755
v -4.96049 2.78861 0.070953
v -4.95085 1.67276 0.107958
v -4.93799 0.557374 0.139707
v -4.92336 -0.556277 0.195198
v -4.90823 -1.66868 0.248893
v -4.89597 -2.77973 0.279219
v -4.89161 -3.89323 0.280706
v 5.15487 -3.88714 0.248236
v 5.13729 -2.77378 0.2372
v 5.12039 -1.66141 0.226735
v 5.10501 -0.549512 0.180869
v 5.08755 0.562599 0.130125
v 5.06752 1.67668 0.0909894
v 5.04586 2.7912 0.054661
v 5.01778 3.90609 0.0287098
v -3.72071 -3.87748 0.208587
v -3.68697 -3.22839 0.203041
v -3.56014 -1.94099 0.150604
v -4.04071 -0.285294 0.155274
v -4.08114 0.731303 0.144378
v -4.08564 1.51894 0.121809
v -4.03775 2.81163 0.0814776
v -3.89965 3.89747 0.0203872
v -2.59056 -4.03042 0.174891
v -2.6765 -2.76018 0.150302
v -2.56428 -2.16935 0.119533
v -2.66537 -0.627245 0.20663
v -2.71872 0.502093 0.198027
v -2.66574 1.55254 0.158017
v -2.80446 2.8904 0.0805413
v -2.71264 3.58318 0.169842
v -1.52728 -4.26269 0.176784
v -1.37491 -2.94766 0.162975
v -1.78487 -1.65454 0.22048
v -1.78278 -0.857312 0.207821
v -1.45365 0.636924 0.143516
v -1.9283 1.69588 0.14667
v -1.6674 2.73799 0.185223
v -1.50864 3.73774 0.18447
v -0.102403 -4.35599 0.150592
v -0.461806 -2.91618 0.155853
v -0.436073 -1.77155 0.191449
v -0.745468 -0.788215 0.161325
v -0.527634 0.426282 0.160524
v -0.30557 1.45816 0.179097
v -0.510001 2.64964 0.184291
v -0.693633 3.51568 0.175365
v 0.86895 -3.93916 0.177805
v 0.936007 -2.64589 0.161646
v 0.639418 -1.85469 0.168952
v 0.705484 -0.519331 0.146742
v 0.663086 0.390727 0.172773
v 0.368541 1.50709 0.1834
v 0.590534 2.48202 0.179881
v 0.601526 3.69014 0.164653
v 2.0857 -3.69566 0.178952
v 1.80192 -2.88537 0.158171
v 1.94167 -1.95918 0.178429
v 2.08013 -0.426381 0.176723
v 2.05512 0.254072 0.149715
v 1.89382 1.51699 0.120585
v 1.48195 2.79074 0.208138
v 1.53873 3.57922 0.162593
v 2.931 -3.95332 0.167049
v 3.22972 -2.86884 0.221258
v 3.07551 -1.99471 0.125784
v 2.82208 -0.536763 0.210037
v 3.05772 0.257434 0.197129
v 3.14562 1.55535 0.136538
v 2.84138 3.11485 0.14914
v 2.79365 3.46864 0.210289
v 4.06062 -3.99005 0.163135
v 3.79232 -2.74068 0.230253
v 3.99327 -1.69934 0.211724
v 3.9211 -0.747497 0.159393
v 3.97097 0.265341 0.159033
v 4.25309 1.78532 0.131125
v 4.19946 2.75287 0.0978788
v 4.06822 3.87466 0.0624595
vt 0.0001 0.0001
vt 0.9999 0.0001
vt 0.0001 0.9999
vt 0.9999 0.9999
vt 0.111189 0.0001
vt 0.222278 0.0001
vt 0.333367 0.0001
vt 0.444455 0.0001
vt 0.555544 0.0001
vt 0.666633 0.0001
vt 0.777722 0.0001
vt 0.888811 0.0001
vt 0.888811 0.9999
vt 0.777722 0.9999
vt 0.666633 0.9999
vt 0.555544 0.9999
vt 0.444455 0.9999
vt 0.333367 0.9999
vt 0.222278 0.9999
vt 0.111189 0.9999
vt 0.0001 0.888811
vt 0.0001 0.777722
vt 0.0001 0.666633
vt 0.0001 0.555544
vt 0.0001 0.444456
vt 0.0001 0.333367
vt 0.0001 0.222278
vt 0.0001 0.111189
vt 0.9999 0.111189
vt 0.9999 0.222278
vt 0.9999 0.333367
vt 0.9999 0.444456
vt 0.9999 0.555544
vt 0.9999 0.666633
vt 0.9999 0.777722
vt 0.9999 0.888811
vt 0.11727 0.115399
vt 0.120778 0.180369
vt 0.134636 0.309595
vt 0.088728 0.473895
vt 0.085886 0.575352
vt 0.086211 0.65375
vt 0.092207 0.78313
vt 0.106956 0.892282
vt 0.22987 0.102869
vt 0.221803 0.229552
vt 0.233521 0.288953
vt 0.225541 0.443179
vt 0.221596 0.556167
vt 0.227801 0.661237
vt 0.214896 0.795203
vt 0.22542 0.865181
vt 0.335524 0.082127
vt 0.351143 0.213907
vt 0.311934 0.342467
vt 0.313159 0.422214
vt 0.347791 0.572605
vt 0.301482 0.677733
vt 0.329031 0.783086
vt 0.344903 0.885466
vt 0.476837 0.074882
vt 0.441952 0.218774
vt 0.445749 0.333088
vt 0.416414 0.43099
vt 0.439746 0.552976
vt 0.463203 0.656843
vt 0.444252 0.77653
vt 0.426137 0.866051
vt 0.573419 0.117409
vt 0.581125 0.246686
vt 0.552512 0.326
vt 0.561075 0.459693
vt 0.558356 0.550596
vt 0.530299 0.662189
vt 0.553275 0.760113
vt 0.555478 0.888821
vt 0.694433 0.13996
vt 0.667048 0.221666
vt 0.681985 0.314267
vt 0.698218 0.467249
vt 0.696819 0.535952
vt 0.68253 0.662758
vt 0.642062 0.791726
vt 0.648523 0.877957
vt 0.778029 0.111667
vt 0.809426 0.219523
vt 0.794923 0.307783
vt 0.772028 0.454562
vt 0.796846 0.533374
vt 0.807262 0.663157
vt 0.778581 0.821037
vt 0.775122 0.858219
vt 0.890224 0.104741
vt 0.865679 0.23076
vt 0.887326 0.334104
vt 0.881307 0.429754
vt 0.887973 0.53063
vt 0.918106 0.681428
vt 0.915043 0.778027
vt 0.904815 0.89094
vn 0.0472277 0.0226972 0.998626
vn -0.0793965 0.0743084 0.99407
vn -0.030671 -0.0160189 0.999401
vn 0.0395961 0.0190104 0.999035
vn 0.041194 0.032567 0.99862
vn 0.027692 0.0423715 0.998718
vn 0.0319843 0.0112538 0.999425
vn 0.0023805 0.0202204 0.999793
vn -0.0173436 0.0261675 0.999507
vn 0.00616116 0.00920174 0.999939
vn -0.018789 0.0382704 0.999091
vn -0.0652482 0.0793138 0.994712
vn 0.0874709 0.0235444 0.995889
vn 0.0676906 -0.012632 0.997626
vn 0.0151487 -0.0894409 0.995877
vn -0.0190742 -0.0696241 0.997391
vn -0.0100337 -0.0282464 0.999551
vn -0.0313031 0.0107032 0.999453
vn -0.0518533 -0.00254136 0.998651
vn -0.0622106 -0.0622009 0.996123
vn 0.00633399 0.0380872 0.999254
vn -0.0121896 0.0316842 0.999424
vn -0.011182 0.0303762 0.999476
vn 0.00366817 0.029633 0.999554
vn 0.03 0.0493677 0.99833
vn 0.0617424 0.03204 0.997578
vn 0.072311 0.020949 0.997162
vn 0.0582702 0.0164172 0.998166
vn -0.0811256 0.0390319 0.995939
vn -0.0258189 -0.00462825 0.999656
vn -0.0178976 0.0346082 0.999241
vn -0.00987981 0.0293124 0.999521
vn 0.0299196 0.0320313 0.999039
vn 0.0538209 0.034799 0.997944
vn 0.0509408 0.0316998 0.998199
vn 0.0396512 0.0276494 0.998831
vn 0.0412487 0.0292169 0.998722
vn 0.0512545 0.017748 0.998528
vn 0.0405847 0.0131878 0.999089
vn 0.00206446 0.0184479 0.999828
vn -0.0210504 0.0241181 0.999487
vn -0.0184262 0.0301942 0.999374
vn -0.00730378 0.0421927 0.999083
vn -0.0527366 -0.0101304 0.998557
vn 0.0192281 0.0297041 0.999374
vn 0.0217685 0.0349819 0.999151
vn -0.0225859 -0.0182179 0.999579
vn -0.0238186 -0.017078 0.99957
vn -0.0024057 0.0214401 0.999767
vn -0.0126456 0.0422932 0.999025
vn -0.0591502 -0.0102074 0.998197
vn -0.081325 -0.0352813 0.996063
vn 0.0173154 0.0168732 0.999708
vn -0.00808353 -0.00699251 0.999943
vn -0.0134794 -0.016848 0.999767
vn 0.0258165 0.0214402 0.999437
vn 0.0104282 0.0101946 0.999894
vn -0.0121491 0.00583491 0.999909
vn -0.0336583 -0.0251798 0.999116
vn -0.0126855 0.00244598 0.999917
vn -0.0110361 0.0131977 0.999852
vn 0.00293564 -0.00843379 0.99996
vn 0.0161033 -0.00259837 0.999867
vn 0.0180029 0.0203911 0.99963
vn -0.00926724 -0.0115172 0.999891
vn -0.0121477 -0.0082761 0.999892
vn -0.000911506 -0.00221849 0.999997
vn 0.00694758 -0.00801738 0.999944
vn -0.00746916 0.0120684 0.999899
vn -0.00233672 -0.00380285 0.99999
vn 0.00484042 -0.00428621 0.999979
vn -0.00164668 0.00600096 0.999981
vn 0.0104449 -0.00851403 0.999909
vn 0.0119551 -0.00570115 0.999912
vn 9.10615e-05 -0.00830082 0.999966
vn -0.00358122 -0.00870426 0.999956
vn -0.0077029 -0.00282485 0.999966
vn -0.00736656 0.0160576 0.999844
vn 0.00114013 -0.0124891 0.999921
vn -0.0324245 0.0212893 0.999247
vn -0.0198329 0.0251409 0.999487
vn 0.017707 -0.0128104 0.999761
vn 0.0102485 0.000787597 0.999947
vn -0.00380122 -0.0433077 0.999054
vn 0.0027761 -0.0130648 0.999911
vn -0.0219241 0.00968171 0.999713
vn -0.0245217 0.0224763 0.999447
vn -0.000529584 -0.00421937 0.999991
vn 0.00696578 0.0249487 0.999664
vn 0.000645183 0.0223054 0.999751
vn 0.0380911 -0.0421487 0.998385
vn 0.0458984 -0.0788807 0.995827
vn -0.037195 0.0118394 0.999238
vn -0.0319059 0.00981109 0.999443
vn -0.0493914 0.0332531 0.998226
vn -0.00601258 0.0131139 0.999896
vn 0.0169197 0.0202686 0.999651
vn 0.0296616 0.0288844 0.999143
vn 0.0360656 0.0279435 0.998959
vn 0.0808485 0.000484977 0.996726
f 100/100/100 4/4/4 13/13/13
f 44/44/44 3/3/3 21/21/21
f 44/44/44 19/19/19 20/20/20
f 60/60/60 19/19/19 52/52/52
f 60/60/60 17/17/17 18/18/18
f 76/76/76 17/17/17 68/68/68
f 84/84/84 16/16/16 76/76/76
f 84/84/84 14/14/14 15/15/15
f 100/100/100 14/14/14 92/92/92
f 11/11/11 93/93/93 85/85/85
f 93/93/93 86/86/86 85/85/85
f 94/94/94 87/87/87 86/86/86
f 87/87/87 96/96/96 88/88/88
f 96/96/96 89/89/89 88/88/88
f 97/97/97 90/90/90 89/89/89
f 90/90/90 99/99/99 91/91/91
f 91/91/91 100/100/100 92/92/92
f 10/10/10 85/85/85 77/77/77
f 77/77/77 86/86/86 78/78/78
f 78/78/78 87/87/87 79/79/79
f 79/79/79 88/88/88 80/80/80
f 88/88/88 81/81/81 80/80/80
f 81/81/81 90/90/90 82/82/82
f 82/82/82 91/91/91 83/83/83
f 91/91/91 84/84/84 83/83/83
f 10/10/10 69/69/69 9/9/9
f 69/69/69 78/78/78 70/70/70
f 70/70/70 79/79/79 71/71/71
f 79/79/79 72/72/72 71/71/71
f 72/72/72 81/81/81 73/73/73
f 73/73/73 82/82/82 74/74/74
f 82/82/82 75/75/75 74/74/74
f 83/83/83 76/76/76 75/75/75
f 9/9/9 61/61/61 8/8/8
f 69/69/69 62/62/62 61/61/61
f 62/62/62 71/71/71 63/63/63
f 63/63/63 72/72/72 64/64/64
f 72/72/72 65/65/65 64/64/64
f 65/65/65 74/74/74 66/66/66
f 66/66/66 75/75/75 67/67/67
f 67/67/67 76/76/76 68/68/68
f 8/8/8 53/53/53 7/7/7
f 53/53/53 62/62/62 54/54/54
f 54/54/54 63/63/63 55/55/55
f 55/55/55 64/64/64 56/56/56
f 64/64/64 57/57/57 56/56/56
f 57/57/57 66/66/66 58/58/58
f 58/58/58 67/67/67 59/59/59
f 59/59/59 68/68/68 60/60/60
f 6/6/6 53/53/53 45/45/45
f 45/45/45 54/54/54 46/46/46
f 54/54/54 47/47/47 46/46/46
f 55/55/55 48/48/48 47/47/47
f 56/56/56 49/49/49 48/48/48
f 49/49/49 58/58/58 50/50/50
f 58/58/58 51/51/51 50/50/50
f 59/59/59 52/52/52 51/51/51
f 6/6/6 37/37/37 5/5/5
f 45/45/45 38/38/38 37/37/37
f 46/46/46 39/39/39 38/38/38
f 39/39/39 48/48/48 40/40/40
f 40/40/40 49/49/49 41/41/41
f 41/41/41 50/50/50 42/42/42
f 50/50/50 43/43/43 42/42/42
f 51/51/51 44/44/44 43/43/43
f 5/5/5 28/28/28 1/1/1
f 28/28/28 38/38/38 27/27/27
f 27/27/27 39/39/39 26/26/26
f 26/26/26 40/40/40 25/25/25
f 40/40/40 24/24/24 25/25/25
f 41/41/41 23/23/23 24/24/24
f 23/23/23 43/43/43 22/22/22
f 43/43/43 21/21/21 22/22/22
f 2/2/2 93/93/93 12/12/12
f 93/93/93 30/30/30 94/94/94
f 30/30/30 95/95/95 94/94/94
f 31/31/31 96/96/96 95/95/95
f 32/32/32 97/97/97 96/96/96
f 33/33/33 98/98/98 97/97/97
f 98/98/98 35/35/35 99/99/99
f 99/99/99 36/36/36 100/100/100
f 100/100/100 36/36/36 4/4/4
f 44/44/44 20/20/20 3/3/3
f 44/44/44 52/52/52 19/19/19
f 60/60/60 18/18/18 19/19/19
f 60/60/60 68/68/68 17/17/17
f 76/76/76 16/16/16 17/17/17
f 84/84/84 15/15/15 16/16/16
f 84/84/84 92/92/92 14/14/14
f 100/100/100 13/13/13 14/14/14
f 11/11/11 12/12/12 93/93/93
f 93/93/93 94/94/94 86/86/86
f 94/94/94 95/95/95 87/87/87
f 87/87/87 95/95/95 96/96/96
f 96/96/96 97/97/97 89/89/89
f 97/97/97 98/98/98 90/90/90
f 90/90/90 98/98/98 99/99/99
f 91/91/91 99/99/99 100/100/100
f 10/10/10 11/11/11 85/85/85
f 77/77/77 85/85/85 86/86/86
f 78/78/78 86/86/86 87/87/87
f 79/79/79 87/87/87 88/88/88
f 88/88/88 89/89/89 81/81/81
f 81/81/81 89/89/89 90/90/90
f 82/82/82 90/90/90 91/91/91
f 91/91/91 92/92/92 84/84/84
f 10/10/10 77/77/77 69/69/69
f 69/69/69 77/77/77 78/78/78
f 70/70/70 78/78/78 79/79/79
f 79/79/79 80/80/80 72/72/72
f 72/72/72 80/80/80 81/81/81
f 73/73/73 81/81/81 82/82/82
f 82/82/82 83/83/83 75/75/75
f 83/83/83 84/84/84 76/76/76
f 9/9/9 69/69/69 61/61/61
f 69/69/69 70/70/70 62/62/62
f 62/62/62 70/70/70 71/71/71
f 63/63/63 71/71/71 72/72/72
f 72/72/72 73/73/73 65/65/65
f 65/65/65 73/73/73 74/74/74
f 66/66/66 74/74/74 75/75/75
f 67/67/67 75/75/75 76/76/76
f 8/8/8 61/61/61 53/53/53
f 53/53/53 61/61/61 62/62/62
f 54/54/54 62/62/62 63/63/63
f 55/55/55 63/63/63 64/64/64
f 64/64/64 65/65/65 57/57/57
f 57/57/57 65/65/65 66/66/66
f 58/58/58 66/66/66 67/67/67
f 59/59/59 67/67/67 68/68/68
f 6/6/6 7/7/7 53/53/53
f 45/45/45 53/53/53 54/54/54
f 54/54/54 55/55/55 47/47/47
f 55/55/55 56/56/56 48/48/48
f 56/56/56 57/57/57 49/49/49
f 49/49/49 57/57/57 58/58/58
f 58/58/58 59/59/59 51/51/51
f 59/59/59 60/60/60 52/52/52
f 6/6/6 45/45/45 37/37/37
f 45/45/45 46/46/46 38/38/38
f 46/46/46 47/47/47 39/39/39
f 39/39/39 47/47/47 48/48/48
f 40/40/40 48/48/48 49/49/49
f 41/41/41 49/49/49 50/50/50
f 50/50/50 51/51/51 43/43/43
f 51/51/51 52/52/52 44/44/44
f 5/5/5 37/37/37 28/28/28
f 28/28/28 37/37/37 38/38/38
f 27/27/27 38/38/38 39/39/39
f 26/26/26 39/39/39 40/40/40
f 40/40/40 41/41/41 24/24/24
f 41/41/41 42/42/42 23/23/23
f 23/23/23 42/42/42 43/43/43
f 43/43/43 44/44/44 21/21/21
f 2/2/2 29/29/29 93/93/93
f 93/93/93 29/29/29 30/30/30
f 30/30/30 31/31/31 95/95/95
f 31/31/31 32/32/32 96/96/96
f 32/32/32 33/33/33 97/97/97
f 33/33/33 34/34/34 98/98/98
f 98/98/98 34/34/34 35/35/35
f 99/99/99 35/35/35 36/36/36
