o GNATVCloth
v -5.01896 -4.96686 0.625868
v 5.05271 -4.99092 0.369135
v -5.01298 5.02105 0.004229
v 4.98702 5.02105 0.004229
v -3.92475 -5.01821 0.428429
v -2.8048 -5.05938 0.444879
v -1.68065 -5.08475 0.428234
v -0.554957 -5.10106 0.404631
v 0.572417 -5.10373 0.360911
v 1.69796 -5.09992 0.35079
v 2.82039 -5.06447 0.364163
v 3.93963 -5.02633 0.325115
v 3.87701 4.87365 0.230217
v 2.77143 4.76479 0.435564
v 1.64881 4.73112 0.435288
v 0.530187 4.69178 0.481055
v -0.57875 4.65489 0.620701
v -1.68894 4.70013 0.500357
v -2.80931 4.73811 0.458453
v -3.90733 4.85237 0.23311
v -4.97276 3.90939 0.0998404
v -4.96294 2.79411 0.125976
v -4.96154 1.67951 0.150732
v -4.96283 0.565849 0.165805
v -4.96982 -0.546046 0.215035
v -4.97764 -1.6575 0.270912
v -4.99213 -2.76898 0.325537
v -5.01118 -3.87884 0.406979
v 5.02901 -3.884 0.290633
v 5.01018 -2.7755 0.207079
v 4.99478 -1.66226 0.173425
v 4.97822 -0.55021 0.157499
v 4.97024 0.562434 0.146362
v 4.96725 1.67702 0.136219
v 4.96807 2.79228 0.125493
v 4.96169 3.9068 0.0712921
v -3.83602 -3.87052 0.416235
v -3.78887 -3.22463 0.373943
v -3.63308 -1.9369 0.264572
v -4.08086 -0.278439 0.203677
v -4.10569 0.737653 0.232191
v -4.09832 1.52043 0.17793
v -4.03887 2.81073 0.0882399
v -3.93609 3.86478 -0.195076
v -2.71102 -4.03903 0.355688
v -2.76929 -2.77134 0.264787
v -2.64365 -2.18113 0.281169
v -2.71042 -0.634714 0.252563
v -2.744 0.496145 0.200143
v -2.68086 1.52936 0.0112147
v -2.86032 2.83458 -0.295295
v -2.76579 3.48779 -0.0494151
v -1.65174 -4.27627 0.391319
v -1.47953 -2.96239 0.404887
v -1.85618 -1.66536 0.381782
v -1.83138 -0.874105 0.268291
v -1.53644 0.555408 -0.211982
v -2.00963 1.61119 -0.32826
v -1.7347 2.63018 -0.0929144
v -1.57469 3.60236 0.178382
v -0.226362 -4.36677 0.368116
v -0.573672 -2.93888 0.314832
v -0.527662 -1.81119 0.18872
v -0.83253 -0.856555 -0.0326405
v -0.609986 0.341128 -0.261937
v -0.377905 1.37158 -0.253531
v -0.576161 2.53772 -0.0533735
v -0.756302 3.39805 0.164273
v 0.745925 -3.94743 0.320223
v 0.823134 -2.66807 0.264959
v 0.538947 -1.90098 0.0748335
v 0.622623 -0.587306 -0.136461
v 0.585499 0.32054 -0.192474
v 0.295721 1.43368 -0.182183
v 0.520871 2.38459 -0.0773459
v 0.54549 3.59925 0.308966
v 1.96122 -3.69213 0.312397
v 1.67825 -2.8897 0.39812
v 1.8244 -1.96499 0.306716
v 1.99231 -0.459684 0.0238313
v 1.98145 0.215169 -0.109931
v 1.82957 1.4695 -0.269916
v 1.40492 2.73209 -0.110506
v 1.47984 3.53134 0.189787
v 2.80456 -3.9502 0.296532
v 3.10404 -2.85875 0.305507
v 2.95543 -1.98566 0.408934
v 2.71451 -0.537757 0.214292
v 2.95534 0.257922 0.148413
v 3.07087 1.5404 -0.0750026
v 2.76611 3.10072 -0.225283
v 2.74059 3.43716 -0.0643459
v 3.93177 -3.97944 0.318413
v 3.66599 -2.72875 0.277419
v 3.87323 -1.68936 0.297396
v 3.80827 -0.732876 0.360067
v 3.85921 0.279339 0.307429
v 4.14857 1.79653 0.182677
v 4.12684 2.75085 0.0146676
v 4.03192 3.86673 -0.163352
vt 0.0001 0.0001
vt 0.9999 0.0001
vt 0.0001 0.9999
vt 0.9999 0.9999
vt 0.111189 0.0001
vt 0.222278 0.0001
vt 0.333367 0.0001
vt 0.444455 0.0001
vt 0.555544 0.0001
vt 0.666633 0.0001
vt 0.777722 0.0001
vt 0.888811 0.0001
vt 0.888811 0.9999
vt 0.777722 0.9999
vt 0.666633 0.9999
vt 0.555544 0.9999
vt 0.444455 0.9999
vt 0.333367 0.9999
vt 0.222278 0.9999
vt 0.111189 0.9999
vt 0.0001 0.888811
vt 0.0001 0.777722
vt 0.0001 0.666633
vt 0.0001 0.555544
vt 0.0001 0.444456
vt 0.0001 0.333367
vt 0.0001 0.222278
vt 0.0001 0.111189
vt 0.9999 0.111189
vt 0.9999 0.222278
vt 0.9999 0.333367
vt 0.9999 0.444456
vt 0.9999 0.555544
vt 0.9999 0.666633
vt 0.9999 0.777722
vt 0.9999 0.888811
vt 0.11727 0.115399
vt 0.120778 0.180369
vt 0.134636 0.309595
vt 0.088728 0.473895
vt 0.085886 0.575352
vt 0.086211 0.65375
vt 0.092207 0.78313
vt 0.106956 0.892282
vt 0.22987 0.102869
vt 0.221803 0.229552
vt 0.233521 0.288953
vt 0.225541 0.443179
vt 0.221596 0.556167
vt 0.227801 0.661237
vt 0.214896 0.795203
vt 0.22542 0.865181
vt 0.335524 0.082127
vt 0.351143 0.213907
vt 0.311934 0.342467
vt 0.313159 0.422214
vt 0.347791 0.572605
vt 0.301482 0.677733
vt 0.329031 0.783086
vt 0.344903 0.885466
vt 0.476837 0.074882
vt 0.441952 0.218774
vt 0.445749 0.333088
vt 0.416414 0.43099
vt 0.439746 0.552976
vt 0.463203 0.656843
vt 0.444252 0.77653
vt 0.426137 0.866051
vt 0.573419 0.117409
vt 0.581125 0.246686
vt 0.552512 0.326
vt 0.561075 0.459693
vt 0.558356 0.550596
vt 0.530299 0.662189
vt 0.553275 0.760113
vt 0.555478 0.888821
vt 0.694433 0.13996
vt 0.667048 0.221666
vt 0.681985 0.314267
vt 0.698218 0.467249
vt 0.696819 0.535952
vt 0.68253 0.662758
vt 0.642062 0.791726
vt 0.648523 0.877957
vt 0.778029 0.111667
vt 0.809426 0.219523
vt 0.794923 0.307783
vt 0.772028 0.454562
vt 0.796846 0.533374
vt 0.807262 0.663157
vt 0.778581 0.821037
vt 0.775122 0.858219
vt 0.890224 0.104741
vt 0.865679 0.23076
vt 0.887326 0.334104
vt 0.881307 0.429754
vt 0.887973 0.53063
vt 0.918106 0.681428
vt 0.915043 0.778027
vt 0.904815 0.89094
vn 0.182995 0.192641 0.964055
vn -0.0103344 0.0386534 0.999199
vn 0.0178383 -0.15368 0.98796
vn -0.00891045 -0.136441 0.990608
vn 0.054028 0.0724487 0.995908
vn 0.0133821 0.0565545 0.99831
vn 0.0186986 0.0449366 0.998815
vn 0.0264277 0.039455 0.998872
vn 0.028029 0.0319434 0.999097
vn 0.00537248 0.0359564 0.999339
vn 0.00101136 0.0424795 0.999097
vn -0.00253727 0.00638195 0.999976
vn 0.216766 -0.326279 0.920084
vn 0.13975 -0.30951 0.940571
vn 0.0265298 -0.203983 0.978615
vn 0.0966951 -0.170896 0.980533
vn -0.0266905 -0.279407 0.959802
vn -0.080197 -0.288215 0.954202
vn -0.160666 -0.355789 0.920652
vn -0.233268 -0.381089 0.894627
vn 0.199354 0.114619 0.973201
vn 0.0403793 0.0230009 0.99892
vn -0.0191911 0.0438832 0.998852
vn -0.0506329 0.00937659 0.998673
vn -0.00145571 0.0472318 0.998883
vn 0.00852597 0.0464444 0.998884
vn -0.00171449 0.0692879 0.997595
vn 0.0388217 0.0863027 0.995512
vn 0.0188691 0.0733003 0.997131
vn 0.0582449 0.0304705 0.997837
vn 0.129539 -0.00310486 0.991569
vn 0.157601 0.0235167 0.987223
vn 0.109363 0.0256737 0.99367
vn 0.0580219 0.009399 0.998271
vn -0.0710013 0.0757165 0.994598
vn -0.209612 0.081253 0.974403
vn 0.0195829 0.0461426 0.998743
vn 0.0301022 0.0727037 0.996899
vn 0.00432417 0.0392427 0.99922
vn -0.0134877 0.021743 0.999673
vn 0.00323806 0.0451507 0.998975
vn 0.0489009 0.0678139 0.996499
vn 0.151462 0.127599 0.980193
vn -0.0101327 -0.140718 0.989998
vn 0.00919135 0.0610708 0.998091
vn -0.0166579 0.0380732 0.999136
vn -0.0790212 -0.00261516 0.996869
vn -0.0306493 0.0488758 0.998334
vn 0.158007 0.125662 0.979409
vn 0.24128 0.16291 0.956684
vn 0.0646324 -0.0108492 0.99785
vn -0.194546 -0.325061 0.925466
vn 0.0180347 0.033222 0.999285
vn -0.00181689 0.0266101 0.999644
vn 0.0629591 0.101603 0.992831
vn 0.177626 0.165498 0.970082
vn 0.167509 0.166784 0.97166
vn 0.118749 0.0256671 0.992593
vn -0.123651 -0.242942 0.962128
vn -0.0959369 -0.298477 0.949583
vn 0.0285974 0.0379314 0.998871
vn 0.0537584 0.0794332 0.99539
vn 0.112331 0.155789 0.981382
vn 0.147963 0.2083 0.966808
vn -0.00733615 0.0642899 0.997904
vn -0.0435388 -0.0577508 0.997381
vn -0.0443644 -0.229974 0.972185
vn -0.0578055 -0.288392 0.955766
vn -0.00148175 0.0187707 0.999823
vn -0.0831748 0.125739 0.988571
vn -0.0226726 0.169243 0.985314
vn -0.0455125 0.155805 0.986739
vn -0.0325379 0.0441129 0.998497
vn -0.0292653 -0.0426842 0.99866
vn 0.0284459 -0.181969 0.982893
vn 0.049998 -0.267624 0.962225
vn 0.0269594 -0.0285328 0.999229
vn -0.0321762 -0.00102336 0.999482
vn -0.141947 0.15664 0.977402
vn -0.18132 0.194729 0.963952
vn -0.164602 0.144636 0.975698
vn -0.00975874 -0.00229751 0.99995
vn 0.122155 -0.243953 0.962063
vn 0.106976 -0.29453 0.949636
vn -0.00207867 0.025604 0.99967
vn 0.0405655 -0.0447324 0.998175
vn 0.0184593 0.00459885 0.999819
vn -0.17218 0.149716 0.973622
vn -0.196381 0.141471 0.970268
vn -0.205488 0.128325 0.97021
vn 0.0275554 -0.149339 0.988402
vn 0.175272 -0.382385 0.907227
vn 0.0111926 0.037811 0.999222
vn 0.0710062 -0.0190134 0.997295
vn 0.109016 -0.0313725 0.993545
vn 0.0266899 0.0341464 0.99906
vn -0.029599 0.0819282 0.996199
vn -0.0705238 0.0903281 0.993412
vn -0.179832 0.120072 0.976342
vn 0.0292736 -0.161292 0.986472
f 100/100/100 4/4/4 13/13/13
f 44/44/44 3/3/3 21/21/21
f 44/44/44 19/19/19 20/20/20
f 60/60/60 19/19/19 52/52/52
f 60/60/60 17/17/17 18/18/18
f 76/76/76 17/17/17 68/68/68
f 84/84/84 16/16/16 76/76/76
f 84/84/84 14/14/14 15/15/15
f 100/100/100 14/14/14 92/92/92
f 11/11/11 93/93/93 85/85/85
f 93/93/93 86/86/86 85/85/85
f 94/94/94 87/87/87 86/86/86
f 87/87/87 96/96/96 88/88/88
f 96/96/96 89/89/89 88/88/88
f 97/97/97 90/90/90 89/89/89
f 90/90/90 99/99/99 91/91/91
f 91/91/91 100/100/100 92/92/92
f 10/10/10 85/85/85 77/77/77
f 77/77/77 86/86/86 78/78/78
f 78/78/78 87/87/87 79/79/79
f 79/79/79 88/88/88 80/80/80
f 88/88/88 81/81/81 80/80/80
f 81/81/81 90/90/90 82/82/82
f 82/82/82 91/91/91 83/83/83
f 91/91/91 84/84/84 83/83/83
f 10/10/10 69/69/69 9/9/9
f 69/69/69 78/78/78 70/70/70
f 70/70/70 79/79/79 71/71/71
f 79/79/79 72/72/72 71/71/71
f 72/72/72 81/81/81 73/73/73
f 73/73/73 82/82/82 74/74/74
f 82/82/82 75/75/75 74/74/74
f 83/83/83 76/76/76 75/75/75
f 9/9/9 61/61/61 8/8/8
f 69/69/69 62/62/62 61/61/61
f 62/62/62 71/71/71 63/63/63
f 63/63/63 72/72/72 64/64/64
f 72/72/72 65/65/65 64/64/64
f 65/65/65 74/74/74 66/66/66
f 66/66/66 75/75/75 67/67/67
f 67/67/67 76/76/76 68/68/68
f 8/8/8 53/53/53 7/7/7
f 53/53/53 62/62/62 54/54/54
f 54/54/54 63/63/63 55/55/55
f 55/55/55 64/64/64 56/56/56
f 64/64/64 57/57/57 56/56/56
f 57/57/57 66/66/66 58/58/58
f 58/58/58 67/67/67 59/59/59
f 59/59/59 68/68/68 60/60/60
f 6/6/6 53/53/53 45/45/45
f 45/45/45 54/54/54 46/46/46
f 54/54/54 47/47/47 46/46/46
f 55/55/55 48/48/48 47/47/47
f 56/56/56 49/49/49 48/48/48
f 49/49/49 58/58/58 50/50/50
f 58/58/58 51/51/51 50/50/50
f 59/59/59 52/52/52 51/51/51
f 6/6/6 37/37/37 5/5/5
f 45/45/45 38/38/38 37/37/37
f 46/46/46 39/39/39 38/38/38
f 39/39/39 48/48/48 40/40/40
f 40/40/40 49/49/49 41/41/41
f 41/41/41 50/50/50 42/42/42
f 50/50/50 43/43/43 42/42/42
f 51/51/51 44/44/44 43/43/43
f 5/5/5 28/28/28 1/1/1
f 28/28/28 38/38/38 27/27/27
f 27/27/27 39/39/39 26/26/26
f 26/26/26 40/40/40 25/25/25
f 40/40/40 24/24/24 25/25/25
f 41/41/41 23/23/23 24/24/24
f 23/23/23 43/43/43 22/22/22
f 43/43/43 21/21/21 22/22/22
f 2/2/2 93/93/93 12/12/12
f 93/93/93 30/30/30 94/94/94
f 30/30/30 95/95/95 94/94/94
f 31/31/31 96/96/96 95/95/95
f 32/32/32 97/97/97 96/96/96
f 33/33/33 98/98/98 97/97/97
f 98/98/98 35/35/35 99/99/99
f 99/99/99 36/36/36 100/100/100
f 100/100/100 36/36/36 4/4/4
f 44/44/44 20/20/20 3/3/3
f 44/44/44 52/52/52 19/19/19
f 60/60/60 18/18/18 19/19/19
f 60/60/60 68/68/68 17/17/17
f 76/76/76 16/16/16 17/17/17
f 84/84/84 15/15/15 16/16/16
f 84/84/84 92/92/92 14/14/14
f 100/100/100 13/13/13 14/14/14
f 11/11/11 12/12/12 93/93/93
f 93/93/93 94/94/94 86/86/86
f 94/94/94 95/95/95 87/87/87
f 87/87/87 95/95/95 96/96/96
f 96/96/96 97/97/97 89/89/89
f 97/97/97 98/98/98 90/90/90
f 90/90/90 98/98/98 99/99/99
f 91/91/91 99/99/99 100/100/100
f 10/10/10 11/11/11 85/85/85
f 77/77/77 85/85/85 86/86/86
f 78/78/78 86/86/86 87/87/87
f 79/79/79 87/87/87 88/88/88
f 88/88/88 89/89/89 81/81/81
f 81/81/81 89/89/89 90/90/90
f 82/82/82 90/90/90 91/91/91
f 91/91/91 92/92/92 84/84/84
f 10/10/10 77/77/77 69/69/69
f 69/69/69 77/77/77 78/78/78
f 70/70/70 78/78/78 79/79/79
f 79/79/79 80/80/80 72/72/72
f 72/72/72 80/80/80 81/81/81
f 73/73/73 81/81/81 82/82/82
f 82/82/82 83/83/83 75/75/75
f 83/83/83 84/84/84 76/76/76
f 9/9/9 69/69/69 61/61/61
f 69/69/69 70/70/70 62/62/62
f 62/62/62 70/70/70 71/71/71
f 63/63/63 71/71/71 72/72/72
f 72/72/72 73/73/73 65/65/65
f 65/65/65 73/73/73 74/74/74
f 66/66/66 74/74/74 75/75/75
f 67/67/67 75/75/75 76/76/76
f 8/8/8 61/61/61 53/53/53
f 53/53/53 61/61/61 62/62/62
f 54/54/54 62/62/62 63/63/63
f 55/55/55 63/63/63 64/64/64
f 64/64/64 65/65/65 57/57/57
f 57/57/57 65/65/65 66/66/66
f 58/58/58 66/66/66 67/67/67
f 59/59/59 67/67/67 68/68/68
f 6/6/6 7/7/7 53/53/53
f 45/45/45 53/53/53 54/54/54
f 54/54/54 55/55/55 47/47/47
f 55/55/55 56/56/56 48/48/48
f 56/56/56 57/57/57 49/49/49
f 49/49/49 57/57/57 58/58/58
f 58/58/58 59/59/59 51/51/51
f 59/59/59 60/60/60 52/52/52
f 6/6/6 45/45/45 37/37/37
f 45/45/45 46/46/46 38/38/38
f 46/46/46 47/47/47 39/39/39
f 39/39/39 47/47/47 48/48/48
f 40/40/40 48/48/48 49/49/49
f 41/41/41 49/49/49 50/50/50
f 50/50/50 51/51/51 43/43/43
f 51/51/51 52/52/52 44/44/44
f 5/5/5 37/37/37 28/28/28
f 28/28/28 37/37/37 38/38/38
f 27/27/27 38/38/38 39/39/39
f 26/26/26 39/39/39 40/40/40
f 40/40/40 41/41/41 24/24/24
f 41/41/41 42/42/42 23/23/23
f 23/23/23 42/42/42 43/43/43
f 43/43/43 44/44/44 21/21/21
f 2/2/2 29/29/29 93/93/93
f 93/93/93 29/29/29 30/30/30
f 30/30/30 31/31/31 95/95/95
f 31/31/31 32/32/32 96/96/96
f 32/32/32 33/33/33 97/97/97
f 33/33/33 34/34/34 98/98/98
f 98/98/98 34/34/34 35/35/35
f 99/99/99 35/35/35 36/36/36
