o GNATVCloth
v -5.05376 -4.97859 0.463159
v 5.05239 -4.99657 0.466707
v -5.01298 5.02105 0.004229
v 4.98702 5.02105 0.004229
v -3.94675 -5.0129 0.442551
v -2.82825 -5.06311 0.400103
v -1.70573 -5.09833 0.30819
v -0.575467 -5.1221 0.297358
v 0.556924 -5.12419 0.30213
v 1.6872 -5.11945 0.344701
v 2.81585 -5.08167 0.312404
v 3.93902 -5.03683 0.351041
v 3.85977 4.93977 0.165919
v 2.74204 4.87467 0.286298
v 1.63085 4.83031 0.431678
v 0.515028 4.80578 0.411052
v -0.569008 4.80036 0.335019
v -1.65977 4.82201 0.217332
v -2.77298 4.85428 0.259158
v -3.88355 4.92963 0.115907
v -5.0018 3.90734 0.0844768
v -4.99404 2.79144 0.104545
v -4.99673 1.67619 0.118893
v -5.00113 0.561607 0.148076
v -5.00068 -0.550421 0.206712
v -5.00287 -1.66042 0.293613
v -5.00818 -2.76718 0.40423
v -5.02299 -3.87256 0.525828
v 5.02918 -3.88742 0.417218
v 5.01007 -2.77944 0.312854
v 4.99726 -1.66907 0.243061
v 4.9884 -0.557326 0.18736
v 4.98352 0.556551 0.148408
v 4.97965 1.67181 0.111466
v 4.97651 2.78812 0.0840726
v 4.97633 3.90442 0.0437473
v -3.85671 -3.87389 0.415763
v -3.8123 -3.22688 0.361192
v -3.6667 -1.95316 0.157807
v -4.11502 -0.289112 0.119888
v -4.14304 0.728798 0.155021
v -4.13595 1.51363 0.163906
v -4.0723 2.80713 0.174859
v -3.93638 3.86884 -0.0643017
v -2.73319 -4.04442 0.306904
v -2.79953 -2.77981 0.210115
v -2.68387 -2.19276 0.274706
v -2.76077 -0.648642 0.339859
v -2.79446 0.484517 0.343101
v -2.71456 1.52585 0.220998
v -2.85457 2.84333 -0.049213
v -2.77141 3.51381 0.143665
v -1.67033 -4.29151 0.321224
v -1.50274 -2.98167 0.309469
v -1.90117 -1.68941 0.405973
v -1.88481 -0.891766 0.396407
v -1.53885 0.577466 0.146837
v -1.99551 1.63332 0.0152879
v -1.74597 2.66247 0.246067
v -1.57315 3.6772 0.250105
v -0.242558 -4.39544 0.327301
v -0.59082 -2.95568 0.335542
v -0.55579 -1.81232 0.345391
v -0.853662 -0.837895 0.285462
v -0.622077 0.372979 0.254321
v -0.392688 1.40569 0.294273
v -0.592795 2.57992 0.391901
v -0.764332 3.47347 0.308477
v 0.734143 -3.9701 0.33377
v 0.807244 -2.67981 0.264165
v 0.515025 -1.8927 0.305573
v 0.597159 -0.557356 0.309473
v 0.565732 0.355444 0.302924
v 0.279861 1.46198 0.311484
v 0.506831 2.43925 0.341731
v 0.530663 3.69931 0.324278
v 1.95425 -3.71841 0.295894
v 1.67355 -2.91076 0.278943
v 1.81504 -1.98223 0.334781
v 1.97159 -0.448782 0.294051
v 1.95431 0.237669 0.288732
v 1.80592 1.50166 0.253812
v 1.39934 2.77734 0.320932
v 1.45423 3.62353 0.28913
v 2.80085 -3.97115 0.323667
v 3.10158 -2.88175 0.354434
v 2.94856 -2.00539 0.311628
v 2.71122 -0.546234 0.333631
v 2.95611 0.252306 0.303172
v 3.05507 1.54994 0.20091
v 2.76834 3.11894 0.23014
v 2.72489 3.4847 0.176539
v 3.93256 -3.99659 0.365043
v 3.66533 -2.74675 0.37057
v 3.87231 -1.70506 0.311445
v 3.80469 -0.751777 0.261007
v 3.8671 0.260599 0.242674
v 4.16424 1.78203 0.156715
v 4.12775 2.74482 0.0527671
v 4.01959 3.87128 0.00717467
vt 0.0001 0.0001
vt 0.9999 0.0001
vt 0.0001 0.9999
vt 0.9999 0.9999
vt 0.111189 0.0001
vt 0.222278 0.0001
vt 0.333367 0.0001
vt 0.444455 0.0001
vt 0.555544 0.0001
vt 0.666633 0.0001
vt 0.777722 0.0001
vt 0.888811 0.0001
vt 0.888811 0.9999
vt 0.777722 0.9999
vt 0.666633 0.9999
vt 0.555544 0.9999
vt 0.444455 0.9999
vt 0.333367 0.9999
vt 0.222278 0.9999
vt 0.111189 0.9999
vt 0.0001 0.888811
vt 0.0001 0.777722
vt 0.0001 0.666633
vt 0.0001 0.555544
vt 0.0001 0.444456
vt 0.0001 0.333367
vt 0.0001 0.222278
vt 0.0001 0.111189
vt 0.9999 0.111189
vt 0.9999 0.222278
vt 0.9999 0.333367
vt 0.9999 0.444456
vt 0.9999 0.555544
vt 0.9999 0.666633
vt 0.9999 0.777722
vt 0.9999 0.888811
vt 0.11727 0.115399
vt 0.120778 0.180369
vt 0.134636 0.309595
vt 0.088728 0.473895
vt 0.085886 0.575352
vt 0.086211 0.65375
vt 0.092207 0.78313
vt 0.106956 0.892282
vt 0.22987 0.102869
vt 0.221803 0.229552
vt 0.233521 0.288953
vt 0.225541 0.443179
vt 0.221596 0.556167
vt 0.227801 0.661237
vt 0.214896 0.795203
vt 0.22542 0.865181
vt 0.335524 0.082127
vt 0.351143 0.213907
vt 0.311934 0.342467
vt 0.313159 0.422214
vt 0.347791 0.572605
vt 0.301482 0.677733
vt 0.329031 0.783086
vt 0.344903 0.885466
vt 0.476837 0.074882
vt 0.441952 0.218774
vt 0.445749 0.333088
vt 0.416414 0.43099
vt 0.439746 0.552976
vt 0.463203 0.656843
vt 0.444252 0.77653
vt 0.426137 0.866051
vt 0.573419 0.117409
vt 0.581125 0.246686
vt 0.552512 0.326
vt 0.561075 0.459693
vt 0.558356 0.550596
vt 0.530299 0.662189
vt 0.553275 0.760113
vt 0.555478 0.888821
vt 0.694433 0.13996
vt 0.667048 0.221666
vt 0.681985 0.314267
vt 0.698218 0.467249
vt 0.696819 0.535952
vt 0.68253 0.662758
vt 0.642062 0.791726
vt 0.648523 0.877957
vt 0.778029 0.111667
vt 0.809426 0.219523
vt 0.794923 0.307783
vt 0.772028 0.454562
vt 0.796846 0.533374
vt 0.807262 0.663157
vt 0.778581 0.821037
vt 0.775122 0.858219
vt 0.890224 0.104741
vt 0.865679 0.23076
vt 0.887326 0.334104
vt 0.881307 0.429754
vt 0.887973 0.53063
vt 0.918106 0.681428
vt 0.915043 0.778027
vt 0.904815 0.89094
vn 0.0168157 -0.0570288 0.998231
vn -0.0773641 0.0147148 0.996894
vn 0.0154718 -0.0449538 0.998869
vn 0.0555275 -0.0441657 0.99748
vn 0.0499271 -0.00688111 0.998729
vn 0.0590141 0.0430083 0.99733
vn 0.0451357 -0.0181164 0.998817
vn -0.000688689 -0.031246 0.999511
vn -0.0120449 -0.0297115 0.999486
vn -0.00124426 0.00939349 0.999955
vn -0.013898 -0.011352 0.999839
vn -0.0683671 -0.0138517 0.997564
vn 0.13164 -0.126383 0.983208
vn 0.11996 -0.106082 0.987095
vn 0.059178 -0.125639 0.990309
vn -0.0178977 -0.0906504 0.995722
vn -0.0649293 -0.0216022 0.997656
vn -0.0342968 0.0260063 0.999073
vn -0.0943413 -0.0749162 0.992717
vn -0.123481 -0.160219 0.979327
vn 0.069495 0.0974943 0.992807
vn -0.0763125 0.0152043 0.996968
vn -0.0492816 0.00564942 0.998769
vn 0.0225395 0.0147573 0.999637
vn 0.0783154 0.0651051 0.9948
vn 0.102996 0.07627 0.991753
vn 0.097016 0.117678 0.988301
vn 0.0706076 0.0361492 0.996849
vn -0.0541742 0.0680685 0.996209
vn 0.022286 0.052239 0.998386
vn 0.0570249 0.0568653 0.996752
vn 0.0627845 0.0333265 0.99747
vn 0.0692252 0.0368258 0.996921
vn 0.0592857 0.0289546 0.997821
vn -0.00734455 0.0555611 0.998428
vn -0.0391741 0.036138 0.998579
vn 0.0885475 0.0541345 0.9946
vn 0.094017 0.106388 0.98987
vn -0.00361853 0.0424512 0.999092
vn -0.0295785 0.0115955 0.999495
vn -0.0616083 0.00939362 0.998056
vn -0.0469235 -0.00852111 0.998862
vn 0.0345267 0.0908863 0.995263
vn -0.0342624 -0.0260389 0.999074
vn 0.0433126 0.0688563 0.996686
vn -0.0200003 0.0261597 0.999458
vn -0.118195 -0.0748337 0.990167
vn -0.12001 -0.0197277 0.992577
vn 0.00805379 0.0697387 0.997533
vn 0.0803355 0.107395 0.990965
vn -0.0391703 0.00204701 0.99923
vn -0.18017 -0.127335 0.975359
vn 0.00658635 0.00463708 0.999968
vn -0.0405566 -0.0243565 0.99888
vn -0.0162337 -0.0193058 0.999682
vn 0.0446418 0.0593728 0.997237
vn -0.0014771 0.0916338 0.995792
vn -0.0185362 0.0149496 0.999716
vn -0.164882 -0.0799117 0.983071
vn -0.0633188 -0.00392475 0.997986
vn -0.00282014 -0.0237934 0.999713
vn 0.00979885 0.000276371 0.999952
vn 0.0182154 0.00755518 0.999806
vn 0.0169642 0.0602213 0.998041
vn -0.0587889 0.00294951 0.998266
vn -0.0803188 -0.0349807 0.996155
vn -0.0650946 -0.0344349 0.997285
vn -0.0602782 0.0275098 0.997802
vn 0.00747513 0.0155423 0.999851
vn 0.00737779 -0.00868471 0.999935
vn 0.0162211 -0.0220444 0.999625
vn -0.00563982 0.0154318 0.999865
vn -0.00414067 0.00521676 0.999978
vn -0.0021742 -0.0230838 0.999731
vn 0.0258359 -0.0260168 0.999328
vn 0.00459325 -0.00377048 0.999982
vn -0.0124816 0.0166988 0.999783
vn -0.0161503 0.00125703 0.999869
vn -0.0116994 -0.019544 0.999741
vn -0.0205302 0.017906 0.999629
vn -0.00114053 0.0294383 0.999566
vn 0.0407099 -0.00807791 0.999138
vn 0.0457667 0.0025637 0.998949
vn 0.0620244 -0.0262614 0.997729
vn -0.0208154 -0.00345626 0.999777
vn -0.0410545 0.00637612 0.999137
vn -0.0033679 0.0163778 0.99986
vn 0.00636615 0.0135591 0.999888
vn 0.0341194 0.0453804 0.998387
vn 0.0444583 0.0484926 0.997834
vn 0.0910397 0.0520958 0.994484
vn 0.105501 0.038109 0.993689
vn -0.0377886 0.00932592 0.999242
vn 0.000532975 0.0290648 0.999577
vn 0.0250607 0.0560894 0.998111
vn 0.0509821 0.0285463 0.998291
vn 0.0613977 0.0383033 0.997378
vn 0.0326606 0.0607946 0.997616
vn 0.0286878 0.0578199 0.997915
vn 0.081155 -0.00750684 0.996673
f 100/100/100 4/4/4 13/13/13
f 44/44/44 3/3/3 21/21/21
f 44/44/44 19/19/19 20/20/20
f 60/60/60 19/19/19 52/52/52
f 60/60/60 17/17/17 18/18/18
f 76/76/76 17/17/17 68/68/68
f 84/84/84 16/16/16 76/76/76
f 84/84/84 14/14/14 15/15/15
f 100/100/100 14/14/14 92/92/92
f 11/11/11 93/93/93 85/85/85
f 93/93/93 86/86/86 85/85/85
f 94/94/94 87/87/87 86/86/86
f 87/87/87 96/96/96 88/88/88
f 96/96/96 89/89/89 88/88/88
f 97/97/97 90/90/90 89/89/89
f 90/90/90 99/99/99 91/91/91
f 91/91/91 100/100/100 92/92/92
f 10/10/10 85/85/85 77/77/77
f 77/77/77 86/86/86 78/78/78
f 78/78/78 87/87/87 79/79/79
f 79/79/79 88/88/88 80/80/80
f 88/88/88 81/81/81 80/80/80
f 81/81/81 90/90/90 82/82/82
f 82/82/82 91/91/91 83/83/83
f 91/91/91 84/84/84 83/83/83
f 10/10/10 69/69/69 9/9/9
f 69/69/69 78/78/78 70/70/70
f 70/70/70 79/79/79 71/71/71
f 79/79/79 72/72/72 71/71/71
f 72/72/72 81/81/81 73/73/73
f 73/73/73 82/82/82 74/74/74
f 82/82/82 75/75/75 74/74/74
f 83/83/83 76/76/76 75/75/75
f 9/9/9 61/61/61 8/8/8
f 69/69/69 62/62/62 61/61/61
f 62/62/62 71/71/71 63/63/63
f 63/63/63 72/72/72 64/64/64
f 72/72/72 65/65/65 64/64/64
f 65/65/65 74/74/74 66/66/66
f 66/66/66 75/75/75 67/67/67
f 67/67/67 76/76/76 68/68/68
f 8/8/8 53/53/53 7/7/7
f 53/53/53 62/62/62 54/54/54
f 54/54/54 63/63/63 55/55/55
f 55/55/55 64/64/64 56/56/56
f 64/64/64 57/57/57 56/56/56
f 57/57/57 66/66/66 58/58/58
f 58/58/58 67/67/67 59/59/59
f 59/59/59 68/68/68 60/60/60
f 6/6/6 53/53/53 45/45/45
f 45/45/45 54/54/54 46/46/46
f 54/54/54 47/47/47 46/46/46
f 55/55/55 48/48/48 47/47/47
f 56/56/56 49/49/49 48/48/48
f 49/49/49 58/58/58 50/50/50
f 58/58/58 51/51/51 50/50/50
f 59/59/59 52/52/52 51/51/51
f 6/6/6 37/37/37 5/5/5
f 45/45/45 38/38/38 37/37/37
f 46/46/46 39/39/39 38/38/38
f 39/39/39 48/48/48 40/40/40
f 40/40/40 49/49/49 41/41/41
f 41/41/41 50/50/50 42/42/42
f 50/50/50 43/43/43 42/42/42
f 51/51/51 44/44/44 43/43/43
f 5/5/5 28/28/28 1/1/1
f 28/28/28 38/38/38 27/27/27
f 27/27/27 39/39/39 26/26/26
f 26/26/26 40/40/40 25/25/25
f 40/40/40 24/24/24 25/25/25
f 41/41/41 23/23/23 24/24/24
f 23/23/23 43/43/43 22/22/22
f 43/43/43 21/21/21 22/22/22
f 2/2/2 93/93/93 12/12/12
f 93/93/93 30/30/30 94/94/94
f 30/30/30 95/95/95 94/94/94
f 31/31/31 96/96/96 95/95/95
f 32/32/32 97/97/97 96/96/96
f 33/33/33 98/98/98 97/97/97
f 98/98/98 35/35/35 99/99/99
f 99/99/99 36/36/36 100/100/100
f 100/100/100 36/36/36 4/4/4
f 44/44/44 20/20/20 3/3/3
f 44/44/44 52/52/52 19/19/19
f 60/60/60 18/18/18 19/19/19
f 60/60/60 68/68/68 17/17/17
f 76/76/76 16/16/16 17/17/17
f 84/84/84 15/15/15 16/16/16
f 84/84/84 92/92/92 14/14/14
f 100/100/100 13/13/13 14/14/14
f 11/11/11 12/12/12 93/93/93
f 93/93/93 94/94/94 86/86/86
f 94/94/94 95/95/95 87/87/87
f 87/87/87 95/95/95 96/96/96
f 96/96/96 97/97/97 89/89/89
f 97/97/97 98/98/98 90/90/90
f 90/90/90 98/98/98 99/99/99
f 91/91/91 99/99/99 100/100/100
f 10/10/10 11/11/11 85/85/85
f 77/77/77 85/85/85 86/86/86
f 78/78/78 86/86/86 87/87/87
f 79/79/79 87/87/87 88/88/88
f 88/88/88 89/89/89 81/81/81
f 81/81/81 89/89/89 90/90/90
f 82/82/82 90/90/90 91/91/91
f 91/91/91 92/92/92 84/84/84
f 10/10/10 77/77/77 69/69/69
f 69/69/69 77/77/77 78/78/78
f 70/70/70 78/78/78 79/79/79
f 79/79/79 80/80/80 72/72/72
f 72/72/72 80/80/80 81/81/81
f 73/73/73 81/81/81 82/82/82
f 82/82/82 83/83/83 75/75/75
f 83/83/83 84/84/84 76/76/76
f 9/9/9 69/69/69 61/61/61
f 69/69/69 70/70/70 62/62/62
f 62/62/62 70/70/70 71/71/71
f 63/63/63 71/71/71 72/72/72
f 72/72/72 73/73/73 65/65/65
f 65/65/65 73/73/73 74/74/74
f 66/66/66 74/74/74 75/75/75
f 67/67/67 75/75/75 76/76/76
f 8/8/8 61/61/61 53/53/53
f 53/53/53 61/61/61 62/62/62
f 54/54/54 62/62/62 63/63/63
f 55/55/55 63/63/63 64/64/64
f 64/64/64 65/65/65 57/57/57
f 57/57/57 65/65/65 66/66/66
f 58/58/58 66/66/66 67/67/67
f 59/59/59 67/67/67 68/68/68
f 6/6/6 7/7/7 53/53/53
f 45/45/45 53/53/53 54/54/54
f 54/54/54 55/55/55 47/47/47
f 55/55/55 56/56/56 48/48/48
f 56/56/56 57/57/57 49/49/49
f 49/49/49 57/57/57 58/58/58
f 58/58/58 59/59/59 51/51/51
f 59/59/59 60/60/60 52/52/52
f 6/6/6 45/45/45 37/37/37
f 45/45/45 46/46/46 38/38/38
f 46/46/46 47/47/47 39/39/39
f 39/39/39 47/47/47 48/48/48
f 40/40/40 48/48/48 49/49/49
f 41/41/41 49/49/49 50/50/50
f 50/50/50 51/51/51 43/43/43
f 51/51/51 52/52/52 44/44/44
f 5/5/5 37/37/37 28/28/28
f 28/28/28 37/37/37 38/38/38
f 27/27/27 38/38/38 39/39/39
f 26/26/26 39/39/39 40/40/40
f 40/40/40 41/41/41 24/24/24
f 41/41/41 42/42/42 23/23/23
f 23/23/23 42/42/42 43/43/43
f 43/43/43 44/44/44 21/21/21
f 2/2/2 29/29/29 93/93/93
f 93/93/93 29/29/29 30/30/30
f 30/30/30 31/31/31 95/95/95
f 31/31/31 32/32/32 96/96/96
f 32/32/32 33/33/33 97/97/97
f 33/33/33 34/34/34 98/98/98
f 98/98/98 34/34/34 35/35/35
f 99/99/99 35/35/35 36/36/36
