o GNATVCloth
v -5.06398 -4.97908 0.466182
v 5.05033 -4.99744 0.467279
v -5.01298 5.02105 0.004229
v 4.98702 5.02105 0.004229
v -3.95469 -5.01433 0.446931
v -2.83569 -5.06271 0.402097
v -1.71153 -5.10344 0.313685
v -0.5806 -5.13378 0.30021
v 0.553755 -5.13477 0.305661
v 1.68498 -5.12731 0.345741
v 2.81417 -5.08505 0.318148
v 3.93743 -5.04157 0.355275
v 3.85923 4.9386 0.167124
v 2.74023 4.87362 0.290135
v 1.62752 4.81972 0.43294
v 0.50681 4.79958 0.415509
v -0.570667 4.78792 0.337499
v -1.659 4.81665 0.218581
v -2.77122 4.84987 0.266557
v -3.88281 4.9236 0.12106
v -5.00264 3.90736 0.0851838
v -4.99617 2.79139 0.105326
v -4.99978 1.67615 0.119594
v -5.00484 0.561672 0.149016
v -5.00597 -0.550074 0.208552
v -5.00817 -1.65905 0.296728
v -5.01664 -2.76864 0.406471
v -5.03299 -3.87186 0.529364
v 5.02733 -3.88603 0.419969
v 5.0093 -2.78003 0.308633
v 4.99732 -1.66916 0.243476
v 4.9885 -0.557132 0.190497
v 4.98217 0.55681 0.152689
v 4.97817 1.67198 0.115654
v 4.97521 2.78822 0.0870051
v 4.97413 3.90443 0.0440819
v -3.86207 -3.87629 0.4201
v -3.81787 -3.22764 0.360666
v -3.67261 -1.9515 0.156533
v -4.12076 -0.289446 0.119587
v -4.14724 0.726994 0.154905
v -4.13899 1.51179 0.165403
v -4.07434 2.80488 0.17787
v -3.93701 3.86556 -0.0619421
v -2.73769 -4.04901 0.308476
v -2.80483 -2.78334 0.210453
v -2.68884 -2.19819 0.277375
v -2.76605 -0.650849 0.341056
v -2.79944 0.480743 0.342353
v -2.71766 1.52208 0.219256
v -2.857 2.83892 -0.0525504
v -2.77282 3.51051 0.143023
v -1.67424 -4.29448 0.323362
v -1.50805 -2.98586 0.313262
v -1.90557 -1.6928 0.41108
v -1.88906 -0.896115 0.403579
v -1.54317 0.571388 0.140978
v -1.99893 1.62826 0.0131828
v -1.74811 2.65442 0.242657
v -1.57339 3.66814 0.251352
v -0.245794 -4.40263 0.331306
v -0.594133 -2.96205 0.339174
v -0.558435 -1.81965 0.349259
v -0.856477 -0.841567 0.287026
v -0.626566 0.367564 0.255735
v -0.397193 1.40107 0.29482
v -0.595419 2.57331 0.393802
v -0.765236 3.46438 0.311661
v 0.731744 -3.97961 0.336576
v 0.804528 -2.68453 0.267992
v 0.512801 -1.9002 0.309032
v 0.59375 -0.561674 0.312842
v 0.56184 0.347342 0.305407
v 0.27561 1.4561 0.314528
v 0.504052 2.43525 0.346869
v 0.525491 3.69232 0.328631
v 1.95203 -3.72225 0.300015
v 1.67058 -2.91437 0.28213
v 1.81404 -1.98686 0.338019
v 1.96833 -0.451023 0.297219
v 1.95009 0.235417 0.290166
v 1.80299 1.49876 0.256741
v 1.39537 2.77428 0.322665
v 1.45138 3.61809 0.291953
v 2.79851 -3.97348 0.32842
v 3.10027 -2.88302 0.357484
v 2.94788 -2.00799 0.313525
v 2.70864 -0.548389 0.335357
v 2.95373 0.247855 0.304662
v 3.05247 1.54781 0.198485
v 2.76531 3.1158 0.227166
v 2.72158 3.47984 0.173264
v 3.92999 -3.99874 0.368291
v 3.66452 -2.74713 0.369878
v 3.87169 -1.70611 0.311359
v 3.80346 -0.752118 0.261642
v 3.86536 0.260717 0.243466
v 4.16129 1.78337 0.157179
v 4.12629 2.74318 0.0514976
v 4.01716 3.86754 0.0112351
vt 0.0001 0.0001
vt 0.9999 0.0001
vt 0.0001 0.9999
vt 0.9999 0.9999
vt 0.111189 0.0001
vt 0.222278 0.0001
vt 0.333367 0.0001
vt 0.444455 0.0001
vt 0.555544 0.0001
vt 0.666633 0.0001
vt 0.777722 0.0001
vt 0.888811 0.0001
vt 0.888811 0.9999
vt 0.777722 0.9999
vt 0.666633 0.9999
vt 0.555544 0.9999
vt 0.444455 0.9999
vt 0.333367 0.9999
vt 0.222278 0.9999
vt 0.111189 0.9999
vt 0.0001 0.888811
vt 0.0001 0.777722
vt 0.0001 0.666633
vt 0.0001 0.555544
vt 0.0001 0.444456
vt 0.0001 0.333367
vt 0.0001 0.222278
vt 0.0001 0.111189
vt 0.9999 0.111189
vt 0.9999 0.222278
vt 0.9999 0.333367
vt 0.9999 0.444456
vt 0.9999 0.555544
vt 0.9999 0.666633
vt 0.9999 0.777722
vt 0.9999 0.888811
vt 0.11727 0.115399
vt 0.120778 0.180369
vt 0.134636 0.309595
vt 0.088728 0.473895
vt 0.085886 0.575352
vt 0.086211 0.65375
vt 0.092207 0.78313
vt 0.106956 0.892282
vt 0.22987 0.102869
vt 0.221803 0.229552
vt 0.233521 0.288953
vt 0.225541 0.443179
vt 0.221596 0.556167
vt 0.227801 0.661237
vt 0.214896 0.795203
vt 0.22542 0.865181
vt 0.335524 0.082127
vt 0.351143 0.213907
vt 0.311934 0.342467
vt 0.313159 0.422214
vt 0.347791 0.572605
vt 0.301482 0.677733
vt 0.329031 0.783086
vt 0.344903 0.885466
vt 0.476837 0.074882
vt 0.441952 0.218774
vt 0.445749 0.333088
vt 0.416414 0.43099
vt 0.439746 0.552976
vt 0.463203 0.656843
vt 0.444252 0.77653
vt 0.426137 0.866051
vt 0.573419 0.117409
vt 0.581125 0.246686
vt 0.552512 0.326
vt 0.561075 0.459693
vt 0.558356 0.550596
vt 0.530299 0.662189
vt 0.553275 0.760113
vt 0.555478 0.888821
vt 0.694433 0.13996
vt 0.667048 0.221666
vt 0.681985 0.314267
vt 0.698218 0.467249
vt 0.696819 0.535952
vt 0.68253 0.662758
vt 0.642062 0.791726
vt 0.648523 0.877957
vt 0.778029 0.111667
vt 0.809426 0.219523
vt 0.794923 0.307783
vt 0.772028 0.454562
vt 0.796846 0.533374
vt 0.807262 0.663157
vt 0.778581 0.821037
vt 0.775122 0.858219
vt 0.890224 0.104741
vt 0.865679 0.23076
vt 0.887326 0.334104
vt 0.881307 0.429754
vt 0.887973 0.53063
vt 0.918106 0.681428
vt 0.915043 0.778027
vt 0.904815 0.89094
vn 0.0155002 -0.0573965 0.998231
vn -0.0754786 0.0141518 0.997047
vn 0.0120988 -0.0459359 0.998871
vn 0.0578688 -0.0425976 0.997415
vn 0.0498437 -0.00709741 0.998732
vn 0.0592555 0.0442675 0.997261
vn 0.0447322 -0.0140126 0.998901
vn -0.000579626 -0.0304665 0.999536
vn -0.0111576 -0.0297925 0.999494
vn -0.00226526 0.00864681 0.99996
vn -0.0144098 -0.0104469 0.999842
vn -0.0661134 -0.0129251 0.997728
vn 0.133113 -0.123499 0.983376
vn 0.12015 -0.107553 0.986913
vn 0.0597434 -0.124956 0.990362
vn -0.017109 -0.0905691 0.995743
vn -0.0664946 -0.0213241 0.997559
vn -0.0321169 0.0261145 0.999143
vn -0.0934673 -0.0783524 0.992535
vn -0.127012 -0.162731 0.978461
vn 0.0679782 0.0979628 0.992866
vn -0.0786661 0.0152706 0.996784
vn -0.0501766 0.00494561 0.998728
vn 0.024108 0.0149949 0.999597
vn 0.08051 0.0660438 0.994563
vn 0.105799 0.0763133 0.991455
vn 0.0994888 0.117626 0.988062
vn 0.0704409 0.0381688 0.996785
vn -0.0541264 0.0702755 0.996058
vn 0.0234091 0.0534367 0.998297
vn 0.0561424 0.0543762 0.996941
vn 0.0605096 0.0321949 0.997648
vn 0.0656171 0.0368442 0.997164
vn 0.0547643 0.0295513 0.998062
vn -0.0122826 0.0573448 0.998279
vn -0.0383302 0.0355746 0.998632
vn 0.0897941 0.056978 0.994329
vn 0.0949116 0.109183 0.98948
vn -0.00399791 0.0419312 0.999112
vn -0.0285212 0.0120018 0.999521
vn -0.0608619 0.00891198 0.998106
vn -0.046401 -0.0100978 0.998872
vn 0.0354041 0.0908677 0.995234
vn -0.0345384 -0.0279047 0.999014
vn 0.0435162 0.0702906 0.996577
vn -0.0225109 0.0252631 0.999427
vn -0.12166 -0.0760766 0.989652
vn -0.12379 -0.0194568 0.992118
vn 0.00842668 0.0712912 0.99742
vn 0.0823503 0.107537 0.990785
vn -0.0371721 0.0016601 0.999308
vn -0.180265 -0.131573 0.974779
vn 0.00593247 0.00547805 0.999967
vn -0.0415829 -0.0254579 0.998811
vn -0.0171185 -0.0199847 0.999654
vn 0.044594 0.0617938 0.997092
vn -0.00230378 0.0938762 0.995581
vn -0.0189599 0.0144969 0.999715
vn -0.167232 -0.0814968 0.982544
vn -0.0638701 -0.00607947 0.99794
vn -0.00310301 -0.0239479 0.999708
vn 0.00984746 -1.45743e-05 0.999952
vn 0.018432 0.00804624 0.999798
vn 0.0171044 0.0620576 0.997926
vn -0.06242 0.00399518 0.998042
vn -0.0839865 -0.0357422 0.995826
vn -0.0680298 -0.0350473 0.997068
vn -0.0627535 0.026372 0.99768
vn 0.0078257 0.0152446 0.999853
vn 0.00764041 -0.00898199 0.99993
vn 0.0164411 -0.0219379 0.999624
vn -0.00592678 0.0162717 0.99985
vn -0.00421433 0.00514961 0.999978
vn -0.00382543 -0.0236504 0.999713
vn 0.0254095 -0.0263173 0.999331
vn 0.00460974 -0.00387851 0.999982
vn -0.0132118 0.0165696 0.999775
vn -0.0159398 0.00154657 0.999872
vn -0.0108638 -0.0195448 0.99975
vn -0.0194545 0.019103 0.999628
vn 9.94942e-06 0.0305098 0.999534
vn 0.0428975 -0.00799827 0.999047
vn 0.0487201 0.00289537 0.998808
vn 0.0644759 -0.0268807 0.997557
vn -0.0214395 -0.00292808 0.999766
vn -0.0389006 0.00843165 0.999207
vn -0.00134067 0.0167478 0.999859
vn 0.00760084 0.0141276 0.999871
vn 0.0345212 0.0465746 0.998318
vn 0.0446463 0.0497752 0.997762
vn 0.0918508 0.0520918 0.994409
vn 0.105274 0.0363977 0.993777
vn -0.0358365 0.0113823 0.999293
vn 0.00439135 0.0307465 0.999518
vn 0.0263319 0.0545404 0.998164
vn 0.0510292 0.0280256 0.998304
vn 0.0596667 0.0388722 0.997461
vn 0.0286766 0.0619279 0.997669
vn 0.0263852 0.0573757 0.998004
vn 0.08082 -0.0084986 0.996692
f 100/100/100 4/4/4 13/13/13
f 44/44/44 3/3/3 21/21/21
f 44/44/44 19/19/19 20/20/20
f 60/60/60 19/19/19 52/52/52
f 60/60/60 17/17/17 18/18/18
f 76/76/76 17/17/17 68/68/68
f 84/84/84 16/16/16 76/76/76
f 84/84/84 14/14/14 15/15/15
f 100/100/100 14/14/14 92/92/92
f 11/11/11 93/93/93 85/85/85
f 93/93/93 86/86/86 85/85/85
f 94/94/94 87/87/87 86/86/86
f 87/87/87 96/96/96 88/88/88
f 96/96/96 89/89/89 88/88/88
f 97/97/97 90/90/90 89/89/89
f 90/90/90 99/99/99 91/91/91
f 91/91/91 100/100/100 92/92/92
f 10/10/10 85/85/85 77/77/77
f 77/77/77 86/86/86 78/78/78
f 78/78/78 87/87/87 79/79/79
f 79/79/79 88/88/88 80/80/80
f 88/88/88 81/81/81 80/80/80
f 81/81/81 90/90/90 82/82/82
f 82/82/82 91/91/91 83/83/83
f 91/91/91 84/84/84 83/83/83
f 10/10/10 69/69/69 9/9/9
f 69/69/69 78/78/78 70/70/70
f 70/70/70 79/79/79 71/71/71
f 79/79/79 72/72/72 71/71/71
f 72/72/72 81/81/81 73/73/73
f 73/73/73 82/82/82 74/74/74
f 82/82/82 75/75/75 74/74/74
f 83/83/83 76/76/76 75/75/75
f 9/9/9 61/61/61 8/8/8
f 69/69/69 62/62/62 61/61/61
f 62/62/62 71/71/71 63/63/63
f 63/63/63 72/72/72 64/64/64
f 72/72/72 65/65/65 64/64/64
f 65/65/65 74/74/74 66/66/66
f 66/66/66 75/75/75 67/67/67
f 67/67/67 76/76/76 68/68/68
f 8/8/8 53/53/53 7/7/7
f 53/53/53 62/62/62 54/54/54
f 54/54/54 63/63/63 55/55/55
f 55/55/55 64/64/64 56/56/56
f 64/64/64 57/57/57 56/56/56
f 57/57/57 66/66/66 58/58/58
f 58/58/58 67/67/67 59/59/59
f 59/59/59 68/68/68 60/60/60
f 6/6/6 53/53/53 45/45/45
f 45/45/45 54/54/54 46/46/46
f 54/54/54 47/47/47 46/46/46
f 55/55/55 48/48/48 47/47/47
f 56/56/56 49/49/49 48/48/48
f 49/49/49 58/58/58 50/50/50
f 58/58/58 51/51/51 50/50/50
f 59/59/59 52/52/52 51/51/51
f 6/6/6 37/37/37 5/5/5
f 45/45/45 38/38/38 37/37/37
f 46/46/46 39/39/39 38/38/38
f 39/39/39 48/48/48 40/40/40
f 40/40/40 49/49/49 41/41/41
f 41/41/41 50/50/50 42/42/42
f 50/50/50 43/43/43 42/42/42
f 51/51/51 44/44/44 43/43/43
f 5/5/5 28/28/28 1/1/1
f 28/28/28 38/38/38 27/27/27
f 27/27/27 39/39/39 26/26/26
f 26/26/26 40/40/40 25/25/25
f 40/40/40 24/24/24 25/25/25
f 41/41/41 23/23/23 24/24/24
f 23/23/23 43/43/43 22/22/22
f 43/43/43 21/21/21 22/22/22
f 2/2/2 93/93/93 12/12/12
f 93/93/93 30/30/30 94/94/94
f 30/30/30 95/95/95 94/94/94
f 31/31/31 96/96/96 95/95/95
f 32/32/32 97/97/97 96/96/96
f 33/33/33 98/98/98 97/97/97
f 98/98/98 35/35/35 99/99/99
f 99/99/99 36/36/36 100/100/100
f 100/100/100 36/36/36 4/4/4
f 44/44/44 20/20/20 3/3/3
f 44/44/44 52/52/52 19/19/19
f 60/60/60 18/18/18 19/19/19
f 60/60/60 68/68/68 17/17/17
f 76/76/76 16/16/16 17/17/17
f 84/84/84 15/15/15 16/16/16
f 84/84/84 92/92/92 14/14/14
f 100/100/100 13/13/13 14/14/14
f 11/11/11 12/12/12 93/93/93
f 93/93/93 94/94/94 86/86/86
f 94/94/94 95/95/95 87/87/87
f 87/87/87 95/95/95 96/96/96
f 96/96/96 97/97/97 89/89/89
f 97/97/97 98/98/98 90/90/90
f 90/90/90 98/98/98 99/99/99
f 91/91/91 99/99/99 100/100/100
f 10/10/10 11/11/11 85/85/85
f 77/77/77 85/85/85 86/86/86
f 78/78/78 86/86/86 87/87/87
f 79/79/79 87/87/87 88/88/88
f 88/88/88 89/89/89 81/81/81
f 81/81/81 89/89/89 90/90/90
f 82/82/82 90/90/90 91/91/91
f 91/91/91 92/92/92 84/84/84
f 10/10/10 77/77/77 69/69/69
f 69/69/69 77/77/77 78/78/78
f 70/70/70 78/78/78 79/79/79
f 79/79/79 80/80/80 72/72/72
f 72/72/72 80/80/80 81/81/81
f 73/73/73 81/81/81 82/82/82
f 82/82/82 83/83/83 75/75/75
f 83/83/83 84/84/84 76/76/76
f 9/9/9 69/69/69 61/61/61
f 69/69/69 70/70/70 62/62/62
f 62/62/62 70/70/70 71/71/71
f 63/63/63 71/71/71 72/72/72
f 72/72/72 73/73/73 65/65/65
f 65/65/65 73/73/73 74/74/74
f 66/66/66 74/74/74 75/75/75
f 67/67/67 75/75/75 76/76/76
f 8/8/8 61/61/61 53/53/53
f 53/53/53 61/61/61 62/62/62
f 54/54/54 62/62/62 63/63/63
f 55/55/55 63/63/63 64/64/64
f 64/64/64 65/65/65 57/57/57
f 57/57/57 65/65/65 66/66/66
f 58/58/58 66/66/66 67/67/67
f 59/59/59 67/67/67 68/68/68
f 6/6/6 7/7/7 53/53/53
f 45/45/45 53/53/53 54/54/54
f 54/54/54 55/55/55 47/47/47
f 55/55/55 56/56/56 48/48/48
f 56/56/56 57/57/57 49/49/49
f 49/49/49 57/57/57 58/58/58
f 58/58/58 59/59/59 51/51/51
f 59/59/59 60/60/60 52/52/52
f 6/6/6 45/45/45 37/37/37
f 45/45/45 46/46/46 38/38/38
f 46/46/46 47/47/47 39/39/39
f 39/39/39 47/47/47 48/48/48
f 40/40/40 48/48/48 49/49/49
f 41/41/41 49/49/49 50/50/50
f 50/50/50 51/51/51 43/43/43
f 51/51/51 52/52/52 44/44/44
f 5/5/5 37/37/37 28/28/28
f 28/28/28 37/37/37 38/38/38
f 27/27/27 38/38/38 39/39/39
f 26/26/26 39/39/39 40/40/40
f 40/40/40 41/41/41 24/24/24
f 41/41/41 42/42/42 23/23/23
f 23/23/23 42/42/42 43/43/43
f 43/43/43 44/44/44 21/21/21
f 2/2/2 29/29/29 93/93/93
f 93/93/93 29/29/29 30/30/30
f 30/30/30 31/31/31 95/95/95
f 31/31/31 32/32/32 96/96/96
f 32/32/32 33/33/33 97/97/97
f 33/33/33 34/34/34 98/98/98
f 98/98/98 34/34/34 35/35/35
f 99/99/99 35/35/35 36/36/36
