o GNATVCloth
v -5.1086 -4.98694 0.50087
v 5.00957 -4.99355 0.457678
v -5.01298 5.02105 0.004229
v 4.98702 5.02105 0.004229
v -3.99024 -5.0287 0.497858
v -2.87182 -5.08158 0.422347
v -1.74456 -5.11745 0.402536
v -0.615366 -5.13529 0.363055
v 0.514927 -5.13069 0.365295
v 1.64319 -5.11073 0.347203
v 2.76859 -5.077 0.400547
v 3.89101 -5.03745 0.423872
v 3.84589 4.94371 0.15892
v 2.72007 4.87228 0.323396
v 1.59467 4.80281 0.412312
v 0.47796 4.72318 0.475263
v -0.633478 4.67386 0.372475
v -1.68279 4.71974 0.240403
v -2.79393 4.79279 0.367039
v -3.89891 4.88739 0.195746
v -5.01004 3.90692 0.0827335
v -5.01057 2.79054 0.104073
v -5.02224 1.67498 0.123159
v -5.03434 0.560362 0.164511
v -5.03834 -0.551147 0.250781
v -5.04746 -1.66205 0.328892
v -5.056 -2.76914 0.438325
v -5.07013 -3.8741 0.550349
v 4.98251 -3.88766 0.407292
v 4.97257 -2.78281 0.27227
v 4.96829 -1.67006 0.257968
v 4.96451 -0.556668 0.234404
v 4.96192 0.557928 0.20777
v 4.96053 1.67342 0.165728
v 4.96146 2.78933 0.120295
v 4.9647 3.90481 0.0568584
v -3.89969 -3.88076 0.438098
v -3.86024 -3.23994 0.329545
v -3.71261 -1.96121 0.16767
v -4.15323 -0.297152 0.144216
v -4.17438 0.719607 0.176133
v -4.16085 1.50451 0.174047
v -4.08663 2.79983 0.17033
v -3.94962 3.85355 -0.0960873
v -2.77634 -4.06255 0.317897
v -2.84197 -2.79601 0.207441
v -2.72821 -2.2105 0.2925
v -2.79755 -0.664397 0.342594
v -2.82318 0.468516 0.333043
v -2.73479 1.5106 0.217109
v -2.87712 2.81603 -0.104662
v -2.80868 3.46084 0.168344
v -1.71321 -4.30449 0.338653
v -1.55058 -2.99292 0.362195
v -1.94672 -1.70408 0.449084
v -1.92384 -0.906875 0.43025
v -1.57203 0.549058 0.0796808
v -2.02371 1.60547 -0.0212173
v -1.77419 2.63333 0.212607
v -1.60988 3.60148 0.280693
v -0.285796 -4.38801 0.367412
v -0.636851 -2.9572 0.372777
v -0.598213 -1.81386 0.40486
v -0.891694 -0.851464 0.310585
v -0.658587 0.351692 0.250045
v -0.42346 1.3725 0.279098
v -0.620914 2.55944 0.385027
v -0.8032 3.41073 0.346109
v 0.688914 -3.95813 0.357757
v 0.765543 -2.66287 0.352093
v 0.476863 -1.87615 0.361752
v 0.56461 -0.554617 0.343673
v 0.535324 0.34919 0.319563
v 0.250005 1.43532 0.347557
v 0.481683 2.4161 0.394416
v 0.49767 3.66268 0.392792
v 1.90851 -3.70606 0.380566
v 1.63076 -2.89962 0.323632
v 1.78213 -1.97282 0.371527
v 1.94244 -0.439177 0.339696
v 1.92745 0.241389 0.268326
v 1.78368 1.49241 0.274445
v 1.37547 2.76037 0.335274
v 1.4366 3.59171 0.322816
v 2.7539 -3.96299 0.393475
v 3.06335 -2.87619 0.369939
v 2.91611 -2.0003 0.295191
v 2.68492 -0.537894 0.3496
v 2.93009 0.258566 0.301757
v 3.02978 1.54358 0.108473
v 2.74262 3.10996 0.169155
v 2.70161 3.46879 0.136857
v 3.88444 -3.99835 0.373118
v 3.62869 -2.74624 0.345379
v 3.84169 -1.70368 0.302672
v 3.77816 -0.749034 0.26474
v 3.84276 0.263676 0.258996
v 4.14178 1.78321 0.165306
v 4.1128 2.74369 0.0548179
v 4.00631 3.86808 0.0375242
vt 0.0001 0.0001
vt 0.9999 0.0001
vt 0.0001 0.9999
vt 0.9999 0.9999
vt 0.111189 0.0001
vt 0.222278 0.0001
vt 0.333367 0.0001
vt 0.444455 0.0001
vt 0.555544 0.0001
vt 0.666633 0.0001
vt 0.777722 0.0001
vt 0.888811 0.0001
vt 0.888811 0.9999
vt 0.777722 0.9999
vt 0.666633 0.9999
vt 0.555544 0.9999
vt 0.444455 0.9999
vt 0.333367 0.9999
vt 0.222278 0.9999
vt 0.111189 0.9999
vt 0.0001 0.888811
vt 0.0001 0.777722
vt 0.0001 0.666633
vt 0.0001 0.555544
vt 0.0001 0.444456
vt 0.0001 0.333367
vt 0.0001 0.222278
vt 0.0001 0.111189
vt 0.9999 0.111189
vt 0.9999 0.222278
vt 0.9999 0.333367
vt 0.9999 0.444456
vt 0.9999 0.555544
vt 0.9999 0.666633
vt 0.9999 0.777722
vt 0.9999 0.888811
vt 0.11727 0.115399
vt 0.120778 0.180369
vt 0.134636 0.309595
vt 0.088728 0.473895
vt 0.085886 0.575352
vt 0.086211 0.65375
vt 0.092207 0.78313
vt 0.106956 0.892282
vt 0.22987 0.102869
vt 0.221803 0.229552
vt 0.233521 0.288953
vt 0.225541 0.443179
vt 0.221596 0.556167
vt 0.227801 0.661237
vt 0.214896 0.795203
vt 0.22542 0.865181
vt 0.335524 0.082127
vt 0.351143 0.213907
vt 0.311934 0.342467
vt 0.313159 0.422214
vt 0.347791 0.572605
vt 0.301482 0.677733
vt 0.329031 0.783086
vt 0.344903 0.885466
vt 0.476837 0.074882
vt 0.441952 0.218774
vt 0.445749 0.333088
vt 0.416414 0.43099
vt 0.439746 0.552976
vt 0.463203 0.656843
vt 0.444252 0.77653
vt 0.426137 0.866051
vt 0.573419 0.117409
vt 0.581125 0.246686
vt 0.552512 0.326
vt 0.561075 0.459693
vt 0.558356 0.550596
vt 0.530299 0.662189
vt 0.553275 0.760113
vt 0.555478 0.888821
vt 0.694433 0.13996
vt 0.667048 0.221666
vt 0.681985 0.314267
vt 0.698218 0.467249
vt 0.696819 0.535952
vt 0.68253 0.662758
vt 0.642062 0.791726
vt 0.648523 0.877957
vt 0.778029 0.111667
vt 0.809426 0.219523
vt 0.794923 0.307783
vt 0.772028 0.454562
vt 0.796846 0.533374
vt 0.807262 0.663157
vt 0.778581 0.821037
vt 0.775122 0.858219
vt 0.890224 0.104741
vt 0.865679 0.23076
vt 0.887326 0.334104
vt 0.881307 0.429754
vt 0.887973 0.53063
vt 0.918106 0.681428
vt 0.915043 0.778027
vt 0.904815 0.89094
vn 0.00103158 -0.044453 0.999011
vn -0.0338232 0.046588 0.998341
vn -0.0125612 -0.0969531 0.99521
vn 0.0592514 -0.0215787 0.99801
vn 0.0554701 0.015416 0.998341
vn 0.0534478 0.0790076 0.99544
vn 0.02802 0.0772338 0.996619
vn 0.00471164 0.0249961 0.999676
vn 0.00718859 0.00146663 0.999973
vn -0.0167964 -0.00774892 0.999829
vn -0.0172673 0.0203224 0.999644
vn -0.0272716 0.0485952 0.998446
vn 0.144652 -0.0896401 0.985414
vn 0.120113 -0.109512 0.986702
vn 0.0727773 -0.0829437 0.993893
vn 0.0140188 -0.0790522 0.996772
vn -0.0820369 -0.0193469 0.996442
vn -0.00387846 0.0357524 0.999353
vn -0.101086 -0.127631 0.986657
vn -0.181648 -0.258881 0.948675
vn 0.0911308 0.104095 0.990383
vn -0.0716999 0.0184543 0.997256
vn -0.0520411 0.0162373 0.998513
vn 0.023187 0.027539 0.999352
vn 0.0985924 0.0728208 0.99246
vn 0.123639 0.071291 0.989763
vn 0.133937 0.101371 0.985792
vn 0.0803975 0.0649443 0.994645
vn -0.0393342 0.082776 0.995792
vn 0.0266746 0.0492882 0.998428
vn 0.0332475 0.025484 0.999122
vn 0.0288155 0.0164256 0.99945
vn 0.0250281 0.0390211 0.998925
vn 0.00473758 0.0391713 0.999221
vn -0.0525017 0.0697368 0.996183
vn -0.0408519 0.0392781 0.998393
vn 0.102333 0.0999634 0.989715
vn 0.105682 0.122499 0.986826
vn 0.00452617 0.0281403 0.999594
vn -0.013907 0.0155204 0.999783
vn -0.0552674 0.0161672 0.998341
vn -0.0441059 0.00440216 0.999017
vn 0.05314 0.106793 0.99286
vn -0.0597162 -0.0741272 0.995459
vn 0.0342442 0.0847449 0.995814
vn -0.0501664 0.0120847 0.998668
vn -0.144986 -0.0827133 0.98597
vn -0.132202 -0.0110969 0.991161
vn 0.0319498 0.0777861 0.996458
vn 0.108903 0.12217 0.986516
vn -0.0411551 -0.0177332 0.998995
vn -0.215868 -0.207476 0.954125
vn -0.00211265 0.0312654 0.999509
vn -0.055547 -0.0372543 0.997761
vn -0.0351809 -0.00806764 0.999348
vn 0.0420801 0.0910247 0.994959
vn -0.00994874 0.115422 0.993267
vn -0.00988845 0.0118101 0.999881
vn -0.183961 -0.128759 0.974464
vn -0.0579992 -0.0325421 0.997786
vn -0.00491922 -0.00133806 0.999987
vn 0.0052569 -0.0123525 0.99991
vn 0.0163747 0.0151241 0.999752
vn 0.00287491 0.0945182 0.995519
vn -0.0997883 0.0218182 0.994769
vn -0.130885 -0.0354572 0.990763
vn -0.0964937 -0.0575839 0.993666
vn -0.0799119 -0.00600073 0.996784
vn 0.0051638 0.00755088 0.999958
vn 0.0145862 -0.0140861 0.999794
vn 0.0160172 -0.00521576 0.999858
vn -0.00799012 0.0431328 0.999037
vn 0.0015077 -0.000423599 0.999999
vn -0.0320502 -0.0286283 0.999076
vn 0.0105247 -0.0330121 0.999399
vn 0.00530487 -0.0177131 0.999829
vn -0.0215803 0.0203984 0.999559
vn 0.00321701 0.0140063 0.999897
vn 0.0179624 -0.0146086 0.999732
vn -0.00363533 0.0627921 0.99802
vn 0.0189142 0.0670213 0.997572
vn 0.0852984 -0.0155503 0.996234
vn 0.0915719 -0.00315523 0.995794
vn 0.0995214 -0.0362129 0.994376
vn -0.00801296 0.00657853 0.999946
vn 0.000539392 0.0495569 0.998771
vn 0.0215926 0.0197164 0.999572
vn 0.0298208 0.0297994 0.999111
vn 0.0212966 0.0809662 0.996489
vn 0.030051 0.0652865 0.997414
vn 0.106157 0.0263415 0.994
vn 0.112964 -0.0160575 0.993469
vn -0.000581199 0.0436208 0.999048
vn 0.0294324 0.0454249 0.998534
vn 0.0179484 0.0337654 0.999269
vn 0.0383308 0.0167156 0.999125
vn 0.0201754 0.0510673 0.998491
vn -0.0306202 0.0720141 0.996933
vn -0.0153251 0.0489641 0.998683
vn 0.0715578 -0.0189686 0.997256
f 100/100/100 4/4/4 13/13/13
f 44/44/44 3/3/3 21/21/21
f 44/44/44 19/19/19 20/20/20
f 60/60/60 19/19/19 52/52/52
f 60/60/60 17/17/17 18/18/18
f 76/76/76 17/17/17 68/68/68
f 84/84/84 16/16/16 76/76/76
f 84/84/84 14/14/14 15/15/15
f 100/100/100 14/14/14 92/92/92
f 11/11/11 93/93/93 85/85/85
f 93/93/93 86/86/86 85/85/85
f 94/94/94 87/87/87 86/86/86
f 87/87/87 96/96/96 88/88/88
f 96/96/96 89/89/89 88/88/88
f 97/97/97 90/90/90 89/89/89
f 90/90/90 99/99/99 91/91/91
f 91/91/91 100/100/100 92/92/92
f 10/10/10 85/85/85 77/77/77
f 77/77/77 86/86/86 78/78/78
f 78/78/78 87/87/87 79/79/79
f 79/79/79 88/88/88 80/80/80
f 88/88/88 81/81/81 80/80/80
f 81/81/81 90/90/90 82/82/82
f 82/82/82 91/91/91 83/83/83
f 91/91/91 84/84/84 83/83/83
f 10/10/10 69/69/69 9/9/9
f 69/69/69 78/78/78 70/70/70
f 70/70/70 79/79/79 71/71/71
f 79/79/79 72/72/72 71/71/71
f 72/72/72 81/81/81 73/73/73
f 73/73/73 82/82/82 74/74/74
f 82/82/82 75/75/75 74/74/74
f 83/83/83 76/76/76 75/75/75
f 9/9/9 61/61/61 8/8/8
f 69/69/69 62/62/62 61/61/61
f 62/62/62 71/71/71 63/63/63
f 63/63/63 72/72/72 64/64/64
f 72/72/72 65/65/65 64/64/64
f 65/65/65 74/74/74 66/66/66
f 66/66/66 75/75/75 67/67/67
f 67/67/67 76/76/76 68/68/68
f 8/8/8 53/53/53 7/7/7
f 53/53/53 62/62/62 54/54/54
f 54/54/54 63/63/63 55/55/55
f 55/55/55 64/64/64 56/56/56
f 64/64/64 57/57/57 56/56/56
f 57/57/57 66/66/66 58/58/58
f 58/58/58 67/67/67 59/59/59
f 59/59/59 68/68/68 60/60/60
f 6/6/6 53/53/53 45/45/45
f 45/45/45 54/54/54 46/46/46
f 54/54/54 47/47/47 46/46/46
f 55/55/55 48/48/48 47/47/47
f 56/56/56 49/49/49 48/48/48
f 49/49/49 58/58/58 50/50/50
f 58/58/58 51/51/51 50/50/50
f 59/59/59 52/52/52 51/51/51
f 6/6/6 37/37/37 5/5/5
f 45/45/45 38/38/38 37/37/37
f 46/46/46 39/39/39 38/38/38
f 39/39/39 48/48/48 40/40/40
f 40/40/40 49/49/49 41/41/41
f 41/41/41 50/50/50 42/42/42
f 50/50/50 43/43/43 42/42/42
f 51/51/51 44/44/44 43/43/43
f 5/5/5 28/28/28 1/1/1
f 28/28/28 38/38/38 27/27/27
f 27/27/27 39/39/39 26/26/26
f 26/26/26 40/40/40 25/25/25
f 40/40/40 24/24/24 25/25/25
f 41/41/41 23/23/23 24/24/24
f 23/23/23 43/43/43 22/22/22
f 43/43/43 21/21/21 22/22/22
f 2/2/2 93/93/93 12/12/12
f 93/93/93 30/30/30 94/94/94
f 30/30/30 95/95/95 94/94/94
f 31/31/31 96/96/96 95/95/95
f 32/32/32 97/97/97 96/96/96
f 33/33/33 98/98/98 97/97/97
f 98/98/98 35/35/35 99/99/99
f 99/99/99 36/36/36 100/100/100
f 100/100/100 36/36/36 4/4/4
f 44/44/44 20/20/20 3/3/3
f 44/44/44 52/52/52 19/19/19
f 60/60/60 18/18/18 19/19/19
f 60/60/60 68/68/68 17/17/17
f 76/76/76 16/16/16 17/17/17
f 84/84/84 15/15/15 16/16/16
f 84/84/84 92/92/92 14/14/14
f 100/100/100 13/13/13 14/14/14
f 11/11/11 12/12/12 93/93/93
f 93/93/93 94/94/94 86/86/86
f 94/94/94 95/95/95 87/87/87
f 87/87/87 95/95/95 96/96/96
f 96/96/96 97/97/97 89/89/89
f 97/97/97 98/98/98 90/90/90
f 90/90/90 98/98/98 99/99/99
f 91/91/91 99/99/99 100/100/100
f 10/10/10 11/11/11 85/85/85
f 77/77/77 85/85/85 86/86/86
f 78/78/78 86/86/86 87/87/87
f 79/79/79 87/87/87 88/88/88
f 88/88/88 89/89/89 81/81/81
f 81/81/81 89/89/89 90/90/90
f 82/82/82 90/90/90 91/91/91
f 91/91/91 92/92/92 84/84/84
f 10/10/10 77/77/77 69/69/69
f 69/69/69 77/77/77 78/78/78
f 70/70/70 78/78/78 79/79/79
f 79/79/79 80/80/80 72/72/72
f 72/72/72 80/80/80 81/81/81
f 73/73/73 81/81/81 82/82/82
f 82/82/82 83/83/83 75/75/75
f 83/83/83 84/84/84 76/76/76
f 9/9/9 69/69/69 61/61/61
f 69/69/69 70/70/70 62/62/62
f 62/62/62 70/70/70 71/71/71
f 63/63/63 71/71/71 72/72/72
f 72/72/72 73/73/73 65/65/65
f 65/65/65 73/73/73 74/74/74
f 66/66/66 74/74/74 75/75/75
f 67/67/67 75/75/75 76/76/76
f 8/8/8 61/61/61 53/53/53
f 53/53/53 61/61/61 62/62/62
f 54/54/54 62/62/62 63/63/63
f 55/55/55 63/63/63 64/64/64
f 64/64/64 65/65/65 57/57/57
f 57/57/57 65/65/65 66/66/66
f 58/58/58 66/66/66 67/67/67
f 59/59/59 67/67/67 68/68/68
f 6/6/6 7/7/7 53/53/53
f 45/45/45 53/53/53 54/54/54
f 54/54/54 55/55/55 47/47/47
f 55/55/55 56/56/56 48/48/48
f 56/56/56 57/57/57 49/49/49
f 49/49/49 57/57/57 58/58/58
f 58/58/58 59/59/59 51/51/51
f 59/59/59 60/60/60 52/52/52
f 6/6/6 45/45/45 37/37/37
f 45/45/45 46/46/46 38/38/38
f 46/46/46 47/47/47 39/39/39
f 39/39/39 47/47/47 48/48/48
f 40/40/40 48/48/48 49/49/49
f 41/41/41 49/49/49 50/50/50
f 50/50/50 51/51/51 43/43/43
f 51/51/51 52/52/52 44/44/44
f 5/5/5 37/37/37 28/28/28
f 28/28/28 37/37/37 38/38/38
f 27/27/27 38/38/38 39/39/39
f 26/26/26 39/39/39 40/40/40
f 40/40/40 41/41/41 24/24/24
f 41/41/41 42/42/42 23/23/23
f 23/23/23 42/42/42 43/43/43
f 43/43/43 44/44/44 21/21/21
f 2/2/2 29/29/29 93/93/93
f 93/93/93 29/29/29 30/30/30
f 30/30/30 31/31/31 95/95/95
f 31/31/31 32/32/32 96/96/96
f 32/32/32 33/33/33 97/97/97
f 33/33/33 34/34/34 98/98/98
f 98/98/98 34/34/34 35/35/35
f 99/99/99 35/35/35 36/36/36
