o GNATVCloth
v -5.00083 -5.00835 0.179527
v 5.15919 -5.00878 0.170527
v -5.01298 5.02105 0.004229
v 4.98702 5.02105 0.004229
v -3.8819 -5.05525 0.137977
v -2.75863 -5.10176 0.10541
v -1.62787 -5.1358 0.122542
v -0.493399 -5.17272 0.114084
v 0.646106 -5.17563 0.0544725
v 1.78124 -5.1546 0.0834818
v 2.91156 -5.11601 0.121293
v 4.03866 -5.05374 0.162219
v 3.85961 4.92498 0.120343
v 2.74184 4.83188 0.106389
v 1.65806 4.77131 0.146548
v 0.611676 4.73174 0.116802
v -0.460777 4.76873 0.0877194
v -1.58411 4.81953 0.159068
v -2.71634 4.89524 0.111968
v -3.85799 4.95174 0.0722927
v -4.97248 3.90447 0.0336341
v -4.96197 2.78796 0.0742473
v -4.95694 1.67199 0.115785
v -4.95487 0.555883 0.13559
v -4.95712 -0.559475 0.138735
v -4.9644 -1.67421 0.142235
v -4.97275 -2.78754 0.135587
v -4.97976 -3.9013 0.124419
v 5.13097 -3.89869 0.154615
v 5.12176 -2.78747 0.101963
v 5.10793 -1.67436 0.120865
v 5.09156 -0.560116 0.125186
v 5.07608 0.555048 0.130925
v 5.05886 1.67155 0.118407
v 5.03873 2.78807 0.0873934
v 5.01302 3.90461 0.0491486
v -3.79797 -3.90626 0.107507
v -3.75944 -3.25827 0.0903532
v -3.61317 -1.97049 0.0660686
v -4.0703 -0.303738 0.0746506
v -4.09851 0.714021 0.0837855
v -4.09455 1.49911 0.0953469
v -4.0395 2.79187 0.074533
v -3.89478 3.87661 0.0505341
v -2.66274 -4.08069 0.0954664
v -2.73766 -2.81145 0.0951606
v -2.61697 -2.22519 0.0855004
v -2.69424 -0.678215 0.0937449
v -2.73535 0.454254 0.0832686
v -2.67355 1.50283 0.0843116
v -2.80436 2.84997 0.0826262
v -2.69861 3.54641 0.0942935
v -1.59622 -4.33136 0.0698886
v -1.43073 -3.01776 0.0619075
v -1.82513 -1.71994 0.116403
v -1.81249 -0.923867 0.114181
v -1.46647 0.567261 0.0812505
v -1.93354 1.6352 0.0796572
v -1.65765 2.67765 0.0840986
v -1.49168 3.69541 0.0825871
v -0.159487 -4.4395 0.0848815
v -0.511969 -2.99771 0.0705725
v -0.473562 -1.85445 0.0848409
v -0.772915 -0.871181 0.0816649
v -0.54344 0.34334 0.0841997
v -0.311697 1.37278 0.0876573
v -0.502683 2.5753 0.0824425
v -0.677299 3.46871 0.0928652
v 0.821817 -4.01842 0.0714986
v 0.896775 -2.72424 0.101003
v 0.605218 -1.93847 0.101563
v 0.684569 -0.603383 0.0608843
v 0.651612 0.306349 0.0898701
v 0.36025 1.41512 0.0961437
v 0.588817 2.38685 0.0909873
v 0.61022 3.63525 0.084934
v 2.04863 -3.75475 0.106003
v 1.76662 -2.94827 0.0853368
v 1.9125 -2.01775 0.0771407
v 2.06414 -0.484797 0.106611
v 2.04612 0.201705 0.0759175
v 1.88646 1.45463 0.0605655
v 1.47716 2.72183 0.0994779
v 1.51844 3.55132 0.0777809
v 2.8983 -4.0014 0.09355
v 3.20493 -2.90801 0.102316
v 3.05231 -2.0345 0.0679184
v 2.80752 -0.576938 0.0879033
v 3.04682 0.22352 0.0989444
v 3.13342 1.52726 0.0687139
v 2.81244 3.08023 0.0800045
v 2.76692 3.44237 0.117389
v 4.03187 -4.01855 0.064789
v 3.77109 -2.76914 0.112269
v 3.97898 -1.72368 0.105411
v 3.90758 -0.769169 0.070152
v 3.96029 0.24359 0.0888788
v 4.23983 1.76891 0.0830707
v 4.18879 2.73369 0.0775348
v 4.05812 3.85622 0.0633356
vt 0.0001 0.0001
vt 0.9999 0.0001
vt 0.0001 0.9999
vt 0.9999 0.9999
vt 0.111189 0.0001
vt 0.222278 0.0001
vt 0.333367 0.0001
vt 0.444455 0.0001
vt 0.555544 0.0001
vt 0.666633 0.0001
vt 0.777722 0.0001
vt 0.888811 0.0001
vt 0.888811 0.9999
vt 0.777722 0.9999
vt 0.666633 0.9999
vt 0.555544 0.9999
vt 0.444455 0.9999
vt 0.333367 0.9999
vt 0.222278 0.9999
vt 0.111189 0.9999
vt 0.0001 0.888811
vt 0.0001 0.777722
vt 0.0001 0.666633
vt 0.0001 0.555544
vt 0.0001 0.444456
vt 0.0001 0.333367
vt 0.0001 0.222278
vt 0.0001 0.111189
vt 0.9999 0.111189
vt 0.9999 0.222278
vt 0.9999 0.333367
vt 0.9999 0.444456
vt 0.9999 0.555544
vt 0.9999 0.666633
vt 0.9999 0.777722
vt 0.9999 0.888811
vt 0.11727 0.115399
vt 0.120778 0.180369
vt 0.134636 0.309595
vt 0.088728 0.473895
vt 0.085886 0.575352
vt 0.086211 0.65375
vt 0.092207 0.78313
vt 0.106956 0.892282
vt 0.22987 0.102869
vt 0.221803 0.229552
vt 0.233521 0.288953
vt 0.225541 0.443179
vt 0.221596 0.556167
vt 0.227801 0.661237
vt 0.214896 0.795203
vt 0.22542 0.865181
vt 0.335524 0.082127
vt 0.351143 0.213907
vt 0.311934 0.342467
vt 0.313159 0.422214
vt 0.347791 0.572605
vt 0.301482 0.677733
vt 0.329031 0.783086
vt 0.344903 0.885466
vt 0.476837 0.074882
vt 0.441952 0.218774
vt 0.445749 0.333088
vt 0.416414 0.43099
vt 0.439746 0.552976
vt 0.463203 0.656843
vt 0.444252 0.77653
vt 0.426137 0.866051
vt 0.573419 0.117409
vt 0.581125 0.246686
vt 0.552512 0.326
vt 0.561075 0.459693
vt 0.558356 0.550596
vt 0.530299 0.662189
vt 0.553275 0.760113
vt 0.555478 0.888821
vt 0.694433 0.13996
vt 0.667048 0.221666
vt 0.681985 0.314267
vt 0.698218 0.467249
vt 0.696819 0.535952
vt 0.68253 0.662758
vt 0.642062 0.791726
vt 0.648523 0.877957
vt 0.778029 0.111667
vt 0.809426 0.219523
vt 0.794923 0.307783
vt 0.772028 0.454562
vt 0.796846 0.533374
vt 0.807262 0.663157
vt 0.778581 0.821037
vt 0.775122 0.858219
vt 0.890224 0.104741
vt 0.865679 0.23076
vt 0.887326 0.334104
vt 0.881307 0.429754
vt 0.887973 0.53063
vt 0.918106 0.681428
vt 0.915043 0.778027
vt 0.904815 0.89094
vn 0.0391123 0.0489371 0.998036
vn -0.0470224 0.0529809 0.997488
vn -0.0374743 0.00381717 0.99929
vn 0.0591069 0.0035183 0.998245
vn 0.0278369 0.032904 0.999071
vn 0.0136222 0.026529 0.999555
vn -0.00179136 0.0653843 0.997859
vn 0.0182244 0.0413412 0.998979
vn 0.0160982 -0.00428409 0.999861
vn -0.0189694 -0.0038661 0.999813
vn -0.0166161 0.0477126 0.998723
vn -0.0262112 0.0935018 0.995274
vn 0.0487347 -0.0441731 0.997835
vn 0.0101226 -0.0249239 0.999638
vn 0.00700029 -0.0570747 0.998345
vn -0.0164272 -0.0371104 0.999176
vn 0.00678159 -0.0207752 0.999761
vn 0.007109 -0.067295 0.997708
vn -0.0277436 -0.0293077 0.999185
vn -0.0477874 -0.0185762 0.998685
vn -0.0101747 0.0287507 0.999535
vn -0.000465305 0.0367702 0.999324
vn 0.0260188 0.0137911 0.999566
vn 0.0633775 0.00441343 0.99798
vn 0.0713098 0.00266726 0.997451
vn 0.0616241 0.00241455 0.998097
vn 0.0436195 -0.000870766 0.999048
vn 0.0253133 0.0224476 0.999427
vn -0.0845955 0.0293133 0.995984
vn -0.0211521 -0.000540449 0.999776
vn -0.0246118 0.00469786 0.999686
vn -0.0417626 -0.00879712 0.999089
vn -0.0395778 0.00539812 0.999202
vn -0.0408665 0.0187914 0.998988
vn -0.0218591 0.0220187 0.999519
vn 0.00438734 0.0295713 0.999553
vn 0.0170536 0.0219172 0.999614
vn 0.0144365 0.0125578 0.999817
vn 0.0129282 0.00605729 0.999898
vn 0.033409 -0.000116699 0.999442
vn 0.0243734 -0.00484132 0.999691
vn 0.0157358 0.000284185 0.999876
vn 0.00060127 0.0217372 0.999764
vn -0.0304523 0.00164766 0.999535
vn 0.0163107 0.00770477 0.999837
vn 0.00400615 0.0104954 0.999937
vn -0.010654 -0.00563154 0.999927
vn -0.0211203 -0.000439779 0.999777
vn -0.00369626 0.00431497 0.999984
vn 0.00360545 0.00017703 0.999994
vn -0.00889186 -0.000852945 0.99996
vn -0.0125105 -0.0107224 0.999864
vn 0.00287872 0.0284283 0.999592
vn 0.0097607 -0.0100448 0.999902
vn 0.00137925 -0.0119997 0.999927
vn 0.00363362 0.0102218 0.999941
vn 0.00318864 0.00577248 0.999978
vn 0.000527425 -0.000402597 1
vn -0.00101553 -0.00546454 0.999985
vn 0.00208911 -0.0230685 0.999732
vn 0.0130146 0.0121226 0.999842
vn -0.0105643 -0.00388998 0.999937
vn 0.00307557 -0.0018328 0.999994
vn 0.0184382 0.00479136 0.999819
vn -0.00257787 -0.00806918 0.999964
vn -0.00770436 0.00191433 0.999968
vn -0.00161231 -0.00242135 0.999996
vn -0.00180513 -0.00192256 0.999997
vn -0.00827505 -0.008369 0.999931
vn 0.00262611 -0.0082606 0.999962
vn -0.00199986 0.0093546 0.999954
vn -0.00390282 0.00333394 0.999987
vn 0.00625303 -0.0112949 0.999917
vn 0.00317843 0.000240557 0.999995
vn -0.00229296 -0.00144947 0.999996
vn -0.00254996 -0.00423203 0.999988
vn -0.00970578 -0.000863202 0.999952
vn -0.00280928 0.0104795 0.999941
vn 0.00941086 -0.000146664 0.999956
vn -0.00383644 0.0129145 0.999909
vn -0.00586152 0.01434 0.99988
vn 0.00960114 -0.00532425 0.99994
vn 0.00585012 0.000485429 0.999983
vn -0.00499212 -0.0274787 0.99961
vn 0.00749735 0.00109539 0.999971
vn -0.003776 0.00455021 0.999983
vn -0.0151192 0.0149144 0.999774
vn 0.0109226 -0.00406001 0.999932
vn -0.00227877 0.000698372 0.999997
vn -0.00781986 0.00774299 0.999939
vn 0.00834869 -0.0288906 0.999548
vn 0.00968413 -0.0464307 0.998875
vn -0.0214738 0.0224999 0.999516
vn -0.0129625 -0.00413362 0.999907
vn -0.023529 0.0144689 0.999618
vn -0.0167638 -8.22759e-06 0.99986
vn -0.0188198 -0.000120349 0.999823
vn -0.0271533 0.0109023 0.999572
vn -0.00342222 0.0107134 0.999937
vn 0.0343392 -0.0150351 0.999297
f 100/100/100 4/4/4 13/13/13
f 44/44/44 3/3/3 21/21/21
f 44/44/44 19/19/19 20/20/20
f 60/60/60 19/19/19 52/52/52
f 60/60/60 17/17/17 18/18/18
f 76/76/76 17/17/17 68/68/68
f 84/84/84 16/16/16 76/76/76
f 84/84/84 14/14/14 15/15/15
f 100/100/100 14/14/14 92/92/92
f 11/11/11 93/93/93 85/85/85
f 93/93/93 86/86/86 85/85/85
f 94/94/94 87/87/87 86/86/86
f 87/87/87 96/96/96 88/88/88
f 96/96/96 89/89/89 88/88/88
f 97/97/97 90/90/90 89/89/89
f 90/90/90 99/99/99 91/91/91
f 91/91/91 100/100/100 92/92/92
f 10/10/10 85/85/85 77/77/77
f 77/77/77 86/86/86 78/78/78
f 78/78/78 87/87/87 79/79/79
f 79/79/79 88/88/88 80/80/80
f 88/88/88 81/81/81 80/80/80
f 81/81/81 90/90/90 82/82/82
f 82/82/82 91/91/91 83/83/83
f 91/91/91 84/84/84 83/83/83
f 10/10/10 69/69/69 9/9/9
f 69/69/69 78/78/78 70/70/70
f 70/70/70 79/79/79 71/71/71
f 79/79/79 72/72/72 71/71/71
f 72/72/72 81/81/81 73/73/73
f 73/73/73 82/82/82 74/74/74
f 82/82/82 75/75/75 74/74/74
f 83/83/83 76/76/76 75/75/75
f 9/9/9 61/61/61 8/8/8
f 69/69/69 62/62/62 61/61/61
f 62/62/62 71/71/71 63/63/63
f 63/63/63 72/72/72 64/64/64
f 72/72/72 65/65/65 64/64/64
f 65/65/65 74/74/74 66/66/66
f 66/66/66 75/75/75 67/67/67
f 67/67/67 76/76/76 68/68/68
f 8/8/8 53/53/53 7/7/7
f 53/53/53 62/62/62 54/54/54
f 54/54/54 63/63/63 55/55/55
f 55/55/55 64/64/64 56/56/56
f 64/64/64 57/57/57 56/56/56
f 57/57/57 66/66/66 58/58/58
f 58/58/58 67/67/67 59/59/59
f 59/59/59 68/68/68 60/60/60
f 6/6/6 53/53/53 45/45/45
f 45/45/45 54/54/54 46/46/46
f 54/54/54 47/47/47 46/46/46
f 55/55/55 48/48/48 47/47/47
f 56/56/56 49/49/49 48/48/48
f 49/49/49 58/58/58 50/50/50
f 58/58/58 51/51/51 50/50/50
f 59/59/59 52/52/52 51/51/51
f 6/6/6 37/37/37 5/5/5
f 45/45/45 38/38/38 37/37/37
f 46/46/46 39/39/39 38/38/38
f 39/39/39 48/48/48 40/40/40
f 40/40/40 49/49/49 41/41/41
f 41/41/41 50/50/50 42/42/42
f 50/50/50 43/43/43 42/42/42
f 51/51/51 44/44/44 43/43/43
f 5/5/5 28/28/28 1/1/1
f 28/28/28 38/38/38 27/27/27
f 27/27/27 39/39/39 26/26/26
f 26/26/26 40/40/40 25/25/25
f 40/40/40 24/24/24 25/25/25
f 41/41/41 23/23/23 24/24/24
f 23/23/23 43/43/43 22/22/22
f 43/43/43 21/21/21 22/22/22
f 2/2/2 93/93/93 12/12/12
f 93/93/93 30/30/30 94/94/94
f 30/30/30 95/95/95 94/94/94
f 31/31/31 96/96/96 95/95/95
f 32/32/32 97/97/97 96/96/96
f 33/33/33 98/98/98 97/97/97
f 98/98/98 35/35/35 99/99/99
f 99/99/99 36/36/36 100/100/100
f 100/100/100 36/36/36 4/4/4
f 44/44/44 20/20/20 3/3/3
f 44/44/44 52/52/52 19/19/19
f 60/60/60 18/18/18 19/19/19
f 60/60/60 68/68/68 17/17/17
f 76/76/76 16/16/16 17/17/17
f 84/84/84 15/15/15 16/16/16
f 84/84/84 92/92/92 14/14/14
f 100/100/100 13/13/13 14/14/14
f 11/11/11 12/12/12 93/93/93
f 93/93/93 94/94/94 86/86/86
f 94/94/94 95/95/95 87/87/87
f 87/87/87 95/95/95 96/96/96
f 96/96/96 97/97/97 89/89/89
f 97/97/97 98/98/98 90/90/90
f 90/90/90 98/98/98 99/99/99
f 91/91/91 99/99/99 100/100/100
f 10/10/10 11/11/11 85/85/85
f 77/77/77 85/85/85 86/86/86
f 78/78/78 86/86/86 87/87/87
f 79/79/79 87/87/87 88/88/88
f 88/88/88 89/89/89 81/81/81
f 81/81/81 89/89/89 90/90/90
f 82/82/82 90/90/90 91/91/91
f 91/91/91 92/92/92 84/84/84
f 10/10/10 77/77/77 69/69/69
f 69/69/69 77/77/77 78/78/78
f 70/70/70 78/78/78 79/79/79
f 79/79/79 80/80/80 72/72/72
f 72/72/72 80/80/80 81/81/81
f 73/73/73 81/81/81 82/82/82
f 82/82/82 83/83/83 75/75/75
f 83/83/83 84/84/84 76/76/76
f 9/9/9 69/69/69 61/61/61
f 69/69/69 70/70/70 62/62/62
f 62/62/62 70/70/70 71/71/71
f 63/63/63 71/71/71 72/72/72
f 72/72/72 73/73/73 65/65/65
f 65/65/65 73/73/73 74/74/74
f 66/66/66 74/74/74 75/75/75
f 67/67/67 75/75/75 76/76/76
f 8/8/8 61/61/61 53/53/53
f 53/53/53 61/61/61 62/62/62
f 54/54/54 62/62/62 63/63/63
f 55/55/55 63/63/63 64/64/64
f 64/64/64 65/65/65 57/57/57
f 57/57/57 65/65/65 66/66/66
f 58/58/58 66/66/66 67/67/67
f 59/59/59 67/67/67 68/68/68
f 6/6/6 7/7/7 53/53/53
f 45/45/45 53/53/53 54/54/54
f 54/54/54 55/55/55 47/47/47
f 55/55/55 56/56/56 48/48/48
f 56/56/56 57/57/57 49/49/49
f 49/49/49 57/57/57 58/58/58
f 58/58/58 59/59/59 51/51/51
f 59/59/59 60/60/60 52/52/52
f 6/6/6 45/45/45 37/37/37
f 45/45/45 46/46/46 38/38/38
f 46/46/46 47/47/47 39/39/39
f 39/39/39 47/47/47 48/48/48
f 40/40/40 48/48/48 49/49/49
f 41/41/41 49/49/49 50/50/50
f 50/50/50 51/51/51 43/43/43
f 51/51/51 52/52/52 44/44/44
f 5/5/5 37/37/37 28/28/28
f 28/28/28 37/37/37 38/38/38
f 27/27/27 38/38/38 39/39/39
f 26/26/26 39/39/39 40/40/40
f 40/40/40 41/41/41 24/24/24
f 41/41/41 42/42/42 23/23/23
f 23/23/23 42/42/42 43/43/43
f 43/43/43 44/44/44 21/21/21
f 2/2/2 29/29/29 93/93/93
f 93/93/93 29/29/29 30/30/30
f 30/30/30 31/31/31 95/95/95
f 31/31/31 32/32/32 96/96/96
f 32/32/32 33/33/33 97/97/97
f 33/33/33 34/34/34 98/98/98
f 98/98/98 34/34/34 35/35/35
f 99/99/99 35/35/35 36/36/36
