o GNATVCloth
v -4.89999 -4.99278 0.334651
v 5.16451 -4.99128 0.364118
v -5.01298 5.02105 0.004229
v 4.98702 5.02105 0.004229
v -3.78857 -5.01474 0.284626
v -2.67346 -5.02827 0.270072
v -1.55446 -5.04012 0.202238
v -0.432328 -5.04931 0.187807
v 0.689701 -5.05164 0.223079
v 1.81171 -5.05576 0.213984
v 2.93335 -5.04482 0.201211
v 4.05182 -5.0158 0.262724
v 3.86553 4.94752 0.0595817
v 2.76106 4.86985 0.213486
v 1.65058 4.79307 0.301022
v 0.628524 4.7578 0.260861
v -0.491641 4.81599 0.24216
v -1.60994 4.8825 0.166231
v -2.73937 4.94487 0.139383
v -3.87177 4.97912 0.0855379
v -4.98176 3.90567 0.0382752
v -4.96411 2.79035 0.0669472
v -4.95257 1.67566 0.100017
v -4.94049 0.561479 0.139422
v -4.92875 -0.551343 0.190292
v -4.91599 -1.66248 0.257384
v -4.90269 -2.77253 0.314121
v -4.89771 -3.88516 0.327283
v 5.14678 -3.88337 0.276092
v 5.12917 -2.77093 0.269346
v 5.11049 -1.65787 0.239527
v 5.0981 -0.545682 0.174314
v 5.08503 0.565446 0.12042
v 5.06574 1.67806 0.0809239
v 5.04258 2.79199 0.051366
v 5.01633 3.90648 0.0283996
v -3.72749 -3.86332 0.240205
v -3.69388 -3.21433 0.237199
v -3.56927 -1.92496 0.164438
v -4.04478 -0.273048 0.159542
v -4.08414 0.742692 0.152674
v -4.08898 1.52659 0.124844
v -4.04189 2.8222 0.082912
v -3.90611 3.90679 0.00149959
v -2.59692 -4.00658 0.197481
v -2.68595 -2.73788 0.16205
v -2.57391 -2.14625 0.124792
v -2.67161 -0.605705 0.237912
v -2.7242 0.526279 0.229416
v -2.67184 1.57558 0.17938
v -2.80886 2.91256 0.0353662
v -2.72807 3.59691 0.191683
v -1.53215 -4.22785 0.204194
v -1.3858 -2.9131 0.189348
v -1.79651 -1.62763 0.255825
v -1.79092 -0.831043 0.233707
v -1.4585 0.668705 0.153743
v -1.9358 1.72203 0.145728
v -1.67831 2.76953 0.221872
v -1.52249 3.76731 0.203761
v -0.107852 -4.307 0.176638
v -0.472762 -2.87075 0.184169
v -0.448786 -1.72781 0.21754
v -0.75626 -0.750816 0.182615
v -0.533772 0.468795 0.177774
v -0.308239 1.5068 0.204636
v -0.517827 2.69958 0.217331
v -0.704994 3.56275 0.198505
v 0.861209 -3.8814 0.205487
v 0.922358 -2.59136 0.176441
v 0.624556 -1.79861 0.187956
v 0.693203 -0.460677 0.172839
v 0.657628 0.442585 0.19435
v 0.36486 1.56011 0.204583
v 0.583058 2.53547 0.203413
v 0.596233 3.74728 0.189129
v 2.07721 -3.65723 0.198551
v 1.79044 -2.84394 0.175138
v 1.92793 -1.91944 0.2082
v 2.07099 -0.390499 0.191953
v 2.05121 0.296616 0.169899
v 1.89385 1.5575 0.137208
v 1.47481 2.84265 0.235649
v 1.52807 3.62714 0.185106
v 2.92216 -3.92772 0.189132
v 3.21959 -2.84526 0.248568
v 3.06375 -1.97002 0.144752
v 2.813 -0.507782 0.243746
v 3.05479 0.28176 0.221282
v 3.14574 1.57687 0.152312
v 2.84033 3.1434 0.166274
v 2.79858 3.48057 0.227279
v 4.05182 -3.9729 0.195823
v 3.7821 -2.72239 0.265849
v 3.98225 -1.68461 0.239345
v 3.91183 -0.733092 0.178833
v 3.96822 0.277928 0.174889
v 4.24843 1.79142 0.135824
v 4.20033 2.75499 0.0934415
v 4.07324 3.87784 0.0502868
vt 0.0001 0.0001
vt 0.9999 0.0001
vt 0.0001 0.9999
vt 0.9999 0.9999
vt 0.111189 0.0001
vt 0.222278 0.0001
vt 0.333367 0.0001
vt 0.444455 0.0001
vt 0.555544 0.0001
vt 0.666633 0.0001
vt 0.777722 0.0001
vt 0.888811 0.0001
vt 0.888811 0.9999
vt 0.777722 0.9999
vt 0.666633 0.9999
vt 0.555544 0.9999
vt 0.444455 0.9999
vt 0.333367 0.9999
vt 0.222278 0.9999
vt 0.111189 0.9999
vt 0.0001 0.888811
vt 0.0001 0.777722
vt 0.0001 0.666633
vt 0.0001 0.555544
vt 0.0001 0.444456
vt 0.0001 0.333367
vt 0.0001 0.222278
vt 0.0001 0.111189
vt 0.9999 0.111189
vt 0.9999 0.222278
vt 0.9999 0.333367
vt 0.9999 0.444456
vt 0.9999 0.555544
vt 0.9999 0.666633
vt 0.9999 0.777722
vt 0.9999 0.888811
vt 0.11727 0.115399
vt 0.120778 0.180369
vt 0.134636 0.309595
vt 0.088728 0.473895
vt 0.085886 0.575352
vt 0.086211 0.65375
vt 0.092207 0.78313
vt 0.106956 0.892282
vt 0.22987 0.102869
vt 0.221803 0.229552
vt 0.233521 0.288953
vt 0.225541 0.443179
vt 0.221596 0.556167
vt 0.227801 0.661237
vt 0.214896 0.795203
vt 0.22542 0.865181
vt 0.335524 0.082127
vt 0.351143 0.213907
vt 0.311934 0.342467
vt 0.313159 0.422214
vt 0.347791 0.572605
vt 0.301482 0.677733
vt 0.329031 0.783086
vt 0.344903 0.885466
vt 0.476837 0.074882
vt 0.441952 0.218774
vt 0.445749 0.333088
vt 0.416414 0.43099
vt 0.439746 0.552976
vt 0.463203 0.656843
vt 0.444252 0.77653
vt 0.426137 0.866051
vt 0.573419 0.117409
vt 0.581125 0.246686
vt 0.552512 0.326
vt 0.561075 0.459693
vt 0.558356 0.550596
vt 0.530299 0.662189
vt 0.553275 0.760113
vt 0.555478 0.888821
vt 0.694433 0.13996
vt 0.667048 0.221666
vt 0.681985 0.314267
vt 0.698218 0.467249
vt 0.696819 0.535952
vt 0.68253 0.662758
vt 0.642062 0.791726
vt 0.648523 0.877957
vt 0.778029 0.111667
vt 0.809426 0.219523
vt 0.794923 0.307783
vt 0.772028 0.454562
vt 0.796846 0.533374
vt 0.807262 0.663157
vt 0.778581 0.821037
vt 0.775122 0.858219
vt 0.890224 0.104741
vt 0.865679 0.23076
vt 0.887326 0.334104
vt 0.881307 0.429754
vt 0.887973 0.53063
vt 0.918106 0.681428
vt 0.915043 0.778027
vt 0.904815 0.89094
vn 0.0450937 0.00655253 0.998961
vn -0.085587 0.070723 0.993817
vn -0.019811 -0.0221282 0.999559
vn 0.0358848 0.0115766 0.999289
vn 0.0440558 0.0263223 0.998682
vn 0.0321403 0.0428713 0.998563
vn 0.0366616 -0.00341325 0.999322
vn 0.000396738 0.0108062 0.999941
vn -0.0206811 0.0210983 0.999564
vn 0.00926911 0.0108698 0.999898
vn -0.0169015 0.0285529 0.999449
vn -0.0742185 0.0638404 0.995196
vn 0.0930892 0.00942474 0.995613
vn 0.0811882 -0.0168173 0.996557
vn 0.0248977 -0.101491 0.994525
vn -0.0203048 -0.0786594 0.996695
vn -0.0190408 -0.0283112 0.999418
vn -0.0440229 0.0301537 0.998575
vn -0.0593774 0.00781205 0.998205
vn -0.0616495 -0.0760198 0.995199
vn 0.0166581 0.0424974 0.998958
vn -0.0182494 0.0274338 0.999457
vn -0.0217068 0.0332632 0.999211
vn -0.0064514 0.0290321 0.999558
vn 0.0179962 0.0531579 0.998424
vn 0.0560328 0.0454864 0.997392
vn 0.0759263 0.0374345 0.996411
vn 0.0651885 0.0134985 0.997782
vn -0.076409 0.0413168 0.99622
vn -0.0201737 0.000148568 0.999796
vn -0.00263139 0.0495348 0.998769
vn 0.011304 0.0370279 0.99925
vn 0.0507864 0.034364 0.998118
vn 0.071443 0.0322814 0.996922
vn 0.055871 0.031982 0.997926
vn 0.0311344 0.0282942 0.999115
vn 0.0491298 0.0286493 0.998381
vn 0.0617724 0.0245674 0.997788
vn 0.042689 0.0204174 0.99888
vn -0.0113202 0.0188251 0.999759
vn -0.0343203 0.0277256 0.999026
vn -0.0312179 0.0343689 0.998922
vn -0.000226312 0.0533534 0.998576
vn -0.0544091 -0.0197333 0.998324
vn 0.0217826 0.0351404 0.999145
vn 0.0262685 0.0457012 0.99861
vn -0.0321304 -0.0240347 0.999195
vn -0.0313068 -0.0209908 0.999289
vn -0.000779884 0.0267529 0.999642
vn -0.00620066 0.0641277 0.997922
vn -0.0793798 -0.0225663 0.996589
vn -0.114747 -0.0600074 0.991581
vn 0.0174289 0.0131434 0.999762
vn -0.0151028 -0.00641957 0.999865
vn -0.0179168 -0.0182279 0.999673
vn 0.0333671 0.0293896 0.999011
vn 0.0108821 0.0161341 0.999811
vn -0.0181655 0.00836791 0.9998
vn -0.0583636 -0.0405541 0.997471
vn -0.0180096 0.0168666 0.999696
vn -0.0111768 0.00880912 0.999899
vn 0.00590256 -0.00704319 0.999958
vn 0.0195652 -0.00192243 0.999807
vn 0.0177601 0.027168 0.999473
vn -0.012437 -0.0119487 0.999851
vn -0.0154222 -0.0133084 0.999793
vn -0.000652412 -0.00686739 0.999976
vn 0.00601969 -0.00184972 0.99998
vn -0.00603364 0.0152663 0.999865
vn -0.00183544 -0.00450829 0.999988
vn 0.00595055 -0.00810012 0.99995
vn -0.00121493 0.00704665 0.999974
vn 0.0102074 -0.0059228 0.99993
vn 0.0152026 -0.00885712 0.999845
vn 0.00344281 -0.0119185 0.999923
vn -0.0031662 -0.00969327 0.999948
vn -0.00784265 0.00101611 0.999969
vn -0.00812251 0.015404 0.999848
vn -0.00214597 -0.0166961 0.999858
vn -0.0404595 0.0226646 0.998924
vn -0.0225594 0.0274301 0.999369
vn 0.0197918 -0.0142548 0.999703
vn 0.0127113 0.000478243 0.999919
vn 0.0012203 -0.0464002 0.998922
vn 0.00114136 -0.0151574 0.999884
vn -0.0314019 0.0103525 0.999453
vn -0.0269142 0.0225993 0.999382
vn -0.0035943 -0.00289143 0.999989
vn 0.0123998 0.0322114 0.999404
vn 0.00670397 0.0270345 0.999612
vn 0.0484829 -0.0424371 0.997922
vn 0.0580539 -0.0794621 0.995146
vn -0.0422009 0.00648462 0.999088
vn -0.0391349 0.0130933 0.999148
vn -0.0481097 0.0436996 0.997886
vn 0.00509193 0.018772 0.999811
vn 0.0325809 0.0241207 0.999178
vn 0.0419347 0.032778 0.998583
vn 0.0409168 0.033442 0.998603
vn 0.08789 -0.00170159 0.996129
f 100/100/100 4/4/4 13/13/13
f 44/44/44 3/3/3 21/21/21
f 44/44/44 19/19/19 20/20/20
f 60/60/60 19/19/19 52/52/52
f 60/60/60 17/17/17 18/18/18
f 76/76/76 17/17/17 68/68/68
f 84/84/84 16/16/16 76/76/76
f 84/84/84 14/14/14 15/15/15
f 100/100/100 14/14/14 92/92/92
f 11/11/11 93/93/93 85/85/85
f 93/93/93 86/86/86 85/85/85
f 94/94/94 87/87/87 86/86/86
f 87/87/87 96/96/96 88/88/88
f 96/96/96 89/89/89 88/88/88
f 97/97/97 90/90/90 89/89/89
f 90/90/90 99/99/99 91/91/91
f 91/91/91 100/100/100 92/92/92
f 10/10/10 85/85/85 77/77/77
f 77/77/77 86/86/86 78/78/78
f 78/78/78 87/87/87 79/79/79
f 79/79/79 88/88/88 80/80/80
f 88/88/88 81/81/81 80/80/80
f 81/81/81 90/90/90 82/82/82
f 82/82/82 91/91/91 83/83/83
f 91/91/91 84/84/84 83/83/83
f 10/10/10 69/69/69 9/9/9
f 69/69/69 78/78/78 70/70/70
f 70/70/70 79/79/79 71/71/71
f 79/79/79 72/72/72 71/71/71
f 72/72/72 81/81/81 73/73/73
f 73/73/73 82/82/82 74/74/74
f 82/82/82 75/75/75 74/74/74
f 83/83/83 76/76/76 75/75/75
f 9/9/9 61/61/61 8/8/8
f 69/69/69 62/62/62 61/61/61
f 62/62/62 71/71/71 63/63/63
f 63/63/63 72/72/72 64/64/64
f 72/72/72 65/65/65 64/64/64
f 65/65/65 74/74/74 66/66/66
f 66/66/66 75/75/75 67/67/67
f 67/67/67 76/76/76 68/68/68
f 8/8/8 53/53/53 7/7/7
f 53/53/53 62/62/62 54/54/54
f 54/54/54 63/63/63 55/55/55
f 55/55/55 64/64/64 56/56/56
f 64/64/64 57/57/57 56/56/56
f 57/57/57 66/66/66 58/58/58
f 58/58/58 67/67/67 59/59/59
f 59/59/59 68/68/68 60/60/60
f 6/6/6 53/53/53 45/45/45
f 45/45/45 54/54/54 46/46/46
f 54/54/54 47/47/47 46/46/46
f 55/55/55 48/48/48 47/47/47
f 56/56/56 49/49/49 48/48/48
f 49/49/49 58/58/58 50/50/50
f 58/58/58 51/51/51 50/50/50
f 59/59/59 52/52/52 51/51/51
f 6/6/6 37/37/37 5/5/5
f 45/45/45 38/38/38 37/37/37
f 46/46/46 39/39/39 38/38/38
f 39/39/39 48/48/48 40/40/40
f 40/40/40 49/49/49 41/41/41
f 41/41/41 50/50/50 42/42/42
f 50/50/50 43/43/43 42/42/42
f 51/51/51 44/44/44 43/43/43
f 5/5/5 28/28/28 1/1/1
f 28/28/28 38/38/38 27/27/27
f 27/27/27 39/39/39 26/26/26
f 26/26/26 40/40/40 25/25/25
f 40/40/40 24/24/24 25/25/25
f 41/41/41 23/23/23 24/24/24
f 23/23/23 43/43/43 22/22/22
f 43/43/43 21/21/21 22/22/22
f 2/2/2 93/93/93 12/12/12
f 93/93/93 30/30/30 94/94/94
f 30/30/30 95/95/95 94/94/94
f 31/31/31 96/96/96 95/95/95
f 32/32/32 97/97/97 96/96/96
f 33/33/33 98/98/98 97/97/97
f 98/98/98 35/35/35 99/99/99
f 99/99/99 36/36/36 100/100/100
f 100/100/100 36/36/36 4/4/4
f 44/44/44 20/20/20 3/3/3
f 44/44/44 52/52/52 19/19/19
f 60/60/60 18/18/18 19/19/19
f 60/60/60 68/68/68 17/17/17
f 76/76/76 16/16/16 17/17/17
f 84/84/84 15/15/15 16/16/16
f 84/84/84 92/92/92 14/14/14
f 100/100/100 13/13/13 14/14/14
f 11/11/11 12/12/12 93/93/93
f 93/93/93 94/94/94 86/86/86
f 94/94/94 95/95/95 87/87/87
f 87/87/87 95/95/95 96/96/96
f 96/96/96 97/97/97 89/89/89
f 97/97/97 98/98/98 90/90/90
f 90/90/90 98/98/98 99/99/99
f 91/91/91 99/99/99 100/100/100
f 10/10/10 11/11/11 85/85/85
f 77/77/77 85/85/85 86/86/86
f 78/78/78 86/86/86 87/87/87
f 79/79/79 87/87/87 88/88/88
f 88/88/88 89/89/89 81/81/81
f 81/81/81 89/89/89 90/90/90
f 82/82/82 90/90/90 91/91/91
f 91/91/91 92/92/92 84/84/84
f 10/10/10 77/77/77 69/69/69
f 69/69/69 77/77/77 78/78/78
f 70/70/70 78/78/78 79/79/79
f 79/79/79 80/80/80 72/72/72
f 72/72/72 80/80/80 81/81/81
f 73/73/73 81/81/81 82/82/82
f 82/82/82 83/83/83 75/75/75
f 83/83/83 84/84/84 76/76/76
f 9/9/9 69/69/69 61/61/61
f 69/69/69 70/70/70 62/62/62
f 62/62/62 70/70/70 71/71/71
f 63/63/63 71/71/71 72/72/72
f 72/72/72 73/73/73 65/65/65
f 65/65/65 73/73/73 74/74/74
f 66/66/66 74/74/74 75/75/75
f 67/67/67 75/75/75 76/76/76
f 8/8/8 61/61/61 53/53/53
f 53/53/53 61/61/61 62/62/62
f 54/54/54 62/62/62 63/63/63
f 55/55/55 63/63/63 64/64/64
f 64/64/64 65/65/65 57/57/57
f 57/57/57 65/65/65 66/66/66
f 58/58/58 66/66/66 67/67/67
f 59/59/59 67/67/67 68/68/68
f 6/6/6 7/7/7 53/53/53
f 45/45/45 53/53/53 54/54/54
f 54/54/54 55/55/55 47/47/47
f 55/55/55 56/56/56 48/48/48
f 56/56/56 57/57/57 49/49/49
f 49/49/49 57/57/57 58/58/58
f 58/58/58 59/59/59 51/51/51
f 59/59/59 60/60/60 52/52/52
f 6/6/6 45/45/45 37/37/37
f 45/45/45 46/46/46 38/38/38
f 46/46/46 47/47/47 39/39/39
f 39/39/39 47/47/47 48/48/48
f 40/40/40 48/48/48 49/49/49
f 41/41/41 49/49/49 50/50/50
f 50/50/50 51/51/51 43/43/43
f 51/51/51 52/52/52 44/44/44
f 5/5/5 37/37/37 28/28/28
f 28/28/28 37/37/37 38/38/38
f 27/27/27 38/38/38 39/39/39
f 26/26/26 39/39/39 40/40/40
f 40/40/40 41/41/41 24/24/24
f 41/41/41 42/42/42 23/23/23
f 23/23/23 42/42/42 43/43/43
f 43/43/43 44/44/44 21/21/21
f 2/2/2 29/29/29 93/93/93
f 93/93/93 29/29/29 30/30/30
f 30/30/30 31/31/31 95/95/95
f 31/31/31 32/32/32 96/96/96
f 32/32/32 33/33/33 97/97/97
f 33/33/33 34/34/34 98/98/98
f 98/98/98 34/34/34 35/35/35
f 99/99/99 35/35/35 36/36/36
