o GNATVCloth
v -5.05983 -4.98652 0.583488
v 5.04332 -4.99311 0.393344
v -5.01298 5.02105 0.004229
v 4.98702 5.02105 0.004229
v -3.94592 -5.01769 0.544215
v -2.82714 -5.06106 0.480278
v -1.70327 -5.08884 0.495462
v -0.575344 -5.10944 0.501277
v 0.555884 -5.12148 0.491684
v 1.68435 -5.09348 0.508405
v 2.80828 -5.0653 0.455027
v 3.92932 -5.01471 0.493128
v 3.86179 4.91781 0.160789
v 2.74808 4.8479 0.321978
v 1.62663 4.78999 0.332251
v 0.511952 4.73938 0.323216
v -0.585266 4.72893 0.447166
v -1.69329 4.73912 0.603752
v -2.81457 4.78471 0.531341
v -3.91067 4.88532 0.276381
v -4.9862 3.9068 0.0744485
v -4.9902 2.79225 0.140288
v -4.99993 1.67836 0.205059
v -5.00563 0.564802 0.269515
v -5.01039 -0.548576 0.326206
v -5.01757 -1.66135 0.370699
v -5.02676 -2.77286 0.404049
v -5.03192 -3.88161 0.511926
v 5.01999 -3.88734 0.290848
v 5.00867 -2.77595 0.292967
v 4.99897 -1.66398 0.253629
v 4.99129 -0.551087 0.234524
v 4.98342 0.562333 0.207978
v 4.97594 1.67646 0.164664
v 4.97325 2.79139 0.126855
v 4.97078 3.90526 0.0515805
v -3.86865 -3.88943 0.326672
v -3.82876 -3.2427 0.27322
v -3.67874 -1.95408 0.241562
v -4.12939 -0.290851 0.222548
v -4.15075 0.725525 0.196367
v -4.1422 1.50931 0.139044
v -4.07306 2.79734 0.0374986
v -3.92171 3.87558 -0.0956313
v -2.7352 -4.05412 0.299989
v -2.81065 -2.78486 0.344057
v -2.68689 -2.19809 0.291461
v -2.76098 -0.653132 0.29367
v -2.79349 0.475326 0.186051
v -2.72745 1.51314 0.035354
v -2.84469 2.85529 -0.0720872
v -2.74091 3.53874 0.0542146
v -1.6704 -4.28907 0.319417
v -1.50859 -2.97676 0.396712
v -1.90026 -1.68534 0.387612
v -1.88335 -0.891641 0.337951
v -1.53104 0.583053 0.090494
v -1.98992 1.64422 -0.0281782
v -1.71 2.68594 0.0516162
v -1.58386 3.61778 0.430394
v -0.244242 -4.3781 0.388965
v -0.595421 -2.94478 0.470997
v -0.552127 -1.80027 0.460958
v -0.844094 -0.829905 0.321829
v -0.606877 0.373644 0.139432
v -0.374753 1.3893 0.106396
v -0.569616 2.57853 0.160082
v -0.761857 3.41511 0.442701
v 0.728349 -3.94964 0.410961
v 0.809905 -2.65905 0.518427
v 0.524494 -1.87095 0.484684
v 0.611372 -0.560792 0.225786
v 0.58717 0.345731 0.19624
v 0.298207 1.44137 0.141406
v 0.523294 2.41216 0.180914
v 0.538253 3.65089 0.394485
v 1.94683 -3.69259 0.385725
v 1.66376 -2.8853 0.356289
v 1.8285 -1.96527 0.465298
v 1.98971 -0.466542 0.12897
v 1.97013 0.211665 0.00817613
v 1.82778 1.47254 0.0907618
v 1.41026 2.74392 0.167667
v 1.47657 3.57485 0.332797
v 2.79285 -3.95347 0.384052
v 3.09791 -2.86663 0.321048
v 2.94735 -1.98856 0.259688
v 2.71109 -0.529834 0.327112
v 2.95572 0.259223 0.208863
v 3.07164 1.53072 -0.0727599
v 2.76084 3.09504 -0.0286647
v 2.72702 3.45978 0.0448703
v 3.91996 -3.98841 0.289823
v 3.66261 -2.73584 0.312515
v 3.87249 -1.69608 0.287012
v 3.80826 -0.738348 0.297117
v 3.8664 0.273369 0.288793
v 4.15608 1.79052 0.155891
v 4.13911 2.7381 -0.0347579
v 4.02171 3.86193 -0.0791778
vt 0.0001 0.0001
vt 0.9999 0.0001
vt 0.0001 0.9999
vt 0.9999 0.9999
vt 0.111189 0.0001
vt 0.222278 0.0001
vt 0.333367 0.0001
vt 0.444455 0.0001
vt 0.555544 0.0001
vt 0.666633 0.0001
vt 0.777722 0.0001
vt 0.888811 0.0001
vt 0.888811 0.9999
vt 0.777722 0.9999
vt 0.666633 0.9999
vt 0.555544 0.9999
vt 0.444455 0.9999
vt 0.333367 0.9999
vt 0.222278 0.9999
vt 0.111189 0.9999
vt 0.0001 0.888811
vt 0.0001 0.777722
vt 0.0001 0.666633
vt 0.0001 0.555544
vt 0.0001 0.444456
vt 0.0001 0.333367
vt 0.0001 0.222278
vt 0.0001 0.111189
vt 0.9999 0.111189
vt 0.9999 0.222278
vt 0.9999 0.333367
vt 0.9999 0.444456
vt 0.9999 0.555544
vt 0.9999 0.666633
vt 0.9999 0.777722
vt 0.9999 0.888811
vt 0.11727 0.115399
vt 0.120778 0.180369
vt 0.134636 0.309595
vt 0.088728 0.473895
vt 0.085886 0.575352
vt 0.086211 0.65375
vt 0.092207 0.78313
vt 0.106956 0.892282
vt 0.22987 0.102869
vt 0.221803 0.229552
vt 0.233521 0.288953
vt 0.225541 0.443179
vt 0.221596 0.556167
vt 0.227801 0.661237
vt 0.214896 0.795203
vt 0.22542 0.865181
vt 0.335524 0.082127
vt 0.351143 0.213907
vt 0.311934 0.342467
vt 0.313159 0.422214
vt 0.347791 0.572605
vt 0.301482 0.677733
vt 0.329031 0.783086
vt 0.344903 0.885466
vt 0.476837 0.074882
vt 0.441952 0.218774
vt 0.445749 0.333088
vt 0.416414 0.43099
vt 0.439746 0.552976
vt 0.463203 0.656843
vt 0.444252 0.77653
vt 0.426137 0.866051
vt 0.573419 0.117409
vt 0.581125 0.246686
vt 0.552512 0.326
vt 0.561075 0.459693
vt 0.558356 0.550596
vt 0.530299 0.662189
vt 0.553275 0.760113
vt 0.555478 0.888821
vt 0.694433 0.13996
vt 0.667048 0.221666
vt 0.681985 0.314267
vt 0.698218 0.467249
vt 0.696819 0.535952
vt 0.68253 0.662758
vt 0.642062 0.791726
vt 0.648523 0.877957
vt 0.778029 0.111667
vt 0.809426 0.219523
vt 0.794923 0.307783
vt 0.772028 0.454562
vt 0.796846 0.533374
vt 0.807262 0.663157
vt 0.778581 0.821037
vt 0.775122 0.858219
vt 0.890224 0.104741
vt 0.865679 0.23076
vt 0.887326 0.334104
vt 0.881307 0.429754
vt 0.887973 0.53063
vt 0.918106 0.681428
vt 0.915043 0.778027
vt 0.904815 0.89094
vn 0.0369425 0.0636587 0.997288
vn 0.0372834 0.143584 0.988936
vn -0.0549496 -0.138554 0.988829
vn 0.007377 -0.0778799 0.996935
vn 0.0856161 0.14212 0.98614
vn 0.0310117 0.186652 0.981936
vn -0.00449039 0.215147 0.976571
vn -0.0095671 0.176997 0.984165
vn -0.0210083 0.0985585 0.994909
vn 0.014706 0.0761109 0.996991
vn 0.0296991 0.107924 0.993716
vn 0.0208997 0.194461 0.980688
vn 0.152674 -0.196972 0.968449
vn 0.130416 -0.14794 0.98036
vn 0.000511982 0.00038653 1
vn 0.0581131 0.0453919 0.997277
vn 0.068319 -0.0202318 0.997458
vn 0.0338227 -0.149473 0.988187
vn -0.200636 -0.304843 0.931029
vn -0.253474 -0.331976 0.908594
vn 0.1434 0.0743488 0.986868
vn 0.110879 0.0574681 0.992171
vn 0.0917087 0.0647696 0.993677
vn 0.0856015 0.0449227 0.995316
vn 0.103858 0.0446006 0.993592
vn 0.104089 0.0359074 0.99392
vn 0.120111 0.0451702 0.991732
vn 0.124062 0.102038 0.987014
vn -0.00507805 0.0451416 0.998968
vn 0.0142675 0.00998052 0.999848
vn 0.0361808 0.014848 0.999235
vn 0.0559938 0.015656 0.998308
vn 0.0375762 0.0468148 0.998197
vn -0.00563606 0.0363445 0.999323
vn -0.133609 0.097124 0.986263
vn -0.156653 0.0448518 0.986635
vn 0.0921961 0.137399 0.986216
vn 0.0524651 0.0427098 0.997709
vn 0.0149684 0.0290187 0.999467
vn 0.0465788 0.0391673 0.998146
vn 0.0607071 0.066033 0.995969
vn 0.0817245 0.0728884 0.993986
vn 0.101882 0.0799223 0.991581
vn -0.072781 -0.13413 0.988287
vn -0.00418009 0.0496386 0.998758
vn -0.0473064 0.0298111 0.998436
vn -0.0653987 0.0308172 0.997383
vn -0.050954 0.0396782 0.997912
vn 0.0257206 0.112194 0.993353
vn 0.0657305 0.100091 0.992805
vn -0.029581 -0.0130641 0.999477
vn -0.212192 -0.274783 0.9378
vn -0.0271692 0.0863081 0.995898
vn -0.0606199 -0.00992027 0.998112
vn -0.0570569 0.0355557 0.997738
vn 0.00427835 0.107062 0.994243
vn -8.72994e-05 0.121814 0.992553
vn -0.0262769 0.0416313 0.998787
vn -0.141688 -0.21776 0.965663
vn -0.100202 -0.229717 0.968086
vn -0.0270577 0.0534817 0.998202
vn -0.0413757 -0.0296757 0.998703
vn -0.0289215 0.0816508 0.996241
vn 0.00546269 0.134076 0.990956
vn -0.028495 0.0754452 0.996743
vn -0.0562985 0.00497775 0.998402
vn -0.0494612 -0.163459 0.98531
vn -0.0226204 -0.206592 0.978166
vn 0.0127814 0.00645434 0.999897
vn 0.054787 -0.0480134 0.997343
vn -0.00458919 0.0951183 0.995455
vn 0.0373454 0.142786 0.989049
vn 0.0414348 0.0226971 0.998883
vn -0.0171877 0.0127173 0.999771
vn 0.00418505 -0.0862496 0.996265
vn 0.0566601 -0.102785 0.993089
vn 0.0167893 0.0614514 0.997969
vn 0.0915803 -0.0372817 0.9951
vn 0.0535814 0.0563159 0.996974
vn -0.0948776 0.199768 0.975239
vn -0.0292199 0.103814 0.994167
vn 0.0914388 -0.02195 0.995569
vn 0.100496 -0.127819 0.986693
vn 0.10416 -0.101949 0.989321
vn 0.0521693 0.0596064 0.996858
vn 0.0279297 0.0434596 0.998665
vn 0.0477848 -0.0061276 0.998839
vn -0.0746436 0.115546 0.990494
vn -0.10761 0.16226 0.980863
vn -0.0746647 0.100108 0.992171
vn 0.120561 -0.081262 0.989374
vn 0.178043 -0.186935 0.966103
vn 0.0293157 0.0687374 0.997204
vn 0.00136857 0.0188081 0.999822
vn 0.00163838 0.0137615 0.999904
vn 0.0128844 0.014927 0.999806
vn -0.0404406 0.0794154 0.996021
vn -0.107234 0.110406 0.988085
vn -0.128284 0.0806276 0.988455
vn 0.0504258 -0.0959679 0.994106
f 100/100/100 4/4/4 13/13/13
f 44/44/44 3/3/3 21/21/21
f 44/44/44 19/19/19 20/20/20
f 60/60/60 19/19/19 52/52/52
f 60/60/60 17/17/17 18/18/18
f 76/76/76 17/17/17 68/68/68
f 84/84/84 16/16/16 76/76/76
f 84/84/84 14/14/14 15/15/15
f 100/100/100 14/14/14 92/92/92
f 11/11/11 93/93/93 85/85/85
f 93/93/93 86/86/86 85/85/85
f 94/94/94 87/87/87 86/86/86
f 87/87/87 96/96/96 88/88/88
f 96/96/96 89/89/89 88/88/88
f 97/97/97 90/90/90 89/89/89
f 90/90/90 99/99/99 91/91/91
f 91/91/91 100/100/100 92/92/92
f 10/10/10 85/85/85 77/77/77
f 77/77/77 86/86/86 78/78/78
f 78/78/78 87/87/87 79/79/79
f 79/79/79 88/88/88 80/80/80
f 88/88/88 81/81/81 80/80/80
f 81/81/81 90/90/90 82/82/82
f 82/82/82 91/91/91 83/83/83
f 91/91/91 84/84/84 83/83/83
f 10/10/10 69/69/69 9/9/9
f 69/69/69 78/78/78 70/70/70
f 70/70/70 79/79/79 71/71/71
f 79/79/79 72/72/72 71/71/71
f 72/72/72 81/81/81 73/73/73
f 73/73/73 82/82/82 74/74/74
f 82/82/82 75/75/75 74/74/74
f 83/83/83 76/76/76 75/75/75
f 9/9/9 61/61/61 8/8/8
f 69/69/69 62/62/62 61/61/61
f 62/62/62 71/71/71 63/63/63
f 63/63/63 72/72/72 64/64/64
f 72/72/72 65/65/65 64/64/64
f 65/65/65 74/74/74 66/66/66
f 66/66/66 75/75/75 67/67/67
f 67/67/67 76/76/76 68/68/68
f 8/8/8 53/53/53 7/7/7
f 53/53/53 62/62/62 54/54/54
f 54/54/54 63/63/63 55/55/55
f 55/55/55 64/64/64 56/56/56
f 64/64/64 57/57/57 56/56/56
f 57/57/57 66/66/66 58/58/58
f 58/58/58 67/67/67 59/59/59
f 59/59/59 68/68/68 60/60/60
f 6/6/6 53/53/53 45/45/45
f 45/45/45 54/54/54 46/46/46
f 54/54/54 47/47/47 46/46/46
f 55/55/55 48/48/48 47/47/47
f 56/56/56 49/49/49 48/48/48
f 49/49/49 58/58/58 50/50/50
f 58/58/58 51/51/51 50/50/50
f 59/59/59 52/52/52 51/51/51
f 6/6/6 37/37/37 5/5/5
f 45/45/45 38/38/38 37/37/37
f 46/46/46 39/39/39 38/38/38
f 39/39/39 48/48/48 40/40/40
f 40/40/40 49/49/49 41/41/41
f 41/41/41 50/50/50 42/42/42
f 50/50/50 43/43/43 42/42/42
f 51/51/51 44/44/44 43/43/43
f 5/5/5 28/28/28 1/1/1
f 28/28/28 38/38/38 27/27/27
f 27/27/27 39/39/39 26/26/26
f 26/26/26 40/40/40 25/25/25
f 40/40/40 24/24/24 25/25/25
f 41/41/41 23/23/23 24/24/24
f 23/23/23 43/43/43 22/22/22
f 43/43/43 21/21/21 22/22/22
f 2/2/2 93/93/93 12/12/12
f 93/93/93 30/30/30 94/94/94
f 30/30/30 95/95/95 94/94/94
f 31/31/31 96/96/96 95/95/95
f 32/32/32 97/97/97 96/96/96
f 33/33/33 98/98/98 97/97/97
f 98/98/98 35/35/35 99/99/99
f 99/99/99 36/36/36 100/100/100
f 100/100/100 36/36/36 4/4/4
f 44/44/44 20/20/20 3/3/3
f 44/44/44 52/52/52 19/19/19
f 60/60/60 18/18/18 19/19/19
f 60/60/60 68/68/68 17/17/17
f 76/76/76 16/16/16 17/17/17
f 84/84/84 15/15/15 16/16/16
f 84/84/84 92/92/92 14/14/14
f 100/100/100 13/13/13 14/14/14
f 11/11/11 12/12/12 93/93/93
f 93/93/93 94/94/94 86/86/86
f 94/94/94 95/95/95 87/87/87
f 87/87/87 95/95/95 96/96/96
f 96/96/96 97/97/97 89/89/89
f 97/97/97 98/98/98 90/90/90
f 90/90/90 98/98/98 99/99/99
f 91/91/91 99/99/99 100/100/100
f 10/10/10 11/11/11 85/85/85
f 77/77/77 85/85/85 86/86/86
f 78/78/78 86/86/86 87/87/87
f 79/79/79 87/87/87 88/88/88
f 88/88/88 89/89/89 81/81/81
f 81/81/81 89/89/89 90/90/90
f 82/82/82 90/90/90 91/91/91
f 91/91/91 92/92/92 84/84/84
f 10/10/10 77/77/77 69/69/69
f 69/69/69 77/77/77 78/78/78
f 70/70/70 78/78/78 79/79/79
f 79/79/79 80/80/80 72/72/72
f 72/72/72 80/80/80 81/81/81
f 73/73/73 81/81/81 82/82/82
f 82/82/82 83/83/83 75/75/75
f 83/83/83 84/84/84 76/76/76
f 9/9/9 69/69/69 61/61/61
f 69/69/69 70/70/70 62/62/62
f 62/62/62 70/70/70 71/71/71
f 63/63/63 71/71/71 72/72/72
f 72/72/72 73/73/73 65/65/65
f 65/65/65 73/73/73 74/74/74
f 66/66/66 74/74/74 75/75/75
f 67/67/67 75/75/75 76/76/76
f 8/8/8 61/61/61 53/53/53
f 53/53/53 61/61/61 62/62/62
f 54/54/54 62/62/62 63/63/63
f 55/55/55 63/63/63 64/64/64
f 64/64/64 65/65/65 57/57/57
f 57/57/57 65/65/65 66/66/66
f 58/58/58 66/66/66 67/67/67
f 59/59/59 67/67/67 68/68/68
f 6/6/6 7/7/7 53/53/53
f 45/45/45 53/53/53 54/54/54
f 54/54/54 55/55/55 47/47/47
f 55/55/55 56/56/56 48/48/48
f 56/56/56 57/57/57 49/49/49
f 49/49/49 57/57/57 58/58/58
f 58/58/58 59/59/59 51/51/51
f 59/59/59 60/60/60 52/52/52
f 6/6/6 45/45/45 37/37/37
f 45/45/45 46/46/46 38/38/38
f 46/46/46 47/47/47 39/39/39
f 39/39/39 47/47/47 48/48/48
f 40/40/40 48/48/48 49/49/49
f 41/41/41 49/49/49 50/50/50
f 50/50/50 51/51/51 43/43/43
f 51/51/51 52/52/52 44/44/44
f 5/5/5 37/37/37 28/28/28
f 28/28/28 37/37/37 38/38/38
f 27/27/27 38/38/38 39/39/39
f 26/26/26 39/39/39 40/40/40
f 40/40/40 41/41/41 24/24/24
f 41/41/41 42/42/42 23/23/23
f 23/23/23 42/42/42 43/43/43
f 43/43/43 44/44/44 21/21/21
f 2/2/2 29/29/29 93/93/93
f 93/93/93 29/29/29 30/30/30
f 30/30/30 31/31/31 95/95/95
f 31/31/31 32/32/32 96/96/96
f 32/32/32 33/33/33 97/97/97
f 33/33/33 34/34/34 98/98/98
f 98/98/98 34/34/34 35/35/35
f 99/99/99 35/35/35 36/36/36
