o GNATVCloth
v -5.00919 -4.9574 0.621468
v 5.0507 -4.98977 0.380062
v -5.01298 5.02105 0.004229
v 4.98702 5.02105 0.004229
v -3.91141 -5.01364 0.439739
v -2.79636 -5.04783 0.453322
v -1.67587 -5.07872 0.430076
v -0.552941 -5.1004 0.416904
v 0.573589 -5.09931 0.373954
v 1.69762 -5.08535 0.367342
v 2.81896 -5.05574 0.380275
v 3.93752 -5.02476 0.324466
v 3.8768 4.87382 0.222585
v 2.77448 4.76618 0.436224
v 1.65227 4.73626 0.410286
v 0.531711 4.70962 0.449033
v -0.574428 4.65457 0.608258
v -1.68753 4.7105 0.498442
v -2.81036 4.73596 0.474123
v -3.90753 4.85843 0.240888
v -4.97355 3.90977 0.100393
v -4.96233 2.79478 0.123572
v -4.96308 1.68068 0.149512
v -4.96412 0.567366 0.174115
v -4.96867 -0.544636 0.220335
v -4.97657 -1.65561 0.275023
v -4.98493 -2.76678 0.331352
v -4.99986 -3.87491 0.417995
v 5.02786 -3.88105 0.301934
v 5.0095 -2.77484 0.20584
v 4.99322 -1.66287 0.173395
v 4.98331 -0.550072 0.160826
v 4.9761 0.563116 0.150483
v 4.97142 1.67733 0.136297
v 4.9715 2.79239 0.125241
v 4.96429 3.90675 0.070522
v -3.82658 -3.86154 0.418339
v -3.78267 -3.21766 0.367086
v -3.6314 -1.93496 0.270573
v -4.08003 -0.277984 0.198587
v -4.10596 0.740151 0.223839
v -4.09991 1.52336 0.169021
v -4.03734 2.81509 0.0923816
v -3.93442 3.87197 -0.185014
v -2.70253 -4.02828 0.352083
v -2.766 -2.76146 0.267605
v -2.64208 -2.17084 0.2818
v -2.71098 -0.628361 0.257184
v -2.7447 0.505177 0.204261
v -2.68384 1.53658 0.0068858
v -2.85955 2.84283 -0.295834
v -2.7668 3.48922 -0.0313902
v -1.64458 -4.26087 0.387347
v -1.47679 -2.95211 0.408105
v -1.85791 -1.65597 0.387999
v -1.83271 -0.862414 0.294285
v -1.53805 0.560288 -0.211469
v -2.00592 1.62194 -0.316431
v -1.73216 2.6438 -0.0953801
v -1.57441 3.61069 0.195543
v -0.222874 -4.35859 0.376702
v -0.566446 -2.92444 0.331176
v -0.526947 -1.79555 0.213095
v -0.831534 -0.845615 0.00389511
v -0.608802 0.352725 -0.21602
v -0.377175 1.371 -0.224811
v -0.575143 2.5455 -0.0223444
v -0.75504 3.41538 0.187348
v 0.748557 -3.94231 0.32246
v 0.824457 -2.64989 0.282173
v 0.538846 -1.88159 0.105826
v 0.622565 -0.569722 -0.124157
v 0.588202 0.331218 -0.159662
v 0.295165 1.41943 -0.150726
v 0.520557 2.39127 -0.0444475
v 0.548516 3.60688 0.321811
v 1.96119 -3.68769 0.309837
v 1.68002 -2.88099 0.404863
v 1.82314 -1.95557 0.328106
v 1.99228 -0.44984 0.0470054
v 1.98537 0.217505 -0.101781
v 1.82796 1.47425 -0.230872
v 1.40467 2.73875 -0.0922616
v 1.48408 3.53072 0.217479
v 2.80515 -3.94519 0.29488
v 3.10528 -2.85812 0.298731
v 2.95632 -1.98453 0.409641
v 2.71727 -0.533904 0.22925
v 2.95753 0.259708 0.162471
v 3.07484 1.53951 -0.0809519
v 2.76693 3.10025 -0.214888
v 2.74276 3.43376 -0.0521371
v 3.93127 -3.98125 0.326508
v 3.66764 -2.72996 0.286597
v 3.87363 -1.6866 0.299804
v 3.81177 -0.73188 0.352358
v 3.86426 0.279165 0.301008
v 4.15227 1.79677 0.176022
v 4.13015 2.74894 0.010043
v 4.03357 3.86338 -0.159456
vt 0.0001 0.0001
vt 0.9999 0.0001
vt 0.0001 0.9999
vt 0.9999 0.9999
vt 0.111189 0.0001
vt 0.222278 0.0001
vt 0.333367 0.0001
vt 0.444455 0.0001
vt 0.555544 0.0001
vt 0.666633 0.0001
vt 0.777722 0.0001
vt 0.888811 0.0001
vt 0.888811 0.9999
vt 0.777722 0.9999
vt 0.666633 0.9999
vt 0.555544 0.9999
vt 0.444455 0.9999
vt 0.333367 0.9999
vt 0.222278 0.9999
vt 0.111189 0.9999
vt 0.0001 0.888811
vt 0.0001 0.777722
vt 0.0001 0.666633
vt 0.0001 0.555544
vt 0.0001 0.444456
vt 0.0001 0.333367
vt 0.0001 0.222278
vt 0.0001 0.111189
vt 0.9999 0.111189
vt 0.9999 0.222278
vt 0.9999 0.333367
vt 0.9999 0.444456
vt 0.9999 0.555544
vt 0.9999 0.666633
vt 0.9999 0.777722
vt 0.9999 0.888811
vt 0.11727 0.115399
vt 0.120778 0.180369
vt 0.134636 0.309595
vt 0.088728 0.473895
vt 0.085886 0.575352
vt 0.086211 0.65375
vt 0.092207 0.78313
vt 0.106956 0.892282
vt 0.22987 0.102869
vt 0.221803 0.229552
vt 0.233521 0.288953
vt 0.225541 0.443179
vt 0.221596 0.556167
vt 0.227801 0.661237
vt 0.214896 0.795203
vt 0.22542 0.865181
vt 0.335524 0.082127
vt 0.351143 0.213907
vt 0.311934 0.342467
vt 0.313159 0.422214
vt 0.347791 0.572605
vt 0.301482 0.677733
vt 0.329031 0.783086
vt 0.344903 0.885466
vt 0.476837 0.074882
vt 0.441952 0.218774
vt 0.445749 0.333088
vt 0.416414 0.43099
vt 0.439746 0.552976
vt 0.463203 0.656843
vt 0.444252 0.77653
vt 0.426137 0.866051
vt 0.573419 0.117409
vt 0.581125 0.246686
vt 0.552512 0.326
vt 0.561075 0.459693
vt 0.558356 0.550596
vt 0.530299 0.662189
vt 0.553275 0.760113
vt 0.555478 0.888821
vt 0.694433 0.13996
vt 0.667048 0.221666
vt 0.681985 0.314267
vt 0.698218 0.467249
vt 0.696819 0.535952
vt 0.68253 0.662758
vt 0.642062 0.791726
vt 0.648523 0.877957
vt 0.778029 0.111667
vt 0.809426 0.219523
vt 0.794923 0.307783
vt 0.772028 0.454562
vt 0.796846 0.533374
vt 0.807262 0.663157
vt 0.778581 0.821037
vt 0.775122 0.858219
vt 0.890224 0.104741
vt 0.865679 0.23076
vt 0.887326 0.334104
vt 0.881307 0.429754
vt 0.887973 0.53063
vt 0.918106 0.681428
vt 0.915043 0.778027
vt 0.904815 0.89094
vn 0.169633 0.180641 0.96881
vn -0.0169761 0.0342202 0.99927
vn 0.0107693 -0.152643 0.988223
vn -0.00996038 -0.131945 0.991207
vn 0.052857 0.0733651 0.995903
vn 0.0178977 0.065709 0.997678
vn 0.0174202 0.0515017 0.998521
vn 0.0205398 0.0460604 0.998727
vn 0.027545 0.0397897 0.998828
vn 0.00556555 0.0491668 0.998775
vn 0.00360729 0.0504497 0.99872
vn 3.33847e-05 -0.00195647 0.999998
vn 0.216682 -0.315665 0.923799
vn 0.139384 -0.291455 0.946375
vn 0.00964332 -0.159231 0.987194
vn 0.0954749 -0.129043 0.987032
vn -0.0195705 -0.255238 0.96668
vn -0.0675524 -0.271372 0.960101
vn -0.159748 -0.35095 0.922667
vn -0.239702 -0.379309 0.893682
vn 0.190486 0.112445 0.975229
vn 0.0332063 0.0221744 0.999202
vn -0.0126489 0.0437922 0.998961
vn -0.0343159 0.0125076 0.999333
vn 0.0108582 0.0452864 0.998915
vn 0.0121856 0.0488469 0.998732
vn 0.00398787 0.0678983 0.997684
vn 0.0420734 0.0895625 0.995092
vn 0.0151473 0.0786925 0.996784
vn 0.0617471 0.0345016 0.997495
vn 0.1281 -0.00137525 0.99176
vn 0.14866 0.0215786 0.988653
vn 0.100441 0.0273614 0.994567
vn 0.0500962 0.0114125 0.998679
vn -0.0772351 0.075261 0.994168
vn -0.208243 0.0786156 0.974912
vn 0.0257461 0.0568413 0.998051
vn 0.0333764 0.0739889 0.9967
vn 0.00498801 0.0384332 0.999249
vn -0.0103977 0.0238404 0.999662
vn 0.00743437 0.0493852 0.998752
vn 0.0512206 0.0630153 0.996697
vn 0.149454 0.12246 0.981156
vn -0.0179896 -0.145227 0.989235
vn 0.0103297 0.0644983 0.997864
vn -0.0181574 0.0353623 0.99921
vn -0.0789021 -0.00336884 0.996877
vn -0.042338 0.0448004 0.998098
vn 0.14844 0.129845 0.98036
vn 0.23162 0.163335 0.958996
vn 0.0604144 -0.0202236 0.997969
vn -0.197314 -0.338879 0.919907
vn 0.0133766 0.0355122 0.99928
vn -0.00906847 0.0227264 0.999701
vn 0.0493924 0.0889518 0.99481
vn 0.16299 0.163454 0.972994
vn 0.149324 0.17332 0.973479
vn 0.105443 0.0272878 0.994051
vn -0.132858 -0.247393 0.959763
vn -0.0914611 -0.295841 0.950849
vn 0.0272476 0.0399885 0.998829
vn 0.0489757 0.0714986 0.996238
vn 0.105523 0.151735 0.982772
vn 0.139583 0.20275 0.969231
vn -0.0169871 0.0671076 0.997601
vn -0.0569748 -0.0532603 0.996954
vn -0.0554635 -0.221664 0.973544
vn -0.0638764 -0.280515 0.957722
vn 0.00214824 0.0180628 0.999835
vn -0.0774622 0.111116 0.990784
vn -0.0214324 0.167226 0.985686
vn -0.0392347 0.154785 0.987169
vn -0.0226787 0.0317098 0.99924
vn -0.0309804 -0.037562 0.998814
vn 0.0297579 -0.173444 0.984394
vn 0.0502972 -0.249222 0.967139
vn 0.0308151 -0.0256034 0.999197
vn -0.0221735 -0.0130902 0.999668
vn -0.132313 0.150161 0.979768
vn -0.177629 0.206129 0.962267
vn -0.15532 0.145285 0.977122
vn 0.00330976 -0.00335331 0.999989
vn 0.123766 -0.23939 0.963003
vn 0.101688 -0.280115 0.954565
vn -0.00461694 0.0370168 0.999304
vn 0.0334617 -0.0484809 0.998263
vn 0.0229072 -0.00026458 0.999738
vn -0.158777 0.151313 0.975651
vn -0.185932 0.146786 0.971537
vn -0.1915 0.127872 0.973127
vn 0.0390714 -0.153435 0.987386
vn 0.183245 -0.381508 0.906021
vn 0.00651044 0.0392337 0.999209
vn 0.0628968 -0.0202385 0.997815
vn 0.109752 -0.0250782 0.993643
vn 0.032565 0.0343949 0.998878
vn -0.0266763 0.0838799 0.996119
vn -0.075539 0.0906717 0.993012
vn -0.177748 0.115835 0.977235
vn 0.033607 -0.15978 0.98658
f 100/100/100 4/4/4 13/13/13
f 44/44/44 3/3/3 21/21/21
f 44/44/44 19/19/19 20/20/20
f 60/60/60 19/19/19 52/52/52
f 60/60/60 17/17/17 18/18/18
f 76/76/76 17/17/17 68/68/68
f 84/84/84 16/16/16 76/76/76
f 84/84/84 14/14/14 15/15/15
f 100/100/100 14/14/14 92/92/92
f 11/11/11 93/93/93 85/85/85
f 93/93/93 86/86/86 85/85/85
f 94/94/94 87/87/87 86/86/86
f 87/87/87 96/96/96 88/88/88
f 96/96/96 89/89/89 88/88/88
f 97/97/97 90/90/90 89/89/89
f 90/90/90 99/99/99 91/91/91
f 91/91/91 100/100/100 92/92/92
f 10/10/10 85/85/85 77/77/77
f 77/77/77 86/86/86 78/78/78
f 78/78/78 87/87/87 79/79/79
f 79/79/79 88/88/88 80/80/80
f 88/88/88 81/81/81 80/80/80
f 81/81/81 90/90/90 82/82/82
f 82/82/82 91/91/91 83/83/83
f 91/91/91 84/84/84 83/83/83
f 10/10/10 69/69/69 9/9/9
f 69/69/69 78/78/78 70/70/70
f 70/70/70 79/79/79 71/71/71
f 79/79/79 72/72/72 71/71/71
f 72/72/72 81/81/81 73/73/73
f 73/73/73 82/82/82 74/74/74
f 82/82/82 75/75/75 74/74/74
f 83/83/83 76/76/76 75/75/75
f 9/9/9 61/61/61 8/8/8
f 69/69/69 62/62/62 61/61/61
f 62/62/62 71/71/71 63/63/63
f 63/63/63 72/72/72 64/64/64
f 72/72/72 65/65/65 64/64/64
f 65/65/65 74/74/74 66/66/66
f 66/66/66 75/75/75 67/67/67
f 67/67/67 76/76/76 68/68/68
f 8/8/8 53/53/53 7/7/7
f 53/53/53 62/62/62 54/54/54
f 54/54/54 63/63/63 55/55/55
f 55/55/55 64/64/64 56/56/56
f 64/64/64 57/57/57 56/56/56
f 57/57/57 66/66/66 58/58/58
f 58/58/58 67/67/67 59/59/59
f 59/59/59 68/68/68 60/60/60
f 6/6/6 53/53/53 45/45/45
f 45/45/45 54/54/54 46/46/46
f 54/54/54 47/47/47 46/46/46
f 55/55/55 48/48/48 47/47/47
f 56/56/56 49/49/49 48/48/48
f 49/49/49 58/58/58 50/50/50
f 58/58/58 51/51/51 50/50/50
f 59/59/59 52/52/52 51/51/51
f 6/6/6 37/37/37 5/5/5
f 45/45/45 38/38/38 37/37/37
f 46/46/46 39/39/39 38/38/38
f 39/39/39 48/48/48 40/40/40
f 40/40/40 49/49/49 41/41/41
f 41/41/41 50/50/50 42/42/42
f 50/50/50 43/43/43 42/42/42
f 51/51/51 44/44/44 43/43/43
f 5/5/5 28/28/28 1/1/1
f 28/28/28 38/38/38 27/27/27
f 27/27/27 39/39/39 26/26/26
f 26/26/26 40/40/40 25/25/25
f 40/40/40 24/24/24 25/25/25
f 41/41/41 23/23/23 24/24/24
f 23/23/23 43/43/43 22/22/22
f 43/43/43 21/21/21 22/22/22
f 2/2/2 93/93/93 12/12/12
f 93/93/93 30/30/30 94/94/94
f 30/30/30 95/95/95 94/94/94
f 31/31/31 96/96/96 95/95/95
f 32/32/32 97/97/97 96/96/96
f 33/33/33 98/98/98 97/97/97
f 98/98/98 35/35/35 99/99/99
f 99/99/99 36/36/36 100/100/100
f 100/100/100 36/36/36 4/4/4
f 44/44/44 20/20/20 3/3/3
f 44/44/44 52/52/52 19/19/19
f 60/60/60 18/18/18 19/19/19
f 60/60/60 68/68/68 17/17/17
f 76/76/76 16/16/16 17/17/17
f 84/84/84 15/15/15 16/16/16
f 84/84/84 92/92/92 14/14/14
f 100/100/100 13/13/13 14/14/14
f 11/11/11 12/12/12 93/93/93
f 93/93/93 94/94/94 86/86/86
f 94/94/94 95/95/95 87/87/87
f 87/87/87 95/95/95 96/96/96
f 96/96/96 97/97/97 89/89/89
f 97/97/97 98/98/98 90/90/90
f 90/90/90 98/98/98 99/99/99
f 91/91/91 99/99/99 100/100/100
f 10/10/10 11/11/11 85/85/85
f 77/77/77 85/85/85 86/86/86
f 78/78/78 86/86/86 87/87/87
f 79/79/79 87/87/87 88/88/88
f 88/88/88 89/89/89 81/81/81
f 81/81/81 89/89/89 90/90/90
f 82/82/82 90/90/90 91/91/91
f 91/91/91 92/92/92 84/84/84
f 10/10/10 77/77/77 69/69/69
f 69/69/69 77/77/77 78/78/78
f 70/70/70 78/78/78 79/79/79
f 79/79/79 80/80/80 72/72/72
f 72/72/72 80/80/80 81/81/81
f 73/73/73 81/81/81 82/82/82
f 82/82/82 83/83/83 75/75/75
f 83/83/83 84/84/84 76/76/76
f 9/9/9 69/69/69 61/61/61
f 69/69/69 70/70/70 62/62/62
f 62/62/62 70/70/70 71/71/71
f 63/63/63 71/71/71 72/72/72
f 72/72/72 73/73/73 65/65/65
f 65/65/65 73/73/73 74/74/74
f 66/66/66 74/74/74 75/75/75
f 67/67/67 75/75/75 76/76/76
f 8/8/8 61/61/61 53/53/53
f 53/53/53 61/61/61 62/62/62
f 54/54/54 62/62/62 63/63/63
f 55/55/55 63/63/63 64/64/64
f 64/64/64 65/65/65 57/57/57
f 57/57/57 65/65/65 66/66/66
f 58/58/58 66/66/66 67/67/67
f 59/59/59 67/67/67 68/68/68
f 6/6/6 7/7/7 53/53/53
f 45/45/45 53/53/53 54/54/54
f 54/54/54 55/55/55 47/47/47
f 55/55/55 56/56/56 48/48/48
f 56/56/56 57/57/57 49/49/49
f 49/49/49 57/57/57 58/58/58
f 58/58/58 59/59/59 51/51/51
f 59/59/59 60/60/60 52/52/52
f 6/6/6 45/45/45 37/37/37
f 45/45/45 46/46/46 38/38/38
f 46/46/46 47/47/47 39/39/39
f 39/39/39 47/47/47 48/48/48
f 40/40/40 48/48/48 49/49/49
f 41/41/41 49/49/49 50/50/50
f 50/50/50 51/51/51 43/43/43
f 51/51/51 52/52/52 44/44/44
f 5/5/5 37/37/37 28/28/28
f 28/28/28 37/37/37 38/38/38
f 27/27/27 38/38/38 39/39/39
f 26/26/26 39/39/39 40/40/40
f 40/40/40 41/41/41 24/24/24
f 41/41/41 42/42/42 23/23/23
f 23/23/23 42/42/42 43/43/43
f 43/43/43 44/44/44 21/21/21
f 2/2/2 29/29/29 93/93/93
f 93/93/93 29/29/29 30/30/30
f 30/30/30 31/31/31 95/95/95
f 31/31/31 32/32/32 96/96/96
f 32/32/32 33/33/33 97/97/97
f 33/33/33 34/34/34 98/98/98
f 98/98/98 34/34/34 35/35/35
f 99/99/99 35/35/35 36/36/36
