o GNATVCloth
v -5.0855 -4.97557 0.533864
v 4.96527 -4.98959 0.438499
v -5.01298 5.02105 0.004229
v 4.98702 5.02105 0.004229
v -3.97363 -4.99836 0.536431
v -2.863 -5.02698 0.456269
v -1.74309 -5.0487 0.453277
v -0.621144 -5.06109 0.446232
v 0.501181 -5.06314 0.408466
v 1.62238 -5.04696 0.397194
v 2.7399 -5.02857 0.444771
v 3.85396 -5.00239 0.479926
v 3.85357 4.95039 0.14932
v 2.72865 4.90531 0.28632
v 1.60334 4.84765 0.375232
v 0.484447 4.78966 0.469702
v -0.636246 4.74799 0.434014
v -1.74574 4.72717 0.267118
v -2.83804 4.77434 0.521333
v -3.91969 4.88617 0.262829
v -4.99753 3.90889 0.0836395
v -4.99865 2.79493 0.118193
v -5.00266 1.68208 0.157657
v -5.01516 0.569859 0.205588
v -5.02675 -0.541085 0.274854
v -5.0373 -1.65093 0.357968
v -5.04721 -2.7584 0.456844
v -5.06251 -3.86249 0.54743
v 4.95399 -3.88133 0.336216
v 4.94844 -2.76994 0.299137
v 4.94442 -1.65795 0.273459
v 4.9425 -0.543158 0.240024
v 4.94145 0.569073 0.215697
v 4.94342 1.6814 0.179503
v 4.95148 2.79482 0.143116
v 4.95765 3.9069 0.0607342
v -3.8989 -3.858 0.386131
v -3.85995 -3.21366 0.292573
v -3.70375 -1.92712 0.20716
v -4.14027 -0.270247 0.179317
v -4.15699 0.743327 0.20394
v -4.14316 1.52509 0.166021
v -4.07563 2.82002 0.10226
v -3.94122 3.88513 -0.127747
v -2.77631 -4.01621 0.284162
v -2.84086 -2.7476 0.243453
v -2.71941 -2.15587 0.288133
v -2.78368 -0.611022 0.334898
v -2.80479 0.519963 0.314351
v -2.72422 1.55659 0.150622
v -2.86094 2.86954 -0.137593
v -2.8222 3.48354 0.206639
v -1.71706 -4.24125 0.343473
v -1.55316 -2.92729 0.385313
v -1.93942 -1.63824 0.442604
v -1.91249 -0.844563 0.39563
v -1.55335 0.627576 0.102649
v -2.0035 1.67564 -0.0414663
v -1.7592 2.70646 0.173374
v -1.62022 3.64471 0.365134
v -0.295679 -4.32009 0.378483
v -0.641294 -2.88862 0.401172
v -0.597052 -1.74872 0.462436
v -0.881028 -0.780148 0.330529
v -0.639188 0.427949 0.20497
v -0.401773 1.46659 0.223867
v -0.602898 2.64764 0.291954
v -0.795349 3.48073 0.369141
v 0.674952 -3.89343 0.382264
v 0.757732 -2.60423 0.449714
v 0.474413 -1.81538 0.425397
v 0.56437 -0.49357 0.350197
v 0.539895 0.409827 0.29152
v 0.26194 1.51893 0.336766
v 0.495713 2.49612 0.342762
v 0.508936 3.71836 0.4381
v 1.89014 -3.64591 0.449383
v 1.61277 -2.84055 0.335323
v 1.77379 -1.91704 0.415716
v 1.93261 -0.386456 0.338156
v 1.91702 0.26973 0.133849
v 1.79159 1.53445 0.235672
v 1.38717 2.8156 0.297615
v 1.44944 3.64348 0.368712
v 2.73298 -3.91408 0.424029
v 3.04071 -2.83076 0.343194
v 2.8935 -1.95693 0.241111
v 2.67212 -0.496859 0.361766
v 2.91279 0.294248 0.26021
v 3.02684 1.57067 0.00676726
v 2.74299 3.13975 0.0860311
v 2.71424 3.49858 0.155883
v 3.8558 -3.96699 0.330675
v 3.60433 -2.70972 0.336904
v 3.81789 -1.67187 0.294125
v 3.76016 -0.716452 0.263605
v 3.82427 0.294575 0.310496
v 4.12437 1.80875 0.183192
v 4.11323 2.7568 -0.00637287
v 4.00439 3.88282 -0.0420727
vt 0.0001 0.0001
vt 0.9999 0.0001
vt 0.0001 0.9999
vt 0.9999 0.9999
vt 0.111189 0.0001
vt 0.222278 0.0001
vt 0.333367 0.0001
vt 0.444455 0.0001
vt 0.555544 0.0001
vt 0.666633 0.0001
vt 0.777722 0.0001
vt 0.888811 0.0001
vt 0.888811 0.9999
vt 0.777722 0.9999
vt 0.666633 0.9999
vt 0.555544 0.9999
vt 0.444455 0.9999
vt 0.333367 0.9999
vt 0.222278 0.9999
vt 0.111189 0.9999
vt 0.0001 0.888811
vt 0.0001 0.777722
vt 0.0001 0.666633
vt 0.0001 0.555544
vt 0.0001 0.444456
vt 0.0001 0.333367
vt 0.0001 0.222278
vt 0.0001 0.111189
vt 0.9999 0.111189
vt 0.9999 0.222278
vt 0.9999 0.333367
vt 0.9999 0.444456
vt 0.9999 0.555544
vt 0.9999 0.666633
vt 0.9999 0.777722
vt 0.9999 0.888811
vt 0.11727 0.115399
vt 0.120778 0.180369
vt 0.134636 0.309595
vt 0.088728 0.473895
vt 0.085886 0.575352
vt 0.086211 0.65375
vt 0.092207 0.78313
vt 0.106956 0.892282
vt 0.22987 0.102869
vt 0.221803 0.229552
vt 0.233521 0.288953
vt 0.225541 0.443179
vt 0.221596 0.556167
vt 0.227801 0.661237
vt 0.214896 0.795203
vt 0.22542 0.865181
vt 0.335524 0.082127
vt 0.351143 0.213907
vt 0.311934 0.342467
vt 0.313159 0.422214
vt 0.347791 0.572605
vt 0.301482 0.677733
vt 0.329031 0.783086
vt 0.344903 0.885466
vt 0.476837 0.074882
vt 0.441952 0.218774
vt 0.445749 0.333088
vt 0.416414 0.43099
vt 0.439746 0.552976
vt 0.463203 0.656843
vt 0.444252 0.77653
vt 0.426137 0.866051
vt 0.573419 0.117409
vt 0.581125 0.246686
vt 0.552512 0.326
vt 0.561075 0.459693
vt 0.558356 0.550596
vt 0.530299 0.662189
vt 0.553275 0.760113
vt 0.555478 0.888821
vt 0.694433 0.13996
vt 0.667048 0.221666
vt 0.681985 0.314267
vt 0.698218 0.467249
vt 0.696819 0.535952
vt 0.68253 0.662758
vt 0.642062 0.791726
vt 0.648523 0.877957
vt 0.778029 0.111667
vt 0.809426 0.219523
vt 0.794923 0.307783
vt 0.772028 0.454562
vt 0.796846 0.533374
vt 0.807262 0.663157
vt 0.778581 0.821037
vt 0.775122 0.858219
vt 0.890224 0.104741
vt 0.865679 0.23076
vt 0.887326 0.334104
vt 0.881307 0.429754
vt 0.887973 0.53063
vt 0.918106 0.681428
vt 0.915043 0.778027
vt 0.904815 0.89094
vn -0.00255702 -0.0121335 0.999923
vn 0.011532 0.117219 0.993039
vn -0.0309954 -0.144159 0.989069
vn 0.0134706 -0.0522484 0.998543
vn 0.0695638 0.0783096 0.994499
vn 0.0430767 0.146982 0.988201
vn 0.0064816 0.13454 0.990887
vn 0.0074651 0.103429 0.994609
vn 0.00958015 0.0406346 0.999128
vn -0.0163656 -0.00724484 0.99984
vn 0.00211971 0.0602163 0.998183
vn 0.000333548 0.142673 0.98977
vn 0.130302 -0.157095 0.97895
vn 0.134752 -0.0898913 0.986793
vn 0.0822535 -0.0159075 0.996485
vn 0.0419278 -0.0247689 0.998814
vn -0.0600343 -0.0132924 0.998108
vn 0.0408447 0.094801 0.994658
vn -0.122477 -0.181227 0.975785
vn -0.253992 -0.346817 0.902888
vn 0.137652 0.0961193 0.985806
vn 0.0163475 0.0331798 0.999316
vn 0.00197248 0.044049 0.999027
vn 0.0295453 0.0267157 0.999206
vn 0.0865477 0.067339 0.993969
vn 0.112218 0.069854 0.991225
vn 0.150125 0.0707311 0.986134
vn 0.10914 0.0806217 0.990752
vn -0.00991542 0.0625654 0.997992
vn 0.0170457 0.0230548 0.999589
vn 0.0171704 0.028718 0.99944
vn 0.0406012 0.00128693 0.999175
vn 0.0520058 0.0416083 0.99778
vn 0.00956203 0.0325481 0.999424
vn -0.117236 0.0996551 0.988091
vn -0.131591 0.0493659 0.990074
vn 0.113244 0.13494 0.984361
vn 0.102975 0.0824587 0.99126
vn 0.0177543 0.0205594 0.999631
vn -0.00155863 0.0194595 0.999809
vn -0.0218429 0.0417679 0.998888
vn 0.00448209 0.048656 0.998806
vn 0.0865186 0.109576 0.990206
vn -0.104089 -0.139042 0.984801
vn 0.0111891 0.0837492 0.996424
vn -0.0532377 0.00352421 0.998576
vn -0.122088 -0.0525937 0.991125
vn -0.101116 0.00144911 0.994874
vn 0.0316033 0.0946743 0.995007
vn 0.100015 0.14304 0.98465
vn -0.0745411 -0.0665657 0.994994
vn -0.254736 -0.310751 0.91572
vn -0.0183763 0.0661992 0.997637
vn -0.0675476 -0.0382082 0.996984
vn -0.0545913 0.0132996 0.99842
vn 0.0287986 0.0955021 0.995013
vn 0.000112742 0.123343 0.992364
vn -0.018874 0.0348796 0.999213
vn -0.16115 -0.211571 0.963986
vn -0.0301232 -0.0810965 0.996251
vn -0.0046233 0.0326343 0.999457
vn -0.0122483 -0.0298105 0.999481
vn -0.00112215 0.025766 0.999667
vn -0.00864312 0.121554 0.992547
vn -0.09109 0.0436812 0.994884
vn -0.139093 -0.00355298 0.990273
vn -0.0895878 -0.104227 0.99051
vn -0.0488852 -0.101198 0.993665
vn -0.00538665 0.000871108 0.999985
vn 0.033603 -0.0326354 0.998902
vn 0.0105662 0.0214033 0.999715
vn 0.00181263 0.103191 0.99466
vn 0.0295335 -0.00447802 0.999554
vn -0.0565835 -0.010015 0.998348
vn -0.0128474 -0.0399471 0.999119
vn 0.00711694 -0.0643045 0.997905
vn -0.0135181 0.0489235 0.998711
vn 0.0468541 0.0153897 0.998783
vn 0.0584932 -0.0115731 0.998221
vn -0.00503506 0.175808 0.984412
vn 0.0222522 0.13087 0.99115
vn 0.117333 -0.0316108 0.992589
vn 0.107326 -0.058957 0.992474
vn 0.111186 -0.0741919 0.991026
vn 0.0385438 0.0215144 0.999025
vn 0.0200365 0.0792651 0.996652
vn 0.031172 0.0103955 0.99946
vn 0.0333094 0.0810156 0.996156
vn -0.0518448 0.124832 0.990822
vn -0.0201255 0.086375 0.996059
vn 0.141995 -0.0666014 0.987624
vn 0.169042 -0.133976 0.976461
vn 0.0237452 0.059824 0.997926
vn -0.00367718 0.0407292 0.999163
vn -0.0149498 0.0351342 0.999271
vn 0.017674 0.00336061 0.999838
vn -0.0198773 0.0535599 0.998367
vn -0.0794725 0.106651 0.991115
vn -0.0889977 0.0799043 0.992822
vn 0.0722237 -0.0672446 0.995119
f 100/100/100 4/4/4 13/13/13
f 44/44/44 3/3/3 21/21/21
f 44/44/44 19/19/19 20/20/20
f 60/60/60 19/19/19 52/52/52
f 60/60/60 17/17/17 18/18/18
f 76/76/76 17/17/17 68/68/68
f 84/84/84 16/16/16 76/76/76
f 84/84/84 14/14/14 15/15/15
f 100/100/100 14/14/14 92/92/92
f 11/11/11 93/93/93 85/85/85
f 93/93/93 86/86/86 85/85/85
f 94/94/94 87/87/87 86/86/86
f 87/87/87 96/96/96 88/88/88
f 96/96/96 89/89/89 88/88/88
f 97/97/97 90/90/90 89/89/89
f 90/90/90 99/99/99 91/91/91
f 91/91/91 100/100/100 92/92/92
f 10/10/10 85/85/85 77/77/77
f 77/77/77 86/86/86 78/78/78
f 78/78/78 87/87/87 79/79/79
f 79/79/79 88/88/88 80/80/80
f 88/88/88 81/81/81 80/80/80
f 81/81/81 90/90/90 82/82/82
f 82/82/82 91/91/91 83/83/83
f 91/91/91 84/84/84 83/83/83
f 10/10/10 69/69/69 9/9/9
f 69/69/69 78/78/78 70/70/70
f 70/70/70 79/79/79 71/71/71
f 79/79/79 72/72/72 71/71/71
f 72/72/72 81/81/81 73/73/73
f 73/73/73 82/82/82 74/74/74
f 82/82/82 75/75/75 74/74/74
f 83/83/83 76/76/76 75/75/75
f 9/9/9 61/61/61 8/8/8
f 69/69/69 62/62/62 61/61/61
f 62/62/62 71/71/71 63/63/63
f 63/63/63 72/72/72 64/64/64
f 72/72/72 65/65/65 64/64/64
f 65/65/65 74/74/74 66/66/66
f 66/66/66 75/75/75 67/67/67
f 67/67/67 76/76/76 68/68/68
f 8/8/8 53/53/53 7/7/7
f 53/53/53 62/62/62 54/54/54
f 54/54/54 63/63/63 55/55/55
f 55/55/55 64/64/64 56/56/56
f 64/64/64 57/57/57 56/56/56
f 57/57/57 66/66/66 58/58/58
f 58/58/58 67/67/67 59/59/59
f 59/59/59 68/68/68 60/60/60
f 6/6/6 53/53/53 45/45/45
f 45/45/45 54/54/54 46/46/46
f 54/54/54 47/47/47 46/46/46
f 55/55/55 48/48/48 47/47/47
f 56/56/56 49/49/49 48/48/48
f 49/49/49 58/58/58 50/50/50
f 58/58/58 51/51/51 50/50/50
f 59/59/59 52/52/52 51/51/51
f 6/6/6 37/37/37 5/5/5
f 45/45/45 38/38/38 37/37/37
f 46/46/46 39/39/39 38/38/38
f 39/39/39 48/48/48 40/40/40
f 40/40/40 49/49/49 41/41/41
f 41/41/41 50/50/50 42/42/42
f 50/50/50 43/43/43 42/42/42
f 51/51/51 44/44/44 43/43/43
f 5/5/5 28/28/28 1/1/1
f 28/28/28 38/38/38 27/27/27
f 27/27/27 39/39/39 26/26/26
f 26/26/26 40/40/40 25/25/25
f 40/40/40 24/24/24 25/25/25
f 41/41/41 23/23/23 24/24/24
f 23/23/23 43/43/43 22/22/22
f 43/43/43 21/21/21 22/22/22
f 2/2/2 93/93/93 12/12/12
f 93/93/93 30/30/30 94/94/94
f 30/30/30 95/95/95 94/94/94
f 31/31/31 96/96/96 95/95/95
f 32/32/32 97/97/97 96/96/96
f 33/33/33 98/98/98 97/97/97
f 98/98/98 35/35/35 99/99/99
f 99/99/99 36/36/36 100/100/100
f 100/100/100 36/36/36 4/4/4
f 44/44/44 20/20/20 3/3/3
f 44/44/44 52/52/52 19/19/19
f 60/60/60 18/18/18 19/19/19
f 60/60/60 68/68/68 17/17/17
f 76/76/76 16/16/16 17/17/17
f 84/84/84 15/15/15 16/16/16
f 84/84/84 92/92/92 14/14/14
f 100/100/100 13/13/13 14/14/14
f 11/11/11 12/12/12 93/93/93
f 93/93/93 94/94/94 86/86/86
f 94/94/94 95/95/95 87/87/87
f 87/87/87 95/95/95 96/96/96
f 96/96/96 97/97/97 89/89/89
f 97/97/97 98/98/98 90/90/90
f 90/90/90 98/98/98 99/99/99
f 91/91/91 99/99/99 100/100/100
f 10/10/10 11/11/11 85/85/85
f 77/77/77 85/85/85 86/86/86
f 78/78/78 86/86/86 87/87/87
f 79/79/79 87/87/87 88/88/88
f 88/88/88 89/89/89 81/81/81
f 81/81/81 89/89/89 90/90/90
f 82/82/82 90/90/90 91/91/91
f 91/91/91 92/92/92 84/84/84
f 10/10/10 77/77/77 69/69/69
f 69/69/69 77/77/77 78/78/78
f 70/70/70 78/78/78 79/79/79
f 79/79/79 80/80/80 72/72/72
f 72/72/72 80/80/80 81/81/81
f 73/73/73 81/81/81 82/82/82
f 82/82/82 83/83/83 75/75/75
f 83/83/83 84/84/84 76/76/76
f 9/9/9 69/69/69 61/61/61
f 69/69/69 70/70/70 62/62/62
f 62/62/62 70/70/70 71/71/71
f 63/63/63 71/71/71 72/72/72
f 72/72/72 73/73/73 65/65/65
f 65/65/65 73/73/73 74/74/74
f 66/66/66 74/74/74 75/75/75
f 67/67/67 75/75/75 76/76/76
f 8/8/8 61/61/61 53/53/53
f 53/53/53 61/61/61 62/62/62
f 54/54/54 62/62/62 63/63/63
f 55/55/55 63/63/63 64/64/64
f 64/64/64 65/65/65 57/57/57
f 57/57/57 65/65/65 66/66/66
f 58/58/58 66/66/66 67/67/67
f 59/59/59 67/67/67 68/68/68
f 6/6/6 7/7/7 53/53/53
f 45/45/45 53/53/53 54/54/54
f 54/54/54 55/55/55 47/47/47
f 55/55/55 56/56/56 48/48/48
f 56/56/56 57/57/57 49/49/49
f 49/49/49 57/57/57 58/58/58
f 58/58/58 59/59/59 51/51/51
f 59/59/59 60/60/60 52/52/52
f 6/6/6 45/45/45 37/37/37
f 45/45/45 46/46/46 38/38/38
f 46/46/46 47/47/47 39/39/39
f 39/39/39 47/47/47 48/48/48
f 40/40/40 48/48/48 49/49/49
f 41/41/41 49/49/49 50/50/50
f 50/50/50 51/51/51 43/43/43
f 51/51/51 52/52/52 44/44/44
f 5/5/5 37/37/37 28/28/28
f 28/28/28 37/37/37 38/38/38
f 27/27/27 38/38/38 39/39/39
f 26/26/26 39/39/39 40/40/40
f 40/40/40 41/41/41 24/24/24
f 41/41/41 42/42/42 23/23/23
f 23/23/23 42/42/42 43/43/43
f 43/43/43 44/44/44 21/21/21
f 2/2/2 29/29/29 93/93/93
f 93/93/93 29/29/29 30/30/30
f 30/30/30 31/31/31 95/95/95
f 31/31/31 32/32/32 96/96/96
f 32/32/32 33/33/33 97/97/97
f 33/33/33 34/34/34 98/98/98
f 98/98/98 34/34/34 35/35/35
f 99/99/99 35/35/35 36/36/36
