o GNATVCloth
v -5.06063 -4.98765 0.582866
v 5.04228 -4.99266 0.393704
v -5.01298 5.02105 0.004229
v 4.98702 5.02105 0.004229
v -3.94618 -5.0166 0.544769
v -2.82735 -5.06143 0.480345
v -1.70393 -5.08834 0.495715
v -0.576528 -5.10984 0.502301
v 0.554593 -5.12108 0.489998
v 1.68302 -5.09146 0.507745
v 2.80683 -5.0648 0.455312
v 3.92781 -5.01248 0.494429
v 3.86154 4.9173 0.15864
v 2.74758 4.84978 0.319642
v 1.6263 4.79319 0.33317
v 0.512369 4.74035 0.325272
v -0.587033 4.73087 0.446804
v -1.69398 4.74429 0.600661
v -2.81544 4.78702 0.532717
v -3.91184 4.88496 0.279267
v -4.98632 3.9068 0.0741985
v -4.99059 2.7923 0.140191
v -5.00034 1.67846 0.205083
v -5.00615 0.564934 0.269698
v -5.01087 -0.548402 0.326144
v -5.01821 -1.66092 0.371111
v -5.02728 -2.77417 0.405466
v -5.0322 -3.87999 0.512942
v 5.01913 -3.88847 0.29013
v 5.0073 -2.77632 0.294946
v 4.99773 -1.66433 0.254173
v 4.9902 -0.551394 0.234175
v 4.98279 0.562161 0.208767
v 4.97536 1.67632 0.164832
v 4.97297 2.7913 0.126882
v 4.97095 3.90524 0.051772
v -3.86944 -3.89042 0.325262
v -3.82948 -3.24314 0.273243
v -3.67921 -1.95377 0.241634
v -4.13002 -0.291338 0.221543
v -4.15171 0.725855 0.197319
v -4.143 1.50839 0.139838
v -4.07341 2.79757 0.0380473
v -3.92163 3.87659 -0.0936622
v -2.73596 -4.05413 0.29893
v -2.81115 -2.78458 0.34351
v -2.68741 -2.1969 0.291123
v -2.76159 -0.652646 0.294432
v -2.79439 0.474825 0.187269
v -2.72829 1.51328 0.0364592
v -2.84489 2.85589 -0.0686048
v -2.74091 3.53911 0.055436
v -1.67122 -4.28839 0.319381
v -1.50927 -2.97534 0.396786
v -1.90072 -1.68544 0.388247
v -1.88381 -0.890367 0.339133
v -1.53189 0.583054 0.0927618
v -1.99029 1.64449 -0.0287304
v -1.71044 2.68594 0.0540008
v -1.58414 3.61999 0.430973
v -0.245372 -4.3773 0.388404
v -0.595987 -2.94344 0.469881
v -0.552569 -1.79986 0.463335
v -0.844533 -0.8282 0.322451
v -0.607766 0.373465 0.140824
v -0.375176 1.39096 0.108708
v -0.569593 2.58026 0.160213
v -0.762042 3.41768 0.442661
v 0.72692 -3.94831 0.411459
v 0.809519 -2.65924 0.520414
v 0.524112 -1.87005 0.485438
v 0.611312 -0.558326 0.23025
v 0.586292 0.34656 0.199599
v 0.2977 1.44322 0.145985
v 0.523188 2.41488 0.183403
v 0.538047 3.65437 0.394181
v 1.94546 -3.69093 0.387939
v 1.66274 -2.88266 0.354356
v 1.82792 -1.9637 0.466607
v 1.98906 -0.464555 0.127036
v 1.96912 0.212149 0.00899401
v 1.82719 1.47337 0.0936973
v 1.41017 2.74495 0.17007
v 1.47671 3.57549 0.334883
v 2.7918 -3.95202 0.385599
v 3.09681 -2.86484 0.320714
v 2.94595 -1.98783 0.258533
v 2.70972 -0.528723 0.329241
v 2.95483 0.26078 0.20893
v 3.07082 1.53124 -0.0718811
v 2.76074 3.09621 -0.0269569
v 2.72706 3.45976 0.0465393
v 3.91907 -3.98841 0.289424
v 3.66149 -2.73553 0.313341
v 3.87111 -1.69397 0.287058
v 3.80706 -0.738844 0.296365
v 3.86546 0.273776 0.289135
v 4.15547 1.79114 0.156468
v 4.13871 2.73892 -0.0344486
v 4.02178 3.86272 -0.0783179
vt 0.0001 0.0001
vt 0.9999 0.0001
vt 0.0001 0.9999
vt 0.9999 0.9999
vt 0.111189 0.0001
vt 0.222278 0.0001
vt 0.333367 0.0001
vt 0.444455 0.0001
vt 0.555544 0.0001
vt 0.666633 0.0001
vt 0.777722 0.0001
vt 0.888811 0.0001
vt 0.888811 0.9999
vt 0.777722 0.9999
vt 0.666633 0.9999
vt 0.555544 0.9999
vt 0.444455 0.9999
vt 0.333367 0.9999
vt 0.222278 0.9999
vt 0.111189 0.9999
vt 0.0001 0.888811
vt 0.0001 0.777722
vt 0.0001 0.666633
vt 0.0001 0.555544
vt 0.0001 0.444456
vt 0.0001 0.333367
vt 0.0001 0.222278
vt 0.0001 0.111189
vt 0.9999 0.111189
vt 0.9999 0.222278
vt 0.9999 0.333367
vt 0.9999 0.444456
vt 0.9999 0.555544
vt 0.9999 0.666633
vt 0.9999 0.777722
vt 0.9999 0.888811
vt 0.11727 0.115399
vt 0.120778 0.180369
vt 0.134636 0.309595
vt 0.088728 0.473895
vt 0.085886 0.575352
vt 0.086211 0.65375
vt 0.092207 0.78313
vt 0.106956 0.892282
vt 0.22987 0.102869
vt 0.221803 0.229552
vt 0.233521 0.288953
vt 0.225541 0.443179
vt 0.221596 0.556167
vt 0.227801 0.661237
vt 0.214896 0.795203
vt 0.22542 0.865181
vt 0.335524 0.082127
vt 0.351143 0.213907
vt 0.311934 0.342467
vt 0.313159 0.422214
vt 0.347791 0.572605
vt 0.301482 0.677733
vt 0.329031 0.783086
vt 0.344903 0.885466
vt 0.476837 0.074882
vt 0.441952 0.218774
vt 0.445749 0.333088
vt 0.416414 0.43099
vt 0.439746 0.552976
vt 0.463203 0.656843
vt 0.444252 0.77653
vt 0.426137 0.866051
vt 0.573419 0.117409
vt 0.581125 0.246686
vt 0.552512 0.326
vt 0.561075 0.459693
vt 0.558356 0.550596
vt 0.530299 0.662189
vt 0.553275 0.760113
vt 0.555478 0.888821
vt 0.694433 0.13996
vt 0.667048 0.221666
vt 0.681985 0.314267
vt 0.698218 0.467249
vt 0.696819 0.535952
vt 0.68253 0.662758
vt 0.642062 0.791726
vt 0.648523 0.877957
vt 0.778029 0.111667
vt 0.809426 0.219523
vt 0.794923 0.307783
vt 0.772028 0.454562
vt 0.796846 0.533374
vt 0.807262 0.663157
vt 0.778581 0.821037
vt 0.775122 0.858219
vt 0.890224 0.104741
vt 0.865679 0.23076
vt 0.887326 0.334104
vt 0.881307 0.429754
vt 0.887973 0.53063
vt 0.918106 0.681428
vt 0.915043 0.778027
vt 0.904815 0.89094
vn 0.0357088 0.0620488 0.997434
vn 0.0379397 0.145099 0.988689
vn -0.0574221 -0.139316 0.988582
vn 0.0067853 -0.0767063 0.997031
vn 0.0862598 0.142858 0.985977
vn 0.0308307 0.187754 0.981732
vn -0.00489689 0.215449 0.976503
vn -0.0088215 0.177918 0.984006
vn -0.0206814 0.0976356 0.995007
vn 0.0140677 0.0744047 0.997129
vn 0.0296258 0.107798 0.993731
vn 0.0207803 0.19642 0.9803
vn 0.15139 -0.194749 0.9691
vn 0.131066 -0.145665 0.980614
vn 0.00243489 0.00110791 0.999996
vn 0.0568303 0.0442689 0.997402
vn 0.0673311 -0.0198401 0.997533
vn 0.0347624 -0.145827 0.988699
vn -0.198744 -0.304232 0.931635
vn -0.253784 -0.333348 0.908005
vn 0.141751 0.0739396 0.987137
vn 0.110172 0.0575875 0.992243
vn 0.0909511 0.0649467 0.993735
vn 0.0855315 0.0442564 0.995352
vn 0.104932 0.0446914 0.993475
vn 0.104692 0.0365889 0.993831
vn 0.120961 0.0453616 0.99162
vn 0.125194 0.101471 0.98693
vn -0.00468313 0.0444862 0.998999
vn 0.0138656 0.00962707 0.999857
vn 0.0357277 0.0157963 0.999237
vn 0.0557356 0.0152074 0.99833
vn 0.0376223 0.0466148 0.998204
vn -0.00505657 0.036688 0.999314
vn -0.133108 0.0972457 0.986319
vn -0.156026 0.0447625 0.986738
vn 0.0930839 0.137457 0.986124
vn 0.0533054 0.0418109 0.997702
vn 0.0152176 0.0290782 0.999461
vn 0.0464201 0.038745 0.99817
vn 0.0602074 0.0655191 0.996033
vn 0.0812306 0.073104 0.994011
vn 0.100571 0.0794014 0.991756
vn -0.0735815 -0.134393 0.988192
vn -0.00459716 0.0495135 0.998763
vn -0.0472235 0.0294568 0.99845
vn -0.0657442 0.0302063 0.997379
vn -0.0517103 0.0392383 0.997891
vn 0.0253657 0.112047 0.993379
vn 0.0660137 0.0995401 0.992841
vn -0.029439 -0.0133604 0.999477
vn -0.211358 -0.273126 0.938472
vn -0.027226 0.08684 0.99585
vn -0.0608307 -0.0107133 0.998091
vn -0.0577744 0.0351148 0.997712
vn 0.00404454 0.106467 0.994308
vn -0.000317853 0.122036 0.992526
vn -0.0258707 0.0413037 0.998812
vn -0.140342 -0.217408 0.965939
vn -0.0992643 -0.227704 0.968657
vn -0.0267211 0.053735 0.998198
vn -0.0415287 -0.0305513 0.99867
vn -0.0291743 0.0803085 0.996343
vn 0.00465246 0.134085 0.990959
vn -0.0298126 0.0750931 0.996731
vn -0.0581481 0.00612148 0.998289
vn -0.0495338 -0.16285 0.985407
vn -0.0215871 -0.205771 0.978362
vn 0.012285 0.00591969 0.999907
vn 0.0554903 -0.0490075 0.997256
vn -0.00476502 0.0937333 0.995586
vn 0.0379233 0.142251 0.989104
vn 0.0417122 0.0224346 0.998878
vn -0.0184946 0.013182 0.999742
vn 0.00296465 -0.0843446 0.996432
vn 0.0551961 -0.102533 0.993197
vn 0.0161625 0.0627327 0.9979
vn 0.0925413 -0.0372946 0.99501
vn 0.0545856 0.055191 0.996983
vn -0.0951561 0.198972 0.975375
vn -0.0284188 0.102833 0.994293
vn 0.0924903 -0.0221371 0.995467
vn 0.0998128 -0.127069 0.986859
vn 0.104084 -0.101581 0.989367
vn 0.0530067 0.0592328 0.996836
vn 0.0274237 0.0446955 0.998624
vn 0.047797 -0.00676278 0.998834
vn -0.075075 0.115309 0.990489
vn -0.106868 0.162661 0.980877
vn -0.0739082 0.0997159 0.992267
vn 0.121327 -0.0814423 0.989266
vn 0.17841 -0.185667 0.96628
vn 0.0294943 0.0687588 0.997197
vn -6.82812e-05 0.018822 0.999823
vn 0.000664301 0.0146926 0.999892
vn 0.0132212 0.0148898 0.999802
vn -0.0405443 0.0787639 0.996068
vn -0.106913 0.110572 0.988101
vn -0.127659 0.0805376 0.988543
vn 0.0504894 -0.0950208 0.994194
f 100/100/100 4/4/4 13/13/13
f 44/44/44 3/3/3 21/21/21
f 44/44/44 19/19/19 20/20/20
f 60/60/60 19/19/19 52/52/52
f 60/60/60 17/17/17 18/18/18
f 76/76/76 17/17/17 68/68/68
f 84/84/84 16/16/16 76/76/76
f 84/84/84 14/14/14 15/15/15
f 100/100/100 14/14/14 92/92/92
f 11/11/11 93/93/93 85/85/85
f 93/93/93 86/86/86 85/85/85
f 94/94/94 87/87/87 86/86/86
f 87/87/87 96/96/96 88/88/88
f 96/96/96 89/89/89 88/88/88
f 97/97/97 90/90/90 89/89/89
f 90/90/90 99/99/99 91/91/91
f 91/91/91 100/100/100 92/92/92
f 10/10/10 85/85/85 77/77/77
f 77/77/77 86/86/86 78/78/78
f 78/78/78 87/87/87 79/79/79
f 79/79/79 88/88/88 80/80/80
f 88/88/88 81/81/81 80/80/80
f 81/81/81 90/90/90 82/82/82
f 82/82/82 91/91/91 83/83/83
f 91/91/91 84/84/84 83/83/83
f 10/10/10 69/69/69 9/9/9
f 69/69/69 78/78/78 70/70/70
f 70/70/70 79/79/79 71/71/71
f 79/79/79 72/72/72 71/71/71
f 72/72/72 81/81/81 73/73/73
f 73/73/73 82/82/82 74/74/74
f 82/82/82 75/75/75 74/74/74
f 83/83/83 76/76/76 75/75/75
f 9/9/9 61/61/61 8/8/8
f 69/69/69 62/62/62 61/61/61
f 62/62/62 71/71/71 63/63/63
f 63/63/63 72/72/72 64/64/64
f 72/72/72 65/65/65 64/64/64
f 65/65/65 74/74/74 66/66/66
f 66/66/66 75/75/75 67/67/67
f 67/67/67 76/76/76 68/68/68
f 8/8/8 53/53/53 7/7/7
f 53/53/53 62/62/62 54/54/54
f 54/54/54 63/63/63 55/55/55
f 55/55/55 64/64/64 56/56/56
f 64/64/64 57/57/57 56/56/56
f 57/57/57 66/66/66 58/58/58
f 58/58/58 67/67/67 59/59/59
f 59/59/59 68/68/68 60/60/60
f 6/6/6 53/53/53 45/45/45
f 45/45/45 54/54/54 46/46/46
f 54/54/54 47/47/47 46/46/46
f 55/55/55 48/48/48 47/47/47
f 56/56/56 49/49/49 48/48/48
f 49/49/49 58/58/58 50/50/50
f 58/58/58 51/51/51 50/50/50
f 59/59/59 52/52/52 51/51/51
f 6/6/6 37/37/37 5/5/5
f 45/45/45 38/38/38 37/37/37
f 46/46/46 39/39/39 38/38/38
f 39/39/39 48/48/48 40/40/40
f 40/40/40 49/49/49 41/41/41
f 41/41/41 50/50/50 42/42/42
f 50/50/50 43/43/43 42/42/42
f 51/51/51 44/44/44 43/43/43
f 5/5/5 28/28/28 1/1/1
f 28/28/28 38/38/38 27/27/27
f 27/27/27 39/39/39 26/26/26
f 26/26/26 40/40/40 25/25/25
f 40/40/40 24/24/24 25/25/25
f 41/41/41 23/23/23 24/24/24
f 23/23/23 43/43/43 22/22/22
f 43/43/43 21/21/21 22/22/22
f 2/2/2 93/93/93 12/12/12
f 93/93/93 30/30/30 94/94/94
f 30/30/30 95/95/95 94/94/94
f 31/31/31 96/96/96 95/95/95
f 32/32/32 97/97/97 96/96/96
f 33/33/33 98/98/98 97/97/97
f 98/98/98 35/35/35 99/99/99
f 99/99/99 36/36/36 100/100/100
f 100/100/100 36/36/36 4/4/4
f 44/44/44 20/20/20 3/3/3
f 44/44/44 52/52/52 19/19/19
f 60/60/60 18/18/18 19/19/19
f 60/60/60 68/68/68 17/17/17
f 76/76/76 16/16/16 17/17/17
f 84/84/84 15/15/15 16/16/16
f 84/84/84 92/92/92 14/14/14
f 100/100/100 13/13/13 14/14/14
f 11/11/11 12/12/12 93/93/93
f 93/93/93 94/94/94 86/86/86
f 94/94/94 95/95/95 87/87/87
f 87/87/87 95/95/95 96/96/96
f 96/96/96 97/97/97 89/89/89
f 97/97/97 98/98/98 90/90/90
f 90/90/90 98/98/98 99/99/99
f 91/91/91 99/99/99 100/100/100
f 10/10/10 11/11/11 85/85/85
f 77/77/77 85/85/85 86/86/86
f 78/78/78 86/86/86 87/87/87
f 79/79/79 87/87/87 88/88/88
f 88/88/88 89/89/89 81/81/81
f 81/81/81 89/89/89 90/90/90
f 82/82/82 90/90/90 91/91/91
f 91/91/91 92/92/92 84/84/84
f 10/10/10 77/77/77 69/69/69
f 69/69/69 77/77/77 78/78/78
f 70/70/70 78/78/78 79/79/79
f 79/79/79 80/80/80 72/72/72
f 72/72/72 80/80/80 81/81/81
f 73/73/73 81/81/81 82/82/82
f 82/82/82 83/83/83 75/75/75
f 83/83/83 84/84/84 76/76/76
f 9/9/9 69/69/69 61/61/61
f 69/69/69 70/70/70 62/62/62
f 62/62/62 70/70/70 71/71/71
f 63/63/63 71/71/71 72/72/72
f 72/72/72 73/73/73 65/65/65
f 65/65/65 73/73/73 74/74/74
f 66/66/66 74/74/74 75/75/75
f 67/67/67 75/75/75 76/76/76
f 8/8/8 61/61/61 53/53/53
f 53/53/53 61/61/61 62/62/62
f 54/54/54 62/62/62 63/63/63
f 55/55/55 63/63/63 64/64/64
f 64/64/64 65/65/65 57/57/57
f 57/57/57 65/65/65 66/66/66
f 58/58/58 66/66/66 67/67/67
f 59/59/59 67/67/67 68/68/68
f 6/6/6 7/7/7 53/53/53
f 45/45/45 53/53/53 54/54/54
f 54/54/54 55/55/55 47/47/47
f 55/55/55 56/56/56 48/48/48
f 56/56/56 57/57/57 49/49/49
f 49/49/49 57/57/57 58/58/58
f 58/58/58 59/59/59 51/51/51
f 59/59/59 60/60/60 52/52/52
f 6/6/6 45/45/45 37/37/37
f 45/45/45 46/46/46 38/38/38
f 46/46/46 47/47/47 39/39/39
f 39/39/39 47/47/47 48/48/48
f 40/40/40 48/48/48 49/49/49
f 41/41/41 49/49/49 50/50/50
f 50/50/50 51/51/51 43/43/43
f 51/51/51 52/52/52 44/44/44
f 5/5/5 37/37/37 28/28/28
f 28/28/28 37/37/37 38/38/38
f 27/27/27 38/38/38 39/39/39
f 26/26/26 39/39/39 40/40/40
f 40/40/40 41/41/41 24/24/24
f 41/41/41 42/42/42 23/23/23
f 23/23/23 42/42/42 43/43/43
f 43/43/43 44/44/44 21/21/21
f 2/2/2 29/29/29 93/93/93
f 93/93/93 29/29/29 30/30/30
f 30/30/30 31/31/31 95/95/95
f 31/31/31 32/32/32 96/96/96
f 32/32/32 33/33/33 97/97/97
f 33/33/33 34/34/34 98/98/98
f 98/98/98 34/34/34 35/35/35
f 99/99/99 35/35/35 36/36/36
