o GNATVCloth
v -5.06136 -4.98801 0.581468
v 5.03938 -4.99305 0.394699
v -5.01298 5.02105 0.004229
v 4.98702 5.02105 0.004229
v -3.94591 -5.01592 0.545982
v -2.82764 -5.06252 0.480588
v -1.70488 -5.08732 0.496092
v -0.578284 -5.10982 0.504034
v 0.552088 -5.11737 0.4864
v 1.68004 -5.08851 0.506219
v 2.80396 -5.06227 0.455812
v 3.92446 -5.00908 0.496887
v 3.86098 4.92057 0.155293
v 2.7465 4.85353 0.315077
v 1.62554 4.79916 0.335004
v 0.513241 4.74334 0.329408
v -0.590521 4.73525 0.446306
v -1.69561 4.7539 0.593665
v -2.81739 4.79214 0.535587
v -3.91447 4.88691 0.285908
v -4.98712 3.90685 0.0737441
v -4.99168 2.79255 0.139923
v -5.00131 1.6789 0.20524
v -5.0074 0.565431 0.269768
v -5.01213 -0.547871 0.325782
v -5.01954 -1.66081 0.371836
v -5.02788 -2.77241 0.408046
v -5.03293 -3.87927 0.515133
v 5.01679 -3.88979 0.28873
v 5.00429 -2.77628 0.298689
v 4.99507 -1.66449 0.25534
v 4.98813 -0.551599 0.233314
v 4.9818 0.562211 0.210158
v 4.9746 1.67637 0.165295
v 4.97273 2.79133 0.127071
v 4.97111 3.90528 0.0525391
v -3.87117 -3.88861 0.322346
v -3.8308 -3.24217 0.273457
v -3.68011 -1.95619 0.241834
v -4.13131 -0.29287 0.219574
v -4.15351 0.723725 0.199441
v -4.1442 1.50843 0.1412
v -4.07446 2.79855 0.0392071
v -3.92187 3.87814 -0.0902032
v -2.73773 -4.05223 0.296769
v -2.81211 -2.78437 0.34207
v -2.68812 -2.19629 0.290541
v -2.76317 -0.651661 0.296108
v -2.7961 0.476177 0.189623
v -2.72952 1.51345 0.0389602
v -2.84518 2.85622 -0.0624983
v -2.74138 3.54016 0.0578484
v -1.67301 -4.2866 0.319495
v -1.5105 -2.97339 0.396914
v -1.90154 -1.6851 0.389604
v -1.88472 -0.887954 0.341621
v -1.53353 0.584646 0.0969075
v -1.99083 1.64456 -0.030107
v -1.71134 2.6854 0.0585678
v -1.58486 3.6239 0.4322
v -0.247647 -4.37687 0.387374
v -0.597017 -2.94061 0.467557
v -0.553823 -1.79638 0.467596
v -0.845491 -0.82641 0.323851
v -0.609598 0.373519 0.143471
v -0.375789 1.39506 0.113318
v -0.569529 2.58405 0.160836
v -0.762371 3.4233 0.442218
v 0.724445 -3.94545 0.412364
v 0.808522 -2.65626 0.523952
v 0.522745 -1.86959 0.4866
v 0.610995 -0.55389 0.239086
v 0.584355 0.348121 0.206131
v 0.296802 1.44703 0.155185
v 0.52319 2.42015 0.18843
v 0.537694 3.66166 0.393839
v 1.94296 -3.68788 0.392325
v 1.66054 -2.87871 0.35027
v 1.8265 -1.9597 0.469173
v 1.9878 -0.462931 0.124436
v 1.96682 0.214378 0.0102237
v 1.82614 1.4754 0.0995558
v 1.41024 2.74794 0.17486
v 1.47697 3.57655 0.339101
v 2.7896 -3.94811 0.388585
v 3.09439 -2.86346 0.320267
v 2.94297 -1.98629 0.256209
v 2.70703 -0.525622 0.333437
v 2.95269 0.262995 0.209727
v 3.06937 1.53416 -0.0705991
v 2.76059 3.09834 -0.0239068
v 2.72726 3.46084 0.0503994
v 3.9172 -3.98846 0.288741
v 3.65874 -2.73375 0.314998
v 3.86827 -1.69357 0.287143
v 3.80454 -0.737801 0.294967
v 3.8637 0.274279 0.289973
v 4.15445 1.79163 0.157572
v 4.13822 2.73945 -0.0337298
v 4.02181 3.86421 -0.077044
vt 0.0001 0.0001
vt 0.9999 0.0001
vt 0.0001 0.9999
vt 0.9999 0.9999
vt 0.111189 0.0001
vt 0.222278 0.0001
vt 0.333367 0.0001
vt 0.444455 0.0001
vt 0.555544 0.0001
vt 0.666633 0.0001
vt 0.777722 0.0001
vt 0.888811 0.0001
vt 0.888811 0.9999
vt 0.777722 0.9999
vt 0.666633 0.9999
vt 0.555544 0.9999
vt 0.444455 0.9999
vt 0.333367 0.9999
vt 0.222278 0.9999
vt 0.111189 0.9999
vt 0.0001 0.888811
vt 0.0001 0.777722
vt 0.0001 0.666633
vt 0.0001 0.555544
vt 0.0001 0.444456
vt 0.0001 0.333367
vt 0.0001 0.222278
vt 0.0001 0.111189
vt 0.9999 0.111189
vt 0.9999 0.222278
vt 0.9999 0.333367
vt 0.9999 0.444456
vt 0.9999 0.555544
vt 0.9999 0.666633
vt 0.9999 0.777722
vt 0.9999 0.888811
vt 0.11727 0.115399
vt 0.120778 0.180369
vt 0.134636 0.309595
vt 0.088728 0.473895
vt 0.085886 0.575352
vt 0.086211 0.65375
vt 0.092207 0.78313
vt 0.106956 0.892282
vt 0.22987 0.102869
vt 0.221803 0.229552
vt 0.233521 0.288953
vt 0.225541 0.443179
vt 0.221596 0.556167
vt 0.227801 0.661237
vt 0.214896 0.795203
vt 0.22542 0.865181
vt 0.335524 0.082127
vt 0.351143 0.213907
vt 0.311934 0.342467
vt 0.313159 0.422214
vt 0.347791 0.572605
vt 0.301482 0.677733
vt 0.329031 0.783086
vt 0.344903 0.885466
vt 0.476837 0.074882
vt 0.441952 0.218774
vt 0.445749 0.333088
vt 0.416414 0.43099
vt 0.439746 0.552976
vt 0.463203 0.656843
vt 0.444252 0.77653
vt 0.426137 0.866051
vt 0.573419 0.117409
vt 0.581125 0.246686
vt 0.552512 0.326
vt 0.561075 0.459693
vt 0.558356 0.550596
vt 0.530299 0.662189
vt 0.553275 0.760113
vt 0.555478 0.888821
vt 0.694433 0.13996
vt 0.667048 0.221666
vt 0.681985 0.314267
vt 0.698218 0.467249
vt 0.696819 0.535952
vt 0.68253 0.662758
vt 0.642062 0.791726
vt 0.648523 0.877957
vt 0.778029 0.111667
vt 0.809426 0.219523
vt 0.794923 0.307783
vt 0.772028 0.454562
vt 0.796846 0.533374
vt 0.807262 0.663157
vt 0.778581 0.821037
vt 0.775122 0.858219
vt 0.890224 0.104741
vt 0.865679 0.23076
vt 0.887326 0.334104
vt 0.881307 0.429754
vt 0.887973 0.53063
vt 0.918106 0.681428
vt 0.915043 0.778027
vt 0.904815 0.89094
vn 0.0332127 0.0588411 0.997715
vn 0.0391157 0.147927 0.988224
vn -0.062106 -0.140931 0.98807
vn 0.00520224 -0.0743991 0.997215
vn 0.0872348 0.143983 0.985728
vn 0.0305045 0.189564 0.981394
vn -0.00564985 0.215584 0.976469
vn -0.00736511 0.179536 0.983724
vn -0.0200398 0.0958208 0.995197
vn 0.0127636 0.0709285 0.9974
vn 0.0294997 0.107464 0.993771
vn 0.020666 0.199926 0.979593
vn 0.14889 -0.190737 0.970284
vn 0.132441 -0.141143 0.98109
vn 0.00624281 0.00259193 0.999977
vn 0.0544097 0.0421424 0.997629
vn 0.0652026 -0.0190828 0.99769
vn 0.0365797 -0.137843 0.989778
vn -0.194904 -0.302869 0.932889
vn -0.254398 -0.33622 0.906773
vn 0.138728 0.0732579 0.987617
vn 0.108594 0.0578808 0.9924
vn 0.0893981 0.0652549 0.993856
vn 0.0849939 0.042772 0.995463
vn 0.106752 0.0449544 0.993269
vn 0.105742 0.0379857 0.993668
vn 0.122493 0.0457112 0.991416
vn 0.12717 0.10009 0.986818
vn -0.00387678 0.043309 0.999054
vn 0.0131053 0.0089689 0.999874
vn 0.0348129 0.017654 0.999238
vn 0.055456 0.0143633 0.998358
vn 0.0377772 0.046163 0.998219
vn -0.00417791 0.0372321 0.999298
vn -0.132343 0.0973612 0.986411
vn -0.155399 0.0447116 0.986839
vn 0.0946993 0.137222 0.986003
vn 0.055031 0.0399736 0.997684
vn 0.0156824 0.0291647 0.999452
vn 0.0459091 0.0378771 0.998227
vn 0.0590181 0.0644198 0.996176
vn 0.0802053 0.0735389 0.994062
vn 0.0981827 0.0786292 0.992057
vn -0.075014 -0.13497 0.988006
vn -0.00541762 0.0492339 0.998773
vn -0.0470449 0.0286734 0.998481
vn -0.0665209 0.0287719 0.99737
vn -0.0532333 0.0383411 0.997846
vn 0.024829 0.111778 0.993423
vn 0.066811 0.0987445 0.992867
vn -0.0290774 -0.0138418 0.999481
vn -0.210017 -0.270208 0.939617
vn -0.0273067 0.0877621 0.995767
vn -0.061261 -0.0122588 0.998047
vn -0.0590637 0.0342246 0.997667
vn 0.00371899 0.105322 0.994431
vn -0.000736315 0.122541 0.992463
vn -0.0250037 0.0407639 0.998856
vn -0.137841 -0.216818 0.966432
vn -0.097274 -0.223638 0.969806
vn -0.0260164 0.054295 0.998186
vn -0.0417265 -0.0320629 0.998614
vn -0.0294814 0.0776815 0.996542
vn 0.0031119 0.134118 0.99096
vn -0.0324796 0.0743471 0.996703
vn -0.0619468 0.00826567 0.998045
vn -0.0498378 -0.161518 0.98561
vn -0.0195062 -0.204086 0.978759
vn 0.0113167 0.00504878 0.999923
vn 0.0566221 -0.0506821 0.997108
vn -0.00517157 0.0909455 0.995842
vn 0.0389264 0.141279 0.989204
vn 0.0423561 0.0217999 0.998865
vn -0.0211129 0.0140072 0.999679
vn 0.00065422 -0.0806148 0.996745
vn 0.0522702 -0.102021 0.993408
vn 0.0148271 0.0652843 0.997756
vn 0.0940837 -0.0370505 0.994875
vn 0.0562919 0.0529026 0.997012
vn -0.0956326 0.197924 0.975541
vn -0.0268228 0.101222 0.994502
vn 0.0947935 -0.0226302 0.99524
vn 0.0986399 -0.125681 0.987155
vn 0.103916 -0.101129 0.989431
vn 0.0545375 0.0584297 0.996801
vn 0.0263551 0.0472022 0.998538
vn 0.0477333 -0.00795985 0.998828
vn -0.0758211 0.114888 0.990481
vn -0.105476 0.16346 0.980895
vn -0.0723587 0.099002 0.992453
vn 0.122976 -0.0822762 0.988993
vn 0.17938 -0.183878 0.966443
vn 0.0299201 0.068766 0.997184
vn -0.00278495 0.0189811 0.999816
vn -0.00128771 0.0165306 0.999862
vn 0.013962 0.0147542 0.999794
vn -0.0404756 0.0775626 0.996166
vn -0.106387 0.110887 0.988122
vn -0.126717 0.0803782 0.988677
vn 0.0505802 -0.0933067 0.994352
f 100/100/100 4/4/4 13/13/13
f 44/44/44 3/3/3 21/21/21
f 44/44/44 19/19/19 20/20/20
f 60/60/60 19/19/19 52/52/52
f 60/60/60 17/17/17 18/18/18
f 76/76/76 17/17/17 68/68/68
f 84/84/84 16/16/16 76/76/76
f 84/84/84 14/14/14 15/15/15
f 100/100/100 14/14/14 92/92/92
f 11/11/11 93/93/93 85/85/85
f 93/93/93 86/86/86 85/85/85
f 94/94/94 87/87/87 86/86/86
f 87/87/87 96/96/96 88/88/88
f 96/96/96 89/89/89 88/88/88
f 97/97/97 90/90/90 89/89/89
f 90/90/90 99/99/99 91/91/91
f 91/91/91 100/100/100 92/92/92
f 10/10/10 85/85/85 77/77/77
f 77/77/77 86/86/86 78/78/78
f 78/78/78 87/87/87 79/79/79
f 79/79/79 88/88/88 80/80/80
f 88/88/88 81/81/81 80/80/80
f 81/81/81 90/90/90 82/82/82
f 82/82/82 91/91/91 83/83/83
f 91/91/91 84/84/84 83/83/83
f 10/10/10 69/69/69 9/9/9
f 69/69/69 78/78/78 70/70/70
f 70/70/70 79/79/79 71/71/71
f 79/79/79 72/72/72 71/71/71
f 72/72/72 81/81/81 73/73/73
f 73/73/73 82/82/82 74/74/74
f 82/82/82 75/75/75 74/74/74
f 83/83/83 76/76/76 75/75/75
f 9/9/9 61/61/61 8/8/8
f 69/69/69 62/62/62 61/61/61
f 62/62/62 71/71/71 63/63/63
f 63/63/63 72/72/72 64/64/64
f 72/72/72 65/65/65 64/64/64
f 65/65/65 74/74/74 66/66/66
f 66/66/66 75/75/75 67/67/67
f 67/67/67 76/76/76 68/68/68
f 8/8/8 53/53/53 7/7/7
f 53/53/53 62/62/62 54/54/54
f 54/54/54 63/63/63 55/55/55
f 55/55/55 64/64/64 56/56/56
f 64/64/64 57/57/57 56/56/56
f 57/57/57 66/66/66 58/58/58
f 58/58/58 67/67/67 59/59/59
f 59/59/59 68/68/68 60/60/60
f 6/6/6 53/53/53 45/45/45
f 45/45/45 54/54/54 46/46/46
f 54/54/54 47/47/47 46/46/46
f 55/55/55 48/48/48 47/47/47
f 56/56/56 49/49/49 48/48/48
f 49/49/49 58/58/58 50/50/50
f 58/58/58 51/51/51 50/50/50
f 59/59/59 52/52/52 51/51/51
f 6/6/6 37/37/37 5/5/5
f 45/45/45 38/38/38 37/37/37
f 46/46/46 39/39/39 38/38/38
f 39/39/39 48/48/48 40/40/40
f 40/40/40 49/49/49 41/41/41
f 41/41/41 50/50/50 42/42/42
f 50/50/50 43/43/43 42/42/42
f 51/51/51 44/44/44 43/43/43
f 5/5/5 28/28/28 1/1/1
f 28/28/28 38/38/38 27/27/27
f 27/27/27 39/39/39 26/26/26
f 26/26/26 40/40/40 25/25/25
f 40/40/40 24/24/24 25/25/25
f 41/41/41 23/23/23 24/24/24
f 23/23/23 43/43/43 22/22/22
f 43/43/43 21/21/21 22/22/22
f 2/2/2 93/93/93 12/12/12
f 93/93/93 30/30/30 94/94/94
f 30/30/30 95/95/95 94/94/94
f 31/31/31 96/96/96 95/95/95
f 32/32/32 97/97/97 96/96/96
f 33/33/33 98/98/98 97/97/97
f 98/98/98 35/35/35 99/99/99
f 99/99/99 36/36/36 100/100/100
f 100/100/100 36/36/36 4/4/4
f 44/44/44 20/20/20 3/3/3
f 44/44/44 52/52/52 19/19/19
f 60/60/60 18/18/18 19/19/19
f 60/60/60 68/68/68 17/17/17
f 76/76/76 16/16/16 17/17/17
f 84/84/84 15/15/15 16/16/16
f 84/84/84 92/92/92 14/14/14
f 100/100/100 13/13/13 14/14/14
f 11/11/11 12/12/12 93/93/93
f 93/93/93 94/94/94 86/86/86
f 94/94/94 95/95/95 87/87/87
f 87/87/87 95/95/95 96/96/96
f 96/96/96 97/97/97 89/89/89
f 97/97/97 98/98/98 90/90/90
f 90/90/90 98/98/98 99/99/99
f 91/91/91 99/99/99 100/100/100
f 10/10/10 11/11/11 85/85/85
f 77/77/77 85/85/85 86/86/86
f 78/78/78 86/86/86 87/87/87
f 79/79/79 87/87/87 88/88/88
f 88/88/88 89/89/89 81/81/81
f 81/81/81 89/89/89 90/90/90
f 82/82/82 90/90/90 91/91/91
f 91/91/91 92/92/92 84/84/84
f 10/10/10 77/77/77 69/69/69
f 69/69/69 77/77/77 78/78/78
f 70/70/70 78/78/78 79/79/79
f 79/79/79 80/80/80 72/72/72
f 72/72/72 80/80/80 81/81/81
f 73/73/73 81/81/81 82/82/82
f 82/82/82 83/83/83 75/75/75
f 83/83/83 84/84/84 76/76/76
f 9/9/9 69/69/69 61/61/61
f 69/69/69 70/70/70 62/62/62
f 62/62/62 70/70/70 71/71/71
f 63/63/63 71/71/71 72/72/72
f 72/72/72 73/73/73 65/65/65
f 65/65/65 73/73/73 74/74/74
f 66/66/66 74/74/74 75/75/75
f 67/67/67 75/75/75 76/76/76
f 8/8/8 61/61/61 53/53/53
f 53/53/53 61/61/61 62/62/62
f 54/54/54 62/62/62 63/63/63
f 55/55/55 63/63/63 64/64/64
f 64/64/64 65/65/65 57/57/57
f 57/57/57 65/65/65 66/66/66
f 58/58/58 66/66/66 67/67/67
f 59/59/59 67/67/67 68/68/68
f 6/6/6 7/7/7 53/53/53
f 45/45/45 53/53/53 54/54/54
f 54/54/54 55/55/55 47/47/47
f 55/55/55 56/56/56 48/48/48
f 56/56/56 57/57/57 49/49/49
f 49/49/49 57/57/57 58/58/58
f 58/58/58 59/59/59 51/51/51
f 59/59/59 60/60/60 52/52/52
f 6/6/6 45/45/45 37/37/37
f 45/45/45 46/46/46 38/38/38
f 46/46/46 47/47/47 39/39/39
f 39/39/39 47/47/47 48/48/48
f 40/40/40 48/48/48 49/49/49
f 41/41/41 49/49/49 50/50/50
f 50/50/50 51/51/51 43/43/43
f 51/51/51 52/52/52 44/44/44
f 5/5/5 37/37/37 28/28/28
f 28/28/28 37/37/37 38/38/38
f 27/27/27 38/38/38 39/39/39
f 26/26/26 39/39/39 40/40/40
f 40/40/40 41/41/41 24/24/24
f 41/41/41 42/42/42 23/23/23
f 23/23/23 42/42/42 43/43/43
f 43/43/43 44/44/44 21/21/21
f 2/2/2 29/29/29 93/93/93
f 93/93/93 29/29/29 30/30/30
f 30/30/30 31/31/31 95/95/95
f 31/31/31 32/32/32 96/96/96
f 32/32/32 33/33/33 97/97/97
f 33/33/33 34/34/34 98/98/98
f 98/98/98 34/34/34 35/35/35
f 99/99/99 35/35/35 36/36/36
