o GNATVCloth
v -5.00493 -4.99661 0.0277529
v 5.0075 -4.9999 0.0273923
v -5.01298 5.02105 0.004229
v 4.98702 5.02105 0.004229
v -3.89097 -5.00835 0.0254138
v -2.77645 -5.00968 0.0148028
v -1.66426 -5.00152 0.0128112
v -0.556352 -5.00058 0.0201361
v 0.5545 -5.00662 0.00567989
v 1.66832 -5.01193 0.0130626
v 2.78113 -5.00946 0.0209104
v 3.89441 -5.00466 0.0328626
v 3.87763 4.98511 0.0238312
v 2.77711 4.97301 0.0187115
v 1.67022 4.97618 0.026163
v 0.558041 4.97615 0.021122
v -0.554764 4.98058 0.0108743
v -1.66444 4.97854 0.0294736
v -2.77559 4.983 0.0164845
v -3.89111 4.98738 0.0241674
v -5.00106 3.90668 0.0314281
v -4.99511 2.79226 0.025057
v -4.99682 1.6785 0.0154397
v -4.99511 0.565152 0.0245953
v -4.99287 -0.548089 0.0268925
v -4.99706 -1.66109 0.0228542
v -4.99856 -2.77292 0.0186408
v -5.00036 -3.88481 0.0170396
v 5.00244 -3.88632 0.0312825
v 5.00051 -2.77248 0.0128447
v 4.99953 -1.66244 0.0149464
v 5.00071 -0.548505 0.021679
v 5.0031 0.563839 0.0260756
v 5.00317 1.67706 0.0221441
v 5.00078 2.79124 0.0177741
v 4.99707 3.90612 0.0195845
v -3.82749 -3.85673 0.0203502
v -3.79333 -3.2078 0.0153813
v -3.65699 -1.91569 0.00888579
v -4.1171 -0.269304 0.0133895
v -4.14627 0.746281 0.0125735
v -4.14226 1.53037 0.0197682
v -4.08422 2.82352 0.0134251
v -3.93367 3.91349 0.0138911
v -2.69948 -3.98412 0.0173265
v -2.78329 -2.72041 0.0166643
v -2.66669 -2.12653 0.0135378
v -2.74653 -0.583458 0.0161009
v -2.78793 0.546819 0.0140717
v -2.72641 1.59452 0.0145386
v -2.85425 2.93425 0.0155295
v -2.74828 3.63497 0.0152358
v -1.6476 -4.19424 0.0124103
v -1.49299 -2.87658 0.00746478
v -1.88134 -1.59061 0.0189934
v -1.87023 -0.794537 0.0198499
v -1.52401 0.710465 0.0159916
v -1.98898 1.75983 0.0141735
v -1.71285 2.8146 0.0138356
v -1.55229 3.83257 0.012767
v -0.233557 -4.26696 0.01523
v -0.58767 -2.82816 0.012815
v -0.546934 -1.68532 0.0153536
v -0.837979 -0.706382 0.0143318
v -0.602712 0.513693 0.0151889
v -0.369522 1.55203 0.0163177
v -0.560143 2.74931 0.0139108
v -0.740069 3.64195 0.0165065
v 0.732315 -3.84191 0.0112965
v 0.805992 -2.54936 0.0188451
v 0.520954 -1.75623 0.0225374
v 0.607922 -0.418761 0.0104366
v 0.583231 0.490042 0.0153032
v 0.302818 1.60753 0.0169945
v 0.528446 2.58368 0.0177611
v 0.551662 3.86795 0.01831
v 1.94423 -3.61275 0.0170217
v 1.66764 -2.79928 0.0151985
v 1.81592 -1.87467 0.0141896
v 1.97981 -0.34292 0.0198832
v 1.96626 0.343757 0.0147485
v 1.82131 1.61216 0.0107456
v 1.41717 2.90167 0.0189199
v 1.48359 3.75734 0.0126394
v 2.78028 -3.89311 0.0161352
v 3.09386 -2.81716 0.0176813
v 2.94713 -1.9379 0.0126196
v 2.71864 -0.47015 0.0140766
v 2.96865 0.317814 0.0151421
v 3.07207 1.61722 0.0127244
v 2.78501 3.19574 0.0144724
v 2.75047 3.56681 0.0226144
v 3.90497 -3.9622 0.0112128
v 3.65683 -2.70472 0.0206798
v 3.87218 -1.67011 0.0183369
v 3.81214 -0.714556 0.0102281
v 3.88099 0.296063 0.016022
v 4.18389 1.80627 0.0151297
v 4.15201 2.7741 0.0152646
v 4.04952 3.90212 0.0144489
vt 0.0001 0.0001
vt 0.9999 0.0001
vt 0.0001 0.9999
vt 0.9999 0.9999
vt 0.111189 0.0001
vt 0.222278 0.0001
vt 0.333367 0.0001
vt 0.444455 0.0001
vt 0.555544 0.0001
vt 0.666633 0.0001
vt 0.777722 0.0001
vt 0.888811 0.0001
vt 0.888811 0.9999
vt 0.777722 0.9999
vt 0.666633 0.9999
vt 0.555544 0.9999
vt 0.444455 0.9999
vt 0.333367 0.9999
vt 0.222278 0.9999
vt 0.111189 0.9999
vt 0.0001 0.888811
vt 0.0001 0.777722
vt 0.0001 0.666633
vt 0.0001 0.555544
vt 0.0001 0.444456
vt 0.0001 0.333367
vt 0.0001 0.222278
vt 0.0001 0.111189
vt 0.9999 0.111189
vt 0.9999 0.222278
vt 0.9999 0.333367
vt 0.9999 0.444456
vt 0.9999 0.555544
vt 0.9999 0.666633
vt 0.9999 0.777722
vt 0.9999 0.888811
vt 0.11727 0.115399
vt 0.120778 0.180369
vt 0.134636 0.309595
vt 0.088728 0.473895
vt 0.085886 0.575352
vt 0.086211 0.65375
vt 0.092207 0.78313
vt 0.106956 0.892282
vt 0.22987 0.102869
vt 0.221803 0.229552
vt 0.233521 0.288953
vt 0.225541 0.443179
vt 0.221596 0.556167
vt 0.227801 0.661237
vt 0.214896 0.795203
vt 0.22542 0.865181
vt 0.335524 0.082127
vt 0.351143 0.213907
vt 0.311934 0.342467
vt 0.313159 0.422214
vt 0.347791 0.572605
vt 0.301482 0.677733
vt 0.329031 0.783086
vt 0.344903 0.885466
vt 0.476837 0.074882
vt 0.441952 0.218774
vt 0.445749 0.333088
vt 0.416414 0.43099
vt 0.439746 0.552976
vt 0.463203 0.656843
vt 0.444252 0.77653
vt 0.426137 0.866051
vt 0.573419 0.117409
vt 0.581125 0.246686
vt 0.552512 0.326
vt 0.561075 0.459693
vt 0.558356 0.550596
vt 0.530299 0.662189
vt 0.553275 0.760113
vt 0.555478 0.888821
vt 0.694433 0.13996
vt 0.667048 0.221666
vt 0.681985 0.314267
vt 0.698218 0.467249
vt 0.696819 0.535952
vt 0.68253 0.662758
vt 0.642062 0.791726
vt 0.648523 0.877957
vt 0.778029 0.111667
vt 0.809426 0.219523
vt 0.794923 0.307783
vt 0.772028 0.454562
vt 0.796846 0.533374
vt 0.807262 0.663157
vt 0.778581 0.821037
vt 0.775122 0.858219
vt 0.890224 0.104741
vt 0.865679 0.23076
vt 0.887326 0.334104
vt 0.881307 0.429754
vt 0.887973 0.53063
vt 0.918106 0.681428
vt 0.915043 0.778027
vt 0.904815 0.89094
vn 0.00220121 0.00962648 0.999951
vn -0.00660691 0.00857102 0.999941
vn -0.000884584 0.00786149 0.999969
vn 0.00618967 0.00394739 0.999973
vn 0.00293145 0.00601896 0.999978
vn 0.00445376 -0.000269543 0.99999
vn -0.00241227 0.000546364 0.999997
vn 0.00159748 0.0029966 0.999994
vn 0.00433752 -0.0028949 0.999986
vn -0.00448863 -0.00108933 0.999989
vn -0.00441525 0.00980882 0.999942
vn -0.00299918 0.0207938 0.999779
vn 0.00665362 -0.00760681 0.999949
vn 7.73994e-05 -0.00397988 0.999992
vn 0.00108228 -0.0112604 0.999936
vn -0.00265696 -0.00515198 0.999983
vn 0.000468687 -0.00155388 0.999999
vn 0.00251549 -0.0143308 0.999894
vn -0.00101277 -0.00685052 0.999976
vn -0.00559367 -0.00934699 0.999941
vn 0.0152258 0.00540885 0.999869
vn 0.0130138 -0.00715061 0.99989
vn 0.00365923 -0.00111533 0.999993
vn 0.0136859 0.0038458 0.999899
vn 0.0156707 -0.000798558 0.999877
vn 0.0122502 -0.00243505 0.999922
vn 0.00541236 -0.000226159 0.999985
vn -0.000389159 0.00513921 0.999987
vn -0.0187309 0.00647003 0.999804
vn -0.00125341 0.00230559 0.999997
vn -0.000940661 0.000248586 1
vn -0.00857606 -0.00503157 0.999951
vn -0.00852734 0.000701513 0.999963
vn -0.00797489 0.0037185 0.999961
vn -0.00460697 0.000678287 0.999989
vn -0.00460724 0.00410633 0.999981
vn 0.00189805 0.00421551 0.999989
vn 0.000280117 0.00404581 0.999992
vn 0.00132772 0.000984355 0.999999
vn 0.00719335 -0.000172547 0.999974
vn 0.00360349 -0.00141606 0.999993
vn -0.000810852 -0.00212409 0.999997
vn 0.00549231 -0.00117822 0.999984
vn 0.00249625 0.00037183 0.999997
vn 0.00351695 0.00110406 0.999993
vn 0.00120689 0.00331648 0.999994
vn -0.0014513 -0.000667139 0.999999
vn -0.00391469 -0.000835412 0.999992
vn -0.00150874 0.00104451 0.999998
vn 0.00100832 -0.00114654 0.999999
vn -0.000115978 -0.000178529 1
vn 0.000659325 -6.59816e-05 1
vn -0.000728544 0.0020756 0.999998
vn 0.00137655 -0.00101717 0.999999
vn -6.35156e-05 -0.00328553 0.999995
vn 7.27222e-05 0.000770303 1
vn 0.000301247 0.000753345 1
vn -0.000174923 0.000451641 1
vn 7.36043e-05 -6.82831e-06 1
vn 0.000246183 -0.00373224 0.999993
vn 0.00382419 0.00122846 0.999992
vn -0.0034423 -0.0010495 0.999994
vn -0.00190224 0.000128276 0.999998
vn 0.00325377 0.000289707 0.999995
vn 0.000497456 -0.00185234 0.999998
vn -0.00114202 0.000311722 0.999999
vn -0.00152134 -0.000457545 0.999999
vn -0.00219602 0.000975855 0.999997
vn -0.000983406 -0.00289144 0.999995
vn 0.00134117 -0.0038916 0.999992
vn -0.000534046 0.00156645 0.999999
vn -0.000994407 0.00151341 0.999998
vn 0.00087283 -0.00190097 0.999998
vn 0.00124312 -0.00104087 0.999999
vn -0.000672419 -0.00127573 0.999999
vn -0.000619958 0.000344287 1
vn -0.00205533 -0.000831866 0.999997
vn 8.36445e-06 0.00050058 1
vn 0.00299293 -0.000120418 0.999996
vn 0.000563641 0.00187962 0.999998
vn 1.46189e-05 0.00235961 0.999997
vn 0.00157147 -0.001207 0.999998
vn 0.00252514 0.00051086 0.999997
vn -0.00031794 -0.00445067 0.99999
vn 0.000484509 0.000289483 1
vn -0.00143278 -0.000110728 0.999999
vn -0.00249985 0.00307662 0.999992
vn 0.00393436 -0.000264067 0.999992
vn 4.37008e-05 -0.00107186 0.999999
vn -0.00141144 0.000709712 0.999999
vn 0.000491885 -0.00622979 0.99998
vn -0.000375331 -0.00956464 0.999954
vn -0.0040976 0.00518139 0.999978
vn -0.00116581 -0.00103332 0.999999
vn -0.000780875 0.00391026 0.999992
vn -0.0025602 -0.000422942 0.999997
vn -0.00514285 -0.00153603 0.999986
vn -0.00548847 0.00175995 0.999983
vn -0.00246106 -0.000407345 0.999997
vn 0.00275799 -0.00267899 0.999993
f 100/100/100 4/4/4 13/13/13
f 44/44/44 3/3/3 21/21/21
f 44/44/44 19/19/19 20/20/20
f 60/60/60 19/19/19 52/52/52
f 60/60/60 17/17/17 18/18/18
f 76/76/76 17/17/17 68/68/68
f 84/84/84 16/16/16 76/76/76
f 84/84/84 14/14/14 15/15/15
f 100/100/100 14/14/14 92/92/92
f 11/11/11 93/93/93 85/85/85
f 93/93/93 86/86/86 85/85/85
f 94/94/94 87/87/87 86/86/86
f 87/87/87 96/96/96 88/88/88
f 96/96/96 89/89/89 88/88/88
f 97/97/97 90/90/90 89/89/89
f 90/90/90 99/99/99 91/91/91
f 91/91/91 100/100/100 92/92/92
f 10/10/10 85/85/85 77/77/77
f 77/77/77 86/86/86 78/78/78
f 78/78/78 87/87/87 79/79/79
f 79/79/79 88/88/88 80/80/80
f 88/88/88 81/81/81 80/80/80
f 81/81/81 90/90/90 82/82/82
f 82/82/82 91/91/91 83/83/83
f 91/91/91 84/84/84 83/83/83
f 10/10/10 69/69/69 9/9/9
f 69/69/69 78/78/78 70/70/70
f 70/70/70 79/79/79 71/71/71
f 79/79/79 72/72/72 71/71/71
f 72/72/72 81/81/81 73/73/73
f 73/73/73 82/82/82 74/74/74
f 82/82/82 75/75/75 74/74/74
f 83/83/83 76/76/76 75/75/75
f 9/9/9 61/61/61 8/8/8
f 69/69/69 62/62/62 61/61/61
f 62/62/62 71/71/71 63/63/63
f 63/63/63 72/72/72 64/64/64
f 72/72/72 65/65/65 64/64/64
f 65/65/65 74/74/74 66/66/66
f 66/66/66 75/75/75 67/67/67
f 67/67/67 76/76/76 68/68/68
f 8/8/8 53/53/53 7/7/7
f 53/53/53 62/62/62 54/54/54
f 54/54/54 63/63/63 55/55/55
f 55/55/55 64/64/64 56/56/56
f 64/64/64 57/57/57 56/56/56
f 57/57/57 66/66/66 58/58/58
f 58/58/58 67/67/67 59/59/59
f 59/59/59 68/68/68 60/60/60
f 6/6/6 53/53/53 45/45/45
f 45/45/45 54/54/54 46/46/46
f 54/54/54 47/47/47 46/46/46
f 55/55/55 48/48/48 47/47/47
f 56/56/56 49/49/49 48/48/48
f 49/49/49 58/58/58 50/50/50
f 58/58/58 51/51/51 50/50/50
f 59/59/59 52/52/52 51/51/51
f 6/6/6 37/37/37 5/5/5
f 45/45/45 38/38/38 37/37/37
f 46/46/46 39/39/39 38/38/38
f 39/39/39 48/48/48 40/40/40
f 40/40/40 49/49/49 41/41/41
f 41/41/41 50/50/50 42/42/42
f 50/50/50 43/43/43 42/42/42
f 51/51/51 44/44/44 43/43/43
f 5/5/5 28/28/28 1/1/1
f 28/28/28 38/38/38 27/27/27
f 27/27/27 39/39/39 26/26/26
f 26/26/26 40/40/40 25/25/25
f 40/40/40 24/24/24 25/25/25
f 41/41/41 23/23/23 24/24/24
f 23/23/23 43/43/43 22/22/22
f 43/43/43 21/21/21 22/22/22
f 2/2/2 93/93/93 12/12/12
f 93/93/93 30/30/30 94/94/94
f 30/30/30 95/95/95 94/94/94
f 31/31/31 96/96/96 95/95/95
f 32/32/32 97/97/97 96/96/96
f 33/33/33 98/98/98 97/97/97
f 98/98/98 35/35/35 99/99/99
f 99/99/99 36/36/36 100/100/100
f 100/100/100 36/36/36 4/4/4
f 44/44/44 20/20/20 3/3/3
f 44/44/44 52/52/52 19/19/19
f 60/60/60 18/18/18 19/19/19
f 60/60/60 68/68/68 17/17/17
f 76/76/76 16/16/16 17/17/17
f 84/84/84 15/15/15 16/16/16
f 84/84/84 92/92/92 14/14/14
f 100/100/100 13/13/13 14/14/14
f 11/11/11 12/12/12 93/93/93
f 93/93/93 94/94/94 86/86/86
f 94/94/94 95/95/95 87/87/87
f 87/87/87 95/95/95 96/96/96
f 96/96/96 97/97/97 89/89/89
f 97/97/97 98/98/98 90/90/90
f 90/90/90 98/98/98 99/99/99
f 91/91/91 99/99/99 100/100/100
f 10/10/10 11/11/11 85/85/85
f 77/77/77 85/85/85 86/86/86
f 78/78/78 86/86/86 87/87/87
f 79/79/79 87/87/87 88/88/88
f 88/88/88 89/89/89 81/81/81
f 81/81/81 89/89/89 90/90/90
f 82/82/82 90/90/90 91/91/91
f 91/91/91 92/92/92 84/84/84
f 10/10/10 77/77/77 69/69/69
f 69/69/69 77/77/77 78/78/78
f 70/70/70 78/78/78 79/79/79
f 79/79/79 80/80/80 72/72/72
f 72/72/72 80/80/80 81/81/81
f 73/73/73 81/81/81 82/82/82
f 82/82/82 83/83/83 75/75/75
f 83/83/83 84/84/84 76/76/76
f 9/9/9 69/69/69 61/61/61
f 69/69/69 70/70/70 62/62/62
f 62/62/62 70/70/70 71/71/71
f 63/63/63 71/71/71 72/72/72
f 72/72/72 73/73/73 65/65/65
f 65/65/65 73/73/73 74/74/74
f 66/66/66 74/74/74 75/75/75
f 67/67/67 75/75/75 76/76/76
f 8/8/8 61/61/61 53/53/53
f 53/53/53 61/61/61 62/62/62
f 54/54/54 62/62/62 63/63/63
f 55/55/55 63/63/63 64/64/64
f 64/64/64 65/65/65 57/57/57
f 57/57/57 65/65/65 66/66/66
f 58/58/58 66/66/66 67/67/67
f 59/59/59 67/67/67 68/68/68
f 6/6/6 7/7/7 53/53/53
f 45/45/45 53/53/53 54/54/54
f 54/54/54 55/55/55 47/47/47
f 55/55/55 56/56/56 48/48/48
f 56/56/56 57/57/57 49/49/49
f 49/49/49 57/57/57 58/58/58
f 58/58/58 59/59/59 51/51/51
f 59/59/59 60/60/60 52/52/52
f 6/6/6 45/45/45 37/37/37
f 45/45/45 46/46/46 38/38/38
f 46/46/46 47/47/47 39/39/39
f 39/39/39 47/47/47 48/48/48
f 40/40/40 48/48/48 49/49/49
f 41/41/41 49/49/49 50/50/50
f 50/50/50 51/51/51 43/43/43
f 51/51/51 52/52/52 44/44/44
f 5/5/5 37/37/37 28/28/28
f 28/28/28 37/37/37 38/38/38
f 27/27/27 38/38/38 39/39/39
f 26/26/26 39/39/39 40/40/40
f 40/40/40 41/41/41 24/24/24
f 41/41/41 42/42/42 23/23/23
f 23/23/23 42/42/42 43/43/43
f 43/43/43 44/44/44 21/21/21
f 2/2/2 29/29/29 93/93/93
f 93/93/93 29/29/29 30/30/30
f 30/30/30 31/31/31 95/95/95
f 31/31/31 32/32/32 96/96/96
f 32/32/32 33/33/33 97/97/97
f 33/33/33 34/34/34 98/98/98
f 98/98/98 34/34/34 35/35/35
f 99/99/99 35/35/35 36/36/36
