o GNATVCloth
v -5.00486 -5.00914 0.156575
v 5.13522 -5.01057 0.147886
v -5.01298 5.02105 0.004229
v 4.98702 5.02105 0.004229
v -3.88714 -5.04966 0.120458
v -2.76472 -5.0909 0.0885012
v -1.6345 -5.12276 0.107036
v -0.502253 -5.14646 0.102824
v 0.63222 -5.15311 0.0386126
v 1.76481 -5.14171 0.0724603
v 2.89477 -5.10562 0.107067
v 4.01757 -5.05587 0.144934
v 3.85744 4.92454 0.115795
v 2.73836 4.83521 0.0907933
v 1.67977 4.7925 0.1274
v 0.607524 4.76341 0.102484
v -0.477688 4.78069 0.0739181
v -1.59508 4.83788 0.144713
v -2.72343 4.90226 0.0953603
v -3.8627 4.95217 0.0774504
v -4.97832 3.90441 0.030928
v -4.968 2.78808 0.0719602
v -4.96497 1.67206 0.10914
v -4.96242 0.55608 0.118564
v -4.96094 -0.559105 0.122375
v -4.95838 -1.67304 0.122587
v -4.96346 -2.7854 0.114717
v -4.97844 -3.8962 0.105565
v 5.10846 -3.89843 0.138489
v 5.09947 -2.78702 0.0853857
v 5.08883 -1.6737 0.101172
v 5.07732 -0.559285 0.109069
v 5.06411 0.55583 0.118371
v 5.05173 1.67218 0.111849
v 5.03563 2.78863 0.0860472
v 5.01254 3.90484 0.0463657
v -3.80518 -3.90324 0.0940776
v -3.76302 -3.25251 0.0773334
v -3.61885 -1.96612 0.0557586
v -4.07574 -0.302205 0.0636277
v -4.10451 0.715425 0.071088
v -4.10216 1.50195 0.0854672
v -4.04648 2.7943 0.0675566
v -3.90092 3.87938 0.0470485
v -2.67046 -4.07263 0.0831458
v -2.74333 -2.80361 0.0835545
v -2.62448 -2.21481 0.0758037
v -2.70348 -0.669374 0.0801737
v -2.74403 0.461767 0.0703535
v -2.68157 1.51155 0.0730471
v -2.81283 2.85776 0.0730177
v -2.70554 3.55079 0.081786
v -1.60411 -4.32309 0.0587929
v -1.43989 -3.012 0.0515933
v -1.83383 -1.7143 0.101097
v -1.8225 -0.914893 0.0996819
v -1.47719 0.576157 0.0711206
v -1.94261 1.64498 0.0684353
v -1.66454 2.68737 0.0719655
v -1.49968 3.69813 0.0696693
v -0.170962 -4.42726 0.0756084
v -0.522691 -2.99089 0.0609116
v -0.484351 -1.84695 0.0723934
v -0.782942 -0.862657 0.0709874
v -0.55154 0.350847 0.0730146
v -0.319751 1.37975 0.0759913
v -0.509775 2.5766 0.0706479
v -0.683937 3.4723 0.080992
v 0.808357 -4.00613 0.0599579
v 0.883087 -2.71255 0.0892492
v 0.59296 -1.9278 0.0906133
v 0.675002 -0.593719 0.0516656
v 0.643123 0.314292 0.0779343
v 0.354821 1.42059 0.0836203
v 0.582871 2.39562 0.0793803
v 0.604683 3.65809 0.0748524
v 2.03133 -3.7425 0.0925999
v 1.7517 -2.93492 0.0746532
v 1.89925 -2.00653 0.0659232
v 2.05353 -0.469155 0.0933334
v 2.0347 0.213498 0.0659571
v 1.88043 1.46779 0.0522132
v 1.47171 2.73398 0.0859753
v 1.52469 3.57105 0.0667419
v 2.87896 -3.99182 0.0820368
v 3.18749 -2.90151 0.0868544
v 3.03787 -2.0256 0.0596557
v 2.7955 -0.567999 0.0745501
v 3.03707 0.231066 0.0847023
v 3.12746 1.53206 0.0592478
v 2.81329 3.09076 0.0691731
v 2.7678 3.45637 0.102718
v 4.01187 -4.01143 0.0552154
v 3.75329 -2.76459 0.0977413
v 3.96161 -1.71974 0.0911146
v 3.89335 -0.765742 0.0582287
v 3.94922 0.247832 0.0774306
v 4.23338 1.77319 0.072246
v 4.18876 2.73792 0.0693958
v 4.06059 3.8619 0.057122
vt 0.0001 0.0001
vt 0.9999 0.0001
vt 0.0001 0.9999
vt 0.9999 0.9999
vt 0.111189 0.0001
vt 0.222278 0.0001
vt 0.333367 0.0001
vt 0.444455 0.0001
vt 0.555544 0.0001
vt 0.666633 0.0001
vt 0.777722 0.0001
vt 0.888811 0.0001
vt 0.888811 0.9999
vt 0.777722 0.9999
vt 0.666633 0.9999
vt 0.555544 0.9999
vt 0.444455 0.9999
vt 0.333367 0.9999
vt 0.222278 0.9999
vt 0.111189 0.9999
vt 0.0001 0.888811
vt 0.0001 0.777722
vt 0.0001 0.666633
vt 0.0001 0.555544
vt 0.0001 0.444456
vt 0.0001 0.333367
vt 0.0001 0.222278
vt 0.0001 0.111189
vt 0.9999 0.111189
vt 0.9999 0.222278
vt 0.9999 0.333367
vt 0.9999 0.444456
vt 0.9999 0.555544
vt 0.9999 0.666633
vt 0.9999 0.777722
vt 0.9999 0.888811
vt 0.11727 0.115399
vt 0.120778 0.180369
vt 0.134636 0.309595
vt 0.088728 0.473895
vt 0.085886 0.575352
vt 0.086211 0.65375
vt 0.092207 0.78313
vt 0.106956 0.892282
vt 0.22987 0.102869
vt 0.221803 0.229552
vt 0.233521 0.288953
vt 0.225541 0.443179
vt 0.221596 0.556167
vt 0.227801 0.661237
vt 0.214896 0.795203
vt 0.22542 0.865181
vt 0.335524 0.082127
vt 0.351143 0.213907
vt 0.311934 0.342467
vt 0.313159 0.422214
vt 0.347791 0.572605
vt 0.301482 0.677733
vt 0.329031 0.783086
vt 0.344903 0.885466
vt 0.476837 0.074882
vt 0.441952 0.218774
vt 0.445749 0.333088
vt 0.416414 0.43099
vt 0.439746 0.552976
vt 0.463203 0.656843
vt 0.444252 0.77653
vt 0.426137 0.866051
vt 0.573419 0.117409
vt 0.581125 0.246686
vt 0.552512 0.326
vt 0.561075 0.459693
vt 0.558356 0.550596
vt 0.530299 0.662189
vt 0.553275 0.760113
vt 0.555478 0.888821
vt 0.694433 0.13996
vt 0.667048 0.221666
vt 0.681985 0.314267
vt 0.698218 0.467249
vt 0.696819 0.535952
vt 0.68253 0.662758
vt 0.642062 0.791726
vt 0.648523 0.877957
vt 0.778029 0.111667
vt 0.809426 0.219523
vt 0.794923 0.307783
vt 0.772028 0.454562
vt 0.796846 0.533374
vt 0.807262 0.663157
vt 0.778581 0.821037
vt 0.775122 0.858219
vt 0.890224 0.104741
vt 0.865679 0.23076
vt 0.887326 0.334104
vt 0.881307 0.429754
vt 0.887973 0.53063
vt 0.918106 0.681428
vt 0.915043 0.778027
vt 0.904815 0.89094
vn 0.0338917 0.044956 0.998414
vn -0.0413035 0.046134 0.998081
vn -0.0397572 -0.0012497 0.999209
vn 0.0555026 0.00120119 0.998458
vn 0.0243478 0.0293894 0.999271
vn 0.0121043 0.0222743 0.999679
vn -0.00484232 0.0604019 0.998162
vn 0.0176308 0.0378742 0.999127
vn 0.0175167 -0.00829193 0.999812
vn -0.0194632 -0.00440187 0.999801
vn -0.0148824 0.043415 0.998946
vn -0.0217321 0.0854486 0.996106
vn 0.0418782 -0.0470983 0.998012
vn 0.00580486 -0.0238523 0.999699
vn 0.00738181 -0.050533 0.998695
vn -0.014066 -0.0322483 0.999381
vn 0.00639008 -0.0183796 0.999811
vn 0.00624518 -0.0651782 0.997854
vn -0.0212971 -0.0294317 0.99934
vn -0.0410016 -0.0268441 0.998798
vn -0.00811988 0.0270225 0.999602
vn 0.00453906 0.0350406 0.999376
vn 0.0279906 0.00902332 0.999567
vn 0.0583991 0.00210797 0.998291
vn 0.0656661 0.00191956 0.99784
vn 0.0554242 0.000861808 0.998462
vn 0.0373639 -0.00106006 0.999301
vn 0.0203876 0.0209347 0.999573
vn -0.0784341 0.0267597 0.99656
vn -0.0177433 0.00121748 0.999842
vn -0.0200817 0.00398373 0.99979
vn -0.0386207 -0.010992 0.999193
vn -0.0405476 0.00245027 0.999175
vn -0.0466248 0.0138658 0.998816
vn -0.0290345 0.0198475 0.999381
vn -0.00047222 0.0283899 0.999597
vn 0.0145405 0.0194901 0.999704
vn 0.0111914 0.0119599 0.999866
vn 0.0100725 0.00530763 0.999935
vn 0.0306637 -8.69203e-06 0.99953
vn 0.0236549 -0.00729341 0.999694
vn 0.0178086 -0.00265078 0.999838
vn 0.00333103 0.0194577 0.999805
vn -0.0256401 -0.00114833 0.999671
vn 0.0149145 0.00587336 0.999872
vn 0.00288606 0.00863197 0.999959
vn -0.00944628 -0.00479875 0.999944
vn -0.0193436 0.000244211 0.999813
vn -0.00384682 0.00361004 0.999986
vn 0.00434631 -0.00169125 0.999989
vn -0.00590856 -0.000663083 0.999982
vn -0.00856709 -0.00800785 0.999931
vn 0.00101687 0.0260843 0.999659
vn 0.00930657 -0.00915535 0.999915
vn 0.00171035 -0.0109209 0.999939
vn 0.00212075 0.00880871 0.999959
vn 0.00237263 0.00529507 0.999983
vn 0.000671078 -0.000418731 1
vn -0.000403473 -0.0043591 0.99999
vn 0.00152735 -0.0213218 0.999772
vn 0.0145763 0.0102597 0.999841
vn -0.0104137 -0.00319453 0.999941
vn 0.00170239 -0.00140559 0.999998
vn 0.0167574 0.00366587 0.999853
vn -0.00191699 -0.00726477 0.999972
vn -0.00694712 0.00201109 0.999974
vn -0.0019621 -0.00244203 0.999995
vn -0.00283562 -0.00109878 0.999995
vn -0.00749724 -0.00948781 0.999927
vn 0.00284288 -0.00834336 0.999961
vn -0.00218654 0.00907319 0.999956
vn -0.0035998 0.00315338 0.999989
vn 0.00545465 -0.0103414 0.999932
vn 0.00276774 4.69479e-05 0.999996
vn -0.00206321 -0.00141884 0.999997
vn -0.00217509 -0.00368025 0.999991
vn -0.00894513 -0.000343826 0.99996
vn -0.0020763 0.00873155 0.99996
vn 0.00900359 0.000558715 0.999959
vn -0.00230827 0.0112599 0.999934
vn -0.00439919 0.0124978 0.999912
vn 0.00853273 -0.00457905 0.999953
vn 0.00581909 0.000375978 0.999983
vn -0.00388699 -0.0241842 0.9997
vn 0.00686629 0.00210958 0.999974
vn -0.00341366 0.00343318 0.999988
vn -0.013357 0.0132336 0.999823
vn 0.0109178 -0.00331829 0.999935
vn -0.00195218 -0.00057648 0.999998
vn -0.0071508 0.00630722 0.999955
vn 0.00626808 -0.0258599 0.999646
vn 0.00696661 -0.0406332 0.99915
vn -0.0193574 0.0209846 0.999592
vn -0.0113903 -0.00467383 0.999924
vn -0.0184886 0.0138551 0.999733
vn -0.0146567 -0.000423625 0.999893
vn -0.018508 -0.00153759 0.999828
vn -0.0296694 0.0081289 0.999527
vn -0.00703832 0.00935485 0.999931
vn 0.0286563 -0.0153099 0.999472
f 100/100/100 4/4/4 13/13/13
f 44/44/44 3/3/3 21/21/21
f 44/44/44 19/19/19 20/20/20
f 60/60/60 19/19/19 52/52/52
f 60/60/60 17/17/17 18/18/18
f 76/76/76 17/17/17 68/68/68
f 84/84/84 16/16/16 76/76/76
f 84/84/84 14/14/14 15/15/15
f 100/100/100 14/14/14 92/92/92
f 11/11/11 93/93/93 85/85/85
f 93/93/93 86/86/86 85/85/85
f 94/94/94 87/87/87 86/86/86
f 87/87/87 96/96/96 88/88/88
f 96/96/96 89/89/89 88/88/88
f 97/97/97 90/90/90 89/89/89
f 90/90/90 99/99/99 91/91/91
f 91/91/91 100/100/100 92/92/92
f 10/10/10 85/85/85 77/77/77
f 77/77/77 86/86/86 78/78/78
f 78/78/78 87/87/87 79/79/79
f 79/79/79 88/88/88 80/80/80
f 88/88/88 81/81/81 80/80/80
f 81/81/81 90/90/90 82/82/82
f 82/82/82 91/91/91 83/83/83
f 91/91/91 84/84/84 83/83/83
f 10/10/10 69/69/69 9/9/9
f 69/69/69 78/78/78 70/70/70
f 70/70/70 79/79/79 71/71/71
f 79/79/79 72/72/72 71/71/71
f 72/72/72 81/81/81 73/73/73
f 73/73/73 82/82/82 74/74/74
f 82/82/82 75/75/75 74/74/74
f 83/83/83 76/76/76 75/75/75
f 9/9/9 61/61/61 8/8/8
f 69/69/69 62/62/62 61/61/61
f 62/62/62 71/71/71 63/63/63
f 63/63/63 72/72/72 64/64/64
f 72/72/72 65/65/65 64/64/64
f 65/65/65 74/74/74 66/66/66
f 66/66/66 75/75/75 67/67/67
f 67/67/67 76/76/76 68/68/68
f 8/8/8 53/53/53 7/7/7
f 53/53/53 62/62/62 54/54/54
f 54/54/54 63/63/63 55/55/55
f 55/55/55 64/64/64 56/56/56
f 64/64/64 57/57/57 56/56/56
f 57/57/57 66/66/66 58/58/58
f 58/58/58 67/67/67 59/59/59
f 59/59/59 68/68/68 60/60/60
f 6/6/6 53/53/53 45/45/45
f 45/45/45 54/54/54 46/46/46
f 54/54/54 47/47/47 46/46/46
f 55/55/55 48/48/48 47/47/47
f 56/56/56 49/49/49 48/48/48
f 49/49/49 58/58/58 50/50/50
f 58/58/58 51/51/51 50/50/50
f 59/59/59 52/52/52 51/51/51
f 6/6/6 37/37/37 5/5/5
f 45/45/45 38/38/38 37/37/37
f 46/46/46 39/39/39 38/38/38
f 39/39/39 48/48/48 40/40/40
f 40/40/40 49/49/49 41/41/41
f 41/41/41 50/50/50 42/42/42
f 50/50/50 43/43/43 42/42/42
f 51/51/51 44/44/44 43/43/43
f 5/5/5 28/28/28 1/1/1
f 28/28/28 38/38/38 27/27/27
f 27/27/27 39/39/39 26/26/26
f 26/26/26 40/40/40 25/25/25
f 40/40/40 24/24/24 25/25/25
f 41/41/41 23/23/23 24/24/24
f 23/23/23 43/43/43 22/22/22
f 43/43/43 21/21/21 22/22/22
f 2/2/2 93/93/93 12/12/12
f 93/93/93 30/30/30 94/94/94
f 30/30/30 95/95/95 94/94/94
f 31/31/31 96/96/96 95/95/95
f 32/32/32 97/97/97 96/96/96
f 33/33/33 98/98/98 97/97/97
f 98/98/98 35/35/35 99/99/99
f 99/99/99 36/36/36 100/100/100
f 100/100/100 36/36/36 4/4/4
f 44/44/44 20/20/20 3/3/3
f 44/44/44 52/52/52 19/19/19
f 60/60/60 18/18/18 19/19/19
f 60/60/60 68/68/68 17/17/17
f 76/76/76 16/16/16 17/17/17
f 84/84/84 15/15/15 16/16/16
f 84/84/84 92/92/92 14/14/14
f 100/100/100 13/13/13 14/14/14
f 11/11/11 12/12/12 93/93/93
f 93/93/93 94/94/94 86/86/86
f 94/94/94 95/95/95 87/87/87
f 87/87/87 95/95/95 96/96/96
f 96/96/96 97/97/97 89/89/89
f 97/97/97 98/98/98 90/90/90
f 90/90/90 98/98/98 99/99/99
f 91/91/91 99/99/99 100/100/100
f 10/10/10 11/11/11 85/85/85
f 77/77/77 85/85/85 86/86/86
f 78/78/78 86/86/86 87/87/87
f 79/79/79 87/87/87 88/88/88
f 88/88/88 89/89/89 81/81/81
f 81/81/81 89/89/89 90/90/90
f 82/82/82 90/90/90 91/91/91
f 91/91/91 92/92/92 84/84/84
f 10/10/10 77/77/77 69/69/69
f 69/69/69 77/77/77 78/78/78
f 70/70/70 78/78/78 79/79/79
f 79/79/79 80/80/80 72/72/72
f 72/72/72 80/80/80 81/81/81
f 73/73/73 81/81/81 82/82/82
f 82/82/82 83/83/83 75/75/75
f 83/83/83 84/84/84 76/76/76
f 9/9/9 69/69/69 61/61/61
f 69/69/69 70/70/70 62/62/62
f 62/62/62 70/70/70 71/71/71
f 63/63/63 71/71/71 72/72/72
f 72/72/72 73/73/73 65/65/65
f 65/65/65 73/73/73 74/74/74
f 66/66/66 74/74/74 75/75/75
f 67/67/67 75/75/75 76/76/76
f 8/8/8 61/61/61 53/53/53
f 53/53/53 61/61/61 62/62/62
f 54/54/54 62/62/62 63/63/63
f 55/55/55 63/63/63 64/64/64
f 64/64/64 65/65/65 57/57/57
f 57/57/57 65/65/65 66/66/66
f 58/58/58 66/66/66 67/67/67
f 59/59/59 67/67/67 68/68/68
f 6/6/6 7/7/7 53/53/53
f 45/45/45 53/53/53 54/54/54
f 54/54/54 55/55/55 47/47/47
f 55/55/55 56/56/56 48/48/48
f 56/56/56 57/57/57 49/49/49
f 49/49/49 57/57/57 58/58/58
f 58/58/58 59/59/59 51/51/51
f 59/59/59 60/60/60 52/52/52
f 6/6/6 45/45/45 37/37/37
f 45/45/45 46/46/46 38/38/38
f 46/46/46 47/47/47 39/39/39
f 39/39/39 47/47/47 48/48/48
f 40/40/40 48/48/48 49/49/49
f 41/41/41 49/49/49 50/50/50
f 50/50/50 51/51/51 43/43/43
f 51/51/51 52/52/52 44/44/44
f 5/5/5 37/37/37 28/28/28
f 28/28/28 37/37/37 38/38/38
f 27/27/27 38/38/38 39/39/39
f 26/26/26 39/39/39 40/40/40
f 40/40/40 41/41/41 24/24/24
f 41/41/41 42/42/42 23/23/23
f 23/23/23 42/42/42 43/43/43
f 43/43/43 44/44/44 21/21/21
f 2/2/2 29/29/29 93/93/93
f 93/93/93 29/29/29 30/30/30
f 30/30/30 31/31/31 95/95/95
f 31/31/31 32/32/32 96/96/96
f 32/32/32 33/33/33 97/97/97
f 33/33/33 34/34/34 98/98/98
f 98/98/98 34/34/34 35/35/35
f 99/99/99 35/35/35 36/36/36
