o GNATVCloth
v -5.09962 -4.9852 0.491311
v 5.02556 -4.99687 0.462739
v -5.01298 5.02105 0.004229
v 4.98702 5.02105 0.004229
v -3.98752 -5.03359 0.483902
v -2.86899 -5.08861 0.4161
v -1.74108 -5.12984 0.378718
v -0.610171 -5.14633 0.339431
v 0.524157 -5.14782 0.348818
v 1.65508 -5.12598 0.34394
v 2.78366 -5.09255 0.378962
v 3.9082 -5.05049 0.403092
v 3.84463 4.94185 0.15892
v 2.71768 4.87201 0.323719
v 1.59185 4.78989 0.42737
v 0.468395 4.74084 0.458608
v -0.60857 4.68975 0.361287
v -1.66637 4.74125 0.23194
v -2.78101 4.81001 0.338149
v -3.89248 4.89541 0.175783
v -5.01027 3.90705 0.0875353
v -5.01135 2.79042 0.104532
v -5.021 1.6745 0.12188
v -5.0323 0.559581 0.156411
v -5.03825 -0.552087 0.239125
v -5.04531 -1.66237 0.321014
v -5.05318 -2.76969 0.427946
v -5.0654 -3.87478 0.547928
v 4.99987 -3.8867 0.421592
v 4.98964 -2.78369 0.2749
v 4.98275 -1.67062 0.253461
v 4.97911 -0.556839 0.222871
v 4.97498 0.55792 0.193647
v 4.96678 1.67344 0.156494
v 4.96158 2.78933 0.113804
v 4.96078 3.90476 0.0523529
v -3.89543 -3.88382 0.441277
v -3.85592 -3.24196 0.342623
v -3.71024 -1.96589 0.157583
v -4.15308 -0.299729 0.132764
v -4.17265 0.717086 0.167216
v -4.15965 1.50212 0.173685
v -4.08856 2.79504 0.182454
v -3.94767 3.85126 -0.0757986
v -2.77184 -4.06935 0.319731
v -2.83967 -2.80099 0.209393
v -2.72531 -2.21623 0.290784
v -2.79624 -0.670909 0.344122
v -2.82126 0.462859 0.333613
v -2.7336 1.50406 0.219244
v -2.87686 2.81611 -0.0783834
v -2.79468 3.47661 0.149254
v -1.70732 -4.31214 0.335606
v -1.54559 -3.00044 0.349969
v -1.94234 -1.70886 0.442875
v -1.92052 -0.912456 0.43743
v -1.56793 0.543285 0.0878135
v -2.02065 1.60149 -0.0135176
v -1.77023 2.62661 0.217913
v -1.59812 3.60811 0.267597
v -0.277446 -4.40742 0.3606
v -0.62985 -2.97143 0.365212
v -0.593255 -1.83347 0.387598
v -0.88725 -0.864617 0.302783
v -0.653918 0.340159 0.258632
v -0.419881 1.3574 0.288854
v -0.619689 2.54569 0.395402
v -0.790767 3.41472 0.336891
v 0.699813 -3.97628 0.352382
v 0.773643 -2.68317 0.324493
v 0.483184 -1.89853 0.343941
v 0.570172 -0.569295 0.337386
v 0.541044 0.334591 0.320501
v 0.254747 1.4267 0.340594
v 0.482734 2.4113 0.387954
v 0.499992 3.6459 0.372105
v 1.92225 -3.72143 0.354125
v 1.64157 -2.91626 0.312541
v 1.78944 -1.98756 0.362748
v 1.95108 -0.452434 0.327855
v 1.93603 0.227412 0.284606
v 1.78763 1.48425 0.274208
v 1.37702 2.75162 0.334432
v 1.43146 3.59325 0.31385
v 2.76895 -3.97734 0.376369
v 3.07722 -2.88711 0.373037
v 2.92684 -2.01278 0.308362
v 2.69493 -0.553279 0.345639
v 2.94108 0.247887 0.306084
v 3.03669 1.53996 0.145332
v 2.74318 3.10591 0.189228
v 2.69913 3.46631 0.14011
v 3.90135 -4.0038 0.379111
v 3.6435 -2.75243 0.352376
v 3.85483 -1.7078 0.305638
v 3.79177 -0.752457 0.264839
v 3.85615 0.259364 0.251178
v 4.1473 1.78178 0.164098
v 4.11196 2.74119 0.0498629
v 4.00232 3.8664 0.0405809
vt 0.0001 0.0001
vt 0.9999 0.0001
vt 0.0001 0.9999
vt 0.9999 0.9999
vt 0.111189 0.0001
vt 0.222278 0.0001
vt 0.333367 0.0001
vt 0.444455 0.0001
vt 0.555544 0.0001
vt 0.666633 0.0001
vt 0.777722 0.0001
vt 0.888811 0.0001
vt 0.888811 0.9999
vt 0.777722 0.9999
vt 0.666633 0.9999
vt 0.555544 0.9999
vt 0.444455 0.9999
vt 0.333367 0.9999
vt 0.222278 0.9999
vt 0.111189 0.9999
vt 0.0001 0.888811
vt 0.0001 0.777722
vt 0.0001 0.666633
vt 0.0001 0.555544
vt 0.0001 0.444456
vt 0.0001 0.333367
vt 0.0001 0.222278
vt 0.0001 0.111189
vt 0.9999 0.111189
vt 0.9999 0.222278
vt 0.9999 0.333367
vt 0.9999 0.444456
vt 0.9999 0.555544
vt 0.9999 0.666633
vt 0.9999 0.777722
vt 0.9999 0.888811
vt 0.11727 0.115399
vt 0.120778 0.180369
vt 0.134636 0.309595
vt 0.088728 0.473895
vt 0.085886 0.575352
vt 0.086211 0.65375
vt 0.092207 0.78313
vt 0.106956 0.892282
vt 0.22987 0.102869
vt 0.221803 0.229552
vt 0.233521 0.288953
vt 0.225541 0.443179
vt 0.221596 0.556167
vt 0.227801 0.661237
vt 0.214896 0.795203
vt 0.22542 0.865181
vt 0.335524 0.082127
vt 0.351143 0.213907
vt 0.311934 0.342467
vt 0.313159 0.422214
vt 0.347791 0.572605
vt 0.301482 0.677733
vt 0.329031 0.783086
vt 0.344903 0.885466
vt 0.476837 0.074882
vt 0.441952 0.218774
vt 0.445749 0.333088
vt 0.416414 0.43099
vt 0.439746 0.552976
vt 0.463203 0.656843
vt 0.444252 0.77653
vt 0.426137 0.866051
vt 0.573419 0.117409
vt 0.581125 0.246686
vt 0.552512 0.326
vt 0.561075 0.459693
vt 0.558356 0.550596
vt 0.530299 0.662189
vt 0.553275 0.760113
vt 0.555478 0.888821
vt 0.694433 0.13996
vt 0.667048 0.221666
vt 0.681985 0.314267
vt 0.698218 0.467249
vt 0.696819 0.535952
vt 0.68253 0.662758
vt 0.642062 0.791726
vt 0.648523 0.877957
vt 0.778029 0.111667
vt 0.809426 0.219523
vt 0.794923 0.307783
vt 0.772028 0.454562
vt 0.796846 0.533374
vt 0.807262 0.663157
vt 0.778581 0.821037
vt 0.775122 0.858219
vt 0.890224 0.104741
vt 0.865679 0.23076
vt 0.887326 0.334104
vt 0.881307 0.429754
vt 0.887973 0.53063
vt 0.918106 0.681428
vt 0.915043 0.778027
vt 0.904815 0.89094
vn 0.00443148 -0.0510566 0.998686
vn -0.0484123 0.0292704 0.998398
vn -0.00848285 -0.0759375 0.997077
vn 0.0631492 -0.0224419 0.997752
vn 0.0525542 0.00352908 0.998612
vn 0.0560776 0.0647647 0.996324
vn 0.0351838 0.051169 0.99807
vn 0.00276761 0.00203291 0.999994
vn 0.00217375 -0.0110698 0.999936
vn -0.013378 -0.00279639 0.999907
vn -0.0185819 0.00898799 0.999787
vn -0.0383388 0.0226368 0.999008
vn 0.144529 -0.0872639 0.985645
vn 0.121363 -0.113505 0.986097
vn 0.0654664 -0.102932 0.992532
vn 0.00132514 -0.0856823 0.996322
vn -0.0795161 -0.0198224 0.996637
vn -0.0116336 0.0307493 0.999459
vn -0.0947991 -0.116249 0.988686
vn -0.164771 -0.2228 0.960839
vn 0.0776102 0.102251 0.991726
vn -0.0842111 0.015732 0.996324
vn -0.0561896 0.00918243 0.998378
vn 0.024641 0.023545 0.999419
vn 0.0984567 0.0729447 0.992464
vn 0.124419 0.072256 0.989595
vn 0.125107 0.109716 0.986058
vn 0.0749183 0.0578165 0.995512
vn -0.0474128 0.0836958 0.995363
vn 0.0274778 0.0543312 0.998145
vn 0.0403373 0.0308788 0.998709
vn 0.0361857 0.0217512 0.999108
vn 0.0320163 0.0365195 0.99882
vn 0.0140099 0.0358379 0.999259
vn -0.0483103 0.0694321 0.996416
vn -0.0348867 0.0350921 0.998775
vn 0.0990055 0.0866023 0.991311
vn 0.102584 0.125036 0.986835
vn 0.000211264 0.0338556 0.999427
vn -0.017205 0.0148982 0.999741
vn -0.0578818 0.0105436 0.998268
vn -0.0465136 -0.0058432 0.998901
vn 0.0436442 0.0987968 0.99415
vn -0.0469091 -0.0546191 0.997405
vn 0.0393494 0.0806593 0.995965
vn -0.0440648 0.0180499 0.998866
vn -0.142915 -0.0818336 0.986346
vn -0.138363 -0.0147006 0.990273
vn 0.0249111 0.0773293 0.996694
vn 0.103212 0.112395 0.988289
vn -0.0300648 -0.00401605 0.99954
vn -0.196361 -0.175369 0.964722
vn 0.000966145 0.0214906 0.999769
vn -0.0509425 -0.034097 0.998119
vn -0.029371 -0.0160802 0.999439
vn 0.0437439 0.0837611 0.995525
vn -0.010044 0.112034 0.993654
vn -0.0114009 0.00874005 0.999897
vn -0.180367 -0.106829 0.977781
vn -0.0637376 -0.0254714 0.997642
vn -0.00516064 -0.0116679 0.999919
vn 0.00775649 -0.00722589 0.999944
vn 0.0184295 0.0131742 0.999743
vn 0.00948819 0.083507 0.996462
vn -0.0936466 0.0161522 0.995475
vn -0.120329 -0.0378668 0.992012
vn -0.0920173 -0.0471983 0.994638
vn -0.0786893 0.00811654 0.996866
vn 0.00808068 0.0102329 0.999915
vn 0.0117242 -0.0114455 0.999866
vn 0.0162264 -0.0113495 0.999804
vn -0.00782287 0.0311045 0.999485
vn -0.00122167 0.00180706 0.999998
vn -0.0223154 -0.0281878 0.999354
vn 0.0167868 -0.0300014 0.999409
vn 0.00524967 -0.00984944 0.999938
vn -0.0208729 0.0169105 0.999639
vn -0.0054525 0.0093258 0.999942
vn 0.00671503 -0.0158834 0.999851
vn -0.00732316 0.0434458 0.999029
vn 0.0136677 0.0513928 0.998585
vn 0.0712242 -0.0113436 0.997396
vn 0.0795869 0.00263084 0.996824
vn 0.0896443 -0.0320727 0.995457
vn -0.0172069 0.0030905 0.999847
vn -0.0106486 0.036804 0.999266
vn 0.0165822 0.0198718 0.999665
vn 0.0230255 0.0229088 0.999472
vn 0.0299688 0.0671979 0.997289
vn 0.0380016 0.0610698 0.99741
vn 0.100256 0.042501 0.994054
vn 0.105866 0.00758743 0.994351
vn -0.011013 0.0349624 0.999328
vn 0.0303757 0.0435771 0.998588
vn 0.0250064 0.0374475 0.998986
vn 0.04384 0.0210302 0.998817
vn 0.0338732 0.0465759 0.99834
vn -0.0146344 0.0694127 0.997481
vn -0.00146898 0.0506279 0.998716
vn 0.0742609 -0.0139097 0.997142
f 100/100/100 4/4/4 13/13/13
f 44/44/44 3/3/3 21/21/21
f 44/44/44 19/19/19 20/20/20
f 60/60/60 19/19/19 52/52/52
f 60/60/60 17/17/17 18/18/18
f 76/76/76 17/17/17 68/68/68
f 84/84/84 16/16/16 76/76/76
f 84/84/84 14/14/14 15/15/15
f 100/100/100 14/14/14 92/92/92
f 11/11/11 93/93/93 85/85/85
f 93/93/93 86/86/86 85/85/85
f 94/94/94 87/87/87 86/86/86
f 87/87/87 96/96/96 88/88/88
f 96/96/96 89/89/89 88/88/88
f 97/97/97 90/90/90 89/89/89
f 90/90/90 99/99/99 91/91/91
f 91/91/91 100/100/100 92/92/92
f 10/10/10 85/85/85 77/77/77
f 77/77/77 86/86/86 78/78/78
f 78/78/78 87/87/87 79/79/79
f 79/79/79 88/88/88 80/80/80
f 88/88/88 81/81/81 80/80/80
f 81/81/81 90/90/90 82/82/82
f 82/82/82 91/91/91 83/83/83
f 91/91/91 84/84/84 83/83/83
f 10/10/10 69/69/69 9/9/9
f 69/69/69 78/78/78 70/70/70
f 70/70/70 79/79/79 71/71/71
f 79/79/79 72/72/72 71/71/71
f 72/72/72 81/81/81 73/73/73
f 73/73/73 82/82/82 74/74/74
f 82/82/82 75/75/75 74/74/74
f 83/83/83 76/76/76 75/75/75
f 9/9/9 61/61/61 8/8/8
f 69/69/69 62/62/62 61/61/61
f 62/62/62 71/71/71 63/63/63
f 63/63/63 72/72/72 64/64/64
f 72/72/72 65/65/65 64/64/64
f 65/65/65 74/74/74 66/66/66
f 66/66/66 75/75/75 67/67/67
f 67/67/67 76/76/76 68/68/68
f 8/8/8 53/53/53 7/7/7
f 53/53/53 62/62/62 54/54/54
f 54/54/54 63/63/63 55/55/55
f 55/55/55 64/64/64 56/56/56
f 64/64/64 57/57/57 56/56/56
f 57/57/57 66/66/66 58/58/58
f 58/58/58 67/67/67 59/59/59
f 59/59/59 68/68/68 60/60/60
f 6/6/6 53/53/53 45/45/45
f 45/45/45 54/54/54 46/46/46
f 54/54/54 47/47/47 46/46/46
f 55/55/55 48/48/48 47/47/47
f 56/56/56 49/49/49 48/48/48
f 49/49/49 58/58/58 50/50/50
f 58/58/58 51/51/51 50/50/50
f 59/59/59 52/52/52 51/51/51
f 6/6/6 37/37/37 5/5/5
f 45/45/45 38/38/38 37/37/37
f 46/46/46 39/39/39 38/38/38
f 39/39/39 48/48/48 40/40/40
f 40/40/40 49/49/49 41/41/41
f 41/41/41 50/50/50 42/42/42
f 50/50/50 43/43/43 42/42/42
f 51/51/51 44/44/44 43/43/43
f 5/5/5 28/28/28 1/1/1
f 28/28/28 38/38/38 27/27/27
f 27/27/27 39/39/39 26/26/26
f 26/26/26 40/40/40 25/25/25
f 40/40/40 24/24/24 25/25/25
f 41/41/41 23/23/23 24/24/24
f 23/23/23 43/43/43 22/22/22
f 43/43/43 21/21/21 22/22/22
f 2/2/2 93/93/93 12/12/12
f 93/93/93 30/30/30 94/94/94
f 30/30/30 95/95/95 94/94/94
f 31/31/31 96/96/96 95/95/95
f 32/32/32 97/97/97 96/96/96
f 33/33/33 98/98/98 97/97/97
f 98/98/98 35/35/35 99/99/99
f 99/99/99 36/36/36 100/100/100
f 100/100/100 36/36/36 4/4/4
f 44/44/44 20/20/20 3/3/3
f 44/44/44 52/52/52 19/19/19
f 60/60/60 18/18/18 19/19/19
f 60/60/60 68/68/68 17/17/17
f 76/76/76 16/16/16 17/17/17
f 84/84/84 15/15/15 16/16/16
f 84/84/84 92/92/92 14/14/14
f 100/100/100 13/13/13 14/14/14
f 11/11/11 12/12/12 93/93/93
f 93/93/93 94/94/94 86/86/86
f 94/94/94 95/95/95 87/87/87
f 87/87/87 95/95/95 96/96/96
f 96/96/96 97/97/97 89/89/89
f 97/97/97 98/98/98 90/90/90
f 90/90/90 98/98/98 99/99/99
f 91/91/91 99/99/99 100/100/100
f 10/10/10 11/11/11 85/85/85
f 77/77/77 85/85/85 86/86/86
f 78/78/78 86/86/86 87/87/87
f 79/79/79 87/87/87 88/88/88
f 88/88/88 89/89/89 81/81/81
f 81/81/81 89/89/89 90/90/90
f 82/82/82 90/90/90 91/91/91
f 91/91/91 92/92/92 84/84/84
f 10/10/10 77/77/77 69/69/69
f 69/69/69 77/77/77 78/78/78
f 70/70/70 78/78/78 79/79/79
f 79/79/79 80/80/80 72/72/72
f 72/72/72 80/80/80 81/81/81
f 73/73/73 81/81/81 82/82/82
f 82/82/82 83/83/83 75/75/75
f 83/83/83 84/84/84 76/76/76
f 9/9/9 69/69/69 61/61/61
f 69/69/69 70/70/70 62/62/62
f 62/62/62 70/70/70 71/71/71
f 63/63/63 71/71/71 72/72/72
f 72/72/72 73/73/73 65/65/65
f 65/65/65 73/73/73 74/74/74
f 66/66/66 74/74/74 75/75/75
f 67/67/67 75/75/75 76/76/76
f 8/8/8 61/61/61 53/53/53
f 53/53/53 61/61/61 62/62/62
f 54/54/54 62/62/62 63/63/63
f 55/55/55 63/63/63 64/64/64
f 64/64/64 65/65/65 57/57/57
f 57/57/57 65/65/65 66/66/66
f 58/58/58 66/66/66 67/67/67
f 59/59/59 67/67/67 68/68/68
f 6/6/6 7/7/7 53/53/53
f 45/45/45 53/53/53 54/54/54
f 54/54/54 55/55/55 47/47/47
f 55/55/55 56/56/56 48/48/48
f 56/56/56 57/57/57 49/49/49
f 49/49/49 57/57/57 58/58/58
f 58/58/58 59/59/59 51/51/51
f 59/59/59 60/60/60 52/52/52
f 6/6/6 45/45/45 37/37/37
f 45/45/45 46/46/46 38/38/38
f 46/46/46 47/47/47 39/39/39
f 39/39/39 47/47/47 48/48/48
f 40/40/40 48/48/48 49/49/49
f 41/41/41 49/49/49 50/50/50
f 50/50/50 51/51/51 43/43/43
f 51/51/51 52/52/52 44/44/44
f 5/5/5 37/37/37 28/28/28
f 28/28/28 37/37/37 38/38/38
f 27/27/27 38/38/38 39/39/39
f 26/26/26 39/39/39 40/40/40
f 40/40/40 41/41/41 24/24/24
f 41/41/41 42/42/42 23/23/23
f 23/23/23 42/42/42 43/43/43
f 43/43/43 44/44/44 21/21/21
f 2/2/2 29/29/29 93/93/93
f 93/93/93 29/29/29 30/30/30
f 30/30/30 31/31/31 95/95/95
f 31/31/31 32/32/32 96/96/96
f 32/32/32 33/33/33 97/97/97
f 33/33/33 34/34/34 98/98/98
f 98/98/98 34/34/34 35/35/35
f 99/99/99 35/35/35 36/36/36
