o GNATVCloth
v -5.0986 -4.96915 0.52241
v 4.9744 -4.99213 0.445592
v -5.01298 5.02105 0.004229
v 4.98702 5.02105 0.004229
v -3.9837 -5.00748 0.525009
v -2.87012 -5.04426 0.443935
v -1.74878 -5.06343 0.438442
v -0.62594 -5.0846 0.420127
v 0.49937 -5.08728 0.39439
v 1.62255 -5.07141 0.373548
v 2.74209 -5.04145 0.433806
v 3.85982 -5.01304 0.463591
v 3.85123 4.94925 0.163414
v 2.72476 4.89416 0.299628
v 1.59647 4.83097 0.381766
v 0.478999 4.75638 0.488703
v -0.636537 4.69775 0.409545
v -1.72003 4.71333 0.259257
v -2.8193 4.76465 0.454266
v -3.91159 4.8778 0.235795
v -4.99825 3.90861 0.0848561
v -5.00018 2.79383 0.106654
v -5.01191 1.68009 0.140748
v -5.02419 0.567707 0.191375
v -5.03181 -0.542726 0.266066
v -5.04336 -1.65229 0.348759
v -5.05355 -2.75919 0.45461
v -5.06711 -3.86542 0.549308
v 4.95702 -3.88398 0.361665
v 4.94986 -2.77342 0.286611
v 4.94839 -1.66108 0.267954
v 4.95046 -0.548332 0.243736
v 4.949 0.564867 0.219791
v 4.94696 1.6786 0.176151
v 4.95188 2.79285 0.131603
v 4.95647 3.90634 0.0606277
v -3.90187 -3.86158 0.40866
v -3.86343 -3.22187 0.303298
v -3.70947 -1.93721 0.192726
v -4.1452 -0.278579 0.169439
v -4.16386 0.738272 0.194151
v -4.15081 1.52292 0.170318
v -4.07616 2.81499 0.127745
v -3.94549 3.87119 -0.146174
v -2.7814 -4.02721 0.29744
v -2.84351 -2.76111 0.22249
v -2.72476 -2.17263 0.290201
v -2.78979 -0.626554 0.337927
v -2.81204 0.503646 0.330636
v -2.72964 1.54378 0.177367
v -2.86556 2.84933 -0.136792
v -2.83817 3.45652 0.223067
v -1.72006 -4.25696 0.343382
v -1.55646 -2.94848 0.379458
v -1.94446 -1.66074 0.451277
v -1.91911 -0.862973 0.408174
v -1.56121 0.601404 0.087713
v -2.01244 1.65125 -0.0339787
v -1.76929 2.68578 0.190325
v -1.62858 3.6091 0.32948
v -0.296209 -4.34534 0.375944
v -0.644025 -2.9118 0.390179
v -0.60046 -1.77404 0.443957
v -0.887726 -0.802687 0.325886
v -0.646759 0.40662 0.220561
v -0.409353 1.44456 0.24576
v -0.613379 2.62263 0.33075
v -0.805431 3.44779 0.36131
v 0.677336 -3.92047 0.372656
v 0.755889 -2.62991 0.415205
v 0.470599 -1.84079 0.40397
v 0.560185 -0.506328 0.350442
v 0.537649 0.396137 0.302783
v 0.25763 1.50368 0.347664
v 0.486969 2.47579 0.372214
v 0.498657 3.70758 0.43169
v 1.89265 -3.66573 0.433544
v 1.61551 -2.8597 0.336177
v 1.77063 -1.93719 0.397504
v 1.9347 -0.403325 0.35677
v 1.91941 0.265398 0.189669
v 1.78876 1.52914 0.254866
v 1.3776 2.807 0.317296
v 1.43756 3.64215 0.353886
v 2.7351 -3.9295 0.419259
v 3.04331 -2.84327 0.353615
v 2.89586 -1.9691 0.256946
v 2.67418 -0.508817 0.360139
v 2.91796 0.284868 0.276878
v 3.0253 1.56293 0.0262029
v 2.73564 3.13175 0.12073
v 2.70122 3.49982 0.148961
v 3.85925 -3.97356 0.347207
v 3.60644 -2.71882 0.337305
v 3.82168 -1.68028 0.297328
v 3.7638 -0.724748 0.26239
v 3.83122 0.286515 0.29457
v 4.12743 1.80202 0.180644
v 4.1077 2.75627 0.0238072
v 4.00021 3.88167 -0.0101424
vt 0.0001 0.0001
vt 0.9999 0.0001
vt 0.0001 0.9999
vt 0.9999 0.9999
vt 0.111189 0.0001
vt 0.222278 0.0001
vt 0.333367 0.0001
vt 0.444455 0.0001
vt 0.555544 0.0001
vt 0.666633 0.0001
vt 0.777722 0.0001
vt 0.888811 0.0001
vt 0.888811 0.9999
vt 0.777722 0.9999
vt 0.666633 0.9999
vt 0.555544 0.9999
vt 0.444455 0.9999
vt 0.333367 0.9999
vt 0.222278 0.9999
vt 0.111189 0.9999
vt 0.0001 0.888811
vt 0.0001 0.777722
vt 0.0001 0.666633
vt 0.0001 0.555544
vt 0.0001 0.444456
vt 0.0001 0.333367
vt 0.0001 0.222278
vt 0.0001 0.111189
vt 0.9999 0.111189
vt 0.9999 0.222278
vt 0.9999 0.333367
vt 0.9999 0.444456
vt 0.9999 0.555544
vt 0.9999 0.666633
vt 0.9999 0.777722
vt 0.9999 0.888811
vt 0.11727 0.115399
vt 0.120778 0.180369
vt 0.134636 0.309595
vt 0.088728 0.473895
vt 0.085886 0.575352
vt 0.086211 0.65375
vt 0.092207 0.78313
vt 0.106956 0.892282
vt 0.22987 0.102869
vt 0.221803 0.229552
vt 0.233521 0.288953
vt 0.225541 0.443179
vt 0.221596 0.556167
vt 0.227801 0.661237
vt 0.214896 0.795203
vt 0.22542 0.865181
vt 0.335524 0.082127
vt 0.351143 0.213907
vt 0.311934 0.342467
vt 0.313159 0.422214
vt 0.347791 0.572605
vt 0.301482 0.677733
vt 0.329031 0.783086
vt 0.344903 0.885466
vt 0.476837 0.074882
vt 0.441952 0.218774
vt 0.445749 0.333088
vt 0.416414 0.43099
vt 0.439746 0.552976
vt 0.463203 0.656843
vt 0.444252 0.77653
vt 0.426137 0.866051
vt 0.573419 0.117409
vt 0.581125 0.246686
vt 0.552512 0.326
vt 0.561075 0.459693
vt 0.558356 0.550596
vt 0.530299 0.662189
vt 0.553275 0.760113
vt 0.555478 0.888821
vt 0.694433 0.13996
vt 0.667048 0.221666
vt 0.681985 0.314267
vt 0.698218 0.467249
vt 0.696819 0.535952
vt 0.68253 0.662758
vt 0.642062 0.791726
vt 0.648523 0.877957
vt 0.778029 0.111667
vt 0.809426 0.219523
vt 0.794923 0.307783
vt 0.772028 0.454562
vt 0.796846 0.533374
vt 0.807262 0.663157
vt 0.778581 0.821037
vt 0.775122 0.858219
vt 0.890224 0.104741
vt 0.865679 0.23076
vt 0.887326 0.334104
vt 0.881307 0.429754
vt 0.887973 0.53063
vt 0.918106 0.681428
vt 0.915043 0.778027
vt 0.904815 0.89094
vn -0.00316448 -0.0242728 0.9997
vn -0.00265498 0.0932633 0.995638
vn -0.0101232 -0.138924 0.990251
vn 0.0358902 -0.0436773 0.998401
vn 0.0639415 0.0544895 0.996465
vn 0.0469901 0.122021 0.991415
vn 0.0126268 0.116609 0.993098
vn 0.00758778 0.0779613 0.996927
vn 0.0120665 0.0282275 0.999529
vn -0.0188115 -0.0122931 0.999748
vn -0.00631382 0.045905 0.998926
vn -0.00767093 0.111261 0.993762
vn 0.135872 -0.140474 0.980717
vn 0.125051 -0.0983362 0.987265
vn 0.0860188 -0.0348477 0.995684
vn 0.0363185 -0.0482776 0.998173
vn -0.0742902 -0.0171198 0.99709
vn 0.0208407 0.0651723 0.997656
vn -0.121417 -0.153035 0.980734
vn -0.226865 -0.338838 0.913083
vn 0.137927 0.105377 0.984821
vn -0.0233894 0.0252112 0.999409
vn -0.0231169 0.0354495 0.999104
vn 0.0260121 0.0292422 0.999234
vn 0.0875344 0.0696959 0.99372
vn 0.115952 0.0711067 0.990706
vn 0.147928 0.080726 0.985698
vn 0.0981057 0.0764007 0.992239
vn -0.0189486 0.0712519 0.997278
vn 0.0211114 0.0325372 0.999248
vn 0.0212181 0.0255336 0.999449
vn 0.0315234 0.00337107 0.999497
vn 0.0410965 0.0419397 0.998275
vn 0.011431 0.0395334 0.999153
vn -0.083446 0.0875186 0.992662
vn -0.0928922 0.0463625 0.994596
vn 0.109989 0.125591 0.985966
vn 0.106888 0.100177 0.989211
vn 0.0145071 0.02059 0.999683
vn -0.00761455 0.0172821 0.999822
vn -0.0372563 0.0346854 0.998704
vn -0.0168851 0.0322657 0.999337
vn 0.0778298 0.116978 0.99008
vn -0.0944978 -0.118023 0.988504
vn 0.0193731 0.0875893 0.995968
vn -0.0547388 0.00379784 0.998493
vn -0.135494 -0.0693501 0.988348
vn -0.113453 -0.00467818 0.993532
vn 0.0337529 0.0884728 0.995507
vn 0.104533 0.140952 0.984482
vn -0.0748715 -0.0611476 0.995317
vn -0.25557 -0.285035 0.923818
vn -0.012535 0.0545991 0.99843
vn -0.0649952 -0.0402099 0.997075
vn -0.0486577 0.00708394 0.99879
vn 0.0350021 0.0965874 0.994709
vn -0.00228724 0.120733 0.992682
vn -0.0154197 0.027058 0.999515
vn -0.170159 -0.191528 0.966625
vn -0.0342301 -0.0595398 0.997639
vn -0.00352114 0.0225761 0.999739
vn -0.0048394 -0.0243674 0.999691
vn 0.00694633 0.0202412 0.999771
vn -0.00607582 0.114922 0.993356
vn -0.0983048 0.0360613 0.994503
vn -0.141058 -0.0183381 0.989832
vn -0.0956825 -0.087612 0.991549
vn -0.0653199 -0.0633423 0.995852
vn -0.00320235 0.00264413 0.999991
vn 0.0255439 -0.0248989 0.999364
vn 0.0137341 0.0104415 0.999851
vn -0.00490382 0.0821032 0.996612
vn 0.017378 -0.0041737 0.99984
vn -0.0505655 -0.0202921 0.998515
vn -0.00542249 -0.0387051 0.999236
vn 0.00483581 -0.0477245 0.998849
vn -0.0180205 0.0370207 0.999152
vn 0.029586 0.0196341 0.999369
vn 0.0459408 -0.0151321 0.99883
vn 6.28122e-05 0.135511 0.990776
vn 0.0254717 0.114682 0.993076
vn 0.111492 -0.027657 0.99338
vn 0.105936 -0.0361234 0.993717
vn 0.112375 -0.0566337 0.992051
vn 0.0224769 0.01513 0.999633
vn 0.0170151 0.0733275 0.997163
vn 0.0285683 0.015239 0.999476
vn 0.0410103 0.0609587 0.997297
vn -0.0227865 0.113818 0.99324
vn -0.00248655 0.0793938 0.99684
vn 0.130485 -0.0311807 0.99096
vn 0.148041 -0.0854054 0.985287
vn 0.0176701 0.0561815 0.998264
vn 0.00968396 0.0441431 0.998978
vn -0.00462342 0.0338591 0.999416
vn 0.0238137 0.00617517 0.999697
vn -0.0111466 0.0539919 0.998479
vn -0.0651998 0.0944698 0.99339
vn -0.0617927 0.0653605 0.995947
vn 0.0712227 -0.0488349 0.996264
f 100/100/100 4/4/4 13/13/13
f 44/44/44 3/3/3 21/21/21
f 44/44/44 19/19/19 20/20/20
f 60/60/60 19/19/19 52/52/52
f 60/60/60 17/17/17 18/18/18
f 76/76/76 17/17/17 68/68/68
f 84/84/84 16/16/16 76/76/76
f 84/84/84 14/14/14 15/15/15
f 100/100/100 14/14/14 92/92/92
f 11/11/11 93/93/93 85/85/85
f 93/93/93 86/86/86 85/85/85
f 94/94/94 87/87/87 86/86/86
f 87/87/87 96/96/96 88/88/88
f 96/96/96 89/89/89 88/88/88
f 97/97/97 90/90/90 89/89/89
f 90/90/90 99/99/99 91/91/91
f 91/91/91 100/100/100 92/92/92
f 10/10/10 85/85/85 77/77/77
f 77/77/77 86/86/86 78/78/78
f 78/78/78 87/87/87 79/79/79
f 79/79/79 88/88/88 80/80/80
f 88/88/88 81/81/81 80/80/80
f 81/81/81 90/90/90 82/82/82
f 82/82/82 91/91/91 83/83/83
f 91/91/91 84/84/84 83/83/83
f 10/10/10 69/69/69 9/9/9
f 69/69/69 78/78/78 70/70/70
f 70/70/70 79/79/79 71/71/71
f 79/79/79 72/72/72 71/71/71
f 72/72/72 81/81/81 73/73/73
f 73/73/73 82/82/82 74/74/74
f 82/82/82 75/75/75 74/74/74
f 83/83/83 76/76/76 75/75/75
f 9/9/9 61/61/61 8/8/8
f 69/69/69 62/62/62 61/61/61
f 62/62/62 71/71/71 63/63/63
f 63/63/63 72/72/72 64/64/64
f 72/72/72 65/65/65 64/64/64
f 65/65/65 74/74/74 66/66/66
f 66/66/66 75/75/75 67/67/67
f 67/67/67 76/76/76 68/68/68
f 8/8/8 53/53/53 7/7/7
f 53/53/53 62/62/62 54/54/54
f 54/54/54 63/63/63 55/55/55
f 55/55/55 64/64/64 56/56/56
f 64/64/64 57/57/57 56/56/56
f 57/57/57 66/66/66 58/58/58
f 58/58/58 67/67/67 59/59/59
f 59/59/59 68/68/68 60/60/60
f 6/6/6 53/53/53 45/45/45
f 45/45/45 54/54/54 46/46/46
f 54/54/54 47/47/47 46/46/46
f 55/55/55 48/48/48 47/47/47
f 56/56/56 49/49/49 48/48/48
f 49/49/49 58/58/58 50/50/50
f 58/58/58 51/51/51 50/50/50
f 59/59/59 52/52/52 51/51/51
f 6/6/6 37/37/37 5/5/5
f 45/45/45 38/38/38 37/37/37
f 46/46/46 39/39/39 38/38/38
f 39/39/39 48/48/48 40/40/40
f 40/40/40 49/49/49 41/41/41
f 41/41/41 50/50/50 42/42/42
f 50/50/50 43/43/43 42/42/42
f 51/51/51 44/44/44 43/43/43
f 5/5/5 28/28/28 1/1/1
f 28/28/28 38/38/38 27/27/27
f 27/27/27 39/39/39 26/26/26
f 26/26/26 40/40/40 25/25/25
f 40/40/40 24/24/24 25/25/25
f 41/41/41 23/23/23 24/24/24
f 23/23/23 43/43/43 22/22/22
f 43/43/43 21/21/21 22/22/22
f 2/2/2 93/93/93 12/12/12
f 93/93/93 30/30/30 94/94/94
f 30/30/30 95/95/95 94/94/94
f 31/31/31 96/96/96 95/95/95
f 32/32/32 97/97/97 96/96/96
f 33/33/33 98/98/98 97/97/97
f 98/98/98 35/35/35 99/99/99
f 99/99/99 36/36/36 100/100/100
f 100/100/100 36/36/36 4/4/4
f 44/44/44 20/20/20 3/3/3
f 44/44/44 52/52/52 19/19/19
f 60/60/60 18/18/18 19/19/19
f 60/60/60 68/68/68 17/17/17
f 76/76/76 16/16/16 17/17/17
f 84/84/84 15/15/15 16/16/16
f 84/84/84 92/92/92 14/14/14
f 100/100/100 13/13/13 14/14/14
f 11/11/11 12/12/12 93/93/93
f 93/93/93 94/94/94 86/86/86
f 94/94/94 95/95/95 87/87/87
f 87/87/87 95/95/95 96/96/96
f 96/96/96 97/97/97 89/89/89
f 97/97/97 98/98/98 90/90/90
f 90/90/90 98/98/98 99/99/99
f 91/91/91 99/99/99 100/100/100
f 10/10/10 11/11/11 85/85/85
f 77/77/77 85/85/85 86/86/86
f 78/78/78 86/86/86 87/87/87
f 79/79/79 87/87/87 88/88/88
f 88/88/88 89/89/89 81/81/81
f 81/81/81 89/89/89 90/90/90
f 82/82/82 90/90/90 91/91/91
f 91/91/91 92/92/92 84/84/84
f 10/10/10 77/77/77 69/69/69
f 69/69/69 77/77/77 78/78/78
f 70/70/70 78/78/78 79/79/79
f 79/79/79 80/80/80 72/72/72
f 72/72/72 80/80/80 81/81/81
f 73/73/73 81/81/81 82/82/82
f 82/82/82 83/83/83 75/75/75
f 83/83/83 84/84/84 76/76/76
f 9/9/9 69/69/69 61/61/61
f 69/69/69 70/70/70 62/62/62
f 62/62/62 70/70/70 71/71/71
f 63/63/63 71/71/71 72/72/72
f 72/72/72 73/73/73 65/65/65
f 65/65/65 73/73/73 74/74/74
f 66/66/66 74/74/74 75/75/75
f 67/67/67 75/75/75 76/76/76
f 8/8/8 61/61/61 53/53/53
f 53/53/53 61/61/61 62/62/62
f 54/54/54 62/62/62 63/63/63
f 55/55/55 63/63/63 64/64/64
f 64/64/64 65/65/65 57/57/57
f 57/57/57 65/65/65 66/66/66
f 58/58/58 66/66/66 67/67/67
f 59/59/59 67/67/67 68/68/68
f 6/6/6 7/7/7 53/53/53
f 45/45/45 53/53/53 54/54/54
f 54/54/54 55/55/55 47/47/47
f 55/55/55 56/56/56 48/48/48
f 56/56/56 57/57/57 49/49/49
f 49/49/49 57/57/57 58/58/58
f 58/58/58 59/59/59 51/51/51
f 59/59/59 60/60/60 52/52/52
f 6/6/6 45/45/45 37/37/37
f 45/45/45 46/46/46 38/38/38
f 46/46/46 47/47/47 39/39/39
f 39/39/39 47/47/47 48/48/48
f 40/40/40 48/48/48 49/49/49
f 41/41/41 49/49/49 50/50/50
f 50/50/50 51/51/51 43/43/43
f 51/51/51 52/52/52 44/44/44
f 5/5/5 37/37/37 28/28/28
f 28/28/28 37/37/37 38/38/38
f 27/27/27 38/38/38 39/39/39
f 26/26/26 39/39/39 40/40/40
f 40/40/40 41/41/41 24/24/24
f 41/41/41 42/42/42 23/23/23
f 23/23/23 42/42/42 43/43/43
f 43/43/43 44/44/44 21/21/21
f 2/2/2 29/29/29 93/93/93
f 93/93/93 29/29/29 30/30/30
f 30/30/30 31/31/31 95/95/95
f 31/31/31 32/32/32 96/96/96
f 32/32/32 33/33/33 97/97/97
f 33/33/33 34/34/34 98/98/98
f 98/98/98 34/34/34 35/35/35
f 99/99/99 35/35/35 36/36/36
