o GNATVCloth
v -4.92524 -4.98354 0.375241
v 5.11332 -4.98361 0.406724
v -5.01298 5.02105 0.004229
v 4.98702 5.02105 0.004229
v -3.8122 -4.99695 0.331124
v -2.6993 -4.99429 0.311933
v -1.58578 -5.00003 0.230271
v -0.467975 -5.00053 0.220668
v 0.652524 -5.00692 0.247272
v 1.7722 -5.00625 0.258941
v 2.88964 -5.00885 0.227363
v 4.00514 -5.00084 0.285653
v 3.86959 4.95476 0.0840586
v 2.78277 4.88919 0.226422
v 1.67764 4.84497 0.348596
v 0.582431 4.84546 0.307759
v -0.533689 4.86587 0.27292
v -1.64194 4.8981 0.175984
v -2.76269 4.93853 0.151833
v -3.88206 4.98027 0.0634754
v -4.9903 3.90663 0.0473935
v -4.97194 2.79191 0.0696887
v -4.95946 1.67807 0.0958963
v -4.94724 0.565611 0.13901
v -4.93561 -0.545737 0.19591
v -4.92753 -1.65556 0.257336
v -4.9174 -2.76317 0.353574
v -4.91959 -3.87427 0.394453
v 5.10701 -3.8756 0.318331
v 5.0985 -2.76535 0.309199
v 5.08879 -1.65387 0.248384
v 5.07831 -0.542017 0.162395
v 5.06371 0.568532 0.109536
v 5.04904 1.68085 0.0773608
v 5.03489 2.7941 0.0551399
v 5.01862 3.90776 0.0302935
v -3.74981 -3.84587 0.290877
v -3.7117 -3.19763 0.28529
v -3.58103 -1.91138 0.174077
v -4.05101 -0.264629 0.153552
v -4.09081 0.751167 0.160411
v -4.09523 1.53517 0.130462
v -4.0492 2.82877 0.0962984
v -3.91915 3.90953 -0.0335096
v -2.6214 -3.9789 0.232901
v -2.7032 -2.71166 0.176757
v -2.58748 -2.11927 0.157061
v -2.68251 -0.581649 0.275908
v -2.73119 0.549973 0.270046
v -2.67804 1.59801 0.206469
v -2.81702 2.92048 -0.00779135
v -2.74871 3.59372 0.190415
v -1.5607 -4.18897 0.241007
v -1.40677 -2.87378 0.224959
v -1.81049 -1.59129 0.303709
v -1.80246 -0.79781 0.272657
v -1.469 0.694237 0.168629
v -1.94455 1.74635 0.125248
v -1.6989 2.78006 0.267496
v -1.54437 3.77563 0.22319
v -0.141736 -4.26961 0.219379
v -0.495736 -2.82901 0.228478
v -0.464288 -1.68903 0.254523
v -0.767747 -0.715612 0.214307
v -0.544563 0.496384 0.202214
v -0.323847 1.53497 0.239578
v -0.534435 2.73189 0.270798
v -0.725823 3.57607 0.232552
v 0.826716 -3.8475 0.245269
v 0.899229 -2.55435 0.19797
v 0.607941 -1.76593 0.219042
v 0.682448 -0.430674 0.213022
v 0.644359 0.478523 0.226262
v 0.348084 1.58625 0.234274
v 0.565663 2.56566 0.236979
v 0.578136 3.79725 0.226611
v 2.04222 -3.61531 0.225029
v 1.7632 -2.80214 0.203832
v 1.90887 -1.88095 0.247317
v 2.05727 -0.352627 0.217472
v 2.03394 0.328687 0.204171
v 1.875 1.59522 0.167382
v 1.45763 2.87266 0.269565
v 1.51542 3.69028 0.215793
v 2.88431 -3.89553 0.226207
v 3.18975 -2.81754 0.279026
v 3.04221 -1.93849 0.192132
v 2.79766 -0.473707 0.279919
v 3.03641 0.314764 0.251578
v 3.12754 1.60669 0.174373
v 2.82623 3.16623 0.192733
v 2.78757 3.53185 0.241027
v 4.01126 -3.95646 0.247293
v 3.752 -2.70051 0.311403
v 3.96215 -1.66883 0.271677
v 3.89424 -0.715145 0.206452
v 3.9484 0.294719 0.197354
v 4.23486 1.80901 0.141277
v 4.19678 2.77029 0.0833053
v 4.06582 3.8862 0.0268695
vt 0.0001 0.0001
vt 0.9999 0.0001
vt 0.0001 0.9999
vt 0.9999 0.9999
vt 0.111189 0.0001
vt 0.222278 0.0001
vt 0.333367 0.0001
vt 0.444455 0.0001
vt 0.555544 0.0001
vt 0.666633 0.0001
vt 0.777722 0.0001
vt 0.888811 0.0001
vt 0.888811 0.9999
vt 0.777722 0.9999
vt 0.666633 0.9999
vt 0.555544 0.9999
vt 0.444455 0.9999
vt 0.333367 0.9999
vt 0.222278 0.9999
vt 0.111189 0.9999
vt 0.0001 0.888811
vt 0.0001 0.777722
vt 0.0001 0.666633
vt 0.0001 0.555544
vt 0.0001 0.444456
vt 0.0001 0.333367
vt 0.0001 0.222278
vt 0.0001 0.111189
vt 0.9999 0.111189
vt 0.9999 0.222278
vt 0.9999 0.333367
vt 0.9999 0.444456
vt 0.9999 0.555544
vt 0.9999 0.666633
vt 0.9999 0.777722
vt 0.9999 0.888811
vt 0.11727 0.115399
vt 0.120778 0.180369
vt 0.134636 0.309595
vt 0.088728 0.473895
vt 0.085886 0.575352
vt 0.086211 0.65375
vt 0.092207 0.78313
vt 0.106956 0.892282
vt 0.22987 0.102869
vt 0.221803 0.229552
vt 0.233521 0.288953
vt 0.225541 0.443179
vt 0.221596 0.556167
vt 0.227801 0.661237
vt 0.214896 0.795203
vt 0.22542 0.865181
vt 0.335524 0.082127
vt 0.351143 0.213907
vt 0.311934 0.342467
vt 0.313159 0.422214
vt 0.347791 0.572605
vt 0.301482 0.677733
vt 0.329031 0.783086
vt 0.344903 0.885466
vt 0.476837 0.074882
vt 0.441952 0.218774
vt 0.445749 0.333088
vt 0.416414 0.43099
vt 0.439746 0.552976
vt 0.463203 0.656843
vt 0.444252 0.77653
vt 0.426137 0.866051
vt 0.573419 0.117409
vt 0.581125 0.246686
vt 0.552512 0.326
vt 0.561075 0.459693
vt 0.558356 0.550596
vt 0.530299 0.662189
vt 0.553275 0.760113
vt 0.555478 0.888821
vt 0.694433 0.13996
vt 0.667048 0.221666
vt 0.681985 0.314267
vt 0.698218 0.467249
vt 0.696819 0.535952
vt 0.68253 0.662758
vt 0.642062 0.791726
vt 0.648523 0.877957
vt 0.778029 0.111667
vt 0.809426 0.219523
vt 0.794923 0.307783
vt 0.772028 0.454562
vt 0.796846 0.533374
vt 0.807262 0.663157
vt 0.778581 0.821037
vt 0.775122 0.858219
vt 0.890224 0.104741
vt 0.865679 0.23076
vt 0.887326 0.334104
vt 0.881307 0.429754
vt 0.887973 0.53063
vt 0.918106 0.681428
vt 0.915043 0.778027
vt 0.904815 0.89094
vn 0.0393886 -0.0175042 0.999071
vn -0.0897328 0.0580506 0.994273
vn 0.00997371 -0.0241258 0.999659
vn 0.0347602 -0.00827856 0.999361
vn 0.0480247 0.0155379 0.998725
vn 0.0394377 0.0421627 0.998332
vn 0.0408397 -0.0144887 0.999061
vn -3.9926e-05 -0.00203115 0.999998
vn -0.0211628 0.00725394 0.99975
vn 0.00914726 0.0123948 0.999881
vn -0.0142827 0.013037 0.999813
vn -0.0807893 0.0370583 0.996042
vn 0.102591 -0.0343657 0.99413
vn 0.0977253 -0.0342159 0.994625
vn 0.0386038 -0.119524 0.992081
vn -0.0223071 -0.0877709 0.995891
vn -0.0317641 -0.0260231 0.999157
vn -0.0531119 0.0373501 0.99789
vn -0.0788036 0.00196323 0.996888
vn -0.0684568 -0.0876444 0.993797
vn 0.0401156 0.0566758 0.997586
vn -0.0296708 0.0213399 0.999332
vn -0.0330152 0.0317812 0.998949
vn -0.00838323 0.0273903 0.99959
vn 0.0308083 0.0534458 0.998095
vn 0.0586267 0.0580976 0.996588
vn 0.0772534 0.0669828 0.994759
vn 0.0711714 0.0131348 0.997378
vn -0.0678189 0.0433458 0.996756
vn -0.0106945 0.012299 0.999867
vn 0.0217969 0.0672491 0.997498
vn 0.042871 0.0442582 0.9981
vn 0.0741202 0.0337911 0.996677
vn 0.0822128 0.0254165 0.996291
vn 0.048765 0.035056 0.998195
vn 0.0080328 0.0320137 0.999455
vn 0.0609217 0.0292086 0.997715
vn 0.0743864 0.0419056 0.996349
vn 0.0330465 0.0305094 0.998988
vn -0.0224558 0.0155309 0.999627
vn -0.049708 0.0267627 0.998405
vn -0.0447594 0.0329308 0.998455
vn 0.0102103 0.0695561 0.997526
vn -0.0492165 -0.0202151 0.998584
vn 0.0276415 0.0433724 0.998676
vn 0.0222924 0.0478314 0.998607
vn -0.0515755 -0.0384387 0.997929
vn -0.0486105 -0.0216506 0.998583
vn 0.0011467 0.0347301 0.999396
vn 0.0106772 0.0869169 0.996158
vn -0.0916855 -0.0221868 0.995541
vn -0.153283 -0.0800821 0.984932
vn 0.015687 0.00944365 0.999832
vn -0.0233728 -0.00928572 0.999684
vn -0.01829 -0.0171453 0.999686
vn 0.0394359 0.0387698 0.99847
vn 0.00887254 0.0305985 0.999492
vn -0.0223268 0.00835481 0.999716
vn -0.0933426 -0.0536059 0.99419
vn -0.0319017 0.0281542 0.999094
vn -0.00893469 -0.000137831 0.99996
vn 0.00824231 -0.00423442 0.999957
vn 0.021386 -0.00030423 0.999771
vn 0.0174101 0.0359677 0.999201
vn -0.0176911 -0.0111926 0.999781
vn -0.0233537 -0.020087 0.999525
vn -0.00472745 -0.0162312 0.999857
vn -0.00256581 0.014578 0.99989
vn -0.00280206 0.017381 0.999845
vn -0.00011206 -0.00506077 0.999987
vn 0.00876319 -0.0137308 0.999867
vn -0.00133204 0.00845622 0.999963
vn 0.00731222 -0.00122889 0.999973
vn 0.0172496 -0.0127153 0.99977
vn 0.0106664 -0.0173094 0.999793
vn -0.00163784 -0.00876068 0.99996
vn -0.0078063 0.00771535 0.99994
vn -0.0105233 0.0109248 0.999885
vn -0.00826278 -0.0191116 0.999783
vn -0.0424383 0.0208095 0.998882
vn -0.0215318 0.0278254 0.999381
vn 0.0222706 -0.0144219 0.999648
vn 0.0164485 -0.000814778 0.999864
vn 0.0123682 -0.0448698 0.998916
vn -0.0042575 -0.0124227 0.999914
vn -0.0436101 0.0059753 0.999031
vn -0.0266665 0.0198234 0.999448
vn -0.005973 0.00097843 0.999982
vn 0.0194811 0.0377679 0.999097
vn 0.0180522 0.033019 0.999292
vn 0.0631925 -0.0265825 0.997647
vn 0.0757556 -0.0557049 0.995569
vn -0.047884 0.000922369 0.998852
vn -0.0442208 0.0143036 0.998919
vn -0.032806 0.0564925 0.997864
vn 0.0233793 0.0264214 0.999377
vn 0.0532622 0.0286915 0.998168
vn 0.0519699 0.0381535 0.99792
vn 0.0427878 0.0434659 0.998138
vn 0.093093 -0.00444403 0.995648
f 100/100/100 4/4/4 13/13/13
f 44/44/44 3/3/3 21/21/21
f 44/44/44 19/19/19 20/20/20
f 60/60/60 19/19/19 52/52/52
f 60/60/60 17/17/17 18/18/18
f 76/76/76 17/17/17 68/68/68
f 84/84/84 16/16/16 76/76/76
f 84/84/84 14/14/14 15/15/15
f 100/100/100 14/14/14 92/92/92
f 11/11/11 93/93/93 85/85/85
f 93/93/93 86/86/86 85/85/85
f 94/94/94 87/87/87 86/86/86
f 87/87/87 96/96/96 88/88/88
f 96/96/96 89/89/89 88/88/88
f 97/97/97 90/90/90 89/89/89
f 90/90/90 99/99/99 91/91/91
f 91/91/91 100/100/100 92/92/92
f 10/10/10 85/85/85 77/77/77
f 77/77/77 86/86/86 78/78/78
f 78/78/78 87/87/87 79/79/79
f 79/79/79 88/88/88 80/80/80
f 88/88/88 81/81/81 80/80/80
f 81/81/81 90/90/90 82/82/82
f 82/82/82 91/91/91 83/83/83
f 91/91/91 84/84/84 83/83/83
f 10/10/10 69/69/69 9/9/9
f 69/69/69 78/78/78 70/70/70
f 70/70/70 79/79/79 71/71/71
f 79/79/79 72/72/72 71/71/71
f 72/72/72 81/81/81 73/73/73
f 73/73/73 82/82/82 74/74/74
f 82/82/82 75/75/75 74/74/74
f 83/83/83 76/76/76 75/75/75
f 9/9/9 61/61/61 8/8/8
f 69/69/69 62/62/62 61/61/61
f 62/62/62 71/71/71 63/63/63
f 63/63/63 72/72/72 64/64/64
f 72/72/72 65/65/65 64/64/64
f 65/65/65 74/74/74 66/66/66
f 66/66/66 75/75/75 67/67/67
f 67/67/67 76/76/76 68/68/68
f 8/8/8 53/53/53 7/7/7
f 53/53/53 62/62/62 54/54/54
f 54/54/54 63/63/63 55/55/55
f 55/55/55 64/64/64 56/56/56
f 64/64/64 57/57/57 56/56/56
f 57/57/57 66/66/66 58/58/58
f 58/58/58 67/67/67 59/59/59
f 59/59/59 68/68/68 60/60/60
f 6/6/6 53/53/53 45/45/45
f 45/45/45 54/54/54 46/46/46
f 54/54/54 47/47/47 46/46/46
f 55/55/55 48/48/48 47/47/47
f 56/56/56 49/49/49 48/48/48
f 49/49/49 58/58/58 50/50/50
f 58/58/58 51/51/51 50/50/50
f 59/59/59 52/52/52 51/51/51
f 6/6/6 37/37/37 5/5/5
f 45/45/45 38/38/38 37/37/37
f 46/46/46 39/39/39 38/38/38
f 39/39/39 48/48/48 40/40/40
f 40/40/40 49/49/49 41/41/41
f 41/41/41 50/50/50 42/42/42
f 50/50/50 43/43/43 42/42/42
f 51/51/51 44/44/44 43/43/43
f 5/5/5 28/28/28 1/1/1
f 28/28/28 38/38/38 27/27/27
f 27/27/27 39/39/39 26/26/26
f 26/26/26 40/40/40 25/25/25
f 40/40/40 24/24/24 25/25/25
f 41/41/41 23/23/23 24/24/24
f 23/23/23 43/43/43 22/22/22
f 43/43/43 21/21/21 22/22/22
f 2/2/2 93/93/93 12/12/12
f 93/93/93 30/30/30 94/94/94
f 30/30/30 95/95/95 94/94/94
f 31/31/31 96/96/96 95/95/95
f 32/32/32 97/97/97 96/96/96
f 33/33/33 98/98/98 97/97/97
f 98/98/98 35/35/35 99/99/99
f 99/99/99 36/36/36 100/100/100
f 100/100/100 36/36/36 4/4/4
f 44/44/44 20/20/20 3/3/3
f 44/44/44 52/52/52 19/19/19
f 60/60/60 18/18/18 19/19/19
f 60/60/60 68/68/68 17/17/17
f 76/76/76 16/16/16 17/17/17
f 84/84/84 15/15/15 16/16/16
f 84/84/84 92/92/92 14/14/14
f 100/100/100 13/13/13 14/14/14
f 11/11/11 12/12/12 93/93/93
f 93/93/93 94/94/94 86/86/86
f 94/94/94 95/95/95 87/87/87
f 87/87/87 95/95/95 96/96/96
f 96/96/96 97/97/97 89/89/89
f 97/97/97 98/98/98 90/90/90
f 90/90/90 98/98/98 99/99/99
f 91/91/91 99/99/99 100/100/100
f 10/10/10 11/11/11 85/85/85
f 77/77/77 85/85/85 86/86/86
f 78/78/78 86/86/86 87/87/87
f 79/79/79 87/87/87 88/88/88
f 88/88/88 89/89/89 81/81/81
f 81/81/81 89/89/89 90/90/90
f 82/82/82 90/90/90 91/91/91
f 91/91/91 92/92/92 84/84/84
f 10/10/10 77/77/77 69/69/69
f 69/69/69 77/77/77 78/78/78
f 70/70/70 78/78/78 79/79/79
f 79/79/79 80/80/80 72/72/72
f 72/72/72 80/80/80 81/81/81
f 73/73/73 81/81/81 82/82/82
f 82/82/82 83/83/83 75/75/75
f 83/83/83 84/84/84 76/76/76
f 9/9/9 69/69/69 61/61/61
f 69/69/69 70/70/70 62/62/62
f 62/62/62 70/70/70 71/71/71
f 63/63/63 71/71/71 72/72/72
f 72/72/72 73/73/73 65/65/65
f 65/65/65 73/73/73 74/74/74
f 66/66/66 74/74/74 75/75/75
f 67/67/67 75/75/75 76/76/76
f 8/8/8 61/61/61 53/53/53
f 53/53/53 61/61/61 62/62/62
f 54/54/54 62/62/62 63/63/63
f 55/55/55 63/63/63 64/64/64
f 64/64/64 65/65/65 57/57/57
f 57/57/57 65/65/65 66/66/66
f 58/58/58 66/66/66 67/67/67
f 59/59/59 67/67/67 68/68/68
f 6/6/6 7/7/7 53/53/53
f 45/45/45 53/53/53 54/54/54
f 54/54/54 55/55/55 47/47/47
f 55/55/55 56/56/56 48/48/48
f 56/56/56 57/57/57 49/49/49
f 49/49/49 57/57/57 58/58/58
f 58/58/58 59/59/59 51/51/51
f 59/59/59 60/60/60 52/52/52
f 6/6/6 45/45/45 37/37/37
f 45/45/45 46/46/46 38/38/38
f 46/46/46 47/47/47 39/39/39
f 39/39/39 47/47/47 48/48/48
f 40/40/40 48/48/48 49/49/49
f 41/41/41 49/49/49 50/50/50
f 50/50/50 51/51/51 43/43/43
f 51/51/51 52/52/52 44/44/44
f 5/5/5 37/37/37 28/28/28
f 28/28/28 37/37/37 38/38/38
f 27/27/27 38/38/38 39/39/39
f 26/26/26 39/39/39 40/40/40
f 40/40/40 41/41/41 24/24/24
f 41/41/41 42/42/42 23/23/23
f 23/23/23 42/42/42 43/43/43
f 43/43/43 44/44/44 21/21/21
f 2/2/2 29/29/29 93/93/93
f 93/93/93 29/29/29 30/30/30
f 30/30/30 31/31/31 95/95/95
f 31/31/31 32/32/32 96/96/96
f 32/32/32 33/33/33 97/97/97
f 33/33/33 34/34/34 98/98/98
f 98/98/98 34/34/34 35/35/35
f 99/99/99 35/35/35 36/36/36
