o GNATVCloth
v -5.0831 -4.97433 0.53589
v 4.96489 -4.9911 0.437284
v -5.01298 5.02105 0.004229
v 4.98702 5.02105 0.004229
v -3.97114 -4.99795 0.538233
v -2.86122 -5.02469 0.458203
v -1.74184 -5.04657 0.455667
v -0.620119 -5.05894 0.450419
v 0.501184 -5.05896 0.41102
v 1.62184 -5.04494 0.401734
v 2.73947 -5.02655 0.446359
v 3.85309 -4.99924 0.482155
v 3.85438 4.9495 0.146
v 2.7314 4.90348 0.283773
v 1.60615 4.85397 0.374389
v 0.487004 4.79429 0.464378
v -0.634681 4.75794 0.43798
v -1.74509 4.73387 0.269452
v -2.83648 4.77607 0.534519
v -3.92054 4.88919 0.268903
v -4.99777 3.90878 0.0829036
v -4.99824 2.79483 0.120637
v -5.00267 1.68192 0.161064
v -5.01459 0.56993 0.20803
v -5.02587 -0.540458 0.276665
v -5.03612 -1.64888 0.359245
v -5.04618 -2.75764 0.456724
v -5.0614 -3.86467 0.547008
v 4.95361 -3.88248 0.331993
v 4.94829 -2.77083 0.30128
v 4.94417 -1.65575 0.274219
v 4.94164 -0.543949 0.239029
v 4.94045 0.568963 0.214577
v 4.94316 1.68177 0.180027
v 4.95141 2.7953 0.145389
v 4.95796 3.90708 0.0609046
v -3.89785 -3.8563 0.381615
v -3.85877 -3.21453 0.291052
v -3.70251 -1.92502 0.209784
v -4.13959 -0.271768 0.180939
v -4.15719 0.742512 0.205684
v -4.14374 1.52791 0.164975
v -4.07536 2.81975 0.0984692
v -3.94031 3.88755 -0.12285
v -2.77446 -4.01484 0.282326
v -2.83954 -2.7444 0.247948
v -2.71762 -2.15436 0.287873
v -2.78279 -0.610604 0.334038
v -2.80465 0.521502 0.309946
v -2.72446 1.55885 0.145937
v -2.85986 2.87156 -0.1358
v -2.81708 3.49044 0.200238
v -1.71546 -4.24039 0.343227
v -1.55134 -2.9254 0.386222
v -1.93774 -1.63704 0.440655
v -1.91158 -0.840265 0.393081
v -1.55241 0.629544 0.105587
v -2.00274 1.67759 -0.0432279
v -1.7565 2.70937 0.170013
v -1.61726 3.65013 0.371787
v -0.294497 -4.31602 0.378811
v -0.640576 -2.8871 0.403187
v -0.595531 -1.74288 0.465441
v -0.880036 -0.777524 0.33107
v -0.63794 0.429732 0.202344
v -0.399791 1.46719 0.220035
v -0.600174 2.64886 0.284782
v -0.792622 3.4882 0.371025
v 0.6766 -3.88864 0.384112
v 0.758822 -2.59997 0.455707
v 0.474909 -1.8125 0.429046
v 0.564062 -0.490908 0.349588
v 0.540432 0.409188 0.289759
v 0.26362 1.51822 0.333849
v 0.498273 2.49778 0.336687
v 0.510905 3.71669 0.437477
v 1.89109 -3.64162 0.450789
v 1.6138 -2.83864 0.334551
v 1.77472 -1.91504 0.41945
v 1.93263 -0.383841 0.332593
v 1.91711 0.272115 0.124008
v 1.79249 1.53429 0.231621
v 1.38921 2.8167 0.293527
v 1.45113 3.64292 0.370973
v 2.73303 -3.9125 0.424339
v 3.04112 -2.83024 0.341435
v 2.89368 -1.95546 0.239057
v 2.67176 -0.4951 0.361179
v 2.91219 0.294021 0.25874
v 3.02778 1.56973 0.0035939
v 2.7432 3.14113 0.0795945
v 2.71582 3.49792 0.157109
v 3.85566 -3.96494 0.327898
v 3.60436 -2.70821 0.336821
v 3.8178 -1.67124 0.29358
v 3.75989 -0.714631 0.26445
v 3.82381 0.295238 0.311936
v 4.12437 1.80897 0.182055
v 4.11375 2.75676 -0.0101617
v 4.00527 3.88286 -0.0461708
vt 0.0001 0.0001
vt 0.9999 0.0001
vt 0.0001 0.9999
vt 0.9999 0.9999
vt 0.111189 0.0001
vt 0.222278 0.0001
vt 0.333367 0.0001
vt 0.444455 0.0001
vt 0.555544 0.0001
vt 0.666633 0.0001
vt 0.777722 0.0001
vt 0.888811 0.0001
vt 0.888811 0.9999
vt 0.777722 0.9999
vt 0.666633 0.9999
vt 0.555544 0.9999
vt 0.444455 0.9999
vt 0.333367 0.9999
vt 0.222278 0.9999
vt 0.111189 0.9999
vt 0.0001 0.888811
vt 0.0001 0.777722
vt 0.0001 0.666633
vt 0.0001 0.555544
vt 0.0001 0.444456
vt 0.0001 0.333367
vt 0.0001 0.222278
vt 0.0001 0.111189
vt 0.9999 0.111189
vt 0.9999 0.222278
vt 0.9999 0.333367
vt 0.9999 0.444456
vt 0.9999 0.555544
vt 0.9999 0.666633
vt 0.9999 0.777722
vt 0.9999 0.888811
vt 0.11727 0.115399
vt 0.120778 0.180369
vt 0.134636 0.309595
vt 0.088728 0.473895
vt 0.085886 0.575352
vt 0.086211 0.65375
vt 0.092207 0.78313
vt 0.106956 0.892282
vt 0.22987 0.102869
vt 0.221803 0.229552
vt 0.233521 0.288953
vt 0.225541 0.443179
vt 0.221596 0.556167
vt 0.227801 0.661237
vt 0.214896 0.795203
vt 0.22542 0.865181
vt 0.335524 0.082127
vt 0.351143 0.213907
vt 0.311934 0.342467
vt 0.313159 0.422214
vt 0.347791 0.572605
vt 0.301482 0.677733
vt 0.329031 0.783086
vt 0.344903 0.885466
vt 0.476837 0.074882
vt 0.441952 0.218774
vt 0.445749 0.333088
vt 0.416414 0.43099
vt 0.439746 0.552976
vt 0.463203 0.656843
vt 0.444252 0.77653
vt 0.426137 0.866051
vt 0.573419 0.117409
vt 0.581125 0.246686
vt 0.552512 0.326
vt 0.561075 0.459693
vt 0.558356 0.550596
vt 0.530299 0.662189
vt 0.553275 0.760113
vt 0.555478 0.888821
vt 0.694433 0.13996
vt 0.667048 0.221666
vt 0.681985 0.314267
vt 0.698218 0.467249
vt 0.696819 0.535952
vt 0.68253 0.662758
vt 0.642062 0.791726
vt 0.648523 0.877957
vt 0.778029 0.111667
vt 0.809426 0.219523
vt 0.794923 0.307783
vt 0.772028 0.454562
vt 0.796846 0.533374
vt 0.807262 0.663157
vt 0.778581 0.821037
vt 0.775122 0.858219
vt 0.890224 0.104741
vt 0.865679 0.23076
vt 0.887326 0.334104
vt 0.881307 0.429754
vt 0.887973 0.53063
vt 0.918106 0.681428
vt 0.915043 0.778027
vt 0.904815 0.89094
vn -0.00231939 -0.00997344 0.999948
vn 0.0140111 0.120949 0.99256
vn -0.0359301 -0.144859 0.9888
vn 0.00991724 -0.0527708 0.998557
vn 0.0705498 0.0825569 0.994086
vn 0.0423393 0.151083 0.987614
vn 0.00554779 0.137954 0.990423
vn 0.00727289 0.107699 0.994157
vn 0.00878642 0.0426705 0.999051
vn -0.0157311 -0.00566509 0.99986
vn 0.00364974 0.0626236 0.998031
vn 0.001711 0.147505 0.98906
vn 0.129536 -0.158039 0.978899
vn 0.13647 -0.0882533 0.986705
vn 0.0808393 -0.0131591 0.99664
vn 0.0423317 -0.0206841 0.99889
vn -0.0565874 -0.0123013 0.998322
vn 0.0445964 0.0991291 0.994075
vn -0.122284 -0.188188 0.974491
vn -0.258698 -0.347411 0.901322
vn 0.136154 0.0943527 0.986184
vn 0.0230532 0.0350181 0.999121
vn 0.00664965 0.0453309 0.99895
vn 0.0303371 0.0262242 0.999196
vn 0.0870746 0.0668972 0.993953
vn 0.111674 0.0694585 0.991314
vn 0.150049 0.0690368 0.986265
vn 0.110951 0.0812704 0.990497
vn -0.00830742 0.0610467 0.9981
vn 0.0163748 0.021493 0.999635
vn 0.0168385 0.0291449 0.999433
vn 0.0423549 0.0016343 0.999101
vn 0.0526997 0.0415752 0.997745
vn 0.00729404 0.0310252 0.999492
vn -0.122762 0.100598 0.987325
vn -0.136942 0.0500188 0.989315
vn 0.113455 0.136218 0.984161
vn 0.101774 0.0791753 0.991652
vn 0.0181178 0.0207875 0.99962
vn -9.744e-05 0.019975 0.9998
vn -0.0187258 0.0426502 0.998915
vn 0.00847708 0.0512903 0.998648
vn 0.0875057 0.10779 0.990315
vn -0.104799 -0.14204 0.984298
vn 0.00977387 0.0826024 0.996535
vn -0.0528579 0.00376636 0.998595
vn -0.119384 -0.0491722 0.99163
vn -0.0987927 0.00285941 0.995104
vn 0.03136 0.0955901 0.994927
vn 0.0996162 0.142323 0.984795
vn -0.0724997 -0.0652388 0.995232
vn -0.253148 -0.313165 0.915338
vn -0.0192517 0.0680679 0.997495
vn -0.0677104 -0.0376721 0.996994
vn -0.0556265 0.0144078 0.998348
vn 0.0274878 0.0954141 0.995058
vn 0.000211482 0.123948 0.992289
vn -0.0190555 0.0360439 0.999169
vn -0.15945 -0.213601 0.963821
vn -0.030359 -0.0857915 0.99585
vn -0.00509559 0.0341441 0.999404
vn -0.0136607 -0.0306694 0.999436
vn -0.00269907 0.0270822 0.99963
vn -0.00907362 0.122667 0.992406
vn -0.0894858 0.0450193 0.99497
vn -0.138073 -0.000816798 0.990422
vn -0.0882546 -0.106887 0.990347
vn -0.0454781 -0.107732 0.993139
vn -0.00546414 0.000721647 0.999985
vn 0.0350685 -0.0341367 0.998802
vn 0.00980947 0.023553 0.999674
vn 0.00328653 0.106545 0.994303
vn 0.0316597 -0.00428644 0.99949
vn -0.0570762 -0.00793565 0.998338
vn -0.0137854 -0.0400235 0.999104
vn 0.00774526 -0.0669746 0.997725
vn -0.0126715 0.0513106 0.998602
vn 0.0499871 0.0140304 0.998651
vn 0.0604592 -0.0105234 0.998115
vn -0.00620924 0.1818 0.983316
vn 0.0212774 0.132411 0.990966
vn 0.118114 -0.0320264 0.992483
vn 0.107202 -0.0629827 0.99224
vn 0.110292 -0.07778 0.990851
vn 0.0409366 0.0228635 0.9989
vn 0.0201793 0.0798076 0.996606
vn 0.0316029 0.00932829 0.999457
vn 0.0306212 0.0838112 0.996011
vn -0.0564382 0.12658 0.990349
vn -0.0228497 0.0875023 0.995902
vn 0.143322 -0.0732186 0.986964
vn 0.17204 -0.14345 0.974589
vn 0.0246705 0.0603008 0.997875
vn -0.00581272 0.039972 0.999184
vn -0.0163358 0.0350743 0.999251
vn 0.0169552 0.00305145 0.999852
vn -0.02038 0.0542563 0.998319
vn -0.0819368 0.107596 0.990813
vn -0.0931334 0.0813908 0.992321
vn 0.0723498 -0.0701665 0.994908
f 100/100/100 4/4/4 13/13/13
f 44/44/44 3/3/3 21/21/21
f 44/44/44 19/19/19 20/20/20
f 60/60/60 19/19/19 52/52/52
f 60/60/60 17/17/17 18/18/18
f 76/76/76 17/17/17 68/68/68
f 84/84/84 16/16/16 76/76/76
f 84/84/84 14/14/14 15/15/15
f 100/100/100 14/14/14 92/92/92
f 11/11/11 93/93/93 85/85/85
f 93/93/93 86/86/86 85/85/85
f 94/94/94 87/87/87 86/86/86
f 87/87/87 96/96/96 88/88/88
f 96/96/96 89/89/89 88/88/88
f 97/97/97 90/90/90 89/89/89
f 90/90/90 99/99/99 91/91/91
f 91/91/91 100/100/100 92/92/92
f 10/10/10 85/85/85 77/77/77
f 77/77/77 86/86/86 78/78/78
f 78/78/78 87/87/87 79/79/79
f 79/79/79 88/88/88 80/80/80
f 88/88/88 81/81/81 80/80/80
f 81/81/81 90/90/90 82/82/82
f 82/82/82 91/91/91 83/83/83
f 91/91/91 84/84/84 83/83/83
f 10/10/10 69/69/69 9/9/9
f 69/69/69 78/78/78 70/70/70
f 70/70/70 79/79/79 71/71/71
f 79/79/79 72/72/72 71/71/71
f 72/72/72 81/81/81 73/73/73
f 73/73/73 82/82/82 74/74/74
f 82/82/82 75/75/75 74/74/74
f 83/83/83 76/76/76 75/75/75
f 9/9/9 61/61/61 8/8/8
f 69/69/69 62/62/62 61/61/61
f 62/62/62 71/71/71 63/63/63
f 63/63/63 72/72/72 64/64/64
f 72/72/72 65/65/65 64/64/64
f 65/65/65 74/74/74 66/66/66
f 66/66/66 75/75/75 67/67/67
f 67/67/67 76/76/76 68/68/68
f 8/8/8 53/53/53 7/7/7
f 53/53/53 62/62/62 54/54/54
f 54/54/54 63/63/63 55/55/55
f 55/55/55 64/64/64 56/56/56
f 64/64/64 57/57/57 56/56/56
f 57/57/57 66/66/66 58/58/58
f 58/58/58 67/67/67 59/59/59
f 59/59/59 68/68/68 60/60/60
f 6/6/6 53/53/53 45/45/45
f 45/45/45 54/54/54 46/46/46
f 54/54/54 47/47/47 46/46/46
f 55/55/55 48/48/48 47/47/47
f 56/56/56 49/49/49 48/48/48
f 49/49/49 58/58/58 50/50/50
f 58/58/58 51/51/51 50/50/50
f 59/59/59 52/52/52 51/51/51
f 6/6/6 37/37/37 5/5/5
f 45/45/45 38/38/38 37/37/37
f 46/46/46 39/39/39 38/38/38
f 39/39/39 48/48/48 40/40/40
f 40/40/40 49/49/49 41/41/41
f 41/41/41 50/50/50 42/42/42
f 50/50/50 43/43/43 42/42/42
f 51/51/51 44/44/44 43/43/43
f 5/5/5 28/28/28 1/1/1
f 28/28/28 38/38/38 27/27/27
f 27/27/27 39/39/39 26/26/26
f 26/26/26 40/40/40 25/25/25
f 40/40/40 24/24/24 25/25/25
f 41/41/41 23/23/23 24/24/24
f 23/23/23 43/43/43 22/22/22
f 43/43/43 21/21/21 22/22/22
f 2/2/2 93/93/93 12/12/12
f 93/93/93 30/30/30 94/94/94
f 30/30/30 95/95/95 94/94/94
f 31/31/31 96/96/96 95/95/95
f 32/32/32 97/97/97 96/96/96
f 33/33/33 98/98/98 97/97/97
f 98/98/98 35/35/35 99/99/99
f 99/99/99 36/36/36 100/100/100
f 100/100/100 36/36/36 4/4/4
f 44/44/44 20/20/20 3/3/3
f 44/44/44 52/52/52 19/19/19
f 60/60/60 18/18/18 19/19/19
f 60/60/60 68/68/68 17/17/17
f 76/76/76 16/16/16 17/17/17
f 84/84/84 15/15/15 16/16/16
f 84/84/84 92/92/92 14/14/14
f 100/100/100 13/13/13 14/14/14
f 11/11/11 12/12/12 93/93/93
f 93/93/93 94/94/94 86/86/86
f 94/94/94 95/95/95 87/87/87
f 87/87/87 95/95/95 96/96/96
f 96/96/96 97/97/97 89/89/89
f 97/97/97 98/98/98 90/90/90
f 90/90/90 98/98/98 99/99/99
f 91/91/91 99/99/99 100/100/100
f 10/10/10 11/11/11 85/85/85
f 77/77/77 85/85/85 86/86/86
f 78/78/78 86/86/86 87/87/87
f 79/79/79 87/87/87 88/88/88
f 88/88/88 89/89/89 81/81/81
f 81/81/81 89/89/89 90/90/90
f 82/82/82 90/90/90 91/91/91
f 91/91/91 92/92/92 84/84/84
f 10/10/10 77/77/77 69/69/69
f 69/69/69 77/77/77 78/78/78
f 70/70/70 78/78/78 79/79/79
f 79/79/79 80/80/80 72/72/72
f 72/72/72 80/80/80 81/81/81
f 73/73/73 81/81/81 82/82/82
f 82/82/82 83/83/83 75/75/75
f 83/83/83 84/84/84 76/76/76
f 9/9/9 69/69/69 61/61/61
f 69/69/69 70/70/70 62/62/62
f 62/62/62 70/70/70 71/71/71
f 63/63/63 71/71/71 72/72/72
f 72/72/72 73/73/73 65/65/65
f 65/65/65 73/73/73 74/74/74
f 66/66/66 74/74/74 75/75/75
f 67/67/67 75/75/75 76/76/76
f 8/8/8 61/61/61 53/53/53
f 53/53/53 61/61/61 62/62/62
f 54/54/54 62/62/62 63/63/63
f 55/55/55 63/63/63 64/64/64
f 64/64/64 65/65/65 57/57/57
f 57/57/57 65/65/65 66/66/66
f 58/58/58 66/66/66 67/67/67
f 59/59/59 67/67/67 68/68/68
f 6/6/6 7/7/7 53/53/53
f 45/45/45 53/53/53 54/54/54
f 54/54/54 55/55/55 47/47/47
f 55/55/55 56/56/56 48/48/48
f 56/56/56 57/57/57 49/49/49
f 49/49/49 57/57/57 58/58/58
f 58/58/58 59/59/59 51/51/51
f 59/59/59 60/60/60 52/52/52
f 6/6/6 45/45/45 37/37/37
f 45/45/45 46/46/46 38/38/38
f 46/46/46 47/47/47 39/39/39
f 39/39/39 47/47/47 48/48/48
f 40/40/40 48/48/48 49/49/49
f 41/41/41 49/49/49 50/50/50
f 50/50/50 51/51/51 43/43/43
f 51/51/51 52/52/52 44/44/44
f 5/5/5 37/37/37 28/28/28
f 28/28/28 37/37/37 38/38/38
f 27/27/27 38/38/38 39/39/39
f 26/26/26 39/39/39 40/40/40
f 40/40/40 41/41/41 24/24/24
f 41/41/41 42/42/42 23/23/23
f 23/23/23 42/42/42 43/43/43
f 43/43/43 44/44/44 21/21/21
f 2/2/2 29/29/29 93/93/93
f 93/93/93 29/29/29 30/30/30
f 30/30/30 31/31/31 95/95/95
f 31/31/31 32/32/32 96/96/96
f 32/32/32 33/33/33 97/97/97
f 33/33/33 34/34/34 98/98/98
f 98/98/98 34/34/34 35/35/35
f 99/99/99 35/35/35 36/36/36
