o GNATVCloth
v -4.99577 -4.9713 0.616921
v 5.04907 -4.98694 0.394702
v -5.01298 5.02105 0.004229
v 4.98702 5.02105 0.004229
v -3.89578 -5.01051 0.462392
v -2.7823 -5.03668 0.468726
v -1.66469 -5.05655 0.433906
v -0.543726 -5.07737 0.434434
v 0.579275 -5.08261 0.407525
v 1.70161 -5.07628 0.401464
v 2.82208 -5.04787 0.408514
v 3.93768 -5.0211 0.331776
v 3.87361 4.88665 0.213392
v 2.77133 4.77505 0.427667
v 1.65071 4.73171 0.369724
v 0.531492 4.69465 0.391463
v -0.572707 4.67804 0.58108
v -1.69122 4.71207 0.512864
v -2.81521 4.74515 0.498735
v -3.91099 4.86213 0.255982
v -4.9736 3.90945 0.0898609
v -4.96166 2.79524 0.122825
v -4.96181 1.68228 0.160952
v -4.96431 0.56937 0.192092
v -4.96877 -0.542974 0.234712
v -4.97503 -1.65477 0.28195
v -4.98171 -2.76685 0.347332
v -4.99348 -3.87789 0.43603
v 5.02798 -3.87983 0.320525
v 5.0105 -2.77379 0.204997
v 4.99476 -1.66176 0.172824
v 4.98579 -0.547853 0.174366
v 4.98116 0.566127 0.167533
v 4.978 1.6792 0.142809
v 4.97557 2.79358 0.126754
v 4.96646 3.90743 0.0722832
v -3.8194 -3.86061 0.420033
v -3.778 -3.21229 0.34852
v -3.62957 -1.92533 0.275174
v -4.07967 -0.271513 0.203836
v -4.10665 0.74355 0.196251
v -4.10045 1.52899 0.146985
v -4.03599 2.82087 0.0929248
v -3.92998 3.8781 -0.180465
v -2.69496 -4.01882 0.339606
v -2.76267 -2.75047 0.28356
v -2.64032 -2.15841 0.283839
v -2.71045 -0.611312 0.267222
v -2.74123 0.518794 0.225893
v -2.68782 1.54265 -0.00615547
v -2.85388 2.85465 -0.280927
v -2.76954 3.49095 0.0104058
v -1.636 -4.24746 0.379311
v -1.47509 -2.9339 0.410021
v -1.85692 -1.63713 0.385592
v -1.83539 -0.843601 0.31291
v -1.53408 0.579057 -0.196484
v -1.99669 1.63919 -0.29727
v -1.72162 2.66701 -0.106241
v -1.57582 3.61814 0.233913
v -0.216563 -4.33807 0.389975
v -0.565329 -2.90147 0.368593
v -0.524519 -1.77025 0.26141
v -0.82325 -0.803379 0.084193
v -0.605249 0.390107 -0.116002
v -0.372949 1.40015 -0.154859
v -0.573396 2.56276 0.0521234
v -0.755818 3.41278 0.237165
v 0.75193 -3.91973 0.332975
v 0.827646 -2.63924 0.31768
v 0.53868 -1.86134 0.182313
v 0.622007 -0.553556 -0.0918063
v 0.590593 0.353962 -0.0993612
v 0.301474 1.45894 -0.0994474
v 0.52616 2.40306 0.0188137
v 0.550971 3.61372 0.33667
v 1.96417 -3.67433 0.304687
v 1.68576 -2.87 0.414509
v 1.82558 -1.9429 0.36437
v 1.98727 -0.434214 0.0955963
v 1.98605 0.229398 -0.0825724
v 1.83412 1.49162 -0.155057
v 1.40817 2.75078 -0.0545875
v 1.49276 3.51915 0.279945
v 2.80686 -3.93701 0.295818
v 3.10763 -2.84921 0.291531
v 2.95804 -1.97573 0.403465
v 2.71399 -0.51928 0.261075
v 2.9591 0.272147 0.17057
v 3.08268 1.54702 -0.0887843
v 2.76726 3.11094 -0.205561
v 2.74798 3.43504 -0.020993
v 3.93184 -3.97645 0.335581
v 3.6699 -2.72423 0.301867
v 3.87558 -1.68423 0.303864
v 3.81033 -0.728329 0.332025
v 3.86619 0.284259 0.286354
v 4.15891 1.80005 0.163221
v 4.13521 2.75221 -0.000506346
v 4.03456 3.86878 -0.152971
vt 0.0001 0.0001
vt 0.9999 0.0001
vt 0.0001 0.9999
vt 0.9999 0.9999
vt 0.111189 0.0001
vt 0.222278 0.0001
vt 0.333367 0.0001
vt 0.444455 0.0001
vt 0.555544 0.0001
vt 0.666633 0.0001
vt 0.777722 0.0001
vt 0.888811 0.0001
vt 0.888811 0.9999
vt 0.777722 0.9999
vt 0.666633 0.9999
vt 0.555544 0.9999
vt 0.444455 0.9999
vt 0.333367 0.9999
vt 0.222278 0.9999
vt 0.111189 0.9999
vt 0.0001 0.888811
vt 0.0001 0.777722
vt 0.0001 0.666633
vt 0.0001 0.555544
vt 0.0001 0.444456
vt 0.0001 0.333367
vt 0.0001 0.222278
vt 0.0001 0.111189
vt 0.9999 0.111189
vt 0.9999 0.222278
vt 0.9999 0.333367
vt 0.9999 0.444456
vt 0.9999 0.555544
vt 0.9999 0.666633
vt 0.9999 0.777722
vt 0.9999 0.888811
vt 0.11727 0.115399
vt 0.120778 0.180369
vt 0.134636 0.309595
vt 0.088728 0.473895
vt 0.085886 0.575352
vt 0.086211 0.65375
vt 0.092207 0.78313
vt 0.106956 0.892282
vt 0.22987 0.102869
vt 0.221803 0.229552
vt 0.233521 0.288953
vt 0.225541 0.443179
vt 0.221596 0.556167
vt 0.227801 0.661237
vt 0.214896 0.795203
vt 0.22542 0.865181
vt 0.335524 0.082127
vt 0.351143 0.213907
vt 0.311934 0.342467
vt 0.313159 0.422214
vt 0.347791 0.572605
vt 0.301482 0.677733
vt 0.329031 0.783086
vt 0.344903 0.885466
vt 0.476837 0.074882
vt 0.441952 0.218774
vt 0.445749 0.333088
vt 0.416414 0.43099
vt 0.439746 0.552976
vt 0.463203 0.656843
vt 0.444252 0.77653
vt 0.426137 0.866051
vt 0.573419 0.117409
vt 0.581125 0.246686
vt 0.552512 0.326
vt 0.561075 0.459693
vt 0.558356 0.550596
vt 0.530299 0.662189
vt 0.553275 0.760113
vt 0.555478 0.888821
vt 0.694433 0.13996
vt 0.667048 0.221666
vt 0.681985 0.314267
vt 0.698218 0.467249
vt 0.696819 0.535952
vt 0.68253 0.662758
vt 0.642062 0.791726
vt 0.648523 0.877957
vt 0.778029 0.111667
vt 0.809426 0.219523
vt 0.794923 0.307783
vt 0.772028 0.454562
vt 0.796846 0.533374
vt 0.807262 0.663157
vt 0.778581 0.821037
vt 0.775122 0.858219
vt 0.890224 0.104741
vt 0.865679 0.23076
vt 0.887326 0.334104
vt 0.881307 0.429754
vt 0.887973 0.53063
vt 0.918106 0.681428
vt 0.915043 0.778027
vt 0.904815 0.89094
vn 0.142931 0.161252 0.976508
vn -0.0243322 0.031558 0.999206
vn -0.00311857 -0.162403 0.98672
vn -0.0135337 -0.124172 0.992168
vn 0.0506025 0.0784187 0.995635
vn 0.0262745 0.0871102 0.995852
vn 0.016516 0.0667317 0.997634
vn 0.00712395 0.0594235 0.998207
vn 0.0208052 0.05721 0.998145
vn 0.00903343 0.0735905 0.997248
vn 0.0094392 0.0661432 0.997765
vn 0.00615864 -0.00360805 0.999975
vn 0.211157 -0.301298 0.929856
vn 0.142927 -0.252291 0.957038
vn -0.0135188 -0.0720813 0.997307
vn 0.0824189 -0.0578078 0.99492
vn 0.000543599 -0.204384 0.978891
vn -0.0430437 -0.251124 0.966997
vn -0.165771 -0.342481 0.924785
vn -0.248373 -0.388726 0.887244
vn 0.179756 0.111586 0.977362
vn 0.0313813 0.0320551 0.998993
vn 0.0178767 0.0413095 0.998986
vn 0.00205716 0.0244983 0.999698
vn 0.0224011 0.0402515 0.998938
vn 0.0176877 0.0493099 0.998627
vn 0.0214677 0.064174 0.997708
vn 0.0492023 0.0965787 0.994108
vn 0.00614926 0.0854908 0.99632
vn 0.0664043 0.0401892 0.996983
vn 0.121799 0.00292534 0.992551
vn 0.121515 0.0146443 0.992482
vn 0.0742029 0.0307562 0.996769
vn 0.0276165 0.0183689 0.99945
vn -0.0939952 0.075481 0.992707
vn -0.209129 0.0737527 0.975103
vn 0.038667 0.0808733 0.995974
vn 0.0379978 0.0742572 0.996515
vn 0.00539513 0.0367279 0.999311
vn -0.0061665 0.0300077 0.999531
vn 0.0187208 0.0646088 0.997735
vn 0.066323 0.050199 0.996535
vn 0.14754 0.116063 0.982223
vn -0.0372129 -0.153146 0.987503
vn 0.0120737 0.0695194 0.997508
vn -0.0226081 0.031688 0.999242
vn -0.0720849 0.00389764 0.997391
vn -0.0473914 0.0351422 0.998258
vn 0.13016 0.141975 0.981275
vn 0.206839 0.164062 0.964521
vn 0.0505508 -0.0385414 0.997978
vn -0.203536 -0.359204 0.910794
vn 0.0025837 0.0411628 0.999149
vn -0.0230812 0.0193505 0.999546
vn 0.0249289 0.071375 0.997138
vn 0.132681 0.155588 0.978871
vn 0.10469 0.181849 0.977738
vn 0.0757556 0.0353366 0.9965
vn -0.151617 -0.258417 0.954061
vn -0.0858699 -0.293322 0.952149
vn 0.0189126 0.0419393 0.998941
vn 0.0356582 0.0539881 0.997905
vn 0.0845046 0.141524 0.986321
vn 0.109968 0.186913 0.976202
vn -0.0242545 0.0736291 0.996991
vn -0.0707732 -0.0504385 0.996216
vn -0.0767573 -0.204953 0.975757
vn -0.0761661 -0.259732 0.962672
vn 0.010028 0.017872 0.99979
vn -0.0591144 0.0785298 0.995158
vn -0.0161787 0.160137 0.986962
vn -0.0232781 0.154294 0.987751
vn -0.0019876 0.0156458 0.999876
vn -0.0197043 -0.0353789 0.99918
vn 0.0407692 -0.162214 0.985913
vn 0.0486696 -0.214062 0.975607
vn 0.0371725 -0.018652 0.999135
vn -0.00203369 -0.0320547 0.999484
vn -0.108886 0.133817 0.985006
vn -0.17159 0.223092 0.959576
vn -0.133184 0.148549 0.979896
vn 0.025529 -0.00533547 0.99966
vn 0.12651 -0.233275 0.964146
vn 0.0913121 -0.26229 0.960659
vn -0.00686186 0.0558641 0.998415
vn 0.0228778 -0.0511463 0.998429
vn 0.0309526 -0.00623396 0.999501
vn -0.126918 0.157838 0.979275
vn -0.161618 0.159068 0.973949
vn -0.164262 0.125133 0.978447
vn 0.0658562 -0.174084 0.982526
vn 0.206279 -0.395794 0.894872
vn 0.00105229 0.0428326 0.999082
vn 0.0495594 -0.0204702 0.998561
vn 0.106855 -0.0106425 0.994218
vn 0.039796 0.0375936 0.9985
vn -0.0315178 0.08372 0.995991
vn -0.0885537 0.0924729 0.99177
vn -0.176572 0.108449 0.978295
vn 0.0418728 -0.16347 0.985659
f 100/100/100 4/4/4 13/13/13
f 44/44/44 3/3/3 21/21/21
f 44/44/44 19/19/19 20/20/20
f 60/60/60 19/19/19 52/52/52
f 60/60/60 17/17/17 18/18/18
f 76/76/76 17/17/17 68/68/68
f 84/84/84 16/16/16 76/76/76
f 84/84/84 14/14/14 15/15/15
f 100/100/100 14/14/14 92/92/92
f 11/11/11 93/93/93 85/85/85
f 93/93/93 86/86/86 85/85/85
f 94/94/94 87/87/87 86/86/86
f 87/87/87 96/96/96 88/88/88
f 96/96/96 89/89/89 88/88/88
f 97/97/97 90/90/90 89/89/89
f 90/90/90 99/99/99 91/91/91
f 91/91/91 100/100/100 92/92/92
f 10/10/10 85/85/85 77/77/77
f 77/77/77 86/86/86 78/78/78
f 78/78/78 87/87/87 79/79/79
f 79/79/79 88/88/88 80/80/80
f 88/88/88 81/81/81 80/80/80
f 81/81/81 90/90/90 82/82/82
f 82/82/82 91/91/91 83/83/83
f 91/91/91 84/84/84 83/83/83
f 10/10/10 69/69/69 9/9/9
f 69/69/69 78/78/78 70/70/70
f 70/70/70 79/79/79 71/71/71
f 79/79/79 72/72/72 71/71/71
f 72/72/72 81/81/81 73/73/73
f 73/73/73 82/82/82 74/74/74
f 82/82/82 75/75/75 74/74/74
f 83/83/83 76/76/76 75/75/75
f 9/9/9 61/61/61 8/8/8
f 69/69/69 62/62/62 61/61/61
f 62/62/62 71/71/71 63/63/63
f 63/63/63 72/72/72 64/64/64
f 72/72/72 65/65/65 64/64/64
f 65/65/65 74/74/74 66/66/66
f 66/66/66 75/75/75 67/67/67
f 67/67/67 76/76/76 68/68/68
f 8/8/8 53/53/53 7/7/7
f 53/53/53 62/62/62 54/54/54
f 54/54/54 63/63/63 55/55/55
f 55/55/55 64/64/64 56/56/56
f 64/64/64 57/57/57 56/56/56
f 57/57/57 66/66/66 58/58/58
f 58/58/58 67/67/67 59/59/59
f 59/59/59 68/68/68 60/60/60
f 6/6/6 53/53/53 45/45/45
f 45/45/45 54/54/54 46/46/46
f 54/54/54 47/47/47 46/46/46
f 55/55/55 48/48/48 47/47/47
f 56/56/56 49/49/49 48/48/48
f 49/49/49 58/58/58 50/50/50
f 58/58/58 51/51/51 50/50/50
f 59/59/59 52/52/52 51/51/51
f 6/6/6 37/37/37 5/5/5
f 45/45/45 38/38/38 37/37/37
f 46/46/46 39/39/39 38/38/38
f 39/39/39 48/48/48 40/40/40
f 40/40/40 49/49/49 41/41/41
f 41/41/41 50/50/50 42/42/42
f 50/50/50 43/43/43 42/42/42
f 51/51/51 44/44/44 43/43/43
f 5/5/5 28/28/28 1/1/1
f 28/28/28 38/38/38 27/27/27
f 27/27/27 39/39/39 26/26/26
f 26/26/26 40/40/40 25/25/25
f 40/40/40 24/24/24 25/25/25
f 41/41/41 23/23/23 24/24/24
f 23/23/23 43/43/43 22/22/22
f 43/43/43 21/21/21 22/22/22
f 2/2/2 93/93/93 12/12/12
f 93/93/93 30/30/30 94/94/94
f 30/30/30 95/95/95 94/94/94
f 31/31/31 96/96/96 95/95/95
f 32/32/32 97/97/97 96/96/96
f 33/33/33 98/98/98 97/97/97
f 98/98/98 35/35/35 99/99/99
f 99/99/99 36/36/36 100/100/100
f 100/100/100 36/36/36 4/4/4
f 44/44/44 20/20/20 3/3/3
f 44/44/44 52/52/52 19/19/19
f 60/60/60 18/18/18 19/19/19
f 60/60/60 68/68/68 17/17/17
f 76/76/76 16/16/16 17/17/17
f 84/84/84 15/15/15 16/16/16
f 84/84/84 92/92/92 14/14/14
f 100/100/100 13/13/13 14/14/14
f 11/11/11 12/12/12 93/93/93
f 93/93/93 94/94/94 86/86/86
f 94/94/94 95/95/95 87/87/87
f 87/87/87 95/95/95 96/96/96
f 96/96/96 97/97/97 89/89/89
f 97/97/97 98/98/98 90/90/90
f 90/90/90 98/98/98 99/99/99
f 91/91/91 99/99/99 100/100/100
f 10/10/10 11/11/11 85/85/85
f 77/77/77 85/85/85 86/86/86
f 78/78/78 86/86/86 87/87/87
f 79/79/79 87/87/87 88/88/88
f 88/88/88 89/89/89 81/81/81
f 81/81/81 89/89/89 90/90/90
f 82/82/82 90/90/90 91/91/91
f 91/91/91 92/92/92 84/84/84
f 10/10/10 77/77/77 69/69/69
f 69/69/69 77/77/77 78/78/78
f 70/70/70 78/78/78 79/79/79
f 79/79/79 80/80/80 72/72/72
f 72/72/72 80/80/80 81/81/81
f 73/73/73 81/81/81 82/82/82
f 82/82/82 83/83/83 75/75/75
f 83/83/83 84/84/84 76/76/76
f 9/9/9 69/69/69 61/61/61
f 69/69/69 70/70/70 62/62/62
f 62/62/62 70/70/70 71/71/71
f 63/63/63 71/71/71 72/72/72
f 72/72/72 73/73/73 65/65/65
f 65/65/65 73/73/73 74/74/74
f 66/66/66 74/74/74 75/75/75
f 67/67/67 75/75/75 76/76/76
f 8/8/8 61/61/61 53/53/53
f 53/53/53 61/61/61 62/62/62
f 54/54/54 62/62/62 63/63/63
f 55/55/55 63/63/63 64/64/64
f 64/64/64 65/65/65 57/57/57
f 57/57/57 65/65/65 66/66/66
f 58/58/58 66/66/66 67/67/67
f 59/59/59 67/67/67 68/68/68
f 6/6/6 7/7/7 53/53/53
f 45/45/45 53/53/53 54/54/54
f 54/54/54 55/55/55 47/47/47
f 55/55/55 56/56/56 48/48/48
f 56/56/56 57/57/57 49/49/49
f 49/49/49 57/57/57 58/58/58
f 58/58/58 59/59/59 51/51/51
f 59/59/59 60/60/60 52/52/52
f 6/6/6 45/45/45 37/37/37
f 45/45/45 46/46/46 38/38/38
f 46/46/46 47/47/47 39/39/39
f 39/39/39 47/47/47 48/48/48
f 40/40/40 48/48/48 49/49/49
f 41/41/41 49/49/49 50/50/50
f 50/50/50 51/51/51 43/43/43
f 51/51/51 52/52/52 44/44/44
f 5/5/5 37/37/37 28/28/28
f 28/28/28 37/37/37 38/38/38
f 27/27/27 38/38/38 39/39/39
f 26/26/26 39/39/39 40/40/40
f 40/40/40 41/41/41 24/24/24
f 41/41/41 42/42/42 23/23/23
f 23/23/23 42/42/42 43/43/43
f 43/43/43 44/44/44 21/21/21
f 2/2/2 29/29/29 93/93/93
f 93/93/93 29/29/29 30/30/30
f 30/30/30 31/31/31 95/95/95
f 31/31/31 32/32/32 96/96/96
f 32/32/32 33/33/33 97/97/97
f 33/33/33 34/34/34 98/98/98
f 98/98/98 34/34/34 35/35/35
f 99/99/99 35/35/35 36/36/36
