o GNATVCloth
v -4.9977 -5.00526 0.0614563
v 5.03823 -4.99987 0.0588399
v -5.01298 5.02105 0.004229
v 4.98702 5.02105 0.004229
v -3.88296 -5.0303 0.0512829
v -2.76609 -5.05144 0.0329427
v -1.64923 -5.03659 0.0374238
v -0.539561 -5.03355 0.0429309
v 0.574271 -5.04688 0.00985177
v 1.68798 -5.05455 0.0274805
v 2.80554 -5.05012 0.0446103
v 3.92541 -5.02887 0.0664109
v 3.86792 4.96535 0.0532556
v 2.78201 4.91073 0.0363744
v 1.68634 4.91322 0.0537172
v 0.573046 4.91805 0.0437516
v -0.535906 4.91475 0.0271045
v -1.6481 4.92364 0.0632587
v -2.76079 4.93205 0.0336062
v -3.88249 4.97585 0.0509547
v -5.00047 3.9058 0.0465711
v -4.99217 2.78996 0.0498498
v -4.98131 1.67477 0.0395041
v -4.97448 0.559742 0.0482446
v -4.97433 -0.554665 0.0562201
v -4.97925 -1.6683 0.0467365
v -4.98032 -2.78122 0.0410687
v -4.98439 -3.8938 0.0381656
v 5.0229 -3.8905 0.0625028
v 5.02026 -2.77983 0.0292989
v 5.01959 -1.66746 0.0321653
v 5.01903 -0.554615 0.0443976
v 5.01926 0.558792 0.0543178
v 5.01594 1.67394 0.0517479
v 5.01381 2.78948 0.0425997
v 5.00146 3.90537 0.0328554
v -3.81331 -3.87892 0.0398134
v -3.7786 -3.2302 0.0312026
v -3.64066 -1.93762 0.0196296
v -4.10335 -0.282077 0.0257468
v -4.13249 0.735169 0.0258084
v -4.13115 1.51998 0.0395865
v -4.07343 2.81414 0.0276797
v -3.92888 3.90442 0.0252808
v -2.68532 -4.02378 0.0344159
v -2.76742 -2.7563 0.0343435
v -2.65056 -2.16619 0.0284413
v -2.7356 -0.625182 0.0318393
v -2.77446 0.505725 0.0275197
v -2.71274 1.55229 0.0293753
v -2.8435 2.89589 0.03091
v -2.73708 3.59016 0.0314949
v -1.63213 -4.24176 0.023728
v -1.47863 -2.92421 0.0168358
v -1.8686 -1.63856 0.0402195
v -1.85826 -0.843528 0.0411234
v -1.51033 0.653493 0.030537
v -1.97454 1.70588 0.0277004
v -1.698 2.75771 0.0283681
v -1.53743 3.77795 0.0266963
v -0.214899 -4.30887 0.0313928
v -0.571451 -2.87164 0.0251821
v -0.533624 -1.73705 0.0301414
v -0.824085 -0.756292 0.0285714
v -0.589271 0.463294 0.0300225
v -0.354891 1.49233 0.031664
v -0.543526 2.68878 0.0286354
v -0.723549 3.58627 0.0339858
v 0.750103 -3.88149 0.0229198
v 0.822129 -2.59241 0.0378313
v 0.535967 -1.80855 0.0407866
v 0.622725 -0.471655 0.0208044
v 0.597829 0.432266 0.0318869
v 0.316199 1.54634 0.0345557
v 0.547225 2.52646 0.0355331
v 0.569257 3.80939 0.0327207
v 1.96109 -3.65825 0.0366079
v 1.68323 -2.84261 0.0305726
v 1.83291 -1.91885 0.027003
v 1.99789 -0.394612 0.0395923
v 1.98411 0.290286 0.0276901
v 1.84156 1.55416 0.0208487
v 1.43644 2.83716 0.0365278
v 1.49882 3.70257 0.0260799
v 2.80048 -3.93818 0.0336203
v 3.11148 -2.85591 0.0346213
v 2.96533 -1.97636 0.0255213
v 2.73758 -0.512069 0.0284354
v 2.98539 0.279141 0.0318002
v 3.09073 1.57568 0.0243709
v 2.80294 3.14689 0.0290288
v 2.76697 3.51741 0.0446352
v 3.92592 -3.98413 0.0219051
v 3.67514 -2.72906 0.0413298
v 3.89157 -1.68853 0.0366878
v 3.83204 -0.737153 0.0198964
v 3.89822 0.274139 0.0321212
v 4.20082 1.79359 0.0299287
v 4.17026 2.75891 0.0303872
v 4.05534 3.88462 0.0270036
vt 0.0001 0.0001
vt 0.9999 0.0001
vt 0.0001 0.9999
vt 0.9999 0.9999
vt 0.111189 0.0001
vt 0.222278 0.0001
vt 0.333367 0.0001
vt 0.444455 0.0001
vt 0.555544 0.0001
vt 0.666633 0.0001
vt 0.777722 0.0001
vt 0.888811 0.0001
vt 0.888811 0.9999
vt 0.777722 0.9999
vt 0.666633 0.9999
vt 0.555544 0.9999
vt 0.444455 0.9999
vt 0.333367 0.9999
vt 0.222278 0.9999
vt 0.111189 0.9999
vt 0.0001 0.888811
vt 0.0001 0.777722
vt 0.0001 0.666633
vt 0.0001 0.555544
vt 0.0001 0.444456
vt 0.0001 0.333367
vt 0.0001 0.222278
vt 0.0001 0.111189
vt 0.9999 0.111189
vt 0.9999 0.222278
vt 0.9999 0.333367
vt 0.9999 0.444456
vt 0.9999 0.555544
vt 0.9999 0.666633
vt 0.9999 0.777722
vt 0.9999 0.888811
vt 0.11727 0.115399
vt 0.120778 0.180369
vt 0.134636 0.309595
vt 0.088728 0.473895
vt 0.085886 0.575352
vt 0.086211 0.65375
vt 0.092207 0.78313
vt 0.106956 0.892282
vt 0.22987 0.102869
vt 0.221803 0.229552
vt 0.233521 0.288953
vt 0.225541 0.443179
vt 0.221596 0.556167
vt 0.227801 0.661237
vt 0.214896 0.795203
vt 0.22542 0.865181
vt 0.335524 0.082127
vt 0.351143 0.213907
vt 0.311934 0.342467
vt 0.313159 0.422214
vt 0.347791 0.572605
vt 0.301482 0.677733
vt 0.329031 0.783086
vt 0.344903 0.885466
vt 0.476837 0.074882
vt 0.441952 0.218774
vt 0.445749 0.333088
vt 0.416414 0.43099
vt 0.439746 0.552976
vt 0.463203 0.656843
vt 0.444252 0.77653
vt 0.426137 0.866051
vt 0.573419 0.117409
vt 0.581125 0.246686
vt 0.552512 0.326
vt 0.561075 0.459693
vt 0.558356 0.550596
vt 0.530299 0.662189
vt 0.553275 0.760113
vt 0.555478 0.888821
vt 0.694433 0.13996
vt 0.667048 0.221666
vt 0.681985 0.314267
vt 0.698218 0.467249
vt 0.696819 0.535952
vt 0.68253 0.662758
vt 0.642062 0.791726
vt 0.648523 0.877957
vt 0.778029 0.111667
vt 0.809426 0.219523
vt 0.794923 0.307783
vt 0.772028 0.454562
vt 0.796846 0.533374
vt 0.807262 0.663157
vt 0.778581 0.821037
vt 0.775122 0.858219
vt 0.890224 0.104741
vt 0.865679 0.23076
vt 0.887326 0.334104
vt 0.881307 0.429754
vt 0.887973 0.53063
vt 0.918106 0.681428
vt 0.915043 0.778027
vt 0.904815 0.89094
vn 0.00959185 0.0208347 0.999737
vn -0.0154929 0.0193856 0.999692
vn -0.0111457 0.00803015 0.999906
vn 0.0189299 0.00451746 0.999811
vn 0.00821527 0.0132822 0.999878
vn 0.00664892 0.00557262 0.999962
vn -0.00462569 0.0173278 0.999839
vn 0.0067177 0.0126345 0.999898
vn 0.00952107 -0.00655022 0.999933
vn -0.0101084 -0.00257017 0.999946
vn -0.00826958 0.0207732 0.99975
vn -0.00728329 0.0425639 0.999067
vn 0.0152012 -0.0216464 0.99965
vn -3.52841e-05 -0.0100338 0.99995
vn 0.00336124 -0.0233427 0.999722
vn -0.00600827 -0.0137634 0.999887
vn 0.00246731 -0.00681684 0.999974
vn 0.00268226 -0.0316376 0.999496
vn -0.003452 -0.0155612 0.999873
vn -0.0138401 -0.0233542 0.999631
vn 0.0212713 0.0136144 0.999681
vn 0.0242019 -0.0029603 0.999703
vn 0.0119035 -0.0023666 0.999926
vn 0.0280646 0.00528154 0.999592
vn 0.0352035 -0.000759567 0.99938
vn 0.0258543 -0.00390188 0.999658
vn 0.0125184 6.97254e-06 0.999922
vn 0.00342653 0.0104029 0.99994
vn -0.0380866 0.0129814 0.99919
vn -0.00449727 0.00399612 0.999982
vn -0.00373814 0.00143469 0.999992
vn -0.0184829 -0.010249 0.999777
vn -0.0217346 -0.000335937 0.999764
vn -0.0259969 0.00518704 0.999649
vn -0.0182637 0.0052615 0.999819
vn -0.00925593 0.0121668 0.999883
vn 0.00489537 0.00870085 0.99995
vn 0.00207965 0.00684161 0.999974
vn 0.00309876 0.00253122 0.999992
vn 0.015284 -6.4389e-05 0.999883
vn 0.00882609 -0.00470144 0.99995
vn 0.00321717 -0.00427428 0.999986
vn 0.0102146 0.00183529 0.999946
vn -0.000226407 -0.00115938 0.999999
vn 0.00705427 0.00228317 0.999973
vn 0.00223794 0.00579108 0.999981
vn -0.00334472 -0.00123401 0.999994
vn -0.00874557 -0.000797036 0.999961
vn -0.00275196 0.00183936 0.999994
vn 0.00260731 -0.00243049 0.999994
vn -0.000657285 -0.000350705 1
vn -0.000145715 -0.000668012 1
vn -0.00114038 0.00910538 0.999958
vn 0.00352682 -0.00297871 0.999989
vn 3.35985e-05 -0.00607452 0.999982
vn 3.38703e-05 0.00267375 0.999996
vn 0.000699498 0.00209328 0.999998
vn -1.42067e-06 0.000127075 1
vn -0.000188381 -0.000835684 1
vn -0.000386179 -0.00909182 0.999959
vn 0.00816278 0.00320027 0.999962
vn -0.00606022 -0.00152446 0.99998
vn -0.00152289 -0.000317005 0.999999
vn 0.0071257 0.00106965 0.999974
vn -0.000241983 -0.00349202 0.999994
vn -0.00313652 0.000537713 0.999995
vn -0.00219171 -0.00102683 0.999997
vn -0.0028638 0.000538184 0.999996
vn -0.00274498 -0.00579626 0.999979
vn 0.00203164 -0.00542653 0.999983
vn -0.000884091 0.00383673 0.999992
vn -0.00181191 0.00201765 0.999996
vn 0.00217009 -0.00432726 0.999988
vn 0.00155505 -0.00133211 0.999998
vn -0.00107313 -0.0013889 0.999998
vn -0.000910422 -0.00061287 0.999999
vn -0.00418138 -0.000652404 0.999991
vn -0.000305519 0.00230776 0.999997
vn 0.00493729 0.000278921 0.999988
vn 0.000884449 0.0045678 0.999989
vn -0.000343401 0.00523042 0.999986
vn 0.00378413 -0.0024167 0.99999
vn 0.00398118 0.000889302 0.999992
vn -0.00154637 -0.0101967 0.999947
vn 0.00199251 0.00146128 0.999997
vn -0.00234518 0.00027971 0.999997
vn -0.00538337 0.00614213 0.999967
vn 0.00710971 -0.000640293 0.999974
vn -0.000481022 -0.00189878 0.999998
vn -0.00319256 0.00171712 0.999993
vn 0.00136868 -0.0122147 0.999924
vn 0.000551259 -0.0179809 0.999838
vn -0.00866591 0.0107881 0.999904
vn -0.00373555 -0.00255633 0.99999
vn -0.0029596 0.00838075 0.999961
vn -0.00538827 -0.000936003 0.999985
vn -0.0106644 -0.00297382 0.999939
vn -0.0163439 0.00283733 0.999862
vn -0.00707147 0.00150783 0.999974
vn 0.0077554 -0.00660307 0.999948
f 100/100/100 4/4/4 13/13/13
f 44/44/44 3/3/3 21/21/21
f 44/44/44 19/19/19 20/20/20
f 60/60/60 19/19/19 52/52/52
f 60/60/60 17/17/17 18/18/18
f 76/76/76 17/17/17 68/68/68
f 84/84/84 16/16/16 76/76/76
f 84/84/84 14/14/14 15/15/15
f 100/100/100 14/14/14 92/92/92
f 11/11/11 93/93/93 85/85/85
f 93/93/93 86/86/86 85/85/85
f 94/94/94 87/87/87 86/86/86
f 87/87/87 96/96/96 88/88/88
f 96/96/96 89/89/89 88/88/88
f 97/97/97 90/90/90 89/89/89
f 90/90/90 99/99/99 91/91/91
f 91/91/91 100/100/100 92/92/92
f 10/10/10 85/85/85 77/77/77
f 77/77/77 86/86/86 78/78/78
f 78/78/78 87/87/87 79/79/79
f 79/79/79 88/88/88 80/80/80
f 88/88/88 81/81/81 80/80/80
f 81/81/81 90/90/90 82/82/82
f 82/82/82 91/91/91 83/83/83
f 91/91/91 84/84/84 83/83/83
f 10/10/10 69/69/69 9/9/9
f 69/69/69 78/78/78 70/70/70
f 70/70/70 79/79/79 71/71/71
f 79/79/79 72/72/72 71/71/71
f 72/72/72 81/81/81 73/73/73
f 73/73/73 82/82/82 74/74/74
f 82/82/82 75/75/75 74/74/74
f 83/83/83 76/76/76 75/75/75
f 9/9/9 61/61/61 8/8/8
f 69/69/69 62/62/62 61/61/61
f 62/62/62 71/71/71 63/63/63
f 63/63/63 72/72/72 64/64/64
f 72/72/72 65/65/65 64/64/64
f 65/65/65 74/74/74 66/66/66
f 66/66/66 75/75/75 67/67/67
f 67/67/67 76/76/76 68/68/68
f 8/8/8 53/53/53 7/7/7
f 53/53/53 62/62/62 54/54/54
f 54/54/54 63/63/63 55/55/55
f 55/55/55 64/64/64 56/56/56
f 64/64/64 57/57/57 56/56/56
f 57/57/57 66/66/66 58/58/58
f 58/58/58 67/67/67 59/59/59
f 59/59/59 68/68/68 60/60/60
f 6/6/6 53/53/53 45/45/45
f 45/45/45 54/54/54 46/46/46
f 54/54/54 47/47/47 46/46/46
f 55/55/55 48/48/48 47/47/47
f 56/56/56 49/49/49 48/48/48
f 49/49/49 58/58/58 50/50/50
f 58/58/58 51/51/51 50/50/50
f 59/59/59 52/52/52 51/51/51
f 6/6/6 37/37/37 5/5/5
f 45/45/45 38/38/38 37/37/37
f 46/46/46 39/39/39 38/38/38
f 39/39/39 48/48/48 40/40/40
f 40/40/40 49/49/49 41/41/41
f 41/41/41 50/50/50 42/42/42
f 50/50/50 43/43/43 42/42/42
f 51/51/51 44/44/44 43/43/43
f 5/5/5 28/28/28 1/1/1
f 28/28/28 38/38/38 27/27/27
f 27/27/27 39/39/39 26/26/26
f 26/26/26 40/40/40 25/25/25
f 40/40/40 24/24/24 25/25/25
f 41/41/41 23/23/23 24/24/24
f 23/23/23 43/43/43 22/22/22
f 43/43/43 21/21/21 22/22/22
f 2/2/2 93/93/93 12/12/12
f 93/93/93 30/30/30 94/94/94
f 30/30/30 95/95/95 94/94/94
f 31/31/31 96/96/96 95/95/95
f 32/32/32 97/97/97 96/96/96
f 33/33/33 98/98/98 97/97/97
f 98/98/98 35/35/35 99/99/99
f 99/99/99 36/36/36 100/100/100
f 100/100/100 36/36/36 4/4/4
f 44/44/44 20/20/20 3/3/3
f 44/44/44 52/52/52 19/19/19
f 60/60/60 18/18/18 19/19/19
f 60/60/60 68/68/68 17/17/17
f 76/76/76 16/16/16 17/17/17
f 84/84/84 15/15/15 16/16/16
f 84/84/84 92/92/92 14/14/14
f 100/100/100 13/13/13 14/14/14
f 11/11/11 12/12/12 93/93/93
f 93/93/93 94/94/94 86/86/86
f 94/94/94 95/95/95 87/87/87
f 87/87/87 95/95/95 96/96/96
f 96/96/96 97/97/97 89/89/89
f 97/97/97 98/98/98 90/90/90
f 90/90/90 98/98/98 99/99/99
f 91/91/91 99/99/99 100/100/100
f 10/10/10 11/11/11 85/85/85
f 77/77/77 85/85/85 86/86/86
f 78/78/78 86/86/86 87/87/87
f 79/79/79 87/87/87 88/88/88
f 88/88/88 89/89/89 81/81/81
f 81/81/81 89/89/89 90/90/90
f 82/82/82 90/90/90 91/91/91
f 91/91/91 92/92/92 84/84/84
f 10/10/10 77/77/77 69/69/69
f 69/69/69 77/77/77 78/78/78
f 70/70/70 78/78/78 79/79/79
f 79/79/79 80/80/80 72/72/72
f 72/72/72 80/80/80 81/81/81
f 73/73/73 81/81/81 82/82/82
f 82/82/82 83/83/83 75/75/75
f 83/83/83 84/84/84 76/76/76
f 9/9/9 69/69/69 61/61/61
f 69/69/69 70/70/70 62/62/62
f 62/62/62 70/70/70 71/71/71
f 63/63/63 71/71/71 72/72/72
f 72/72/72 73/73/73 65/65/65
f 65/65/65 73/73/73 74/74/74
f 66/66/66 74/74/74 75/75/75
f 67/67/67 75/75/75 76/76/76
f 8/8/8 61/61/61 53/53/53
f 53/53/53 61/61/61 62/62/62
f 54/54/54 62/62/62 63/63/63
f 55/55/55 63/63/63 64/64/64
f 64/64/64 65/65/65 57/57/57
f 57/57/57 65/65/65 66/66/66
f 58/58/58 66/66/66 67/67/67
f 59/59/59 67/67/67 68/68/68
f 6/6/6 7/7/7 53/53/53
f 45/45/45 53/53/53 54/54/54
f 54/54/54 55/55/55 47/47/47
f 55/55/55 56/56/56 48/48/48
f 56/56/56 57/57/57 49/49/49
f 49/49/49 57/57/57 58/58/58
f 58/58/58 59/59/59 51/51/51
f 59/59/59 60/60/60 52/52/52
f 6/6/6 45/45/45 37/37/37
f 45/45/45 46/46/46 38/38/38
f 46/46/46 47/47/47 39/39/39
f 39/39/39 47/47/47 48/48/48
f 40/40/40 48/48/48 49/49/49
f 41/41/41 49/49/49 50/50/50
f 50/50/50 51/51/51 43/43/43
f 51/51/51 52/52/52 44/44/44
f 5/5/5 37/37/37 28/28/28
f 28/28/28 37/37/37 38/38/38
f 27/27/27 38/38/38 39/39/39
f 26/26/26 39/39/39 40/40/40
f 40/40/40 41/41/41 24/24/24
f 41/41/41 42/42/42 23/23/23
f 23/23/23 42/42/42 43/43/43
f 43/43/43 44/44/44 21/21/21
f 2/2/2 29/29/29 93/93/93
f 93/93/93 29/29/29 30/30/30
f 30/30/30 31/31/31 95/95/95
f 31/31/31 32/32/32 96/96/96
f 32/32/32 33/33/33 97/97/97
f 33/33/33 34/34/34 98/98/98
f 98/98/98 34/34/34 35/35/35
f 99/99/99 35/35/35 36/36/36
