o GNATVCloth
v -4.9045 -4.99408 0.342737
v 5.15702 -4.98833 0.373413
v -5.01298 5.02105 0.004229
v 4.98702 5.02105 0.004229
v -3.79054 -5.01354 0.293604
v -2.67476 -5.02579 0.278992
v -1.55657 -5.0296 0.207242
v -0.435777 -5.03546 0.19416
v 0.684643 -5.03722 0.228235
v 1.80583 -5.04367 0.223046
v 2.92717 -5.03378 0.205827
v 4.04548 -5.01404 0.267368
v 3.86798 4.94644 0.0632383
v 2.76459 4.874 0.215608
v 1.65605 4.80716 0.310786
v 0.623484 4.77384 0.270197
v -0.495687 4.83005 0.249292
v -1.61466 4.88325 0.167143
v -2.7436 4.94251 0.140359
v -3.87401 4.98199 0.0814156
v -4.9856 3.90585 0.0398718
v -4.96798 2.79066 0.066633
v -4.95535 1.67605 0.0980363
v -4.94108 0.562216 0.139722
v -4.92843 -0.550279 0.190227
v -4.91755 -1.66136 0.25797
v -4.90656 -2.77147 0.323355
v -4.90135 -3.88385 0.340701
v 5.14211 -3.88108 0.284375
v 5.12593 -2.76876 0.277845
v 5.10756 -1.65679 0.24208
v 5.09481 -0.547545 0.172059
v 5.08251 0.563701 0.117919
v 5.06225 1.67732 0.0792405
v 5.04126 2.79174 0.0514907
v 5.01665 3.90641 0.0284979
v -3.73188 -3.86075 0.249702
v -3.69867 -3.20884 0.247088
v -3.57038 -1.92189 0.167053
v -4.04452 -0.271591 0.15942
v -4.08519 0.74385 0.154747
v -4.09066 1.5316 0.125613
v -4.04507 2.82442 0.0843819
v -3.90967 3.90982 -0.00470871
v -2.60133 -4.00105 0.204129
v -2.6901 -2.73005 0.165184
v -2.57643 -2.13813 0.12791
v -2.67336 -0.599624 0.246156
v -2.72531 0.532928 0.237838
v -2.67268 1.5805 0.185204
v -2.81042 2.91428 0.0237896
v -2.73243 3.59543 0.19469
v -1.53663 -4.22015 0.211713
v -1.3909 -2.90292 0.196328
v -1.79928 -1.61767 0.266368
v -1.79317 -0.820543 0.241151
v -1.46218 0.67681 0.156661
v -1.9367 1.73157 0.142983
v -1.68074 2.77895 0.233276
v -1.52524 3.77092 0.208107
v -0.112028 -4.29535 0.184616
v -0.478753 -2.85811 0.192595
v -0.452078 -1.71789 0.224928
v -0.758191 -0.738383 0.188601
v -0.536252 0.480568 0.182642
v -0.311598 1.51806 0.211745
v -0.520463 2.70653 0.227159
v -0.707268 3.57463 0.205154
v 0.857085 -3.87153 0.213307
v 0.917117 -2.57951 0.180567
v 0.620808 -1.78811 0.193686
v 0.692768 -0.451026 0.180469
v 0.655239 0.45482 0.200565
v 0.36305 1.57049 0.210383
v 0.581086 2.54738 0.209964
v 0.592745 3.76157 0.196305
v 2.07289 -3.64715 0.203966
v 1.78512 -2.83379 0.180204
v 1.92286 -1.90793 0.216425
v 2.07001 -0.377192 0.196568
v 2.05114 0.307571 0.176013
v 1.89076 1.57229 0.142587
v 1.47175 2.85133 0.24275
v 1.52546 3.64187 0.191285
v 2.9176 -3.92042 0.196147
v 3.21558 -2.83977 0.255235
v 3.05914 -1.96434 0.151916
v 2.81036 -0.501971 0.252255
v 3.05351 0.287859 0.227747
v 3.1426 1.58393 0.156633
v 2.83816 3.15018 0.171487
v 2.79772 3.48318 0.231136
v 4.04694 -3.96961 0.205578
v 3.77829 -2.71745 0.275696
v 3.97892 -1.68216 0.246738
v 3.90915 -0.729542 0.184161
v 3.96549 0.281215 0.179443
v 4.24733 1.7951 0.136903
v 4.19894 2.75625 0.0917893
v 4.07565 3.87995 0.0459531
vt 0.0001 0.0001
vt 0.9999 0.0001
vt 0.0001 0.9999
vt 0.9999 0.9999
vt 0.111189 0.0001
vt 0.222278 0.0001
vt 0.333367 0.0001
vt 0.444455 0.0001
vt 0.555544 0.0001
vt 0.666633 0.0001
vt 0.777722 0.0001
vt 0.888811 0.0001
vt 0.888811 0.9999
vt 0.777722 0.9999
vt 0.666633 0.9999
vt 0.555544 0.9999
vt 0.444455 0.9999
vt 0.333367 0.9999
vt 0.222278 0.9999
vt 0.111189 0.9999
vt 0.0001 0.888811
vt 0.0001 0.777722
vt 0.0001 0.666633
vt 0.0001 0.555544
vt 0.0001 0.444456
vt 0.0001 0.333367
vt 0.0001 0.222278
vt 0.0001 0.111189
vt 0.9999 0.111189
vt 0.9999 0.222278
vt 0.9999 0.333367
vt 0.9999 0.444456
vt 0.9999 0.555544
vt 0.9999 0.666633
vt 0.9999 0.777722
vt 0.9999 0.888811
vt 0.11727 0.115399
vt 0.120778 0.180369
vt 0.134636 0.309595
vt 0.088728 0.473895
vt 0.085886 0.575352
vt 0.086211 0.65375
vt 0.092207 0.78313
vt 0.106956 0.892282
vt 0.22987 0.102869
vt 0.221803 0.229552
vt 0.233521 0.288953
vt 0.225541 0.443179
vt 0.221596 0.556167
vt 0.227801 0.661237
vt 0.214896 0.795203
vt 0.22542 0.865181
vt 0.335524 0.082127
vt 0.351143 0.213907
vt 0.311934 0.342467
vt 0.313159 0.422214
vt 0.347791 0.572605
vt 0.301482 0.677733
vt 0.329031 0.783086
vt 0.344903 0.885466
vt 0.476837 0.074882
vt 0.441952 0.218774
vt 0.445749 0.333088
vt 0.416414 0.43099
vt 0.439746 0.552976
vt 0.463203 0.656843
vt 0.444252 0.77653
vt 0.426137 0.866051
vt 0.573419 0.117409
vt 0.581125 0.246686
vt 0.552512 0.326
vt 0.561075 0.459693
vt 0.558356 0.550596
vt 0.530299 0.662189
vt 0.553275 0.760113
vt 0.555478 0.888821
vt 0.694433 0.13996
vt 0.667048 0.221666
vt 0.681985 0.314267
vt 0.698218 0.467249
vt 0.696819 0.535952
vt 0.68253 0.662758
vt 0.642062 0.791726
vt 0.648523 0.877957
vt 0.778029 0.111667
vt 0.809426 0.219523
vt 0.794923 0.307783
vt 0.772028 0.454562
vt 0.796846 0.533374
vt 0.807262 0.663157
vt 0.778581 0.821037
vt 0.775122 0.858219
vt 0.890224 0.104741
vt 0.865679 0.23076
vt 0.887326 0.334104
vt 0.881307 0.429754
vt 0.887973 0.53063
vt 0.918106 0.681428
vt 0.915043 0.778027
vt 0.904815 0.89094
vn 0.0440927 0.00170714 0.999026
vn -0.0870286 0.0689 0.99382
vn -0.0144457 -0.022383 0.999645
vn 0.0354912 0.00819459 0.999336
vn 0.0448386 0.0243822 0.998697
vn 0.0335377 0.0430044 0.998512
vn 0.0378376 -0.006452 0.999263
vn 0.000182369 0.00827624 0.999966
vn -0.0210902 0.0188798 0.999599
vn 0.00955027 0.0111928 0.999892
vn -0.0162081 0.0255158 0.999543
vn -0.0760403 0.0589925 0.995358
vn 0.0946656 0.00229846 0.995506
vn 0.0845285 -0.0191958 0.996236
vn 0.0279393 -0.105075 0.994072
vn -0.0207169 -0.0809327 0.996504
vn -0.0216394 -0.0282079 0.999368
vn -0.0468068 0.033003 0.998359
vn -0.0627581 0.00891249 0.997989
vn -0.0623477 -0.077853 0.995013
vn 0.0207347 0.0444484 0.998797
vn -0.0201647 0.0257981 0.999464
vn -0.0244369 0.0336385 0.999135
vn -0.00778056 0.0288445 0.999554
vn 0.0179967 0.0532892 0.998417
vn 0.0554924 0.0486081 0.997275
vn 0.0765659 0.0429939 0.996137
vn 0.0668288 0.0129188 0.997681
vn -0.0750679 0.0418669 0.996299
vn -0.0182768 0.00209208 0.999831
vn 0.00218533 0.0536555 0.998557
vn 0.0175538 0.0387612 0.999094
vn 0.0561867 0.0345982 0.997821
vn 0.0750208 0.0311056 0.996697
vn 0.055629 0.0323347 0.997928
vn 0.0273756 0.0288454 0.999209
vn 0.051476 0.0285556 0.998266
vn 0.0646129 0.0272113 0.997539
vn 0.0421427 0.0226785 0.998854
vn -0.0142338 0.0183026 0.999731
vn -0.0376972 0.0282148 0.998891
vn -0.0346107 0.0348893 0.998792
vn 0.00202006 0.0564756 0.998402
vn -0.0540099 -0.0209389 0.998321
vn 0.022806 0.0366977 0.999066
vn 0.026823 0.0479693 0.998489
vn -0.0356255 -0.0262533 0.99902
vn -0.0342094 -0.0216514 0.99918
vn -0.000237806 0.028299 0.9996
vn -0.00341036 0.0697634 0.997558
vn -0.0837846 -0.0246999 0.996178
vn -0.123526 -0.0655427 0.990174
vn 0.017235 0.0123847 0.999775
vn -0.0170433 -0.00664132 0.999833
vn -0.0188141 -0.0183273 0.999655
vn 0.0351338 0.0319145 0.998873
vn 0.0107067 0.0185293 0.999771
vn -0.0195752 0.00841618 0.999773
vn -0.0653206 -0.0441584 0.996887
vn -0.0201724 0.0205827 0.999585
vn -0.0108368 0.00730188 0.999915
vn 0.00649513 -0.00655986 0.999957
vn 0.0203927 -0.00177106 0.99979
vn 0.0177844 0.0291883 0.999416
vn -0.0133803 -0.0119947 0.999839
vn -0.0167104 -0.0146345 0.999753
vn -0.000633567 -0.00889218 0.99996
vn 0.00537574 0.00104055 0.999985
vn -0.00550517 0.0159207 0.999858
vn -0.00156276 -0.00474841 0.999987
vn 0.00636544 -0.00925678 0.999937
vn -0.00119907 0.00738475 0.999972
vn 0.0098913 -0.00506674 0.999938
vn 0.0159351 -0.00969268 0.999826
vn 0.00464976 -0.0130576 0.999904
vn -0.00299602 -0.00990226 0.999946
vn -0.00794268 0.00239888 0.999966
vn -0.00841018 0.01485 0.999854
vn -0.00327259 -0.0176016 0.99984
vn -0.0419353 0.0229158 0.998858
vn -0.0228671 0.0278475 0.999351
vn 0.0203265 -0.0146205 0.999686
vn 0.0133517 1.08046e-05 0.999911
vn 0.00291029 -0.0470828 0.998887
vn 0.000371766 -0.0151088 0.999886
vn -0.034197 0.0100583 0.999365
vn -0.0274013 0.0222646 0.999377
vn -0.00423784 -0.00229315 0.999988
vn 0.013897 0.033791 0.999332
vn 0.00873695 0.0282502 0.999563
vn 0.0513536 -0.0415637 0.997815
vn 0.0613577 -0.0779062 0.995071
vn -0.0435196 0.00514034 0.999039
vn -0.0409934 0.0135682 0.999067
vn -0.0464298 0.046672 0.997831
vn 0.00854585 0.0203597 0.999756
vn 0.0369188 0.0250719 0.999004
vn 0.0446368 0.0338549 0.998429
vn 0.0417017 0.0352357 0.998509
vn 0.0894054 -0.0026748 0.995992
f 100/100/100 4/4/4 13/13/13
f 44/44/44 3/3/3 21/21/21
f 44/44/44 19/19/19 20/20/20
f 60/60/60 19/19/19 52/52/52
f 60/60/60 17/17/17 18/18/18
f 76/76/76 17/17/17 68/68/68
f 84/84/84 16/16/16 76/76/76
f 84/84/84 14/14/14 15/15/15
f 100/100/100 14/14/14 92/92/92
f 11/11/11 93/93/93 85/85/85
f 93/93/93 86/86/86 85/85/85
f 94/94/94 87/87/87 86/86/86
f 87/87/87 96/96/96 88/88/88
f 96/96/96 89/89/89 88/88/88
f 97/97/97 90/90/90 89/89/89
f 90/90/90 99/99/99 91/91/91
f 91/91/91 100/100/100 92/92/92
f 10/10/10 85/85/85 77/77/77
f 77/77/77 86/86/86 78/78/78
f 78/78/78 87/87/87 79/79/79
f 79/79/79 88/88/88 80/80/80
f 88/88/88 81/81/81 80/80/80
f 81/81/81 90/90/90 82/82/82
f 82/82/82 91/91/91 83/83/83
f 91/91/91 84/84/84 83/83/83
f 10/10/10 69/69/69 9/9/9
f 69/69/69 78/78/78 70/70/70
f 70/70/70 79/79/79 71/71/71
f 79/79/79 72/72/72 71/71/71
f 72/72/72 81/81/81 73/73/73
f 73/73/73 82/82/82 74/74/74
f 82/82/82 75/75/75 74/74/74
f 83/83/83 76/76/76 75/75/75
f 9/9/9 61/61/61 8/8/8
f 69/69/69 62/62/62 61/61/61
f 62/62/62 71/71/71 63/63/63
f 63/63/63 72/72/72 64/64/64
f 72/72/72 65/65/65 64/64/64
f 65/65/65 74/74/74 66/66/66
f 66/66/66 75/75/75 67/67/67
f 67/67/67 76/76/76 68/68/68
f 8/8/8 53/53/53 7/7/7
f 53/53/53 62/62/62 54/54/54
f 54/54/54 63/63/63 55/55/55
f 55/55/55 64/64/64 56/56/56
f 64/64/64 57/57/57 56/56/56
f 57/57/57 66/66/66 58/58/58
f 58/58/58 67/67/67 59/59/59
f 59/59/59 68/68/68 60/60/60
f 6/6/6 53/53/53 45/45/45
f 45/45/45 54/54/54 46/46/46
f 54/54/54 47/47/47 46/46/46
f 55/55/55 48/48/48 47/47/47
f 56/56/56 49/49/49 48/48/48
f 49/49/49 58/58/58 50/50/50
f 58/58/58 51/51/51 50/50/50
f 59/59/59 52/52/52 51/51/51
f 6/6/6 37/37/37 5/5/5
f 45/45/45 38/38/38 37/37/37
f 46/46/46 39/39/39 38/38/38
f 39/39/39 48/48/48 40/40/40
f 40/40/40 49/49/49 41/41/41
f 41/41/41 50/50/50 42/42/42
f 50/50/50 43/43/43 42/42/42
f 51/51/51 44/44/44 43/43/43
f 5/5/5 28/28/28 1/1/1
f 28/28/28 38/38/38 27/27/27
f 27/27/27 39/39/39 26/26/26
f 26/26/26 40/40/40 25/25/25
f 40/40/40 24/24/24 25/25/25
f 41/41/41 23/23/23 24/24/24
f 23/23/23 43/43/43 22/22/22
f 43/43/43 21/21/21 22/22/22
f 2/2/2 93/93/93 12/12/12
f 93/93/93 30/30/30 94/94/94
f 30/30/30 95/95/95 94/94/94
f 31/31/31 96/96/96 95/95/95
f 32/32/32 97/97/97 96/96/96
f 33/33/33 98/98/98 97/97/97
f 98/98/98 35/35/35 99/99/99
f 99/99/99 36/36/36 100/100/100
f 100/100/100 36/36/36 4/4/4
f 44/44/44 20/20/20 3/3/3
f 44/44/44 52/52/52 19/19/19
f 60/60/60 18/18/18 19/19/19
f 60/60/60 68/68/68 17/17/17
f 76/76/76 16/16/16 17/17/17
f 84/84/84 15/15/15 16/16/16
f 84/84/84 92/92/92 14/14/14
f 100/100/100 13/13/13 14/14/14
f 11/11/11 12/12/12 93/93/93
f 93/93/93 94/94/94 86/86/86
f 94/94/94 95/95/95 87/87/87
f 87/87/87 95/95/95 96/96/96
f 96/96/96 97/97/97 89/89/89
f 97/97/97 98/98/98 90/90/90
f 90/90/90 98/98/98 99/99/99
f 91/91/91 99/99/99 100/100/100
f 10/10/10 11/11/11 85/85/85
f 77/77/77 85/85/85 86/86/86
f 78/78/78 86/86/86 87/87/87
f 79/79/79 87/87/87 88/88/88
f 88/88/88 89/89/89 81/81/81
f 81/81/81 89/89/89 90/90/90
f 82/82/82 90/90/90 91/91/91
f 91/91/91 92/92/92 84/84/84
f 10/10/10 77/77/77 69/69/69
f 69/69/69 77/77/77 78/78/78
f 70/70/70 78/78/78 79/79/79
f 79/79/79 80/80/80 72/72/72
f 72/72/72 80/80/80 81/81/81
f 73/73/73 81/81/81 82/82/82
f 82/82/82 83/83/83 75/75/75
f 83/83/83 84/84/84 76/76/76
f 9/9/9 69/69/69 61/61/61
f 69/69/69 70/70/70 62/62/62
f 62/62/62 70/70/70 71/71/71
f 63/63/63 71/71/71 72/72/72
f 72/72/72 73/73/73 65/65/65
f 65/65/65 73/73/73 74/74/74
f 66/66/66 74/74/74 75/75/75
f 67/67/67 75/75/75 76/76/76
f 8/8/8 61/61/61 53/53/53
f 53/53/53 61/61/61 62/62/62
f 54/54/54 62/62/62 63/63/63
f 55/55/55 63/63/63 64/64/64
f 64/64/64 65/65/65 57/57/57
f 57/57/57 65/65/65 66/66/66
f 58/58/58 66/66/66 67/67/67
f 59/59/59 67/67/67 68/68/68
f 6/6/6 7/7/7 53/53/53
f 45/45/45 53/53/53 54/54/54
f 54/54/54 55/55/55 47/47/47
f 55/55/55 56/56/56 48/48/48
f 56/56/56 57/57/57 49/49/49
f 49/49/49 57/57/57 58/58/58
f 58/58/58 59/59/59 51/51/51
f 59/59/59 60/60/60 52/52/52
f 6/6/6 45/45/45 37/37/37
f 45/45/45 46/46/46 38/38/38
f 46/46/46 47/47/47 39/39/39
f 39/39/39 47/47/47 48/48/48
f 40/40/40 48/48/48 49/49/49
f 41/41/41 49/49/49 50/50/50
f 50/50/50 51/51/51 43/43/43
f 51/51/51 52/52/52 44/44/44
f 5/5/5 37/37/37 28/28/28
f 28/28/28 37/37/37 38/38/38
f 27/27/27 38/38/38 39/39/39
f 26/26/26 39/39/39 40/40/40
f 40/40/40 41/41/41 24/24/24
f 41/41/41 42/42/42 23/23/23
f 23/23/23 42/42/42 43/43/43
f 43/43/43 44/44/44 21/21/21
f 2/2/2 29/29/29 93/93/93
f 93/93/93 29/29/29 30/30/30
f 30/30/30 31/31/31 95/95/95
f 31/31/31 32/32/32 96/96/96
f 32/32/32 33/33/33 97/97/97
f 33/33/33 34/34/34 98/98/98
f 98/98/98 34/34/34 35/35/35
f 99/99/99 35/35/35 36/36/36
