o GNATVCloth
v -5.08671 -4.97436 0.532853
v 4.96559 -4.98856 0.43906
v -5.01298 5.02105 0.004229
v 4.98702 5.02105 0.004229
v -3.97482 -4.99896 0.535533
v -2.86383 -5.02861 0.455326
v -1.74374 -5.04974 0.452039
v -0.621751 -5.06239 0.444085
v 0.501161 -5.06533 0.40719
v 1.6226 -5.04839 0.394933
v 2.74008 -5.02988 0.443938
v 3.85441 -5.00431 0.478804
v 3.85339 4.94981 0.150781
v 2.72747 4.9061 0.287604
v 1.602 4.844 0.375658
v 0.483259 4.78759 0.472207
v -0.637038 4.74285 0.43188
v -1.7451 4.72439 0.266384
v -2.83806 4.77336 0.514633
v -3.91915 4.88608 0.260437
v -4.99749 3.9089 0.083915
v -4.99872 2.79496 0.116985
v -5.0029 1.68228 0.155987
v -5.01568 0.570358 0.204341
v -5.02722 -0.540713 0.273931
v -5.03794 -1.65018 0.357176
v -5.04762 -2.75939 0.456895
v -5.06296 -3.86256 0.547631
v 4.95422 -3.88098 0.338413
v 4.94854 -2.76999 0.298048
v 4.94466 -1.65609 0.272948
v 4.9431 -0.544863 0.240565
v 4.94208 0.567753 0.216263
v 4.94366 1.68045 0.179256
v 4.95133 2.79434 0.142002
v 4.95744 3.90668 0.0606552
v -3.89936 -3.8578 0.388233
v -3.8605 -3.21488 0.293502
v -3.70433 -1.92698 0.205784
v -4.14065 -0.271718 0.178529
v -4.15708 0.74356 0.203119
v -4.1431 1.52752 0.166317
v -4.0756 2.81896 0.104267
v -3.94168 3.88325 -0.130244
v -2.77714 -4.01739 0.285137
v -2.84142 -2.74766 0.24129
v -2.72021 -2.15754 0.288242
v -2.78413 -0.61171 0.335294
v -2.80495 0.518504 0.316514
v -2.72428 1.55692 0.152675
v -2.86139 2.86712 -0.138237
v -2.82466 3.48064 0.209792
v -1.71775 -4.24184 0.343562
v -1.554 -2.92856 0.384835
v -1.9402 -1.63924 0.443563
v -1.91298 -0.845105 0.396663
v -1.55381 0.62528 0.101314
v -2.00402 1.67427 -0.0405848
v -1.76053 2.70496 0.174982
v -1.62159 3.64193 0.36183
v -0.296098 -4.32242 0.378308
v -0.641561 -2.88953 0.400174
v -0.597714 -1.75184 0.460913
v -0.881606 -0.781743 0.330236
v -0.639814 0.426934 0.20628
v -0.402745 1.46595 0.225786
v -0.604334 2.64667 0.295533
v -0.796593 3.47661 0.368218
v 0.674368 -3.89607 0.381346
v 0.757269 -2.60651 0.446685
v 0.474077 -1.81686 0.42354
v 0.564491 -0.494883 0.350423
v 0.539614 0.409942 0.292424
v 0.261323 1.51915 0.33814
v 0.494323 2.49498 0.345734
v 0.507988 3.71911 0.438244
v 1.88978 -3.64623 0.448311
v 1.61238 -2.84315 0.335786
v 1.77334 -1.91836 0.413926
v 1.93266 -0.38839 0.340991
v 1.9172 0.269893 0.138753
v 1.79119 1.53345 0.23759
v 1.38607 2.81528 0.299634
v 1.44864 3.64361 0.367497
v 2.733 -3.91445 0.423791
v 3.04062 -2.8322 0.344183
v 2.89347 -1.95747 0.242185
v 2.67228 -0.496722 0.361818
v 2.91315 0.293216 0.26131
v 3.02645 1.57065 0.00824194
v 2.74274 3.13949 0.0892617
v 2.71336 3.49886 0.155243
v 3.8559 -3.96711 0.332069
v 3.60433 -2.71223 0.336981
v 3.81807 -1.67262 0.294404
v 3.76037 -0.716671 0.263229
v 3.82458 0.29436 0.309616
v 4.12445 1.80852 0.18358
v 4.11283 2.75712 -0.00420068
v 4.00397 3.88294 -0.0397232
vt 0.0001 0.0001
vt 0.9999 0.0001
vt 0.0001 0.9999
vt 0.9999 0.9999
vt 0.111189 0.0001
vt 0.222278 0.0001
vt 0.333367 0.0001
vt 0.444455 0.0001
vt 0.555544 0.0001
vt 0.666633 0.0001
vt 0.777722 0.0001
vt 0.888811 0.0001
vt 0.888811 0.9999
vt 0.777722 0.9999
vt 0.666633 0.9999
vt 0.555544 0.9999
vt 0.444455 0.9999
vt 0.333367 0.9999
vt 0.222278 0.9999
vt 0.111189 0.9999
vt 0.0001 0.888811
vt 0.0001 0.777722
vt 0.0001 0.666633
vt 0.0001 0.555544
vt 0.0001 0.444456
vt 0.0001 0.333367
vt 0.0001 0.222278
vt 0.0001 0.111189
vt 0.9999 0.111189
vt 0.9999 0.222278
vt 0.9999 0.333367
vt 0.9999 0.444456
vt 0.9999 0.555544
vt 0.9999 0.666633
vt 0.9999 0.777722
vt 0.9999 0.888811
vt 0.11727 0.115399
vt 0.120778 0.180369
vt 0.134636 0.309595
vt 0.088728 0.473895
vt 0.085886 0.575352
vt 0.086211 0.65375
vt 0.092207 0.78313
vt 0.106956 0.892282
vt 0.22987 0.102869
vt 0.221803 0.229552
vt 0.233521 0.288953
vt 0.225541 0.443179
vt 0.221596 0.556167
vt 0.227801 0.661237
vt 0.214896 0.795203
vt 0.22542 0.865181
vt 0.335524 0.082127
vt 0.351143 0.213907
vt 0.311934 0.342467
vt 0.313159 0.422214
vt 0.347791 0.572605
vt 0.301482 0.677733
vt 0.329031 0.783086
vt 0.344903 0.885466
vt 0.476837 0.074882
vt 0.441952 0.218774
vt 0.445749 0.333088
vt 0.416414 0.43099
vt 0.439746 0.552976
vt 0.463203 0.656843
vt 0.444252 0.77653
vt 0.426137 0.866051
vt 0.573419 0.117409
vt 0.581125 0.246686
vt 0.552512 0.326
vt 0.561075 0.459693
vt 0.558356 0.550596
vt 0.530299 0.662189
vt 0.553275 0.760113
vt 0.555478 0.888821
vt 0.694433 0.13996
vt 0.667048 0.221666
vt 0.681985 0.314267
vt 0.698218 0.467249
vt 0.696819 0.535952
vt 0.68253 0.662758
vt 0.642062 0.791726
vt 0.648523 0.877957
vt 0.778029 0.111667
vt 0.809426 0.219523
vt 0.794923 0.307783
vt 0.772028 0.454562
vt 0.796846 0.533374
vt 0.807262 0.663157
vt 0.778581 0.821037
vt 0.775122 0.858219
vt 0.890224 0.104741
vt 0.865679 0.23076
vt 0.887326 0.334104
vt 0.881307 0.429754
vt 0.887973 0.53063
vt 0.918106 0.681428
vt 0.915043 0.778027
vt 0.904815 0.89094
vn -0.00270253 -0.0132328 0.999909
vn 0.0102927 0.115223 0.993286
vn -0.0285562 -0.143797 0.989195
vn 0.015397 -0.0518613 0.998536
vn 0.0690195 0.0761679 0.994703
vn 0.0434541 0.144914 0.98849
vn 0.00696889 0.132854 0.991111
vn 0.00754668 0.101271 0.99483
vn 0.00994832 0.0396033 0.999166
vn -0.0166675 -0.00786658 0.99983
vn 0.00133349 0.0589703 0.998259
vn -0.000382387 0.140078 0.99014
vn 0.130703 -0.156369 0.979012
vn 0.133843 -0.0907002 0.986843
vn 0.0828881 -0.0173636 0.996408
vn 0.0416537 -0.0268501 0.998771
vn -0.0616077 -0.0137866 0.998005
vn 0.0388714 0.0921677 0.994985
vn -0.122602 -0.177867 0.976387
vn -0.251518 -0.346423 0.903731
vn 0.138396 0.097029 0.985612
vn 0.0129284 0.0323185 0.999394
vn -0.000345928 0.043409 0.999057
vn 0.0291442 0.026966 0.999211
vn 0.0864627 0.0675481 0.993963
vn 0.112532 0.0700349 0.991177
vn 0.150098 0.0715817 0.986076
vn 0.108149 0.0802996 0.990886
vn -0.0107306 0.0633353 0.997935
vn 0.0173903 0.0238594 0.999564
vn 0.0173872 0.0284807 0.999443
vn 0.0396613 0.00117503 0.999212
vn 0.0515234 0.0416371 0.997803
vn 0.0104792 0.0332883 0.999391
vn -0.114293 0.0989976 0.988502
vn -0.1286 0.0490571 0.990482
vn 0.113097 0.134316 0.984463
vn 0.103511 0.0841296 0.991064
vn 0.0174971 0.0204549 0.999638
vn -0.0022419 0.0191987 0.999813
vn -0.0233595 0.0413433 0.998872
vn 0.0025934 0.04735 0.998875
vn 0.086025 0.110495 0.990147
vn -0.103534 -0.137282 0.985106
vn 0.011943 0.0842974 0.996369
vn -0.0534628 0.00337795 0.998564
vn -0.123483 -0.0543106 0.990859
vn -0.102233 0.000755562 0.99476
vn 0.031757 0.0942048 0.995046
vn 0.100285 0.143404 0.98457
vn -0.0752027 -0.0667052 0.994935
vn -0.255213 -0.308988 0.916184
vn -0.0179254 0.0652527 0.997708
vn -0.067438 -0.0384908 0.996981
vn -0.0540662 0.0127923 0.998455
vn 0.0295029 0.0956303 0.99498
vn 8.73477e-05 0.123058 0.9924
vn -0.0187218 0.0343334 0.999235
vn -0.161865 -0.210292 0.964146
vn -0.0300911 -0.0788949 0.996429
vn -0.00441302 0.0318554 0.999483
vn -0.0115421 -0.0293761 0.999502
vn -0.000331616 0.0251242 0.999684
vn -0.00842656 0.121029 0.992613
vn -0.091846 0.0429942 0.994845
vn -0.139505 -0.00494281 0.990209
vn -0.090248 -0.102839 0.990596
vn -0.0505737 -0.0978695 0.993913
vn -0.00532197 0.000992136 0.999985
vn 0.0327674 -0.0318307 0.998956
vn 0.0109293 0.0203406 0.999733
vn 0.00106394 0.101408 0.994844
vn 0.0284644 -0.00458016 0.999584
vn -0.0562669 -0.0110486 0.998355
vn -0.0123347 -0.0399053 0.999127
vn 0.00681839 -0.062922 0.997995
vn -0.0139756 0.0478549 0.998757
vn 0.0452154 0.0161232 0.998847
vn 0.0575002 -0.0120045 0.998273
vn -0.0044627 0.17244 0.98501
vn 0.0227257 0.129855 0.991273
vn 0.116957 -0.0314188 0.99264
vn 0.107358 -0.056942 0.992589
vn 0.111575 -0.0724533 0.991111
vn 0.0372149 0.0209064 0.999089
vn 0.0199537 0.07895 0.996679
vn 0.030995 0.0109724 0.999459
vn 0.034555 0.079446 0.99624
vn -0.0493949 0.123939 0.99106
vn -0.0187143 0.0857806 0.996138
vn 0.141236 -0.0633728 0.987945
vn 0.167417 -0.129354 0.977363
vn 0.0232709 0.0595345 0.997955
vn -0.0025023 0.0410764 0.999153
vn -0.0142016 0.0351241 0.999282
vn 0.018049 0.00350664 0.999831
vn -0.0195234 0.0533197 0.998387
vn -0.0782347 0.105991 0.991285
vn -0.0868054 0.0789561 0.993091
vn 0.0721601 -0.065746 0.995224
f 100/100/100 4/4/4 13/13/13
f 44/44/44 3/3/3 21/21/21
f 44/44/44 19/19/19 20/20/20
f 60/60/60 19/19/19 52/52/52
f 60/60/60 17/17/17 18/18/18
f 76/76/76 17/17/17 68/68/68
f 84/84/84 16/16/16 76/76/76
f 84/84/84 14/14/14 15/15/15
f 100/100/100 14/14/14 92/92/92
f 11/11/11 93/93/93 85/85/85
f 93/93/93 86/86/86 85/85/85
f 94/94/94 87/87/87 86/86/86
f 87/87/87 96/96/96 88/88/88
f 96/96/96 89/89/89 88/88/88
f 97/97/97 90/90/90 89/89/89
f 90/90/90 99/99/99 91/91/91
f 91/91/91 100/100/100 92/92/92
f 10/10/10 85/85/85 77/77/77
f 77/77/77 86/86/86 78/78/78
f 78/78/78 87/87/87 79/79/79
f 79/79/79 88/88/88 80/80/80
f 88/88/88 81/81/81 80/80/80
f 81/81/81 90/90/90 82/82/82
f 82/82/82 91/91/91 83/83/83
f 91/91/91 84/84/84 83/83/83
f 10/10/10 69/69/69 9/9/9
f 69/69/69 78/78/78 70/70/70
f 70/70/70 79/79/79 71/71/71
f 79/79/79 72/72/72 71/71/71
f 72/72/72 81/81/81 73/73/73
f 73/73/73 82/82/82 74/74/74
f 82/82/82 75/75/75 74/74/74
f 83/83/83 76/76/76 75/75/75
f 9/9/9 61/61/61 8/8/8
f 69/69/69 62/62/62 61/61/61
f 62/62/62 71/71/71 63/63/63
f 63/63/63 72/72/72 64/64/64
f 72/72/72 65/65/65 64/64/64
f 65/65/65 74/74/74 66/66/66
f 66/66/66 75/75/75 67/67/67
f 67/67/67 76/76/76 68/68/68
f 8/8/8 53/53/53 7/7/7
f 53/53/53 62/62/62 54/54/54
f 54/54/54 63/63/63 55/55/55
f 55/55/55 64/64/64 56/56/56
f 64/64/64 57/57/57 56/56/56
f 57/57/57 66/66/66 58/58/58
f 58/58/58 67/67/67 59/59/59
f 59/59/59 68/68/68 60/60/60
f 6/6/6 53/53/53 45/45/45
f 45/45/45 54/54/54 46/46/46
f 54/54/54 47/47/47 46/46/46
f 55/55/55 48/48/48 47/47/47
f 56/56/56 49/49/49 48/48/48
f 49/49/49 58/58/58 50/50/50
f 58/58/58 51/51/51 50/50/50
f 59/59/59 52/52/52 51/51/51
f 6/6/6 37/37/37 5/5/5
f 45/45/45 38/38/38 37/37/37
f 46/46/46 39/39/39 38/38/38
f 39/39/39 48/48/48 40/40/40
f 40/40/40 49/49/49 41/41/41
f 41/41/41 50/50/50 42/42/42
f 50/50/50 43/43/43 42/42/42
f 51/51/51 44/44/44 43/43/43
f 5/5/5 28/28/28 1/1/1
f 28/28/28 38/38/38 27/27/27
f 27/27/27 39/39/39 26/26/26
f 26/26/26 40/40/40 25/25/25
f 40/40/40 24/24/24 25/25/25
f 41/41/41 23/23/23 24/24/24
f 23/23/23 43/43/43 22/22/22
f 43/43/43 21/21/21 22/22/22
f 2/2/2 93/93/93 12/12/12
f 93/93/93 30/30/30 94/94/94
f 30/30/30 95/95/95 94/94/94
f 31/31/31 96/96/96 95/95/95
f 32/32/32 97/97/97 96/96/96
f 33/33/33 98/98/98 97/97/97
f 98/98/98 35/35/35 99/99/99
f 99/99/99 36/36/36 100/100/100
f 100/100/100 36/36/36 4/4/4
f 44/44/44 20/20/20 3/3/3
f 44/44/44 52/52/52 19/19/19
f 60/60/60 18/18/18 19/19/19
f 60/60/60 68/68/68 17/17/17
f 76/76/76 16/16/16 17/17/17
f 84/84/84 15/15/15 16/16/16
f 84/84/84 92/92/92 14/14/14
f 100/100/100 13/13/13 14/14/14
f 11/11/11 12/12/12 93/93/93
f 93/93/93 94/94/94 86/86/86
f 94/94/94 95/95/95 87/87/87
f 87/87/87 95/95/95 96/96/96
f 96/96/96 97/97/97 89/89/89
f 97/97/97 98/98/98 90/90/90
f 90/90/90 98/98/98 99/99/99
f 91/91/91 99/99/99 100/100/100
f 10/10/10 11/11/11 85/85/85
f 77/77/77 85/85/85 86/86/86
f 78/78/78 86/86/86 87/87/87
f 79/79/79 87/87/87 88/88/88
f 88/88/88 89/89/89 81/81/81
f 81/81/81 89/89/89 90/90/90
f 82/82/82 90/90/90 91/91/91
f 91/91/91 92/92/92 84/84/84
f 10/10/10 77/77/77 69/69/69
f 69/69/69 77/77/77 78/78/78
f 70/70/70 78/78/78 79/79/79
f 79/79/79 80/80/80 72/72/72
f 72/72/72 80/80/80 81/81/81
f 73/73/73 81/81/81 82/82/82
f 82/82/82 83/83/83 75/75/75
f 83/83/83 84/84/84 76/76/76
f 9/9/9 69/69/69 61/61/61
f 69/69/69 70/70/70 62/62/62
f 62/62/62 70/70/70 71/71/71
f 63/63/63 71/71/71 72/72/72
f 72/72/72 73/73/73 65/65/65
f 65/65/65 73/73/73 74/74/74
f 66/66/66 74/74/74 75/75/75
f 67/67/67 75/75/75 76/76/76
f 8/8/8 61/61/61 53/53/53
f 53/53/53 61/61/61 62/62/62
f 54/54/54 62/62/62 63/63/63
f 55/55/55 63/63/63 64/64/64
f 64/64/64 65/65/65 57/57/57
f 57/57/57 65/65/65 66/66/66
f 58/58/58 66/66/66 67/67/67
f 59/59/59 67/67/67 68/68/68
f 6/6/6 7/7/7 53/53/53
f 45/45/45 53/53/53 54/54/54
f 54/54/54 55/55/55 47/47/47
f 55/55/55 56/56/56 48/48/48
f 56/56/56 57/57/57 49/49/49
f 49/49/49 57/57/57 58/58/58
f 58/58/58 59/59/59 51/51/51
f 59/59/59 60/60/60 52/52/52
f 6/6/6 45/45/45 37/37/37
f 45/45/45 46/46/46 38/38/38
f 46/46/46 47/47/47 39/39/39
f 39/39/39 47/47/47 48/48/48
f 40/40/40 48/48/48 49/49/49
f 41/41/41 49/49/49 50/50/50
f 50/50/50 51/51/51 43/43/43
f 51/51/51 52/52/52 44/44/44
f 5/5/5 37/37/37 28/28/28
f 28/28/28 37/37/37 38/38/38
f 27/27/27 38/38/38 39/39/39
f 26/26/26 39/39/39 40/40/40
f 40/40/40 41/41/41 24/24/24
f 41/41/41 42/42/42 23/23/23
f 23/23/23 42/42/42 43/43/43
f 43/43/43 44/44/44 21/21/21
f 2/2/2 29/29/29 93/93/93
f 93/93/93 29/29/29 30/30/30
f 30/30/30 31/31/31 95/95/95
f 31/31/31 32/32/32 96/96/96
f 32/32/32 33/33/33 97/97/97
f 33/33/33 34/34/34 98/98/98
f 98/98/98 34/34/34 35/35/35
f 99/99/99 35/35/35 36/36/36
