o GNATVCloth
v -5.00238 -4.95943 0.619276
v 5.0486 -4.99042 0.386914
v -5.01298 5.02105 0.004229
v 4.98702 5.02105 0.004229
v -3.90326 -5.0087 0.448316
v -2.78949 -5.03767 0.459143
v -1.67151 -5.07198 0.431334
v -0.548605 -5.09606 0.424626
v 0.576041 -5.09939 0.385735
v 1.69816 -5.07966 0.380162
v 2.81831 -5.0525 0.391657
v 3.93549 -5.02601 0.325684
v 3.87577 4.87874 0.218226
v 2.77458 4.76846 0.434793
v 1.6529 4.74386 0.394463
v 0.533046 4.70775 0.425605
v -0.572616 4.66292 0.59978
v -1.68848 4.70747 0.498928
v -2.81218 4.73923 0.485689
v -3.9084 4.86078 0.246246
v -4.9747 3.90941 0.098171
v -4.96281 2.79431 0.122151
v -4.96383 1.67991 0.152516
v -4.96587 0.566291 0.18078
v -4.96875 -0.545643 0.225135
v -4.97494 -1.65676 0.277683
v -4.98511 -2.76899 0.336913
v -4.99365 -3.87544 0.425341
v 5.0281 -3.88209 0.309969
v 5.00858 -2.77569 0.205078
v 4.99287 -1.66278 0.172715
v 4.98262 -0.550566 0.16538
v 4.9798 0.562432 0.156078
v 4.97539 1.67681 0.136895
v 4.97372 2.79206 0.126532
v 4.96481 3.90665 0.0712845
v -3.82146 -3.86546 0.41981
v -3.7795 -3.21874 0.360975
v -3.63013 -1.93036 0.273356
v -4.08002 -0.273584 0.198314
v -4.10741 0.742578 0.214302
v -4.10093 1.52526 0.160584
v -4.03636 2.81725 0.0960007
v -3.93397 3.87365 -0.181403
v -2.69779 -4.02251 0.348229
v -2.76295 -2.75464 0.27212
v -2.64121 -2.16318 0.282627
v -2.71069 -0.619273 0.260878
v -2.74416 0.512289 0.212696
v -2.68574 1.54107 -0.000355576
v -2.85868 2.84829 -0.296061
v -2.76899 3.48842 -0.0164617
v -1.64056 -4.25752 0.384239
v -1.47434 -2.94091 0.409352
v -1.85832 -1.64487 0.388013
v -1.83348 -0.852027 0.305597
v -1.5385 0.567356 -0.209814
v -2.00079 1.62899 -0.307126
v -1.72901 2.65268 -0.0986397
v -1.57517 3.61904 0.210704
v -0.218973 -4.35386 0.382333
v -0.568953 -2.91568 0.344755
v -0.525408 -1.78086 0.230761
v -0.83024 -0.831441 0.0335655
v -0.608691 0.366933 -0.178655
v -0.375791 1.37494 -0.200923
v -0.573411 2.55563 0.00502842
v -0.754816 3.41879 0.205269
v 0.750923 -3.92791 0.325343
v 0.824971 -2.64932 0.295552
v 0.539 -1.87523 0.133537
v 0.622371 -0.560718 -0.113297
v 0.588643 0.342144 -0.136674
v 0.297036 1.42598 -0.129858
v 0.524233 2.39414 -0.0203418
v 0.55089 3.61016 0.32884
v 1.96402 -3.67617 0.308134
v 1.68254 -2.87524 0.408452
v 1.82389 -1.94781 0.34236
v 1.99 -0.443494 0.0653413
v 1.98615 0.220618 -0.094487
v 1.82976 1.47494 -0.200821
v 1.4077 2.74128 -0.078945
v 1.48878 3.52848 0.241205
v 2.80596 -3.941 0.294397
v 3.10655 -2.85463 0.294327
v 2.95589 -1.9811 0.409228
v 2.71507 -0.528578 0.240338
v 2.95831 0.265241 0.167913
v 3.07895 1.54119 -0.084082
v 2.76811 3.1026 -0.212194
v 2.74557 3.43353 -0.0410328
v 3.93164 -3.98039 0.331012
v 3.66861 -2.72823 0.293208
v 3.87294 -1.68665 0.301659
v 3.8091 -0.732073 0.344816
v 3.8662 0.278843 0.29473
v 4.1565 1.79617 0.171625
v 4.13318 2.74827 0.00635042
v 4.03399 3.8632 -0.157246
vt 0.0001 0.0001
vt 0.9999 0.0001
vt 0.0001 0.9999
vt 0.9999 0.9999
vt 0.111189 0.0001
vt 0.222278 0.0001
vt 0.333367 0.0001
vt 0.444455 0.0001
vt 0.555544 0.0001
vt 0.666633 0.0001
vt 0.777722 0.0001
vt 0.888811 0.0001
vt 0.888811 0.9999
vt 0.777722 0.9999
vt 0.666633 0.9999
vt 0.555544 0.9999
vt 0.444455 0.9999
vt 0.333367 0.9999
vt 0.222278 0.9999
vt 0.111189 0.9999
vt 0.0001 0.888811
vt 0.0001 0.777722
vt 0.0001 0.666633
vt 0.0001 0.555544
vt 0.0001 0.444456
vt 0.0001 0.333367
vt 0.0001 0.222278
vt 0.0001 0.111189
vt 0.9999 0.111189
vt 0.9999 0.222278
vt 0.9999 0.333367
vt 0.9999 0.444456
vt 0.9999 0.555544
vt 0.9999 0.666633
vt 0.9999 0.777722
vt 0.9999 0.888811
vt 0.11727 0.115399
vt 0.120778 0.180369
vt 0.134636 0.309595
vt 0.088728 0.473895
vt 0.085886 0.575352
vt 0.086211 0.65375
vt 0.092207 0.78313
vt 0.106956 0.892282
vt 0.22987 0.102869
vt 0.221803 0.229552
vt 0.233521 0.288953
vt 0.225541 0.443179
vt 0.221596 0.556167
vt 0.227801 0.661237
vt 0.214896 0.795203
vt 0.22542 0.865181
vt 0.335524 0.082127
vt 0.351143 0.213907
vt 0.311934 0.342467
vt 0.313159 0.422214
vt 0.347791 0.572605
vt 0.301482 0.677733
vt 0.329031 0.783086
vt 0.344903 0.885466
vt 0.476837 0.074882
vt 0.441952 0.218774
vt 0.445749 0.333088
vt 0.416414 0.43099
vt 0.439746 0.552976
vt 0.463203 0.656843
vt 0.444252 0.77653
vt 0.426137 0.866051
vt 0.573419 0.117409
vt 0.581125 0.246686
vt 0.552512 0.326
vt 0.561075 0.459693
vt 0.558356 0.550596
vt 0.530299 0.662189
vt 0.553275 0.760113
vt 0.555478 0.888821
vt 0.694433 0.13996
vt 0.667048 0.221666
vt 0.681985 0.314267
vt 0.698218 0.467249
vt 0.696819 0.535952
vt 0.68253 0.662758
vt 0.642062 0.791726
vt 0.648523 0.877957
vt 0.778029 0.111667
vt 0.809426 0.219523
vt 0.794923 0.307783
vt 0.772028 0.454562
vt 0.796846 0.533374
vt 0.807262 0.663157
vt 0.778581 0.821037
vt 0.775122 0.858219
vt 0.890224 0.104741
vt 0.865679 0.23076
vt 0.887326 0.334104
vt 0.881307 0.429754
vt 0.887973 0.53063
vt 0.918106 0.681428
vt 0.915043 0.778027
vt 0.904815 0.89094
vn 0.158938 0.172633 0.972078
vn -0.0209479 0.0321411 0.999264
vn 0.00589631 -0.1543 0.988007
vn -0.0119969 -0.128421 0.991647
vn 0.0517448 0.0746749 0.995865
vn 0.0213614 0.0733666 0.997076
vn 0.0168815 0.0570796 0.998227
vn 0.0156321 0.0512126 0.998565
vn 0.0257707 0.0460347 0.998607
vn 0.00650083 0.0584932 0.998267
vn 0.00580303 0.056417 0.99839
vn 0.00215769 -0.00508717 0.999985
vn 0.215529 -0.308914 0.926347
vn 0.140583 -0.276814 0.950584
vn -0.00064855 -0.125021 0.992154
vn 0.0919334 -0.100006 0.990731
vn -0.0128737 -0.236373 0.971577
vn -0.058015 -0.261192 0.963542
vn -0.16061 -0.347133 0.923961
vn -0.243826 -0.3802 0.892187
vn 0.184821 0.112297 0.976335
vn 0.0276 0.0244944 0.999319
vn -0.0035362 0.0427769 0.999078
vn -0.02063 0.0161951 0.999656
vn 0.0168368 0.0434763 0.998913
vn 0.0142852 0.0496657 0.998664
vn 0.0096588 0.0666326 0.997731
vn 0.0444555 0.0921303 0.994754
vn 0.0117707 0.0820322 0.99656
vn 0.0641757 0.0371598 0.997247
vn 0.126308 0.000400827 0.991991
vn 0.138758 0.0191052 0.990142
vn 0.0916117 0.0286095 0.995384
vn 0.0443128 0.0133601 0.998928
vn -0.0832317 0.0747426 0.993723
vn -0.209181 0.0770155 0.974839
vn 0.0304338 0.0655643 0.997384
vn 0.0353251 0.0744346 0.9966
vn 0.00512366 0.0377366 0.999275
vn -0.00888339 0.0257372 0.999629
vn 0.011498 0.0551088 0.998414
vn 0.0568288 0.0574708 0.996728
vn 0.149244 0.119729 0.981525
vn -0.0243073 -0.148259 0.98865
vn 0.0110866 0.0667654 0.997707
vn -0.0197566 0.0335499 0.999242
vn -0.0768338 -0.00180016 0.997042
vn -0.046636 0.0406702 0.998084
vn 0.140848 0.134669 0.980829
vn 0.221937 0.165138 0.960975
vn 0.0560696 -0.028049 0.998033
vn -0.200315 -0.349509 0.915269
vn 0.00960447 0.0375829 0.999247
vn -0.0141996 0.021028 0.999678
vn 0.0400766 0.081246 0.995888
vn 0.152355 0.160762 0.975163
vn 0.133969 0.177193 0.975015
vn 0.0931787 0.0301835 0.995192
vn -0.140774 -0.251598 0.957539
vn -0.0885707 -0.294294 0.951602
vn 0.0248233 0.0410523 0.998849
vn 0.044665 0.0648986 0.996892
vn 0.0986083 0.148242 0.984023
vn 0.129787 0.197449 0.971684
vn -0.0220631 0.0701558 0.997292
vn -0.0643794 -0.0510872 0.996617
vn -0.0635118 -0.21525 0.974491
vn -0.0684197 -0.273417 0.959459
vn 0.00497117 0.017763 0.99983
vn -0.0710874 0.0986872 0.992576
vn -0.0196547 0.164496 0.986182
vn -0.0335685 0.154378 0.987441
vn -0.0149792 0.0242887 0.999593
vn -0.029294 -0.0352786 0.998948
vn 0.0324834 -0.168117 0.985232
vn 0.0497962 -0.235735 0.970541
vn 0.0335663 -0.0231097 0.999169
vn -0.0146874 -0.021275 0.999666
vn -0.124312 0.144238 0.981704
vn -0.175029 0.213262 0.961189
vn -0.147426 0.146236 0.978203
vn 0.0121043 -0.00354953 0.99992
vn 0.125417 -0.236184 0.963581
vn 0.0977605 -0.272578 0.957154
vn -0.00565866 0.0448792 0.998976
vn 0.0284666 -0.0506825 0.998309
vn 0.0256753 -0.00318437 0.999665
vn -0.147292 0.153524 0.977106
vn -0.176604 0.151257 0.972591
vn -0.180897 0.127428 0.975212
vn 0.0489276 -0.16051 0.985821
vn 0.191606 -0.387428 0.901769
vn 0.00361091 0.0404469 0.999175
vn 0.0570408 -0.0211756 0.998147
vn 0.109747 -0.0193534 0.993771
vn 0.0359614 0.0357055 0.998715
vn -0.0270903 0.0841377 0.996086
vn -0.0797249 0.0908772 0.992666
vn -0.177918 0.113237 0.977508
vn 0.0366338 -0.160881 0.986294
f 100/100/100 4/4/4 13/13/13
f 44/44/44 3/3/3 21/21/21
f 44/44/44 19/19/19 20/20/20
f 60/60/60 19/19/19 52/52/52
f 60/60/60 17/17/17 18/18/18
f 76/76/76 17/17/17 68/68/68
f 84/84/84 16/16/16 76/76/76
f 84/84/84 14/14/14 15/15/15
f 100/100/100 14/14/14 92/92/92
f 11/11/11 93/93/93 85/85/85
f 93/93/93 86/86/86 85/85/85
f 94/94/94 87/87/87 86/86/86
f 87/87/87 96/96/96 88/88/88
f 96/96/96 89/89/89 88/88/88
f 97/97/97 90/90/90 89/89/89
f 90/90/90 99/99/99 91/91/91
f 91/91/91 100/100/100 92/92/92
f 10/10/10 85/85/85 77/77/77
f 77/77/77 86/86/86 78/78/78
f 78/78/78 87/87/87 79/79/79
f 79/79/79 88/88/88 80/80/80
f 88/88/88 81/81/81 80/80/80
f 81/81/81 90/90/90 82/82/82
f 82/82/82 91/91/91 83/83/83
f 91/91/91 84/84/84 83/83/83
f 10/10/10 69/69/69 9/9/9
f 69/69/69 78/78/78 70/70/70
f 70/70/70 79/79/79 71/71/71
f 79/79/79 72/72/72 71/71/71
f 72/72/72 81/81/81 73/73/73
f 73/73/73 82/82/82 74/74/74
f 82/82/82 75/75/75 74/74/74
f 83/83/83 76/76/76 75/75/75
f 9/9/9 61/61/61 8/8/8
f 69/69/69 62/62/62 61/61/61
f 62/62/62 71/71/71 63/63/63
f 63/63/63 72/72/72 64/64/64
f 72/72/72 65/65/65 64/64/64
f 65/65/65 74/74/74 66/66/66
f 66/66/66 75/75/75 67/67/67
f 67/67/67 76/76/76 68/68/68
f 8/8/8 53/53/53 7/7/7
f 53/53/53 62/62/62 54/54/54
f 54/54/54 63/63/63 55/55/55
f 55/55/55 64/64/64 56/56/56
f 64/64/64 57/57/57 56/56/56
f 57/57/57 66/66/66 58/58/58
f 58/58/58 67/67/67 59/59/59
f 59/59/59 68/68/68 60/60/60
f 6/6/6 53/53/53 45/45/45
f 45/45/45 54/54/54 46/46/46
f 54/54/54 47/47/47 46/46/46
f 55/55/55 48/48/48 47/47/47
f 56/56/56 49/49/49 48/48/48
f 49/49/49 58/58/58 50/50/50
f 58/58/58 51/51/51 50/50/50
f 59/59/59 52/52/52 51/51/51
f 6/6/6 37/37/37 5/5/5
f 45/45/45 38/38/38 37/37/37
f 46/46/46 39/39/39 38/38/38
f 39/39/39 48/48/48 40/40/40
f 40/40/40 49/49/49 41/41/41
f 41/41/41 50/50/50 42/42/42
f 50/50/50 43/43/43 42/42/42
f 51/51/51 44/44/44 43/43/43
f 5/5/5 28/28/28 1/1/1
f 28/28/28 38/38/38 27/27/27
f 27/27/27 39/39/39 26/26/26
f 26/26/26 40/40/40 25/25/25
f 40/40/40 24/24/24 25/25/25
f 41/41/41 23/23/23 24/24/24
f 23/23/23 43/43/43 22/22/22
f 43/43/43 21/21/21 22/22/22
f 2/2/2 93/93/93 12/12/12
f 93/93/93 30/30/30 94/94/94
f 30/30/30 95/95/95 94/94/94
f 31/31/31 96/96/96 95/95/95
f 32/32/32 97/97/97 96/96/96
f 33/33/33 98/98/98 97/97/97
f 98/98/98 35/35/35 99/99/99
f 99/99/99 36/36/36 100/100/100
f 100/100/100 36/36/36 4/4/4
f 44/44/44 20/20/20 3/3/3
f 44/44/44 52/52/52 19/19/19
f 60/60/60 18/18/18 19/19/19
f 60/60/60 68/68/68 17/17/17
f 76/76/76 16/16/16 17/17/17
f 84/84/84 15/15/15 16/16/16
f 84/84/84 92/92/92 14/14/14
f 100/100/100 13/13/13 14/14/14
f 11/11/11 12/12/12 93/93/93
f 93/93/93 94/94/94 86/86/86
f 94/94/94 95/95/95 87/87/87
f 87/87/87 95/95/95 96/96/96
f 96/96/96 97/97/97 89/89/89
f 97/97/97 98/98/98 90/90/90
f 90/90/90 98/98/98 99/99/99
f 91/91/91 99/99/99 100/100/100
f 10/10/10 11/11/11 85/85/85
f 77/77/77 85/85/85 86/86/86
f 78/78/78 86/86/86 87/87/87
f 79/79/79 87/87/87 88/88/88
f 88/88/88 89/89/89 81/81/81
f 81/81/81 89/89/89 90/90/90
f 82/82/82 90/90/90 91/91/91
f 91/91/91 92/92/92 84/84/84
f 10/10/10 77/77/77 69/69/69
f 69/69/69 77/77/77 78/78/78
f 70/70/70 78/78/78 79/79/79
f 79/79/79 80/80/80 72/72/72
f 72/72/72 80/80/80 81/81/81
f 73/73/73 81/81/81 82/82/82
f 82/82/82 83/83/83 75/75/75
f 83/83/83 84/84/84 76/76/76
f 9/9/9 69/69/69 61/61/61
f 69/69/69 70/70/70 62/62/62
f 62/62/62 70/70/70 71/71/71
f 63/63/63 71/71/71 72/72/72
f 72/72/72 73/73/73 65/65/65
f 65/65/65 73/73/73 74/74/74
f 66/66/66 74/74/74 75/75/75
f 67/67/67 75/75/75 76/76/76
f 8/8/8 61/61/61 53/53/53
f 53/53/53 61/61/61 62/62/62
f 54/54/54 62/62/62 63/63/63
f 55/55/55 63/63/63 64/64/64
f 64/64/64 65/65/65 57/57/57
f 57/57/57 65/65/65 66/66/66
f 58/58/58 66/66/66 67/67/67
f 59/59/59 67/67/67 68/68/68
f 6/6/6 7/7/7 53/53/53
f 45/45/45 53/53/53 54/54/54
f 54/54/54 55/55/55 47/47/47
f 55/55/55 56/56/56 48/48/48
f 56/56/56 57/57/57 49/49/49
f 49/49/49 57/57/57 58/58/58
f 58/58/58 59/59/59 51/51/51
f 59/59/59 60/60/60 52/52/52
f 6/6/6 45/45/45 37/37/37
f 45/45/45 46/46/46 38/38/38
f 46/46/46 47/47/47 39/39/39
f 39/39/39 47/47/47 48/48/48
f 40/40/40 48/48/48 49/49/49
f 41/41/41 49/49/49 50/50/50
f 50/50/50 51/51/51 43/43/43
f 51/51/51 52/52/52 44/44/44
f 5/5/5 37/37/37 28/28/28
f 28/28/28 37/37/37 38/38/38
f 27/27/27 38/38/38 39/39/39
f 26/26/26 39/39/39 40/40/40
f 40/40/40 41/41/41 24/24/24
f 41/41/41 42/42/42 23/23/23
f 23/23/23 42/42/42 43/43/43
f 43/43/43 44/44/44 21/21/21
f 2/2/2 29/29/29 93/93/93
f 93/93/93 29/29/29 30/30/30
f 30/30/30 31/31/31 95/95/95
f 31/31/31 32/32/32 96/96/96
f 32/32/32 33/33/33 97/97/97
f 33/33/33 34/34/34 98/98/98
f 98/98/98 34/34/34 35/35/35
f 99/99/99 35/35/35 36/36/36
