o GNATVCloth
v -5.00222 -5.00755 0.173752
v 5.15363 -5.00815 0.164803
v -5.01298 5.02105 0.004229
v 4.98702 5.02105 0.004229
v -3.88349 -5.05354 0.133411
v -2.76026 -5.09881 0.10098
v -1.62966 -5.13256 0.118554
v -0.496019 -5.16652 0.111322
v 0.642917 -5.1702 0.0500609
v 1.77713 -5.15146 0.0807319
v 2.90734 -5.11484 0.117735
v 4.03341 -5.05358 0.157762
v 3.85909 4.92515 0.119555
v 2.74109 4.83182 0.10238
v 1.66427 4.77628 0.141645
v 0.610327 4.73863 0.1131
v -0.464117 4.7717 0.0841245
v -1.58674 4.82346 0.155791
v -2.7181 4.8963 0.107871
v -3.85895 4.95506 0.0737613
v -4.97381 3.90446 0.0326632
v -4.96374 2.78802 0.0733878
v -4.95881 1.67209 0.114499
v -4.95685 0.556133 0.13148
v -4.95847 -0.55908 0.134464
v -4.96345 -1.67279 0.13728
v -4.97119 -2.78683 0.130297
v -4.97996 -3.90156 0.119569
v 5.12555 -3.8996 0.150567
v 5.11665 -2.7872 0.097578
v 5.10356 -1.67441 0.115863
v 5.08787 -0.560288 0.121047
v 5.07287 0.554878 0.127935
v 5.05726 1.67143 0.117153
v 5.03845 2.78803 0.0871638
v 5.01336 3.9046 0.0485287
v -3.79966 -3.90516 0.103979
v -3.76046 -3.25811 0.0869707
v -3.61483 -1.9696 0.0633815
v -4.07169 -0.303083 0.0716949
v -4.10027 0.714628 0.0805956
v -4.09646 1.49979 0.0930016
v -4.04148 2.79244 0.0728996
v -3.8962 3.87786 0.0496626
v -2.66501 -4.07797 0.0923404
v -2.73936 -2.80973 0.0923156
v -2.61885 -2.22335 0.0831748
v -2.69657 -0.676295 0.0902376
v -2.73763 0.457065 0.0799159
v -2.67547 1.50437 0.0814271
v -2.80656 2.85108 0.0801794
v -2.70042 3.5487 0.0911274
v -1.59879 -4.33048 0.0669757
v -1.4332 -3.01665 0.0591477
v -1.82744 -1.71971 0.112548
v -1.81502 -0.921621 0.110473
v -1.46911 0.568802 0.0786453
v -1.93588 1.63724 0.0768005
v -1.6591 2.67854 0.0809809
v -1.49344 3.69626 0.0792774
v -0.162387 -4.43846 0.0826423
v -0.51477 -2.99591 0.0680667
v -0.476156 -1.85297 0.0815679
v -0.775652 -0.869987 0.0789167
v -0.545726 0.345031 0.0813351
v -0.313668 1.37445 0.0846163
v -0.504287 2.57541 0.079402
v -0.67867 3.46974 0.0897729
v 0.818457 -4.01565 0.0684789
v 0.893393 -2.72325 0.0980587
v 0.602334 -1.93749 0.0987748
v 0.68253 -0.600953 0.0584967
v 0.649839 0.307272 0.0868528
v 0.358363 1.41451 0.09295
v 0.587322 2.38801 0.0879166
v 0.608812 3.64004 0.0824239
v 2.04442 -3.75196 0.102629
v 1.76297 -2.94625 0.0826272
v 1.90957 -2.01415 0.0741872
v 2.0612 -0.482716 0.103299
v 2.04349 0.204516 0.0733487
v 1.885 1.45741 0.0583871
v 1.47637 2.72428 0.096042
v 1.52015 3.55603 0.0748896
v 2.89359 -3.99817 0.0906801
v 3.20103 -2.90696 0.0982904
v 3.04949 -2.03205 0.0657607
v 2.80439 -0.574742 0.0843826
v 3.04452 0.226512 0.095296
v 3.13158 1.52926 0.066277
v 2.81294 3.08308 0.0772506
v 2.76633 3.44622 0.113672
v 4.02698 -4.0162 0.0623334
v 3.76696 -2.76799 0.108508
v 3.97537 -1.72194 0.101785
v 3.90417 -0.769181 0.067053
v 3.95746 0.243961 0.0860337
v 4.23858 1.76966 0.0803514
v 4.18838 2.73452 0.0755624
v 4.05822 3.85739 0.0618246
vt 0.0001 0.0001
vt 0.9999 0.0001
vt 0.0001 0.9999
vt 0.9999 0.9999
vt 0.111189 0.0001
vt 0.222278 0.0001
vt 0.333367 0.0001
vt 0.444455 0.0001
vt 0.555544 0.0001
vt 0.666633 0.0001
vt 0.777722 0.0001
vt 0.888811 0.0001
vt 0.888811 0.9999
vt 0.777722 0.9999
vt 0.666633 0.9999
vt 0.555544 0.9999
vt 0.444455 0.9999
vt 0.333367 0.9999
vt 0.222278 0.9999
vt 0.111189 0.9999
vt 0.0001 0.888811
vt 0.0001 0.777722
vt 0.0001 0.666633
vt 0.0001 0.555544
vt 0.0001 0.444456
vt 0.0001 0.333367
vt 0.0001 0.222278
vt 0.0001 0.111189
vt 0.9999 0.111189
vt 0.9999 0.222278
vt 0.9999 0.333367
vt 0.9999 0.444456
vt 0.9999 0.555544
vt 0.9999 0.666633
vt 0.9999 0.777722
vt 0.9999 0.888811
vt 0.11727 0.115399
vt 0.120778 0.180369
vt 0.134636 0.309595
vt 0.088728 0.473895
vt 0.085886 0.575352
vt 0.086211 0.65375
vt 0.092207 0.78313
vt 0.106956 0.892282
vt 0.22987 0.102869
vt 0.221803 0.229552
vt 0.233521 0.288953
vt 0.225541 0.443179
vt 0.221596 0.556167
vt 0.227801 0.661237
vt 0.214896 0.795203
vt 0.22542 0.865181
vt 0.335524 0.082127
vt 0.351143 0.213907
vt 0.311934 0.342467
vt 0.313159 0.422214
vt 0.347791 0.572605
vt 0.301482 0.677733
vt 0.329031 0.783086
vt 0.344903 0.885466
vt 0.476837 0.074882
vt 0.441952 0.218774
vt 0.445749 0.333088
vt 0.416414 0.43099
vt 0.439746 0.552976
vt 0.463203 0.656843
vt 0.444252 0.77653
vt 0.426137 0.866051
vt 0.573419 0.117409
vt 0.581125 0.246686
vt 0.552512 0.326
vt 0.561075 0.459693
vt 0.558356 0.550596
vt 0.530299 0.662189
vt 0.553275 0.760113
vt 0.555478 0.888821
vt 0.694433 0.13996
vt 0.667048 0.221666
vt 0.681985 0.314267
vt 0.698218 0.467249
vt 0.696819 0.535952
vt 0.68253 0.662758
vt 0.642062 0.791726
vt 0.648523 0.877957
vt 0.778029 0.111667
vt 0.809426 0.219523
vt 0.794923 0.307783
vt 0.772028 0.454562
vt 0.796846 0.533374
vt 0.807262 0.663157
vt 0.778581 0.821037
vt 0.775122 0.858219
vt 0.890224 0.104741
vt 0.865679 0.23076
vt 0.887326 0.334104
vt 0.881307 0.429754
vt 0.887973 0.53063
vt 0.918106 0.681428
vt 0.915043 0.778027
vt 0.904815 0.89094
vn 0.0379708 0.0481344 0.998119
vn -0.0456456 0.0512138 0.997644
vn -0.0382373 0.00235957 0.999266
vn 0.0583388 0.00284632 0.998293
vn 0.0270182 0.0320766 0.99912
vn 0.0132128 0.0254183 0.99959
vn -0.00265 0.0642745 0.997929
vn 0.0181288 0.0404962 0.999015
vn 0.016584 -0.00553007 0.999847
vn -0.0192088 -0.00405187 0.999807
vn -0.0161593 0.0465779 0.998784
vn -0.0251553 0.0914197 0.995495
vn 0.0470169 -0.0451835 0.997872
vn 0.00891392 -0.0247194 0.999655
vn 0.00711935 -0.0554618 0.998435
vn -0.0157725 -0.0358139 0.999234
vn 0.00675386 -0.0202209 0.999773
vn 0.00696215 -0.0671479 0.997719
vn -0.0261803 -0.0295111 0.999222
vn -0.0461328 -0.020748 0.99872
vn -0.00999681 0.0282719 0.99955
vn 0.000353463 0.0366365 0.999329
vn 0.0265988 0.0126468 0.999566
vn 0.0623153 0.00360981 0.99805
vn 0.0699197 0.00238853 0.99755
vn 0.0600958 0.00208029 0.99819
vn 0.0420861 -0.000950003 0.999114
vn 0.0241199 0.0221022 0.999465
vn -0.0830573 0.0287413 0.99613
vn -0.0202545 -0.000105876 0.999795
vn -0.0234665 0.00451531 0.999714
vn -0.0409954 -0.00946706 0.999115
vn -0.0400573 0.00453167 0.999187
vn -0.0427948 0.0175784 0.998929
vn -0.0238268 0.0215309 0.999484
vn 0.00312708 0.0293096 0.999565
vn 0.0163734 0.0212761 0.99964
vn 0.013557 0.0123816 0.999831
vn 0.0121465 0.00589406 0.999909
vn 0.0327624 -0.000149814 0.999463
vn 0.0243539 -0.00562061 0.999688
vn 0.0164575 -0.00054311 0.999864
vn 0.00121912 0.0212827 0.999773
vn -0.0293181 0.000899039 0.99957
vn 0.0159539 0.00717436 0.999847
vn 0.00368472 0.00997192 0.999943
vn -0.0103449 -0.00541107 0.999932
vn -0.0207235 -0.000206278 0.999785
vn -0.00373951 0.00409105 0.999985
vn 0.00386213 -0.000343911 0.999992
vn -0.00808849 -0.000786198 0.999967
vn -0.0114965 -0.0100707 0.999883
vn 0.00235927 0.0278948 0.999608
vn 0.00972289 -0.00986031 0.999904
vn 0.00153126 -0.0117255 0.99993
vn 0.00324459 0.00989409 0.999946
vn 0.00298722 0.00565505 0.99998
vn 0.00057336 -0.000419233 1
vn -0.000831449 -0.00517356 0.999986
vn 0.00200015 -0.0227758 0.999739
vn 0.0135395 0.0116188 0.999841
vn -0.0105905 -0.00367492 0.999937
vn 0.00272058 -0.00174481 0.999995
vn 0.0180347 0.00449765 0.999827
vn -0.00244386 -0.00786166 0.999966
vn -0.00751975 0.00197653 0.99997
vn -0.00168657 -0.00244268 0.999996
vn -0.00207923 -0.0016982 0.999996
vn -0.00809544 -0.00873516 0.999929
vn 0.00267992 -0.00829174 0.999962
vn -0.00208045 0.0093141 0.999955
vn -0.003848 0.0032421 0.999987
vn 0.00605316 -0.0110793 0.99992
vn 0.00303372 0.000264145 0.999995
vn -0.00225415 -0.001465 0.999996
vn -0.00244974 -0.00408388 0.999989
vn -0.00953733 -0.0006796 0.999954
vn -0.00261063 0.0100506 0.999946
vn 0.00934075 3.25917e-05 0.999956
vn -0.00337791 0.012442 0.999917
vn -0.00547266 0.013861 0.999889
vn 0.00932392 -0.00512872 0.999943
vn 0.00583538 0.000440352 0.999983
vn -0.00469005 -0.0266231 0.999635
vn 0.00737304 0.00137841 0.999972
vn -0.00366294 0.00429395 0.999984
vn -0.01472 0.0145004 0.999786
vn 0.0109612 -0.00391094 0.999932
vn -0.00225718 0.000317779 0.999997
vn -0.00769213 0.00736766 0.999943
vn 0.00775979 -0.0281097 0.999575
vn 0.00889052 -0.0449161 0.998951
vn -0.020938 0.0221366 0.999536
vn -0.0125625 -0.0043058 0.999912
vn -0.0222696 0.0142987 0.99965
vn -0.0162873 -0.000118583 0.999867
vn -0.0188148 -0.00054282 0.999823
vn -0.0279833 0.0101979 0.999556
vn -0.00437378 0.0103428 0.999937
vn 0.0328503 -0.0151338 0.999346
f 100/100/100 4/4/4 13/13/13
f 44/44/44 3/3/3 21/21/21
f 44/44/44 19/19/19 20/20/20
f 60/60/60 19/19/19 52/52/52
f 60/60/60 17/17/17 18/18/18
f 76/76/76 17/17/17 68/68/68
f 84/84/84 16/16/16 76/76/76
f 84/84/84 14/14/14 15/15/15
f 100/100/100 14/14/14 92/92/92
f 11/11/11 93/93/93 85/85/85
f 93/93/93 86/86/86 85/85/85
f 94/94/94 87/87/87 86/86/86
f 87/87/87 96/96/96 88/88/88
f 96/96/96 89/89/89 88/88/88
f 97/97/97 90/90/90 89/89/89
f 90/90/90 99/99/99 91/91/91
f 91/91/91 100/100/100 92/92/92
f 10/10/10 85/85/85 77/77/77
f 77/77/77 86/86/86 78/78/78
f 78/78/78 87/87/87 79/79/79
f 79/79/79 88/88/88 80/80/80
f 88/88/88 81/81/81 80/80/80
f 81/81/81 90/90/90 82/82/82
f 82/82/82 91/91/91 83/83/83
f 91/91/91 84/84/84 83/83/83
f 10/10/10 69/69/69 9/9/9
f 69/69/69 78/78/78 70/70/70
f 70/70/70 79/79/79 71/71/71
f 79/79/79 72/72/72 71/71/71
f 72/72/72 81/81/81 73/73/73
f 73/73/73 82/82/82 74/74/74
f 82/82/82 75/75/75 74/74/74
f 83/83/83 76/76/76 75/75/75
f 9/9/9 61/61/61 8/8/8
f 69/69/69 62/62/62 61/61/61
f 62/62/62 71/71/71 63/63/63
f 63/63/63 72/72/72 64/64/64
f 72/72/72 65/65/65 64/64/64
f 65/65/65 74/74/74 66/66/66
f 66/66/66 75/75/75 67/67/67
f 67/67/67 76/76/76 68/68/68
f 8/8/8 53/53/53 7/7/7
f 53/53/53 62/62/62 54/54/54
f 54/54/54 63/63/63 55/55/55
f 55/55/55 64/64/64 56/56/56
f 64/64/64 57/57/57 56/56/56
f 57/57/57 66/66/66 58/58/58
f 58/58/58 67/67/67 59/59/59
f 59/59/59 68/68/68 60/60/60
f 6/6/6 53/53/53 45/45/45
f 45/45/45 54/54/54 46/46/46
f 54/54/54 47/47/47 46/46/46
f 55/55/55 48/48/48 47/47/47
f 56/56/56 49/49/49 48/48/48
f 49/49/49 58/58/58 50/50/50
f 58/58/58 51/51/51 50/50/50
f 59/59/59 52/52/52 51/51/51
f 6/6/6 37/37/37 5/5/5
f 45/45/45 38/38/38 37/37/37
f 46/46/46 39/39/39 38/38/38
f 39/39/39 48/48/48 40/40/40
f 40/40/40 49/49/49 41/41/41
f 41/41/41 50/50/50 42/42/42
f 50/50/50 43/43/43 42/42/42
f 51/51/51 44/44/44 43/43/43
f 5/5/5 28/28/28 1/1/1
f 28/28/28 38/38/38 27/27/27
f 27/27/27 39/39/39 26/26/26
f 26/26/26 40/40/40 25/25/25
f 40/40/40 24/24/24 25/25/25
f 41/41/41 23/23/23 24/24/24
f 23/23/23 43/43/43 22/22/22
f 43/43/43 21/21/21 22/22/22
f 2/2/2 93/93/93 12/12/12
f 93/93/93 30/30/30 94/94/94
f 30/30/30 95/95/95 94/94/94
f 31/31/31 96/96/96 95/95/95
f 32/32/32 97/97/97 96/96/96
f 33/33/33 98/98/98 97/97/97
f 98/98/98 35/35/35 99/99/99
f 99/99/99 36/36/36 100/100/100
f 100/100/100 36/36/36 4/4/4
f 44/44/44 20/20/20 3/3/3
f 44/44/44 52/52/52 19/19/19
f 60/60/60 18/18/18 19/19/19
f 60/60/60 68/68/68 17/17/17
f 76/76/76 16/16/16 17/17/17
f 84/84/84 15/15/15 16/16/16
f 84/84/84 92/92/92 14/14/14
f 100/100/100 13/13/13 14/14/14
f 11/11/11 12/12/12 93/93/93
f 93/93/93 94/94/94 86/86/86
f 94/94/94 95/95/95 87/87/87
f 87/87/87 95/95/95 96/96/96
f 96/96/96 97/97/97 89/89/89
f 97/97/97 98/98/98 90/90/90
f 90/90/90 98/98/98 99/99/99
f 91/91/91 99/99/99 100/100/100
f 10/10/10 11/11/11 85/85/85
f 77/77/77 85/85/85 86/86/86
f 78/78/78 86/86/86 87/87/87
f 79/79/79 87/87/87 88/88/88
f 88/88/88 89/89/89 81/81/81
f 81/81/81 89/89/89 90/90/90
f 82/82/82 90/90/90 91/91/91
f 91/91/91 92/92/92 84/84/84
f 10/10/10 77/77/77 69/69/69
f 69/69/69 77/77/77 78/78/78
f 70/70/70 78/78/78 79/79/79
f 79/79/79 80/80/80 72/72/72
f 72/72/72 80/80/80 81/81/81
f 73/73/73 81/81/81 82/82/82
f 82/82/82 83/83/83 75/75/75
f 83/83/83 84/84/84 76/76/76
f 9/9/9 69/69/69 61/61/61
f 69/69/69 70/70/70 62/62/62
f 62/62/62 70/70/70 71/71/71
f 63/63/63 71/71/71 72/72/72
f 72/72/72 73/73/73 65/65/65
f 65/65/65 73/73/73 74/74/74
f 66/66/66 74/74/74 75/75/75
f 67/67/67 75/75/75 76/76/76
f 8/8/8 61/61/61 53/53/53
f 53/53/53 61/61/61 62/62/62
f 54/54/54 62/62/62 63/63/63
f 55/55/55 63/63/63 64/64/64
f 64/64/64 65/65/65 57/57/57
f 57/57/57 65/65/65 66/66/66
f 58/58/58 66/66/66 67/67/67
f 59/59/59 67/67/67 68/68/68
f 6/6/6 7/7/7 53/53/53
f 45/45/45 53/53/53 54/54/54
f 54/54/54 55/55/55 47/47/47
f 55/55/55 56/56/56 48/48/48
f 56/56/56 57/57/57 49/49/49
f 49/49/49 57/57/57 58/58/58
f 58/58/58 59/59/59 51/51/51
f 59/59/59 60/60/60 52/52/52
f 6/6/6 45/45/45 37/37/37
f 45/45/45 46/46/46 38/38/38
f 46/46/46 47/47/47 39/39/39
f 39/39/39 47/47/47 48/48/48
f 40/40/40 48/48/48 49/49/49
f 41/41/41 49/49/49 50/50/50
f 50/50/50 51/51/51 43/43/43
f 51/51/51 52/52/52 44/44/44
f 5/5/5 37/37/37 28/28/28
f 28/28/28 37/37/37 38/38/38
f 27/27/27 38/38/38 39/39/39
f 26/26/26 39/39/39 40/40/40
f 40/40/40 41/41/41 24/24/24
f 41/41/41 42/42/42 23/23/23
f 23/23/23 42/42/42 43/43/43
f 43/43/43 44/44/44 21/21/21
f 2/2/2 29/29/29 93/93/93
f 93/93/93 29/29/29 30/30/30
f 30/30/30 31/31/31 95/95/95
f 31/31/31 32/32/32 96/96/96
f 32/32/32 33/33/33 97/97/97
f 33/33/33 34/34/34 98/98/98
f 98/98/98 34/34/34 35/35/35
f 99/99/99 35/35/35 36/36/36
