o GNATVCloth
v -5.05062 -4.98645 0.565916
v 4.98718 -4.98669 0.410694
v -5.01298 5.02105 0.004229
v 4.98702 5.02105 0.004229
v -3.93946 -5.00698 0.550151
v -2.8273 -5.0394 0.477299
v -1.70753 -5.04885 0.485846
v -0.587031 -5.05355 0.496043
v 0.534701 -5.06082 0.454449
v 1.65496 -5.0534 0.475237
v 2.7705 -5.03354 0.459116
v 3.88403 -4.98936 0.502576
v 3.86046 4.94101 0.129613
v 2.74821 4.88278 0.280564
v 1.63226 4.84513 0.351516
v 0.518615 4.81984 0.371578
v -0.59412 4.80206 0.448989
v -1.71316 4.80399 0.488063
v -2.83248 4.8084 0.56011
v -3.93033 4.89074 0.325477
v -5.00052 3.9068 0.0709338
v -5.00614 2.79297 0.138032
v -5.01405 1.6798 0.207583
v -5.01876 0.56557 0.250335
v -5.02211 -0.546626 0.311937
v -5.02622 -1.65779 0.372988
v -5.03184 -2.77016 0.434553
v -5.03413 -3.87445 0.53014
v 4.97552 -3.88315 0.289404
v 4.96954 -2.7716 0.31737
v 4.9654 -1.66011 0.269951
v 4.96325 -0.547943 0.22576
v 4.96521 0.564969 0.209669
v 4.96498 1.67882 0.177294
v 4.96687 2.7933 0.140006
v 4.96802 3.90675 0.0699273
v -3.87758 -3.88147 0.321058
v -3.83889 -3.23507 0.278302
v -3.68881 -1.94579 0.241517
v -4.13967 -0.287056 0.202439
v -4.16175 0.728995 0.212975
v -4.15434 1.51325 0.150798
v -4.08639 2.80485 0.0539696
v -3.93128 3.88547 -0.0588542
v -2.74553 -4.03355 0.281368
v -2.82251 -2.77113 0.316699
v -2.6994 -2.18119 0.28694
v -2.77396 -0.637878 0.312182
v -2.80432 0.491783 0.224365
v -2.73224 1.52897 0.0734689
v -2.85517 2.86548 -0.0622369
v -2.75145 3.54907 0.0863741
v -1.68294 -4.26023 0.330308
v -1.52637 -2.94952 0.396131
v -1.91773 -1.65955 0.405481
v -1.89738 -0.865706 0.363735
v -1.53881 0.613036 0.121751
v -1.9961 1.65724 -0.0497814
v -1.72496 2.69684 0.097063
v -1.58978 3.65873 0.451515
v -0.259907 -4.34074 0.386317
v -0.613059 -2.90504 0.441256
v -0.573175 -1.76602 0.489076
v -0.860674 -0.799587 0.33166
v -0.616155 0.401695 0.163709
v -0.378418 1.42494 0.156034
v -0.573962 2.60652 0.184943
v -0.767139 3.46762 0.411929
v 0.708147 -3.90528 0.409925
v 0.788567 -2.62248 0.528192
v 0.502008 -1.83748 0.4768
v 0.591599 -0.514566 0.306349
v 0.573238 0.380848 0.25411
v 0.292004 1.48446 0.243511
v 0.519953 2.44252 0.237767
v 0.535487 3.70742 0.405069
v 1.91837 -3.64993 0.429056
v 1.63519 -2.84586 0.328841
v 1.80376 -1.93423 0.466978
v 1.96361 -0.425847 0.181171
v 1.94934 0.247052 0.0267955
v 1.82327 1.50584 0.151371
v 1.40725 2.77728 0.220198
v 1.47517 3.62145 0.378203
v 2.75877 -3.92014 0.410524
v 3.06268 -2.83712 0.320337
v 2.9154 -1.96155 0.241546
v 2.68979 -0.500191 0.344485
v 2.93265 0.292704 0.244817
v 3.0587 1.5555 -0.063104
v 2.75374 3.12323 -0.007875
v 2.73095 3.47553 0.111497
v 3.87776 -3.971 0.293977
v 3.6257 -2.71567 0.328505
v 3.83892 -1.67749 0.28814
v 3.77905 -0.722847 0.286129
v 3.84576 0.290065 0.297666
v 4.14623 1.80055 0.156436
v 4.13174 2.75019 -0.0199428
v 4.01956 3.87654 -0.0640511
vt 0.0001 0.0001
vt 0.9999 0.0001
vt 0.0001 0.9999
vt 0.9999 0.9999
vt 0.111189 0.0001
vt 0.222278 0.0001
vt 0.333367 0.0001
vt 0.444455 0.0001
vt 0.555544 0.0001
vt 0.666633 0.0001
vt 0.777722 0.0001
vt 0.888811 0.0001
vt 0.888811 0.9999
vt 0.777722 0.9999
vt 0.666633 0.9999
vt 0.555544 0.9999
vt 0.444455 0.9999
vt 0.333367 0.9999
vt 0.222278 0.9999
vt 0.111189 0.9999
vt 0.0001 0.888811
vt 0.0001 0.777722
vt 0.0001 0.666633
vt 0.0001 0.555544
vt 0.0001 0.444456
vt 0.0001 0.333367
vt 0.0001 0.222278
vt 0.0001 0.111189
vt 0.9999 0.111189
vt 0.9999 0.222278
vt 0.9999 0.333367
vt 0.9999 0.444456
vt 0.9999 0.555544
vt 0.9999 0.666633
vt 0.9999 0.777722
vt 0.9999 0.888811
vt 0.11727 0.115399
vt 0.120778 0.180369
vt 0.134636 0.309595
vt 0.088728 0.473895
vt 0.085886 0.575352
vt 0.086211 0.65375
vt 0.092207 0.78313
vt 0.106956 0.892282
vt 0.22987 0.102869
vt 0.221803 0.229552
vt 0.233521 0.288953
vt 0.225541 0.443179
vt 0.221596 0.556167
vt 0.227801 0.661237
vt 0.214896 0.795203
vt 0.22542 0.865181
vt 0.335524 0.082127
vt 0.351143 0.213907
vt 0.311934 0.342467
vt 0.313159 0.422214
vt 0.347791 0.572605
vt 0.301482 0.677733
vt 0.329031 0.783086
vt 0.344903 0.885466
vt 0.476837 0.074882
vt 0.441952 0.218774
vt 0.445749 0.333088
vt 0.416414 0.43099
vt 0.439746 0.552976
vt 0.463203 0.656843
vt 0.444252 0.77653
vt 0.426137 0.866051
vt 0.573419 0.117409
vt 0.581125 0.246686
vt 0.552512 0.326
vt 0.561075 0.459693
vt 0.558356 0.550596
vt 0.530299 0.662189
vt 0.553275 0.760113
vt 0.555478 0.888821
vt 0.694433 0.13996
vt 0.667048 0.221666
vt 0.681985 0.314267
vt 0.698218 0.467249
vt 0.696819 0.535952
vt 0.68253 0.662758
vt 0.642062 0.791726
vt 0.648523 0.877957
vt 0.778029 0.111667
vt 0.809426 0.219523
vt 0.794923 0.307783
vt 0.772028 0.454562
vt 0.796846 0.533374
vt 0.807262 0.663157
vt 0.778581 0.821037
vt 0.775122 0.858219
vt 0.890224 0.104741
vt 0.865679 0.23076
vt 0.887326 0.334104
vt 0.881307 0.429754
vt 0.887973 0.53063
vt 0.918106 0.681428
vt 0.915043 0.778027
vt 0.904815 0.89094
vn 0.0147687 0.0319338 0.999381
vn 0.0381953 0.155157 0.987151
vn -0.0960412 -0.14618 0.984585
vn -0.0107001 -0.0505343 0.998665
vn 0.0872498 0.138808 0.986468
vn 0.0297626 0.191794 0.980984
vn -0.00698413 0.193704 0.981035
vn 8.33607e-06 0.164835 0.986321
vn -0.00863687 0.0739918 0.997221
vn 0.000482286 0.0373792 0.999301
vn 0.0244511 0.0965844 0.995024
vn 0.0173836 0.200743 0.97949
vn 0.130657 -0.158525 0.978672
vn 0.142302 -0.0958428 0.985172
vn 0.0402862 0.0166163 0.99905
vn 0.0392751 0.0270612 0.998862
vn 0.0387042 -0.0148013 0.999141
vn 0.0494804 -0.026532 0.998423
vn -0.157991 -0.276287 0.948
vn -0.263109 -0.344309 0.901235
vn 0.111122 0.0686363 0.991434
vn 0.0900768 0.0604508 0.994099
vn 0.0716166 0.0620258 0.995502
vn 0.0629523 0.0278418 0.997628
vn 0.107181 0.0544061 0.99275
vn 0.10851 0.0538462 0.992636
vn 0.135349 0.0506137 0.989504
vn 0.133152 0.0898994 0.98701
vn 0.000789711 0.0421386 0.999111
vn 0.00966968 0.00709035 0.999928
vn 0.0255351 0.0285214 0.999267
vn 0.0576807 0.0130588 0.99825
vn 0.0373617 0.0416467 0.998434
vn -0.020811 0.0312551 0.999295
vn -0.1358 0.0910175 0.986547
vn -0.157713 0.0491152 0.986263
vn 0.105698 0.137779 0.984807
vn 0.0736984 0.0368952 0.996598
vn 0.0196869 0.0279474 0.999416
vn 0.0312933 0.0314572 0.999015
vn 0.0370718 0.0530085 0.997906
vn 0.0666782 0.0746754 0.994976
vn 0.08743 0.0783536 0.993084
vn -0.085734 -0.14687 0.985433
vn -0.00780159 0.056387 0.998379
vn -0.0456934 0.0183535 0.998787
vn -0.0784082 0.00659594 0.996899
vn -0.0682613 0.0277251 0.997282
vn 0.0252176 0.107677 0.993866
vn 0.0830125 0.108124 0.990665
vn -0.0283843 -0.026554 0.999244
vn -0.212686 -0.277662 0.93684
vn -0.027639 0.0874146 0.995789
vn -0.0647868 -0.024233 0.997605
vn -0.0647807 0.0264553 0.997549
vn 0.00616721 0.0969703 0.995268
vn -0.00255663 0.127519 0.991833
vn -0.0191959 0.0413935 0.998959
vn -0.132763 -0.221349 0.966115
vn -0.0688995 -0.184706 0.980376
vn -0.0170709 0.0516708 0.998518
vn -0.03546 -0.0378291 0.998655
vn -0.0245439 0.0536113 0.99826
vn -0.00639355 0.132268 0.991193
vn -0.0581187 0.064109 0.996249
vn -0.100494 0.0213545 0.994709
vn -0.0640955 -0.141601 0.987847
vn -0.00557492 -0.186082 0.982518
vn 0.00373839 0.000368842 0.999993
vn 0.0569529 -0.0529037 0.996974
vn -0.00238413 0.0642759 0.997929
vn 0.0324535 0.134251 0.990416
vn 0.046764 0.0101673 0.998854
vn -0.0444344 0.0165485 0.998875
vn -0.0147065 -0.0515897 0.99856
vn 0.0250145 -0.0945737 0.995203
vn 0.00358992 0.0741759 0.997239
vn 0.0922107 -0.0233013 0.995467
vn 0.0702082 0.0257798 0.997199
vn -0.0595927 0.206967 0.976531
vn -0.00936377 0.114157 0.993419
vn 0.117675 -0.0268999 0.992688
vn 0.0997068 -0.111473 0.988753
vn 0.0999671 -0.107439 0.989173
vn 0.0601218 0.0477933 0.997046
vn 0.0200709 0.0658797 0.997626
vn 0.0411734 -0.00836462 0.999117
vn -0.0505288 0.102955 0.993402
vn -0.0972416 0.156971 0.982804
vn -0.0569381 0.100252 0.993332
vn 0.137974 -0.115586 0.983668
vn 0.187577 -0.212591 0.958968
vn 0.0309944 0.0662463 0.997322
vn -0.018062 0.0236646 0.999557
vn -0.0150274 0.026817 0.999527
vn 0.017279 0.00822103 0.999817
vn -0.0256167 0.0757496 0.996798
vn -0.106753 0.105824 0.988638
vn -0.124106 0.074392 0.989476
vn 0.056613 -0.0887367 0.994445
f 100/100/100 4/4/4 13/13/13
f 44/44/44 3/3/3 21/21/21
f 44/44/44 19/19/19 20/20/20
f 60/60/60 19/19/19 52/52/52
f 60/60/60 17/17/17 18/18/18
f 76/76/76 17/17/17 68/68/68
f 84/84/84 16/16/16 76/76/76
f 84/84/84 14/14/14 15/15/15
f 100/100/100 14/14/14 92/92/92
f 11/11/11 93/93/93 85/85/85
f 93/93/93 86/86/86 85/85/85
f 94/94/94 87/87/87 86/86/86
f 87/87/87 96/96/96 88/88/88
f 96/96/96 89/89/89 88/88/88
f 97/97/97 90/90/90 89/89/89
f 90/90/90 99/99/99 91/91/91
f 91/91/91 100/100/100 92/92/92
f 10/10/10 85/85/85 77/77/77
f 77/77/77 86/86/86 78/78/78
f 78/78/78 87/87/87 79/79/79
f 79/79/79 88/88/88 80/80/80
f 88/88/88 81/81/81 80/80/80
f 81/81/81 90/90/90 82/82/82
f 82/82/82 91/91/91 83/83/83
f 91/91/91 84/84/84 83/83/83
f 10/10/10 69/69/69 9/9/9
f 69/69/69 78/78/78 70/70/70
f 70/70/70 79/79/79 71/71/71
f 79/79/79 72/72/72 71/71/71
f 72/72/72 81/81/81 73/73/73
f 73/73/73 82/82/82 74/74/74
f 82/82/82 75/75/75 74/74/74
f 83/83/83 76/76/76 75/75/75
f 9/9/9 61/61/61 8/8/8
f 69/69/69 62/62/62 61/61/61
f 62/62/62 71/71/71 63/63/63
f 63/63/63 72/72/72 64/64/64
f 72/72/72 65/65/65 64/64/64
f 65/65/65 74/74/74 66/66/66
f 66/66/66 75/75/75 67/67/67
f 67/67/67 76/76/76 68/68/68
f 8/8/8 53/53/53 7/7/7
f 53/53/53 62/62/62 54/54/54
f 54/54/54 63/63/63 55/55/55
f 55/55/55 64/64/64 56/56/56
f 64/64/64 57/57/57 56/56/56
f 57/57/57 66/66/66 58/58/58
f 58/58/58 67/67/67 59/59/59
f 59/59/59 68/68/68 60/60/60
f 6/6/6 53/53/53 45/45/45
f 45/45/45 54/54/54 46/46/46
f 54/54/54 47/47/47 46/46/46
f 55/55/55 48/48/48 47/47/47
f 56/56/56 49/49/49 48/48/48
f 49/49/49 58/58/58 50/50/50
f 58/58/58 51/51/51 50/50/50
f 59/59/59 52/52/52 51/51/51
f 6/6/6 37/37/37 5/5/5
f 45/45/45 38/38/38 37/37/37
f 46/46/46 39/39/39 38/38/38
f 39/39/39 48/48/48 40/40/40
f 40/40/40 49/49/49 41/41/41
f 41/41/41 50/50/50 42/42/42
f 50/50/50 43/43/43 42/42/42
f 51/51/51 44/44/44 43/43/43
f 5/5/5 28/28/28 1/1/1
f 28/28/28 38/38/38 27/27/27
f 27/27/27 39/39/39 26/26/26
f 26/26/26 40/40/40 25/25/25
f 40/40/40 24/24/24 25/25/25
f 41/41/41 23/23/23 24/24/24
f 23/23/23 43/43/43 22/22/22
f 43/43/43 21/21/21 22/22/22
f 2/2/2 93/93/93 12/12/12
f 93/93/93 30/30/30 94/94/94
f 30/30/30 95/95/95 94/94/94
f 31/31/31 96/96/96 95/95/95
f 32/32/32 97/97/97 96/96/96
f 33/33/33 98/98/98 97/97/97
f 98/98/98 35/35/35 99/99/99
f 99/99/99 36/36/36 100/100/100
f 100/100/100 36/36/36 4/4/4
f 44/44/44 20/20/20 3/3/3
f 44/44/44 52/52/52 19/19/19
f 60/60/60 18/18/18 19/19/19
f 60/60/60 68/68/68 17/17/17
f 76/76/76 16/16/16 17/17/17
f 84/84/84 15/15/15 16/16/16
f 84/84/84 92/92/92 14/14/14
f 100/100/100 13/13/13 14/14/14
f 11/11/11 12/12/12 93/93/93
f 93/93/93 94/94/94 86/86/86
f 94/94/94 95/95/95 87/87/87
f 87/87/87 95/95/95 96/96/96
f 96/96/96 97/97/97 89/89/89
f 97/97/97 98/98/98 90/90/90
f 90/90/90 98/98/98 99/99/99
f 91/91/91 99/99/99 100/100/100
f 10/10/10 11/11/11 85/85/85
f 77/77/77 85/85/85 86/86/86
f 78/78/78 86/86/86 87/87/87
f 79/79/79 87/87/87 88/88/88
f 88/88/88 89/89/89 81/81/81
f 81/81/81 89/89/89 90/90/90
f 82/82/82 90/90/90 91/91/91
f 91/91/91 92/92/92 84/84/84
f 10/10/10 77/77/77 69/69/69
f 69/69/69 77/77/77 78/78/78
f 70/70/70 78/78/78 79/79/79
f 79/79/79 80/80/80 72/72/72
f 72/72/72 80/80/80 81/81/81
f 73/73/73 81/81/81 82/82/82
f 82/82/82 83/83/83 75/75/75
f 83/83/83 84/84/84 76/76/76
f 9/9/9 69/69/69 61/61/61
f 69/69/69 70/70/70 62/62/62
f 62/62/62 70/70/70 71/71/71
f 63/63/63 71/71/71 72/72/72
f 72/72/72 73/73/73 65/65/65
f 65/65/65 73/73/73 74/74/74
f 66/66/66 74/74/74 75/75/75
f 67/67/67 75/75/75 76/76/76
f 8/8/8 61/61/61 53/53/53
f 53/53/53 61/61/61 62/62/62
f 54/54/54 62/62/62 63/63/63
f 55/55/55 63/63/63 64/64/64
f 64/64/64 65/65/65 57/57/57
f 57/57/57 65/65/65 66/66/66
f 58/58/58 66/66/66 67/67/67
f 59/59/59 67/67/67 68/68/68
f 6/6/6 7/7/7 53/53/53
f 45/45/45 53/53/53 54/54/54
f 54/54/54 55/55/55 47/47/47
f 55/55/55 56/56/56 48/48/48
f 56/56/56 57/57/57 49/49/49
f 49/49/49 57/57/57 58/58/58
f 58/58/58 59/59/59 51/51/51
f 59/59/59 60/60/60 52/52/52
f 6/6/6 45/45/45 37/37/37
f 45/45/45 46/46/46 38/38/38
f 46/46/46 47/47/47 39/39/39
f 39/39/39 47/47/47 48/48/48
f 40/40/40 48/48/48 49/49/49
f 41/41/41 49/49/49 50/50/50
f 50/50/50 51/51/51 43/43/43
f 51/51/51 52/52/52 44/44/44
f 5/5/5 37/37/37 28/28/28
f 28/28/28 37/37/37 38/38/38
f 27/27/27 38/38/38 39/39/39
f 26/26/26 39/39/39 40/40/40
f 40/40/40 41/41/41 24/24/24
f 41/41/41 42/42/42 23/23/23
f 23/23/23 42/42/42 43/43/43
f 43/43/43 44/44/44 21/21/21
f 2/2/2 29/29/29 93/93/93
f 93/93/93 29/29/29 30/30/30
f 30/30/30 31/31/31 95/95/95
f 31/31/31 32/32/32 96/96/96
f 32/32/32 33/33/33 97/97/97
f 33/33/33 34/34/34 98/98/98
f 98/98/98 34/34/34 35/35/35
f 99/99/99 35/35/35 36/36/36
