o GNATVCloth
v -5.05131 -4.98183 0.564101
v 4.98273 -4.98482 0.41241
v -5.01298 5.02105 0.004229
v 4.98702 5.02105 0.004229
v -3.93832 -5.00657 0.550116
v -2.82643 -5.03836 0.476979
v -1.70841 -5.04453 0.484043
v -0.589124 -5.05003 0.494098
v 0.53192 -5.05644 0.451565
v 1.65217 -5.05069 0.47097
v 2.76643 -5.03238 0.45909
v 3.87919 -4.98926 0.502328
v 3.85993 4.94405 0.12852
v 2.74823 4.88698 0.278732
v 1.63244 4.85156 0.353258
v 0.51936 4.81997 0.376833
v -0.595693 4.80762 0.449578
v -1.71531 4.80523 0.473903
v -2.83367 4.81056 0.564016
v -3.93123 4.89099 0.325886
v -5.00128 3.90704 0.0707741
v -5.00584 2.79348 0.138254
v -5.0129 1.68048 0.206423
v -5.0191 0.566379 0.246846
v -5.0234 -0.545846 0.3099
v -5.027 -1.65739 0.372696
v -5.03229 -2.76803 0.43698
v -5.03355 -3.87641 0.531241
v 4.97198 -3.8838 0.290783
v 4.96661 -2.77059 0.317792
v 4.96306 -1.65997 0.271298
v 4.96099 -0.548008 0.225751
v 4.96287 0.565013 0.208902
v 4.96314 1.67899 0.178575
v 4.96546 2.79349 0.1423
v 4.96756 3.90682 0.0707152
v -3.87821 -3.87872 0.323297
v -3.83919 -3.2314 0.278688
v -3.68934 -1.94502 0.240729
v -4.14082 -0.286223 0.20119
v -4.16204 0.73142 0.213612
v -4.15334 1.51334 0.151624
v -4.08613 2.80441 0.05604
v -3.93204 3.8857 -0.0583782
v -2.74726 -4.03177 0.280228
v -2.82277 -2.76734 0.313162
v -2.70002 -2.17612 0.286895
v -2.77525 -0.633811 0.31355
v -2.80606 0.493906 0.229192
v -2.73225 1.53078 0.0778979
v -2.85526 2.86891 -0.0670042
v -2.75309 3.54927 0.0916413
v -1.68511 -4.25519 0.331523
v -1.52767 -2.94621 0.395835
v -1.91886 -1.65613 0.407337
v -1.89885 -0.861798 0.365131
v -1.54098 0.61298 0.123278
v -1.99686 1.66165 -0.0508209
v -1.72486 2.69747 0.101725
v -1.58986 3.66055 0.449797
v -0.262664 -4.33529 0.385988
v -0.614734 -2.90064 0.438608
v -0.574478 -1.76297 0.489564
v -0.861841 -0.796383 0.332041
v -0.61847 0.406604 0.165667
v -0.379951 1.42748 0.16012
v -0.574314 2.60697 0.189096
v -0.76738 3.47059 0.407943
v 0.705845 -3.90354 0.408819
v 0.786088 -2.6201 0.52566
v 0.500431 -1.83247 0.474558
v 0.590252 -0.50911 0.311008
v 0.571405 0.386794 0.258043
v 0.290247 1.48679 0.252342
v 0.51974 2.44281 0.243017
v 0.534837 3.71372 0.407417
v 1.91544 -3.64738 0.432447
v 1.63173 -2.84302 0.327917
v 1.80127 -1.92842 0.464894
v 1.9613 -0.418315 0.192137
v 1.94709 0.247158 0.0302896
v 1.82207 1.50793 0.156644
v 1.40644 2.78154 0.224912
v 1.47472 3.62764 0.380793
v 2.75573 -3.91633 0.412149
v 3.05935 -2.83431 0.320871
v 2.91273 -1.95633 0.240588
v 2.68938 -0.497632 0.343424
v 2.93003 0.294124 0.249045
v 3.05712 1.55675 -0.0606925
v 2.75237 3.12484 -0.0061319
v 2.73169 3.47564 0.119451
v 3.87429 -3.97064 0.295303
v 3.62268 -2.7142 0.329799
v 3.83643 -1.67708 0.288168
v 3.77626 -0.719456 0.285199
v 3.84363 0.290156 0.299218
v 4.14448 1.80217 0.156576
v 4.13043 2.75237 -0.0195849
v 4.0191 3.87722 -0.0635109
vt 0.0001 0.0001
vt 0.9999 0.0001
vt 0.0001 0.9999
vt 0.9999 0.9999
vt 0.111189 0.0001
vt 0.222278 0.0001
vt 0.333367 0.0001
vt 0.444455 0.0001
vt 0.555544 0.0001
vt 0.666633 0.0001
vt 0.777722 0.0001
vt 0.888811 0.0001
vt 0.888811 0.9999
vt 0.777722 0.9999
vt 0.666633 0.9999
vt 0.555544 0.9999
vt 0.444455 0.9999
vt 0.333367 0.9999
vt 0.222278 0.9999
vt 0.111189 0.9999
vt 0.0001 0.888811
vt 0.0001 0.777722
vt 0.0001 0.666633
vt 0.0001 0.555544
vt 0.0001 0.444456
vt 0.0001 0.333367
vt 0.0001 0.222278
vt 0.0001 0.111189
vt 0.9999 0.111189
vt 0.9999 0.222278
vt 0.9999 0.333367
vt 0.9999 0.444456
vt 0.9999 0.555544
vt 0.9999 0.666633
vt 0.9999 0.777722
vt 0.9999 0.888811
vt 0.11727 0.115399
vt 0.120778 0.180369
vt 0.134636 0.309595
vt 0.088728 0.473895
vt 0.085886 0.575352
vt 0.086211 0.65375
vt 0.092207 0.78313
vt 0.106956 0.892282
vt 0.22987 0.102869
vt 0.221803 0.229552
vt 0.233521 0.288953
vt 0.225541 0.443179
vt 0.221596 0.556167
vt 0.227801 0.661237
vt 0.214896 0.795203
vt 0.22542 0.865181
vt 0.335524 0.082127
vt 0.351143 0.213907
vt 0.311934 0.342467
vt 0.313159 0.422214
vt 0.347791 0.572605
vt 0.301482 0.677733
vt 0.329031 0.783086
vt 0.344903 0.885466
vt 0.476837 0.074882
vt 0.441952 0.218774
vt 0.445749 0.333088
vt 0.416414 0.43099
vt 0.439746 0.552976
vt 0.463203 0.656843
vt 0.444252 0.77653
vt 0.426137 0.866051
vt 0.573419 0.117409
vt 0.581125 0.246686
vt 0.552512 0.326
vt 0.561075 0.459693
vt 0.558356 0.550596
vt 0.530299 0.662189
vt 0.553275 0.760113
vt 0.555478 0.888821
vt 0.694433 0.13996
vt 0.667048 0.221666
vt 0.681985 0.314267
vt 0.698218 0.467249
vt 0.696819 0.535952
vt 0.68253 0.662758
vt 0.642062 0.791726
vt 0.648523 0.877957
vt 0.778029 0.111667
vt 0.809426 0.219523
vt 0.794923 0.307783
vt 0.772028 0.454562
vt 0.796846 0.533374
vt 0.807262 0.663157
vt 0.778581 0.821037
vt 0.775122 0.858219
vt 0.890224 0.104741
vt 0.865679 0.23076
vt 0.887326 0.334104
vt 0.881307 0.429754
vt 0.887973 0.53063
vt 0.918106 0.681428
vt 0.915043 0.778027
vt 0.904815 0.89094
vn 0.0132148 0.0294987 0.999477
vn 0.0371731 0.154628 0.987273
vn -0.0965854 -0.146246 0.984522
vn -0.0115761 -0.0493501 0.998714
vn 0.0862937 0.136636 0.986856
vn 0.0301238 0.190631 0.9812
vn -0.00652093 0.189896 0.981782
vn 0.000607434 0.161612 0.986854
vn -0.00737323 0.0719315 0.997382
vn -0.000717517 0.0339547 0.999423
vn 0.0234693 0.0950032 0.9952
vn 0.0165592 0.199218 0.979815
vn 0.12952 -0.156911 0.979083
vn 0.142863 -0.0917822 0.985478
vn 0.0434149 0.0168778 0.998915
vn 0.0387542 0.0254614 0.998924
vn 0.0338329 -0.0146725 0.99932
vn 0.0510266 -0.0154369 0.998578
vn -0.154167 -0.272747 0.949653
vn -0.264452 -0.344149 0.900903
vn 0.110101 0.0692509 0.991505
vn 0.0881662 0.0601153 0.99429
vn 0.0688772 0.0610091 0.995758
vn 0.0595775 0.0268909 0.997861
vn 0.105869 0.0558099 0.992813
vn 0.108477 0.0553641 0.992556
vn 0.136608 0.0512503 0.989299
vn 0.132412 0.0891618 0.987176
vn 0.000723512 0.0428614 0.999081
vn 0.00968565 0.0074315 0.999925
vn 0.0244703 0.0289649 0.999281
vn 0.0578707 0.0128568 0.998241
vn 0.0381122 0.0414078 0.998415
vn -0.0223563 0.0298909 0.999303
vn -0.137596 0.0911028 0.98629
vn -0.15858 0.0498435 0.986087
vn 0.106539 0.138084 0.984674
vn 0.0756655 0.0381138 0.996405
vn 0.0199135 0.0275779 0.999421
vn 0.0291599 0.0308931 0.999097
vn 0.0337308 0.052089 0.998073
vn 0.0642465 0.0742619 0.995167
vn 0.0875143 0.0793734 0.992996
vn -0.0871809 -0.148365 0.985082
vn -0.00733318 0.0579343 0.998293
vn -0.0459689 0.0170848 0.998797
vn -0.0803014 0.00359522 0.996764
vn -0.0696369 0.0264232 0.997222
vn 0.0255633 0.106913 0.99394
vn 0.0845459 0.110364 0.990289
vn -0.0302327 -0.0291699 0.999117
vn -0.21456 -0.281284 0.93533
vn -0.0274764 0.0865692 0.995867
vn -0.0651271 -0.0253175 0.997556
vn -0.0647839 0.0259586 0.997562
vn 0.0070098 0.0965344 0.995305
vn -0.00235764 0.127545 0.99183
vn -0.0191835 0.0414969 0.998954
vn -0.134099 -0.221689 0.965853
vn -0.0655203 -0.179644 0.981547
vn -0.0161772 0.0508459 0.998575
vn -0.0342589 -0.0379339 0.998693
vn -0.023524 0.0514685 0.998398
vn -0.00711904 0.131959 0.99123
vn -0.0607388 0.062722 0.996181
vn -0.104253 0.0219749 0.994308
vn -0.0656753 -0.139239 0.988079
vn -0.00609495 -0.182659 0.983158
vn 0.00289187 0.000265516 0.999996
vn 0.0563824 -0.0522925 0.997039
vn -0.0016545 0.0613928 0.998112
vn 0.0305266 0.13354 0.990573
vn 0.0466823 0.00845515 0.998874
vn -0.0467355 0.0165383 0.99877
vn -0.0157244 -0.0490948 0.99867
vn 0.0228677 -0.093303 0.995375
vn 0.00242213 0.0738835 0.997264
vn 0.0906025 -0.0208873 0.995668
vn 0.0712951 0.0228292 0.997194
vn -0.0532157 0.209011 0.976464
vn -0.00729721 0.117075 0.993096
vn 0.119309 -0.0269946 0.99249
vn 0.100474 -0.109465 0.9889
vn 0.0992002 -0.108526 0.989132
vn 0.0600498 0.0463164 0.99712
vn 0.0197096 0.0673079 0.997538
vn 0.0401877 -0.00748817 0.999164
vn -0.0450922 0.10146 0.993817
vn -0.0966682 0.154548 0.983245
vn -0.0552771 0.100767 0.993373
vn 0.139338 -0.11984 0.982967
vn 0.188017 -0.217757 0.957722
vn 0.0307882 0.0659468 0.997348
vn -0.0185915 0.0244381 0.999528
vn -0.0158678 0.0275526 0.999494
vn 0.0169731 0.00706898 0.999831
vn -0.0237187 0.0753486 0.996875
vn -0.106636 0.105451 0.98869
vn -0.124129 0.0746706 0.989453
vn 0.058319 -0.0894929 0.994279
f 100/100/100 4/4/4 13/13/13
f 44/44/44 3/3/3 21/21/21
f 44/44/44 19/19/19 20/20/20
f 60/60/60 19/19/19 52/52/52
f 60/60/60 17/17/17 18/18/18
f 76/76/76 17/17/17 68/68/68
f 84/84/84 16/16/16 76/76/76
f 84/84/84 14/14/14 15/15/15
f 100/100/100 14/14/14 92/92/92
f 11/11/11 93/93/93 85/85/85
f 93/93/93 86/86/86 85/85/85
f 94/94/94 87/87/87 86/86/86
f 87/87/87 96/96/96 88/88/88
f 96/96/96 89/89/89 88/88/88
f 97/97/97 90/90/90 89/89/89
f 90/90/90 99/99/99 91/91/91
f 91/91/91 100/100/100 92/92/92
f 10/10/10 85/85/85 77/77/77
f 77/77/77 86/86/86 78/78/78
f 78/78/78 87/87/87 79/79/79
f 79/79/79 88/88/88 80/80/80
f 88/88/88 81/81/81 80/80/80
f 81/81/81 90/90/90 82/82/82
f 82/82/82 91/91/91 83/83/83
f 91/91/91 84/84/84 83/83/83
f 10/10/10 69/69/69 9/9/9
f 69/69/69 78/78/78 70/70/70
f 70/70/70 79/79/79 71/71/71
f 79/79/79 72/72/72 71/71/71
f 72/72/72 81/81/81 73/73/73
f 73/73/73 82/82/82 74/74/74
f 82/82/82 75/75/75 74/74/74
f 83/83/83 76/76/76 75/75/75
f 9/9/9 61/61/61 8/8/8
f 69/69/69 62/62/62 61/61/61
f 62/62/62 71/71/71 63/63/63
f 63/63/63 72/72/72 64/64/64
f 72/72/72 65/65/65 64/64/64
f 65/65/65 74/74/74 66/66/66
f 66/66/66 75/75/75 67/67/67
f 67/67/67 76/76/76 68/68/68
f 8/8/8 53/53/53 7/7/7
f 53/53/53 62/62/62 54/54/54
f 54/54/54 63/63/63 55/55/55
f 55/55/55 64/64/64 56/56/56
f 64/64/64 57/57/57 56/56/56
f 57/57/57 66/66/66 58/58/58
f 58/58/58 67/67/67 59/59/59
f 59/59/59 68/68/68 60/60/60
f 6/6/6 53/53/53 45/45/45
f 45/45/45 54/54/54 46/46/46
f 54/54/54 47/47/47 46/46/46
f 55/55/55 48/48/48 47/47/47
f 56/56/56 49/49/49 48/48/48
f 49/49/49 58/58/58 50/50/50
f 58/58/58 51/51/51 50/50/50
f 59/59/59 52/52/52 51/51/51
f 6/6/6 37/37/37 5/5/5
f 45/45/45 38/38/38 37/37/37
f 46/46/46 39/39/39 38/38/38
f 39/39/39 48/48/48 40/40/40
f 40/40/40 49/49/49 41/41/41
f 41/41/41 50/50/50 42/42/42
f 50/50/50 43/43/43 42/42/42
f 51/51/51 44/44/44 43/43/43
f 5/5/5 28/28/28 1/1/1
f 28/28/28 38/38/38 27/27/27
f 27/27/27 39/39/39 26/26/26
f 26/26/26 40/40/40 25/25/25
f 40/40/40 24/24/24 25/25/25
f 41/41/41 23/23/23 24/24/24
f 23/23/23 43/43/43 22/22/22
f 43/43/43 21/21/21 22/22/22
f 2/2/2 93/93/93 12/12/12
f 93/93/93 30/30/30 94/94/94
f 30/30/30 95/95/95 94/94/94
f 31/31/31 96/96/96 95/95/95
f 32/32/32 97/97/97 96/96/96
f 33/33/33 98/98/98 97/97/97
f 98/98/98 35/35/35 99/99/99
f 99/99/99 36/36/36 100/100/100
f 100/100/100 36/36/36 4/4/4
f 44/44/44 20/20/20 3/3/3
f 44/44/44 52/52/52 19/19/19
f 60/60/60 18/18/18 19/19/19
f 60/60/60 68/68/68 17/17/17
f 76/76/76 16/16/16 17/17/17
f 84/84/84 15/15/15 16/16/16
f 84/84/84 92/92/92 14/14/14
f 100/100/100 13/13/13 14/14/14
f 11/11/11 12/12/12 93/93/93
f 93/93/93 94/94/94 86/86/86
f 94/94/94 95/95/95 87/87/87
f 87/87/87 95/95/95 96/96/96
f 96/96/96 97/97/97 89/89/89
f 97/97/97 98/98/98 90/90/90
f 90/90/90 98/98/98 99/99/99
f 91/91/91 99/99/99 100/100/100
f 10/10/10 11/11/11 85/85/85
f 77/77/77 85/85/85 86/86/86
f 78/78/78 86/86/86 87/87/87
f 79/79/79 87/87/87 88/88/88
f 88/88/88 89/89/89 81/81/81
f 81/81/81 89/89/89 90/90/90
f 82/82/82 90/90/90 91/91/91
f 91/91/91 92/92/92 84/84/84
f 10/10/10 77/77/77 69/69/69
f 69/69/69 77/77/77 78/78/78
f 70/70/70 78/78/78 79/79/79
f 79/79/79 80/80/80 72/72/72
f 72/72/72 80/80/80 81/81/81
f 73/73/73 81/81/81 82/82/82
f 82/82/82 83/83/83 75/75/75
f 83/83/83 84/84/84 76/76/76
f 9/9/9 69/69/69 61/61/61
f 69/69/69 70/70/70 62/62/62
f 62/62/62 70/70/70 71/71/71
f 63/63/63 71/71/71 72/72/72
f 72/72/72 73/73/73 65/65/65
f 65/65/65 73/73/73 74/74/74
f 66/66/66 74/74/74 75/75/75
f 67/67/67 75/75/75 76/76/76
f 8/8/8 61/61/61 53/53/53
f 53/53/53 61/61/61 62/62/62
f 54/54/54 62/62/62 63/63/63
f 55/55/55 63/63/63 64/64/64
f 64/64/64 65/65/65 57/57/57
f 57/57/57 65/65/65 66/66/66
f 58/58/58 66/66/66 67/67/67
f 59/59/59 67/67/67 68/68/68
f 6/6/6 7/7/7 53/53/53
f 45/45/45 53/53/53 54/54/54
f 54/54/54 55/55/55 47/47/47
f 55/55/55 56/56/56 48/48/48
f 56/56/56 57/57/57 49/49/49
f 49/49/49 57/57/57 58/58/58
f 58/58/58 59/59/59 51/51/51
f 59/59/59 60/60/60 52/52/52
f 6/6/6 45/45/45 37/37/37
f 45/45/45 46/46/46 38/38/38
f 46/46/46 47/47/47 39/39/39
f 39/39/39 47/47/47 48/48/48
f 40/40/40 48/48/48 49/49/49
f 41/41/41 49/49/49 50/50/50
f 50/50/50 51/51/51 43/43/43
f 51/51/51 52/52/52 44/44/44
f 5/5/5 37/37/37 28/28/28
f 28/28/28 37/37/37 38/38/38
f 27/27/27 38/38/38 39/39/39
f 26/26/26 39/39/39 40/40/40
f 40/40/40 41/41/41 24/24/24
f 41/41/41 42/42/42 23/23/23
f 23/23/23 42/42/42 43/43/43
f 43/43/43 44/44/44 21/21/21
f 2/2/2 29/29/29 93/93/93
f 93/93/93 29/29/29 30/30/30
f 30/30/30 31/31/31 95/95/95
f 31/31/31 32/32/32 96/96/96
f 32/32/32 33/33/33 97/97/97
f 33/33/33 34/34/34 98/98/98
f 98/98/98 34/34/34 35/35/35
f 99/99/99 35/35/35 36/36/36
