o GNATVCloth
v -4.97179 -4.97683 0.43223
v 5.03922 -4.99284 0.450202
v -5.01298 5.02105 0.004229
v 4.98702 5.02105 0.004229
v -3.86746 -5.00395 0.400376
v -2.75492 -5.03062 0.370335
v -1.64104 -5.03178 0.274065
v -0.526506 -5.03453 0.270126
v 0.592028 -5.04657 0.279225
v 1.7091 -5.04854 0.319025
v 2.82348 -5.03453 0.275183
v 3.93619 -5.0162 0.32061
v 3.86729 4.95921 0.138571
v 2.75344 4.91748 0.261927
v 1.64792 4.88154 0.409159
v 0.542002 4.87128 0.372793
v -0.564228 4.86938 0.311059
v -1.66016 4.88333 0.202615
v -2.77327 4.90121 0.206159
v -3.88476 4.94521 0.0737981
v -4.99117 3.90707 0.0707232
v -4.97847 2.79168 0.0894758
v -4.97229 1.6768 0.110376
v -4.96926 0.562772 0.137077
v -4.96533 -0.548245 0.203706
v -4.96388 -1.65876 0.26641
v -4.95979 -2.76559 0.389732
v -4.95737 -3.87543 0.484961
v 5.03078 -3.88284 0.380647
v 5.02965 -2.77049 0.337842
v 5.02754 -1.66191 0.243999
v 5.02165 -0.551867 0.163536
v 5.0161 0.560497 0.115139
v 5.00615 1.6752 0.0895047
v 4.99779 2.79035 0.0681282
v 4.98744 3.90562 0.0391934
v -3.79284 -3.85764 0.369203
v -3.75491 -3.20899 0.346885
v -3.62385 -1.92886 0.170583
v -4.08022 -0.274423 0.130119
v -4.11235 0.740215 0.162103
v -4.10928 1.52736 0.146666
v -4.05702 2.82008 0.144781
v -3.92634 3.88351 -0.0911397
v -2.67599 -4.01263 0.286116
v -2.75282 -2.74732 0.203499
v -2.63674 -2.15564 0.236584
v -2.72319 -0.612444 0.320937
v -2.76248 0.519285 0.325148
v -2.68911 1.56579 0.231638
v -2.8312 2.88456 -0.0157928
v -2.76055 3.5625 0.157993
v -1.61846 -4.23282 0.294346
v -1.46594 -2.92254 0.276601
v -1.85936 -1.63961 0.363654
v -1.84586 -0.842438 0.341327
v -1.50487 0.641476 0.175867
v -1.96665 1.68909 0.0487114
v -1.71941 2.72117 0.272736
v -1.55921 3.73954 0.24105
v -0.199621 -4.31217 0.287853
v -0.5582 -2.88708 0.297515
v -0.518628 -1.75083 0.310628
v -0.813286 -0.771333 0.263082
v -0.584309 0.441856 0.237378
v -0.358322 1.47059 0.281762
v -0.560342 2.65179 0.357059
v -0.745672 3.545 0.279358
v 0.767407 -3.89134 0.302703
v 0.834842 -2.60602 0.235897
v 0.549649 -1.82417 0.272424
v 0.634448 -0.491217 0.274841
v 0.603212 0.41875 0.276101
v 0.314178 1.5257 0.282354
v 0.536492 2.49234 0.296507
v 0.547637 3.77869 0.28629
v 1.97695 -3.65045 0.266348
v 1.69848 -2.83702 0.250781
v 1.8463 -1.92515 0.301887
v 2.00785 -0.397899 0.264655
v 1.9921 0.287073 0.26256
v 1.83937 1.54667 0.222182
v 1.42513 2.82239 0.305103
v 1.47976 3.66718 0.261029
v 2.81403 -3.92244 0.284545
v 3.12348 -2.83934 0.324192
v 2.97942 -1.96751 0.278569
v 2.74639 -0.509822 0.315483
v 2.99201 0.285071 0.286751
v 3.0884 1.58231 0.201492
v 2.79179 3.15346 0.237799
v 2.74905 3.51522 0.200667
v 3.9385 -3.97391 0.325899
v 3.68619 -2.72 0.358215
v 3.90276 -1.68133 0.30419
v 3.83995 -0.72758 0.248286
v 3.90211 0.280096 0.228188
v 4.19295 1.79692 0.151326
v 4.15078 2.75941 0.0677132
v 4.03216 3.88509 -0.0106027
vt 0.0001 0.0001
vt 0.9999 0.0001
vt 0.0001 0.9999
vt 0.9999 0.9999
vt 0.111189 0.0001
vt 0.222278 0.0001
vt 0.333367 0.0001
vt 0.444455 0.0001
vt 0.555544 0.0001
vt 0.666633 0.0001
vt 0.777722 0.0001
vt 0.888811 0.0001
vt 0.888811 0.9999
vt 0.777722 0.9999
vt 0.666633 0.9999
vt 0.555544 0.9999
vt 0.444455 0.9999
vt 0.333367 0.9999
vt 0.222278 0.9999
vt 0.111189 0.9999
vt 0.0001 0.888811
vt 0.0001 0.777722
vt 0.0001 0.666633
vt 0.0001 0.555544
vt 0.0001 0.444456
vt 0.0001 0.333367
vt 0.0001 0.222278
vt 0.0001 0.111189
vt 0.9999 0.111189
vt 0.9999 0.222278
vt 0.9999 0.333367
vt 0.9999 0.444456
vt 0.9999 0.555544
vt 0.9999 0.666633
vt 0.9999 0.777722
vt 0.9999 0.888811
vt 0.11727 0.115399
vt 0.120778 0.180369
vt 0.134636 0.309595
vt 0.088728 0.473895
vt 0.085886 0.575352
vt 0.086211 0.65375
vt 0.092207 0.78313
vt 0.106956 0.892282
vt 0.22987 0.102869
vt 0.221803 0.229552
vt 0.233521 0.288953
vt 0.225541 0.443179
vt 0.221596 0.556167
vt 0.227801 0.661237
vt 0.214896 0.795203
vt 0.22542 0.865181
vt 0.335524 0.082127
vt 0.351143 0.213907
vt 0.311934 0.342467
vt 0.313159 0.422214
vt 0.347791 0.572605
vt 0.301482 0.677733
vt 0.329031 0.783086
vt 0.344903 0.885466
vt 0.476837 0.074882
vt 0.441952 0.218774
vt 0.445749 0.333088
vt 0.416414 0.43099
vt 0.439746 0.552976
vt 0.463203 0.656843
vt 0.444252 0.77653
vt 0.426137 0.866051
vt 0.573419 0.117409
vt 0.581125 0.246686
vt 0.552512 0.326
vt 0.561075 0.459693
vt 0.558356 0.550596
vt 0.530299 0.662189
vt 0.553275 0.760113
vt 0.555478 0.888821
vt 0.694433 0.13996
vt 0.667048 0.221666
vt 0.681985 0.314267
vt 0.698218 0.467249
vt 0.696819 0.535952
vt 0.68253 0.662758
vt 0.642062 0.791726
vt 0.648523 0.877957
vt 0.778029 0.111667
vt 0.809426 0.219523
vt 0.794923 0.307783
vt 0.772028 0.454562
vt 0.796846 0.533374
vt 0.807262 0.663157
vt 0.778581 0.821037
vt 0.775122 0.858219
vt 0.890224 0.104741
vt 0.865679 0.23076
vt 0.887326 0.334104
vt 0.881307 0.429754
vt 0.887973 0.53063
vt 0.918106 0.681428
vt 0.915043 0.778027
vt 0.904815 0.89094
vn 0.027617 -0.0481635 0.998458
vn -0.0859408 0.0286522 0.995888
vn 0.0406915 -0.0448133 0.998166
vn 0.0362436 -0.043501 0.998396
vn 0.0513215 -0.000715689 0.998682
vn 0.0519087 0.0388232 0.997897
vn 0.0447961 -0.0266162 0.998642
vn -0.000587142 -0.0240581 0.99971
vn -0.0169874 -0.018306 0.999688
vn 0.00457299 0.0123941 0.999913
vn -0.0128244 -0.0072668 0.999891
vn -0.0787036 -0.00488493 0.996886
vn 0.119205 -0.118604 0.98576
vn 0.116651 -0.0864762 0.989401
vn 0.0519876 -0.128011 0.990409
vn -0.0231432 -0.0915998 0.995527
vn -0.0514808 -0.0237828 0.998391
vn -0.0472624 0.0293795 0.99845
vn -0.10085 -0.0471083 0.993786
vn -0.0968476 -0.149086 0.98407
vn 0.081498 0.0921487 0.992405
vn -0.060432 0.0172331 0.998024
vn -0.0436658 0.0162778 0.998914
vn 0.0025497 0.0172324 0.999848
vn 0.0648337 0.0581523 0.9962
vn 0.0797174 0.0712044 0.994271
vn 0.0806816 0.10794 0.990878
vn 0.0729728 0.0216302 0.997099
vn -0.0541695 0.0501898 0.99727
vn 0.00747279 0.0371051 0.999283
vn 0.0548972 0.0728979 0.995827
vn 0.0732906 0.0439644 0.996341
vn 0.0873489 0.0333361 0.99562
vn 0.0790082 0.0216607 0.996639
vn 0.0245756 0.0440537 0.998727
vn -0.0358338 0.0403186 0.998544
vn 0.0774997 0.0359893 0.996343
vn 0.0862867 0.0784641 0.993176
vn 0.00567009 0.0428312 0.999066
vn -0.0318951 0.0102882 0.999438
vn -0.0642569 0.0153102 0.997816
vn -0.0500394 0.0116406 0.998679
vn 0.0235627 0.0914325 0.995532
vn -0.0370687 -0.013191 0.999226
vn 0.0380578 0.0558929 0.997711
vn 0.000982978 0.0355712 0.999367
vn -0.0875439 -0.0602669 0.994336
vn -0.0878424 -0.0200306 0.995933
vn 0.00696932 0.0529327 0.998574
vn 0.0564884 0.0990645 0.993476
vn -0.062817 0.00523359 0.998011
vn -0.180202 -0.0922868 0.979291
vn 0.0111056 0.00390292 0.999931
vn -0.0321464 -0.0165776 0.999346
vn -0.0136854 -0.0164664 0.999771
vn 0.0423779 0.0462236 0.998032
vn 0.00190782 0.0686824 0.997637
vn -0.0144736 0.0105729 0.999839
vn -0.136128 -0.0665592 0.988453
vn -0.0537819 0.0142116 0.998452
vn -0.00382571 -0.016253 0.999861
vn 0.00937812 -0.000121485 0.999956
vn 0.0184323 0.00345476 0.999824
vn 0.0163803 0.0472226 0.99875
vn -0.0346263 -0.00526185 0.999387
vn -0.0522449 -0.0283979 0.99823
vn -0.0373524 -0.0293513 0.998871
vn -0.0357598 0.0302975 0.998901
vn 0.00356865 0.017027 0.999849
vn 0.00455793 -0.00675522 0.999967
vn 0.0140897 -0.02044 0.999692
vn -0.00331274 0.0107636 0.999937
vn -0.000713869 0.00409239 0.999991
vn 0.00985629 -0.0183631 0.999783
vn 0.0239285 -0.023219 0.999444
vn 0.0024955 -0.00483682 0.999985
vn -0.00863552 0.014763 0.999854
vn -0.0156883 0.00249998 0.999874
vn -0.0144025 -0.0191693 0.999713
vn -0.0298665 0.0148964 0.999443
vn -0.0101713 0.026026 0.99961
vn 0.0282637 -0.0110751 0.999539
vn 0.0261263 0.00033399 0.999659
vn 0.0421791 -0.0242769 0.998815
vn -0.015078 -0.00619785 0.999867
vn -0.0488617 -0.000638481 0.998805
vn -0.0165538 0.0149678 0.999751
vn -0.00234264 0.00903037 0.999956
vn 0.0290684 0.0407716 0.998746
vn 0.0375656 0.0391853 0.998526
vn 0.0824211 0.0421824 0.995704
vn 0.101862 0.0346537 0.994195
vn -0.0474288 -0.000381385 0.998875
vn -0.0274499 0.0183452 0.999455
vn 0.00588349 0.0624103 0.998033
vn 0.0463663 0.0316884 0.998422
vn 0.0696147 0.0353663 0.996947
vn 0.0520864 0.048981 0.997441
vn 0.0404372 0.0582566 0.997482
vn 0.0839881 0.00211248 0.996464
f 100/100/100 4/4/4 13/13/13
f 44/44/44 3/3/3 21/21/21
f 44/44/44 19/19/19 20/20/20
f 60/60/60 19/19/19 52/52/52
f 60/60/60 17/17/17 18/18/18
f 76/76/76 17/17/17 68/68/68
f 84/84/84 16/16/16 76/76/76
f 84/84/84 14/14/14 15/15/15
f 100/100/100 14/14/14 92/92/92
f 11/11/11 93/93/93 85/85/85
f 93/93/93 86/86/86 85/85/85
f 94/94/94 87/87/87 86/86/86
f 87/87/87 96/96/96 88/88/88
f 96/96/96 89/89/89 88/88/88
f 97/97/97 90/90/90 89/89/89
f 90/90/90 99/99/99 91/91/91
f 91/91/91 100/100/100 92/92/92
f 10/10/10 85/85/85 77/77/77
f 77/77/77 86/86/86 78/78/78
f 78/78/78 87/87/87 79/79/79
f 79/79/79 88/88/88 80/80/80
f 88/88/88 81/81/81 80/80/80
f 81/81/81 90/90/90 82/82/82
f 82/82/82 91/91/91 83/83/83
f 91/91/91 84/84/84 83/83/83
f 10/10/10 69/69/69 9/9/9
f 69/69/69 78/78/78 70/70/70
f 70/70/70 79/79/79 71/71/71
f 79/79/79 72/72/72 71/71/71
f 72/72/72 81/81/81 73/73/73
f 73/73/73 82/82/82 74/74/74
f 82/82/82 75/75/75 74/74/74
f 83/83/83 76/76/76 75/75/75
f 9/9/9 61/61/61 8/8/8
f 69/69/69 62/62/62 61/61/61
f 62/62/62 71/71/71 63/63/63
f 63/63/63 72/72/72 64/64/64
f 72/72/72 65/65/65 64/64/64
f 65/65/65 74/74/74 66/66/66
f 66/66/66 75/75/75 67/67/67
f 67/67/67 76/76/76 68/68/68
f 8/8/8 53/53/53 7/7/7
f 53/53/53 62/62/62 54/54/54
f 54/54/54 63/63/63 55/55/55
f 55/55/55 64/64/64 56/56/56
f 64/64/64 57/57/57 56/56/56
f 57/57/57 66/66/66 58/58/58
f 58/58/58 67/67/67 59/59/59
f 59/59/59 68/68/68 60/60/60
f 6/6/6 53/53/53 45/45/45
f 45/45/45 54/54/54 46/46/46
f 54/54/54 47/47/47 46/46/46
f 55/55/55 48/48/48 47/47/47
f 56/56/56 49/49/49 48/48/48
f 49/49/49 58/58/58 50/50/50
f 58/58/58 51/51/51 50/50/50
f 59/59/59 52/52/52 51/51/51
f 6/6/6 37/37/37 5/5/5
f 45/45/45 38/38/38 37/37/37
f 46/46/46 39/39/39 38/38/38
f 39/39/39 48/48/48 40/40/40
f 40/40/40 49/49/49 41/41/41
f 41/41/41 50/50/50 42/42/42
f 50/50/50 43/43/43 42/42/42
f 51/51/51 44/44/44 43/43/43
f 5/5/5 28/28/28 1/1/1
f 28/28/28 38/38/38 27/27/27
f 27/27/27 39/39/39 26/26/26
f 26/26/26 40/40/40 25/25/25
f 40/40/40 24/24/24 25/25/25
f 41/41/41 23/23/23 24/24/24
f 23/23/23 43/43/43 22/22/22
f 43/43/43 21/21/21 22/22/22
f 2/2/2 93/93/93 12/12/12
f 93/93/93 30/30/30 94/94/94
f 30/30/30 95/95/95 94/94/94
f 31/31/31 96/96/96 95/95/95
f 32/32/32 97/97/97 96/96/96
f 33/33/33 98/98/98 97/97/97
f 98/98/98 35/35/35 99/99/99
f 99/99/99 36/36/36 100/100/100
f 100/100/100 36/36/36 4/4/4
f 44/44/44 20/20/20 3/3/3
f 44/44/44 52/52/52 19/19/19
f 60/60/60 18/18/18 19/19/19
f 60/60/60 68/68/68 17/17/17
f 76/76/76 16/16/16 17/17/17
f 84/84/84 15/15/15 16/16/16
f 84/84/84 92/92/92 14/14/14
f 100/100/100 13/13/13 14/14/14
f 11/11/11 12/12/12 93/93/93
f 93/93/93 94/94/94 86/86/86
f 94/94/94 95/95/95 87/87/87
f 87/87/87 95/95/95 96/96/96
f 96/96/96 97/97/97 89/89/89
f 97/97/97 98/98/98 90/90/90
f 90/90/90 98/98/98 99/99/99
f 91/91/91 99/99/99 100/100/100
f 10/10/10 11/11/11 85/85/85
f 77/77/77 85/85/85 86/86/86
f 78/78/78 86/86/86 87/87/87
f 79/79/79 87/87/87 88/88/88
f 88/88/88 89/89/89 81/81/81
f 81/81/81 89/89/89 90/90/90
f 82/82/82 90/90/90 91/91/91
f 91/91/91 92/92/92 84/84/84
f 10/10/10 77/77/77 69/69/69
f 69/69/69 77/77/77 78/78/78
f 70/70/70 78/78/78 79/79/79
f 79/79/79 80/80/80 72/72/72
f 72/72/72 80/80/80 81/81/81
f 73/73/73 81/81/81 82/82/82
f 82/82/82 83/83/83 75/75/75
f 83/83/83 84/84/84 76/76/76
f 9/9/9 69/69/69 61/61/61
f 69/69/69 70/70/70 62/62/62
f 62/62/62 70/70/70 71/71/71
f 63/63/63 71/71/71 72/72/72
f 72/72/72 73/73/73 65/65/65
f 65/65/65 73/73/73 74/74/74
f 66/66/66 74/74/74 75/75/75
f 67/67/67 75/75/75 76/76/76
f 8/8/8 61/61/61 53/53/53
f 53/53/53 61/61/61 62/62/62
f 54/54/54 62/62/62 63/63/63
f 55/55/55 63/63/63 64/64/64
f 64/64/64 65/65/65 57/57/57
f 57/57/57 65/65/65 66/66/66
f 58/58/58 66/66/66 67/67/67
f 59/59/59 67/67/67 68/68/68
f 6/6/6 7/7/7 53/53/53
f 45/45/45 53/53/53 54/54/54
f 54/54/54 55/55/55 47/47/47
f 55/55/55 56/56/56 48/48/48
f 56/56/56 57/57/57 49/49/49
f 49/49/49 57/57/57 58/58/58
f 58/58/58 59/59/59 51/51/51
f 59/59/59 60/60/60 52/52/52
f 6/6/6 45/45/45 37/37/37
f 45/45/45 46/46/46 38/38/38
f 46/46/46 47/47/47 39/39/39
f 39/39/39 47/47/47 48/48/48
f 40/40/40 48/48/48 49/49/49
f 41/41/41 49/49/49 50/50/50
f 50/50/50 51/51/51 43/43/43
f 51/51/51 52/52/52 44/44/44
f 5/5/5 37/37/37 28/28/28
f 28/28/28 37/37/37 38/38/38
f 27/27/27 38/38/38 39/39/39
f 26/26/26 39/39/39 40/40/40
f 40/40/40 41/41/41 24/24/24
f 41/41/41 42/42/42 23/23/23
f 23/23/23 42/42/42 43/43/43
f 43/43/43 44/44/44 21/21/21
f 2/2/2 29/29/29 93/93/93
f 93/93/93 29/29/29 30/30/30
f 30/30/30 31/31/31 95/95/95
f 31/31/31 32/32/32 96/96/96
f 32/32/32 33/33/33 97/97/97
f 33/33/33 34/34/34 98/98/98
f 98/98/98 34/34/34 35/35/35
f 99/99/99 35/35/35 36/36/36
