o GNATVCloth
v -4.90953 -4.99434 0.350602
v 5.14752 -4.98421 0.381846
v -5.01298 5.02105 0.004229
v 4.98702 5.02105 0.004229
v -3.79594 -5.00725 0.302443
v -2.67766 -5.01832 0.287229
v -1.56018 -5.02097 0.212354
v -0.440353 -5.02354 0.200425
v 0.678962 -5.02623 0.23305
v 1.79955 -5.03254 0.231796
v 2.91985 -5.02451 0.210593
v 4.03775 -5.01362 0.271926
v 3.86938 4.94465 0.0675499
v 2.76861 4.8785 0.217815
v 1.66158 4.81907 0.320032
v 0.616024 4.79004 0.279272
v -0.503387 4.84319 0.255614
v -1.62126 4.88351 0.168773
v -2.74782 4.93776 0.141977
v -3.87539 4.98024 0.0765811
v -4.98751 3.90613 0.0415698
v -4.97121 2.79097 0.0667385
v -4.9571 1.67632 0.0965684
v -4.94271 0.562437 0.139848
v -4.92845 -0.550329 0.190877
v -4.91828 -1.66159 0.258022
v -4.91028 -2.77135 0.331833
v -4.90554 -3.88379 0.353816
v 5.13638 -3.87737 0.292603
v 5.12148 -2.76973 0.286013
v 5.10419 -1.65858 0.24447
v 5.09159 -0.546151 0.169491
v 5.0783 0.566539 0.115467
v 5.05854 1.6792 0.0780682
v 5.04027 2.79265 0.0519427
v 5.01667 3.9068 0.0287264
v -3.7356 -3.85678 0.259289
v -3.70264 -3.20911 0.256685
v -3.57196 -1.91879 0.169203
v -4.04504 -0.267741 0.1587
v -4.08646 0.748565 0.156378
v -4.09219 1.53287 0.12662
v -4.04772 2.82534 0.0864084
v -3.91225 3.91317 -0.0109042
v -2.60612 -3.99511 0.210834
v -2.6937 -2.7268 0.16818
v -2.57816 -2.13403 0.132244
v -2.67535 -0.594711 0.253932
v -2.72605 0.536834 0.24596
v -2.67388 1.58606 0.190674
v -2.81274 2.91761 0.0138691
v -2.73645 3.59366 0.195473
v -1.54238 -4.21108 0.218909
v -1.39585 -2.8941 0.203042
v -1.8017 -1.60833 0.276448
v -1.79511 -0.809764 0.248456
v -1.46452 0.687261 0.159495
v -1.93786 1.73789 0.139597
v -1.68322 2.78494 0.243813
v -1.52928 3.77398 0.212039
v -0.11797 -4.28573 0.19263
v -0.48411 -2.84788 0.20094
v -0.455768 -1.70617 0.232096
v -0.759366 -0.730077 0.19457
v -0.538894 0.490448 0.187351
v -0.314728 1.52573 0.218569
v -0.522535 2.71378 0.237087
v -0.710798 3.58144 0.211678
v 0.851084 -3.86468 0.220969
v 0.913117 -2.57199 0.184551
v 0.617321 -1.77966 0.199445
v 0.6922 -0.445387 0.188062
v 0.654277 0.465879 0.206674
v 0.359005 1.57687 0.216033
v 0.578014 2.55589 0.216302
v 0.589932 3.77379 0.203437
v 2.0672 -3.63533 0.209092
v 1.77944 -2.82297 0.185475
v 1.91899 -1.89806 0.224158
v 2.06914 -0.368494 0.201289
v 2.04872 0.316329 0.182255
v 1.88688 1.58578 0.148037
v 1.46848 2.85892 0.249558
v 1.52387 3.65526 0.19719
v 2.91184 -3.9116 0.203252
v 3.21082 -2.83475 0.261279
v 3.05458 -1.95812 0.15998
v 2.80879 -0.496025 0.259903
v 3.05072 0.293186 0.23395
v 3.13818 1.59051 0.160861
v 2.83605 3.15573 0.176416
v 2.79657 3.49043 0.234611
v 4.04084 -3.96841 0.215205
v 3.77361 -2.71422 0.285273
v 3.97551 -1.67895 0.253478
v 3.90606 -0.725283 0.189334
v 3.96262 0.283049 0.183856
v 4.2463 1.79974 0.137885
v 4.19825 2.76025 0.0899246
v 4.07568 3.88124 0.041613
vt 0.0001 0.0001
vt 0.9999 0.0001
vt 0.0001 0.9999
vt 0.9999 0.9999
vt 0.111189 0.0001
vt 0.222278 0.0001
vt 0.333367 0.0001
vt 0.444455 0.0001
vt 0.555544 0.0001
vt 0.666633 0.0001
vt 0.777722 0.0001
vt 0.888811 0.0001
vt 0.888811 0.9999
vt 0.777722 0.9999
vt 0.666633 0.9999
vt 0.555544 0.9999
vt 0.444455 0.9999
vt 0.333367 0.9999
vt 0.222278 0.9999
vt 0.111189 0.9999
vt 0.0001 0.888811
vt 0.0001 0.777722
vt 0.0001 0.666633
vt 0.0001 0.555544
vt 0.0001 0.444456
vt 0.0001 0.333367
vt 0.0001 0.222278
vt 0.0001 0.111189
vt 0.9999 0.111189
vt 0.9999 0.222278
vt 0.9999 0.333367
vt 0.9999 0.444456
vt 0.9999 0.555544
vt 0.9999 0.666633
vt 0.9999 0.777722
vt 0.9999 0.888811
vt 0.11727 0.115399
vt 0.120778 0.180369
vt 0.134636 0.309595
vt 0.088728 0.473895
vt 0.085886 0.575352
vt 0.086211 0.65375
vt 0.092207 0.78313
vt 0.106956 0.892282
vt 0.22987 0.102869
vt 0.221803 0.229552
vt 0.233521 0.288953
vt 0.225541 0.443179
vt 0.221596 0.556167
vt 0.227801 0.661237
vt 0.214896 0.795203
vt 0.22542 0.865181
vt 0.335524 0.082127
vt 0.351143 0.213907
vt 0.311934 0.342467
vt 0.313159 0.422214
vt 0.347791 0.572605
vt 0.301482 0.677733
vt 0.329031 0.783086
vt 0.344903 0.885466
vt 0.476837 0.074882
vt 0.441952 0.218774
vt 0.445749 0.333088
vt 0.416414 0.43099
vt 0.439746 0.552976
vt 0.463203 0.656843
vt 0.444252 0.77653
vt 0.426137 0.866051
vt 0.573419 0.117409
vt 0.581125 0.246686
vt 0.552512 0.326
vt 0.561075 0.459693
vt 0.558356 0.550596
vt 0.530299 0.662189
vt 0.553275 0.760113
vt 0.555478 0.888821
vt 0.694433 0.13996
vt 0.667048 0.221666
vt 0.681985 0.314267
vt 0.698218 0.467249
vt 0.696819 0.535952
vt 0.68253 0.662758
vt 0.642062 0.791726
vt 0.648523 0.877957
vt 0.778029 0.111667
vt 0.809426 0.219523
vt 0.794923 0.307783
vt 0.772028 0.454562
vt 0.796846 0.533374
vt 0.807262 0.663157
vt 0.778581 0.821037
vt 0.775122 0.858219
vt 0.890224 0.104741
vt 0.865679 0.23076
vt 0.887326 0.334104
vt 0.881307 0.429754
vt 0.887973 0.53063
vt 0.918106 0.681428
vt 0.915043 0.778027
vt 0.904815 0.89094
vn 0.0431697 -0.00304695 0.999063
vn -0.0883401 0.0667961 0.993848
vn -0.0088368 -0.0224354 0.999709
vn 0.035286 0.00456466 0.999367
vn 0.0456429 0.022309 0.998709
vn 0.0349384 0.0430183 0.998463
vn 0.0387453 -0.00893938 0.999209
vn 4.53953e-05 0.0057957 0.999983
vn -0.0213209 0.01641 0.999638
vn 0.0096274 0.0114791 0.999888
vn -0.0155488 0.0225232 0.999625
vn -0.0775552 0.0542525 0.995511
vn 0.0963732 -0.00558009 0.99533
vn 0.0877044 -0.0219357 0.995905
vn 0.0308322 -0.108527 0.993615
vn -0.0211047 -0.0829486 0.99633
vn -0.0241583 -0.0279182 0.999318
vn -0.0491276 0.0348513 0.998184
vn -0.0664655 0.00880616 0.99775
vn -0.0634029 -0.0793715 0.994827
vn 0.0248239 0.0466542 0.998603
vn -0.0221942 0.0243497 0.999457
vn -0.0269398 0.0336764 0.99907
vn -0.00854602 0.0286836 0.999552
vn 0.0193254 0.0532687 0.998393
vn 0.0554474 0.0513044 0.997143
vn 0.0770097 0.0485899 0.995846
vn 0.0682031 0.0125168 0.997593
vn -0.073899 0.0422011 0.996372
vn -0.0164558 0.0041609 0.999856
vn 0.00685731 0.057469 0.998324
vn 0.0237702 0.0403109 0.998904
vn 0.0611476 0.0345558 0.99753
vn 0.0778053 0.0297671 0.996524
vn 0.0547728 0.0327969 0.99796
vn 0.0232618 0.0295017 0.999294
vn 0.0537773 0.0285092 0.998146
vn 0.0672408 0.030135 0.997282
vn 0.0409723 0.0247939 0.998853
vn -0.0167546 0.0177029 0.999703
vn -0.0408484 0.0283643 0.998763
vn -0.0376634 0.0349953 0.998678
vn 0.00402948 0.0594389 0.998224
vn -0.0533002 -0.0215596 0.998346
vn 0.0239088 0.0382818 0.998981
vn 0.0268161 0.0494855 0.998415
vn -0.0392298 -0.0286648 0.998819
vn -0.0373387 -0.0220233 0.99906
vn 0.000201884 0.0298319 0.999555
vn -0.0003735 0.0747046 0.997206
vn -0.0871881 -0.0257672 0.995859
vn -0.131649 -0.0700901 0.988815
vn 0.016944 0.0117041 0.999788
vn -0.0187854 -0.00697282 0.999799
vn -0.0192721 -0.0182103 0.999648
vn 0.0366386 0.0341901 0.998743
vn 0.010376 0.0210855 0.999724
vn -0.0206096 0.00835606 0.999753
vn -0.0721187 -0.0470389 0.996286
vn -0.022771 0.0236251 0.999462
vn -0.0104491 0.00569087 0.999929
vn 0.00697555 -0.0060094 0.999958
vn 0.021035 -0.00150336 0.999778
vn 0.0178007 0.0311342 0.999357
vn -0.0143545 -0.0119584 0.999825
vn -0.0181068 -0.0159351 0.999709
vn -0.000838083 -0.0108794 0.99994
vn 0.00433176 0.00424963 0.999982
vn -0.0049671 0.0164522 0.999852
vn -0.00128738 -0.00488276 0.999987
vn 0.0068467 -0.010372 0.999923
vn -0.0011925 0.00771453 0.99997
vn 0.00948823 -0.00414464 0.999946
vn 0.0165072 -0.0104518 0.999809
vn 0.00594142 -0.0141996 0.999882
vn -0.00278069 -0.00990669 0.999947
vn -0.00803139 0.00373744 0.999961
vn -0.00875154 0.0141063 0.999862
vn -0.00441548 -0.0182896 0.999823
vn -0.0428717 0.0228109 0.99882
vn -0.0229385 0.0280428 0.999344
vn 0.0208466 -0.0148489 0.999672
vn 0.014076 -0.000385162 0.999901
vn 0.004826 -0.0472312 0.998872
vn -0.000556463 -0.014802 0.99989
vn -0.0369526 0.00933233 0.999273
vn -0.027654 0.0217712 0.99938
vn -0.00475903 -0.00171577 0.999987
vn 0.0153395 0.0350442 0.999268
vn 0.0108057 0.0294529 0.999508
vn 0.0541765 -0.0397071 0.997742
vn 0.0646511 -0.0749146 0.995092
vn -0.0448684 0.00385824 0.998985
vn -0.0426627 0.0137724 0.998995
vn -0.0441469 0.0494803 0.997799
vn 0.012088 0.0218806 0.999688
vn 0.041132 0.025922 0.998817
vn 0.0469409 0.0348592 0.998289
vn 0.0422051 0.0370948 0.99842
vn 0.0906707 -0.00348308 0.995875
f 100/100/100 4/4/4 13/13/13
f 44/44/44 3/3/3 21/21/21
f 44/44/44 19/19/19 20/20/20
f 60/60/60 19/19/19 52/52/52
f 60/60/60 17/17/17 18/18/18
f 76/76/76 17/17/17 68/68/68
f 84/84/84 16/16/16 76/76/76
f 84/84/84 14/14/14 15/15/15
f 100/100/100 14/14/14 92/92/92
f 11/11/11 93/93/93 85/85/85
f 93/93/93 86/86/86 85/85/85
f 94/94/94 87/87/87 86/86/86
f 87/87/87 96/96/96 88/88/88
f 96/96/96 89/89/89 88/88/88
f 97/97/97 90/90/90 89/89/89
f 90/90/90 99/99/99 91/91/91
f 91/91/91 100/100/100 92/92/92
f 10/10/10 85/85/85 77/77/77
f 77/77/77 86/86/86 78/78/78
f 78/78/78 87/87/87 79/79/79
f 79/79/79 88/88/88 80/80/80
f 88/88/88 81/81/81 80/80/80
f 81/81/81 90/90/90 82/82/82
f 82/82/82 91/91/91 83/83/83
f 91/91/91 84/84/84 83/83/83
f 10/10/10 69/69/69 9/9/9
f 69/69/69 78/78/78 70/70/70
f 70/70/70 79/79/79 71/71/71
f 79/79/79 72/72/72 71/71/71
f 72/72/72 81/81/81 73/73/73
f 73/73/73 82/82/82 74/74/74
f 82/82/82 75/75/75 74/74/74
f 83/83/83 76/76/76 75/75/75
f 9/9/9 61/61/61 8/8/8
f 69/69/69 62/62/62 61/61/61
f 62/62/62 71/71/71 63/63/63
f 63/63/63 72/72/72 64/64/64
f 72/72/72 65/65/65 64/64/64
f 65/65/65 74/74/74 66/66/66
f 66/66/66 75/75/75 67/67/67
f 67/67/67 76/76/76 68/68/68
f 8/8/8 53/53/53 7/7/7
f 53/53/53 62/62/62 54/54/54
f 54/54/54 63/63/63 55/55/55
f 55/55/55 64/64/64 56/56/56
f 64/64/64 57/57/57 56/56/56
f 57/57/57 66/66/66 58/58/58
f 58/58/58 67/67/67 59/59/59
f 59/59/59 68/68/68 60/60/60
f 6/6/6 53/53/53 45/45/45
f 45/45/45 54/54/54 46/46/46
f 54/54/54 47/47/47 46/46/46
f 55/55/55 48/48/48 47/47/47
f 56/56/56 49/49/49 48/48/48
f 49/49/49 58/58/58 50/50/50
f 58/58/58 51/51/51 50/50/50
f 59/59/59 52/52/52 51/51/51
f 6/6/6 37/37/37 5/5/5
f 45/45/45 38/38/38 37/37/37
f 46/46/46 39/39/39 38/38/38
f 39/39/39 48/48/48 40/40/40
f 40/40/40 49/49/49 41/41/41
f 41/41/41 50/50/50 42/42/42
f 50/50/50 43/43/43 42/42/42
f 51/51/51 44/44/44 43/43/43
f 5/5/5 28/28/28 1/1/1
f 28/28/28 38/38/38 27/27/27
f 27/27/27 39/39/39 26/26/26
f 26/26/26 40/40/40 25/25/25
f 40/40/40 24/24/24 25/25/25
f 41/41/41 23/23/23 24/24/24
f 23/23/23 43/43/43 22/22/22
f 43/43/43 21/21/21 22/22/22
f 2/2/2 93/93/93 12/12/12
f 93/93/93 30/30/30 94/94/94
f 30/30/30 95/95/95 94/94/94
f 31/31/31 96/96/96 95/95/95
f 32/32/32 97/97/97 96/96/96
f 33/33/33 98/98/98 97/97/97
f 98/98/98 35/35/35 99/99/99
f 99/99/99 36/36/36 100/100/100
f 100/100/100 36/36/36 4/4/4
f 44/44/44 20/20/20 3/3/3
f 44/44/44 52/52/52 19/19/19
f 60/60/60 18/18/18 19/19/19
f 60/60/60 68/68/68 17/17/17
f 76/76/76 16/16/16 17/17/17
f 84/84/84 15/15/15 16/16/16
f 84/84/84 92/92/92 14/14/14
f 100/100/100 13/13/13 14/14/14
f 11/11/11 12/12/12 93/93/93
f 93/93/93 94/94/94 86/86/86
f 94/94/94 95/95/95 87/87/87
f 87/87/87 95/95/95 96/96/96
f 96/96/96 97/97/97 89/89/89
f 97/97/97 98/98/98 90/90/90
f 90/90/90 98/98/98 99/99/99
f 91/91/91 99/99/99 100/100/100
f 10/10/10 11/11/11 85/85/85
f 77/77/77 85/85/85 86/86/86
f 78/78/78 86/86/86 87/87/87
f 79/79/79 87/87/87 88/88/88
f 88/88/88 89/89/89 81/81/81
f 81/81/81 89/89/89 90/90/90
f 82/82/82 90/90/90 91/91/91
f 91/91/91 92/92/92 84/84/84
f 10/10/10 77/77/77 69/69/69
f 69/69/69 77/77/77 78/78/78
f 70/70/70 78/78/78 79/79/79
f 79/79/79 80/80/80 72/72/72
f 72/72/72 80/80/80 81/81/81
f 73/73/73 81/81/81 82/82/82
f 82/82/82 83/83/83 75/75/75
f 83/83/83 84/84/84 76/76/76
f 9/9/9 69/69/69 61/61/61
f 69/69/69 70/70/70 62/62/62
f 62/62/62 70/70/70 71/71/71
f 63/63/63 71/71/71 72/72/72
f 72/72/72 73/73/73 65/65/65
f 65/65/65 73/73/73 74/74/74
f 66/66/66 74/74/74 75/75/75
f 67/67/67 75/75/75 76/76/76
f 8/8/8 61/61/61 53/53/53
f 53/53/53 61/61/61 62/62/62
f 54/54/54 62/62/62 63/63/63
f 55/55/55 63/63/63 64/64/64
f 64/64/64 65/65/65 57/57/57
f 57/57/57 65/65/65 66/66/66
f 58/58/58 66/66/66 67/67/67
f 59/59/59 67/67/67 68/68/68
f 6/6/6 7/7/7 53/53/53
f 45/45/45 53/53/53 54/54/54
f 54/54/54 55/55/55 47/47/47
f 55/55/55 56/56/56 48/48/48
f 56/56/56 57/57/57 49/49/49
f 49/49/49 57/57/57 58/58/58
f 58/58/58 59/59/59 51/51/51
f 59/59/59 60/60/60 52/52/52
f 6/6/6 45/45/45 37/37/37
f 45/45/45 46/46/46 38/38/38
f 46/46/46 47/47/47 39/39/39
f 39/39/39 47/47/47 48/48/48
f 40/40/40 48/48/48 49/49/49
f 41/41/41 49/49/49 50/50/50
f 50/50/50 51/51/51 43/43/43
f 51/51/51 52/52/52 44/44/44
f 5/5/5 37/37/37 28/28/28
f 28/28/28 37/37/37 38/38/38
f 27/27/27 38/38/38 39/39/39
f 26/26/26 39/39/39 40/40/40
f 40/40/40 41/41/41 24/24/24
f 41/41/41 42/42/42 23/23/23
f 23/23/23 42/42/42 43/43/43
f 43/43/43 44/44/44 21/21/21
f 2/2/2 29/29/29 93/93/93
f 93/93/93 29/29/29 30/30/30
f 30/30/30 31/31/31 95/95/95
f 31/31/31 32/32/32 96/96/96
f 32/32/32 33/33/33 97/97/97
f 33/33/33 34/34/34 98/98/98
f 98/98/98 34/34/34 35/35/35
f 99/99/99 35/35/35 36/36/36
