o GNATVCloth
v -5.02639 -4.97916 0.605207
v 5.06609 -4.99027 0.39869
v -5.01298 5.02105 0.004229
v 4.98702 5.02105 0.004229
v -3.9153 -5.02099 0.506027
v -2.79555 -5.04858 0.485068
v -1.67325 -5.07793 0.459619
v -0.547612 -5.08968 0.459171
v 0.580614 -5.08297 0.496473
v 1.70539 -5.07321 0.470907
v 2.82771 -5.04736 0.442867
v 3.94772 -5.0192 0.394249
v 3.87057 4.89917 0.212576
v 2.76051 4.80348 0.403766
v 1.63973 4.74694 0.314505
v 0.519064 4.70154 0.301483
v -0.583263 4.68599 0.499768
v -1.69712 4.6934 0.610013
v -2.81332 4.75208 0.497195
v -3.90813 4.8624 0.248297
v -4.97057 3.90807 0.0820133
v -4.96996 2.7936 0.136759
v -4.9758 1.67973 0.192227
v -4.9811 0.565822 0.240265
v -4.98697 -0.547576 0.277657
v -4.99457 -1.66029 0.320983
v -5.00183 -2.77286 0.38001
v -5.01196 -3.88188 0.468236
v 5.04322 -3.87979 0.328351
v 5.02685 -2.77312 0.219606
v 5.01676 -1.66146 0.213365
v 5.00765 -0.548702 0.204377
v 4.99841 0.56457 0.198944
v 4.9875 1.67866 0.167902
v 4.97886 2.79323 0.134321
v 4.96918 3.9066 0.0651736
v -3.83843 -3.8734 0.396933
v -3.801 -3.23118 0.299371
v -3.65045 -1.94242 0.258995
v -4.10126 -0.281789 0.232755
v -4.12523 0.733003 0.181617
v -4.11722 1.51686 0.12077
v -4.05041 2.80744 0.0406185
v -3.92308 3.87467 -0.179368
v -2.70903 -4.03805 0.31521
v -2.78278 -2.77012 0.332011
v -2.65934 -2.18126 0.28796
v -2.73378 -0.635863 0.281792
v -2.76715 0.493142 0.182142
v -2.69489 1.5341 0.0460777
v -2.84356 2.84577 -0.242505
v -2.76306 3.48823 0.0345898
v -1.64456 -4.26776 0.351466
v -1.48469 -2.95573 0.403474
v -1.87389 -1.66404 0.375501
v -1.85677 -0.871706 0.298926
v -1.51499 0.593335 -0.0170207
v -1.98027 1.64468 -0.174622
v -1.70552 2.68313 -0.0746627
v -1.5868 3.57815 0.357493
v -0.218817 -4.35635 0.401943
v -0.571785 -2.91801 0.45647
v -0.530273 -1.77751 0.361165
v -0.821388 -0.809359 0.244668
v -0.592616 0.390094 0.0505292
v -0.362397 1.41254 0.00768337
v -0.573491 2.5737 0.178303
v -0.762021 3.38524 0.368031
v 0.753862 -3.92505 0.374624
v 0.828357 -2.63504 0.402972
v 0.54062 -1.84851 0.363159
v 0.625272 -0.55244 0.0313444
v 0.597809 0.357841 0.045094
v 0.309531 1.4638 -0.00816092
v 0.526682 2.42853 0.113879
v 0.548352 3.61118 0.399543
v 1.97064 -3.67666 0.31338
v 1.69372 -2.86647 0.411033
v 1.83938 -1.93733 0.411618
v 1.99611 -0.42548 0.164741
v 1.99062 0.231753 -0.0352424
v 1.83758 1.49204 -0.0228399
v 1.41274 2.75906 0.0566431
v 1.48847 3.53024 0.307515
v 2.81557 -3.93952 0.326867
v 3.12163 -2.85405 0.320443
v 2.96958 -1.97603 0.33071
v 2.72825 -0.513751 0.305507
v 2.97286 0.271229 0.181984
v 3.08976 1.54281 -0.0950689
v 2.76664 3.10819 -0.141375
v 2.7471 3.43683 0.0342644
v 3.94541 -3.97932 0.325076
v 3.68421 -2.72528 0.302238
v 3.89304 -1.68784 0.297556
v 3.82647 -0.73225 0.309722
v 3.88198 0.27965 0.278967
v 4.16749 1.79596 0.146389
v 4.14482 2.74693 -0.0267135
v 4.02938 3.86897 -0.122984
vt 0.0001 0.0001
vt 0.9999 0.0001
vt 0.0001 0.9999
vt 0.9999 0.9999
vt 0.111189 0.0001
vt 0.222278 0.0001
vt 0.333367 0.0001
vt 0.444455 0.0001
vt 0.555544 0.0001
vt 0.666633 0.0001
vt 0.777722 0.0001
vt 0.888811 0.0001
vt 0.888811 0.9999
vt 0.777722 0.9999
vt 0.666633 0.9999
vt 0.555544 0.9999
vt 0.444455 0.9999
vt 0.333367 0.9999
vt 0.222278 0.9999
vt 0.111189 0.9999
vt 0.0001 0.888811
vt 0.0001 0.777722
vt 0.0001 0.666633
vt 0.0001 0.555544
vt 0.0001 0.444456
vt 0.0001 0.333367
vt 0.0001 0.222278
vt 0.0001 0.111189
vt 0.9999 0.111189
vt 0.9999 0.222278
vt 0.9999 0.333367
vt 0.9999 0.444456
vt 0.9999 0.555544
vt 0.9999 0.666633
vt 0.9999 0.777722
vt 0.9999 0.888811
vt 0.11727 0.115399
vt 0.120778 0.180369
vt 0.134636 0.309595
vt 0.088728 0.473895
vt 0.085886 0.575352
vt 0.086211 0.65375
vt 0.092207 0.78313
vt 0.106956 0.892282
vt 0.22987 0.102869
vt 0.221803 0.229552
vt 0.233521 0.288953
vt 0.225541 0.443179
vt 0.221596 0.556167
vt 0.227801 0.661237
vt 0.214896 0.795203
vt 0.22542 0.865181
vt 0.335524 0.082127
vt 0.351143 0.213907
vt 0.311934 0.342467
vt 0.313159 0.422214
vt 0.347791 0.572605
vt 0.301482 0.677733
vt 0.329031 0.783086
vt 0.344903 0.885466
vt 0.476837 0.074882
vt 0.441952 0.218774
vt 0.445749 0.333088
vt 0.416414 0.43099
vt 0.439746 0.552976
vt 0.463203 0.656843
vt 0.444252 0.77653
vt 0.426137 0.866051
vt 0.573419 0.117409
vt 0.581125 0.246686
vt 0.552512 0.326
vt 0.561075 0.459693
vt 0.558356 0.550596
vt 0.530299 0.662189
vt 0.553275 0.760113
vt 0.555478 0.888821
vt 0.694433 0.13996
vt 0.667048 0.221666
vt 0.681985 0.314267
vt 0.698218 0.467249
vt 0.696819 0.535952
vt 0.68253 0.662758
vt 0.642062 0.791726
vt 0.648523 0.877957
vt 0.778029 0.111667
vt 0.809426 0.219523
vt 0.794923 0.307783
vt 0.772028 0.454562
vt 0.796846 0.533374
vt 0.807262 0.663157
vt 0.778581 0.821037
vt 0.775122 0.858219
vt 0.890224 0.104741
vt 0.865679 0.23076
vt 0.887326 0.334104
vt 0.881307 0.429754
vt 0.887973 0.53063
vt 0.918106 0.681428
vt 0.915043 0.778027
vt 0.904815 0.89094
vn 0.0928055 0.122131 0.988166
vn -0.00718503 0.0646971 0.997879
vn -0.00403211 -0.161874 0.986803
vn 0.00367364 -0.112769 0.993614
vn 0.0578582 0.102008 0.9931
vn 0.0357943 0.136983 0.989927
vn 0.013842 0.131825 0.991176
vn -0.0204292 0.10532 0.994228
vn -0.0105026 0.100572 0.994874
vn 0.0225878 0.105304 0.994183
vn 0.0231027 0.0916772 0.995521
vn 0.0179683 0.0664026 0.997631
vn 0.195782 -0.2763 0.940919
vn 0.125756 -0.20022 0.971647
vn -0.045548 -7.66813e-05 0.998962
vn 0.0898302 0.0603775 0.994125
vn 0.0575582 -0.0792087 0.995195
vn -0.00750591 -0.221534 0.975124
vn -0.214425 -0.325068 0.921061
vn -0.246299 -0.381951 0.890758
vn 0.197561 0.0982 0.97536
vn 0.103132 0.0488944 0.993465
vn 0.0884336 0.0561591 0.994498
vn 0.0529554 0.0425569 0.99769
vn 0.0398305 0.0359675 0.998559
vn 0.0494581 0.0403737 0.99796
vn 0.0763391 0.0510177 0.995776
vn 0.0770188 0.109372 0.991013
vn -0.0102564 0.0803354 0.996715
vn 0.0466657 0.0318621 0.998402
vn 0.0789798 0.00251927 0.996873
vn 0.0808202 0.0132783 0.99664
vn 0.0331989 0.0368497 0.998769
vn -0.0221008 0.028783 0.999341
vn -0.13748 0.0871892 0.98666
vn -0.196317 0.0597855 0.978716
vn 0.0652489 0.126454 0.989824
vn 0.0416582 0.0691703 0.996735
vn 0.00897478 0.0325917 0.999429
vn 0.0216681 0.042621 0.998856
vn 0.0496031 0.0710137 0.996241
vn 0.0734022 0.0672539 0.995032
vn 0.147922 0.112947 0.982529
vn -0.0527917 -0.15845 0.985955
vn 0.0107903 0.067271 0.997676
vn -0.0370263 0.0332268 0.998762
vn -0.0593611 0.0303833 0.997774
vn -0.0292326 0.0466547 0.998483
vn 0.0832137 0.121194 0.989135
vn 0.1466 0.140799 0.979124
vn 0.0118063 -0.0237226 0.999649
vn -0.237296 -0.361075 0.90184
vn -0.0195193 0.0581995 0.998114
vn -0.0502263 0.0144038 0.998634
vn -0.0213106 0.0553775 0.998238
vn 0.0474868 0.131991 0.990113
vn 0.0209259 0.153016 0.988002
vn 0.00948781 0.0580575 0.998268
vn -0.189356 -0.262667 0.946124
vn -0.101 -0.287424 0.952463
vn -0.0161724 0.0433125 0.998931
vn -0.00614511 0.0137795 0.999886
vn 0.018143 0.120492 0.992549
vn 0.0516806 0.146719 0.987827
vn 0.00925122 0.0718685 0.997371
vn -0.0331633 -0.0404278 0.998632
vn -0.0857532 -0.180724 0.979788
vn -0.0751705 -0.225347 0.971374
vn 0.0241291 0.0209749 0.999489
vn 0.00207543 0.0106391 0.999941
vn -0.00191522 0.136093 0.990694
vn 0.00807912 0.153583 0.988103
vn 0.0265048 0.0137624 0.999554
vn 0.0161967 -0.0248529 0.99956
vn 0.0566155 -0.151439 0.986844
vn 0.0767178 -0.133854 0.988027
vn 0.0334804 0.00627673 0.99942
vn 0.0406784 -0.03782 0.998456
vn -0.0282311 0.093916 0.99518
vn -0.136042 0.230928 0.963413
vn -0.0774407 0.145325 0.986349
vn 0.0597511 -0.0130674 0.998128
vn 0.133182 -0.185885 0.973504
vn 0.0936989 -0.184642 0.978329
vn 0.00689483 0.0665317 0.99776
vn 0.0294602 -0.0109532 0.999506
vn 0.0451206 0.00215402 0.998979
vn -0.0731992 0.147316 0.986377
vn -0.125739 0.171074 0.977202
vn -0.114082 0.115214 0.986768
vn 0.102167 -0.163135 0.9813
vn 0.201278 -0.356654 0.912297
vn 0.0139914 0.0573005 0.998259
vn 0.0442122 0.00768901 0.998993
vn 0.0572838 -0.00438239 0.998348
vn 0.0293854 0.0312028 0.999081
vn -0.042266 0.0834559 0.995615
vn -0.115596 0.10156 0.988091
vn -0.164203 0.092595 0.982071
vn 0.0580105 -0.156686 0.985943
f 100/100/100 4/4/4 13/13/13
f 44/44/44 3/3/3 21/21/21
f 44/44/44 19/19/19 20/20/20
f 60/60/60 19/19/19 52/52/52
f 60/60/60 17/17/17 18/18/18
f 76/76/76 17/17/17 68/68/68
f 84/84/84 16/16/16 76/76/76
f 84/84/84 14/14/14 15/15/15
f 100/100/100 14/14/14 92/92/92
f 11/11/11 93/93/93 85/85/85
f 93/93/93 86/86/86 85/85/85
f 94/94/94 87/87/87 86/86/86
f 87/87/87 96/96/96 88/88/88
f 96/96/96 89/89/89 88/88/88
f 97/97/97 90/90/90 89/89/89
f 90/90/90 99/99/99 91/91/91
f 91/91/91 100/100/100 92/92/92
f 10/10/10 85/85/85 77/77/77
f 77/77/77 86/86/86 78/78/78
f 78/78/78 87/87/87 79/79/79
f 79/79/79 88/88/88 80/80/80
f 88/88/88 81/81/81 80/80/80
f 81/81/81 90/90/90 82/82/82
f 82/82/82 91/91/91 83/83/83
f 91/91/91 84/84/84 83/83/83
f 10/10/10 69/69/69 9/9/9
f 69/69/69 78/78/78 70/70/70
f 70/70/70 79/79/79 71/71/71
f 79/79/79 72/72/72 71/71/71
f 72/72/72 81/81/81 73/73/73
f 73/73/73 82/82/82 74/74/74
f 82/82/82 75/75/75 74/74/74
f 83/83/83 76/76/76 75/75/75
f 9/9/9 61/61/61 8/8/8
f 69/69/69 62/62/62 61/61/61
f 62/62/62 71/71/71 63/63/63
f 63/63/63 72/72/72 64/64/64
f 72/72/72 65/65/65 64/64/64
f 65/65/65 74/74/74 66/66/66
f 66/66/66 75/75/75 67/67/67
f 67/67/67 76/76/76 68/68/68
f 8/8/8 53/53/53 7/7/7
f 53/53/53 62/62/62 54/54/54
f 54/54/54 63/63/63 55/55/55
f 55/55/55 64/64/64 56/56/56
f 64/64/64 57/57/57 56/56/56
f 57/57/57 66/66/66 58/58/58
f 58/58/58 67/67/67 59/59/59
f 59/59/59 68/68/68 60/60/60
f 6/6/6 53/53/53 45/45/45
f 45/45/45 54/54/54 46/46/46
f 54/54/54 47/47/47 46/46/46
f 55/55/55 48/48/48 47/47/47
f 56/56/56 49/49/49 48/48/48
f 49/49/49 58/58/58 50/50/50
f 58/58/58 51/51/51 50/50/50
f 59/59/59 52/52/52 51/51/51
f 6/6/6 37/37/37 5/5/5
f 45/45/45 38/38/38 37/37/37
f 46/46/46 39/39/39 38/38/38
f 39/39/39 48/48/48 40/40/40
f 40/40/40 49/49/49 41/41/41
f 41/41/41 50/50/50 42/42/42
f 50/50/50 43/43/43 42/42/42
f 51/51/51 44/44/44 43/43/43
f 5/5/5 28/28/28 1/1/1
f 28/28/28 38/38/38 27/27/27
f 27/27/27 39/39/39 26/26/26
f 26/26/26 40/40/40 25/25/25
f 40/40/40 24/24/24 25/25/25
f 41/41/41 23/23/23 24/24/24
f 23/23/23 43/43/43 22/22/22
f 43/43/43 21/21/21 22/22/22
f 2/2/2 93/93/93 12/12/12
f 93/93/93 30/30/30 94/94/94
f 30/30/30 95/95/95 94/94/94
f 31/31/31 96/96/96 95/95/95
f 32/32/32 97/97/97 96/96/96
f 33/33/33 98/98/98 97/97/97
f 98/98/98 35/35/35 99/99/99
f 99/99/99 36/36/36 100/100/100
f 100/100/100 36/36/36 4/4/4
f 44/44/44 20/20/20 3/3/3
f 44/44/44 52/52/52 19/19/19
f 60/60/60 18/18/18 19/19/19
f 60/60/60 68/68/68 17/17/17
f 76/76/76 16/16/16 17/17/17
f 84/84/84 15/15/15 16/16/16
f 84/84/84 92/92/92 14/14/14
f 100/100/100 13/13/13 14/14/14
f 11/11/11 12/12/12 93/93/93
f 93/93/93 94/94/94 86/86/86
f 94/94/94 95/95/95 87/87/87
f 87/87/87 95/95/95 96/96/96
f 96/96/96 97/97/97 89/89/89
f 97/97/97 98/98/98 90/90/90
f 90/90/90 98/98/98 99/99/99
f 91/91/91 99/99/99 100/100/100
f 10/10/10 11/11/11 85/85/85
f 77/77/77 85/85/85 86/86/86
f 78/78/78 86/86/86 87/87/87
f 79/79/79 87/87/87 88/88/88
f 88/88/88 89/89/89 81/81/81
f 81/81/81 89/89/89 90/90/90
f 82/82/82 90/90/90 91/91/91
f 91/91/91 92/92/92 84/84/84
f 10/10/10 77/77/77 69/69/69
f 69/69/69 77/77/77 78/78/78
f 70/70/70 78/78/78 79/79/79
f 79/79/79 80/80/80 72/72/72
f 72/72/72 80/80/80 81/81/81
f 73/73/73 81/81/81 82/82/82
f 82/82/82 83/83/83 75/75/75
f 83/83/83 84/84/84 76/76/76
f 9/9/9 69/69/69 61/61/61
f 69/69/69 70/70/70 62/62/62
f 62/62/62 70/70/70 71/71/71
f 63/63/63 71/71/71 72/72/72
f 72/72/72 73/73/73 65/65/65
f 65/65/65 73/73/73 74/74/74
f 66/66/66 74/74/74 75/75/75
f 67/67/67 75/75/75 76/76/76
f 8/8/8 61/61/61 53/53/53
f 53/53/53 61/61/61 62/62/62
f 54/54/54 62/62/62 63/63/63
f 55/55/55 63/63/63 64/64/64
f 64/64/64 65/65/65 57/57/57
f 57/57/57 65/65/65 66/66/66
f 58/58/58 66/66/66 67/67/67
f 59/59/59 67/67/67 68/68/68
f 6/6/6 7/7/7 53/53/53
f 45/45/45 53/53/53 54/54/54
f 54/54/54 55/55/55 47/47/47
f 55/55/55 56/56/56 48/48/48
f 56/56/56 57/57/57 49/49/49
f 49/49/49 57/57/57 58/58/58
f 58/58/58 59/59/59 51/51/51
f 59/59/59 60/60/60 52/52/52
f 6/6/6 45/45/45 37/37/37
f 45/45/45 46/46/46 38/38/38
f 46/46/46 47/47/47 39/39/39
f 39/39/39 47/47/47 48/48/48
f 40/40/40 48/48/48 49/49/49
f 41/41/41 49/49/49 50/50/50
f 50/50/50 51/51/51 43/43/43
f 51/51/51 52/52/52 44/44/44
f 5/5/5 37/37/37 28/28/28
f 28/28/28 37/37/37 38/38/38
f 27/27/27 38/38/38 39/39/39
f 26/26/26 39/39/39 40/40/40
f 40/40/40 41/41/41 24/24/24
f 41/41/41 42/42/42 23/23/23
f 23/23/23 42/42/42 43/43/43
f 43/43/43 44/44/44 21/21/21
f 2/2/2 29/29/29 93/93/93
f 93/93/93 29/29/29 30/30/30
f 30/30/30 31/31/31 95/95/95
f 31/31/31 32/32/32 96/96/96
f 32/32/32 33/33/33 97/97/97
f 33/33/33 34/34/34 98/98/98
f 98/98/98 34/34/34 35/35/35
f 99/99/99 35/35/35 36/36/36
