# Blender v2.79 (sub 0) OBJ File: ''
# www.blender.org
v -5.012980 -4.978953 0.004229
v 4.987019 -4.978953 0.004229
v -5.012980 5.021048 0.004229
v 4.987019 5.021048 0.004229
v -3.901870 -4.978953 0.004229
v -2.790759 -4.978953 0.004229
v -1.679648 -4.978953 0.004229
v -0.568537 -4.978953 0.004229
v 0.542575 -4.978953 0.004229
v 1.653685 -4.978953 0.004229
v 2.764796 -4.978953 0.004229
v 3.875908 -4.978953 0.004229
v 3.875908 5.021048 0.004229
v 2.764796 5.021048 0.004229
v 1.653685 5.021048 0.004229
v 0.542574 5.021048 0.004229
v -0.568537 5.021048 0.004229
v -1.679648 5.021048 0.004229
v -2.790759 5.021048 0.004229
v -3.901870 5.021048 0.004229
v -5.012980 3.909936 0.004229
v -5.012980 2.798825 0.004229
v -5.012980 1.687714 0.004229
v -5.012980 0.576603 0.004229
v -5.012980 -0.534508 0.004229
v -5.012980 -1.645619 0.004229
v -5.012980 -2.756731 0.004229
v -5.012980 -3.867841 0.004229
v 4.987019 -3.867841 0.004229
v 4.987019 -2.756731 0.004229
v 4.987019 -1.645619 0.004229
v 4.987019 -0.534508 0.004229
v 4.987019 0.576603 0.004229
v 4.987019 1.687714 0.004229
v 4.987019 2.798825 0.004229
v 4.987019 3.909936 0.004229
v -3.841043 -3.825733 0.004229
v -3.805962 -3.175898 0.004229
v -3.667354 -1.883388 0.004229
v -4.126527 -0.240052 0.004229
v -4.154946 0.774714 0.004229
v -4.151695 1.558859 0.004229
v -4.091723 2.852917 0.004229
v -3.944204 3.944652 0.004229
v -2.714824 -3.951062 0.004229
v -2.795502 -2.683977 0.004229
v -2.678304 -2.089844 0.004229
v -2.758115 -0.547281 0.004229
v -2.797578 0.582833 0.004229
v -2.735515 1.633739 0.004229
v -2.864593 2.973666 0.004229
v -2.759327 3.673589 0.004229
v -1.658068 -4.158516 0.004229
v -1.501849 -2.840456 0.004229
v -1.894012 -1.554595 0.004229
v -1.881761 -0.756969 0.004229
v -1.535372 0.747247 0.004229
v -1.998555 1.798732 0.004229
v -1.723010 2.852476 0.004229
v -1.564260 3.876480 0.004229
v -0.244657 -4.230987 0.004229
v -0.593580 -2.791776 0.004229
v -0.555594 -1.648405 0.004229
v -0.849006 -0.669196 0.004229
v -0.615636 0.550911 0.004229
v -0.381021 1.589795 0.004229
v -0.570571 2.786899 0.004229
v -0.751756 3.682288 0.004229
v 0.721354 -3.805632 0.004229
v 0.798432 -2.512605 0.004229
v 0.512248 -1.719304 0.004229
v 0.597891 -0.382106 0.004229
v 0.570698 0.527104 0.004229
v 0.290072 1.643259 0.004229
v 0.519880 2.622703 0.004229
v 0.541907 3.910032 0.004229
v 1.931736 -3.580070 0.004229
v 1.657830 -2.762848 0.004229
v 1.807233 -1.836656 0.004229
v 1.969594 -0.306533 0.004229
v 1.955601 0.380639 0.004229
v 1.812683 1.648958 0.004229
v 1.407926 2.938887 0.004229
v 1.472545 3.801369 0.004229
v 2.767868 -3.863056 0.004229
v 3.081898 -2.784284 0.004229
v 2.936836 -1.901511 0.004229
v 2.707846 -0.433425 0.004229
v 2.956070 0.354858 0.004229
v 3.060250 1.652946 0.004229
v 2.773390 3.232064 0.004229
v 2.738793 3.603952 0.004229
v 3.890043 -3.932337 0.004229
v 3.644545 -2.671889 0.004229
v 3.861051 -1.638240 0.004229
v 3.800854 -0.681554 0.004229
v 3.867522 0.327412 0.004229
v 4.168914 1.835689 0.004229
v 4.138277 2.801868 0.004229
v 4.035981 3.931226 0.004229
vt 0.904815 0.890940
vt 0.999900 0.999900
vt 0.888811 0.999900
vt 0.106956 0.892282
vt 0.000100 0.999900
vt 0.000100 0.888811
vt 0.222278 0.999900
vt 0.111189 0.999900
vt 0.344903 0.885466
vt 0.225420 0.865181
vt 0.444455 0.999900
vt 0.333367 0.999900
vt 0.555478 0.888821
vt 0.426137 0.866051
vt 0.648523 0.877957
vt 0.555544 0.999900
vt 0.777722 0.999900
vt 0.666633 0.999900
vt 0.775122 0.858219
vt 0.777722 0.000100
vt 0.890224 0.104741
vt 0.778029 0.111667
vt 0.809426 0.219523
vt 0.865679 0.230760
vt 0.794923 0.307783
vt 0.881307 0.429754
vt 0.772028 0.454562
vt 0.796846 0.533374
vt 0.887973 0.530630
vt 0.807262 0.663157
vt 0.915043 0.778027
vt 0.778581 0.821037
vt 0.666633 0.000100
vt 0.694433 0.139960
vt 0.667048 0.221666
vt 0.681985 0.314267
vt 0.698218 0.467249
vt 0.696819 0.535952
vt 0.682530 0.662758
vt 0.642062 0.791726
vt 0.573419 0.117409
vt 0.555544 0.000100
vt 0.581125 0.246686
vt 0.552512 0.326000
vt 0.561075 0.459693
vt 0.558356 0.550596
vt 0.530299 0.662189
vt 0.553275 0.760113
vt 0.476837 0.074882
vt 0.444455 0.000100
vt 0.441952 0.218774
vt 0.445749 0.333088
vt 0.416414 0.430990
vt 0.439746 0.552976
vt 0.463203 0.656843
vt 0.444252 0.776530
vt 0.335524 0.082127
vt 0.333367 0.000100
vt 0.351143 0.213907
vt 0.311934 0.342467
vt 0.313159 0.422214
vt 0.347791 0.572605
vt 0.301482 0.677733
vt 0.329031 0.783086
vt 0.222278 0.000100
vt 0.229870 0.102869
vt 0.221803 0.229552
vt 0.233521 0.288953
vt 0.225541 0.443179
vt 0.221596 0.556167
vt 0.227801 0.661237
vt 0.214896 0.795203
vt 0.117270 0.115399
vt 0.111189 0.000100
vt 0.120778 0.180369
vt 0.134636 0.309595
vt 0.088728 0.473895
vt 0.085886 0.575352
vt 0.086211 0.653750
vt 0.092207 0.783130
vt 0.000100 0.111189
vt 0.000100 0.000100
vt 0.000100 0.222278
vt 0.000100 0.333367
vt 0.000100 0.444456
vt 0.000100 0.555544
vt 0.000100 0.666633
vt 0.000100 0.777722
vt 0.999900 0.000100
vt 0.888811 0.000100
vt 0.999900 0.222278
vt 0.887326 0.334104
vt 0.999900 0.333367
vt 0.999900 0.444456
vt 0.999900 0.555544
vt 0.918106 0.681428
vt 0.999900 0.777722
vt 0.999900 0.888811
vt 0.999900 0.111189
vt 0.999900 0.666633
vn 0.0000 0.0000 1.0000
s off
f 100/1/1 4/2/1 13/3/1
f 44/4/1 3/5/1 21/6/1
f 44/4/1 19/7/1 20/8/1
f 60/9/1 19/7/1 52/10/1
f 60/9/1 17/11/1 18/12/1
f 76/13/1 17/11/1 68/14/1
f 84/15/1 16/16/1 76/13/1
f 84/15/1 14/17/1 15/18/1
f 100/1/1 14/17/1 92/19/1
f 11/20/1 93/21/1 85/22/1
f 93/21/1 86/23/1 85/22/1
f 94/24/1 87/25/1 86/23/1
f 87/25/1 96/26/1 88/27/1
f 96/26/1 89/28/1 88/27/1
f 97/29/1 90/30/1 89/28/1
f 90/30/1 99/31/1 91/32/1
f 91/32/1 100/1/1 92/19/1
f 10/33/1 85/22/1 77/34/1
f 77/34/1 86/23/1 78/35/1
f 78/35/1 87/25/1 79/36/1
f 79/36/1 88/27/1 80/37/1
f 88/27/1 81/38/1 80/37/1
f 81/38/1 90/30/1 82/39/1
f 82/39/1 91/32/1 83/40/1
f 91/32/1 84/15/1 83/40/1
f 10/33/1 69/41/1 9/42/1
f 69/41/1 78/35/1 70/43/1
f 70/43/1 79/36/1 71/44/1
f 79/36/1 72/45/1 71/44/1
f 72/45/1 81/38/1 73/46/1
f 73/46/1 82/39/1 74/47/1
f 82/39/1 75/48/1 74/47/1
f 83/40/1 76/13/1 75/48/1
f 9/42/1 61/49/1 8/50/1
f 69/41/1 62/51/1 61/49/1
f 62/51/1 71/44/1 63/52/1
f 63/52/1 72/45/1 64/53/1
f 72/45/1 65/54/1 64/53/1
f 65/54/1 74/47/1 66/55/1
f 66/55/1 75/48/1 67/56/1
f 67/56/1 76/13/1 68/14/1
f 8/50/1 53/57/1 7/58/1
f 53/57/1 62/51/1 54/59/1
f 54/59/1 63/52/1 55/60/1
f 55/60/1 64/53/1 56/61/1
f 64/53/1 57/62/1 56/61/1
f 57/62/1 66/55/1 58/63/1
f 58/63/1 67/56/1 59/64/1
f 59/64/1 68/14/1 60/9/1
f 6/65/1 53/57/1 45/66/1
f 45/66/1 54/59/1 46/67/1
f 54/59/1 47/68/1 46/67/1
f 55/60/1 48/69/1 47/68/1
f 56/61/1 49/70/1 48/69/1
f 49/70/1 58/63/1 50/71/1
f 58/63/1 51/72/1 50/71/1
f 59/64/1 52/10/1 51/72/1
f 6/65/1 37/73/1 5/74/1
f 45/66/1 38/75/1 37/73/1
f 46/67/1 39/76/1 38/75/1
f 39/76/1 48/69/1 40/77/1
f 40/77/1 49/70/1 41/78/1
f 41/78/1 50/71/1 42/79/1
f 50/71/1 43/80/1 42/79/1
f 51/72/1 44/4/1 43/80/1
f 5/74/1 28/81/1 1/82/1
f 28/81/1 38/75/1 27/83/1
f 27/83/1 39/76/1 26/84/1
f 26/84/1 40/77/1 25/85/1
f 40/77/1 24/86/1 25/85/1
f 41/78/1 23/87/1 24/86/1
f 23/87/1 43/80/1 22/88/1
f 43/80/1 21/6/1 22/88/1
f 2/89/1 93/21/1 12/90/1
f 93/21/1 30/91/1 94/24/1
f 30/91/1 95/92/1 94/24/1
f 31/93/1 96/26/1 95/92/1
f 32/94/1 97/29/1 96/26/1
f 33/95/1 98/96/1 97/29/1
f 98/96/1 35/97/1 99/31/1
f 99/31/1 36/98/1 100/1/1
f 100/1/1 36/98/1 4/2/1
f 44/4/1 20/8/1 3/5/1
f 44/4/1 52/10/1 19/7/1
f 60/9/1 18/12/1 19/7/1
f 60/9/1 68/14/1 17/11/1
f 76/13/1 16/16/1 17/11/1
f 84/15/1 15/18/1 16/16/1
f 84/15/1 92/19/1 14/17/1
f 100/1/1 13/3/1 14/17/1
f 11/20/1 12/90/1 93/21/1
f 93/21/1 94/24/1 86/23/1
f 94/24/1 95/92/1 87/25/1
f 87/25/1 95/92/1 96/26/1
f 96/26/1 97/29/1 89/28/1
f 97/29/1 98/96/1 90/30/1
f 90/30/1 98/96/1 99/31/1
f 91/32/1 99/31/1 100/1/1
f 10/33/1 11/20/1 85/22/1
f 77/34/1 85/22/1 86/23/1
f 78/35/1 86/23/1 87/25/1
f 79/36/1 87/25/1 88/27/1
f 88/27/1 89/28/1 81/38/1
f 81/38/1 89/28/1 90/30/1
f 82/39/1 90/30/1 91/32/1
f 91/32/1 92/19/1 84/15/1
f 10/33/1 77/34/1 69/41/1
f 69/41/1 77/34/1 78/35/1
f 70/43/1 78/35/1 79/36/1
f 79/36/1 80/37/1 72/45/1
f 72/45/1 80/37/1 81/38/1
f 73/46/1 81/38/1 82/39/1
f 82/39/1 83/40/1 75/48/1
f 83/40/1 84/15/1 76/13/1
f 9/42/1 69/41/1 61/49/1
f 69/41/1 70/43/1 62/51/1
f 62/51/1 70/43/1 71/44/1
f 63/52/1 71/44/1 72/45/1
f 72/45/1 73/46/1 65/54/1
f 65/54/1 73/46/1 74/47/1
f 66/55/1 74/47/1 75/48/1
f 67/56/1 75/48/1 76/13/1
f 8/50/1 61/49/1 53/57/1
f 53/57/1 61/49/1 62/51/1
f 54/59/1 62/51/1 63/52/1
f 55/60/1 63/52/1 64/53/1
f 64/53/1 65/54/1 57/62/1
f 57/62/1 65/54/1 66/55/1
f 58/63/1 66/55/1 67/56/1
f 59/64/1 67/56/1 68/14/1
f 6/65/1 7/58/1 53/57/1
f 45/66/1 53/57/1 54/59/1
f 54/59/1 55/60/1 47/68/1
f 55/60/1 56/61/1 48/69/1
f 56/61/1 57/62/1 49/70/1
f 49/70/1 57/62/1 58/63/1
f 58/63/1 59/64/1 51/72/1
f 59/64/1 60/9/1 52/10/1
f 6/65/1 45/66/1 37/73/1
f 45/66/1 46/67/1 38/75/1
f 46/67/1 47/68/1 39/76/1
f 39/76/1 47/68/1 48/69/1
f 40/77/1 48/69/1 49/70/1
f 41/78/1 49/70/1 50/71/1
f 50/71/1 51/72/1 43/80/1
f 51/72/1 52/10/1 44/4/1
f 5/74/1 37/73/1 28/81/1
f 28/81/1 37/73/1 38/75/1
f 27/83/1 38/75/1 39/76/1
f 26/84/1 39/76/1 40/77/1
f 40/77/1 41/78/1 24/86/1
f 41/78/1 42/79/1 23/87/1
f 23/87/1 42/79/1 43/80/1
f 43/80/1 44/4/1 21/6/1
f 2/89/1 29/99/1 93/21/1
f 93/21/1 29/99/1 30/91/1
f 30/91/1 31/93/1 95/92/1
f 31/93/1 32/94/1 96/26/1
f 32/94/1 33/95/1 97/29/1
f 33/95/1 34/100/1 98/96/1
f 98/96/1 34/100/1 35/97/1
f 99/31/1 35/97/1 36/98/1
